<svg xmlns="http://www.w3.org/2000/svg" xml:space="preserve" width="512" height="335.45001"><path style="fill:#f5f5f5" d="M38.345 335.452h102.898l70.621-20.966-70.621-20.966 70.621-20.966-70.621-20.966 70.621-20.966-70.621-20.966 70.621-20.966-70.622-20.962 70.621-20.966-70.621-20.966 70.621-20.966-70.621-20.966 70.621-20.966-70.621-20.966 70.621-20.966L141.242 0H38.345C17.167.004 0 17.171 0 38.349v258.759c0 21.177 17.167 38.344 38.345 38.344z"/><path style="fill:#ff4b55" d="m141.241 41.935 70.621 20.966-70.621 20.966 70.621 20.966-70.621 20.966 70.621 20.966-70.621 20.963 70.621 20.966-70.621 20.966 70.621 20.966-70.621 20.966 70.621 20.966-70.621 20.966 70.621 20.966-70.621 20.966h332.414c21.177 0 38.345-17.167 38.345-38.345V38.349C512 17.172 494.833.004 473.655.004H141.242l70.621 20.966z"/></svg>