<svg xmlns="http://www.w3.org/2000/svg" xml:space="preserve" width="512" height="335.45001"><path style="fill:#ffe15a" d="M0 297.105c0 21.177 17.167 38.345 38.345 38.345h435.311c21.165 0 38.324-17.148 38.344-38.307v-45.555H0z"/><path style="fill:#73af00" d="M0 167.72301h512v83.86H0z"/><path style="fill:#f5f5f5" d="M0 83.863h512v83.86H0z"/><path style="fill:#41479b" d="M473.656 0H38.345C17.167 0 0 17.167 0 38.345v45.517h512V38.307C511.98 17.148 494.821 0 473.656 0z"/><path style="fill:#ff4b55" d="M214.07001.003h83.86v335.45001h-83.86z"/><path style="fill:#ffe15a" d="m76.499 11.297 7.366 22.087 23.282.181c1.804.014 2.551 2.316 1.1 3.388l-18.73 13.83 7.022 22.198c.544 1.719-1.414 3.143-2.881 2.093L74.717 61.536 55.776 75.074c-1.468 1.049-3.425-.374-2.881-2.093l7.022-22.198L41.19 36.952c-1.451-1.071-.703-3.373 1.1-3.388l23.282-.181 7.366-22.087c.569-1.71 2.99-1.71 3.561.001z"/></svg>