<svg xmlns="http://www.w3.org/2000/svg" xml:space="preserve" width="512" height="335.45001"><path style="fill:#ff4b55" d="M473.655 335.448H38.345C17.167 335.448 0 318.281 0 297.103V38.345C0 17.168 17.167 0 38.345 0h435.31C494.832 0 512 17.167 512 38.345v258.759c0 21.177-17.167 38.344-38.345 38.344z"/><path style="fill:#f5f5f5" d="M353.103 132.414H291.31V70.621c0-4.875-3.953-8.828-8.828-8.828h-52.966c-4.875 0-8.828 3.953-8.828 8.828v61.793h-61.793c-4.875 0-8.828 3.953-8.828 8.828v52.966c0 4.875 3.953 8.828 8.828 8.828h61.793v61.793c0 4.875 3.953 8.828 8.828 8.828h52.966c4.875 0 8.828-3.953 8.828-8.828v-61.795h61.793c4.875 0 8.828-3.953 8.828-8.828V141.24c0-4.874-3.953-8.826-8.828-8.826z"/></svg>