<svg xmlns="http://www.w3.org/2000/svg" xml:space="preserve" width="512" height="335.45001"><style>.st0{fill:#41479b}.st1{fill:#f5f5f5}</style><path class="st0" d="M512 38.345C512 17.168 494.833 0 473.655 0H38.345C17.167 0 0 17.167 0 38.345V67.09h512V38.345zM38.345 335.448h435.31c21.177 0 38.345-17.167 38.345-38.345v-28.745H0v28.745c0 21.178 17.167 38.345 38.345 38.345z"/><path class="st1" d="M0 67.094h512v67.08999H0v-67.09z"/><path class="st0" d="M0 134.184h512v67.09H0v-67.09z"/><path class="st1" d="M0 201.27399h512v67.09H0v-67.09z"/><path d="M13.9 326.64499 258.714 171.596c2.841-1.79999 2.841-5.945 0-7.745L13.899 8.80301C5.409 15.837 0 26.458 0 38.345v258.759c0 11.88598 5.409 22.50698 13.9 29.541v-.00002z" style="fill:#ff4b55"/><path class="st1" d="m88.526 125.165 9.064 27.17599 28.647.222c2.219.018 3.139 2.849 1.354 4.168l-23.046 17.018 8.641 27.313c.67 2.11599-1.74 3.86599-3.545 2.575L86.335 186.979l-23.306 16.658c-1.805 1.29098-4.215-.46-3.545-2.57502l8.641-27.31299-23.045-17.018c-1.785-1.319-.865-4.151 1.354-4.168l28.647-.222 9.064-27.176c.701-2.105 3.68-2.105 4.381 0z"/></svg>