<svg xmlns="http://www.w3.org/2000/svg" xml:space="preserve" width="512" height="335.45001"><path style="fill:#41479b" d="M38.345 335.448h435.31c9.386 0 17.98-3.378 24.644-8.977L13.7 8.975C5.326 16.01 0 26.553 0 38.345v258.759c0 21.177 17.167 38.344 38.345 38.344z"/><path style="fill:#73af00" d="M512 297.103V38.345C512 17.168 494.833 0 473.655 0H38.345c-9.386 0-17.98 3.377-24.644 8.975l484.6 317.496c8.373-7.033 13.699-17.576 13.699-29.368z"/><circle style="fill:#ffe15a" cx="256" cy="167.724" r="52.966"/><path style="fill:#f5f5f5" d="m38.615 256.597 3.064 7.761 7.978-2.443c.444-.136.823.341.593.744l-4.158 7.234 6.884 4.714c.383.262.247.856-.212.927l-8.248 1.26.607 8.321c.034.462-.516.727-.856.413l-6.127-5.663-6.127 5.663c-.34.314-.89.05-.856-.413l.607-8.321-8.248-1.26c-.458-.07-.594-.665-.212-.927l6.884-4.714-4.158-7.234c-.231-.402.149-.879.593-.744l7.978 2.443 3.064-7.761c.169-.432.779-.432.95 0zm111.578-20.921 3.064 7.761 7.978-2.443c.444-.136.823.341.593.744l-4.158 7.234 6.884 4.714c.383.262.247.856-.212.927l-8.248 1.26.607 8.321c.034.462-.516.727-.856.413l-6.127-5.663-6.127 5.663c-.341.314-.89.05-.856-.413l.607-8.321-8.248-1.26c-.458-.07-.594-.665-.212-.927l6.884-4.714-4.158-7.234c-.231-.402.149-.879.593-.744l7.978 2.443 3.064-7.761c.169-.431.78-.431.95 0zm-55.79-50.31 3.064 7.761 7.978-2.443c.444-.136.823.341.593.744l-4.158 7.234 6.884 4.714c.383.262.247.856-.212.927l-8.248 1.26.607 8.321c.034.462-.516.727-.856.413l-6.127-5.663-6.127 5.663c-.34.314-.89.05-.856-.413l.607-8.321-8.248-1.26c-.458-.07-.594-.665-.212-.927l6.884-4.714-4.158-7.234c-.231-.402.149-.879.593-.744l7.978 2.443 3.064-7.761c.17-.431.78-.431.95 0zm0 182.809 3.064 7.761 7.978-2.443c.444-.136.823.341.593.743l-4.158 7.234 6.884 4.714c.383.262.247.856-.212.927l-8.248 1.26.607 8.321c.034.462-.516.727-.856.413l-6.127-5.663-6.127 5.663c-.34.314-.89.05-.856-.413l.607-8.321-8.248-1.26c-.458-.07-.594-.665-.212-.927l6.884-4.714-4.158-7.234c-.231-.402.149-.879.593-.743l7.978 2.443 3.064-7.761c.17-.431.78-.431.95 0zm22.836-104.555 2.138 6.413 6.761.053c.524.004.74.672.32.983l-5.439 4.017 2.039 6.445c.158.5-.41.913-.836.608l-5.5-3.932-5.5 3.932c-.426.305-.994-.108-.836-.608l2.039-6.445-5.439-4.017c-.422-.311-.204-.98.32-.983l6.761-.053 2.138-6.413c.166-.497.869-.497 1.034 0z" transform="translate(0 -88.276)"/><path style="fill:#73af00" d="M224.575 144.94c-2.166-.505-4.343 5.067-1.93 6.997 2.413 1.93 6.756 5.549 4.102 7.721-2.654 2.172-3.619 2.413-4.102 5.067-.482 2.654 0 3.137-2.172 4.343s-7.239 3.619-5.067 6.033c2.172 2.413 5.067.966 6.997-2.895 0 0 13.512-.482 13.995.482.482.966 1.689 4.585 4.585 3.619l2.895-.966s1.689-.724 2.895.724 4.102 1.93 7.48 1.93c3.379 0 6.273 1.93 6.033 6.515-.154 2.937-.904 9.043-1.421 13.052-.277 2.147 1.195 4.122 3.33 4.478l6.178 1.03c1.625.27 3.136-.889 3.281-2.53.29-3.3.711-8.137.697-8.308-.139-1.735 3.378-10.616 3.137-14.719l-.242-4.102s3.619-.482 5.067-2.895c1.448-2.413 4.585-8.445 10.858-10.616l1.689-4.102s-4.825-2.172-3.861-3.619c.966-1.448 1.448-5.309.724-8.445s-.966-7.48-.966-7.48-1.72-.727-2.083.273c-.363 1-.727 1.544-1.635 1.363-.908-.182-2.271-.273-2.634-1.09-.363-.817-1.363-1.635-2.271-1.181-.908.455-2.453 6.54-4.632 7.176 0 0-.182-2.634-1.544-2.089-1.362.545-1.272 1.816-1.453 4.087-.181 2.271-15.443 17.622-28.796 13.535 0 0-1.453-2.906-4.451-2.634-2.998.272-5.905.182-7.63-1.908-1.728-2.091-4.477-8.245-7.053-8.846z"/><path style="fill:#ffe15a" d="M322.837 170.181c4.024 4.276 48.239 16.317 92.932-7.094 44.693-23.411 71.295-30.15 71.295-30.15s.354-6.03 5.853-6.916c5.497-.887 2.838-3.192 1.419-4.966-1.419-1.773-8.335-6.562-17.736-2.483 0 0-10.936.414-12.591-14.72-1.655-15.134-2.365-30.505-6.148-37.126C454.077 60.105 422.864 27 419.08 29.6c-3.784 2.601 9.459 35.47 21.756 47.058 0 0 2.838 20.337-.71 21.282-3.548.946-23.174-17.026-58.172-21.282 0 0 14.898 20.337 33.106 28.85 18.208 8.513 23.174 16.317 22.701 19.627-.473 3.31-6.621 19.154-16.789 26.485-10.168 7.33-35.707 27.193-93.642 16.789 0-.001-6.384-.238-4.493 1.772z"/></svg>