<svg xmlns="http://www.w3.org/2000/svg" xml:space="preserve" width="512" height="335.45001"><path style="fill:#c8414b" d="M0 385.379c0 21.177 17.167 38.345 38.345 38.345h435.31c21.177 0 38.345-17.167 38.345-38.345v-32.276H0zM473.655 88.276H38.345C17.167 88.276 0 105.443 0 126.621v32.276h512v-32.276c0-21.178-17.167-38.345-38.345-38.345z" transform="translate(0 -88.276)"/><path style="fill:#ffd250" d="M0 70.62399h512V264.834H0z"/><path style="fill:#c8414b" d="m216.276 167.724 7.485-33.681c.69-3.102-1.671-6.044-4.849-6.044h-5.272c-3.177 0-5.537 2.943-4.849 6.044z"/><path style="fill:#f5f5f5" d="M207.45 150.064h17.655v75.03H207.45z"/><path style="fill:#fab446" d="M203.03 141.244h26.483v8.828H203.03z"/><path style="fill:#c8414b" d="M185.38 256h44.14v8.828h-44.14zm44.137 26.483v8.827l-26.483-8.827v-8.828zM83.862 256l7.485-33.681c.69-3.102-1.671-6.044-4.849-6.044h-5.272c-3.177 0-5.537 2.943-4.849 6.044z" transform="translate(0 -88.276)"/><path style="fill:#f5f5f5" d="M114.759 141.241c-4.875 0-8.828 3.953-8.828 8.828v57.379c0 10.725 10.01 30.897 44.138 30.897s44.138-20.171 44.138-30.897v-57.379c0-4.875-3.953-8.828-8.828-8.828z"/><path style="fill:#c8414b" d="M150.069 273.655h-44.138v-35.31c0-4.875 3.953-8.828 8.828-8.828h35.31zm0 0h44.138v22.069c0 12.189-9.88 22.069-22.069 22.069-12.189 0-22.069-9.88-22.069-22.069z" transform="translate(0 -88.276)"/><path style="fill:#fab446" d="M105.931 185.379h44.138v22.069c0 12.189-9.88 22.069-22.069 22.069-12.189 0-22.069-9.88-22.069-22.069z"/><path style="fill:#c8414b" d="M141.241 313.28v-39.625h-8.828v43.693c3.284-.666 6.251-2.12 8.828-4.068zm-17.655 4.068v-43.693h-8.828v39.625c2.578 1.948 5.545 3.402 8.828 4.068z" transform="translate(0 -88.276)"/><path style="fill:#ffb441" d="M114.76 167.724h26.483v8.828H114.76z"/><path style="fill:#fab446" d="M114.76 238.34h26.483v8.828H114.76z" transform="translate(0 -88.276)"/><path style="fill:#fab446" d="M119.17 243.59h17.655v15.992H119.17z" transform="translate(0 -88.276)"/><path style="fill:#f5f5f5" d="M75.03 150.064h17.655v75.03H75.03z"/><path style="fill:#fab446" d="M70.62 308.97h26.483v8.828H70.62zm0-79.45h26.483v8.828H70.62z" transform="translate(0 -88.276)"/><path style="fill:#5064aa" d="M66.21 229.51401h35.31v8.828H66.21z"/><path style="fill:#fab446" d="M207.45 220.694h26.483v8.828H207.45z"/><path style="fill:#5064aa" d="M198.62 229.51401h35.31v8.828h-35.31z"/><path style="fill:#fab446" d="M123.59 132.414h52.966v8.828H123.59z"/><path style="fill:#ffb441" d="M145.66 105.93401h8.828v26.483h-8.828z"/><path style="fill:#f5f5f5" d="M141.241 207.448c-7.302 0-13.241-5.94-13.241-13.241 0-7.302 5.94-13.241 13.241-13.241 7.302 0 13.241 5.94 13.241 13.241.001 7.301-5.939 13.241-13.241 13.241zm0-17.655c-2.435 0-4.414 1.978-4.414 4.414 0 2.435 1.978 4.414 4.414 4.414s4.414-1.978 4.414-4.414c0-2.435-1.978-4.414-4.414-4.414z" transform="translate(0 -88.276)"/><path style="fill:#f5f5f5" d="M158.897 207.448c-7.302 0-13.241-5.94-13.241-13.241 0-7.302 5.94-13.241 13.241-13.241 7.302 0 13.241 5.94 13.241 13.241 0 7.301-5.94 13.241-13.241 13.241zm0-17.655c-2.435 0-4.414 1.978-4.414 4.414 0 2.435 1.978 4.414 4.414 4.414 2.435 0 4.414-1.978 4.414-4.414-.001-2.435-1.979-4.414-4.414-4.414z" transform="translate(0 -88.276)"/><path style="fill:#f5f5f5" d="M176.552 216.276c-7.302 0-13.241-5.94-13.241-13.241 0-7.302 5.94-13.241 13.241-13.241 7.302 0 13.241 5.94 13.241 13.241 0 7.301-5.94 13.241-13.241 13.241zm0-17.655c-2.435 0-4.414 1.978-4.414 4.414 0 2.435 1.978 4.414 4.414 4.414 2.435 0 4.414-1.978 4.414-4.414s-1.979-4.414-4.414-4.414zm-52.966 17.655c-7.302 0-13.241-5.94-13.241-13.241 0-7.302 5.94-13.241 13.241-13.241 7.302 0 13.241 5.94 13.241 13.241.001 7.301-5.939 13.241-13.241 13.241zm0-17.655c-2.435 0-4.414 1.978-4.414 4.414 0 2.435 1.978 4.414 4.414 4.414S128 205.47 128 203.034c0-2.435-1.978-4.413-4.414-4.413z" transform="translate(0 -88.276)"/><path style="fill:#fab446" d="M176.552 203.034v4.414c0 2.434-1.98 4.414-4.414 4.414-2.434 0-4.414-1.98-4.414-4.414v-4.414h8.828m8.827-8.827h-26.483v13.241c0 7.302 5.94 13.241 13.241 13.241 7.302 0 13.241-5.94 13.241-13.241v-13.241z"/><path style="fill:#ffa0d2" d="M172.138 176.552c-4.875 0-8.828-3.953-8.828-8.828v-8.828c0-4.875 3.953-8.828 8.828-8.828s8.828 3.953 8.828 8.828v8.828c0 4.875-3.953 8.828-8.828 8.828z"/><circle style="fill:#5064aa" cx="150.07001" cy="185.37399" r="13.241"/><path style="fill:#fab446" d="M145.66 88.274h8.828v26.483h-8.828z"/><path style="fill:#c8414b" d="m123.586 132.414-8.828-8.828 5.171-5.171c7.993-7.993 18.835-12.484 30.14-12.484s22.146 4.491 30.14 12.484l5.171 5.171-8.828 8.828z"/><g transform="translate(0 -88.276)"><circle style="fill:#ffd250" cx="150.07001" cy="211.86" r="4.414"/><circle style="fill:#ffd250" cx="132.41" cy="211.86" r="4.414"/><circle style="fill:#ffd250" cx="167.72" cy="211.86" r="4.414"/></g><path style="fill:#c8414b" d="M70.62 256h44.14v8.828H70.62zm.001 26.483v8.827l26.482-8.827v-8.828z" transform="translate(0 -88.276)"/></svg>