<svg xmlns="http://www.w3.org/2000/svg" xml:space="preserve" width="512" height="335.45001"><path style="fill:#73af00" d="M473.655 0H38.345C17.167 0 0 17.167 0 38.345v73.471h512V38.345C512 17.167 494.833 0 473.655 0z"/><path style="fill:#ff4b55" d="M0 297.103c0 21.177 17.167 38.345 38.345 38.345h435.31c21.177 0 38.345-17.167 38.345-38.345v-73.471H0z"/><path style="fill:#ffe15a" d="M0 111.814h512v111.81H0z"/><path style="fill:#4173cd" d="M361.945 167.822c0 58.426-47.434 105.945-105.945 105.945-58.511 0-105.945-47.519-105.945-105.945 0-58.595 47.435-106.029 105.945-106.029 58.51 0 105.945 47.434 105.945 106.029z"/><path style="fill:#f2dd30" d="M175.42 229.463h61.556l13.929-42.867 3.699 11.498-20.227 62.316-6.026-4.396 6.301-19.362h-49.506zm30.756 94.784 19.025-58.51-36.462-26.55h12.026l52.995 38.473-6.024 4.396-16.509-12.007-15.325 47.181zm99.646 0L256 288.061l-36.442 26.464 3.721-11.329 52.952-38.558 2.262 7.102-16.468 11.923 40.057 29.172zm30.756-94.784-49.781 36.274 13.931 42.869-9.724-7.104-20.209-62.316h7.399l6.298 19.448 40.079-29.172h12.006v.001zM256 170.953l19.025 58.51h45.088l-9.745 7.189h-65.487l2.305-7.189h20.418l-15.326-47.096z" transform="translate(0 -88.276)"/><path style="fill:#f2dd30" d="M257.775 340.822h-3.53V294.91h3.53zm78.276-56.991-43.651-14.12 1.099-3.297 43.672 14.12zm-160.123 0-1.1-3.297 43.692-14.12 1.08 3.297zm104.361-58.173-2.877-2.028 26.995-37.12 2.812 2.03zm-48.513 0-27.038-37.118 2.855-2.03 26.973 37.12z" transform="translate(0 -88.276)"/></svg>