<svg xmlns="http://www.w3.org/2000/svg" xml:space="preserve" width="512" height="335.45001"><path style="fill:#41479b" d="M473.655.001H38.345C17.167.001 0 17.168 0 38.346v258.759c0 21.177 17.167 38.345 38.345 38.345h435.31c21.177 0 38.345-17.167 38.345-38.345V38.346C512 17.168 494.833.001 473.655.001z"/><path style="fill:#f5f5f5" d="M511.469 32.007C508.447 13.848 492.672 0 473.655 0h-9.977l-163.54 107.147V.001h-88.276v107.147L48.322.001h-9.977C19.328.001 3.553 13.848.531 32.008l139.778 91.58H0v88.276h140.309L.531 303.442c3.022 18.159 18.797 32.007 37.814 32.007h9.977l163.54-107.147v107.147h88.276V228.302l163.54 107.147h9.977c19.017 0 34.792-13.847 37.814-32.007l-139.778-91.58H512v-88.276H371.691z"/><path style="fill:#ff4b55" d="M229.517 229.517H0v52.966h229.517v141.241h52.966V282.483H512v-52.966H282.483V88.276h-52.966z" transform="translate(0 -88.275)"/><path style="fill:#ff4b55" d="m24.793 421.252 186.583-121.114h-32.428L9.224 410.31c4.153 4.847 9.49 8.645 15.569 10.942zm321.595-121.114H313.96l180.716 117.305c5.057-3.321 9.277-7.807 12.287-13.075zM4.049 109.475l157.73 102.387h32.428L15.475 95.842c-4.799 3.572-8.726 8.242-11.426 13.633zm328.517 102.387 170.035-110.375c-4.199-4.831-9.578-8.607-15.699-10.86L300.138 211.862z" transform="translate(0 -88.275)"/></svg>