<svg xmlns="http://www.w3.org/2000/svg" xml:space="preserve" width="512" height="335.45001"><path style="fill:#ffe15a" d="M473.885 0H38.115C17.045.124 0 17.238 0 38.338v129.385h512V38.338C512 17.238 494.955.124 473.885 0z"/><path style="fill:#73af00" d="M0 297.097c0 21.177 17.167 38.345 38.345 38.345h435.31c21.177 0 38.345-17.167 38.345-38.345V167.724H0z"/><path style="fill:#ff4b55" d="M38.345 335.442h129.379V0H38.115C17.045.124 0 17.238 0 38.338v258.759c0 21.177 17.167 38.345 38.345 38.345z"/><path style="fill:#464655" d="m82.197 123.683-9.731 29.18-30.759.238c-1.686.013-2.386 2.165-1.028 3.167l24.744 18.272-9.278 29.326c-.509 1.608 1.322 2.937 2.694 1.958l25.024-17.887 25.024 17.887c1.372.981 3.202-.35 2.694-1.958l-9.278-29.326 24.744-18.272c1.356-1.002.658-3.154-1.028-3.167l-30.759-.238-9.731-29.18c-.536-1.6-2.798-1.6-3.332 0z"/></svg>