<svg xmlns="http://www.w3.org/2000/svg" xml:space="preserve" width="512" height="335.45001"><style>.st0{fill:#259245}</style><path class="st0" d="M512.09998 35.97544v119.8098L52.38833 0h423.10422c20.21573 0 36.59711 16.1087 36.60743 35.97544z"/><path d="M16.83611 5.70607c-1.34771.85216-2.63548 1.78558-3.854 2.79922l243.06632 159.24573L12.98107 326.99774c1.21852 1.01364 2.50733 1.94708 3.854 2.79926l478.189-162.04598L16.83611 5.70607z" style="fill:#ffe000"/><path d="M12.98107 8.50529C5.04463 15.10316 0 24.9573 0 35.97339v263.55524c0 11.01712 5.04463 20.87024 12.98107 27.46912L256.0474 167.75103 12.98107 8.50529z" style="fill:#ed1f34"/><path d="M512.09998 155.78523v23.92954l-229.86615 77.8926L52.37799 335.5h-15.7716c-6.39751 0-12.42298-1.6149-17.65261-4.44864-.72342-.39612-1.43655-.81259-2.12906-1.25949l6.54223-2.21417 232.67737-78.8474 238.9818-80.9803-238.97146-80.9803h-.01035L23.33598 7.91214l-6.51126-2.21418c.6925-.43674 1.40564-.8532 2.12906-1.24933C24.1834 1.6149 30.20888 0 36.6064 0h15.77159L282.2441 77.89265l229.85587 77.89258z" style="fill:#f5f5f5"/><path class="st0" d="M512.09998 179.71477v119.81996c0 19.86673-16.3917 35.96527-36.60743 35.96527H52.36765l459.73233-155.78523z"/></svg>