<svg xmlns="http://www.w3.org/2000/svg" xml:space="preserve" width="512" height="335.45001"><path style="fill:#41479b" d="M0 297.105c0 21.176 17.167 38.345 38.345 38.345h435.311c21.165 0 38.324-17.148 38.344-38.307v-73.509H0z"/><path style="fill:#ff4b55" d="M473.656 0H38.345C17.167 0 0 17.168 0 38.345v73.471h512V38.307C511.98 17.149 494.821 0 473.656 0z"/><path style="fill:#f5f5f5" d="M0 111.814h512v111.81H0z"/><path style="fill:#ff4b55" d="M194.21001 203.02901h24.717v28.25h-24.717zm49.42999 0h24.717v28.25H243.64zm-24.71001 28.25h24.717v28.25h-24.717zm74.15-28.25h24.717v28.25h-24.717zm-24.72 28.25h24.717v28.25h-24.717z" transform="translate(0 -88.275)"/><path style="fill:#f5f5f5" d="M218.92999 203.02901h24.717v28.25h-24.717zm49.43 0h24.717v28.25h-24.717zm-74.14998 28.25h24.717v28.25h-24.717zm49.42999 0h24.717v28.25H243.64zm49.43999 0h24.717v28.25h-24.717z" transform="translate(0 -88.275)"/><path style="fill:#ff4b55" d="M243.64 259.52899h24.717v28.25H243.64zm-24.71001 28.25h24.717v28.25h-24.717zm49.43 0h24.717v28.25h-24.717z" transform="translate(0 -88.275)"/><path style="fill:#f5f5f5" d="M218.92999 259.52899h24.717v28.25h-24.717zm49.43 0h24.717v28.25h-24.717zm-24.71999 28.25h24.717v28.25H243.64z" transform="translate(0 -88.275)"/><path style="fill:#ff4b55" d="M317.793 203.035v79.448c0 34.128-27.666 61.793-61.793 61.793-34.127 0-61.793-27.666-61.793-61.793v-79.448h123.586m4.413-4.415H189.792v83.862c0 36.507 29.7 66.207 66.207 66.207 36.507 0 66.207-29.701 66.207-66.207v-79.448z" transform="translate(0 -88.275)"/><path style="fill:#ff4b55" d="M218.924 287.779V259.53h-24.717v22.953c0 1.789.118 3.546.267 5.297z" transform="translate(0 -88.275)"/><path style="fill:#f5f5f5" d="M317.526 287.779h-24.45v28.248h14.774c5.361-8.269 8.794-17.887 9.676-28.248zm-113.377 28.249h14.774V287.78h-24.45c.882 10.36 4.315 19.978 9.676 28.248z" transform="translate(0 -88.275)"/><path style="fill:#ff4b55" d="M293.075 287.779h24.45c.149-1.749.267-3.508.267-5.297V259.53h-24.717zm-74.151 44.054v-15.805H204.15c3.957 6.105 8.972 11.439 14.774 15.805zm88.925-15.805h-14.774v15.806c5.801-4.367 10.815-9.701 14.774-15.806z" transform="translate(0 -88.275)"/><path style="fill:#f5f5f5" d="M218.924 331.833c7.195 5.415 15.567 9.345 24.717 11.202v-27.007h-24.717zm49.434 11.201c9.15-1.857 17.523-5.788 24.717-11.202v-15.805h-24.717z" transform="translate(0 -88.275)"/><path style="fill:#ff4b55" d="M268.358 227.753h-24.717v27.008c3.993.811 8.126 1.241 12.359 1.241 4.233 0 8.365-.43 12.359-1.241v-27.008z"/><path style="fill:#4173cd" d="M211.27 156.29c-5.378-.832-10.88-1.432-16.489-1.779-4.338 3.571-8.473 7.294-12.398 11.15 3.942 9.515 7.883 19.03 11.823 28.545 7.913-3.277 16.021-5.9 24.247-7.867-2.394-10.015-4.789-20.032-7.183-30.049zm59.732-4.686c-4.833-2.445-9.837-4.706-15.003-6.765-5.165 2.06-10.17 4.321-15.003 6.765.803 10.267 1.607 20.534 2.41 30.803 8.382-.657 16.804-.657 25.186 0 .803-10.268 1.607-20.535 2.41-30.803zm58.614 14.057c-3.925-3.855-8.061-7.578-12.398-11.15-5.609.346-11.111.947-16.489 1.779-2.395 10.017-4.789 20.033-7.184 30.049 8.226 1.967 16.334 4.589 24.247 7.867 3.942-9.516 7.884-19.031 11.824-28.545z" transform="translate(0 -88.275)"/><path style="fill:#41479b" d="M240.996 151.604c-5.154-1.663-10.456-3.118-15.894-4.346-4.798 2.841-9.411 5.858-13.832 9.033 2.394 10.017 4.789 20.033 7.183 30.049 8.226-1.967 16.569-3.277 24.952-3.933-.803-10.268-1.606-20.535-2.409-30.803zm59.733 4.686c-4.422-3.175-9.035-6.193-13.832-9.033-5.438 1.228-10.741 2.685-15.894 4.346-.803 10.267-1.607 20.534-2.41 30.803 8.383.655 16.726 1.966 24.952 3.933 2.395-10.015 4.789-20.032 7.184-30.049z" transform="translate(0 -88.275)"/><path style="fill:#ff4b55" d="M241.96 163.925c-9.345.73-18.646 2.191-27.817 4.385-.479-2.003-.958-4.007-1.437-6.011 9.485-2.266 19.105-3.778 28.771-4.535.162 2.054.322 4.107.483 6.161zm.965 12.32c-8.703.681-17.366 2.042-25.907 4.084-.48-2.003-.958-4.007-1.437-6.009 8.855-2.118 17.838-3.529 26.862-4.234.159 2.051.321 4.107.482 6.159z" transform="translate(0 -88.275)"/><path style="fill:#ffe15a" d="M285.326 90.045c-2.155-.383-4.316-.724-6.482-1.022-3.562-.492-6.215-3.516-5.906-6.915.308-3.398 3.713-5.863 7.59-5.327 2.325.32 4.646.685 6.959 1.097 3.859.682 6.357 4.082 5.604 7.406-.75 3.332-4.218 5.386-7.765 4.761z"/><path style="fill:#ff4b55" d="M320.157 100.222c-8.215-3.402-16.636-6.125-25.175-8.168.48-2.003.958-4.007 1.437-6.009 8.855 2.116 17.585 4.94 26.103 8.468-.788 1.902-1.577 3.806-2.365 5.709z"/><path style="fill:#ffe15a" d="M317.952 169.958c-.873 2.407-3.817 3.552-6.599 2.647-2.781-.906-4.483-3.55-3.779-6.012.704-2.462 3.686-3.765 6.636-2.806 2.953.957 4.616 3.764 3.742 6.171zm-113.528-3.364c.703 2.464-1 5.109-3.779 6.012-2.781.9-5.725-.245-6.599-2.647-.874-2.408.79-5.214 3.742-6.171 2.95-.956 5.934.346 6.636 2.806zm50.165-4.046c.006 2.047-1.834 3.714-4.114 3.784-2.279.073-4.222-1.481-4.342-3.52-.119-2.04 1.719-3.806 4.111-3.883 2.393-.075 4.336 1.572 4.345 3.619zm11.276.263c-.121 2.044-2.065 3.593-4.342 3.52-2.279-.07-4.119-1.737-4.114-3.784.009-2.045 1.953-3.697 4.344-3.619 2.393.073 4.229 1.842 4.112 3.883zm-5.858 9.268c-.057 2.047-1.85 3.657-4.008 3.657-2.156-.001-3.949-1.609-4.008-3.657-.056-2.041 1.737-3.755 4.008-3.75 2.271-.005 4.064 1.707 4.008 3.75z" transform="translate(0 -88.275)"/></svg>