<svg xmlns="http://www.w3.org/2000/svg" xml:space="preserve" width="512" height="335.45001"><path style="fill:#464655" d="M473.655 0H38.345c-8.98 0-17.233 3.095-23.767 8.266l191.171 103.55H512V38.345C512 17.167 494.833 0 473.655 0z"/><path style="fill:#73af00" d="M14.578 327.182c6.535 5.171 14.787 8.266 23.767 8.266h435.31c21.177 0 38.345-17.167 38.345-38.345v-73.471H205.75z"/><path style="fill:#f5f5f5" d="M302.368 164.151c2.838 1.537 2.838 5.61 0 7.147l-96.618 52.334H512V111.816H205.749z"/><path style="fill:#ff4b55" d="M302.368 171.298c2.838-1.537 2.838-5.61 0-7.147l-96.619-52.334L14.578 8.266C5.702 15.289 0 26.147 0 38.345v258.758c0 12.198 5.702 23.057 14.578 30.079l191.171-103.55z"/><path style="fill:#f5f5f5" d="m95.399 144.888 5.247 11.381 12.169-2.994c.759-.186 1.389.602 1.038 1.302l-5.626 11.198 9.928 7.648c.62.478.395 1.462-.371 1.623l-12.263 2.583.211 12.53c.013.782-.897 1.22-1.5.723l-9.665-7.977-9.665 7.977c-.604.498-1.513.06-1.5-.723l.211-12.53-12.263-2.583c-.766-.161-.991-1.145-.371-1.623l9.928-7.648-5.626-11.198c-.351-.7.278-1.489 1.038-1.302l12.169 2.994 5.247-11.381c.326-.71 1.336-.71 1.664 0z"/></svg>