<svg xmlns="http://www.w3.org/2000/svg" xml:space="preserve" width="512" height="335.45001"><path style="fill:#73af00" d="M0 297.103c0 21.177 17.167 38.345 38.345 38.345h435.31c21.177 0 38.345-17.167 38.345-38.345v-73.471H0z"/><path style="fill:#464655" d="M473.655 0H38.345C17.167 0 0 17.167 0 38.345v73.471h512V38.345C512 17.167 494.833 0 473.655 0z"/><path style="fill:#c8414b" d="M0 111.814h512v111.81H0z"/><path style="fill:#f5f5f5" d="M0 194.21001h512v17.655H0zm0 105.93h512v17.655H0z" transform="translate(0 -88.276)"/><path style="fill:#f5f5f5" d="M303.268 181.618c7.108-14.657 14.525-48.61 14.525-48.61s-22.072 26.845-29.182 41.501c-1.49 3.072-.858 6.605 1.294 8.995l-80.967 166.934 5.496 2.666 80.967-166.934c3.212.211 6.378-1.48 7.867-4.552z" transform="translate(0 -88.276)"/><path style="fill:#f5f5f5" d="M208.732 181.618c-7.108-14.657-14.525-48.61-14.525-48.61s22.072 26.845 29.181 41.501c1.49 3.072.858 6.605-1.294 8.995l80.968 166.934-5.496 2.666-80.968-166.934c-3.211.211-6.377-1.48-7.866-4.552z" transform="translate(0 -88.276)"/><path style="fill:#c8414b" d="M300.138 167.724C300.138 216.478 264.126 256 256 256c-8.126 0-44.138-39.522-44.138-88.276S247.874 79.448 256 79.448c8.126 0 44.138 39.522 44.138 88.276z"/><path style="fill:#464655" d="M291.31 298.591c5.199-12.631 8.828-27.14 8.828-42.591s-3.628-29.959-8.828-42.591c-5.199 12.631-8.828 27.14-8.828 42.591s3.629 29.959 8.828 42.591zm-70.62-85.182c-5.199 12.631-8.828 27.14-8.828 42.591 0 15.45 3.628 29.959 8.828 42.591 5.199-12.631 8.828-27.14 8.828-42.591s-3.629-29.959-8.828-42.591z" transform="translate(0 -88.276)"/><g transform="translate(0 -88.276)"><ellipse style="fill:#f5f5f5" cx="256" cy="256" rx="8.828" ry="13.241"/><path style="fill:#f5f5f5" d="M257.324 167.724v75.034c2.407-5.01 6.676-19.815 6.676-37.517 0-17.703-4.269-32.507-6.676-37.517zm-2.648 0c-2.407 5.01-6.676 19.814-6.676 37.517 0 17.703 4.269 32.508 6.676 37.517zm2.648 101.517v75.034c2.407-5.01 6.676-19.815 6.676-37.517 0-17.703-4.269-32.507-6.676-37.517zm-2.648 0c-2.407 5.01-6.676 19.814-6.676 37.517 0 17.703 4.269 32.508 6.676 37.517z"/></g></svg>