<svg xmlns="http://www.w3.org/2000/svg" xml:space="preserve" width="512" height="335.45001"><path style="fill:#ffe15a" d="M473.651 0H38.292C17.807 0 1.077 16.06 0 36.277v47.595h512V38.35C512 17.17 494.831 0 473.651 0z"/><path style="fill:#f5f5f5" d="M0 83.862h512v83.87H0z"/><path style="fill:#ff4b55" d="M0 167.74199h512v83.87H0z"/><path style="fill:#4173cd" d="M0 299.209c1.077 20.215 17.807 36.277 38.292 36.277h435.359c21.18 0 38.349-17.169 38.349-38.349v-45.522H0z"/><path style="fill:#73af00" d="M250.668 164.229 13.669 8.956C5.775 15.576.584 25.313 0 36.277V299.21c.584 10.964 5.775 20.701 13.669 27.321l236.999-155.275c2.53-1.659 2.53-5.368 0-7.027z"/><path style="fill:#f5f5f5" d="M48.839 256c0-31.923 20.867-58.934 49.695-68.237 1.515-.489 1.304-2.702-.275-2.908-2.968-.388-5.99-.598-9.065-.598-39.623 0-71.743 32.121-71.743 71.743 0 39.622 32.121 71.743 71.743 71.743 3.075 0 6.097-.21 9.065-.598 1.579-.207 1.79-2.419.275-2.908-28.828-9.303-49.695-36.314-49.695-68.237z" transform="translate(0 -88.257)"/><path style="fill:#f5f5f5" d="m98.901 201.202 1.975 5.922 6.242.049c.808.007 1.143 1.037.493 1.517l-5.021 3.708 1.883 5.952c.244.77-.633 1.408-1.291.938l-5.079-3.63-5.079 3.63c-.658.47-1.535-.168-1.291-.938l1.883-5.952-5.021-3.708c-.65-.48-.315-1.512.493-1.517l6.242-.049 1.975-5.922c.255-.767 1.34-.767 1.596 0zm0 30.01 1.975 5.922 6.242.049c.808.007 1.143 1.037.493 1.517l-5.021 3.708 1.883 5.952c.244.77-.633 1.408-1.291.938l-5.079-3.63-5.079 3.63c-.658.47-1.535-.168-1.291-.938l1.883-5.952-5.021-3.708c-.65-.48-.315-1.512.493-1.517l6.242-.049 1.975-5.922c.255-.767 1.34-.767 1.596 0zm0 30.009 1.975 5.922 6.242.049c.808.007 1.143 1.037.493 1.517l-5.021 3.708 1.883 5.952c.244.77-.633 1.408-1.291.938l-5.079-3.63-5.079 3.63c-.658.47-1.535-.168-1.291-.938l1.883-5.952-5.021-3.708c-.65-.48-.315-1.512.493-1.517l6.242-.049 1.975-5.922c.255-.767 1.34-.767 1.596 0zm0 30.008 1.975 5.922 6.242.049c.808.007 1.143 1.037.493 1.517l-5.021 3.708 1.883 5.952c.244.77-.633 1.408-1.291.938l-5.079-3.63-5.079 3.63c-.658.47-1.535-.168-1.291-.938l1.883-5.952-5.021-3.708c-.65-.48-.315-1.512.493-1.517l6.242-.049 1.975-5.922c.255-.765 1.34-.765 1.596 0z" transform="translate(0 -88.257)"/></svg>