<svg xmlns="http://www.w3.org/2000/svg" xml:space="preserve" width="512" height="335.45001"><path style="fill:#41479b;stroke-width:1" d="M473.655 0H38.345C17.167 0 0 17.167 0 38.345v129.379h512V38.345C512 17.167 494.833 0 473.655 0z"/><path style="fill:#ff4b55;stroke-width:1" d="M0 297.103c0 21.177 17.167 38.345 38.345 38.345h435.31c21.177 0 38.345-17.167 38.345-38.345V167.724H0z"/><path style="fill:#ffe15a;stroke-width:1" d="M164.028 100.411c-.115-.339-.374-.615-.708-.749-.034-.013-.727-.277-1.839-.59.489-.662.834-1.438.834-2.322 0-.758-.269-1.427-.638-2.031 1.222-.683 2.083-1.94 2.083-3.435 0-1.185-.544-2.221-1.368-2.952.988-.726 1.672-1.841 1.672-3.157 0-1.469-.836-2.702-2.023-3.394.623-.704 1.033-1.604 1.033-2.616 0-1.761-1.167-3.212-2.755-3.738.362-.6.627-1.265.627-2.016 0-2.164-1.739-3.913-3.892-3.968.089-.332.205-.655.205-1.015 0-2.199-1.789-3.988-3.989-3.988-.371 0-.705.117-1.046.212.006-.088.051-.163.051-.254 0-2.199-1.789-3.988-3.988-3.988-.756 0-1.422.267-2.026.633-.465-1.686-1.947-2.954-3.778-2.954-1.099 0-2.095.447-2.817 1.169-.675-1.246-1.95-2.125-3.464-2.125-1.382 0-2.541.749-3.257 1.818-.728-.774-1.743-1.271-2.887-1.271-1.476 0-2.716.843-3.405 2.037-.73-.818-1.763-1.356-2.944-1.356-1.46 0-2.684.826-3.379 1.998-.679-.534-1.496-.904-2.424-.904-1.676 0-3.101 1.046-3.69 2.515-.718-.694-1.687-1.132-2.763-1.132-1.521 0-2.802.886-3.474 2.141-.294-.182-.594-.326-.931-.427.841-1.242 1.332-2.74 1.332-4.35 0-3.125-1.862-5.807-4.525-7.046l1.118-2.237c.173-.345.173-.755 0-1.101l-1.346-2.692c.098-.089.191-.182.28-.28l2.695 1.346c.173.086.36.128.548.128.188 0 .376-.045.548-.131l6.554-3.277c.418-.209.68-.633.68-1.098 0-.465-.263-.889-.68-1.098l-6.554-3.277c-.345-.173-.753-.173-1.098 0l-2.692 1.346c-.09-.099-.184-.193-.282-.284l1.346-2.692c.173-.345.173-.755 0-1.101l-3.277-6.554c-.416-.832-1.783-.832-2.199 0l-3.277 6.554c-.173.345-.173.756 0 1.101l1.346 2.692c-.098.089-.191.182-.28.28l-2.695-1.346c-.345-.173-.753-.17-1.098.003l-6.554 3.277c-.418.209-.68.633-.68 1.098 0 .465.263.889.68 1.098l6.554 3.277c.173.086.36.131.548.131.189 0 .376-.045.548-.131l2.692-1.346c.09.099.184.193.282.284l-1.346 2.692c-.173.345-.173.756 0 1.101l1.118 2.237c-2.663 1.238-4.525 3.921-4.525 7.046 0 1.577.479 3.041 1.288 4.268-.487.093-.928.256-1.336.51-.672-1.255-1.953-2.141-3.474-2.141-1.075 0-2.045.437-2.763 1.132-.588-1.469-2.013-2.515-3.69-2.515-.929 0-1.747.37-2.424.904-.695-1.172-1.92-1.998-3.379-1.998-1.181 0-2.214.538-2.944 1.356-.69-1.195-1.929-2.037-3.405-2.037-1.143 0-2.159.498-2.887 1.271-.716-1.069-1.876-1.818-3.257-1.818-1.514 0-2.788.879-3.464 2.125-.722-.722-1.718-1.169-2.817-1.169-1.832 0-3.314 1.268-3.778 2.954-.602-.366-1.27-.633-2.026-.633-2.199 0-3.988 1.789-3.988 3.988 0 .089.045.166.051.254-.341-.095-.675-.212-1.046-.212-2.2 0-3.989 1.789-3.989 3.988 0 .36.116.683.205 1.015-2.153.055-3.892 1.804-3.892 3.968 0 .751.265 1.416.627 2.016-1.588.526-2.755 1.976-2.755 3.738 0 1.012.409 1.912 1.033 2.616-1.186.692-2.023 1.924-2.023 3.394 0 1.318.684 2.431 1.672 3.157-.824.732-1.368 1.767-1.368 2.952 0 1.495.862 2.752 2.083 3.435-.369.605-.638 1.273-.638 2.031 0 .931.371 1.751.907 2.43-.888.263-1.433.47-1.463.482-.334.135-.594.409-.708.749-.115.342-.074.717.11 1.027.097.16 9.76 16.386 12.959 32.378.079.396.366.651.704.811 2.457 3.319 23.746 5.913 49.66 5.913 25.914 0 47.202-2.594 49.66-5.913.338-.161.626-.415.704-.811 3.196-15.98 12.861-32.218 12.959-32.378.185-.31.226-.685.111-1.028z"/><path style="fill:#464655" d="M164.028 188.687c-.115-.339-.374-.615-.708-.749-.034-.013-.727-.277-1.839-.59.489-.662.834-1.438.834-2.322 0-.758-.269-1.427-.638-2.031 1.222-.683 2.083-1.94 2.083-3.435 0-1.185-.544-2.221-1.368-2.952.988-.726 1.672-1.841 1.672-3.157 0-1.469-.836-2.702-2.023-3.394.623-.704 1.033-1.604 1.033-2.616 0-1.761-1.167-3.212-2.755-3.738.362-.6.627-1.265.627-2.016 0-2.164-1.739-3.913-3.892-3.968.089-.332.205-.655.205-1.015 0-2.199-1.789-3.988-3.989-3.988-.371 0-.705.117-1.046.212.006-.088.051-.163.051-.254 0-2.199-1.789-3.988-3.988-3.988-.756 0-1.422.267-2.026.633-.465-1.686-1.947-2.954-3.778-2.954-1.099 0-2.095.447-2.817 1.169-.675-1.246-1.95-2.125-3.464-2.125-1.382 0-2.541.749-3.257 1.818-.728-.774-1.743-1.271-2.887-1.271-1.476 0-2.716.843-3.405 2.037-.73-.818-1.763-1.356-2.944-1.356-1.46 0-2.684.826-3.379 1.998-.679-.534-1.496-.904-2.424-.904-1.676 0-3.101 1.046-3.69 2.515-.718-.694-1.687-1.132-2.763-1.132-1.521 0-2.802.886-3.474 2.141-.294-.182-.594-.326-.931-.427.841-1.242 1.332-2.74 1.332-4.35 0-3.125-1.862-5.807-4.525-7.046l1.118-2.237c.173-.345.173-.755 0-1.101l-1.346-2.692c.098-.089.191-.182.28-.28l2.695 1.346c.173.086.36.128.548.128.188 0 .376-.045.548-.131l6.554-3.277c.418-.209.68-.633.68-1.098 0-.465-.263-.889-.68-1.098l-6.554-3.277c-.345-.173-.753-.173-1.098 0l-2.692 1.346c-.09-.099-.184-.193-.282-.284l1.346-2.692c.173-.345.173-.755 0-1.101l-3.277-6.554c-.416-.832-1.783-.832-2.199 0l-3.277 6.554c-.173.345-.173.756 0 1.101l1.346 2.692c-.098.089-.191.182-.28.28l-2.695-1.346c-.345-.173-.753-.17-1.098.003l-6.554 3.277c-.418.209-.68.633-.68 1.098 0 .465.263.889.68 1.098l6.554 3.277c.173.086.36.131.548.131.189 0 .376-.045.548-.131l2.692-1.346c.09.099.184.193.282.284l-1.346 2.692c-.173.345-.173.756 0 1.101l1.118 2.237c-2.663 1.238-4.525 3.921-4.525 7.046 0 1.577.479 3.041 1.288 4.268-.487.093-.928.256-1.336.51-.672-1.255-1.953-2.141-3.474-2.141-1.075 0-2.045.437-2.763 1.132-.588-1.469-2.013-2.515-3.69-2.515-.929 0-1.747.37-2.424.904-.695-1.172-1.92-1.998-3.379-1.998-1.181 0-2.214.538-2.944 1.356-.69-1.195-1.929-2.037-3.405-2.037-1.143 0-2.159.498-2.887 1.271-.716-1.069-1.876-1.818-3.257-1.818-1.514 0-2.788.879-3.464 2.125-.722-.722-1.718-1.169-2.817-1.169-1.832 0-3.314 1.268-3.778 2.954-.602-.366-1.27-.633-2.026-.633-2.199 0-3.988 1.789-3.988 3.988 0 .089.045.166.051.254-.341-.095-.675-.212-1.046-.212-2.2 0-3.989 1.789-3.989 3.988 0 .36.116.683.205 1.015-2.153.055-3.892 1.804-3.892 3.968 0 .751.265 1.416.627 2.016-1.588.526-2.755 1.976-2.755 3.738 0 1.012.409 1.912 1.033 2.616-1.186.692-2.023 1.924-2.023 3.394 0 1.318.684 2.431 1.672 3.157-.824.732-1.368 1.767-1.368 2.952 0 1.495.862 2.752 2.083 3.435-.369.605-.638 1.273-.638 2.031 0 .931.371 1.751.907 2.43-.888.263-1.433.47-1.463.482-.334.135-.594.409-.708.749-.115.342-.074.717.11 1.027.097.16 9.76 16.386 12.959 32.378.079.396.366.651.704.811 2.457 3.319 23.746 5.913 49.66 5.913 25.914 0 47.202-2.594 49.66-5.913.338-.161.626-.415.704-.811 3.196-15.98 12.861-32.218 12.959-32.378.185-.31.226-.685.111-1.028zm-34.742-7.916v-19.233c1.559-.135 3.075-.178 4.533-.127v19.98c-1.356-.655-2.887-.846-4.533-.62zm-14.146-26.196c.034.033.082.047.117.079-.052.011-.104.022-.157.034.017-.038.026-.075.04-.113zm43.186 28.922c.843 0 1.529.685 1.529 1.529 0 .845-.686 1.529-1.529 1.529-.843 0-1.529-.685-1.529-1.529 0-.845.686-1.529 1.529-1.529zm1.443-2.408c-.843 0-1.529-.685-1.529-1.529 0-.845.686-1.529 1.529-1.529.845 0 1.532.685 1.532 1.529 0 .845-.686 1.529-1.532 1.529zm-1.223-7.639c0-.845.686-1.529 1.529-1.529.843 0 1.529.685 1.529 1.529 0 .845-.686 1.529-1.529 1.529-.843.001-1.529-.684-1.529-1.529zm-45.701 15.237c-1.468-5.581-3.373-13.982-4.177-22.38.845-.296 2.297-.781 4.177-1.35zm-20.486-22.28c-.865 8.937-2.976 17.889-4.463 23.4v-24.852c2.108.638 3.689 1.177 4.463 1.452zm9.766-10.098c0 .845-.686 1.529-1.529 1.529-.843 0-1.529-.685-1.529-1.529 0-.845.686-1.529 1.529-1.529.843-.002 1.529.684 1.529 1.529zm-16.523-1.726-.01-.002s.006-.003.008-.006c.001.003.001.006.002.008zm-44.937 17.338c.843 0 1.529.685 1.529 1.529 0 .845-.686 1.529-1.529 1.529-.843 0-1.529-.685-1.529-1.529-.001-.845.686-1.529 1.529-1.529zm1.835 7.639c0 .845-.686 1.529-1.529 1.529-.845 0-1.532-.685-1.532-1.529 0-.845.686-1.529 1.532-1.529.843-.001 1.529.683 1.529 1.529zm-.086 3.937c.843 0 1.529.685 1.529 1.529 0 .845-.686 1.529-1.529 1.529-.843 0-1.529-.685-1.529-1.529-.001-.845.686-1.529 1.529-1.529zm6.311-20.707c2.406-3.892 7.102-8.53 15.82-8.53 8.512 0 20.522 2.601 28.214 4.513.003 1.668-.073 3.378-.191 5.098-5.248-1.827-26.121-8.508-34.999-2.432-10.047 6.89-6.872 20.033-4.995 25.476-1.598-.433-3.214-.629-4.761-.66-3.629-7.281-3.265-16.706.912-23.465zm6.923 25.317c-.864-2.009-6.389-15.905 1.824-23.42v24.518c-.59-.422-1.202-.779-1.824-1.098zm4.282-25.151c1.298-.673 2.828-1.109 4.533-1.341v21.87c-2.465 2.499-3.561 5.938-4.044 8.524-.156-.196-.328-.354-.49-.537v-28.516zm6.992-1.547c1.458-.051 2.974-.008 4.533.127v19.213c-.268-.024-.548-.093-.81-.093-1.208 0-2.342.253-3.372.771-.127.063-.23.149-.352.216v-20.235h.001zm6.991.391c1.523.202 3.043.467 4.533.765v21.037c-1.56-1.076-3.078-1.854-4.533-2.329zm6.992 1.293c1.611.371 3.132.76 4.533 1.151v26.012c-1.355-1.715-2.916-3.337-4.533-4.748zm14.301-3.699c1.848.48 3.306.879 4.161 1.12v20.844c-3.331.337-5.876 2.038-7.818 4.129 1.73-7.206 3.593-17.04 3.657-26.093zm6.618 1.12c.833-.234 2.231-.618 4.009-1.08.068 8.961 1.895 18.677 3.609 25.856-1.918-1.996-4.396-3.605-7.617-3.93v-20.845h-.001zm13.479 3.732c1.402-.39 2.922-.78 4.533-1.151v22.606c0 .057.025.107.033.163-1.655 1.495-3.222 3.21-4.566 4.989v-26.607zm6.991-1.679c1.491-.298 3.01-.563 4.533-.765v19.586c-1.458.535-2.979 1.384-4.533 2.507zm13.983-.95c1.706.232 3.235.666 4.533 1.34v28.788c0 .064.026.12.036.181-.024.031-.052.054-.076.084-.51-2.732-1.724-6.398-4.493-8.919zm6.991 3.072c8.799 8.056 1.79 23.505 1.714 23.669-.008.017-.006.034-.012.051-.584.332-1.149.722-1.702 1.151zm-.098-3.25c-8.702-5.96-28.974.36-34.709 2.332-.113-1.673-.186-3.335-.183-4.959 7.684-1.917 19.798-4.552 28.366-4.552 8.718 0 13.415 4.638 15.82 8.53 4.177 6.76 4.542 16.184.913 23.466-1.71.034-3.502.275-5.262.81 1.869-5.351 5.193-18.675-4.945-25.627zm15.915 7.531c-.843 0-1.529-.685-1.529-1.529 0-.845.686-1.529 1.529-1.529.845 0 1.532.685 1.532 1.529 0 .844-.688 1.529-1.532 1.529zm-.597-7.285c0 .845-.686 1.533-1.532 1.533-.843 0-1.529-.689-1.529-1.533 0-.845.686-1.529 1.529-1.529.846 0 1.532.685 1.532 1.529zm-3.686-4.983c0 .845-.686 1.529-1.532 1.529-.843 0-1.529-.685-1.529-1.529 0-.845.686-1.529 1.529-1.529.844-.001 1.532.685 1.532 1.529zm-6.515-5.559c.843 0 1.529.685 1.529 1.529 0 .845-.686 1.533-1.529 1.533-.845 0-1.532-.689-1.532-1.533s.687-1.529 1.532-1.529zm-5.804-2.321c.843 0 1.529.685 1.529 1.529 0 .845-.686 1.529-1.529 1.529-.843 0-1.529-.685-1.529-1.529-.001-.844.686-1.529 1.529-1.529zm-6.281-.957c.843 0 1.529.685 1.529 1.529 0 .844-.686 1.533-1.529 1.533-.845 0-1.532-.689-1.532-1.533 0-.843.687-1.529 1.532-1.529zm-6.145.548c.843 0 1.529.685 1.529 1.529 0 .844-.686 1.529-1.529 1.529-.845 0-1.532-.685-1.532-1.529 0-.844.687-1.529 1.532-1.529zm-6.349.682c.843 0 1.529.685 1.529 1.529 0 .845-.686 1.533-1.529 1.533-.845 0-1.532-.689-1.532-1.533s.686-1.529 1.532-1.529zm-5.805 1.094c.843 0 1.529.685 1.529 1.529 0 .844-.686 1.529-1.529 1.529-.843 0-1.529-.685-1.529-1.529 0-.844.686-1.529 1.529-1.529zm-6.451 1.383c.843 0 1.529.685 1.529 1.529 0 .844-.686 1.529-1.529 1.529-.843 0-1.529-.685-1.529-1.529 0-.844.684-1.529 1.529-1.529zm-5.531 4.545c-.843 0-1.529-.685-1.529-1.529 0-.845.686-1.529 1.529-1.529.843 0 1.529.685 1.529 1.529 0 .844-.686 1.529-1.529 1.529zm-7.374-26.027c0-1.13.918-2.048 2.048-2.048s2.048.918 2.048 2.048-.918 2.048-2.048 2.048c-1.129.001-2.048-.918-2.048-2.048zm8.602-1.904 3.807 1.905-3.807 1.905-2.133-1.067c.052-.273.085-.551.085-.838 0-.287-.033-.566-.085-.839zm-8.457-4.651 1.902-3.806 1.902 3.806-1.067 2.133c-.271-.052-.55-.085-.836-.085-.287 0-.565.033-.836.085zm-4.652 8.459-3.807-1.905 3.807-1.905 2.133 1.067c-.052.273-.085.551-.085.838 0 .287.033.566.085.839zm4.652 4.65 1.067-2.133c.271.052.55.085.836.085.286 0 .565-.033.836-.085l1.067 2.133-1.066 2.133c-.278-.03-.55-.085-.836-.085-.287 0-.558.054-.836.085zm1.903 4.507c2.936 0 5.325 2.388 5.325 5.325 0 2.938-2.389 5.325-5.325 5.325-2.936 0-5.325-2.388-5.325-5.325 0-2.937 2.388-5.325 5.325-5.325zm-5.775 11.906c.843 0 1.529.685 1.529 1.529 0 .845-.686 1.529-1.529 1.529-.843 0-1.529-.685-1.529-1.529-.001-.845.685-1.529 1.529-1.529zm-5.53-1.485c.843 0 1.529.685 1.529 1.529 0 .844-.686 1.529-1.529 1.529-.843 0-1.529-.685-1.529-1.529 0-.844.685-1.529 1.529-1.529zm-6.453-1.383c.843 0 1.529.685 1.529 1.529 0 .844-.686 1.529-1.529 1.529-.843 0-1.529-.685-1.529-1.529 0-.844.686-1.529 1.529-1.529zm-5.803-1.094c.845 0 1.532.685 1.532 1.529 0 .845-.686 1.533-1.532 1.533-.843 0-1.529-.689-1.529-1.533-.002-.844.685-1.529 1.529-1.529zm-6.35-.682c.845 0 1.532.685 1.532 1.529 0 .844-.686 1.529-1.532 1.529-.843 0-1.529-.685-1.529-1.529 0-.844.686-1.529 1.529-1.529zm-6.146-.548c.845 0 1.532.685 1.532 1.529 0 .844-.686 1.533-1.532 1.533-.843 0-1.529-.689-1.529-1.533 0-.843.686-1.529 1.529-1.529zm-6.28.957c.843 0 1.529.685 1.529 1.529 0 .845-.686 1.529-1.529 1.529-.843 0-1.529-.685-1.529-1.529-.001-.844.686-1.529 1.529-1.529zm-5.804 2.321c.845 0 1.532.685 1.532 1.529 0 .845-.686 1.533-1.532 1.533-.843 0-1.529-.689-1.529-1.533-.001-.844.685-1.529 1.529-1.529zm-4.983 4.029c.843 0 1.529.685 1.529 1.529 0 .845-.686 1.529-1.529 1.529-.845 0-1.532-.685-1.532-1.529.001-.843.687-1.529 1.532-1.529zm-3.687 4.984c.843 0 1.529.685 1.529 1.529 0 .845-.686 1.533-1.529 1.533-.845 0-1.532-.689-1.532-1.533s.688-1.529 1.532-1.529zm-2.129 5.754c.843 0 1.529.685 1.529 1.529 0 .845-.686 1.529-1.529 1.529-.845 0-1.532-.685-1.532-1.529.002-.845.688-1.529 1.532-1.529zm107.122 54.669c-5.667-2.803-25.06-4.871-48.181-4.871s-42.515 2.068-48.182 4.871c-2.931-13.569-9.939-26.697-12.275-30.823 3.892-1.194 15.034-3.562 20.03 6.43.256.509.831.778 1.382.647.555-.131.948-.627.948-1.197 0-.089.067-9.106 5.875-12.011 5.751-2.861 15.055 6.637 18.015 12.562 0 0 .003.002.003.004.097.193.259.342.446.462.039.024.075.046.117.065.053.026.095.067.153.086.127.042.255.061.38.061.023 0 .042-.02.065-.021.024 0 .043.015.068.014.116-.013.201-.092.305-.135.11-.044.221-.065.314-.138.114-.089.174-.218.252-.343.051-.083.136-.132.168-.228.036-.113.189-.59.415-1.334 1.074-3.105 4.477-10.923 11.524-10.923 5.981 0 9.336 5.633 10.873 9.237.501 1.731.854 2.84.913 3.02.17.522.651.851 1.17.851.125 0 .253-.019.38-.061.022-.008.038-.025.06-.033.342-.087.651-.258.814-.584 2.962-5.928 12.274-15.404 18.015-12.562.386.193.743.417 1.079.66.333.281.558.489.938.794 3.785 3.694 3.858 10.478 3.858 10.557.001.569.394 1.066.948 1.197.558.128 1.127-.138 1.382-.647 4.986-9.97 16.13-7.617 20.029-6.426-2.344 4.129-9.35 17.254-12.281 30.819z" transform="translate(0 -88.276)"/><path style="fill:#464655" d="M105.443 193.561c-.159.131-.314.27-.468.414-1.192 1.122-3.153.241-3.153-1.397v-.221c0-.679-.551-1.229-1.229-1.229s-1.229.551-1.229 1.229v.221c0 1.638-1.96 2.519-3.153 1.397-.152-.143-.309-.281-.468-.414-.522-.429-1.298-.365-1.73.163-.434.522-.362 1.297.161 1.731 3.358 2.781 5.188 9.358 5.188 11.957v1.332c0 .679.551 1.229 1.229 1.229s1.229-.551 1.229-1.229v-1.332c0-2.599 1.831-9.175 5.188-11.957.523-.435.595-1.209.161-1.731-.429-.523-1.204-.591-1.726-.163zm27.866 5.163c-.145-.011-.288-.015-.433-.011-1.151.079-2.275-1.555-1.717-2.823.023-.053.047-.107.071-.161.215-.49.051-1.292-.359-1.813-.409-.52-.94-.492-1.194.084-.026.062-.054.122-.082.185-.58 1.318-2.251.924-2.514-1.013-.033-.249-.067-.502-.106-.754-.129-.819-.6-1.387-1.102-1.16-.499.218-.836 1.137-.716 1.969.711 5.494-.104 11.288-1.035 13.395-.163.372-.328.744-.491 1.117-.253.574.07 1.018.729.97.66-.05 1.377-.503 1.593-.992.143-.324.286-.649.428-.974.882-2.01 4.577-6.467 7.604-6.236.487-.003.694-.32.5-.796-.193-.472-.706-.947-1.176-.987zm18.233 3.824c-.12 0-.239.007-.36.021-.966.161-1.785-1.338-1.227-2.606.023-.053.047-.107.071-.161.215-.49.137-1.255-.167-1.728-.303-.473-.748-.408-1.002.169-.026.062-.054.122-.082.184-.58 1.318-1.945 1.058-2.024-.797-.009-.239-.02-.481-.033-.722-.047-.783-.399-1.299-.835-1.042-.433.248-.78 1.162-.74 1.958.192 5.267-.91 10.934-1.841 13.041-.163.372-.328.744-.491 1.117-.253.574-.015.98.538.886.555-.097 1.186-.587 1.401-1.077.143-.324.286-.649.428-.974.882-2.01 4.29-6.593 6.798-6.59.407-.039.602-.36.476-.807-.126-.445-.52-.868-.91-.872zm-74.493 4.076c-.931-2.106-1.746-7.901-1.035-13.395.12-.831-.217-1.749-.716-1.969-.502-.227-.974.341-1.102 1.16-.039.252-.073.503-.106.754-.264 1.937-1.934 2.329-2.514 1.013-.028-.062-.054-.124-.082-.185-.254-.577-.783-.604-1.194-.084-.409.521-.574 1.322-.359 1.813.023.054.047.108.071.161.558 1.268-.567 2.902-1.717 2.823-.145-.004-.288 0-.433.011-.47.04-.984.514-1.178.988-.194.476.013.792.5.796 3.027-.232 6.722 4.225 7.604 6.236.142.324.286.649.428.974.215.49.932.942 1.593.992.66.049.982-.395.729-.97-.162-.374-.325-.746-.489-1.118zm-19.18 4.239c-.93-2.106-2.033-7.774-1.841-13.041.04-.796-.309-1.709-.74-1.958-.436-.257-.788.259-.835 1.042-.014.241-.024.482-.033.722-.078 1.855-1.443 2.114-2.024.797-.028-.062-.054-.124-.082-.184-.254-.577-.698-.642-1.002-.169-.303.473-.383 1.238-.167 1.728.023.054.047.108.071.161.558 1.268-.262 2.767-1.227 2.606-.121-.014-.241-.021-.36-.021-.39.003-.783.426-.911.871-.127.446.07.768.476.807 2.508-.003 5.917 4.579 6.798 6.59.142.324.286.649.428.974.215.49.847.98 1.401 1.077.554.095.791-.311.538-.886-.162-.371-.326-.744-.49-1.116z" transform="translate(0 -88.276)"/></svg>