<svg xmlns="http://www.w3.org/2000/svg" xml:space="preserve" width="512" height="335.45001"><path style="fill:#ff4b55" d="M473.655.001H38.345C19.859.001 4.431 13.085.808 30.496h510.386C507.57 13.084 492.141.001 473.655.001z"/><path style="fill:#f5f5f5" d="M.808 30.496C.28 33.03 0 35.655 0 38.346v22.645h512V38.346c0-2.69-.28-5.315-.808-7.85z"/><path style="fill:#ff4b55" d="M0 60.98399h512v30.495H0z"/><path style="fill:#f5f5f5" d="M0 91.48399h512v30.495H0z"/><path style="fill:#ff4b55" transform="translate(0 -88.276)" d="M8.828 240.754H512v-30.496H0v19.26h8.826z"/><path style="fill:#f5f5f5" transform="translate(0 -88.276)" d="M0 231.926v39.321h512v-30.493H8.828l-.002-11.236H0z"/><path style="fill:#ff4b55" d="M0 182.974h512v30.495H0z"/><path style="fill:#f5f5f5" d="M0 213.46399h512v30.495H0z"/><path style="fill:#ff4b55" d="M0 243.96399h512v30.495H0z"/><path style="fill:#f5f5f5" d="M0 297.104c0 2.69.28 5.315.807 7.849h510.386c.527-2.535.807-5.159.807-7.849v-22.646H0z"/><path style="fill:#ff4b55" d="M38.337 335.448h435.327c18.483-.003 33.908-13.086 37.529-30.495H.807c3.622 17.409 19.046 30.492 37.53 30.495z"/><path style="fill:#41479b" d="M8.828 152.478h132.414c4.875 0 8.828-3.953 8.828-8.828V8.828c0-4.874-3.95-8.825-8.823-8.828H38.345C17.167.001 0 17.168 0 38.346V143.65c0 4.875 3.953 8.828 8.828 8.828z"/><path style="fill:#f5f5f5" d="m72.512 39.461-8.428 25.27-26.638.206c-2.554.02-3.614 3.279-1.559 4.797l21.429 15.825-8.035 25.398c-.77 2.435 2.003 4.45 4.081 2.965l21.674-15.489 21.672 15.49c2.078 1.485 4.851-.53 4.081-2.965L92.754 85.56l21.429-15.825c2.055-1.517.995-4.778-1.559-4.797l-26.638-.206-8.428-25.27c-.81-2.424-4.237-2.424-5.046-.001z"/></svg>