<svg xmlns="http://www.w3.org/2000/svg" xml:space="preserve" width="512" height="335.45001"><path style="fill:#73af00" d="M0 297.103c0 21.177 17.167 38.345 38.345 38.345h435.31c21.177 0 38.345-17.167 38.345-38.345v-73.471H0z"/><path style="fill:#41479b" d="M473.655 0H38.345C17.167 0 0 17.167 0 38.345v73.471h512V38.345C512 17.167 494.833 0 473.655 0z"/><path style="fill:#f5f5f5" d="M0 111.814h512v111.81H0z"/><path style="fill:#464655" d="m286.477 187.637-2.052 1.045c-.279.142-.58.265-.865.403l-18.127-22.898c3.726-8.099 5.934-19.153 5.934-24.178 0-8.257-5.418-15.136-12.547-16.591-.477-1.077-1.551-1.831-2.805-1.831-1.254 0-2.328.754-2.805 1.831-7.128 1.455-12.547 8.335-12.547 16.591 0 5.025 2.209 16.078 5.934 24.178l-18.126 22.898c-.282-.137-.583-.259-.861-.401l-2.052-1.045-7.658 15.054 2.052 1.044c10.451 5.316 22.921 8.126 36.063 8.126 13.143 0 25.617-2.812 36.07-8.127l2.052-1.044zm-18.181-45.628c0 3.735-1.387 11.586-3.957 18.783-.339.948-.686 1.847-1.042 2.699l-2.677-3.382V148.15h4.606l-6.141-6.141v-13.363c5.288 1.541 9.211 6.939 9.211 13.363zm-20.606 18.782c-2.57-7.197-3.957-15.048-3.957-18.783 0-6.424 3.923-11.822 9.212-13.363v13.363l-6.141 6.141h4.606v11.959l-2.677 3.382c-.357-.851-.704-1.751-1.043-2.699zm-20.648 34.084.627 2.579-2.251.614zm-2.679 5.869 3.851-1.05.707 2.91c-1.553-.574-3.08-1.184-4.558-1.86zm5.839-5.867c1.752.693 3.575 1.304 5.449 1.849l.554 1.698-4.849 1.196zm2.164 8.901-.467-1.919 5.022-1.239 1.557 4.771a72.8105 72.8105 0 0 1-6.112-1.613zm6.816-6.127c1.927.449 3.889.836 5.892 1.129l.834 1.492-5.33 1.661zm2.742 8.405-.631-1.933 5.763-1.796 2.612 4.671c-2.627-.196-5.211-.509-7.744-.942zm6.923-6.823c2.366.224 4.759.348 7.167.348.513 0 1.023-.028 1.535-.039l.641.983-7.084 2.748zm7.167 8.023c-.913 0-1.814-.039-2.719-.067l-1.055-1.887 7.235-2.806 2.933 4.497c-2.109.157-4.236.263-6.394.263zm5.098-7.869c2.434-.163 4.839-.44 7.199-.831l.691.883-5.608 3.446zm4.748 7.28-1.208-1.853 5.778-3.55 3.212 4.107c-2.536.557-5.134.987-7.782 1.296zm5.846-8.754c2.008-.433 3.974-.941 5.878-1.536l.715.926-4.077 3.827zm5.22 6.673-1.28-1.636 4.067-3.817 2.835 3.671c-1.833.66-3.7 1.268-5.622 1.782zm3.726-9.26c1.293-.48 2.564-.985 3.786-1.54l.6 1.181-1.962 3.5zm4.886 6.327-.931-1.206 1.688-3.011 1.628 3.2c-.779.36-1.585.685-2.385 1.017z"/></svg>