<svg xmlns="http://www.w3.org/2000/svg" xml:space="preserve" width="512" height="335.45001"><path style="fill:#41479b;stroke-width:1" d="M38.345 0C17.167 0 0 17.167 0 38.345V256L388.414 0z"/><path style="fill:#73af00;stroke-width:1" d="M473.655 335.448c21.177 0 38.345-17.167 38.345-38.345V79.448l-388.414 256z"/><path style="fill:#f5f5f5;stroke-width:1" d="M473.655 0h-90.516L0 251.022v46.081c0 21.177 17.167 38.345 38.345 38.345h90.516L512 84.426V38.345C512 17.167 494.833 0 473.655 0z"/><path style="fill:#ff4b55;stroke-width:1" d="M473.655 0h-42.2L0 282.677v14.426c0 21.177 17.167 38.345 38.345 38.345h42.2L512 52.771V38.345C512 17.167 494.833 0 473.655 0z"/><g transform="translate(0 -88.276)"><path style="fill:#ffe15a" d="M90.207 145.894c8.691 0 16.557 3.521 22.254 9.214l3.125-21.686-17.235 13.561-8.145-20.362-8.145 20.362-17.235-13.561 3.125 21.686c5.699-5.694 13.565-9.214 22.256-9.214zm-22.272 53.74c-5.693-5.697-9.214-13.565-9.214-22.254 0-8.691 3.521-16.557 9.214-22.254L46.249 152l13.561 17.235-20.362 8.145 20.362 8.145-13.561 17.235zm73.031-22.255-20.362-8.145L134.165 152l-21.686 3.125c5.693 5.697 9.214 13.565 9.214 22.254 0 8.69-3.521 16.557-9.214 22.254l21.686 3.125-13.561-17.235zm-50.759 31.486c-8.691 0-16.557-3.521-22.254-9.214l-3.125 21.686 17.235-13.561 8.145 20.362 8.145-20.362 17.235 13.561-3.125-21.686c-5.699 5.694-13.565 9.214-22.256 9.214z"/><circle style="fill:#ffe15a" cx="90.21" cy="177.38" r="25.709"/></g></svg>