<svg xmlns="http://www.w3.org/2000/svg" xml:space="preserve" width="512" height="335.45001"><path style="fill:#f5f5f5" d="M503.172 256H256v158.897c0 4.875-3.953 8.828-8.828 8.828h226.483c21.177 0 38.345-17.167 38.345-38.345V247.172c0 4.875-3.953 8.828-8.828 8.828zM8.828 256H256V97.103c0-4.875 3.953-8.828 8.828-8.828H38.345C17.167 88.276 0 105.443 0 126.621v138.207C0 259.953 3.953 256 8.828 256z" transform="translate(0 -88.275)"/><path style="fill:#ff4b55" d="M473.655.001H264.828C259.953.001 256 3.954 256 8.829v158.896h247.172c4.875 0 8.828-3.953 8.828-8.828V38.346C512 17.168 494.833.001 473.655.001z"/><path style="fill:#4173cd" d="M256 414.897V256H8.828C3.953 256 0 259.953 0 264.828V385.38c0 21.177 17.167 38.345 38.345 38.345h208.828c4.874-.001 8.827-3.953 8.827-8.828zm-124.6-280.41 8.416 25.234 26.6.206c3.444.026 4.872 4.422 2.101 6.467l-21.398 15.801 8.023 25.362c1.038 3.284-2.7 5.999-5.502 3.997L128 196.087l-21.641 15.468c-2.802 2.003-6.54-.714-5.502-3.997l8.023-25.362-21.398-15.801c-2.771-2.046-1.342-6.441 2.101-6.467l26.6-.206 8.416-25.234c1.09-3.267 5.712-3.267 6.801-.001z" transform="translate(0 -88.275)"/><path style="fill:#ff4b55" d="m387.4 213.936 8.416 25.234 26.6.206c3.444.026 4.872 4.422 2.101 6.467l-21.398 15.801 8.023 25.362c1.038 3.284-2.7 5.999-5.502 3.997L384 275.536l-21.641 15.468c-2.802 2.003-6.54-.714-5.502-3.997l8.023-25.362-21.398-15.801c-2.771-2.046-1.342-6.441 2.101-6.467l26.6-.206 8.416-25.234c1.09-3.268 5.712-3.268 6.801-.001z"/></svg>