<svg xmlns="http://www.w3.org/2000/svg" xml:space="preserve" width="512" height="335.45001"><path style="fill:#ff4b55" d="M473.655 0H38.345C17.167 0 0 17.167 0 38.345V67.09h512V38.345C512 17.167 494.833 0 473.655 0z"/><path style="fill:#f5f5f5" d="M0 67.09399h512v67.09H0z"/><path style="fill:#ff4b55" d="M0 222.46001h512v67.09H0zM0 385.379c0 21.177 17.167 38.345 38.345 38.345h435.31c21.177 0 38.345-17.167 38.345-38.345v-28.745H0z" transform="translate(0 -88.276)"/><path style="fill:#f5f5f5" d="M0 201.27399h512v67.09H0z"/><path style="fill:#41479b" d="m13.7 326.472 233.898-153.244c3.966-2.599 3.966-8.412 0-11.009L13.7 8.975C5.326 16.01 0 26.553 0 38.345v258.759c0 11.791 5.326 22.334 13.7 29.368z"/><path style="fill:#f5f5f5" d="m90.183 126.75 9.213 27.623 29.118.226c3.769.029 5.333 4.84 2.301 7.08l-23.424 17.298 8.783 27.763c1.138 3.594-2.955 6.568-6.023 4.375l-23.689-16.932-23.69 16.932c-3.066 2.193-7.159-.781-6.023-4.375l8.783-27.763-23.424-17.299c-3.032-2.24-1.47-7.05 2.301-7.08l29.118-.226 9.213-27.623c1.192-3.576 6.25-3.576 7.443.001z"/></svg>