<svg xmlns="http://www.w3.org/2000/svg" xml:space="preserve" width="512" height="335.45001"><path style="fill:#464655" d="M473.655 0H38.345C17.167 0 0 17.167 0 38.345v73.471h512V38.345C512 17.167 494.833 0 473.655 0z"/><path style="fill:#73af00" d="M0 297.103c0 21.177 17.167 38.345 38.345 38.345h435.31c21.177 0 38.345-17.167 38.345-38.345v-73.471H0z"/><path style="fill:#f5f5f5" d="M0 111.814h512v111.81H0z"/><path style="fill:#ff4b55" d="m12.828 325.717 193.27-153.418c2.946-2.338 2.946-6.812 0-9.15L12.828 9.731C4.959 16.754 0 26.968 0 38.345v258.759c0 11.376 4.959 21.59 12.828 28.613z"/></svg>