<svg xmlns="http://www.w3.org/2000/svg" xml:space="preserve" width="512" height="335.45001"><path style="fill:#f5f5f5" d="M0 297.103c0 21.177 17.167 38.345 38.345 38.345h435.31c21.177 0 38.345-17.167 38.345-38.345v-73.471H0z"/><path style="fill:#ff4b55" d="M473.655 0H38.345C17.167 0 0 17.167 0 38.345v73.471h512V38.345C512 17.167 494.833 0 473.655 0z"/><path style="fill:#41479b" d="M0 111.814h512v111.81H0z"/><path style="fill:#ffe15a" transform="translate(0 -88.276)" d="M106.814 184.18h68.855l-2.648 15.89h-63.559z"/><path style="fill:#ffd350" transform="translate(0 -88.276)" d="m173.021 200.07.662-3.973H108.8l.662 3.973z"/><path style="fill:#ffe15a" d="M139.92 147.10001h2.648v10.593h-2.648z" transform="translate(0 -88.276)"/><path style="fill:#ffe15a" d="M137.27 149.75h7.945v2.648h-7.945zm35.958 39.726c-.3 0-.604-.052-.903-.158-1.375-.499-2.086-2.017-1.587-3.393l5.61-15.481c.278-.768.212-1.613-.18-2.319-.209-.375-.695-1.035-1.624-1.234-6.839-1.453-20.096-3.897-32.024-3.897h-2.558c-11.927 0-25.184 2.444-32.026 3.9-.926.196-1.414.856-1.621 1.231-.392.706-.458 1.551-.179 2.319l5.609 15.481c.499 1.376-.212 2.894-1.587 3.393-1.374.491-2.895-.215-3.392-1.588l-5.61-15.481c-.8-2.209-.609-4.648.526-6.694 1.097-1.978 2.973-3.38 5.149-3.843 7.047-1.5 20.718-4.017 33.131-4.017h2.558c12.413 0 26.084 2.517 33.128 4.013 2.179.466 4.055 1.867 5.152 3.846 1.135 2.046 1.326 4.484.527 6.694l-5.611 15.481c-.388 1.078-1.406 1.747-2.488 1.747z" transform="translate(0 -88.276)"/><path style="fill:#ffe15a" d="M141.251 187.159c-1.462 0-2.648-1.184-2.648-2.648v-21.517c0-1.464 1.186-2.648 2.648-2.648 1.462 0 2.648 1.184 2.648 2.648v21.517c.001 1.463-1.185 2.648-2.648 2.648z" transform="translate(0 -88.276)"/><path style="fill:#ffe15a" d="M159.559 189.476c-.179 0-.36-.018-.541-.054-1.433-.298-2.353-1.699-2.055-3.132l3.212-15.481c.417-2.017-.236-3.784-.608-4.094-3.672-1.347-11.039-3.722-17.594-3.722h-1.465c-6.554 0-13.921 2.375-17.73 3.791-.235.241-.889 2.007-.472 4.024l3.212 15.481c.298 1.432-.622 2.835-2.055 3.132-1.434.277-2.836-.623-3.13-2.056l-3.212-15.481c-.8-3.859.428-8.801 3.808-10.062 5.063-1.882 12.565-4.125 19.578-4.125h1.465c7.014 0 14.517 2.242 19.576 4.122 3.383 1.265 4.611 6.207 3.811 10.066l-3.212 15.481c-.258 1.252-1.36 2.11-2.588 2.11z" transform="translate(0 -88.276)"/><path style="fill:#ffd350" transform="translate(0 -88.276)" d="M175.669 184.18h-68.855l.662 3.972h67.531z"/><path style="fill:#ff4b55" d="M90.924 111.794c-1.463 0-2.648 1.186-2.648 2.648v92.486c0 29.365 23.713 53.17 52.966 53.17s52.966-23.805 52.966-53.17v-92.486c0-1.463-1.185-2.648-2.648-2.648z"/><path style="fill:#f5f5f5" d="m146.538 199.187 5.297-13.241-10.593 2.648-10.593-2.648 5.297 13.241-13.241 45.021s7.945 5.297 18.538 5.297 18.538-5.297 18.538-5.297z"/><path style="fill:#ffe15a" transform="translate(0 -88.276)" d="m127.667 280.802-4.63-2.57-12.485 22.472H98.869v5.297h5.69l-7.344 5.875 3.308 4.138 6.239-4.992-2.461 7.381 5.025 1.676 4.837-14.511 9.183-2.296-1.285-5.137-4.673 1.169z"/><path style="fill:#f5f5f5" d="m122.703 138.276-12.089-6.045c-2.22-1.11-3.372-3.614-2.77-6.022l.684-2.735c.474-1.898-.961-3.736-2.918-3.736-.914 0-1.778.415-2.348 1.129-6.273 7.841-9.69 17.583-9.69 27.625v55.991s11.059-2.212 21.048-16.742c1.834-2.668 4.854-4.247 8.072-4.412l-5.286 15.857L128 201.835l9.269-11.03z"/><path style="fill:#ffe15a" transform="translate(0 -88.276)" d="m154.816 280.802 4.63-2.57 12.483 22.472h11.685v5.297h-5.691l7.345 5.875-3.308 4.138-6.239-4.992 2.461 7.381-5.026 1.676-4.836-14.511-9.183-2.296 1.285-5.137 4.673 1.169z"/><path style="fill:#f5f5f5" d="m159.779 138.276 12.089-6.045c2.22-1.11 3.372-3.614 2.77-6.022l-.684-2.735c-.474-1.898.961-3.736 2.918-3.736.914 0 1.778.415 2.348 1.129 6.273 7.841 9.69 17.583 9.69 27.625v55.991s-11.059-2.212-21.048-16.742c-1.834-2.668-4.853-4.247-8.072-4.412l5.286 15.857-10.593 2.648-9.269-11.03z"/><path style="fill:#ffe15a" d="m116.083 213.311 9.269 2.648-5.297 2.648H128l-2.648-10.593H112.11zm50.317 0-9.269 2.648 5.297 2.648h-7.945l2.648-10.593h13.241z" transform="translate(0 -88.276)"/><path style="fill:#f5f5f5" d="m158.996 117.662-12.458 2.077-5.297 10.593-5.297-10.593-12.458-2.077c-1.428-.238-2.524 1.245-1.876 2.54L128 132.98l-5.297 5.297h37.076l-5.297-5.297 6.389-12.778c.648-1.296-.447-2.779-1.875-2.54z"/><circle style="fill:#ffbe50" cx="141.24001" cy="97.064" r="3.972"/><ellipse style="fill:#41479b" cx="141.19" cy="106.54401" rx="3.139" ry="2.207"/><ellipse style="fill:#ff4b55" cx="125.52" cy="106.54401" rx="3.139" ry="2.207"/><g transform="translate(0 -88.276)"><ellipse style="fill:#41479b" cx="109.85" cy="194.82001" rx="3.139" ry="2.207"/><ellipse style="fill:#41479b" cx="172.52" cy="194.82001" rx="3.139" ry="2.207"/></g><ellipse style="fill:#ff4b55" cx="156.85001" cy="106.54401" rx="3.139" ry="2.207"/><g transform="translate(0 -88.276)"><circle style="fill:#ffbe50" cx="159.64999" cy="185.34" r="3.972"/><circle style="fill:#ffbe50" cx="174.17" cy="185.34" r="3.972"/><circle style="fill:#ffbe50" cx="122.86" cy="185.34" r="3.972"/><circle style="fill:#ffbe50" cx="108.33" cy="185.34" r="3.972"/></g><path style="fill:#41479b" d="M145.803 74.718c.455-.781.735-1.678.735-2.648 0-2.925-2.371-5.297-5.297-5.297-2.926 0-5.297 2.371-5.297 5.297 0 .97.279 1.867.735 2.648z"/><path style="fill:#ff4b55" d="M141.241 192.566c-10.953 0-19.862-8.909-19.862-19.862v-35.752h39.724v35.752c0 10.953-8.909 19.862-19.862 19.862z"/><path style="fill:#a54b50" d="M159.779 138.276v34.428c0 10.238-8.3 18.538-18.538 18.538s-18.538-8.3-18.538-18.538v-34.428h37.076m2.649-2.648h-42.372v37.076c0 11.682 9.504 21.186 21.186 21.186s21.186-9.504 21.186-21.186v-34.428z"/><path style="fill:#f5f5f5" d="M137.269 279.08c1.281.28 2.607.437 3.972.437 1.365 0 2.691-.158 3.972-.437v-52.529h-7.945c.001 0 .001 52.529.001 52.529z" transform="translate(0 -88.276)"/><path style="fill:#f5f5f5" d="M122.7 248.39999h37.08v7.945H122.7z" transform="translate(0 -88.276)"/></svg>