<svg xmlns="http://www.w3.org/2000/svg" xml:space="preserve" width="512" height="335.45001"><path style="fill:#41479b" d="M473.885.001H38.115C17.045.124 0 17.24 0 38.34v258.759c0 21.177 17.167 38.345 38.345 38.345h435.31c21.177 0 38.345-17.167 38.345-38.345V38.34C512 17.24 494.955.124 473.885.001z"/><path style="fill:#73af00" d="M498.304 8.974 13.704 326.47c6.665 5.597 15.257 8.972 24.641 8.972h435.31c21.177 0 38.345-17.167 38.345-38.345V38.339c0-11.789-5.325-22.33-13.696-29.365z"/><path style="fill:#ffe15a" d="M512 8.828C512 3.953 508.047 0 503.172 0h-15.339L0 319.616v7.006c0 4.875 3.953 8.828 8.828 8.828h15.339L512 15.834z"/><path style="fill:#f5f5f5" d="m44.429 115.778-4.726 14.169-14.936.116c-1.432.011-2.026 1.839-.874 2.69l12.015 8.873-4.505 14.241c-.433 1.366 1.123 2.495 2.289 1.663l12.152-8.685 12.152 8.685c1.165.833 2.72-.297 2.289-1.663l-4.505-14.241 12.015-8.873c1.152-.851.558-2.679-.874-2.69l-14.936-.116-4.726-14.169c-.454-1.359-2.376-1.359-2.83 0zm113.781 0-4.726 14.169-14.936.116c-1.432.011-2.026 1.839-.874 2.69l12.015 8.873-4.505 14.241c-.433 1.366 1.123 2.495 2.289 1.663l12.152-8.685 12.152 8.685c1.165.833 2.72-.297 2.289-1.663l-4.505-14.241 12.015-8.873c1.152-.851.558-2.679-.874-2.69l-14.936-.116-4.726-14.169c-.455-1.359-2.377-1.359-2.83 0zm-56.89 50.698-4.726 14.169-14.936.116c-1.432.011-2.026 1.839-.874 2.69l12.015 8.873-4.505 14.241c-.433 1.366 1.123 2.495 2.289 1.663l12.152-8.685 12.152 8.685c1.165.833 2.72-.297 2.289-1.663l-4.505-14.241 12.015-8.873c1.152-.851.558-2.679-.874-2.69l-14.936-.116-4.726-14.169c-.456-1.359-2.377-1.359-2.83 0zm-56.891 50.698-4.726 14.169-14.936.116c-1.432.011-2.026 1.839-.874 2.69l12.015 8.873-4.505 14.241c-.433 1.366 1.123 2.495 2.289 1.663l12.152-8.685 12.152 8.685c1.165.833 2.72-.297 2.289-1.663l-4.505-14.241 12.015-8.873c1.152-.851.558-2.679-.874-2.69l-14.936-.116-4.726-14.169c-.454-1.359-2.376-1.359-2.83 0zm113.781 0-4.726 14.169-14.936.116c-1.432.011-2.026 1.839-.874 2.69l12.015 8.873-4.505 14.241c-.433 1.366 1.123 2.495 2.289 1.663l12.152-8.685 12.152 8.685c1.165.833 2.72-.297 2.289-1.663l-4.505-14.241 12.015-8.873c1.152-.851.558-2.679-.874-2.69l-14.936-.116-4.726-14.169c-.455-1.359-2.377-1.359-2.83 0z" transform="translate(0 -88.275)"/></svg>