<svg xmlns="http://www.w3.org/2000/svg" xml:space="preserve" width="512" height="335.45001"><path style="fill:#4173cd" d="M0 385.379c0 21.177 17.167 38.345 38.345 38.345h435.31c21.177 0 38.345-17.167 38.345-38.345v-23.448H0zM473.655 88.276H38.345C17.167 88.276 0 105.443 0 126.621v23.448h512v-23.448c0-21.178-17.167-38.345-38.345-38.345z" transform="translate(0 -88.276)"/><path style="fill:#ff4b55" d="M0 61.79401h512v211.86H0z"/><path style="fill:#ffe15a" d="M0 141.24001h512v17.655H0zm0 211.86h512v17.655H0zM448.897 264.519H62.734c-2.621 0-4.745-2.124-4.745-4.745v-1.501c0-2.621 2.124-4.745 4.745-4.745h386.163c2.621 0 4.745 2.124 4.745 4.745v1.501c0 2.62-2.124 4.745-4.745 4.745z" transform="translate(0 -88.276)"/><path style="fill:#f5f5f5" transform="translate(0 -88.276)" d="m412.428 242.538-19.233 8.243-19.233-8.243 19.233-8.243z"/><path style="fill:#ffe15a" d="M378.695 150.751H96.456c-1.939 0-3.511 1.571-3.511 3.511 0 1.939 1.571 3.511 3.511 3.511h282.238c1.939 0 3.511-1.572 3.511-3.511s-1.572-3.511-3.51-3.511z"/><path style="fill:#f5f5f5" transform="translate(0 -88.276)" d="m432.425 223.305-19.233 8.243-19.233-8.243 19.233-8.243z"/><path style="fill:#ffe15a" d="M398.69 131.518H116.452c-1.939 0-3.511 1.571-3.511 3.511 0 1.939 1.571 3.511 3.511 3.511H398.69c1.939 0 3.511-1.572 3.511-3.511s-1.571-3.511-3.511-3.511z"/><path style="fill:#f5f5f5" d="M255.816 99.31c-48.808 0-91.39 27.639-114.197 68.69 22.806 41.05 65.389 68.69 114.197 68.69 48.808 0 91.39-27.639 114.197-68.69-22.806-41.051-65.39-68.69-114.197-68.69z"/><path style="fill:#464655" d="M141.62 168c22.806 41.05 65.389 68.69 114.197 68.69 8.15 0 16.106-.836 23.846-2.312-5.909-12.971-26.691-12.949-27.967-17.837-1.374-5.266 16.943-4.121 20.149-8.472 3.206-4.35-17.401-6.182-18.317-10.532-.916-4.351 8.243-7.327 9.846-14.196 1.603-6.869 5.266-8.929 8.013-13.05 2.748-4.121-4.579-5.495-6.411-19.233-1.832-13.738-12.594-15.57-17.859-26.788-5.267-11.219 3.206-19.462 8.701-24.957-48.809-.003-91.392 27.636-114.198 68.687z"/><path style="fill:#f5f5f5" d="M184.37 231.55h5.495v21.981h-5.495zm11 0h5.495v21.981h-5.495zm10.99 0h5.495v21.981h-5.495zm10.99001 0h5.495v21.981h-5.495zm10.98999 0h5.495v21.981h-5.495zm10.99 0h5.495v21.981h-5.495zm-54.96 32.96999h5.495v21.981h-5.495zm11 0h5.495v21.981h-5.495zm10.99 0h5.495v21.981h-5.495zm10.99001 0h5.495v21.981h-5.495zm10.98999 0h5.495v21.981h-5.495zm10.99 0h5.495v21.981h-5.495z" transform="translate(0 -88.276)"/><path style="fill:#464655" d="M266.79999 231.55h5.495v21.981h-5.495zm10.99002 0h5.495v21.981h-5.495zm10.98999 0h5.495v21.981h-5.495zm10.98999 0h5.495v21.981h-5.495zm10.99002 0h5.495v21.981h-5.495zm10.98999 0h5.495v21.981h-5.495zm-54.95001 32.96999h5.495v21.981h-5.495zm10.99002 0h5.495v21.981h-5.495zm10.98999 0h5.495v21.981h-5.495zm10.98999 0h5.495v21.981h-5.495zm10.99002 0h5.495v21.981h-5.495zm10.98999 0h5.495v21.981h-5.495z" transform="translate(0 -88.276)"/><path style="fill:#245dbd" d="M425.386 164.394c-4.401 10.223-16.925 11.426-9.985 37.486l3.554-3.608s3.723 9.823 12.693 16.438c0 0 11-9.222 11.847-23.854l4.569 2.005c0-.003-2.2-26.663-22.678-28.467z"/><path style="fill:#ff4b55" d="M441.633 273.618c-.352 0-.701-.163-.966-.482-4.31-5.199-9.8-6.866-9.853-6.884-.725-.213-1.169-1.084-.989-1.942.18-.852.915-1.385 1.636-1.172.254.075 6.27 1.886 11.136 7.755.524.627.515 1.647-.015 2.268-.264.307-.605.457-.949.457zm-3.102 12.128c-.405 0-.807-.213-1.074-.627-3.197-4.924-6.823-7.605-6.86-7.63-.638-.463-.833-1.453-.441-2.211.394-.751 1.227-.983 1.865-.52.167.119 4.088 3.026 7.584 8.407.455.702.344 1.71-.248 2.249-.246.225-.538.332-.826.332zm-7.105 13.499c-.076 0-.153-.007-.233-.025-.735-.15-1.233-.978-1.106-1.848.534-3.671.087-9.691-.646-12.798-.201-.852.22-1.736.939-1.98.727-.232 1.468.263 1.668 1.116.828 3.508 1.312 10.055.708 14.201-.112.783-.685 1.334-1.33 1.334zm-9.523-14.809c-.386 0-.769-.194-1.036-.57-.481-.676-.409-1.692.161-2.261.034-.031 3.49-3.54 4.393-8.394.161-.864.878-1.409 1.613-1.221.729.188 1.193 1.046 1.032 1.911-1.106 5.939-5.122 9.992-5.294 10.161-.255.249-.562.374-.869.374zm-3.76-10.261c-.455 0-.899-.269-1.155-.765-.392-.751-.193-1.741.445-2.205.051-.038 4.961-3.652 6.484-7.598.309-.814 1.119-1.172 1.795-.796.68.37.979 1.322.669 2.124-1.869 4.842-7.302 8.833-7.531 9.002-.224.163-.467.238-.707.238z" transform="translate(0 -88.276)"/><path style="fill:#245dbd" d="M82.285 167.834c-3.679 8.548-14.152 9.555-8.35 31.345l2.972-3.017s3.113 8.213 10.614 13.745c0 0 9.198-7.711 9.906-19.947l3.821 1.676c0 .001-1.839-22.292-18.963-23.802z"/><path style="fill:#ff4b55" d="M95.871 273.628c-.295 0-.586-.136-.807-.404-3.604-4.348-8.194-5.741-8.239-5.757-.606-.178-.978-.906-.826-1.624.15-.713.765-1.158 1.368-.98.212.063 5.242 1.577 9.311 6.485.438.524.431 1.377-.013 1.896-.221.258-.507.384-.794.384zm-2.594 10.14c-.339 0-.674-.178-.898-.524-2.674-4.117-5.705-6.359-5.736-6.38-.533-.387-.696-1.215-.37-1.849.33-.629 1.026-.822 1.559-.435.139.099 3.418 2.53 6.342 7.03.381.587.288 1.43-.207 1.88-.206.189-.45.278-.69.278zm-5.942 11.289c-.064 0-.128-.006-.194-.021-.615-.126-1.031-.818-.925-1.545.447-3.07.073-8.104-.54-10.701-.168-.713.183-1.451.785-1.655.608-.194 1.227.22 1.395.932.692 2.933 1.097 8.407.593 11.875-.095.653-.575 1.115-1.114 1.115zm-7.963-12.383c-.323 0-.643-.162-.867-.477-.403-.566-.343-1.415.135-1.891.029-.026 2.919-2.959 3.672-7.019.135-.723.734-1.178 1.348-1.022.61.157.998.875.863 1.598-.925 4.966-4.284 8.355-4.427 8.497-.211.209-.467.314-.724.314zm-3.144-8.581c-.381 0-.751-.225-.967-.639-.328-.629-.161-1.457.372-1.844.042-.031 4.148-3.054 5.422-6.354.258-.681.936-.98 1.502-.665.568.309.818 1.106.559 1.775-1.564 4.049-6.105 7.385-6.297 7.527-.186.137-.39.2-.591.2z" transform="translate(0 -88.276)"/></svg>