<svg xmlns="http://www.w3.org/2000/svg" xml:space="preserve" width="512" height="335.45001"><path style="fill:#ff4b55" d="M473.655 335.448H38.345C17.167 335.448 0 318.281 0 297.104V38.346C0 17.169 17.167.001 38.345.001h435.31C494.832.001 512 17.168 512 38.346v258.758c0 21.177-17.167 38.344-38.345 38.344z"/><path style="fill:#41479b" d="M8.828 167.724h238.345c4.875 0 8.828-3.951 8.828-8.828V8.828c0-4.875-3.953-8.828-8.828-8.828H38.345C17.167.001 0 17.168 0 38.346v120.552c0 4.875 3.953 8.826 8.828 8.826z"/><g transform="translate(0 -88.276)"><path style="fill:#f5f5f5" d="M96.403 172.139c0-8.722 3.534-16.618 9.248-22.335l-26.474-7.573c-1.537-.439-2.638 1.469-1.49 2.58l19.811 19.155-26.734 6.684c-1.55.387-1.55 2.591 0 2.979l26.734 6.684-19.811 19.155c-1.149 1.111-.047 3.019 1.49 2.58l26.474-7.573c-5.714-5.718-9.248-13.614-9.248-22.336zm9.262-22.349c5.717-5.714 13.613-9.248 22.335-9.248 8.722 0 16.618 3.534 22.335 9.248l7.573-26.474c.439-1.537-1.469-2.638-2.58-1.49l-19.155 19.81-6.684-26.734c-.387-1.55-2.591-1.55-2.979 0l-6.684 26.734-19.155-19.81c-1.111-1.149-3.02-.047-2.58 1.49zm44.67 44.698c-5.717 5.714-13.613 9.248-22.335 9.248-8.722 0-16.618-3.534-22.335-9.248l-7.573 26.475c-.439 1.537 1.469 2.638 2.58 1.49l19.155-19.81 6.684 26.734c.387 1.55 2.591 1.55 2.979 0l6.684-26.734 19.155 19.81c1.111 1.149 3.019.047 2.58-1.49zm34.901-23.84-26.734-6.684 19.81-19.155c1.149-1.111.047-3.019-1.49-2.58l-26.474 7.573c5.714 5.718 9.248 13.613 9.248 22.335 0 8.722-3.534 16.618-9.248 22.335l26.474 7.573c1.537.439 2.638-1.469 1.49-2.58l-19.81-19.155 26.734-6.684c1.551-.385 1.551-2.588 0-2.978z"/><circle style="fill:#f5f5f5" cx="128" cy="172.14101" r="25.16"/></g></svg>