<svg xmlns="http://www.w3.org/2000/svg" xml:space="preserve" width="512" height="335.45001"><path style="fill:#f5f5f5" d="M0 200.09h185.38v37.27H0zm185.379-74.541h326.593c-.569-20.68-17.5-37.272-38.317-37.272H38.345C17.167 88.276 0 105.444 0 126.621v36.2h185.379zM38.345 423.725h435.31c20.818 0 37.748-16.593 38.317-37.272H.028c.569 20.679 17.499 37.272 38.317 37.272z" transform="translate(0 -88.277)"/><path style="fill:#4173cd" d="M185.379 37.272v37.272H512v-36.2c0-.36-.018-.715-.028-1.073z"/><path style="fill:#f5f5f5" transform="translate(0 -88.277)" d="M185.379 200.092H512v-37.271H0v37.271z"/><path style="fill:#4173cd" d="M185.38 111.813H512v37.27H185.38z"/><path style="fill:#f5f5f5" transform="translate(0 -88.277)" d="M512 274.637v-37.273H0v37.273z"/><path style="fill:#4173cd" d="M0 186.36302h512v37.27H0z"/><path style="fill:#f5f5f5" d="M0 223.63301h512v37.27H0z"/><path style="fill:#4173cd" d="M0 297.103c0 .36.018.715.028 1.073h511.946c.01-.358.028-.713.028-1.073v-36.2H0z"/><path style="fill:#ffe15a" transform="translate(0 -88.277)" d="m101.85 170.404-37.874-58.761 14.767 68.332z"/><path style="fill:#ffcd5a" transform="translate(0 -88.277)" d="m78.743 179.975-14.767-68.332 26.32 63.546z"/><path style="fill:#ffe15a" transform="translate(0 -88.277)" d="m83.529 191.528 37.875 58.761-14.768-68.332z"/><path style="fill:#ffcd5a" transform="translate(0 -88.277)" d="m106.636 181.957 14.768 68.332-26.321-63.546z"/><path style="fill:#ffe15a" transform="translate(0 -88.277)" d="m103.252 190.127 58.761-37.875-68.332 14.768z"/><path style="fill:#ffcd5a" transform="translate(0 -88.277)" d="m93.681 167.02 68.332-14.768-63.547 26.321z"/><path style="fill:#ffe15a" transform="translate(0 -88.277)" d="m82.127 171.805-58.76 37.876 68.332-14.768z"/><path style="fill:#ffcd5a" transform="translate(0 -88.277)" d="m91.699 194.913-68.332 14.768 63.546-26.322z"/><path style="fill:#ffe15a" transform="translate(0 -88.277)" d="m106.636 179.975 14.768-68.332-37.875 58.761z"/><path style="fill:#ffcd5a" transform="translate(0 -88.277)" d="m83.529 170.404 37.875-58.761-26.321 63.546z"/><path style="fill:#ffe15a" transform="translate(0 -88.277)" d="m78.743 181.957-14.767 68.332 37.874-58.761z"/><path style="fill:#ffcd5a" transform="translate(0 -88.277)" d="m101.85 191.528-37.874 58.761 26.32-63.546z"/><path style="fill:#ffe15a" transform="translate(0 -88.277)" d="m93.681 194.913 68.332 14.768-58.761-37.876z"/><path style="fill:#ffcd5a" transform="translate(0 -88.277)" d="m103.252 171.805 58.761 37.876-63.547-26.322z"/><path style="fill:#ffe15a" transform="translate(0 -88.277)" d="m91.699 167.02-68.332-14.768 58.76 37.875z"/><path style="fill:#ffcd5a" transform="translate(0 -88.277)" d="m82.127 190.127-58.76-37.875 63.546 26.321z"/><path style="fill:#ffe15a" transform="translate(0 -88.277)" d="M105.195 174.713 92.69 105.932l-12.506 68.781z"/><path style="fill:#ffcd5a" transform="translate(0 -88.277)" d="m80.184 174.713 12.506-68.781v68.781z"/><path style="fill:#ffe15a" transform="translate(0 -88.277)" d="m80.184 187.219 12.506 68.782 12.505-68.782z"/><path style="fill:#ffcd5a" transform="translate(0 -88.277)" d="M105.195 187.219 92.69 256.001v-68.782z"/><path style="fill:#ffe15a" transform="translate(0 -88.277)" d="m98.943 193.471 68.781-12.505-68.781-12.505z"/><path style="fill:#ffcd5a" transform="translate(0 -88.277)" d="m98.943 168.461 68.781 12.505H98.943z"/><path style="fill:#ffe15a" transform="translate(0 -88.277)" d="m86.436 168.461-68.781 12.505 68.781 12.505z"/><path style="fill:#ffcd5a" transform="translate(0 -88.277)" d="m86.436 193.471-68.781-12.505h68.781z"/><path style="fill:#ffe15a" transform="translate(0 -88.277)" d="m105.954 185.388 39.793-57.479-57.479 39.793z"/><path style="fill:#ffcd5a" transform="translate(0 -88.277)" d="m88.268 167.702 57.479-39.793-48.636 48.636z"/><path style="fill:#ffe15a" transform="translate(0 -88.277)" d="m79.425 176.545-39.792 57.478 57.478-39.792z"/><path style="fill:#ffcd5a" transform="translate(0 -88.277)" d="m97.111 194.231-57.478 39.792 48.635-48.635z"/><path style="fill:#ffe15a" transform="translate(0 -88.277)" d="m88.268 194.231 57.479 39.792-39.793-57.478z"/><path style="fill:#ffcd5a" transform="translate(0 -88.277)" d="m105.954 176.545 39.793 57.478-48.636-48.635z"/><path style="fill:#ffe15a" transform="translate(0 -88.277)" d="m97.111 167.702-57.478-39.793 39.792 57.479z"/><path style="fill:#ffcd5a" transform="translate(0 -88.277)" d="m79.425 185.388-39.792-57.479 48.635 48.636z"/><circle style="fill:#ffe15a" cx="92.69" cy="92.693" r="25.01"/></svg>