<svg xmlns="http://www.w3.org/2000/svg" xml:space="preserve" width="512" height="335.45001"><path style="fill:#73af00" d="M473.655 0H38.345C17.167 0 0 17.167 0 38.345v9.577h512v-9.577C512 17.167 494.833 0 473.655 0z"/><path style="fill:#ffe15a" d="M0 47.924h512v47.923H0z"/><path style="fill:#ff4b55" d="M0 95.84399h512v47.923H0z"/><path style="fill:#73af00" d="M0 297.103c0 21.177 17.167 38.345 38.345 38.345h435.31c21.177 0 38.345-17.167 38.345-38.345v-9.577H0z"/><path style="fill:#ffe15a" d="M0 239.604h512v47.923H0z"/><path style="fill:#ff4b55" d="M0 191.68399h512v47.923H0z"/><path style="fill:#464655" d="M20.068 4.628C12.413 8.786 6.337 15.476 2.954 23.572v288.303c3.383 8.096 9.46 14.786 17.114 18.944l175.75-139.135H512v-47.922H195.818z"/><path style="fill:#f5f5f5" d="m12.573 325.495 199.289-157.771L12.573 9.953C4.85 16.968 0 27.09 0 38.345v258.759c0 11.254 4.85 21.376 12.573 28.391z"/><path style="fill:#ff4b55" transform="translate(0 -88.276)" d="m146.264 235.186-30.1 29.339 7.106 41.428-37.205-19.56-37.205 19.56 7.106-41.428-30.1-29.339 41.597-6.045 18.602-37.693 18.603 37.693z"/><path style="fill:#ffe15a" d="m134.328 172.527-49.436-38.27c-5.784-13.554-14.005-22.296-20.984-22.296-5.929 0-8.828 5.495-9.658 8.797-4.27 1.977-5.272 5.912-5.314 6.083-.07.282-.003.582.175.81.18.228.454.362.745.362l.885-.017c3.972-.092 10.59-.266 12.282 12.352 1.056 7.879-.512 21.992-5.497 32.629-3.484 7.432-2.333 13.442-2.282 13.694.095.474.536.786 1.028.756.076-.008.26-.015.494-.023l4 22.614c.081.452.472.782.932.782h59.683c.437 0 .817-.299.92-.723l6.667-27.384c.002-.008.011-.012.013-.02.004-.015-.001-.03.002-.045l2.118-8.698c1.567.185 2.499.282 2.551.288.452.059.82-.199.975-.59.155-.391.036-.841-.299-1.101z"/><path style="fill:#464655" d="m134.328 260.803-49.436-38.27c-5.784-13.554-14.005-22.296-20.984-22.296-5.929 0-8.828 5.495-9.658 8.797-4.27 1.977-5.272 5.912-5.314 6.083-.07.282-.003.582.175.81.18.228.454.362.745.362l.885-.017c3.972-.092 10.59-.266 12.282 12.352 1.056 7.879-.512 21.992-5.497 32.629-3.484 7.432-2.333 13.442-2.282 13.694.095.474.536.786 1.028.756.076-.008.26-.015.494-.023l4 22.614c.081.452.472.782.932.782h59.683c.437 0 .817-.299.92-.723l6.667-27.384c.002-.008.011-.012.013-.02.004-.015-.001-.03.002-.045l2.118-8.698c1.567.185 2.499.282 2.551.288.452.059.82-.199.975-.59.155-.391.036-.841-.299-1.101zm-75.089 1.256c4.512-9.624 6.945-24.106 5.661-33.685-1.832-13.662-9.5-14.091-13.641-14.008.587-1.141 1.807-2.817 4.164-3.778.292-.118.505-.377.569-.687.066-.317 1.678-7.768 7.914-7.768 6.159 0 13.93 8.588 19.338 21.368.063.15.164.281.292.38l46.95 36.345c-8.275-1.004-29.898-3.983-42.706-9.03-6.695-2.637-8.221-6.65-9.567-10.191-.185-.49-.735-.732-1.223-.548-.489.186-.735.734-.548 1.223 1.338 3.518 3.171 8.338 10.644 11.282 1.523.6 3.167 1.171 4.896 1.713-.301.913-2.217 5.566-10.712 8.618-6.884 2.474-11.783 6.644-12.452 10.411-2.516-.01-4.761-.006-6.647.006v-2.735c0-2.078 2.002-5.087 4.121-8.274 2.953-4.44 6.3-9.473 6.3-14.621 0-.523-.425-.948-.948-.948-.523 0-.948.425-.948.948 0 4.575-3.179 9.355-5.983 13.571-2.382 3.581-4.438 6.674-4.438 9.323v2.751c-1.43.015-2.551.034-3.282.055-.169-1.783-.266-6.363 2.246-11.721zm37.571-6.001c-1.096 3.046-4.34 4.077-6.745 4.407 2.607-2.317 3.487-4.46 3.734-5.244.982.29 1.99.567 3.011.837zm1.826.471c1.043.262 2.095.514 3.158.758-.967 1.967-3.551 2.932-6.375 3.336 1.4-.888 2.586-2.198 3.217-4.094zm26.783 21.01c-9.604-2.959-37.32-3.716-54.69-3.827.588-2.152 3.314-4.978 7.93-7.243.047.008.09.029.139.029 25.93.092 43.979 3.938 48.114 4.907zm-1.223 5.021-3.788-4.226c1.806.314 3.345.664 4.562 1.053zm-49.004.668 1.842 1.734c-.567-.004-1.126-.01-1.706-.013-.05-.556-.092-1.145-.136-1.721zm47.871 3.985-4.813-5.274c-.317-.348-.841-.412-1.226-.148l-5.652 3.784-4.253-4.661c-.329-.362-.887-.41-1.276-.113l-5.109 3.917-4.636-4.577c-.348-.344-.904-.366-1.276-.051l-4.991 4.198-4.676-4.339c-.354-.328-.903-.335-1.269-.018l-4.878 4.287-4.011-3.774c-.07-1.126-.132-2.286-.186-3.479l3.591 3.526c.35.345.907.36 1.281.042l5.023-4.324 4.589 4.519c.346.341.897.363 1.272.053l5.039-4.199 4.835 4.555c.341.32.861.346 1.226.062l5.057-3.879 4.231 4.855c.32.367.867.43 1.265.148l5.625-4.008 5.592 6.238c.067.074.151.12.233.168zm-2.843-.305c-1.508-.191-3.614-.416-6.466-.647l3.648-2.442zm-11.087-.977c-1.902-.12-4.035-.236-6.417-.345l3.59-2.752zm-10.384-.511c-2.168-.082-4.525-.156-7.057-.221l3.69-3.104zm-10.813-.308c-2.184-.045-4.505-.082-6.946-.111l3.507-3.08zm-11.741-9.442c1.966.025 4.014.061 6.109.105l-3.198 2.753zm10.889.22c2.036.056 4.093.125 6.146.202l-3.218 2.681zm10.988.411c2.174.105 4.32.222 6.401.356l-3.319 2.546zm10.877.685c2.338.19 4.55.405 6.586.648l-3.715 2.647zm-50.268-1.345c2.847-.042 7.95-.065 14.175-.009.355 9.004 1.142 16.237 2.337 21.55H62.492zm61.956 21.542H77.132c-.665-2.849-1.204-6.31-1.617-10.338 31.69.209 43.729 1.782 46.738 2.274.089.087.188.158.298.202zm6.723-27.618c-4.006-.937-20.542-4.446-44.395-4.904 1.681-.67 3.114-1.395 4.321-2.145.564.071 2.225.254 4.307.254 4.323 0 10.396-.818 12.073-5.064 9.846 2.155 19.938 3.57 25.542 4.27z" transform="translate(0 -88.276)"/><path style="fill:#464655" d="M66.592 208.606c0-1.741-1.416-3.158-3.158-3.158-1.741 0-3.158 1.416-3.158 3.158 0 1.741 1.416 3.158 3.158 3.158 1.741 0 3.158-1.417 3.158-3.158zm-3.158 1.263c-.697 0-1.263-.566-1.263-1.263s.566-1.263 1.263-1.263 1.263.566 1.263 1.263-.566 1.263-1.263 1.263zm26.473 57.452c-1.713 0-3.105 1.393-3.105 3.105s1.393 3.105 3.105 3.105 3.106-1.393 3.106-3.105-1.394-3.105-3.106-3.105zm0 4.316c-.668 0-1.21-.543-1.21-1.21 0-.667.543-1.21 1.21-1.21.668 0 1.212.543 1.212 1.21 0 .667-.545 1.21-1.212 1.21zm9.283-3.786c-1.713 0-3.106 1.394-3.106 3.106s1.394 3.105 3.106 3.105c1.713 0 3.105-1.393 3.105-3.105s-1.392-3.106-3.105-3.106zm0 4.316c-.668 0-1.212-.543-1.212-1.21 0-.668.544-1.212 1.212-1.212.668 0 1.21.544 1.21 1.212.001.667-.542 1.21-1.21 1.21z" transform="translate(0 -88.276)"/></svg>