<svg xmlns="http://www.w3.org/2000/svg" xml:space="preserve" width="512" height="335.45001"><path style="fill:#41479b" d="M36.364 335.4h134.302V.003H38.345C17.167.003 0 17.17 0 38.348v258.759c0 20.512 16.108 37.263 36.364 38.293z"/><path style="fill:#ffe15a" d="M170.67 0h170.67v335.39001H170.67z"/><path style="fill:#ff4b55" d="M475.636 335.4C495.892 334.37 512 317.619 512 297.106V38.348C512 17.171 494.833.003 473.655.003H341.334V335.4z"/><path style="fill:#dcbe82" d="M316.023 196.367c0-2.562-2.077-4.64-4.64-4.64-.556 0-1.082.114-1.577.294-2.296-2.042-6.457-7.11-2.282-14.264.564.439 1.265.711 2.035.711 1.841 0 3.332-1.492 3.332-3.332 0-1.454-.937-2.678-2.236-3.133 3.431-1.75 8.324-5.465 8.072-12.412-.359-9.852-8.429-15.29-13.38-13.116.018-.138.042-.274.042-.416 0-1.815-1.471-3.286-3.286-3.286-1.116 0-2.098.559-2.691 1.409-.202-.985-.178-2.814 2.112-4.791 4.253-3.673 9.086-12.469.29-18.655-4.871-3.425-14.182-5.066-17.301-.386-1.353 2.029-.268 4.945 1.277 5.6-2.489 1.388-7.211 3.471-10.942 1.843-5.316-2.319-2.246-6.926-1.063-8.989 2.078-3.625.774-9.569-6.186-9.569-4.64 0-6.959 4.64-11.598 4.64-4.639 0-6.959-4.64-11.598-4.64-6.959 0-8.264 5.944-6.186 9.569 1.183 2.062 4.253 6.669-1.063 8.989-3.731 1.629-8.452-.455-10.942-1.843 1.544-.654 2.63-3.57 1.277-5.6-3.119-4.679-12.43-3.039-17.301.386-8.796 6.186-3.962 14.982.29 18.655 2.29 1.977 2.314 3.807 2.112 4.791-.594-.85-1.576-1.409-2.691-1.409-1.815 0-3.286 1.471-3.286 3.286 0 .142.024.279.042.416-4.951-2.175-13.022 3.264-13.38 13.116-.253 6.946 4.641 10.662 8.072 12.412-1.299.456-2.236 1.679-2.236 3.133 0 1.841 1.492 3.332 3.332 3.332.77 0 1.47-.271 2.035-.711 4.175 7.155.015 12.222-2.282 14.264-.494-.18-1.021-.294-1.577-.294-2.562 0-4.64 2.077-4.64 4.64 0 2.406 1.837 4.361 4.182 4.594-3.198 3.285-6.067 10.525.168 18.749 6.814 8.989 23.052 8.264 30.881 8.554 4.964.184 8.698 2.754 10.771 4.614-1.325.817-2.217 2.269-2.217 3.94 0 2.343 1.743 4.26 4 4.575.82 1.312 2.265 2.191 3.926 2.191 1.856 0 3.445-1.097 4.188-2.673 2.45 2.019 4.125 2.866 4.125 2.866s1.675-.846 4.125-2.866c.742 1.575 2.332 2.673 4.188 2.673 1.661 0 3.106-.879 3.926-2.191 2.257-.314 4-2.232 4-4.575 0-1.672-.892-3.124-2.217-3.94 2.072-1.859 5.806-4.43 10.771-4.614 7.829-.29 24.067.435 30.881-8.554 6.234-8.224 3.366-15.465.168-18.749 2.341-.234 4.178-2.188 4.178-4.594z"/><path style="fill:#d2aa73" d="M214.246 136.779v67.273c0 7.687 6.231 13.919 13.919 13.919h18.558c6.959 0 9.279 4.64 9.279 4.64s2.319-4.64 9.279-4.64h18.558c7.687 0 13.919-6.231 13.919-13.919v-67.273c0-1.281-1.038-2.319-2.319-2.319h-78.871c-1.284-.002-2.322 1.038-2.322 2.319z"/><path style="fill:#ff4b55" d="M218.88 227.39999h34.796v34.796H218.88zm34.801 74.22901c-19.218 0-34.796-15.578-34.796-34.796h34.796z" transform="translate(0 -88.3)"/><path style="fill:#ffe15a" d="M258.321 301.629v-34.796h34.796c-.001 19.218-15.58 34.796-34.796 34.796zm-.00099-74.22901h4.971v34.796h-4.971z" transform="translate(0 -88.3)"/><path style="fill:#ff4b55" d="M263.29001 139.09999h4.971v34.796h-4.971z"/><path style="fill:#ffe15a" d="M268.26001 139.09999h4.971v34.796h-4.971z"/><path style="fill:#ff4b55" d="M273.23999 139.09999h4.971v34.796h-4.971z"/><path style="fill:#ffe15a" d="M278.20001 227.39999h4.971v34.796h-4.971zm9.94 0h4.971v34.796h-4.971z" transform="translate(0 -88.3)"/><path style="fill:#ff4b55" d="M283.17999 227.39999h4.971v34.796h-4.971zM230.48 266.84h3.866v34.796h-3.866z" transform="translate(0 -88.3)"/><path style="fill:#ffe15a" d="M234.35001 266.84h3.866v34.796h-3.866zm7.73999 0h3.866v34.796h-3.866z" transform="translate(0 -88.3)"/><path style="fill:#ff4b55" d="M238.21001 178.53999h3.866v34.796h-3.866z"/><path style="fill:#ffe15a" d="M249.81 178.53999h3.866v34.796h-3.866z"/><path style="fill:#ff4b55" d="M245.95 178.53999h3.866v34.796h-3.866z"/><path style="fill:#ffe15a" d="M222.751 211.559v-33.026h-3.866v25.517c-.001 3.099 1.532 5.824 3.866 7.509z"/><path style="fill:#ff4b55" d="M226.617 213.174v-34.641h-3.866v33.026c1.127.815 2.437 1.374 3.866 1.615z"/><path style="fill:#ffe15a" d="M226.617 178.533v34.641c.505.085 1.016.156 1.547.156h2.319v-34.796z"/><path style="fill:#f5f5f5" d="M224.071 260.218c-.173 0-.348-.049-.503-.151-2.281-1.509-2.414-3.082-2.29-3.884.167-1.084.973-1.983 2.053-2.292 1.028-.289 2.054.014 2.746.819 1.44 1.674 2.927 2.333 4.179 1.87.991-.367 1.582-1.344 1.582-2.074 0-.505.408-.914.914-.914s.914.408.914.914c0 1.598-1.166 3.191-2.774 3.787-1.175.434-3.538.702-6.2-2.391-.286-.33-.622-.32-.86-.254-.324.093-.683.381-.749.812-.097.63.447 1.388 1.492 2.081.422.278.536.846.258 1.267-.175.265-.466.41-.762.41zm24.533 0c-.296 0-.587-.145-.762-.408-.278-.422-.163-.989.258-1.267 1.045-.693 1.589-1.451 1.492-2.081-.067-.431-.425-.719-.749-.812-.238-.066-.575-.077-.86.254-2.662 3.095-5.026 2.827-6.2 2.391-1.608-.596-2.774-2.19-2.774-3.787 0-.505.408-.914.914-.914.505 0 .914.408.914.914 0 .73.591 1.706 1.582 2.074 1.252.465 2.74-.196 4.179-1.87.693-.809 1.719-1.11 2.746-.819 1.08.309 1.887 1.208 2.053 2.292.124.801-.009 2.374-2.29 3.884-.155.099-.33.149-.503.149z" transform="translate(0 -88.3)"/><path style="fill:#ffe15a" d="M223.567 261.304c-.193 0-.387-.061-.553-.185-.402-.307-.479-.879-.174-1.281l19.864-26.119c.19-.343.262-.818.344-1.365.153-1.026.345-2.303 1.911-3.245 1.021-.612 2.232-.595 3.245.052 1.118.714 1.777 2.044 1.641 3.309-.082.769-.531 2.172-2.612 2.943-.476.177-1-.067-1.174-.538-.175-.473.066-1 .538-1.174.607-.225 1.348-.655 1.43-1.425.063-.584-.269-1.229-.808-1.575-.301-.193-.774-.358-1.319-.025-.829.498-.911 1.044-1.047 1.949-.096.641-.205 1.367-.633 2.106l-19.927 26.214c-.176.233-.45.359-.726.359z" transform="translate(0 -88.3)"/><path style="fill:#ffe15a" d="M230.925 254.506h10.966l3.656-10.966-9.139-10.965-9.137 10.965z" transform="translate(0 -88.3)"/><path style="fill:#f5f5f5" d="m236.408 142.848-10.166 12.199 4.024 12.074h12.282l4.024-12.074zm-8.11 12.588 7.197-8.636v18.493h-3.911zm12.935 9.857h-3.911V146.8l7.197 8.636z"/><path style="fill:#ff4b55" d="m284.562 189.519.138-2.027s1.798-1.29.921-2.488c-.875-1.198-1.889-1.429-4.009-1.152-2.12.277-5.438.231-6.866.322-1.429.093-2.166.875-4.424.231l.599-1.383s-1.059.093-1.705.415c-.352.177-1.198-.968-2.027-.783-.826.183-1.659 1.889-2.95 2.765l.691 1.383s.783-.369 1.383.046c.599.415.783.691 1.798.691l.646.277s-.231 1.474.737 2.166c0 0-1.106 1.429-.968 1.659.138.231 1.059 1.982 1.429 2.995l.83-1.567s-1.245-1.106-1.014-1.245c.231-.138 1.059-.322.921-.691-.138-.369.646.046 1.521.184 0 0 .046 1.383.231 1.567.185.184.461.921.415 1.705-.046.783-.737 1.014-.737 1.014l1.245.369s.322-.461.553-.415c0 0-.093-3.825.415-4.424 0 0 2.995.599 4.377-.138 0 0 .177.223.522.435-.138.321-.255.641-.203.735.116.209.486.185.578-.046.035-.087.089-.266.143-.451.167.055.35.098.559.119-.02.291-.022.559.045.621.174.161.519.024.535-.225.006-.081.002-.234-.002-.398.238-.02.492-.062.772-.145l-1.567 2.581-.783.322 1.014.507.921-.369s.875-2.212 2.304-2.857c0 0 .968 2.304-.231 3.549l1.059.599.507-1.059s-.184-2.073.507-3.41z"/><path style="fill:#4173cd" d="M267.209 271.235s-.462-.439-.578-1.017c-.116-.578-.255-.833-.764-.994 0 0 .323.37.278.948-.046.578 0 1.365.323 1.619zm4.024 1.63s-.629 2.138-2.477 3.25l-.646-.277s1.973-1.686 2.212-3.134zm-3.146-1.122c-.066-.068.81-.323.601-1.017-.209-.694-.209-1.203.209-1.526 0 0 .046.578.37.948.323.37.509 1.295-.023 1.827.001-.001-.532.416-1.157-.232zm.101 6.306c-.11-.054-.157-.189-.102-.299l.279-.568c.163-.333.055-.747-.266-.932-.353-.203-.797-.063-.973.296l-.29.59c-.054.11-.189.157-.299.102l-.174.354s.256.126.566.278l-.007.013c-.071.143-.011.317.132.387.143.071.317.011.387-.132l.007-.013c.31.152.566.278.566.278zm2.351 5.815-.585-.929.47-.991.693.139zm2.823.786.003-.379-1.245-.369-.423.748zm5.071-.856.914-.913.975.469v.444zm5.916.811.028-.334-1.059-.599-.933.933z" transform="translate(0 -88.3)"/><path style="fill:#ff4b55" d="m284.562 203.958.138-2.027s1.798-1.29.921-2.488c-.875-1.198-1.889-1.429-4.009-1.152-2.12.277-5.438.231-6.866.322-1.429.093-2.166.875-4.424.231l.599-1.383s-1.059.093-1.705.415c-.352.177-1.198-.968-2.027-.783-.826.183-1.659 1.889-2.95 2.765l.691 1.383s.783-.369 1.383.046c.599.415.783.691 1.798.691l.646.277s-.231 1.474.737 2.166c0 0-1.106 1.429-.968 1.658.138.231 1.059 1.982 1.429 2.995l.83-1.567s-1.245-1.106-1.014-1.245c.231-.139 1.059-.322.921-.691-.138-.369.646.046 1.521.184 0 0 .046 1.383.231 1.567.184.184.461.921.415 1.705-.046.783-.737 1.014-.737 1.014l1.245.369s.322-.461.553-.415c0 0-.093-3.825.415-4.424 0 0 2.995.599 4.377-.138 0 0 .177.223.522.435-.138.321-.255.641-.203.735.116.209.486.185.578-.046.035-.087.089-.266.143-.451.167.055.35.098.559.119-.02.291-.022.559.045.621.174.161.519.024.535-.225.006-.081.002-.234-.002-.398.238-.02.492-.062.772-.145l-1.567 2.581-.783.322 1.014.507.921-.369s.875-2.212 2.304-2.857c0 0 .968 2.304-.231 3.549l1.059.599.507-1.059s-.184-2.073.507-3.41z"/><path style="fill:#4173cd" d="M267.209 285.673s-.462-.439-.578-1.017c-.116-.578-.255-.833-.764-.994 0 0 .323.37.278.948-.046.578 0 1.365.323 1.619zm4.024 1.63s-.629 2.138-2.477 3.25l-.646-.277s1.973-1.686 2.212-3.134zm-3.146-1.121c-.066-.068.81-.323.601-1.017-.209-.694-.209-1.203.209-1.527 0 0 .046.578.37.948s.509 1.295-.023 1.827c.001 0-.532.417-1.157-.231zm.101 6.305c-.11-.054-.157-.189-.102-.299l.279-.568c.163-.333.055-.747-.266-.932-.353-.203-.797-.063-.973.296l-.29.59c-.054.11-.189.157-.299.102l-.174.354s.256.126.566.278l-.007.013c-.071.143-.011.317.132.387.143.071.317.011.387-.132l.007-.013c.31.152.566.278.566.278zm2.351 5.815-.585-.929.47-.991.693.139zm2.823.787.003-.379-1.245-.369-.423.748zm5.071-.856.914-.914.975.469v.445zm5.916.811.028-.334-1.059-.6-.933.934z" transform="translate(0 -88.3)"/></svg>