<?xml version="1.0" encoding="UTF-8" standalone="no"?>
<svg
   xmlns:dc="http://purl.org/dc/elements/1.1/"
   xmlns:cc="http://creativecommons.org/ns#"
   xmlns:rdf="http://www.w3.org/1999/02/22-rdf-syntax-ns#"
   xmlns:svg="http://www.w3.org/2000/svg"
   xmlns="http://www.w3.org/2000/svg"
   xmlns:sodipodi="http://sodipodi.sourceforge.net/DTD/sodipodi-0.dtd"
   xmlns:inkscape="http://www.inkscape.org/namespaces/inkscape"
   version="1.1"
   id="Layer_1"
   x="0px"
   y="0px"
   viewBox="0 0 512.001 335.45003"
   xml:space="preserve"
   sodipodi:docname="ae.svg"
   width="512.00098"
   height="335.45001"
   inkscape:version="1.0.1 (c497b03c, 2020-09-10)"><metadata
   id="metadata2457"><rdf:RDF><cc:Work
       rdf:about=""><dc:format>image/svg+xml</dc:format><dc:type
         rdf:resource="http://purl.org/dc/dcmitype/StillImage" /><dc:title></dc:title></cc:Work></rdf:RDF></metadata><defs
   id="defs2455" /><sodipodi:namedview
   pagecolor="#ffffff"
   bordercolor="#666666"
   borderopacity="1"
   objecttolerance="10"
   gridtolerance="10"
   guidetolerance="10"
   inkscape:pageopacity="0"
   inkscape:pageshadow="2"
   inkscape:window-width="1074"
   inkscape:window-height="752"
   id="namedview2453"
   showgrid="false"
   inkscape:zoom="1.2988256"
   inkscape:cx="256.0005"
   inkscape:cy="256.0005"
   inkscape:window-x="0"
   inkscape:window-y="23"
   inkscape:window-maximized="0"
   inkscape:current-layer="Layer_1" />
<path
   style="fill:#73af00"
   d="M 473.655,0 H 158.897 V 111.816 H 512 V 38.345 C 512,17.167 494.833,0 473.655,0 Z"
   id="path2414" />
<path
   style="fill:#464655"
   d="m 158.897,335.448 h 314.759 c 21.177,0 38.345,-17.167 38.345,-38.345 V 223.632 H 158.897 Z"
   id="path2416" />
<rect
   x="158.89999"
   y="111.814"
   style="fill:#f5f5f5"
   width="353.10001"
   height="111.81"
   id="rect2418" />
<path
   style="fill:#ff4b55"
   d="M 38.345,0 C 17.167,0 0,17.167 0,38.345 v 258.759 c 0,21.177 17.167,38.345 38.345,38.345 H 158.897 V 0 Z"
   id="path2420" />
<g
   id="g2422"
   transform="translate(0,-88.276)">
</g>
<g
   id="g2424"
   transform="translate(0,-88.276)">
</g>
<g
   id="g2426"
   transform="translate(0,-88.276)">
</g>
<g
   id="g2428"
   transform="translate(0,-88.276)">
</g>
<g
   id="g2430"
   transform="translate(0,-88.276)">
</g>
<g
   id="g2432"
   transform="translate(0,-88.276)">
</g>
<g
   id="g2434"
   transform="translate(0,-88.276)">
</g>
<g
   id="g2436"
   transform="translate(0,-88.276)">
</g>
<g
   id="g2438"
   transform="translate(0,-88.276)">
</g>
<g
   id="g2440"
   transform="translate(0,-88.276)">
</g>
<g
   id="g2442"
   transform="translate(0,-88.276)">
</g>
<g
   id="g2444"
   transform="translate(0,-88.276)">
</g>
<g
   id="g2446"
   transform="translate(0,-88.276)">
</g>
<g
   id="g2448"
   transform="translate(0,-88.276)">
</g>
<g
   id="g2450"
   transform="translate(0,-88.276)">
</g>
</svg>
