<?xml version="1.0" encoding="UTF-8" standalone="no"?>
<svg
   xmlns:dc="http://purl.org/dc/elements/1.1/"
   xmlns:cc="http://creativecommons.org/ns#"
   xmlns:rdf="http://www.w3.org/1999/02/22-rdf-syntax-ns#"
   xmlns:svg="http://www.w3.org/2000/svg"
   xmlns="http://www.w3.org/2000/svg"
   xmlns:sodipodi="http://sodipodi.sourceforge.net/DTD/sodipodi-0.dtd"
   xmlns:inkscape="http://www.inkscape.org/namespaces/inkscape"
   version="1.1"
   id="Layer_1"
   x="0px"
   y="0px"
   viewBox="0 0 512 335.45001"
   xml:space="preserve"
   sodipodi:docname="afghanistan-svgrepo-com.svg"
   width="512"
   height="335.45001"
   inkscape:version="1.0.1 (c497b03c, 2020-09-10)"><metadata
   id="metadata184"><rdf:RDF><cc:Work
       rdf:about=""><dc:format>image/svg+xml</dc:format><dc:type
         rdf:resource="http://purl.org/dc/dcmitype/StillImage" /><dc:title></dc:title></cc:Work></rdf:RDF></metadata><defs
   id="defs182" /><sodipodi:namedview
   pagecolor="#ffffff"
   bordercolor="#666666"
   borderopacity="1"
   objecttolerance="10"
   gridtolerance="10"
   guidetolerance="10"
   inkscape:pageopacity="0"
   inkscape:pageshadow="2"
   inkscape:window-width="1797"
   inkscape:window-height="983"
   id="namedview180"
   showgrid="false"
   inkscape:zoom="1.640625"
   inkscape:cx="256"
   inkscape:cy="256"
   inkscape:window-x="0"
   inkscape:window-y="23"
   inkscape:window-maximized="0"
   inkscape:current-layer="Layer_1" />
<path
   style="fill:#464655"
   d="M 38.345,335.448 H 170.667 V 0 H 38.345 C 17.167,0 0,17.167 0,38.345 v 258.759 c 0,21.177 17.167,38.344 38.345,38.344 z"
   id="path83" />
<rect
   x="170.67"
   y="0.0040004272"
   style="fill:#ff4b55"
   width="170.67"
   height="335.45001"
   id="rect85" />
<path
   style="fill:#73af00"
   d="m 473.655,335.448 c 21.177,0 38.345,-17.167 38.345,-38.345 V 38.345 C 512,17.168 494.833,0 473.655,0 H 341.334 v 335.448 z"
   id="path87" />
<g
   id="g147"
   transform="translate(0,-88.273)">
	<rect
   x="235.52"
   y="247.707"
   style="fill:#f5f5f5"
   width="7.6789999"
   height="2.5599999"
   id="rect89" />
	<polygon
   style="fill:#f5f5f5"
   points="235.522,268.185 276.478,268.185 279.038,273.303 232.962,273.303 "
   id="polygon91" />
	<polygon
   style="fill:#f5f5f5"
   points="235.522,237.468 276.478,237.468 279.038,232.348 232.962,232.348 "
   id="polygon93" />
	<polygon
   style="fill:#f5f5f5"
   points="248.321,229.788 263.68,229.788 268.799,234.908 243.201,234.908 "
   id="polygon95" />
	<rect
   x="235.52"
   y="260.50699"
   style="fill:#f5f5f5"
   width="7.6789999"
   height="5.1199999"
   id="rect97" />
	<rect
   x="235.52"
   y="252.827"
   style="fill:#f5f5f5"
   width="7.6789999"
   height="5.1199999"
   id="rect99" />
	<rect
   x="235.52"
   y="240.02699"
   style="fill:#f5f5f5"
   width="7.6789999"
   height="5.1199999"
   id="rect101" />
	<rect
   x="268.79999"
   y="260.50699"
   style="fill:#f5f5f5"
   width="7.6789999"
   height="5.1199999"
   id="rect103" />
	<rect
   x="268.79999"
   y="252.827"
   style="fill:#f5f5f5"
   width="7.6789999"
   height="5.1199999"
   id="rect105" />
	<rect
   x="268.79999"
   y="240.02699"
   style="fill:#f5f5f5"
   width="7.6789999"
   height="5.1199999"
   id="rect107" />
	<rect
   x="268.79999"
   y="247.707"
   style="fill:#f5f5f5"
   width="7.6789999"
   height="2.5599999"
   id="rect109" />
	<rect
   x="238.08"
   y="219.547"
   style="fill:#f5f5f5"
   width="5.1199999"
   height="10.239"
   id="rect111" />
	<path
   style="fill:#f5f5f5"
   d="m 243.201,216.989 h -5.12 v -2.56 c 0,-1.414 1.146,-2.56 2.56,-2.56 v 0 c 1.414,0 2.56,1.146 2.56,2.56 z"
   id="path113" />
	<rect
   x="268.79999"
   y="219.547"
   style="fill:#f5f5f5"
   width="5.1199999"
   height="10.239"
   id="rect115" />
	<path
   style="fill:#f5f5f5"
   d="m 273.919,216.989 h -5.12 v -2.56 c 0,-1.414 1.146,-2.56 2.56,-2.56 v 0 c 1.414,0 2.56,1.146 2.56,2.56 z"
   id="path117" />
	<path
   style="fill:#f5f5f5"
   d="m 256,240.027 v 0 c -5.655,0 -10.239,4.584 -10.239,10.239 v 15.359 h 20.478 v -15.359 c 0,-5.654 -4.584,-10.239 -10.239,-10.239 z"
   id="path119" />
	<path
   style="fill:#f5f5f5"
   d="m 239.053,256.153 -13.937,-16.259 c 0.09,-0.263 0.167,-0.533 0.167,-0.826 0,-1.414 -1.146,-2.56 -2.56,-2.56 -1.414,0 -2.56,1.146 -2.56,2.56 0,1.414 1.146,2.56 2.56,2.56 0.154,0 0.288,-0.062 0.434,-0.087 l 1.442,1.683 -6.996,16.323 7.679,7.679 6.631,-15.47 5.197,6.063 z m -12.452,5.348 -6.127,-6.127 2.764,-6.451 6.127,6.127 z"
   id="path121" />
	<path
   style="fill:#f5f5f5"
   d="m 274.954,257.818 5.197,-6.063 6.631,15.47 7.679,-7.679 -6.996,-16.323 1.442,-1.683 c 0.147,0.025 0.28,0.087 0.434,0.087 1.414,0 2.56,-1.146 2.56,-2.56 0,-1.414 -1.146,-2.56 -2.56,-2.56 -1.414,0 -2.56,1.146 -2.56,2.56 0,0.294 0.076,0.564 0.167,0.826 l -13.937,16.259 z m 7.745,-2.768 6.127,-6.127 2.764,6.451 -6.127,6.127 z"
   id="path123" />
	<path
   style="fill:#f5f5f5"
   d="m 258.898,214.876 c -0.804,-0.237 -1.522,-0.676 -1.976,-1.38 -0.303,-0.471 -0.612,-1.006 -0.921,-1.625 -0.309,0.619 -0.618,1.154 -0.921,1.625 -0.455,0.705 -1.172,1.144 -1.976,1.38 -4.241,1.249 -7.342,5.148 -7.342,9.793 0,0.889 0.149,1.737 0.362,2.56 h 19.754 c 0.213,-0.823 0.362,-1.671 0.362,-2.56 -0.001,-4.646 -3.102,-8.544 -7.342,-9.793 z"
   id="path125" />
	<path
   style="fill:#f5f5f5"
   d="m 197.34,252.526 c -0.13,-1.591 -0.214,-3.194 -0.214,-4.819 0,-3.288 0.298,-6.522 0.826,-9.695 0.738,0.511 1.511,1.073 2.314,1.704 -0.375,2.625 -0.582,5.291 -0.582,7.991 0,1.892 0.097,3.763 0.28,5.608 l 5.411,1.625 c -0.338,-2.37 -0.572,-4.772 -0.572,-7.233 0,-1.224 0.073,-2.433 0.17,-3.638 2.826,3.134 5.056,6.92 5.056,11.104 0,0.107 8.213,-12.159 -6.719,-25.704 l -0.107,5.759 -8.6,-0.09 c -0.775,-0.008 -1.457,0.542 -1.592,1.305 -0.654,3.679 -1.006,7.441 -1.006,11.264 0,1.087 0.029,2.167 0.082,3.241 z"
   id="path127" />
	<path
   style="fill:#f5f5f5"
   d="m 220.053,201.096 c 1.119,-0.863 1.325,-2.47 0.461,-3.59 -0.866,-1.12 -2.472,-1.322 -3.591,-0.46 -11.585,8.947 -19.535,21.239 -22.978,35.008 l 5.276,0.068 c 3.32,-12.186 10.505,-23.05 20.832,-31.026 z"
   id="path129" />
	<path
   style="fill:#f5f5f5"
   d="m 216.623,207.481 c -5.567,5.452 -9.781,11.869 -12.648,18.839 1.583,1.301 2.88,2.615 3.957,3.922 2.58,-7.107 6.689,-13.632 12.274,-19.101 1.01,-0.99 1.027,-2.61 0.038,-3.619 -0.992,-1.014 -2.611,-1.031 -3.621,-0.041 z"
   id="path131" />
	<path
   style="fill:#f5f5f5"
   d="m 207.727,281.267 c -3.796,-5.447 -6.697,-11.555 -8.498,-18.116 l 2.976,1.094 c 1.859,5.987 4.68,11.555 8.292,16.516 l 5.65,-1.034 c -3.19,-3.965 -5.812,-8.404 -7.727,-13.198 l 3.34,1.227 c 1.906,4.185 4.346,8.033 7.255,11.447 l 5.879,-1.077 c -2.312,-2.36 -4.334,-5.017 -6.076,-7.883 l -3.406,-6.812 c -1.052,-2.104 -2.925,-3.68 -5.178,-4.355 l -8.058,-2.422 -1.863,-0.559 -2.682,-0.807 -5.335,-1.603 -2.848,-0.856 1.762,5.288 c 0.387,1.161 1.17,2.13 2.188,2.766 1.629,7.735 4.65,14.962 8.8,21.4 z"
   id="path133" />
	<path
   style="fill:#f5f5f5"
   d="m 308.794,235.228 -0.107,-5.759 c -14.932,13.545 -6.719,25.811 -6.719,25.704 0,-4.184 2.23,-7.97 5.056,-11.104 0.097,1.205 0.17,2.415 0.17,3.638 0,2.462 -0.234,4.864 -0.572,7.233 l 5.411,-1.625 c 0.183,-1.845 0.28,-3.715 0.28,-5.608 0,-2.701 -0.206,-5.367 -0.582,-7.991 0.803,-0.63 1.577,-1.193 2.314,-1.704 0.529,3.172 0.826,6.408 0.826,9.695 0,1.624 -0.084,3.228 -0.214,4.819 l 5.251,-1.578 c 0.054,-1.074 0.082,-2.154 0.082,-3.241 0,-3.823 -0.353,-7.585 -1.006,-11.264 -0.136,-0.764 -0.818,-1.313 -1.592,-1.305 z"
   id="path135" />
	<path
   style="fill:#f5f5f5"
   d="m 312.78,232.123 5.276,-0.068 c -3.444,-13.769 -11.393,-26.061 -22.978,-35.008 -1.119,-0.863 -2.724,-0.66 -3.591,0.46 -0.864,1.12 -0.658,2.728 0.461,3.59 10.326,7.975 17.511,18.839 20.832,31.026 z"
   id="path137" />
	<path
   style="fill:#f5f5f5"
   d="m 308.025,226.32 c -2.868,-6.97 -7.081,-13.387 -12.648,-18.839 -1.01,-0.99 -2.628,-0.972 -3.619,0.04 -0.99,1.01 -0.972,2.63 0.038,3.619 5.585,5.469 9.694,11.993 12.274,19.101 1.075,-1.306 2.372,-2.621 3.955,-3.921 z"
   id="path139" />
	<path
   style="fill:#f5f5f5"
   d="m 319.705,253.682 -5.335,1.603 -2.682,0.807 -1.863,0.559 -8.059,2.422 c -2.253,0.676 -4.127,2.252 -5.178,4.355 l -3.406,6.812 c -1.741,2.866 -3.764,5.523 -6.076,7.883 l 5.879,1.077 c 2.909,-3.414 5.35,-7.261 7.255,-11.447 l 3.34,-1.227 c -1.916,4.794 -4.538,9.234 -7.727,13.198 l 5.65,1.034 c 3.614,-4.962 6.433,-10.529 8.292,-16.516 l 2.976,-1.094 c -1.801,6.561 -4.702,12.67 -8.498,18.116 l 5.529,1.012 c 4.15,-6.439 7.17,-13.665 8.8,-21.4 1.018,-0.637 1.801,-1.606 2.188,-2.766 l 1.762,-5.288 z"
   id="path141" />
	<path
   style="fill:#f5f5f5"
   d="m 282.678,281.983 -0.132,0.117 c -7.447,5.748 -16.696,9.122 -26.545,9.122 -9.848,0 -19.097,-3.374 -26.545,-9.122 l -0.132,-0.117 c -0.967,-1.063 -2.42,-1.539 -3.828,-1.255 l -25.81,5.375 5.727,5.02 c 1.532,1.343 3.5,1.969 5.457,1.854 4.609,4.59 9.902,8.491 15.723,11.522 l -1.677,3.095 c 9.247,5.028 19.838,7.887 31.084,7.887 11.246,0 21.836,-2.859 31.084,-7.887 l -1.677,-3.095 c 5.821,-3.031 11.114,-6.933 15.723,-11.522 1.958,0.115 3.926,-0.512 5.458,-1.854 l 5.727,-5.02 -25.81,-5.375 c -1.407,-0.284 -2.861,0.191 -3.827,1.255 z m -53.637,17.997 c -4.64,-2.414 -8.888,-5.463 -12.711,-8.97 l 2.485,-1.185 c 3.471,3.072 7.289,5.762 11.438,7.915 z m 66.629,-8.97 c -3.822,3.507 -8.071,6.555 -12.711,8.97 l -1.213,-2.239 c 4.149,-2.153 7.966,-4.843 11.438,-7.915 z M 256,298.901 c -12.192,0 -23.363,-4.326 -32.159,-11.473 l 2.554,-1.218 c 8.305,6.397 18.625,10.131 29.603,10.131 10.978,0 21.299,-3.734 29.603,-10.131 l 2.554,1.218 c -8.791,7.148 -19.963,11.473 -32.155,11.473 z"
   id="path143" />
	<path
   style="fill:#f5f5f5"
   d="m 227.912,278.355 c 1.099,0.93 2.239,1.81 3.427,2.628 h 49.322 c 1.188,-0.819 2.328,-1.698 3.427,-2.628 l -2.49,-2.49 h -51.194 z"
   id="path145" />
</g>
<g
   id="g149">
</g>
<g
   id="g151">
</g>
<g
   id="g153">
</g>
<g
   id="g155">
</g>
<g
   id="g157">
</g>
<g
   id="g159">
</g>
<g
   id="g161">
</g>
<g
   id="g163">
</g>
<g
   id="g165">
</g>
<g
   id="g167">
</g>
<g
   id="g169">
</g>
<g
   id="g171">
</g>
<g
   id="g173">
</g>
<g
   id="g175">
</g>
<g
   id="g177">
</g>
</svg>
