<svg xmlns="http://www.w3.org/2000/svg" xml:space="preserve" width="512" height="335.45001"><path style="fill:#464655" d="M38.345 335.448h132.322V0H38.345C17.167 0 0 17.167 0 38.345v258.759c0 21.177 17.167 38.344 38.345 38.344z"/><path style="fill:#ff4b55" d="M170.67.004h170.67v335.45001H170.67z"/><path style="fill:#73af00" d="M473.655 335.448c21.177 0 38.345-17.167 38.345-38.345V38.345C512 17.168 494.833 0 473.655 0H341.334v335.448z"/><path style="fill:#f5f5f5" d="M235.52 247.707h7.679v2.56h-7.679zm.002 20.478h40.956l2.56 5.118h-46.076zm0-30.717h40.956l2.56-5.12h-46.076z" transform="translate(0 -88.273)"/><path style="fill:#f5f5f5" d="M248.321 229.788h15.359l5.119 5.12h-25.598zm-12.801 30.71899h7.679v5.12h-7.679zm0-7.67999h7.679v5.12h-7.679zm0-12.80001h7.679v5.12h-7.679zm33.27999 20.48h7.679v5.12h-7.679zm0-7.67999h7.679v5.12h-7.679zm0-12.80001h7.679v5.12h-7.679zm0 7.68001h7.679v2.56h-7.679zM238.08 219.547h5.12v10.239h-5.12zm5.121-2.558h-5.12v-2.56c0-1.414 1.146-2.56 2.56-2.56 1.414 0 2.56 1.146 2.56 2.56zm25.59899 2.558h5.12v10.239h-5.12zm5.11901-2.558h-5.12v-2.56c0-1.414 1.146-2.56 2.56-2.56 1.414 0 2.56 1.146 2.56 2.56zM256 240.027c-5.655 0-10.239 4.584-10.239 10.239v15.359h20.478v-15.359c0-5.654-4.584-10.239-10.239-10.239z" transform="translate(0 -88.273)"/><path style="fill:#f5f5f5" d="m239.053 256.153-13.937-16.259c.09-.263.167-.533.167-.826 0-1.414-1.146-2.56-2.56-2.56-1.414 0-2.56 1.146-2.56 2.56 0 1.414 1.146 2.56 2.56 2.56.154 0 .288-.062.434-.087l1.442 1.683-6.996 16.323 7.679 7.679 6.631-15.47 5.197 6.063zm-12.452 5.348-6.127-6.127 2.764-6.451 6.127 6.127zm48.353-3.683 5.197-6.063 6.631 15.47 7.679-7.679-6.996-16.323 1.442-1.683c.147.025.28.087.434.087 1.414 0 2.56-1.146 2.56-2.56 0-1.414-1.146-2.56-2.56-2.56-1.414 0-2.56 1.146-2.56 2.56 0 .294.076.564.167.826l-13.937 16.259zm7.745-2.768 6.127-6.127 2.764 6.451-6.127 6.127zm-23.801-40.174c-.804-.237-1.522-.676-1.976-1.38-.303-.471-.612-1.006-.921-1.625-.309.619-.618 1.154-.921 1.625-.455.705-1.172 1.144-1.976 1.38-4.241 1.249-7.342 5.148-7.342 9.793 0 .889.149 1.737.362 2.56h19.754c.213-.823.362-1.671.362-2.56-.001-4.646-3.102-8.544-7.342-9.793zm-61.558 37.65c-.13-1.591-.214-3.194-.214-4.819 0-3.288.298-6.522.826-9.695.738.511 1.511 1.073 2.314 1.704-.375 2.625-.582 5.291-.582 7.991 0 1.892.097 3.763.28 5.608l5.411 1.625c-.338-2.37-.572-4.772-.572-7.233 0-1.224.073-2.433.17-3.638 2.826 3.134 5.056 6.92 5.056 11.104 0 .107 8.213-12.159-6.719-25.704l-.107 5.759-8.6-.09c-.775-.008-1.457.542-1.592 1.305-.654 3.679-1.006 7.441-1.006 11.264 0 1.087.029 2.167.082 3.241z" transform="translate(0 -88.273)"/><path style="fill:#f5f5f5" d="M220.053 201.096c1.119-.863 1.325-2.47.461-3.59-.866-1.12-2.472-1.322-3.591-.46-11.585 8.947-19.535 21.239-22.978 35.008l5.276.068c3.32-12.186 10.505-23.05 20.832-31.026z" transform="translate(0 -88.273)"/><path style="fill:#f5f5f5" d="M216.623 207.481c-5.567 5.452-9.781 11.869-12.648 18.839 1.583 1.301 2.88 2.615 3.957 3.922 2.58-7.107 6.689-13.632 12.274-19.101 1.01-.99 1.027-2.61.038-3.619-.992-1.014-2.611-1.031-3.621-.041zm-8.896 73.786c-3.796-5.447-6.697-11.555-8.498-18.116l2.976 1.094c1.859 5.987 4.68 11.555 8.292 16.516l5.65-1.034c-3.19-3.965-5.812-8.404-7.727-13.198l3.34 1.227c1.906 4.185 4.346 8.033 7.255 11.447l5.879-1.077c-2.312-2.36-4.334-5.017-6.076-7.883l-3.406-6.812c-1.052-2.104-2.925-3.68-5.178-4.355l-8.058-2.422-1.863-.559-2.682-.807-5.335-1.603-2.848-.856 1.762 5.288c.387 1.161 1.17 2.13 2.188 2.766 1.629 7.735 4.65 14.962 8.8 21.4zm101.067-46.039-.107-5.759c-14.932 13.545-6.719 25.811-6.719 25.704 0-4.184 2.23-7.97 5.056-11.104.097 1.205.17 2.415.17 3.638 0 2.462-.234 4.864-.572 7.233l5.411-1.625c.183-1.845.28-3.715.28-5.608 0-2.701-.206-5.367-.582-7.991.803-.63 1.577-1.193 2.314-1.704.529 3.172.826 6.408.826 9.695 0 1.624-.084 3.228-.214 4.819l5.251-1.578c.054-1.074.082-2.154.082-3.241 0-3.823-.353-7.585-1.006-11.264-.136-.764-.818-1.313-1.592-1.305z" transform="translate(0 -88.273)"/><path style="fill:#f5f5f5" d="m312.78 232.123 5.276-.068c-3.444-13.769-11.393-26.061-22.978-35.008-1.119-.863-2.724-.66-3.591.46-.864 1.12-.658 2.728.461 3.59 10.326 7.975 17.511 18.839 20.832 31.026z" transform="translate(0 -88.273)"/><path style="fill:#f5f5f5" d="M308.025 226.32c-2.868-6.97-7.081-13.387-12.648-18.839-1.01-.99-2.628-.972-3.619.04-.99 1.01-.972 2.63.038 3.619 5.585 5.469 9.694 11.993 12.274 19.101 1.075-1.306 2.372-2.621 3.955-3.921zm11.68 27.362-5.335 1.603-2.682.807-1.863.559-8.059 2.422c-2.253.676-4.127 2.252-5.178 4.355l-3.406 6.812c-1.741 2.866-3.764 5.523-6.076 7.883l5.879 1.077c2.909-3.414 5.35-7.261 7.255-11.447l3.34-1.227c-1.916 4.794-4.538 9.234-7.727 13.198l5.65 1.034c3.614-4.962 6.433-10.529 8.292-16.516l2.976-1.094c-1.801 6.561-4.702 12.67-8.498 18.116l5.529 1.012c4.15-6.439 7.17-13.665 8.8-21.4 1.018-.637 1.801-1.606 2.188-2.766l1.762-5.288zm-37.027 28.301-.132.117c-7.447 5.748-16.696 9.122-26.545 9.122-9.848 0-19.097-3.374-26.545-9.122l-.132-.117c-.967-1.063-2.42-1.539-3.828-1.255l-25.81 5.375 5.727 5.02c1.532 1.343 3.5 1.969 5.457 1.854 4.609 4.59 9.902 8.491 15.723 11.522l-1.677 3.095c9.247 5.028 19.838 7.887 31.084 7.887 11.246 0 21.836-2.859 31.084-7.887l-1.677-3.095c5.821-3.031 11.114-6.933 15.723-11.522 1.958.115 3.926-.512 5.458-1.854l5.727-5.02-25.81-5.375c-1.407-.284-2.861.191-3.827 1.255zm-53.637 17.997c-4.64-2.414-8.888-5.463-12.711-8.97l2.485-1.185c3.471 3.072 7.289 5.762 11.438 7.915zm66.629-8.97c-3.822 3.507-8.071 6.555-12.711 8.97l-1.213-2.239c4.149-2.153 7.966-4.843 11.438-7.915zM256 298.901c-12.192 0-23.363-4.326-32.159-11.473l2.554-1.218c8.305 6.397 18.625 10.131 29.603 10.131 10.978 0 21.299-3.734 29.603-10.131l2.554 1.218c-8.791 7.148-19.963 11.473-32.155 11.473z" transform="translate(0 -88.273)"/><path style="fill:#f5f5f5" d="M227.912 278.355c1.099.93 2.239 1.81 3.427 2.628h49.322c1.188-.819 2.328-1.698 3.427-2.628l-2.49-2.49h-51.194z" transform="translate(0 -88.273)"/></svg>