<svg xmlns="http://www.w3.org/2000/svg" xml:space="preserve" width="512" height="335.45001"><path style="fill:#464655" d="M473.651 0H38.292C17.807 0 1.077 16.06 0 36.277V299.21c1.077 20.215 17.807 36.277 38.292 36.277h435.359c21.18 0 38.349-17.169 38.349-38.349V38.349C512 17.169 494.831 0 473.651 0z"/><path style="fill:#ffe15a" transform="translate(0 -88.256)" d="m299.95 114.649-12.039 58.321 49.273-33.441-33.44 49.274 58.32-12.039-49.752 32.726 58.488 11.195-58.488 11.195 49.752 32.726-58.32-12.039 33.44 49.273-49.273-33.441 12.039 58.32-32.726-49.751-11.195 58.488-11.195-58.488-32.726 49.751 12.04-58.32-49.275 33.441 33.442-49.273-58.321 12.039 49.751-32.726-58.488-11.195 58.488-11.195-49.751-32.726 58.321 12.039-33.442-49.274 49.275 33.441-12.04-58.321 32.726 49.752 11.195-58.488 11.195 58.488z"/><path style="fill:#ff4b55" d="M9.737 101.014C4.08 107.322.48 115.512 0 124.533v262.933c1.077 20.215 17.807 36.277 38.292 36.277h217.737zm246.292 322.728h217.622c21.18 0 38.349-17.169 38.349-38.349V126.605c0-9.802-3.683-18.741-9.732-25.52z" transform="translate(0 -88.256)"/><path style="fill:#4173cd" transform="translate(0 -88.256)" d="M410.993 220.685H101.064l53.901 70.628h202.128z"/><path style="fill:#f5f5f5" transform="translate(0 -88.256)" d="M357.093 291.313H154.965l101.064 132.429z"/></svg>