<?xml version="1.0" encoding="UTF-8" standalone="no"?>
<svg
   xmlns:dc="http://purl.org/dc/elements/1.1/"
   xmlns:cc="http://creativecommons.org/ns#"
   xmlns:rdf="http://www.w3.org/1999/02/22-rdf-syntax-ns#"
   xmlns:svg="http://www.w3.org/2000/svg"
   xmlns="http://www.w3.org/2000/svg"
   xmlns:sodipodi="http://sodipodi.sourceforge.net/DTD/sodipodi-0.dtd"
   xmlns:inkscape="http://www.inkscape.org/namespaces/inkscape"
   version="1.1"
   id="Layer_1"
   x="0px"
   y="0px"
   viewBox="0 0 512 335.45001"
   xml:space="preserve"
   sodipodi:docname="antigua-and-barbuda.svg"
   width="512"
   height="335.45001"
   inkscape:version="1.0.1 (c497b03c, 2020-09-10)"><metadata
   id="metadata399"><rdf:RDF><cc:Work
       rdf:about=""><dc:format>image/svg+xml</dc:format><dc:type
         rdf:resource="http://purl.org/dc/dcmitype/StillImage" /><dc:title></dc:title></cc:Work></rdf:RDF></metadata><defs
   id="defs397" /><sodipodi:namedview
   pagecolor="#ffffff"
   bordercolor="#666666"
   borderopacity="1"
   objecttolerance="10"
   gridtolerance="10"
   guidetolerance="10"
   inkscape:pageopacity="0"
   inkscape:pageshadow="2"
   inkscape:window-width="1797"
   inkscape:window-height="983"
   id="namedview395"
   showgrid="false"
   inkscape:zoom="1.640625"
   inkscape:cx="256"
   inkscape:cy="256"
   inkscape:window-x="0"
   inkscape:window-y="23"
   inkscape:window-maximized="0"
   inkscape:current-layer="Layer_1" />
<path
   style="fill:#464655"
   d="M 473.651,0 H 38.292 C 17.807,0 1.077,16.06 0,36.277 V 299.21 c 1.077,20.215 17.807,36.277 38.292,36.277 h 435.359 c 21.18,0 38.349,-17.169 38.349,-38.349 V 38.349 C 512,17.169 494.831,0 473.651,0 Z"
   id="path350" />
<polygon
   style="fill:#ffe15a"
   points="299.95,114.649 287.911,172.97 337.184,139.529 303.744,188.803 362.064,176.764 312.312,209.49 370.8,220.685 312.312,231.88 362.064,264.606 303.744,252.567 337.184,301.84 287.911,268.399 299.95,326.719 267.224,276.968 256.029,335.456 244.834,276.968 212.108,326.719 224.148,268.399 174.873,301.84 208.315,252.567 149.994,264.606 199.745,231.88 141.257,220.685 199.745,209.49 149.994,176.764 208.315,188.803 174.873,139.529 224.148,172.97 212.108,114.649 244.834,164.401 256.029,105.913 267.224,164.401 "
   id="polygon352"
   transform="translate(0,-88.256)" />
<g
   id="g358"
   transform="translate(0,-88.256)">
	<path
   style="fill:#ff4b55"
   d="M 9.737,101.014 C 4.08,107.322 0.48,115.512 0,124.533 v 262.933 c 1.077,20.215 17.807,36.277 38.292,36.277 h 217.737 z"
   id="path354" />
	<path
   style="fill:#ff4b55"
   d="m 256.029,423.742 h 217.622 c 21.18,0 38.349,-17.169 38.349,-38.349 V 126.605 c 0,-9.802 -3.683,-18.741 -9.732,-25.52 z"
   id="path356" />
</g>
<polygon
   style="fill:#4173cd"
   points="410.993,220.685 101.064,220.685 154.965,291.313 357.093,291.313 "
   id="polygon360"
   transform="translate(0,-88.256)" />
<polygon
   style="fill:#f5f5f5"
   points="357.093,291.313 154.965,291.313 256.029,423.742 "
   id="polygon362"
   transform="translate(0,-88.256)" />
<g
   id="g364">
</g>
<g
   id="g366">
</g>
<g
   id="g368">
</g>
<g
   id="g370">
</g>
<g
   id="g372">
</g>
<g
   id="g374">
</g>
<g
   id="g376">
</g>
<g
   id="g378">
</g>
<g
   id="g380">
</g>
<g
   id="g382">
</g>
<g
   id="g384">
</g>
<g
   id="g386">
</g>
<g
   id="g388">
</g>
<g
   id="g390">
</g>
<g
   id="g392">
</g>
</svg>
