<?xml version="1.0" encoding="UTF-8" standalone="no"?>
<svg
   xmlns:dc="http://purl.org/dc/elements/1.1/"
   xmlns:cc="http://creativecommons.org/ns#"
   xmlns:rdf="http://www.w3.org/1999/02/22-rdf-syntax-ns#"
   xmlns:svg="http://www.w3.org/2000/svg"
   xmlns="http://www.w3.org/2000/svg"
   xmlns:sodipodi="http://sodipodi.sourceforge.net/DTD/sodipodi-0.dtd"
   xmlns:inkscape="http://www.inkscape.org/namespaces/inkscape"
   version="1.1"
   id="Layer_1"
   x="0px"
   y="0px"
   viewBox="0 0 512 335.45001"
   xml:space="preserve"
   sodipodi:docname="albania-svgrepo-com.svg"
   width="512"
   height="335.45001"
   inkscape:version="1.0.1 (c497b03c, 2020-09-10)"><metadata
   id="metadata309"><rdf:RDF><cc:Work
       rdf:about=""><dc:format>image/svg+xml</dc:format><dc:type
         rdf:resource="http://purl.org/dc/dcmitype/StillImage" /><dc:title></dc:title></cc:Work></rdf:RDF></metadata><defs
   id="defs307" /><sodipodi:namedview
   pagecolor="#ffffff"
   bordercolor="#666666"
   borderopacity="1"
   objecttolerance="10"
   gridtolerance="10"
   guidetolerance="10"
   inkscape:pageopacity="0"
   inkscape:pageshadow="2"
   inkscape:window-width="1797"
   inkscape:window-height="984"
   id="namedview305"
   showgrid="false"
   inkscape:zoom="1.640625"
   inkscape:cx="256"
   inkscape:cy="256"
   inkscape:window-x="0"
   inkscape:window-y="23"
   inkscape:window-maximized="0"
   inkscape:current-layer="Layer_1" />
<path
   style="fill:#ff4b55"
   d="M 473.655,335.448 H 38.345 C 17.167,335.448 0,318.281 0,297.103 V 38.345 C 0,17.168 17.167,0 38.345,0 h 435.31 C 494.832,0 512,17.167 512,38.345 v 258.759 c 0,21.177 -17.167,38.344 -38.345,38.344 z"
   id="path270" />
<path
   style="fill:#464655"
   d="m 352.551,209.517 c -4.828,-3.034 -7.724,1.793 -7.724,1.793 l -14.069,1.655 7.034,-5.931 c 5.103,0.414 5.793,-1.103 7.172,-3.172 1.379,-2.069 7.172,-1.103 7.172,-1.103 -0.828,-6.345 -8.828,-2.759 -8.828,-2.759 -6.483,-0.69 -7.586,4.552 -7.586,4.552 l -10.069,7.724 -22.159,-6.566 c 2.298,-2.532 4.103,-5.027 4.366,-6.538 0.441,-2.537 -16.367,-6.805 -21.517,-12.138 -5.149,-5.334 -6.988,-13.793 -4.597,-16 2.39,-2.207 4.414,4.045 6.988,9.195 2.575,5.15 7.357,9.195 10.483,6.621 3.126,-2.574 -3.31,-6.436 -6.253,-11.954 -2.942,-5.517 2.207,-7.541 4.598,-6.989 2.391,0.552 3.862,11.955 9.564,17.839 5.7,5.885 10.85,4.781 11.402,1.103 0.552,-3.678 -9.409,-8.21 -11.433,-11.337 -2.023,-3.126 -2.545,-9.261 0.766,-9.444 3.31,-0.184 15.448,17.906 25.748,24.828 11.218,7.54 20.23,-1.288 18.759,-4.966 -1.471,-3.679 -8.276,-2.207 -16.184,-4.231 -7.908,-2.023 -16,-12.69 -18.391,-18.574 -2.391,-5.884 -0.414,-5.885 0.966,-5.333 1.379,0.552 6.621,8.276 16.69,14.207 10.069,5.931 17.103,0.276 17.931,-1.103 0.828,-1.379 4.009,-7.571 -6.345,-6.115 -11.769,1.655 -18.483,-5.333 -23.31,-9.057 -4.828,-3.724 -6.759,-8.828 -4.552,-10.897 2.207,-2.069 9.472,7.264 20.506,10.207 10.136,2.702 14.253,-1.655 13.976,-5.655 -0.276,-4 -2.621,-2.345 -14.069,-3.448 -11.448,-1.103 -19.448,-11.862 -19.862,-12.552 -0.414,-0.69 -0.276,-4.552 5.517,-0.828 5.793,3.724 16.138,5.931 22.207,5.655 6.069,-0.276 7.31,-8.414 4.414,-9.793 -2.897,-1.379 -3.586,0.69 -10.207,2.069 -6.621,1.379 -19.034,-5.379 -22.069,-8.552 -3.034,-3.172 0.276,-5.241 1.793,-4.966 1.517,0.275 11.448,6.069 20.276,5.793 8.828,-0.276 12.552,-8.414 12.276,-10.897 -0.276,-2.483 -2.759,-4.552 -6.483,-2.069 -3.724,2.483 -8.69,5.379 -16.966,4 -8.276,-1.379 -12.138,-6.897 -11.034,-8.966 1.103,-2.069 9.103,1.517 21.793,0.138 12.69,-1.379 13.241,-12.552 12,-14.759 -1.241,-2.207 -4.276,-1.517 -8.552,2.483 -4.276,4 -12.552,4.828 -19.034,4.828 -6.482,0 -6.621,-3.172 -5.655,-5.379 0.966,-2.207 7.862,-1.655 17.517,-4.69 9.655,-3.034 15.172,-10.759 16.69,-15.586 1.517,-4.828 -2.207,-8.552 -3.724,-8.552 -1.517,0 -0.552,-2.207 -7.172,7.31 -6.62,9.517 -24,13.241 -24,13.241 -1.241,-2.345 -3.172,-3.172 -3.172,-3.172 -11.724,2.345 -25.866,12.468 -25.866,12.468 0,0 2.493,7.996 -0.622,14.228 -4.011,8.022 -17.759,3.011 -14.02,-9.658 3.113,-10.55 15.162,-16.928 25.341,-18.071 10.178,-1.142 10.697,-4.985 10.697,-4.985 0,0 -10.688,3.48 -10.879,-1.297 2.207,0.448 5.46,0.643 10.983,0.154 8.205,-0.726 12.775,-6.543 9.14,-7.789 -3.635,-1.246 -2.077,2.493 -8.309,5.401 -4.445,2.074 -9.11,1.14 -11.445,0.431 2.157,-4.71 11.238,-2.301 11.238,-2.301 0.104,-8.205 -10.783,-5.27 -10.783,-5.27 -4.781,-10.3 -32.736,1.655 -32.736,1.655 l 6.621,5.333 C 259.314,79.997 256.003,97.1 256.003,97.1 c 0,0 -3.31,-17.103 -19.495,-26.115 l 6.621,-5.333 c 0,0 -27.955,-11.955 -32.736,-1.655 0,0 -10.888,-2.934 -10.783,5.27 0,0 9.08,-2.409 11.238,2.301 -2.335,0.71 -7,1.643 -11.445,-0.431 -6.231,-2.909 -4.673,-6.646 -8.309,-5.401 -3.635,1.246 0.935,7.062 9.14,7.789 5.523,0.489 8.776,0.295 10.983,-0.154 -0.191,4.777 -10.879,1.297 -10.879,1.297 0,0 0.52,3.842 10.697,4.985 10.178,1.143 22.228,7.521 25.341,18.071 3.738,12.67 -10.009,17.679 -14.02,9.658 -3.116,-6.231 -0.622,-14.228 -0.622,-14.228 0,0 -14.142,-10.123 -25.866,-12.468 0,0 -1.931,0.828 -3.172,3.172 0,0 -17.379,-3.724 -24,-13.241 -6.621,-9.517 -5.655,-7.31 -7.172,-7.31 -1.517,0 -5.241,3.724 -3.724,8.552 1.517,4.828 7.034,12.552 16.69,15.586 9.655,3.034 16.552,2.483 17.517,4.69 0.965,2.207 0.828,5.379 -5.655,5.379 -6.483,0 -14.759,-0.828 -19.034,-4.828 -4.275,-4 -7.31,-4.69 -8.552,-2.483 -1.241,2.207 -0.69,13.379 12,14.759 12.69,1.379 20.69,-2.207 21.793,-0.138 1.103,2.069 -2.759,7.586 -11.034,8.966 -8.276,1.379 -13.241,-1.517 -16.966,-4 -3.725,-2.483 -6.207,-0.414 -6.483,2.069 -0.276,2.483 3.448,10.621 12.276,10.897 8.828,0.276 18.759,-5.517 20.276,-5.793 1.517,-0.276 4.828,1.793 1.793,4.966 -3.034,3.172 -15.448,9.931 -22.069,8.552 -6.621,-1.379 -7.31,-3.448 -10.207,-2.069 -2.897,1.379 -1.655,9.517 4.414,9.793 6.069,0.276 16.414,-1.931 22.207,-5.655 5.793,-3.724 5.931,0.138 5.517,0.828 -0.414,0.69 -8.414,11.448 -19.862,12.552 -11.448,1.103 -13.793,-0.552 -14.069,3.448 -0.276,4 3.841,8.358 13.977,5.655 11.034,-2.943 18.3,-12.276 20.506,-10.207 2.206,2.069 0.276,7.172 -4.552,10.897 -4.828,3.725 -11.541,10.712 -23.31,9.057 -10.354,-1.455 -7.172,4.736 -6.345,6.115 0.828,1.379 7.862,7.034 17.931,1.103 10.069,-5.931 15.31,-13.655 16.69,-14.207 1.379,-0.552 3.357,-0.552 0.966,5.333 -2.391,5.885 -10.483,16.552 -18.391,18.574 -7.908,2.024 -14.713,0.552 -16.184,4.231 -1.471,3.678 7.54,12.505 18.759,4.966 10.3,-6.922 22.438,-25.012 25.748,-24.828 3.31,0.183 2.788,6.318 0.766,9.444 -2.023,3.127 -11.985,7.659 -11.433,11.337 0.552,3.678 5.7,4.781 11.402,-1.103 5.702,-5.885 7.172,-17.288 9.564,-17.839 2.39,-0.552 7.54,1.472 4.597,6.989 -2.942,5.517 -9.379,9.379 -6.252,11.954 3.126,2.574 7.908,-1.471 10.483,-6.621 2.574,-5.15 4.597,-11.402 6.988,-9.195 2.391,2.207 0.552,10.666 -4.598,16 -5.149,5.333 -21.959,9.601 -21.517,12.138 0.263,1.511 2.067,4.006 4.366,6.538 l -22.159,6.566 -10.069,-7.724 c 0,0 -1.103,-5.241 -7.586,-4.552 0,0 -8,-3.586 -8.828,2.759 0,0 5.793,-0.966 7.172,1.103 1.379,2.069 2.069,3.586 7.172,3.172 l 7.034,5.931 -14.069,-1.655 c 0,0 -2.897,-4.828 -7.724,-1.793 0,0 -6.069,-1.931 -7.586,3.862 0,0 5.241,-0.966 6.621,-0.276 0,0 2.069,4.69 8.69,1.931 l 13.931,0.69 -7.862,3.862 c 0,0 -9.931,-3.172 -9.517,5.103 0,0 -2.897,3.31 -0.276,6.621 0,0 0.552,-3.586 3.172,-5.103 0,0 5.103,2.069 8.414,-4 l 10.069,-6.069 9.931,4.828 c 0,0 -0.276,5.379 7.034,3.172 0,0 2.483,1.655 3.172,3.862 0,0 3.172,-3.448 -1.931,-7.448 0,0 -1.241,-4.69 -7.31,-2.897 l -5.655,-2.897 20.925,-6.209 c 3.623,3.451 7.532,6.279 8.9,5.805 2.7,-0.935 4.778,-3.738 6.646,-7.686 1.869,-3.947 10.282,-17.655 14.436,-17.55 4.154,0.104 6.024,3.426 4.985,9.347 -1.038,5.919 -9.134,17.259 -14.376,19.604 -5.241,2.345 -6.069,3.448 -10.897,3.034 -4.828,-0.414 -6.483,1.655 -5.379,4.414 1.103,2.759 6.534,4.513 11.862,2.483 5.793,-2.207 8,-5.241 10.207,-3.448 2.207,1.793 -2.345,8.276 -8.552,10.207 -6.207,1.931 -10.897,0.69 -9.931,4.552 0.966,3.862 7.586,4.138 11.862,1.655 4.276,-2.483 9.103,-9.379 10.345,-7.172 1.241,2.207 0.414,7.862 -3.724,10.897 -4.138,3.034 -8.845,1.249 -9.793,4 -1.379,4 3.448,6.621 7.172,5.103 3.724,-1.518 8,-6.207 9.931,-10.345 1.931,-4.138 5.517,-0.552 4.414,3.31 -1.103,3.862 -0.184,7.034 -8.092,13.103 l 14.713,22.621 14.713,-22.621 c -7.908,-6.069 -6.989,-9.241 -8.093,-13.103 -1.104,-3.862 2.483,-7.448 4.414,-3.31 1.931,4.138 6.207,8.828 9.931,10.345 3.724,1.517 8.552,-1.103 7.172,-5.103 -0.948,-2.751 -5.655,-0.966 -9.793,-4 -4.138,-3.034 -4.966,-8.69 -3.724,-10.897 1.241,-2.207 6.069,4.69 10.345,7.172 4.276,2.483 10.897,2.207 11.862,-1.655 0.965,-3.862 -3.724,-2.621 -9.931,-4.552 -6.207,-1.931 -10.759,-8.414 -8.552,-10.207 2.207,-1.793 4.414,1.241 10.207,3.448 5.329,2.03 10.759,0.276 11.862,-2.483 1.103,-2.759 -0.552,-4.828 -5.379,-4.414 -4.828,0.414 -5.655,-0.69 -10.897,-3.034 -5.241,-2.345 -13.337,-13.684 -14.376,-19.604 -1.038,-5.92 0.831,-9.244 4.985,-9.347 4.154,-0.105 12.566,13.603 14.436,17.55 1.869,3.947 3.946,6.751 6.646,7.686 1.369,0.474 5.279,-2.355 8.9,-5.805 l 20.925,6.209 -5.655,2.897 c -6.069,-1.793 -7.31,2.897 -7.31,2.897 -5.103,4 -1.931,7.448 -1.931,7.448 0.69,-2.207 3.172,-3.862 3.172,-3.862 7.31,2.207 7.034,-3.172 7.034,-3.172 l 9.931,-4.828 10.069,6.069 c 3.31,6.069 8.414,4 8.414,4 2.621,1.517 3.172,5.103 3.172,5.103 2.621,-3.31 -0.276,-6.621 -0.276,-6.621 0.414,-8.276 -9.517,-5.103 -9.517,-5.103 l -7.862,-3.862 13.931,-0.69 c 6.621,2.759 8.69,-1.931 8.69,-1.931 1.379,-0.69 6.621,0.276 6.621,0.276 -1.523,-5.792 -7.592,-3.861 -7.592,-3.861 z"
   id="path272" />
<g
   id="g274">
</g>
<g
   id="g276">
</g>
<g
   id="g278">
</g>
<g
   id="g280">
</g>
<g
   id="g282">
</g>
<g
   id="g284">
</g>
<g
   id="g286">
</g>
<g
   id="g288">
</g>
<g
   id="g290">
</g>
<g
   id="g292">
</g>
<g
   id="g294">
</g>
<g
   id="g296">
</g>
<g
   id="g298">
</g>
<g
   id="g300">
</g>
<g
   id="g302">
</g>
</svg>
