<svg xmlns="http://www.w3.org/2000/svg" xml:space="preserve" width="512" height="335.45001"><path d="M473.65503 0h-435.31C17.167 0 0 17.16797 0 38.34497v258.758C0 318.281 17.167 335.448 38.34503 335.448h435.31C494.833 335.448 512 318.281 512 297.104V38.34497C512 17.167 494.83203 0 473.65503 0zM399.7951 216.15729c-10.79522-.21369-6.42633 12.29468-13.70812 10.96637.4281 7.8391 4.15527 8.5249 2.74176 16.44922-5.48285 1.3709-5.48285 1.3709-8.22461 5.48352l-4.11267-1.37085c-1.37085 6.8537-4.11194 8.2246 0 15.07904 0 0-5.31171.17108-6.8537 0-.12915 2.35626 2.35626 2.99872 2.74176 5.48285-.21442.98535-7.79718 5.3117-13.70813 5.48352-1.542 3.38421 4.11194 6.9829 3.76977 8.69598-6.42633 1.2417-9.2533 9.12409-9.2533 9.12409s3.29835 1.3283 2.74177 2.74176c-1.75574-1.28565-2.74176-1.37085-5.48285-1.37085-1.37091.3429-4.71186-.08387-7.91553 5.32257-3.51617 1.15985-5.17584.74054-7.8432 4.26751-1.18085-3.35992-2.87903.0318-4.956 1.33503-2.07495 1.3053-4.87011 4.54956-5.24548 4.41156.08588-.94342 1.28565-4.3703 1.28565-4.3703l-6.85437 1.37085s-.30567.02978-.84406.08453c-.539.05347-.39496-4.00104-1.69415-3.85425-1.29852.14813-5.01483 5.09937-6.28156 5.25421-1.2647.15491-1.6651-1.57513-2.7553-1.42425-1.08955.15081-3.21448 5.22247-3.98615 5.35705s-3.83264-3.08264-6.45606-2.6336c-13.49444 4.75586-15.63696-9.38044-17.7356-1.41278-2.82696-1.50007-2.33733-.62964-5.21026.1231-1.83282.47272-1.99988-2.42321-3.62976-2.3786-3.26117.09198-3.09009 3.17664-4.8681 2.2555-1.45545-6.42633-10.23865-5.26984-11.09485-8.01093-.6966-2.85944 3.80493-2.84589 5.26099-4.78284 1.11322-2.79516-1.1626-3.85632 3.35449-6.5528 5.88733-3.9821 2.50305-5.48418 3.5351-8.47686 1.8463-4.32092 1.85717-5.37598.31518-9.18835 0 0-4.58405-12.33722-5.48352-12.33722-2.74115-.77033-2.74115 4.54004-6.76856 5.9975-8.2246 2.74108-22.74566-6.94031-25.27374-6.94031-2.31225.04327-13.02502 2.53686-12.6206-2.8047-1.6015 5.19343-7.49146 1.2201-7.85468 1.2201-5.48352 0-3.38495 4.24115-7.06946 4.0694-1.67114-.55664-18.54852-1.542-18.54852-1.542v2.74177l-10.96637-5.48358-9.59546-2.7411c-8.2246-2.74175-4.112-9.59612-17.82013-5.48351v-8.22461h-6.85376c2.74115-16.4499 0-8.22461-1.37085-23.3036l-5.48352 1.37086c-5.48285-7.41101 7.6247-5.9975-4.112-10.96637 0 0 .21375-8.18268-2.74176-5.48352-.59985.3429 1.37091 4.11267 1.37091 4.11267-10.96637-1.37091-13.70813-4.11267-13.70813-15.07904 0 0 9.03888 1.28564 8.22461 0-1.28497-2.05597-2.9555-15.42127-2.65588-16.32074-.12848-1.79962 8.39642-6.33972 6.74689-10.66742 1.04962-.3855 4.1336-.42743 4.1336-.42743-2.74109-5.48352-2.74109-5.48352-2.74109-10.96637-1.3709 0-1.62787.25763-2.42053.04193-.7926-.21374-1.09222 5.0561-3.6629 4.0274-.4281-.51397 1.84228-4.32568-.62085-5.91027-.7926-.516.19275-3.64258-.15015-5.0135 0 0-3.12659 1.6272-5.48285-4.11193-1.15716-1.50006-2.74176 1.37018-2.74176 1.37018s.68512 1.75635-.55658 2.18518c-1.7564-1.2857-3.04205-.61139-5.26916-2.37793-2.22773-1.76721.47143-3.79071-3.76972-5.2901 2.74176-6.85376 2.74176-5.48352 9.59546-8.22461-4.1126-2.74176-4.1126-2.74176-6.8537-6.85443-4.11267-1.37085-5.48352-2.74109-9.59619-5.48285-5.48285-6.85437-8.2246-20.56183-8.2246-30.15735 3.47015-3.21313 8.2246 10.96637 15.07903 15.07837l9.59546 4.11261c5.48285 2.74176 6.85376 5.48285 10.96637 8.22461l12.33728 4.11267c5.48285 4.11194 8.22461 9.59546 12.33728 10.96637 4.45484 0 5.31305-2.56592 6.74146-2.72552 8.0589-.41321 12.17157-1.45136 13.77777-3.8719 1.6272-1.92748 5.52545 1.1139 16.49182-2.9981l-1.37018-5.48352s2.91284-2.39886 6.8537-1.37085c-.10681-2.50574-.3645-9.18835 3.51752-12.20337-2.3576-2.47327-.7757-4.24585-.7757-4.24585s2.18512-2.0993 2.44147-3.2132c-1.15582-6.0401 1.00293-6.13342 1.48718-7.91076.48358-1.77667-1.86456-1.16803-1.20245-3.61762.66076-2.45025 4.63202-3.03186 5.16363-5.04998.53357-2.01813-1.1322-3.03058-1.03613-3.51209.85687-1.92749.12915-6.46857 0-8.22497 7.3684-1.97052 9.76727-7.96772 12.33722-5.48316 1.37091-8.2248 2.74182-10.96643 10.96643-10.96643 1.15717-2.52734-2.99945-4.66931-1.37091-5.48321 2.74176-.34266 4.84033-.17133 8.05487 3.984 1.01447 1.31678 1.19843-1.92773 2.22644-2.2705 1.02795-.34265 3.4884-.34803 3.85425-1.97046.38684-1.67078.94348-3.85541 2.31433-6.59699 1.1565-2.22754 2.05603.85675 3.08398 5.22614 5.78382.2141 18.84876 1.49939 24.3316 2.99866 4.11268 1.07098 6.85444-1.07105 10.7953-1.4994 2.9129 2.9129 5.65466.72834 7.19665 6.9397 2.177 3.35157 5.7398.29993 6.51148 1.2851 4.58404 12.63714 20.34814 4.11236 21.54724 4.32666 2.01275 0 4.4718 5.65027 6.0564 5.50989 2.57537-.43372 1.8463-2.19 4.09576-1.48316-.60059 4.75488 4.4129 10.23816 4.4129 13.79334 0 0 1.22003.59991 2.35083-.45514 1.12946-1.05438 2.16827-3.76404 3.17462-3.6999 2.39887.34278 3.37073.65076 6.1355 1.13398 7.43262 2.53955 11.21863 3.11237 14.10577 4.41357 1.3432 2.4577 2.64441 3.71637 5.36658 3.25714 2.2494 1.51087.60864 3.48975 1.93695 3.61823 2.7417-1.37085 3.64124-2.87024 6.38233-1.49933 2.74176 1.37085 5.48352 4.11261 6.85437 6.85437 0 1.37024-1.37085 6.85376 0 15.07837.68512 2.74176 1.0172 4.9154 3.96252 9.61713-.78247 4.8302 3.7055 12.95813 3.7055 15.01477 0 2.74109-2.18517 4.15521-3.55602 6.89636 5.48352 4.11261 0 10.96637-2.7411 15.07898 20.56184 4.11267 10.96638 12.33728 27.4156 8.2246-4.11261 9.59553-2.6565 8.8252 1.45611 18.42066-8.22534 5.48352-.1704 7.15338-5.65326 14.00708-.34296.42878 3.2544 5.95496 8.30982 5.95496-1.37091 10.96637-5.48352 6.8537-4.11268 23.30359z" style="fill:#3a7dce"/><path d="M395.59796 186.89874c5.48285-6.8537-2.57208-8.52356 5.65326-14.00708-4.1126-9.59546-5.56872-8.82513-1.45612-18.42065-16.44921 4.11267-6.85375-4.11194-27.41558-8.22461 2.74109-4.11261 8.2246-10.96637 2.74109-15.07898 1.37085-2.74115 3.55603-4.15527 3.55603-6.89636 0-2.05664-4.48798-10.18457-3.70551-15.01477-2.94531-4.70172-3.2774-6.87537-3.96252-9.61713-1.37085-8.2246 0-13.70813 0-15.07837-1.37085-2.74176-4.11261-5.48352-6.85437-6.85437-2.7411-1.37091-3.64063.12848-6.38233 1.49933-1.3283-.12848.31244-2.10736-1.93695-3.61823-2.72217.45923-4.02338-.79943-5.36658-3.25714-2.88714-1.3012-6.67315-1.87402-14.10577-4.41357-2.76477-.48322-3.73663-.7912-6.1355-1.13397-1.00635-.06415-2.04516 2.6455-3.17462 3.69989-1.1308 1.05505-2.35083.45514-2.35083.45514 0-3.55518-5.01349-9.03846-4.4129-13.79334-2.24945-.70685-1.52039 1.04944-4.09577 1.48316-1.5846.14038-4.04364-5.5099-6.0564-5.5099-1.19909-.21429-16.96319 8.3105-21.54723-4.32665-.77167-.98517-4.33448 2.06646-6.51148-1.2851-1.542-6.21136-4.28375-4.0268-7.19665-6.9397-3.94086.42835-6.68262 2.57038-10.7953 1.4994-5.48284-1.49927-18.54778-2.78455-24.3316-2.99866-1.02795-4.36939-1.92749-7.45368-3.08398-5.22614-1.37085 2.74158-1.9275 4.92621-2.31433 6.59699-.36585 1.62243-2.8263 1.6278-3.85425 1.97046-1.02801.34277-1.21197 3.58728-2.22644 2.2705-3.21454-4.15533-5.31311-4.32666-8.05487-3.984-1.62854.8139 2.52808 2.95587 1.37091 5.48321-8.22461 0-9.59552 2.74164-10.96643 10.96643-2.56995-2.48456-4.96881 3.51264-12.33722 5.48316.12915 1.7564.85687 6.29748 0 8.22497-.09607.4815 1.5697 1.49396 1.03613 3.51209-.53161 2.01812-4.50287 2.59973-5.16363 5.04998-.66211 2.44959 1.68603 1.84095 1.20245 3.61762-.48425 1.77734-2.643 1.87067-1.48718 7.91077-.25635 1.11389-2.44147 3.2132-2.44147 3.2132s-1.5819 1.77257.7757 4.24584c-3.88202 3.01502-3.62433 9.69763-3.51752 12.20337-3.94086-1.02802-6.8537 1.37085-6.8537 1.37085l1.37018 5.48352c-10.96637 4.112-14.86462 1.07062-16.49182 2.9981-1.6062 2.42054-5.71887 3.45869-13.77777 3.8719-1.4284.1596-2.28662 2.72552-6.74146 2.72552-4.11267-1.37091-6.85443-6.85443-12.33728-10.96637l-12.33728-4.11267c-4.1126-2.74176-5.48352-5.48285-10.96637-8.22461l-9.59546-4.11261c-6.85443-4.112-11.60888-18.2915-15.07904-15.07837 0 9.59552 2.74176 23.30298 8.22461 30.15735 4.11267 2.74176 5.48352 4.112 9.5962 5.48285 2.74108 4.11267 2.74108 4.11267 6.8537 6.85443-6.8537 2.74109-6.8537 1.37085-9.59547 8.2246 4.24115 1.4994 1.542 3.5229 3.76972 5.2901 2.2271 1.76655 3.51275 1.09223 5.26916 2.37794 1.2417-.42883.55658-2.18518.55658-2.18518s1.5846-2.87024 2.74176-1.37018c2.35626 5.73914 5.48285 4.11194 5.48285 4.11194.3429 1.3709-.64246 4.4975.15015 5.01349 2.46313 1.5846.19275 5.3963.62085 5.91028 2.57068 1.02868 2.8703-4.24115 3.6629-4.0274.79266.21569 1.04962-.04194 2.42053-.04194 0 5.48285 0 5.48285 2.7411 10.96637 0 0-3.084.04193-4.13362.42743 1.64954 4.3277-6.87536 8.8678-6.74688 10.66742-.29962.89947 1.3709 14.26477 2.65588 16.32074.81427 1.28564-8.2246 0-8.2246 0 0 10.96637 2.74175 13.70813 13.70812 15.07904 0 0-1.97076-3.76978-1.3709-4.11267 2.9555-2.69916 2.74175 5.48352 2.74175 5.48352 11.7367 4.96887-1.37085 3.55536 4.112 10.96637l5.48352-1.37085c1.37085 15.07898 4.112 6.8537 1.37085 23.30359h6.85376v8.2246c13.70813-4.1126 9.59552 2.74177 17.82013 5.48353l9.59546 2.74109 10.96637 5.48358v-2.74176s16.87738.98535 18.54852 1.54199c3.68451.17175 1.58594-4.0694 7.06946-4.0694.36322 0 6.25317 3.97333 7.85468-1.2201-.40442 5.34156 10.30834 2.84797 12.6206 2.8047 2.52808 0 17.04913 9.6814 25.27374 6.9403 4.0274-1.45745 4.0274-6.76782 6.76856-5.9975.89947 0 5.48352 12.33723 5.48352 12.33723 1.542 3.81237 1.53113 4.86743-.31519 9.18835-1.03204 2.99268 2.35224 4.49475-3.5351 8.47687-4.51708 2.69647-2.24126 3.75763-3.35448 6.5528-1.45606 1.93694-5.95758 1.9234-5.26099 4.78283.8562 2.74109 9.6394 1.5846 11.09485 8.01093 1.77801.92114 1.60693-2.16352 4.8681-2.2555 1.62988-.04461 1.79694 2.85132 3.62976 2.3786 2.87293-.75274 2.3833-1.62317 5.21027-.1231 2.09863-7.96766 4.24115 6.16864 17.7356 1.41278 2.6234-.44904 5.68438 2.76818 6.45605 2.6336s2.8966-5.20624 3.98614-5.35705c1.09021-.15088 1.4906 1.57916 2.75531 1.42425 1.26673-.15484 4.98304-5.10608 6.28156-5.2542 1.2992-.1468 1.15515 3.9077 1.69415 3.85424.5384-.05475.84406-.08454.84406-.08454l6.85437-1.37084s-1.19977 3.42688-1.28565 4.3703c.37537.138 3.17053-3.10627 5.24549-4.41156 2.07696-1.30323 3.77514-4.69495 4.95599-1.33503 2.66736-3.52697 4.32703-3.10766 7.8432-4.26751 3.20367-5.40644 6.54462-4.97968 7.91553-5.32257 2.74109 0 3.7271.0852 5.48285 1.37085.55658-1.41346-2.74176-2.74177-2.74176-2.74177s2.82696-7.88238 9.2533-9.12408c.34216-1.71307-5.31178-5.31177-3.76978-8.69598 5.91095-.17182 13.49371-4.49817 13.70813-5.48352-.3855-2.48413-2.87091-3.1266-2.74176-5.48285 1.54199.17108 6.8537 0 6.8537 0-4.11194-6.85443-1.37085-8.22534 0-15.07904l4.11267 1.37085c2.74176-4.11261 2.74176-4.11261 8.2246-5.48352 1.41352-7.92432-2.31365-8.61011-2.74175-16.44922 7.2818 1.3283 2.9129-11.18006 13.70812-10.96637-1.37084-16.4499 2.74177-12.33722 4.11268-23.3036-5.05542 0-8.65278-5.52618-8.30982-5.95495z" style="fill:#f5f5f5"/></svg>