<?xml version="1.0" encoding="UTF-8" standalone="no"?>
<svg
   xmlns:dc="http://purl.org/dc/elements/1.1/"
   xmlns:cc="http://creativecommons.org/ns#"
   xmlns:rdf="http://www.w3.org/1999/02/22-rdf-syntax-ns#"
   xmlns:svg="http://www.w3.org/2000/svg"
   xmlns="http://www.w3.org/2000/svg"
   xmlns:sodipodi="http://sodipodi.sourceforge.net/DTD/sodipodi-0.dtd"
   xmlns:inkscape="http://www.inkscape.org/namespaces/inkscape"
   version="1.1"
   id="Layer_1"
   x="0px"
   y="0px"
   viewBox="0 0 512 335.45001"
   xml:space="preserve"
   sodipodi:docname="argentina.svg"
   width="512"
   height="335.45001"
   inkscape:version="1.0.1 (c497b03c, 2020-09-10)"><metadata
   id="metadata448"><rdf:RDF><cc:Work
       rdf:about=""><dc:format>image/svg+xml</dc:format><dc:type
         rdf:resource="http://purl.org/dc/dcmitype/StillImage" /><dc:title></dc:title></cc:Work></rdf:RDF></metadata><defs
   id="defs446" /><sodipodi:namedview
   pagecolor="#ffffff"
   bordercolor="#666666"
   borderopacity="1"
   objecttolerance="10"
   gridtolerance="10"
   guidetolerance="10"
   inkscape:pageopacity="0"
   inkscape:pageshadow="2"
   inkscape:window-width="1797"
   inkscape:window-height="984"
   id="namedview444"
   showgrid="false"
   inkscape:zoom="1.640625"
   inkscape:cx="256"
   inkscape:cy="256"
   inkscape:window-x="0"
   inkscape:window-y="23"
   inkscape:window-maximized="0"
   inkscape:current-layer="Layer_1" />
<g
   id="g405"
   transform="translate(0,-88.276)">
	<path
   style="fill:#82afff"
   d="M 473.655,88.276 H 38.345 C 17.167,88.276 0,105.443 0,126.621 v 73.471 h 512 v -73.471 c 0,-21.178 -17.167,-38.345 -38.345,-38.345 z"
   id="path401" />
	<path
   style="fill:#82afff"
   d="m 0,385.379 c 0,21.177 17.167,38.345 38.345,38.345 h 435.31 c 21.177,0 38.345,-17.167 38.345,-38.345 V 311.908 H 0 Z"
   id="path403" />
</g>
<rect
   y="111.814"
   style="fill:#f5f5f5"
   width="512"
   height="111.81"
   id="rect407"
   x="0" />
<path
   style="fill:#f09146"
   d="m 300.138,165.517 h -31.784 c 0.593,-0.45 1.062,-0.893 1.486,-1.311 0.776,-0.759 1.393,-1.362 3.03,-2.035 1.646,-0.69 2.508,-0.698 3.599,-0.715 1.314,-0.009 2.802,-0.034 5.233,-1.035 2.427,-1.009 3.487,-2.044 4.423,-2.957 0.776,-0.759 1.393,-1.362 3.034,-2.044 1.633,-0.681 2.492,-0.69 3.577,-0.698 1.311,-0.018 2.797,-0.034 5.228,-1.043 l -1.698,-4.07 c -1.633,0.681 -2.492,0.69 -3.577,0.698 -1.311,0.018 -2.797,0.034 -5.224,1.035 -2.426,1.009 -3.487,2.044 -4.423,2.957 -0.776,0.759 -1.393,1.362 -3.03,2.035 -1.646,0.69 -2.508,0.698 -3.599,0.715 -1.314,0.009 -2.802,0.034 -5.233,1.043 -2.426,1 -3.487,2.044 -4.423,2.957 -0.764,0.743 -1.395,1.338 -2.967,2.002 l 24.98,-24.977 -3.121,-3.121 -22.485,22.482 c 0.099,-0.735 0.126,-1.389 0.132,-1.982 0.013,-1.095 0.022,-1.949 0.703,-3.595 0.681,-1.646 1.284,-2.259 2.044,-3.034 0.922,-0.94 1.961,-2.008 2.969,-4.439 1.004,-2.431 1.022,-3.914 1.035,-5.224 0.013,-1.086 0.022,-1.949 0.698,-3.586 0.681,-1.638 1.28,-2.25 2.039,-3.026 0.918,-0.94 1.956,-2.001 2.962,-4.423 l -4.077,-1.689 c -0.681,1.637 -1.28,2.25 -2.039,3.026 -0.918,0.94 -1.956,2.001 -2.962,4.423 -1.004,2.431 -1.022,3.914 -1.035,5.224 -0.013,1.086 -0.022,1.949 -0.698,3.586 -0.681,1.646 -1.284,2.259 -2.044,3.034 -0.922,0.94 -1.961,2.008 -2.969,4.439 -1.004,2.431 -1.022,3.923 -1.038,5.233 -0.009,1.063 -0.039,1.922 -0.676,3.5 v -35.317 h -4.414 v 31.783 c -0.45,-0.589 -0.892,-1.057 -1.306,-1.481 -0.762,-0.776 -1.362,-1.397 -2.044,-3.034 -0.681,-1.646 -0.694,-2.508 -0.707,-3.604 -0.013,-1.311 -0.03,-2.802 -1.038,-5.233 -1.004,-2.422 -2.044,-3.482 -2.962,-4.423 -0.759,-0.776 -1.357,-1.388 -2.039,-3.026 -0.676,-1.638 -0.685,-2.5 -0.698,-3.586 -0.013,-1.311 -0.03,-2.793 -1.035,-5.216 l -4.077,1.689 c 0.676,1.638 0.685,2.492 0.698,3.577 0.013,1.311 0.03,2.793 1.035,5.224 1.004,2.422 2.044,3.482 2.962,4.423 0.759,0.776 1.357,1.388 2.039,3.026 0.681,1.646 0.694,2.508 0.707,3.604 0.013,1.311 0.03,2.802 1.038,5.233 1.004,2.431 2.044,3.491 2.962,4.431 0.748,0.76 1.34,1.395 2.004,2.962 l -24.982,-24.979 -3.121,3.121 24.943,24.94 c -1.368,-0.621 -2.028,-1.192 -2.745,-1.888 -0.943,-0.922 -2.008,-1.965 -4.448,-2.974 -2.431,-1 -3.918,-1.026 -5.233,-1.043 -1.095,-0.009 -1.956,-0.025 -3.616,-0.715 -1.66,-0.681 -2.28,-1.284 -3.069,-2.051 -0.943,-0.914 -2.013,-1.956 -4.457,-2.974 -2.44,-1.009 -3.932,-1.026 -5.25,-1.043 -1.099,-0.018 -1.965,-0.034 -3.625,-0.724 l -1.689,4.086 c 2.44,1.009 3.932,1.026 5.25,1.043 1.099,0.018 1.965,0.034 3.625,0.724 1.664,0.681 2.284,1.284 3.073,2.051 0.943,0.922 2.013,1.956 4.452,2.966 2.44,1.017 3.932,1.035 5.246,1.052 1.095,0.018 1.956,0.025 3.608,0.715 1.651,0.681 2.268,1.284 3.048,2.044 0.401,0.394 0.849,0.809 1.391,1.233 H 211.86 v 4.414 h 35.254 c -1.393,0.53 -2.264,0.597 -3.262,0.612 -1.314,0.009 -2.802,0.034 -5.237,1.035 -2.435,1.009 -3.505,2.051 -4.448,2.966 -0.785,0.767 -1.401,1.37 -3.052,2.051 -1.66,0.69 -2.526,0.707 -3.625,0.724 -1.319,0.018 -2.81,0.034 -5.25,1.043 -2.444,1.017 -3.513,2.051 -4.457,2.974 -0.789,0.767 -1.409,1.37 -3.069,2.051 l 1.689,4.086 c 2.44,-1.017 3.509,-2.051 4.452,-2.974 0.789,-0.767 1.409,-1.37 3.073,-2.051 1.66,-0.69 2.526,-0.707 3.625,-0.724 1.319,-0.018 2.81,-0.034 5.255,-1.052 2.431,-1.009 3.496,-2.044 4.439,-2.966 0.78,-0.759 1.401,-1.362 3.057,-2.044 1.646,-0.69 2.513,-0.698 3.604,-0.715 0.558,-0.003 1.187,-0.04 1.868,-0.124 l -22.549,22.546 3.121,3.121 24.931,-24.927 c -0.614,1.362 -1.181,2.019 -1.879,2.738 -0.918,0.94 -1.956,2.008 -2.966,4.439 -1.009,2.431 -1.031,3.932 -1.043,5.241 -0.018,1.095 -0.025,1.956 -0.712,3.612 -0.685,1.664 -1.293,2.284 -2.056,3.069 -0.922,0.94 -1.961,2.017 -2.974,4.457 -1.013,2.44 -1.031,3.932 -1.047,5.25 -0.018,1.095 -0.03,1.965 -0.715,3.62 l 4.077,1.689 c 1.013,-2.44 1.031,-3.932 1.047,-5.25 0.018,-1.095 0.03,-1.965 0.715,-3.62 0.685,-1.664 1.293,-2.284 2.056,-3.069 0.922,-0.94 1.961,-2.017 2.974,-4.457 1.009,-2.431 1.031,-3.932 1.043,-5.241 0.018,-1.095 0.025,-1.956 0.712,-3.612 0.681,-1.655 1.284,-2.268 2.047,-3.052 0.392,-0.402 0.809,-0.85 1.233,-1.395 v 31.878 h 4.414 v -35.252 c 0.526,1.39 0.593,2.259 0.608,3.261 0.013,1.311 0.034,2.802 1.043,5.233 1.004,2.44 2.047,3.509 2.966,4.448 0.762,0.785 1.366,1.405 2.051,3.06 0.685,1.655 0.698,2.526 0.715,3.62 0.018,1.319 0.034,2.81 1.047,5.25 1.013,2.44 2.051,3.518 2.974,4.457 0.762,0.785 1.37,1.405 2.056,3.069 l 4.077,-1.689 c -1.013,-2.44 -2.051,-3.518 -2.974,-4.457 -0.762,-0.785 -1.371,-1.405 -2.056,-3.069 -0.685,-1.655 -0.698,-2.526 -0.715,-3.62 -0.018,-1.319 -0.034,-2.81 -1.047,-5.25 -1.009,-2.44 -2.047,-3.509 -2.966,-4.448 -0.762,-0.785 -1.366,-1.405 -2.051,-3.06 -0.685,-1.646 -0.694,-2.508 -0.712,-3.604 -0.006,-0.557 -0.042,-1.187 -0.126,-1.868 l 22.552,22.55 3.121,-3.121 -22.482,-22.478 c 0.73,0.097 1.384,0.126 1.973,0.134 1.09,0.009 1.949,0.018 3.595,0.698 1.646,0.69 2.263,1.284 3.043,2.051 0.94,0.914 2.004,1.956 4.436,2.966 2.426,1 3.914,1.017 5.224,1.026 1.086,0.018 1.944,0.025 3.582,0.707 1.638,0.672 2.25,1.276 3.026,2.035 0.94,0.914 2.001,1.956 4.427,2.966 l 1.689,-4.086 c -1.638,-0.672 -2.25,-1.276 -3.026,-2.035 -0.94,-0.914 -2.001,-1.956 -4.427,-2.966 -2.427,-1 -3.914,-1.017 -5.224,-1.026 -1.086,-0.018 -1.944,-0.025 -3.582,-0.707 -1.646,-0.681 -2.263,-1.276 -3.043,-2.044 -0.94,-0.914 -2.004,-1.956 -4.436,-2.957 -2.431,-1.017 -3.918,-1.035 -5.233,-1.043 -1.07,-0.018 -1.937,-0.038 -3.524,-0.681 h 35.349 v -4.414 z"
   id="path409" />
<circle
   style="fill:#ffe15a"
   cx="256"
   cy="167.724"
   r="22.07"
   id="circle411" />
<g
   id="g413">
</g>
<g
   id="g415">
</g>
<g
   id="g417">
</g>
<g
   id="g419">
</g>
<g
   id="g421">
</g>
<g
   id="g423">
</g>
<g
   id="g425">
</g>
<g
   id="g427">
</g>
<g
   id="g429">
</g>
<g
   id="g431">
</g>
<g
   id="g433">
</g>
<g
   id="g435">
</g>
<g
   id="g437">
</g>
<g
   id="g439">
</g>
<g
   id="g441">
</g>
</svg>
