<svg xmlns="http://www.w3.org/2000/svg" xml:space="preserve" width="512" height="335.45001"><path style="fill:#73af00" d="M512 38.307C511.98 17.147 494.821 0 473.656 0H38.345C17.167-.001 0 17.167 0 38.344v258.76c0 21.176 17.167 38.345 38.345 38.345h435.311c21.165 0 38.324-17.148 38.344-38.307V38.307z"/><g transform="translate(0 -88.275)"><path style="fill:#ffe15a" d="M283.616 307.644c-28.522 0-51.645-23.122-51.645-51.645 0-28.523 23.122-51.645 51.645-51.645 3.785 0 7.452.454 10.987 1.265 1.409.323 2.156-1.568.927-2.329-10.816-6.706-23.841-10.184-37.745-9.053-30.263 2.462-54.593 27.134-56.653 57.428-2.462 36.189 26.164 66.309 61.826 66.309 11.955 0 23.11-3.396 32.574-9.265 1.229-.763.486-2.654-.925-2.329-3.537.81-7.206 1.264-10.991 1.264zm45.014-95.374 3.879 9.824 10.099-3.093c.561-.172 1.043.433.75.941l-5.262 9.158 8.715 5.967c.484.331.312 1.085-.268 1.173l-10.441 1.596.768 10.534c.043.585-.653.92-1.084.522l-7.756-7.168-7.756 7.168c-.431.398-1.127.063-1.084-.522l.768-10.534-10.441-1.596c-.58-.088-.751-.842-.268-1.173l8.715-5.967-5.262-9.158c-.292-.509.189-1.112.75-.941l10.099 3.093 3.879-9.824c.212-.545.984-.545 1.2 0zm141.241-26.484 3.879 9.824 10.099-3.093c.561-.172 1.043.433.75.941l-5.262 9.158 8.715 5.967c.484.331.312 1.085-.268 1.173l-10.441 1.596.768 10.534c.043.585-.653.92-1.084.522l-7.756-7.168-7.756 7.168c-.431.398-1.127.063-1.084-.522l.768-10.534-10.441-1.596c-.58-.088-.751-.842-.268-1.173l8.715-5.967-5.262-9.158c-.292-.509.189-1.112.75-.941l10.099 3.093 3.879-9.824c.213-.544.985-.544 1.2 0zm-70.62-63.685 3.879 9.824 10.099-3.093c.561-.172 1.043.433.75.941l-5.262 9.158 8.715 5.967c.484.331.312 1.085-.268 1.173l-10.441 1.596.768 10.534c.043.585-.653.92-1.084.522l-7.756-7.168-7.756 7.168c-.431.398-1.127.063-1.084-.522l.768-10.534-10.441-1.596c-.58-.088-.751-.842-.268-1.173l8.715-5.967-5.262-9.158c-.292-.509.189-1.112.75-.941l10.099 3.093 3.879-9.824c.212-.545.984-.545 1.2 0zm0 231.411 3.879 9.824 10.099-3.093c.561-.172 1.043.433.75.941l-5.262 9.158 8.715 5.967c.484.331.312 1.085-.268 1.173l-10.441 1.596.768 10.534c.043.585-.653.92-1.084.522l-7.756-7.168-7.756 7.168c-.431.398-1.127.063-1.084-.522l.768-10.534-10.441-1.596c-.58-.088-.751-.842-.268-1.173l8.715-5.967-5.262-9.158c-.292-.509.189-1.112.75-.941l10.099 3.093 3.879-9.824c.212-.545.984-.545 1.2 0zm28.905-132.352 2.708 8.118 8.557.066c.663.006.938.851.405 1.245l-6.884 5.084 2.581 8.159c.2.632-.52 1.155-1.059.769l-6.963-4.977-6.963 4.977c-.54.385-1.259-.137-1.059-.769l2.581-8.159-6.884-5.084c-.533-.394-.258-1.24.405-1.245l8.557-.066 2.708-8.118c.211-.629 1.101-.629 1.31 0z"/><circle style="fill:#ffe15a" cx="92.69" cy="180.96899" r="57.38"/></g><path style="fill:#964b50" d="M86.787 137.392h15.496s8.804-39.444.704-53.532l-4.93 3.169c0 .003 8.1 27.119-11.27 50.363z"/><path style="fill:#73af00" d="M87.373 85.622s-8.921 6.104-6.104 24.183c0 0 6.808-5.635 10.566-18.079 0 0-5.4 10.331 2.113 18.548 0 0 7.982-11.27 6.808-21.131 0 0 26.539 27.714 20.896 20.661-.939-1.174 1.409-12.914-7.748-22.539 0 0 15.027 3.756 20.661 2.348 0 0 .47-11.975-13.853-14.088l3.287-9.391s-11.035-.704-16.905 4.93c0 0-1.409-14.557 4.461-21.6 0 0-17.374-2.583-18.079 20.192 0 0-6.339-14.557-25.826-11.035 0 0 11.035 7.982 12.914 11.505 0 0-15.496-10.566-22.774 4.226 0 0 12.444-3.287 16.905 2.583 0 0-19.957-2.113-21.6 15.027 0-.001 18.549-8.688 34.278-6.34z"/></svg>