<?xml version="1.0" encoding="UTF-8" standalone="no"?>
<svg
   xmlns:dc="http://purl.org/dc/elements/1.1/"
   xmlns:cc="http://creativecommons.org/ns#"
   xmlns:rdf="http://www.w3.org/1999/02/22-rdf-syntax-ns#"
   xmlns:svg="http://www.w3.org/2000/svg"
   xmlns="http://www.w3.org/2000/svg"
   xmlns:sodipodi="http://sodipodi.sourceforge.net/DTD/sodipodi-0.dtd"
   xmlns:inkscape="http://www.inkscape.org/namespaces/inkscape"
   version="1.1"
   id="Layer_1"
   x="0px"
   y="0px"
   viewBox="0 0 512 335.45001"
   xml:space="preserve"
   sodipodi:docname="au.svg"
   width="512"
   height="335.45001"
   inkscape:version="1.0.1 (c497b03c, 2020-09-10)"><metadata
   id="metadata75"><rdf:RDF><cc:Work
       rdf:about=""><dc:format>image/svg+xml</dc:format><dc:type
         rdf:resource="http://purl.org/dc/dcmitype/StillImage" /><dc:title></dc:title></cc:Work></rdf:RDF></metadata><defs
   id="defs73" /><sodipodi:namedview
   pagecolor="#ffffff"
   bordercolor="#666666"
   borderopacity="1"
   objecttolerance="10"
   gridtolerance="10"
   guidetolerance="10"
   inkscape:pageopacity="0"
   inkscape:pageshadow="2"
   inkscape:window-width="1854"
   inkscape:window-height="983"
   id="namedview71"
   showgrid="false"
   inkscape:zoom="1.640625"
   inkscape:cx="122.81905"
   inkscape:cy="231.61905"
   inkscape:window-x="0"
   inkscape:window-y="23"
   inkscape:window-maximized="0"
   inkscape:current-layer="Layer_1" />
<path
   style="fill:#41479b"
   d="M 473.655,0 H 38.345 C 17.167,0 0,17.167 0,38.345 v 258.76 c 0,21.177 17.167,38.345 38.345,38.345 h 435.31 C 494.832,335.45 512,318.283 512,297.105 V 38.345 C 512,17.167 494.833,0 473.655,0 Z"
   id="path10" />
<path
   style="fill:#f5f5f5"
   d="m 8.828,167.724 h 15.334 l 81.77,-53.574 v 53.574 H 150.07 V 114.15 l 81.769,53.574 h 15.334 c 4.875,0 8.828,-3.953 8.828,-8.828 v -7.002 L 185.846,105.931 H 256 V 61.793 H 185.845 L 256,15.83 V 8.828 C 256,3.952 252.047,0 247.172,0 h -15.334 l -81.77,53.574 V 0 H 105.93 V 53.574 L 26.844,1.758 C 17.61,4.658 9.89,10.961 5.133,19.192 L 70.156,61.793 H 0 v 44.138 H 70.155 L 0,151.894 v 7.002 c 0,4.875 3.951,8.828 8.828,8.828 z"
   id="path12" />
<g
   id="g24"
   transform="translate(0,-88.275)">
	<polygon
   style="fill:#ff4b55"
   points="141.241,88.275 114.759,88.275 114.759,158.896 0,158.896 0,185.378 114.759,185.378 114.759,255.999 141.241,255.999 141.241,185.378 256,185.378 256,158.896 141.241,158.896 "
   id="polygon14" />
	<path
   style="fill:#ff4b55"
   d="m 8.227,102.901 72.662,47.167 H 97.103 L 14.607,96.518 c -2.369,1.87 -4.51,4.013 -6.38,6.383 z"
   id="path16" />
	<path
   style="fill:#ff4b55"
   d="m 166.283,150.068 88.374,-57.366 c -1.536,-2.599 -4.246,-4.427 -7.485,-4.427 h -1.91 l -95.193,61.793 z"
   id="path18" />
	<path
   style="fill:#ff4b55"
   d="M 89.474,194.206 1.269,251.462 c 1.521,2.662 4.273,4.537 7.559,4.537 h 1.665 l 95.196,-61.793 z"
   id="path20" />
	<path
   style="fill:#ff4b55"
   d="M 255.86,247.865 173.194,194.207 H 156.98 l 93.874,60.935 c 2.812,-1.305 4.741,-4.04 5.006,-7.277 z"
   id="path22" />
</g>
<g
   id="g38"
   transform="translate(0,-88.275)">
	<path
   style="fill:#f5f5f5"
   d="m 130.671,304.13 6.663,21.997 21.353,-8.505 c 1.822,-0.726 3.478,1.352 2.366,2.966 l -13.044,18.924 19.962,11.391 c 1.703,0.972 1.112,3.562 -0.844,3.699 l -22.929,1.601 3.541,22.709 c 0.302,1.938 -2.092,3.091 -3.418,1.646 l -15.548,-16.928 -15.548,16.928 c -1.326,1.444 -3.72,0.291 -3.418,-1.646 l 3.541,-22.709 -22.929,-1.601 c -1.956,-0.137 -2.548,-2.727 -0.844,-3.699 l 19.962,-11.391 -13.044,-18.924 c -1.112,-1.614 0.544,-3.692 2.366,-2.966 l 21.353,8.505 6.663,-21.997 c 0.571,-1.877 3.228,-1.877 3.796,0 z"
   id="path26" />
	<path
   style="fill:#f5f5f5"
   d="m 393.279,147.729 3.255,10.745 10.43,-4.154 c 0.889,-0.354 1.699,0.66 1.155,1.449 l -6.371,9.245 9.751,5.565 c 0.832,0.474 0.543,1.74 -0.413,1.806 l -11.2,0.782 1.729,11.093 c 0.148,0.947 -1.022,1.51 -1.67,0.804 l -7.595,-8.269 -7.595,8.269 c -0.648,0.705 -1.817,0.142 -1.67,-0.804 l 1.729,-11.093 -11.2,-0.782 c -0.956,-0.067 -1.245,-1.332 -0.413,-1.806 l 9.751,-5.565 -6.371,-9.245 c -0.544,-0.789 0.266,-1.803 1.155,-1.449 l 10.431,4.154 3.255,-10.745 c 0.281,-0.918 1.58,-0.918 1.857,0 z"
   id="path28" />
	<path
   style="fill:#f5f5f5"
   d="m 320.702,230.204 3.255,10.745 10.431,-4.154 c 0.889,-0.354 1.699,0.66 1.155,1.449 l -6.371,9.245 9.751,5.565 c 0.832,0.474 0.543,1.74 -0.413,1.806 l -11.2,0.782 1.73,11.093 c 0.148,0.947 -1.022,1.51 -1.67,0.804 l -7.595,-8.269 -7.595,8.269 c -0.648,0.705 -1.817,0.142 -1.67,-0.804 l 1.73,-11.093 -11.2,-0.782 c -0.956,-0.067 -1.245,-1.332 -0.413,-1.806 l 9.751,-5.565 -6.371,-9.245 c -0.544,-0.789 0.266,-1.803 1.155,-1.449 l 10.431,4.154 3.255,-10.745 c 0.278,-0.917 1.576,-0.917 1.854,0 z"
   id="path30" />
	<path
   style="fill:#f5f5f5"
   d="m 461.943,194.893 3.255,10.745 10.431,-4.154 c 0.889,-0.354 1.699,0.66 1.155,1.449 l -6.371,9.245 9.751,5.565 c 0.832,0.474 0.543,1.74 -0.413,1.806 l -11.2,0.782 1.73,11.093 c 0.148,0.947 -1.022,1.51 -1.67,0.804 l -7.595,-8.269 -7.595,8.269 c -0.648,0.705 -1.817,0.142 -1.669,-0.804 l 1.73,-11.093 -11.2,-0.782 c -0.956,-0.067 -1.245,-1.332 -0.413,-1.806 l 9.751,-5.565 -6.371,-9.245 c -0.544,-0.789 0.266,-1.803 1.155,-1.449 l 10.431,4.154 3.255,-10.745 c 0.277,-0.916 1.575,-0.916 1.853,0 z"
   id="path32" />
	<path
   style="fill:#f5f5f5"
   d="m 393.279,336.135 3.255,10.745 10.43,-4.155 c 0.889,-0.354 1.699,0.66 1.155,1.449 l -6.371,9.245 9.751,5.565 c 0.832,0.474 0.543,1.74 -0.413,1.806 l -11.2,0.782 1.729,11.093 c 0.148,0.947 -1.022,1.51 -1.67,0.804 l -7.595,-8.269 -7.595,8.269 c -0.648,0.705 -1.817,0.142 -1.67,-0.804 l 1.729,-11.093 -11.2,-0.782 c -0.956,-0.066 -1.245,-1.332 -0.413,-1.806 l 9.751,-5.565 -6.371,-9.245 c -0.544,-0.789 0.266,-1.803 1.155,-1.449 l 10.431,4.155 3.255,-10.745 c 0.281,-0.916 1.58,-0.916 1.857,0 z"
   id="path34" />
	<path
   style="fill:#f5f5f5"
   d="m 418.461,249.512 -2.613,7.836 -8.259,0.064 c -1.069,0.009 -1.513,1.373 -0.652,2.008 l 6.644,4.907 -2.492,7.875 c -0.322,1.02 0.839,1.863 1.708,1.241 l 6.72,-4.803 6.72,4.803 c 0.87,0.621 2.03,-0.222 1.708,-1.241 l -2.492,-7.875 6.645,-4.907 c 0.861,-0.636 0.417,-1.999 -0.652,-2.008 l -8.259,-0.064 -2.613,-7.836 c -0.34,-1.014 -1.775,-1.014 -2.113,0 z"
   id="path36" />
</g>
<g
   id="g40"
   transform="translate(0,-88.275)">
</g>
<g
   id="g42"
   transform="translate(0,-88.275)">
</g>
<g
   id="g44"
   transform="translate(0,-88.275)">
</g>
<g
   id="g46"
   transform="translate(0,-88.275)">
</g>
<g
   id="g48"
   transform="translate(0,-88.275)">
</g>
<g
   id="g50"
   transform="translate(0,-88.275)">
</g>
<g
   id="g52"
   transform="translate(0,-88.275)">
</g>
<g
   id="g54"
   transform="translate(0,-88.275)">
</g>
<g
   id="g56"
   transform="translate(0,-88.275)">
</g>
<g
   id="g58"
   transform="translate(0,-88.275)">
</g>
<g
   id="g60"
   transform="translate(0,-88.275)">
</g>
<g
   id="g62"
   transform="translate(0,-88.275)">
</g>
<g
   id="g64"
   transform="translate(0,-88.275)">
</g>
<g
   id="g66"
   transform="translate(0,-88.275)">
</g>
<g
   id="g68"
   transform="translate(0,-88.275)">
</g>
</svg>
