<svg xmlns="http://www.w3.org/2000/svg" xml:space="preserve" width="512" height="335.45001"><path style="fill:#4173cd" d="M473.601 335.409H38.34c-21.175 0-38.34-17.165-38.34-38.34V38.34C0 17.165 17.165 0 38.34 0h435.261c21.175 0 38.34 17.165 38.34 38.34v258.729c.001 21.175-17.165 38.34-38.34 38.34z"/><path style="fill:#ffe15a" d="M.057 317.789h511.94v17.653H.057zm0 35.31h511.94v17.653H.057z" transform="translate(0 -88.294)"/><path style="fill:#ff4b55" transform="translate(0 -88.294)" d="m65.282 153.519 11.216-32.841 11.215 32.841 32.844 11.215-32.844 11.215-11.215 32.842-11.216-32.842-32.844-11.215z"/><path style="fill:#f5f5f5" d="m76.498 38.286 9.713 28.441 28.441 9.713-28.441 9.713-9.713 28.441-9.713-28.441-28.441-9.713 28.441-9.713 9.713-28.441m0-11.807-3.611 10.573-9.107 26.67-26.67 9.107-10.573 3.61 10.573 3.61 26.67 9.107 9.107 26.67 3.611 10.573 3.611-10.573 9.107-26.67 26.67-9.107 10.573-3.61-10.573-3.61-26.67-9.107-9.107-26.669z"/></svg>