<svg xmlns="http://www.w3.org/2000/svg" xml:space="preserve" width="512" height="335.45001"><path style="fill:#4173cd" d="M473.654 335.448H38.345C17.167 335.448 0 318.28 0 297.103V38.345C0 17.168 17.167 0 38.345 0h435.309c21.177 0 38.345 17.167 38.345 38.345v258.758c0 21.177-17.168 38.345-38.345 38.345z"/><path style="fill:#ffe15a" transform="translate(0 -88.276)" d="M229.517 88.276h-88.276v123.586H0v88.276h141.241v123.586h88.276V300.138H512v-88.276H229.517z"/><path style="fill:#ff4b55" transform="translate(0 -88.276)" d="M203.034 88.276h-35.31v150.069H0v35.31h167.724v150.069h35.31V273.655H512v-35.31H203.034z"/></svg>