<?xml version="1.0" encoding="UTF-8" standalone="no"?>
<svg
   xmlns:dc="http://purl.org/dc/elements/1.1/"
   xmlns:cc="http://creativecommons.org/ns#"
   xmlns:rdf="http://www.w3.org/1999/02/22-rdf-syntax-ns#"
   xmlns:svg="http://www.w3.org/2000/svg"
   xmlns="http://www.w3.org/2000/svg"
   xmlns:sodipodi="http://sodipodi.sourceforge.net/DTD/sodipodi-0.dtd"
   xmlns:inkscape="http://www.inkscape.org/namespaces/inkscape"
   version="1.1"
   id="Layer_1"
   x="0px"
   y="0px"
   viewBox="0 0 512 335.45001"
   xml:space="preserve"
   sodipodi:docname="azerbaijan.svg"
   width="512"
   height="335.45001"
   inkscape:version="1.0.1 (c497b03c, 2020-09-10)"><metadata
   id="metadata634"><rdf:RDF><cc:Work
       rdf:about=""><dc:format>image/svg+xml</dc:format><dc:type
         rdf:resource="http://purl.org/dc/dcmitype/StillImage" /><dc:title></dc:title></cc:Work></rdf:RDF></metadata><defs
   id="defs632" /><sodipodi:namedview
   pagecolor="#ffffff"
   bordercolor="#666666"
   borderopacity="1"
   objecttolerance="10"
   gridtolerance="10"
   guidetolerance="10"
   inkscape:pageopacity="0"
   inkscape:pageshadow="2"
   inkscape:window-width="1797"
   inkscape:window-height="983"
   id="namedview630"
   showgrid="false"
   inkscape:zoom="1.640625"
   inkscape:cx="256"
   inkscape:cy="256"
   inkscape:window-x="0"
   inkscape:window-y="23"
   inkscape:window-maximized="0"
   inkscape:current-layer="Layer_1" />
<path
   style="fill:#73af00"
   d="m 0,299.209 c 1.077,20.215 17.807,36.277 38.292,36.277 h 435.359 c 21.18,0 38.349,-17.169 38.349,-38.349 V 223.658 H 0 Z"
   id="path587" />
<path
   style="fill:#82afff"
   d="M 473.651,0 H 38.292 C 17.807,0 1.077,16.062 0,36.277 v 75.552 H 512 V 38.35 C 512,17.17 494.831,0 473.651,0 Z"
   id="path589" />
<rect
   y="111.832"
   style="fill:#ff4b55"
   width="512"
   height="111.83"
   id="rect591"
   x="0" />
<g
   id="g597"
   transform="translate(0,-88.257)">
	<path
   style="fill:#f5f5f5"
   d="m 268.071,292.611 c -19.812,0 -35.885,-16.072 -35.885,-35.903 0,-19.795 16.072,-35.903 35.885,-35.903 7.372,0 14.17,2.267 19.835,6.104 0.867,0.588 1.857,-0.553 1.131,-1.308 -8.467,-8.802 -20.45,-14.173 -33.736,-13.72 -22.826,0.779 -41.723,19.08 -43.182,41.873 -1.671,26.107 19.001,47.803 44.74,47.803 12.678,0 24.072,-5.3 32.21,-13.775 0.718,-0.748 -0.274,-1.872 -1.132,-1.289 -5.672,3.848 -12.481,6.118 -19.866,6.118 z"
   id="path593" />
	<path
   style="fill:#f5f5f5"
   d="m 299.486,234.608 3.723,10.468 10.035,-4.77 c 0.756,-0.36 1.545,0.429 1.185,1.185 l -4.771,10.035 10.468,3.723 c 0.789,0.28 0.789,1.396 0,1.676 l -10.468,3.723 4.771,10.035 c 0.36,0.756 -0.429,1.545 -1.185,1.185 l -10.035,-4.77 -3.723,10.469 c -0.28,0.789 -1.396,0.789 -1.676,0 l -3.723,-10.468 -10.035,4.77 c -0.756,0.36 -1.545,-0.429 -1.185,-1.185 l 4.77,-10.035 -10.468,-3.723 c -0.789,-0.28 -0.789,-1.396 0,-1.676 l 10.468,-3.723 -4.77,-10.035 c -0.36,-0.756 0.429,-1.545 1.185,-1.185 l 10.035,4.77 3.723,-10.468 c 0.281,-0.788 1.396,-0.788 1.676,-0.001 z"
   id="path595" />
</g>
<g
   id="g599">
</g>
<g
   id="g601">
</g>
<g
   id="g603">
</g>
<g
   id="g605">
</g>
<g
   id="g607">
</g>
<g
   id="g609">
</g>
<g
   id="g611">
</g>
<g
   id="g613">
</g>
<g
   id="g615">
</g>
<g
   id="g617">
</g>
<g
   id="g619">
</g>
<g
   id="g621">
</g>
<g
   id="g623">
</g>
<g
   id="g625">
</g>
<g
   id="g627">
</g>
</svg>
