<?xml version="1.0" encoding="UTF-8" standalone="no"?>
<svg
   xmlns:dc="http://purl.org/dc/elements/1.1/"
   xmlns:cc="http://creativecommons.org/ns#"
   xmlns:rdf="http://www.w3.org/1999/02/22-rdf-syntax-ns#"
   xmlns:svg="http://www.w3.org/2000/svg"
   xmlns="http://www.w3.org/2000/svg"
   xmlns:sodipodi="http://sodipodi.sourceforge.net/DTD/sodipodi-0.dtd"
   xmlns:inkscape="http://www.inkscape.org/namespaces/inkscape"
   version="1.1"
   id="Layer_1"
   x="0px"
   y="0px"
   viewBox="0 0 512 335.45001"
   xml:space="preserve"
   sodipodi:docname="barbados.svg"
   width="512"
   height="335.45001"
   inkscape:version="1.0.1 (c497b03c, 2020-09-10)"><metadata
   id="metadata243"><rdf:RDF><cc:Work
       rdf:about=""><dc:format>image/svg+xml</dc:format><dc:type
         rdf:resource="http://purl.org/dc/dcmitype/StillImage" /><dc:title></dc:title></cc:Work></rdf:RDF></metadata><defs
   id="defs241" /><sodipodi:namedview
   pagecolor="#ffffff"
   bordercolor="#666666"
   borderopacity="1"
   objecttolerance="10"
   gridtolerance="10"
   guidetolerance="10"
   inkscape:pageopacity="0"
   inkscape:pageshadow="2"
   inkscape:window-width="1797"
   inkscape:window-height="983"
   id="namedview239"
   showgrid="false"
   inkscape:zoom="1.640625"
   inkscape:cx="256"
   inkscape:cy="256"
   inkscape:window-x="0"
   inkscape:window-y="23"
   inkscape:window-maximized="0"
   inkscape:current-layer="Layer_1" />
<path
   style="fill:#41479b"
   d="M 38.345,335.448 H 170.667 V 0 H 38.345 C 17.167,0 0,17.167 0,38.345 v 258.759 c 0,21.177 17.167,38.344 38.345,38.344 z"
   id="path200" />
<rect
   x="170.67"
   y="0.0040004272"
   style="fill:#ffe15a"
   width="170.67"
   height="335.45001"
   id="rect202" />
<path
   style="fill:#41479b"
   d="m 473.655,335.448 c 21.177,0 38.345,-17.167 38.345,-38.345 V 38.345 C 512,17.168 494.833,0 473.655,0 H 341.334 v 335.448 z"
   id="path204" />
<path
   style="fill:#464655"
   d="m 326.621,118.98 c 0,0 -24.564,0 -42.987,18.423 h 12.281 c 0,0 -11.898,21.493 -18.039,58.339 l -12.665,-2.068 V 137.219 L 277.492,141.24 256,88.276 l -21.493,52.966 12.281,-4.095 v 56.527 l -12.665,2.068 c -6.141,-36.845 -18.039,-58.339 -18.039,-58.339 h 12.281 c -18.422,-18.422 -42.986,-18.422 -42.986,-18.422 30.705,36.845 30.705,98.255 30.705,98.255 l 30.705,-5.117 v 41.963 h 18.423 v -41.963 l 30.705,5.117 c -10e-4,0 -10e-4,-61.41 30.704,-98.256 z"
   id="path206" />
<g
   id="g208">
</g>
<g
   id="g210">
</g>
<g
   id="g212">
</g>
<g
   id="g214">
</g>
<g
   id="g216">
</g>
<g
   id="g218">
</g>
<g
   id="g220">
</g>
<g
   id="g222">
</g>
<g
   id="g224">
</g>
<g
   id="g226">
</g>
<g
   id="g228">
</g>
<g
   id="g230">
</g>
<g
   id="g232">
</g>
<g
   id="g234">
</g>
<g
   id="g236">
</g>
</svg>
