<?xml version="1.0" encoding="UTF-8" standalone="no"?>
<svg
   xmlns:dc="http://purl.org/dc/elements/1.1/"
   xmlns:cc="http://creativecommons.org/ns#"
   xmlns:rdf="http://www.w3.org/1999/02/22-rdf-syntax-ns#"
   xmlns:svg="http://www.w3.org/2000/svg"
   xmlns="http://www.w3.org/2000/svg"
   xmlns:sodipodi="http://sodipodi.sourceforge.net/DTD/sodipodi-0.dtd"
   xmlns:inkscape="http://www.inkscape.org/namespaces/inkscape"
   version="1.1"
   id="Layer_1"
   x="0px"
   y="0px"
   viewBox="0 0 511.9 335.45002"
   xml:space="preserve"
   sodipodi:docname="belgium.svg"
   width="511.89999"
   height="335.45001"
   inkscape:version="1.0.1 (c497b03c, 2020-09-10)"><metadata
   id="metadata458"><rdf:RDF><cc:Work
       rdf:about=""><dc:format>image/svg+xml</dc:format><dc:type
         rdf:resource="http://purl.org/dc/dcmitype/StillImage" /><dc:title></dc:title></cc:Work></rdf:RDF></metadata><defs
   id="defs456" /><sodipodi:namedview
   pagecolor="#ffffff"
   bordercolor="#666666"
   borderopacity="1"
   objecttolerance="10"
   gridtolerance="10"
   guidetolerance="10"
   inkscape:pageopacity="0"
   inkscape:pageshadow="2"
   inkscape:window-width="1797"
   inkscape:window-height="983"
   id="namedview454"
   showgrid="false"
   inkscape:zoom="1.6409455"
   inkscape:cx="255.95"
   inkscape:cy="255.95"
   inkscape:window-x="0"
   inkscape:window-y="23"
   inkscape:window-maximized="0"
   inkscape:current-layer="Layer_1" />
<path
   style="fill:#ffe15a"
   d="M 473.7,335.4 H 38.3 C 17.2,335.4 0,318.3 0,297.1 V 38.3 C 0,17.1 17.2,0 38.3,0 h 435.3 c 21.2,0 38.3,17.2 38.3,38.3 v 258.8 c 0.1,21.2 -17.1,38.3 -38.2,38.3 z"
   id="path417" />
<path
   style="fill:#464655"
   d="M 38.3,0 C 17.2,0 0,17.1 0,38.3 v 258.8 c 0,21.2 17.2,38.3 38.3,38.3 H 170.6 V 0 Z"
   id="path419" />
<path
   style="fill:#ff4b55"
   d="M 473.7,0 H 341.3 v 0 335.4 0 h 132.3 c 21.2,0 38.3,-17.2 38.3,-38.3 V 38.3 C 512,17.1 494.8,0 473.7,0 Z"
   id="path421" />
<g
   id="g423">
</g>
<g
   id="g425">
</g>
<g
   id="g427">
</g>
<g
   id="g429">
</g>
<g
   id="g431">
</g>
<g
   id="g433">
</g>
<g
   id="g435">
</g>
<g
   id="g437">
</g>
<g
   id="g439">
</g>
<g
   id="g441">
</g>
<g
   id="g443">
</g>
<g
   id="g445">
</g>
<g
   id="g447">
</g>
<g
   id="g449">
</g>
<g
   id="g451">
</g>
</svg>
