<?xml version="1.0" encoding="UTF-8" standalone="no"?>
<svg
   xmlns:dc="http://purl.org/dc/elements/1.1/"
   xmlns:cc="http://creativecommons.org/ns#"
   xmlns:rdf="http://www.w3.org/1999/02/22-rdf-syntax-ns#"
   xmlns:svg="http://www.w3.org/2000/svg"
   xmlns="http://www.w3.org/2000/svg"
   xmlns:sodipodi="http://sodipodi.sourceforge.net/DTD/sodipodi-0.dtd"
   xmlns:inkscape="http://www.inkscape.org/namespaces/inkscape"
   version="1.1"
   id="Layer_1"
   x="0px"
   y="0px"
   viewBox="0 0 512.00001 335.45002"
   xml:space="preserve"
   sodipodi:docname="burundi-svgrepo-com.svg"
   width="512"
   height="335.45001"
   inkscape:version="1.0.1 (c497b03c, 2020-09-10)"><metadata
   id="metadata159"><rdf:RDF><cc:Work
       rdf:about=""><dc:format>image/svg+xml</dc:format><dc:type
         rdf:resource="http://purl.org/dc/dcmitype/StillImage" /><dc:title></dc:title></cc:Work></rdf:RDF></metadata><defs
   id="defs157" /><sodipodi:namedview
   pagecolor="#ffffff"
   bordercolor="#666666"
   borderopacity="1"
   objecttolerance="10"
   gridtolerance="10"
   guidetolerance="10"
   inkscape:pageopacity="0"
   inkscape:pageshadow="2"
   inkscape:window-width="1797"
   inkscape:window-height="983"
   id="namedview155"
   showgrid="false"
   inkscape:zoom="1.6406282"
   inkscape:cx="334.72466"
   inkscape:cy="255.9995"
   inkscape:window-x="0"
   inkscape:window-y="23"
   inkscape:window-maximized="0"
   inkscape:current-layer="Layer_1" />
<path
   style="fill:#73af00;stroke-width:0.999796"
   d="M 473.65193,0.05097918 H 38.292075 C 17.807035,0.05097918 1.0770021,16.105422 0,36.313169 V 299.13883 c 1.042002,19.55201 16.739033,35.21562 36.311071,36.21121 H 475.63193 C 495.89097,334.31946 512,317.5743 512,297.06768 V 38.384324 C 512.001,17.21297 494.83197,0.05097918 473.65193,0.05097918 Z"
   id="path102" />
<g
   id="g108"
   transform="matrix(1,0,0,0.99959176,0,-88.169991)">
	<polygon
   style="fill:#ff4b55"
   points="471.787,88.206 40.27,88.206 256.029,229.565 "
   id="polygon104" />
	<polygon
   style="fill:#ff4b55"
   points="40.27,423.793 471.787,423.793 256.029,282.434 "
   id="polygon106" />
</g>
<path
   style="fill:#f5f5f5;stroke-width:0.999796"
   d="m 473.65193,0.05097918 h -1.94101 L 307.7316,107.43912 C 293.82957,95.505995 275.79154,88.248959 256.0295,88.248959 c -19.76304,0 -37.80107,7.256036 -51.7021,19.190161 L 40.349079,0.05097918 H 38.292075 C 20.936041,0.05097918 6.2810123,11.578271 1.552003,27.389814 L 180.07935,144.30706 c -2.272,7.38899 -3.50701,15.23378 -3.50701,23.36746 0,8.13368 1.23501,15.97748 3.50701,23.36746 L 1.527003,307.97522 c 4.5220088,15.24877 18.270036,26.53416 34.783068,27.37382 h 3.960008 L 204.3264,227.90892 c 13.90203,11.93313 31.94006,19.19016 51.7021,19.19016 19.76304,0 37.80107,-7.25603 51.7021,-19.19016 l 164.05632,107.44012 h 3.84401 c 16.53703,-0.84066 30.30006,-12.15603 34.80207,-27.43779 L 331.97965,191.04198 c 2.272,-7.38899 3.50701,-15.23378 3.50701,-23.36746 0,-8.13368 -1.23501,-15.97847 -3.50701,-23.36746 L 510.41,27.453788 C 505.70199,11.609259 491.03096,0.05097918 473.65193,0.05097918 Z"
   id="path110" />
<polygon
   style="fill:#ff4b55"
   points="256.029,200.201 261.75,210.728 273.721,210.418 267.469,220.634 273.721,230.851 261.75,230.541 256.029,241.068 250.309,230.541 238.337,230.851 244.588,220.634 238.337,210.418 250.309,210.728 "
   id="polygon112"
   transform="matrix(1,0,0,0.99959176,0,-88.169991)" />
<path
   style="fill:#73af00;stroke-width:0.999796"
   d="m 256.0295,114.72415 4.94401,9.08928 10.34702,-0.26489 -5.40301,8.8254 5.40301,8.82539 -10.34702,-0.26489 -4.94401,9.08929 -4.94401,-9.08929 -10.34702,0.26489 5.40301,-8.82539 -5.40301,-8.8254 10.34702,0.26489 4.94401,-9.08928 m 0,-5.54174 -2.327,4.27825 -4.16901,7.66687 -8.72702,-0.22391 -4.87001,-0.12495 2.54301,4.15431 4.558,7.44296 -4.558,7.44296 -2.54301,4.1543 4.87001,-0.12495 8.72702,-0.22391 4.16901,7.66687 2.327,4.27825 2.327,-4.27825 4.16901,-7.66687 8.72702,0.22391 4.87001,0.12495 -2.54301,-4.1543 -4.558,-7.44296 4.558,-7.44296 2.54301,-4.15431 -4.87001,0.12495 -8.72702,0.22391 -4.16901,-7.66687 z"
   id="path114" />
<polygon
   style="fill:#ff4b55"
   points="223.151,258.718 228.872,269.245 240.842,268.934 234.592,279.151 240.842,289.367 228.872,289.057 223.151,299.584 217.431,289.057 205.46,289.367 211.71,279.151 205.46,268.934 217.431,269.245 "
   id="polygon116"
   transform="matrix(1,0,0,0.99959176,0,-88.169991)" />
<path
   style="fill:#73af00;stroke-width:0.999796"
   d="m 223.15144,173.21626 4.94401,9.08929 10.34702,-0.2649 -5.40301,8.8254 5.40301,8.82539 -10.34702,-0.26489 -4.94401,9.08929 -4.94401,-9.08929 -10.34702,0.26489 5.40301,-8.82539 -5.40301,-8.8254 10.34702,0.2649 4.94401,-9.08929 m 0,-5.54174 -2.32701,4.27825 -4.16901,7.66687 -8.72701,-0.22391 -4.87001,-0.12495 2.543,4.15431 4.55801,7.44296 -4.55801,7.44296 -2.543,4.1533 4.87001,-0.12495 8.72701,-0.22391 4.16901,7.66687 2.32701,4.27826 2.327,-4.27826 4.16901,-7.66687 8.72702,0.22391 4.87001,0.12495 -2.54301,-4.1543 -4.55801,-7.44296 4.55801,-7.44296 2.54301,-4.1543 -4.87001,0.12494 -8.72702,0.22391 -4.16901,-7.66687 z"
   id="path118" />
<polygon
   style="fill:#ff4b55"
   points="288.906,258.718 294.627,269.245 306.599,268.934 300.348,279.151 306.599,289.367 294.627,289.057 288.906,299.584 283.187,289.057 271.215,289.367 277.466,279.151 271.215,268.934 283.187,269.245 "
   id="polygon120"
   transform="matrix(1,0,0,0.99959176,0,-88.169991)" />
<path
   style="fill:#73af00;stroke-width:0.999796"
   d="m 288.90656,173.21626 4.94401,9.08929 10.34702,-0.2649 -5.40301,8.8254 5.40301,8.82539 -10.34702,-0.26489 -4.94401,9.08929 -4.94401,-9.08929 -10.34702,0.26489 5.40301,-8.82539 -5.40301,-8.8254 10.34702,0.2649 4.94401,-9.08929 m 0,-5.54174 -2.327,4.27825 -4.16901,7.66687 -8.72702,-0.22391 -4.87,-0.12495 2.543,4.15431 4.55801,7.44296 -4.55801,7.44296 -2.543,4.1543 4.87,-0.12495 8.72702,-0.22391 4.16901,7.66687 2.327,4.27826 2.32701,-4.27826 4.16901,-7.66687 8.72701,0.22391 4.87001,0.12495 -2.543,-4.1543 -4.55801,-7.44296 4.55801,-7.44296 2.543,-4.15431 -4.87001,0.12495 -8.72701,0.22391 -4.16901,-7.66687 z"
   id="path122" />
<g
   id="g124">
</g>
<g
   id="g126">
</g>
<g
   id="g128">
</g>
<g
   id="g130">
</g>
<g
   id="g132">
</g>
<g
   id="g134">
</g>
<g
   id="g136">
</g>
<g
   id="g138">
</g>
<g
   id="g140">
</g>
<g
   id="g142">
</g>
<g
   id="g144">
</g>
<g
   id="g146">
</g>
<g
   id="g148">
</g>
<g
   id="g150">
</g>
<g
   id="g152">
</g>
</svg>
