<svg xmlns="http://www.w3.org/2000/svg" viewBox="0 0 512.00001 335.45002" xml:space="preserve" width="512" height="335.45001"><path style="fill:#73af00;stroke-width:.999796" d="M473.65193.05098H38.29208C17.80704.05098 1.077 16.10542 0 36.31317v262.82566c1.042 19.55201 16.73903 35.21562 36.31107 36.21121h439.32086C495.89097 334.31946 512 317.5743 512 297.06768V38.38432C512.001 17.21297 494.83197.05098 473.65193.05098z"/><path style="fill:#ff4b55" d="M471.787 88.206H40.27l215.759 141.359zM40.27 423.793h431.517L256.029 282.434z" transform="matrix(1 0 0 .9996 0 -88.17)"/><path style="fill:#f5f5f5;stroke-width:.999796" d="M473.65193.05098h-1.94101L307.7316 107.43912c-13.90203-11.93313-31.94006-19.19016-51.7021-19.19016-19.76304 0-37.80107 7.25604-51.7021 19.19016L40.34908.05098h-2.057C20.93603.05098 6.281 11.57828 1.552 27.3898l178.52735 116.91725c-2.272 7.38899-3.50701 15.23378-3.50701 23.36746 0 8.13368 1.23501 15.97748 3.50701 23.36746L1.527 307.97522c4.52201 15.24877 18.27004 26.53416 34.78307 27.37382h3.96L204.3264 227.90892c13.90203 11.93313 31.94006 19.19016 51.7021 19.19016 19.76304 0 37.80107-7.25603 51.7021-19.19016l164.05632 107.44012h3.84401c16.53703-.84066 30.30006-12.15603 34.80207-27.43779L331.97965 191.04198c2.272-7.38899 3.50701-15.23378 3.50701-23.36746 0-8.13368-1.23501-15.97847-3.50701-23.36746L510.41 27.45379C505.70199 11.60926 491.03096.05098 473.65193.05098z"/><path style="fill:#ff4b55" transform="matrix(1 0 0 .9996 0 -88.17)" d="m256.029 200.201 5.721 10.527 11.971-.31-6.252 10.216 6.252 10.217-11.971-.31-5.721 10.527-5.72-10.527-11.972.31 6.251-10.217-6.251-10.216 11.972.31z"/><path style="fill:#73af00;stroke-width:.999796" d="m256.0295 114.72415 4.94401 9.08928 10.34702-.26489-5.40301 8.8254 5.40301 8.82539-10.34702-.26489-4.94401 9.08929-4.94401-9.08929-10.34702.26489 5.40301-8.82539-5.40301-8.8254 10.34702.26489 4.94401-9.08928m0-5.54174-2.327 4.27825-4.16901 7.66687-8.72702-.22391-4.87001-.12495 2.54301 4.15431 4.558 7.44296-4.558 7.44296-2.54301 4.1543 4.87001-.12495 8.72702-.22391 4.16901 7.66687 2.327 4.27825 2.327-4.27825 4.16901-7.66687 8.72702.22391 4.87001.12495-2.54301-4.1543-4.558-7.44296 4.558-7.44296 2.54301-4.15431-4.87001.12495-8.72702.22391-4.16901-7.66687z"/><path style="fill:#ff4b55" transform="matrix(1 0 0 .9996 0 -88.17)" d="m223.151 258.718 5.721 10.527 11.97-.311-6.25 10.217 6.25 10.216-11.97-.31-5.721 10.527-5.72-10.527-11.971.31 6.25-10.216-6.25-10.217 11.971.311z"/><path style="fill:#73af00;stroke-width:.999796" d="m223.15144 173.21626 4.94401 9.08929 10.34702-.2649-5.40301 8.8254 5.40301 8.82539-10.34702-.26489-4.94401 9.08929-4.94401-9.08929-10.34702.26489 5.40301-8.82539-5.40301-8.8254 10.34702.2649 4.94401-9.08929m0-5.54174-2.32701 4.27825-4.16901 7.66687-8.72701-.22391-4.87001-.12495 2.543 4.15431 4.55801 7.44296-4.55801 7.44296-2.543 4.1533 4.87001-.12495 8.72701-.22391 4.16901 7.66687 2.32701 4.27826 2.327-4.27826 4.16901-7.66687 8.72702.22391 4.87001.12495-2.54301-4.1543-4.55801-7.44296 4.55801-7.44296 2.54301-4.1543-4.87001.12494-8.72702.22391-4.16901-7.66687z"/><path style="fill:#ff4b55" transform="matrix(1 0 0 .9996 0 -88.17)" d="m288.906 258.718 5.721 10.527 11.972-.311-6.251 10.217 6.251 10.216-11.972-.31-5.721 10.527-5.719-10.527-11.972.31 6.251-10.216-6.251-10.217 11.972.311z"/><path style="fill:#73af00;stroke-width:.999796" d="m288.90656 173.21626 4.94401 9.08929 10.34702-.2649-5.40301 8.8254 5.40301 8.82539-10.34702-.26489-4.94401 9.08929-4.94401-9.08929-10.34702.26489 5.40301-8.82539-5.40301-8.8254 10.34702.2649 4.94401-9.08929m0-5.54174-2.327 4.27825-4.16901 7.66687-8.72702-.22391-4.87-.12495 2.543 4.15431 4.55801 7.44296-4.55801 7.44296-2.543 4.1543 4.87-.12495 8.72702-.22391 4.16901 7.66687 2.327 4.27826 2.32701-4.27826 4.16901-7.66687 8.72701.22391 4.87001.12495-2.543-4.1543-4.55801-7.44296 4.55801-7.44296 2.543-4.15431-4.87001.12495-8.72701.22391-4.16901-7.66687z"/></svg>