<svg xmlns="http://www.w3.org/2000/svg" xml:space="preserve" width="512" height="335.45001"><path style="fill:#f5f5f5" d="M473.655 335.448H38.345C17.167 335.448 0 318.281 0 297.103V38.345C0 17.168 17.167 0 38.345 0h435.31C494.832 0 512 17.167 512 38.345v258.759c0 21.177-17.167 38.344-38.345 38.344z"/><path style="fill:#ffecd7" d="M208.865 322.152c-20.38-4.652-38.549-15.174-52.606-29.714v31.097c15.339 11.188 33.236 19.028 52.606 22.613zm94.22 0c20.38-4.652 38.549-15.174 52.606-29.714v31.097c-15.339 11.188-33.236 19.028-52.606 22.613z" transform="translate(0 -88.276)"/><path style="fill:#ffe15a" d="M199.836 254.75c-.981.196-2.356 2.748-2.748 7.066-.393 4.319-3.14 22.573-9.03 20.61-5.889-1.963-9.814-10.6-9.814-10.6L170 283.8s5.496-2.159 11.189.393c5.693 2.552 7.066 3.926 8.637 2.356 1.57-1.57 5.3-6.281 8.244-5.889l3.337-23.752zm-32.584 39.062s-1.374 11.385-.589 12.759c.786 1.374 22.377 6.477 22.377 6.477s-6.281 5.103-6.477 7.852c0 0-7.656 1.374-10.403 3.73l-10.207-16.881-.393-13.937h5.692z" transform="translate(0 -88.276)"/><path style="fill:#ffecd7" d="m160.43 101.993.147-5.889s-6.92-.736-7.802 14.869l-2.503-6.92s-5.153 6.92-2.061 18.108l-1.325 1.031s-6.772-8.98-10.894-20.61c0 0-6.92 5.447 1.177 20.905l-10.01-12.661s-5.005 10.6 10.01 23.261l-14.133-10.01s-.883 11.484 12.808 18.844l-13.692-7.361s.441 11.041 16.341 16.489l-15.017-2.797s3.802 9.027 14.906 11.463c-2.332 2.603-4.486 6.101-5.043 10.62l11.189-6.184s-5.3 5.447-3.828 12.956l17.225-17.225-2.354-1.053c13.031-2.444 10.304-3.364 10.304-3.364s-9.619-24.733-3.14-41.81c6.477-17.077 12.17-19.433 12.17-20.218.001-.787-6.967-1.72-14.475 7.556z"/><path style="fill:#ffe15a" d="M173.729 111.905s22.377 23.555 22.77 25.715c.393 2.159-2.356 1.767-2.356 1.767s-5.496-7.066-12.956-9.814c-7.459-2.748-12.366-11.385-15.31-13.347-2.944-1.965 7.852-4.321 7.852-4.321z"/><path style="fill:#fff5e1" d="M166.27 117.598c2.944.981 9.619-.393 9.422-6.477-.196-6.086-6.281-8.44-10.796-7.066-4.514 1.374-12.956 7.656-7.656 19.826 5.3 12.17 13.152 16.685 14.722 27.089 0 0-7.066 1.079-10.796.196-3.206-.759-8.637-3.337-7.459-10.403 1.177-7.066 3.926-11.189 1.57-15.115s-9.814-10.796-9.814-10.796-16.096 41.222 12.956 52.018c0 0-13.74 13.152-20.61 25.91l4.122 1.177s-7.263 7.852-11.385 10.796c0 0 13.544 4.711 26.892-10.6 0 0 3.337 5.496 4.122 11.385h5.693s1.963-9.422 10.993-17.273c9.03-7.852 18.194-19.048 17.273-29.248-1.079-11.974-10.097-17.361-19.482-24.782-12.663-10.012-9.767-16.637-9.767-16.637z"/><path style="fill:#ffe15a" d="M312.164 254.75c.981.196 2.356 2.748 2.748 7.066.393 4.319 3.14 22.573 9.03 20.61 5.889-1.963 9.815-10.6 9.815-10.6l8.244 11.974s-5.496-2.159-11.189.393c-5.693 2.552-7.066 3.926-8.637 2.356-1.57-1.57-5.3-6.281-8.244-5.889l-3.337-23.752zm32.584 39.062s1.374 11.385.589 12.759c-.786 1.374-22.377 6.477-22.377 6.477s6.281 5.103 6.477 7.852c0 0 7.656 1.374 10.403 3.73l10.207-16.881.393-13.937h-5.693z" transform="translate(0 -88.276)"/><path style="fill:#ffecd7" d="m351.57 101.993-.147-5.889s6.92-.736 7.802 14.869l2.503-6.92s5.153 6.92 2.061 18.108l1.325 1.031s6.772-8.98 10.894-20.61c0 0 6.92 5.447-1.177 20.905l10.01-12.661s5.005 10.6-10.01 23.261l14.133-10.01s.884 11.484-12.808 18.844l13.692-7.361s-.441 11.041-16.341 16.489l15.017-2.797s-3.802 9.027-14.906 11.463c2.332 2.603 4.486 6.101 5.043 10.62l-11.189-6.184s5.3 5.447 3.828 12.956l-17.225-17.225 2.354-1.053c-13.032-2.444-10.304-3.364-10.304-3.364s9.619-24.733 3.14-41.81c-6.478-17.077-12.17-19.433-12.17-20.218-.001-.787 6.967-1.72 14.475 7.556z"/><path style="fill:#ffe15a" d="M338.271 111.905s-22.377 23.555-22.77 25.715c-.393 2.159 2.356 1.767 2.356 1.767s5.496-7.066 12.956-9.814c7.459-2.748 12.366-11.385 15.31-13.347 2.944-1.962-7.852-4.321-7.852-4.321z"/><path style="fill:#fff5e1" d="M345.73 117.598c-2.944.981-9.619-.393-9.422-6.477.196-6.086 6.281-8.44 10.796-7.066 4.514 1.374 12.956 7.656 7.656 19.826-5.3 12.17-13.152 16.685-14.722 27.089 0 0 7.066 1.079 10.796.196 3.206-.759 8.637-3.337 7.459-10.403-1.177-7.066-3.926-11.189-1.57-15.115s9.814-10.796 9.814-10.796 16.096 41.222-12.956 52.018c0 0 13.74 13.152 20.61 25.91l-4.122 1.177s7.263 7.852 11.385 10.796c0 0-13.544 4.711-26.892-10.6 0 0-3.337 5.496-4.122 11.385h-5.693s-1.963-9.422-10.993-17.273c-9.03-7.852-18.194-19.048-17.273-29.248 1.079-11.974 10.097-17.361 19.482-24.782 12.663-10.012 9.767-16.637 9.767-16.637z"/><path style="fill:#464655" d="M199.45 77.754h113.06v22.77H199.45z"/><path style="fill:#41479b" d="M255.976 95.809h-56.532v75.377c0 14.133 9.422 51.821 56.532 65.954 47.11-14.133 56.532-51.821 56.532-65.954V95.809z"/><path style="fill:#ff4b55" d="M199.444 171.186c0 3.502.585 8.456 2.172 14.133h108.721c1.587-5.677 2.172-10.631 2.172-14.133V142.92H199.444z"/><path style="fill:#f5f5f5" d="m255.976 265.586 6.595 3.297-6.595-16.488-6.596 16.488zm0-26.382-6.596-3.298 6.596 16.489 6.595-16.489zm-13.191 13.191-3.298 6.595 16.489-6.595-16.489-6.595zm26.381 0 3.297-6.595-16.487 6.595 16.487 6.595z" transform="translate(0 -88.276)"/><path style="fill:#ffe15a" d="M263.382 200.743c-1.1.177-2.067.317-2.941.776.992-2.479 1.692-4.806 1.076-6.435-1.505-3.985-4.399-3.272-5.514-6.177v-.11c-.008.022-.02.034-.028.055-.008-.022-.02-.034-.028-.055v.11c-1.114 2.905-4.009 2.193-5.514 6.177-.616 1.63.084 3.955 1.076 6.435-.873-.459-1.841-.6-2.942-.776-2.246-.36-5.658 1.976-4.94 6.467s5.928 4.851 5.928 4.851c-.718-.718-1.347-1.886-.988-3.144.36-1.258 2.964-2.335 4.311 1.886 1.347 4.222-3.233 10.24-3.233 10.24 1.568-.083 2.713-.572 3.54-1.067-1.087 3.545 2.47 6.289 2.761 6.504v.042l.028-.021c.003.002.028.021.028.021v-.042c.291-.215 3.848-2.958 2.761-6.503.826.495 1.972.983 3.54 1.066 0 0-4.58-6.018-3.233-10.24s3.953-3.144 4.311-1.886c.36 1.258-.269 2.425-.988 3.144 0 0 5.209-.36 5.928-4.851.72-4.491-2.693-6.827-4.939-6.467zm34.666 0c-1.1.177-2.067.317-2.941.776.992-2.479 1.692-4.806 1.076-6.435-1.505-3.985-4.399-3.272-5.514-6.177v-.11c-.008.022-.02.034-.028.055-.008-.022-.02-.034-.028-.055v.11c-1.114 2.905-4.009 2.193-5.514 6.177-.616 1.63.084 3.955 1.076 6.435-.873-.459-1.841-.6-2.942-.776-2.246-.36-5.658 1.976-4.94 6.467s5.928 4.851 5.928 4.851c-.718-.718-1.347-1.886-.988-3.144.36-1.258 2.964-2.335 4.311 1.886s-3.233 10.24-3.233 10.24c1.568-.083 2.713-.572 3.54-1.067-1.087 3.545 2.47 6.289 2.761 6.504v.042l.028-.021c.003.002.028.021.028.021v-.042c.291-.215 3.848-2.958 2.761-6.503.826.495 1.972.983 3.54 1.066 0 0-4.58-6.018-3.233-10.24s3.953-3.144 4.311-1.886c.36 1.258-.269 2.425-.988 3.144 0 0 5.209-.36 5.928-4.851.719-4.491-2.693-6.827-4.939-6.467zm-69.332 0c-1.1.177-2.067.317-2.941.776.992-2.479 1.692-4.806 1.076-6.435-1.505-3.985-4.399-3.272-5.514-6.177v-.11c-.008.022-.02.034-.028.055-.008-.022-.02-.034-.028-.055v.11c-1.114 2.905-4.009 2.193-5.514 6.177-.616 1.63.084 3.955 1.076 6.435-.873-.459-1.841-.6-2.942-.776-2.246-.36-5.658 1.976-4.94 6.467s5.928 4.851 5.928 4.851c-.718-.718-1.347-1.886-.988-3.144.36-1.258 2.964-2.335 4.311 1.886s-3.233 10.24-3.233 10.24c1.568-.083 2.713-.572 3.54-1.067-1.087 3.545 2.47 6.289 2.761 6.504v.042l.028-.021c.003.002.028.021.028.021v-.042c.291-.215 3.848-2.958 2.761-6.503.826.495 1.972.983 3.54 1.066 0 0-4.58-6.018-3.233-10.24s3.953-3.144 4.311-1.886c.36 1.258-.269 2.425-.988 3.144 0 0 5.209-.36 5.928-4.851.72-4.491-2.693-6.827-4.939-6.467zm38.316 97.066s-2.519-.395-2.72 2.143c0 0 0 .29-.012.693-.311-.147-.65-.244-1.017-.244-1.331 0-2.41 1.079-2.41 2.411 0 1.331 1.079 2.41 2.41 2.41.106 0 .196-.047.298-.061-.359 1.149-.929 2.195-1.73 2.951h-3.218c-.846-.937-1.103-2.771-1.159-4.099.052.003.092.04.145.04 1.092 0 1.977-.886 1.977-1.977 0-1.079-.866-1.949-1.94-1.97.171-.292.296-.615.296-.978 0-1.092-.885-1.977-1.977-1.977s-1.977.886-1.977 1.977c0 .363.125.685.296.978-1.074.022-1.94.892-1.94 1.97 0 1.092.886 1.977 1.977 1.977.053 0 .093-.035.145-.04-.054 1.329-.312 3.162-1.159 4.099h-3.218c-.801-.756-1.372-1.803-1.73-2.951.103.013.192.061.298.061 1.331 0 2.41-1.079 2.41-2.41 0-1.331-1.079-2.411-2.41-2.411-.367 0-.706.096-1.017.244-.012-.403-.012-.693-.012-.693-.201-2.538-2.72-2.143-2.72-2.143 1.566 4.78 1.154 10.304 1.154 10.304v4.86h19.778v-4.849l.029-.011s-.413-5.524 1.153-10.304zm-23.113-18.844s-2.519-.395-2.72 2.143c0 0 0 .29-.012.693-.311-.147-.65-.244-1.017-.244-1.331 0-2.41 1.079-2.41 2.41 0 1.331 1.079 2.411 2.41 2.411.106 0 .196-.047.298-.061-.359 1.149-.929 2.195-1.73 2.951h-3.218c-.846-.937-1.103-2.771-1.159-4.099.052.004.092.04.145.04 1.092 0 1.977-.886 1.977-1.977 0-1.079-.866-1.949-1.94-1.97.171-.292.296-.615.296-.978 0-1.092-.885-1.977-1.977-1.977s-1.977.886-1.977 1.977c0 .363.125.685.296.978-1.074.022-1.94.892-1.94 1.97 0 1.092.886 1.977 1.977 1.977.053 0 .093-.035.145-.04-.054 1.329-.312 3.162-1.159 4.099h-3.218c-.801-.756-1.372-1.803-1.73-2.951.103.013.192.061.298.061 1.331 0 2.41-1.079 2.41-2.411 0-1.331-1.079-2.41-2.41-2.41-.367 0-.706.096-1.017.244-.012-.403-.012-.693-.012-.693-.201-2.538-2.72-2.143-2.72-2.143 1.566 4.78 1.154 10.304 1.154 10.304v4.86h19.778v-4.849l.029-.011c-.001-.001-.412-5.525 1.153-10.304zm46.227 0s-2.519-.395-2.72 2.143c0 0 0 .29-.012.693-.311-.147-.65-.244-1.017-.244-1.331 0-2.411 1.079-2.411 2.41 0 1.331 1.079 2.411 2.411 2.411.106 0 .196-.047.298-.061-.359 1.149-.929 2.195-1.73 2.951h-3.218c-.846-.937-1.103-2.771-1.159-4.099.052.004.092.04.145.04 1.092 0 1.977-.886 1.977-1.977 0-1.079-.866-1.949-1.94-1.97.171-.292.296-.615.296-.978 0-1.092-.885-1.977-1.977-1.977s-1.977.886-1.977 1.977c0 .363.125.685.296.978-1.074.022-1.94.892-1.94 1.97 0 1.092.886 1.977 1.977 1.977.053 0 .093-.035.145-.04-.054 1.329-.312 3.162-1.159 4.099h-3.218c-.801-.756-1.372-1.803-1.73-2.951.103.013.192.061.298.061 1.331 0 2.41-1.079 2.41-2.411 0-1.331-1.079-2.41-2.41-2.41-.367 0-.706.096-1.017.244-.012-.403-.012-.693-.012-.693-.201-2.538-2.72-2.143-2.72-2.143 1.566 4.78 1.154 10.304 1.154 10.304v4.86h19.778v-4.849l.029-.011c-.001-.001-.413-5.525 1.153-10.304zm38.992-123.767c-2.711-1.077-5.441-2.091-8.185-3.043-.768 2.226-1.535 4.451-2.303 6.678-1.324-.458-2.652-.905-3.982-1.334.719-2.243 1.438-4.484 2.157-6.728-2.76-.891-5.535-1.719-8.322-2.484-.621 2.272-1.241 4.543-1.862 6.815-1.344-.37-2.691-.724-4.042-1.064.572-2.285 1.142-4.569 1.714-6.855-2.799-.704-5.611-1.346-8.431-1.926-.942 4.615-1.886 9.23-2.829 13.845 1.747.36 3.49.744 5.229 1.154-.359 1.528-.717 3.057-1.076 4.586-10.166-2.4-20.491-3.901-30.855-4.5.09-1.568.181-3.135.27-4.704 1.772.103 3.544.232 5.313.385.406-4.693.812-9.386 1.217-14.08-2.857-.248-5.718-.435-8.582-.559-.102 2.354-.203 4.706-.305 7.06-1.38-.06-2.762-.105-4.143-.135.051-2.355.102-4.711.152-7.064-2.865-.062-5.73-.062-8.595 0 .051 2.355.102 4.71.152 7.064-1.382.03-2.763.075-4.143.135-.102-2.354-.203-4.706-.305-7.06-2.863.124-5.724.31-8.582.559.406 4.693.812 9.387 1.217 14.08 1.77-.153 3.541-.282 5.313-.385.09 1.568.181 3.136.27 4.704-10.365.6-20.689 2.1-30.855 4.5-.359-1.528-.717-3.057-1.076-4.586 1.739-.412 3.481-.796 5.229-1.154l-2.829-13.845c-2.82.579-5.632 1.222-8.431 1.926.572 2.285 1.142 4.57 1.714 6.855-1.351.34-2.698.694-4.042 1.064-.62-2.272-1.241-4.544-1.862-6.815-2.787.767-5.562 1.594-8.322 2.484.719 2.243 1.438 4.484 2.157 6.728-1.331.429-2.658.875-3.982 1.334-.768-2.226-1.535-4.451-2.303-6.678-2.745.953-5.474 1.967-8.185 3.043 1.729 4.38 3.458 8.76 5.187 13.141 1.679-.666 3.367-1.309 5.06-1.923 2.134 5.906 4.267 11.81 6.401 17.716 4.564-1.66 9.183-3.111 13.842-4.354 1.554-.414 3.111-.808 4.672-1.175 9.37-2.211 18.887-3.595 28.439-4.148 6.368-.369 12.753-.367 19.121 0 9.553.552 19.069 1.935 28.439 4.148 1.561.37 3.119.76 4.672 1.175 4.66 1.245 9.278 2.696 13.842 4.354 2.134-5.907 4.267-11.81 6.401-17.716 1.694.616 3.381 1.257 5.06 1.923 1.73-4.381 3.46-8.762 5.189-13.141z" transform="translate(0 -88.276)"/><path style="fill:#ffe1cd" d="M255.976 291.316c28.104 0 54.123-9.024 75.377-24.286v-30.834c-19.23 19.47-45.913 31.563-75.377 31.563-29.871 0-56.876-12.439-76.161-32.387v31.097c21.393 15.608 47.712 24.847 76.161 24.847z"/></svg>