<?xml version="1.0" encoding="UTF-8" standalone="no"?>
<svg
   xmlns:dc="http://purl.org/dc/elements/1.1/"
   xmlns:cc="http://creativecommons.org/ns#"
   xmlns:rdf="http://www.w3.org/1999/02/22-rdf-syntax-ns#"
   xmlns:svg="http://www.w3.org/2000/svg"
   xmlns="http://www.w3.org/2000/svg"
   xmlns:sodipodi="http://sodipodi.sourceforge.net/DTD/sodipodi-0.dtd"
   xmlns:inkscape="http://www.inkscape.org/namespaces/inkscape"
   version="1.1"
   id="Layer_1"
   x="0px"
   y="0px"
   viewBox="0 0 512 335.45001"
   xml:space="preserve"
   sodipodi:docname="bl.svg"
   width="512"
   height="335.45001"
   inkscape:version="1.0.1 (c497b03c, 2020-09-10)"><metadata
   id="metadata587"><rdf:RDF><cc:Work
       rdf:about=""><dc:format>image/svg+xml</dc:format><dc:type
         rdf:resource="http://purl.org/dc/dcmitype/StillImage" /><dc:title></dc:title></cc:Work></rdf:RDF></metadata><defs
   id="defs585" /><sodipodi:namedview
   pagecolor="#ffffff"
   bordercolor="#666666"
   borderopacity="1"
   objecttolerance="10"
   gridtolerance="10"
   guidetolerance="10"
   inkscape:pageopacity="0"
   inkscape:pageshadow="2"
   inkscape:window-width="1138"
   inkscape:window-height="816"
   id="namedview583"
   showgrid="false"
   inkscape:zoom="1.2207031"
   inkscape:cx="256"
   inkscape:cy="256"
   inkscape:window-x="0"
   inkscape:window-y="23"
   inkscape:window-maximized="0"
   inkscape:current-layer="Layer_1" />
<path
   style="fill:#f5f5f5"
   d="M 473.655,335.448 H 38.345 C 17.167,335.448 0,318.281 0,297.103 V 38.345 C 0,17.168 17.167,0 38.345,0 h 435.31 C 494.832,0 512,17.167 512,38.345 v 258.759 c 0,21.177 -17.167,38.344 -38.345,38.344 z"
   id="path486" />
<g
   id="g492"
   transform="translate(0,-88.276)">
	<path
   style="fill:#ffecd7"
   d="m 208.865,322.152 c -20.38,-4.652 -38.549,-15.174 -52.606,-29.714 v 31.097 c 15.339,11.188 33.236,19.028 52.606,22.613 z"
   id="path488" />
	<path
   style="fill:#ffecd7"
   d="m 303.085,322.152 c 20.38,-4.652 38.549,-15.174 52.606,-29.714 v 31.097 c -15.339,11.188 -33.236,19.028 -52.606,22.613 z"
   id="path490" />
</g>
<g
   id="g498"
   transform="translate(0,-88.276)">
	<path
   style="fill:#ffe15a"
   d="m 199.836,254.75 c -0.981,0.196 -2.356,2.748 -2.748,7.066 -0.393,4.319 -3.14,22.573 -9.03,20.61 -5.889,-1.963 -9.814,-10.6 -9.814,-10.6 L 170,283.8 c 0,0 5.496,-2.159 11.189,0.393 5.693,2.552 7.066,3.926 8.637,2.356 1.57,-1.57 5.3,-6.281 8.244,-5.889 l 3.337,-23.752 z"
   id="path494" />
	<path
   style="fill:#ffe15a"
   d="m 167.252,293.812 c 0,0 -1.374,11.385 -0.589,12.759 0.786,1.374 22.377,6.477 22.377,6.477 0,0 -6.281,5.103 -6.477,7.852 0,0 -7.656,1.374 -10.403,3.73 l -10.207,-16.881 -0.393,-13.937 h 5.692 z"
   id="path496" />
</g>
<path
   style="fill:#ffecd7"
   d="m 160.43,101.993 0.147,-5.889 c 0,0 -6.92,-0.736 -7.802,14.869 l -2.503,-6.92 c 0,0 -5.153,6.92 -2.061,18.108 l -1.325,1.031 c 0,0 -6.772,-8.98 -10.894,-20.61 0,0 -6.92,5.447 1.177,20.905 l -10.01,-12.661 c 0,0 -5.005,10.6 10.01,23.261 l -14.133,-10.01 c 0,0 -0.883,11.484 12.808,18.844 l -13.692,-7.361 c 0,0 0.441,11.041 16.341,16.489 l -15.017,-2.797 c 0,0 3.802,9.027 14.906,11.463 -2.332,2.603 -4.486,6.101 -5.043,10.62 l 11.189,-6.184 c 0,0 -5.3,5.447 -3.828,12.956 l 17.225,-17.225 -2.354,-1.053 c 13.031,-2.444 10.304,-3.364 10.304,-3.364 0,0 -9.619,-24.733 -3.14,-41.81 6.477,-17.077 12.17,-19.433 12.17,-20.218 0.001,-0.787 -6.967,-1.72 -14.475,7.556 z"
   id="path500" />
<path
   style="fill:#ffe15a"
   d="m 173.729,111.905 c 0,0 22.377,23.555 22.77,25.715 0.393,2.159 -2.356,1.767 -2.356,1.767 0,0 -5.496,-7.066 -12.956,-9.814 -7.459,-2.748 -12.366,-11.385 -15.31,-13.347 -2.944,-1.965 7.852,-4.321 7.852,-4.321 z"
   id="path502" />
<path
   style="fill:#fff5e1"
   d="m 166.27,117.598 c 2.944,0.981 9.619,-0.393 9.422,-6.477 -0.196,-6.086 -6.281,-8.44 -10.796,-7.066 -4.514,1.374 -12.956,7.656 -7.656,19.826 5.3,12.17 13.152,16.685 14.722,27.089 0,0 -7.066,1.079 -10.796,0.196 -3.206,-0.759 -8.637,-3.337 -7.459,-10.403 1.177,-7.066 3.926,-11.189 1.57,-15.115 -2.356,-3.926 -9.814,-10.796 -9.814,-10.796 0,0 -16.096,41.222 12.956,52.018 0,0 -13.74,13.152 -20.61,25.91 l 4.122,1.177 c 0,0 -7.263,7.852 -11.385,10.796 0,0 13.544,4.711 26.892,-10.6 0,0 3.337,5.496 4.122,11.385 h 5.693 c 0,0 1.963,-9.422 10.993,-17.273 9.03,-7.852 18.194,-19.048 17.273,-29.248 -1.079,-11.974 -10.097,-17.361 -19.482,-24.782 -12.663,-10.012 -9.767,-16.637 -9.767,-16.637 z"
   id="path504" />
<g
   id="g510"
   transform="translate(0,-88.276)">
	<path
   style="fill:#ffe15a"
   d="m 312.164,254.75 c 0.981,0.196 2.356,2.748 2.748,7.066 0.393,4.319 3.14,22.573 9.03,20.61 5.889,-1.963 9.815,-10.6 9.815,-10.6 l 8.244,11.974 c 0,0 -5.496,-2.159 -11.189,0.393 -5.693,2.552 -7.066,3.926 -8.637,2.356 -1.57,-1.57 -5.3,-6.281 -8.244,-5.889 l -3.337,-23.752 z"
   id="path506" />
	<path
   style="fill:#ffe15a"
   d="m 344.748,293.812 c 0,0 1.374,11.385 0.589,12.759 -0.786,1.374 -22.377,6.477 -22.377,6.477 0,0 6.281,5.103 6.477,7.852 0,0 7.656,1.374 10.403,3.73 l 10.207,-16.881 0.393,-13.937 h -5.693 v 0 z"
   id="path508" />
</g>
<path
   style="fill:#ffecd7"
   d="m 351.57,101.993 -0.147,-5.889 c 0,0 6.92,-0.736 7.802,14.869 l 2.503,-6.92 c 0,0 5.153,6.92 2.061,18.108 l 1.325,1.031 c 0,0 6.772,-8.98 10.894,-20.61 0,0 6.92,5.447 -1.177,20.905 l 10.01,-12.661 c 0,0 5.005,10.6 -10.01,23.261 l 14.133,-10.01 c 0,0 0.884,11.484 -12.808,18.844 l 13.692,-7.361 c 0,0 -0.441,11.041 -16.341,16.489 l 15.017,-2.797 c 0,0 -3.802,9.027 -14.906,11.463 2.332,2.603 4.486,6.101 5.043,10.62 l -11.189,-6.184 c 0,0 5.3,5.447 3.828,12.956 l -17.225,-17.225 2.354,-1.053 c -13.032,-2.444 -10.304,-3.364 -10.304,-3.364 0,0 9.619,-24.733 3.14,-41.81 -6.478,-17.077 -12.17,-19.433 -12.17,-20.218 -0.001,-0.787 6.967,-1.72 14.475,7.556 z"
   id="path512" />
<path
   style="fill:#ffe15a"
   d="m 338.271,111.905 c 0,0 -22.377,23.555 -22.77,25.715 -0.393,2.159 2.356,1.767 2.356,1.767 0,0 5.496,-7.066 12.956,-9.814 7.459,-2.748 12.366,-11.385 15.31,-13.347 2.944,-1.962 -7.852,-4.321 -7.852,-4.321 z"
   id="path514" />
<path
   style="fill:#fff5e1"
   d="m 345.73,117.598 c -2.944,0.981 -9.619,-0.393 -9.422,-6.477 0.196,-6.086 6.281,-8.44 10.796,-7.066 4.514,1.374 12.956,7.656 7.656,19.826 -5.3,12.17 -13.152,16.685 -14.722,27.089 0,0 7.066,1.079 10.796,0.196 3.206,-0.759 8.637,-3.337 7.459,-10.403 -1.177,-7.066 -3.926,-11.189 -1.57,-15.115 2.356,-3.926 9.814,-10.796 9.814,-10.796 0,0 16.096,41.222 -12.956,52.018 0,0 13.74,13.152 20.61,25.91 l -4.122,1.177 c 0,0 7.263,7.852 11.385,10.796 0,0 -13.544,4.711 -26.892,-10.6 0,0 -3.337,5.496 -4.122,11.385 h -5.693 c 0,0 -1.963,-9.422 -10.993,-17.273 -9.03,-7.852 -18.194,-19.048 -17.273,-29.248 1.079,-11.974 10.097,-17.361 19.482,-24.782 12.663,-10.012 9.767,-16.637 9.767,-16.637 z"
   id="path516" />
<rect
   x="199.45"
   y="77.753998"
   style="fill:#464655"
   width="113.06"
   height="22.77"
   id="rect518" />
<path
   style="fill:#41479b"
   d="m 255.976,95.809 h -56.532 c 0,0 0,61.244 0,75.377 0,14.133 9.422,51.821 56.532,65.954 47.11,-14.133 56.532,-51.821 56.532,-65.954 0,-14.133 0,-75.377 0,-75.377 z"
   id="path520" />
<path
   style="fill:#ff4b55"
   d="m 199.444,171.186 c 0,3.502 0.585,8.456 2.172,14.133 h 108.721 c 1.587,-5.677 2.172,-10.631 2.172,-14.133 V 142.92 H 199.444 Z"
   id="path522" />
<g
   id="g532"
   transform="translate(0,-88.276)">
	<polygon
   style="fill:#f5f5f5"
   points="255.976,265.586 262.571,268.883 255.976,252.395 249.38,268.883 "
   id="polygon524" />
	<polygon
   style="fill:#f5f5f5"
   points="255.976,239.204 249.38,235.906 255.976,252.395 262.571,235.906 "
   id="polygon526" />
	<polygon
   style="fill:#f5f5f5"
   points="242.785,252.395 239.487,258.99 255.976,252.395 239.487,245.8 "
   id="polygon528" />
	<polygon
   style="fill:#f5f5f5"
   points="269.166,252.395 272.463,245.8 255.976,252.395 272.463,258.99 "
   id="polygon530" />
</g>
<g
   id="g548"
   transform="translate(0,-88.276)">
	<path
   style="fill:#ffe15a"
   d="m 263.382,200.743 c -1.1,0.177 -2.067,0.317 -2.941,0.776 0.992,-2.479 1.692,-4.806 1.076,-6.435 -1.505,-3.985 -4.399,-3.272 -5.514,-6.177 v -0.11 c -0.008,0.022 -0.02,0.034 -0.028,0.055 -0.008,-0.022 -0.02,-0.034 -0.028,-0.055 v 0.11 c -1.114,2.905 -4.009,2.193 -5.514,6.177 -0.616,1.63 0.084,3.955 1.076,6.435 -0.873,-0.459 -1.841,-0.6 -2.942,-0.776 -2.246,-0.36 -5.658,1.976 -4.94,6.467 0.718,4.491 5.928,4.851 5.928,4.851 -0.718,-0.718 -1.347,-1.886 -0.988,-3.144 0.36,-1.258 2.964,-2.335 4.311,1.886 1.347,4.222 -3.233,10.24 -3.233,10.24 1.568,-0.083 2.713,-0.572 3.54,-1.067 -1.087,3.545 2.47,6.289 2.761,6.504 v 0.042 l 0.028,-0.021 c 0.003,0.002 0.028,0.021 0.028,0.021 v -0.042 c 0.291,-0.215 3.848,-2.958 2.761,-6.503 0.826,0.495 1.972,0.983 3.54,1.066 0,0 -4.58,-6.018 -3.233,-10.24 1.347,-4.222 3.953,-3.144 4.311,-1.886 0.36,1.258 -0.269,2.425 -0.988,3.144 0,0 5.209,-0.36 5.928,-4.851 0.72,-4.491 -2.693,-6.827 -4.939,-6.467 z"
   id="path534" />
	<path
   style="fill:#ffe15a"
   d="m 298.048,200.743 c -1.1,0.177 -2.067,0.317 -2.941,0.776 0.992,-2.479 1.692,-4.806 1.076,-6.435 -1.505,-3.985 -4.399,-3.272 -5.514,-6.177 v -0.11 c -0.008,0.022 -0.02,0.034 -0.028,0.055 -0.008,-0.022 -0.02,-0.034 -0.028,-0.055 v 0.11 c -1.114,2.905 -4.009,2.193 -5.514,6.177 -0.616,1.63 0.084,3.955 1.076,6.435 -0.873,-0.459 -1.841,-0.6 -2.942,-0.776 -2.246,-0.36 -5.658,1.976 -4.94,6.467 0.718,4.491 5.928,4.851 5.928,4.851 -0.718,-0.718 -1.347,-1.886 -0.988,-3.144 0.36,-1.258 2.964,-2.335 4.311,1.886 1.347,4.221 -3.233,10.24 -3.233,10.24 1.568,-0.083 2.713,-0.572 3.54,-1.067 -1.087,3.545 2.47,6.289 2.761,6.504 v 0.042 l 0.028,-0.021 c 0.003,0.002 0.028,0.021 0.028,0.021 v -0.042 c 0.291,-0.215 3.848,-2.958 2.761,-6.503 0.826,0.495 1.972,0.983 3.54,1.066 0,0 -4.58,-6.018 -3.233,-10.24 1.347,-4.222 3.953,-3.144 4.311,-1.886 0.36,1.258 -0.269,2.425 -0.988,3.144 0,0 5.209,-0.36 5.928,-4.851 0.719,-4.491 -2.693,-6.827 -4.939,-6.467 z"
   id="path536" />
	<path
   style="fill:#ffe15a"
   d="m 228.716,200.743 c -1.1,0.177 -2.067,0.317 -2.941,0.776 0.992,-2.479 1.692,-4.806 1.076,-6.435 -1.505,-3.985 -4.399,-3.272 -5.514,-6.177 v -0.11 c -0.008,0.022 -0.02,0.034 -0.028,0.055 -0.008,-0.022 -0.02,-0.034 -0.028,-0.055 v 0.11 c -1.114,2.905 -4.009,2.193 -5.514,6.177 -0.616,1.63 0.084,3.955 1.076,6.435 -0.873,-0.459 -1.841,-0.6 -2.942,-0.776 -2.246,-0.36 -5.658,1.976 -4.94,6.467 0.718,4.491 5.928,4.851 5.928,4.851 -0.718,-0.718 -1.347,-1.886 -0.988,-3.144 0.36,-1.258 2.964,-2.335 4.311,1.886 1.347,4.221 -3.233,10.24 -3.233,10.24 1.568,-0.083 2.713,-0.572 3.54,-1.067 -1.087,3.545 2.47,6.289 2.761,6.504 v 0.042 l 0.028,-0.021 c 0.003,0.002 0.028,0.021 0.028,0.021 v -0.042 c 0.291,-0.215 3.848,-2.958 2.761,-6.503 0.826,0.495 1.972,0.983 3.54,1.066 0,0 -4.58,-6.018 -3.233,-10.24 1.347,-4.222 3.953,-3.144 4.311,-1.886 0.36,1.258 -0.269,2.425 -0.988,3.144 0,0 5.209,-0.36 5.928,-4.851 0.72,-4.491 -2.693,-6.827 -4.939,-6.467 z"
   id="path538" />
	<path
   style="fill:#ffe15a"
   d="m 267.032,297.809 c 0,0 -2.519,-0.395 -2.72,2.143 0,0 0,0.29 -0.012,0.693 -0.311,-0.147 -0.65,-0.244 -1.017,-0.244 -1.331,0 -2.41,1.079 -2.41,2.411 0,1.331 1.079,2.41 2.41,2.41 0.106,0 0.196,-0.047 0.298,-0.061 -0.359,1.149 -0.929,2.195 -1.73,2.951 h -3.218 c -0.846,-0.937 -1.103,-2.771 -1.159,-4.099 0.052,0.003 0.092,0.04 0.145,0.04 1.092,0 1.977,-0.886 1.977,-1.977 0,-1.079 -0.866,-1.949 -1.94,-1.97 0.171,-0.292 0.296,-0.615 0.296,-0.978 0,-1.092 -0.885,-1.977 -1.977,-1.977 -1.092,0 -1.977,0.886 -1.977,1.977 0,0.363 0.125,0.685 0.296,0.978 -1.074,0.022 -1.94,0.892 -1.94,1.97 0,1.092 0.886,1.977 1.977,1.977 0.053,0 0.093,-0.035 0.145,-0.04 -0.054,1.329 -0.312,3.162 -1.159,4.099 h -3.218 c -0.801,-0.756 -1.372,-1.803 -1.73,-2.951 0.103,0.013 0.192,0.061 0.298,0.061 1.331,0 2.41,-1.079 2.41,-2.41 0,-1.331 -1.079,-2.411 -2.41,-2.411 -0.367,0 -0.706,0.096 -1.017,0.244 -0.012,-0.403 -0.012,-0.693 -0.012,-0.693 -0.201,-2.538 -2.72,-2.143 -2.72,-2.143 1.566,4.78 1.154,10.304 1.154,10.304 v 4.86 h 19.778 v -4.849 l 0.029,-0.011 c 0,0 -0.413,-5.524 1.153,-10.304 z"
   id="path540" />
	<path
   style="fill:#ffe15a"
   d="m 243.919,278.965 c 0,0 -2.519,-0.395 -2.72,2.143 0,0 0,0.29 -0.012,0.693 -0.311,-0.147 -0.65,-0.244 -1.017,-0.244 -1.331,0 -2.41,1.079 -2.41,2.41 0,1.331 1.079,2.411 2.41,2.411 0.106,0 0.196,-0.047 0.298,-0.061 -0.359,1.149 -0.929,2.195 -1.73,2.951 h -3.218 c -0.846,-0.937 -1.103,-2.771 -1.159,-4.099 0.052,0.004 0.092,0.04 0.145,0.04 1.092,0 1.977,-0.886 1.977,-1.977 0,-1.079 -0.866,-1.949 -1.94,-1.97 0.171,-0.292 0.296,-0.615 0.296,-0.978 0,-1.092 -0.885,-1.977 -1.977,-1.977 -1.092,0 -1.977,0.886 -1.977,1.977 0,0.363 0.125,0.685 0.296,0.978 -1.074,0.022 -1.94,0.892 -1.94,1.97 0,1.092 0.886,1.977 1.977,1.977 0.053,0 0.093,-0.035 0.145,-0.04 -0.054,1.329 -0.312,3.162 -1.159,4.099 h -3.218 c -0.801,-0.756 -1.372,-1.803 -1.73,-2.951 0.103,0.013 0.192,0.061 0.298,0.061 1.331,0 2.41,-1.079 2.41,-2.411 0,-1.331 -1.079,-2.41 -2.41,-2.41 -0.367,0 -0.706,0.096 -1.017,0.244 -0.012,-0.403 -0.012,-0.693 -0.012,-0.693 -0.201,-2.538 -2.72,-2.143 -2.72,-2.143 1.566,4.78 1.154,10.304 1.154,10.304 v 4.86 h 19.778 v -4.849 l 0.029,-0.011 c -0.001,-0.001 -0.412,-5.525 1.153,-10.304 z"
   id="path542" />
	<path
   style="fill:#ffe15a"
   d="m 290.146,278.965 c 0,0 -2.519,-0.395 -2.72,2.143 0,0 0,0.29 -0.012,0.693 -0.311,-0.147 -0.65,-0.244 -1.017,-0.244 -1.331,0 -2.411,1.079 -2.411,2.41 0,1.331 1.079,2.411 2.411,2.411 0.106,0 0.196,-0.047 0.298,-0.061 -0.359,1.149 -0.929,2.195 -1.73,2.951 h -3.218 c -0.846,-0.937 -1.103,-2.771 -1.159,-4.099 0.052,0.004 0.092,0.04 0.145,0.04 1.092,0 1.977,-0.886 1.977,-1.977 0,-1.079 -0.866,-1.949 -1.94,-1.97 0.171,-0.292 0.296,-0.615 0.296,-0.978 0,-1.092 -0.885,-1.977 -1.977,-1.977 -1.092,0 -1.977,0.886 -1.977,1.977 0,0.363 0.125,0.685 0.296,0.978 -1.074,0.022 -1.94,0.892 -1.94,1.97 0,1.092 0.886,1.977 1.977,1.977 0.053,0 0.093,-0.035 0.145,-0.04 -0.054,1.329 -0.312,3.162 -1.159,4.099 h -3.218 c -0.801,-0.756 -1.372,-1.803 -1.73,-2.951 0.103,0.013 0.192,0.061 0.298,0.061 1.331,0 2.41,-1.079 2.41,-2.411 0,-1.331 -1.079,-2.41 -2.41,-2.41 -0.367,0 -0.706,0.096 -1.017,0.244 -0.012,-0.403 -0.012,-0.693 -0.012,-0.693 -0.201,-2.538 -2.72,-2.143 -2.72,-2.143 1.566,4.78 1.154,10.304 1.154,10.304 v 4.86 h 19.778 v -4.849 l 0.029,-0.011 c -10e-4,-0.001 -0.413,-5.525 1.153,-10.304 z"
   id="path544" />
	<path
   style="fill:#ffe15a"
   d="m 329.138,155.198 c -2.711,-1.077 -5.441,-2.091 -8.185,-3.043 -0.768,2.226 -1.535,4.451 -2.303,6.678 -1.324,-0.458 -2.652,-0.905 -3.982,-1.334 0.719,-2.243 1.438,-4.484 2.157,-6.728 -2.76,-0.891 -5.535,-1.719 -8.322,-2.484 -0.621,2.272 -1.241,4.543 -1.862,6.815 -1.344,-0.37 -2.691,-0.724 -4.042,-1.064 0.572,-2.285 1.142,-4.569 1.714,-6.855 -2.799,-0.704 -5.611,-1.346 -8.431,-1.926 -0.942,4.615 -1.886,9.23 -2.829,13.845 1.747,0.36 3.49,0.744 5.229,1.154 -0.359,1.528 -0.717,3.057 -1.076,4.586 -10.166,-2.4 -20.491,-3.901 -30.855,-4.5 0.09,-1.568 0.181,-3.135 0.27,-4.704 1.772,0.103 3.544,0.232 5.313,0.385 0.406,-4.693 0.812,-9.386 1.217,-14.08 -2.857,-0.248 -5.718,-0.435 -8.582,-0.559 -0.102,2.354 -0.203,4.706 -0.305,7.06 -1.38,-0.06 -2.762,-0.105 -4.143,-0.135 0.051,-2.355 0.102,-4.711 0.152,-7.064 -2.865,-0.062 -5.73,-0.062 -8.595,0 0.051,2.355 0.102,4.71 0.152,7.064 -1.382,0.03 -2.763,0.075 -4.143,0.135 -0.102,-2.354 -0.203,-4.706 -0.305,-7.06 -2.863,0.124 -5.724,0.31 -8.582,0.559 0.406,4.693 0.812,9.387 1.217,14.08 1.77,-0.153 3.541,-0.282 5.313,-0.385 0.09,1.568 0.181,3.136 0.27,4.704 -10.365,0.6 -20.689,2.1 -30.855,4.5 -0.359,-1.528 -0.717,-3.057 -1.076,-4.586 1.739,-0.412 3.481,-0.796 5.229,-1.154 -0.943,-4.615 -1.886,-9.23 -2.829,-13.845 -2.82,0.579 -5.632,1.222 -8.431,1.926 0.572,2.285 1.142,4.57 1.714,6.855 -1.351,0.34 -2.698,0.694 -4.042,1.064 -0.62,-2.272 -1.241,-4.544 -1.862,-6.815 -2.787,0.767 -5.562,1.594 -8.322,2.484 0.719,2.243 1.438,4.484 2.157,6.728 -1.331,0.429 -2.658,0.875 -3.982,1.334 -0.768,-2.226 -1.535,-4.451 -2.303,-6.678 -2.745,0.953 -5.474,1.967 -8.185,3.043 1.729,4.38 3.458,8.76 5.187,13.141 1.679,-0.666 3.367,-1.309 5.06,-1.923 2.134,5.906 4.267,11.81 6.401,17.716 4.564,-1.66 9.183,-3.111 13.842,-4.354 1.554,-0.414 3.111,-0.808 4.672,-1.175 9.37,-2.211 18.887,-3.595 28.439,-4.148 6.368,-0.369 12.753,-0.367 19.121,0 9.553,0.552 19.069,1.935 28.439,4.148 1.561,0.37 3.119,0.76 4.672,1.175 4.66,1.245 9.278,2.696 13.842,4.354 2.134,-5.907 4.267,-11.81 6.401,-17.716 1.694,0.616 3.381,1.257 5.06,1.923 1.73,-4.381 3.46,-8.762 5.189,-13.141 z"
   id="path546" />
</g>
<path
   style="fill:#ffe1cd"
   d="m 255.976,291.316 c 28.104,0 54.123,-9.024 75.377,-24.286 v -30.834 c -19.23,19.47 -45.913,31.563 -75.377,31.563 -29.871,0 -56.876,-12.439 -76.161,-32.387 v 31.097 c 21.393,15.608 47.712,24.847 76.161,24.847 z"
   id="path550" />
<g
   id="g552"
   transform="translate(0,-88.276)">
</g>
<g
   id="g554"
   transform="translate(0,-88.276)">
</g>
<g
   id="g556"
   transform="translate(0,-88.276)">
</g>
<g
   id="g558"
   transform="translate(0,-88.276)">
</g>
<g
   id="g560"
   transform="translate(0,-88.276)">
</g>
<g
   id="g562"
   transform="translate(0,-88.276)">
</g>
<g
   id="g564"
   transform="translate(0,-88.276)">
</g>
<g
   id="g566"
   transform="translate(0,-88.276)">
</g>
<g
   id="g568"
   transform="translate(0,-88.276)">
</g>
<g
   id="g570"
   transform="translate(0,-88.276)">
</g>
<g
   id="g572"
   transform="translate(0,-88.276)">
</g>
<g
   id="g574"
   transform="translate(0,-88.276)">
</g>
<g
   id="g576"
   transform="translate(0,-88.276)">
</g>
<g
   id="g578"
   transform="translate(0,-88.276)">
</g>
<g
   id="g580"
   transform="translate(0,-88.276)">
</g>
</svg>
