<?xml version="1.0" encoding="UTF-8" standalone="no"?>
<svg
   xmlns:dc="http://purl.org/dc/elements/1.1/"
   xmlns:cc="http://creativecommons.org/ns#"
   xmlns:rdf="http://www.w3.org/1999/02/22-rdf-syntax-ns#"
   xmlns:svg="http://www.w3.org/2000/svg"
   xmlns="http://www.w3.org/2000/svg"
   xmlns:sodipodi="http://sodipodi.sourceforge.net/DTD/sodipodi-0.dtd"
   xmlns:inkscape="http://www.inkscape.org/namespaces/inkscape"
   version="1.1"
   id="Layer_1"
   x="0px"
   y="0px"
   viewBox="0 0 512 335.45001"
   xml:space="preserve"
   sodipodi:docname="brunei-darussalam.svg"
   width="512"
   height="335.45001"
   inkscape:version="1.0.1 (c497b03c, 2020-09-10)"><metadata
   id="metadata110"><rdf:RDF><cc:Work
       rdf:about=""><dc:format>image/svg+xml</dc:format><dc:type
         rdf:resource="http://purl.org/dc/dcmitype/StillImage" /><dc:title></dc:title></cc:Work></rdf:RDF></metadata><defs
   id="defs108" /><sodipodi:namedview
   pagecolor="#ffffff"
   bordercolor="#666666"
   borderopacity="1"
   objecttolerance="10"
   gridtolerance="10"
   guidetolerance="10"
   inkscape:pageopacity="0"
   inkscape:pageshadow="2"
   inkscape:window-width="1797"
   inkscape:window-height="984"
   id="namedview106"
   showgrid="false"
   inkscape:zoom="1.640625"
   inkscape:cx="256"
   inkscape:cy="256"
   inkscape:window-x="0"
   inkscape:window-y="23"
   inkscape:window-maximized="0"
   inkscape:current-layer="Layer_1" />
<path
   style="fill:#ffe15a;stroke-width:1"
   d="M 473.655,335.448 H 38.345 C 17.167,335.448 0,318.281 0,297.103 V 38.345 C 0,17.168 17.167,0 38.345,0 h 435.31 C 494.832,0 512,17.167 512,38.345 v 258.759 c 0,21.177 -17.167,38.344 -38.345,38.344 z"
   id="path53" />
<path
   style="fill:#f5f5f5;stroke-width:1"
   d="M 512,211.862 16.509,6.83 C 6.536,13.754 0,25.283 0,38.345 v 23.448 l 512,211.862 z"
   id="path55" />
<path
   style="fill:#464655;stroke-width:1"
   d="M 512,297.103 V 273.655 L 0,61.793 v 61.793 L 495.491,328.617 C 505.465,321.693 512,310.164 512,297.103 Z"
   id="path57" />
<g
   id="g67"
   transform="translate(0,-88.276)">
	<path
   style="fill:#ff4b55"
   d="m 305.589,240.326 0.007,-0.25 c 0,0 -0.117,-1.209 -0.338,-3.478 -0.067,-1.134 -0.328,-2.515 -0.672,-4.125 -0.266,-1.623 -0.78,-3.439 -1.44,-5.443 -1.326,-3.977 -3.367,-8.725 -6.891,-13.322 -0.426,-0.568 -0.93,-1.129 -1.394,-1.694 1.999,-2.292 3.949,-4.958 5.788,-8.175 0,0 -10.08,0.462 -21.401,-4.478 -3.737,-1.946 -7.796,-3.543 -12.248,-4.589 l -2.112,-8.447 c -0.452,-1.806 -2.076,-3.074 -3.937,-3.074 h -2.92 v -4.058 h 14.206 l -4.058,-8.118 4.058,-8.118 H 258.03 v -4.059 h -4.06 v 24.353 h -2.92 c -1.863,0 -3.486,1.268 -3.937,3.074 l -2.066,8.265 c -2.742,0.584 -5.473,1.325 -8.124,2.452 -2.169,0.868 -4.267,1.956 -6.315,3.174 -10.413,3.997 -19.257,3.624 -19.257,3.624 1.838,3.215 3.785,5.88 5.783,8.171 -0.405,0.492 -0.854,0.934 -1.246,1.44 -2.765,3.755 -4.973,7.977 -6.658,12.46 -1.603,4.353 -2.514,9.878 -2.819,13.917 l -0.008,3.905 c -0.041,1.226 0.099,2.441 0.228,3.66 0.16,2.457 0.703,4.855 1.215,7.271 1.266,4.758 3.118,9.387 5.643,13.638 5.054,8.513 12.762,15.224 21.405,19.385 4.465,1.967 8.683,3.466 13.716,4.181 2.681,0.499 4.351,0.491 6.337,0.664 l 0.361,0.026 0.181,0.013 0.589,0.015 0.845,-0.035 1.684,-0.076 c 1.118,-0.075 2.236,-0.061 3.331,-0.224 8.832,-0.969 16.793,-4.403 23.009,-8.862 6.215,-4.539 10.679,-10.073 13.737,-15.349 3.106,-5.281 4.708,-10.391 5.696,-14.577 0.472,-2.09 0.823,-4 0.951,-5.796 0.201,-1.778 0.318,-3.234 0.265,-4.185 -0.004,-2.06 -0.007,-3.156 -0.007,-3.156 z m -73.769,28.605 c -2.82,-2.198 -5.369,-4.818 -7.693,-7.708 -2.237,-2.959 -4.024,-6.297 -5.427,-9.846 -1.323,-3.473 -2.051,-7.648 -2.409,-11.051 -0.099,-4.723 0.122,-7.944 1.024,-11.971 0.983,-3.825 2.417,-7.569 4.412,-11.023 0.116,-0.2 0.273,-0.37 0.392,-0.567 9.227,7.208 18.969,6.695 25.763,3.197 v 7.938 c 2.241,0 4.058,4.543 4.058,10.147 0,5.604 -1.817,10.147 -4.058,10.147 v 4.058 c 7.613,10.15 4.12,18.713 -0.558,23.706 -2.123,-0.461 -4.326,-1.081 -6.386,-1.892 -3.195,-1.242 -6.229,-3.033 -9.118,-5.135 z m 63.883,-29.061 c -0.007,0.06 -0.115,1.103 -0.321,3.092 -0.062,1.109 -0.307,2.159 -0.59,3.322 -0.202,1.173 -0.631,2.593 -1.182,4.203 -1.099,3.154 -2.752,6.92 -5.626,10.528 -2.809,3.619 -6.598,7.193 -11.325,9.99 -3.594,2.133 -7.818,3.576 -12.281,4.601 -4.52,-5.037 -7.703,-13.428 -0.258,-23.353 v -4.058 c -2.241,0 -4.059,-4.543 -4.059,-10.147 0,-5.604 1.817,-10.147 4.059,-10.147 v -7.938 c 6.802,3.502 16.559,4.013 25.796,-3.221 0.158,0.266 0.351,0.536 0.5,0.8 2.456,4.292 3.67,8.42 4.431,11.782 0.363,1.697 0.63,3.211 0.693,4.556 0.14,1.331 0.242,2.457 0.184,3.384 -0.013,1.571 -0.02,2.369 -0.021,2.606 z"
   id="path59" />
	<path
   style="fill:#ff4b55"
   d="m 256,300.959 c -14.987,0 -28.582,-5.838 -38.727,-15.326 -1.863,-1.741 -4.81,-1.53 -6.47,0.406 l -15.542,18.133 c -1.652,1.928 -0.282,4.905 2.255,4.905 h 9.775 l 13.031,6.516 c 1.831,0.916 4.057,0.324 5.193,-1.379 l 4.194,-6.292 c 8.106,3.345 16.977,5.214 26.29,5.214 9.313,0 18.184,-1.869 26.29,-5.214 l 4.194,6.292 c 1.135,1.704 3.361,2.294 5.193,1.379 l 13.031,-6.516 h 9.775 c 2.538,0 3.908,-2.977 2.255,-4.905 l -15.542,-18.133 c -1.66,-1.937 -4.607,-2.147 -6.47,-0.406 -10.143,9.489 -23.737,15.326 -38.725,15.326 z"
   id="path61" />
	<path
   style="fill:#ff4b55"
   d="M 199.176,284.724 H 178.88 l 4.058,-36.531 c 0,0 -14.207,-7.104 -12.719,-27.956 0.181,-2.536 2.325,-4.516 4.867,-4.516 h 3.464 c 2.392,0 4.397,1.734 4.793,4.093 0.854,5.091 3.511,13.448 11.772,16.202 z"
   id="path63" />
	<path
   style="fill:#ff4b55"
   d="m 312.825,284.724 h 20.295 l -4.059,-36.531 c 0,0 14.207,-7.104 12.719,-27.956 -0.181,-2.536 -2.325,-4.516 -4.867,-4.516 h -3.464 c -2.392,0 -4.397,1.734 -4.793,4.093 -0.854,5.091 -3.511,13.448 -11.772,16.202 z"
   id="path65" />
</g>
<g
   id="g73"
   transform="translate(0,-88.276)">
	<path
   style="fill:#ffe15a"
   d="m 201.205,288.782 h -24.353 c -1.121,0 -2.029,-0.908 -2.029,-2.029 v 0 c 0,-1.121 0.908,-2.029 2.029,-2.029 h 24.353 c 1.121,0 2.029,0.908 2.029,2.029 v 0 c 0,1.121 -0.909,2.029 -2.029,2.029 z"
   id="path69" />
	<path
   style="fill:#ffe15a"
   d="m 335.149,288.782 h -24.353 c -1.121,0 -2.029,-0.908 -2.029,-2.029 v 0 c 0,-1.121 0.908,-2.029 2.029,-2.029 h 24.353 c 1.121,0 2.029,0.908 2.029,2.029 v 0 c 0,1.121 -0.908,2.029 -2.029,2.029 z"
   id="path71" />
</g>
<g
   id="g75">
</g>
<g
   id="g77">
</g>
<g
   id="g79">
</g>
<g
   id="g81">
</g>
<g
   id="g83">
</g>
<g
   id="g85">
</g>
<g
   id="g87">
</g>
<g
   id="g89">
</g>
<g
   id="g91">
</g>
<g
   id="g93">
</g>
<g
   id="g95">
</g>
<g
   id="g97">
</g>
<g
   id="g99">
</g>
<g
   id="g101">
</g>
<g
   id="g103">
</g>
</svg>
