<?xml version="1.0" encoding="UTF-8" standalone="no"?>
<svg
   xmlns:dc="http://purl.org/dc/elements/1.1/"
   xmlns:cc="http://creativecommons.org/ns#"
   xmlns:rdf="http://www.w3.org/1999/02/22-rdf-syntax-ns#"
   xmlns:svg="http://www.w3.org/2000/svg"
   xmlns="http://www.w3.org/2000/svg"
   xmlns:sodipodi="http://sodipodi.sourceforge.net/DTD/sodipodi-0.dtd"
   xmlns:inkscape="http://www.inkscape.org/namespaces/inkscape"
   version="1.1"
   id="Layer_1"
   x="0px"
   y="0px"
   viewBox="0 0 512 335.45001"
   xml:space="preserve"
   sodipodi:docname="bq-sq.svg"
   width="512"
   height="335.45001"
   inkscape:version="1.0.1 (c497b03c, 2020-09-10)"><metadata
   id="metadata110"><rdf:RDF><cc:Work
       rdf:about=""><dc:format>image/svg+xml</dc:format><dc:type
         rdf:resource="http://purl.org/dc/dcmitype/StillImage" /><dc:title></dc:title></cc:Work></rdf:RDF></metadata><defs
   id="defs108" /><sodipodi:namedview
   pagecolor="#ffffff"
   bordercolor="#666666"
   borderopacity="1"
   objecttolerance="10"
   gridtolerance="10"
   guidetolerance="10"
   inkscape:pageopacity="0"
   inkscape:pageshadow="2"
   inkscape:window-width="888"
   inkscape:window-height="480"
   id="namedview106"
   showgrid="false"
   inkscape:zoom="1.3144531"
   inkscape:cx="256"
   inkscape:cy="256"
   inkscape:window-x="0"
   inkscape:window-y="23"
   inkscape:window-maximized="0"
   inkscape:current-layer="Layer_1" />
<path
   style="fill:#41479b;stroke-width:0.999999"
   d="m 0,297.104 c 0,21.2 17.167,38.3 38.345,38.3 h 435.309 c 21.177,0 38.345,-17.1 38.345,-38.3 v -129.4 H 0 Z"
   id="path67" />
<path
   style="fill:#ff4b55;stroke-width:0.999999"
   d="M 473.654,0.004001 H 38.345 C 17.167,0.004001 0,17.204 0,38.304 v 129.4 h 511.999 v -129.4 c 0,-21.1 -17.168,-38.299999 -38.345,-38.299999 z"
   id="path69" />
<polygon
   style="fill:#f5f5f5"
   points="255.999,88.276 0,256 255.999,423.724 512,256 "
   id="polygon71"
   transform="translate(0,-88.276)" />
<path
   style="fill:#ffe15a;stroke-width:0.999999"
   d="m 258.647,70.404 21.191,61 64.526,1.3 c 2.656,0.1 3.753,3.4 1.636,5 l -51.431,39 18.689,61.8 c 0.769,2.5 -2.102,4.6 -4.284,3.1 l -52.975,-36.8 -52.976,36.8 c -2.182,1.5 -5.053,-0.6 -4.284,-3.1 l 18.689,-61.8 -51.431,-39 c -2.118,-1.6 -1.021,-4.9 1.636,-5 l 64.526,-1.3 21.191,-61 c 0.875,-2.5 4.425,-2.5 5.297,0 z"
   id="path73" />
<g
   id="g75"
   transform="translate(0,-88.276)">
</g>
<g
   id="g77"
   transform="translate(0,-88.276)">
</g>
<g
   id="g79"
   transform="translate(0,-88.276)">
</g>
<g
   id="g81"
   transform="translate(0,-88.276)">
</g>
<g
   id="g83"
   transform="translate(0,-88.276)">
</g>
<g
   id="g85"
   transform="translate(0,-88.276)">
</g>
<g
   id="g87"
   transform="translate(0,-88.276)">
</g>
<g
   id="g89"
   transform="translate(0,-88.276)">
</g>
<g
   id="g91"
   transform="translate(0,-88.276)">
</g>
<g
   id="g93"
   transform="translate(0,-88.276)">
</g>
<g
   id="g95"
   transform="translate(0,-88.276)">
</g>
<g
   id="g97"
   transform="translate(0,-88.276)">
</g>
<g
   id="g99"
   transform="translate(0,-88.276)">
</g>
<g
   id="g101"
   transform="translate(0,-88.276)">
</g>
<g
   id="g103"
   transform="translate(0,-88.276)">
</g>
</svg>
