<?xml version="1.0" encoding="UTF-8" standalone="no"?>
<svg
   xmlns:dc="http://purl.org/dc/elements/1.1/"
   xmlns:cc="http://creativecommons.org/ns#"
   xmlns:rdf="http://www.w3.org/1999/02/22-rdf-syntax-ns#"
   xmlns:svg="http://www.w3.org/2000/svg"
   xmlns="http://www.w3.org/2000/svg"
   xmlns:sodipodi="http://sodipodi.sourceforge.net/DTD/sodipodi-0.dtd"
   xmlns:inkscape="http://www.inkscape.org/namespaces/inkscape"
   version="1.1"
   id="Layer_1"
   x="0px"
   y="0px"
   viewBox="0 0 512 335.45001"
   xml:space="preserve"
   sodipodi:docname="bq-se.svg"
   width="512"
   height="335.45001"
   inkscape:version="1.0.1 (c497b03c, 2020-09-10)"><metadata
   id="metadata226"><rdf:RDF><cc:Work
       rdf:about=""><dc:format>image/svg+xml</dc:format><dc:type
         rdf:resource="http://purl.org/dc/dcmitype/StillImage" /><dc:title></dc:title></cc:Work></rdf:RDF></metadata><defs
   id="defs224" /><sodipodi:namedview
   pagecolor="#ffffff"
   bordercolor="#666666"
   borderopacity="1"
   objecttolerance="10"
   gridtolerance="10"
   guidetolerance="10"
   inkscape:pageopacity="0"
   inkscape:pageshadow="2"
   inkscape:window-width="1127"
   inkscape:window-height="494"
   id="namedview222"
   showgrid="false"
   inkscape:zoom="0.77929688"
   inkscape:cx="256"
   inkscape:cy="256"
   inkscape:window-x="0"
   inkscape:window-y="23"
   inkscape:window-maximized="0"
   inkscape:current-layer="Layer_1" />
<path
   style="fill:#41479b"
   d="M 473.664,335.488 H 38.336 C 17.152,335.488 0,318.336 0,297.152 V 38.336 C 0,17.152 17.152,0 38.336,0 H 473.664 C 494.848,0 512,17.152 512,38.336 v 258.752 c 0,21.184 -17.152,38.4 -38.336,38.4 z"
   id="path181" />
<polygon
   style="fill:#f5f5f5"
   points="256,333.568 402.56,256 256,178.432 109.44,256 "
   id="polygon183"
   transform="translate(0,-88.256)" />
<polygon
   style="fill:#73af00"
   points="369.344,270.656 339.456,240.704 329.024,240.704 321.28,248.448 315.776,242.944 304.768,242.944 262.592,285.12 209.6,285.12 197.568,267.328 182.272,267.328 176.256,275.712 169.472,275.712 165.44,283.712 207.296,305.856 302.848,305.856 "
   id="polygon185"
   transform="translate(0,-88.256)" />
<path
   style="fill:#ffe15a"
   d="m 257.152,125.44 3.52,10.496 11.072,0.064 c 1.408,0 2.048,1.856 0.896,2.688 l -8.896,6.656 3.328,10.56 c 0.448,1.344 -1.152,2.496 -2.304,1.664 l -9.024,-6.464 -9.024,6.464 c -1.152,0.832 -2.752,-0.32 -2.304,-1.664 l 3.328,-10.56 -8.896,-6.592 c -1.152,-0.832 -0.576,-2.688 0.896,-2.688 l 11.072,-0.064 3.52,-10.496 c 0.448,-1.408 2.368,-1.408 2.816,-0.064 z"
   id="path187" />
<path
   style="fill:#ff4b55"
   d="M 473.664,0 H 38.336 C 17.152,0 0,17.152 0,38.336 v 258.752 c 0,21.184 17.152,38.336 38.336,38.336 h 435.328 c 21.184,0 38.336,-17.152 38.336,-38.336 V 38.336 C 512,17.216 494.848,0 473.664,0 Z m -456,17.664 h 229.504 v 65.28 l -143.424,75.968 h -86.08 c 0,0 0,-141.248 0,-141.248 z m 229.504,300.16 H 17.664 V 176.576 h 86.08 L 247.168,252.48 Z M 124.8,167.744 256,98.304 387.2,167.744 256,237.184 Z m 369.536,150.08 H 264.832 v -65.28 L 408.256,176.64 h 86.08 z m 0,-158.912 h -86.08 L 264.832,83.008 v -65.28 h 229.504 z"
   id="path189" />
<g
   id="g191"
   transform="translate(0,-88.256)">
</g>
<g
   id="g193"
   transform="translate(0,-88.256)">
</g>
<g
   id="g195"
   transform="translate(0,-88.256)">
</g>
<g
   id="g197"
   transform="translate(0,-88.256)">
</g>
<g
   id="g199"
   transform="translate(0,-88.256)">
</g>
<g
   id="g201"
   transform="translate(0,-88.256)">
</g>
<g
   id="g203"
   transform="translate(0,-88.256)">
</g>
<g
   id="g205"
   transform="translate(0,-88.256)">
</g>
<g
   id="g207"
   transform="translate(0,-88.256)">
</g>
<g
   id="g209"
   transform="translate(0,-88.256)">
</g>
<g
   id="g211"
   transform="translate(0,-88.256)">
</g>
<g
   id="g213"
   transform="translate(0,-88.256)">
</g>
<g
   id="g215"
   transform="translate(0,-88.256)">
</g>
<g
   id="g217"
   transform="translate(0,-88.256)">
</g>
<g
   id="g219"
   transform="translate(0,-88.256)">
</g>
</svg>
