<svg xmlns="http://www.w3.org/2000/svg" viewBox="0 0 512.00001 335.45002" xml:space="preserve" width="512" height="335.45001"><path style="fill:#41479b" d="M511.222 30.617c-.255-1.248-.57201-2.474-.94501-3.674-.373-1.2-.804-2.376-1.29-3.523-.727-1.72-1.577-3.377-2.538-4.958-.96101-1.581-2.03301-3.087-3.20401-4.508-1.172-1.42-2.444-2.755-3.80701-3.992-.371-.338-.754-.662-1.138-.985L13.70003 326.473c6.66501 5.599 15.25803 8.975 24.64404 8.975h435.31085C494.83196 335.448 512 318.281 512 297.103V38.345c.001-2.647-.267-5.232-.778-7.728z"/><path style="fill:#f5f5f5" d="M496.59897 7.618a38.55565 38.55565 0 0 0-3.05901-2.067C487.74095 2.028 480.93494 0 473.65592 0H224.77944L0 147.268v149.834c0 11.791 5.32601 22.335 13.70003 29.369L498.30097 8.976c-.555-.467-1.12-.923-1.702-1.358z"/><path style="fill:#ffe15a" d="M38.34508 0c-7.27902 0-14.08603 2.029-19.88304 5.551-1.054.64-2.074 1.331-3.05901 2.067-.985.736-1.932 1.518-2.84 2.344-1.362 1.238-2.63401 2.572-3.80701 3.992-1.172 1.42-2.244 2.926-3.204 4.508C4.591 20.043 3.741 21.7 3.014 23.42c-.486 1.146-.916 2.322-1.29 3.523s-.69 2.426-.945 3.674C.268 33.113 0 35.698 0 38.345V147.27L224.77944 0z"/><path style="fill:#464655" d="M202.27439 140.861c-4.006-26.737-25.08904-47.82-51.8261-51.826l-9.20701-18.415-9.20702 18.415c-26.73705 4.006-47.8191 25.088-51.8261 51.826l-18.41504 9.207 18.41504 9.207c4.006 26.737 25.08905 47.82 51.8261 51.826l9.20702 18.415 9.20701-18.415c26.73706-4.006 47.8191-25.088 51.8261-51.826l18.41504-9.207zm-61.03311 62.173c-29.25206 0-52.9661-23.713-52.9661-52.965 0-29.252 23.71304-52.966 52.9661-52.966 29.25305 0 52.9661 23.713 52.9661 52.966s-23.71305 52.965-52.9661 52.965z"/><path style="fill:#ff4b55" transform="translate(0 -88.276)" d="m170.638 255.316-19.892-.509-9.505 17.482-9.504-17.482-19.893.509 10.388-16.972-10.388-16.972 19.893.51 9.504-17.484 9.505 17.484 19.892-.51-10.388 16.972z"/></svg>