<?xml version="1.0" encoding="UTF-8" standalone="no"?>
<svg
   xmlns:dc="http://purl.org/dc/elements/1.1/"
   xmlns:cc="http://creativecommons.org/ns#"
   xmlns:rdf="http://www.w3.org/1999/02/22-rdf-syntax-ns#"
   xmlns:svg="http://www.w3.org/2000/svg"
   xmlns="http://www.w3.org/2000/svg"
   xmlns:sodipodi="http://sodipodi.sourceforge.net/DTD/sodipodi-0.dtd"
   xmlns:inkscape="http://www.inkscape.org/namespaces/inkscape"
   version="1.1"
   id="Layer_1"
   x="0px"
   y="0px"
   viewBox="0 0 512 335.45001"
   xml:space="preserve"
   sodipodi:docname="br.svg"
   inkscape:version="1.0.1 (c497b03c, 2020-09-10)"
   width="512"
   height="335.45001"><metadata
   id="metadata77"><rdf:RDF><cc:Work
       rdf:about=""><dc:format>image/svg+xml</dc:format><dc:type
         rdf:resource="http://purl.org/dc/dcmitype/StillImage" /><dc:title></dc:title></cc:Work></rdf:RDF></metadata><defs
   id="defs75" /><sodipodi:namedview
   pagecolor="#ffffff"
   bordercolor="#666666"
   borderopacity="1"
   objecttolerance="10"
   gridtolerance="10"
   guidetolerance="10"
   inkscape:pageopacity="0"
   inkscape:pageshadow="2"
   inkscape:window-width="2560"
   inkscape:window-height="984"
   id="namedview73"
   showgrid="false"
   inkscape:zoom="1.640625"
   inkscape:cx="256"
   inkscape:cy="256"
   inkscape:window-x="0"
   inkscape:window-y="23"
   inkscape:window-maximized="1"
   inkscape:current-layer="Layer_1" />
<path
   style="fill:#73af00"
   d="M 473.655,0 H 38.345 C 17.167,0 0,17.167 0,38.345 v 258.76 c 0,21.177 17.167,38.345 38.345,38.345 h 435.31 C 494.832,335.45 512,318.283 512,297.105 V 38.345 C 512,17.167 494.833,0 473.655,0 Z"
   id="path10" />
<path
   style="fill:#ffe15a"
   d="M 251.41,46.932 65.354,160.183 c -5.651,3.439 -5.651,11.641 0,15.081 L 251.41,288.517 c 2.819,1.716 6.36,1.716 9.18,0 L 446.646,175.265 c 5.651,-3.439 5.651,-11.641 0,-15.081 L 260.59,46.932 c -2.819,-1.715 -6.361,-1.715 -9.18,0 z"
   id="path12" />
<circle
   style="fill:#41479b"
   cx="256"
   cy="167.72395"
   r="70.620003"
   id="circle14" />
<g
   id="g40"
   transform="translate(0,-88.275)">
	<path
   style="fill:#f5f5f5"
   d="m 195.4,219.872 c -3.332,5.578 -5.905,11.64 -7.605,18.077 39.149,-2.946 97.062,8.006 133.922,43.773 2.406,-6.141 3.995,-12.683 4.59,-19.522 -38.06,-32.033 -90.679,-43.424 -130.907,-42.328 z"
   id="path16" />
	<path
   style="fill:#f5f5f5"
   d="m 258.925,280.099 1.88,5.638 5.943,0.046 c 0.769,0.006 1.088,0.988 0.469,1.445 l -4.781,3.531 1.793,5.666 c 0.232,0.734 -0.604,1.341 -1.229,0.893 l -4.835,-3.456 -4.835,3.456 c -0.626,0.447 -1.461,-0.159 -1.229,-0.893 l 1.793,-5.666 -4.781,-3.531 c -0.619,-0.457 -0.3,-1.439 0.469,-1.445 l 5.943,-0.046 1.88,-5.638 c 0.244,-0.731 1.276,-0.731 1.52,0 z"
   id="path18" />
	<path
   style="fill:#f5f5f5"
   d="m 282.024,294.683 0.809,2.426 2.558,0.02 c 0.331,0.002 0.468,0.425 0.202,0.622 l -2.058,1.519 0.771,2.439 c 0.099,0.316 -0.259,0.577 -0.53,0.384 l -2.081,-1.487 -2.081,1.487 c -0.269,0.193 -0.629,-0.068 -0.529,-0.384 l 0.771,-2.439 -2.058,-1.519 c -0.267,-0.196 -0.129,-0.619 0.202,-0.622 l 2.558,-0.02 0.809,-2.426 c 0.107,-0.315 0.552,-0.315 0.657,0 z"
   id="path20" />
	<path
   style="fill:#f5f5f5"
   d="m 248.938,269.388 0.809,2.426 2.558,0.02 c 0.331,0.002 0.469,0.425 0.202,0.622 l -2.058,1.519 0.771,2.439 c 0.099,0.316 -0.259,0.577 -0.529,0.384 l -2.081,-1.487 -2.081,1.487 c -0.269,0.193 -0.629,-0.068 -0.53,-0.384 l 0.771,-2.439 -2.058,-1.519 c -0.266,-0.196 -0.129,-0.619 0.202,-0.622 l 2.558,-0.02 0.809,-2.426 c 0.107,-0.312 0.552,-0.312 0.657,0 z"
   id="path22" />
	<path
   style="fill:#f5f5f5"
   d="m 204.13,266.446 0.809,2.426 2.558,0.02 c 0.331,0.002 0.469,0.425 0.202,0.622 l -2.058,1.519 0.771,2.439 c 0.099,0.316 -0.259,0.577 -0.53,0.384 l -2.081,-1.487 -2.081,1.487 c -0.269,0.192 -0.629,-0.068 -0.529,-0.384 l 0.771,-2.439 -2.058,-1.519 c -0.267,-0.196 -0.129,-0.619 0.202,-0.622 l 2.558,-0.02 0.809,-2.426 c 0.108,-0.313 0.552,-0.313 0.657,0 z"
   id="path24" />
	<path
   style="fill:#f5f5f5"
   d="m 241.614,293.846 0.809,2.426 2.558,0.02 c 0.331,0.002 0.469,0.425 0.202,0.622 l -2.058,1.519 0.771,2.439 c 0.099,0.316 -0.259,0.577 -0.529,0.384 l -2.081,-1.487 -2.081,1.487 c -0.269,0.193 -0.629,-0.068 -0.53,-0.384 l 0.771,-2.439 -2.058,-1.519 c -0.266,-0.196 -0.129,-0.619 0.202,-0.622 l 2.558,-0.02 0.809,-2.426 c 0.108,-0.314 0.553,-0.314 0.657,0 z"
   id="path26" />
	<path
   style="fill:#f5f5f5"
   d="m 220.99,264.753 0.662,1.984 2.092,0.017 c 0.27,0.002 0.383,0.348 0.166,0.509 l -1.683,1.242 0.631,1.994 c 0.082,0.258 -0.212,0.472 -0.433,0.314 l -1.702,-1.216 -1.702,1.216 c -0.221,0.158 -0.514,-0.056 -0.433,-0.314 l 0.631,-1.994 -1.683,-1.242 c -0.217,-0.161 -0.106,-0.507 0.166,-0.509 l 2.092,-0.017 0.662,-1.984 c 0.085,-0.256 0.448,-0.256 0.534,0 z"
   id="path28" />
	<path
   style="fill:#f5f5f5"
   d="m 283.819,223.794 0.828,2.482 2.616,0.02 c 0.339,0.002 0.479,0.435 0.206,0.637 l -2.104,1.554 0.789,2.495 c 0.103,0.323 -0.266,0.59 -0.541,0.393 l -2.129,-1.522 -2.129,1.522 c -0.276,0.198 -0.643,-0.071 -0.541,-0.393 l 0.789,-2.495 -2.104,-1.554 c -0.273,-0.201 -0.132,-0.633 0.206,-0.637 l 2.616,-0.02 0.828,-2.482 c 0.108,-0.324 0.563,-0.324 0.67,0 z"
   id="path30" />
	<path
   style="fill:#f5f5f5"
   d="m 207.012,252.615 0.662,1.984 2.092,0.017 c 0.27,0.002 0.383,0.348 0.166,0.509 l -1.683,1.242 0.631,1.994 c 0.082,0.258 -0.212,0.472 -0.433,0.314 l -1.702,-1.216 -1.702,1.216 c -0.221,0.158 -0.514,-0.056 -0.433,-0.314 l 0.631,-1.994 -1.683,-1.242 c -0.218,-0.161 -0.106,-0.506 0.166,-0.509 l 2.092,-0.017 0.662,-1.984 c 0.085,-0.257 0.448,-0.257 0.534,0 z"
   id="path32" />
	<path
   style="fill:#f5f5f5"
   d="m 217.112,280.581 1.002,3.005 3.168,0.024 c 0.41,0.003 0.58,0.526 0.25,0.77 l -2.549,1.882 0.956,3.02 c 0.124,0.391 -0.321,0.715 -0.655,0.476 l -2.578,-1.843 -2.578,1.843 c -0.333,0.238 -0.779,-0.085 -0.655,-0.476 l 0.956,-3.02 -2.549,-1.882 c -0.33,-0.244 -0.16,-0.767 0.25,-0.77 l 3.168,-0.024 1.002,-3.005 c 0.133,-0.39 0.683,-0.39 0.812,0 z"
   id="path34" />
	<path
   style="fill:#f5f5f5"
   d="m 294.903,295.313 0.631,1.891 1.993,0.015 c 0.258,0.002 0.365,0.331 0.158,0.484 l -1.603,1.184 0.601,1.9 c 0.077,0.246 -0.202,0.449 -0.413,0.299 l -1.621,-1.159 -1.622,1.159 c -0.21,0.15 -0.49,-0.053 -0.413,-0.299 l 0.601,-1.9 -1.603,-1.184 c -0.207,-0.153 -0.1,-0.482 0.158,-0.484 l 1.993,-0.015 0.63,-1.891 c 0.082,-0.245 0.429,-0.245 0.51,0 z"
   id="path36" />
	<path
   style="fill:#f5f5f5"
   d="m 301.877,280.883 0.809,2.426 2.558,0.02 c 0.331,0.002 0.469,0.425 0.202,0.622 l -2.058,1.519 0.771,2.439 c 0.099,0.316 -0.259,0.577 -0.529,0.384 l -2.081,-1.487 -2.081,1.487 c -0.269,0.193 -0.629,-0.068 -0.529,-0.384 l 0.771,-2.439 -2.058,-1.519 c -0.266,-0.196 -0.129,-0.619 0.202,-0.622 l 2.558,-0.02 0.809,-2.426 c 0.106,-0.315 0.551,-0.315 0.656,0 z"
   id="path38" />
</g>
<g
   id="g42"
   transform="translate(0,-88.275)">
</g>
<g
   id="g44"
   transform="translate(0,-88.275)">
</g>
<g
   id="g46"
   transform="translate(0,-88.275)">
</g>
<g
   id="g48"
   transform="translate(0,-88.275)">
</g>
<g
   id="g50"
   transform="translate(0,-88.275)">
</g>
<g
   id="g52"
   transform="translate(0,-88.275)">
</g>
<g
   id="g54"
   transform="translate(0,-88.275)">
</g>
<g
   id="g56"
   transform="translate(0,-88.275)">
</g>
<g
   id="g58"
   transform="translate(0,-88.275)">
</g>
<g
   id="g60"
   transform="translate(0,-88.275)">
</g>
<g
   id="g62"
   transform="translate(0,-88.275)">
</g>
<g
   id="g64"
   transform="translate(0,-88.275)">
</g>
<g
   id="g66"
   transform="translate(0,-88.275)">
</g>
<g
   id="g68"
   transform="translate(0,-88.275)">
</g>
<g
   id="g70"
   transform="translate(0,-88.275)">
</g>
</svg>
