<?xml version="1.0" encoding="UTF-8" standalone="no"?>
<svg
   xmlns:dc="http://purl.org/dc/elements/1.1/"
   xmlns:cc="http://creativecommons.org/ns#"
   xmlns:rdf="http://www.w3.org/1999/02/22-rdf-syntax-ns#"
   xmlns:svg="http://www.w3.org/2000/svg"
   xmlns="http://www.w3.org/2000/svg"
   xmlns:sodipodi="http://sodipodi.sourceforge.net/DTD/sodipodi-0.dtd"
   xmlns:inkscape="http://www.inkscape.org/namespaces/inkscape"
   version="1.1"
   id="Layer_1"
   x="0px"
   y="0px"
   viewBox="0 0 512 335.45001"
   xml:space="preserve"
   sodipodi:docname="bhutan.svg"
   width="512"
   height="335.45001"
   inkscape:version="1.0.1 (c497b03c, 2020-09-10)"><metadata
   id="metadata1070"><rdf:RDF><cc:Work
       rdf:about=""><dc:format>image/svg+xml</dc:format><dc:type
         rdf:resource="http://purl.org/dc/dcmitype/StillImage" /><dc:title></dc:title></cc:Work></rdf:RDF></metadata><defs
   id="defs1068" /><sodipodi:namedview
   pagecolor="#ffffff"
   bordercolor="#666666"
   borderopacity="1"
   objecttolerance="10"
   gridtolerance="10"
   guidetolerance="10"
   inkscape:pageopacity="0"
   inkscape:pageshadow="2"
   inkscape:window-width="1797"
   inkscape:window-height="983"
   id="namedview1066"
   showgrid="false"
   inkscape:zoom="1.640625"
   inkscape:cx="256"
   inkscape:cy="256"
   inkscape:window-x="0"
   inkscape:window-y="23"
   inkscape:window-maximized="0"
   inkscape:current-layer="Layer_1" />
<path
   style="fill:#ff6e55"
   d="m 38.345,335.448 h 435.31 c 21.177,0 38.345,-17.167 38.345,-38.345 V 38.346 C 512,26.555 506.674,16.011 498.3,8.978 L 13.7,326.472 c 6.665,5.598 15.259,8.976 24.645,8.976 z"
   id="path973" />
<path
   style="fill:#ffe15a"
   d="M 13.7,326.472 498.3,8.977 C 491.635,3.378 483.042,0 473.656,0 H 38.345 C 17.167,0.001 0,17.167 0,38.346 v 258.758 c 0,11.791 5.326,22.334 13.7,29.368 z"
   id="path975" />
<g
   id="g991"
   transform="translate(0,-88.276)">
	<path
   style="fill:#fff5dc"
   d="m 281.521,178.027 c -4.436,0.95 -11.405,-1.426 -11.405,-1.426 1.436,2.473 5.276,4.138 8.739,5.186 -2.796,0.279 -5.985,0.437 -9.532,0.359 -14.257,-0.318 -20.909,9.03 -20.909,9.03 5.069,-3.169 10.296,-3.169 18.058,-2.059 7.762,1.109 24.236,-3.801 24.236,-3.801 l 1.426,-6.336 c 0,-0.003 -6.178,-1.903 -10.613,-0.953 z"
   id="path977" />
	<path
   style="fill:#fff5dc"
   d="m 296.173,148.327 c 0,0 7.371,1.562 14.852,5.855 -0.45,0.236 -0.881,0.525 -1.291,0.864 -2.418,-1.202 -5.339,-2.175 -9.127,-2.561 0,0 3.921,1.02 7.688,3.97 -0.975,1.149 -1.779,2.456 -2.398,3.618 -8.287,-8.886 -17.249,-2.955 -17.249,-2.955 11.117,-0.845 13.74,6.298 14.366,9.748 -2.153,-1.439 -4.181,-2.625 -6.083,-3.59 0.279,-0.209 0.42,-0.397 0.747,-0.612 0,0 -0.696,0.028 -1.662,0.172 -14.188,-6.819 -21.149,-1.44 -21.149,-1.44 6.301,-0.77 12.124,0.868 16.744,2.908 -2.03,1.169 -3.405,3.228 -2.271,6.728 -7.957,-2.165 -17.958,-4.298 -22.869,-2.983 -8.871,2.376 -6.019,10.613 -6.019,10.613 0,0 0.159,-5.544 6.178,-6.812 4.506,-0.949 26.929,6.178 26.929,6.178 l 7.286,-3.485 -3.009,-2.535 c 0,0 -5.784,-2.322 -3.304,-6.312 4.147,2.211 6.788,4.41 6.788,4.41 l 1.783,-2.605 c 0.087,0.674 0.118,1.18 0.118,1.18 l 5.069,-2.217 1.109,-1.585 c 0.444,-2.404 1.178,-4.114 2.023,-5.394 1.466,1.843 2.679,4.119 3.284,6.937 l 4.594,0.476 c 0,0 -0.746,-5.31 -5.886,-9.533 0.456,-0.324 0.906,-0.593 1.349,-0.772 3.385,2.429 6.542,5.466 8.734,9.276 l 8.474,-0.119 c 10e-4,0.001 -13.938,-15.522 -35.798,-17.423 z"
   id="path979" />
	<circle
   style="fill:#fff5dc"
   cx="377.04001"
   cy="223.17101"
   r="10.613"
   id="circle981" />
	<circle
   style="fill:#fff5dc"
   cx="352.26001"
   cy="312.5"
   r="14.238"
   id="circle983" />
	<circle
   style="fill:#fff5dc"
   cx="243.72"
   cy="305.60001"
   r="11.285"
   id="circle985" />
	<circle
   style="fill:#fff5dc"
   cx="217.77"
   cy="359.19"
   r="13.03"
   id="circle987" />
	<path
   style="fill:#fff5dc"
   d="m 341.873,195.451 c 0,0 24.402,8.696 30.294,11.642 8.317,4.158 21.385,-7.96 30.532,1.426 0,0 -1.585,-6.257 -9.187,-6.732 0,0 0.159,-6.178 -6.969,-5.86 0,0 5.227,3.801 2.218,6.495 0,0 -2.059,-4.594 -7.921,-3.801 0,0 4.435,1.742 3.327,4.435 0,0 -7.049,3.405 -10.217,1.188 -3.168,-2.218 -28.195,-15.722 -36.116,-16.039 z"
   id="path989" />
</g>
<path
   style="fill:#f5f5f5"
   d="m 335.615,114.779 c 0,0 5.227,1.545 12.831,9.504 3.523,3.689 12.593,3.921 11.167,-3.208 -1.426,-7.128 -19.008,-11.523 -20.909,-11.523 -1.901,-0.001 -3.089,5.227 -3.089,5.227 z"
   id="path993" />
<g
   id="g1009"
   transform="translate(0,-88.276)">
	<path
   style="fill:#fff5dc"
   d="m 373.711,187.372 -9.98,3.327 c 0,0 1.109,6.772 -4.594,9.742 -3.512,1.83 -5.86,6.573 -5.703,10.058 0,0 3.327,-4.594 8.078,-7.128 1.119,-0.597 2.151,-1.12 3.091,-1.651 -0.189,2.375 -0.239,4.868 0.078,7.037 0.95,6.494 -1.109,8.712 -1.109,8.712 0,0 5.545,-4.277 4.91,-11.246 -0.244,-2.678 0.195,-4.575 0.877,-6.015 0.491,4.853 3.082,7.125 3.082,7.125 -1.901,-3.801 2.059,-7.921 3.644,-11.247 1.587,-3.328 -2.374,-8.714 -2.374,-8.714 z"
   id="path995" />
	<path
   style="fill:#fff5dc"
   d="m 398.937,173.592 c -3.929,-1.336 -7.722,1.069 -9.98,3.089 -0.961,0.86 -3.493,1.297 -6.084,1.532 1.73,-1.224 3.572,-2.669 4.541,-3.907 2.138,-2.732 6.059,-3.208 9.385,-4.277 3.327,-1.069 4.753,-5.346 4.753,-5.346 0,0 -1.782,2.614 -6.772,2.376 -4.99,-0.238 -6.653,-0.476 -9.98,3.089 -1.023,1.096 -2.455,1.943 -3.94,2.624 0.032,-1.557 0.167,-3.538 0.614,-4.882 0.832,-2.495 4.633,-4.514 4.871,-9.504 0.237,-4.99 0.476,-4.514 3.327,-7.485 2.851,-2.97 3.683,-8.554 2.851,-6.772 -0.832,1.782 -4.633,3.921 -7.841,6.891 -3.208,2.97 -0.95,6.296 -2.614,8.91 -1.663,2.614 -5.583,3.208 -5.822,8.078 -0.237,4.871 -3.683,7.722 -3.683,7.722 0,0 -8.435,4.633 1.663,8.317 10.099,3.683 18.268,-6.563 23.285,-6.296 11.167,0.594 14.137,-3.089 14.137,-3.089 -1.9,-0.001 -6.771,0.949 -12.711,-1.07 z"
   id="path997" />
	<path
   style="fill:#fff5dc"
   d="m 276.451,251.842 c -0.633,-0.476 -11.563,-12.514 -15.207,-14.257 l 0.792,3.01 c 0,0 -2.376,-0.159 -6.653,-5.386 -4.277,-5.227 -7.445,-6.653 -7.445,-6.653 0,0 3.01,4.753 2.851,7.762 0,0 -6.495,-0.476 -13.464,2.851 0,0 -3.168,-6.178 -5.86,-7.286 0,0 0.95,6.495 -1.267,8.078 -2.218,1.585 20.909,12.514 24.077,12.831 3.168,0.319 22.176,-0.95 22.176,-0.95 z"
   id="path999" />
	<path
   style="fill:#fff5dc"
   d="m 290.867,228.242 c -0.225,-0.056 -1.394,0.766 -2.902,1.843 -0.666,-3.847 -2.008,-11.624 -2.008,-11.981 0,-0.476 -10.772,-15.523 -11.089,-16.157 -0.005,-0.011 -0.041,-0.012 -0.049,-0.022 1.046,-2.53 2.173,-6.838 -4.228,-3.463 -8.713,4.595 -12.198,15.207 -12.198,15.207 1.986,-2.072 5.452,-3.654 8.219,-4.682 0.057,1.292 0.067,2.826 -1.724,5.474 -3.644,5.385 -1.585,7.445 -1.585,7.445 2.851,-4.91 9.187,-5.386 9.187,-5.386 -0.95,5.862 2.376,9.187 2.376,9.187 l 2.692,-3.168 c -0.332,4.535 2.095,9.401 3.604,11.958 -0.596,0.288 -1.14,0.509 -1.544,0.555 -2.694,0.318 -6.969,2.376 -6.969,2.376 0,0 3.466,-0.739 5.434,0.781 1.967,1.521 5.099,2.684 6.798,2.326 0,0 -0.806,4.115 0.089,5.635 0,0 -2.237,-0.628 -4.831,-0.537 -2.594,0.091 -4.482,-1.71 -4.482,-1.71 0,0 4.753,6.81 8.237,8.236 3.485,1.426 9.504,-3.801 9.504,-3.801 0,0 -1.898,-19.96 -2.531,-20.116 z"
   id="path1001" />
	<path
   style="fill:#fff5dc"
   d="m 208.972,327.56 c 0,0 -3.01,0.317 -5.86,4.594 l -1.267,-4.436 c 0,0 -3.485,2.535 -7.286,0.95 0,0 3.485,-0.792 4.118,-3.96 0.633,-3.168 1.901,-3.485 1.901,-3.485 0,0 -2.376,-2.535 -4.91,-2.376 0,0 6.969,-3.644 10.772,-0.159 3.799,3.486 2.532,8.872 2.532,8.872 z"
   id="path1003" />
	<path
   style="fill:#fff5dc"
   d="m 292.767,292.552 c 0,0 -3.01,0.317 -5.86,4.594 l -1.267,-4.435 c 0,0 -3.485,2.535 -7.286,0.95 0,0 3.485,-0.792 4.118,-3.96 0.633,-3.168 1.901,-3.485 1.901,-3.485 0,0 -2.376,-2.535 -4.91,-2.376 0,0 6.969,-3.644 10.772,-0.159 3.8,3.486 2.532,8.871 2.532,8.871 z"
   id="path1005" />
	<path
   style="fill:#fff5dc"
   d="m 344.147,247.488 c 0,0 -1.47,2.646 0.394,7.436 l -4.359,-1.511 c 0,0 0.073,4.309 -3.407,6.51 0,0 1.353,-3.307 -0.876,-5.646 -2.229,-2.339 -1.761,-3.558 -1.761,-3.558 0,0 -3.439,0.489 -4.766,2.655 0,0 1.021,-7.798 6.057,-8.908 5.037,-1.109 8.718,3.022 8.718,3.022 z"
   id="path1007" />
</g>
<path
   style="fill:#ff6e55"
   d="m 359.399,212.744 3.066,1.828 c -0.893,-0.766 -1.951,-1.341 -3.066,-1.828 z"
   id="path1011" />
<path
   style="fill:#fff5dc"
   d="m 186.478,228.037 c 0,0 -14.098,19.8 -30.255,24.077 l 5.703,-7.286 c 0,0 -7.604,6.653 -16.157,8.078 l 10.296,-11.88 c 0,0 -22.968,21.385 -52.431,25.82 0,0 22.81,-14.414 27.404,-19.484 0,0 -11.089,4.435 -21.068,4.594 0,0 28.671,-11.089 33.423,-15.523 0,0 -11.405,2.535 -18.534,0.159 0,0 24.711,-7.128 28.195,-6.178 0,0 -14.257,-5.703 -22.81,-5.069 0,0 14.573,-3.485 31.522,0 l -3.644,-3.96 c 0,0 9.663,-2.535 19.167,-3.168 9.504,-0.633 4.753,-1.426 4.753,-1.426 l 1.109,-3.168 c 0,0 -6.178,0.792 -11.246,0 0,0 15.207,-8.554 19.484,-12.355 4.277,-3.801 1.426,-2.059 1.426,-2.059 0,0 -7.921,2.692 -10.772,3.168 0,0 7.128,-8.237 9.346,-13.623 0,0 -6.495,2.535 -12.039,0 0,0 6.653,-1.901 9.98,-5.227 3.327,-3.327 8.237,-11.603 8.237,-11.603 l -5.703,2.495 c 0,0 4.99,-8.554 9.386,-10.692 0,0 -7.485,0.594 -9.86,-1.188 0,0 7.96,-1.901 10.336,-3.801 2.376,-1.901 7.604,-6.891 12.949,-4.99 0,0 7.485,-6.891 4.99,-11.405 0,0 4.871,0.356 7.366,3.327 2.495,2.97 6.415,5.465 6.415,5.465 l -20.355,15.919 -15.524,50.371 z"
   id="path1013" />
<g
   id="g1019"
   transform="translate(0,-88.276)">
	<path
   style="fill:#f5f5f5"
   d="m 385.908,221.271 c 5.862,9.504 -1.426,10.455 -1.426,10.455 -1.109,-9.03 -8.712,-7.919 -8.712,-7.919 l 2.059,6.653 c -12.672,1.585 -11.722,-11.089 -11.722,-11.089 -1.901,1.585 -5.069,8.078 -5.069,8.078 0,0 -34.215,11.405 -57.342,-22.493 0,0 -0.633,-6.02 1.268,-8.872 l -14.257,-10.771 -18.375,2.535 c 0,0 -7.286,16.473 1.585,26.612 8.871,10.137 19.325,24.394 17.425,31.047 -1.127,3.944 -4.48,5.549 -9.135,5.214 -3.199,-0.231 -7.011,-1.378 -11.139,-3.313 -10.138,-4.753 -34.849,-14.889 -52.59,-6.653 -17.741,8.237 -19.666,22.49 -23.127,33.582 -3.064,9.818 -9.863,34.884 -58.3,57.753 -2.314,1.092 -1.137,4.609 1.346,3.992 20.996,-5.22 49.621,-13.918 58.457,-24.203 l 7.128,0.237 -2.614,10.93 c 0,0 9.267,2.851 10.692,16.395 0,0 -16.236,4.435 -7.049,18.375 0,0 1.426,-10.138 12.672,-10.613 0,0 2.535,3.327 8.078,3.801 0,0 2.851,4.595 1.426,8.396 0,0 11.246,-3.485 1.742,-16.95 0,0 10.613,-2.534 12.039,10.772 0,0 6.812,-21.543 -17.503,-19.959 0,0 0,-3.801 -6.415,-10.692 0,0 -1.583,-3.882 0,-9.267 0.477,-1.621 0.908,-3.303 1.268,-5.017 1.321,0.733 3.352,1.599 6.018,1.692 0,0 3.96,6.494 15.682,5.385 0,0 -8.554,-3.959 -7.762,-11.563 0.792,-7.604 10.772,-11.723 15.049,-8.713 0,0 -1.109,-9.98 -16.632,-3.485 0,0 0,-7.445 8.237,-7.919 0,0 -13.305,-10.138 -16.316,9.187 l -5.506,1.376 c -2.69,-7.457 -6.098,-24.771 8.991,-31.078 15.919,-6.653 32.552,8.317 62.015,9.742 0,0 -2.851,17.345 6.653,21.622 9.504,4.277 32.789,8.317 32.789,8.317 -0.237,25.027 17.978,21.7 17.978,21.7 -8.841,-5.298 -8.841,-15.406 -3.384,-21.31 7.437,-8.046 20.333,-0.392 20.333,-0.392 -0.182,-12.182 -17.266,-10.297 -17.266,-10.297 2.692,-7.919 13.305,-9.98 13.305,-9.98 -14.731,-5.385 -26.929,10.535 -26.929,10.535 l -24.949,-7.128 c 0,0 -0.95,-4.99 4.99,-11.642 5.94,-6.653 10.93,-17.821 9.267,-29.7 0,0 6.891,-4.832 15.444,-0.079 8.553,4.753 26.929,-5.703 26.929,-5.703 7.921,10.137 26.77,8.237 29.304,-3.959 2.538,-12.198 -6.65,-13.624 -6.65,-13.624 z"
   id="path1015" />
	<path
   style="fill:#f5f5f5"
   d="m 359.772,192.126 c -4.712,-2.749 -13.148,-5.069 -15.999,1.267 -2.851,6.336 -6.019,12.672 -15.84,12.355 -9.821,-0.317 -14.257,8.078 -21.068,5.703 0,0 6.336,-2.059 7.604,-5.069 1.267,-3.01 6.336,-8.554 6.336,-8.554 l -0.633,-5.703 c 0,0 -11.722,0.632 -15.207,3.959 -3.485,3.327 -16.632,-2.85 -16.632,-2.85 l 1.585,-13.781 c 0,0 10.137,-15.523 24.236,-14.414 14.098,1.109 16.474,-2.535 23.285,-2.059 6.812,0.476 10.296,7.445 17.582,9.03 7.286,1.585 21.859,-1.426 23.761,3.01 1.901,4.435 -3.644,6.178 -5.069,12.355 -1.427,6.176 -4.437,10.294 -13.941,4.751 z"
   id="path1017" />
</g>
<g
   id="g1033"
   transform="translate(0,-88.276)">
	<path
   style="fill:#fff5dc"
   d="m 318.588,188.165 c 0,0 -6.812,4.594 -12.514,2.692 -5.703,-1.901 -10.772,-1.267 -16.632,0.633 0,0 10.772,-1.267 15.207,2.851 4.435,4.118 15.682,1.426 16.474,-0.317 z"
   id="path1021" />
	<path
   style="fill:#fff5dc"
   d="m 322.072,198.777 c 0,0 -6.653,4.753 -13.305,3.485 -6.653,-1.267 -12.672,1.426 -12.672,1.426 0,0 4.91,-5.386 11.563,-4.435 6.653,0.95 9.028,-5.544 9.028,-5.544 l 4.436,0.317 z"
   id="path1023" />
	<circle
   style="fill:#fff5dc"
   cx="327.45999"
   cy="192.92101"
   r="8.8719997"
   id="circle1025" />
	<path
   style="fill:#fff5dc"
   d="m 322.23,186.264 c 0,0 -3.485,-4.435 -12.198,-2.692 -8.712,1.742 -10.772,-1.426 -10.772,-1.426 0,0 4.118,6.336 10.613,5.544 6.495,-0.792 9.187,3.644 9.187,3.644 z"
   id="path1027" />
	<path
   style="fill:#fff5dc"
   d="m 351.539,175.172 c 0.783,-1.079 1.768,-2.108 3.114,-2.891 0.794,-0.462 1.611,-0.754 2.42,-0.994 0.18,-1.203 0.003,-2.5 -0.683,-3.678 -1.497,-2.57 -4.61,-3.546 -6.954,-2.18 -2.343,1.365 -3.029,4.555 -1.532,7.125 0.841,1.443 2.197,2.313 3.635,2.618 z"
   id="path1029" />
	<path
   style="fill:#fff5dc"
   d="m 343.757,185.378 c 0.446,-1.257 1.099,-2.521 2.168,-3.655 0.631,-0.668 1.332,-1.178 2.039,-1.638 -0.168,-1.204 -0.704,-2.399 -1.696,-3.335 -2.163,-2.041 -5.426,-2.097 -7.287,-0.125 -1.862,1.972 -1.617,5.226 0.547,7.267 1.218,1.15 2.764,1.6 4.229,1.486 z"
   id="path1031" />
</g>
<g
   id="g1035">
</g>
<g
   id="g1037">
</g>
<g
   id="g1039">
</g>
<g
   id="g1041">
</g>
<g
   id="g1043">
</g>
<g
   id="g1045">
</g>
<g
   id="g1047">
</g>
<g
   id="g1049">
</g>
<g
   id="g1051">
</g>
<g
   id="g1053">
</g>
<g
   id="g1055">
</g>
<g
   id="g1057">
</g>
<g
   id="g1059">
</g>
<g
   id="g1061">
</g>
<g
   id="g1063">
</g>
</svg>
