<?xml version="1.0" encoding="UTF-8" standalone="no"?>
<svg
   xmlns:dc="http://purl.org/dc/elements/1.1/"
   xmlns:cc="http://creativecommons.org/ns#"
   xmlns:rdf="http://www.w3.org/1999/02/22-rdf-syntax-ns#"
   xmlns:svg="http://www.w3.org/2000/svg"
   xmlns="http://www.w3.org/2000/svg"
   xmlns:sodipodi="http://sodipodi.sourceforge.net/DTD/sodipodi-0.dtd"
   xmlns:inkscape="http://www.inkscape.org/namespaces/inkscape"
   version="1.1"
   id="Layer_1"
   x="0px"
   y="0px"
   viewBox="0 0 512 335.45001"
   xml:space="preserve"
   sodipodi:docname="belize.svg"
   width="512"
   height="335.45001"
   inkscape:version="1.0.1 (c497b03c, 2020-09-10)"><metadata
   id="metadata787"><rdf:RDF><cc:Work
       rdf:about=""><dc:format>image/svg+xml</dc:format><dc:type
         rdf:resource="http://purl.org/dc/dcmitype/StillImage" /><dc:title></dc:title></cc:Work></rdf:RDF></metadata><defs
   id="defs785" /><sodipodi:namedview
   pagecolor="#ffffff"
   bordercolor="#666666"
   borderopacity="1"
   objecttolerance="10"
   gridtolerance="10"
   guidetolerance="10"
   inkscape:pageopacity="0"
   inkscape:pageshadow="2"
   inkscape:window-width="1797"
   inkscape:window-height="983"
   id="namedview783"
   showgrid="false"
   inkscape:zoom="1.640625"
   inkscape:cx="256"
   inkscape:cy="256"
   inkscape:window-x="0"
   inkscape:window-y="23"
   inkscape:window-maximized="0"
   inkscape:current-layer="Layer_1" />
<path
   style="fill:#ff4b55"
   d="M 511.808,35.328 C 510.336,15.552 493.696,0 473.6,0 H 38.272 C 18.176,0 1.664,15.488 0.064,35.328 H 0 V 300.16 h 0.128 c 1.472,19.776 18.048,35.264 38.144,35.264 H 473.6 c 20.224,0 36.672,-15.616 38.208,-35.328 H 512 V 35.328 Z"
   id="path460" />
<rect
   y="35.332005"
   style="fill:#41479b"
   width="512"
   height="264.82999"
   id="rect462"
   x="0" />
<circle
   style="fill:#f5f5f5"
   cx="256"
   cy="167.742"
   r="114.82"
   id="circle464" />
<g
   id="g470"
   transform="translate(0,-88.288)">
	<path
   style="fill:#82afff"
   d="m 233.984,316.32 -17.728,3.008 c -2.176,0.384 -4.288,-1.28 -4.288,-3.584 v -6.72 h 22.016 z"
   id="path466" />
	<path
   style="fill:#82afff"
   d="m 277.888,316.32 17.728,3.008 c 2.176,0.384 4.288,-1.28 4.288,-3.584 v -6.72 h -22.016 z"
   id="path468" />
</g>
<g
   id="g484"
   transform="translate(0,-88.288)">
	<path
   style="fill:#965032"
   d="m 252.288,197.216 h -1.472 c -1.792,0 -3.52,-1.024 -4.288,-2.688 l -2.688,-5.376 2.496,-1.216 2.688,5.376 c 0.384,0.704 1.088,1.088 1.92,1.088 h 1.472 v 2.816 z"
   id="path472" />
	
		<rect
   x="219.94501"
   y="195.396"
   transform="matrix(-0.4472,-0.8944,0.8944,-0.4472,149.6537,485.9717)"
   style="fill:#965032"
   width="10.112"
   height="2.688"
   id="rect474" />
	<path
   style="fill:#965032"
   d="m 260.992,239.52 -7.488,-7.488 c -1.6,-1.6 -2.624,-3.904 -2.624,-6.208 v -2.496 c 0,-0.896 -0.192,-1.92 -0.576,-2.688 l -1.92,-3.712 c -0.384,-0.832 -1.216,-1.28 -1.984,-1.28 h -6.528 c -1.92,0 -3.584,-1.088 -4.48,-2.816 l -2.624,-5.312 2.496,-1.216 2.624,5.312 c 0.384,0.832 1.216,1.28 1.984,1.28 h 6.528 c 1.92,0 3.584,1.088 4.48,2.816 l 1.92,3.712 c 0.576,1.216 0.896,2.624 0.896,3.904 v 2.496 c 0,1.6 0.576,3.072 1.792,4.224 l 2.816,2.816 v -12.8 c 0,-3.52 -1.216,-6.912 -3.392,-9.6 -2.624,-3.2 -4.032,-7.232 -4.032,-11.328 v -10.624 h 2.688 v 10.624 c 0,3.52 1.216,6.912 3.392,9.6 2.624,3.2 4.032,7.232 4.032,11.328 z"
   id="path476" />
	<path
   style="fill:#965032"
   d="m 254.4,232.416 h -4.096 c -2.496,0 -4.8,-1.6 -5.696,-3.904 l -1.024,-2.816 2.624,-1.024 1.024,2.816 c 0.512,1.28 1.728,2.112 3.072,2.112 h 4.096 z"
   id="path478" />
	
		<rect
   x="257.922"
   y="183.32401"
   transform="matrix(-0.915,-0.4035,0.4035,-0.915,414.7991,492.3181)"
   style="fill:#965032"
   width="2.688"
   height="38.271"
   id="rect480" />
	<polygon
   style="fill:#965032"
   points="258.688,212.832 269.184,212.832 269.184,199.52 272,199.52 272,215.648 258.688,215.648 "
   id="polygon482" />
</g>
<g
   id="g504"
   transform="translate(0,-88.288)">
	<path
   style="fill:#73af00"
   d="m 246.784,228.832 h -11.008 c -3.008,0 -5.504,-2.496 -5.504,-5.504 v 0 c 0,-3.008 2.496,-5.504 5.504,-5.504 h 11.008 c 3.008,0 5.504,2.496 5.504,5.504 v 0 c 0,3.136 -2.496,5.504 -5.504,5.504 z"
   id="path486" />
	<path
   style="fill:#73af00"
   d="m 272.384,228.832 h -11.008 c -3.008,0 -5.504,-2.496 -5.504,-5.504 v 0 c 0,-3.008 2.496,-5.504 5.504,-5.504 h 11.008 c 3.008,0 5.504,2.496 5.504,5.504 v 0 c 0,3.136 -2.368,5.504 -5.504,5.504 z"
   id="path488" />
	<path
   style="fill:#73af00"
   d="M 283.392,217.824 H 268.8 c -3.008,0 -5.504,-2.496 -5.504,-5.504 v 0 c 0,-3.008 2.496,-5.504 5.504,-5.504 h 14.592 c 3.008,0 5.504,2.496 5.504,5.504 v 0 c 0,3.136 -2.496,5.504 -5.504,5.504 z"
   id="path490" />
	<path
   style="fill:#73af00"
   d="m 287.104,203.232 h -25.6 c -3.008,0 -5.504,-2.496 -5.504,-5.504 v 0 c 0,-3.008 2.496,-5.504 5.504,-5.504 h 25.6 c 3.008,0 5.504,2.496 5.504,5.504 v 0 c 0,3.008 -2.496,5.504 -5.504,5.504 z"
   id="path492" />
	<path
   style="fill:#73af00"
   d="m 272.384,188.64 h -7.296 c -3.008,0 -5.504,-2.496 -5.504,-5.504 v 0 c 0,-3.008 2.496,-5.504 5.504,-5.504 h 7.296 c 3.008,0 5.504,2.496 5.504,5.504 v 0 c 0,3.008 -2.368,5.504 -5.504,5.504 z"
   id="path494" />
	<path
   style="fill:#73af00"
   d="m 224.832,195.936 h -3.712 c -3.008,0 -5.504,-2.496 -5.504,-5.504 v 0 c 0,-3.008 2.496,-5.504 5.504,-5.504 h 3.712 c 3.008,0 5.504,2.496 5.504,5.504 v 0 c -0.064,3.008 -2.432,5.504 -5.504,5.504 z"
   id="path496" />
	<path
   style="fill:#73af00"
   d="m 250.496,192.224 h -11.008 c -3.008,0 -5.504,-2.496 -5.504,-5.504 v 0 c 0,-3.008 2.496,-5.504 5.504,-5.504 h 11.008 c 3.008,0 5.504,2.496 5.504,5.504 v 0 c -0.128,3.136 -2.496,5.504 -5.504,5.504 z"
   id="path498" />
	<path
   style="fill:#73af00"
   d="m 246.784,210.528 h -22.016 c -3.008,0 -5.504,-2.496 -5.504,-5.504 v 0 c 0,-3.008 2.496,-5.504 5.504,-5.504 h 22.016 c 3.008,0 5.504,2.496 5.504,5.504 v 0 c 0,3.136 -2.496,5.504 -5.504,5.504 z"
   id="path500" />
	<path
   style="fill:#73af00"
   d="M 310.912,287.136 H 201.024 c -4.032,0 -7.296,3.328 -7.296,7.296 0,3.968 3.328,7.296 7.296,7.296 h 29.312 c 0,4.032 3.328,7.296 7.296,7.296 h 36.608 c 4.032,0 7.296,-3.328 7.296,-7.296 h 29.312 c 4.032,0 7.296,-3.328 7.296,-7.296 0.064,-4.096 -3.264,-7.296 -7.232,-7.296 z"
   id="path502" />
</g>
<path
   style="fill:#be7855"
   d="m 328.896,133.824 c -0.32,-0.512 -1.728,0.128 -2.624,-0.192 -11.072,-4.096 -25.92,-11.584 -35.584,-16.704 l -1.92,-3.072 -18.368,-8.896 c -1.216,-0.576 -2.624,-0.128 -3.2,1.024 l -0.896,1.6 c -0.704,1.216 -0.192,2.816 1.024,3.392 l 17.472,9.088 4.992,-0.384 19.2,9.92 c 0,0 13.12,6.72 13.824,7.232 0.704,0.512 1.088,3.2 2.432,3.008 0.832,-0.32 4.864,-3.584 3.648,-6.016 z"
   id="path506" />
<g
   id="g512"
   transform="translate(0,-88.288)">
	<path
   style="fill:#ffbe3c"
   d="m 207.616,292.512 c 0,0 1.216,5.376 0.128,6.016 -1.088,0.576 -7.232,0.576 -7.104,-0.704 0.192,-1.28 1.024,-5.888 1.024,-5.888 z"
   id="path508" />
	<path
   style="fill:#ffbe3c"
   d="m 217.728,289.632 c 0,0 -1.024,4.032 1.024,4.224 2.048,0.192 13.184,0.128 13.504,-0.192 0.32,-0.32 0.704,-1.088 0.704,-1.088 l -10.432,-2.88 h -4.8 z"
   id="path510" />
</g>
<path
   style="fill:#eaf3f5"
   d="m 206.272,150.976 c 0,0 -2.688,6.528 -3.712,28.928 -0.32,6.016 0.512,4.608 -2.496,23.808 l 3.52,1.792 c 1.024,0.512 2.304,0.512 3.328,-0.128 l 3.392,-2.112 c 0,0 -1.728,-21.504 3.776,-33.92 0,0 2.88,5.312 2.88,9.28 0,3.968 -0.192,22.976 -0.192,22.976 0,0 6.4,1.088 9.28,0.832 0,0 -1.792,-41.408 -3.712,-51.072 z"
   id="path514" />
<g
   id="g520"
   transform="translate(0,-88.288)">
	<path
   style="fill:#965032"
   d="m 206.912,236.512 c 0,0 -1.088,0.832 -0.512,2.688 0,0 8.384,3.584 16.192,0.512 0,0 0.896,-1.28 -0.192,-2.816 z"
   id="path516" />
	<path
   style="fill:#965032"
   d="m 195.712,216.736 c -4.8,1.792 -12.032,6.208 -11.52,9.728 0.512,3.52 2.88,2.688 3.712,1.792 0.832,-0.896 3.008,-3.584 3.712,-4.096 0.704,-0.512 11.904,-6.272 11.904,-6.272 l 29.824,-15.296 c 0,0 0.192,-1.472 -1.472,-2.688 -0.192,-0.064 -18.368,10.112 -36.16,16.832 z"
   id="path518" />
</g>
<path
   style="fill:#ffbe3c"
   d="m 209.728,111.168 -0.192,1.28 c 0,0 -0.512,8.128 2.176,10.176 0,0 0.576,1.728 -0.32,2.496 -0.896,0.832 -9.984,5.376 -9.984,5.376 0,0 -2.304,4.928 -2.304,7.616 0,0 -2.176,-0.896 -1.984,-1.92 0.192,-1.088 1.472,-3.904 1.088,-5.312 -0.384,-1.408 -1.92,-1.024 -1.92,-1.024 0,0 -0.704,0.832 0.512,1.28 l -0.384,1.728 -4.928,2.88 1.088,1.28 c 0,0 0.128,10.112 6.016,11.392 0,0 3.072,0.192 6.912,-6.912 0,0 1.984,3.52 1.28,6.592 0,0 6.528,3.52 15.424,0.512 l 0.128,-6.208 c 0,0 1.408,9.472 6.08,8.576 0,0 12.992,-4.992 10.816,-6.912 -4.992,-4.416 -11.072,-0.704 -11.072,-0.704 -0.32,-6.4 -0.832,-14.72 -1.728,-15.616 -1.408,-1.472 -5.632,-0.704 -6.4,-2.624 -0.832,-1.92 -0.576,-5.312 0.32,-9.216 0.896,-3.904 -3.712,-6.592 -3.712,-6.592 z"
   id="path522" />
<path
   style="fill:#464655"
   d="m 209.6,112.448 c 0,0 4.672,1.216 8.32,-0.32 l 1.6,4.032 h 0.896 c 0,0 2.176,-7.296 -0.704,-7.296 0,0 0,-2.432 -5.12,-2.304 -4.416,0.064 -6.016,3.008 -4.992,5.888 z"
   id="path524" />
<g
   id="g530"
   transform="translate(0,-88.288)">
	<path
   style="fill:#965032"
   d="m 304.896,292.512 c 0,0 -1.216,5.376 -0.128,6.016 1.088,0.576 7.232,0.576 7.104,-0.704 -0.192,-1.28 -1.024,-5.888 -1.024,-5.888 z"
   id="path526" />
	<path
   style="fill:#965032"
   d="m 294.784,289.632 c 0,0 1.024,4.032 -1.024,4.224 -2.048,0.192 -13.184,0.128 -13.504,-0.192 -0.32,-0.32 -0.704,-1.088 -0.704,-1.088 l 10.368,-2.88 h 4.864 z"
   id="path528" />
</g>
<path
   style="fill:#eaf3f5"
   d="m 306.112,150.976 c 0,0 2.688,6.528 3.712,28.928 0.32,6.016 -0.512,4.608 2.496,23.808 l -3.52,1.792 c -1.024,0.512 -2.304,0.512 -3.328,-0.128 l -3.392,-2.112 c 0,0 1.728,-21.504 -3.776,-33.92 0,0 -2.88,5.312 -2.88,9.28 0,3.968 0.192,22.976 0.192,22.976 0,0 -6.4,1.088 -9.28,0.832 0,0 1.792,-41.408 3.712,-51.072 z"
   id="path532" />
<path
   style="fill:#be7855"
   d="m 305.6,148.224 c 0,0 1.088,0.832 0.512,2.688 0,0 -8.384,3.584 -16.192,0.512 0,0 -0.896,-1.28 0.192,-2.816 z"
   id="path534" />
<path
   style="fill:#965032"
   d="m 302.784,111.168 0.192,1.28 c 0,0 0.512,8.128 -2.176,10.176 0,0 -0.576,1.728 0.32,2.496 0.896,0.832 9.984,5.376 9.984,5.376 0,0 2.304,4.928 2.304,7.616 0,0 2.176,-0.896 1.984,-1.92 -0.192,-1.088 -1.472,-3.904 -1.088,-5.312 0.384,-1.408 1.92,-1.024 1.92,-1.024 0,0 0.704,0.832 -0.512,1.28 l 0.384,1.728 4.928,2.88 -1.088,1.28 c 0,0 -0.128,10.112 -6.016,11.392 0,0 -3.072,0.192 -6.912,-6.912 0,0 -1.984,3.52 -1.28,6.592 0,0 -6.528,3.52 -15.424,0.512 l -0.128,-6.208 c 0,0 -1.408,9.472 -6.08,8.576 0,0 -12.992,-4.992 -10.816,-6.912 4.992,-4.416 11.072,-0.704 11.072,-0.704 0.32,-6.4 0.832,-14.72 1.728,-15.616 1.408,-1.472 5.632,-0.704 6.4,-2.624 0.832,-1.92 0.576,-5.312 -0.32,-9.216 -0.896,-3.904 3.712,-6.592 3.712,-6.592 z"
   id="path536" />
<path
   style="fill:#464655"
   d="m 302.912,112.448 c 0,0 -4.672,1.216 -8.32,-0.32 l -1.6,4.032 h -0.896 c 0,0 -2.176,-7.296 0.704,-7.296 0,0 0,-2.432 5.12,-2.304 4.352,0.064 5.952,3.008 4.992,5.888 z"
   id="path538" />
<path
   style="fill:#eaf3f5"
   d="m 224.512,115.456 c -0.384,-0.896 0.32,-1.216 0.32,-1.216 0,0 4.608,-2.496 5.184,-2.496 0.896,0.128 1.984,1.6 1.984,3.008 0,1.28 1.728,4.8 5.312,5.696 0,0 -4.48,6.08 -10.688,5.184 -0.128,0 0.256,-4.096 -2.112,-10.176 z"
   id="path540" />
<path
   style="fill:#82afff"
   d="m 230.976,143.872 c -1.408,0 -2.496,1.216 -2.496,2.624 v 30.272 c 0,7.296 3.392,33.024 27.52,40.32 24,-7.296 27.52,-33.024 27.52,-40.32 v -30.272 c 0,-1.472 -1.088,-2.624 -2.496,-2.624 z"
   id="path542" />
<path
   style="fill:#ffe15a"
   d="M 283.392,176.832 V 146.56 c 0,-1.472 -1.088,-2.624 -2.496,-2.624 h -25.024 v 25.6 L 280,193.664 c 2.688,-7.104 3.392,-13.632 3.392,-16.832 z"
   id="path544" />
<path
   style="fill:#eaf3f5"
   d="M 228.48,176.832 V 146.56 c 0,-1.472 1.088,-2.624 2.496,-2.624 H 256 v 25.6 l -24.128,24.128 c -2.752,-7.104 -3.392,-13.632 -3.392,-16.832 z"
   id="path546" />
<polygon
   style="fill:#8c5a28"
   points="263.808,287.84 267.52,283.04 263.232,284.832 248.896,284.832 239.68,281.12 246.08,287.84 "
   id="polygon548"
   transform="translate(0,-88.288)" />
<path
   style="fill:#f5f5f5"
   d="m 246.592,184.128 -1.024,9.792 -4.416,-1.728 c 0.064,0.064 2.048,-4.672 5.44,-8.064 z"
   id="path550" />
<g
   id="g558"
   transform="translate(0,-88.288)">
	<rect
   x="255.3"
   y="268.64001"
   style="fill:#8c5a28"
   width="0.704"
   height="16.704"
   id="rect552" />
	<rect
   x="261.31"
   y="270.04999"
   style="fill:#8c5a28"
   width="0.704"
   height="15.232"
   id="rect554" />
	<rect
   x="249.28"
   y="270.04999"
   style="fill:#8c5a28"
   width="0.704"
   height="15.232"
   id="rect556" />
</g>
<g
   id="g578"
   transform="translate(0,-88.288)">
	<path
   style="fill:#f5f5f5"
   d="m 257.792,283.616 h -4.416 c -0.32,0 -0.512,-0.192 -0.512,-0.512 v -2.368 c 0,-0.32 0.192,-0.512 0.512,-0.512 h 4.416 c 0.32,0 0.512,0.192 0.512,0.512 v 2.368 c 0.128,0.32 -0.192,0.512 -0.512,0.512 z"
   id="path560" />
	<path
   style="fill:#f5f5f5"
   d="m 257.792,279.008 h -4.416 c -0.32,0 -0.512,-0.192 -0.512,-0.512 V 276 c 0,-0.32 0.192,-0.512 0.512,-0.512 h 4.416 c 0.32,0 0.512,0.192 0.512,0.512 v 2.432 c 0.128,0.32 -0.192,0.576 -0.512,0.576 z"
   id="path562" />
	<path
   style="fill:#f5f5f5"
   d="m 257.792,274.656 h -4.416 c -0.32,0 -0.512,-0.192 -0.512,-0.512 v -2.368 c 0,-0.32 0.192,-0.512 0.512,-0.512 h 4.416 c 0.32,0 0.512,0.192 0.512,0.512 v 2.368 c 0.128,0.32 -0.192,0.512 -0.512,0.512 z"
   id="path564" />
	<path
   style="fill:#f5f5f5"
   d="m 263.488,283.616 h -3.712 c -0.32,0 -0.512,-0.192 -0.512,-0.512 v -2.368 c 0,-0.32 0.192,-0.512 0.512,-0.512 h 3.712 c 0.32,0 0.512,0.192 0.512,0.512 v 2.368 c 0,0.32 -0.192,0.512 -0.512,0.512 z"
   id="path566" />
	<path
   style="fill:#f5f5f5"
   d="m 263.488,279.328 h -3.712 c -0.32,0 -0.512,-0.192 -0.512,-0.512 v -1.92 c 0,-0.32 0.192,-0.512 0.512,-0.512 h 3.712 c 0.32,0 0.512,0.192 0.512,0.512 v 1.92 c 0,0.32 -0.192,0.512 -0.512,0.512 z"
   id="path568" />
	<path
   style="fill:#f5f5f5"
   d="m 263.488,275.104 h -3.712 c -0.32,0 -0.512,-0.192 -0.512,-0.512 v -1.408 c 0,-0.32 0.192,-0.512 0.512,-0.512 h 3.712 c 0.32,0 0.512,0.192 0.512,0.512 v 1.408 c 0,0.256 -0.192,0.512 -0.512,0.512 z"
   id="path570" />
	<path
   style="fill:#f5f5f5"
   d="m 251.392,283.616 h -3.712 c -0.32,0 -0.512,-0.192 -0.512,-0.512 v -2.368 c 0,-0.32 0.192,-0.512 0.512,-0.512 h 3.712 c 0.32,0 0.512,0.192 0.512,0.512 v 2.368 c 0.128,0.32 -0.192,0.512 -0.512,0.512 z"
   id="path572" />
	<path
   style="fill:#f5f5f5"
   d="m 251.392,279.328 h -3.712 c -0.32,0 -0.512,-0.192 -0.512,-0.512 v -1.92 c 0,-0.32 0.192,-0.512 0.512,-0.512 h 3.712 c 0.32,0 0.512,0.192 0.512,0.512 v 1.92 c 0.128,0.32 -0.192,0.512 -0.512,0.512 z"
   id="path574" />
	<path
   style="fill:#f5f5f5"
   d="m 251.392,275.104 h -3.712 c -0.32,0 -0.512,-0.192 -0.512,-0.512 v -1.408 c 0,-0.32 0.192,-0.512 0.512,-0.512 h 3.712 c 0.32,0 0.512,0.192 0.512,0.512 v 1.408 c 0.128,0.256 -0.192,0.512 -0.512,0.512 z"
   id="path576" />
</g>
<g
   id="g586"
   transform="translate(0,-88.288)">
	<polygon
   style="fill:#ff4b55"
   points="258.432,271.008 261.312,270.048 261.312,272.032 "
   id="polygon580" />
	<polygon
   style="fill:#ff4b55"
   points="246.4,271.008 249.28,270.048 249.28,272.032 "
   id="polygon582" />
	<polygon
   style="fill:#ff4b55"
   points="252.416,269.536 255.296,268.64 255.296,270.56 "
   id="polygon584" />
</g>
<path
   style="fill:#4173cd"
   d="m 277.696,198.848 h -43.584 c 0.576,1.216 1.408,2.496 2.176,3.712 h 39.296 c 0.832,-1.344 1.536,-2.496 2.112,-3.712 z"
   id="path588" />
<path
   style="fill:#73af00"
   d="m 275.584,202.432 h -39.296 v 0 c 1.728,2.624 3.904,5.12 6.4,7.296 h 26.432 c 2.56,-2.176 4.672,-4.672 6.464,-7.296 z"
   id="path590" />
<path
   style="fill:#ffe15a"
   d="m 242.688,209.728 c 3.52,3.072 7.808,5.696 13.184,7.296 5.376,-1.6 9.728,-4.224 13.184,-7.296 z"
   id="path592" />
<path
   style="fill:#be7855"
   d="m 251.2,171.648 c 0,0 -0.32,0.128 -0.576,0.128 -0.192,-0.128 -0.704,-0.128 -0.384,-1.024 0.128,-0.384 0.384,-1.024 0.192,-1.216 -0.192,-0.192 -0.32,-0.384 -0.512,-0.576 -0.384,-0.384 -0.832,-0.896 -1.28,-1.472 -1.024,-1.088 -2.112,-2.304 -3.392,-3.52 -0.704,-0.576 -1.28,-1.216 -1.984,-1.92 -0.704,-0.576 -1.408,-1.28 -2.176,-1.92 -0.384,-0.192 -1.024,-0.384 -1.472,-0.512 -0.512,-0.192 -0.832,-0.576 -1.088,-0.896 -0.704,-0.576 -1.408,-1.28 -1.984,-1.92 -1.28,-1.216 -2.496,-2.368 -3.52,-3.392 -1.024,-1.024 -1.792,-1.792 -2.304,-2.432 -0.512,-0.576 -0.512,-1.472 0.128,-1.984 l 1.6,-1.6 c 0.576,-0.512 1.472,-0.512 1.984,0 0.576,0.576 1.408,1.408 2.432,2.368 1.024,0.96 2.112,2.304 3.328,3.584 0.576,0.704 1.216,1.408 1.792,2.112 0.32,0.384 0.704,0.704 0.832,1.216 0.192,0.512 0.32,1.088 0.512,1.472 0.512,0.832 1.216,1.472 1.792,2.176 0.576,0.704 1.216,1.408 1.792,2.112 1.216,1.408 2.304,2.624 3.392,3.584 0.512,0.512 1.024,0.896 1.408,1.28 0.192,0.192 0.384,0.384 0.576,0.576 0.128,0.192 0.704,-0.128 1.216,-0.192 0.896,-0.192 0.896,0.192 0.896,0.384 0,0.32 -0.128,0.576 -0.128,0.576 z"
   id="path594" />
<path
   style="fill:#965032"
   d="m 233.28,174.528 c -0.32,0 -0.576,-0.128 -0.832,-0.32 -0.576,-0.512 -0.704,-1.28 -0.32,-1.92 L 245.12,154.56 c 0.384,-0.576 1.28,-0.704 1.92,-0.32 0.576,0.512 0.704,1.28 0.32,1.92 l -12.992,17.728 c -0.256,0.448 -0.64,0.64 -1.088,0.64 z"
   id="path596" />
<polygon
   style="fill:#f5f5f5"
   points="253.376,242.208 247.104,237.152 243.712,241.76 250.496,246.24 "
   id="polygon598"
   transform="translate(0,-88.288)" />
<path
   style="fill:#965032"
   d="m 261.824,151.744 17.408,21.504 c 0,0 2.432,0.128 2.112,-1.792 l -17.984,-21.12 z"
   id="path600" />
<path
   style="fill:#eaf3f5"
   d="m 257.92,154.752 c 0,0 4.928,-0.896 6.912,-3.904 l 2.816,3.328 c 0,0 -4.608,3.2 -4.992,6.72 -0.064,-0.128 -3.776,-1.152 -4.736,-6.144 z"
   id="path602" />
<g
   id="g608"
   transform="translate(0,-88.288)">
	<path
   style="fill:#965032"
   d="m 276.672,240.864 c -0.32,0 -0.576,-0.192 -0.832,-0.512 -0.512,-0.896 -0.576,-1.792 -0.32,-2.496 0.512,-1.024 1.472,-1.28 1.728,-1.408 0.512,-0.128 1.024,0.192 1.088,0.576 0.128,0.512 -0.192,1.024 -0.576,1.088 -0.128,0 -0.384,0.192 -0.512,0.384 -0.128,0.192 0,0.576 0.192,1.024 0.192,0.384 0.128,1.024 -0.384,1.216 -0.064,0.128 -0.256,0.128 -0.384,0.128 z"
   id="path604" />
	<path
   style="fill:#965032"
   d="m 262.4,254.112 c 0,-0.32 -0.192,-0.576 -0.512,-0.832 -0.896,-0.512 -1.792,-0.576 -2.496,-0.32 -1.024,0.512 -1.28,1.472 -1.408,1.728 -0.128,0.512 0.192,1.024 0.576,1.088 0.512,0.128 1.024,-0.192 1.088,-0.576 0,-0.128 0.192,-0.384 0.384,-0.512 0.192,-0.128 0.576,0 1.024,0.192 0.384,0.192 1.024,0.128 1.216,-0.384 0.128,-0.064 0.128,-0.256 0.128,-0.384 z"
   id="path606" />
</g>
<polygon
   style="fill:#eaf3f5"
   points="264.704,259.232 280.768,243.104 277.312,238.816 260.928,254.944 "
   id="polygon610"
   transform="translate(0,-88.288)" />
<path
   style="fill:#ffbe3c"
   d="m 194.112,127.424 c 1.088,-0.32 2.112,1.216 1.088,2.304 -1.024,1.088 -3.904,3.008 -4.672,2.816 -1.6,-0.32 -2.752,-3.712 3.584,-5.12 z"
   id="path612" />
<path
   style="fill:#965032"
   d="m 318.272,128.96 c -1.024,-0.32 -1.92,1.216 -1.024,2.304 0.896,1.088 3.584,3.008 4.416,2.816 1.536,-0.32 2.432,-3.648 -3.392,-5.12 z"
   id="path614" />
<path
   style="fill:#464655"
   d="m 280.896,143.872 c 1.408,0 2.496,1.216 2.496,2.624 v 30.272 c 0,7.296 -3.392,33.024 -27.52,40.32 -24,-7.296 -27.52,-33.024 -27.52,-40.32 v -30.272 c 0,-1.472 1.088,-2.624 2.496,-2.624 h 50.048 m 0,-1.856 h -49.92 c -2.432,0 -4.288,1.984 -4.288,4.48 v 30.272 c 0,1.728 0.192,11.008 4.928,20.928 4.992,10.624 13.184,17.92 23.872,21.12 l 0.512,0.192 0.512,-0.192 c 10.688,-3.2 18.88,-10.496 23.872,-21.12 4.672,-9.92 4.928,-19.2 4.928,-20.928 v -30.272 c -0.128,-2.432 -1.984,-4.48 -4.416,-4.48 z"
   id="path616" />
<path
   style="fill:#eaf3f5"
   d="m 299.904,217.536 c -7.808,-2.624 -16.128,-1.408 -24,3.776 -10.112,6.72 -16.704,6.72 -19.904,6.72 -3.2,0 -9.92,0 -19.904,-6.72 -7.872,-5.184 -16.192,-6.528 -24,-3.776 v 7.808 c 4.928,-2.304 11.776,-3.328 19.904,2.112 11.904,7.872 20.416,7.872 24,7.872 3.584,0 12.096,0 24,-7.872 8.128,-5.376 14.976,-4.416 19.904,-2.112 z"
   id="path618" />
<path
   style="fill:#965032"
   d="m 255.872,259.264 c -51.52,0 -93.376,-41.92 -93.376,-93.376 0,-51.456 41.92,-93.376 93.376,-93.376 51.456,0 93.44,41.856 93.44,93.312 0,51.456 -41.92,93.44 -93.44,93.44 z m 0,-183.104 c -49.472,0 -89.728,40.192 -89.728,89.728 0,49.536 40.192,89.728 89.728,89.728 49.536,0 89.728,-40.256 89.728,-89.792 0,-49.536 -40.192,-89.664 -89.728,-89.664 z"
   id="path620" />
<g
   id="g750"
   transform="translate(0,-88.288)">
	<path
   style="fill:#73af00"
   d="m 153.792,261.92 c 0,0 -0.384,-11.392 10.624,-11.392 0,0 0.192,4.48 -3.712,6.528 -3.2,1.472 -6.912,4.864 -6.912,4.864 z"
   id="path622" />
	<path
   style="fill:#73af00"
   d="m 174.976,261.92 c 0,0 0.384,-11.392 -10.624,-11.392 0,0 -0.192,4.48 3.712,6.528 3.328,1.472 6.912,4.864 6.912,4.864 z"
   id="path624" />
	<path
   style="fill:#73af00"
   d="m 358.016,250.464 c 0,0 0.384,11.392 -10.624,11.392 0,0 -0.192,-4.48 3.712,-6.528 3.2,-1.472 6.912,-4.864 6.912,-4.864 z"
   id="path626" />
	<path
   style="fill:#73af00"
   d="m 336.832,250.464 c 0,0 -0.384,11.392 10.624,11.392 0,0 0.192,-4.48 -3.712,-6.528 -3.328,-1.472 -6.912,-4.864 -6.912,-4.864 z"
   id="path628" />
	<path
   style="fill:#73af00"
   d="m 261.632,358.304 c 0,0 -11.392,0.384 -11.392,-10.624 0,0 4.48,-0.192 6.528,3.712 1.536,3.264 4.864,6.912 4.864,6.912 z"
   id="path630" />
	<path
   style="fill:#73af00"
   d="m 261.632,337.056 c 0,0 -11.392,-0.384 -11.392,10.624 0,0 4.48,0.192 6.528,-3.712 1.536,-3.264 4.864,-6.912 4.864,-6.912 z"
   id="path632" />
	<path
   style="fill:#73af00"
   d="m 250.176,154.144 c 0,0 11.392,-0.384 11.392,10.624 0,0 -4.48,0.192 -6.528,-3.712 -1.536,-3.328 -4.864,-6.912 -4.864,-6.912 z"
   id="path634" />
	<path
   style="fill:#73af00"
   d="m 250.176,175.328 c 0,0 11.392,0.384 11.392,-10.624 0,0 -4.48,-0.192 -6.528,3.712 -1.536,3.2 -4.864,6.912 -4.864,6.912 z"
   id="path636" />
	<path
   style="fill:#73af00"
   d="m 187.776,332.448 c 0,0 -8.384,-7.808 -0.576,-15.616 0,0 3.328,3.008 1.92,7.232 -1.088,3.392 -1.344,8.384 -1.344,8.384 z"
   id="path638" />
	<path
   style="fill:#73af00"
   d="m 202.816,317.408 c 0,0 -7.808,-8.384 -15.616,-0.576 0,0 3.008,3.328 7.232,1.92 3.392,-1.088 8.384,-1.344 8.384,-1.344 z"
   id="path640" />
	<path
   style="fill:#73af00"
   d="m 324.096,179.936 c 0,0 8.384,7.808 0.576,15.616 0,0 -3.328,-3.008 -1.92,-7.232 1.024,-3.392 1.344,-8.384 1.344,-8.384 z"
   id="path642" />
	<path
   style="fill:#73af00"
   d="m 309.12,194.912 c 0,0 7.808,8.384 15.616,0.576 0,0 -3.008,-3.328 -7.232,-1.92 -3.52,1.152 -8.384,1.344 -8.384,1.344 z"
   id="path644" />
	<path
   style="fill:#73af00"
   d="m 332.096,324.32 c 0,0 -7.808,8.384 -15.616,0.576 0,0 3.008,-3.328 7.232,-1.92 3.52,1.152 8.384,1.344 8.384,1.344 z"
   id="path646" />
	<path
   style="fill:#73af00"
   d="m 317.12,309.344 c 0,0 -8.384,7.808 -0.576,15.616 0,0 3.328,-3.008 1.92,-7.232 -1.088,-3.392 -1.344,-8.384 -1.344,-8.384 z"
   id="path648" />
	<path
   style="fill:#73af00"
   d="m 179.712,188.064 c 0,0 7.808,-8.384 15.616,-0.576 0,0 -3.008,3.328 -7.232,1.92 -3.52,-1.152 -8.384,-1.344 -8.384,-1.344 z"
   id="path650" />
	<path
   style="fill:#73af00"
   d="m 194.688,203.04 c 0,0 8.384,-7.808 0.576,-15.616 0,0 -3.328,3.008 -1.92,7.232 1.152,3.456 1.344,8.384 1.344,8.384 z"
   id="path652" />
	<path
   style="fill:#73af00"
   d="m 163.776,300.512 c 0,0 -4.672,-10.432 5.376,-14.592 0,0 1.92,4.096 -1.024,7.424 -2.24,2.688 -4.352,7.168 -4.352,7.168 z"
   id="path654" />
	<path
   style="fill:#73af00"
   d="m 183.424,292.448 c 0,0 -4.032,-10.688 -14.208,-6.528 0,0 1.472,4.224 5.888,4.608 3.584,0.192 8.32,1.92 8.32,1.92 z"
   id="path656" />
	<path
   style="fill:#73af00"
   d="m 348.032,211.808 c 0,0 4.672,10.432 -5.376,14.592 0,0 -1.92,-4.096 1.024,-7.424 2.24,-2.624 4.352,-7.168 4.352,-7.168 z"
   id="path658" />
	<path
   style="fill:#73af00"
   d="m 328.384,219.936 c 0,0 4.032,10.688 14.208,6.528 0,0 -1.472,-4.224 -5.888,-4.608 -3.584,-0.192 -8.32,-1.92 -8.32,-1.92 z"
   id="path660" />
	<path
   style="fill:#73af00"
   d="m 300.288,348.32 c 0,0 -10.368,4.672 -14.592,-5.376 0,0 4.096,-1.92 7.424,1.024 2.688,2.24 7.168,4.352 7.168,4.352 z"
   id="path662" />
	<path
   style="fill:#73af00"
   d="m 292.096,328.736 c 0,0 -10.688,4.032 -6.528,14.208 0,0 4.224,-1.472 4.608,-5.888 0.256,-3.648 1.92,-8.32 1.92,-8.32 z"
   id="path664" />
	<path
   style="fill:#73af00"
   d="m 211.584,164.064 c 0,0 10.432,-4.672 14.592,5.376 0,0 -4.096,1.92 -7.424,-1.024 -2.624,-2.304 -7.168,-4.352 -7.168,-4.352 z"
   id="path666" />
	<path
   style="fill:#73af00"
   d="m 219.712,183.648 c 0,0 10.688,-4.032 6.528,-14.208 0,0 -4.224,1.472 -4.608,5.888 -0.256,3.712 -1.92,8.32 -1.92,8.32 z"
   id="path668" />
	<path
   style="fill:#73af00"
   d="m 222.08,352.736 c 0,0 -10.688,-4.032 -6.528,-14.208 0,0 4.224,1.472 4.608,5.888 0.256,3.648 1.92,8.32 1.92,8.32 z"
   id="path670" />
	<path
   style="fill:#73af00"
   d="m 230.208,333.152 c 0,0 -10.432,-4.672 -14.592,5.376 0,0 4.096,1.92 7.424,-1.024 2.688,-2.24 7.168,-4.352 7.168,-4.352 z"
   id="path672" />
	<path
   style="fill:#73af00"
   d="m 289.728,159.712 c 0,0 10.688,4.032 6.528,14.208 0,0 -4.224,-1.472 -4.608,-5.888 -0.256,-3.712 -1.92,-8.32 -1.92,-8.32 z"
   id="path674" />
	<path
   style="fill:#73af00"
   d="m 281.6,179.232 c 0,0 10.432,4.672 14.592,-5.376 0,0 -4.096,-1.92 -7.424,1.024 -2.688,2.368 -7.168,4.352 -7.168,4.352 z"
   id="path676" />
	<path
   style="fill:#73af00"
   d="m 352.384,289.952 c 0,0 -4.032,10.688 -14.208,6.528 0,0 1.472,-4.224 5.888,-4.608 3.712,-0.256 8.32,-1.92 8.32,-1.92 z"
   id="path678" />
	<path
   style="fill:#73af00"
   d="m 332.8,281.824 c 0,0 -4.672,10.432 5.376,14.592 0,0 1.92,-4.096 -1.024,-7.424 -2.24,-2.688 -4.352,-7.168 -4.352,-7.168 z"
   id="path680" />
	<path
   style="fill:#73af00"
   d="m 159.424,222.432 c 0,0 4.032,-10.688 14.208,-6.528 0,0 -1.472,4.224 -5.888,4.608 -3.648,0.192 -8.32,1.92 -8.32,1.92 z"
   id="path682" />
	<path
   style="fill:#73af00"
   d="m 179.008,230.56 c 0,0 4.672,-10.432 -5.376,-14.592 0,0 -1.92,4.096 1.024,7.424 2.24,2.624 4.352,7.168 4.352,7.168 z"
   id="path684" />
	<path
   style="fill:#73af00"
   d="m 156.928,281.76 c 0,0 -2.624,-11.072 8.192,-13.312 0,0 1.088,4.416 -2.432,7.104 -2.88,2.176 -5.76,6.208 -5.76,6.208 z"
   id="path686" />
	<path
   style="fill:#73af00"
   d="m 177.728,277.664 c 0,0 -1.92,-11.328 -12.608,-9.216 0,0 0.704,4.48 4.928,5.632 3.456,0.96 7.68,3.584 7.68,3.584 z"
   id="path688" />
	<path
   style="fill:#73af00"
   d="m 354.88,230.624 c 0,0 2.624,11.072 -8.192,13.312 0,0 -1.088,-4.416 2.368,-7.104 2.944,-2.176 5.824,-6.208 5.824,-6.208 z"
   id="path690" />
	<path
   style="fill:#73af00"
   d="m 334.08,234.848 c 0,0 1.92,11.328 12.608,9.216 0,0 -0.704,-4.48 -4.928,-5.632 -3.328,-1.024 -7.68,-3.584 -7.68,-3.584 z"
   id="path692" />
	<path
   style="fill:#73af00"
   d="m 281.408,355.232 c 0,0 -11.072,2.624 -13.312,-8.192 0,0 4.416,-1.088 7.104,2.432 2.176,2.752 6.208,5.76 6.208,5.76 z"
   id="path694" />
	<path
   style="fill:#73af00"
   d="m 277.312,334.432 c 0,0 -11.328,1.92 -9.216,12.608 0,0 4.48,-0.704 5.632,-4.928 0.96,-3.456 3.584,-7.68 3.584,-7.68 z"
   id="path696" />
	<path
   style="fill:#73af00"
   d="m 230.4,157.216 c 0,0 11.072,-2.624 13.312,8.192 0,0 -4.416,1.088 -7.104,-2.432 -2.176,-2.816 -6.208,-5.76 -6.208,-5.76 z"
   id="path698" />
	<path
   style="fill:#73af00"
   d="m 234.496,178.016 c 0,0 11.328,-1.92 9.216,-12.608 0,0 -4.48,0.704 -5.632,4.928 -0.96,3.392 -3.584,7.68 -3.584,7.68 z"
   id="path700" />
	<path
   style="fill:#73af00"
   d="m 203.904,344.224 c 0,0 -9.728,-6.016 -3.584,-15.232 0,0 3.904,2.304 3.328,6.72 -0.448,3.648 0.256,8.512 0.256,8.512 z"
   id="path702" />
	<path
   style="fill:#73af00"
   d="m 215.68,326.624 c 0,0 -9.28,-6.72 -15.424,2.496 0,0 3.584,2.688 7.488,0.512 3.136,-1.792 7.936,-3.008 7.936,-3.008 z"
   id="path704" />
	<path
   style="fill:#73af00"
   d="m 307.904,168.16 c 0,0 9.728,6.016 3.584,15.232 0,0 -3.904,-2.304 -3.328,-6.72 0.448,-3.648 -0.256,-8.512 -0.256,-8.512 z"
   id="path706" />
	<path
   style="fill:#73af00"
   d="m 296.128,185.76 c 0,0 9.28,6.72 15.424,-2.496 0,0 -3.584,-2.688 -7.488,-0.512 -3.136,1.856 -7.936,3.008 -7.936,3.008 z"
   id="path708" />
	<path
   style="fill:#73af00"
   d="m 344,308.128 c 0,0 -6.016,9.728 -15.232,3.584 0,0 2.304,-3.904 6.72,-3.328 3.584,0.576 8.512,-0.256 8.512,-0.256 z"
   id="path710" />
	<path
   style="fill:#73af00"
   d="m 326.272,296.352 c 0,0 -6.72,9.28 2.496,15.424 0,0 2.688,-3.584 0.512,-7.488 -1.792,-3.072 -3.008,-7.936 -3.008,-7.936 z"
   id="path712" />
	<path
   style="fill:#73af00"
   d="m 167.808,204.256 c 0,0 6.016,-9.728 15.232,-3.584 0,0 -2.304,3.904 -6.72,3.328 -3.648,-0.576 -8.512,0.256 -8.512,0.256 z"
   id="path714" />
	<path
   style="fill:#73af00"
   d="m 185.472,216.032 c 0,0 6.72,-9.28 -2.496,-15.424 0,0 -2.688,3.584 -0.512,7.488 1.856,3.136 3.008,7.936 3.008,7.936 z"
   id="path716" />
	<path
   style="fill:#73af00"
   d="m 174.208,317.664 c 0,0 -6.72,-9.28 2.496,-15.424 0,0 2.688,3.584 0.512,7.488 -1.792,3.072 -3.008,7.936 -3.008,7.936 z"
   id="path718" />
	<path
   style="fill:#73af00"
   d="m 191.808,305.952 c 0,0 -6.016,-9.728 -15.232,-3.584 0,0 2.304,3.904 6.72,3.328 3.584,-0.576 8.512,0.256 8.512,0.256 z"
   id="path720" />
	<path
   style="fill:#73af00"
   d="m 337.6,194.72 c 0,0 6.72,9.28 -2.496,15.424 0,0 -2.688,-3.584 -0.512,-7.488 1.792,-3.136 3.008,-7.936 3.008,-7.936 z"
   id="path722" />
	<path
   style="fill:#73af00"
   d="m 320,206.56 c 0,0 6.016,9.728 15.232,3.584 0,0 -2.304,-3.904 -6.72,-3.328 C 324.928,207.264 320,206.56 320,206.56 Z"
   id="path724" />
	<path
   style="fill:#73af00"
   d="m 317.376,337.952 c 0,0 -9.28,6.72 -15.424,-2.496 0,0 3.584,-2.688 7.488,-0.512 3.136,1.792 7.936,3.008 7.936,3.008 z"
   id="path726" />
	<path
   style="fill:#73af00"
   d="m 305.6,320.224 c 0,0 -9.728,6.016 -3.584,15.232 0,0 3.904,-2.304 3.328,-6.72 -0.576,-3.584 0.256,-8.512 0.256,-8.512 z"
   id="path728" />
	<path
   style="fill:#73af00"
   d="m 194.432,174.56 c 0,0 9.28,-6.72 15.424,2.496 0,0 -3.584,2.688 -7.488,0.512 -3.072,-1.92 -7.936,-3.008 -7.936,-3.008 z"
   id="path730" />
	<path
   style="fill:#73af00"
   d="m 206.208,192.16 c 0,0 9.728,-6.016 3.584,-15.232 0,0 -3.904,2.304 -3.328,6.72 0.512,3.584 -0.256,8.512 -0.256,8.512 z"
   id="path732" />
	<path
   style="fill:#73af00"
   d="m 241.6,357.408 c 0,0 -11.328,-1.92 -9.216,-12.608 0,0 4.48,0.704 5.632,4.928 0.96,3.52 3.584,7.68 3.584,7.68 z"
   id="path734" />
	<path
   style="fill:#73af00"
   d="m 245.696,336.608 c 0,0 -11.072,-2.624 -13.312,8.192 0,0 4.416,1.088 7.104,-2.368 2.24,-2.88 6.208,-5.824 6.208,-5.824 z"
   id="path736" />
	<path
   style="fill:#73af00"
   d="m 270.208,154.912 c 0,0 11.328,1.92 9.216,12.608 0,0 -4.48,-0.704 -5.632,-4.928 -1.024,-3.328 -3.584,-7.68 -3.584,-7.68 z"
   id="path738" />
	<path
   style="fill:#73af00"
   d="m 266.112,175.712 c 0,0 11.072,2.624 13.312,-8.192 0,0 -4.416,-1.088 -7.104,2.432 -2.24,2.88 -6.208,5.76 -6.208,5.76 z"
   id="path740" />
	<path
   style="fill:#73af00"
   d="m 357.184,270.56 c 0,0 -1.92,11.328 -12.608,9.216 0,0 0.704,-4.48 4.928,-5.632 3.392,-1.088 7.68,-3.584 7.68,-3.584 z"
   id="path742" />
	<path
   style="fill:#73af00"
   d="m 336.384,266.336 c 0,0 -2.624,11.072 8.192,13.312 0,0 1.088,-4.416 -2.432,-7.104 -2.816,-2.24 -5.76,-6.208 -5.76,-6.208 z"
   id="path744" />
	<path
   style="fill:#73af00"
   d="m 154.688,241.952 c 0,0 1.92,-11.328 12.608,-9.216 0,0 -0.704,4.48 -4.928,5.632 -3.456,0.96 -7.68,3.584 -7.68,3.584 z"
   id="path746" />
	<path
   style="fill:#73af00"
   d="m 175.488,246.048 c 0,0 2.624,-11.072 -8.192,-13.312 0,0 -1.088,4.416 2.432,7.104 2.752,2.176 5.76,6.208 5.76,6.208 z"
   id="path748" />
</g>
<g
   id="g752">
</g>
<g
   id="g754">
</g>
<g
   id="g756">
</g>
<g
   id="g758">
</g>
<g
   id="g760">
</g>
<g
   id="g762">
</g>
<g
   id="g764">
</g>
<g
   id="g766">
</g>
<g
   id="g768">
</g>
<g
   id="g770">
</g>
<g
   id="g772">
</g>
<g
   id="g774">
</g>
<g
   id="g776">
</g>
<g
   id="g778">
</g>
<g
   id="g780">
</g>
</svg>
