<?xml version="1.0" encoding="UTF-8" standalone="no"?>
<svg
   xmlns:dc="http://purl.org/dc/elements/1.1/"
   xmlns:cc="http://creativecommons.org/ns#"
   xmlns:rdf="http://www.w3.org/1999/02/22-rdf-syntax-ns#"
   xmlns:svg="http://www.w3.org/2000/svg"
   xmlns="http://www.w3.org/2000/svg"
   xmlns:sodipodi="http://sodipodi.sourceforge.net/DTD/sodipodi-0.dtd"
   xmlns:inkscape="http://www.inkscape.org/namespaces/inkscape"
   version="1.1"
   id="Layer_1"
   x="0px"
   y="0px"
   viewBox="0 0 512 335.45001"
   xml:space="preserve"
   sodipodi:docname="canada.svg"
   width="512"
   height="335.45001"
   inkscape:version="1.0.1 (c497b03c, 2020-09-10)"><metadata
   id="metadata145"><rdf:RDF><cc:Work
       rdf:about=""><dc:format>image/svg+xml</dc:format><dc:type
         rdf:resource="http://purl.org/dc/dcmitype/StillImage" /><dc:title></dc:title></cc:Work></rdf:RDF></metadata><defs
   id="defs143" /><sodipodi:namedview
   pagecolor="#ffffff"
   bordercolor="#666666"
   borderopacity="1"
   objecttolerance="10"
   gridtolerance="10"
   guidetolerance="10"
   inkscape:pageopacity="0"
   inkscape:pageshadow="2"
   inkscape:window-width="1797"
   inkscape:window-height="983"
   id="namedview141"
   showgrid="false"
   inkscape:zoom="1.640625"
   inkscape:cx="256"
   inkscape:cy="256"
   inkscape:window-x="0"
   inkscape:window-y="23"
   inkscape:window-maximized="0"
   inkscape:current-layer="Layer_1" />
<rect
   x="114.76"
   y="0.0040004272"
   style="fill:#f5f5f5"
   width="282.48001"
   height="335.45001"
   id="rect100" />
<g
   id="g108"
   transform="translate(0,-88.273)">
	<path
   style="fill:#ff4b55"
   d="M 38.345,88.273 C 17.167,88.273 0,105.44 0,126.618 v 258.759 c 0,21.177 17.167,38.345 38.345,38.345 h 76.414 V 88.273 Z"
   id="path102" />
	<path
   style="fill:#ff4b55"
   d="m 473.655,88.273 h -76.414 v 335.448 h 76.414 c 21.177,0 38.345,-17.167 38.345,-38.345 V 126.618 C 512,105.44 494.833,88.273 473.655,88.273 Z"
   id="path104" />
	<path
   style="fill:#ff4b55"
   d="m 309.569,294.757 52.383,-29.932 -12.02,-6.01 c -3.371,-1.686 -5.301,-5.326 -4.802,-9.063 l 3.911,-29.322 -22.177,6.452 c -4.899,1.426 -9.983,-1.588 -11.085,-6.569 l -2.124,-9.6 -20.823,24.37 c -2.886,3.378 -8.386,0.798 -7.633,-3.581 l 8.893,-51.708 -13.615,3.723 c -3.977,1.088 -8.177,-0.722 -10.116,-4.36 l -14.337,-26.871 v -0.04 l -0.01,0.02 -0.011,-0.02 v 0.04 l -14.337,26.871 c -1.941,3.637 -6.141,5.447 -10.118,4.36 l -13.615,-3.723 8.893,51.708 c 0.753,4.378 -4.747,6.959 -7.634,3.582 l -20.823,-24.37 -2.124,9.6 c -1.102,4.982 -6.186,7.994 -11.085,6.569 l -22.177,-6.452 3.911,29.322 c 0.499,3.736 -1.431,7.377 -4.802,9.063 l -12.02,6.009 52.383,29.933 c 5.426,3.101 7.804,9.677 5.615,15.53 l -4.478,11.977 44.885,-3.832 c 2.484,-0.212 4.598,1.788 4.525,4.279 l -1.414,48.044 h 8.828 L 259,322.71 c -0.073,-2.492 2.041,-4.491 4.525,-4.279 l 44.906,3.834 -4.478,-11.977 c -2.187,-5.854 0.19,-12.431 5.616,-15.531 z"
   id="path106" />
</g>
<g
   id="g110">
</g>
<g
   id="g112">
</g>
<g
   id="g114">
</g>
<g
   id="g116">
</g>
<g
   id="g118">
</g>
<g
   id="g120">
</g>
<g
   id="g122">
</g>
<g
   id="g124">
</g>
<g
   id="g126">
</g>
<g
   id="g128">
</g>
<g
   id="g130">
</g>
<g
   id="g132">
</g>
<g
   id="g134">
</g>
<g
   id="g136">
</g>
<g
   id="g138">
</g>
</svg>
