<svg xmlns="http://www.w3.org/2000/svg" xml:space="preserve" width="512" height="335.45001"><path style="fill:#82afff;stroke-width:1" d="M473.655 335.448H38.345C17.167 335.448 0 318.281 0 297.103V38.345C0 17.168 17.167 0 38.345 0h435.31C494.832 0 512 17.167 512 38.345v258.759c0 21.177-17.167 38.344-38.345 38.344z"/><path style="fill:#ffe15a" d="M477.496 88.468 0 335.448v17.655l496.865-257c-5.486-4.178-12.129-6.915-19.369-7.635zM34.504 423.532 512 176.552v-17.655l-496.865 257c5.486 4.178 12.129 6.915 19.369 7.635z" transform="translate(0 -88.276)"/><path style="fill:#ff4b55;stroke-width:1" d="M496.865 7.828 0 264.827v32.276c0 12.451 5.939 23.512 15.135 30.517L512 70.62V38.344c0-12.451-5.939-23.512-15.135-30.516z"/><path style="fill:#ffe15a;stroke-width:1" d="m92.619 34.702 12.718 38.135 40.199.311c2.248.018 3.18 2.886 1.372 4.222l-32.339 23.881 12.126 38.328c.678 2.143-1.762 3.916-3.591 2.609l-32.705-23.377-32.705 23.377c-1.828 1.308-4.269-.466-3.591-2.609l12.126-38.328L33.89 77.37c-1.809-1.335-.876-4.204 1.372-4.222l40.199-.311 12.718-38.135c.713-2.132 3.728-2.132 4.44 0z"/></svg>