<?xml version="1.0" encoding="UTF-8" standalone="no"?>
<svg
   xmlns:dc="http://purl.org/dc/elements/1.1/"
   xmlns:cc="http://creativecommons.org/ns#"
   xmlns:rdf="http://www.w3.org/1999/02/22-rdf-syntax-ns#"
   xmlns:svg="http://www.w3.org/2000/svg"
   xmlns="http://www.w3.org/2000/svg"
   xmlns:sodipodi="http://sodipodi.sourceforge.net/DTD/sodipodi-0.dtd"
   xmlns:inkscape="http://www.inkscape.org/namespaces/inkscape"
   version="1.1"
   id="Layer_1"
   x="0px"
   y="0px"
   viewBox="0 0 512 335.45001"
   xml:space="preserve"
   sodipodi:docname="central-african-republic.svg"
   width="512"
   height="335.45001"
   inkscape:version="1.0.1 (c497b03c, 2020-09-10)"><metadata
   id="metadata647"><rdf:RDF><cc:Work
       rdf:about=""><dc:format>image/svg+xml</dc:format><dc:type
         rdf:resource="http://purl.org/dc/dcmitype/StillImage" /><dc:title></dc:title></cc:Work></rdf:RDF></metadata><defs
   id="defs645" /><sodipodi:namedview
   pagecolor="#ffffff"
   bordercolor="#666666"
   borderopacity="1"
   objecttolerance="10"
   gridtolerance="10"
   guidetolerance="10"
   inkscape:pageopacity="0"
   inkscape:pageshadow="2"
   inkscape:window-width="1797"
   inkscape:window-height="983"
   id="namedview643"
   showgrid="false"
   inkscape:zoom="1.640625"
   inkscape:cx="256"
   inkscape:cy="256"
   inkscape:window-x="0"
   inkscape:window-y="23"
   inkscape:window-maximized="0"
   inkscape:current-layer="Layer_1" />
<path
   style="fill:#ffe15a"
   d="m 0,297.105 c 0,21.177 17.167,38.345 38.345,38.345 h 435.311 c 21.165,0 38.324,-17.148 38.344,-38.307 V 251.588 H 0 Z"
   id="path600" />
<rect
   y="167.72301"
   style="fill:#73af00"
   width="512"
   height="83.860001"
   id="rect602"
   x="0" />
<rect
   y="83.862999"
   style="fill:#f5f5f5"
   width="512"
   height="83.860001"
   id="rect604"
   x="0" />
<path
   style="fill:#41479b"
   d="M 473.656,0 H 38.345 C 17.167,0 0,17.167 0,38.345 V 83.862 H 512 V 38.307 C 511.98,17.148 494.821,0 473.656,0 Z"
   id="path606" />
<rect
   x="214.07001"
   y="0.0030009765"
   style="fill:#ff4b55"
   width="83.860001"
   height="335.45001"
   id="rect608" />
<path
   style="fill:#ffe15a"
   d="m 76.499,11.297 7.366,22.087 23.282,0.181 c 1.804,0.014 2.551,2.316 1.1,3.388 l -18.73,13.83 7.022,22.198 c 0.544,1.719 -1.414,3.143 -2.881,2.093 L 74.717,61.536 55.776,75.074 C 54.308,76.123 52.351,74.7 52.895,72.981 L 59.917,50.783 41.19,36.952 c -1.451,-1.071 -0.703,-3.373 1.1,-3.388 l 23.282,-0.181 7.366,-22.087 c 0.569,-1.71 2.99,-1.71 3.561,0.001 z"
   id="path610" />
<g
   id="g612">
</g>
<g
   id="g614">
</g>
<g
   id="g616">
</g>
<g
   id="g618">
</g>
<g
   id="g620">
</g>
<g
   id="g622">
</g>
<g
   id="g624">
</g>
<g
   id="g626">
</g>
<g
   id="g628">
</g>
<g
   id="g630">
</g>
<g
   id="g632">
</g>
<g
   id="g634">
</g>
<g
   id="g636">
</g>
<g
   id="g638">
</g>
<g
   id="g640">
</g>
</svg>
