<svg xmlns="http://www.w3.org/2000/svg" xml:space="preserve" width="512" height="335.45001"><style>.st1{fill:#f5f5f5}.st2{fill:#ed1f34}</style><path d="M511.96997 35.9731v263.55383c0 19.86758-16.38458 35.97308-36.59643 35.97308H36.59644C16.3846 335.49896 0 319.39346 0 299.52588V35.97309C0 16.10451 16.38563.00001 36.59644.00001h438.7771C495.5854 0 511.96997 16.1045 511.96997 35.97309z" style="fill:#103b9b"/><path class="st1" d="m127.9925 111.09122 86.45907 56.65826h41.53342v-27.21696L169.5259 83.87424l86.45908-56.65726V0h-41.53342l-86.45908 56.65828L41.53342 0H36.5954C19.23023 0 4.70036 11.8925.94958 27.8406l85.50949 56.03365L0 140.53252v27.21696h41.53342l86.45907-56.65826z"/><path class="st2" d="M141.83731 92.94724 255.985 167.74948v-17.75801L141.67715 74.90686 255.985 0h-27.6886L114.1549 74.80631 12.9779 8.50321c-3.94194 3.27859-7.17195 7.35855-9.42138 11.989l110.44546 72.5505L0 167.74948h27.6886l114.14871-74.80224z"/><path class="st1" d="M255.98499 61.22881H151.03136V0h-46.07774v61.22881H0v45.29188h104.95362v61.22879h46.07774v-61.22879h104.95363z"/><path class="st2" d="M255.98499 71.71258H140.3649V0h-24.74481v71.71258H0v24.32433h115.62009v71.71257h24.74481V96.03691h115.62009z"/><ellipse class="st1" cx="383.97748" cy="90.58479" rx="11.37735" ry="11.18357"/><ellipse class="st1" cx="352.0535" cy="97.2608" rx="11.37735" ry="11.18357"/><ellipse class="st1" cx="325.6358" cy="116.11574" rx="11.37735" ry="11.18357"/><ellipse class="st1" cx="309.32047" cy="143.90657" rx="11.37735" ry="11.18357"/><ellipse class="st1" cx="305.90753" cy="175.8129" rx="11.37735" ry="11.18356"/><ellipse class="st1" cx="315.98816" cy="206.33183" rx="11.37735" ry="11.18356"/><ellipse class="st1" cx="337.83151" cy="230.17476" rx="11.37735" ry="11.18356"/><ellipse class="st1" cx="367.65179" cy="243.22615" rx="11.37735" ry="11.18356"/><ellipse class="st1" cx="400.30316" cy="243.22615" rx="11.37735" ry="11.18356"/><ellipse class="st1" cx="430.12344" cy="230.17476" rx="11.37735" ry="11.18356"/><ellipse class="st1" cx="451.9668" cy="206.33183" rx="11.37735" ry="11.18356"/><ellipse class="st1" cx="462.04742" cy="175.8129" rx="11.37735" ry="11.18356"/><ellipse class="st1" cx="458.63449" cy="143.90657" rx="11.37735" ry="11.18357"/><ellipse class="st1" cx="442.31915" cy="116.11574" rx="11.37735" ry="11.18357"/><ellipse class="st1" cx="415.90146" cy="97.2608" rx="11.37735" ry="11.18357"/></svg>