<?xml version="1.0" encoding="UTF-8" standalone="no"?>
<svg
   xmlns:dc="http://purl.org/dc/elements/1.1/"
   xmlns:cc="http://creativecommons.org/ns#"
   xmlns:rdf="http://www.w3.org/1999/02/22-rdf-syntax-ns#"
   xmlns:svg="http://www.w3.org/2000/svg"
   xmlns="http://www.w3.org/2000/svg"
   xmlns:sodipodi="http://sodipodi.sourceforge.net/DTD/sodipodi-0.dtd"
   xmlns:inkscape="http://www.inkscape.org/namespaces/inkscape"
   version="1.1"
   id="Layer_1"
   x="0px"
   y="0px"
   viewBox="0 0 512 335.45001"
   xml:space="preserve"
   sodipodi:docname="cl-rn.svg"
   width="512"
   height="335.45001"
   inkscape:version="1.0.1 (c497b03c, 2020-09-10)"><metadata
   id="metadata1072"><rdf:RDF><cc:Work
       rdf:about=""><dc:format>image/svg+xml</dc:format><dc:type
         rdf:resource="http://purl.org/dc/dcmitype/StillImage" /><dc:title></dc:title></cc:Work></rdf:RDF></metadata><defs
   id="defs1070" /><sodipodi:namedview
   pagecolor="#ffffff"
   bordercolor="#666666"
   borderopacity="1"
   objecttolerance="10"
   gridtolerance="10"
   guidetolerance="10"
   inkscape:pageopacity="0"
   inkscape:pageshadow="2"
   inkscape:window-width="871"
   inkscape:window-height="480"
   id="namedview1068"
   showgrid="false"
   inkscape:zoom="0.61328125"
   inkscape:cx="256"
   inkscape:cy="256"
   inkscape:window-x="0"
   inkscape:window-y="23"
   inkscape:window-maximized="0"
   inkscape:current-layer="Layer_1" />
<path
   style="fill:#f5f5f5"
   d="m 38.345,335.448 h 435.31 c 21.177,0 38.345,-17.167 38.345,-38.345 V 38.345 C 512,17.168 494.833,0 473.655,0 H 38.345 C 17.167,0 0,17.167 0,38.345 v 258.759 c 0,21.177 17.167,38.344 38.345,38.344 z"
   id="path1033" />
<path
   style="fill:#ff4b55"
   d="m 482.574,53.154 c -1.711,-0.604 -3.616,0.285 -4.224,2.017 -2.185,6.168 -4.552,11.697 -7.004,16.92 -6.239,6.173 -14.008,10.777 -21.507,12.14 -12.138,2.207 -18.023,8.092 -18.023,8.092 -21.333,-6.253 -25.379,5.517 -30.162,10.667 -2.678,2.883 -6.15,3.884 -9.279,3.916 -11.425,-6.231 -19.121,-13.827 -19.264,-13.969 -1.284,-1.302 -3.388,-1.311 -4.681,-0.025 -1.302,1.284 -1.311,3.38 -0.025,4.681 0.969,0.981 19.576,19.424 43.448,23.258 -6.93,2.04 -12.036,3.471 -12.036,3.471 0,0 -7.724,0 -30.897,18.759 -23.172,18.759 -39.357,20.598 -49.655,20.231 -10.3,-0.367 -18.024,-4.046 -29.058,4.414 -11.034,8.46 -25.379,6.989 -34.207,6.989 -8.828,0 -23.172,1.471 -34.207,-6.989 -11.034,-8.46 -18.759,-4.781 -29.058,-4.414 -10.298,0.367 -26.483,-1.471 -49.655,-20.231 -23.172,-18.76 -30.897,-18.759 -30.897,-18.759 0,0 -5.107,-1.431 -12.036,-3.471 23.871,-3.834 42.478,-22.278 43.448,-23.258 1.284,-1.302 1.276,-3.396 -0.025,-4.681 -1.293,-1.284 -3.396,-1.276 -4.681,0.025 -0.143,0.14 -7.839,7.736 -19.264,13.969 -3.129,-0.032 -6.601,-1.033 -9.279,-3.916 -4.782,-5.15 -8.828,-16.92 -30.162,-10.667 0,0 -5.885,-5.885 -18.023,-8.092 C 54.663,82.868 46.893,78.264 40.654,72.091 38.203,66.867 35.836,61.339 33.65,55.171 33.042,53.439 31.137,52.55 29.426,53.154 c -1.725,0.612 -2.63,2.5 -2.017,4.224 0.066,0.186 0.142,0.345 0.209,0.532 0.322,1.693 7.038,35.57 31.601,59.058 17.299,16.541 34.076,41.781 41.196,55.908 23.172,45.977 67.31,107.77 155.586,107.77 88.276,0 132.414,-61.793 155.586,-107.77 7.121,-14.127 23.897,-39.368 41.196,-55.908 24.562,-23.487 31.277,-57.365 31.601,-59.058 0.066,-0.186 0.142,-0.345 0.209,-0.532 0.61,-1.724 -0.295,-3.612 -2.019,-4.224 z"
   id="path1035" />
<g
   id="g1037"
   transform="translate(0,-88.276)">
</g>
<g
   id="g1039"
   transform="translate(0,-88.276)">
</g>
<g
   id="g1041"
   transform="translate(0,-88.276)">
</g>
<g
   id="g1043"
   transform="translate(0,-88.276)">
</g>
<g
   id="g1045"
   transform="translate(0,-88.276)">
</g>
<g
   id="g1047"
   transform="translate(0,-88.276)">
</g>
<g
   id="g1049"
   transform="translate(0,-88.276)">
</g>
<g
   id="g1051"
   transform="translate(0,-88.276)">
</g>
<g
   id="g1053"
   transform="translate(0,-88.276)">
</g>
<g
   id="g1055"
   transform="translate(0,-88.276)">
</g>
<g
   id="g1057"
   transform="translate(0,-88.276)">
</g>
<g
   id="g1059"
   transform="translate(0,-88.276)">
</g>
<g
   id="g1061"
   transform="translate(0,-88.276)">
</g>
<g
   id="g1063"
   transform="translate(0,-88.276)">
</g>
<g
   id="g1065"
   transform="translate(0,-88.276)">
</g>
</svg>
