<svg xmlns="http://www.w3.org/2000/svg" xml:space="preserve" width="512" height="335.45001"><path style="fill:#f5f5f5" d="M473.655.001H158.897c4.875 0 8.828 3.953 8.828 8.828v150.069c0 4.875-3.953 8.828-8.828 8.828H512V38.346C512 17.168 494.833.001 473.655.001z"/><path style="fill:#ff4b55" d="M17.655 167.725H8.828c-4.875 0-8.828-3.953-8.828-8.828v138.208c0 21.177 17.167 38.345 38.345 38.345h435.31c21.177 0 38.345-17.167 38.345-38.345v-129.38H158.897z"/><path style="fill:#41479b" d="M8.828 167.725h150.069c4.875 0 8.828-3.953 8.828-8.828V8.828c0-4.875-3.953-8.828-8.828-8.828H38.345C17.167.001 0 17.168 0 38.346v120.552c0 4.874 3.953 8.827 8.828 8.827z"/><path style="fill:#f5f5f5" d="m87.262 46.212 8.416 25.234 26.6.206c3.444.026 4.872 4.422 2.101 6.467L102.981 93.92l8.023 25.362c1.038 3.284-2.7 5.999-5.502 3.997l-21.64-15.467-21.641 15.468c-2.802 2.003-6.54-.714-5.502-3.997l8.023-25.362L43.344 78.12c-2.771-2.046-1.342-6.441 2.101-6.467l26.6-.206 8.416-25.234c1.09-3.268 5.712-3.268 6.801-.001z"/></svg>