<?xml version="1.0" encoding="UTF-8" standalone="no"?>
<svg
   xmlns:dc="http://purl.org/dc/elements/1.1/"
   xmlns:cc="http://creativecommons.org/ns#"
   xmlns:rdf="http://www.w3.org/1999/02/22-rdf-syntax-ns#"
   xmlns:svg="http://www.w3.org/2000/svg"
   xmlns="http://www.w3.org/2000/svg"
   xmlns:sodipodi="http://sodipodi.sourceforge.net/DTD/sodipodi-0.dtd"
   xmlns:inkscape="http://www.inkscape.org/namespaces/inkscape"
   version="1.1"
   id="Layer_1"
   x="0px"
   y="0px"
   viewBox="0 0 512 335.45001"
   xml:space="preserve"
   sodipodi:docname="chile.svg"
   width="512"
   height="335.45001"
   inkscape:version="1.0.1 (c497b03c, 2020-09-10)"><metadata
   id="metadata860"><rdf:RDF><cc:Work
       rdf:about=""><dc:format>image/svg+xml</dc:format><dc:type
         rdf:resource="http://purl.org/dc/dcmitype/StillImage" /><dc:title></dc:title></cc:Work></rdf:RDF></metadata><defs
   id="defs858" /><sodipodi:namedview
   pagecolor="#ffffff"
   bordercolor="#666666"
   borderopacity="1"
   objecttolerance="10"
   gridtolerance="10"
   guidetolerance="10"
   inkscape:pageopacity="0"
   inkscape:pageshadow="2"
   inkscape:window-width="1797"
   inkscape:window-height="983"
   id="namedview856"
   showgrid="false"
   inkscape:zoom="1.640625"
   inkscape:cx="256"
   inkscape:cy="256"
   inkscape:window-x="0"
   inkscape:window-y="23"
   inkscape:window-maximized="0"
   inkscape:current-layer="Layer_1" />
<path
   style="fill:#f5f5f5"
   d="M 473.655,0.001 H 158.897 c 4.875,0 8.828,3.953 8.828,8.828 v 150.069 c 0,4.875 -3.953,8.828 -8.828,8.828 H 512 V 38.346 C 512,17.168 494.833,0.001 473.655,0.001 Z"
   id="path817" />
<path
   style="fill:#ff4b55"
   d="M 17.655,167.725 H 8.828 C 3.953,167.725 0,163.772 0,158.897 v 8.828 8.828 120.552 c 0,21.177 17.167,38.345 38.345,38.345 h 435.31 C 494.832,335.45 512,318.283 512,297.105 V 167.725 H 158.897 Z"
   id="path819" />
<path
   style="fill:#41479b"
   d="m 8.828,167.725 h 8.828 141.241 c 4.875,0 8.828,-3.953 8.828,-8.828 V 8.828 C 167.725,3.953 163.772,0 158.897,0 H 38.345 C 17.167,0.001 0,17.168 0,38.346 v 120.552 c 0,4.874 3.953,8.827 8.828,8.827 z"
   id="path821" />
<path
   style="fill:#f5f5f5"
   d="m 87.262,46.212 8.416,25.234 26.6,0.206 c 3.444,0.026 4.872,4.422 2.101,6.467 l -21.398,15.801 8.023,25.362 c 1.038,3.284 -2.7,5.999 -5.502,3.997 L 83.862,107.812 62.221,123.28 c -2.802,2.003 -6.54,-0.714 -5.502,-3.997 L 64.742,93.921 43.344,78.12 c -2.771,-2.046 -1.342,-6.441 2.101,-6.467 l 26.6,-0.206 8.416,-25.234 c 1.09,-3.268 5.712,-3.268 6.801,-10e-4 z"
   id="path823" />
<g
   id="g825">
</g>
<g
   id="g827">
</g>
<g
   id="g829">
</g>
<g
   id="g831">
</g>
<g
   id="g833">
</g>
<g
   id="g835">
</g>
<g
   id="g837">
</g>
<g
   id="g839">
</g>
<g
   id="g841">
</g>
<g
   id="g843">
</g>
<g
   id="g845">
</g>
<g
   id="g847">
</g>
<g
   id="g849">
</g>
<g
   id="g851">
</g>
<g
   id="g853">
</g>
</svg>
