<?xml version="1.0" encoding="UTF-8" standalone="no"?>
<svg
   xmlns:dc="http://purl.org/dc/elements/1.1/"
   xmlns:cc="http://creativecommons.org/ns#"
   xmlns:rdf="http://www.w3.org/1999/02/22-rdf-syntax-ns#"
   xmlns:svg="http://www.w3.org/2000/svg"
   xmlns="http://www.w3.org/2000/svg"
   xmlns:sodipodi="http://sodipodi.sourceforge.net/DTD/sodipodi-0.dtd"
   xmlns:inkscape="http://www.inkscape.org/namespaces/inkscape"
   version="1.1"
   id="Layer_1"
   x="0px"
   y="0px"
   viewBox="0 0 512 335.45001"
   xml:space="preserve"
   sodipodi:docname="cn-xz.svg"
   width="512"
   height="335.45001"
   inkscape:version="1.0.1 (c497b03c, 2020-09-10)"><metadata
   id="metadata1716"><rdf:RDF><cc:Work
       rdf:about=""><dc:format>image/svg+xml</dc:format><dc:type
         rdf:resource="http://purl.org/dc/dcmitype/StillImage" /><dc:title></dc:title></cc:Work></rdf:RDF></metadata><defs
   id="defs1714" /><sodipodi:namedview
   pagecolor="#ffffff"
   bordercolor="#666666"
   borderopacity="1"
   objecttolerance="10"
   gridtolerance="10"
   guidetolerance="10"
   inkscape:pageopacity="0"
   inkscape:pageshadow="2"
   inkscape:window-width="1079"
   inkscape:window-height="688"
   id="namedview1712"
   showgrid="false"
   inkscape:zoom="0.95898438"
   inkscape:cx="256"
   inkscape:cy="256"
   inkscape:window-x="0"
   inkscape:window-y="23"
   inkscape:window-maximized="0"
   inkscape:current-layer="Layer_1" />
<path
   style="fill:#ffe15a"
   d="M 473.655,0 H 38.345 C 17.167,0 0,17.167 0,38.345 v 258.76 c 0,21.177 17.167,38.345 38.345,38.345 h 435.31 C 494.832,335.45 512,318.283 512,297.105 V 38.345 C 512,17.167 494.833,0 473.655,0 Z"
   id="path1373" />
<rect
   x="13.241"
   y="26.484003"
   style="fill:#41479b"
   width="485.51999"
   height="282.48001"
   id="rect1375" />
<g
   id="g1389"
   transform="translate(0,-88.275)">
	<polygon
   style="fill:#ff4b55"
   points="134.622,114.759 13.241,114.758 256,255.999 "
   id="polygon1377" />
	<polygon
   style="fill:#ff4b55"
   points="377.38,114.759 256,255.999 256,114.758 "
   id="polygon1379" />
	<polygon
   style="fill:#ff4b55"
   points="498.759,185.378 498.759,114.758 256,255.999 "
   id="polygon1381" />
	<polygon
   style="fill:#ff4b55"
   points="498.759,326.62 256,255.999 498.759,255.999 "
   id="polygon1383" />
	<polygon
   style="fill:#ff4b55"
   points="13.244,256 256,255.999 13.244,185.38 "
   id="polygon1385" />
	<polygon
   style="fill:#ff4b55"
   points="13.244,397.242 13.244,326.622 256,255.999 "
   id="polygon1387" />
</g>
<g
   id="g1395"
   transform="translate(0,-88.275)">
	<polygon
   style="fill:#ffe15a"
   points="268.343,233.221 260.062,230.164 291.715,157.16 "
   id="polygon1391" />
	<path
   style="fill:#ffe15a"
   d="m 301.745,272.144 c 0.69,-1.953 1.292,-3.944 1.729,-6.002 l 52.757,4.679 -51.897,-10.491 c 0.127,-1.429 0.218,-2.869 0.218,-4.331 0,-1.408 -0.093,-2.793 -0.211,-4.17 l 51.474,-10.84 -52.29,5.066 c -0.458,-2.199 -1.109,-4.321 -1.853,-6.4 l 46.726,-24.428 -49.02,19.054 c -1.249,-2.488 -2.705,-4.847 -4.345,-7.069 l 38.744,-35.724 -42.489,31.232 c -4.505,-4.776 -9.943,-8.655 -16.056,-11.296 l 15.432,-50.217 -20.919,48.246 c -4.362,-1.288 -8.965,-2.006 -13.743,-2.006 -4.815,0 -9.458,0.725 -13.849,2.031 l -20.931,-48.273 15.447,50.266 c -6.092,2.649 -11.512,6.527 -16,11.298 l -42.56,-31.284 38.815,35.789 c -1.631,2.215 -3.075,4.564 -4.317,7.043 l -49.119,-19.093 46.826,24.481 c -0.736,2.067 -1.383,4.174 -1.837,6.358 l -52.406,-5.077 51.59,10.866 c -0.117,1.368 -0.21,2.745 -0.21,4.145 0,1.454 0.092,2.886 0.217,4.307 l -52.013,10.514 52.872,-4.69 c 0.435,2.044 1.031,4.022 1.714,5.962 l -46.628,23.827 48.881,-18.478 c 7.924,16.046 24.405,27.111 43.51,27.111 19.091,0 35.561,-11.046 43.492,-27.071 l 48.781,18.44 z"
   id="path1393" />
</g>
<path
   style="fill:#f5f5f5"
   d="M 498.759,308.965 261.549,170.953 c -3.431,-1.996 -7.668,-1.996 -11.098,0 L 13.241,308.965 Z"
   id="path1397" />
<g
   id="g1403"
   transform="translate(0,-88.275)">
	<circle
   style="fill:#ff4b55"
   cx="256.04001"
   cy="325.26001"
   r="1.837"
   id="circle1399" />
	<path
   style="fill:#ff4b55"
   d="m 253.24,263.724 c 5.511,6.813 -3.406,10.22 -2.304,16.733 0,0 -1.803,-2.706 -1.102,-6.513 0.701,-3.807 -1.704,-5.01 -1.704,-5.01 0,0 1.102,4.308 -1.603,6.713 -2.706,2.404 -1.903,7.915 -1.903,7.915 0,0 -3.406,-2.304 -2.706,-5.811 0,0 -4.609,4.008 -0.501,10.721 0,0 -2.706,-0.201 -3.708,-1.903 0,0 -2.399,7.063 7.267,12.449 9.666,5.386 11.069,-7.439 11.069,-7.439 l 6.913,8.617 c 0,0 8.282,-0.234 12.224,-9.118 l -4.743,0.868 c 0.3,-2.505 6.646,-3.172 4.141,-10.687 0,0 -0.201,1.603 -2.004,2.706 0,0 0.067,-5.176 -3.673,-8.584 0,0 -0.134,2.772 -1.336,3.774 0,0 0.401,-3.574 -1.803,-6.379 -2.106,-2.68 -2.304,-5.143 -2.304,-5.143 0,0 -2.505,4.609 -1.603,6.913 0,0 -2.089,-0.508 -2.304,-3.306 -0.468,-6.079 -6.313,-7.516 -6.313,-7.516 z"
   id="path1401" />
</g>
<ellipse
   style="fill:#ffe15a"
   cx="256.04001"
   cy="230.12399"
   rx="15.637"
   ry="6.7020001"
   id="ellipse1405" />
<ellipse
   style="fill:#ff4b55"
   cx="256.04001"
   cy="228.66501"
   rx="13.522"
   ry="6.0599999"
   id="ellipse1407" />
<g
   id="g1423"
   transform="translate(0,-88.275)">
	<path
   style="fill:#ff82aa"
   d="m 258.877,317.729 h -5.67 c -0.1,1.768 0.701,4.332 2.83,5.262 v 0.006 c 0.001,0 0.002,-0.002 0.002,-0.002 0,0 0.004,0.002 0.006,0.002 v -0.006 c 2.131,-0.931 2.932,-3.494 2.832,-5.262 z"
   id="path1409" />
	<path
   style="fill:#ff82aa"
   d="m 263.384,316.638 -5.143,1.207 c 0.313,1.742 1.625,4.069 3.77,4.521 l 10e-4,0.006 0.003,-0.004 c 0.001,0 0.003,0.002 0.003,0.002 v -0.006 c 1.72,-1.359 1.861,-4.026 1.366,-5.726 z"
   id="path1411" />
	<path
   style="fill:#ff82aa"
   d="m 266.046,314.792 -3.581,2.346 c 0.906,1.521 2.817,3.335 4.672,3.231 l 0.003,0.004 0.001,-0.004 c 0,0 0.003,10e-4 0.004,10e-4 l -0.003,-0.004 c 0.836,-1.66 -0.063,-4.139 -1.096,-5.574 z"
   id="path1413" />
	<path
   style="fill:#ff82aa"
   d="m 265.941,311.167 -1.409,3.556 c 1.91,2.43 5.041,2.179 5.041,2.179 0.125,-1.978 -2.343,-4.524 -3.632,-5.735 z"
   id="path1415" />
	<path
   style="fill:#ff82aa"
   d="m 248.653,316.638 5.143,1.207 c -0.313,1.742 -1.625,4.069 -3.77,4.521 l -0.001,0.006 -0.003,-0.004 -0.004,0.002 0.001,-0.006 c -1.72,-1.359 -1.861,-4.026 -1.366,-5.726 z"
   id="path1417" />
	<path
   style="fill:#ff82aa"
   d="m 245.992,314.792 3.581,2.346 c -0.906,1.521 -2.817,3.335 -4.672,3.231 l -0.003,0.004 -0.001,-0.004 -0.004,10e-4 0.003,-0.004 c -0.836,-1.66 0.063,-4.139 1.096,-5.574 z"
   id="path1419" />
	<path
   style="fill:#ff82aa"
   d="m 246.097,311.167 1.409,3.556 c -1.91,2.43 -5.041,2.179 -5.041,2.179 -0.126,-1.978 2.343,-4.524 3.632,-5.735 z"
   id="path1421" />
</g>
<ellipse
   style="fill:#ffe15a"
   cx="256.04001"
   cy="224.99402"
   rx="10.975"
   ry="4.9180002"
   id="ellipse1425" />
<ellipse
   style="fill:#ff4b55"
   cx="256.04001"
   cy="224.99402"
   rx="8.1660004"
   ry="3.1960001"
   id="ellipse1427" />
<path
   style="fill:#41479b"
   d="m 256.871,280.248 c -5.337,0.454 -10.026,-3.514 -10.482,-8.844 -0.234,-2.664 1.752,-5.016 4.42,-5.242 2.667,-0.227 5.012,1.751 5.238,4.42 0.227,2.669 2.577,4.642 5.24,4.421 2.67,-0.226 4.651,-2.581 4.419,-5.244 0.455,5.339 -3.501,10.034 -8.835,10.489"
   id="path1429" />
<path
   style="fill:#ff9b55"
   d="m 246.389,271.405 c -0.234,-2.664 1.752,-5.016 4.42,-5.242 2.667,-0.227 5.012,1.751 5.238,4.42 0.227,2.669 2.577,4.642 5.24,4.421 2.67,-0.226 4.651,-2.581 4.419,-5.244 -0.447,-5.343 -5.141,-9.295 -10.478,-8.842 -5.334,0.456 -9.294,5.149 -8.839,10.487"
   id="path1431" />
<path
   style="fill:#ffe15a"
   d="m 256.046,254.71 c -8.765,0 -15.87,7.105 -15.87,15.87 0,8.765 7.105,15.87 15.87,15.87 8.765,0 15.87,-7.106 15.87,-15.87 0,-8.764 -7.105,-15.87 -15.87,-15.87 z m 0,28.435 c -6.938,0 -12.564,-5.625 -12.564,-12.564 0,-6.939 5.625,-12.564 12.564,-12.564 6.939,0 12.564,5.625 12.564,12.564 0,6.939 -5.625,12.564 -12.564,12.564 z"
   id="path1433" />
<path
   style="fill:#ff4b55"
   d="m 256.046,258.017 c -6.938,0 -12.564,5.625 -12.564,12.564 0,6.939 5.625,12.564 12.564,12.564 6.939,0 12.564,-5.625 12.564,-12.564 0,-6.939 -5.625,-12.564 -12.564,-12.564 z m 0,22.187 c -5.315,0 -9.624,-4.309 -9.624,-9.624 0,-5.315 4.309,-9.624 9.624,-9.624 5.315,0 9.624,4.309 9.624,9.624 0,5.317 -4.308,9.624 -9.624,9.624 z"
   id="path1435" />
<circle
   style="fill:#ff9b55"
   cx="251.17"
   cy="270.57401"
   r="1.212"
   id="circle1437" />
<circle
   style="fill:#41479b"
   cx="260.87"
   cy="270.57401"
   r="1.212"
   id="circle1439" />
<g
   id="g1453"
   transform="translate(0,-88.275)">
	<circle
   style="fill:#ff4b55"
   cx="256.04001"
   cy="339.08899"
   r="1.469"
   id="circle1441" />
	<circle
   style="fill:#ff4b55"
   cx="257.51001"
   cy="341.64899"
   r="1.469"
   id="circle1443" />
	<circle
   style="fill:#ff4b55"
   cx="254.58"
   cy="341.64899"
   r="1.469"
   id="circle1445" />
	<circle
   style="fill:#ff4b55"
   cx="256.04001"
   cy="378.66901"
   r="1.469"
   id="circle1447" />
	<circle
   style="fill:#ff4b55"
   cx="254.58"
   cy="376.10901"
   r="1.469"
   id="circle1449" />
	<circle
   style="fill:#ff4b55"
   cx="257.51001"
   cy="376.10901"
   r="1.469"
   id="circle1451" />
</g>
<path
   style="fill:#ff9b55"
   d="m 253.361,209.24 c -1.009,-5.629 -3.703,-9.855 -6.018,-9.44 -2.315,0.415 -3.374,5.314 -2.365,10.942 0.728,4.062 2.339,7.327 4.046,8.711 -0.705,1.209 -1.134,3.053 -1.143,5.337 1.268,0.108 2.574,0.102 3.916,-0.138 1.341,-0.241 2.569,-0.689 3.72,-1.23 -0.802,-2.138 -1.845,-3.719 -2.926,-4.608 1.119,-1.891 1.498,-5.513 0.77,-9.574 z"
   id="path1455" />
<path
   style="fill:#41479b"
   d="m 258.7,209.24 c 1.009,-5.629 3.703,-9.855 6.018,-9.44 2.315,0.415 3.373,5.314 2.365,10.942 -0.728,4.062 -2.339,7.327 -4.046,8.711 0.705,1.209 1.134,3.053 1.143,5.337 -1.268,0.108 -2.574,0.102 -3.916,-0.138 -1.342,-0.239 -2.569,-0.689 -3.72,-1.23 0.802,-2.138 1.845,-3.719 2.926,-4.608 -1.12,-1.891 -1.498,-5.513 -0.77,-9.574 z"
   id="path1457" />
<path
   style="fill:#f5f5f5"
   d="m 260.351,209.11 c 0,-6.2 -1.907,-11.227 -4.258,-11.227 -2.351,0 -4.258,5.026 -4.258,11.227 0,4.474 1.011,8.267 2.446,10.071 -0.907,1.156 -1.655,3.041 -2.067,5.478 1.229,0.359 2.516,0.601 3.879,0.601 1.363,0 2.65,-0.243 3.879,-0.601 -0.413,-2.436 -1.16,-4.322 -2.067,-5.478 1.436,-1.805 2.446,-5.599 2.446,-10.071 z"
   id="path1459" />
<g
   id="g1465"
   transform="translate(0,-88.275)">
	<path
   style="fill:#ffe15a"
   d="m 256.046,309.109 c -2.774,0 -5.319,-0.258 -6.974,-0.715 -0.569,-0.15 -0.903,-0.732 -0.748,-1.305 0.158,-0.566 0.757,-0.94 1.305,-0.74 2.927,0.781 9.906,0.781 12.833,0 0.569,-0.207 1.152,0.174 1.305,0.74 0.153,0.574 -0.179,1.156 -0.748,1.305 -1.654,0.458 -4.199,0.715 -6.973,0.715 z"
   id="path1461" />
	<path
   style="fill:#ffe15a"
   d="m 246.929,325.945 c 1.152,-0.15 2.605,-0.501 2.706,-2.254 0,0 -2.605,-0.25 -2.605,-0.05 0,0.2 -0.101,2.304 -0.101,2.304 z"
   id="path1463" />
</g>
<g
   id="g1471"
   transform="translate(0,-88.275)">
	<path
   style="fill:#ff4b55"
   d="m 220.778,319.432 c 1.302,0.367 2.572,0.634 2.973,2.238 0,0 1.336,-2.671 -0.534,-4.275 -0.341,-0.293 -2.439,2.037 -2.439,2.037 z"
   id="path1467" />
	<path
   style="fill:#ff4b55"
   d="m 226.322,314.956 c 1.302,0.367 2.572,0.634 2.973,2.238 0,0 1.336,-2.671 -0.534,-4.275 -0.342,-0.291 -2.439,2.037 -2.439,2.037 z"
   id="path1469" />
</g>
<path
   style="fill:#ffe15a"
   d="m 221.178,235.967 c -0.801,-0.201 -2.205,-2.004 -0.401,-4.809 1.804,-2.805 -6.112,1.402 -6.412,3.708 -0.3,2.304 -0.601,6.412 1.203,5.311 1.804,-1.105 5.61,-4.21 5.61,-4.21 z"
   id="path1473" />
<path
   style="fill:#ff4b55"
   d="m 229.762,236.267 c 0.267,-1.47 0,-2.472 1.87,-3.807 1.87,-1.335 2.137,-2.071 2.137,-2.94 0,0 -1.018,1.086 -2.823,1.536 -1.103,0.276 -2.054,1.069 -2.054,1.069 0,0 -0.468,-1.67 1.203,-2.605 0,0 -2.94,0 -3.406,2.671 -0.468,2.671 1.069,3.073 -1.135,3.34 -2.205,0.267 -7.348,-0.801 -9.151,3.273 -1.803,4.075 3.673,1.135 5.143,0.601 1.47,-0.534 6.145,0.601 6.88,-0.401 0.736,-1 1.336,-2.737 1.336,-2.737 z"
   id="path1475" />
<path
   style="fill:#fff5e6"
   d="m 210.508,243.582 7.915,-13.025 c 0,0 7.865,-3.039 7.932,-3.441 0.067,-0.401 2.605,-3.673 2.605,-4.141 0,-0.468 -0.267,-2.739 -1.269,-3.139 -1.002,-0.401 -4.192,0.946 -5.578,1.3 -1.386,0.354 -3.573,-2.234 -3.573,-2.234 0,0 -12.758,2.404 -13.694,3.941 -0.935,1.536 -5.344,12.557 -5.544,13.694 -0.201,1.135 0,8.951 0.267,8.818 0.268,-0.138 10.939,-1.773 10.939,-1.773 z"
   id="path1477" />
<path
   style="fill:#ff4b55"
   d="m 229.428,221.038 c -1.203,-1.737 -3.406,-1.737 -4.342,-0.333 -0.935,1.402 -2.938,1.402 -3.406,3.139 -0.37,1.372 1.87,3.874 3.207,3.406 1.337,-0.468 3.807,-2.004 3.807,-2.004 0,0 1.937,-2.472 0.734,-4.208 z m -3.658,3.536 c -0.548,0.701 -1.924,-0.171 -1.933,-0.949 -0.009,-0.778 1.14,-0.821 1.711,-0.417 0.372,0.262 0.67,0.795 0.222,1.366 z m 2.059,-1.732 c -0.802,0.386 -1.652,-1.003 -1.316,-1.705 0.335,-0.702 1.385,-0.234 1.719,0.381 0.218,0.402 0.25,1.01 -0.403,1.324 z"
   id="path1479" />
<path
   style="fill:#fff5e6"
   d="m 231.96,271.567 c 1.331,0.134 3.093,-0.049 3.459,-3.061 0.42,-3.452 1.464,-4.658 3.193,-3.859 1.729,0.799 1.301,2.178 1.301,2.178 0,0 1.903,5.01 0.902,7.013 -1.002,2.004 -3.306,4.408 -5.01,4.809 -1.704,0.401 -5.21,-1.903 -5.21,-1.903 z"
   id="path1481" />
<path
   style="fill:#ffe6d7"
   d="m 222.347,259.913 c 1.135,-0.534 15.162,-10.286 16.833,-13.961 1.67,-3.673 0.735,-6.346 2.94,-6.479 2.205,-0.134 5.945,-0.267 5.611,-3.006 -0.334,-2.739 -4.008,-1.002 -5.01,-1.536 -1.002,-0.534 -4.141,-2.004 -4.743,0.134 -0.602,2.138 0,4.075 -0.868,5.143 -0.868,1.069 -4.743,2.94 -5.41,2.805 -0.668,-0.134 -2.094,-0.308 -3.185,0.381 -1.091,0.689 -1.692,1.623 -1.692,1.623 0,0 -4.108,0.167 -4.693,0.718 -0.585,0.551 -2.788,3.49 -2.788,3.49 z"
   id="path1483" />
<path
   style="fill:#5aa587"
   d="m 223.817,257.709 c 0,0 2.671,-1.002 4.576,-4.71 1.903,-3.708 3.807,-2.205 6.613,-4.209 2.805,-2.004 1.002,-5.01 0.201,-6.212 -0.801,-1.202 -0.25,-4.308 2.505,-4.209 1.813,0.066 7.615,5.711 5.01,11.322 0,0 -0.401,-1.002 -1.402,-2.205 0,0 1.503,3.708 -2.004,7.816 0,0 0.1,-2.104 -1.002,-3.507 0,0 -0.1,5.21 -4.108,8.516 0,0 0.501,-3.406 -0.1,-4.809 0,0 -0.601,4.509 -6.513,8.617 0,0 0.902,-1.603 0.702,-4.209 l -5.01,2.605 z"
   id="path1485" />
<path
   style="fill:#f5dcd2"
   d="m 185.709,274.842 c 0,0 -1.803,5.511 3.106,7.114 4.909,1.603 7.615,-0.501 9.418,0 1.803,0.501 1.402,3.708 -1.102,6.412 -2.505,2.706 -5.01,3.006 -7.816,1.002 -2.805,-2.004 -3.006,-3.807 -5.911,-3.106 -2.905,0.702 -6.913,-2.104 -6.913,-2.104 0,0 2.605,-11.322 2.905,-11.222 0.302,0.1 6.313,1.904 6.313,1.904 z"
   id="path1487" />
<path
   style="fill:#fff5e6"
   d="m 160.235,261.056 c 0,0 3.459,-3.327 16.9,-7.452 13.44,-4.125 20.626,-5.855 20.626,-5.855 l 10.513,-3.327 c 0,0 4.948,-0.019 8.195,-0.941 3.249,-0.922 3.249,-0.922 3.249,-0.922 0,0 8.65,12.243 2.13,24.618 l 2.262,2.13 c 0,0 2.378,0.726 4.183,1.361 1.805,0.636 0.474,4.095 0.474,4.095 l -6.92,3.193 -20.227,-0.931 c 0,0 -0.399,-0.931 -7.053,1.197 -6.654,2.13 -9.581,-2.661 -22.356,-3.061 -12.775,-0.399 -11.976,-14.105 -11.976,-14.105 z"
   id="path1489" />
<g
   id="g1513"
   transform="translate(0,-88.275)">
	<path
   style="fill:#5aa587"
   d="m 217.738,301.565 c 0,0 2.037,2.037 0.935,4.207 0,0 -2.271,-2.337 -4.141,-2.872 -2.879,-0.822 -3.474,0.751 -9.836,1.052 -4.003,0.189 -5.62,4.025 -9.535,3.09 -4.191,-1.002 -7.648,0.918 -7.648,0.918 0,0 2.404,-0.3 4.359,1.554 1.953,1.853 5.41,1.452 5.41,1.452 0,0 -3.156,2.205 -5.811,1.152 -2.655,-1.053 -6.463,0.902 -6.463,0.902 0.701,-0.05 2.254,0.2 4.008,2.053 1.754,1.853 5.662,1.402 5.662,1.402 -0.701,0.852 -2.655,1.803 -4.501,1.45 -4.184,-0.802 -8.65,1.065 -8.65,1.065 0,0 2.662,-0.931 6.254,1.73 3.593,2.661 7.719,1.065 7.719,1.065 0,1.73 -3.601,8.394 -9.99,8.168 -7.955,-0.281 -9.971,4.341 -9.971,4.341 0,0 3.193,-1.065 7.319,-0.399 7.991,1.289 13.44,-3.327 13.44,-3.327 0,0 -1.331,6.254 -6.786,5.988 -5.455,-0.266 -12.375,5.323 -12.375,5.323 0,0 6.147,-1.108 14.086,-1.205 2.611,-0.032 4.734,-1.062 6.549,-2.286 4.774,-3.224 9.182,-3.224 9.182,-3.224 -5.21,1.203 -7.915,6.913 -7.915,6.913 0,0 4.008,-3.507 9.818,-3.507 5.812,0 7.615,-6.813 7.615,-6.813 -5.41,0.099 -6.212,-4.309 -6.212,-4.309 0,0 -1.603,0.501 -3.106,2.305 -0.951,1.141 -2.558,1.528 -3.658,1.682 -0.401,-3.513 2.252,-6.721 2.252,-6.721 0,0 -3.593,-5.455 1.065,-11.311 4.658,-5.855 15.303,-3.992 15.303,-3.992 1.099,-4.908 -3.042,-7.981 -4.378,-7.846 z"
   id="path1491" />
	<path
   style="fill:#5aa587"
   d="m 206.918,320.935 c 1.737,-0.267 9.82,-2.94 9.685,-6.546 -0.134,-3.607 -4.943,-2.338 -4.675,-0.401 0.267,1.937 2.004,1.536 2.004,1.536 0,0 -0.168,0.873 -3.741,1.603 -2.939,0.602 -3.273,3.808 -3.273,3.808 z"
   id="path1493" />
	<path
   style="fill:#5aa587"
   d="m 228.292,358.943 c 0,0 5.01,-0.801 4.809,2.805 -0.201,3.607 -3.073,7.414 -9.017,9.085 0,0 2.205,-1.903 1.704,-3.006 -0.501,-1.102 -3.006,-1.402 -4.308,0.501 -1.302,1.903 -3.507,2.706 -5.41,2.404 0,0 3.406,-2.505 1.002,-3.406 -2.166,-0.812 -1.336,2.706 -6.513,3.306 0,0 3.807,-3.006 1.603,-3.807 -2.204,-0.801 -3.406,4.408 -7.315,4.008 0,0 3.273,-3.273 1.503,-3.807 -2.788,-0.842 -3.507,4.008 -8.516,1.903 0,0 2.505,-1.102 0.501,-3.807 -2.004,-2.706 0.801,-6.112 2.205,-7.514 1.404,-1.402 2.404,-2.304 2.004,-3.708 0,0 3.574,2.238 1.77,6.178 -1.694,3.701 5.162,1.657 10.487,1.203 5.478,-0.468 8.727,2.674 12.224,1.603 3.271,-1.004 1.267,-3.941 1.267,-3.941 z"
   id="path1495" />
	<path
   style="fill:#5aa587"
   d="m 131.359,360.641 c 0,0 6.572,3.031 10.298,-0.03 3.726,-3.061 4.738,0.562 9.13,-2.1 4.392,-2.661 4.125,-1.197 7.585,-1.197 3.459,0 5.988,-5.589 3.859,-9.448 0,0 7.226,-2.802 5.743,-8.596 -1.102,-4.308 -6.542,-2.98 -6.542,-2.98 0,0 -5.74,-3.608 -9.714,1.065 -3.247,3.82 -1.464,6.388 -6.92,7.053 -5.455,0.665 -6.254,6.254 -12.109,5.589 0,0 3.992,5.19 10.113,1.863 0.001,-0.001 -0.143,5.012 -11.443,8.781 z"
   id="path1497" />
	<path
   style="fill:#5aa587"
   d="m 189.517,370.432 c 0,0 5.611,5.01 -5.41,8.015 0,0 0.702,-0.902 1.503,-2.505 0,0 -3.406,2.505 -7.816,2.304 0,0 1.302,-1.002 1.603,-2.205 0,0 -4.008,1.102 -6.913,-0.801 0,0 3.507,-0.201 5.711,-3.507 0,0 1.002,2.004 3.106,1.002 2.104,-1.002 3.31,0.439 5.21,0.501 1.553,0.05 2.906,-0.751 3.006,-2.804 z"
   id="path1499" />
	<path
   style="fill:#5aa587"
   d="m 186.745,339.505 c 0,0 -4.008,1.87 -2.137,5.41 1.247,2.36 5.153,2.927 6.679,0.735 1.302,-1.87 0.269,-3.686 -1.102,-3.942 -1.436,-0.267 -2.304,0.334 -2.973,1.536 0,10e-4 -2.472,-0.934 -0.467,-3.739 z"
   id="path1501" />
	<path
   style="fill:#5aa587"
   d="m 204.747,345.734 c 0,0 8.703,0.331 8.266,6.362 -0.192,2.654 -3.782,4.507 -6.046,3.115 -1.932,-1.187 -1.619,-3.165 -0.611,-4.042 1.11,-0.966 2.208,-0.618 3.298,0.214 0,-0.002 0.553,-3.295 -4.907,-5.649 z"
   id="path1503" />
	<path
   style="fill:#5aa587"
   d="m 222.131,334.01 c 0,0 4.697,-3.151 6.527,0.6 0.804,1.651 -0.696,4 -2.53,3.954 -1.565,-0.04 -2.062,-1.329 -1.766,-2.201 0.328,-0.961 1.105,-1.133 2.042,-1.015 0,10e-4 0.285,-2.441 -4.273,-1.338 z"
   id="path1505" />
	<path
   style="fill:#5aa587"
   d="m 228.514,331.669 c 0,0 4.333,-2.908 6.02,0.554 0.742,1.523 -0.642,3.69 -2.334,3.647 -1.443,-0.036 -1.902,-1.225 -1.628,-2.03 0.302,-0.886 1.018,-1.046 1.885,-0.937 0,10e-4 0.262,-2.25 -3.943,-1.234 z"
   id="path1507" />
	<path
   style="fill:#5aa587"
   d="m 212.284,350.888 c 0,0 7.489,0.285 7.113,5.475 -0.166,2.283 -3.254,3.878 -5.203,2.68 -1.663,-1.022 -1.752,-2.897 -1.031,-3.791 1.252,-1.553 2.755,-0.852 2.755,-0.852 0,0 1.064,-1.486 -3.634,-3.512 z"
   id="path1509" />
	<path
   style="fill:#5aa587"
   d="m 217.772,355 c 0,0 8.266,-0.801 7.652,4.778 -0.16,1.455 -2.081,2.481 -3.328,1.715 -1.064,-0.653 -1.121,-1.853 -0.659,-2.425 0.801,-0.993 1.762,-0.545 1.762,-0.545 0,0 -0.518,-2.47 -5.427,-3.523 z"
   id="path1511" />
</g>
<path
   style="fill:#ffe6d7"
   d="m 164.759,293.259 c 0,0 1.131,2.296 1.863,4.524 0.627,1.907 3.859,3.193 5.589,1.996 1.73,-1.197 4.651,-4.777 3.454,-5.575 -1.197,-0.799 -6.381,-0.147 -7.179,-2.942 -0.799,-2.795 -0.532,-4.658 -0.532,-4.658 0,0 6.935,2.063 10.242,-3.147 3.307,-5.21 2.834,-10.297 4.13,-12.822 1.013,-1.974 2.795,-2.927 2.795,-2.927 -2.037,-8.066 -26.88,-13.839 -23.997,7.097 l -3.903,8.872 z"
   id="path1515" />
<g
   id="g1521"
   transform="translate(0,-88.275)">
	<path
   style="fill:#5aa587"
   d="m 155.951,381.185 c 1.704,1.102 7.949,4.275 11.823,1.87 3.168,-1.966 3.207,-4.209 1.203,-4.71 -2.004,-0.501 -3.106,0.902 -4.209,0 -1.102,-0.901 -7.315,-6.012 -5.01,-7.615 2.305,-1.603 3.552,-2.9 3.507,-5.711 -0.033,-2.071 -1.837,-4.075 -3.975,-4.275 -2.665,-0.249 -4.743,0.868 -7.548,0.868 l 3.273,1.67 c -2.104,1.002 -2.271,3.841 -4.776,4.342 0,0 1.704,1.937 3.841,1.336 0,0 -0.735,2.004 -2.739,2.271 0,0 1.87,2.137 3.607,2.739 0,0 -1.135,0.801 -2.905,0.468 0,0 2.772,4.075 6.913,5.11 z"
   id="path1517" />
	<path
   style="fill:#5aa587"
   d="m 168.022,373.555 c 0,0 1.113,-0.193 1.208,-1.548 0.055,-0.781 -0.725,-1.794 -2.052,-1.718 -1.555,0.089 -2.61,2.154 -1.865,3.523 1.907,3.501 9.007,2.095 9.875,0.826 0.001,0 -5.676,0.268 -7.166,-1.083 z"
   id="path1519" />
</g>
<g
   id="g1539"
   transform="translate(0,-88.275)">
	<path
   style="fill:#ffe15a"
   d="m 171.348,390.203 c 0.309,-0.434 0.559,-1.611 -0.042,-2.338 0,0 0.326,-1.678 1.603,-1.077 0,0 0.543,1.344 0.108,2.28 -0.433,0.935 -1.669,1.135 -1.669,1.135 z"
   id="path1523" />
	<path
   style="fill:#ffe15a"
   d="m 173.954,389.261 c -0.022,-1.21 -0.294,-1.873 -1.27,-1.973 0,0 -0.25,-1.753 1.203,-1.753 0,0 1.077,0.951 1.087,1.983 0.01,1.031 -1.02,1.743 -1.02,1.743 z"
   id="path1525" />
	<path
   style="fill:#ffe15a"
   d="m 175.565,388.088 c -0.238,-1.187 -0.463,-2.013 -1.55,-2.093 0,0 -0.578,-1.436 1.024,-1.636 0,0 1.022,0.82 1.217,1.832 0.194,1.012 -0.691,1.897 -0.691,1.897 z"
   id="path1527" />
	<path
   style="fill:#ffe15a"
   d="m 177.176,386.247 c -0.493,-1.106 -0.984,-1.548 -2.062,-1.388 0,0 -0.927,-1.302 0.351,-2.004 0,0 1.556,0.444 1.967,1.389 0.413,0.946 -0.256,2.003 -0.256,2.003 z"
   id="path1529" />
	<path
   style="fill:#ffe15a"
   d="m 196.196,379.471 c 0.227,-0.482 0.265,-1.685 -0.456,-2.293 0,0 0.022,-1.709 1.386,-1.345 0,0 0.772,1.227 0.511,2.223 -0.26,0.997 -1.441,1.415 -1.441,1.415 z"
   id="path1531" />
	<path
   style="fill:#ffe15a"
   d="m 198.594,378.081 c -0.236,-1.187 -0.621,-1.791 -1.6,-1.716 0,0 -0.557,-1.681 0.872,-1.939 0,0 1.228,0.745 1.421,1.758 0.193,1.013 -0.693,1.897 -0.693,1.897 z"
   id="path1533" />
	<path
   style="fill:#ffe15a"
   d="m 199.97,376.641 c -0.445,-1.126 -0.813,-1.899 -1.898,-1.785 0,0 -0.824,-1.311 0.717,-1.792 0,0 1.151,0.626 1.523,1.587 0.372,0.963 -0.342,1.99 -0.342,1.99 z"
   id="path1535" />
	<path
   style="fill:#ffe15a"
   d="m 201.23,374.542 c -0.682,-1.001 -1.244,-1.349 -2.276,-1 0,0 -1.143,-1.118 -0.011,-2.035 0,0 1.61,0.161 2.184,1.017 0.573,0.859 0.103,2.018 0.103,2.018 z"
   id="path1537" />
</g>
<path
   style="fill:#ffe6d7"
   d="m 229.494,224.577 c 0.217,1.085 -0.334,2.271 -2.938,3.406 -2.604,1.135 -2.538,0.668 -4.275,2.872 -1.737,2.205 -1.937,2.271 -4.075,2.671 -2.137,0.401 -3.139,7.013 -0.601,6.012 2.538,-1.002 2.872,-3.073 5.677,-2.404 2.805,0.669 4.275,1.603 6.479,-0.868 0,0 2.137,2.872 -1.87,4.075 -4.008,1.203 -6.195,1.295 -8.173,2.217 -1.98,0.922 -9,3.177 -9.461,-3.386 -0.134,-1.903 1.269,-2.638 2.071,-4.041 0.801,-1.402 1.603,-2.338 3.54,-3.874 1.937,-1.536 0.735,-2.805 3.874,-3.273 3.139,-0.468 5.745,-0.401 6.679,-2.671 0.936,-2.272 2.806,-2.072 3.073,-0.736 z"
   id="path1541" />
<g
   id="g1551"
   transform="translate(0,-88.275)">
	<path
   style="fill:#5aa587"
   d="m 176.893,344.698 c 0,0 -0.602,-2.393 2.189,-3.407 -0.655,0.199 -1.258,0.377 -1.946,0.589 -0.587,0.18 -1.053,0.349 -1.602,0.526 -0.214,0.289 -0.502,0.442 -0.647,0.847 -0.849,2.378 1.251,5.463 3.756,5.127 2.136,-0.288 2.742,-2.168 2.044,-3.287 -0.733,-1.173 -2.342,-1.447 -3.794,-0.395 z"
   id="path1543" />
	<path
   style="fill:#5aa587"
   d="m 177.757,370.105 c -3.029,0.678 -4.392,-0.492 -4.392,-0.492 0,0 1.113,-0.193 1.208,-1.548 0.055,-0.781 -0.725,-1.794 -2.052,-1.718 -1.555,0.089 -2.61,2.154 -1.864,3.523 1.641,3.011 6.302,2.3 8.356,0.165 0.108,-0.22 0.22,-0.438 0.317,-0.657 -0.449,0.286 -1.024,0.606 -1.573,0.727 z"
   id="path1545" />
	<path
   style="fill:#5aa587"
   d="m 180.818,365.044 c 0.077,-0.343 0.186,-0.689 0.252,-1.016 -3.56,1.44 -4.598,-0.373 -4.598,-0.373 0,0 1.113,-0.193 1.208,-1.548 0.055,-0.781 -0.725,-1.794 -2.052,-1.717 -1.555,0.089 -2.61,2.154 -1.864,3.523 1.739,3.191 4.839,2.301 7.054,1.131 z"
   id="path1547" />
	<path
   style="fill:#5aa587"
   d="m 188.826,366.737 c -2.069,1.854 -3.65,1.752 -3.65,1.752 0,0 0.826,-0.769 0.167,-1.956 -0.381,-0.685 -1.587,-1.107 -2.657,-0.319 -1.255,0.924 -1.011,3.23 0.361,3.97 3.378,1.821 5.57,-0.995 6.742,-3.262 -0.319,-0.044 -0.643,-0.119 -0.963,-0.185 z"
   id="path1549" />
</g>
<g
   id="g1561"
   transform="translate(0,-88.275)">
	<path
   style="fill:#ffe15a"
   d="m 242.151,364.945 c -0.149,-0.738 -0.922,-2.143 -1.874,-2.24 0,0 -1.122,-1.97 0.153,-2.686 0,0 1.402,0.759 1.869,2.114 0.467,1.356 -0.148,2.812 -0.148,2.812 z"
   id="path1553" />
	<path
   style="fill:#ffe15a"
   d="m 243.04,361.368 c -0.97,-1.16 -1.664,-1.528 -2.356,-0.63 0,0 -1.543,-1.457 -0.632,-2.937 0,0 1.427,-0.169 2.249,0.826 0.822,0.998 0.739,2.741 0.739,2.741 z"
   id="path1555" />
	<path
   style="fill:#ffe15a"
   d="m 243.123,358.581 c -1.088,-0.916 -1.881,-1.493 -2.626,-0.462 0,0 -1.497,-0.812 -0.651,-2.642 0,0 1.289,-0.242 2.21,0.548 0.922,0.79 1.067,2.556 1.067,2.556 z"
   id="path1557" />
	<path
   style="fill:#ffe15a"
   d="m 242.678,355.143 c -1.183,-0.576 -1.841,-0.509 -2.39,0.747 0,0 -1.61,-0.327 -1.364,-2.314 0,0 1.326,-1.152 2.332,-0.651 1.006,0.501 1.422,2.218 1.422,2.218 z"
   id="path1559" />
</g>
<circle
   style="fill:#f5f5f5"
   cx="216.87"
   cy="228.314"
   r="1.87"
   id="circle1563" />
<circle
   style="fill:#41479b"
   cx="216.87"
   cy="228.314"
   r="0.67799997"
   id="circle1565" />
<circle
   style="fill:#f5f5f5"
   cx="220.72"
   cy="221.48502"
   r="1.5190001"
   id="circle1567" />
<circle
   style="fill:#41479b"
   cx="220.72"
   cy="221.48502"
   r="0.551"
   id="circle1569" />
<path
   style="fill:#fff5e6"
   d="m 166.773,258.209 c -1.73,1.331 -7.715,-1.603 -11.923,-0.201 -5.439,1.813 -5.394,5.309 -5.394,5.309 0,0 3.39,-4.206 9.034,-2.136 3.123,1.145 4.939,1.205 4.939,1.205 z"
   id="path1571" />
<path
   style="fill:#ffe15a"
   d="m 265.068,237.67 c -1.152,-0.15 -2.605,-0.501 -2.706,-2.254 0,0 2.605,-0.25 2.605,-0.05 0,0.2 0.101,2.304 0.101,2.304 z"
   id="path1573" />
<g
   id="g1579"
   transform="translate(0,-88.275)">
	<path
   style="fill:#ff4b55"
   d="m 291.219,319.432 c -1.302,0.367 -2.572,0.634 -2.973,2.238 0,0 -1.336,-2.671 0.534,-4.275 0.341,-0.293 2.439,2.037 2.439,2.037 z"
   id="path1575" />
	<path
   style="fill:#ff4b55"
   d="m 285.675,314.956 c -1.302,0.367 -2.572,0.634 -2.973,2.238 0,0 -1.336,-2.671 0.534,-4.275 0.34,-0.291 2.439,2.037 2.439,2.037 z"
   id="path1577" />
</g>
<path
   style="fill:#ffe15a"
   d="m 290.818,235.967 c 0.801,-0.201 2.205,-2.004 0.401,-4.809 -1.804,-2.805 6.112,1.402 6.412,3.708 0.3,2.306 0.601,6.412 -1.203,5.311 -1.803,-1.105 -5.61,-4.21 -5.61,-4.21 z"
   id="path1581" />
<path
   style="fill:#ff4b55"
   d="m 282.234,236.267 c -0.267,-1.47 0,-2.472 -1.87,-3.807 -1.87,-1.335 -2.137,-2.071 -2.137,-2.94 0,0 1.018,1.086 2.823,1.536 1.103,0.276 2.053,1.069 2.053,1.069 0,0 0.468,-1.67 -1.203,-2.605 0,0 2.94,0 3.406,2.671 0.468,2.671 -1.069,3.073 1.135,3.34 2.205,0.267 7.348,-0.801 9.151,3.273 1.803,4.074 -3.673,1.135 -5.143,0.601 -1.47,-0.534 -6.145,0.601 -6.88,-0.401 -0.733,-1 -1.335,-2.737 -1.335,-2.737 z"
   id="path1583" />
<path
   style="fill:#fff5e6"
   d="m 301.489,243.582 -7.915,-13.025 c 0,0 -7.865,-3.039 -7.932,-3.441 -0.067,-0.401 -2.605,-3.673 -2.605,-4.141 0,-0.468 0.267,-2.739 1.269,-3.139 1.002,-0.401 4.192,0.946 5.578,1.3 1.386,0.354 3.573,-2.234 3.573,-2.234 0,0 12.758,2.404 13.694,3.941 0.935,1.536 5.344,12.557 5.544,13.694 0.201,1.135 0,8.951 -0.267,8.818 -0.268,-0.138 -10.939,-1.773 -10.939,-1.773 z"
   id="path1585" />
<path
   style="fill:#ff4b55"
   d="m 283.304,225.246 c 0,0 2.472,1.536 3.807,2.004 1.336,0.467 3.576,-2.036 3.207,-3.406 -0.467,-1.737 -2.472,-1.737 -3.406,-3.139 -0.935,-1.402 -3.139,-1.402 -4.342,0.333 -1.204,1.736 0.734,4.208 0.734,4.208 z m 3.145,-2.039 c 0.572,-0.404 1.72,-0.36 1.711,0.417 -0.009,0.778 -1.385,1.65 -1.933,0.949 -0.448,-0.57 -0.15,-1.103 0.222,-1.366 z m -2.685,-1.69 c 0.334,-0.615 1.384,-1.082 1.719,-0.381 0.335,0.702 -0.514,2.091 -1.316,1.705 -0.653,-0.313 -0.622,-0.921 -0.403,-1.324 z"
   id="path1587" />
<path
   style="fill:#fff5e6"
   d="m 280.036,271.567 c -1.331,0.134 -3.093,-0.049 -3.459,-3.061 -0.42,-3.452 -1.464,-4.658 -3.193,-3.859 -1.729,0.799 -1.301,2.178 -1.301,2.178 0,0 -1.903,5.01 -0.902,7.013 1.002,2.004 3.306,4.408 5.01,4.809 1.704,0.401 5.211,-1.903 5.211,-1.903 z"
   id="path1589" />
<path
   style="fill:#ffe6d7"
   d="m 289.649,259.913 c -1.135,-0.534 -15.162,-10.286 -16.833,-13.961 -1.67,-3.673 -0.735,-6.346 -2.94,-6.479 -2.205,-0.134 -5.945,-0.267 -5.611,-3.006 0.334,-2.739 4.008,-1.002 5.01,-1.536 1.002,-0.534 4.141,-2.004 4.743,0.134 0.602,2.138 0,4.075 0.868,5.143 0.868,1.069 4.743,2.94 5.41,2.805 0.668,-0.135 2.094,-0.308 3.185,0.381 1.09,0.689 1.692,1.623 1.692,1.623 0,0 4.108,0.167 4.693,0.718 0.585,0.551 2.788,3.49 2.788,3.49 z"
   id="path1591" />
<path
   style="fill:#5aa587"
   d="m 288.18,257.709 c 0,0 -2.671,-1.002 -4.576,-4.71 -1.903,-3.708 -3.807,-2.205 -6.613,-4.209 -2.805,-2.004 -1.002,-5.01 -0.201,-6.212 0.801,-1.203 0.25,-4.308 -2.505,-4.209 -1.813,0.066 -7.615,5.711 -5.01,11.322 0,0 0.401,-1.002 1.402,-2.205 0,0 -1.503,3.708 2.004,7.816 0,0 -0.1,-2.104 1.002,-3.507 0,0 0.1,5.21 4.108,8.516 0,0 -0.501,-3.406 0.1,-4.809 0,0 0.601,4.509 6.513,8.617 0,0 -0.901,-1.603 -0.702,-4.209 l 5.01,2.605 z"
   id="path1593" />
<path
   style="fill:#f5dcd2"
   d="m 326.287,274.842 c 0,0 1.803,5.511 -3.106,7.114 -4.909,1.603 -7.615,-0.501 -9.418,0 -1.803,0.501 -1.402,3.708 1.102,6.412 2.505,2.706 5.01,3.006 7.816,1.002 2.805,-2.004 3.006,-3.807 5.911,-3.106 2.905,0.702 6.913,-2.104 6.913,-2.104 0,0 -2.605,-11.322 -2.905,-11.222 -0.301,0.1 -6.313,1.904 -6.313,1.904 z"
   id="path1595" />
<path
   style="fill:#fff5e6"
   d="m 351.762,261.056 c 0,0 -3.459,-3.327 -16.9,-7.452 -13.44,-4.125 -20.626,-5.855 -20.626,-5.855 l -10.513,-3.327 c 0,0 -4.948,-0.019 -8.195,-0.941 -3.247,-0.922 -3.249,-0.922 -3.249,-0.922 0,0 -8.65,12.243 -2.13,24.618 l -2.262,2.13 c 0,0 -2.378,0.726 -4.183,1.361 -1.805,0.636 -0.474,4.095 -0.474,4.095 l 6.92,3.193 20.227,-0.931 c 0,0 0.399,-0.931 7.053,1.197 6.654,2.129 9.581,-2.661 22.356,-3.061 12.773,-0.399 11.976,-14.105 11.976,-14.105 z"
   id="path1597" />
<g
   id="g1621"
   transform="translate(0,-88.275)">
	<path
   style="fill:#5aa587"
   d="m 294.258,301.565 c 0,0 -2.037,2.037 -0.935,4.207 0,0 2.271,-2.337 4.141,-2.872 2.879,-0.822 3.474,0.751 9.836,1.052 4.003,0.189 5.62,4.025 9.535,3.09 4.191,-1.002 7.648,0.918 7.648,0.918 0,0 -2.404,-0.3 -4.359,1.554 -1.953,1.853 -5.41,1.452 -5.41,1.452 0,0 3.156,2.205 5.811,1.152 2.655,-1.052 6.463,0.902 6.463,0.902 -0.701,-0.05 -2.254,0.2 -4.008,2.053 -1.753,1.854 -5.662,1.402 -5.662,1.402 0.701,0.852 2.655,1.803 4.501,1.45 4.184,-0.802 8.65,1.065 8.65,1.065 0,0 -2.661,-0.931 -6.254,1.73 -3.593,2.661 -7.719,1.065 -7.719,1.065 0,1.73 3.601,8.394 9.99,8.168 7.955,-0.281 9.971,4.341 9.971,4.341 0,0 -3.193,-1.065 -7.319,-0.399 -7.991,1.289 -13.44,-3.327 -13.44,-3.327 0,0 1.331,6.254 6.786,5.988 5.455,-0.266 12.375,5.323 12.375,5.323 0,0 -6.147,-1.108 -14.086,-1.205 -2.611,-0.032 -4.734,-1.062 -6.549,-2.286 -4.774,-3.224 -9.182,-3.224 -9.182,-3.224 5.21,1.203 7.915,6.913 7.915,6.913 0,0 -4.008,-3.507 -9.818,-3.507 -5.812,0 -7.615,-6.813 -7.615,-6.813 5.41,0.099 6.212,-4.309 6.212,-4.309 0,0 1.603,0.501 3.106,2.305 0.951,1.141 2.558,1.528 3.658,1.682 0.401,-3.513 -2.252,-6.721 -2.252,-6.721 0,0 3.593,-5.455 -1.065,-11.311 -4.658,-5.856 -15.304,-3.992 -15.304,-3.992 -1.098,-4.908 3.043,-7.981 4.379,-7.846 z"
   id="path1599" />
	<path
   style="fill:#5aa587"
   d="m 305.079,320.935 c -1.737,-0.267 -9.82,-2.94 -9.685,-6.546 0.135,-3.606 4.943,-2.338 4.675,-0.401 -0.267,1.937 -2.004,1.536 -2.004,1.536 0,0 0.168,0.873 3.741,1.603 2.939,0.602 3.273,3.808 3.273,3.808 z"
   id="path1601" />
	<path
   style="fill:#5aa587"
   d="m 283.704,358.943 c 0,0 -5.01,-0.801 -4.809,2.805 0.201,3.607 3.073,7.414 9.017,9.085 0,0 -2.205,-1.903 -1.704,-3.006 0.501,-1.102 3.006,-1.402 4.308,0.501 1.302,1.903 3.507,2.706 5.41,2.404 0,0 -3.406,-2.505 -1.002,-3.406 2.166,-0.812 1.336,2.706 6.513,3.306 0,0 -3.807,-3.006 -1.603,-3.807 2.205,-0.801 3.406,4.408 7.315,4.008 0,0 -3.273,-3.273 -1.503,-3.807 2.788,-0.842 3.507,4.008 8.516,1.903 0,0 -2.505,-1.102 -0.501,-3.807 2.004,-2.706 -0.801,-6.112 -2.205,-7.514 -1.402,-1.402 -2.404,-2.304 -2.004,-3.708 0,0 -3.574,2.238 -1.77,6.178 1.694,3.701 -5.162,1.657 -10.487,1.203 -5.478,-0.468 -8.727,2.674 -12.224,1.603 -3.271,-1.004 -1.267,-3.941 -1.267,-3.941 z"
   id="path1603" />
	<path
   style="fill:#5aa587"
   d="m 380.638,360.641 c 0,0 -6.572,3.031 -10.298,-0.03 -3.726,-3.061 -4.738,0.562 -9.13,-2.1 -4.392,-2.661 -4.125,-1.197 -7.585,-1.197 -3.459,0 -5.988,-5.589 -3.859,-9.448 0,0 -7.227,-2.802 -5.743,-8.596 1.102,-4.308 6.542,-2.98 6.542,-2.98 0,0 5.74,-3.608 9.714,1.065 3.247,3.82 1.464,6.388 6.92,7.053 5.455,0.665 6.254,6.254 12.109,5.589 0,0 -3.992,5.19 -10.113,1.863 -10e-4,-0.001 0.142,5.012 11.443,8.781 z"
   id="path1605" />
	<path
   style="fill:#5aa587"
   d="m 322.479,370.432 c 0,0 -5.611,5.01 5.41,8.015 0,0 -0.702,-0.902 -1.503,-2.505 0,0 3.406,2.505 7.816,2.304 0,0 -1.302,-1.002 -1.603,-2.205 0,0 4.008,1.102 6.913,-0.801 0,0 -3.507,-0.201 -5.711,-3.507 0,0 -1.002,2.004 -3.106,1.002 -2.104,-1.002 -3.31,0.439 -5.211,0.501 -1.551,0.05 -2.904,-0.751 -3.005,-2.804 z"
   id="path1607" />
	<path
   style="fill:#5aa587"
   d="m 325.251,339.505 c 0,0 4.008,1.87 2.137,5.41 -1.247,2.36 -5.153,2.927 -6.679,0.735 -1.302,-1.87 -0.269,-3.686 1.102,-3.942 1.437,-0.267 2.304,0.334 2.973,1.536 -10e-4,10e-4 2.471,-0.934 0.467,-3.739 z"
   id="path1609" />
	<path
   style="fill:#5aa587"
   d="m 307.25,345.734 c 0,0 -8.703,0.331 -8.266,6.362 0.192,2.654 3.782,4.507 6.046,3.115 1.932,-1.187 1.619,-3.165 0.611,-4.042 -1.11,-0.966 -2.208,-0.618 -3.298,0.214 0,-0.002 -0.553,-3.295 4.907,-5.649 z"
   id="path1611" />
	<path
   style="fill:#5aa587"
   d="m 289.866,334.01 c 0,0 -4.697,-3.151 -6.527,0.6 -0.804,1.651 0.696,4 2.53,3.954 1.565,-0.04 2.062,-1.329 1.766,-2.201 -0.328,-0.961 -1.105,-1.133 -2.043,-1.015 0,10e-4 -0.284,-2.441 4.274,-1.338 z"
   id="path1613" />
	<path
   style="fill:#5aa587"
   d="m 283.482,331.669 c 0,0 -4.333,-2.908 -6.02,0.554 -0.741,1.523 0.642,3.69 2.334,3.647 1.443,-0.036 1.902,-1.225 1.628,-2.03 -0.302,-0.886 -1.018,-1.046 -1.885,-0.937 0.001,10e-4 -0.262,-2.25 3.943,-1.234 z"
   id="path1615" />
	<path
   style="fill:#5aa587"
   d="m 299.713,350.888 c 0,0 -7.489,0.285 -7.113,5.475 0.165,2.283 3.254,3.878 5.203,2.68 1.663,-1.022 1.752,-2.897 1.031,-3.791 -1.252,-1.553 -2.755,-0.852 -2.755,-0.852 0,0 -1.064,-1.486 3.634,-3.512 z"
   id="path1617" />
	<path
   style="fill:#5aa587"
   d="m 294.225,355 c 0,0 -8.266,-0.801 -7.652,4.778 0.16,1.455 2.081,2.481 3.328,1.715 1.064,-0.653 1.121,-1.853 0.659,-2.425 -0.801,-0.993 -1.762,-0.545 -1.762,-0.545 0,0 0.517,-2.47 5.427,-3.523 z"
   id="path1619" />
</g>
<path
   style="fill:#ffe6d7"
   d="m 347.238,293.259 c 0,0 -1.131,2.296 -1.863,4.524 -0.627,1.907 -3.859,3.193 -5.589,1.996 -1.73,-1.197 -4.651,-4.777 -3.454,-5.575 1.197,-0.798 6.381,-0.147 7.18,-2.942 0.799,-2.795 0.532,-4.658 0.532,-4.658 0,0 -6.935,2.063 -10.242,-3.147 -3.306,-5.211 -2.834,-10.297 -4.13,-12.822 -1.013,-1.974 -2.795,-2.927 -2.795,-2.927 2.037,-8.066 26.88,-13.839 23.997,7.097 l 3.903,8.872 z"
   id="path1623" />
<g
   id="g1629"
   transform="translate(0,-88.275)">
	<path
   style="fill:#5aa587"
   d="m 356.045,381.185 c -1.704,1.102 -7.949,4.275 -11.823,1.87 -3.168,-1.966 -3.207,-4.209 -1.203,-4.71 2.004,-0.501 3.106,0.902 4.209,0 1.102,-0.901 7.315,-6.012 5.01,-7.615 -2.305,-1.603 -3.552,-2.9 -3.507,-5.711 0.033,-2.071 1.837,-4.075 3.975,-4.275 2.665,-0.249 4.743,0.868 7.548,0.868 l -3.273,1.67 c 2.104,1.002 2.271,3.841 4.776,4.342 0,0 -1.704,1.937 -3.841,1.336 0,0 0.735,2.004 2.739,2.271 0,0 -1.87,2.137 -3.607,2.739 0,0 1.135,0.801 2.905,0.468 0,0 -2.772,4.075 -6.913,5.11 z"
   id="path1625" />
	<path
   style="fill:#5aa587"
   d="m 343.975,373.555 c 0,0 -1.113,-0.193 -1.208,-1.548 -0.055,-0.781 0.725,-1.794 2.052,-1.718 1.555,0.089 2.61,2.154 1.865,3.523 -1.907,3.501 -9.007,2.095 -9.875,0.826 -0.001,0 5.676,0.268 7.166,-1.083 z"
   id="path1627" />
</g>
<g
   id="g1647"
   transform="translate(0,-88.275)">
	<path
   style="fill:#ffe15a"
   d="m 340.648,390.203 c -0.309,-0.434 -0.559,-1.611 0.042,-2.338 0,0 -0.326,-1.678 -1.603,-1.077 0,0 -0.543,1.344 -0.108,2.28 0.433,0.935 1.669,1.135 1.669,1.135 z"
   id="path1631" />
	<path
   style="fill:#ffe15a"
   d="m 338.041,389.261 c 0.022,-1.21 0.294,-1.873 1.27,-1.973 0,0 0.25,-1.753 -1.203,-1.753 0,0 -1.077,0.951 -1.087,1.983 -0.008,1.031 1.02,1.743 1.02,1.743 z"
   id="path1633" />
	<path
   style="fill:#ffe15a"
   d="m 336.431,388.088 c 0.238,-1.187 0.463,-2.013 1.55,-2.093 0,0 0.578,-1.436 -1.024,-1.636 0,0 -1.022,0.82 -1.217,1.832 -0.195,1.01 0.691,1.897 0.691,1.897 z"
   id="path1635" />
	<path
   style="fill:#ffe15a"
   d="m 334.82,386.247 c 0.493,-1.106 0.984,-1.548 2.062,-1.388 0,0 0.927,-1.302 -0.351,-2.004 0,0 -1.556,0.444 -1.969,1.389 -0.41,0.946 0.258,2.003 0.258,2.003 z"
   id="path1637" />
	<path
   style="fill:#ffe15a"
   d="m 315.8,379.471 c -0.227,-0.482 -0.265,-1.685 0.456,-2.293 0,0 -0.022,-1.709 -1.387,-1.345 0,0 -0.772,1.227 -0.512,2.223 0.263,0.997 1.443,1.415 1.443,1.415 z"
   id="path1639" />
	<path
   style="fill:#ffe15a"
   d="m 313.402,378.081 c 0.236,-1.187 0.621,-1.791 1.6,-1.716 0,0 0.557,-1.681 -0.872,-1.939 0,0 -1.228,0.745 -1.421,1.758 -0.194,1.014 0.693,1.897 0.693,1.897 z"
   id="path1641" />
	<path
   style="fill:#ffe15a"
   d="m 312.025,376.641 c 0.445,-1.126 0.813,-1.899 1.898,-1.785 0,0 0.824,-1.311 -0.717,-1.792 0,0 -1.151,0.626 -1.523,1.587 -0.372,0.963 0.342,1.99 0.342,1.99 z"
   id="path1643" />
	<path
   style="fill:#ffe15a"
   d="m 310.766,374.542 c 0.682,-1.001 1.244,-1.349 2.276,-1 0,0 1.143,-1.118 0.011,-2.035 0,0 -1.61,0.161 -2.184,1.017 -0.573,0.859 -0.103,2.018 -0.103,2.018 z"
   id="path1645" />
</g>
<path
   style="fill:#ffe6d7"
   d="m 282.502,224.577 c -0.217,1.085 0.334,2.271 2.94,3.406 2.606,1.135 2.538,0.668 4.275,2.872 1.737,2.205 1.937,2.271 4.075,2.671 2.137,0.401 3.139,7.013 0.601,6.012 -2.538,-1.002 -2.872,-3.073 -5.677,-2.404 -2.805,0.669 -4.275,1.603 -6.479,-0.868 0,0 -2.137,2.872 1.87,4.075 4.008,1.203 6.195,1.295 8.173,2.217 1.98,0.922 9,3.177 9.461,-3.386 0.134,-1.903 -1.269,-2.638 -2.071,-4.041 -0.801,-1.402 -1.603,-2.338 -3.54,-3.874 -1.938,-1.536 -0.735,-2.805 -3.874,-3.273 -3.139,-0.468 -5.745,-0.401 -6.679,-2.671 -0.938,-2.272 -2.808,-2.072 -3.075,-0.736 z"
   id="path1649" />
<g
   id="g1659"
   transform="translate(0,-88.275)">
	<path
   style="fill:#5aa587"
   d="m 335.104,344.698 c 0,0 0.602,-2.393 -2.189,-3.407 0.655,0.199 1.258,0.377 1.947,0.589 0.587,0.18 1.053,0.349 1.602,0.526 0.214,0.289 0.502,0.442 0.647,0.847 0.849,2.378 -1.251,5.463 -3.756,5.127 -2.136,-0.288 -2.742,-2.168 -2.044,-3.287 0.731,-1.173 2.34,-1.447 3.793,-0.395 z"
   id="path1651" />
	<path
   style="fill:#5aa587"
   d="m 334.239,370.105 c 3.029,0.678 4.392,-0.492 4.392,-0.492 0,0 -1.113,-0.193 -1.208,-1.548 -0.055,-0.781 0.725,-1.794 2.052,-1.718 1.555,0.089 2.61,2.154 1.864,3.523 -1.641,3.011 -6.302,2.3 -8.356,0.165 -0.108,-0.22 -0.22,-0.438 -0.317,-0.657 0.45,0.286 1.024,0.606 1.573,0.727 z"
   id="path1653" />
	<path
   style="fill:#5aa587"
   d="m 331.179,365.044 c -0.077,-0.343 -0.186,-0.689 -0.252,-1.016 3.56,1.44 4.598,-0.373 4.598,-0.373 0,0 -1.113,-0.193 -1.208,-1.548 -0.055,-0.781 0.725,-1.794 2.052,-1.717 1.555,0.089 2.61,2.154 1.864,3.523 -1.74,3.191 -4.84,2.301 -7.054,1.131 z"
   id="path1655" />
	<path
   style="fill:#5aa587"
   d="m 323.17,366.737 c 2.069,1.854 3.65,1.752 3.65,1.752 0,0 -0.826,-0.769 -0.167,-1.956 0.381,-0.685 1.587,-1.107 2.657,-0.319 1.255,0.924 1.011,3.23 -0.361,3.97 -3.378,1.821 -5.57,-0.995 -6.742,-3.262 0.319,-0.044 0.642,-0.119 0.963,-0.185 z"
   id="path1657" />
</g>
<g
   id="g1669"
   transform="translate(0,-88.275)">
	<path
   style="fill:#ffe15a"
   d="m 269.846,364.945 c 0.149,-0.738 0.922,-2.143 1.874,-2.24 0,0 1.122,-1.97 -0.153,-2.686 0,0 -1.402,0.759 -1.869,2.114 -0.469,1.356 0.148,2.812 0.148,2.812 z"
   id="path1661" />
	<path
   style="fill:#ffe15a"
   d="m 268.957,361.368 c 0.97,-1.16 1.664,-1.528 2.356,-0.63 0,0 1.543,-1.457 0.632,-2.937 0,0 -1.427,-0.169 -2.249,0.826 -0.822,0.996 -0.739,2.741 -0.739,2.741 z"
   id="path1663" />
	<path
   style="fill:#ffe15a"
   d="m 268.874,358.581 c 1.087,-0.916 1.881,-1.493 2.626,-0.462 0,0 1.497,-0.812 0.651,-2.642 0,0 -1.289,-0.242 -2.21,0.548 -0.923,0.79 -1.067,2.556 -1.067,2.556 z"
   id="path1665" />
	<path
   style="fill:#ffe15a"
   d="m 269.319,355.143 c 1.183,-0.576 1.841,-0.509 2.39,0.747 0,0 1.61,-0.327 1.364,-2.314 0,0 -1.326,-1.152 -2.332,-0.651 -1.005,0.502 -1.422,2.218 -1.422,2.218 z"
   id="path1667" />
</g>
<circle
   style="fill:#f5f5f5"
   cx="295.13"
   cy="228.314"
   r="1.87"
   id="circle1671" />
<circle
   style="fill:#41479b"
   cx="295.13"
   cy="228.314"
   r="0.67799997"
   id="circle1673" />
<circle
   style="fill:#f5f5f5"
   cx="291.26999"
   cy="221.48502"
   r="1.5190001"
   id="circle1675" />
<circle
   style="fill:#41479b"
   cx="291.26999"
   cy="221.48502"
   r="0.551"
   id="circle1677" />
<path
   style="fill:#fff5e6"
   d="m 345.224,258.209 c 1.73,1.331 7.715,-1.603 11.923,-0.201 5.439,1.813 5.394,5.309 5.394,5.309 0,0 -3.39,-4.206 -9.034,-2.136 -3.123,1.145 -4.939,1.205 -4.939,1.205 z"
   id="path1679" />
<g
   id="g1681"
   transform="translate(0,-88.275)">
</g>
<g
   id="g1683"
   transform="translate(0,-88.275)">
</g>
<g
   id="g1685"
   transform="translate(0,-88.275)">
</g>
<g
   id="g1687"
   transform="translate(0,-88.275)">
</g>
<g
   id="g1689"
   transform="translate(0,-88.275)">
</g>
<g
   id="g1691"
   transform="translate(0,-88.275)">
</g>
<g
   id="g1693"
   transform="translate(0,-88.275)">
</g>
<g
   id="g1695"
   transform="translate(0,-88.275)">
</g>
<g
   id="g1697"
   transform="translate(0,-88.275)">
</g>
<g
   id="g1699"
   transform="translate(0,-88.275)">
</g>
<g
   id="g1701"
   transform="translate(0,-88.275)">
</g>
<g
   id="g1703"
   transform="translate(0,-88.275)">
</g>
<g
   id="g1705"
   transform="translate(0,-88.275)">
</g>
<g
   id="g1707"
   transform="translate(0,-88.275)">
</g>
<g
   id="g1709"
   transform="translate(0,-88.275)">
</g>
</svg>
