<svg xmlns="http://www.w3.org/2000/svg" xml:space="preserve" width="512" height="335.45001"><path style="fill:#ff4b55" d="M0 114.772h512v105.94H0z"/><path style="fill:#41479b" d="M473.651 0H38.292C17.807 0 1.077 16.062 0 36.277v21.109h512V38.349C512 17.17 494.831 0 473.651 0z"/><path style="fill:#f5f5f5" d="M0 57.38201h512v57.39H0z"/><path style="fill:#41479b" d="M0 299.209c1.077 20.215 17.807 36.277 38.292 36.277h435.359c21.18 0 38.349-17.169 38.349-38.349V278.1H0z"/><g transform="translate(0 -88.257)"><path style="fill:#f5f5f5" d="M0 308.96899h512v57.39H0z"/><ellipse style="fill:#f5f5f5" cx="138.41" cy="255.99899" rx="41.3" ry="44.14"/></g><path style="fill:#3cc8ff" d="M117.05 150.65199h42.719v21.36H117.05z"/><path style="fill:#ffe15a" transform="translate(0 -88.257)" d="m125.153 251.44-.992 4.632 3.164-3.526-2.376 4.099 4.098-2.375-3.525 3.164 4.632-.994-4.33 1.921 4.712.487-4.712.487 4.33 1.92-4.632-.993 3.525 3.165-4.098-2.376 2.376 4.099-3.164-3.526.992 4.633-1.919-4.332-.488 4.712-.488-4.712-1.919 4.332.992-4.633-3.164 3.526 2.375-4.099-4.099 2.376 3.526-3.165-4.631.993 4.33-1.92-4.712-.487 4.712-.487-4.33-1.921 4.631.994-3.526-3.164 4.099 2.375-2.375-4.099 3.164 3.526-.992-4.632 1.919 4.331.488-4.713.488 4.713z"/><path style="fill:#41479b" transform="translate(0 -88.257)" d="M114.202 277.36v-18.512h49.838v18.512l-17.087 12.816h-17.087z"/><path style="fill:#73af00" d="M155.497 164.895h-.001c-.004-.39-.32-.704-.711-.704-.391 0-.705.315-.711.704h-.001c0 2.471-1.432 5.89-3.188 8.337-2.452-3.097-3.375-6.687-3.722-8.948-.166-1.078-1.331-1.676-2.308-1.189-.47.235-.787.694-.867 1.213-1.09 6.983-4.382 9.951-6.514 11.171-3.192-3.086-4.243-8.079-4.59-11.031-.135-1.148-1.363-1.807-2.397-1.29-.398.199-.693.558-.832.981-4.466 13.615-16.877 14.994-16.877 14.994v4.272h49.838v-7.12c-5.695-1.422-7.119-11.39-7.119-11.39z"/><path style="fill:#f0aa00" d="M162.617 240.336c-5.696-2.848-5.696-5.696-5.696-5.696s-7.12-2.848-12.816-2.848c0 0 1.424-2.848-1.424-2.848h-8.544c-2.848 0-1.424 2.848-1.424 2.848-5.696 0-12.816 2.848-12.816 2.848s0 2.848-5.696 5.696-5.696 9.256-5.696 9.256c0 1.18.957 2.135 2.135 2.135 1.18 0 2.135-.957 2.135-2.135 0-.244-.05-.473-.125-.691l.125-.021 14.239-9.967h22.784l14.239 9.967.125.021c-.075.217-.125.448-.125.691 0 1.18.957 2.135 2.135 2.135s2.135-.957 2.135-2.135c.005.001.005-6.408-5.69-9.256z" transform="translate(0 -88.257)"/><path style="fill:#f0aa00" d="M166.889 257.424c-1.424 0-5.696 0-5.696-4.272s5.696-4.272 5.696-4.272l-8.544-2.848c-2.848 9.967 2.848 9.967 2.848 22.783 0 11.48-12.816 18.511-17.088 18.511s-5.696 2.848-5.696 2.848-1.424-2.848-5.696-2.848-17.088-7.031-17.088-18.511c0-12.816 5.696-12.816 2.848-22.783l-8.544 2.848s5.696 0 5.696 4.272-4.272 4.272-5.696 4.272c-1.424 0-7.12 0-7.12 7.12s7.12 15.664 17.088 21.36 5.696 11.392 18.511 11.392 8.544-5.696 18.511-11.392c9.967-5.696 17.088-14.239 17.088-21.36.002-7.12-5.695-7.12-7.118-7.12z" transform="translate(0 -88.257)"/><path style="fill:#73af00" d="m135.562 235.136-3.444-1.548c-.572-.257-1.206-.317-1.816-.175-2.22.513-7.728 2.201-11.827 6.924l4.272 1.424zm5.695 0 3.444-1.548c.572-.257 1.206-.317 1.816-.175 2.22.513 7.728 2.201 11.827 6.924l-4.272 1.424z" transform="translate(0 -88.257)"/><path style="fill:#73af00" d="m138.913 236.064 2.597-2.597c.139-.139.139-.364 0-.503s-.364-.139-.503 0l-2.597 2.597-2.597-2.597c-.139-.139-.364-.139-.503 0s-.139.364 0 .503l2.597 2.597-2.597 2.597c-.139.139-.139.364 0 .503.07.07.161.105.252.105s.182-.035.252-.105l2.597-2.597 2.597 2.597c.07.07.161.105.252.105.092 0 .182-.035.252-.105.139-.139.139-.364 0-.503z" transform="translate(0 -88.257)"/><path style="fill:#f5f5f5" d="M166.889 160.623c0-2.422-2.289-3.47-4.272-3.924v-1.128c-2.681-.252-4.176-1.258-6.776-3.029-1.001-.683-2.137-1.456-3.507-2.289-5.007-3.041-8.855-3.481-11.077-3.375v2.353h-5.696v-2.353c-2.221-.106-6.07.333-11.077 3.375-1.371.833-2.506 1.606-3.507 2.289-2.599 1.77-4.094 2.778-6.776 3.029v1.128c-1.983.454-4.272 1.501-4.272 3.924l4.272-1.424v.649c4.041-.298 6.352-1.848 9.181-3.775.959-.653 2.045-1.394 3.32-2.167 3.252-1.977 5.779-2.588 7.435-2.732v2.331h8.544v-2.331c1.655.145 4.183.756 7.435 2.732 1.275.775 2.362 1.514 3.32 2.167 2.828 1.927 5.139 3.478 9.181 3.775v-.649z"/><path style="fill:#3cc8ff" d="M155.497 138.178v-1.762h-3.966c.693-.595 1.119-1.296 1.119-2.135 0-3.934-8.951-4.984-14.239-4.984s-14.239 1.049-14.239 4.984c0 .84.426 1.541 1.119 2.135h-3.966v1.762c-3.486.778-6.336 2.649-6.486 2.749l1.579 2.369c.039-.026 3.957-2.609 7.754-2.609v-1.424h28.479v1.424c3.797 0 7.715 2.582 7.754 2.609l1.579-2.369c-.151-.1-3.001-1.972-6.487-2.749zm-11.391-2.156v-1.081c0-.697-.656-1.208-1.331-1.04l-4.365 1.091-4.365-1.091c-.676-.169-1.331.342-1.331 1.04v1.081c-3.199-.47-5.091-1.253-5.606-1.741.77-.732 4.543-2.135 11.302-2.135 6.758 0 10.531 1.405 11.302 2.135-.516.488-2.408 1.271-5.606 1.741z"/><path style="fill:#f5f5f5" d="m138.588 242.298.361 1.081 1.14.009c.148.001.209.19.09.277l-.917.678.344 1.087c.044.141-.116.257-.236.171l-.928-.663-.928.663c-.12.086-.28-.031-.236-.171l.344-1.087-.917-.678c-.119-.087-.057-.276.09-.277l1.14-.009.361-1.081c.047-.14.244-.14.292 0zm-5.583.364.472 1.038 1.136-.11c.147-.014.227.167.119.266l-.841.77.456 1.045c.06.136-.088.268-.216.195l-.992-.562-.853.757c-.11.098-.283-.001-.253-.146l.228-1.118-.983-.577c-.127-.075-.086-.268.061-.285l1.133-.128.245-1.114c.029-.144.227-.164.288-.031zm-5.732 1.528.686.912 1.084-.354c.14-.046.258.114.173.234l-.654.934.672.921c.087.119-.028.28-.169.237l-1.09-.334-.669.924c-.086.119-.276.06-.278-.087l-.02-1.14-1.085-.351c-.14-.045-.142-.244-.002-.291l1.078-.371-.002-1.14c-.001-.149.187-.212.276-.094zm-5.745 2.422.8.812 1.027-.494c.134-.064.271.078.203.21l-.525 1.012.788.824c.102.107.01.281-.136.258l-1.126-.187-.541 1.004c-.07.13-.265.096-.287-.05l-.17-1.128-1.122-.204c-.146-.026-.173-.223-.041-.289l1.02-.51-.152-1.13c-.02-.146.158-.234.262-.128zm22.35-3.95-.472 1.038-1.136-.11c-.147-.014-.227.167-.119.266l.841.77-.456 1.045c-.06.136.088.268.216.195l.992-.562.853.757c.11.098.283-.001.253-.146l-.228-1.118.983-.577c.127-.075.086-.268-.061-.285l-1.133-.128-.245-1.114c-.03-.144-.227-.164-.288-.031zm5.732 1.528-.686.912-1.084-.354c-.14-.046-.258.114-.173.234l.654.934-.672.921c-.087.119.028.28.169.237l1.09-.334.669.924c.086.119.276.06.278-.087l.02-1.14 1.085-.351c.14-.045.142-.244.002-.291l-1.078-.371.002-1.14c.001-.149-.188-.212-.276-.094zm5.745 2.422-.8.812-1.027-.494c-.134-.064-.271.078-.203.21l.525 1.012-.788.824c-.102.107-.01.281.136.258l1.126-.187.541 1.004c.07.13.265.096.287-.05l.17-1.128 1.122-.204c.146-.026.173-.223.041-.289l-1.02-.51.152-1.13c.02-.146-.158-.234-.262-.128z" transform="translate(0 -88.257)"/><path style="fill:#8c5a28" transform="translate(0 -88.257)" d="m144.594 281.32 4.051-3.471-3.116 1.246h-10.324l-6.63-2.626 7.254 4.851z"/><path style="fill:#f5f5f5" d="m133.515 181.953-.7 7.061-3.186-1.216c-.001-.001 1.465-3.403 3.886-5.845z"/><path style="fill:#8c5a28" d="M139.8 267.41901h.471v12.02h-.471zm4.36 1.00998h.471v11.01h-.471zm-8.69999 0h.471v11.01h-.471z" transform="translate(0 -88.257)"/><path style="fill:#f5f5f5" d="M141.478 278.294h-2.877c-.299 0-.542-.243-.542-.542v-1.453c0-.299.243-.542.542-.542h2.877c.299 0 .542.243.542.542v1.453c0 .3-.243.542-.542.542zm0-3.382h-2.877c-.299 0-.542-.243-.542-.542v-1.453c0-.299.243-.542.542-.542h2.877c.299 0 .542.243.542.542v1.453c0 .299-.243.542-.542.542zm0-3.114h-2.877c-.299 0-.542-.243-.542-.542v-1.453c0-.299.243-.542.542-.542h2.877c.299 0 .542.243.542.542v1.453c0 .299-.243.542-.542.542zm4.09 6.496h-2.343c-.299 0-.542-.243-.542-.542v-1.453c0-.299.243-.542.542-.542h2.343c.299 0 .542.243.542.542v1.453c0 .3-.243.542-.542.542zm0-3.114h-2.343c-.299 0-.542-.243-.542-.542v-1.055c0-.299.243-.542.542-.542h2.343c.299 0 .542.243.542.542v1.055c0 .299-.243.542-.542.542zm0-3.086h-2.343c-.299 0-.542-.243-.542-.542v-.712c0-.299.243-.542.542-.542h2.343c.299 0 .542.243.542.542v.712c0 .3-.243.542-.542.542zm-8.701 6.2h-2.343c-.299 0-.542-.243-.542-.542v-1.453c0-.299.243-.542.542-.542h2.343c.299 0 .542.243.542.542v1.453c0 .3-.243.542-.542.542zm0-3.114h-2.343c-.299 0-.542-.243-.542-.542v-1.055c0-.299.243-.542.542-.542h2.343c.299 0 .542.243.542.542v1.055c0 .299-.243.542-.542.542zm0-3.086h-2.343c-.299 0-.542-.243-.542-.542v-.712c0-.299.243-.542.542-.542h2.343c.299 0 .542.243.542.542v.712c0 .3-.243.542-.542.542zm1.157-2.965-2.094-.697v1.421zm8.695 0-2.094-.697v1.421zm-4.356-1.022-2.093-.697v1.421z" transform="translate(0 -88.257)"/><path style="fill:#8c5a28" transform="translate(0 -88.257)" d="m140.274 259.486 1.407-1.206-1.083.433h-3.586l-2.303-.912 2.519 1.685z"/><path style="fill:#f5f5f5" d="m136.425 167.369-.243 2.453-1.107-.423c-.001.001.509-1.181 1.35-2.03z"/><path style="fill:#8c5a28" d="M138.61 254.649h.163v4.177h-.163zm1.51.34999h.163v3.824h-.163zm-3.01999 0h.163v3.824h-.163z" transform="translate(0 -88.257)"/><path style="fill:#f5f5f5" d="M139.19 258.435h-1c-.104 0-.189-.084-.189-.189v-.504c0-.104.084-.189.189-.189h1c.104 0 .189.084.189.189v.504c0 .105-.084.189-.189.189zm0-1.176h-1c-.104 0-.189-.084-.189-.189v-.504c0-.104.084-.189.189-.189h1c.104 0 .189.084.189.189v.504c0 .105-.084.189-.189.189zm0-1.081h-1c-.104 0-.189-.084-.189-.189v-.504c0-.104.084-.189.189-.189h1c.104 0 .189.084.189.189v.504c0 .104-.084.189-.189.189zm1.422 2.257h-.814c-.104 0-.189-.084-.189-.189v-.504c0-.104.084-.189.189-.189h.814c.104 0 .189.084.189.189v.504c-.002.105-.086.189-.189.189zm0-1.082h-.814c-.104 0-.189-.084-.189-.189v-.366c0-.104.084-.189.189-.189h.814c.104 0 .189.084.189.189v.366c-.002.104-.086.189-.189.189zm0-1.073h-.814c-.104 0-.189-.084-.189-.189v-.247c0-.104.084-.189.189-.189h.814c.104 0 .189.084.189.189v.247c-.002.106-.086.189-.189.189zm-3.023 2.155h-.814c-.104 0-.189-.084-.189-.189v-.504c0-.104.084-.189.189-.189h.814c.104 0 .189.084.189.189v.504c-.001.105-.085.189-.189.189zm0-1.082h-.814c-.104 0-.189-.084-.189-.189v-.366c0-.104.084-.189.189-.189h.814c.104 0 .189.084.189.189v.366c-.001.104-.085.189-.189.189zm0-1.073h-.814c-.104 0-.189-.084-.189-.189v-.247c0-.104.084-.189.189-.189h.814c.104 0 .189.084.189.189v.247c-.001.106-.085.189-.189.189zm.402-1.029-.728-.243v.494zm3.02 0-.727-.243v.494zm-1.513-.356-.727-.242v.494zm-6.573-4.59h-1.848c-.667 0-1.212-.545-1.212-1.212 0-.667.545-1.212 1.212-1.212h1.848c.667 0 1.212.545 1.212 1.212.001.666-.545 1.212-1.212 1.212zm14.056 0h-1.219c-.669 0-1.212-.543-1.212-1.212 0-.669.543-1.212 1.212-1.212h1.219c.669 0 1.212.543 1.212 1.212 0 .669-.543 1.212-1.212 1.212zm8.658 1.824h-1.074c-.383 0-.693-.31-.693-.693v-.115c0-.383.31-.693.693-.693h1.074c.383 0 .693.31.693.693v.115c0 .383-.31.693-.693.693z" transform="translate(0 -88.257)"/></svg>