<?xml version="1.0" encoding="UTF-8" standalone="no"?>
<svg
   xmlns:dc="http://purl.org/dc/elements/1.1/"
   xmlns:cc="http://creativecommons.org/ns#"
   xmlns:rdf="http://www.w3.org/1999/02/22-rdf-syntax-ns#"
   xmlns:svg="http://www.w3.org/2000/svg"
   xmlns="http://www.w3.org/2000/svg"
   xmlns:sodipodi="http://sodipodi.sourceforge.net/DTD/sodipodi-0.dtd"
   xmlns:inkscape="http://www.inkscape.org/namespaces/inkscape"
   version="1.1"
   id="Layer_1"
   x="0px"
   y="0px"
   viewBox="0 0 512 335.45001"
   xml:space="preserve"
   sodipodi:docname="costa-rica.svg"
   width="512"
   height="335.45001"
   inkscape:version="1.0.1 (c497b03c, 2020-09-10)"><metadata
   id="metadata1452"><rdf:RDF><cc:Work
       rdf:about=""><dc:format>image/svg+xml</dc:format><dc:type
         rdf:resource="http://purl.org/dc/dcmitype/StillImage" /><dc:title></dc:title></cc:Work></rdf:RDF></metadata><defs
   id="defs1450" /><sodipodi:namedview
   pagecolor="#ffffff"
   bordercolor="#666666"
   borderopacity="1"
   objecttolerance="10"
   gridtolerance="10"
   guidetolerance="10"
   inkscape:pageopacity="0"
   inkscape:pageshadow="2"
   inkscape:window-width="1797"
   inkscape:window-height="983"
   id="namedview1448"
   showgrid="false"
   inkscape:zoom="1.640625"
   inkscape:cx="256"
   inkscape:cy="256"
   inkscape:window-x="0"
   inkscape:window-y="23"
   inkscape:window-maximized="0"
   inkscape:current-layer="Layer_1" />
<rect
   y="114.772"
   style="fill:#ff4b55"
   width="512"
   height="105.94"
   id="rect1279"
   x="0" />
<path
   style="fill:#41479b"
   d="M 473.651,0 H 38.292 C 17.807,0 1.077,16.062 0,36.277 V 57.386 H 512 V 38.349 C 512,17.17 494.831,0 473.651,0 Z"
   id="path1281" />
<rect
   y="57.382008"
   style="fill:#f5f5f5"
   width="512"
   height="57.389999"
   id="rect1283"
   x="0" />
<path
   style="fill:#41479b"
   d="m 0,299.209 c 1.077,20.215 17.807,36.277 38.292,36.277 h 435.359 c 21.18,0 38.349,-17.169 38.349,-38.349 V 278.1 H 0 Z"
   id="path1285" />
<g
   id="g1291"
   transform="translate(0,-88.257)">
	<rect
   y="308.96899"
   style="fill:#f5f5f5"
   width="512"
   height="57.389999"
   id="rect1287"
   x="0" />
	<ellipse
   style="fill:#f5f5f5"
   cx="138.41"
   cy="255.99899"
   rx="41.299999"
   ry="44.139999"
   id="ellipse1289" />
</g>
<rect
   x="117.05"
   y="150.65199"
   style="fill:#3cc8ff"
   width="42.719002"
   height="21.360001"
   id="rect1293" />
<polygon
   style="fill:#ffe15a"
   points="125.153,251.44 124.161,256.072 127.325,252.546 124.949,256.645 129.047,254.27 125.522,257.434 130.154,256.44 125.824,258.361 130.536,258.848 125.824,259.335 130.154,261.255 125.522,260.262 129.047,263.427 124.949,261.051 127.325,265.15 124.161,261.624 125.153,266.257 123.234,261.925 122.746,266.637 122.258,261.925 120.339,266.257 121.331,261.624 118.167,265.15 120.542,261.051 116.443,263.427 119.969,260.262 115.338,261.255 119.668,259.335 114.956,258.848 119.668,258.361 115.338,256.44 119.969,257.434 116.443,254.27 120.542,256.645 118.167,252.546 121.331,256.072 120.339,251.44 122.258,255.771 122.746,251.058 123.234,255.771 "
   id="polygon1295"
   transform="translate(0,-88.257)" />
<polygon
   style="fill:#41479b"
   points="114.202,277.36 114.202,258.848 164.04,258.848 164.04,277.36 146.953,290.176 129.866,290.176 "
   id="polygon1297"
   transform="translate(0,-88.257)" />
<path
   style="fill:#73af00"
   d="m 155.497,164.895 h -0.001 c -0.004,-0.39 -0.32,-0.704 -0.711,-0.704 -0.391,0 -0.705,0.315 -0.711,0.704 h -0.001 c 0,2.471 -1.432,5.89 -3.188,8.337 -2.452,-3.097 -3.375,-6.687 -3.722,-8.948 -0.166,-1.078 -1.331,-1.676 -2.308,-1.189 -0.47,0.235 -0.787,0.694 -0.867,1.213 -1.09,6.983 -4.382,9.951 -6.514,11.171 -3.192,-3.086 -4.243,-8.079 -4.59,-11.031 -0.135,-1.148 -1.363,-1.807 -2.397,-1.29 -0.398,0.199 -0.693,0.558 -0.832,0.981 -4.466,13.615 -16.877,14.994 -16.877,14.994 v 4.272 h 49.838 v -1.424 -1.424 -1.424 -1.424 -1.424 c -5.695,-1.422 -7.119,-11.39 -7.119,-11.39 z"
   id="path1299" />
<g
   id="g1305"
   transform="translate(0,-88.257)">
	<path
   style="fill:#f0aa00"
   d="m 162.617,240.336 c -5.696,-2.848 -5.696,-5.696 -5.696,-5.696 0,0 -7.12,-2.848 -12.816,-2.848 0,0 1.424,-2.848 -1.424,-2.848 -2.848,0 -4.272,0 -4.272,0 0,0 -1.424,0 -4.272,0 -2.848,0 -1.424,2.848 -1.424,2.848 -5.696,0 -12.816,2.848 -12.816,2.848 0,0 0,2.848 -5.696,5.696 -5.696,2.848 -5.696,9.256 -5.696,9.256 0,1.18 0.957,2.135 2.135,2.135 1.18,0 2.135,-0.957 2.135,-2.135 0,-0.244 -0.05,-0.473 -0.125,-0.691 l 0.125,-0.021 14.239,-9.967 h 11.392 11.392 l 14.239,9.967 0.125,0.021 c -0.075,0.217 -0.125,0.448 -0.125,0.691 0,1.18 0.957,2.135 2.135,2.135 1.178,0 2.135,-0.957 2.135,-2.135 0.005,10e-4 0.005,-6.408 -5.69,-9.256 z"
   id="path1301" />
	<path
   style="fill:#f0aa00"
   d="m 166.889,257.424 c -1.424,0 -5.696,0 -5.696,-4.272 0,-4.272 5.696,-4.272 5.696,-4.272 l -8.544,-2.848 c -2.848,9.967 2.848,9.967 2.848,22.783 0,11.48 -12.816,18.511 -17.088,18.511 -4.272,0 -5.696,2.848 -5.696,2.848 0,0 -1.424,-2.848 -5.696,-2.848 -4.272,0 -17.088,-7.031 -17.088,-18.511 0,-12.816 5.696,-12.816 2.848,-22.783 l -8.544,2.848 c 0,0 5.696,0 5.696,4.272 0,4.272 -4.272,4.272 -5.696,4.272 -1.424,0 -7.12,0 -7.12,7.12 0,7.12 7.12,15.664 17.088,21.36 9.968,5.696 5.696,11.392 18.511,11.392 12.815,0 8.544,-5.696 18.511,-11.392 9.967,-5.696 17.088,-14.239 17.088,-21.36 0.002,-7.12 -5.695,-7.12 -7.118,-7.12 z"
   id="path1303" />
</g>
<g
   id="g1313"
   transform="translate(0,-88.257)">
	<path
   style="fill:#73af00"
   d="m 135.562,235.136 -3.444,-1.548 c -0.572,-0.257 -1.206,-0.317 -1.816,-0.175 -2.22,0.513 -7.728,2.201 -11.827,6.924 l 4.272,1.424 z"
   id="path1307" />
	<path
   style="fill:#73af00"
   d="m 141.257,235.136 3.444,-1.548 c 0.572,-0.257 1.206,-0.317 1.816,-0.175 2.22,0.513 7.728,2.201 11.827,6.924 l -4.272,1.424 z"
   id="path1309" />
	<path
   style="fill:#73af00"
   d="m 138.913,236.064 2.597,-2.597 c 0.139,-0.139 0.139,-0.364 0,-0.503 -0.139,-0.139 -0.364,-0.139 -0.503,0 l -2.597,2.597 -2.597,-2.597 c -0.139,-0.139 -0.364,-0.139 -0.503,0 -0.139,0.139 -0.139,0.364 0,0.503 l 2.597,2.597 -2.597,2.597 c -0.139,0.139 -0.139,0.364 0,0.503 0.07,0.07 0.161,0.105 0.252,0.105 0.091,0 0.182,-0.035 0.252,-0.105 l 2.597,-2.597 2.597,2.597 c 0.07,0.07 0.161,0.105 0.252,0.105 0.092,0 0.182,-0.035 0.252,-0.105 0.139,-0.139 0.139,-0.364 0,-0.503 z"
   id="path1311" />
</g>
<path
   style="fill:#f5f5f5"
   d="m 166.889,160.623 c 0,-2.422 -2.289,-3.47 -4.272,-3.924 v -1.128 c -2.681,-0.252 -4.176,-1.258 -6.776,-3.029 -1.001,-0.683 -2.137,-1.456 -3.507,-2.289 -5.007,-3.041 -8.855,-3.481 -11.077,-3.375 v 2.353 h -5.696 v -2.353 c -2.221,-0.106 -6.07,0.333 -11.077,3.375 -1.371,0.833 -2.506,1.606 -3.507,2.289 -2.599,1.77 -4.094,2.778 -6.776,3.029 v 1.128 c -1.983,0.454 -4.272,1.501 -4.272,3.924 l 4.272,-1.424 v 0.649 c 4.041,-0.298 6.352,-1.848 9.181,-3.775 0.959,-0.653 2.045,-1.394 3.32,-2.167 3.252,-1.977 5.779,-2.588 7.435,-2.732 v 2.331 h 8.544 v -2.331 c 1.655,0.145 4.183,0.756 7.435,2.732 1.275,0.775 2.362,1.514 3.32,2.167 2.828,1.927 5.139,3.478 9.181,3.775 v -0.649 z"
   id="path1315" />
<path
   style="fill:#3cc8ff"
   d="m 155.497,138.178 v -1.762 h -3.966 c 0.693,-0.595 1.119,-1.296 1.119,-2.135 0,-3.934 -8.951,-4.984 -14.239,-4.984 -5.288,0 -14.239,1.049 -14.239,4.984 0,0.84 0.426,1.541 1.119,2.135 h -3.966 v 1.762 c -3.486,0.778 -6.336,2.649 -6.486,2.749 l 1.579,2.369 c 0.039,-0.026 3.957,-2.609 7.754,-2.609 v -1.424 h 28.479 v 1.424 c 3.797,0 7.715,2.582 7.754,2.609 l 1.579,-2.369 c -0.151,-0.1 -3.001,-1.972 -6.487,-2.749 z m -11.391,-2.156 v -1.081 c 0,-0.697 -0.656,-1.208 -1.331,-1.04 l -4.365,1.091 -4.365,-1.091 c -0.676,-0.169 -1.331,0.342 -1.331,1.04 v 1.081 c -3.199,-0.47 -5.091,-1.253 -5.606,-1.741 0.77,-0.732 4.543,-2.135 11.302,-2.135 6.758,0 10.531,1.405 11.302,2.135 -0.516,0.488 -2.408,1.271 -5.606,1.741 z"
   id="path1317" />
<g
   id="g1333"
   transform="translate(0,-88.257)">
	<path
   style="fill:#f5f5f5"
   d="m 138.588,242.298 0.361,1.081 1.14,0.009 c 0.148,0.001 0.209,0.19 0.09,0.277 l -0.917,0.678 0.344,1.087 c 0.044,0.141 -0.116,0.257 -0.236,0.171 l -0.928,-0.663 -0.928,0.663 c -0.12,0.086 -0.28,-0.031 -0.236,-0.171 l 0.344,-1.087 -0.917,-0.678 c -0.119,-0.087 -0.057,-0.276 0.09,-0.277 l 1.14,-0.009 0.361,-1.081 c 0.047,-0.14 0.244,-0.14 0.292,0 z"
   id="path1319" />
	<path
   style="fill:#f5f5f5"
   d="m 133.005,242.662 0.472,1.038 1.136,-0.11 c 0.147,-0.014 0.227,0.167 0.119,0.266 l -0.841,0.77 0.456,1.045 c 0.06,0.136 -0.088,0.268 -0.216,0.195 l -0.992,-0.562 -0.853,0.757 c -0.11,0.098 -0.283,-0.001 -0.253,-0.146 l 0.228,-1.118 -0.983,-0.577 c -0.127,-0.075 -0.086,-0.268 0.061,-0.285 l 1.133,-0.128 0.245,-1.114 c 0.029,-0.144 0.227,-0.164 0.288,-0.031 z"
   id="path1321" />
	<path
   style="fill:#f5f5f5"
   d="m 127.273,244.19 0.686,0.912 1.084,-0.354 c 0.14,-0.046 0.258,0.114 0.173,0.234 l -0.654,0.934 0.672,0.921 c 0.087,0.119 -0.028,0.28 -0.169,0.237 l -1.09,-0.334 -0.669,0.924 c -0.086,0.119 -0.276,0.06 -0.278,-0.087 l -0.02,-1.14 -1.085,-0.351 c -0.14,-0.045 -0.142,-0.244 -0.002,-0.291 l 1.078,-0.371 -0.002,-1.14 c -0.001,-0.149 0.187,-0.212 0.276,-0.094 z"
   id="path1323" />
	<path
   style="fill:#f5f5f5"
   d="m 121.528,246.612 0.8,0.812 1.027,-0.494 c 0.134,-0.064 0.271,0.078 0.203,0.21 l -0.525,1.012 0.788,0.824 c 0.102,0.107 0.01,0.281 -0.136,0.258 l -1.126,-0.187 -0.541,1.004 c -0.07,0.13 -0.265,0.096 -0.287,-0.05 l -0.17,-1.128 -1.122,-0.204 c -0.146,-0.026 -0.173,-0.223 -0.041,-0.289 l 1.02,-0.51 -0.152,-1.13 c -0.02,-0.146 0.158,-0.234 0.262,-0.128 z"
   id="path1325" />
	<path
   style="fill:#f5f5f5"
   d="m 143.878,242.662 -0.472,1.038 -1.136,-0.11 c -0.147,-0.014 -0.227,0.167 -0.119,0.266 l 0.841,0.77 -0.456,1.045 c -0.06,0.136 0.088,0.268 0.216,0.195 l 0.992,-0.562 0.853,0.757 c 0.11,0.098 0.283,-0.001 0.253,-0.146 l -0.228,-1.118 0.983,-0.577 c 0.127,-0.075 0.086,-0.268 -0.061,-0.285 l -1.133,-0.128 -0.245,-1.114 c -0.03,-0.144 -0.227,-0.164 -0.288,-0.031 z"
   id="path1327" />
	<path
   style="fill:#f5f5f5"
   d="m 149.61,244.19 -0.686,0.912 -1.084,-0.354 c -0.14,-0.046 -0.258,0.114 -0.173,0.234 l 0.654,0.934 -0.672,0.921 c -0.087,0.119 0.028,0.28 0.169,0.237 l 1.09,-0.334 0.669,0.924 c 0.086,0.119 0.276,0.06 0.278,-0.087 l 0.02,-1.14 1.085,-0.351 c 0.14,-0.045 0.142,-0.244 0.002,-0.291 l -1.078,-0.371 0.002,-1.14 c 0.001,-0.149 -0.188,-0.212 -0.276,-0.094 z"
   id="path1329" />
	<path
   style="fill:#f5f5f5"
   d="m 155.355,246.612 -0.8,0.812 -1.027,-0.494 c -0.134,-0.064 -0.271,0.078 -0.203,0.21 l 0.525,1.012 -0.788,0.824 c -0.102,0.107 -0.01,0.281 0.136,0.258 l 1.126,-0.187 0.541,1.004 c 0.07,0.13 0.265,0.096 0.287,-0.05 l 0.17,-1.128 1.122,-0.204 c 0.146,-0.026 0.173,-0.223 0.041,-0.289 l -1.02,-0.51 0.152,-1.13 c 0.02,-0.146 -0.158,-0.234 -0.262,-0.128 z"
   id="path1331" />
</g>
<polygon
   style="fill:#8c5a28"
   points="144.594,281.32 148.645,277.849 145.529,279.095 135.205,279.095 128.575,276.469 135.829,281.32 "
   id="polygon1335"
   transform="translate(0,-88.257)" />
<path
   style="fill:#f5f5f5"
   d="m 133.515,181.953 -0.7,7.061 -3.186,-1.216 c -0.001,-0.001 1.465,-3.403 3.886,-5.845 z"
   id="path1337" />
<g
   id="g1345"
   transform="translate(0,-88.257)">
	<rect
   x="139.8"
   y="267.41901"
   style="fill:#8c5a28"
   width="0.47099999"
   height="12.02"
   id="rect1339" />
	<rect
   x="144.16"
   y="268.42899"
   style="fill:#8c5a28"
   width="0.47099999"
   height="11.01"
   id="rect1341" />
	<rect
   x="135.46001"
   y="268.42899"
   style="fill:#8c5a28"
   width="0.47099999"
   height="11.01"
   id="rect1343" />
</g>
<g
   id="g1371"
   transform="translate(0,-88.257)">
	<path
   style="fill:#f5f5f5"
   d="m 141.478,278.294 h -2.877 c -0.299,0 -0.542,-0.243 -0.542,-0.542 v -1.453 c 0,-0.299 0.243,-0.542 0.542,-0.542 h 2.877 c 0.299,0 0.542,0.243 0.542,0.542 v 1.453 c 0,0.3 -0.243,0.542 -0.542,0.542 z"
   id="path1347" />
	<path
   style="fill:#f5f5f5"
   d="m 141.478,274.912 h -2.877 c -0.299,0 -0.542,-0.243 -0.542,-0.542 v -1.453 c 0,-0.299 0.243,-0.542 0.542,-0.542 h 2.877 c 0.299,0 0.542,0.243 0.542,0.542 v 1.453 c 0,0.299 -0.243,0.542 -0.542,0.542 z"
   id="path1349" />
	<path
   style="fill:#f5f5f5"
   d="m 141.478,271.798 h -2.877 c -0.299,0 -0.542,-0.243 -0.542,-0.542 v -1.453 c 0,-0.299 0.243,-0.542 0.542,-0.542 h 2.877 c 0.299,0 0.542,0.243 0.542,0.542 v 1.453 c 0,0.299 -0.243,0.542 -0.542,0.542 z"
   id="path1351" />
	<path
   style="fill:#f5f5f5"
   d="m 145.568,278.294 h -2.343 c -0.299,0 -0.542,-0.243 -0.542,-0.542 v -1.453 c 0,-0.299 0.243,-0.542 0.542,-0.542 h 2.343 c 0.299,0 0.542,0.243 0.542,0.542 v 1.453 c 0,0.3 -0.243,0.542 -0.542,0.542 z"
   id="path1353" />
	<path
   style="fill:#f5f5f5"
   d="m 145.568,275.18 h -2.343 c -0.299,0 -0.542,-0.243 -0.542,-0.542 v -1.055 c 0,-0.299 0.243,-0.542 0.542,-0.542 h 2.343 c 0.299,0 0.542,0.243 0.542,0.542 v 1.055 c 0,0.299 -0.243,0.542 -0.542,0.542 z"
   id="path1355" />
	<path
   style="fill:#f5f5f5"
   d="m 145.568,272.094 h -2.343 c -0.299,0 -0.542,-0.243 -0.542,-0.542 v -0.712 c 0,-0.299 0.243,-0.542 0.542,-0.542 h 2.343 c 0.299,0 0.542,0.243 0.542,0.542 v 0.712 c 0,0.3 -0.243,0.542 -0.542,0.542 z"
   id="path1357" />
	<path
   style="fill:#f5f5f5"
   d="m 136.867,278.294 h -2.343 c -0.299,0 -0.542,-0.243 -0.542,-0.542 v -1.453 c 0,-0.299 0.243,-0.542 0.542,-0.542 h 2.343 c 0.299,0 0.542,0.243 0.542,0.542 v 1.453 c 0,0.3 -0.243,0.542 -0.542,0.542 z"
   id="path1359" />
	<path
   style="fill:#f5f5f5"
   d="m 136.867,275.18 h -2.343 c -0.299,0 -0.542,-0.243 -0.542,-0.542 v -1.055 c 0,-0.299 0.243,-0.542 0.542,-0.542 h 2.343 c 0.299,0 0.542,0.243 0.542,0.542 v 1.055 c 0,0.299 -0.243,0.542 -0.542,0.542 z"
   id="path1361" />
	<path
   style="fill:#f5f5f5"
   d="m 136.867,272.094 h -2.343 c -0.299,0 -0.542,-0.243 -0.542,-0.542 v -0.712 c 0,-0.299 0.243,-0.542 0.542,-0.542 h 2.343 c 0.299,0 0.542,0.243 0.542,0.542 v 0.712 c 0,0.3 -0.243,0.542 -0.542,0.542 z"
   id="path1363" />
	<polygon
   style="fill:#f5f5f5"
   points="138.024,269.129 135.93,268.432 135.93,269.853 "
   id="polygon1365" />
	<polygon
   style="fill:#f5f5f5"
   points="146.719,269.129 144.625,268.432 144.625,269.853 "
   id="polygon1367" />
	<polygon
   style="fill:#f5f5f5"
   points="142.363,268.107 140.27,267.41 140.27,268.831 "
   id="polygon1369" />
</g>
<polygon
   style="fill:#8c5a28"
   points="140.274,259.486 141.681,258.28 140.598,258.713 137.012,258.713 134.709,257.801 137.228,259.486 "
   id="polygon1373"
   transform="translate(0,-88.257)" />
<path
   style="fill:#f5f5f5"
   d="m 136.425,167.369 -0.243,2.453 -1.107,-0.423 c -10e-4,0.001 0.509,-1.181 1.35,-2.03 z"
   id="path1375" />
<g
   id="g1383"
   transform="translate(0,-88.257)">
	<rect
   x="138.61"
   y="254.649"
   style="fill:#8c5a28"
   width="0.163"
   height="4.177"
   id="rect1377" />
	<rect
   x="140.12"
   y="254.99899"
   style="fill:#8c5a28"
   width="0.163"
   height="3.8239999"
   id="rect1379" />
	<rect
   x="137.10001"
   y="254.99899"
   style="fill:#8c5a28"
   width="0.163"
   height="3.8239999"
   id="rect1381" />
</g>
<g
   id="g1415"
   transform="translate(0,-88.257)">
	<path
   style="fill:#f5f5f5"
   d="m 139.19,258.435 h -1 c -0.104,0 -0.189,-0.084 -0.189,-0.189 v -0.504 c 0,-0.104 0.084,-0.189 0.189,-0.189 h 1 c 0.104,0 0.189,0.084 0.189,0.189 v 0.504 c 0,0.105 -0.084,0.189 -0.189,0.189 z"
   id="path1385" />
	<path
   style="fill:#f5f5f5"
   d="m 139.19,257.259 h -1 c -0.104,0 -0.189,-0.084 -0.189,-0.189 v -0.504 c 0,-0.104 0.084,-0.189 0.189,-0.189 h 1 c 0.104,0 0.189,0.084 0.189,0.189 v 0.504 c 0,0.105 -0.084,0.189 -0.189,0.189 z"
   id="path1387" />
	<path
   style="fill:#f5f5f5"
   d="m 139.19,256.178 h -1 c -0.104,0 -0.189,-0.084 -0.189,-0.189 v -0.504 c 0,-0.104 0.084,-0.189 0.189,-0.189 h 1 c 0.104,0 0.189,0.084 0.189,0.189 v 0.504 c 0,0.104 -0.084,0.189 -0.189,0.189 z"
   id="path1389" />
	<path
   style="fill:#f5f5f5"
   d="m 140.612,258.435 h -0.814 c -0.104,0 -0.189,-0.084 -0.189,-0.189 v -0.504 c 0,-0.104 0.084,-0.189 0.189,-0.189 h 0.814 c 0.104,0 0.189,0.084 0.189,0.189 v 0.504 c -0.002,0.105 -0.086,0.189 -0.189,0.189 z"
   id="path1391" />
	<path
   style="fill:#f5f5f5"
   d="m 140.612,257.353 h -0.814 c -0.104,0 -0.189,-0.084 -0.189,-0.189 v -0.366 c 0,-0.104 0.084,-0.189 0.189,-0.189 h 0.814 c 0.104,0 0.189,0.084 0.189,0.189 v 0.366 c -0.002,0.104 -0.086,0.189 -0.189,0.189 z"
   id="path1393" />
	<path
   style="fill:#f5f5f5"
   d="m 140.612,256.28 h -0.814 c -0.104,0 -0.189,-0.084 -0.189,-0.189 v -0.247 c 0,-0.104 0.084,-0.189 0.189,-0.189 h 0.814 c 0.104,0 0.189,0.084 0.189,0.189 v 0.247 c -0.002,0.106 -0.086,0.189 -0.189,0.189 z"
   id="path1395" />
	<path
   style="fill:#f5f5f5"
   d="m 137.589,258.435 h -0.814 c -0.104,0 -0.189,-0.084 -0.189,-0.189 v -0.504 c 0,-0.104 0.084,-0.189 0.189,-0.189 h 0.814 c 0.104,0 0.189,0.084 0.189,0.189 v 0.504 c -0.001,0.105 -0.085,0.189 -0.189,0.189 z"
   id="path1397" />
	<path
   style="fill:#f5f5f5"
   d="m 137.589,257.353 h -0.814 c -0.104,0 -0.189,-0.084 -0.189,-0.189 v -0.366 c 0,-0.104 0.084,-0.189 0.189,-0.189 h 0.814 c 0.104,0 0.189,0.084 0.189,0.189 v 0.366 c -0.001,0.104 -0.085,0.189 -0.189,0.189 z"
   id="path1399" />
	<path
   style="fill:#f5f5f5"
   d="m 137.589,256.28 h -0.814 c -0.104,0 -0.189,-0.084 -0.189,-0.189 v -0.247 c 0,-0.104 0.084,-0.189 0.189,-0.189 h 0.814 c 0.104,0 0.189,0.084 0.189,0.189 v 0.247 c -0.001,0.106 -0.085,0.189 -0.189,0.189 z"
   id="path1401" />
	<polygon
   style="fill:#f5f5f5"
   points="137.991,255.251 137.263,255.008 137.263,255.502 "
   id="polygon1403" />
	<polygon
   style="fill:#f5f5f5"
   points="141.011,255.251 140.284,255.008 140.284,255.502 "
   id="polygon1405" />
	<polygon
   style="fill:#f5f5f5"
   points="139.498,254.895 138.771,254.653 138.771,255.147 "
   id="polygon1407" />
	<path
   style="fill:#f5f5f5"
   d="m 132.925,250.305 h -1.848 c -0.667,0 -1.212,-0.545 -1.212,-1.212 v 0 c 0,-0.667 0.545,-1.212 1.212,-1.212 h 1.848 c 0.667,0 1.212,0.545 1.212,1.212 v 0 c 0.001,0.666 -0.545,1.212 -1.212,1.212 z"
   id="path1409" />
	<path
   style="fill:#f5f5f5"
   d="m 146.981,250.305 h -1.219 c -0.669,0 -1.212,-0.543 -1.212,-1.212 v 0 c 0,-0.669 0.543,-1.212 1.212,-1.212 h 1.219 c 0.669,0 1.212,0.543 1.212,1.212 v 0 c 0,0.669 -0.543,1.212 -1.212,1.212 z"
   id="path1411" />
	<path
   style="fill:#f5f5f5"
   d="m 155.639,252.129 h -1.074 c -0.383,0 -0.693,-0.31 -0.693,-0.693 v -0.115 c 0,-0.383 0.31,-0.693 0.693,-0.693 h 1.074 c 0.383,0 0.693,0.31 0.693,0.693 v 0.115 c 0,0.383 -0.31,0.693 -0.693,0.693 z"
   id="path1413" />
</g>
<g
   id="g1417">
</g>
<g
   id="g1419">
</g>
<g
   id="g1421">
</g>
<g
   id="g1423">
</g>
<g
   id="g1425">
</g>
<g
   id="g1427">
</g>
<g
   id="g1429">
</g>
<g
   id="g1431">
</g>
<g
   id="g1433">
</g>
<g
   id="g1435">
</g>
<g
   id="g1437">
</g>
<g
   id="g1439">
</g>
<g
   id="g1441">
</g>
<g
   id="g1443">
</g>
<g
   id="g1445">
</g>
</svg>
