<svg xmlns="http://www.w3.org/2000/svg" xml:space="preserve" width="512" height="335.45001"><path style="fill:#f5f5f5" d="M13.696 8.973C5.325 16.007 0 26.549 0 38.338v258.759c0 11.794 5.329 22.338 13.704 29.373L256 167.724z"/><path style="fill:#73af00" d="M13.704 326.47c6.665 5.597 15.257 8.972 24.641 8.972h435.31c21.177 0 38.345-17.167 38.345-38.345V167.724H256z"/><path style="fill:#82afff" d="M473.885 0H38.115c-9.298.055-17.809 3.418-24.419 8.973L256 167.724h256V38.338C512 17.238 494.955.124 473.885 0z"/><path style="fill:#ff4b55" d="m91.766 127.858-8.94 26.806-28.257.22c-1.549.012-2.191 1.99-.946 2.91l22.732 16.787-8.523 26.942c-.467 1.478 1.215 2.699 2.475 1.798l22.989-16.431 22.989 16.431c1.26.9 2.942-.321 2.475-1.798l-8.523-26.942 22.732-16.787c1.246-.92.604-2.898-.946-2.91l-28.257-.22-8.94-26.806c-.491-1.47-2.57-1.47-3.06 0z"/></svg>