<?xml version="1.0" encoding="UTF-8" standalone="no"?>
<svg
   xmlns:dc="http://purl.org/dc/elements/1.1/"
   xmlns:cc="http://creativecommons.org/ns#"
   xmlns:rdf="http://www.w3.org/1999/02/22-rdf-syntax-ns#"
   xmlns:svg="http://www.w3.org/2000/svg"
   xmlns="http://www.w3.org/2000/svg"
   xmlns:sodipodi="http://sodipodi.sourceforge.net/DTD/sodipodi-0.dtd"
   xmlns:inkscape="http://www.inkscape.org/namespaces/inkscape"
   version="1.1"
   id="Layer_1"
   x="0px"
   y="0px"
   viewBox="0 0 512 335.45001"
   xml:space="preserve"
   sodipodi:docname="dm.svg"
   width="512"
   height="335.45001"
   inkscape:version="1.0.1 (c497b03c, 2020-09-10)"><metadata
   id="metadata107"><rdf:RDF><cc:Work
       rdf:about=""><dc:format>image/svg+xml</dc:format><dc:type
         rdf:resource="http://purl.org/dc/dcmitype/StillImage" /><dc:title></dc:title></cc:Work></rdf:RDF></metadata><defs
   id="defs105" /><sodipodi:namedview
   pagecolor="#ffffff"
   bordercolor="#666666"
   borderopacity="1"
   objecttolerance="10"
   gridtolerance="10"
   guidetolerance="10"
   inkscape:pageopacity="0"
   inkscape:pageshadow="2"
   inkscape:window-width="2560"
   inkscape:window-height="984"
   id="namedview103"
   showgrid="false"
   inkscape:zoom="1.640625"
   inkscape:cx="256"
   inkscape:cy="256"
   inkscape:window-x="0"
   inkscape:window-y="23"
   inkscape:window-maximized="1"
   inkscape:current-layer="Layer_1" />
<path
   style="fill:#73af00"
   d="M 473.654,335.448 H 38.345 C 17.167,335.448 0,318.281 0,297.103 V 38.345 C 0,17.169 17.167,0 38.345,0 h 435.309 c 21.177,0 38.345,17.169 38.345,38.345 v 258.758 c 0,21.178 -17.168,38.345 -38.345,38.345 z"
   id="path10" />
<rect
   y="132.416"
   style="fill:#ffe15a"
   width="512"
   height="23.540001"
   id="rect12"
   x="0" />
<rect
   y="155.955"
   style="fill:#464655"
   width="512"
   height="23.540001"
   id="rect14"
   x="0" />
<rect
   y="179.495"
   style="fill:#f5f5f5"
   width="512"
   height="23.540001"
   id="rect16"
   x="0" />
<rect
   x="220.69"
   y="0.0050004274"
   style="fill:#ffe15a"
   width="23.540001"
   height="335.45001"
   id="rect18" />
<rect
   x="244.23"
   y="0.0050004274"
   style="fill:#464655"
   width="23.540001"
   height="335.45001"
   id="rect20" />
<rect
   x="267.76999"
   y="0.0050004274"
   style="fill:#f5f5f5"
   width="23.540001"
   height="335.45001"
   id="rect22" />
<circle
   style="fill:#ff4b55"
   cx="256"
   cy="167.72499"
   r="88.279999"
   id="circle24" />
<path
   style="fill:#73af00"
   d="m 248.421,182.909 c 0,0 -1.031,7.217 5.98,17.938 h 13.608 l -3.093,-12.989 z"
   id="path26" />
<path
   style="fill:#a561cd"
   d="m 247.459,134.596 c 0,0 -22.266,36.425 10.446,58.142 l 3.436,-20.618 2.199,-26.666 -3.436,-11.409 z"
   id="path28" />
<path
   style="fill:#73af00"
   d="m 247.459,134.595 c 0,0 -2.545,4.237 -4.653,10.612 2.866,2.996 10.701,6.708 20.335,5.08 l 0.399,-4.834 -3.437,-11.409 z"
   id="path30" />
<path
   style="fill:#a561cd"
   d="m 243.197,129.373 c 0,0 0.274,-7.285 7.423,-7.285 8.935,0 16.22,2.061 27.765,25.978 0,0 -10.269,10.08 -16.769,-3.849 -1.924,-4.124 -2.612,-9.071 -2.612,-9.071 0,0 -7.972,2.749 -13.47,-0.413 z"
   id="path32" />
<path
   style="fill:#ffe15a"
   d="m 246.771,132.809 -1.65,-4.398 c 0,0 -9.209,-1.512 -5.361,9.622 0,0 0.275,-2.199 2.612,-1.924 2.338,0.275 4.811,-1.513 4.399,-3.3 z"
   id="path34" />
<g
   id="g40"
   transform="translate(0,-88.272)">
	<path
   style="fill:#73af00"
   d="m 262.165,262.866 c 0,0 -9.689,7.593 -4.26,25.428 2.887,9.484 14.432,19.896 14.432,19.896 0,0 8.556,-22.37 5.773,-31.029 -1.638,-5.097 -15.945,-14.295 -15.945,-14.295 z"
   id="path36" />
	<path
   style="fill:#73af00"
   d="m 280.584,291.594 c 0,0 -25.016,-23.848 -26.666,-42.61 -1.65,-18.762 9.169,-15.784 11.134,-14.57 4.673,2.886 16.494,14.982 15.532,57.18 z"
   id="path38" />
</g>
<path
   style="fill:#b34900"
   d="m 277.48,208.785 h -41.418 c -0.861,0 -1.558,-0.697 -1.558,-1.558 v -3.07 c 0,-0.861 0.697,-1.558 1.558,-1.558 h 41.418 c 0.861,0 1.558,0.697 1.558,1.558 v 3.07 c -0.001,0.86 -0.698,1.558 -1.558,1.558 z"
   id="path42" />
<path
   style="fill:#ffe15a"
   d="m 267.389,202.909 c -1.442,0.599 -4.33,1.341 -3.608,3.917 0.553,1.974 4.33,1.752 3.608,4.021 -0.488,1.533 -8.159,1.674 -11.134,1.237 -1.822,-0.268 -5.773,-1.341 -5.223,-5.876 0.551,-4.535 2.199,-5.234 4.262,-6.048 2.045,-0.808 10.99,-0.629 12.302,0.481 0.669,0.566 0.885,1.814 -0.207,2.268 z"
   id="path44" />
<g
   id="g70"
   transform="translate(0,-88.272)">
	<path
   style="fill:#73af00"
   d="m 256.812,177.133 2.009,6.025 6.35,0.05 c 0.822,0.007 1.163,1.056 0.502,1.544 l -5.109,3.773 1.916,6.055 c 0.248,0.783 -0.644,1.432 -1.313,0.954 l -5.167,-3.692 -5.166,3.693 c -0.669,0.478 -1.561,-0.17 -1.313,-0.954 l 1.916,-6.055 -5.109,-3.773 c -0.661,-0.489 -0.32,-1.538 0.502,-1.544 l 6.35,-0.05 2.009,-6.025 c 0.259,-0.78 1.362,-0.78 1.623,-10e-4 z"
   id="path46" />
	<path
   style="fill:#73af00"
   d="m 256.812,317.987 2.009,6.025 6.35,0.05 c 0.822,0.007 1.163,1.056 0.502,1.544 l -5.109,3.773 1.916,6.055 c 0.248,0.783 -0.644,1.432 -1.313,0.954 l -5.167,-3.693 -5.166,3.693 c -0.669,0.478 -1.561,-0.17 -1.313,-0.954 l 1.916,-6.055 -5.109,-3.773 c -0.661,-0.489 -0.32,-1.538 0.502,-1.544 l 6.35,-0.05 2.009,-6.025 c 0.259,-0.78 1.362,-0.78 1.623,0 z"
   id="path48" />
	<path
   style="fill:#73af00"
   d="m 256.812,177.133 2.009,6.025 6.35,0.05 c 0.822,0.007 1.163,1.056 0.502,1.544 l -5.109,3.773 1.916,6.055 c 0.248,0.783 -0.644,1.432 -1.313,0.954 l -5.167,-3.692 -5.166,3.693 c -0.669,0.478 -1.561,-0.17 -1.313,-0.954 l 1.916,-6.055 -5.109,-3.773 c -0.661,-0.489 -0.32,-1.538 0.502,-1.544 l 6.35,-0.05 2.009,-6.025 c 0.259,-0.78 1.362,-0.78 1.623,-10e-4 z"
   id="path50" />
	<path
   style="fill:#73af00"
   d="m 256.812,317.987 2.009,6.025 6.35,0.05 c 0.822,0.007 1.163,1.056 0.502,1.544 l -5.109,3.773 1.916,6.055 c 0.248,0.783 -0.644,1.432 -1.313,0.954 l -5.167,-3.693 -5.166,3.693 c -0.669,0.478 -1.561,-0.17 -1.313,-0.954 l 1.916,-6.055 -5.109,-3.773 c -0.661,-0.489 -0.32,-1.538 0.502,-1.544 l 6.35,-0.05 2.009,-6.025 c 0.259,-0.78 1.362,-0.78 1.623,0 z"
   id="path52" />
	<path
   style="fill:#73af00"
   d="m 207.734,191.589 1.76,6.102 -5.204,3.64 c -0.674,0.471 -0.36,1.529 0.462,1.556 l 6.347,0.212 1.855,6.074 c 0.241,0.787 1.343,0.814 1.623,0.042 l 2.163,-5.971 6.35,0.114 c 0.822,0.014 1.19,-1.025 0.541,-1.53 l -5.011,-3.902 2.069,-6.006 c 0.268,-0.777 -0.608,-1.449 -1.289,-0.988 l -5.259,3.56 -5.07,-3.823 c -0.657,-0.496 -1.566,0.129 -1.337,0.92 z"
   id="path54" />
	<path
   style="fill:#73af00"
   d="m 287.582,307.62 1.76,6.102 -5.204,3.64 c -0.674,0.471 -0.36,1.529 0.462,1.556 l 6.347,0.212 1.855,6.074 c 0.241,0.787 1.343,0.814 1.623,0.042 l 2.163,-5.971 6.35,0.114 c 0.822,0.014 1.19,-1.025 0.541,-1.53 l -5.011,-3.902 2.07,-6.004 c 0.268,-0.777 -0.608,-1.449 -1.289,-0.988 l -5.259,3.56 -5.07,-3.823 c -0.656,-0.498 -1.565,0.129 -1.338,0.918 z"
   id="path56" />
	<path
   style="fill:#73af00"
   d="m 177.885,232.024 5.07,3.823 -1.976,6.036 c -0.256,0.781 0.63,1.439 1.304,0.968 l 5.204,-3.641 5.13,3.744 c 0.664,0.484 1.564,-0.154 1.323,-0.941 l -1.855,-6.073 5.146,-3.721 c 0.666,-0.482 0.335,-1.535 -0.487,-1.549 l -6.35,-0.113 -1.949,-6.045 c -0.253,-0.782 -1.355,-0.793 -1.623,-0.017 l -2.069,6.004 -6.35,-0.014 c -0.823,-0.002 -1.174,1.044 -0.518,1.539 z"
   id="path58" />
	<path
   style="fill:#73af00"
   d="m 311.401,276.888 5.07,3.823 -1.976,6.036 c -0.256,0.781 0.63,1.439 1.304,0.968 l 5.204,-3.641 5.13,3.744 c 0.664,0.484 1.564,-0.154 1.323,-0.941 l -1.855,-6.073 5.146,-3.721 c 0.666,-0.482 0.335,-1.535 -0.487,-1.549 l -6.35,-0.113 -1.949,-6.045 c -0.253,-0.782 -1.355,-0.793 -1.623,-0.017 l -2.069,6.004 -6.35,-0.014 c -0.822,-0.004 -1.174,1.043 -0.518,1.539 z"
   id="path60" />
	<path
   style="fill:#73af00"
   d="m 300.912,191.589 -1.76,6.102 5.204,3.64 c 0.674,0.471 0.36,1.529 -0.462,1.556 l -6.347,0.212 -1.855,6.074 c -0.241,0.787 -1.343,0.814 -1.623,0.042 l -2.163,-5.971 -6.35,0.114 c -0.822,0.014 -1.19,-1.025 -0.541,-1.53 l 5.011,-3.902 -2.07,-6.004 c -0.268,-0.777 0.608,-1.449 1.289,-0.988 l 5.259,3.56 5.07,-3.823 c 0.657,-0.498 1.566,0.127 1.338,0.918 z"
   id="path62" />
	<path
   style="fill:#73af00"
   d="m 221.063,307.62 -1.76,6.102 5.204,3.64 c 0.674,0.471 0.36,1.529 -0.462,1.556 l -6.347,0.212 -1.855,6.074 c -0.241,0.787 -1.343,0.814 -1.623,0.042 l -2.163,-5.971 -6.35,0.114 c -0.822,0.014 -1.19,-1.025 -0.541,-1.53 l 5.011,-3.902 -2.07,-6.004 c -0.268,-0.777 0.608,-1.449 1.289,-0.988 l 5.259,3.56 5.07,-3.823 c 0.657,-0.498 1.566,0.129 1.338,0.918 z"
   id="path64" />
	<path
   style="fill:#73af00"
   d="m 330.761,232.024 -5.07,3.823 1.976,6.036 c 0.256,0.781 -0.63,1.439 -1.304,0.968 l -5.204,-3.641 -5.13,3.744 c -0.664,0.484 -1.564,-0.154 -1.323,-0.941 l 1.855,-6.073 -5.146,-3.721 c -0.666,-0.482 -0.335,-1.535 0.487,-1.549 l 6.35,-0.113 1.949,-6.045 c 0.253,-0.782 1.355,-0.793 1.623,-0.017 l 2.069,6.004 6.35,-0.014 c 0.823,-0.002 1.175,1.044 0.518,1.539 z"
   id="path66" />
	<path
   style="fill:#73af00"
   d="m 197.244,276.888 -5.07,3.823 1.976,6.036 c 0.256,0.781 -0.63,1.439 -1.304,0.968 l -5.204,-3.641 -5.13,3.744 c -0.664,0.484 -1.564,-0.154 -1.323,-0.941 l 1.855,-6.073 -5.146,-3.721 c -0.666,-0.482 -0.335,-1.535 0.487,-1.549 l 6.35,-0.113 1.949,-6.045 c 0.253,-0.782 1.355,-0.793 1.623,-0.017 l 2.069,6.004 6.35,-0.014 c 0.824,-0.004 1.175,1.043 0.518,1.539 z"
   id="path68" />
</g>
<g
   id="g72">
</g>
<g
   id="g74">
</g>
<g
   id="g76">
</g>
<g
   id="g78">
</g>
<g
   id="g80">
</g>
<g
   id="g82">
</g>
<g
   id="g84">
</g>
<g
   id="g86">
</g>
<g
   id="g88">
</g>
<g
   id="g90">
</g>
<g
   id="g92">
</g>
<g
   id="g94">
</g>
<g
   id="g96">
</g>
<g
   id="g98">
</g>
<g
   id="g100">
</g>
</svg>
