<svg xmlns="http://www.w3.org/2000/svg" viewBox="0 0 512.001 335.45003" xml:space="preserve" width="512.00098" height="335.45001"><path style="fill:#f5f5f5" d="M503.172 335.449H8.828c-4.875 0-8.828-3.953-8.828-8.828V8.828C0 3.953 3.953 0 8.828 0h494.345c4.875 0 8.828 3.953 8.828 8.828v317.793c-.001 4.876-3.954 8.828-8.829 8.828z"/><path style="fill:#41479b" d="M8.828 220.69h203.034c4.875 0 8.828-3.953 8.828-8.828V97.103c0-4.876-3.953-8.828-8.828-8.828H38.345C17.167 88.276 0 105.443 0 126.621v85.241c0 4.875 3.953 8.828 8.828 8.828zm494.344 70.62H300.138c-4.875 0-8.828 3.953-8.828 8.828v114.759c0 4.875 3.953 8.828 8.828 8.828h173.517c21.177 0 38.345-17.167 38.345-38.345v-85.241c0-4.876-3.953-8.829-8.828-8.829z" transform="translate(0 -88.275)"/><path style="fill:#ff4b55" d="M473.655 88.276H300.138c-4.875 0-8.828 3.951-8.828 8.828v114.759c0 4.875 3.953 8.828 8.828 8.828h203.034c4.875 0 8.828-3.953 8.828-8.828v-85.241c0-21.179-17.167-38.346-38.345-38.346zM220.69 414.897V300.138c0-4.875-3.953-8.828-8.828-8.828H8.828c-4.875 0-8.828 3.953-8.828 8.828v85.241c0 21.177 17.167 38.345 38.345 38.345h173.517c4.875 0 8.828-3.952 8.828-8.827z" transform="translate(0 -88.275)"/><path style="fill:#64b496" d="M250.932 281.171s5.274 1.931 4.586 8.552l2.132-.04s-1.345-7.651-2.457-8.568c-1.111-.917-4.261.056-4.261.056z" transform="translate(0 -88.275)"/><path style="fill:#64b496" d="M256.218 280.149c-2.237 0-6.147-.003-10.259-1.113.917-.954 2.184-2.876 2.184-6.227 0-5.248-3.616-1.9-3.616-1.9s-2.378 2.001-.94 7.35c-1.402-.535-2.793-1.225-4.119-2.109.825-1.036 2.471-3.45 3.427-7.278 0 0-6.026-1.191-7.674 3.347-1.01-1.281-1.874-2.722-2.595-4.317 1.549.019 3.71-1.003 3.71-6.901 0 0-3.935.007-4.988 3.42-.414-1.427-.729-2.956-.961-4.572 1.571.456 5.633.783 5.633-8.032 0 0-4.877.009-6.006 4.329-.062-1.105-.086-2.247-.075-3.425 2.368-1.238 5.636-3.965 5.297-9.56 0 0-2.249.51-4.31 2.239.406-2.121.238-5.226-3.015-7.817 0 0-2.989 5.29 1.377 9.585-.38.534-.711 1.142-.984 1.817-.981-1.494-2.554-2.883-5.088-3.727 0 0-1.166 7.085 5.449 10.049.157 4.138.804 7.794 1.916 10.973-1.895-1.669-3.428-3.967-3.428-3.967 0-7.872-6.453-8.071-6.453-8.071-1.205 8.985 5.439 9.348 5.439 9.348l3.638 3.97c-7.872-1.312-7.872 5.248-7.872 5.248 5.248 1.312 7.872-1.312 7.872-1.312l2.838 1.459c-5.034.147-6.774 5.101-6.774 5.101 6.327 1.054 10.953-.433 12.526-1.057 6.372 4.455 14.226 4.461 17.852 4.461v-1.311z" transform="translate(0 -88.275)"/><path style="fill:#64b496" d="M255.772 280.149c2.237 0 6.147-.003 10.259-1.113-.917-.954-2.184-2.876-2.184-6.227 0-5.248 3.616-1.9 3.616-1.9s2.378 2.001.94 7.35c1.402-.535 2.793-1.225 4.119-2.109-.825-1.036-2.471-3.45-3.427-7.278 0 0 6.026-1.191 7.674 3.347 1.01-1.281 1.874-2.722 2.595-4.317-1.549.019-3.71-1.003-3.71-6.901 0 0 3.935.007 4.988 3.42.414-1.427.729-2.956.961-4.572-1.571.456-5.633.783-5.633-8.032 0 0 4.877.009 6.006 4.329.062-1.105.086-2.247.075-3.425-2.368-1.238-5.636-3.965-5.297-9.56 0 0 2.249.51 4.311 2.239-.406-2.121-.238-5.226 3.015-7.817 0 0 2.989 5.29-1.377 9.585.38.534.711 1.142.983 1.817.981-1.494 2.555-2.883 5.088-3.727 0 0 1.166 7.085-5.449 10.049-.157 4.138-.804 7.794-1.916 10.973 1.895-1.669 3.428-3.967 3.428-3.967 0-7.872 6.453-8.071 6.453-8.071 1.205 8.985-5.439 9.348-5.439 9.348l-3.638 3.97c7.872-1.312 7.872 5.248 7.872 5.248-5.248 1.312-7.872-1.312-7.872-1.312l-2.838 1.459c5.034.147 6.774 5.101 6.774 5.101-6.327 1.054-10.953-.433-12.526-1.057-6.372 4.455-14.226 4.461-17.852 4.461l.001-1.311z" transform="translate(0 -88.275)"/><path style="fill:#41479b" d="M233.863 134.68c-4.614 2.957-8.681 6.722-11.958 11.167 1.408 1.038 2.816 2.077 4.224 3.115 2.892-3.923 6.481-7.245 10.551-9.856z"/><path style="fill:#ff6b71" d="M256.015 168.791h18.367v10.496c0 2.898-2.349 5.248-5.248 5.248h-7.872c-2.156 0-4.052 1.054-5.248 2.66z"/><path style="fill:#5f64b9" transform="translate(0 -88.275)" d="m279.63 230.826-5.248 5.248v14.432H259.95v-19.68z"/><path style="fill:#f5f5f5" d="M267.82001 162.22501h6.56v6.56h-6.56z"/><path style="fill:#ff6b71" d="M256.015 168.791h-18.368v10.496c0 2.898 2.349 5.248 5.248 5.248h7.872c2.156 0 4.052 1.054 5.248 2.66z"/><path style="fill:#f5f5f5" d="M252.735 184.851c1.309.418 2.439 1.233 3.25 2.307h.06c.812-1.074 1.942-1.888 3.25-2.307v-10.813h-6.56z"/><path style="fill:#5f64b9" transform="translate(0 -88.275)" d="m232.399 230.826 5.248 5.248v14.432h14.432v-19.68z"/><path style="fill:#f5f5f5" d="M237.64999 162.22501h6.56v6.56h-6.56z"/><path style="fill:#41479b" transform="translate(0 -88.275)" d="M248.143 243.946v-2.624l-3.936-3.936v3.936z"/><path style="fill:#f5f5f5" transform="translate(0 -88.275)" d="M253.39 247.882v-1.312l-5.247-5.248v3.936z"/><path style="fill:#41479b" transform="translate(0 -88.275)" d="M263.886 243.946v-2.624l3.936-3.936v3.936z"/><path style="fill:#f5f5f5" transform="translate(0 -88.275)" d="M258.638 247.882v-1.312l5.248-5.248v3.936z"/><path style="fill:#ff4b55" d="M263.932 177.974h-15.829c-3.597 0-6.515-2.937-6.515-6.56v-20.291l14.525 9.795 14.333-9.795v20.291c0 3.624-2.916 6.56-6.514 6.56z"/><path style="fill:#41479b" d="m241.583 253.13 5.248 2.624v-13.12l-5.248-3.936zm28.863 0-5.248 2.624v-13.12l5.248-3.936zm-22.306 2.62999h15.743v6.56H248.14z" transform="translate(0 -88.275)"/><path style="fill:#ff4b55" transform="translate(0 -88.275)" d="M263.886 243.946v11.808h-15.743v-11.808l7.872 3.936z"/><path style="fill:#f5f5f5" d="M261.919 245.186v13.191c0 1.086-.883 1.967-1.967 1.967h-7.872c-1.085 0-1.967-.883-1.967-1.967V245.24l-3.936-2.636v15.774c0 3.255 2.648 5.903 5.903 5.903h7.872c3.255 0 5.903-2.648 5.903-5.903v-15.863z" transform="translate(0 -88.275)"/><path style="fill:#f5f5f5" d="M263.293 254.35c-2.21.199-4.697.422-7.278 1.32-2.581-.898-5.068-1.121-7.278-1.32-3.698-.332-5.892-.655-7.148-2.886v3.787c1.929 1.254 4.372 1.485 6.913 1.713 2.281.205 4.639.416 7.049 1.329l.465.175.465-.175c2.409-.913 4.767-1.123 7.049-1.329 2.543-.228 4.99-.456 6.919-1.711v-3.798c-1.257 2.24-3.453 2.563-7.156 2.895z" transform="translate(0 -88.275)"/><path style="fill:#ffe15a" transform="translate(0 -88.275)" d="M256.671 240.01h-1.312v1.968h-1.969v1.312h1.969v5.904h1.312v-5.904h1.967v-1.312h-1.967z"/><path transform="rotate(-45)" style="fill:#464655;stroke-width:.99999" d="M66.89968 276.86984h1.01799v16.30384h-1.01799z"/><path style="fill:#ffe15a" transform="translate(0 -88.275)" d="m244.16 235.661-2.882-1.441 1.441 2.882z"/><path transform="rotate(-36.071)" style="fill:#464655;stroke-width:1.00002" d="M112.28907 263.02246h1.01902v16.30528h-1.01902z"/><path style="fill:#ffe15a" transform="translate(0 -88.275)" d="m246.851 233.854-2.624-1.872.977 3.072z"/><path transform="rotate(-55.075)" style="fill:#464655;stroke-width:.999996" d="M14.14367 283.97189h1.018v16.30294h-1.018z"/><path style="fill:#ffe15a" transform="translate(0 -88.275)" d="m241.8 238.023-3.09-.915 1.923 2.585z"/><path transform="rotate(-135)" style="fill:#464655;stroke-width:.99999" d="M-295.15137 68.8898h1.01799v16.30384h-1.01799z"/><path style="fill:#ffe15a" transform="translate(0 -88.275)" d="m267.863 235.661 2.882-1.441-1.441 2.882z"/><path transform="rotate(-143.929)" style="fill:#464655;stroke-width:1.00002" d="M-301.57516 22.16415h1.01902v16.30428h-1.01902z"/><path style="fill:#ffe15a" transform="translate(0 -88.275)" d="m265.173 233.854 2.623-1.872-.977 3.072z"/><path transform="rotate(-124.925)" style="fill:#464655;stroke-width:.999996" d="M-279.02374 119.5312h1.018v16.30294h-1.018z"/><path style="fill:#ffe15a" transform="translate(0 -88.275)" d="m270.223 238.023 3.09-.915-1.923 2.585z"/><path style="fill:#f5f5f5" d="M255.349 184.161s-5.074-5.449-4.089-10.451c.791-4.023 3.192-8.458 5.071-9.537 0 0 2.657-.164 1.991 2.145-.666 2.308-1.478 2.903-1.24 5.178.409 3.937 1.044 8.603-1.733 12.665z"/><path style="fill:#41479b" d="M256.888 164.202c-.317-.042-.558-.028-.558-.028-1.879 1.079-4.28 5.514-5.071 9.537-.448 2.275.361 4.638 1.373 6.543-.641-8.248 1.767-11.174 4.256-16.052z"/><path style="fill:#ff4b55" d="M257.081 171.497c-.237-2.274.574-2.87 1.24-5.178.467-1.615-.693-2.019-1.432-2.116 0 0-1.694 3.892-1.803 6.503-.096 2.297.492 11.644.264 13.458 2.776-4.065 2.141-8.731 1.731-12.667z"/><path style="fill:#f5f0f0" d="M253.639 166.148c1.057-1.031 2.543-1.492 3.998-1.242-.69-2.221-1.38-4.442-2.07-6.664-1.454-.249-2.941.212-3.999 1.242.69 2.222 1.381 4.443 2.071 6.664z"/><path style="fill:#f5f5f5" d="M257.638 164.906c1.057-1.031 2.543-1.492 3.999-1.242-.69-2.221-1.38-4.442-2.07-6.664-1.454-.249-2.941.212-3.999 1.242.689 2.221 1.379 4.442 2.07 6.664z"/><path style="fill:#5f64b9" d="M250.022 136.079c-7.122-.164-14.156 1.587-20.37 5.07-.855-1.526-1.711-3.052-2.567-4.577 7.033-3.944 14.996-5.926 23.058-5.74-.041 1.749-.082 3.498-.121 5.247z"/><path style="fill:#41479b" d="M278.167 134.68c4.614 2.957 8.681 6.722 11.958 11.167-1.408 1.038-2.816 2.077-4.224 3.115-2.892-3.923-6.481-7.245-10.551-9.856z"/><path style="fill:#5f64b9" d="M262.008 136.079c7.122-.164 14.156 1.587 20.37 5.07.855-1.526 1.711-3.052 2.567-4.577-7.033-3.944-14.996-5.926-23.058-5.74.041 1.749.082 3.498.121 5.247z"/><path style="fill:#41479b" d="M266.51 134.68c-6.871-1.88-14.121-1.88-20.991 0-.461-1.687-.924-3.374-1.385-5.062 7.777-2.127 15.983-2.127 23.761 0-.461 1.687-.923 3.374-1.385 5.062z"/><path style="fill:#ff6b71" d="M238.432 281.757c-5.663 1.479-11.199 3.474-16.529 5.985.746 1.582 1.492 3.165 2.237 4.747 5.143-2.424 10.489-4.337 15.96-5.742zm35.166 0c5.663 1.479 11.199 3.474 16.529 5.985-.746 1.582-1.492 3.165-2.237 4.747-5.143-2.424-10.489-4.337-15.96-5.742z" transform="translate(0 -88.275)"/><path style="fill:#ff4b55" d="M277.119 285.815a89.91187 89.91187 0 0 0-41.983 0c-.408-1.702-.817-3.402-1.225-5.102 14.603-3.506 29.83-3.506 44.433 0-.407 1.7-.816 3.402-1.225 5.102z" transform="translate(0 -88.275)"/><path style="fill:#ff4b55" d="m256.015 287.241-3.618.905c-.828.207-1.63-.419-1.63-1.272v-1.887c0-.853.802-1.48 1.63-1.273l3.618.905zm0-2.624 3.618-.905c.828-.207 1.63.419 1.63 1.273v1.887c0 .853-.802 1.48-1.63 1.272l-3.618-.905z" transform="translate(0 -88.275)"/><path style="fill:#ff6b71" d="M256.296 198.966h-.563c-.569 0-1.031-.461-1.031-1.031v-.563c0-.569.461-1.031 1.031-1.031h.563c.569 0 1.031.461 1.031 1.031v.563c-.001.57-.462 1.031-1.031 1.031z"/></svg>