<?xml version="1.0" encoding="UTF-8" standalone="no"?>
<svg
   xmlns:dc="http://purl.org/dc/elements/1.1/"
   xmlns:cc="http://creativecommons.org/ns#"
   xmlns:rdf="http://www.w3.org/1999/02/22-rdf-syntax-ns#"
   xmlns:svg="http://www.w3.org/2000/svg"
   xmlns="http://www.w3.org/2000/svg"
   xmlns:sodipodi="http://sodipodi.sourceforge.net/DTD/sodipodi-0.dtd"
   xmlns:inkscape="http://www.inkscape.org/namespaces/inkscape"
   version="1.1"
   id="Layer_1"
   x="0px"
   y="0px"
   viewBox="0 0 512 335.45001"
   xml:space="preserve"
   sodipodi:docname="algeria-algeria-svgrepo-com.svg"
   width="512"
   height="335.45001"
   inkscape:version="1.0.1 (c497b03c, 2020-09-10)"><metadata
   id="metadata55"><rdf:RDF><cc:Work
       rdf:about=""><dc:format>image/svg+xml</dc:format><dc:type
         rdf:resource="http://purl.org/dc/dcmitype/StillImage" /><dc:title></dc:title></cc:Work></rdf:RDF></metadata><defs
   id="defs53" /><sodipodi:namedview
   pagecolor="#ffffff"
   bordercolor="#666666"
   borderopacity="1"
   objecttolerance="10"
   gridtolerance="10"
   guidetolerance="10"
   inkscape:pageopacity="0"
   inkscape:pageshadow="2"
   inkscape:window-width="1797"
   inkscape:window-height="983"
   id="namedview51"
   showgrid="false"
   inkscape:zoom="1.640625"
   inkscape:cx="256"
   inkscape:cy="256"
   inkscape:window-x="0"
   inkscape:window-y="23"
   inkscape:window-maximized="0"
   inkscape:current-layer="Layer_1" />
<path
   style="fill:#73af00"
   d="M 38.345,335.448 H 256 V 0 H 38.345 C 17.167,0 0,17.167 0,38.345 v 258.759 c 0,21.177 17.167,38.344 38.345,38.344 z"
   id="path10" />
<path
   style="fill:#f5f5f5"
   d="m 473.655,335.448 c 21.177,0 38.345,-17.167 38.345,-38.345 V 38.345 C 512,17.168 494.833,0 473.655,0 H 256 v 335.448 z"
   id="path12" />
<g
   id="g18"
   transform="translate(0,-88.276)">
	<path
   style="fill:#ff4b55"
   d="m 298.609,223.906 -15.305,20.021 -23.897,-7.999 c -1.336,-0.447 -2.473,1.064 -1.673,2.223 l 14.312,20.743 -14.993,20.256 c -0.839,1.132 0.247,2.68 1.598,2.278 l 24.15,-7.202 14.632,20.519 c 0.818,1.148 2.626,0.593 2.66,-0.815 l 0.613,-25.194 24.035,-7.575 c 1.344,-0.424 1.375,-2.314 0.046,-2.782 l -23.77,-8.369 0.223,-25.201 c 0.012,-1.408 -1.776,-2.023 -2.631,-0.903 z"
   id="path14" />
	<path
   style="fill:#ff4b55"
   d="m 271.866,316.63 c -33.459,0 -60.6,-27.142 -60.6,-60.631 0,-33.428 27.142,-60.63 60.6,-60.63 12.448,0 23.928,3.829 33.495,10.308 1.465,0.992 3.137,-0.932 1.91,-2.208 -14.298,-14.866 -34.535,-23.934 -56.971,-23.168 -38.548,1.315 -70.46,32.222 -72.922,70.713 -2.822,44.089 32.089,80.728 75.554,80.728 21.41,0 40.652,-8.951 54.393,-23.262 1.214,-1.265 -0.462,-3.16 -1.912,-2.177 -9.577,6.494 -21.076,10.327 -33.547,10.327 z"
   id="path16" />
</g>
<g
   id="g20">
</g>
<g
   id="g22">
</g>
<g
   id="g24">
</g>
<g
   id="g26">
</g>
<g
   id="g28">
</g>
<g
   id="g30">
</g>
<g
   id="g32">
</g>
<g
   id="g34">
</g>
<g
   id="g36">
</g>
<g
   id="g38">
</g>
<g
   id="g40">
</g>
<g
   id="g42">
</g>
<g
   id="g44">
</g>
<g
   id="g46">
</g>
<g
   id="g48">
</g>
</svg>
