<svg xmlns="http://www.w3.org/2000/svg" xml:space="preserve" width="512" height="335.45001"><path style="fill:#ff4b55" d="M0 297.103c0 21.177 17.167 38.345 38.345 38.345h435.31c21.177 0 38.345-17.167 38.345-38.345v-45.517H0z"/><path style="fill:#ffe15a" d="M473.655 0H38.345C17.167 0 0 17.167 0 38.345v129.379h512V38.345C512 17.167 494.833 0 473.655 0z"/><path style="fill:#41479b" d="M0 167.724h512v83.86H0z"/><path style="fill:#ffe15a" d="m246.788 172.677 64.48-55.268v79.987c0 13.481-10.929 24.408-24.408 24.408-6.03 0-11.847-2.232-16.329-6.265l-23.743-21.368z"/><path style="fill:#ff4b55" d="m280.801 204.128-18.66-16.794v-27.815l33.775-28.95v66.828c0 4.994-4.063 9.056-9.056 9.056-2.241 0-4.393-.826-6.059-2.325z"/><path style="fill:#41479b" d="M271.352 151.624v31.617l15.352 13.862v-58.636l9.212-7.896v66.828c0 4.994-4.063 9.056-9.056 9.056-2.241 0-4.393-.825-6.059-2.325l-18.66-16.794v-27.815z"/><path style="fill:#ffe15a" d="m265.212 172.677-64.48-55.268v79.987c0 13.481 10.929 24.408 24.408 24.408 6.03 0 11.847-2.232 16.329-6.265l23.743-21.368z"/><path style="fill:#ff4b55" d="m231.199 204.128 18.66-16.794v-27.815l-33.775-28.95v66.828c0 4.994 4.063 9.056 9.056 9.056 2.241 0 4.393-.826 6.059-2.325z"/><path style="fill:#41479b" d="M240.648 239.9v31.617l-15.352 13.862v-58.636l-9.212-7.896v66.828c0 4.994 4.063 9.056 9.056 9.056 2.241 0 4.393-.825 6.059-2.325l18.66-16.794v-27.815zm68.39201-33.93999h4.414v26.449h-4.414zm-110.53002 0h4.414v26.449h-4.414z" transform="translate(0 -88.276)"/><path style="fill:#5a4646" d="M246.788 193.404s6.141-29.17-15.352-25.331c-21.493 3.838-21.493 9.978-46.057 22.261 0 0 27.635 6.141 39.916 3.071 0 0 9.212 12.281 18.423 15.352h9.212zm18.424 0s-6.141-29.17 15.352-25.331c21.493 3.838 21.493 9.978 46.057 22.261 0 0-27.635 6.141-39.916 3.071 0 0-9.212 12.281-18.423 15.352h-9.212z" transform="translate(0 -88.276)"/><path style="fill:#5a4646" d="M265.212 208.756h-18.423V193.29c0-5.025 4.073-9.098 9.098-9.098h.226c5.025 0 9.098 4.073 9.098 9.098v15.466z" transform="translate(0 -88.276)"/><circle style="fill:#e6e1cd" cx="256" cy="105.12399" r="6.141"/><path style="fill:#ffd0af" d="m242.823 101.162 11.546 6.166c.969.518 2.162.34 2.937-.437.974-.974.974-2.552 0-3.527l-7.448-7.448h-1.791c-2.896 0-5.244 2.348-5.244 5.246z"/><path style="fill:#ffaf94" d="M246.827 102.057h-9.249l4.047-4.738c.76-.89 1.871-1.402 3.042-1.402h5.192v3.108c0 1.674-1.358 3.032-3.032 3.032z"/><path style="fill:#8cb400" d="M282.186 208.764c-2.072-2.458-2.514-5.717-1.504-8.541 2.954-.516 6.091.471 8.162 2.931 1.77 2.101 2.283 4.772 1.784 7.272.614 1.042 1.364 2.382 2.189 3.964.041-.225.032-.448.096-.673.724-2.546 2.743-4.348 5.135-4.958 1.713 1.778 2.483 4.373 1.759 6.918-.622 2.19-2.227 3.777-4.18 4.581.771 1.769 1.534 3.677 2.247 5.69.041-.118.044-.238.092-.355 1-2.451 3.206-4.019 5.65-4.362 1.506 1.955 1.986 4.619.987 7.07-.875 2.144-2.69 3.558-4.764 4.121 1.067 4.213 1.775 8.683 1.775 13.183h-3.071c0-3.922-.602-7.85-1.511-11.608-1.895.612-4.012.481-5.845-.641-2.236-1.37-3.416-3.778-3.361-6.223 2.154-1.16 4.835-1.203 7.071.168.081.05.135.121.213.173-.658-1.89-1.358-3.683-2.077-5.365-1.843.871-4.012 1.005-6.002.071-2.374-1.114-3.811-3.379-4.026-5.815 2.006-1.386 4.657-1.722 7.023-.62-.846-1.625-1.608-2.985-2.206-4.002-2.115-.244-4.152-1.218-5.636-2.979zm-52.372 0c2.071-2.458 2.514-5.717 1.504-8.541-2.954-.516-6.091.471-8.162 2.931-1.77 2.101-2.283 4.772-1.784 7.272-.614 1.042-1.364 2.382-2.189 3.964-.041-.225-.032-.448-.096-.673-.724-2.546-2.743-4.348-5.135-4.958-1.713 1.778-2.483 4.373-1.759 6.918.622 2.19 2.227 3.777 4.18 4.581-.771 1.769-1.534 3.677-2.247 5.69-.041-.118-.044-.238-.092-.355-1-2.451-3.206-4.019-5.65-4.362-1.506 1.955-1.986 4.619-.986 7.07.875 2.144 2.69 3.558 4.764 4.121-1.067 4.213-1.775 8.683-1.775 13.183h3.071c0-3.922.602-7.85 1.511-11.608 1.895.612 4.012.481 5.844-.641 2.237-1.37 3.416-3.778 3.361-6.223-2.154-1.16-4.835-1.203-7.071.168-.081.05-.135.121-.213.173.658-1.89 1.358-3.683 2.077-5.365 1.843.871 4.012 1.005 6.002.071 2.374-1.114 3.811-3.379 4.026-5.815-2.006-1.386-4.657-1.722-7.023-.62.845-1.625 1.608-2.985 2.206-4.002 2.115-.244 4.152-1.218 5.636-2.979z" transform="translate(0 -88.276)"/><path style="fill:#ffe15a" d="m256 188.03-64.48-55.268v79.987c0 13.481 10.929 24.408 24.408 24.408 6.03 0 11.847-2.232 16.329-6.265L256 209.524z"/><path style="fill:#ff4b55" d="m221.987 219.48 18.66-16.794v-27.815l-33.775-28.95v66.828c0 4.994 4.063 9.056 9.056 9.056 2.242 0 4.393-.825 6.059-2.325z"/><path style="fill:#41479b" d="M231.436 166.976v31.617l-15.352 13.862v-58.637l-9.212-7.896v66.828c0 4.994 4.063 9.056 9.056 9.056 2.241 0 4.393-.825 6.059-2.325l18.66-16.794v-27.815z"/><path style="fill:#ffe15a" d="m256 188.03 64.48-55.268v79.987c0 13.481-10.929 24.408-24.408 24.408-6.03 0-11.847-2.232-16.329-6.265L256 209.524z"/><path style="fill:#ff4b55" d="m290.013 219.48-18.66-16.794v-27.815l33.775-28.95v66.828c0 4.994-4.063 9.056-9.056 9.056-2.241 0-4.393-.825-6.059-2.325z"/><path style="fill:#41479b" d="M280.564 166.976v31.617l15.352 13.862v-58.637l9.212-7.896v66.828c0 4.994-4.063 9.056-9.056 9.056-2.241 0-4.393-.825-6.059-2.325l-18.66-16.794v-27.815z"/><ellipse style="fill:#69c3ff" cx="256" cy="166.534" rx="30.705" ry="46.06"/><path style="fill:#009b64" d="M228.365 178.819h55.268l3.071-12.281-13.993 2.333c-2.807.468-5.678-.332-7.839-2.184l-15.884-13.615c-1.419-1.216-3.228-1.886-5.097-1.886-2.077 0-4.07.825-5.538 2.294l-9.988 9.988z"/><path style="fill:#f5f5f5" d="m253.087 164.474 5.274-3.37-9.374-8.034c-1.419-1.216-3.228-1.886-5.097-1.886-2.077 0-4.07.825-5.538 2.294l-9.988 9.988v3.071l15.352-3.071 2.714 1.357c2.127 1.064 4.655.93 6.657-.349z"/><path style="fill:#5aa0e6" transform="translate(0 -88.276)" d="M246.788 300.87H256l12.281-3.07 12.283-12.283 3.07-18.422h-55.269l3.071 18.422z"/><path style="fill:#ffc88c" d="M256 215.664c-18.624 0-33.775-22.039-33.775-49.128s15.151-49.128 33.775-49.128 33.775 22.039 33.775 49.128-15.151 49.128-33.775 49.128zm0-92.113c-15.236 0-27.635 19.284-27.635 42.986 0 23.702 12.397 42.987 27.635 42.987 15.238 0 27.634-19.284 27.634-42.987 0-23.703-12.398-42.986-27.634-42.986z"/><path style="fill:#e1e1e1" d="M234.339 300.595c-2.574-3.554-6.406-5.865-10.746-5.865-4.34 0-8.172 2.311-10.746 5.865 4.39 1.217 7.982 4.781 9.683 9.479.685 1.892 1.064 3.968 1.064 6.15-.001-7.597 4.588-13.923 10.745-15.629z" transform="translate(0 -88.276)"/><path style="fill:#e1e1e1" d="M226.031 310.281s-.241 4.094-2.339 6.013l-.088-.072c-2.099-1.919-2.339-6.013-2.339-6.013z" transform="translate(0 -88.276)"/><path style="fill:#966446" d="M294.4 223.34h-76.8c-.838 0-1.516-.679-1.516-1.516v-.038c0-.838.679-1.516 1.516-1.516h76.8c.838 0 1.516.679 1.516 1.516v.038c0 .837-.678 1.516-1.516 1.516z"/><path style="fill:#be915a" d="M271.427 227.946h-30.856c-3.35 0-6.066-2.716-6.066-6.066v-.151c0-3.35 2.716-6.066 6.066-6.066h30.856c3.35 0 6.066 2.716 6.066 6.066v.151c0 3.35-2.716 6.066-6.066 6.066z"/><path style="fill:#b9b9b9" d="M228.365 220.27h-10.746c-.847 0-1.535.687-1.535 1.535 0 .848.687 1.535 1.535 1.535h10.746z"/><path style="fill:#ff4b55" transform="translate(0 -88.276)" d="m243.719 340.786 6.14-24.564H256v28.054z"/><path style="fill:#41479b" transform="translate(0 -88.276)" d="m234.507 334.645 9.212-18.423h9.21l-6.141 21.494z"/><path style="fill:#ffe15a" transform="translate(0 -88.276)" d="m240.648 331.574 6.14-15.352h-6.14l-9.212 12.282z"/><path style="fill:#ff4b55" transform="translate(0 -88.276)" d="m268.281 340.786-6.14-24.564H256v28.054z"/><path style="fill:#41479b" transform="translate(0 -88.276)" d="m277.493 334.645-9.212-18.423h-9.21l6.141 21.494z"/><path style="fill:#ffe15a" transform="translate(0 -88.276)" d="m271.352 331.574-6.14-15.352h6.14l9.212 12.282z"/><path style="fill:#41479b" d="M189.314 221.035h4.414v26.447l-4.414-4.448zm128.918 0h4.414v21.999l-4.414 4.448z" transform="translate(0 -88.276)"/></svg>