<svg xmlns="http://www.w3.org/2000/svg" viewBox="0 0 512.001 335.45003" xml:space="preserve" width="512.00098" height="335.45001"><path style="fill:#464655" d="M512 111.817H0V8.828C0 3.953 3.953 0 8.828 0h494.345c4.875 0 8.828 3.953 8.828 8.828z"/><path style="fill:#73af00" d="M503.172 335.449H8.828c-4.875 0-8.828-3.953-8.828-8.828V223.633h512v102.988c0 4.876-3.953 8.828-8.828 8.828z"/><path style="fill:#f5f5f5" d="M0 111.815h512v111.81H0z"/><path style="fill:#ff4b55" d="m12.828 413.994 193.27-153.418c2.946-2.338 2.946-6.812 0-9.15L12.828 98.008C4.959 105.031 0 115.245 0 126.622v258.759c0 11.376 4.959 21.59 12.828 28.613zm252.129-157.993c0-20.136 13.151-37.194 31.33-43.068 1.045-.338.908-1.867-.184-1.974-3.49-.343-7.096-.289-10.778.227-21.354 2.997-37.828 21.055-38.858 42.593-1.242 26.005 19.474 47.48 45.206 47.48 1.489 0 2.959-.074 4.41-.215 1.097-.107 1.24-1.641.191-1.98-18.172-5.878-31.317-22.933-31.317-43.063z" transform="translate(0 -88.276)"/><path style="fill:#ff4b55" d="m303.384 226.265-5.946 17.83-18.795.146c-2.433.019-3.443 3.124-1.485 4.569l15.119 11.165-5.67 17.92c-.734 2.321 1.908 4.239 3.887 2.824l15.29-10.93 15.29 10.93c1.98 1.415 4.621-.504 3.887-2.824l-5.67-17.92 15.119-11.165c1.958-1.446.949-4.551-1.485-4.569l-18.795-.146-5.946-17.83c-.764-2.308-4.029-2.308-4.8 0z" transform="translate(0 -88.276)"/></svg>