<svg xmlns="http://www.w3.org/2000/svg" xml:space="preserve" width="512" height="335.45001"><style>.st3{fill:#ff4b55}</style><path d="M12.828 9.73206 141.42786 111.8153h370.57116v.00201l.00067-73.4834C511.99371 17.16113 494.82831 0 473.65503 0h-435.31c-13.3479 0-25.09729 6.82336-31.9646 17.1684 1.82526-2.74775 3.99475-5.24726 6.44757-7.43634zM1.52405 27.64618c.11627-.4004.23681-.79895.36566-1.19379-.12878.39496-.24951.79328-.36566 1.19379zm1.27441-3.68195c.1687-.4162.34503-.82843.52783-1.23718-.18267.40894-.35919.8208-.52783 1.23718zm-.68158 1.81684c.14063-.4051.28717-.80738.44086-1.20612a38.10732 38.10732 0 0 0-.44086 1.20612zm3.24482-6.98963a38.40027 38.40027 0 0 1 .95007-1.51599c-.32794.49756-.64508 1.00257-.95008 1.516zm-.93757 1.67408c.24372-.46106.49823-.91541.75995-1.36512-.26166.44983-.51636.90387-.75995 1.36512zM.61938 31.5111c.07306-.4055.14722-.81054.23291-1.21142-.08569.401-.1599.80591-.2329 1.21143zm2.94904-9.31957c.20136-.43237.41193-.8595.62878-1.28296-.21673.42364-.42755.8504-.62878 1.28296zM1.0243 29.5545c.09405-.40045.19073-.79986.29723-1.1953-.10644.39562-.20324.7948-.29724 1.1953zM0 38.34497v.00116c0-.68872.0199-1.37274.05579-2.05249C.01996 36.97302 0 37.65662 0 38.34497zm.10394-2.6842c.03229-.46595.06507-.93183.1139-1.393-.04877.4613-.0816.927-.1139 1.393zm.20783-2.1319c.05285-.4212.10571-.84235.17218-1.25916-.0664.41687-.11939.8379-.17218 1.25916z" style="fill:#464655"/><path d="M2.54358 310.83759c-.14386-.3744-.28131-.75184-.4137-1.13184.13227.38013.26996.75726.4137 1.13184zm-1.69501-5.70514c-.08105-.38013-.15112-.76416-.22082-1.14838.0697.38428.13977.76819.22082 1.14838zm.46686 1.93512c-.10046-.3739-.19165-.75153-.281-1.12989.08929.37842.1806.75586.281 1.12989zm1.99017 5.60797c-.17004-.38178-.33471-.7663-.49255-1.15454.15778.38836.32257.7727.49255 1.15454zm3.09449 5.63513c1.81378 2.72668 3.9668 5.20642 6.3996 7.38171-2.4325-2.17535-4.58546-4.656-6.3996-7.38171zM.48193 303.1673c-.0631-.39673-.1131-.79773-.16388-1.19849.05079.40076.10083.80164.16388 1.19849zm-.42627-4.01508c-.03503-.66498-.05395-1.33429-.05462-2.00781.00073.67358.01959 1.34283.05462 2.00781zm4.11097 15.32788c-.2002-.39264-.39563-.78808-.58252-1.18841.18676.40045.38238.79565.58252 1.18841zM.21704 301.17395c-.04663-.44147-.07757-.88751-.10907-1.33337.0315.44592.06244.89184.10907 1.33337zm1.66333 7.79437c-.12115-.37237-.23474-.74798-.34473-1.12524.10993.37738.22364.7528.34473 1.12524zm3.25678 7.29804c-.23865-.41236-.4723-.828-.6958-1.24988.22344.42206.45727.83734.6958 1.24988zM38.34503 335.448h435.31c21.16504 0 38.323-17.14618 38.344-38.30536v-73.50897H141.43041L12.82922 325.71802c6.77869 6.0487 15.71552 9.72998 25.51581 9.72998zM6.23822 318.05817c-.29462-.45026-.5819-.90564-.85785-1.36872.27588.4632.5633.91834.85785 1.36872z" style="fill:#73af00"/><path d="m141.42786 111.8153 64.66974 51.33521c2.94598 2.33795 2.94598 6.81195 0 9.14997l-64.6571 51.3252h370.55852V111.8153H141.42786zm154.6546 100.95332c-1.45099.14099-2.92102.21502-4.41004.21502-25.73193 0-46.44787-21.4751-45.20587-47.48016 1.02997-21.53803 17.50397-39.59613 38.85791-42.59314 3.68195-.516 7.28797-.57 10.77796-.22699 1.09198.107 1.229 1.63599.18402 1.974-18.17896 5.87402-31.32996 22.93207-31.32996 43.06811l.00006.00006c0 20.13001 13.14496 37.18512 31.3169 43.06312 1.049.33898.906 1.87298-.19098 1.97998zm38.32684-52.23414-15.11896 11.16504 5.66999 17.92005c.734 2.32-1.90699 4.23907-3.88697 2.82403l-15.28997-10.93005-15.28998 10.93005c-1.979 1.41504-4.62097-.50299-3.88696-2.82403l5.66998-17.92005-15.11896-11.16504c-1.958-1.445-.94806-4.55004 1.48499-4.56903l18.79498-.146 5.94598-17.83h-.00006c.771-2.30805 4.03595-2.30805 4.79999 0l5.94598 17.83 18.79499.146c2.43402.01801 3.44299 3.12305 1.48498 4.56903z" style="fill:#f5f5f5"/><path class="st3" d="M.05566 299.15222c.01215.2309.03614.45856.05231.68836.0315.44586.06244.8919.10907 1.33337.02814.26666.06744.52985.10101.79486.05079.40076.10077.80176.16388 1.19849.04358.27398.0965.54474.14582.81677.0697.38422.13977.76825.22082 1.14838.05756.27008.12262.53729.18585.80523.08936.37836.18055.75598.28101 1.12989.06982.26.14508.5177.22021.7755.10999.37727.22358.75288.34473 1.12525.08038.24713.1643.49256.24951.73743.13239.38.26984.75745.4137 1.13184.08789.22882.17743.45672.26947.6834.15784.38825.3225.77277.49255 1.15455.09168.20605.1833.41205.2785.61615.1869.40033.38233.79577.58253 1.18841.09118.17908.18078.35895.27472.53638.2235.42187.45715.83752.6958 1.24988.08148.1408.1601.28338.24322.4231.27594.46307.56323.91845.85785 1.3687.05469.08362.1065.16932.16187.2525 1.81414 2.72572 3.9671 5.20637 6.3996 7.38172.00976.00867.01983.01697.02953.02564l128.6012-102.08435.01007-.008 64.6571-51.3252c2.94599-2.338 2.94599-6.812 0-9.14996l-64.66973-51.3352L12.828 9.73206c-2.45282 2.18908-4.62231 4.6886-6.44757 7.43634-.02344.03534-.04535.07171-.06866.10705a38.40004 38.40004 0 0 0-.95008 1.516c-.0606.10204-.11792.2063-.1776.30895-.26173.44971-.51624.90406-.75996 1.36512-.07745.1466-.15136.29534-.22693.44305-.21685.42346-.42742.85059-.62878 1.28296-.08258.17743-.16217.35663-.24213.53552-.1828.40875-.35913.82098-.52783 1.23718-.08203.20264-.16199.40638-.24072.61072-.15369.39874-.30023.80103-.44086 1.20612-.07733.22308-.15387.4464-.22717.67132-.12885.39484-.24939.7934-.36566 1.19379-.06879.23718-.13825.474-.20252.71301-.1065.39545-.20318.79486-.29724 1.19531-.05823.24805-.11865.4953-.172.74518-.08569.40088-.15985.80591-.2329 1.21143-.04554.2528-.09498.50415-.13544.7586-.06647.41681-.11933.83796-.17218 1.25916-.03089.2464-.06769.49103-.09394.7389-.04882.46117-.0816.92705-.11389 1.393-.01465.21136-.03698.42053-.04815.63287C.01989 36.97339 0 37.65741 0 38.34613v258.75684c0 .01391.00104.02752.00104.04144.00067.67352.01959 1.34283.05462 2.00781zm296.21778-88.36358c-18.17194-5.878-31.3169-22.93311-31.3169-43.06312l-.00006-.00006c0-20.13604 13.151-37.19409 31.32996-43.06811 1.04498-.33801.90796-1.867-.18402-1.974-3.49-.34302-7.09601-.289-10.77796.22699-21.35394 2.997-37.82794 21.05511-38.8579 42.59314-1.24201 26.00506 19.47393 47.48016 45.20586 47.48016 1.48902 0 2.95905-.07403 4.41004-.21502 1.09698-.107 1.23999-1.641.19098-1.97998z"/><path class="st3" d="m332.92432 155.96545-18.79499-.146-5.94598-17.83c-.76404-2.30805-4.029-2.30805-4.79999 0h.00006l-5.94598 17.83-18.79498.146c-2.43305.01899-3.443 3.12403-1.48499 4.56903l15.11896 11.16504-5.66998 17.92005c-.73401 2.32104 1.90795 4.23907 3.88696 2.82403l15.28998-10.93005 15.28997 10.93005c1.97998 1.41504 4.62098-.50402 3.88697-2.82403l-5.66999-17.92005 15.11896-11.16504c1.95801-1.44598.94904-4.55102-1.48498-4.56903z"/></svg>