<?xml version="1.0" encoding="UTF-8" standalone="no"?>
<svg
   xmlns:dc="http://purl.org/dc/elements/1.1/"
   xmlns:cc="http://creativecommons.org/ns#"
   xmlns:rdf="http://www.w3.org/1999/02/22-rdf-syntax-ns#"
   xmlns:svg="http://www.w3.org/2000/svg"
   xmlns="http://www.w3.org/2000/svg"
   xmlns:sodipodi="http://sodipodi.sourceforge.net/DTD/sodipodi-0.dtd"
   xmlns:inkscape="http://www.inkscape.org/namespaces/inkscape"
   version="1.1"
   id="Layer_1"
   x="0px"
   y="0px"
   viewBox="0 0 512 335.45001"
   xml:space="preserve"
   sodipodi:docname="er.svg"
   width="512"
   height="335.45001"
   inkscape:version="1.0.1 (c497b03c, 2020-09-10)"><metadata
   id="metadata53"><rdf:RDF><cc:Work
       rdf:about=""><dc:format>image/svg+xml</dc:format><dc:type
         rdf:resource="http://purl.org/dc/dcmitype/StillImage" /><dc:title></dc:title></cc:Work></rdf:RDF></metadata><defs
   id="defs51" /><sodipodi:namedview
   pagecolor="#ffffff"
   bordercolor="#666666"
   borderopacity="1"
   objecttolerance="10"
   gridtolerance="10"
   guidetolerance="10"
   inkscape:pageopacity="0"
   inkscape:pageshadow="2"
   inkscape:window-width="1846"
   inkscape:window-height="984"
   id="namedview49"
   showgrid="false"
   inkscape:zoom="1.640625"
   inkscape:cx="256"
   inkscape:cy="256"
   inkscape:window-x="0"
   inkscape:window-y="23"
   inkscape:window-maximized="0"
   inkscape:current-layer="Layer_1" />
<path
   style="fill:#73af00"
   d="M 473.885,0 H 38.115 C 17.045,0.124 0,17.238 0,38.338 V 167.723 H 512 V 38.338 C 512,17.238 494.955,0.124 473.885,0 Z"
   id="path10" />
<path
   style="fill:#4173cd"
   d="m 0,297.097 c 0,21.177 17.167,38.345 38.345,38.345 h 435.31 c 21.177,0 38.345,-17.167 38.345,-38.345 V 167.724 H 0 Z"
   id="path12" />
<path
   style="fill:#ff4b55"
   d="m 0,38.338 v 258.759 c 0,13.682 7.171,25.682 17.954,32.469 L 512,167.724 17.942,5.878 C 7.166,12.666 0,24.662 0,38.338 Z"
   id="path14" />
<path
   style="fill:#ffe15a"
   d="m 188.808,218.116 c 0,0 24.862,-9.067 31.882,-36.269 0,0 -10.823,14.04 -18.428,18.135 0,0 16.672,-22.23 13.162,-43.874 0,0 -2.048,8.775 -6.143,12.285 0,0 7.313,-31.297 -2.048,-44.459 0,0 0.292,11.115 -3.802,22.23 0,0 1.56,-35.198 -14.43,-44.167 0,0 6.24,11.115 3.607,20.474 0,0 -4.387,-19.89 -24.765,-27.787 0,0 -1.268,1.462 -0.975,5.85 0,0 -5.557,-6.728 -19.305,-6.435 0,0 0.292,4.972 3.802,9.652 0,0 -5.557,2.925 -9.067,2.048 0,0 5.557,6.143 25.154,5.557 0,0 -2.633,2.34 -7.897,2.925 0,0 8.006,3.677 15.892,4.387 10.823,0.974 15.113,7.313 17.16,15.21 0,0 -8.482,-4.972 -11.7,-9.945 0,0 -0.585,8.482 15.502,24.862 l -8.19,-3.51 c 0,0 5.265,15.21 11.7,32.467 l -6.728,-7.313 c 0,0 -1.462,12.285 -2.633,35.1 l -4.68,-10.823 c 0,0 -8.19,26.91 -20.767,31.297 -9.846,3.435 -20.736,5.786 -25.015,6.649 -0.401,-15.055 6.003,-18.349 6.003,-18.349 11.407,0.585 14.04,-11.992 14.04,-11.992 -2.34,2.34 -6.728,2.34 -6.728,2.34 6.728,-7.02 6.728,-16.964 6.728,-16.964 -4.095,7.897 -10.53,9.067 -10.53,9.067 l 0.585,-7.897 c -11.897,8.652 -11.048,18.785 -10.851,20.27 -0.268,-1.894 -2.387,-16.713 -3.481,-20.27 -1.17,-3.802 1.462,-11.407 5.557,-10.238 13.255,3.787 16.38,-5.849 16.38,-5.849 -7.02,3.218 -11.115,0.877 -11.115,0.877 9.067,-8.775 5.265,-16.964 5.265,-16.964 -2.925,8.482 -11.115,9.945 -11.115,9.945 l -0.292,-9.359 c -3.802,2.048 -7.313,11.115 -7.313,11.115 0,0 -0.877,-7.313 1.754,-13.748 2.633,-6.435 9.359,-3.218 9.359,-3.218 11.992,2.34 15.795,-9.067 15.795,-9.067 l -7.897,1.17 c 8.775,-6.435 6.143,-14.333 6.143,-14.333 -2.048,4.972 -9.359,5.85 -9.359,5.85 l 3.51,-9.359 c -7.605,0 -11.992,9.945 -11.992,9.945 l -0.585,-9.652 c 3.51,-12.577 -4.68,-18.135 -4.68,-18.135 -1.754,2.34 -0.877,7.313 -0.877,7.313 -7.313,-6.435 -12.87,1.17 -12.87,1.17 5.557,5.849 10.823,5.265 10.823,5.265 -1.754,1.17 -8.19,1.754 -8.19,1.754 7.313,6.143 11.407,4.972 11.407,4.972 3.51,14.918 -5.85,21.645 -5.85,21.645 -1.754,-11.115 -8.482,-16.38 -8.482,-16.38 l 0.292,7.313 c -4.387,-2.633 -7.897,-10.53 -7.897,-10.53 -2.925,11.115 4.972,20.767 4.972,20.767 l -7.313,-0.585 c 6.435,14.918 16.672,10.238 16.672,10.238 -0.877,10.53 2.633,27.787 2.633,27.787 -1.462,-1.754 -16.964,-16.38 -16.964,-16.38 -0.585,5.849 4.972,13.454 4.972,13.454 -2.925,-0.585 -11.407,-7.02 -11.407,-7.02 0.877,9.359 13.162,15.502 13.162,15.502 -4.68,0.585 -13.748,-4.68 -13.748,-4.68 5.265,22.522 24.569,12.577 24.569,12.577 l 1.481,30.464 c -4.078,-0.979 -12.995,-3.252 -22.248,-6.479 -12.577,-4.387 -20.767,-31.297 -20.767,-31.297 l -4.68,10.823 c -1.17,-22.815 -2.633,-35.1 -2.633,-35.1 l -6.728,7.313 c 6.435,-17.257 11.7,-32.467 11.7,-32.467 l -8.19,3.51 c 16.087,-16.38 15.502,-24.862 15.502,-24.862 -3.218,4.972 -11.7,9.945 -11.7,9.945 2.048,-7.897 8.482,-16.087 16.38,-16.672 7.898,-0.585 16.672,-2.925 16.672,-2.925 -5.265,-0.585 -7.897,-2.925 -7.897,-2.925 22.815,-2.048 25.154,-8.19 25.154,-8.19 -3.51,0.877 -14.333,-0.292 -14.333,-0.292 9.067,-4.972 23.985,-9.652 23.985,-9.652 -18.428,-3.218 -34.222,7.313 -34.222,7.313 2.633,-4.972 7.313,-10.53 7.313,-10.53 -22.522,9.945 -33.053,32.467 -33.053,32.467 -2.633,-9.359 3.607,-20.474 3.607,-20.474 -15.99,8.97 -14.43,44.167 -14.43,44.167 -4.095,-11.115 -3.802,-22.23 -3.802,-22.23 -9.359,13.162 -2.048,44.459 -2.048,44.459 -4.095,-3.51 -6.143,-12.285 -6.143,-12.285 -3.51,21.645 13.162,43.874 13.162,43.874 -7.605,-4.095 -18.428,-18.135 -18.428,-18.135 7.02,27.202 31.882,36.269 31.882,36.269 -13.748,-5.265 -19.597,-0.877 -19.597,-0.877 9.652,2.048 19.012,7.897 26.617,13.454 7.605,5.557 17.843,6.728 26.91,7.897 3.746,0.483 6.85,1.113 9.254,1.689 -4.956,2.425 -8.376,7.502 -8.376,13.391 h 29.835 c 0,-5.667 -3.16,-10.596 -7.815,-13.121 2.996,-0.641 6.987,-1.4 11.325,-1.96 9.067,-1.17 18.54,-3.577 26.91,-7.897 9.067,-4.68 16.964,-11.407 26.617,-13.454 0.008,-0.002 -5.843,-4.39 -19.589,0.876 z"
   id="path16" />
<g
   id="g18">
</g>
<g
   id="g20">
</g>
<g
   id="g22">
</g>
<g
   id="g24">
</g>
<g
   id="g26">
</g>
<g
   id="g28">
</g>
<g
   id="g30">
</g>
<g
   id="g32">
</g>
<g
   id="g34">
</g>
<g
   id="g36">
</g>
<g
   id="g38">
</g>
<g
   id="g40">
</g>
<g
   id="g42">
</g>
<g
   id="g44">
</g>
<g
   id="g46">
</g>
</svg>
