<?xml version="1.0" encoding="UTF-8" standalone="no"?>
<svg
   xmlns:dc="http://purl.org/dc/elements/1.1/"
   xmlns:cc="http://creativecommons.org/ns#"
   xmlns:rdf="http://www.w3.org/1999/02/22-rdf-syntax-ns#"
   xmlns:svg="http://www.w3.org/2000/svg"
   xmlns="http://www.w3.org/2000/svg"
   xmlns:sodipodi="http://sodipodi.sourceforge.net/DTD/sodipodi-0.dtd"
   xmlns:inkscape="http://www.inkscape.org/namespaces/inkscape"
   version="1.1"
   id="Layer_1"
   x="0px"
   y="0px"
   viewBox="0 0 512 335.45001"
   xml:space="preserve"
   sodipodi:docname="ceuta.svg"
   width="512"
   height="335.45001"
   inkscape:version="1.0.1 (c497b03c, 2020-09-10)"><metadata
   id="metadata772"><rdf:RDF><cc:Work
       rdf:about=""><dc:format>image/svg+xml</dc:format><dc:type
         rdf:resource="http://purl.org/dc/dcmitype/StillImage" /><dc:title></dc:title></cc:Work></rdf:RDF></metadata><defs
   id="defs770" /><sodipodi:namedview
   pagecolor="#ffffff"
   bordercolor="#666666"
   borderopacity="1"
   objecttolerance="10"
   gridtolerance="10"
   guidetolerance="10"
   inkscape:pageopacity="0"
   inkscape:pageshadow="2"
   inkscape:window-width="1797"
   inkscape:window-height="983"
   id="namedview768"
   showgrid="false"
   inkscape:zoom="1.4182101"
   inkscape:cx="256"
   inkscape:cy="256"
   inkscape:window-x="0"
   inkscape:window-y="23"
   inkscape:window-maximized="0"
   inkscape:current-layer="Layer_1" />
<path
   style="fill:#f5f5f5"
   d="M 473.651,0 H 38.292 C 17.807,0 1.077,16.06 0,36.277 V 299.21 c 1.077,20.215 17.807,36.277 38.292,36.277 h 435.359 c 21.18,0 38.349,-17.169 38.349,-38.349 V 38.349 C 512,17.169 494.831,0 473.651,0 Z"
   id="path649" />
<g
   id="g659"
   transform="translate(0,-88.256)">
	<path
   style="fill:#464655"
   d="m 38.292,88.256 c -9.375,0 -17.961,3.368 -24.623,8.955 l 242.36,158.788 V 88.256 Z"
   id="path651" />
	<path
   style="fill:#464655"
   d="M 498.323,97.255 256.029,255.999 H 512 V 126.605 c 0,-11.78 -5.317,-22.316 -13.677,-29.35 z"
   id="path653" />
	<path
   style="fill:#464655"
   d="m 0,387.465 c 0.584,10.964 5.775,20.701 13.669,27.321 L 256.029,255.999 H 0 Z"
   id="path655" />
	<path
   style="fill:#464655"
   d="m 473.651,423.742 c 9.399,0 18.003,-3.387 24.673,-8.999 L 256.029,255.999 v 167.743 z"
   id="path657" />
</g>
<path
   style="fill:#ff4b55"
   d="m 277.217,155.383 v 28.251 c 0,11.684 -9.505,21.189 -21.189,21.189 -11.684,0 -21.189,-9.505 -21.189,-21.189 v -28.251 h 42.378 m 7.063,-14.126 h -56.503 c -3.901,0 -7.063,3.162 -7.063,7.063 v 35.314 c 0,19.503 15.811,35.314 35.314,35.314 19.503,0 35.314,-15.811 35.314,-35.314 V 148.32 c 0.001,-3.901 -3.161,-7.063 -7.062,-7.063 z"
   id="path661" />
<path
   style="fill:#f5f5f5"
   d="m 277.217,155.383 v 28.251 c 0,11.684 -9.505,21.189 -21.189,21.189 -11.684,0 -21.189,-9.505 -21.189,-21.189 v -28.251 h 42.378"
   id="path663" />
<g
   id="g681"
   transform="translate(0,-88.256)">
	<circle
   style="fill:#ffe15a"
   cx="227.72"
   cy="236.569"
   r="3.5309999"
   id="circle665" />
	<circle
   style="fill:#ffe15a"
   cx="284.23001"
   cy="236.569"
   r="3.5309999"
   id="circle667" />
	<circle
   style="fill:#ffe15a"
   cx="227.72"
   cy="264.819"
   r="3.5309999"
   id="circle669" />
	<circle
   style="fill:#ffe15a"
   cx="284.23001"
   cy="264.819"
   r="3.5309999"
   id="circle671" />
	<circle
   style="fill:#ffe15a"
   cx="255.97"
   cy="236.569"
   r="3.5309999"
   id="circle673" />
	<circle
   style="fill:#ffe15a"
   cx="255.97"
   cy="300.42899"
   r="3.5309999"
   id="circle675" />
	<circle
   style="fill:#ffe15a"
   cx="277.17001"
   cy="290.86899"
   r="3.5309999"
   id="circle677" />
	<circle
   style="fill:#ffe15a"
   cx="235.17999"
   cy="290.86899"
   r="3.5309999"
   id="circle679" />
</g>
<g
   id="g693"
   transform="translate(0,-88.256)">
	<path
   style="fill:#41479b"
   d="m 260.591,263.038 v 6.082 c 0,2.515 -2.046,4.561 -4.561,4.561 -2.515,0 -4.561,-2.046 -4.561,-4.561 v -6.082 h 9.122"
   id="path683" />
	<path
   style="fill:#41479b"
   d="m 260.591,248.617 v 6.082 c 0,2.515 -2.046,4.561 -4.561,4.561 -2.515,0 -4.561,-2.046 -4.561,-4.561 v -6.082 h 9.122"
   id="path685" />
	<path
   style="fill:#41479b"
   d="m 260.591,277.605 v 6.082 c 0,2.515 -2.046,4.561 -4.561,4.561 -2.515,0 -4.561,-2.046 -4.561,-4.561 v -6.082 h 9.122"
   id="path687" />
	<path
   style="fill:#41479b"
   d="m 272.877,263.038 v 6.082 c 0,2.515 -2.046,4.561 -4.561,4.561 -2.515,0 -4.562,-2.046 -4.562,-4.561 v -6.082 h 9.123"
   id="path689" />
	<path
   style="fill:#41479b"
   d="m 248.304,263.038 v 6.082 c 0,2.515 -2.046,4.561 -4.561,4.561 -2.515,0 -4.561,-2.046 -4.561,-4.561 v -6.082 h 9.122"
   id="path691" />
</g>
<path
   style="fill:#ffe15a"
   d="m 290.22,141.257 h -68.032 c -2.294,0 -4.155,-1.861 -4.155,-4.155 v -2.597 c 0,-2.294 1.861,-4.155 4.155,-4.155 h 68.032 c 2.294,0 4.155,1.861 4.155,4.155 v 2.597 c 0,2.296 -1.861,4.155 -4.155,4.155 z"
   id="path695" />
<polygon
   style="fill:#ff4b55"
   points="256.203,226.786 261.657,224.061 256.203,221.335 250.75,224.061 "
   id="polygon697"
   transform="translate(0,-88.256)" />
<g
   id="g703"
   transform="translate(0,-88.256)">
	<ellipse
   style="fill:#4173cd"
   cx="273.92999"
   cy="224.05901"
   rx="4.0900002"
   ry="2.727"
   id="ellipse699" />
	<ellipse
   style="fill:#4173cd"
   cx="238.48"
   cy="224.05901"
   rx="4.0900002"
   ry="2.727"
   id="ellipse701" />
</g>
<g
   id="g713"
   transform="translate(0,-88.256)">
	<circle
   style="fill:#f5f5f5"
   cx="265.75"
   cy="224.05901"
   r="1.363"
   id="circle705" />
	<circle
   style="fill:#f5f5f5"
   cx="282.10999"
   cy="224.05901"
   r="1.363"
   id="circle707" />
	<circle
   style="fill:#f5f5f5"
   cx="246.66"
   cy="224.05901"
   r="1.363"
   id="circle709" />
	<circle
   style="fill:#f5f5f5"
   cx="230.3"
   cy="224.05901"
   r="1.363"
   id="circle711" />
</g>
<g
   id="g719"
   transform="translate(0,-88.256)">
	<polygon
   style="fill:#ff4b55"
   points="220.76,226.786 226.212,224.061 220.76,221.335 218.033,222.697 218.033,225.423 "
   id="polygon715" />
	<polygon
   style="fill:#ff4b55"
   points="291.648,221.335 286.195,224.061 291.648,226.786 294.375,225.423 294.375,222.697 "
   id="polygon717" />
</g>
<g
   id="g725"
   transform="translate(0,-88.256)">
	<path
   style="fill:#f5f5f5"
   d="m 238.059,200.872 c -0.87,-0.428 -1.904,-0.164 -2.774,0.509 0.447,-0.661 0.703,-1.543 0.654,-2.502 -0.099,-1.95 -1.399,-3.47 -2.902,-3.392 -1.504,0.076 -2.642,1.719 -2.544,3.669 0.053,1.036 0.457,1.928 1.038,2.546 -1.174,-0.573 -2.459,-0.518 -3.243,0.268 -1.065,1.064 -0.809,3.047 0.573,4.428 1.381,1.382 3.364,1.638 4.429,0.573 0.297,-0.297 0.468,-0.673 0.563,-1.081 0.217,0.571 0.552,1.065 1.083,1.326 1.351,0.665 3.145,-0.215 4.008,-1.967 0.861,-1.752 0.466,-3.711 -0.885,-4.377 z m -4.008,1.967 c -0.2,0.406 -0.317,0.822 -0.386,1.232 -0.203,-0.537 -0.489,-1.067 -0.949,-1.528 -0.079,-0.079 -0.175,-0.117 -0.259,-0.19 0.299,0.124 0.61,0.212 0.939,0.195 0.441,-0.023 0.833,-0.211 1.19,-0.47 -0.19,0.24 -0.39,0.468 -0.535,0.761 z"
   id="path721" />
	<path
   style="fill:#f5f5f5"
   d="m 273.115,205.249 c 0.863,1.751 2.657,2.632 4.008,1.967 0.531,-0.262 0.865,-0.757 1.083,-1.326 0.096,0.407 0.266,0.784 0.563,1.081 1.065,1.065 3.047,0.809 4.429,-0.573 1.381,-1.381 1.638,-3.364 0.573,-4.428 -0.786,-0.786 -2.069,-0.841 -3.243,-0.268 0.582,-0.618 0.985,-1.51 1.038,-2.546 0.099,-1.95 -1.04,-3.593 -2.544,-3.669 -1.504,-0.076 -2.803,1.442 -2.902,3.392 -0.049,0.96 0.207,1.841 0.654,2.502 -0.871,-0.673 -1.905,-0.937 -2.774,-0.509 -1.353,0.666 -1.748,2.625 -0.885,4.377 z m 4.357,-3.172 c 0.356,0.26 0.748,0.448 1.19,0.47 0.329,0.017 0.64,-0.072 0.939,-0.195 -0.083,0.072 -0.18,0.11 -0.259,0.19 -0.46,0.46 -0.746,0.991 -0.949,1.528 -0.068,-0.409 -0.185,-0.827 -0.386,-1.232 -0.144,-0.292 -0.345,-0.52 -0.535,-0.761 z"
   id="path723" />
</g>
<path
   style="fill:#ffe15a"
   d="m 305.789,104.607 c -3.928,-1.398 -12.189,-2.146 -15.334,4.993 -0.607,1.379 0.018,2.987 1.395,3.594 1.332,0.588 2.863,0.006 3.514,-1.281 l 1.027,1.217 c -0.86,2.416 -1.205,4.579 -1.302,5.323 -1.403,5.815 -6.801,6.446 -9.07,6.446 -3.659,0 -5.729,-3.922 -5.749,-3.962 -0.373,-0.722 -1.054,-1.246 -1.85,-1.419 -0.798,-0.173 -1.63,0.011 -2.269,0.511 -1.494,1.174 -6.141,4.346 -9.647,4.904 -1.691,0.271 -3.07,-0.011 -4.002,-0.809 -0.755,-0.644 -1.022,-1.453 -1.022,-1.951 0,-1.222 1.503,-2.727 2.727,-2.727 0.927,0 1.282,0.594 1.282,0.594 0.647,1.368 2.273,1.947 3.633,1.304 1.362,-0.647 1.942,-2.271 1.298,-3.632 -0.529,-1.118 -1.986,-2.843 -4.38,-3.467 1.454,-2.309 2.791,-5.114 3.621,-8.431 l -8.18,-2.727 c 0,0 2.727,-8.18 -5.453,-8.18 -8.18,0 -5.453,8.18 -5.453,8.18 l -8.18,2.727 c 0.83,3.317 2.165,6.124 3.62,8.431 -2.394,0.625 -3.851,2.35 -4.38,3.467 -0.644,1.361 -0.064,2.985 1.298,3.632 1.36,0.641 2.986,0.064 3.631,-1.299 0,0 0.359,-0.599 1.285,-0.599 1.224,0 2.727,1.504 2.727,2.727 0,0.498 -0.267,1.308 -1.022,1.951 -0.931,0.799 -2.311,1.081 -4.002,0.809 -3.507,-0.56 -8.154,-3.73 -9.647,-4.904 -0.639,-0.501 -1.471,-0.684 -2.269,-0.511 -0.795,0.173 -1.477,0.697 -1.85,1.419 -0.02,0.04 -2.089,3.962 -5.749,3.962 -2.269,0 -7.667,-0.631 -9.07,-6.446 -0.096,-0.744 -0.441,-2.906 -1.301,-5.323 l 1.027,-1.217 c 0.651,1.288 2.182,1.869 3.514,1.281 1.378,-0.607 2.002,-2.215 1.395,-3.594 -3.144,-7.138 -11.407,-6.39 -15.334,-4.993 -1.125,0.399 -1.86,1.483 -1.813,2.676 0.045,1.193 0.863,2.215 2.015,2.527 3.34,0.897 4.839,7.282 5.101,9.447 0.012,0.093 0.03,0.192 0.05,0.285 1.524,6.667 7.05,10.811 14.416,10.811 4.223,0 7.142,-2.391 8.837,-4.372 2.388,1.574 6.232,3.768 9.82,4.337 0.689,0.109 1.362,0.166 2.02,0.166 2.463,0 4.679,-0.759 6.38,-2.21 1.839,-1.568 2.936,-3.85 2.936,-6.099 0,2.25 1.097,4.531 2.935,6.099 1.699,1.451 3.917,2.21 6.38,2.21 0.658,0 1.331,-0.056 2.02,-0.166 3.588,-0.569 7.431,-2.763 9.82,-4.337 1.695,1.981 4.614,4.372 8.837,4.372 7.367,0 12.892,-4.143 14.416,-10.811 0.02,-0.093 0.038,-0.192 0.05,-0.285 0.26,-2.165 1.76,-8.549 5.1,-9.447 1.153,-0.311 1.97,-1.334 2.015,-2.527 0.045,-1.193 -0.69,-2.277 -1.814,-2.676 z"
   id="path727" />
<g
   id="g735"
   transform="translate(0,-88.256)">
	
		<ellipse
   transform="matrix(-0.9237,0.3831,-0.3831,-0.9237,481.9169,308.5448)"
   style="fill:#4173cd"
   cx="210.235"
   cy="202.259"
   rx="2.727"
   ry="4.0900002"
   id="ellipse729" />
	
		<ellipse
   transform="matrix(0.9237,0.3831,-0.3831,0.9237,100.5081,-100.1971)"
   style="fill:#4173cd"
   cx="301.81799"
   cy="202.246"
   rx="2.727"
   ry="4.0900002"
   id="ellipse731" />
	<ellipse
   style="fill:#4173cd"
   cx="256.03"
   cy="199.52901"
   rx="4.0900002"
   ry="5.4530001"
   id="ellipse733" />
</g>
<g
   id="g737">
</g>
<g
   id="g739">
</g>
<g
   id="g741">
</g>
<g
   id="g743">
</g>
<g
   id="g745">
</g>
<g
   id="g747">
</g>
<g
   id="g749">
</g>
<g
   id="g751">
</g>
<g
   id="g753">
</g>
<g
   id="g755">
</g>
<g
   id="g757">
</g>
<g
   id="g759">
</g>
<g
   id="g761">
</g>
<g
   id="g763">
</g>
<g
   id="g765">
</g>
</svg>
