<?xml version="1.0" encoding="UTF-8" standalone="no"?>
<svg
   xmlns:dc="http://purl.org/dc/elements/1.1/"
   xmlns:cc="http://creativecommons.org/ns#"
   xmlns:rdf="http://www.w3.org/1999/02/22-rdf-syntax-ns#"
   xmlns:svg="http://www.w3.org/2000/svg"
   xmlns="http://www.w3.org/2000/svg"
   xmlns:sodipodi="http://sodipodi.sourceforge.net/DTD/sodipodi-0.dtd"
   xmlns:inkscape="http://www.inkscape.org/namespaces/inkscape"
   version="1.1"
   id="Layer_1"
   x="0px"
   y="0px"
   viewBox="0 0 512 335.45001"
   xml:space="preserve"
   sodipodi:docname="balearic-islands.svg"
   width="512"
   height="335.45001"
   inkscape:version="1.0.1 (c497b03c, 2020-09-10)"><metadata
   id="metadata157"><rdf:RDF><cc:Work
       rdf:about=""><dc:format>image/svg+xml</dc:format><dc:type
         rdf:resource="http://purl.org/dc/dcmitype/StillImage" /><dc:title></dc:title></cc:Work></rdf:RDF></metadata><defs
   id="defs155" /><sodipodi:namedview
   pagecolor="#ffffff"
   bordercolor="#666666"
   borderopacity="1"
   objecttolerance="10"
   gridtolerance="10"
   guidetolerance="10"
   inkscape:pageopacity="0"
   inkscape:pageshadow="2"
   inkscape:window-width="1797"
   inkscape:window-height="983"
   id="namedview153"
   showgrid="false"
   inkscape:zoom="1.640625"
   inkscape:cx="256"
   inkscape:cy="256"
   inkscape:window-x="0"
   inkscape:window-y="23"
   inkscape:window-maximized="0"
   inkscape:current-layer="Layer_1" />
<path
   style="fill:#ffe15a"
   d="M 473.655,0.001 H 38.345 C 17.527,0.001 0.597,16.594 0.028,37.273 H 511.974 C 511.403,16.592 494.473,0.001 473.655,0.001 Z"
   id="path98" />
<path
   style="fill:#ff4b55"
   d="m 512,38.346 c 0,-0.36 -0.018,-0.715 -0.028,-1.073 H 0.028 C 0.018,37.631 0,37.986 0,38.346 v 36.199 h 512 z"
   id="path100" />
<rect
   y="74.544998"
   style="fill:#ffe15a"
   width="512"
   height="37.27"
   id="rect102"
   x="0" />
<rect
   y="111.814"
   style="fill:#ff4b55"
   width="512"
   height="37.27"
   id="rect104"
   x="0" />
<g
   id="g110"
   transform="translate(0,-88.276)">
	<rect
   y="237.36099"
   style="fill:#ffe15a"
   width="512"
   height="37.27"
   id="rect106"
   x="0" />
	<path
   style="fill:#ffe15a"
   d="m 38.345,423.724 h 435.31 c 20.818,0 37.748,-16.593 38.317,-37.272 H 0.028 c 0.569,20.681 17.499,37.272 38.317,37.272 z"
   id="path108" />
</g>
<rect
   y="186.36499"
   style="fill:#ff4b55"
   width="512"
   height="37.27"
   id="rect112"
   x="0" />
<rect
   y="223.63501"
   style="fill:#ffe15a"
   width="512"
   height="37.27"
   id="rect114"
   x="0" />
<path
   style="fill:#ff4b55"
   d="m 511.972,298.177 c 0.01,-0.358 0.028,-0.713 0.028,-1.073 v -36.2 H 0 v 36.199 c 0,0.36 0.018,0.715 0.028,1.073 h 511.944 z"
   id="path116" />
<path
   style="fill:#64466e"
   d="m 8.828,167.724 h 238.345 c 4.875,0 8.828,-3.953 8.828,-8.828 V 8.828 c 0,-4.874 -3.95,-8.825 -8.823,-8.828 H 38.345 C 17.167,0.001 0,17.168 0,38.346 v 120.552 c 0,4.874 3.953,8.826 8.828,8.826 z"
   id="path118" />
<path
   style="fill:#f5f5f5"
   d="M 235.442,74.338 H 215.115 V 51.107 h 2.904 V 45.3 h -2.904 -23.231 -2.904 v 5.807 h 2.904 V 74.338 H 180.269 V 51.107 h 2.903 V 45.3 h -2.904 -23.231 -2.904 v 5.807 h 2.904 V 74.338 H 139.615 V 45.3 h 2.904 V 39.493 H 113.481 V 45.3 h 2.904 V 74.338 H 98.962 V 51.107 h 2.904 V 45.3 h -2.904 -23.23 -2.904 v 5.807 h 2.904 V 74.338 H 64.116 V 51.107 H 67.02 V 45.3 h -2.904 -23.23 -2.904 v 5.807 h 2.904 V 74.338 H 20.559 17.655 v 5.807 h 2.904 v 52.269 h 20.327 20.327 v -17.423 c 0,-3.208 2.6,-5.807 5.807,-5.807 3.208,0 5.807,2.601 5.807,5.807 v 17.423 h 2.904 23.231 2.904 v -17.423 c 0,-3.208 2.6,-5.807 5.807,-5.807 3.207,0 5.807,2.601 5.807,5.807 v 17.423 h 2.904 2.904 v -20.327 c 0,-4.811 3.901,-8.712 8.712,-8.712 4.811,0 8.712,3.901 8.712,8.712 v 20.327 h 2.904 2.904 v -17.423 c 0,-3.208 2.6,-5.807 5.807,-5.807 3.207,0 5.807,2.601 5.807,5.807 v 17.423 h 2.904 23.231 2.9 v -17.423 c 0,-3.208 2.6,-5.807 5.807,-5.807 3.207,0 5.807,2.601 5.807,5.807 v 17.423 h 20.327 20.327 V 80.146 h 2.904 v -5.807 h -2.903 V 74.338 Z M 58.308,97.568 H 46.694 V 80.146 c 0,-3.208 2.6,-5.807 5.807,-5.807 3.207,0 5.807,2.601 5.807,5.807 z m 34.846,0 H 81.539 V 80.146 c 0,-3.208 2.6,-5.807 5.807,-5.807 3.208,0 5.807,2.601 5.807,5.807 z M 133.807,80.145 H 122.192 V 68.53 c 0,-3.208 2.6,-5.807 5.807,-5.807 3.208,0 5.807,2.601 5.807,5.807 z m 40.654,17.423 H 162.846 V 80.146 c 0,-3.208 2.6,-5.807 5.807,-5.807 3.208,0 5.807,2.601 5.807,5.807 z m 34.845,0 H 197.691 V 80.146 c 0,-3.208 2.6,-5.807 5.807,-5.807 3.207,0 5.807,2.601 5.807,5.807 z"
   id="path120" />
<g
   id="g122">
</g>
<g
   id="g124">
</g>
<g
   id="g126">
</g>
<g
   id="g128">
</g>
<g
   id="g130">
</g>
<g
   id="g132">
</g>
<g
   id="g134">
</g>
<g
   id="g136">
</g>
<g
   id="g138">
</g>
<g
   id="g140">
</g>
<g
   id="g142">
</g>
<g
   id="g144">
</g>
<g
   id="g146">
</g>
<g
   id="g148">
</g>
<g
   id="g150">
</g>
</svg>
