<?xml version="1.0" encoding="UTF-8" standalone="no"?>
<svg
   xmlns:dc="http://purl.org/dc/elements/1.1/"
   xmlns:cc="http://creativecommons.org/ns#"
   xmlns:rdf="http://www.w3.org/1999/02/22-rdf-syntax-ns#"
   xmlns:svg="http://www.w3.org/2000/svg"
   xmlns="http://www.w3.org/2000/svg"
   xmlns:sodipodi="http://sodipodi.sourceforge.net/DTD/sodipodi-0.dtd"
   xmlns:inkscape="http://www.inkscape.org/namespaces/inkscape"
   version="1.1"
   id="Layer_1"
   x="0px"
   y="0px"
   viewBox="0 0 512 335.45001"
   xml:space="preserve"
   sodipodi:docname="es-ml.svg"
   width="512"
   height="335.45001"
   inkscape:version="1.0.1 (c497b03c, 2020-09-10)"><metadata
   id="metadata217"><rdf:RDF><cc:Work
       rdf:about=""><dc:format>image/svg+xml</dc:format><dc:type
         rdf:resource="http://purl.org/dc/dcmitype/StillImage" /><dc:title></dc:title></cc:Work></rdf:RDF></metadata><defs
   id="defs215" /><sodipodi:namedview
   pagecolor="#ffffff"
   bordercolor="#666666"
   borderopacity="1"
   objecttolerance="10"
   gridtolerance="10"
   guidetolerance="10"
   inkscape:pageopacity="0"
   inkscape:pageshadow="2"
   inkscape:window-width="920"
   inkscape:window-height="480"
   id="namedview213"
   showgrid="false"
   inkscape:zoom="1.640625"
   inkscape:cx="256"
   inkscape:cy="256"
   inkscape:window-x="0"
   inkscape:window-y="23"
   inkscape:window-maximized="0"
   inkscape:current-layer="Layer_1" />
<path
   style="fill:#4173cd;stroke-width:0.999999"
   d="M 473.655,335.448 H 38.345 C 17.167,335.448 0,318.28099 0,297.10299 V 38.345 C 0,17.168 17.167,0 38.345,0 h 435.31 C 494.832,0 512,17.167 512,38.345 v 258.75899 c 0,21.177 -17.167,38.34401 -38.345,38.34401 z"
   id="path10" />
<path
   style="fill:#73af00;stroke-width:0.999999"
   d="m 216.518,255.99899 c -0.742,13.18801 7.988,14.813 12.717,14.884 4.729,0.071 11.895,2.15 18.56,3.511 6.665,1.362 8.814,-4.157 8.814,-4.157 3.942,5.16 7.787,3.584 7.787,3.584 3.153,-3.153 11.562,-4.73 14.858,-4.946 3.296,-0.215 2.508,-4.729 2.508,-4.729 3.454,-1.921 5.791,-4.122 7.462,-6.34699 0.072,0.032 0.135,0.082 0.206,0.11299 5.661,2.436 10.033,-2.72299 10.964,-4.658 0.576,-1.197 1.631,-1.726 2.385,-1.984 l 0.267,2.987 c 2.436,-3.511 7.74,-2.22099 7.74,-2.22099 -5.447,-8.38401 -10.964,-4.51401 -10.964,-4.51401 l 2.138,2.031 c -3.244,1.635 -5.17,8.10801 -9.949,6.21 -0.408,-0.162 -0.754,-0.395 -1.118,-0.609 1.929,-3.82499 1.992,-7.433 1.476,-9.495 -0.931,-3.726 -6.665,-4.586 -9.459,-0.788 -1.953,2.655 -0.717,6.756 2.114,9.832 -1.495,1.043 -3.404,2.013 -5.911,2.709 -7.74,2.15 -19.349,-8.026 -27.374,-8.456 -8.026,-0.42999 -15.049,6.30601 -19.062,10.606 -4.013,4.3 -9.398,0.491 -9.316,-2.293 M 286.778,246.374 c 1.505,-0.64401 2.15,0.50199 2.365,2.36499 0.09,0.781 -0.339,2.059 -1.391,3.432 -1.658,-2.549 -1.929,-5.386 -0.974,-5.79699 z"
   id="path12" />
<g
   id="g32"
   transform="translate(0,-88.276)">
	<polygon
   style="fill:#f5f5f5"
   points="239.247,360.181 234.968,362.383 236.163,359.426 "
   id="polygon14" />
	<polygon
   style="fill:#f5f5f5"
   points="235.255,359.16 231.299,361.196 232.404,358.463 "
   id="polygon16" />
	<polygon
   style="fill:#f5f5f5"
   points="231.565,358.417 228.641,360.066 229.396,357.973 "
   id="polygon18" />
	<polygon
   style="fill:#f5f5f5"
   points="264.396,362.098 259.738,363.309 261.554,360.685 "
   id="polygon20" />
	<polygon
   style="fill:#f5f5f5"
   points="261.162,360.374 256.823,361.357 258.577,358.986 "
   id="polygon22" />
	<polygon
   style="fill:#f5f5f5"
   points="258.135,358.786 255.158,360.334 255.982,358.269 "
   id="polygon24" />
	
		<ellipse
   transform="matrix(-0.8179,0.5754,-0.5754,-0.8179,476.0892,253.3394)"
   style="fill:#f5f5f5"
   cx="197.952"
   cy="202.01401"
   rx="2.02"
   ry="2.6370001"
   id="ellipse26" />
	
		<ellipse
   transform="matrix(0.8179,0.5754,-0.5754,0.8179,173.4321,-143.9078)"
   style="fill:#f5f5f5"
   cx="314.048"
   cy="202.017"
   rx="2.02"
   ry="2.6370001"
   id="ellipse28" />
	<path
   style="fill:#f5f5f5"
   d="m 283.693,245.695 v 51.433 c 0,15.271 -12.424,27.694 -27.694,27.694 -15.27,0 -27.694,-12.424 -27.694,-27.694 v -51.433 h 55.388 m 15.826,-19.782 h -87.04 c -2.185,0 -3.956,1.771 -3.956,3.956 v 67.258 c 0,26.22 21.256,47.477 47.476,47.477 26.22,0 47.476,-21.256 47.476,-47.477 v -67.258 c 0,-2.185 -1.771,-3.956 -3.956,-3.956 z"
   id="path30" />
</g>
<g
   id="g50"
   transform="translate(0,-88.276)">
	<path
   style="fill:#ff4b55"
   d="m 228.305,245.695 h -19.782 v -10.954 c 0,-4.875 3.953,-8.828 8.828,-8.828 h 10.954 z"
   id="path34" />
	<rect
   x="246.10001"
   y="225.91"
   style="fill:#ff4b55"
   width="19.782"
   height="19.782"
   id="rect36" />
	<rect
   x="208.52"
   y="265.48001"
   style="fill:#ff4b55"
   width="19.782"
   height="19.782"
   id="rect38" />
	<rect
   x="283.70001"
   y="265.48001"
   style="fill:#ff4b55"
   width="19.782"
   height="19.782"
   id="rect40" />
	<path
   style="fill:#ff4b55"
   d="m 303.475,245.695 h -19.781 v -19.782 h 10.954 c 4.875,0 8.828,3.953 8.828,8.828 v 10.954 z"
   id="path42" />
	<path
   style="fill:#ff4b55"
   d="m 272.83,341.478 -7.611,-18.267 c -2.889,1.025 -5.984,1.611 -9.219,1.611 -3.235,0 -6.33,-0.587 -9.219,-1.611 l -7.61,18.267 c 5.238,1.99 10.895,3.127 16.83,3.127 5.935,0 11.591,-1.139 16.829,-3.127 z"
   id="path44" />
	<path
   style="fill:#ff4b55"
   d="m 220.977,329.102 15.473,-12.377 c -3.915,-3.906 -6.648,-8.981 -7.677,-14.643 l -19.071,5.449 c 1.835,8.201 5.8,15.578 11.275,21.571 z"
   id="path46" />
	<path
   style="fill:#ff4b55"
   d="m 302.296,307.53 -19.071,-5.449 c -1.028,5.662 -3.762,10.737 -7.677,14.643 l 15.473,12.377 c 5.474,-5.992 9.439,-13.369 11.275,-21.571 z"
   id="path48" />
</g>
<g
   id="g62"
   transform="translate(0,-88.276)">
	<rect
   x="214.46001"
   y="229.87"
   style="fill:#ffe15a"
   width="7.9130001"
   height="11.869"
   id="rect52" />
	<rect
   x="214.46001"
   y="269.42999"
   style="fill:#ffe15a"
   width="7.9130001"
   height="11.869"
   id="rect54" />
	<rect
   x="218.42"
   y="309"
   style="fill:#ffe15a"
   width="7.9130001"
   height="11.869"
   id="rect56" />
	<rect
   x="285.67001"
   y="309"
   style="fill:#ffe15a"
   width="7.9130001"
   height="11.869"
   id="rect58" />
	<rect
   x="289.63"
   y="229.87"
   style="fill:#ffe15a"
   width="7.9130001"
   height="11.869"
   id="rect60" />
</g>
<g
   id="g76"
   transform="translate(0,-88.276)">
	<rect
   x="214.46001"
   y="249.52"
   style="fill:#ff4b55"
   width="7.9130001"
   height="11.869"
   id="rect64" />
	<rect
   x="289.63"
   y="249.52"
   style="fill:#ff4b55"
   width="7.9130001"
   height="11.869"
   id="rect66" />
	<rect
   x="214.46001"
   y="288.76001"
   style="fill:#ff4b55"
   width="7.9130001"
   height="11.869"
   id="rect68" />
	<rect
   x="231.50999"
   y="323.75"
   style="fill:#ff4b55"
   width="7.9130001"
   height="11.869"
   id="rect70" />
	<rect
   x="272.56"
   y="323.75"
   style="fill:#ff4b55"
   width="7.9130001"
   height="11.869"
   id="rect72" />
	<rect
   x="289.63"
   y="288.76001"
   style="fill:#ff4b55"
   width="7.9130001"
   height="11.869"
   id="rect74" />
</g>
<rect
   x="252.03999"
   y="141.59399"
   style="fill:#ffe15a;stroke-width:0.999999"
   width="7.9130001"
   height="11.869"
   id="rect78" />
<g
   id="g84"
   transform="translate(0,-88.276)">
	<rect
   x="233.25"
   y="229.87"
   style="fill:#ff4b55"
   width="7.9130001"
   height="11.869"
   id="rect80" />
	<rect
   x="270.51001"
   y="229.87"
   style="fill:#ff4b55"
   width="7.9130001"
   height="11.869"
   id="rect82" />
</g>
<g
   id="g92"
   transform="translate(0,-88.276)">
	<rect
   x="289.63"
   y="269.42999"
   style="fill:#ffe15a"
   width="7.9130001"
   height="11.869"
   id="rect86" />
	<rect
   x="252.03999"
   y="328.78"
   style="fill:#ffe15a"
   width="7.9130001"
   height="11.869"
   id="rect88" />
	<path
   style="fill:#ffe15a"
   d="m 255.999,253.237 c 7.636,0 13.847,6.211 13.847,13.847 0,7.636 -6.212,13.847 -13.847,13.847 -7.636,0 -13.847,-6.211 -13.847,-13.847 0,-7.636 6.211,-13.847 13.847,-13.847 m 0,-1.979 c -8.74,0 -15.826,7.085 -15.826,15.826 0,8.741 7.085,15.826 15.826,15.826 8.74,0 15.826,-7.085 15.826,-15.826 0,-8.74 -7.086,-15.826 -15.826,-15.826 z"
   id="path90" />
</g>
<g
   id="g98"
   transform="translate(0,-88.276)">
	<path
   style="fill:#73af00"
   d="m 253.609,265.972 c -3.924,0 -6.374,1.105 -7.907,2.477 0.63,-3.107 1.941,-6.434 4.692,-6.434 0.546,0 0.989,-0.445 0.989,-0.989 0,-0.545 -0.442,-0.989 -0.989,-0.989 -2.728,0 -4.425,1.9 -5.487,4.284 -0.652,-12.974 -2.667,-13.023 -3.414,-13.023 -0.546,0 -0.989,0.445 -0.989,0.989 0,0.476 0.332,0.87 0.779,0.966 0.413,0.494 0.767,2.158 1.054,4.465 -1.28,-2.718 -3.14,-4.689 -5.871,-4.689 -0.546,0 -0.989,0.445 -0.989,0.989 0,0.544 0.442,0.989 0.989,0.989 2.701,0 4.36,3.295 5.35,7.254 -1.898,-2.707 -4.762,-4.696 -8.975,-4.696 -0.546,0 -0.989,0.445 -0.989,0.989 0,0.544 0.442,0.989 0.989,0.989 4.376,0 6.887,2.524 8.335,5.441 -1.697,-1.437 -4.117,-2.474 -7.594,-2.474 -0.546,0 -0.989,0.445 -0.989,0.989 0,0.544 0.442,0.989 0.989,0.989 9.411,0 9.559,8.855 9.56,9.234 0,0.143 0.098,0.245 0.153,0.369 0.05,0.108 0.052,0.242 0.135,0.324 l 0.002,0.003 c 0.179,0.179 0.426,0.29 0.698,0.29 h 0.002 c 0.102,-0.001 0.168,-0.079 0.26,-0.108 0.302,-0.094 0.51,-0.299 0.61,-0.598 0.033,-0.097 0.116,-0.167 0.117,-0.275 0.004,-0.236 0.17,-5.777 8.49,-5.777 0.546,0 0.989,-0.445 0.989,-0.989 10e-4,-0.546 -0.442,-0.989 -0.989,-0.989 z"
   id="path94" />
	<path
   style="fill:#73af00"
   d="m 258.472,265.972 c 3.924,0 6.374,1.105 7.907,2.477 -0.63,-3.107 -1.941,-6.434 -4.692,-6.434 -0.546,0 -0.989,-0.445 -0.989,-0.989 0,-0.545 0.443,-0.989 0.989,-0.989 2.728,0 4.425,1.9 5.487,4.284 0.652,-12.974 2.667,-13.023 3.414,-13.023 0.546,0 0.989,0.445 0.989,0.989 0,0.476 -0.332,0.87 -0.779,0.966 -0.413,0.494 -0.767,2.158 -1.054,4.465 1.28,-2.718 3.14,-4.689 5.871,-4.689 0.546,0 0.989,0.445 0.989,0.989 0,0.544 -0.443,0.989 -0.989,0.989 -2.701,0 -4.36,3.295 -5.35,7.254 1.898,-2.707 4.762,-4.696 8.975,-4.696 0.546,0 0.989,0.445 0.989,0.989 0,0.544 -0.442,0.989 -0.989,0.989 -4.376,0 -6.887,2.524 -8.335,5.441 1.697,-1.437 4.117,-2.474 7.594,-2.474 0.546,0 0.989,0.445 0.989,0.989 0,0.544 -0.442,0.989 -0.989,0.989 -9.411,0 -9.559,8.855 -9.56,9.234 0,0.143 -0.098,0.245 -0.153,0.369 -0.05,0.108 -0.052,0.242 -0.135,0.324 l -0.002,0.003 c -0.179,0.179 -0.426,0.29 -0.698,0.29 h -0.002 c -0.102,-0.001 -0.168,-0.079 -0.26,-0.108 -0.302,-0.094 -0.51,-0.299 -0.61,-0.598 -0.033,-0.097 -0.116,-0.167 -0.117,-0.275 -0.003,-0.236 -0.17,-5.777 -8.49,-5.777 -0.546,0 -0.989,-0.445 -0.989,-0.989 0,-0.546 0.443,-0.989 0.989,-0.989 z"
   id="path96" />
</g>
<path
   style="fill:#ff4b55;stroke-width:0.999999"
   d="m 240.733,182.764 c 1.764,6.81399 7.901,11.86899 15.266,11.86899 7.366,0 13.501,-5.055 15.266,-11.86899 z"
   id="path100" />
<g
   id="g106"
   transform="translate(0,-88.276)">
	<path
   style="fill:#ffe15a"
   d="m 255.999,282.91 c 7.366,0 13.501,-5.055 15.266,-11.869 h -15.266 z"
   id="path102" />
	<path
   style="fill:#ffe15a"
   d="m 255.999,289.091 c 7.636,0 13.847,6.211 13.847,13.847 0,7.636 -6.212,13.847 -13.847,13.847 -7.636,0 -13.847,-6.211 -13.847,-13.847 0,-7.636 6.211,-13.847 13.847,-13.847 m 0,-1.978 c -8.74,0 -15.826,7.085 -15.826,15.826 0,8.741 7.085,15.826 15.826,15.826 8.74,0 15.826,-7.085 15.826,-15.826 0,-8.741 -7.086,-15.826 -15.826,-15.826 z"
   id="path104" />
</g>
<g
   id="g112"
   transform="translate(0,-88.276)">
	<path
   style="fill:#73af00"
   d="m 253.609,301.826 c -3.924,0 -6.374,1.105 -7.907,2.477 0.63,-3.107 1.941,-6.434 4.692,-6.434 0.546,0 0.989,-0.445 0.989,-0.989 0,-0.545 -0.442,-0.989 -0.989,-0.989 -2.728,0 -4.425,1.9 -5.487,4.284 -0.652,-12.974 -2.667,-13.023 -3.414,-13.023 -0.546,0 -0.989,0.445 -0.989,0.989 0,0.476 0.332,0.87 0.779,0.966 0.413,0.494 0.767,2.158 1.054,4.465 -1.28,-2.718 -3.14,-4.689 -5.871,-4.689 -0.546,0 -0.989,0.445 -0.989,0.989 0,0.545 0.442,0.989 0.989,0.989 2.701,0 4.36,3.295 5.35,7.254 -1.898,-2.707 -4.762,-4.696 -8.975,-4.696 -0.546,0 -0.989,0.445 -0.989,0.989 0,0.545 0.442,0.989 0.989,0.989 4.376,0 6.887,2.524 8.335,5.441 -1.697,-1.437 -4.117,-2.474 -7.594,-2.474 -0.546,0 -0.989,0.445 -0.989,0.989 0,0.545 0.442,0.989 0.989,0.989 9.411,0 9.559,8.855 9.56,9.234 0,0.143 0.098,0.245 0.153,0.369 0.05,0.108 0.052,0.242 0.135,0.324 l 0.002,0.003 c 0.179,0.179 0.426,0.29 0.698,0.29 h 0.002 c 0.102,-0.001 0.168,-0.079 0.26,-0.108 0.302,-0.094 0.51,-0.299 0.61,-0.598 0.033,-0.097 0.116,-0.167 0.117,-0.275 0.004,-0.236 0.17,-5.777 8.49,-5.777 0.546,0 0.989,-0.445 0.989,-0.989 10e-4,-0.545 -0.442,-0.989 -0.989,-0.989 z"
   id="path108" />
	<path
   style="fill:#73af00"
   d="m 258.472,301.826 c 3.924,0 6.374,1.105 7.907,2.477 -0.63,-3.107 -1.941,-6.434 -4.692,-6.434 -0.546,0 -0.989,-0.445 -0.989,-0.989 0,-0.545 0.443,-0.989 0.989,-0.989 2.728,0 4.425,1.9 5.487,4.284 0.652,-12.974 2.667,-13.023 3.414,-13.023 0.546,0 0.989,0.445 0.989,0.989 0,0.476 -0.332,0.87 -0.779,0.966 -0.413,0.494 -0.767,2.158 -1.054,4.465 1.28,-2.718 3.14,-4.689 5.871,-4.689 0.546,0 0.989,0.445 0.989,0.989 0,0.545 -0.443,0.989 -0.989,0.989 -2.701,0 -4.36,3.295 -5.35,7.254 1.898,-2.707 4.762,-4.696 8.975,-4.696 0.546,0 0.989,0.445 0.989,0.989 0,0.545 -0.442,0.989 -0.989,0.989 -4.376,0 -6.887,2.524 -8.335,5.441 1.697,-1.437 4.117,-2.474 7.594,-2.474 0.546,0 0.989,0.445 0.989,0.989 0,0.545 -0.442,0.989 -0.989,0.989 -9.411,0 -9.559,8.855 -9.56,9.234 0,0.143 -0.098,0.245 -0.153,0.369 -0.05,0.108 -0.052,0.242 -0.135,0.324 l -0.002,0.003 c -0.179,0.179 -0.426,0.29 -0.698,0.29 h -0.002 c -0.102,-0.001 -0.168,-0.079 -0.26,-0.108 -0.302,-0.094 -0.51,-0.299 -0.61,-0.598 -0.033,-0.097 -0.116,-0.167 -0.117,-0.275 -0.003,-0.236 -0.17,-5.777 -8.49,-5.777 -0.546,0 -0.989,-0.445 -0.989,-0.989 0,-0.545 0.443,-0.989 0.989,-0.989 z"
   id="path110" />
</g>
<path
   style="fill:#ff4b55;stroke-width:0.999999"
   d="m 240.733,218.619 c 1.764,6.81399 7.901,11.86899 15.266,11.86899 7.366,0 13.501,-5.055 15.266,-11.86899 z"
   id="path114" />
<path
   style="fill:#ffe15a;stroke-width:0.999999"
   d="m 255.999,230.48799 c 7.366,0 13.501,-5.055 15.266,-11.86899 h -15.266 z"
   id="path116" />
<g
   id="g122"
   transform="translate(0,-88.276)">
	<polygon
   style="fill:#f5f5f5"
   points="180.828,324.822 180.828,332.735 184.785,332.735 196.653,332.735 200.609,332.735 200.609,324.822 196.653,324.822 196.653,237.782 200.609,237.782 200.609,229.869 180.828,229.869 180.828,237.782 184.785,237.782 184.785,324.822 "
   id="polygon118" />
	<polygon
   style="fill:#f5f5f5"
   points="311.388,324.822 311.388,332.735 315.345,332.735 327.213,332.735 331.17,332.735 331.17,324.822 327.213,324.822 327.213,237.782 331.17,237.782 331.17,229.869 311.388,229.869 311.388,237.782 315.345,237.782 315.345,324.822 "
   id="polygon120" />
</g>
<path
   style="fill:#ffe15a;stroke-width:0.999999"
   d="m 299.519,137.637 h -87.04 c -4.37,0 -7.913,-3.543 -7.913,-7.913 v 0 c 0,-4.37 3.543,-7.913 7.913,-7.913 h 87.04 c 4.37,0 7.913,3.543 7.913,7.913 v 0 c 0,4.37 -3.543,7.913 -7.913,7.913 z"
   id="path124" />
<path
   style="fill:#ff4b55;stroke-width:0.999999"
   d="m 258.966,132.692 h -5.934 c -1.639,0 -2.967,-1.329 -2.967,-2.967 v 0 c 0,-1.639 1.329,-2.967 2.967,-2.967 h 5.934 c 1.639,0 2.967,1.329 2.967,2.967 v 0 c 0,1.638 -1.328,2.967 -2.967,2.967 z"
   id="path126" />
<g
   id="g132"
   transform="translate(0,-88.276)">
	<path
   style="fill:#73af00"
   d="m 288.639,220.968 h -5.934 c -1.639,0 -2.967,-1.329 -2.967,-2.967 v 0 c 0,-1.639 1.329,-2.967 2.967,-2.967 h 5.934 c 1.639,0 2.967,1.329 2.967,2.967 v 0 c 0,1.638 -1.329,2.967 -2.967,2.967 z"
   id="path128" />
	<path
   style="fill:#73af00"
   d="m 229.293,220.968 h -5.934 c -1.639,0 -2.967,-1.329 -2.967,-2.967 v 0 c 0,-1.639 1.329,-2.967 2.967,-2.967 h 5.934 c 1.639,0 2.967,1.329 2.967,2.967 v 0 c 0,1.638 -1.328,2.967 -2.967,2.967 z"
   id="path130" />
</g>
<path
   style="fill:#ffe15a;stroke-width:0.999999"
   d="m 311.554,105.409 -5.77,1.978 0.556,5.504 c -6.372,7.241 -9.57,7.708 -10.887,7.25 -1.63,-0.563 -2.381,-2.886 -2.684,-4.666 l 2.381,2.381 c 11.869,-11.869 5.069,-29.302 5.069,-29.302 -3.338,0.618 -4.822,3.709 -4.822,3.709 -3.091,-0.247 -6.305,0 -6.305,0 -0.247,2.72 0.742,6.552 0.742,6.552 -6.785,1.399 -9.578,5.076 -9.578,5.076 1.164,3.258 4.881,6.051 4.881,6.051 -1.112,2.72 0.247,5.934 0.247,5.934 1.698,0 3.167,-0.512 4.206,-1.014 -4.431,5.524 -6.517,5.656 -7.224,5.39 -2.141,-0.794 -2.684,-7.117 -2.383,-11.353 0.031,-0.433 -0.226,-0.836 -0.631,-0.993 -0.402,-0.151 -0.864,-0.028 -1.134,0.313 l -3.412,4.35 C 260.568,93.6 271.826,82.247 271.826,82.247 v -7.913 h -3.956 v 3.956 h -3.391 v -3.956 h -3.391 v 3.956 h -3.391 v -3.956 h -3.391 v 3.956 h -3.391 v -3.956 h -3.391 v 3.956 h -3.391 v -3.956 h -3.956 v 7.913 c 0,0 11.257,11.351 -2.98,30.322 l -3.412,-4.35 c -0.27,-0.344 -0.733,-0.471 -1.134,-0.313 -0.406,0.157 -0.662,0.561 -0.631,0.993 0.301,4.236 -0.239,10.558 -2.383,11.353 -0.71,0.257 -2.799,0.13 -7.239,-5.409 1.041,0.51 2.522,1.034 4.243,1.034 0,0 1.359,-3.214 0.247,-5.934 0,0 3.716,-2.793 4.881,-6.051 0,0 -2.793,-3.677 -9.578,-5.076 0,0 0.989,-3.832 0.742,-6.552 0,0 -3.214,-0.247 -6.305,0 0,0 -1.484,-3.091 -4.822,-3.709 0,0 -6.801,17.432 5.069,29.302 l 2.354,-2.354 c -0.306,1.778 -1.057,4.079 -2.679,4.64 -1.324,0.459 -4.511,-0.008 -10.867,-7.226 l 0.558,-5.527 -5.77,-1.978 c -2.967,-8.984 -10.056,-7.913 -10.056,-7.913 4.698,4.039 5.687,14.342 5.687,14.342 l 12.199,11.869 0.66,-1.896 c -0.273,-1.585 -0.697,-2.825 -1.154,-3.829 3.827,3.535 6.934,4.888 9.393,4.026 2.414,-0.836 3.438,-3.564 3.871,-5.623 3.245,4.01 5.852,5.94 8.029,5.94 0.425,0 0.833,-0.074 1.225,-0.221 3.111,-1.151 3.711,-6.639 3.755,-10.306 l 2.143,2.732 v 7.281 h 15.826 c 0,-2.185 1.771,-3.956 3.956,-3.956 2.185,0 3.956,1.771 3.956,3.956 h 15.826 v -7.281 l 2.143,-2.732 c 0.044,3.667 0.646,9.155 3.755,10.306 0.392,0.147 0.8,0.221 1.225,0.221 2.177,0 4.783,-1.932 8.029,-5.94 0.433,2.059 1.457,4.787 3.871,5.623 2.471,0.862 5.588,-0.499 9.429,-4.057 -0.461,1.01 -0.893,2.259 -1.169,3.861 l 0.66,1.896 12.199,-11.869 c 0,0 0.989,-10.303 5.687,-14.342 -0.006,-0.004 -7.095,-1.075 -10.062,7.909 z"
   id="path134" />
<g
   id="g140"
   transform="translate(0,-88.276)">
	<path
   style="fill:#f5f5f5"
   d="m 241.162,220.968 v 0 c -1.639,0 -2.967,-1.329 -2.967,-2.967 v 0 c 0,-1.639 1.329,-2.967 2.967,-2.967 v 0 c 1.639,0 2.967,1.329 2.967,2.967 v 0 c 0.001,1.638 -1.327,2.967 -2.967,2.967 z"
   id="path136" />
	<path
   style="fill:#f5f5f5"
   d="m 270.835,220.968 v 0 c -1.639,0 -2.967,-1.329 -2.967,-2.967 v 0 c 0,-1.639 1.329,-2.967 2.967,-2.967 v 0 c 1.639,0 2.967,1.329 2.967,2.967 v 0 c 0,1.638 -1.329,2.967 -2.967,2.967 z"
   id="path138" />
</g>
<g
   id="g146"
   transform="translate(0,-88.276)">
	<path
   style="fill:#ff4b55"
   d="m 300.508,220.968 v 0 c -1.639,0 -2.967,-1.329 -2.967,-2.967 v 0 c 0,-1.639 1.329,-2.967 2.967,-2.967 v 0 c 1.639,0 2.967,1.329 2.967,2.967 v 0 c 0,1.638 -1.329,2.967 -2.967,2.967 z"
   id="path142" />
	<path
   style="fill:#ff4b55"
   d="m 211.489,220.968 v 0 c -1.639,0 -2.967,-1.329 -2.967,-2.967 v 0 c 0,-1.639 1.329,-2.967 2.967,-2.967 v 0 c 1.639,0 2.967,1.329 2.967,2.967 v 0 c 0.001,1.638 -1.327,2.967 -2.967,2.967 z"
   id="path144" />
</g>
<g
   id="g158"
   transform="translate(0,-88.276)">
	<circle
   style="fill:#f5f5f5"
   cx="256"
   cy="186.35001"
   r="3.9560001"
   id="circle148" />
	
		<ellipse
   transform="matrix(-0.9696,0.2447,-0.2447,-0.9696,473.1985,326.9203)"
   style="fill:#f5f5f5"
   cx="216.291"
   cy="192.855"
   rx="2.556"
   ry="2.967"
   id="ellipse150" />
	
		<ellipse
   transform="matrix(0.9696,0.2447,-0.2447,0.9696,56.1821,-66.5058)"
   style="fill:#f5f5f5"
   cx="295.745"
   cy="192.853"
   rx="2.556"
   ry="2.967"
   id="ellipse152" />
	<path
   style="fill:#f5f5f5"
   d="m 208.522,264.186 c -3.737,-0.707 -8.716,-1.223 -14.182,-0.646 -5.353,0.564 -11.605,2.228 -17.47,6.212 v 25.061 c 8.189,-19.793 26.451,-15.967 31.651,-14.397 v -16.23 z"
   id="path154" />
	<path
   style="fill:#f5f5f5"
   d="m 303.475,264.186 c 3.737,-0.707 8.716,-1.223 14.182,-0.646 5.353,0.564 11.605,2.228 17.47,6.212 v 25.061 c -8.189,-19.793 -26.451,-15.967 -31.651,-14.397 v -16.23 z"
   id="path156" />
</g>
<path
   style="fill:#ff4b55;stroke-width:0.999999"
   d="m 234.411,242.87099 c 0,0 -4.263,6.69 -6.421,7.338 0,0 -2.925,2.13101 -3.519,1.916 l 10.264,-11.897 z"
   id="path160" />
<path
   style="fill:#73af00;stroke-width:0.999999"
   d="m 234.036,246.733 c -2.006,-0.21501 -3.583,0.93099 -4.586,2.29299 -1.003,1.362 -3.705,1.81 -3.985,0.041 -0.252,-1.59101 5.353,-6.56301 5.353,-6.56301 0,0 -0.931,-1.676 -3.491,-1.024 -2.434,0.62001 -4.828,4.53601 -4.828,4.53601 0,0 -2.433,-0.95201 -4.388,0.67599 l -8.367,9.571 c 0,0 10.278,8.78 23.361,-4.157 l -2.221,-0.717 c 0.715,-2.72 3.152,-4.65599 3.152,-4.65599 z"
   id="path162" />
<g
   id="g180"
   transform="translate(0,-88.276)">
	<circle
   style="fill:#f5f5f5"
   cx="221.69"
   cy="337.48001"
   r="0.97100002"
   id="circle164" />
	<path
   style="fill:#f5f5f5"
   d="m 180.828,168.185 c 12.153,-0.042 24.213,2.082 35.607,6.295 v -12.397 c -11.436,-3.943 -23.487,-5.815 -35.607,-5.519 z"
   id="path166" />
	<path
   style="fill:#f5f5f5"
   d="m 279.737,154.699 c -15.604,-3.746 -31.873,-3.746 -47.476,0 0,-3.956 0,-7.913 0,-11.869 15.604,-3.746 31.873,-3.746 47.476,0 0,3.956 0,7.912 0,11.869 z"
   id="path168" />
	<path
   style="fill:#f5f5f5"
   d="m 236.217,145.655 c -9.679,0.899 -19.213,3.166 -28.301,6.795 0.569,3.915 1.138,7.831 1.707,11.746 8.552,-3.415 17.503,-5.598 26.594,-6.599 z"
   id="path170" />
	<path
   style="fill:#f5f5f5"
   d="m 176.872,181.735 c 5.39,-1.505 10.878,-2.614 16.433,-3.224 v -11.943 c -5.548,0.515 -11.036,1.534 -16.433,2.946 z"
   id="path172" />
	<path
   style="fill:#f5f5f5"
   d="m 331.17,168.185 c -12.153,-0.042 -24.213,2.082 -35.607,6.295 v -12.397 c 11.436,-3.943 23.487,-5.815 35.607,-5.519 z"
   id="path174" />
	<path
   style="fill:#f5f5f5"
   d="m 275.78,145.655 c 9.679,0.899 19.213,3.166 28.301,6.795 -0.569,3.915 -1.138,7.831 -1.707,11.746 -8.552,-3.415 -17.503,-5.598 -26.594,-6.599 z"
   id="path176" />
	<path
   style="fill:#f5f5f5"
   d="m 335.126,181.735 c -5.39,-1.505 -10.878,-2.614 -16.433,-3.224 v -11.943 c 5.548,0.515 11.036,1.534 16.433,2.946 z"
   id="path178" />
</g>
<g
   id="g182"
   transform="translate(0,-88.276)">
</g>
<g
   id="g184"
   transform="translate(0,-88.276)">
</g>
<g
   id="g186"
   transform="translate(0,-88.276)">
</g>
<g
   id="g188"
   transform="translate(0,-88.276)">
</g>
<g
   id="g190"
   transform="translate(0,-88.276)">
</g>
<g
   id="g192"
   transform="translate(0,-88.276)">
</g>
<g
   id="g194"
   transform="translate(0,-88.276)">
</g>
<g
   id="g196"
   transform="translate(0,-88.276)">
</g>
<g
   id="g198"
   transform="translate(0,-88.276)">
</g>
<g
   id="g200"
   transform="translate(0,-88.276)">
</g>
<g
   id="g202"
   transform="translate(0,-88.276)">
</g>
<g
   id="g204"
   transform="translate(0,-88.276)">
</g>
<g
   id="g206"
   transform="translate(0,-88.276)">
</g>
<g
   id="g208"
   transform="translate(0,-88.276)">
</g>
<g
   id="g210"
   transform="translate(0,-88.276)">
</g>
</svg>
