<?xml version="1.0" encoding="UTF-8" standalone="no"?>
<svg
   xmlns:dc="http://purl.org/dc/elements/1.1/"
   xmlns:cc="http://creativecommons.org/ns#"
   xmlns:rdf="http://www.w3.org/1999/02/22-rdf-syntax-ns#"
   xmlns:svg="http://www.w3.org/2000/svg"
   xmlns="http://www.w3.org/2000/svg"
   xmlns:sodipodi="http://sodipodi.sourceforge.net/DTD/sodipodi-0.dtd"
   xmlns:inkscape="http://www.inkscape.org/namespaces/inkscape"
   version="1.1"
   id="Layer_1"
   x="0px"
   y="0px"
   viewBox="0 0 512 335.45001"
   xml:space="preserve"
   sodipodi:docname="eu.svg"
   width="512"
   height="335.45001"
   inkscape:version="1.0.1 (c497b03c, 2020-09-10)"><metadata
   id="metadata73"><rdf:RDF><cc:Work
       rdf:about=""><dc:format>image/svg+xml</dc:format><dc:type
         rdf:resource="http://purl.org/dc/dcmitype/StillImage" /><dc:title></dc:title></cc:Work></rdf:RDF></metadata><defs
   id="defs71" /><sodipodi:namedview
   pagecolor="#ffffff"
   bordercolor="#666666"
   borderopacity="1"
   objecttolerance="10"
   gridtolerance="10"
   guidetolerance="10"
   inkscape:pageopacity="0"
   inkscape:pageshadow="2"
   inkscape:window-width="2560"
   inkscape:window-height="984"
   id="namedview69"
   showgrid="false"
   inkscape:zoom="1.640625"
   inkscape:cx="256"
   inkscape:cy="256"
   inkscape:window-x="0"
   inkscape:window-y="23"
   inkscape:window-maximized="1"
   inkscape:current-layer="Layer_1" />
<path
   style="fill:#41479b"
   d="M 473.655,0 H 38.345 C 17.167,0 0,17.167 0,38.345 v 258.76 c 0,21.177 17.167,38.345 38.345,38.345 h 435.31 C 494.832,335.45 512,318.283 512,297.105 V 38.345 C 512,17.167 494.833,0 473.655,0 Z"
   id="path10" />
<g
   id="g36"
   transform="translate(0,-88.275)">
	<path
   style="fill:#ffe15a"
   d="m 259.59,126.684 3.54,10.613 11.187,0.087 c 1.449,0.011 2.049,1.859 0.884,2.72 l -9,6.646 3.374,10.666 c 0.437,1.38 -1.135,2.524 -2.314,1.681 l -9.101,-6.506 -9.101,6.506 c -1.178,0.842 -2.751,-0.3 -2.314,-1.681 l 3.374,-10.666 -9,-6.646 c -1.165,-0.861 -0.565,-2.709 0.884,-2.72 l 11.187,-0.087 3.54,-10.613 c 0.457,-1.374 2.402,-1.374 2.86,0 z"
   id="path12" />
	<path
   style="fill:#ffe15a"
   d="m 259.59,354.547 3.54,10.613 11.187,0.087 c 1.449,0.011 2.049,1.859 0.884,2.72 l -9,6.646 3.374,10.666 c 0.437,1.38 -1.135,2.524 -2.314,1.681 l -9.101,-6.506 -9.101,6.506 c -1.178,0.842 -2.751,-0.3 -2.314,-1.681 l 3.374,-10.666 -9,-6.646 c -1.165,-0.861 -0.565,-2.709 0.884,-2.72 l 11.187,-0.087 3.54,-10.613 c 0.457,-1.375 2.402,-1.375 2.86,0 z"
   id="path14" />
	<path
   style="fill:#ffe15a"
   d="m 373.521,240.615 3.54,10.613 11.187,0.087 c 1.449,0.011 2.049,1.859 0.884,2.72 l -9,6.646 3.374,10.666 c 0.437,1.38 -1.135,2.524 -2.314,1.681 l -9.101,-6.506 -9.101,6.506 c -1.178,0.842 -2.751,-0.3 -2.314,-1.681 l 3.374,-10.666 -9,-6.646 c -1.165,-0.861 -0.565,-2.709 0.884,-2.72 l 11.187,-0.087 3.54,-10.613 c 0.457,-1.373 2.402,-1.373 2.86,0 z"
   id="path16" />
	<path
   style="fill:#ffe15a"
   d="m 145.658,240.615 3.54,10.613 11.187,0.087 c 1.449,0.011 2.049,1.859 0.884,2.72 l -9,6.646 3.374,10.666 c 0.437,1.38 -1.135,2.524 -2.314,1.681 l -9.101,-6.506 -9.101,6.506 c -1.178,0.842 -2.751,-0.3 -2.314,-1.681 l 3.374,-10.666 -9,-6.646 c -1.165,-0.861 -0.565,-2.709 0.884,-2.72 l 11.187,-0.087 3.54,-10.613 c 0.458,-1.373 2.403,-1.373 2.86,0 z"
   id="path18" />
	<path
   style="fill:#ffe15a"
   d="m 162.762,181.119 3.54,10.613 11.187,0.087 c 1.449,0.011 2.049,1.859 0.884,2.72 l -9,6.646 3.374,10.666 c 0.437,1.38 -1.135,2.524 -2.314,1.681 l -9.101,-6.506 -9.101,6.506 c -1.178,0.842 -2.751,-0.3 -2.314,-1.681 l 3.374,-10.666 -9,-6.646 c -1.165,-0.861 -0.565,-2.709 0.884,-2.72 l 11.187,-0.087 3.54,-10.613 c 0.458,-1.374 2.401,-1.374 2.86,0 z"
   id="path20" />
	<path
   style="fill:#ffe15a"
   d="m 360.096,295.05 3.54,10.613 11.187,0.087 c 1.449,0.011 2.049,1.859 0.884,2.72 l -9,6.646 3.374,10.666 c 0.437,1.382 -1.135,2.524 -2.314,1.681 l -9.101,-6.506 -9.101,6.506 c -1.178,0.842 -2.751,-0.3 -2.314,-1.681 l 3.374,-10.666 -9,-6.646 c -1.165,-0.861 -0.565,-2.709 0.884,-2.72 l 11.187,-0.087 3.54,-10.613 c 0.458,-1.373 2.402,-1.373 2.86,0 z"
   id="path22" />
	<path
   style="fill:#ffe15a"
   d="m 318.395,139.417 3.54,10.613 11.187,0.087 c 1.449,0.011 2.049,1.859 0.884,2.72 l -9,6.646 3.374,10.666 c 0.437,1.38 -1.135,2.524 -2.314,1.681 l -9.101,-6.506 -9.102,6.506 c -1.178,0.842 -2.751,-0.3 -2.314,-1.681 l 3.374,-10.666 -9,-6.646 c -1.165,-0.861 -0.565,-2.709 0.884,-2.72 l 11.187,-0.087 3.54,-10.613 c 0.458,-1.373 2.401,-1.373 2.861,0 z"
   id="path24" />
	<path
   style="fill:#ffe15a"
   d="m 204.463,336.753 3.54,10.613 11.187,0.087 c 1.449,0.011 2.049,1.859 0.884,2.72 l -9,6.646 3.374,10.666 c 0.437,1.38 -1.135,2.524 -2.314,1.681 l -9.101,-6.506 -9.101,6.506 c -1.178,0.842 -2.751,-0.3 -2.314,-1.681 l 3.374,-10.666 -9,-6.646 c -1.165,-0.861 -0.565,-2.709 0.884,-2.72 l 11.187,-0.086 3.54,-10.613 c 0.458,-1.376 2.403,-1.376 2.86,-0.001 z"
   id="path26" />
	<path
   style="fill:#ffe15a"
   d="m 357.236,181.119 -3.54,10.613 -11.187,0.087 c -1.449,0.011 -2.049,1.859 -0.884,2.72 l 9,6.646 -3.374,10.666 c -0.437,1.38 1.135,2.524 2.314,1.681 l 9.101,-6.506 9.101,6.506 c 1.178,0.842 2.751,-0.3 2.314,-1.681 l -3.374,-10.666 9,-6.646 c 1.165,-0.861 0.565,-2.709 -0.884,-2.72 l -11.187,-0.087 -3.54,-10.613 c -0.458,-1.374 -2.402,-1.374 -2.86,0 z"
   id="path28" />
	<path
   style="fill:#ffe15a"
   d="m 159.902,295.05 -3.54,10.613 -11.187,0.087 c -1.449,0.011 -2.049,1.859 -0.884,2.72 l 9,6.646 -3.374,10.666 c -0.437,1.382 1.135,2.524 2.314,1.681 l 9.101,-6.506 9.101,6.506 c 1.178,0.842 2.751,-0.3 2.314,-1.681 l -3.374,-10.666 9,-6.646 c 1.165,-0.861 0.565,-2.709 -0.884,-2.72 l -11.187,-0.087 -3.54,-10.613 c -0.459,-1.373 -2.402,-1.373 -2.86,0 z"
   id="path30" />
	<path
   style="fill:#ffe15a"
   d="m 201.603,139.417 -3.54,10.613 -11.187,0.087 c -1.449,0.011 -2.049,1.859 -0.884,2.72 l 9,6.646 -3.374,10.666 c -0.437,1.38 1.135,2.524 2.314,1.681 l 9.101,-6.506 9.101,6.506 c 1.178,0.842 2.751,-0.3 2.314,-1.681 l -3.374,-10.666 9,-6.646 c 1.165,-0.861 0.565,-2.709 -0.884,-2.72 l -11.187,-0.087 -3.54,-10.613 c -0.459,-1.373 -2.402,-1.373 -2.86,0 z"
   id="path32" />
	<path
   style="fill:#ffe15a"
   d="m 315.534,336.753 -3.54,10.613 -11.187,0.087 c -1.449,0.011 -2.049,1.859 -0.884,2.72 l 9,6.646 -3.374,10.666 c -0.437,1.38 1.135,2.524 2.314,1.681 l 9.101,-6.506 9.101,6.506 c 1.178,0.842 2.751,-0.3 2.314,-1.681 l -3.374,-10.666 9,-6.646 c 1.165,-0.861 0.565,-2.709 -0.884,-2.72 l -11.187,-0.086 -3.54,-10.613 c -0.459,-1.376 -2.402,-1.376 -2.86,-0.001 z"
   id="path34" />
</g>
<g
   id="g38">
</g>
<g
   id="g40">
</g>
<g
   id="g42">
</g>
<g
   id="g44">
</g>
<g
   id="g46">
</g>
<g
   id="g48">
</g>
<g
   id="g50">
</g>
<g
   id="g52">
</g>
<g
   id="g54">
</g>
<g
   id="g56">
</g>
<g
   id="g58">
</g>
<g
   id="g60">
</g>
<g
   id="g62">
</g>
<g
   id="g64">
</g>
<g
   id="g66">
</g>
</svg>
