<?xml version="1.0" encoding="UTF-8" standalone="no"?>
<svg
   xmlns:dc="http://purl.org/dc/elements/1.1/"
   xmlns:cc="http://creativecommons.org/ns#"
   xmlns:rdf="http://www.w3.org/1999/02/22-rdf-syntax-ns#"
   xmlns:svg="http://www.w3.org/2000/svg"
   xmlns="http://www.w3.org/2000/svg"
   xmlns:sodipodi="http://sodipodi.sourceforge.net/DTD/sodipodi-0.dtd"
   xmlns:inkscape="http://www.inkscape.org/namespaces/inkscape"
   version="1.1"
   id="Layer_1"
   x="0px"
   y="0px"
   viewBox="0 0 512 335.45001"
   xml:space="preserve"
   sodipodi:docname="aland-islands-svgrepo-com.svg"
   width="512"
   height="335.45001"
   inkscape:version="1.0.1 (c497b03c, 2020-09-10)"><metadata
   id="metadata227"><rdf:RDF><cc:Work
       rdf:about=""><dc:format>image/svg+xml</dc:format><dc:type
         rdf:resource="http://purl.org/dc/dcmitype/StillImage" /><dc:title></dc:title></cc:Work></rdf:RDF></metadata><defs
   id="defs225" /><sodipodi:namedview
   pagecolor="#ffffff"
   bordercolor="#666666"
   borderopacity="1"
   objecttolerance="10"
   gridtolerance="10"
   guidetolerance="10"
   inkscape:pageopacity="0"
   inkscape:pageshadow="2"
   inkscape:window-width="1797"
   inkscape:window-height="983"
   id="namedview223"
   showgrid="false"
   inkscape:zoom="1.640625"
   inkscape:cx="256"
   inkscape:cy="256"
   inkscape:window-x="0"
   inkscape:window-y="23"
   inkscape:window-maximized="0"
   inkscape:current-layer="Layer_1" />
<path
   style="fill:#4173cd"
   d="M 473.654,335.448 H 38.345 C 17.167,335.448 0,318.28 0,297.103 V 38.345 C 0,17.168 17.167,0 38.345,0 h 435.309 c 21.177,0 38.345,17.167 38.345,38.345 v 258.758 c 0,21.177 -17.168,38.345 -38.345,38.345 z"
   id="path186" />
<polygon
   style="fill:#ffe15a"
   points="229.517,88.276 141.241,88.276 141.241,211.862 0,211.862 0,300.138 141.241,300.138 141.241,423.724 229.517,423.724 229.517,300.138 512,300.138 512,211.862 229.517,211.862 "
   id="polygon188"
   transform="translate(0,-88.276)" />
<polygon
   style="fill:#ff4b55"
   points="203.034,88.276 167.724,88.276 167.724,238.345 0,238.345 0,273.655 167.724,273.655 167.724,423.724 203.034,423.724 203.034,273.655 512,273.655 512,238.345 203.034,238.345 "
   id="polygon190"
   transform="translate(0,-88.276)" />
<g
   id="g192">
</g>
<g
   id="g194">
</g>
<g
   id="g196">
</g>
<g
   id="g198">
</g>
<g
   id="g200">
</g>
<g
   id="g202">
</g>
<g
   id="g204">
</g>
<g
   id="g206">
</g>
<g
   id="g208">
</g>
<g
   id="g210">
</g>
<g
   id="g212">
</g>
<g
   id="g214">
</g>
<g
   id="g216">
</g>
<g
   id="g218">
</g>
<g
   id="g220">
</g>
</svg>
