<?xml version="1.0" encoding="UTF-8" standalone="no"?>
<svg
   xmlns:dc="http://purl.org/dc/elements/1.1/"
   xmlns:cc="http://creativecommons.org/ns#"
   xmlns:rdf="http://www.w3.org/1999/02/22-rdf-syntax-ns#"
   xmlns:svg="http://www.w3.org/2000/svg"
   xmlns="http://www.w3.org/2000/svg"
   xmlns:sodipodi="http://sodipodi.sourceforge.net/DTD/sodipodi-0.dtd"
   xmlns:inkscape="http://www.inkscape.org/namespaces/inkscape"
   version="1.1"
   id="Layer_1"
   x="0px"
   y="0px"
   viewBox="0 0 512 335.45001"
   xml:space="preserve"
   sodipodi:docname="fj.svg"
   width="512"
   height="335.45001"
   inkscape:version="1.0.1 (c497b03c, 2020-09-10)"><metadata
   id="metadata135"><rdf:RDF><cc:Work
       rdf:about=""><dc:format>image/svg+xml</dc:format><dc:type
         rdf:resource="http://purl.org/dc/dcmitype/StillImage" /><dc:title></dc:title></cc:Work></rdf:RDF></metadata><defs
   id="defs133" /><sodipodi:namedview
   pagecolor="#ffffff"
   bordercolor="#666666"
   borderopacity="1"
   objecttolerance="10"
   gridtolerance="10"
   guidetolerance="10"
   inkscape:pageopacity="0"
   inkscape:pageshadow="2"
   inkscape:window-width="2560"
   inkscape:window-height="984"
   id="namedview131"
   showgrid="false"
   inkscape:zoom="1.640625"
   inkscape:cx="256"
   inkscape:cy="256"
   inkscape:window-x="0"
   inkscape:window-y="23"
   inkscape:window-maximized="1"
   inkscape:current-layer="Layer_1" />
<path
   style="fill:#82afff"
   d="M 473.655,0.001 H 38.345 C 17.167,0.001 0,17.168 0,38.346 v 258.759 c 0,21.177 17.167,38.345 38.345,38.345 h 435.31 C 494.832,335.45 512,318.283 512,297.105 V 38.346 C 512,17.168 494.833,0.001 473.655,0.001 Z"
   id="path10" />
<path
   style="fill:#41479b"
   d="m 8.828,167.725 h 238.345 c 4.875,0 8.828,-3.953 8.828,-8.828 V 8.828 C 256.001,3.953 252.048,0 247.173,0 H 38.345 C 17.167,0.001 0,17.168 0,38.346 v 120.552 c 0,4.874 3.953,8.827 8.828,8.827 z"
   id="path12" />
<path
   style="fill:#f5f5f5"
   d="m 247.172,0.001 h -15.334 l -81.77,53.574 V 0.001 H 105.93 V 53.575 L 24.16,0.001 H 8.828 C 3.953,0.001 0,3.953 0,8.828 V 15.83 L 70.155,61.793 H 0 v 44.138 H 70.155 L 0,151.895 v 7.002 c 0,4.875 3.953,8.828 8.828,8.828 h 15.334 l 81.77,-53.574 v 53.574 h 44.138 v -53.574 l 81.769,53.574 h 15.334 c 4.875,0 8.828,-3.953 8.828,-8.828 v -7.002 L 185.846,105.932 H 256 V 61.794 H 185.845 L 256,15.831 V 8.829 c 0,-4.876 -3.953,-8.828 -8.828,-8.828 z"
   id="path14" />
<g
   id="g26"
   transform="translate(0,-88.275)">
	<polygon
   style="fill:#ff4b55"
   points="141.241,88.276 114.759,88.276 114.759,158.897 0,158.897 0,185.379 114.759,185.379 114.759,256 141.241,256 141.241,185.379 256,185.379 256,158.897 141.241,158.897 "
   id="polygon16" />
	<path
   style="fill:#ff4b55"
   d="m 8.227,102.902 72.662,47.167 H 97.103 L 14.607,96.519 c -2.369,1.87 -4.51,4.013 -6.38,6.383 z"
   id="path18" />
	<path
   style="fill:#ff4b55"
   d="m 166.283,150.069 88.374,-57.366 c -1.536,-2.599 -4.246,-4.427 -7.485,-4.427 h -1.909 l -95.194,61.793 z"
   id="path20" />
	<path
   style="fill:#ff4b55"
   d="M 89.474,194.207 1.269,251.463 C 2.79,254.125 5.542,256 8.828,256 h 1.665 l 95.196,-61.793 z"
   id="path22" />
	<path
   style="fill:#ff4b55"
   d="M 255.86,247.865 173.194,194.207 H 156.98 l 93.874,60.935 c 2.812,-1.305 4.741,-4.04 5.006,-7.277 z"
   id="path24" />
</g>
<path
   style="fill:#f5f5f5"
   d="M 322.034,96.342 V 193.2 c 0,39.281 55.178,59.469 61.902,61.782 6.717,-2.313 61.902,-22.534 61.902,-61.782 V 96.342 Z"
   id="path28" />
<polygon
   style="fill:#ff4b55"
   points="319.849,182.432 319.849,229.041 375.197,229.041 375.197,272.736 319.849,272.736 319.849,290.215 375.197,290.215 375.197,342.648 383.936,345.561 392.674,342.648 392.674,290.215 448.022,290.215 448.022,272.736 392.674,272.736 392.674,229.041 448.022,229.041 448.022,182.432 "
   id="polygon30"
   transform="translate(0,-88.275)" />
<circle
   style="fill:#f5f5f5"
   cx="334.22"
   cy="122.585"
   r="7.2930002"
   id="circle32" />
<g
   id="g40"
   transform="translate(0,-88.275)">
	<path
   style="fill:#ffe15a"
   d="m 348.231,200.999 c -2.334,-1.283 -6.535,-4.726 -8.226,-4.142 -1.692,0.584 -2.07,1.78 -4.437,1.962 -2.306,0.178 -5.948,2.428 -4.43,4.922 1.973,3.246 8.149,0.722 8.557,-0.796 0,0 1.517,0.243 2.792,-0.061 0,0 2.537,3.54 5.687,3.307 3.15,-0.234 4.609,-4.142 3.91,-4.142 -0.699,0 -3.853,-1.05 -3.853,-1.05 z"
   id="path34" />
	<path
   style="fill:#ffe15a"
   d="m 357.916,216.459 c -0.525,0.962 -4.522,4.38 -11.202,5.951 -1.487,0.35 -1.225,2.1 -2.713,1.225 -1.487,-0.875 -5.601,-1.576 -9.277,-1.75 -3.676,-0.175 -4.041,-3.581 -3.413,-4.813 0.797,-1.565 6.665,-2.519 7.715,-0.594 1.05,1.926 1.837,1.524 4.45,2.081 1.619,0.346 1.663,1.138 1.663,1.138 0,0 2.976,-2.976 5.514,-3.851 2.538,-0.875 4.726,-2.801 5.163,-2.801 0.438,0 2.713,0.612 2.713,0.612 z"
   id="path36" />
	<path
   style="fill:#ffe15a"
   d="m 367.63,206.132 c 3.851,1.4 15.228,0.962 27.392,-2.976 12.164,-3.938 15.666,-4.638 21.617,-2.451 5.951,2.187 8.527,-4.725 4.619,-5.894 -6.138,-1.837 -25.124,9.194 -38.871,3.004 0,0 -0.405,1.665 0.032,2.452 0,0 -9.976,0.35 -7.614,-9.976 0,0 0.68,3.77 5.397,3.337 8.921,-0.819 10.196,5.462 29.085,-0.362 10.487,-3.233 18.635,-1.646 18.707,3.456 0.087,6.143 -8.381,7.571 -8.381,7.571 0,0 3.296,6.739 9.948,3.763 6.652,-2.976 7.001,2.158 7.585,3.91 0.584,1.751 1.692,3.443 3.15,3.617 0,0 1.05,3.15 0.642,3.559 -0.408,0.408 -3.15,3.851 -5.892,3.851 -2.742,0 -8.693,0 -8.693,0 0,0 -1.576,-3.91 1.459,-3.967 3.033,-0.058 6.71,-0.291 6.243,-1.926 -0.467,-1.633 -2.859,-2.392 -2.801,-4.201 0,0 -7.06,5.134 -11.435,-0.934 l -0.117,2.859 c 0,0 -5.31,-0.992 -7.234,-5.251 0,0 0.525,4.785 -4.025,4.084 0,0 0.934,1.4 2.509,2.392 1.576,0.992 -0.059,3.15 -3.092,4.959 -3.033,1.809 -12.369,7.06 -16.628,1.692 -4.259,-5.367 0.934,-8.46 2.217,-8.11 1.283,0.35 4.959,6.009 7.468,5.251 2.509,-0.758 3.734,-3.326 1.633,-4.9 -2.101,-1.574 -3.673,-3.064 -2.349,-4.654 1.821,-2.185 8.534,-1.53 8.3,-2.988 -0.233,-1.459 -6.476,-1.05 -10.56,3.033 -4.084,4.084 -21.821,13.478 -28.881,7.527 -7.059,-5.951 -1.43,-11.727 -1.43,-11.727 z"
   id="path38" />
</g>
<path
   style="fill:#ffd25a"
   d="m 365.355,115.232 c 0,0 5.338,5.251 14.353,6.914 0,0 -1.663,2.538 -6.476,1.838 0,0 1.926,1.663 3.239,4.463 0,0 -3.063,0.7 -5.777,-0.788 0,0 0.35,2.275 1.663,4.114 0,0 -3.588,0 -6.652,-2.713 l -1.225,3.5 c 0,0 -2.1,-1.4 -3.413,-4.114 0,0 -2.451,1.926 -4.9,1.926 0,0 0.875,-2.625 0.875,-4.114 0,0 -3.5,2.1 -6.389,1.313 0,0 0.087,-3.676 1.05,-4.726 0,0 -2.275,0.263 -3.763,-0.525 0,0 0.875,-2.013 1.313,-3.326 0,0 -2.451,0.087 -3.938,-1.313 0,0 4.726,-1.838 5.777,-3.588 z"
   id="path42" />
<path
   style="fill:#ffbe5a"
   d="m 356.749,100.529 c 1.05,0.584 2.742,1.867 3.443,4.025 0,0 1.926,-2.801 5.251,-3.326 0,0 1.459,1.633 1.05,5.892 0,0 3.676,-1.05 5.66,0.875 0,0 -3.91,0.875 -5.718,4.142 0,0 -0.702,3.338 0.524,5.322 0,0 -1.365,0.182 -2.741,-0.42 0,0 -0.7,3.326 0,4.376 0,0 -1.926,-0.234 -2.976,-2.275 0,0 -1.576,2.392 -1.459,3.851 0,0 -2.1,-1.225 -2.217,-3.033 0,0 -1.459,2.742 -3.033,2.976 0,0 -0.175,-3.851 -0.875,-5.31 0,0 -1.342,1.459 -3.092,1.4 0,0 0,-2.976 1.459,-4.376 0,0 -2.451,0.758 -3.793,-1.926 0,0 4.025,1.166 5.017,-1.283 0.992,-2.451 1.283,-3.209 2.684,-4.551 1.4,-1.341 0.816,-6.359 0.816,-6.359 z"
   id="path44" />
<path
   style="fill:#ffe15a"
   d="m 365.355,111.819 c 0,0 -4.989,9.539 -9.539,6.652 -4.985,-3.165 1.225,-10.59 2.013,-11.377 -0.001,-10e-4 3.675,0.962 7.526,4.725 z"
   id="path46" />
<path
   style="fill:#5abea0"
   d="m 347.363,160.677 c 0,0 -0.523,-6.851 -4.237,-8.828 -3.492,-1.858 -5.555,-2.787 -5.955,-5.169 0,0 3.034,1.394 6.241,2.265 2.898,0.787 5.726,5.692 4.867,11.209 z"
   id="path48" />
<path
   style="fill:#b46446"
   d="m 335.639,166.31 0.472,0.871 0.343,1.873 -0.687,2.221 c 0,0 2.729,1.085 3.35,4.791 0.426,2.543 1.546,3.093 2.233,2.57 0.687,-0.523 1.103,-1.141 0.386,-3.921 -0.916,-3.549 -3.393,-6.925 -3.393,-6.925 l -1.932,-2.962 z"
   id="path50" />
<g
   id="g60"
   transform="translate(0,-88.275)">
	<path
   style="fill:#5abea0"
   d="m 338.345,256.066 c -2.49,-3.223 -9.277,-9.931 -10.564,-0.785 0,0 -2.66,-7.706 2.319,-7.405 5.754,0.35 8.245,8.19 8.245,8.19 z"
   id="path52" />
	<path
   style="fill:#5abea0"
   d="m 336.111,255.457 c -2.147,-2.353 -2.835,-4.095 -3.951,-8.45 -1.117,-4.355 -1.46,-5.663 -2.749,-5.576 -1.289,0.087 -2.061,1.481 -2.061,4.268 0,0 -3.779,-3.398 -1.203,-6.098 2.577,-2.7 8.331,-1.219 8.675,3.572 0.343,4.791 0.258,8.014 1.975,12.022 z"
   id="path54" />
	<path
   style="fill:#5abea0"
   d="m 336.713,253.366 c 0,0 -4.552,-10.018 8.246,-15.42 0,0 -11.338,-3.049 -9.963,13.067 z"
   id="path56" />
	<path
   style="fill:#5abea0"
   d="m 338.174,256.938 c 0,0 -9.62,-3.659 -8.761,5.227 0,0 1.632,-4.182 6.356,-2.613 z"
   id="path58" />
</g>
<path
   style="fill:#b46446"
   d="m 349.081,165.148 c 0,2.599 1.022,10.14 -0.429,11.093 -0.73,0.479 -2.792,0.087 -2.62,-1.742 0.172,-1.829 0.988,-10.716 0.988,-12.893 0,-2.178 2.061,3.542 2.061,3.542 z"
   id="path62" />
<g
   id="g70"
   transform="translate(0,-88.275)">
	<path
   style="fill:#5abea0"
   d="m 342.955,259.464 c 1.661,-1.684 2.176,-5.517 1.603,-10.628 0,0 3.436,2.381 4.524,4.588 0,0 1.088,-5.053 -2.462,-6.389 -3.55,-1.336 -5.44,-0.58 -6.07,1.045 -0.63,1.626 1.085,3.445 1.833,6.098 0.686,2.44 0.572,5.286 0.572,5.286 z"
   id="path64" />
	<path
   style="fill:#5abea0"
   d="m 348.853,252.088 c 0,0 0.573,-2.671 2.462,-3.775 0,0 3.894,2.73 3.607,6.389 0,0 1.031,-4.994 -1.088,-6.969 -2.119,-1.974 -4.524,-2.497 -5.726,-0.755 -1.203,1.741 0.745,5.11 0.745,5.11 z"
   id="path66" />
	<path
   style="fill:#5abea0"
   d="m 349.769,246.977 c 0,0 1.203,-7.144 4.237,-8.712 3.034,-1.568 8.647,-3.02 8.99,-3.369 0,0 -6.699,0.349 -7.787,0.349 -1.088,0 -7.101,4.355 -7.101,10.803 0,6.446 0.573,2.033 0.745,1.974 0.171,-0.057 0.916,-1.045 0.916,-1.045 z"
   id="path68" />
</g>
<path
   style="fill:#b46446"
   d="m 352.561,177.592 c 0.687,1.438 2.319,1.785 2.663,1.045 0.343,-0.74 1.889,-6.403 1.889,-6.403 l -2.19,-1.045 z"
   id="path72" />
<path
   style="fill:#5abea0"
   d="m 365.401,153.824 c 2.691,-1.568 4.467,3.079 4.467,3.079 0,-5.471 -1.718,-7.201 -6.013,-5.111 -1.293,0.63 -2.24,1.949 -2.936,3.479 -2.174,-6.247 -6.969,-6.151 -6.969,-6.151 l -1.088,0.755 c 3.926,0.755 6.175,5.46 7.126,8.026 -0.513,1.873 -0.761,3.689 -0.867,4.728 -2.573,2.667 -4.198,8.559 -4.198,8.559 0,0 1.847,1.089 2.19,1.045 0,0 1.203,-3.702 2.706,-3.615 1.503,0.087 3.264,2.483 3.307,4.008 0,0 2.233,-4.53 -0.429,-6.272 -1,-0.654 -1.8,-0.903 -2.446,-0.915 l 1.974,-2.221 c 3.221,0.61 5.454,3.659 5.454,3.659 0.065,-5.444 -2.339,-6.507 -4.874,-6.051 0.453,-2.192 1.45,-6.334 2.596,-7.002 z"
   id="path74" />
<path
   style="fill:#b46446"
   d="m 418.42,161.364 c 0,4.566 0,14.692 0,15.439 0,0.747 -3.27,3.652 -3.27,3.652 h 8.693 c 0,0 -2.792,-3.238 -2.792,-3.652 0,-0.414 0.638,-14.277 0.638,-14.277 z"
   id="path76" />
<g
   id="g82"
   transform="translate(0,-88.275)">
	<path
   style="fill:#5abea0"
   d="m 418.978,251.215 c -2.073,-0.166 -7.816,4.566 -9.491,11.787 0,0 -5.105,-8.301 7.657,-15.191 0,0 -5.663,-1.661 -14.276,7.305 -0.465,0.484 -0.877,-13.53 14.595,-9.795 0,0 -5.902,-8.551 -18.025,-1.826 0,0 8.055,-14.444 19.939,-1.494 0,0 0.079,-11.207 0.16,-10.045 0.081,1.162 0.957,6.308 0.957,6.308 l 2.313,-4.067 -1.834,8.301 c 0,0 10.607,-14.112 19.62,0.582 0,0 -11.645,-4.814 -17.227,0.581 0,0 11.964,-3.238 11.006,10.625 0,0 -4.705,-8.218 -12.362,-7.139 0,0 9.013,4.15 6.141,15.357 -0.001,10e-4 -5.432,-10.99 -9.173,-11.289 z"
   id="path78" />
	<path
   style="fill:#5abea0"
   d="m 342.815,301.102 c -0.444,-0.601 -1.066,-0.89 -1.676,-0.966 0.235,-0.81 0.392,-1.18 0.329,-1.77 0.186,0.046 0.364,0.13 0.555,0.153 l 0.082,-0.666 c -0.708,-0.085 -1.48,-0.403 -2.273,-0.887 0.489,-0.419 0.843,-1.063 0.843,-1.852 0,-0.857 -0.393,-1.575 -0.952,-1.982 -0.558,0.408 -0.952,1.126 -0.952,1.982 0,0.643 0.264,1.159 0.61,1.572 -0.295,-0.204 -0.593,-0.44 -0.892,-0.694 -0.077,-0.527 -0.279,-1.058 -0.747,-1.484 -0.633,-0.577 -1.428,-0.77 -2.106,-0.632 -0.075,0.687 0.191,1.461 0.824,2.039 0.489,0.446 1.065,0.598 1.618,0.61 0.126,0.107 0.258,0.214 0.397,0.323 -0.38,-0.046 -0.789,-0.007 -1.198,0.142 -0.806,0.294 -1.345,0.908 -1.537,1.572 0.575,0.385 1.383,0.51 2.188,0.216 0.703,-0.256 1.155,-0.771 1.399,-1.335 0.471,0.301 0.988,0.552 1.523,0.753 l -0.085,0.011 c -0.018,0.483 0.014,0.682 -0.226,1.58 -0.541,-0.351 -1.257,-0.509 -2.014,-0.286 -0.822,0.242 -1.399,0.822 -1.633,1.473 0.55,0.42 1.348,0.596 2.171,0.353 0.618,-0.182 1.037,-0.579 1.336,-1.03 -0.113,0.341 -0.255,0.693 -0.414,1.052 -0.483,0.223 -0.936,0.567 -1.213,1.137 -0.375,0.77 -0.335,1.588 -0.011,2.199 0.681,-0.122 1.348,-0.596 1.724,-1.366 0.289,-0.595 0.274,-1.19 0.128,-1.724 0.067,-0.151 0.132,-0.308 0.198,-0.472 0.063,0.377 0.216,0.759 0.474,1.109 0.509,0.69 1.25,1.034 1.942,1.031 0.206,-0.66 0.097,-1.471 -0.412,-2.161 z"
   id="path80" />
</g>
<path
   style="fill:#ffecde"
   d="m 338.874,210.676 c 2.911,0 6.719,-0.111 6.606,2.799 -0.111,2.911 -3.359,12.766 4.143,15.789 7.502,3.023 8.398,2.575 8.398,2.575 l 3.359,7.726 8.174,-2.911 -7.839,-6.271 c 0,0 -0.672,-4.255 -2.575,-7.167 0,0 4.815,-2.464 6.495,-4.591 l -3.359,-0.224 c 0,0 4.367,-2.799 6.382,-5.934 l -2.351,0.224 c 0,0 2.687,-2.688 3.359,-5.823 0,0 -4.367,4.367 -8.846,4.927 0,0 1.903,-4.927 2.351,-6.83 0,0 -3.359,2.127 -5.71,3.023 -2.351,0.896 -6.047,1.007 -4.367,8.622 0,0 -2.016,-1.679 -3.247,-5.263 -1.231,-3.583 -1.679,-4.927 -3.359,-4.927 -2.743,0 -3.807,2.464 -3.807,2.464 z"
   id="path84" />
<path
   style="fill:#b46446"
   d="m 421.519,212.116 c 1.007,-1.343 3.022,-5.54 4.785,-4.449 1.763,1.091 4.114,3.777 5.54,2.518 1.426,-1.259 1.511,-2.854 -0.672,-3.609 -2.183,-0.755 -4.617,-2.015 -6.127,-1.511 -1.511,0.503 -6.127,5.289 -6.127,5.289 z"
   id="path86" />
<path
   style="fill:#ffe15a"
   d="m 408.509,215.725 c -0.084,-1.931 1.219,-10.313 6.464,-9.234 2.854,0.588 4.258,3.613 7.975,5.036 3.945,1.511 6.464,2.434 5.708,5.036 -0.756,2.602 -2.183,5.708 -5.457,6.464 -3.274,0.757 -14.69,-7.302 -14.69,-7.302 z"
   id="path88" />
<g
   id="g94"
   transform="translate(0,-88.275)">
	<path
   style="fill:#5abea0"
   d="m 405.067,310.911 c -1.119,0.224 -5.26,6.268 -0.335,12.424 0,0 6.044,2.462 10.857,-1.343 4.813,-3.805 1.231,-5.708 1.231,-5.708 z"
   id="path90" />
	<path
   style="fill:#5abea0"
   d="m 405.486,312.226 c -0.503,-0.756 -0.419,-1.315 -0.419,-1.315 0,0 -0.252,-8.674 3.358,-8.842 3.61,-0.168 16.62,8.394 16.62,9.821 0,1.427 -4.198,5.54 -7.723,6.379 -3.524,0.84 -11.836,-6.043 -11.836,-6.043 z"
   id="path92" />
</g>
<path
   style="fill:#b46446"
   d="m 396.589,244.937 c 0,0 11.466,-5.151 9.311,-9.342 -1.555,-3.023 -5.05,-1.086 -5.603,1.223 -0.691,2.881 -2.932,6.896 -3.708,8.119 z"
   id="path96" />
<path
   style="fill:#464655"
   d="m 383.936,259.579 -0.663,-0.211 C 382.608,259.155 366.779,254.057 350.69,243.452 329.085,229.214 317.664,211.835 317.664,193.2 V 91.972 H 450.207 V 193.2 c 0,18.636 -11.421,36.014 -33.026,50.252 -16.088,10.605 -31.917,15.703 -32.583,15.916 z M 322.034,96.342 V 193.2 c 0,39.281 55.178,59.469 61.902,61.782 6.717,-2.313 61.902,-22.534 61.902,-61.782 V 96.342 Z"
   id="path98" />
<g
   id="g100">
</g>
<g
   id="g102">
</g>
<g
   id="g104">
</g>
<g
   id="g106">
</g>
<g
   id="g108">
</g>
<g
   id="g110">
</g>
<g
   id="g112">
</g>
<g
   id="g114">
</g>
<g
   id="g116">
</g>
<g
   id="g118">
</g>
<g
   id="g120">
</g>
<g
   id="g122">
</g>
<g
   id="g124">
</g>
<g
   id="g126">
</g>
<g
   id="g128">
</g>
</svg>
