<?xml version="1.0" encoding="UTF-8" standalone="no"?>
<svg
   xmlns:dc="http://purl.org/dc/elements/1.1/"
   xmlns:cc="http://creativecommons.org/ns#"
   xmlns:rdf="http://www.w3.org/1999/02/22-rdf-syntax-ns#"
   xmlns:svg="http://www.w3.org/2000/svg"
   xmlns="http://www.w3.org/2000/svg"
   xmlns:sodipodi="http://sodipodi.sourceforge.net/DTD/sodipodi-0.dtd"
   xmlns:inkscape="http://www.inkscape.org/namespaces/inkscape"
   version="1.1"
   id="Layer_1"
   x="0px"
   y="0px"
   viewBox="0 0 512 335.45001"
   xml:space="preserve"
   sodipodi:docname="fk.svg"
   width="512"
   height="335.45001"
   inkscape:version="1.0.1 (c497b03c, 2020-09-10)"><metadata
   id="metadata127"><rdf:RDF><cc:Work
       rdf:about=""><dc:format>image/svg+xml</dc:format><dc:type
         rdf:resource="http://purl.org/dc/dcmitype/StillImage" /><dc:title></dc:title></cc:Work></rdf:RDF></metadata><defs
   id="defs125" /><sodipodi:namedview
   pagecolor="#ffffff"
   bordercolor="#666666"
   borderopacity="1"
   objecttolerance="10"
   gridtolerance="10"
   guidetolerance="10"
   inkscape:pageopacity="0"
   inkscape:pageshadow="2"
   inkscape:window-width="2560"
   inkscape:window-height="984"
   id="namedview123"
   showgrid="false"
   inkscape:zoom="1.640625"
   inkscape:cx="256"
   inkscape:cy="256"
   inkscape:window-x="0"
   inkscape:window-y="23"
   inkscape:window-maximized="1"
   inkscape:current-layer="Layer_1" />
<path
   style="fill:#41479b"
   d="M 473.655,335.448 H 38.345 C 17.167,335.448 0,318.281 0,297.103 V 38.345 C 0,17.168 17.167,0 38.345,0 h 435.31 C 494.832,0 512,17.167 512,38.345 v 258.759 c 0,21.177 -17.167,38.344 -38.345,38.344 z"
   id="path10" />
<path
   style="fill:#f5f5f5"
   d="m 8.828,167.724 h 15.334 l 81.77,-53.574 v 53.574 H 150.07 V 114.15 l 81.769,53.574 h 15.334 c 4.875,0 8.828,-3.953 8.828,-8.828 v -7.002 L 185.847,105.931 H 256 V 61.793 H 185.845 L 256,15.83 V 8.828 C 256,3.953 252.05,0.002 247.175,0 H 231.838 L 150.069,53.574 V 0 H 105.931 V 53.574 L 26.844,1.758 C 17.61,4.658 9.89,10.961 5.133,19.192 L 70.156,61.793 H 0 v 44.138 H 70.155 L 0,151.894 v 7.002 c 0,4.875 3.953,8.828 8.828,8.828 z"
   id="path12" />
<g
   id="g24"
   transform="translate(0,-88.276)">
	<polygon
   style="fill:#ff4b55"
   points="141.241,88.276 114.759,88.276 114.759,158.897 0,158.897 0,185.379 114.759,185.379 114.759,256 141.241,256 141.241,185.379 256,185.379 256,158.897 141.241,158.897 "
   id="polygon14" />
	<path
   style="fill:#ff4b55"
   d="m 8.227,102.902 72.662,47.167 H 97.103 L 14.607,96.519 c -2.369,1.87 -4.51,4.013 -6.38,6.383 z"
   id="path16" />
	<path
   style="fill:#ff4b55"
   d="m 166.283,150.069 88.374,-57.366 c -1.536,-2.599 -4.246,-4.427 -7.485,-4.427 h -1.909 l -95.194,61.793 z"
   id="path18" />
	<path
   style="fill:#ff4b55"
   d="M 89.474,194.207 1.269,251.463 C 2.79,254.125 5.542,256 8.828,256 h 1.665 l 95.196,-61.793 z"
   id="path20" />
	<path
   style="fill:#ff4b55"
   d="M 255.86,247.865 173.194,194.207 H 156.98 l 93.874,60.935 c 2.812,-1.305 4.741,-4.04 5.006,-7.277 z"
   id="path22" />
</g>
<path
   style="fill:#e67346"
   d="m 330.707,264.116 -4.143,-9.669 2.071,4.835 -2.095,-4.823 c 0.873,-0.385 21.38,-9.741 21.38,-37.254 h 10.519 c 0,34.626 -26.599,46.424 -27.732,46.911 z"
   id="path26" />
<path
   style="fill:#eb7d4b"
   d="m 334.819,240.591 -7.437,-7.437 c 14.219,-14.219 21.608,-18.119 22.404,-18.518 l 4.705,9.409 -2.353,-4.705 2.393,4.684 c -0.066,0.035 -6.726,3.582 -19.712,16.567 z"
   id="path28" />
<path
   style="fill:#e67346"
   d="m 438.796,264.116 4.143,-9.669 -2.071,4.835 2.095,-4.823 c -0.873,-0.385 -21.38,-9.741 -21.38,-37.254 h -10.519 c 0,34.626 26.599,46.424 27.732,46.911 z"
   id="path30" />
<path
   style="fill:#eb7d4b"
   d="m 434.684,240.591 7.437,-7.437 c -14.219,-14.219 -21.608,-18.119 -22.404,-18.518 l -4.705,9.409 2.353,-4.705 -2.393,4.684 c 0.066,0.035 6.726,3.582 19.712,16.567 z"
   id="path32" />
<path
   style="fill:#4173cd"
   d="m 384.736,80.458 h -56.102 c 0,0 0,66.621 0,84.152 0,17.531 3.507,63.114 56.102,80.646 52.595,-17.532 56.102,-63.114 56.102,-80.646 0,-17.532 0,-84.152 0,-84.152 z"
   id="path34" />
<path
   style="fill:#c8c8c8"
   d="m 409.28,101.496 h -30.144 c -3.185,0 -6.274,-1.084 -8.761,-3.073 l -11.769,-9.416 c -1.244,-0.994 -2.788,-1.537 -4.381,-1.537 h -1.046 c -3.873,0 -7.012,3.139 -7.012,7.012 h -5.259 c -2.904,0 -5.259,2.355 -5.259,5.259 0,2.904 2.355,5.259 5.259,5.259 h 5.259 c 1.937,0 3.507,1.57 3.507,3.507 v 17.532 c 0,6.528 4.48,11.966 10.519,13.529 v 11.015 h 7.012 l 2.63,-10.519 h 32.434 l 3.507,3.507 v 7.012 h 3.507 v -10.519 h 3.507 v 10.519 h 3.507 v -11.491 c 2.088,-1.215 3.507,-3.45 3.507,-6.04 v -21.038 c -0.005,-5.808 -4.714,-10.518 -10.524,-10.518 z"
   id="path36" />
<polygon
   style="fill:#73af00"
   points="416.294,256.392 423.306,235.354 346.166,235.354 353.18,256.392 "
   id="polygon38"
   transform="translate(0,-88.276)" />
<path
   style="fill:#f5f5f5"
   d="m 422.092,161.103 c -9.348,0 -9.348,7.012 -18.696,7.012 -9.345,0 -9.345,-7.012 -18.691,-7.012 -9.344,0 -9.344,7.012 -18.689,7.012 -9.347,0 -9.347,-7.012 -18.695,-7.012 -9.327,0 -9.351,6.98 -18.638,7.01 0.113,3.906 0.447,8.683 1.31,13.963 7.992,-0.653 8.466,-6.947 17.329,-6.947 9.347,0 9.347,7.012 18.695,7.012 9.344,0 9.344,-7.012 18.689,-7.012 9.345,0 9.345,7.012 18.691,7.012 9.348,0 9.348,-7.012 18.696,-7.012 8.887,0 9.354,6.307 17.385,6.948 0.862,-5.279 1.197,-10.057 1.31,-13.963 -9.331,-0.016 -9.343,-7.011 -18.696,-7.011 z"
   id="path40" />
<path
   style="fill:#4173cd"
   d="m 422.092,175.129 c -9.348,0 -9.348,7.012 -18.696,7.012 -9.345,0 -9.345,-7.012 -18.691,-7.012 -9.344,0 -9.344,7.012 -18.689,7.012 -9.347,0 -9.347,-7.012 -18.695,-7.012 -8.863,0 -9.336,6.294 -17.329,6.947 0.686,4.202 1.717,8.722 3.225,13.367 5.115,-1.786 6.607,-6.29 14.103,-6.29 9.347,0 9.347,7.012 18.695,7.012 9.344,0 9.344,-7.012 18.689,-7.012 9.345,0 9.345,7.012 18.691,7.012 9.348,0 9.348,-7.012 18.696,-7.012 7.523,0 9.01,4.521 14.156,6.301 1.51,-4.649 2.541,-9.172 3.229,-13.377 -8.029,-0.642 -8.496,-6.948 -17.384,-6.948 z"
   id="path42" />
<path
   style="fill:#f5f5f5"
   d="m 422.092,189.154 c -9.348,0 -9.348,7.012 -18.696,7.012 -9.345,0 -9.345,-7.012 -18.691,-7.012 -9.344,0 -9.344,7.012 -18.689,7.012 -9.347,0 -9.347,-7.012 -18.695,-7.012 -7.496,0 -8.989,4.503 -14.103,6.29 1.209,3.724 2.74,7.527 4.655,11.317 2.371,-1.778 4.707,-3.582 9.448,-3.582 9.347,0 9.347,7.012 18.695,7.012 9.344,0 9.344,-7.012 18.689,-7.012 9.345,0 9.345,7.012 18.691,7.012 9.348,0 9.348,-7.012 18.696,-7.012 4.768,0 7.109,1.819 9.494,3.604 1.919,-3.794 3.452,-7.601 4.662,-11.328 -5.146,-1.78 -6.633,-6.301 -14.156,-6.301 z"
   id="path44" />
<path
   style="fill:#4173cd"
   d="m 422.092,203.179 c -9.348,0 -9.348,7.012 -18.696,7.012 -9.345,0 -9.345,-7.012 -18.691,-7.012 -9.344,0 -9.344,7.012 -18.689,7.012 -9.347,0 -9.347,-7.012 -18.695,-7.012 -4.74,0 -7.078,1.803 -9.448,3.582 1.825,3.612 4.007,7.206 6.613,10.705 0.847,-0.16 1.774,-0.26 2.835,-0.26 9.347,0 9.347,7.012 18.695,7.012 9.344,0 9.344,-7.012 18.689,-7.012 9.345,0 9.345,7.012 18.691,7.012 9.348,0 9.348,-7.012 18.696,-7.012 1.081,0 2.026,0.102 2.887,0.267 2.603,-3.493 4.783,-7.082 6.607,-10.689 -2.384,-1.787 -4.725,-3.605 -9.494,-3.605 z"
   id="path46" />
<path
   style="fill:#f5f5f5"
   d="m 424.979,217.472 c -0.86,-0.165 -1.805,-0.267 -2.887,-0.267 -9.348,0 -9.348,7.012 -18.696,7.012 -9.345,0 -9.345,-7.012 -18.691,-7.012 -9.344,0 -9.344,7.012 -18.689,7.012 -9.347,0 -9.347,-7.012 -18.695,-7.012 -1.06,0 -1.987,0.1 -2.835,0.26 5.683,7.628 13.391,14.781 23.823,20.6 7.104,-1.048 7.894,-6.835 16.394,-6.835 8.52,0 9.294,5.812 16.442,6.841 10.438,-5.817 18.149,-12.97 23.834,-20.599 z"
   id="path48" />
<g
   id="g56"
   transform="translate(0,-88.276)">
	<rect
   x="382.98999"
   y="249.38"
   style="fill:#ff965a"
   width="3.507"
   height="59.610001"
   id="rect50" />
	<rect
   x="374.20999"
   y="258.14001"
   style="fill:#ff965a"
   width="21.040001"
   height="3.507"
   id="rect52" />
	<rect
   x="374.20999"
   y="279.17999"
   style="fill:#ff965a"
   width="21.040001"
   height="3.507"
   id="rect54" />
</g>
<rect
   x="374.20999"
   y="173.36401"
   style="fill:#ffe15a"
   width="21.040001"
   height="13.87"
   id="rect58" />
<polygon
   style="fill:#ff4b55"
   points="372.463,252.886 382.983,249.379 382.983,256.392 "
   id="polygon60"
   transform="translate(0,-88.276)" />
<g
   id="g68"
   transform="translate(0,-88.276)">
	<rect
   x="406.35999"
   y="249.38"
   style="fill:#ff965a"
   width="3.507"
   height="41.200001"
   id="rect62" />
	<rect
   x="397.59"
   y="258.14001"
   style="fill:#ff965a"
   width="21.040001"
   height="3.507"
   id="rect64" />
	<rect
   x="397.59"
   y="279.17999"
   style="fill:#ff965a"
   width="21.040001"
   height="3.507"
   id="rect66" />
</g>
<rect
   x="397.59"
   y="173.36401"
   style="fill:#ffe15a"
   width="21.040001"
   height="13.87"
   id="rect70" />
<polygon
   style="fill:#ff4b55"
   points="395.839,252.886 406.358,249.379 406.358,256.392 "
   id="polygon72"
   transform="translate(0,-88.276)" />
<g
   id="g80"
   transform="translate(0,-88.276)">
	<rect
   x="359.45999"
   y="249.38"
   style="fill:#ff965a"
   width="3.507"
   height="40.904999"
   id="rect74" />
	<rect
   x="350.70001"
   y="258.14001"
   style="fill:#ff965a"
   width="21.040001"
   height="3.507"
   id="rect76" />
	<rect
   x="350.70001"
   y="279.17999"
   style="fill:#ff965a"
   width="21.040001"
   height="3.507"
   id="rect78" />
</g>
<rect
   x="350.70001"
   y="173.36401"
   style="fill:#ffe15a"
   width="21.040001"
   height="13.87"
   id="rect82" />
<polygon
   style="fill:#ff4b55"
   points="348.942,252.886 359.462,249.379 359.462,256.392 "
   id="polygon84"
   transform="translate(0,-88.276)" />
<path
   style="fill:#ff965a"
   d="m 402.268,199.673 c 0,9.666 -7.865,17.532 -17.532,17.532 -9.667,0 -17.532,-7.865 -17.532,-17.532 h -3.507 -3.478 l -23.747,-5.363 -0.773,3.421 10.467,2.364 v 3.084 l 7.717,3.086 c 3.042,14.244 15.714,24.963 30.852,24.963 14.987,0 27.543,-10.513 30.744,-24.544 h 11.331 v -10.519 z"
   id="path86" />
<path
   style="fill:#f5f5f5"
   d="m 440.838,80.458 c 0,0 0,66.621 0,84.152 0,17.531 -3.507,63.114 -56.102,80.646 -52.595,-17.532 -56.102,-63.114 -56.102,-80.646 0,-17.532 0,-84.152 0,-84.152 h 56.102 56.102 m 3.505,-3.507 h -3.507 -56.102 -56.102 -3.507 v 3.507 84.152 c 0,41.576 20.776,71.398 58.499,83.972 l 1.109,0.37 1.109,-0.37 c 37.724,-12.575 58.499,-42.397 58.499,-83.972 V 80.458 Z"
   id="path88" />
<path
   style="fill:#ff965a"
   d="m 384.736,262.787 c -25.807,0 -49.741,-8.646 -64.021,-23.127 l 9.985,-9.848 c 11.702,11.864 31.903,18.949 54.037,18.949 22.134,0 42.335,-7.084 54.037,-18.949 l 9.985,9.848 c -14.282,14.481 -38.216,23.127 -64.023,23.127 z"
   id="path90" />
<g
   id="g92">
</g>
<g
   id="g94">
</g>
<g
   id="g96">
</g>
<g
   id="g98">
</g>
<g
   id="g100">
</g>
<g
   id="g102">
</g>
<g
   id="g104">
</g>
<g
   id="g106">
</g>
<g
   id="g108">
</g>
<g
   id="g110">
</g>
<g
   id="g112">
</g>
<g
   id="g114">
</g>
<g
   id="g116">
</g>
<g
   id="g118">
</g>
<g
   id="g120">
</g>
</svg>
