<svg xmlns="http://www.w3.org/2000/svg" xml:space="preserve" width="512" height="335.45001"><path style="fill:#41479b" d="M473.655 335.448H38.345C17.167 335.448 0 318.281 0 297.103V38.345C0 17.168 17.167 0 38.345 0h435.31C494.832 0 512 17.167 512 38.345v258.759c0 21.177-17.167 38.344-38.345 38.344z"/><path style="fill:#f5f5f5" d="M8.828 167.724h15.334l81.77-53.574v53.574h44.138V114.15l81.769 53.574h15.334c4.875 0 8.828-3.953 8.828-8.828v-7.002l-70.154-45.963H256V61.793h-70.155L256 15.83V8.828c0-4.875-3.95-8.826-8.825-8.828h-15.337l-81.769 53.574V0h-44.138v53.574L26.844 1.758C17.61 4.658 9.89 10.961 5.133 19.192l65.023 42.601H0v44.138h70.155L0 151.894v7.002c0 4.875 3.953 8.828 8.828 8.828z"/><path style="fill:#ff4b55" d="M141.241 88.276h-26.482v70.621H0v26.482h114.759V256h26.482v-70.621H256v-26.482H141.241z" transform="translate(0 -88.276)"/><path style="fill:#ff4b55" d="m8.227 102.902 72.662 47.167h16.214l-82.496-53.55c-2.369 1.87-4.51 4.013-6.38 6.383zm158.056 47.167 88.374-57.366c-1.536-2.599-4.246-4.427-7.485-4.427h-1.909l-95.194 61.793zm-76.809 44.138L1.269 251.463C2.79 254.125 5.542 256 8.828 256h1.665l95.196-61.793zm166.386 53.658-82.666-53.658H156.98l93.874 60.935c2.812-1.305 4.741-4.04 5.006-7.277z" transform="translate(0 -88.276)"/><path style="fill:#e67346" d="m330.707 264.116-4.143-9.669 2.071 4.835-2.095-4.823c.873-.385 21.38-9.741 21.38-37.254h10.519c0 34.626-26.599 46.424-27.732 46.911z"/><path style="fill:#eb7d4b" d="m334.819 240.591-7.437-7.437c14.219-14.219 21.608-18.119 22.404-18.518l4.705 9.409-2.353-4.705 2.393 4.684c-.066.035-6.726 3.582-19.712 16.567z"/><path style="fill:#e67346" d="m438.796 264.116 4.143-9.669-2.071 4.835 2.095-4.823c-.873-.385-21.38-9.741-21.38-37.254h-10.519c0 34.626 26.599 46.424 27.732 46.911z"/><path style="fill:#eb7d4b" d="m434.684 240.591 7.437-7.437c-14.219-14.219-21.608-18.119-22.404-18.518l-4.705 9.409 2.353-4.705-2.393 4.684c.066.035 6.726 3.582 19.712 16.567z"/><path style="fill:#4173cd" d="M384.736 80.458h-56.102v84.152c0 17.531 3.507 63.114 56.102 80.646 52.595-17.532 56.102-63.114 56.102-80.646V80.458z"/><path style="fill:#c8c8c8" d="M409.28 101.496h-30.144c-3.185 0-6.274-1.084-8.761-3.073l-11.769-9.416c-1.244-.994-2.788-1.537-4.381-1.537h-1.046c-3.873 0-7.012 3.139-7.012 7.012h-5.259c-2.904 0-5.259 2.355-5.259 5.259 0 2.904 2.355 5.259 5.259 5.259h5.259c1.937 0 3.507 1.57 3.507 3.507v17.532c0 6.528 4.48 11.966 10.519 13.529v11.015h7.012l2.63-10.519h32.434l3.507 3.507v7.012h3.507v-10.519h3.507v10.519h3.507v-11.491c2.088-1.215 3.507-3.45 3.507-6.04v-21.038c-.005-5.808-4.714-10.518-10.524-10.518z"/><path style="fill:#73af00" transform="translate(0 -88.276)" d="m416.294 256.392 7.012-21.038h-77.14l7.014 21.038z"/><path style="fill:#f5f5f5" d="M422.092 161.103c-9.348 0-9.348 7.012-18.696 7.012-9.345 0-9.345-7.012-18.691-7.012-9.344 0-9.344 7.012-18.689 7.012-9.347 0-9.347-7.012-18.695-7.012-9.327 0-9.351 6.98-18.638 7.01.113 3.906.447 8.683 1.31 13.963 7.992-.653 8.466-6.947 17.329-6.947 9.347 0 9.347 7.012 18.695 7.012 9.344 0 9.344-7.012 18.689-7.012s9.345 7.012 18.691 7.012c9.348 0 9.348-7.012 18.696-7.012 8.887 0 9.354 6.307 17.385 6.948.862-5.279 1.197-10.057 1.31-13.963-9.331-.016-9.343-7.011-18.696-7.011z"/><path style="fill:#4173cd" d="M422.092 175.129c-9.348 0-9.348 7.012-18.696 7.012-9.345 0-9.345-7.012-18.691-7.012-9.344 0-9.344 7.012-18.689 7.012-9.347 0-9.347-7.012-18.695-7.012-8.863 0-9.336 6.294-17.329 6.947.686 4.202 1.717 8.722 3.225 13.367 5.115-1.786 6.607-6.29 14.103-6.29 9.347 0 9.347 7.012 18.695 7.012 9.344 0 9.344-7.012 18.689-7.012s9.345 7.012 18.691 7.012c9.348 0 9.348-7.012 18.696-7.012 7.523 0 9.01 4.521 14.156 6.301 1.51-4.649 2.541-9.172 3.229-13.377-8.029-.642-8.496-6.948-17.384-6.948z"/><path style="fill:#f5f5f5" d="M422.092 189.154c-9.348 0-9.348 7.012-18.696 7.012-9.345 0-9.345-7.012-18.691-7.012-9.344 0-9.344 7.012-18.689 7.012-9.347 0-9.347-7.012-18.695-7.012-7.496 0-8.989 4.503-14.103 6.29 1.209 3.724 2.74 7.527 4.655 11.317 2.371-1.778 4.707-3.582 9.448-3.582 9.347 0 9.347 7.012 18.695 7.012 9.344 0 9.344-7.012 18.689-7.012s9.345 7.012 18.691 7.012c9.348 0 9.348-7.012 18.696-7.012 4.768 0 7.109 1.819 9.494 3.604 1.919-3.794 3.452-7.601 4.662-11.328-5.146-1.78-6.633-6.301-14.156-6.301z"/><path style="fill:#4173cd" d="M422.092 203.179c-9.348 0-9.348 7.012-18.696 7.012-9.345 0-9.345-7.012-18.691-7.012-9.344 0-9.344 7.012-18.689 7.012-9.347 0-9.347-7.012-18.695-7.012-4.74 0-7.078 1.803-9.448 3.582 1.825 3.612 4.007 7.206 6.613 10.705.847-.16 1.774-.26 2.835-.26 9.347 0 9.347 7.012 18.695 7.012 9.344 0 9.344-7.012 18.689-7.012s9.345 7.012 18.691 7.012c9.348 0 9.348-7.012 18.696-7.012 1.081 0 2.026.102 2.887.267 2.603-3.493 4.783-7.082 6.607-10.689-2.384-1.787-4.725-3.605-9.494-3.605z"/><path style="fill:#f5f5f5" d="M424.979 217.472c-.86-.165-1.805-.267-2.887-.267-9.348 0-9.348 7.012-18.696 7.012-9.345 0-9.345-7.012-18.691-7.012-9.344 0-9.344 7.012-18.689 7.012-9.347 0-9.347-7.012-18.695-7.012-1.06 0-1.987.1-2.835.26 5.683 7.628 13.391 14.781 23.823 20.6 7.104-1.048 7.894-6.835 16.394-6.835 8.52 0 9.294 5.812 16.442 6.841 10.438-5.817 18.149-12.97 23.834-20.599z"/><path style="fill:#ff965a" d="M382.98999 249.38h3.507v59.61h-3.507z" transform="translate(0 -88.276)"/><path style="fill:#ff965a" d="M374.20999 258.14001h21.04v3.507h-21.04zm0 21.03998h21.04v3.507h-21.04z" transform="translate(0 -88.276)"/><path style="fill:#ffe15a" d="M374.20999 173.36401h21.04v13.87h-21.04z"/><path style="fill:#ff4b55" transform="translate(0 -88.276)" d="m372.463 252.886 10.52-3.507v7.013z"/><path style="fill:#ff965a" d="M406.35999 249.38h3.507v41.2h-3.507z" transform="translate(0 -88.276)"/><path style="fill:#ff965a" d="M397.59 258.14001h21.04v3.507h-21.04zm0 21.03998h21.04v3.507h-21.04z" transform="translate(0 -88.276)"/><path style="fill:#ffe15a" d="M397.59 173.36401h21.04v13.87h-21.04z"/><path style="fill:#ff4b55" transform="translate(0 -88.276)" d="m395.839 252.886 10.519-3.507v7.013z"/><path style="fill:#ff965a" d="M359.45999 249.38h3.507v40.905h-3.507z" transform="translate(0 -88.276)"/><path style="fill:#ff965a" d="M350.70001 258.14001h21.04v3.507h-21.04zm0 21.03998h21.04v3.507h-21.04z" transform="translate(0 -88.276)"/><path style="fill:#ffe15a" d="M350.70001 173.36401h21.04v13.87h-21.04z"/><path style="fill:#ff4b55" transform="translate(0 -88.276)" d="m348.942 252.886 10.52-3.507v7.013z"/><path style="fill:#ff965a" d="M402.268 199.673c0 9.666-7.865 17.532-17.532 17.532s-17.532-7.865-17.532-17.532h-6.985l-23.747-5.363-.773 3.421 10.467 2.364v3.084l7.717 3.086c3.042 14.244 15.714 24.963 30.852 24.963 14.987 0 27.543-10.513 30.744-24.544h11.331v-10.519z"/><path style="fill:#f5f5f5" d="M440.838 80.458v84.152c0 17.531-3.507 63.114-56.102 80.646-52.595-17.532-56.102-63.114-56.102-80.646V80.458h112.204m3.505-3.507H325.125v87.659c0 41.576 20.776 71.398 58.499 83.972l1.109.37 1.109-.37c37.724-12.575 58.499-42.397 58.499-83.972V80.458z"/><path style="fill:#ff965a" d="M384.736 262.787c-25.807 0-49.741-8.646-64.021-23.127l9.985-9.848c11.702 11.864 31.903 18.949 54.037 18.949s42.335-7.084 54.037-18.949l9.985 9.848c-14.282 14.481-38.216 23.127-64.023 23.127z"/></svg>