<svg xmlns="http://www.w3.org/2000/svg" xml:space="preserve" width="512" height="335.45001"><path style="fill:#f5f5f5" d="M473.655 335.449H38.345C17.167 335.449 0 318.281 0 297.104V38.345C0 17.168 17.167 0 38.345 0h435.31C494.832 0 512 17.167 512 38.345v258.759c0 21.177-17.167 38.345-38.345 38.345z"/><path style="fill:#41479b" transform="translate(0 -88.273)" d="M229.517 88.28h-88.276v123.586H0v88.276h141.241v123.586h88.276V300.142H512v-88.276H229.517z"/><path style="fill:#ff4b55" transform="translate(0 -88.273)" d="M211.862 88.28h-52.965v141.241H0v52.966h158.897v141.241h52.965V282.487H512v-52.966H211.862z"/></svg>