<?xml version="1.0" encoding="UTF-8" standalone="no"?>
<svg
   xmlns:dc="http://purl.org/dc/elements/1.1/"
   xmlns:cc="http://creativecommons.org/ns#"
   xmlns:rdf="http://www.w3.org/1999/02/22-rdf-syntax-ns#"
   xmlns:svg="http://www.w3.org/2000/svg"
   xmlns="http://www.w3.org/2000/svg"
   xmlns:sodipodi="http://sodipodi.sourceforge.net/DTD/sodipodi-0.dtd"
   xmlns:inkscape="http://www.inkscape.org/namespaces/inkscape"
   version="1.1"
   id="Layer_1"
   x="0px"
   y="0px"
   viewBox="0 0 512 335.45001"
   xml:space="preserve"
   sodipodi:docname="gb-sct.svg"
   width="512"
   height="335.45001"
   inkscape:version="1.0.1 (c497b03c, 2020-09-10)"><metadata
   id="metadata485"><rdf:RDF><cc:Work
       rdf:about=""><dc:format>image/svg+xml</dc:format><dc:type
         rdf:resource="http://purl.org/dc/dcmitype/StillImage" /><dc:title></dc:title></cc:Work></rdf:RDF></metadata><defs
   id="defs483" /><sodipodi:namedview
   pagecolor="#ffffff"
   bordercolor="#666666"
   borderopacity="1"
   objecttolerance="10"
   gridtolerance="10"
   guidetolerance="10"
   inkscape:pageopacity="0"
   inkscape:pageshadow="2"
   inkscape:window-width="1138"
   inkscape:window-height="887"
   id="namedview481"
   showgrid="false"
   inkscape:zoom="1.1738281"
   inkscape:cx="256"
   inkscape:cy="256"
   inkscape:window-x="0"
   inkscape:window-y="23"
   inkscape:window-maximized="0"
   inkscape:current-layer="Layer_1" />
<path
   style="fill:#4173cd"
   d="M 473.655,335.448 H 38.345 C 17.167,335.448 0,318.281 0,297.103 V 38.345 C 0,17.168 17.167,0 38.345,0 h 435.31 C 494.832,0 512,17.167 512,38.345 v 258.759 c 0,21.177 -17.167,38.344 -38.345,38.344 z"
   id="path446" />
<path
   style="fill:#f5f5f5"
   d="M 511.47,303.437 304.329,167.724 511.47,32.011 C 508.45,13.849 492.674,0 473.655,0 h -9.984 L 256,136.061 48.329,0 H 38.345 C 19.326,0 3.55,13.849 0.53,32.011 L 207.671,167.724 0.53,303.437 c 3.02,18.162 18.796,32.011 37.815,32.011 h 9.984 L 256,199.387 463.671,335.448 h 9.984 c 19.019,0 34.795,-13.849 37.815,-32.011 z"
   id="path448" />
<g
   id="g450"
   transform="translate(0,-88.276)">
</g>
<g
   id="g452"
   transform="translate(0,-88.276)">
</g>
<g
   id="g454"
   transform="translate(0,-88.276)">
</g>
<g
   id="g456"
   transform="translate(0,-88.276)">
</g>
<g
   id="g458"
   transform="translate(0,-88.276)">
</g>
<g
   id="g460"
   transform="translate(0,-88.276)">
</g>
<g
   id="g462"
   transform="translate(0,-88.276)">
</g>
<g
   id="g464"
   transform="translate(0,-88.276)">
</g>
<g
   id="g466"
   transform="translate(0,-88.276)">
</g>
<g
   id="g468"
   transform="translate(0,-88.276)">
</g>
<g
   id="g470"
   transform="translate(0,-88.276)">
</g>
<g
   id="g472"
   transform="translate(0,-88.276)">
</g>
<g
   id="g474"
   transform="translate(0,-88.276)">
</g>
<g
   id="g476"
   transform="translate(0,-88.276)">
</g>
<g
   id="g478"
   transform="translate(0,-88.276)">
</g>
</svg>
