<?xml version="1.0" encoding="UTF-8" standalone="no"?>
<svg
   xmlns:dc="http://purl.org/dc/elements/1.1/"
   xmlns:cc="http://creativecommons.org/ns#"
   xmlns:rdf="http://www.w3.org/1999/02/22-rdf-syntax-ns#"
   xmlns:svg="http://www.w3.org/2000/svg"
   xmlns="http://www.w3.org/2000/svg"
   xmlns:sodipodi="http://sodipodi.sourceforge.net/DTD/sodipodi-0.dtd"
   xmlns:inkscape="http://www.inkscape.org/namespaces/inkscape"
   version="1.1"
   id="Layer_1"
   x="0px"
   y="0px"
   viewBox="0 0 512 335.45001"
   xml:space="preserve"
   sodipodi:docname="gb-wls.svg"
   width="512"
   height="335.45001"
   inkscape:version="1.0.1 (c497b03c, 2020-09-10)"><metadata
   id="metadata3264"><rdf:RDF><cc:Work
       rdf:about=""><dc:format>image/svg+xml</dc:format><dc:type
         rdf:resource="http://purl.org/dc/dcmitype/StillImage" /><dc:title></dc:title></cc:Work></rdf:RDF></metadata><defs
   id="defs3262" /><sodipodi:namedview
   pagecolor="#ffffff"
   bordercolor="#666666"
   borderopacity="1"
   objecttolerance="10"
   gridtolerance="10"
   guidetolerance="10"
   inkscape:pageopacity="0"
   inkscape:pageshadow="2"
   inkscape:window-width="1064"
   inkscape:window-height="685"
   id="namedview3260"
   showgrid="false"
   inkscape:zoom="1.2617188"
   inkscape:cx="256"
   inkscape:cy="256"
   inkscape:window-x="0"
   inkscape:window-y="23"
   inkscape:window-maximized="0"
   inkscape:current-layer="Layer_1" />
<path
   style="fill:#f5f5f5"
   d="M 473.655,0 H 38.345 C 17.167,0 0,17.167 0,38.345 V 167.724 H 512 V 38.345 C 512,17.167 494.833,0 473.655,0 Z"
   id="path3211" />
<path
   style="fill:#73af00"
   d="m 0,297.103 c 0,21.177 17.167,38.345 38.345,38.345 h 435.31 c 21.177,0 38.345,-17.167 38.345,-38.345 V 167.724 H 0 Z"
   id="path3213" />
<g
   id="g3221"
   transform="translate(0,-88.276)">
	<path
   style="fill:#ff4b55"
   d="m 389.491,186.436 c 0,0 6.102,16.737 6.625,17.609 l 0.697,-1.395 4.184,-21.793 10.809,-20.224 -3.138,0.349 -24.583,11.855 c 0,0 -14.645,16.04 -14.819,16.563 -0.174,0.523 20.225,-2.964 20.225,-2.964 z"
   id="path3215" />
	<path
   style="fill:#ff4b55"
   d="m 398.151,346.486 c -0.813,-0.117 -12.902,0.465 -12.902,0.465 l -3.951,-13.25 -2.266,-25.047 4.271,-1.133 5.318,2.528 1.918,-10.025 c 0,0 -4.62,-5.056 -5.492,-5.405 -0.872,-0.349 -11.332,-2.702 -11.332,-2.702 l -14.035,-18.568 16.737,-9.327 13.076,-17.958 3.138,-16.214 -2.615,-13.425 -5.947,-9.956 c -0.088,-0.284 -0.156,-0.504 -0.156,-0.504 -0.042,-0.053 -0.189,-0.153 -0.282,-0.231 l -1.112,-1.862 -0.018,1.086 c -2.579,-1.611 -7.858,-4.413 -9.223,-5.096 -1.743,-0.872 -10.984,-2.441 -12.902,-1.046 -1.918,1.395 -10.809,5.579 -12.378,8.543 -1.569,2.964 -2.615,13.599 -2.615,13.599 0,0 2.615,5.928 5.928,7.322 3.313,1.395 9.763,2.964 10.809,2.615 0.903,-0.301 11.137,-3.325 13.929,-4.597 l 1.239,2.505 -0.523,7.148 -5.753,4.01 -10.635,4.184 c 0,0 -16.214,-4.533 -16.911,-4.359 -0.697,0.174 -20.747,-5.928 -20.747,-5.928 l -18.829,-4.359 6.276,-3.138 17.086,-1.22 c 0,0 3.313,-19.352 3.836,-19.701 0.523,-0.349 11.681,-9.24 11.681,-9.24 l 9.24,-2.266 -5.579,-23.654 8.369,-25.803 -21.852,6.276 -34.636,8.6 -22.083,-1.395 -19.527,6.276 -12.553,11.391 -7.207,9.763 -2.557,15.575 -1.628,20.69 -6.044,11.391 -6.848,5.368 c -0.768,-2.027 -4.367,-9.784 -4.367,-9.784 l 8.717,-2.092 -2.266,-5.753 -6.102,-4.533 1.918,-6.974 6.974,3.836 1.918,1.395 1.22,-7.148 -7.671,-10.809 1.22,-5.405 9.24,4.882 -1.046,-12.553 -8.194,-5.056 0.523,-6.974 8.95,2.674 -0.93,-6.625 -9.763,-7.091 9.53,-15.342 -11.623,0.582 -0.93,-4.999 -3.021,-1.163 c 0,0 -16.157,6.858 -17.319,6.625 -1.162,-0.232 -14.063,-1.975 -15.575,-1.628 -1.511,0.349 -6.857,1.743 -6.857,1.743 l -1.512,5.928 -9.879,-1.628 -14.645,-1.22 -4.417,5.405 6.974,2.79 c 0,0 -1.626,12.32 -1.162,13.25 0.465,0.929 4.649,6.974 4.649,6.974 l -9.53,13.017 9.763,1.395 13.483,-2.092 -0.466,3.255 17.9,-1.86 -3.953,2.092 -5.114,15.342 -14.878,30.22 -5.23,26.849 -8.369,-8.717 -5.579,-23.014 -8.369,-22.665 c 0,0 -1.743,-6.974 -2.79,-7.148 -1.046,-0.174 -5.579,-1.046 -5.579,-1.046 l -5.753,4.707 -7.322,-1.046 -4.184,5.753 4.707,7.322 c 0,0 -7.846,3.138 -7.846,4.01 0,0.872 0.523,5.928 1.046,6.102 0.523,0.174 12.378,-0.174 12.378,-0.174 l 7.148,12.727 -5.579,14.645 2.79,5.579 4.882,0.697 4.533,-5.23 15.691,46.899 c 0,0 -1.22,6.102 -2.092,6.625 -0.872,0.523 -5.056,5.23 -4.01,5.23 1.046,0 7.497,0.872 8.194,0.523 0.697,-0.349 9.763,-7.322 9.763,-7.322 0,0 14.296,-10.984 15.168,-10.112 0.872,0.872 14.471,9.24 14.471,9.24 l -6.276,21.619 -14.819,21.619 -9.24,-5.579 -6.625,-9.415 -4.882,1.569 -1.743,2.964 0.697,6.276 c 0,0 -5.056,4.01 -5.056,4.882 0,0.872 0.523,7.148 0.523,7.148 0,0 3.313,1.569 3.487,2.441 0.174,0.872 1.918,7.148 1.918,7.148 l 3.487,1.22 6.625,-4.01 h 10.984 l 6.799,1.046 14.471,-4.533 21.096,1.046 -1.918,-4.01 c 0,0 -8.543,-4.359 -11.507,-5.23 -2.964,-0.872 -5.928,-1.569 -5.928,-1.569 l -1.22,-6.102 20.747,-24.583 7.671,-1.569 2.615,6.451 c 0,0 8.601,-2.092 8.601,-2.79 0,-0.697 0,-8.137 0,-8.834 0,-0.697 -1.86,-6.508 -1.86,-6.508 0,0 -0.025,-0.214 -0.063,-0.533 l 6.571,-1.095 22.781,-10.925 8.02,9.646 9.996,4.766 -12.437,22.316 -10.694,7.207 -7.671,-3.487 -10.694,-7.904 -4.184,2.558 0.93,7.904 -6.276,-0.465 -2.79,5.579 4.649,6.741 -1.628,5.347 c 0,0 1.162,4.882 2.325,4.882 1.162,0 8.136,-2.558 8.136,-2.558 l 20.457,-1.628 14.878,-4.882 15.575,1.162 c 0,0 3.022,-10.461 2.325,-10.461 -0.697,0 -0.93,-0.233 -2.79,-0.233 -1.859,0 -8.369,0.233 -8.369,0.233 l -0.233,-2.324 5.114,-9.298 19.759,-16.505 5.812,1.162 2.092,3.021 5.812,-4.416 -0.233,-7.439 -5.113,-5.346 -5.115,-6.045 1.628,-9.066 8.833,4.184 c 0,0 13.948,9.763 15.109,10.229 1.162,0.465 28.128,7.438 28.128,7.438 l 5.579,13.25 -2.79,20.921 -8.601,-2.557 -8.136,-10.461 c 0,0 -2.325,-1.163 -3.487,-0.93 -1.162,0.233 -3.951,4.882 -3.951,4.882 l 2.79,6.509 -3.72,1.162 -3.487,2.325 -0.697,4.882 3.254,3.021 c 0,0 0,5.579 0,6.276 0,0.697 1.86,3.254 2.558,3.487 0.697,0.232 6.044,0.929 7.322,0.814 1.279,-0.117 10.809,-4.068 10.809,-4.068 0,0 17.899,0.349 18.365,0.233 0.466,-0.116 15.924,-3.487 15.924,-3.487 l 8.717,1.395 c 0,0 5.812,-4.417 5.579,-4.999 -0.231,-0.574 -6.043,-6.037 -6.856,-6.153 z M 364.734,220.608 c -4.707,0.523 -7.148,1.918 -7.497,-0.697 -0.349,-2.615 -0.349,-7.846 0.174,-8.02 0.523,-0.174 5.928,-3.313 6.102,-2.79 0.174,0.523 5.579,3.138 5.579,3.138 l 3.292,6.653 c -1.737,0.923 -4.416,1.356 -7.65,1.716 z"
   id="path3217" />
	<path
   style="fill:#ff4b55"
   d="m 127.101,177.894 c 0,0 1.918,-9.938 2.441,-9.938 0.523,0 7.671,-2.615 7.671,-2.615 l -21.27,-13.773 c 0,0 3.661,16.911 4.01,18.306 0.348,1.394 7.148,8.02 7.148,8.02 z"
   id="path3219" />
</g>
<g
   id="g3227"
   transform="translate(0,-88.276)">
	<path
   style="fill:#464655"
   d="m 181.202,157.441 c 0.074,0.017 0.498,0.111 1.146,0.239 l -0.16,0.697 c -0.262,1.122 0.441,2.25 1.569,2.506 0.158,0.039 0.316,0.054 0.471,0.054 0.951,0 1.814,-0.653 2.035,-1.623 l 0.224,-0.974 c 1.507,0.186 3.166,0.331 4.769,0.331 1.354,0 2.662,-0.098 3.787,-0.36 1.125,-0.262 1.827,-1.384 1.566,-2.506 -0.262,-1.128 -1.376,-1.847 -2.509,-1.569 -3.31,0.779 -9.763,-0.371 -11.965,-0.872 -1.103,-0.262 -2.244,0.441 -2.506,1.569 -0.255,1.129 0.448,2.252 1.573,2.508 z"
   id="path3223" />
	<path
   style="fill:#464655"
   d="m 388.332,191.217 5.272,16.098 c 0.284,0.861 1.087,1.438 1.988,1.438 0.03,0 0.06,0 0.093,0 0.937,-0.044 1.732,-0.703 1.945,-1.618 3.858,-16.53 11.577,-42.677 17.034,-46.948 0.76,-0.594 1.013,-1.623 0.618,-2.506 -0.392,-0.872 -1.326,-1.373 -2.285,-1.198 -1.117,0.207 -27.582,5.362 -45.995,32.979 -0.471,0.708 -0.469,1.629 0.006,2.332 0.477,0.703 1.326,1.03 2.161,0.877 l 15.333,-3.17 c -2.147,5.176 -3.516,9.73 -3.99,11.403 -6.982,-4.249 -14.856,-5.005 -20.317,-3.591 -6.232,1.634 -11.471,5.607 -14.376,10.902 -2.226,4.058 -2.814,8.515 -1.615,12.226 1.393,4.31 5.108,9.671 11.366,11.779 4.146,1.408 10.845,1.72 19.677,-3.746 0,0.042 0.007,0.082 0.006,0.122 -0.06,3.487 -1.849,6.33 -5.326,8.461 -6.909,4.234 -19.022,4.516 -26.996,0.616 -10.515,-5.133 -26.324,-8.055 -35.156,-9.38 5.476,-1.746 12.097,-2.238 20.053,-0.416 0.108,0.028 0.213,-0.015 0.321,-0.007 0.053,0.004 0.094,0.062 0.148,0.062 0.058,0 0.103,-0.062 0.161,-0.067 0.481,-0.039 0.947,-0.185 1.3,-0.527 0.006,-0.006 0.007,-0.013 0.011,-0.019 0.002,-0.002 0.006,-10e-4 0.006,-10e-4 0.01,-0.01 0.007,-0.024 0.014,-0.032 0.338,-0.352 0.487,-0.802 0.529,-1.274 0.01,-0.113 0.023,-0.2 0.015,-0.312 -0.006,-0.095 0.033,-0.185 0.013,-0.279 -0.024,-0.12 -2.343,-11.997 4.04,-20.181 3.836,-4.92 10.11,-7.606 18.647,-7.992 0.135,-0.007 0.246,-0.083 0.375,-0.115 0.185,-0.043 0.369,-0.071 0.536,-0.163 0.152,-0.085 0.259,-0.218 0.386,-0.338 0.106,-0.099 0.237,-0.159 0.323,-0.284 0.019,-0.025 0.02,-0.057 0.036,-0.084 0.014,-0.023 0.042,-0.033 0.056,-0.057 0.038,-0.065 0.029,-0.141 0.06,-0.21 0.095,-0.209 0.16,-0.418 0.182,-0.639 0.011,-0.106 0.011,-0.203 0.004,-0.309 -0.012,-0.236 -0.066,-0.458 -0.156,-0.676 -0.022,-0.055 -0.011,-0.117 -0.04,-0.17 -0.169,-0.332 -16.585,-33.159 10.162,-55.078 0.868,-0.714 1.018,-1.988 0.341,-2.882 -0.681,-0.888 -1.942,-1.095 -2.869,-0.447 -26.408,18.54 -62.906,20.54 -77.372,20.54 -25.801,0 -42.102,9.715 -49.838,29.694 -0.803,2.077 -1.373,4.538 -1.85,7.175 0.258,-3.697 -0.418,-6.937 -2.086,-9.647 -2.381,-3.864 -6.023,-5.482 -7.66,-6.044 0.001,-0.948 -0.007,-1.887 -0.035,-2.808 2.826,-0.435 6.18,1.759 7.286,2.69 0.387,0.327 0.87,0.501 1.356,0.501 0.321,0 0.646,-0.076 0.942,-0.228 0.751,-0.382 1.204,-1.172 1.144,-2.01 -0.684,-9.729 -7.284,-14.457 -11.812,-16.056 3.992,-3.174 8.247,-8.363 10.854,-16.829 0.25,-0.818 -0.019,-1.705 -0.684,-2.239 -0.664,-0.54 -1.591,-0.621 -2.332,-0.207 -0.071,0.04 -4.33,2.346 -10.732,4.247 l 0.585,-7.603 c 0.057,-0.768 -0.31,-1.51 -0.964,-1.923 -0.651,-0.419 -1.484,-0.436 -2.152,-0.054 -0.108,0.06 -10.82,6.072 -21.745,9.246 -8.246,-2.073 -18.978,-3.687 -23.047,0.551 -0.981,1.018 -1.894,2.675 -1.667,5.241 -7.02,-1.465 -23.136,-3.863 -32.919,2.463 -0.771,0.495 -1.126,1.439 -0.877,2.321 0.25,0.883 1.046,1.504 1.964,1.526 3.105,0.076 7.905,0.79 9.908,2.114 -0.883,2.381 -2.343,7.426 -1.068,12.291 -4.246,1.23 -8.701,1.42 -14.119,-1.511 l 4.723,-1.159 c 0.847,-0.207 1.476,-0.92 1.58,-1.788 0.1,-0.866 -0.345,-1.706 -1.12,-2.103 -0.12,-0.065 -12.03,-6.26 -21.935,-16.672 -0.561,-0.583 -1.414,-0.796 -2.196,-0.534 -0.774,0.267 -1.321,0.959 -1.4,1.771 -0.085,0.839 -1.86,20.632 13.171,32.369 0.376,0.289 0.831,0.441 1.289,0.441 0.286,0 0.572,-0.06 0.844,-0.18 0.703,-0.31 1.182,-0.981 1.242,-1.749 l 0.583,-7.476 c 7.499,4.49 13.708,4.061 19.033,2.442 0.668,1.018 1.517,1.988 2.588,2.877 0.171,0.143 0.408,0.298 0.647,0.455 -3.423,8.014 -10.22,10.079 -10.511,10.159 -0.847,0.245 -1.454,0.992 -1.515,1.868 -0.063,0.877 0.428,1.699 1.231,2.059 0.506,0.223 11.455,4.958 23.727,0.588 l -0.193,1.4 c -0.082,0.588 0.093,1.187 0.482,1.64 0.386,0.458 0.951,0.725 1.547,0.736 0.052,0 0.191,0.006 0.408,0.006 1.409,0 6.083,-0.107 11.382,-1.324 -0.8,7.486 -5.362,16.407 -10.214,25.82 -6.568,12.751 -13.888,27.132 -13.771,41.654 -2.506,-3.244 -5.626,-8.301 -7.169,-15.017 -0.534,-2.332 -0.888,-4.424 -1.209,-6.336 -0.782,-4.626 -1.458,-8.625 -4.192,-12.384 -3.092,-4.249 -7.464,-13.735 -7.274,-18.916 0.18,-4.789 -2.958,-7.606 -6.146,-8.276 -0.23,-0.047 -0.447,0.012 -0.675,-0.015 -0.755,-1.521 -2.799,-4.434 -7.497,-4.769 -1.13,-0.152 -2.155,0.785 -2.237,1.94 -0.082,1.15 0.785,2.152 1.937,2.233 1.639,0.116 2.655,0.742 3.279,1.366 -1.535,0.789 -2.777,2.105 -3.642,3.79 -2.801,-1.614 -5.631,-2.018 -7.796,-1.523 -0.561,0.127 -0.985,0.43 -1.469,0.659 -1.417,-0.739 -5.191,-2.146 -9.739,0.746 -0.975,0.616 -1.265,1.912 -0.643,2.888 0.397,0.627 1.076,0.97 1.768,0.97 0.382,0 0.771,-0.104 1.12,-0.327 1.624,-1.031 3.011,-1.166 4.029,-1.036 -0.746,1.382 -1.17,2.904 -1.097,4.322 0.145,2.817 1.773,5.002 4.29,5.928 -3.002,0.572 -5.546,1.966 -6.905,3.852 -0.22,0.306 -0.265,0.653 -0.423,0.977 -1.912,0.198 -4.853,1.484 -6.712,5.415 -0.495,1.041 -0.049,2.289 0.994,2.784 0.291,0.136 0.594,0.202 0.894,0.202 0.785,0 1.536,-0.441 1.894,-1.198 0.829,-1.749 1.803,-2.443 2.531,-2.76 1.987,6.554 8.448,5.062 12.345,4.149 l 1.561,-0.354 c 2.185,-0.436 6.037,5.944 7.072,10.084 0.719,2.877 -0.512,6.397 -4.392,12.553 -2.356,3.748 -1.678,6.462 -0.692,8.079 0.02,0.033 0.052,0.051 0.072,0.082 -0.626,0.188 -1.397,0.323 -2.439,0.185 -1.126,-0.228 -2.201,0.643 -2.356,1.788 -0.154,1.144 0.646,2.201 1.79,2.354 0.534,0.076 1.038,0.109 1.515,0.109 2.433,0 4.054,-0.831 5.028,-1.511 1.361,0.582 2.761,0.801 3.796,0.721 2.886,-0.239 4.839,-2.767 6.159,-5.906 3.849,21.222 12.694,40.928 14.231,44.252 -0.31,7.519 -8.426,9.283 -8.777,9.361 -0.902,0.185 -1.577,0.937 -1.662,1.858 -0.084,0.916 0.436,1.777 1.286,2.125 3.531,1.443 6.62,2.022 9.303,2.022 8.276,0 12.651,-5.459 14.029,-7.562 6.112,-2.129 13.277,-7.113 16.074,-9.152 4.664,3.495 8.541,5.432 9.836,6.038 -2.253,22.184 -15.26,37.17 -19.065,41.099 -2.577,-1.476 -8.268,-5.121 -10.147,-9.464 -1.778,-4.104 -5.075,-5.26 -7.764,-5.02 -0.903,-1.166 -2.929,-3.341 -5.772,-3.655 -1.397,-0.147 -3.517,0.109 -5.672,2.266 -0.818,0.818 -0.818,2.141 0,2.958 0.814,0.818 2.138,0.823 2.958,0.006 1.182,-1.182 1.986,-1.111 2.248,-1.074 0.806,0.086 1.585,0.669 2.2,1.27 -1.525,1.3 -2.47,3.119 -2.317,5.105 0.108,1.395 0.631,2.707 1.368,3.927 -1.524,0.793 -3.36,2.094 -4.569,4.152 -0.043,0.074 -0.093,0.191 -0.138,0.273 -2.497,0.159 -6.994,1.922 -7.694,7.742 -0.136,1.15 0.681,2.19 1.828,2.326 0.087,0.011 0.169,0.017 0.254,0.017 1.044,0 1.948,-0.779 2.076,-1.842 0.25,-2.084 1.26,-3.087 2.206,-3.588 -0.024,0.858 0.047,1.751 0.355,2.684 0.722,2.196 2.429,3.977 4.977,5.361 -0.269,0.858 -0.445,1.772 -0.468,2.761 -1.345,0.679 -3.329,1.944 -4.345,4.098 -0.76,1.608 -0.807,3.405 -0.139,5.203 0.313,0.844 1.111,1.362 1.961,1.362 0.243,0 0.49,-0.043 0.73,-0.13 1.085,-0.403 1.634,-1.608 1.231,-2.691 -0.365,-0.975 -0.177,-1.58 -0.002,-1.951 0.308,-0.659 0.924,-1.213 1.551,-1.643 0.776,1.393 1.948,2.454 3.516,2.972 0.716,0.234 1.46,0.349 2.207,0.349 2.489,0 5.012,-1.259 6.631,-3.448 1.937,-2.626 5.726,-1.122 5.972,-1.018 7.922,2.877 18.625,0.708 25.103,-2.931 3.593,-2.022 16.253,-0.931 23.392,0.239 0.558,0.076 1.152,-0.06 1.613,-0.403 0.458,-0.354 0.749,-0.877 0.807,-1.454 0.722,-7.224 -8.625,-9.142 -16.136,-10.684 -2.046,-0.419 -3.993,-0.818 -5.83,-1.602 -0.733,-4.238 10.281,-19.668 20.775,-27.383 2.572,-1.89 4.642,-2.648 5.679,-2.092 1.482,0.812 1.953,4.593 1.803,6.892 -0.004,0.061 0.031,0.113 0.032,0.173 0.002,0.228 0.045,0.447 0.125,0.669 0.034,0.094 0.06,0.181 0.106,0.268 0.029,0.056 0.032,0.117 0.066,0.17 0.12,0.184 0.282,0.319 0.444,0.451 0.032,0.026 0.043,0.069 0.077,0.094 0.008,0.006 0.018,0.004 0.018,0.004 0.271,0.193 0.569,0.307 0.884,0.359 0.081,0.013 0.157,10e-4 0.238,0.004 0.234,0.012 0.46,-0.012 0.69,-0.082 0.054,-0.015 0.111,0.001 0.164,-0.019 0.17,-0.066 0.354,-0.16 0.527,-0.231 1.116,-0.572 3.007,0.066 4.33,0.744 -0.246,0.763 -0.395,1.559 -0.324,2.423 0.087,1.079 0.423,2.152 0.946,3.182 -2.073,-0.234 -4.012,0 -5.416,1.079 -0.501,0.384 -0.896,0.868 -1.295,1.346 -2.945,0.291 -6.628,2.147 -7.503,6.532 -0.226,1.133 0.506,2.233 1.64,2.463 0.139,0.028 0.278,0.039 0.414,0.039 0.975,0 1.849,-0.686 2.049,-1.684 0.21,-1.047 0.746,-1.681 1.336,-2.158 -0.018,0.764 0.064,1.521 0.29,2.234 0.409,1.294 1.515,3.224 4.327,4.303 -0.253,0.43 -0.471,0.889 -0.664,1.357 -2.094,0.673 -5.248,2.845 -5.248,7.454 0,1.155 0.937,2.092 2.092,2.092 1.155,0 2.092,-0.937 2.092,-2.092 0,-0.814 0.202,-1.405 0.468,-1.894 0.067,0.302 0.116,0.614 0.224,0.896 0.506,1.324 2.029,3.808 6.295,3.808 1.406,0 3.105,-0.267 5.165,-0.937 4.993,-1.619 8.532,-1.788 11.954,-1.956 4.092,-0.196 7.957,-0.387 13.387,-2.904 7.823,-3.634 17.514,-2.402 22.591,-1.341 2.751,0.567 5.443,-0.785 6.551,-3.307 0.381,-0.86 0.63,-1.613 0.893,-2.378 2.367,0.284 2.857,2.584 2.921,3.092 0.117,1.068 1.022,1.864 2.076,1.864 0.071,0 0.145,-0.006 0.218,-0.011 1.15,-0.12 1.986,-1.15 1.866,-2.3 -0.226,-2.186 -1.846,-6.108 -6.182,-6.789 0.055,-1.484 -0.234,-2.706 -0.961,-3.606 -0.796,-0.981 -2.378,-2.01 -5.479,-1.373 -3.209,0.664 -4.685,0.796 -5.351,0.736 0.1,-0.408 0.338,-1.133 0.891,-2.37 1.869,-4.206 14.277,-15.299 22.403,-21.94 1.959,-0.441 4.444,-0.469 5.017,0.185 0.202,0.223 0.202,0.992 -0.256,2.207 -0.327,0.861 -0.052,1.831 0.673,2.392 0.722,0.562 1.73,0.588 2.482,0.065 0.324,-0.228 7.914,-5.618 7.761,-12.182 -0.079,-3.318 -2.013,-6.2 -5.751,-8.565 -3.168,-1.999 -4.988,-4.314 -5.412,-6.876 -0.444,-2.678 0.698,-5.055 1.461,-6.321 2.997,1.437 6.005,3.294 9,5.77 17.668,14.609 32.702,16.935 40.823,16.897 1.704,3.764 6.706,16.605 2.436,29.795 -2.272,-0.403 -6.734,-1.853 -9.796,-6.957 -2.977,-4.958 -6.549,-6.2 -9.025,-6.364 -3.849,-0.3 -7.933,1.89 -11.142,5.9 -0.686,0.861 -0.591,2.103 0.215,2.844 0.809,0.746 2.059,0.742 2.852,-0.011 0.534,-0.507 1.528,-1.122 1.956,-0.79 l 0.434,1.209 c 0.232,0.67 0.469,1.346 0.751,1.999 -1.664,0.245 -3.266,0.926 -4.516,2.343 -0.824,0.934 -1.343,2.012 -1.717,3.122 -3.832,0.685 -5.92,3.592 -6.008,3.726 -0.638,0.953 -0.378,2.233 0.569,2.877 0.356,0.245 0.766,0.365 1.169,0.365 0.668,0 1.324,-0.316 1.732,-0.905 0.04,-0.054 0.813,-1.102 2.196,-1.689 0.173,0.788 0.456,1.55 0.885,2.244 0.722,1.164 1.747,1.943 2.91,2.358 -0.157,0.605 -0.291,1.265 -0.377,1.975 -0.044,0.015 -0.09,0.008 -0.135,0.025 -5.01,2.109 -3.988,8.337 -2.749,11.332 0.335,0.807 1.111,1.291 1.931,1.291 0.267,0 0.536,-0.054 0.796,-0.158 1.068,-0.441 1.578,-1.662 1.141,-2.73 -0.015,-0.04 -1.191,-3.115 -0.435,-4.866 0.02,0.046 0.024,0.097 0.045,0.143 0.866,1.956 2.536,3.35 4.828,4.038 1.128,0.338 2.207,0.479 3.239,0.479 3.424,0 6.332,-1.586 8.777,-2.925 1.905,-1.041 3.705,-1.994 5.124,-1.896 1.033,0.098 2.215,0.284 3.511,0.484 4.893,0.762 11.599,1.798 18.254,-0.343 1.239,-0.397 2.361,-0.785 3.389,-1.139 5.407,-1.853 7.428,-2.545 10.733,-0.664 4.002,2.289 9.161,0.751 11.82,-2.054 0.833,-0.879 1.313,-1.859 1.571,-2.852 1.365,0.543 2.471,1.13 2.648,1.458 -0.389,1.09 0.177,2.283 1.267,2.675 0.232,0.082 0.469,0.12 0.703,0.12 0.858,0 1.664,-0.534 1.97,-1.389 0.392,-1.095 0.297,-2.222 -0.269,-3.258 -1.383,-2.518 -5.431,-3.87 -7.458,-4.407 -3.348,-4.551 -8.452,-5.966 -16.885,-4.632 -0.335,0.049 -0.597,-0.011 -0.885,-0.25 -3.079,-2.489 -3.756,-15.424 -4.16,-23.145 -0.324,-6.178 -0.545,-9.763 -1.493,-11.485 0.484,-0.398 3.133,-0.447 4.783,0.757 0.796,0.588 0.875,1.117 0.684,1.716 -0.033,0.087 -0.063,0.169 -0.093,0.25 -0.408,1.068 0.12,2.272 1.185,2.691 1.065,0.408 2.272,-0.093 2.705,-1.155 0.063,-0.147 0.117,-0.3 0.167,-0.447 0.747,-2.12 3.802,-11.72 0.202,-17.8 -1.618,-2.73 -4.253,-4.359 -7.835,-4.844 -9.125,-1.23 -16.081,-7.061 -20.757,-17.222 7.085,-2.489 27.944,-11.944 31.844,-38.04 2.591,-17.347 -3.626,-27.062 -9.3,-32.156 -0.271,-0.244 -0.565,-0.429 -0.842,-0.659 0.164,-0.213 0.373,-0.388 0.447,-0.664 0.027,-0.094 1.461,-5.371 3.971,-11.455 z m -14.772,-3.729 c 11.924,-15.517 26.547,-22.425 34.455,-25.215 -5.187,9.344 -10.129,26.822 -12.705,36.803 l -4.353,-13.294 c -0.017,-0.052 -0.071,-0.074 -0.09,-0.124 1.276,-2.518 2.711,-4.956 4.293,-7.015 0.703,-0.915 0.531,-2.228 -0.384,-2.931 -0.918,-0.708 -2.228,-0.534 -2.934,0.382 -1.975,2.568 -3.715,5.613 -5.217,8.69 z M 125.869,175.044 c -6.445,-6.827 -8.124,-15.686 -8.508,-21.068 5.514,5.11 11.076,8.936 14.828,11.267 l -3.334,0.819 c -0.637,-0.511 -1.262,-0.983 -1.928,-1.581 -0.853,-0.768 -2.174,-0.692 -2.953,0.158 -0.774,0.861 -0.703,2.185 0.158,2.958 0.747,0.671 1.457,1.187 2.179,1.762 z m 157.812,69.014 c -3.91,-10.434 -15.711,-35.414 -44.621,-56.314 0.023,-0.061 0.038,-0.141 0.061,-0.201 0.371,-0.958 0.855,-1.783 1.27,-2.689 43.77,11.186 70.413,29.383 81.056,37.855 -21.744,-1.603 -33.246,13.374 -37.766,21.349 z m 47.385,-41.369 c -4.621,5.94 -5.428,13.175 -5.337,18.06 -9.598,-8.035 -36.577,-27.593 -83.499,-39.727 0.607,-1.053 1.334,-1.969 2.013,-2.94 0.151,0.035 0.297,0.089 0.456,0.099 57.73,-2.481 89.939,9.916 101.735,15.758 -6.618,1.342 -11.833,4.205 -15.368,8.75 z m -46.008,-42.17 c 12.76,0 42.219,-1.53 67.627,-14.122 -10.906,16.427 -6.986,34.866 -3.904,43.976 -11.701,-5.993 -43.389,-18.441 -101.186,-16.448 8.338,-8.93 20.665,-13.406 37.463,-13.406 z m -49.07,44.578 c 0.521,-4.729 1.041,-9.227 1.862,-13.016 27.784,20.596 38.974,45.492 42.284,54.519 -6.824,-1.53 -13.005,-1.034 -18.333,1.713 -4.36,2.251 -7.402,5.558 -9.487,8.588 -0.929,-10.528 -4.405,-29.314 -17.1,-44.106 -0.041,-0.047 -0.098,-0.068 -0.142,-0.111 0.34,-2.544 0.641,-5.094 0.916,-7.587 z m -2.643,63.871 c -9.722,-2.266 -13.806,-12.063 -13.994,-12.525 -0.256,-0.632 -0.803,-1.106 -1.469,-1.259 -0.158,-0.033 -0.316,-0.054 -0.474,-0.054 -0.51,0 -1.007,0.191 -1.397,0.54 -6.985,6.282 -15.531,7.938 -19.797,8.374 3.372,-10.591 12.855,-16.094 25.612,-23.499 l 0.588,-0.343 c 3.18,-1.846 5.474,-4.648 7.268,-7.944 -10e-4,5.265 0.28,11.13 1.247,16.067 0.196,0.998 1.07,1.689 2.051,1.689 0.134,0 0.269,-0.011 0.406,-0.039 1.133,-0.223 1.871,-1.324 1.651,-2.457 -2.093,-10.677 -0.768,-26.737 -0.575,-28.9 12.168,16.426 13.779,37.153 13.961,43.913 -7.138,-1.235 -11.115,-6.782 -11.157,-6.839 -0.39,-0.567 -1.03,-0.905 -1.714,-0.905 h -0.008 c -0.681,0 -1.319,0.327 -1.71,0.883 -3.093,4.379 -1.886,9.778 -0.489,13.298 z m -7.41,-57.241 c -1.621,-1.994 -3.801,-4.189 -5.961,-5.153 0.488,-1.949 0.946,-4.023 1.362,-6.202 2.239,1.839 5.627,5.626 4.599,11.355 z m -9.424,7.479 c 0.627,0.092 4.439,0.829 6.023,5.724 -1.774,-0.305 -3.862,-0.145 -5.969,0.99 -0.337,-1.962 -0.403,-4.2 -0.054,-6.714 z m 7.471,10.729 c 0.605,0.466 1.408,0.523 2.097,0.225 -1.214,2.253 -2.739,4.116 -4.616,5.516 -1.026,-1.035 -2.534,-2.887 -3.671,-5.569 3.101,-2.258 5.88,-0.396 6.19,-0.172 z m 7.211,-30.842 c 0.73,-0.188 1.295,-0.767 1.485,-1.498 -0.305,2.276 -0.584,4.617 -0.851,7.044 -0.876,7.955 -1.832,16.57 -4.543,23.11 -0.769,-8.792 -6.507,-12.028 -9.867,-12.612 0.179,-0.607 0.341,-1.205 0.569,-1.838 0.297,-0.826 0.59,-1.715 0.877,-2.653 1.912,1.206 4.554,4.471 6.035,6.744 0.39,0.599 1.048,0.953 1.754,0.953 0.049,0 0.098,0 0.147,-0.006 0.76,-0.054 1.43,-0.518 1.749,-1.204 5.007,-10.77 -1.734,-18.45 -6.425,-21.347 0.118,-0.767 0.236,-1.533 0.343,-2.312 2.72,1.279 5.622,3.91 6.668,5.026 0.401,0.43 0.957,0.664 1.528,0.664 0.177,0 0.354,-0.022 0.531,-0.071 z M 227.72,185.75 c 1.193,1.94 1.695,4.326 1.504,7.126 -1.699,-1.41 -3.942,-2.934 -6.24,-3.746 0.247,-2.378 0.433,-4.765 0.54,-7.121 1.27,0.634 2.982,1.771 4.196,3.741 z m 1.511,-14.215 c -1.718,-0.75 -3.784,-1.259 -5.905,-1.027 -0.213,-2.327 -0.553,-4.493 -1.027,-6.453 2.2,1.034 5.36,3.195 6.932,7.48 z m -13.5,-31.098 -0.403,5.238 c -3.246,0.723 -6.817,1.266 -10.6,1.354 -0.567,-0.196 -1.357,-0.461 -2.276,-0.757 5.386,-1.992 10.223,-4.281 13.279,-5.835 z m -61.138,33.817 c -0.43,-0.36 -0.809,-0.74 -1.139,-1.139 0.412,-0.163 0.82,-0.327 1.22,-0.484 2.904,-1.166 5.644,-2.266 8.281,-2.413 5.926,-0.365 7.655,1.977 8.042,2.697 0.395,0.736 0.332,1.384 0.098,1.705 -0.986,1.341 -2.567,2.146 -4.7,2.408 -4.872,0.555 -10.672,-1.831 -11.802,-2.774 z m 14.699,13.273 c -0.632,-0.458 -1.465,-0.529 -2.155,-0.169 -7.178,3.585 -14.321,3.133 -18.857,2.228 2.724,-1.857 5.917,-4.969 8.052,-9.884 2.446,0.887 5.485,1.602 8.491,1.602 0.697,0 1.393,-0.044 2.076,-0.126 3.274,-0.397 5.889,-1.809 7.565,-4.075 1.261,-1.716 1.343,-4.086 0.213,-6.178 -0.877,-1.623 -3.795,-5.366 -11.951,-4.882 -3.326,0.18 -6.519,1.46 -9.608,2.702 -0.495,0.196 -0.992,0.397 -1.485,0.588 -1.122,-4.952 1.384,-10.412 1.419,-10.483 0.31,-0.664 0.254,-1.444 -0.152,-2.055 -1.163,-1.749 -3.479,-2.838 -5.914,-3.52 11.278,-2.359 25.757,1.536 25.934,1.586 0.774,0.202 1.586,-0.022 2.114,-0.621 0.529,-0.588 0.679,-1.428 0.386,-2.168 -0.842,-2.12 -0.879,-3.596 -0.115,-4.392 3.253,-3.389 18.566,-0.039 28.391,3.416 0.234,0.082 0.495,0.06 0.727,0.12 9.682,-0.152 18.143,-2.92 23.153,-4.991 -5.655,12.28 -15.274,14.007 -15.726,14.084 -1.135,0.18 -1.912,1.242 -1.738,2.381 0.174,1.144 1.245,1.945 2.387,1.754 0.221,-0.035 2.265,-0.391 5.05,-1.73 4.143,11.462 0.898,36.942 -3.502,49.163 -4.924,13.681 0.538,22.369 3.882,26.098 -13.214,7.688 -23.544,14.22 -26.436,27.64 -0.004,0.012 -0.014,0.02 -0.018,0.032 -0.07,0.218 -0.777,2.57 -1.593,6.764 -5.121,-3.403 -14.664,-17.372 -9.527,-33.745 1.4,-4.468 3.046,-8.838 4.637,-13.065 4.729,-12.552 9.182,-24.418 5.866,-35.531 1.294,-0.928 2.506,-1.969 3.554,-3.19 3.648,-4.249 4.922,-9.682 3.789,-16.149 -0.196,-1.144 -1.278,-1.918 -2.422,-1.699 -1.135,0.196 -1.899,1.28 -1.697,2.419 0.918,5.247 -0.011,9.398 -2.841,12.7 -5.47,6.386 -16.593,7.704 -21.455,7.971 l 0.36,-2.615 c 0.105,-0.765 -0.225,-1.529 -0.854,-1.98 z m 18.781,95.394 c -3.603,4.405 -10.916,10.263 -13.756,12.477 -2.622,-2.5 -5.248,-5.468 -7.562,-8.945 10.705,-1.815 17.13,-8.46 19.539,-11.54 0.802,0.682 1.566,1.23 2.24,1.59 0.195,0.105 0.405,0.116 0.611,0.152 -0.281,1.792 -0.548,3.823 -0.801,6.045 -0.089,0.076 -0.194,0.127 -0.271,0.221 z m -25.462,-38.132 c 1.685,0.474 6.055,1.59 10.087,1.59 0.738,0 1.399,-0.136 2.092,-0.222 -0.149,2.575 -0.022,5.055 0.339,7.414 -3.336,2.172 -11.11,2.355 -15.308,2.175 0.561,-3.663 1.524,-7.324 2.79,-10.957 z m 5.237,-12.486 c 1.542,0.369 4.565,0.983 7.618,0.983 0.792,0 1.58,-0.047 2.347,-0.147 -0.492,1.419 -0.995,2.826 -1.451,4.276 -0.481,1.532 -0.812,3.034 -1.079,4.521 -0.015,0.003 -0.031,-0.002 -0.046,0.001 -3.105,0.767 -8.434,-0.341 -11.155,-1.082 1.155,-2.886 2.415,-5.745 3.766,-8.552 z m 4.781,-9.51 c 0.541,-1.05 1.074,-2.09 1.604,-3.127 1.821,0.439 5.411,1.261 7.925,1.574 -0.359,0.96 -0.713,1.913 -1.081,2.894 -0.556,1.475 -1.114,2.994 -1.673,4.504 -0.26,-0.022 -0.527,-0.001 -0.79,0.083 -2.479,0.766 -6.353,0.243 -8.862,-0.279 0.96,-1.912 1.926,-3.802 2.877,-5.649 z m 6.637,-13.652 c 1.506,0.57 3.917,1.329 6.351,1.329 0.076,0 0.146,-0.033 0.223,-0.034 -0.63,2.188 -1.387,4.444 -2.206,6.743 -1.165,-0.013 -4.582,-0.692 -7.467,-1.361 1.121,-2.264 2.158,-4.489 3.099,-6.677 z m 2.891,-7.996 c 1.183,0.083 2.279,0.138 3.204,0.138 0.913,0 1.64,-0.06 2.301,-0.141 -0.146,1.625 -0.378,3.274 -0.737,4.959 -1.588,0.47 -4.183,-0.139 -6.105,-0.85 0.513,-1.389 0.96,-2.758 1.337,-4.106 z m -19.651,58.844 c 4.007,0 9.612,-0.456 13.483,-2.255 0.543,1.98 1.228,3.846 2.008,5.582 -7.188,4.994 -15.218,6.143 -18.059,6.379 -0.312,-1.73 -0.538,-3.52 -0.646,-5.385 -0.084,-1.46 -0.028,-2.927 0.057,-4.395 0.814,0.038 1.885,0.074 3.157,0.074 z m 17.437,7.058 c 1.08,1.835 2.23,3.477 3.385,4.852 -1.779,2.358 -8.051,9.567 -18.857,10.738 -1.441,-2.686 -2.656,-5.628 -3.562,-8.82 3.646,-0.357 11.604,-1.768 19.034,-6.77 z m 7.136,-74.734 c 0.374,1.514 0.589,3.054 0.668,4.617 v 0 c -0.531,0.17 -2.516,0.186 -4.659,0.074 0.172,-1.074 0.27,-2.129 0.314,-3.169 1.24,-0.427 2.474,-0.938 3.677,-1.522 z m -28.174,116.373 c -0.542,0.174 -0.994,0.556 -1.248,1.063 -0.172,0.343 -3.715,7.23 -13.065,5.884 3.307,-2.179 6.336,-5.846 6.336,-11.453 0,-0.31 -0.068,-0.616 -0.202,-0.894 -0.137,-0.289 -13.746,-29.318 -15.613,-55.284 -0.079,-1.089 -0.983,-1.934 -2.076,-1.94 h -0.011 c -1.087,0 -1.994,0.833 -2.084,1.918 -0.542,6.532 -2.705,13.942 -4.947,14.127 -0.825,0.087 -2.756,-0.534 -3.481,-1.727 -0.54,-0.888 -0.316,-2.125 0.659,-3.672 3.806,-6.048 6.097,-11.043 4.909,-15.8 -0.994,-3.982 -5.644,-14.454 -11.994,-13.169 l -1.656,0.376 c -5.397,1.28 -6.786,1.007 -7.456,-1.433 -0.167,-0.61 -0.076,-1.106 0.289,-1.613 0.915,-1.274 3.258,-2.229 5.833,-2.376 4.83,-0.262 6.756,1.798 6.808,1.858 0.638,0.774 1.725,0.981 2.602,0.518 0.877,-0.469 1.305,-1.493 1.018,-2.446 -0.082,-0.267 -2.059,-6.554 -10.47,-7.578 -1.888,-0.228 -2.343,-1.444 -2.394,-2.413 -0.082,-1.608 0.935,-3.514 2.778,-3.934 3.307,-0.736 9.478,2.07 12.152,12.766 0.28,1.128 1.441,1.777 2.536,1.525 1.122,-0.284 1.803,-1.417 1.523,-2.539 -1.369,-5.474 -3.587,-9.227 -6.067,-11.756 0.042,-0.077 0.108,-0.135 0.142,-0.22 1.003,-2.55 3.068,-3.079 4.561,-2.778 1.425,0.3 2.918,1.515 2.825,4.026 -0.259,6.931 5.219,17.614 8.07,21.532 2.157,2.964 2.7,6.173 3.448,10.618 0.335,1.983 0.703,4.151 1.259,6.577 2.774,12.073 10.066,19.388 11.78,20.978 2.264,14.521 10.444,24.662 17.944,31.115 -3.23,2.293 -9.652,6.567 -14.708,8.144 z m 18.589,-10.458 c 2.415,-1.901 6.671,-5.378 10.238,-8.855 -0.3,4.075 -0.52,8.552 -0.54,13.635 -0.002,0.594 -0.052,1.161 -0.07,1.746 -2.067,-1.11 -5.651,-3.241 -9.628,-6.526 z m 129.23,-13.944 3.644,-10.791 c 3.563,1.265 6.921,2.713 10.077,4.297 l -6.959,9.715 c -2.212,-1.296 -4.466,-2.368 -6.762,-3.221 z m -4.001,-1.238 c -1.954,-0.502 -3.932,-0.871 -5.934,-1.065 l 1.354,-11.805 c 0.487,0.092 0.985,0.143 1.468,0.246 2.338,0.504 4.58,1.116 6.775,1.778 z m -10.126,-1.242 c -2.065,0.019 -4.151,0.205 -6.257,0.541 l -1.15,-13.22 c 2.957,-0.04 5.907,0.085 8.813,0.412 z m -11.591,-12.506 1.207,13.888 c -2.159,0.548 -4.339,1.286 -6.532,2.159 l -3.692,-15.064 c 2.961,-0.455 5.974,-0.794 9.017,-0.983 z m -6.438,40.192 c -1.678,-0.591 -3.251,-1.393 -4.738,-2.282 l 7.479,-14.196 c 0.175,0.2 0.365,0.371 0.511,0.615 0.744,1.253 0.855,2.904 0.332,4.909 -0.695,2.666 -1.943,6.591 -3.584,10.954 z m -9.271,-13.913 c 2.59,-1.727 5.437,-3.382 8.474,-4.822 l -7.427,14.097 c -2.858,-2.212 -5.073,-4.521 -6.326,-5.962 1.744,-1.04 3.506,-2.132 5.279,-3.313 z m 2.558,-24.592 3.938,16.072 c -2.018,0.972 -4.049,2.081 -6.089,3.325 l -6.059,-17.577 c 2.618,-0.67 5.378,-1.281 8.21,-1.82 z m -12.256,2.914 6.386,18.524 c 0.029,0.083 0.11,0.12 0.148,0.196 -2.551,1.669 -5.074,3.162 -7.554,4.536 l -6.186,-21 c 2.203,-0.745 4.607,-1.511 7.206,-2.256 z m -11.162,3.647 6.359,21.589 c 0.004,0.014 0.021,0.022 0.025,0.036 -2.778,1.422 -5.441,2.679 -7.891,3.741 l -6.918,-21.593 c 0.088,-0.15 0.185,-0.344 0.271,-0.484 1.148,-0.517 4.046,-1.777 8.154,-3.289 z m -11.087,9.163 5.706,17.809 c -4.355,1.728 -7.757,2.829 -9.45,3.335 -1.088,-6.923 1.186,-15.117 3.744,-21.144 z m -1.233,38.273 c 1.417,-3.405 0.998,-7.601 -1.28,-12.809 -0.041,-0.093 -0.082,-0.185 -0.12,-0.284 3.511,-1.026 13.78,-4.377 25.596,-10.9 2.111,2.556 8.356,9.385 16.728,12.383 -4.754,11.627 -11.851,24.661 -19.001,25.818 -5.993,0.948 -9.238,-2.626 -12.371,-6.108 -2.732,-3.029 -5.835,-6.462 -10.238,-4.141 -0.343,0.181 -0.601,0.413 -0.9,0.62 -0.341,-0.199 -0.811,-0.444 -1.366,-0.698 1.201,-1.049 2.282,-2.268 2.952,-3.881 z m 70.836,-28.353 c 0.614,3.808 3.073,7.1 7.315,9.785 2.476,1.564 3.754,3.285 3.8,5.116 0.049,1.956 -1.228,3.993 -2.675,5.644 -0.199,-0.408 -0.441,-0.746 -0.69,-1.018 -2.669,-2.964 -8.474,-1.629 -9.613,-1.33 -0.289,0.071 -0.558,0.213 -0.79,0.397 -2.144,1.743 -21.044,17.244 -23.954,23.787 -1.09,2.452 -2.029,4.996 -0.558,6.822 1.534,1.907 4.468,1.695 9.698,0.61 0.449,-0.093 0.773,-0.12 0.992,-0.12 0.25,0 0.373,0 0.373,0.028 0.177,0.3 0.295,1.983 -1.4,5.807 -0.308,0.692 -1.087,1.057 -1.869,0.899 -5.582,-1.155 -16.288,-2.485 -25.207,1.645 -4.689,2.174 -7.998,2.332 -11.828,2.517 -3.526,0.169 -7.519,0.365 -13.043,2.157 -1.272,0.408 -5.492,1.612 -6.263,-0.392 -0.646,-1.685 0.611,-4.633 1.944,-5.498 8.234,0.32 11.59,0.323 11.59,0.323 1.155,0 2.092,-0.937 2.092,-2.092 0,-1.155 -0.937,-2.092 -2.092,-2.092 -0.035,0 -3.506,0 -12.12,-0.349 -1.487,-0.06 -4.067,-0.419 -4.622,-2.174 -0.414,-1.302 0.316,-3.181 1.629,-4.184 1.139,-0.883 4.977,0.087 8.728,1.705 1.191,0.751 2.43,1.356 3.631,1.754 1.018,0.365 2.144,-0.152 2.577,-1.144 0.436,-0.992 0.044,-2.146 -0.905,-2.669 -0.744,-0.414 -1.959,-1.052 -3.424,-1.705 -2.435,-1.651 -4.364,-4.015 -4.514,-5.863 -0.054,-0.664 0.079,-1.536 1.626,-2.348 1.343,-0.703 2.305,0.06 5.178,3.242 3.337,3.699 7.894,8.723 16.149,7.432 16.073,-2.604 27.386,-43.319 27.492,-43.729 0.814,-3.122 0.553,-5.846 -0.782,-8.096 -0.771,-1.301 -1.763,-2.146 -2.71,-2.792 7.892,-2.84 16.789,-3.811 25.923,-0.647 -1.044,1.918 -2.249,5.03 -1.678,8.572 z m 14.059,-6.861 7.153,-9.985 c 2.606,1.463 5.053,2.999 7.352,4.587 l -9.176,9.482 c -0.713,-0.555 -1.405,-1.033 -2.127,-1.631 -1.056,-0.873 -2.123,-1.691 -3.202,-2.453 z m 17.933,12.239 9.19,-7.321 c 1.77,1.71 3.384,3.381 4.81,4.957 l -7.431,5.281 c -2.087,-0.779 -4.278,-1.746 -6.569,-2.917 z m -3.994,-2.165 c -1.713,-1.018 -3.47,-2.157 -5.267,-3.427 l 9.265,-9.574 c 2.177,1.647 4.219,3.314 6.082,4.969 z m 15.542,6.677 5.197,-3.694 c 1.704,2.055 3.082,3.876 4.076,5.278 -2.586,-0.152 -5.737,-0.636 -9.273,-1.584 z m 43.426,-70.993 c -3.697,24.751 -23.531,32.956 -29.437,34.87 -4.964,-11.168 -13.195,-20.563 -18.673,-23.402 -1.018,-0.523 -2.285,-0.126 -2.819,0.894 -0.531,1.03 -0.13,2.289 0.896,2.823 4.173,2.163 12.623,10.962 17.503,22.986 5.266,12.972 13.686,20.328 25.022,21.864 2.28,0.305 3.847,1.231 4.794,2.823 1.389,2.343 1.319,5.863 0.809,8.957 -2.669,-1.695 -7.015,-2.239 -9.382,-0.425 -1.476,1.128 -1.899,2.921 -1.133,4.794 0.518,1.269 0.757,5.824 0.989,10.232 0.668,12.755 1.515,22.785 5.705,26.179 1.209,0.981 2.667,1.384 4.173,1.128 8.27,-1.308 11.289,0.447 13.259,3.492 0.12,0.185 0.484,0.746 -0.495,1.788 -1.487,1.569 -4.607,2.49 -6.707,1.302 -4.95,-2.834 -8.423,-1.64 -14.168,0.338 -1.005,0.343 -2.105,0.719 -3.318,1.117 -5.705,1.842 -11.588,0.926 -16.323,0.185 -1.389,-0.213 -2.654,-0.408 -3.756,-0.512 -2.697,-0.256 -5.154,1.085 -7.532,2.387 -2.879,1.575 -5.598,3.084 -8.802,2.109 -1.487,-0.447 -1.97,-1.193 -2.207,-1.721 -0.703,-1.573 -0.183,-3.854 0.318,-5.305 1.794,-0.316 3.407,-0.257 5.183,-0.073 2.561,0.256 5.475,0.562 9.148,-0.79 1.085,-0.397 1.638,-1.602 1.239,-2.686 -0.401,-1.085 -1.597,-1.623 -2.689,-1.237 -2.76,1.007 -4.857,0.807 -7.268,0.551 -2.198,-0.224 -4.678,-0.474 -7.658,0.316 -0.455,0.12 -1.141,0.191 -1.667,-0.66 -0.692,-1.111 -0.662,-3.166 0.755,-4.767 1.089,-1.237 3.201,-1.198 5.151,-0.785 1.092,0.61 2.482,1.111 4.277,1.454 1.024,0.218 2.04,-0.398 2.376,-1.384 0.335,-0.992 -0.111,-2.076 -1.046,-2.545 -0.158,-0.076 -1.803,-0.883 -3.997,-1.438 -1.155,-0.839 -1.567,-2.022 -2.185,-3.791 l -0.466,-1.302 c -0.278,-0.742 -0.634,-1.302 -1.024,-1.727 1.005,-0.436 1.988,-0.632 2.945,-0.572 2.152,0.147 4.075,1.608 5.716,4.348 5.429,9.044 14.432,9.148 14.814,9.148 0.87,0 1.649,-0.54 1.956,-1.352 6.766,-17.881 -2.28,-35.169 -2.669,-35.898 -0.007,-0.011 -0.018,-0.018 -0.024,-0.029 -0.006,-0.01 -0.003,-0.021 -0.009,-0.031 -0.803,-1.389 -20.113,-34.03 -60.996,-42.84 -29.451,-6.369 -65.039,10.249 -66.54,10.962 -0.354,0.163 -0.651,0.425 -0.864,0.751 -4.234,6.543 -11.292,23.907 -6.089,35.8 1.773,4.054 2.196,7.257 1.254,9.529 -0.632,1.521 -1.864,2.741 -3.958,3.869 -0.28,-2.615 -1.183,-6.02 -3.874,-7.502 -2.632,-1.438 -6.054,-0.638 -10.177,2.392 -9.761,7.176 -23.687,24.125 -22.417,31.464 0.31,1.803 1.441,3.084 3.179,3.607 1.681,0.501 3.751,0.931 5.931,1.378 4.309,0.888 9.393,1.929 11.648,3.797 -6.086,-0.779 -17.876,-1.858 -22.537,0.757 -5.497,3.095 -14.947,5.067 -21.526,2.686 -2.392,-0.997 -7.747,-1.786 -10.861,2.43 -1.161,1.575 -2.983,2.005 -4.16,1.608 -1.367,-0.447 -1.654,-1.869 -1.654,-2.98 0,-4.854 4.672,-5.23 6.102,-5.23 1.155,0 2.092,-0.937 2.092,-2.092 0,-1.155 -0.937,-2.092 -2.092,-2.092 -3.204,0 -5.841,1.044 -7.65,2.82 -1.672,-0.874 -2.753,-1.907 -3.145,-3.099 -0.536,-1.629 0.234,-3.318 0.744,-4.179 0.969,-1.646 2.684,-2.52 3.734,-2.943 2.376,2.231 5.139,3.828 6.526,4.436 1.046,0.452 2.285,-0.022 2.756,-1.079 0.463,-1.057 -0.022,-2.294 -1.079,-2.756 -2.801,-1.226 -7.925,-5.007 -8.167,-8.178 -0.09,-1.161 0.981,-2.044 2.087,-2.321 0.798,-0.202 2.808,-0.36 4.019,2.435 3.059,7.078 13.007,12.057 13.43,12.264 0.295,0.147 0.61,0.217 0.926,0.217 0.51,0 1.011,-0.185 1.406,-0.54 0.885,-0.807 21.722,-20.05 21.843,-51.53 0.072,-19.03 2.718,-30.901 3.701,-34.677 3.698,-0.178 13.151,-1.316 21.64,-7.826 2.457,4.353 8.693,12.803 20.17,13.092 0.017,0 0.035,0 0.052,0 0.751,0 1.447,-0.408 1.82,-1.063 0.382,-0.675 0.36,-1.504 -0.054,-2.152 -0.041,-0.065 -3.255,-5.208 -2.522,-9.643 2.637,2.545 7.439,5.987 14.283,6.232 h 0.001 0.001 c 0.024,0 0.049,0 0.074,0 0.362,0 0.687,-0.118 0.986,-0.284 0.136,-0.075 0.256,-0.134 0.37,-0.241 0.268,-0.232 0.463,-0.529 0.587,-0.872 0.011,-0.032 0.044,-0.047 0.054,-0.081 0.028,-0.093 2.923,-9.207 11.186,-13.473 5.277,-2.73 11.64,-2.899 18.938,-0.495 0.18,0.058 0.361,0.056 0.541,0.065 0.041,0.003 0.072,0.039 0.113,0.039 0.032,0 0.065,-0.011 0.097,-0.013 0.054,-0.002 0.105,-0.014 0.159,-0.021 0.093,-0.011 0.185,-0.011 0.278,-0.036 0.064,-0.017 0.11,-0.062 0.171,-0.084 0.138,-0.051 0.263,-0.113 0.387,-0.191 0.109,-0.068 0.21,-0.139 0.303,-0.225 0.099,-0.09 0.181,-0.19 0.262,-0.298 0.082,-0.109 0.151,-0.217 0.21,-0.341 0.028,-0.056 0.074,-0.097 0.096,-0.158 0.278,-0.761 4.606,-12.06 15.396,-18.728 0.039,0.007 0.069,0.031 0.109,0.034 0.258,0.028 26.04,2.882 40.309,9.85 4.351,2.125 9.66,3.176 14.914,3.176 5.933,0 11.793,-1.341 16.105,-3.982 4.707,-2.882 7.239,-7.023 7.322,-11.959 0.171,-10.123 -6.059,-17.914 -12.008,-20.098 -3.732,-1.367 -7.326,-0.545 -9.598,2.228 -2.828,3.443 -2.661,7.905 0.398,10.613 3.174,2.812 9.036,3.258 14.901,-1.929 0.686,1.332 1.235,2.803 1.605,4.374 -6.616,4.573 -12.788,6.097 -17.827,4.398 -4.787,-1.613 -7.641,-5.759 -8.719,-9.099 -0.847,-2.621 -0.371,-5.879 1.302,-8.93 2.354,-4.294 6.642,-7.524 11.763,-8.858 5.34,-1.4 14.098,-0.196 20.712,5.742 4.901,4.41 10.265,12.914 7.947,28.42 z m -19.156,-19.549 c -4.11,3.869 -7.894,3.956 -9.761,2.3 -1.373,-1.215 -1.348,-3.111 0.063,-4.822 0.836,-1.018 1.871,-1.362 2.877,-1.362 0.725,0 1.436,0.18 2.046,0.403 1.656,0.61 3.32,1.82 4.775,3.481 z"
   id="path3225" />
</g>
<g
   id="g3229"
   transform="translate(0,-88.276)">
</g>
<g
   id="g3231"
   transform="translate(0,-88.276)">
</g>
<g
   id="g3233"
   transform="translate(0,-88.276)">
</g>
<g
   id="g3235"
   transform="translate(0,-88.276)">
</g>
<g
   id="g3237"
   transform="translate(0,-88.276)">
</g>
<g
   id="g3239"
   transform="translate(0,-88.276)">
</g>
<g
   id="g3241"
   transform="translate(0,-88.276)">
</g>
<g
   id="g3243"
   transform="translate(0,-88.276)">
</g>
<g
   id="g3245"
   transform="translate(0,-88.276)">
</g>
<g
   id="g3247"
   transform="translate(0,-88.276)">
</g>
<g
   id="g3249"
   transform="translate(0,-88.276)">
</g>
<g
   id="g3251"
   transform="translate(0,-88.276)">
</g>
<g
   id="g3253"
   transform="translate(0,-88.276)">
</g>
<g
   id="g3255"
   transform="translate(0,-88.276)">
</g>
<g
   id="g3257"
   transform="translate(0,-88.276)">
</g>
</svg>
