<?xml version="1.0" encoding="UTF-8" standalone="no"?>
<svg
   xmlns:dc="http://purl.org/dc/elements/1.1/"
   xmlns:cc="http://creativecommons.org/ns#"
   xmlns:rdf="http://www.w3.org/1999/02/22-rdf-syntax-ns#"
   xmlns:svg="http://www.w3.org/2000/svg"
   xmlns="http://www.w3.org/2000/svg"
   xmlns:sodipodi="http://sodipodi.sourceforge.net/DTD/sodipodi-0.dtd"
   xmlns:inkscape="http://www.inkscape.org/namespaces/inkscape"
   version="1.1"
   id="Layer_1"
   x="0px"
   y="0px"
   viewBox="0 0 512 335.45001"
   xml:space="preserve"
   sodipodi:docname="gd.svg"
   width="512"
   height="335.45001"
   inkscape:version="1.0.1 (c497b03c, 2020-09-10)"><metadata
   id="metadata77"><rdf:RDF><cc:Work
       rdf:about=""><dc:format>image/svg+xml</dc:format><dc:type
         rdf:resource="http://purl.org/dc/dcmitype/StillImage" /><dc:title></dc:title></cc:Work></rdf:RDF></metadata><defs
   id="defs75" /><sodipodi:namedview
   pagecolor="#ffffff"
   bordercolor="#666666"
   borderopacity="1"
   objecttolerance="10"
   gridtolerance="10"
   guidetolerance="10"
   inkscape:pageopacity="0"
   inkscape:pageshadow="2"
   inkscape:window-width="1583"
   inkscape:window-height="897"
   id="namedview73"
   showgrid="false"
   inkscape:zoom="1.640625"
   inkscape:cx="256"
   inkscape:cy="256"
   inkscape:window-x="0"
   inkscape:window-y="23"
   inkscape:window-maximized="0"
   inkscape:current-layer="Layer_1" />
<path
   style="fill:#ff4b55"
   d="M 473.655,335.448 H 38.345 C 17.167,335.448 0,318.281 0,297.103 V 38.345 C 0,17.168 17.167,0 38.345,0 h 435.31 C 494.832,0 512,17.167 512,38.345 v 258.759 c 0,21.177 -17.167,38.344 -38.345,38.344 z"
   id="path10" />
<path
   style="fill:#ffe15a"
   d="M 459.034,52.965 V 282.482 H 52.966 V 52.965 h 406.068"
   id="path12" />
<g
   id="g18"
   transform="translate(0,-88.276)">
	<polygon
   style="fill:#73af00"
   points="52.966,141.241 256,256 52.966,370.759 "
   id="polygon14" />
	<polygon
   style="fill:#73af00"
   points="459.034,141.241 256,256 459.034,370.759 "
   id="polygon16" />
</g>
<circle
   style="fill:#ff4b55"
   cx="256"
   cy="167.72401"
   r="35.310001"
   id="circle20" />
<g
   id="g38"
   transform="translate(0,-88.276)">
	<path
   style="fill:#ffe15a"
   d="m 258.231,230.127 5.523,16.558 17.454,0.136 c 2.26,0.018 3.197,2.901 1.379,4.244 l -14.041,10.369 5.266,16.642 c 0.682,2.155 -1.771,3.937 -3.61,2.623 L 256,270.55 241.8,280.701 c -1.838,1.314 -4.291,-0.468 -3.61,-2.623 l 5.266,-16.642 -14.041,-10.369 c -1.818,-1.343 -0.881,-4.226 1.379,-4.244 l 17.454,-0.136 5.523,-16.558 c 0.713,-2.146 3.745,-2.146 4.46,-0.002 z"
   id="path22" />
	<path
   style="fill:#ffe15a"
   d="m 257.319,99.992 3.263,9.783 10.313,0.079 c 1.335,0.01 1.889,1.715 0.814,2.507 l -8.297,6.126 3.111,9.833 c 0.403,1.273 -1.047,2.326 -2.133,1.549 l -8.39,-5.995 -8.391,5.997 c -1.086,0.777 -2.536,-0.277 -2.133,-1.549 l 3.111,-9.833 -8.297,-6.126 c -1.074,-0.793 -0.521,-2.497 0.814,-2.507 l 10.313,-0.079 3.263,-9.783 c 0.424,-1.268 2.216,-1.268 2.639,-0.002 z"
   id="path24" />
	<path
   style="fill:#ffe15a"
   d="m 373.457,99.992 3.263,9.783 10.313,0.079 c 1.335,0.01 1.889,1.715 0.814,2.507 l -8.297,6.126 3.111,9.833 c 0.403,1.273 -1.047,2.326 -2.133,1.549 l -8.391,-5.997 -8.391,5.997 c -1.086,0.777 -2.536,-0.277 -2.133,-1.549 l 3.111,-9.833 -8.297,-6.126 c -1.074,-0.793 -0.521,-2.497 0.814,-2.507 l 10.313,-0.079 3.263,-9.783 c 0.426,-1.266 2.217,-1.266 2.64,0 z"
   id="path26" />
	<path
   style="fill:#ffe15a"
   d="m 141.181,99.992 3.263,9.783 10.313,0.079 c 1.335,0.01 1.889,1.715 0.814,2.507 l -8.297,6.126 3.111,9.833 c 0.403,1.273 -1.047,2.326 -2.133,1.549 l -8.391,-5.997 -8.391,5.997 c -1.086,0.777 -2.536,-0.277 -2.133,-1.549 l 3.111,-9.833 -8.297,-6.126 c -1.074,-0.793 -0.521,-2.497 0.814,-2.507 l 10.313,-0.079 3.263,-9.783 c 0.425,-1.266 2.217,-1.266 2.64,0 z"
   id="path28" />
	<path
   style="fill:#ffe15a"
   d="m 257.319,381.993 3.263,9.783 10.313,0.079 c 1.335,0.01 1.889,1.715 0.814,2.507 l -8.297,6.126 3.111,9.833 c 0.403,1.273 -1.047,2.326 -2.133,1.549 l -8.39,-5.995 -8.391,5.997 c -1.086,0.777 -2.536,-0.277 -2.133,-1.549 l 3.111,-9.833 -8.297,-6.126 c -1.074,-0.793 -0.521,-2.497 0.814,-2.507 l 10.313,-0.079 3.263,-9.783 c 0.424,-1.269 2.216,-1.269 2.639,-0.002 z"
   id="path30" />
	<path
   style="fill:#ffe15a"
   d="m 373.457,381.993 3.263,9.783 10.313,0.079 c 1.335,0.01 1.889,1.715 0.814,2.507 l -8.297,6.126 3.111,9.833 c 0.403,1.273 -1.047,2.326 -2.133,1.549 l -8.391,-5.997 -8.391,5.997 c -1.086,0.777 -2.536,-0.277 -2.133,-1.549 l 3.111,-9.833 -8.297,-6.126 c -1.074,-0.793 -0.521,-2.497 0.814,-2.507 l 10.313,-0.079 3.263,-9.783 c 0.426,-1.267 2.217,-1.267 2.64,0 z"
   id="path32" />
	<path
   style="fill:#ffe15a"
   d="m 141.181,381.993 3.263,9.783 10.313,0.079 c 1.335,0.01 1.889,1.715 0.814,2.507 l -8.297,6.126 3.111,9.833 c 0.403,1.273 -1.047,2.326 -2.133,1.549 l -8.391,-5.997 -8.391,5.997 c -1.086,0.777 -2.536,-0.277 -2.133,-1.549 l 3.111,-9.833 -8.297,-6.126 c -1.074,-0.793 -0.521,-2.497 0.814,-2.507 l 10.313,-0.079 3.263,-9.783 c 0.425,-1.267 2.217,-1.267 2.64,0 z"
   id="path34" />
	<path
   style="fill:#ffe15a"
   d="M 118.069,233.931 H 96 V 256 c 0,12.189 9.88,22.069 22.069,22.069 12.189,0 22.069,-9.88 22.069,-22.069 0,-12.189 -9.88,-22.069 -22.069,-22.069 z"
   id="path36" />
</g>
<polygon
   style="fill:#ff4b55"
   points="137.786,265.938 140.138,278.069 128.007,275.718 118.069,256 "
   id="polygon40"
   transform="translate(0,-88.276)" />
<g
   id="g42">
</g>
<g
   id="g44">
</g>
<g
   id="g46">
</g>
<g
   id="g48">
</g>
<g
   id="g50">
</g>
<g
   id="g52">
</g>
<g
   id="g54">
</g>
<g
   id="g56">
</g>
<g
   id="g58">
</g>
<g
   id="g60">
</g>
<g
   id="g62">
</g>
<g
   id="g64">
</g>
<g
   id="g66">
</g>
<g
   id="g68">
</g>
<g
   id="g70">
</g>
</svg>
