<?xml version="1.0" encoding="UTF-8" standalone="no"?>
<svg
   xmlns:dc="http://purl.org/dc/elements/1.1/"
   xmlns:cc="http://creativecommons.org/ns#"
   xmlns:rdf="http://www.w3.org/1999/02/22-rdf-syntax-ns#"
   xmlns:svg="http://www.w3.org/2000/svg"
   xmlns="http://www.w3.org/2000/svg"
   xmlns:sodipodi="http://sodipodi.sourceforge.net/DTD/sodipodi-0.dtd"
   xmlns:inkscape="http://www.inkscape.org/namespaces/inkscape"
   version="1.1"
   id="Layer_1"
   x="0px"
   y="0px"
   viewBox="0 0 512 335.45001"
   xml:space="preserve"
   sodipodi:docname="ge-so.svg"
   width="512"
   height="335.45001"
   inkscape:version="1.0.1 (c497b03c, 2020-09-10)"><metadata
   id="metadata215"><rdf:RDF><cc:Work
       rdf:about=""><dc:format>image/svg+xml</dc:format><dc:type
         rdf:resource="http://purl.org/dc/dcmitype/StillImage" /><dc:title></dc:title></cc:Work></rdf:RDF></metadata><defs
   id="defs213" /><sodipodi:namedview
   pagecolor="#ffffff"
   bordercolor="#666666"
   borderopacity="1"
   objecttolerance="10"
   gridtolerance="10"
   guidetolerance="10"
   inkscape:pageopacity="0"
   inkscape:pageshadow="2"
   inkscape:window-width="839"
   inkscape:window-height="480"
   id="namedview211"
   showgrid="false"
   inkscape:zoom="0.75585938"
   inkscape:cx="256"
   inkscape:cy="256"
   inkscape:window-x="0"
   inkscape:window-y="23"
   inkscape:window-maximized="0"
   inkscape:current-layer="Layer_1" />
<path
   style="fill:#ffe15a"
   d="m 0,297.103 c 0,21.177 17.167,38.345 38.345,38.345 h 435.31 c 21.177,0 38.345,-17.167 38.345,-38.345 V 223.632 H 0 Z"
   id="path174" />
<path
   style="fill:#f5f5f5"
   d="M 473.655,0 H 38.345 C 17.167,0 0,17.167 0,38.345 v 73.471 H 512 V 38.345 C 512,17.167 494.833,0 473.655,0 Z"
   id="path176" />
<rect
   y="111.814"
   style="fill:#ff4b55"
   width="512"
   height="111.81"
   id="rect178"
   x="0" />
<g
   id="g180"
   transform="translate(0,-88.276)">
</g>
<g
   id="g182"
   transform="translate(0,-88.276)">
</g>
<g
   id="g184"
   transform="translate(0,-88.276)">
</g>
<g
   id="g186"
   transform="translate(0,-88.276)">
</g>
<g
   id="g188"
   transform="translate(0,-88.276)">
</g>
<g
   id="g190"
   transform="translate(0,-88.276)">
</g>
<g
   id="g192"
   transform="translate(0,-88.276)">
</g>
<g
   id="g194"
   transform="translate(0,-88.276)">
</g>
<g
   id="g196"
   transform="translate(0,-88.276)">
</g>
<g
   id="g198"
   transform="translate(0,-88.276)">
</g>
<g
   id="g200"
   transform="translate(0,-88.276)">
</g>
<g
   id="g202"
   transform="translate(0,-88.276)">
</g>
<g
   id="g204"
   transform="translate(0,-88.276)">
</g>
<g
   id="g206"
   transform="translate(0,-88.276)">
</g>
<g
   id="g208"
   transform="translate(0,-88.276)">
</g>
</svg>
