<?xml version="1.0" encoding="UTF-8" standalone="no"?>
<svg
   xmlns:dc="http://purl.org/dc/elements/1.1/"
   xmlns:cc="http://creativecommons.org/ns#"
   xmlns:rdf="http://www.w3.org/1999/02/22-rdf-syntax-ns#"
   xmlns:svg="http://www.w3.org/2000/svg"
   xmlns="http://www.w3.org/2000/svg"
   xmlns:sodipodi="http://sodipodi.sourceforge.net/DTD/sodipodi-0.dtd"
   xmlns:inkscape="http://www.inkscape.org/namespaces/inkscape"
   version="1.1"
   id="Layer_1"
   x="0px"
   y="0px"
   viewBox="0 0 512 335.45001"
   xml:space="preserve"
   sodipodi:docname="georgia-svgrepo-com.svg"
   width="512"
   height="335.45001"
   inkscape:version="1.0.1 (c497b03c, 2020-09-10)"><metadata
   id="metadata59"><rdf:RDF><cc:Work
       rdf:about=""><dc:format>image/svg+xml</dc:format><dc:type
         rdf:resource="http://purl.org/dc/dcmitype/StillImage" /><dc:title></dc:title></cc:Work></rdf:RDF></metadata><defs
   id="defs57" /><sodipodi:namedview
   pagecolor="#ffffff"
   bordercolor="#666666"
   borderopacity="1"
   objecttolerance="10"
   gridtolerance="10"
   guidetolerance="10"
   inkscape:pageopacity="0"
   inkscape:pageshadow="2"
   inkscape:window-width="1514"
   inkscape:window-height="878"
   id="namedview55"
   showgrid="false"
   inkscape:zoom="1.640625"
   inkscape:cx="256"
   inkscape:cy="256"
   inkscape:window-x="0"
   inkscape:window-y="23"
   inkscape:window-maximized="0"
   inkscape:current-layer="Layer_1" />
<path
   style="fill:#f5f5f5"
   d="M 473.655,335.448 H 38.345 C 17.167,335.448 0,318.281 0,297.103 V 38.345 C 0,17.168 17.167,0 38.345,0 h 435.31 C 494.832,0 512,17.167 512,38.345 v 258.759 c 0,21.177 -17.167,38.344 -38.345,38.344 z"
   id="path10" />
<g
   id="g22"
   transform="translate(0,-88.276)">
	<polygon
   style="fill:#ff4b55"
   points="282.483,88.276 229.517,88.276 229.517,229.517 0,229.517 0,282.483 229.517,282.483 229.517,423.724 282.483,423.724 282.483,282.483 512,282.483 512,229.517 282.483,229.517 "
   id="polygon12" />
	<path
   style="fill:#ff4b55"
   d="m 150.07,146.833 c -8.744,0.879 -17.31,1.76 -25.888,2.642 0.882,-8.579 1.762,-17.145 2.643,-25.888 -8.019,1.037 -16.11,1.037 -24.129,0 0.879,8.744 1.76,17.31 2.643,25.888 -8.579,-0.881 -17.146,-1.762 -25.888,-2.642 1.037,8.018 1.037,16.11 0,24.128 8.744,-0.879 17.31,-1.76 25.888,-2.642 -0.882,8.579 -1.763,17.145 -2.643,25.888 8.019,-1.037 16.11,-1.037 24.129,0 -0.879,-8.743 -1.761,-17.31 -2.643,-25.888 8.579,0.881 17.145,1.762 25.888,2.642 -1.037,-8.018 -1.037,-16.111 0,-24.128 z"
   id="path14" />
	<path
   style="fill:#ff4b55"
   d="m 432.552,146.833 c -8.744,0.879 -17.31,1.76 -25.888,2.642 0.882,-8.579 1.762,-17.145 2.643,-25.888 -8.019,1.037 -16.11,1.037 -24.129,0 0.879,8.744 1.76,17.31 2.643,25.888 -8.579,-0.881 -17.146,-1.762 -25.888,-2.642 1.037,8.018 1.037,16.11 0,24.128 8.744,-0.879 17.31,-1.76 25.888,-2.642 -0.882,8.579 -1.763,17.145 -2.643,25.888 8.019,-1.037 16.11,-1.037 24.129,0 -0.879,-8.743 -1.761,-17.31 -2.643,-25.888 8.579,0.881 17.145,1.762 25.888,2.642 -1.036,-8.018 -1.036,-16.111 0,-24.128 z"
   id="path16" />
	<path
   style="fill:#ff4b55"
   d="m 150.07,341.039 c -8.744,0.879 -17.31,1.76 -25.888,2.642 0.882,-8.579 1.762,-17.145 2.643,-25.888 -8.019,1.037 -16.11,1.037 -24.129,0 0.879,8.743 1.76,17.31 2.643,25.888 -8.579,-0.881 -17.146,-1.762 -25.888,-2.642 1.037,8.018 1.037,16.11 0,24.128 8.744,-0.879 17.31,-1.76 25.888,-2.642 -0.882,8.579 -1.763,17.145 -2.643,25.888 8.019,-1.037 16.11,-1.037 24.129,0 -0.879,-8.743 -1.761,-17.31 -2.643,-25.888 8.579,0.881 17.145,1.762 25.888,2.642 -1.037,-8.017 -1.037,-16.11 0,-24.128 z"
   id="path18" />
	<path
   style="fill:#ff4b55"
   d="m 432.552,341.039 c -8.744,0.879 -17.31,1.76 -25.888,2.642 0.882,-8.579 1.762,-17.145 2.643,-25.888 -8.019,1.037 -16.11,1.037 -24.129,0 0.879,8.743 1.76,17.31 2.643,25.888 -8.579,-0.881 -17.146,-1.762 -25.888,-2.642 1.037,8.018 1.037,16.11 0,24.128 8.744,-0.879 17.31,-1.76 25.888,-2.642 -0.882,8.579 -1.763,17.145 -2.643,25.888 8.019,-1.037 16.11,-1.037 24.129,0 -0.879,-8.743 -1.761,-17.31 -2.643,-25.888 8.579,0.881 17.145,1.762 25.888,2.642 -1.036,-8.017 -1.036,-16.11 0,-24.128 z"
   id="path20" />
</g>
<g
   id="g24">
</g>
<g
   id="g26">
</g>
<g
   id="g28">
</g>
<g
   id="g30">
</g>
<g
   id="g32">
</g>
<g
   id="g34">
</g>
<g
   id="g36">
</g>
<g
   id="g38">
</g>
<g
   id="g40">
</g>
<g
   id="g42">
</g>
<g
   id="g44">
</g>
<g
   id="g46">
</g>
<g
   id="g48">
</g>
<g
   id="g50">
</g>
<g
   id="g52">
</g>
</svg>
