<svg xmlns="http://www.w3.org/2000/svg" viewBox="0 0 512 335.45001" style="enable-background:new 0 0 512 335.4500122" xml:space="preserve"><path d="M473.65503 0H38.34497c-9.3454 0-17.9336 3.39307-24.60535 9.00183l215.891 141.4466h13.59704L256 111.81665l12.77234 38.63178h41.33221l-33.43841 23.87567 2.92926 8.86004 218.66498 143.26404C506.6447 319.39972 512 308.84937 512 297.10504V38.34497C512 17.25525 494.74475 0 473.65503 0z" style="fill:#078930"/><path d="M289.43842 212.95581 256 189.08008l-33.43842 23.87573 12.77228-38.63171-33.43841-23.87567h27.73517L13.73962 9.00183C5.3553 16.0503 0 26.60065 0 38.34497v258.76007c0 21.08972 17.25525 38.34497 38.34497 38.34497h435.31006c9.3454 0 17.9336-3.39306 24.60535-9.00183L279.5954 183.18414l9.84302 29.77167z" style="fill:#fcdd09"/><path style="fill:#da121a" d="m235.33386 174.3241-12.77228 38.63171L256 189.08008l33.43842 23.87573-9.84302-29.77167-2.92926-8.86004 33.43841-23.87567h-41.33221L256 111.81665l-12.77234 38.63178h-41.33221z"/></svg>