<svg xmlns="http://www.w3.org/2000/svg" xml:space="preserve" width="512" height="335.45001"><path style="fill:#ff4b55" d="M473.655 0H38.345C17.167 0 0 17.167 0 38.345v73.471h512V38.345C512 17.167 494.833 0 473.655 0z"/><path style="fill:#73af00" d="M0 297.103c0 21.177 17.167 38.345 38.345 38.345h435.31c21.177 0 38.345-17.167 38.345-38.345v-73.471H0z"/><path style="fill:#ffe15a" d="M0 111.814h512v111.81H0z"/><path style="fill:#464655" d="m259.722 125.633 9.213 27.623 29.118.226c3.769.03 5.333 4.84 2.301 7.08L276.93 177.86l8.783 27.763c1.137 3.594-2.955 6.568-6.023 4.375L256 193.064l-23.69 16.932c-3.066 2.193-7.159-.781-6.023-4.375l8.783-27.763-23.424-17.298c-3.032-2.239-1.47-7.05 2.301-7.08l29.118-.226 9.213-27.623c1.193-3.575 6.251-3.575 7.444.002z"/></svg>