<?xml version="1.0" encoding="UTF-8" standalone="no"?>
<svg
   xmlns:dc="http://purl.org/dc/elements/1.1/"
   xmlns:cc="http://creativecommons.org/ns#"
   xmlns:rdf="http://www.w3.org/1999/02/22-rdf-syntax-ns#"
   xmlns:svg="http://www.w3.org/2000/svg"
   xmlns="http://www.w3.org/2000/svg"
   xmlns:sodipodi="http://sodipodi.sourceforge.net/DTD/sodipodi-0.dtd"
   xmlns:inkscape="http://www.inkscape.org/namespaces/inkscape"
   version="1.1"
   id="Layer_1"
   x="0px"
   y="0px"
   viewBox="0 0 512 335.45001"
   xml:space="preserve"
   sodipodi:docname="gh.svg"
   width="512"
   height="335.45001"
   inkscape:version="1.0.1 (c497b03c, 2020-09-10)"><metadata
   id="metadata53"><rdf:RDF><cc:Work
       rdf:about=""><dc:format>image/svg+xml</dc:format><dc:type
         rdf:resource="http://purl.org/dc/dcmitype/StillImage" /><dc:title></dc:title></cc:Work></rdf:RDF></metadata><defs
   id="defs51" /><sodipodi:namedview
   pagecolor="#ffffff"
   bordercolor="#666666"
   borderopacity="1"
   objecttolerance="10"
   gridtolerance="10"
   guidetolerance="10"
   inkscape:pageopacity="0"
   inkscape:pageshadow="2"
   inkscape:window-width="1181"
   inkscape:window-height="821"
   id="namedview49"
   showgrid="false"
   inkscape:zoom="1.640625"
   inkscape:cx="256"
   inkscape:cy="256"
   inkscape:window-x="0"
   inkscape:window-y="23"
   inkscape:window-maximized="0"
   inkscape:current-layer="Layer_1" />
<path
   style="fill:#ff4b55"
   d="M 473.655,0 H 38.345 C 17.167,0 0,17.167 0,38.345 v 73.471 H 512 V 38.345 C 512,17.167 494.833,0 473.655,0 Z"
   id="path10" />
<path
   style="fill:#73af00"
   d="m 0,297.103 c 0,21.177 17.167,38.345 38.345,38.345 h 435.31 c 21.177,0 38.345,-17.167 38.345,-38.345 V 223.632 H 0 Z"
   id="path12" />
<rect
   y="111.814"
   style="fill:#ffe15a"
   width="512"
   height="111.81"
   id="rect14"
   x="0" />
<path
   style="fill:#464655"
   d="m 259.722,125.633 9.213,27.623 29.118,0.226 c 3.769,0.03 5.333,4.84 2.301,7.08 l -23.424,17.298 8.783,27.763 c 1.137,3.594 -2.955,6.568 -6.023,4.375 L 256,193.064 232.31,209.996 c -3.066,2.193 -7.159,-0.781 -6.023,-4.375 l 8.783,-27.763 -23.424,-17.298 c -3.032,-2.239 -1.47,-7.05 2.301,-7.08 l 29.118,-0.226 9.213,-27.623 c 1.193,-3.575 6.251,-3.575 7.444,0.002 z"
   id="path16" />
<g
   id="g18">
</g>
<g
   id="g20">
</g>
<g
   id="g22">
</g>
<g
   id="g24">
</g>
<g
   id="g26">
</g>
<g
   id="g28">
</g>
<g
   id="g30">
</g>
<g
   id="g32">
</g>
<g
   id="g34">
</g>
<g
   id="g36">
</g>
<g
   id="g38">
</g>
<g
   id="g40">
</g>
<g
   id="g42">
</g>
<g
   id="g44">
</g>
<g
   id="g46">
</g>
</svg>
