<svg xmlns="http://www.w3.org/2000/svg" xml:space="preserve" width="512" height="335.45001"><path style="fill:#f5f5f5" d="M473.885 0H38.115C17.045.124 0 17.238 0 38.338v129.385h512V38.338C512 17.238 494.955.124 473.885 0z"/><path style="fill:#ff4b55" d="M0 385.376c0 21.177 17.167 38.345 38.345 38.345h435.31c21.177 0 38.345-17.167 38.345-38.345V256.003H0z" transform="translate(0 -88.279)"/><path style="fill:#ff4b55" d="M176.552 141.245c-63.38 0-114.759 51.38-114.759 114.759H291.31c0-63.381-51.378-114.759-114.758-114.759z" transform="translate(0 -88.279)"/><path style="fill:#f5f5f5" d="M176.552 282.483c63.38 0 114.759-51.38 114.759-114.759H61.793c0 63.379 51.38 114.759 114.759 114.759z"/></svg>