<svg version="1.1" id="Layer_1" xmlns="http://www.w3.org/2000/svg" x="0" y="0" viewBox="0 0 512 335.45001" style="enable-background:new 0 0 512 335.4500122" xml:space="preserve"><style>.st1{fill:#fcdd09}.st2{fill:green}</style><path d="M511.98865 111.55011v-73.6499C511.747 17.0141 494.59565 0 473.65503 0H38.34497C17.25525 0 0 17.25525 0 38.34497v73.60498h.01135v-.39984h511.9773zm-404.46582-18.6361c-3.4248-.30348-4.87476-.55677-7.17035-1.53425.68017 3.45422.8407 4.74909.92712 7.57477-.24847 3.77026-1.03143 6.24176-2.22082 8.64484-1.10047 2.14611-1.97101 2.135-3.46796.10253-1.10333-2.43652-1.6493-3.71777-2.1319-8.72393 0 0 .03058-3.75666.563-7.64673-1.96082.93725-3.8017 1.34466-7.11945 1.58276s-6.8753-.15552-6.8753-.15552 4.0216-2.0412 6.59612-4.7716c1.97766-2.09735 2.13861-2.79145 3.73975-6.11518 2.9234 0 12.13714-.0833 13.95434.00129 1.49555 3.6458 1.05695 3.1646 3.11371 5.99469 2.08362 2.86694 6.81757 5.20459 6.81757 5.20459s-3.22126.15216-6.72583-.15827zM84.55676 77.89293c4.34558 0 21.05854-.05902 25.42304-.02325-.01459 1.21088-.03668.44617-.04364 1.94464-5.9284.03119-18.27149-.02478-25.41327-.05597.02392-.70263.04382-1.08197.03387-1.86542zm180.76807 15.0213c-3.4248-.3034-4.87476-.55676-7.17041-1.53417.68017 3.45422.84076 4.74902.92712 7.57476-.24841 3.77027-1.03137 6.24176-2.22076 8.64478-1.10053 2.14618-1.97101 2.135-3.46796.10254-1.10333-2.43652-1.64935-3.71771-2.1319-8.72394 0 0 .03058-3.7566.563-7.64667-1.96082.93726-3.8017 1.3446-7.11945 1.5827s-6.87537-.15545-6.87537-.15545 4.02167-2.04126 6.59613-4.7716h.00006c1.97766-2.09742 2.13861-2.79151 3.73975-6.11524 2.9234 0 12.13708-.08331 13.95434.00134 1.49555 3.64575 1.05689 3.16461 3.11371 5.99463 2.08362 2.867 6.81757 5.20459 6.81757 5.20459s-3.22125.15222-6.72583-.15826zm-22.96607-15.021c4.34559 0 21.05854-.05907 25.42304-.02324-.01459 1.21087-.03668.44616-.04364 1.94464-5.9284.03112-18.27149-.02478-25.41327-.05597.02386-.7027.04382-1.08203.03387-1.86542zm186.0539 14.47529c-3.4248-.3034-4.87476-.5567-7.17041-1.53418.68017 3.45422.84076 4.74909.92712 7.57477-.24841 3.77026-1.03137 6.24176-2.22076 8.64484-1.10053 2.14611-1.97101 2.135-3.46796.10247-1.10333-2.43646-1.64935-3.7177-2.1319-8.72393 0 0 .03058-3.7566.563-7.64667-1.96082.93725-3.8017 1.3446-7.11945 1.58276-3.31775.2381-6.87537-.15552-6.87537-.15552s4.02167-2.04126 6.59613-4.7716h.00006c1.97766-2.09735 2.13861-2.79145 3.73975-6.11524 2.9234 0 12.13708-.08331 13.95434.00135 1.49555 3.6458 1.05689 3.1646 3.11371 5.99462 2.08362 2.867 6.81757 5.2046 6.81757 5.2046s-3.22125.15222-6.72583-.15827zm-22.96607-15.021c4.34559 0 21.05854-.05902 25.42304-.02325-.01459 1.21088-.03668.44617-.04364 1.94464-5.9284.03119-18.27149-.02478-25.41327-.05597.02386-.7027.04382-1.08197.03387-1.86542zm36.1261-36.69427v-.00006c17.06629-7.15235 23.47571 16.46918 7.19953 26.10931-2.9234 1.63257-6.52881 3.28827-8.22644 3.70478 1.37335-1.54206 2.60711-3.1482 2.76513-6.02472.47406-10.41755-10.04388-5.95203-13.61499 5.17462-.90082 2.87695-1.19513 3.94696-1.60388 5.97381-1.86713.01105-2.61993-.00183-4.53534-.00946.26929-3.01294.4002-3.9566.93714-6.62982 2.90728-14.23639 8.22967-24.56683 17.07885-28.29846zm-30.70038-28.6654c2.1554-3.64454 5.37269-6.37495 6.79487-6.37495 1.42224 0 4.58264 2.95423 6.95294 6.5304 6.47888 9.64014 6.75793 18.15662 2.5913 32.03778-2.08502 6.94635-4.02361 16.94739-4.67724 21.72919-.5606 4.1012-.75366 7.08362-.99243 9.66748-1.66052.00976-5.25159.0039-6.83179.0039-.17755-1.6228-.04517-2.33233-1.30933-9.79565-.94812-5.2865-3.2047-15.03857-5.25897-21.56897-4.2666-13.99377-3.52075-22.09784 2.73065-32.22919zm-16.36859 28.66027c8.84919 3.7317 14.17157 14.06208 17.07892 28.29846.53693 2.67322.66785 3.61689.93707 6.62983-1.9154.00763-2.6682.0205-4.53533.00952-.4087-2.02692-.70307-3.09693-1.60389-5.97382-3.5711-11.12665-14.08905-15.59222-13.61499-5.17462.15802 2.87646 1.39185 4.4826 2.7652 6.02466-1.6977-.4165-5.3031-2.07215-8.22644-3.70477-16.27618-9.64014-9.86682-33.26166 7.19946-26.10926zm-116.01886.55078c17.06629-7.15234 23.47571 16.46912 7.19953 26.10926-2.9234 1.63263-6.52881 3.28833-8.22644 3.70477 1.37335-1.54205 2.60711-3.14813 2.76513-6.02466.47406-10.41754-10.04388-5.95203-13.61499 5.17462-.90081 2.8769-1.19513 3.94696-1.60388 5.97382-1.86713.01105-2.61993-.00183-4.53534-.00946.26929-3.01294.40021-3.9566.93714-6.62988 2.90728-14.23633 8.22967-24.56678 17.07885-28.29847zm-30.70038-28.66534c2.1554-3.64453 5.37269-6.37494 6.79487-6.37494 1.42224 0 4.58264 2.95422 6.95294 6.5304 6.47888 9.64013 6.75793 18.15661 2.5913 32.03778-2.08502 6.94635-4.02361 16.94738-4.67724 21.72918-.5606 4.10114-.75366 7.08356-.99243 9.66748-1.66052.00977-5.25159.00385-6.83179.00385-.17755-1.62274-.04516-2.33228-1.30932-9.7956-.94812-5.2865-3.20472-15.03857-5.25898-21.56896-4.2666-13.99378-3.52075-22.09784 2.73065-32.2292zM231.4159 41.19379v.00006c8.84919 3.73163 14.17157 14.06207 17.07892 28.29846.53693 2.67322.66785 3.61688.93707 6.62982-1.9154.00763-2.6682.0205-4.53533.00952-.4087-2.02691-.70307-3.09692-1.60389-5.97387-3.5711-11.12665-14.08905-15.59217-13.61499-5.17456.15802 2.87646 1.39185 4.4826 2.7652 6.02465-1.6977-.4165-5.3031-2.0722-8.22644-3.70477-16.27618-9.64014-9.86682-33.26166 7.19946-26.10931zm-110.73303.00488c17.06635-7.1524 23.4757 16.46912 7.19953 26.10925-2.9234 1.63257-6.52881 3.28827-8.22645 3.70478 1.37336-1.54206 2.60718-3.1482 2.7652-6.02466.47406-10.4176-10.04394-5.95209-13.61505 5.17456-.90082 2.87695-1.19513 3.94696-1.60382 5.97387-1.86713.011-2.62-.00189-4.53534-.00952.26923-3.01294.40015-3.9566.93707-6.62982 2.90735-14.23639 8.22968-24.56683 17.07886-28.29846zm-30.70038-28.6654c2.1554-3.64454 5.37268-6.37494 6.79492-6.37494 1.42218 0 4.58259 2.95422 6.95295 6.5304 6.47882 9.64013 6.75787 18.1566 2.59124 32.03777-2.08502 6.94635-4.02362 16.94739-4.67724 21.72919-.56061 4.1012-.75366 7.08362-.99237 9.66748-1.66059.00983-5.25165.0039-6.83185.0039-.17755-1.6228-.04517-2.33227-1.30933-9.79565-.94812-5.2865-3.2047-15.03857-5.25897-21.56897-4.26654-13.99377-3.52075-22.09784 2.73065-32.22919zM73.61395 41.19353c8.84918 3.7317 14.17151 14.06208 17.07886 28.29846.53693 2.67322.66785 3.61695.93707 6.62989-1.9154.00757-2.66821.02044-4.53534.00946-.40869-2.02686-.70306-3.09693-1.60382-5.97382-3.5711-11.12665-14.0891-15.59216-13.61505-5.17462.15802 2.87646 1.39185 4.4826 2.7652 6.02466-1.69763-.4165-5.30304-2.07215-8.22644-3.70477-16.27619-9.64014-9.86676-33.2616 7.19952-26.10926z" style="fill:#002488"/><path d="M145.42444 205.04303c.20099-.05432.3919-.10675.59625-.16174 7.02588-1.9419 11.80335-3.06873 14.98352-3.45838-1.6164-1.23633-3.02869-2.58893-4.12543-4.01635l-.39758-.5008c-1.10986.22894-2.51031.3509-4.01306.37512-3.42291 2.73694-5.67908 5.15754-7.0437 7.76215zm30.21301-13.93323c3.87299 1.42908 6.46112 2.57257 7.84284 3.43408l2.69134-1.20446-4.2461-1.35797c-3.82818-1.22382-7.64373-3.45435-10.8247-6.16681-1.46747.39227-3.02783.90747-4.44568 1.49621 2.8404 1.30676 5.87976 2.59967 8.9823 3.79895zm-12.68432-1.62884c.98492.33398 2.01586.88574 2.82238 1.6297 1.10614 1.2439 3.79248 2.95428 5.84674 4.04266.22889.13135.4499.26508.66242.39935 2.06512.52985 3.65143 1.2298 3.98486 1.77655.03125.04786.04382.09314.0586.13874 1.3684-.4154 2.74432-.9317 4.11865-1.56647l.33075-.14801c-3.94232-1.17066-10.46564-4.01618-16.69867-7.18378-.32868.27338-.70502.57825-1.12573.91126zm-46.18927-17.31855c.59484.013 1.12493.02625 1.6261.0398-2.1454-.72882-4.37482-1.4663-6.66352-2.20374 1.47986.66742 1.37842.84992-.49768.88861.60706.4123 1.26971.86622 1.98773 1.36097 1.13709-.09284 2.3313-.12555 3.54737-.08564zm57.05377 41.49256c.64496-.39362 1.28363-.82123 1.91717-1.27301-.82434.28485-1.71008.58227-2.6405.88586.25067.12982.49084.25891.72333.38715zm6.74951-37.21753c-1.19818.03516-2.55676.04803-4.08258.0318 1.53302.7016 3.17554 1.362 4.71612 1.846 2.84223 1.01789 4.99103 1.97724 6.34687 2.77808.11474-.02508.22802-.04358.34301-.07l1.64539-.35761c-1.58582-.48834-3.2414-1.09814-4.72437-1.77844-1.65246-.71912-3.11566-1.58325-4.24444-2.44983zm-10.52167-.16718c-.54785-.02649-1.1054-.05517-1.677-.08715a459.1983 459.1983 0 0 0-2.4873-.14246l.14038.13605c3.13421 3.09753 7.29602 4.9433 12.0194 5.48321-3.7799-1.23468-6.58923-3.0819-7.99548-5.38965zm-8.27728 41.22809c2.99322-.10254 6.05884-.85327 9.06543-2.24078-.67987-.17395-1.40015-.36395-2.14893-.56696-2.72912.91986-5.00042 1.83075-6.9165 2.80774zm-56.08331-41.435c1.6347 1.00782 3.20391 1.95813 4.69226 2.84089 1.7976-.19202 3.51233-.34339 5.09198-.4538-1.28992-1.03339-2.56275-2.15704-3.73029-3.27313-.9588.15478-1.88434.29394-2.71802.40582-1.44665.23083-2.54272.3944-3.33593.48022zm38.60199 31.88312c-.27363 1.01624-.4521 2.0785-.52845 3.2174 4.06891-2.92779 9.34204-3.4149 17.68384-1.95086 2.03442.30713 4.49268 1.03772 6.84662 1.92987 4.17828-1.26611 9.18457-2.02313 11.6986-1.84118l1.37806-1.00171-4.4394-.45984c-4.13158-.42737-8.47729-1.90527-12.24456-4.01196-1.03113.36657-2.45416.69232-4.12293.89758-5.971.94952-11.5249 2.0578-16.27178 3.2207zm-38.58447-33.60724c.82708-.61035 2.1355-1.13177 3.7409-1.51306-.21442-.23785-.4419-.48187-.63428-.70904a232.1906 232.1906 0 0 1-.78058-.95026c-1.61511.28595-3.28222.74567-4.2677 1.28436-.65356.32154-1.6109.55658-2.68017.68555.47631.31354.94091.62256 1.38372.92163.68097.4289 1.34986.84668 2.01197 1.2583.28656-.25879.69928-.58105 1.22613-.97748zm48.76562 17.1333c.64752-.41534 1.3139-.81414 1.98242-1.19903-1.5722-.42609-3.38165-.92218-5.4643-1.49597-.69897-.18341-1.4541-.3697-2.25091-.55756 2.00513 1.1867 3.94263 2.28876 5.73279 3.25256zm-14.27521-8.5531c.79944.0857 1.3366.08094 1.4701-.05041.96447-.90155-3.24232-3.13654-10.28718-5.93805 2.62635 1.88446 5.66443 3.9466 8.81708 5.98846zm-17.07587.7948c-1.87616-.25659-3.72503-.49548-5.51501-.71112 4.11798 2.19702 6.88623 3.35462 7.6416 3.0841.49652-.17785-.41864-1.11175-2.12659-2.37298zm28.77216 47.42207-1.2387 5.48485 4.41674.65467c7.25146 1.14526 14.73907-2.07178 20.5885-8.7265l4.17029-4.63092-4.43933.45794c-2.25495.23328-4.63935.16889-7.01178-.14154-1.89008 1.55957-4.51667 4.48249-6.1015 7.03424-2.21229 3.57617-3.00239 4.04267-3.00239 2.0213 0-1.71032 1.42219-4.97552 3.31843-7.46331.61645-.85932 1.33703-1.62384 2.08874-2.28144-2.72687-.6632-5.3313-1.64593-7.5899-2.88794-2.72663 2.5401-4.19416 5.76264-5.1991 10.47864zm-21.07208-50.19697c-2.38648-1.80127-4.33936-3.52545-5.401-4.8418-.60846-.73175-1.14252-1.3938-1.63807-2.01904-.7962-.28479-1.61126-.57233-2.44128-.86194-.35657.10358-.77203.21747-1.2544.34522-.97106.23889-2.31634.52368-3.80053.81024.7514.52277 1.54175 1.07355 2.38397 1.66107 1.07593.74402 2.18073 1.4917 3.30035 2.23792 1.16352.0545 1.93665.18359 2.1565.3999.80945.55139 3.58343 1.44055 6.69446 2.26843zm15.60675 9.54443c-1.3971-.83758-2.99243-1.74426-4.7359-2.67443-.97242-.5011-1.96552-1.05152-2.95935-1.62891-1.89667-.34332-3.86316-.68115-5.86695-1.00745 3.02423 1.82288 5.93415 3.50074 8.5401 4.92743 1.7633.10755 3.44727.23548 5.0221.38336zm21.22113-6.65917c-6.2019-1.90723-13.01093-4.33735-16.65216-6.15546-.21643-.10602-.40369-.19818-.61042-.29956 1.02894 1.81128 6.37012 5.16357 13.4513 8.60815 1.09295-.7882 2.42737-1.5534 3.81128-2.15313zm-7.13263 7.52874c-.57593.43091-1.18634.88086-1.82562 1.34516 2.03161.48986 4.12365.97424 6.00598 1.38067-1.7265-.96686-3.2456-1.94146-4.1098-2.70764-.02332-.00598-.04706-.01215-.07056-.01819zm.83667-13.4862c-1.19422-.78266-2.07923-1.49298-2.37097-1.99536-.0276-.04523-.03797-.08246-.06098-.12562-2.34247-.05883-4.18445-.04754-5.54626.0409 2.96875.97735 6.0246 1.78827 7.9782 2.08008z"/><path d="M.01135 111.55011V297.5498c.24164 20.88611 17.393 37.90021 38.33362 37.90021h435.31006c21.08972 0 38.34497-17.25525 38.34497-38.34497V111.55011H.01135zm150.9975 48.50714c6.16284 7.30786 9.0072 11.8169 7.74304 12.28339-2.52832.7774-8.69116-6.37494-14.69598-17.25898-2.52832-4.50909-4.2666-7.92974-3.79248-7.46331.47406.46649 5.21466 6.06396 10.74542 12.4389zm-66.07513-25.47742c2.52832.93293 39.5053 34.6734 38.87323 35.45087-.31604.31097-6.79493-3.57623-14.22193-8.55176-10.11334-6.68591-15.32806-11.50598-19.91064-18.1919-3.63452-5.13103-5.68878-9.01818-4.74066-8.7072zm-9.34595 40.55915c-2.52832 2.95422-2.52832 2.95422-1.5802-1.55487.47406-2.64325 2.52832-5.90845 4.42456-7.30786 3.63452-2.79871 10.27136-3.2652 16.90826-1.2439 3.16046.93292 2.21234 1.2439-4.42456 1.39941-8.2171.15546-8.69116.46643-15.32806 8.70722zm358.18603 95.37976c-5.12378-.578-27.14874-6.01581-46.01861-10.75629-9.15912-2.30096-20.12818-4.81213-29.62561-7.02289l1.15545 1.45594-3.00012-1.88605c-6.86041-1.6018-12.7954-3.0207-16.4856-4.05078a27.68902 27.68902 0 0 0-3.64898.8075c6.54242 1.69097 22.29602 6.42986 33.76514 9.58971 14.88116 4.20758 51.96252 12.7923 61.37005 15.14856-.7503 1.75641-1.28381 3.02417-1.65002 3.91327.03998.00592.08807.01447.12597.01972 6.24549-13.39429-3.2918 7.6665-.12597-.01972-5.10016-.7536-26.91895-6.9444-45.60907-12.33001-18.83661-5.4278-45.45893-12.034-50.59033-14.22193h-.00006c-.48353-.20685-.90503-.4168-1.26667-.62427-.1358.06055-.27166.11347-.4074.17615l-1.61005.72083c.03326.00885.06146.0141.09521.02325 4.60095 1.24841 22.4817 7.69129 35.10468 11.88141 14.6369 4.96814 51.21081 15.45068 60.48022 18.28815-.84271 1.71533-1.44293 2.95385-1.85596 3.82287.03955.00794.08722.01898.12476.02619 6.94928-13.05426-3.69507 7.4865-.12476-.02619-5.0531-1.0152-26.51263-8.32104-44.8908-14.6618-18.52204-6.39032-44.75653-14.35846-49.76447-16.80762-.89233-.43774-1.55872-.87414-2.013-1.27295l-1.2707.56891 4.24604 1.35504c3.1806 1.01679 6.35681 2.72577 9.16474 4.83081 6.91784 2.7942 15.32086 6.23255 22.16119 8.90314 14.3526 5.71509 50.31885 18.06671 59.42456 21.37762-.9328 1.66962-1.59802 2.87555-2.0567 3.72211.03912.00995.08606.02344.12317.03253 7.63415-12.67859-4.0882 7.28601-.12317-.03253-4.99225-1.27405-26.0337-9.67505-44.04944-16.95343-9.21039-3.721-20.37732-7.94842-29.78522-11.56512 1.03192 1.3012 1.9029 2.64355 2.54462 3.99237l.02685.0542c3.6219 1.60913 7.22254 3.19732 10.46686 4.59478 14.14112 6.20447 49.6474 19.78363 58.63013 23.40522-.99146 1.63653-1.6991 2.81884-2.1875 3.64917.0387.01129.0852.02642.122.0368 8.07917-12.4087-4.34423 7.14117-.122-.0368-4.9441-1.4447-25.67468-10.56311-43.4212-18.4557-6.6247-2.94628-14.28339-6.19854-21.54486-9.2722l.8468 1.70855-2.47296-2.3968c-6.58228-2.78533-12.73401-5.3878-17.37177-7.44067-1.31378.02619-2.6618.15564-4.03076.36963 7.1529 3.56433 18.63568 9.52692 27.44696 13.87647 13.79175 6.9242 48.5271 22.31317 57.30493 26.39233-1.07715 1.58332-1.84674 2.72754-2.37866 3.53156.03808.0133.08368.03076.11987.04303 8.72809-11.97559-4.71802 6.90753-.11987-.04303-4.8603-1.69727-25.07758-11.8708-42.38-20.66645-15.55933-7.9096-37.00898-17.89868-44.7295-22.1704l-3.71545.8073 3.8664 2.19733c6.62768 3.76514 12.46807 11.06891 14.00066 17.55298l1.55353 6.13599-3.33826-4.97504c-3.98693-6.07129-11.42773-9.3913-20.36724-9.21777l-6.28888.05005 3.31732 2.93951c5.68701 5.03882 9.8573 13.37702 9.98584 20.03565l.22424 6.32135-2.2152-5.55164c-2.61775-6.75275-9.19361-11.52289-17.97468-13.18188l-6.1623-1.23645 2.62373 3.55432c4.49914 6.09185 6.815 15.09979 5.53448 21.6397l-1.11706 6.22822-.99347-5.88306c-1.13306-7.14001-6.55793-13.15051-14.79694-16.56952l-5.76569-2.4699 1.81562 4.01122c3.112 6.87921 3.47473 16.16754.84002 22.30158l-2.4085 5.86145.27105-5.95752c.39954-7.21357-3.63519-14.20362-10.97235-19.2326l-5.11798-3.5965h-.00098l.92774 4.29553c1.59045 7.36657-.0169 16.52252-3.89026 21.98395l-3.59436 5.2437 1.52466-5.7722c1.91424-6.97627-.55603-14.6399-6.66852-21.05927l-4.24603-4.56525v4.39264c0 7.53033-3.5077 16.15973-8.45026 20.70727l-4.62372 4.39368 2.71045-5.33398c3.3482-6.43207 2.55103-14.43299-2.0727-21.96326l-3.18877-5.33392-.92774 4.29553c-1.59143 7.3656-6.84588 15.08899-12.64148 18.52667l-5.4508 3.35138 3.77868-4.66333c4.63465-5.60748 5.54541-13.59466 2.61377-21.90839l-1.992-5.8673-1.81464 4.0122c-3.11297 6.87824-9.88415 13.35938-16.27966 15.53613l-6.03973 2.162 4.68151-3.78773c5.7179-4.53674 8.29676-12.16412 7.18567-20.89258l-.7085-6.14971-2.62371 3.55236c-4.49817 6.09186-12.49005 11.04639-19.20636 11.86805l-6.36462.87854 5.37908-2.74836c6.55195-3.26703 10.68634-10.20117 11.44367-18.96588l.60687-6.1615-3.31732 2.93952c-5.68695 5.03882-14.55072 8.24707-21.294 7.67834l-6.41144-.44122 5.84246-1.58746c7.099-1.8551 12.6076-7.79206 15.20148-16.21265l1.89435-5.90064-3.8664 2.19727c-6.62768 3.76416-15.97576 5.08984-22.45098 3.15332l-6.17823-1.74432 6.04969-.3559c7.3352-.36182 13.97882-5.04279 18.29461-12.74658l3.1001-5.38495-4.2461 1.35706c-7.27837 2.32672-16.70214 1.71093-22.62731-1.50904l-4.21826-2.20758-.22211.98334-.02356-1.11188-1.21106-.63379 1.20142.1781-.12482-5.89581c-.09076-5.00153 1.0805-8.66632 4.18127-11.79578-.25903-.19793-.51788-.39605-.75976-.6023l-4.92267-4.0642 5.67505 2.09338c.72296.27478 1.46112.49213 2.20733.67359 1.77265-1.3219 3.9751-2.56983 6.65345-3.81366-9.17719-2.40192-14.19904-2.167-19.40363 1.50928.03595.52526.0813 1.06164.14252 1.61999l.69458 7.13489-2.4942-7.04999c-.03998-.11407-.06903-.22241-.10712-.33545-.58765.4945-1.18054 1.01642-1.79059 1.59924l-5.2865 4.93122 4.11054-6.27436c.71582-1.0855 1.4549-2.03668 2.22583-2.8869-.34455-1.61065-.4455-3.1275-.31287-4.60327-5.95642 1.6286-10.1997 3.31299-11.69366 4.78302-1.58026 1.55481-3.00244 5.2865-3.16046 7.92975-.15802 4.82013-.15802 4.97559-1.42218 1.2439-2.92786-9.07483-.96106-11.6128 16.80688-16.63465.9112-2.9494 2.91748-5.8446 6.1886-9.0841-1.40735-.16407-2.74225-.40955-3.8598-.73285-.25812-.07575-.5296-.16126-.7973-.24402l-2.42383 1.24017c-2.21228 1.08838-7.90107 2.95423-12.64173 4.0426-4.7406 1.08844-9.95532 2.95429-11.3775 4.35364-1.73822 1.39935-2.84436 1.55487-2.84436.62195 0-2.17682 2.21228-3.57617 12.64166-7.61884 4.74066-1.71032 10.9035-3.2652 13.43183-3.42065h.83697c-1.2038-.417-2.46924-.88153-3.79321-1.39581-1.65528-.15106-3.34332-.30347-4.99042-.44751-14.0639-1.2439-19.9107.7774-21.80695 7.46332-.47406 1.71038-1.26416 2.95422-1.73822 2.33227-.47406-.46643-.15802-2.7987.7901-5.13098.94812-2.33234 1.42219-4.66461 1.10614-4.97559-1.26416-1.2439-14.22192 2.4878-15.48608 4.5091-.7901 1.2439-1.42218 1.39935-1.42218.31097 0-2.79877 3.63452-5.13104 10.42938-6.68591 4.6009-1.07788 13.75891-1.58997 23.24536-1.58478-4.86212-2.23108-9.87353-4.7414-14.4657-7.2442-4.08013-.41284-7.59509-.65564-10.04382-.65564-9.0072 0-11.3775 1.2439-12.79968 6.99689-.79016 3.10968-.79016 3.10968-.94818 0-.31555-6.36481 2.36365-7.76996 18.25622-9.47657-3.7663-2.22833-6.96844-4.34613-9.18865-6.14209-.50147-.0542-.99573-.12701-1.4596-.24115l-4.74066-.77746 3.66577-1.17224c-3.36133-2.99909-4.64148-4.48468-2.71942-3.28302.9765.62707 2.58148 1.63086 4.35956 2.75854l1.01495-.32458c4.02033-1.21094 6.20477-1.78815 7.9328-1.82868a3.1804 3.1804 0 0 1-.0968-.17633c-13.77826-4.25067-28.70813-8.22687-39.30512-10.12268-3.4765-.62195-3.31848-.62195.94812-.93292 3.86011-.13098 17.27875 2.82727 31.77924 6.586-3.28131-1.36133-6.2608-2.86054-7.42126-3.94232-1.73822-1.55487-6.6369-4.35364-10.74549-6.21949-4.10852-1.86578-7.42694-3.57617-7.42694-3.88714 0-1.08838.31604-1.08838 10.11334 2.33233 1.19086.40558 2.63886.9881 4.23267 1.68445-1.53137-1.11908-2.74622-2.15362-3.32416-2.92077-1.43738-1.82819-5.7677-5.42145-9.48456-7.96094-3.71685-2.53943-6.68304-4.79083-6.62817-5.09705.19208-1.0719.50336-1.01788 9.5481 4.02484 7.32208 4.00891 24.2691 17.45441 24.34576 19.21735 5.15247 2.8794 9.05548 5.42029 8.65497 5.95728 3.31232.92169 6.55865 1.85235 9.6416 2.76544-.4787-1.09741.28033-.92108 2.31519.6911 10.66387 3.21503 18.89697 6.11249 20.09185 7.44855 1.65296 1.76202 9.66913 7.1856 16.19983 11.02026.97614-.47858 1.89759-.8819 2.72956-1.2002.01178-.01342.01983-.02587.03186-.03936-4.49457-2.36048-8.66504-4.81311-11.37622-6.82648-2.6045-1.99316-4.78858-4.492-5.14228-5.73761-.10779-.0553-.19855-.10303-.30041-.1557l-3.18018-.48139c-3.31848-.46649-8.69116-2.6433-11.6936-4.82006-11.06146-8.08527-30.9721-29.23139-35.8708-38.4051-2.84435-5.13104-3.9505-7.77429-2.3703-5.75298 1.42219 1.86584 4.74061 6.06396 7.11097 9.32916 8.69116 11.195 15.6441 18.9693 17.2243 18.9693.7901 0-.7901-2.64325-3.31848-5.90845-2.68634-3.10974-5.84674-8.86273-7.26892-12.74988-2.84442-8.08526-2.37036-7.61877 7.90106 6.99689 9.48127 13.37183 22.75501 28.76495 24.80933 28.76495.7901 0-2.37036-4.5091-7.26898-9.9511-4.89868-5.28657-9.95532-12.74989-11.21954-16.48158-3.31842-9.32916-2.84436-11.19494 1.10614-3.88714 3.63452 6.68591 15.01202 21.92352 22.43902 29.85333l2.75635 2.99274c.12982.04504.26123.091.39514.13812.62323-.237 1.46076-.43286 2.49896-.58673-3.5805-3.36621-11.98492-14.96954-11.98492-16.95947 0-1.71033 1.13892-.6219 8.78564 9.64013 2.30799 3.04596 3.94355 5.73218 4.51398 7.15802 2.78766-.28235 6.63239-.33526 11.36932-.14483l-.25817-.52094.55084.53388c.92395.03875 1.88116.08673 2.86993.14373-1.25506-.73864-2.4253-1.85553-3.50555-3.32733-3.63446-4.97558-9.7973-16.79254-9.7973-18.50287 0-.62194 2.05426 1.2439 4.42456 4.19812 2.37036 2.95429 6.95294 8.39624 10.42938 11.97248 3.36432 3.7459 4.84173 5.3919 4.79754 6.1162 1.44666.12263 2.93781.2594 4.48035.41377.53491.047 1.04614.0946 1.53833.14263-3.53888-1.98718-11.91925-16.85516-14.02203-25.13122-.63208-2.4878-.31604-4.04266.79016-4.04266.94812 0 1.73822 1.2439 1.73822 2.95428 0 3.10968 8.53314 19.59119 12.48364 24.10034.08032.0896.15094.16925.22583.25318.5058.27545 1.36286.96289 2.76825 2.09295.12323.0929.25653.18958.39777.289 5.06097.7281 5.81378 1.47315 3.1068 1.90497 2.10493 1.16925 4.63111 2.39124 6.89704 3.26142a87.57915 87.57915 0 0 1 1.30036.50952l.85309-.18543-3.86542-2.19629c-6.62763-3.76513-12.46808-11.0689-14.00067-17.55597l-1.5545-6.135 3.33923 4.97704c3.98693 6.06836 11.42773 9.38935 20.36724 9.21479l6.28888-.04999-3.31732-2.93958c-5.68701-5.03784-9.8573-13.37603-9.98584-20.03466l-.22424-6.32032 2.2152 5.55066c2.6178 6.75373 9.19367 11.5229 17.97468 13.18091l6.16131 1.23737-2.62274-3.55237c-4.50018-6.09186-6.815-15.10266-5.53448-21.64069l1.11603-6.22717.99353 5.883c1.133 7.1391 6.55792 13.15057 14.79687 16.5686l5.76569 2.47082-1.81562-4.01416c-3.11102-6.8792-3.47375-16.1646-.84002-22.29858l2.4085-5.86444-.27001 5.95752c-.3996 7.21655 3.63519 14.20654 10.97235 19.23553l5.117 3.5965-.92676-4.2956c-1.59143-7.36749.01593-16.52538 3.88929-21.9848l3.59436-5.24377-1.52265 5.77222c-1.91522 6.97632.55506 14.64087 6.66754 21.05926l4.24604 4.56427v-4.39166c0-7.5293 3.50763-16.15875 8.45025-20.70929l4.62372-4.39063-2.71045 5.3329c-3.34826 6.4331-2.55108 14.43206 2.0727 21.96429l3.18878 5.333.92773-4.29754c1.59137-7.3656 6.84589-15.08704 12.64148-18.5257l5.4508-3.34936-3.77868 4.66229c-4.6347 5.60553-5.54547 13.59564-2.6137 21.9065l1.99193 5.87023 1.81562-4.01416c3.11303-6.87921 9.88318-13.35742 16.27868-15.5351l6.03974-2.16204-4.68054 3.78772c-5.71784 4.53479-8.29578 12.1651-7.1847 20.89355l.70752 6.14874 2.62378-3.55432c4.49811-6.09185 12.49-11.04345 19.20636-11.8651l6.36457-.87953-5.3791 2.7464c-6.55193 3.26905-10.68633 10.20118-11.44366 18.96888l-.60687 6.1585 3.31732-2.93951c5.68695-5.03882 14.55072-8.24603 21.294-7.67542l6.41138.44025-5.8424 1.58746c-7.099 1.85608-12.6076 7.79206-15.20148 16.21064l-1.89533 5.9007 3.8664-2.19636c6.62762-3.76312 15.9757-5.0888 22.45093-3.15228l6.17822 1.74237-6.04968.35687c-7.3352.36377-13.97882 5.0437-18.29462 12.74854l-3.09906 5.38293 4.24603-1.35602c7.27838-2.32672 16.70221-1.71002 22.62635 1.50898l5.67498 2.96801-5.99286-.88635c-7.25146-1.14721-14.73913 2.07178-20.58856 8.72449l-4.16925 4.63287 4.43836-.45788c7.6112-.78833 16.69922 1.74334 21.81414 6.10363l4.92267 4.06519-5.67499-2.09436c-6.85089-2.60522-14.85467-.98639-21.98156 4.32404l-5.05823 3.67883 4.43842.45788c7.49945.77485 15.71185 4.99598 19.85614 10.20142 6.0794 1.53479 12.68457 3.20447 18.27642 4.53986 15.02124 3.69403 52.38446 11.00018 61.86994 13.03192-.68756 1.78113-1.17578 3.0664-1.51026 3.96753.0401.00451.08857.01147.1266.01538 5.7666-13.60059-3.01783 7.77484-.1266-.01538z"/><path class="st1" d="M92.5108 66.33142c1.26416 7.46338 1.13178 8.17285 1.30933 9.79566 1.5802 0 5.17126.00592 6.83185-.00391.2387-2.58386.43176-5.56629.99237-9.66748.65362-4.7818 2.59222-14.78284 4.67724-21.72919 4.16663-13.88116 3.88758-22.39764-2.59124-32.03778-2.37036-3.57617-5.53077-6.5304-6.95295-6.5304-1.42224 0-4.63952 2.73041-6.79492 6.37494-6.2514 10.13135-6.99719 18.23542-2.73065 32.2292 2.05426 6.53039 4.31085 16.28246 5.25897 21.56896zm10.15613 9.79553c1.91535.00763 2.66821.02051 4.53534.00952.4087-2.02691.703-3.09692 1.60382-5.97387 3.5711-11.12665 14.08911-15.59217 13.61505-5.17456-.15802 2.87646-1.39184 4.4826-2.7652 6.02466 1.69764-.4165 5.30304-2.0722 8.22645-3.70478 16.27618-9.64013 9.86682-33.26166-7.19953-26.10925-8.84918 3.73163-14.1715 14.06207-17.07886 28.29846-.53692 2.67322-.66784 3.61688-.93707 6.62982zm7.26923 3.68738c.00696-1.49847.02905-.73376.04364-1.94464-4.3645-.03577-21.07746.02325-25.42304.02325.00995.78345-.00995 1.16279-.03387 1.86542 7.14178.0312 19.48486.08716 25.41327.05597zm-2.50506 8.05335c-2.05677-2.83008-1.61817-2.34888-3.11372-5.9947-1.8172-.08459-11.03094-.00128-13.95434-.00128-1.60114 3.32373-1.76209 4.01783-3.73975 6.11518-2.57452 2.7304-6.59613 4.7716-6.59613 4.7716s3.55756.39362 6.8753.15552 5.15864-.6455 7.11945-1.58276c-.5324 3.89007-.56299 7.64673-.56299 7.64673.4826 5.00616 1.02857 6.28741 2.1319 8.72393 1.49695 2.03247 2.3675 2.04358 3.46796-.10253 1.18939-2.40308 1.97235-4.87458 2.22082-8.64484-.08642-2.82568-.24695-4.12055-.92712-7.57477 2.2956.97748 3.74554 1.23077 7.17035 1.53424 3.50457.31043 6.72583.15827 6.72583.15827s-4.73395-2.33765-6.81757-5.2046zM66.41443 67.3028c2.9234 1.63262 6.5288 3.28826 8.22644 3.70477-1.37335-1.54205-2.60718-3.1482-2.7652-6.02466-.47406-10.41754 10.04395-5.95203 13.61505 5.17462.90076 2.8769 1.19513 3.94696 1.60382 5.97382 1.86713.01098 2.61994-.0019 4.53534-.00946-.26922-3.01294-.40014-3.95667-.93707-6.62989-2.90735-14.23638-8.22968-24.56677-17.07886-28.29846-17.06628-7.15234-23.4757 16.46912-7.19952 26.10926zm183.89837-.97107c1.26417 7.46331 1.13178 8.17285 1.30933 9.79559 1.5802 0 5.17127.00592 6.83179-.00385.23877-2.58392.43182-5.56634.99243-9.66748.65363-4.7818 2.59222-14.78283 4.67725-21.72918 4.16662-13.88117 3.88757-22.39765-2.59131-32.03778-2.3703-3.57618-5.5307-6.5304-6.95294-6.5304-1.42218 0-4.63947 2.7304-6.79487 6.37494-6.2514 10.13135-6.99725 18.23541-2.73065 32.22919 2.05426 6.5304 4.31086 16.28247 5.25898 21.56897zm10.15607 9.79553c1.9154.00763 2.66822.0205 4.53534.00946.40875-2.02686.70307-3.09693 1.60388-5.97382 3.5711-11.12665 14.08905-15.59216 13.615-5.17462-.15803 2.87653-1.3918 4.4826-2.76514 6.02466 1.69763-.41644 5.30304-2.07214 8.22644-3.70477 16.27618-9.64014 9.86676-33.2616-7.19953-26.10926-8.84918 3.7317-14.17157 14.06214-17.07885 28.29847-.53693 2.67327-.66785 3.61694-.93714 6.62988zm7.26929 3.68738c.00696-1.49848.02905-.73377.04364-1.94464-4.3645-.03583-21.07745.02325-25.42304.02325.00995.78339-.01 1.16272-.03387 1.86542 7.14178.03119 19.48486.0871 25.41327.05597zm-2.50506 8.05328c-2.05683-2.83002-1.61817-2.34888-3.11372-5.99463-1.81726-.08465-11.03094-.00134-13.95434-.00134-1.60114 3.32373-1.76209 4.01782-3.73975 6.11523h-.00006c-2.57446 2.73035-6.59613 4.7716-6.59613 4.7716s3.55762.39356 6.87537.15547 5.15863-.64545 7.11944-1.5827c-.5324 3.89007-.56298 7.64666-.56298 7.64666.48254 5.00623 1.02856 6.28742 2.1319 8.72394 1.49694 2.03247 2.36742 2.04364 3.46795-.10254 1.1894-2.40302 1.97235-4.87451 2.22076-8.64478-.08636-2.82574-.24695-4.12054-.92712-7.57476 2.29565.97741 3.7456 1.23077 7.1704 1.53418 3.50459.31048 6.72584.15826 6.72584.15826s-4.73395-2.33759-6.81757-5.20459zM224.21643 67.3031c2.92334 1.63257 6.52875 3.28827 8.22644 3.70477-1.37335-1.54205-2.60718-3.14819-2.7652-6.02465-.47406-10.4176 10.04389-5.9521 13.615 5.17456.90081 2.87695 1.19518 3.94696 1.60388 5.97387 1.86712.01099 2.61993-.00189 4.53533-.00952-.26922-3.01294-.40014-3.9566-.93707-6.62982-2.90735-14.23639-8.22973-24.56683-17.07892-28.29846v-.00006c-17.06628-7.15235-23.47564 16.46917-7.19946 26.10931zm189.1842-1.51709c1.26416 7.46332 1.13178 8.17285 1.30933 9.79566 1.5802 0 5.17127.00585 6.83179-.00391.23877-2.58386.43182-5.56629.99243-9.66748.65363-4.7818 2.59222-14.78284 4.67725-21.72919 4.16662-13.88116 3.88757-22.39764-2.59131-32.03778-2.3703-3.57617-5.5307-6.5304-6.95294-6.5304-1.42218 0-4.63947 2.73041-6.79487 6.37494-6.2514 10.13135-6.99725 18.23542-2.73065 32.2292 2.05426 6.53039 4.31085 16.28246 5.25897 21.56896zm10.15607 9.79553c1.9154.00763 2.66821.02051 4.53534.00946.40875-2.02685.70307-3.09686 1.60388-5.97381 3.5711-11.12665 14.08905-15.59217 13.615-5.17462-.15803 2.87652-1.3918 4.48266-2.76514 6.02472 1.69763-.4165 5.30304-2.07221 8.22644-3.70478 16.27618-9.64013 9.86676-33.26166-7.19953-26.10931v.00006c-8.84918 3.73163-14.17157 14.06207-17.07885 28.29846-.53693 2.67322-.66785 3.61688-.93714 6.62982zm7.26929 3.68738c.00696-1.49847.02905-.73376.04364-1.94464-4.3645-.03577-21.07745.02325-25.42304.02325.00995.78345-.01 1.16272-.03387 1.86542 7.14178.0312 19.48486.08716 25.41327.05597zm-2.50507 8.05328c-2.05682-2.83001-1.61816-2.34881-3.1137-5.99462-1.81727-.08466-11.03095-.00135-13.95435-.00135-1.60114 3.3238-1.76209 4.01789-3.73975 6.11524h-.00006c-2.57446 2.73034-6.59613 4.7716-6.59613 4.7716s3.55762.39362 6.87537.15552c3.31775-.23816 5.15863-.6455 7.11944-1.58276-.5324 3.89007-.56299 7.64667-.56299 7.64667.48255 5.00622 1.02857 6.28747 2.1319 8.72393 1.49695 2.03253 2.36743 2.04364 3.46796-.10247 1.1894-2.40308 1.97235-4.87458 2.22076-8.64484-.08636-2.82568-.24695-4.12055-.92712-7.57477 2.29565.97748 3.7456 1.23077 7.1704 1.53418 3.50459.31049 6.72584.15826 6.72584.15826s-4.73395-2.33758-6.81757-5.20459zm-41.01666-20.56481c2.92334 1.63262 6.52875 3.28826 8.22644 3.70477-1.37335-1.54206-2.60718-3.1482-2.7652-6.02466-.47406-10.4176 10.04389-5.95203 13.615 5.17462.90081 2.8769 1.19518 3.9469 1.60387 5.97382 1.86713.01098 2.61994-.0019 4.53534-.00952-.26922-3.01294-.40014-3.9566-.93707-6.62983-2.90735-14.23639-8.22973-24.56677-17.07892-28.29846-17.06628-7.1524-23.47564 16.46912-7.19946 26.10926z"/><path class="st2" d="M89.67438 143.28705c4.58258 6.68591 9.7973 11.50598 19.91064 18.1919 7.427 4.97552 13.90589 8.86272 14.22193 8.55175.63208-.77747-36.34491-34.51794-38.87323-35.45087-.94812-.31097 1.10614 3.57618 4.74066 8.70722zm54.38152 11.79461c6.00483 10.88404 12.16767 18.03638 14.696 17.25898 1.26415-.4665-1.5802-4.97553-7.74305-12.28339-5.53076-6.37494-10.27136-11.97241-10.74542-12.4389-.47412-.46643 1.26416 2.95422 3.79248 7.46331zm-48.7155 9.95069c-6.6369-2.0213-13.27375-1.55481-16.90827 1.2439-1.89624 1.3994-3.9505 4.6646-4.42456 7.30786-.94812 4.5091-.94812 4.5091 1.5802 1.55487 6.6369-8.24079 7.11096-8.55176 15.32806-8.70722 6.6369-.15551 7.58502-.46649 4.42456-1.39941zm73.02807 11.15075c.5716.03199 1.12915.06067 1.677.08716 1.40625 2.30774 4.21558 4.15497 7.99548 5.38965 2.98261.34094 6.18842.15949 9.5066-.56659-1.35584-.80084-3.50464-1.76019-6.34687-2.77807-1.54058-.48401-3.1831-1.14441-4.71612-1.84601 1.52582.01623 2.8844.00336 4.08258-.0318 1.12878.86658 2.59198 1.73071 4.24444 2.44983 1.48298.6803 3.13855 1.2901 4.72437 1.77844l3.6419-.79144a87.57958 87.57958 0 0 0-1.30035-.50952c-2.26593-.87018-4.79211-2.09217-6.89703-3.26142 2.70697-.43182 1.95416-1.17688-3.10681-1.90497-.14124-.09942-.27454-.1961-.39777-.289-1.4054-1.13006-2.26245-1.8175-2.76825-2.09295-.07489-.08393-.1455-.16358-.22583-.25318-3.9505-4.50915-12.48364-20.99066-12.48364-24.10034 0-1.71039-.7901-2.95428-1.73822-2.95428-1.1062 0-1.42224 1.55487-.79016 4.04266 2.10278 8.27606 10.48315 23.14404 14.02203 25.13123a159.76252 159.76252 0 0 0-1.53833-.14264c-1.54254-.15436-3.03369-.29114-4.48035-.41376.0442-.7243-1.43322-2.3703-4.79754-6.11621-3.47644-3.57624-8.05902-9.0182-10.42938-11.97248-2.3703-2.95422-4.42456-4.82006-4.42456-4.19812 0 1.71033 6.16284 13.52729 9.7973 18.50287 1.08026 1.4718 2.25049 2.58869 3.50555 3.32733-.98877-.057-1.94598-.10498-2.86993-.14373l3.62658 3.51489a459.19713 459.19713 0 0 1 2.4873.14246z"/><path class="st2" d="M161.76819 217.49835c1.91608-.97699 4.18738-1.88788 6.9165-2.80774.74878.203 1.46906.393 2.14893.56696 1.00342-.46308 1.99902-1.00159 2.984-1.6026-.23248-.12824-.47265-.25733-.72332-.38715.93042-.30359 1.81616-.60101 2.6405-.88586.19062-.13599.38306-.26392.57251-.4051l3.68018-2.67516c-2.51404-.18195-7.52033.57507-11.69861 1.84118-2.35394-.89215-4.8122-1.62274-6.84662-1.92987-8.3418-1.46405-13.61493-.97693-17.68384 1.95087.07636-1.13892.25482-2.20117.52845-3.2174 4.74688-1.16291 10.30078-2.27119 16.27178-3.22071 1.66877-.20526 3.0918-.531 4.12293-.89758-1.30804-.73145-2.54358-1.53809-3.67737-2.40528-3.18017.38965-7.95764 1.51648-14.98352 3.45838-.20434.05499-.39526.10742-.59625.16174 1.36462-2.60461 3.62079-5.0252 7.0437-7.76215 1.50275-.02423 2.9032-.14618 4.01306-.37512l-3.55853-4.48211 5.10803 3.2102c5.10693 3.27808 11.60602 3.86548 18.29743 1.8341-.01478-.04559-.02735-.09087-.0586-.13873-.33343-.54675-1.91974-1.2467-3.98486-1.77655a18.20431 18.20431 0 0 0-.66242-.39935c-2.05426-1.08838-4.7406-2.79877-5.84674-4.04266-.80652-.74396-1.83746-1.29572-2.82239-1.6297.42072-.33301.79706-.63788 1.12574-.91126 6.23303 3.1676 12.75635 6.01312 16.69867 7.18378l2.70276-1.2096c-1.38172-.8615-3.96985-2.005-7.84284-3.43408-3.10254-1.19928-6.1419-2.49219-8.9823-3.79895 1.41785-.58874 2.97821-1.10394 4.44568-1.49621-2.86688-2.44464-5.2196-5.27985-6.58002-8.13874l-2.5589-5.16308c-4.73693-.19043-8.58166-.13751-11.36932.14483-.57043-1.42584-2.206-4.11206-4.51398-7.15802-7.64673-10.26202-8.78564-11.35046-8.78564-9.64013 0 1.98993 8.40442 13.59326 11.98492 16.95947-1.0382.15387-1.87573.34973-2.49896.58673a95.81616 95.81616 0 0 0-.39514-.13812l-2.75635-2.99274c-7.427-7.9298-18.8045-23.16742-22.43902-29.85333-3.9505-7.3078-4.42457-5.44202-1.10614 3.88715 1.26422 3.73168 6.32086 11.195 11.21954 16.48156 4.89862 5.44202 8.05908 9.95111 7.26898 9.95111-2.05432 0-15.32806-15.39312-24.80933-28.76495-10.27142-14.61566-10.74548-15.08215-7.90106-6.99689 1.42218 3.88715 4.58258 9.64014 7.26892 12.74988 2.52838 3.2652 4.10858 5.90845 3.31848 5.90845-1.5802 0-8.53314-7.7743-17.2243-18.9693-2.37036-3.2652-5.68878-7.46332-7.11096-9.32916-1.5802-2.0213-.47406.62194 2.3703 5.75299 4.89868 9.1737 24.80933 30.31982 35.87079 38.40509 3.00244 2.17675 8.37512 4.35357 11.6936 4.82007l3.18018.48138c.10186.05267.19262.1004.30041.1557.3537 1.2456 2.53778 3.74445 5.14227 5.73761 2.71119 2.01337 6.88166 4.466 11.37623 6.82648-.01203.01349-.02009.02594-.03186.03936-.83198.3183-1.75342.72162-2.72956 1.2002-6.5307-3.83466-14.54687-9.25824-16.19983-11.02026-1.19488-1.33606-9.42798-4.23352-20.09186-7.44855-2.03485-1.61218-2.79388-1.78851-2.31518-.6911-3.08295-.91309-6.32929-1.84375-9.6416-2.76544.40051-.537-3.5025-3.07788-8.65497-5.95728-.07666-1.76294-17.02368-15.20843-24.34576-19.21735-9.04474-5.04272-9.35602-5.09674-9.5481-4.02484-.05487.30622 2.91132 2.55762 6.62817 5.09705 3.71686 2.53949 8.04718 6.13275 9.48456 7.96094.57794.76715 1.79279 1.8017 3.32416 2.92077-1.59381-.69635-3.04181-1.27887-4.23267-1.68445-9.7973-3.42071-10.11334-3.42071-10.11334-2.33233 0 .31097 3.31842 2.02136 7.42694 3.88714 4.10858 1.86585 9.00726 4.66462 10.74549 6.21949 1.16046 1.08178 4.13995 2.581 7.42126 3.94232-14.50049-3.75873-27.91913-6.71698-31.77924-6.586-4.2666.31097-4.42462.31097-.94812.93292 10.59699 1.89582 25.52686 5.87201 39.30512 10.12268a3.18026 3.18026 0 0 0 .0968.17633c-1.72803.04053-3.91248.61774-7.9328 1.82868l-1.01495.32458c-1.77808-1.12768-3.38306-2.13147-4.35956-2.75854-1.92206-1.20166-.6419.28393 2.71942 3.28302l-3.66577 1.17224 4.74066.77747c.46387.11413.95813.18695 1.4596.24115 2.2202 1.79595 5.42236 3.91375 9.18865 6.14208-15.89257 1.7066-18.57177 3.11176-18.25622 9.47657.15802 3.10968.15802 3.10968.94818 0 1.42218-5.753 3.79248-6.99689 12.79968-6.99689 2.44873 0 5.96369.2428 10.04383.65564 4.59216 2.5028 9.60357 5.01312 14.4657 7.2442-9.48646-.00519-18.64448.5069-23.24537 1.58478-6.79486 1.55487-10.42938 3.88715-10.42938 6.68591 0 1.08838.63208.93292 1.42218-.31097 1.26416-2.0213 14.22192-5.753 15.48608-4.5091.31604.31098-.15802 2.64325-1.10614 4.97559-.94812 2.33228-1.26416 4.66455-.7901 5.13098.47406.62195 1.26416-.62189 1.73822-2.33227 1.89624-6.68592 7.74305-8.70722 21.80695-7.46332 1.6471.14404 3.33514.29645 4.99042.4475 1.32397.51429 2.58941.97883 3.79321 1.39582h-.83697c-2.52832.15546-8.69117 1.71033-13.43183 3.42066-10.42938 4.04266-12.64166 5.44201-12.64166 7.61883 0 .93292 1.10614.7774 2.84436-.62195 1.42218-1.39935 6.6369-3.2652 11.3775-4.35364 4.74066-1.08837 10.42945-2.95422 12.64173-4.0426l2.42382-1.24017c.2677.08276.53919.16827.7973.24402 1.11756.3233 2.45246.56878 3.8598.73285-3.27111 3.2395-5.2774 6.1347-6.18859 9.0841-17.76794 5.02185-19.73474 7.55982-16.80689 16.63465 1.26416 3.73169 1.26416 3.57623 1.42218-1.2439.15802-2.64325 1.5802-6.37494 3.16047-7.92975 1.49395-1.47003 5.73724-3.15442 11.69366-4.78302-.13263 1.47577-.03168 2.99262.31287 4.60327-.77094.85022-1.51001 1.8014-2.22583 2.8869l-4.11054 6.27436 5.2865-4.93122c.61005-.58282 1.20294-1.10473 1.79059-1.59924.03809.11304.06714.22138.10712.33545l2.4942 7.04999-.69458-7.13489c-.06122-.55835-.10657-1.09473-.14252-1.62 5.2046-3.67626 10.22644-3.91119 19.40363-1.50927-2.67835 1.24383-4.8808 2.49176-6.65345 3.81366 1.70081.41351 3.45484.58484 5.23609.52386zm-50.53943-46.61126c1.8761-.0387 1.97754-.2212.49768-.88862 2.2887.73743 4.51813 1.47492 6.66351 2.20374a309.8214 309.8214 0 0 0-1.6261-.0398c-1.21606-.03991-2.41027-.0072-3.54736.08564-.71802-.49475-1.38067-.94867-1.98773-1.36096zm.51007 4.29022c1.16754 1.11609 2.44037 2.23974 3.73029 3.27313-1.57965.11041-3.29438.26178-5.09198.4538-1.48835-.88276-3.05756-1.83307-4.69226-2.84089.7932-.08581 1.88928-.24939 3.33593-.48022.83368-.11188 1.75922-.25104 2.71802-.40582zm6.92688.85577a2319.0908 2319.0908 0 0 0-2.38397-1.66107c1.48419-.28656 2.82947-.57135 3.80054-.81024.48236-.12775.89782-.24164 1.25439-.34522.83002.28961 1.64508.57715 2.44128.86194.49555.62525 1.0296 1.2873 1.63807 2.01904 1.06164 1.31635 3.01452 3.04053 5.401 4.8418-3.11103-.82788-5.88501-1.71704-6.69446-2.26843-.21985-.21631-.99298-.3454-2.1565-.3999-1.11962-.74622-2.22442-1.4939-3.30035-2.23792zm20.0628 10.14734c.99384.5774 1.98694 1.1278 2.95936 1.6289 1.74347.93018 3.3388 1.83686 4.7359 2.67444-1.57483-.14788-3.2588-.27581-5.0221-.38336-2.60595-1.4267-5.51587-3.10455-8.5401-4.92743 2.00379.3263 3.97028.66413 5.86695 1.00745zm19.95814 6.51807c.63928-.4643 1.24969-.91425 1.82562-1.34516.0235.00605.04724.01221.07055.0182.8642.76617 2.3833 1.74077 4.1098 2.70763-1.88232-.40643-3.97436-.8908-6.00597-1.38067zm.23034-16.95234c.02301.04316.03339.08039.06098.12562.29174.50238 1.17675 1.2127 2.37097 1.99536-1.95362-.29181-5.00946-1.10273-7.97821-2.08008 1.36181-.08844 3.2038-.09973 5.54626-.0409zm-8.53467 1.62342c.20673.10138.39399.19354.61042.29956 3.64123 1.81811 10.45025 4.24823 16.65216 6.15545-1.38391.59974-2.71833 1.36493-3.81128 2.15314-7.08118-3.44458-12.42237-6.79687-13.4513-8.60815zm6.06812 12.90393c-.66852.38489-1.3349.78369-1.98242 1.19903-1.79016-.9638-3.72766-2.06585-5.73279-3.25256.79681.18787 1.55194.37415 2.25092.55756 2.08264.57379 3.89208 1.06988 5.46429 1.49597zm-14.78754-7.40448c-.13348.13135-.67065.1361-1.47009.05041-3.15265-2.04187-6.19073-4.104-8.81708-5.98846 7.04486 2.80151 11.25165 5.0365 10.28717 5.93805zm-40.58233-9.73224c1.06927-.12897 2.0266-.36401 2.68017-.68555.98548-.5387 2.65259-.99841 4.2677-1.28436.24536.30035.50293.61401.78058.95026.19238.22717.41986.47119.63428.70904-1.6054.38129-2.91382.90271-3.7409 1.51306-.52686.39643-.93958.7187-1.22614.97748-.66211-.41162-1.331-.8294-2.01197-1.2583-.4428-.29907-.9074-.6081-1.38372-.92163zm24.16296 12.95044c-.75537.2705-3.52362-.88709-7.6416-3.0841 1.78998.21563 3.63885.45452 5.51501.71111 1.70795 1.26123 2.62311 2.19513 2.12659 2.37299zm25.06537 52.04596.22211-.98334-.24567-.12854z"/><path class="st2" d="M151.8891 231.1363c1.00494-4.71601 2.47247-7.93855 5.1991-10.47865-.99366-.54644-1.91706-1.1427-2.75605-1.78363-3.10077 3.12946-4.27203 6.79425-4.18127 11.79578l.12482 5.89581.3747.05554 1.2387-5.48486zm10.70026-5.30927c-1.89624 2.48779-3.31842 5.75299-3.31842 7.46331 0 2.02137.7901 1.55487 3.00238-2.0213 1.58483-2.55175 4.21142-5.47467 6.1015-7.03424-1.24304-.16266-2.48072-.39343-3.69672-.6892-.7517.65759-1.47229 1.42211-2.08874 2.28143zm170.84668 25.33874h.00006c5.1314 2.18793 31.75372 8.79413 50.59033 14.22193 18.69012 5.38562 40.5089 11.57641 45.60907 12.33001.3662-.8891.89972-2.15686 1.65002-3.91327-9.40753-2.35626-46.48889-10.94098-61.37005-15.14856-11.46912-3.15985-27.22272-7.89874-33.76514-9.58972-1.32202.3877-2.65192.88263-3.98096 1.47534.36164.20746.78314.41742 1.26667.62427zm96.32543 26.57166c-.0379-.00525-.086-.0138-.12597-.01972-3.16583 7.68622 6.37146-13.37457.12597.01972zm4.13893-7.20331c-.03803-.0039-.0865-.01087-.1266-.01538-2.89123 7.79022 5.8932-13.5852.1266.01538zm-94.10108-22.27545c3.69018 1.03009 9.62518 2.44897 16.4856 4.05078l-2.10792-1.32514c-4.1015-2.63208-9.10223-3.52453-14.37768-2.72564zm33.6148 5.26062c-5.59185-1.3354-12.19702-3.00507-18.27642-4.53986.06176.07758.13134.15314.19128.23114l2.8006 3.529c9.49743 2.21075 20.46649 4.72192 29.6256 7.02288 18.86988 4.74048 40.89484 10.17828 46.01862 10.75629.33448-.90113.8227-2.1864 1.51026-3.96753-9.48548-2.03174-46.8487-9.3379-61.86994-13.03192zm-44.09332.46545c5.00794 2.44916 31.24243 10.4173 49.76447 16.80762 18.37817 6.34076 39.8377 13.6466 44.8908 14.6618.41303-.86902 1.01325-2.10754 1.85596-3.82287-9.2694-2.83747-45.84332-13.32001-60.48022-18.28815-12.62299-4.19012-30.50373-10.633-35.10468-11.8814-.03375-.00916-.06195-.01441-.09521-.02326l-2.84412 1.27331c.45429.3988 1.12067.8352 2.013 1.27295zm94.78003 31.49561c-.03754-.0072-.0852-.01825-.12476-.02619-3.5703 7.5127 7.07404-13.02807.12476.02619zm-78.95856-20.52948c9.4079 3.6167 20.57483 7.84411 29.78522 11.56512 18.01575 7.27838 39.05719 15.67938 44.04944 16.95343.45868-.84656 1.1239-2.05249 2.0567-3.7221-9.10571-3.31092-45.07196-15.66254-59.42456-21.37763-6.84033-2.6706-15.24335-6.10895-22.1612-8.90314 2.18036 1.63459 4.12903 3.51038 5.6944 5.48432zm73.95783 28.55108c-.03711-.0091-.08405-.02258-.12317-.03253-3.96503 7.31854 7.75732-12.64606.12317.03253zm-69.44293-20.58325c7.26147 3.07367 14.92016 6.32593 21.54486 9.27222 17.74652 7.89258 38.4771 17.01098 43.4212 18.45569.4884-.83033 1.19604-2.01264 2.1875-3.64917-8.98273-3.62159-44.48901-17.20075-58.63013-23.40522-3.24432-1.39746-6.84497-2.98565-10.46686-4.59478l1.94343 3.92126zm65.08807 27.76471c-.0368-.01038-.08331-.02551-.12201-.0368-4.22223 7.17798 8.20117-12.3719.122.0368zm-84.086-35.89361c4.63776 2.05285 10.78949 4.65533 17.37177 7.44067l-1.84388-1.78705c-3.89062-3.8451-9.35888-5.77655-15.52789-5.65363zm78.46234 44.213c-.0362-.01226-.08179-.02972-.11987-.04302-4.59815 6.95056 8.84796-11.93256.11987.04303z"/><path class="st2" d="M321.89221 266.12292c7.72052 4.27173 29.17017 14.2608 44.7295 22.17041 17.30242 8.79566 37.5197 18.96918 42.38 20.66645.53192-.80402 1.30151-1.94824 2.37866-3.53156-8.77783-4.07916-43.51318-19.46814-57.30493-26.39233-8.81128-4.34955-20.29407-10.31214-27.44696-13.87647-.76422.11945-1.53308.25776-2.31036.4364l-2.4259.5271z"/><path class="st1" d="M355.1377 248.97943c-4.1443-5.20544-12.3567-9.42657-19.85614-10.20141l-4.43842-.45789 5.05823-3.67883c7.12689-5.31043 15.13067-6.92926 21.98156-4.32404l5.675 2.09436-4.92268-4.06518c-5.11493-4.3603-14.20294-6.89197-21.81414-6.10364l-4.43836.45788 4.16925-4.63287c5.84943-6.65271 13.3371-9.8717 20.58856-8.72449l5.99286.88636-5.67498-2.96802c-5.92414-3.219-15.34797-3.8357-22.62635-1.50897l-4.24603 1.35601 3.09906-5.38293c4.3158-7.70483 10.95941-12.38477 18.29462-12.74854l6.04968-.35687-6.17822-1.74237c-6.47522-1.93652-15.8233-.61084-22.45093 3.15228l-3.8664 2.19635 1.89533-5.9007c2.59387-8.41857 8.10248-14.35455 15.20148-16.21062l5.8424-1.58747-6.41137-.44024c-6.74329-.57062-15.60706 2.6366-21.29401 7.67541l-3.31732 2.93951.60687-6.1585c.75733-8.7677 4.89172-15.69983 11.44367-18.96888l5.37909-2.7464-6.36457.87952c-6.71637.82166-14.70825 5.77326-19.20636 11.86511l-2.62378 3.55433-.70752-6.14875c-1.11108-8.72845 1.46686-16.35876 7.1847-20.89355l4.68054-3.78772-6.03974 2.16205c-6.3955 2.17767-13.16565 8.65588-16.27868 15.5351l-1.81562 4.01415-1.99194-5.87024c-2.93176-8.31085-2.021-16.30096 2.61371-21.9065l3.77869-4.66228-5.45081 3.34936c-5.7956 3.43866-11.0501 11.1601-12.64148 18.5257l-.92773 4.29754-3.18879-5.333c-4.62377-7.53223-5.42095-15.5312-2.07269-21.9643l2.71045-5.33288-4.62372 4.39062c-4.94262 4.55054-8.45025 13.18-8.45025 20.70929v4.39166l-4.24604-4.56427c-6.11248-6.4184-8.58276-14.08294-6.66754-21.05926l1.52265-5.77222-3.59436 5.24378c-3.87336 5.4594-5.48072 14.6173-3.88929 21.9848l.92676 4.2956-5.117-3.5965c-7.33716-5.029-11.37195-12.01899-10.97235-19.23554l.27002-5.95752-2.40851 5.86444c-2.63373 6.13397-2.271 15.41937.84002 22.29859l1.81562 4.01416-5.76569-2.47083c-8.23895-3.41803-13.66388-9.4295-14.79687-16.5686l-.99353-5.883-1.11603 6.22717c-1.28052 6.53803 1.0343 15.54883 5.53448 21.64069l2.62274 3.55237-6.16131-1.23737c-8.781-1.65802-15.35687-6.42718-17.97467-13.1809l-2.21521-5.55067.22424 6.32032c.12854 6.65863 4.29883 14.99682 9.98584 20.03467l3.31732 2.93957-6.28888.04999c-8.93951.17456-16.3803-3.14642-20.36724-9.21478l-3.33924-4.97706 1.5545 6.13501c1.5326 6.48707 7.37305 13.79084 14.00068 17.55597l3.86541 2.1963-.85308.18542-3.64191.79144-1.64539.3576c-.11499.02643-.22827.04493-.34301.07001-3.31818.72608-6.52399.90753-9.5066.5666-4.72338-.53992-8.88519-2.38569-12.0194-5.48322l-.14039-.13605-3.62658-3.5149-.55084-.53387.25817.52094 2.5589 5.16308c1.36042 2.85889 3.71314 5.6941 6.58002 8.13874 3.18097 2.71246 6.99652 4.94299 10.8247 6.1668l4.2461 1.35798-2.69134 1.20446-2.70276 1.2096-.33075.14801c-1.37433.63477-2.75025 1.15106-4.11865 1.56647-6.69141 2.03137-13.1905 1.44397-18.29743-1.8341l-5.10803-3.21021 3.55853 4.48211.39758.5008c1.09675 1.42742 2.50904 2.78002 4.12543 4.01635 1.1338.8672 2.36933 1.67383 3.67737 2.40528 3.76727 2.10669 8.11298 3.5846 12.24457 4.01196l4.43939.45984-1.37805 1.0017-3.68018 2.67518c-.18945.14117-.3819.2691-.5725.40509-.63355.45178-1.27222.8794-1.91718 1.273-.98499.60102-1.9806 1.13954-2.98401 1.6026-3.0066 1.38752-6.0722 2.13825-9.06543 2.2408-1.78125.06097-3.53528-.11036-5.23609-.52387-.74621-.18146-1.48437-.3988-2.20733-.67359l-5.67505-2.09338 4.92267 4.0642c.24188.20625.50073.40437.75976.6023.839.64093 1.7624 1.23719 2.75605 1.78363 2.2586 1.242 4.86303 2.22474 7.5899 2.88794 1.216.29578 2.45368.52655 3.69672.68921 2.37243.31043 4.75683.37482 7.01178.14154l4.43933-.45794-4.17029 4.63092c-5.84943 6.65472-13.33704 9.87176-20.5885 8.7265l-4.41675-.65466-.3747-.05555-1.20141-.1781 1.21106.6338.24567.12853 4.21826 2.20758c5.92517 3.21997 15.34894 3.83576 22.62732 1.50904l4.2461-1.35706-3.1001 5.38495c-4.3158 7.7038-10.95942 12.38476-18.29462 12.74658l-6.04969.3559 6.17823 1.74432c6.47522 1.93652 15.8233.61084 22.45099-3.15332l3.86639-2.19727-1.89435 5.90064c-2.59387 8.4206-8.10248 14.35754-15.20148 16.21265l-5.84246 1.58746 6.41143.44122c6.74329.56873 15.60706-2.63952 21.29401-7.67834l3.31732-2.93952-.60687 6.1615c-.75732 8.76471-4.89172 15.69885-11.44367 18.96588l-5.37908 2.74836 6.36462-.87854c6.7163-.82166 14.70819-5.77619 19.20636-11.86805l2.62372-3.55236.7085 6.14971c1.11108 8.72846-1.46778 16.35584-7.18568 20.89258l-4.68151 3.78772 6.03973-2.16198c6.3955-2.17676 13.16669-8.6579 16.27966-15.53614l1.81464-4.0122 1.992 5.8673c2.93164 8.31373 2.02088 16.3009-2.61377 21.9084l-3.77868 4.66332 5.4508-3.35138c5.7956-3.43768 11.05005-11.16107 12.64148-18.52667l.92774-4.29553 3.18878 5.33392c4.62372 7.53027 5.4209 15.53119 2.0727 21.96326l-2.71046 5.33398 4.62372-4.39367c4.94257-4.54755 8.45026-13.17695 8.45026-20.70728v-4.39264l4.24603 4.56525c6.11249 6.41937 8.58276 14.083 6.66852 21.05926l-1.52466 5.77222 3.59436-5.24371c3.87335-5.46143 5.48071-14.61738 3.89026-21.98395l-.92774-4.29553h.00098l5.11798 3.5965c7.33716 5.02898 11.37189 12.01904 10.97235 19.2326l-.27105 5.95752 2.4085-5.86145c2.6347-6.13404 2.27198-15.42237-.84002-22.30158l-1.81561-4.01123 5.76568 2.46991c8.23901 3.419 13.66388 9.4295 14.79694 16.56952l.99347 5.88306 1.11706-6.22821c1.28052-6.53992-1.03534-15.54786-5.53448-21.63971l-2.62372-3.55432 6.1623 1.23645c8.78106 1.659 15.35692 6.42913 17.97466 13.18188l2.21521 5.55164-.22424-6.32135c-.12854-6.65863-4.29883-14.99683-9.98584-20.03565l-3.31732-2.93951 6.28888-.05005c8.93951-.17352 16.3803 3.14648 20.36724 9.21777l3.33826 4.97504-1.55353-6.13599c-1.53259-6.48407-7.37298-13.78784-14.00067-17.55298l-3.8664-2.19732 3.71546-.80732 2.4259-.5271c.77729-.17864 1.54615-.31695 2.31037-.4364 1.36896-.21399 2.71698-.34344 4.03076-.36962 6.169-.12293 11.63727 1.80853 15.5279 5.65362l1.84387 1.78705 2.47296 2.39679-.8468-1.70856-1.94342-3.92126-.02686-.0542c-.64172-1.34882-1.5127-2.69116-2.54462-3.99237-1.56537-1.97394-3.51403-3.84973-5.6944-5.48432-2.80792-2.10504-5.98412-3.81402-9.16473-4.8308l-4.24603-1.35505 1.2707-.5689 2.8441-1.27332 1.61005-.72083c.13575-.06268.2716-.1156.40741-.17615 1.32904-.5927 2.65894-1.08764 3.98096-1.47534a27.68902 27.68902 0 0 1 3.64899-.8075c5.27545-.79888 10.27618.09357 14.37768 2.72565l2.10791 1.32514 3.00012 1.88605-1.15545-1.45594-2.8006-3.52899c-.05994-.078-.12952-.15356-.19128-.23114z"/></svg>