<?xml version="1.0" encoding="UTF-8" standalone="no"?>
<svg
   xmlns:dc="http://purl.org/dc/elements/1.1/"
   xmlns:cc="http://creativecommons.org/ns#"
   xmlns:rdf="http://www.w3.org/1999/02/22-rdf-syntax-ns#"
   xmlns:svg="http://www.w3.org/2000/svg"
   xmlns="http://www.w3.org/2000/svg"
   xmlns:sodipodi="http://sodipodi.sourceforge.net/DTD/sodipodi-0.dtd"
   xmlns:inkscape="http://www.inkscape.org/namespaces/inkscape"
   version="1.1"
   id="Layer_1"
   x="0px"
   y="0px"
   viewBox="0 0 512 335.45001"
   xml:space="preserve"
   sodipodi:docname="gq.svg"
   width="512"
   height="335.45001"
   inkscape:version="1.0.1 (c497b03c, 2020-09-10)"><metadata
   id="metadata75"><rdf:RDF><cc:Work
       rdf:about=""><dc:format>image/svg+xml</dc:format><dc:type
         rdf:resource="http://purl.org/dc/dcmitype/StillImage" /><dc:title></dc:title></cc:Work></rdf:RDF></metadata><defs
   id="defs73" /><sodipodi:namedview
   pagecolor="#ffffff"
   bordercolor="#666666"
   borderopacity="1"
   objecttolerance="10"
   gridtolerance="10"
   guidetolerance="10"
   inkscape:pageopacity="0"
   inkscape:pageshadow="2"
   inkscape:window-width="2560"
   inkscape:window-height="984"
   id="namedview71"
   showgrid="false"
   inkscape:zoom="1.640625"
   inkscape:cx="256"
   inkscape:cy="256"
   inkscape:window-x="0"
   inkscape:window-y="23"
   inkscape:window-maximized="1"
   inkscape:current-layer="Layer_1" />
<path
   style="fill:#73af00"
   d="M 473.655,0 H 38.345 C 17.167,0 0,17.167 0,38.345 v 73.471 H 512 V 38.345 C 512,17.167 494.833,0 473.655,0 Z"
   id="path10" />
<path
   style="fill:#ff4b55"
   d="m 0,297.103 c 0,21.177 17.167,38.345 38.345,38.345 h 435.31 c 21.177,0 38.345,-17.167 38.345,-38.345 V 223.632 H 0 Z"
   id="path12" />
<rect
   y="111.814"
   style="fill:#f5f5f5"
   width="512"
   height="111.81"
   id="rect14"
   x="0" />
<path
   style="fill:#4173cd"
   d="m 128.095,173.194 c 2.532,-3.207 2.532,-7.733 0,-10.94 L 9.939,12.588 C 3.764,19.395 0,28.43 0,38.345 v 258.759 c 0,9.914 3.764,18.95 9.939,25.757 z"
   id="path16" />
<path
   style="fill:#b46446"
   d="m 253.881,175.62 c 0,0.216 -0.071,20.968 -5.378,31.177 h 14.913 c -5.308,-10.208 -5.378,-30.961 -5.378,-31.177 0,-7.15 7.411,-12.832 7.486,-12.888 l -2.497,-3.322 c -0.194,0.146 -2.664,2.039 -4.988,5.114 v -5.53 h -4.157 v 5.53 c -2.324,-3.075 -4.793,-4.969 -4.988,-5.114 l -2.497,3.322 c 0.075,0.056 7.484,5.737 7.484,12.888 z"
   id="path18" />
<path
   style="fill:#73af00"
   d="m 276.745,150.679 c -0.127,0 -0.244,0.033 -0.37,0.041 -0.847,-2.438 -3.14,-4.198 -5.866,-4.198 -0.983,0 -1.9,0.248 -2.727,0.653 -0.881,-1.619 -2.575,-2.731 -4.547,-2.731 -0.567,0 -1.102,0.114 -1.613,0.281 -1.106,-2.609 -3.689,-4.438 -6.7,-4.438 -3.701,0 -6.722,2.774 -7.181,6.349 -0.372,-0.058 -0.745,-0.114 -1.132,-0.114 -4.018,0 -7.275,3.257 -7.275,7.275 0,0.472 0.053,0.931 0.139,1.378 -1.841,0.606 -3.289,2.029 -3.925,3.855 -0.124,-0.011 -0.244,-0.038 -0.371,-0.038 -2.296,0 -4.157,1.862 -4.157,4.157 0,2.296 1.862,4.157 4.157,4.157 1.06,0 2.018,-0.409 2.752,-1.064 0.994,0.671 2.193,1.064 3.484,1.064 1.142,0 2.197,-0.329 3.117,-0.865 0.92,0.535 1.976,0.865 3.117,0.865 3.444,0 6.236,-2.792 6.236,-6.236 0,-0.264 -0.046,-0.514 -0.077,-0.769 0.968,0.477 2.042,0.769 3.196,0.769 1.446,0 2.784,-0.434 3.916,-1.161 1.063,1.922 3.085,3.239 5.437,3.239 0.505,0 0.991,-0.076 1.461,-0.19 1.144,1.375 2.846,2.269 4.774,2.269 1.863,0 3.517,-0.833 4.659,-2.129 3.204,-0.259 5.734,-2.913 5.734,-6.185 -0.003,-3.442 -2.794,-6.234 -6.238,-6.234 z"
   id="path20" />
<path
   style="fill:#5fa000"
   d="m 270.509,155.875 c 0,-0.216 0.045,-0.42 0.064,-0.631 -1.112,1.028 -2.586,1.671 -4.221,1.671 -2.172,0 -4.079,-1.112 -5.196,-2.796 -1.117,1.684 -3.025,2.796 -5.196,2.796 -1.67,0 -3.177,-0.665 -4.297,-1.734 -0.648,3.354 -3.592,5.89 -7.135,5.89 -0.36,0 -0.704,-0.055 -1.049,-0.106 10e-4,0.036 0.011,0.07 0.011,0.106 0,2.718 -1.749,5.005 -4.175,5.859 0.657,0.235 1.358,0.376 2.097,0.376 1.142,0 2.197,-0.329 3.117,-0.865 0.92,0.535 1.976,0.865 3.117,0.865 3.444,0 6.236,-2.792 6.236,-6.236 0,-0.264 -0.046,-0.514 -0.077,-0.769 0.968,0.477 2.042,0.769 3.196,0.769 1.446,0 2.784,-0.434 3.916,-1.161 1.063,1.922 3.085,3.239 5.437,3.239 0.505,0 0.991,-0.076 1.461,-0.19 1.144,1.375 2.846,2.269 4.773,2.269 1.863,0 3.517,-0.833 4.659,-2.129 l 0.013,-0.002 c -3.769,-0.272 -6.751,-3.383 -6.751,-7.221 z"
   id="path22" />
<path
   style="fill:#464655"
   d="m 255.96,220.045 c -0.334,0 -0.63,-0.213 -0.739,-0.527 -0.079,-0.234 -2.036,-5.706 -9.653,-5.706 h -10.392 c -6.161,0 -11.171,-5.012 -11.171,-11.171 v -68.588 c 0,-0.43 0.349,-0.779 0.779,-0.779 h 64.431 c 0.43,0 0.779,0.349 0.779,0.779 v 68.588 c 0,6.161 -5.012,11.171 -11.171,11.171 h -12.471 c -7.663,0 -9.634,5.644 -9.652,5.702 -0.107,0.319 -0.403,0.532 -0.738,0.532 H 255.96 Z M 225.562,134.83 v 67.809 c 0,5.3 4.312,9.613 9.613,9.613 h 10.392 c 6.169,0 9.155,3.313 10.392,5.303 1.237,-1.992 4.223,-5.303 10.392,-5.303 h 12.471 c 5.301,0 9.613,-4.313 9.613,-9.613 V 134.83 Z"
   id="path24" />
<g
   id="g38"
   transform="translate(0,-88.276)">
	<polygon
   style="fill:#ffe15a"
   points="253.684,207.085 251.933,210.376 253.684,213.667 249.959,213.796 247.983,216.958 246.009,213.796 242.284,213.667 244.034,210.376 242.284,207.085 246.009,206.956 247.983,203.795 249.959,206.956 "
   id="polygon26" />
	<polygon
   style="fill:#ffe15a"
   points="236.736,208.53 235.802,212.138 238.273,214.93 234.681,215.925 233.5,219.46 230.841,216.847 227.189,217.592 228.122,213.983 225.652,211.192 229.244,210.197 230.425,206.662 233.084,209.274 "
   id="polygon28" />
	<polygon
   style="fill:#ffe15a"
   points="220.143,212.109 220.011,215.834 223.026,218.026 219.734,219.774 219.343,223.481 216.183,221.504 212.778,223.019 212.91,219.294 209.895,217.102 213.187,215.354 213.578,211.647 216.738,213.625 "
   id="polygon30" />
	<polygon
   style="fill:#ffe15a"
   points="258.316,207.085 260.067,210.376 258.316,213.667 262.041,213.796 264.017,216.958 265.991,213.796 269.716,213.667 267.966,210.376 269.716,207.085 265.991,206.956 264.017,203.795 262.041,206.956 "
   id="polygon32" />
	<polygon
   style="fill:#ffe15a"
   points="275.264,208.53 276.198,212.138 273.727,214.93 277.319,215.925 278.5,219.46 281.159,216.847 284.811,217.592 283.878,213.983 286.348,211.192 282.756,210.197 281.575,206.662 278.916,209.274 "
   id="polygon34" />
	<polygon
   style="fill:#ffe15a"
   points="291.857,212.109 291.989,215.834 288.974,218.026 292.266,219.774 292.657,223.481 295.817,221.504 299.222,223.019 299.09,219.294 302.105,217.102 298.813,215.354 298.422,211.647 295.262,213.625 "
   id="polygon36" />
</g>
<g
   id="g40">
</g>
<g
   id="g42">
</g>
<g
   id="g44">
</g>
<g
   id="g46">
</g>
<g
   id="g48">
</g>
<g
   id="g50">
</g>
<g
   id="g52">
</g>
<g
   id="g54">
</g>
<g
   id="g56">
</g>
<g
   id="g58">
</g>
<g
   id="g60">
</g>
<g
   id="g62">
</g>
<g
   id="g64">
</g>
<g
   id="g66">
</g>
<g
   id="g68">
</g>
</svg>
