<svg xmlns="http://www.w3.org/2000/svg" xml:space="preserve" width="512" height="335.45001"><path d="M512.09998 35.97309v263.55383c0 19.86758-16.3898 35.97308-36.60575 35.97308H36.60573C16.38877 335.49896 0 319.39346 0 299.52588V35.97308C0 16.10452 16.3898 0 36.60574 0h438.88848c20.21595 0 36.60576 16.1045 36.60576 35.97309z" style="fill:#ed1f34"/><path d="M303.6112 174.9567c-1.00875 1.87391-1.9234 3.77018-2.7585 5.6776-8.96903-5.81066-20.61076-13.35508-30.4242-19.7142l-5.24933-61.5325c-.49402-5.78222-5.46118-10.28876-11.45674-10.21665l-77.59986 2.82763c12.86649 15.92879 34.65131 26.00832 58.99004 25.12063 2.157-.0782 4.28503-.24783 6.3831-.49057-.6377 10.53963-1.46348 24.21871-2.16112 35.74964l-51.60026 35.23366c-4.84934 3.31111-6.33763 9.7921-3.2763 14.8593l41.29076 64.62828c7.6037-18.91286 5.59452-42.49373-7.3567-62.76552-1.14722-1.79572-2.3606-3.52135-3.6246-5.18704 9.60566-4.72693 22.07423-10.86365 32.58528-16.03543l56.8506 26.2988c5.3413 2.47013 11.79782.49668 14.73306-4.64264l36.30911-67.4559c-20.47119 2.9861-40.2448 16.48643-51.63433 37.6449z" style="fill:#f5f5f5"/></svg>