<?xml version="1.0" encoding="UTF-8" standalone="no"?>
<svg
   xmlns:dc="http://purl.org/dc/elements/1.1/"
   xmlns:cc="http://creativecommons.org/ns#"
   xmlns:rdf="http://www.w3.org/1999/02/22-rdf-syntax-ns#"
   xmlns:svg="http://www.w3.org/2000/svg"
   xmlns="http://www.w3.org/2000/svg"
   xmlns:sodipodi="http://sodipodi.sourceforge.net/DTD/sodipodi-0.dtd"
   xmlns:inkscape="http://www.inkscape.org/namespaces/inkscape"
   version="1.1"
   id="Layer_1"
   x="0px"
   y="0px"
   viewBox="0 0 512 335.45001"
   xml:space="preserve"
   sodipodi:docname="in.svg"
   width="512"
   height="335.45001"
   inkscape:version="1.0.1 (c497b03c, 2020-09-10)"><metadata
   id="metadata93"><rdf:RDF><cc:Work
       rdf:about=""><dc:format>image/svg+xml</dc:format><dc:type
         rdf:resource="http://purl.org/dc/dcmitype/StillImage" /><dc:title></dc:title></cc:Work></rdf:RDF></metadata><defs
   id="defs91" /><sodipodi:namedview
   pagecolor="#ffffff"
   bordercolor="#666666"
   borderopacity="1"
   objecttolerance="10"
   gridtolerance="10"
   guidetolerance="10"
   inkscape:pageopacity="0"
   inkscape:pageshadow="2"
   inkscape:window-width="1270"
   inkscape:window-height="785"
   id="namedview89"
   showgrid="false"
   inkscape:zoom="1.640625"
   inkscape:cx="256"
   inkscape:cy="256"
   inkscape:window-x="0"
   inkscape:window-y="23"
   inkscape:window-maximized="0"
   inkscape:current-layer="Layer_1" />
<path
   style="fill:#fab446"
   d="M 473.655,0 H 38.345 C 17.167,0 0,17.167 0,38.345 v 73.471 H 512 V 38.345 C 512,17.167 494.833,0 473.655,0 Z"
   id="path10" />
<path
   style="fill:#73af00"
   d="m 0,297.103 c 0,21.177 17.167,38.345 38.345,38.345 h 435.31 c 21.177,0 38.345,-17.167 38.345,-38.345 V 223.632 H 0 Z"
   id="path12" />
<rect
   y="111.814"
   style="fill:#f5f5f5"
   width="512"
   height="111.81"
   id="rect14"
   x="0" />
<g
   id="g52"
   transform="translate(0,-88.276)">
	<path
   style="fill:#41479b"
   d="m 256,303.448 c -26.164,0 -47.448,-21.284 -47.448,-47.448 0,-26.164 21.284,-47.448 47.448,-47.448 26.164,0 47.448,21.284 47.448,47.448 0,26.164 -21.284,47.448 -47.448,47.448 z m 0,-86.069 c -21.298,0 -38.621,17.323 -38.621,38.621 0,21.298 17.323,38.621 38.621,38.621 21.298,0 38.621,-17.323 38.621,-38.621 0,-21.298 -17.323,-38.621 -38.621,-38.621 z"
   id="path16" />
	<circle
   style="fill:#41479b"
   cx="256"
   cy="256"
   r="5.3790002"
   id="circle18" />
	<polygon
   style="fill:#41479b"
   points="212.966,256.807 212.966,255.193 242.33,253.813 256,255.193 256,256.807 242.33,258.187 "
   id="polygon20" />
	<polygon
   style="fill:#41479b"
   points="299.034,256.807 299.034,255.193 269.67,253.813 256,255.193 256,256.807 269.67,258.187 "
   id="polygon22" />
	<polygon
   style="fill:#41479b"
   points="255.193,212.966 256.807,212.966 258.187,242.33 256.807,256 255.193,256 253.813,242.33 "
   id="polygon24" />
	<polygon
   style="fill:#41479b"
   points="255.193,299.034 256.807,299.034 258.187,269.67 256.807,256 255.193,256 253.813,269.67 "
   id="polygon26" />
	<polygon
   style="fill:#41479b"
   points="225,226.141 226.141,225 247.881,244.788 256.57,255.43 255.43,256.57 244.788,247.881 "
   id="polygon28" />
	<polygon
   style="fill:#41479b"
   points="285.859,287 287,285.859 267.212,264.119 256.57,255.43 255.43,256.57 264.119,267.212 "
   id="polygon30" />
	<polygon
   style="fill:#41479b"
   points="285.859,225 287,226.141 267.212,247.881 256.57,256.57 255.43,255.43 264.119,244.788 "
   id="polygon32" />
	<polygon
   style="fill:#41479b"
   points="225,285.859 226.141,287 247.881,267.212 256.57,256.57 255.43,255.43 244.788,264.119 "
   id="polygon34" />
	<polygon
   style="fill:#41479b"
   points="216.551,273.214 215.933,271.723 242.534,259.211 255.691,255.254 256.309,256.746 244.207,263.252 "
   id="polygon36" />
	<polygon
   style="fill:#41479b"
   points="296.067,240.277 295.449,238.786 267.793,248.748 255.691,255.254 256.309,256.746 269.466,252.789 "
   id="polygon38" />
	<polygon
   style="fill:#41479b"
   points="238.786,216.551 240.277,215.933 252.789,242.534 256.746,255.691 255.254,256.309 248.748,244.207 "
   id="polygon40" />
	<polygon
   style="fill:#41479b"
   points="271.723,296.067 273.214,295.449 263.252,267.793 256.746,255.691 255.254,256.309 259.211,269.466 "
   id="polygon42" />
	<polygon
   style="fill:#41479b"
   points="215.933,240.277 216.551,238.786 244.207,248.748 256.309,255.254 255.691,256.746 242.534,252.789 "
   id="polygon44" />
	<polygon
   style="fill:#41479b"
   points="295.449,273.214 296.067,271.723 269.466,259.211 256.309,255.254 255.691,256.746 267.793,263.252 "
   id="polygon46" />
	<polygon
   style="fill:#41479b"
   points="271.723,215.933 273.214,216.551 263.252,244.207 256.746,256.309 255.254,255.691 259.211,242.534 "
   id="polygon48" />
	<polygon
   style="fill:#41479b"
   points="238.786,295.449 240.277,296.067 252.789,269.466 256.746,256.309 255.254,255.691 248.748,267.793 "
   id="polygon50" />
</g>
<circle
   style="fill:#f5f5f5"
   cx="256"
   cy="167.724"
   r="7.256"
   id="circle54" />
<circle
   style="fill:#41479b"
   cx="256"
   cy="167.724"
   r="4.3509998"
   id="circle56" />
<g
   id="g58">
</g>
<g
   id="g60">
</g>
<g
   id="g62">
</g>
<g
   id="g64">
</g>
<g
   id="g66">
</g>
<g
   id="g68">
</g>
<g
   id="g70">
</g>
<g
   id="g72">
</g>
<g
   id="g74">
</g>
<g
   id="g76">
</g>
<g
   id="g78">
</g>
<g
   id="g80">
</g>
<g
   id="g82">
</g>
<g
   id="g84">
</g>
<g
   id="g86">
</g>
</svg>
