<?xml version="1.0" encoding="UTF-8" standalone="no"?>
<svg
   xmlns:dc="http://purl.org/dc/elements/1.1/"
   xmlns:cc="http://creativecommons.org/ns#"
   xmlns:rdf="http://www.w3.org/1999/02/22-rdf-syntax-ns#"
   xmlns:svg="http://www.w3.org/2000/svg"
   xmlns="http://www.w3.org/2000/svg"
   xmlns:sodipodi="http://sodipodi.sourceforge.net/DTD/sodipodi-0.dtd"
   xmlns:inkscape="http://www.inkscape.org/namespaces/inkscape"
   version="1.1"
   id="Layer_1"
   x="0px"
   y="0px"
   viewBox="0 0 512 335.45001"
   xml:space="preserve"
   sodipodi:docname="iq.svg"
   width="512"
   height="335.45001"
   inkscape:version="1.0.1 (c497b03c, 2020-09-10)"><metadata
   id="metadata67"><rdf:RDF><cc:Work
       rdf:about=""><dc:format>image/svg+xml</dc:format><dc:type
         rdf:resource="http://purl.org/dc/dcmitype/StillImage" /><dc:title></dc:title></cc:Work></rdf:RDF></metadata><defs
   id="defs65" /><sodipodi:namedview
   pagecolor="#ffffff"
   bordercolor="#666666"
   borderopacity="1"
   objecttolerance="10"
   gridtolerance="10"
   guidetolerance="10"
   inkscape:pageopacity="0"
   inkscape:pageshadow="2"
   inkscape:window-width="1475"
   inkscape:window-height="906"
   id="namedview63"
   showgrid="false"
   inkscape:zoom="1.640625"
   inkscape:cx="256"
   inkscape:cy="256"
   inkscape:window-x="0"
   inkscape:window-y="23"
   inkscape:window-maximized="0"
   inkscape:current-layer="Layer_1" />
<path
   style="fill:#ff4b55"
   d="M 473.655,0 H 38.345 C 17.167,0 0,17.167 0,38.345 v 73.471 H 512 V 38.345 C 512,17.167 494.833,0 473.655,0 Z"
   id="path10" />
<path
   style="fill:#464655"
   d="m 0,297.103 c 0,21.177 17.167,38.345 38.345,38.345 h 435.31 c 21.177,0 38.345,-17.167 38.345,-38.345 V 223.632 H 0 Z"
   id="path12" />
<rect
   y="111.814"
   style="fill:#f5f5f5"
   width="512"
   height="111.81"
   id="rect14"
   x="0" />
<g
   id="g30"
   transform="translate(0,-88.276)">
	<path
   style="fill:#73af00"
   d="m 308.065,233.525 c -0.928,-0.483 -2.027,-2.211 -1.684,-2.967 0.361,-0.793 -0.201,-0.725 1.696,-0.161 3.43,0.888 5.65,0.483 7.829,-1.372 l 1.937,-1.533 2.261,1.13 c 1.25,0.564 2.541,0.967 2.905,0.886 1.049,-0.242 3.069,-2.825 3.027,-3.713 -0.041,-1.208 0.847,-0.886 1.291,0.405 0.928,2.422 -0.779,6.599 -3.121,7.164 -1.128,0.322 -2.178,0.242 -3.955,-0.322 -2.098,-0.808 -2.422,-0.808 -3.55,0 -2.34,1.856 -5.69,2.019 -8.636,0.483"
   id="path16" />
	<path
   style="fill:#73af00"
   d="m 316.9,224.182 c -1.132,-1.587 -2.493,-7.14 -2.095,-8.499 0.395,-1.248 0.792,-1.474 1.869,-1.134 1.927,0.679 2.382,1.927 2.153,6.462 -0.34,3.397 -0.792,4.532 -1.927,3.171"
   id="path18" />
	<path
   style="fill:#73af00"
   d="m 241.005,248.73 c -4.651,2.646 -11.569,3.101 -11.569,10.434 -10.13,0.377 -22.076,0.831 -32.85,0.604 2.92,-3.772 21.401,-20.853 29.086,-27.623 1.272,-1.12 1.704,-3.288 0.964,-4.813 l -0.199,-0.41 c -1.108,-2.285 -4.122,-2.829 -5.958,-1.074 -7.658,7.326 -15.247,14.152 -16.483,15.322 -9.916,10.02 -12.822,12.94 -14.38,14.508 -1.109,1.117 -1.726,2.627 -1.718,4.2 l 0.001,0.103 c 0.017,3.27 2.673,5.911 5.942,5.911 h 43.381 c 2.457,0 -0.565,-8.543 2.609,-8.543 2.207,0 2.41,3.065 2.313,6.312 -0.074,2.47 -2.109,4.424 -4.579,4.427 -18.755,0.026 -38.279,0.205 -56.651,0.222 -1.517,10e-4 -2.735,-1.23 -2.735,-2.748 v -3.305 c 0,-2.802 -3.112,-4.431 -5.454,-2.893 -0.086,0.056 -0.17,0.11 -0.254,0.162 -1.224,0.765 -1.85,2.263 -1.372,3.624 0.31,0.884 0.445,1.96 0.474,3.085 0.04,1.487 -1.171,2.713 -2.658,2.759 -6.076,0.186 -12.679,0.241 -14.554,-3.342 -1.058,-2.02 -3.309,-2.975 -5.35,-1.954 l -0.271,0.136 c -2.148,1.074 -3.009,3.731 -1.832,5.824 2.238,3.979 4.28,8.595 3.22,15.06 -0.864,2.038 -2.492,3.313 -4.256,4.461 -1.96,1.276 -0.73,4.262 1.569,3.837 5.574,-1.03 9.415,-5.442 10.589,-10.642 h 86.42 c 3.169,0 5.739,-2.57 5.739,-5.739 V 257.88 c -0.792,-5.595 -6.804,-5.369 -9.184,-9.15 z"
   id="path20" />
	<path
   style="fill:#73af00"
   d="m 350.62,223.947 c 1.275,0.82 2.552,1.641 3.975,2.319 1.556,0.743 2.151,2.643 1.241,4.107 -0.241,0.387 -0.441,0.82 -0.556,1.346 v 37.197 c 2.542,0.527 4.001,0.028 5.16,-0.771 1.308,-0.902 3.076,-0.246 3.489,1.288 0.877,3.263 2.313,6.45 3.079,9.352 0.479,1.814 -0.883,3.588 -2.759,3.588 h -14.572 c -1.29,0 -2.336,-1.046 -2.336,-2.336 v -54.3 c -0.002,-1.682 1.863,-2.701 3.279,-1.79 z"
   id="path22" />
	<path
   style="fill:#73af00"
   d="m 332.975,233.005 c 0.011,10.272 0.131,21.335 0.148,32.345 0.002,1.427 -1.155,2.583 -2.582,2.583 h -0.167 c -1.425,0 -2.58,-1.155 -2.58,-2.58 v -26.09 c 0,-1.42 -1.669,-2.179 -2.737,-1.245 l -3.42,2.955 c -0.698,0.604 -1.102,1.473 -1.105,2.397 -0.011,4.244 -0.049,16.6 -0.064,21.994 -0.004,1.421 -1.158,2.569 -2.58,2.569 h -0.234 c -1.418,0 -2.57,-1.139 -2.58,-2.557 -0.025,-3.591 -0.069,-10.246 -0.087,-15.238 -0.006,-1.436 -1.704,-2.186 -2.784,-1.24 -3.543,3.105 -4.361,3.808 -6.22,5.728 0.151,0.983 0.908,0 1.361,0.755 v 4.991 c -12.908,-2.43 -13.871,7.882 -13.388,18.946 0.073,1.663 1.438,2.978 3.102,2.978 h 40.526 c 1.503,0 2.721,-1.218 2.721,-2.721 v -50.381 c 0,-1.683 -1.997,-2.547 -3.239,-1.41 -0.99,0.906 -2.047,1.813 -2.955,2.634 -0.728,0.665 -1.137,1.599 -1.136,2.587 z m -29.825,34.551 c -0.793,-2.268 3.668,-3.101 4.196,-1.058 0.189,2.495 -3.212,2.57 -4.196,1.058 z"
   id="path24" />
	<path
   style="fill:#73af00"
   d="m 169.295,286.38 c 1.55,0 2.797,1.286 2.797,2.796 0,1.589 -1.247,2.798 -2.797,2.798 -1.587,0 -2.874,-1.209 -2.874,-2.798 0.001,-1.51 1.288,-2.796 2.874,-2.796"
   id="path26" />
	<path
   style="fill:#73af00"
   d="m 261.44,225.087 c 0.757,0.455 1.535,0.89 2.364,1.281 1.496,0.707 2.086,2.566 1.171,3.945 -0.275,0.415 -0.51,0.886 -0.648,1.482 v 37.121 c 2.694,0.599 4.167,0.012 5.342,-0.857 1.17,-0.865 2.854,-0.267 3.229,1.138 0.672,2.52 1.685,5.012 2.466,7.378 0.956,2.893 -1.19,5.874 -4.237,5.874 H 259.76 c -1.841,0 -3.333,-1.492 -3.333,-3.334 v -51.153 c 0,-2.572 2.807,-4.2 5.013,-2.875 z"
   id="path28" />
</g>
<g
   id="g32">
</g>
<g
   id="g34">
</g>
<g
   id="g36">
</g>
<g
   id="g38">
</g>
<g
   id="g40">
</g>
<g
   id="g42">
</g>
<g
   id="g44">
</g>
<g
   id="g46">
</g>
<g
   id="g48">
</g>
<g
   id="g50">
</g>
<g
   id="g52">
</g>
<g
   id="g54">
</g>
<g
   id="g56">
</g>
<g
   id="g58">
</g>
<g
   id="g60">
</g>
</svg>
