<?xml version="1.0" encoding="UTF-8" standalone="no"?>
<svg
   xmlns:dc="http://purl.org/dc/elements/1.1/"
   xmlns:cc="http://creativecommons.org/ns#"
   xmlns:rdf="http://www.w3.org/1999/02/22-rdf-syntax-ns#"
   xmlns:svg="http://www.w3.org/2000/svg"
   xmlns="http://www.w3.org/2000/svg"
   xmlns:sodipodi="http://sodipodi.sourceforge.net/DTD/sodipodi-0.dtd"
   xmlns:inkscape="http://www.inkscape.org/namespaces/inkscape"
   version="1.1"
   id="Layer_1"
   x="0px"
   y="0px"
   viewBox="0 0 512.001 335.45003"
   xml:space="preserve"
   sodipodi:docname="ir.svg"
   width="512.00098"
   height="335.45001"
   inkscape:version="1.0.1 (c497b03c, 2020-09-10)"><metadata
   id="metadata135"><rdf:RDF><cc:Work
       rdf:about=""><dc:format>image/svg+xml</dc:format><dc:type
         rdf:resource="http://purl.org/dc/dcmitype/StillImage" /><dc:title></dc:title></cc:Work></rdf:RDF></metadata><defs
   id="defs133" /><sodipodi:namedview
   pagecolor="#ffffff"
   bordercolor="#666666"
   borderopacity="1"
   objecttolerance="10"
   gridtolerance="10"
   guidetolerance="10"
   inkscape:pageopacity="0"
   inkscape:pageshadow="2"
   inkscape:window-width="1254"
   inkscape:window-height="821"
   id="namedview131"
   showgrid="false"
   inkscape:zoom="1.6406218"
   inkscape:cx="256.0005"
   inkscape:cy="256.0005"
   inkscape:window-x="0"
   inkscape:window-y="23"
   inkscape:window-maximized="0"
   inkscape:current-layer="Layer_1" />
<path
   style="fill:#73af00"
   d="M 473.655,0 H 38.345 C 17.167,0 0,17.168 0,38.345 v 73.471 H 512 V 38.345 C 512,17.168 494.833,0 473.655,0 Z"
   id="path10" />
<path
   style="fill:#ff4b55"
   d="m 0,297.104 c 0,21.177 17.167,38.345 38.345,38.345 h 435.31 c 21.177,0 38.345,-17.167 38.345,-38.345 V 223.633 H 0 Z"
   id="path12" />
<g
   id="g88"
   transform="translate(0,-88.276)">
	<rect
   y="200.089"
   style="fill:#f5f5f5"
   width="512"
   height="111.81"
   id="rect14"
   x="0" />
	<path
   style="fill:#f5f5f5"
   d="m 1.388,194.176 h 0.078 c 0.767,0 1.389,-0.621 1.389,-1.388 v -3.008 c 0,-0.767 0.621,-1.388 1.389,-1.388 h 5.827 c 0.767,0 1.389,0.621 1.389,1.388 v 3.008 c 0,0.767 0.621,1.388 1.389,1.388 h 11.502 c 0.767,0 1.388,-0.621 1.388,-1.388 v -5.939 c 0,-0.767 -0.621,-1.388 -1.388,-1.388 h -5.79 c -0.767,0 -1.388,0.621 -1.388,1.388 v 0.153 c 0,0.767 0.621,1.388 1.388,1.388 h 2.935 c 0.767,0 1.389,0.621 1.389,1.388 v 0.151 c 0,0.767 -0.621,1.388 -1.389,1.388 h -5.792 c -0.767,0 -1.389,-0.621 -1.389,-1.388 v -3.081 c 0,-0.767 -0.622,-1.388 -1.389,-1.388 H 1.388 C 0.621,185.46 0,186.081 0,186.848 v 5.939 c 0,0.766 0.621,1.389 1.388,1.389 z m 5.749,0 h 0.079 c 0.767,0 1.388,-0.621 1.388,-1.388 v -0.079 c 0,-0.767 -0.621,-1.388 -1.388,-1.388 H 7.137 c -0.767,0 -1.389,0.622 -1.389,1.388 v 0.079 c 0,0.765 0.622,1.388 1.389,1.388 z M 1.388,182.531 h 34.423 c 0.767,0 1.389,-0.621 1.389,-1.388 v -0.152 c 0,-0.767 -0.621,-1.388 -1.389,-1.388 H 1.388 C 0.621,179.603 0,180.224 0,180.991 v 0.152 c 0,0.767 0.621,1.388 1.388,1.388 z m 34.423,11.645 h -5.79 c -0.767,0 -1.389,-0.621 -1.389,-1.388 v -5.939 c 0,-0.767 0.621,-1.388 1.389,-1.388 h 8.647 c 0.767,0 1.389,-0.622 1.389,-1.388 v -3.081 c 0,-0.767 0.621,-1.388 1.388,-1.388 h 0.077 c 0.767,0 1.389,0.621 1.389,1.388 v 8.94 c 0,0.767 0.621,1.388 1.388,1.388 h 0.079 c 0.767,0 1.388,-0.621 1.388,-1.388 v -8.94 c 0,-0.767 0.621,-1.388 1.388,-1.388 h 0.077 c 0.767,0 1.389,0.621 1.389,1.388 v 8.94 c 0,0.767 0.621,1.388 1.388,1.388 h 0.115 c 0.767,0 1.389,-0.621 1.389,-1.388 v -8.94 c 0,-0.767 0.621,-1.388 1.388,-1.388 h 0.042 c 0.767,0 1.388,0.621 1.388,1.388 v 11.797 c 0,0.767 -0.621,1.388 -1.388,1.388 H 41.447 c -0.767,0 -1.388,-0.621 -1.388,-1.388 v -3.008 c 0,-0.767 -0.621,-1.388 -1.389,-1.388 h -5.79 c -0.767,0 -1.389,0.621 -1.389,1.388 v 0.151 c 0,0.767 0.621,1.388 1.389,1.388 h 2.933 c 0.767,0 1.389,0.622 1.389,1.388 v 0.079 c -10e-4,0.766 -0.624,1.389 -1.391,1.389 z"
   id="path16" />
	<path
   style="fill:#f5f5f5"
   d="m 58.618,194.176 h 0.115 c 0.767,0 1.389,-0.621 1.389,-1.388 v -3.008 c 0,-0.767 0.621,-1.388 1.388,-1.388 h 5.754 c 0.767,0 1.389,0.621 1.389,1.388 v 3.008 c 0,0.767 0.621,1.388 1.388,1.388 h 11.502 c 0.767,0 1.388,-0.621 1.388,-1.388 v -5.939 c 0,-0.767 -0.621,-1.388 -1.388,-1.388 h -5.79 c -0.767,0 -1.389,0.621 -1.389,1.388 v 0.153 c 0,0.767 0.621,1.388 1.389,1.388 h 2.935 c 0.767,0 1.388,0.621 1.388,1.388 v 0.151 c 0,0.767 -0.621,1.388 -1.388,1.388 h -5.792 c -0.767,0 -1.388,-0.621 -1.388,-1.388 v -3.081 c 0,-0.767 -0.621,-1.388 -1.388,-1.388 H 58.618 c -0.767,0 -1.388,0.621 -1.388,1.388 v 5.939 c 0,0.766 0.622,1.389 1.388,1.389 z m 5.713,0 h 0.078 c 0.767,0 1.388,-0.621 1.388,-1.388 v -0.079 c 0,-0.767 -0.621,-1.388 -1.388,-1.388 h -0.078 c -0.767,0 -1.388,0.622 -1.388,1.388 v 0.079 c 0,0.765 0.621,1.388 1.388,1.388 z m -5.713,-11.645 h 34.387 c 0.767,0 1.389,-0.621 1.389,-1.388 v -0.152 c 0,-0.767 -0.621,-1.388 -1.389,-1.388 H 58.618 c -0.767,0 -1.388,0.621 -1.388,1.388 v 0.152 c 0,0.767 0.622,1.388 1.388,1.388 z m 34.388,11.645 h -5.827 c -0.767,0 -1.389,-0.621 -1.389,-1.388 v -5.939 c 0,-0.767 0.621,-1.388 1.389,-1.388 h 8.648 c 0.767,0 1.388,-0.622 1.388,-1.388 v -3.081 c 0,-0.767 0.621,-1.388 1.389,-1.388 h 0.115 c 0.767,0 1.388,0.621 1.388,1.388 v 8.94 c 0,0.767 0.621,1.388 1.389,1.388 h 0.115 c 0.767,0 1.389,-0.621 1.389,-1.388 v -8.94 c 0,-0.767 0.621,-1.388 1.389,-1.388 h 0.042 c 0.767,0 1.388,0.621 1.388,1.388 v 8.94 c 0,0.767 0.621,1.388 1.389,1.388 h 0.115 c 0.767,0 1.389,-0.621 1.389,-1.388 v -8.94 c 0,-0.767 0.621,-1.388 1.388,-1.388 h 0.078 c 0.767,0 1.388,0.621 1.388,1.388 v 11.797 c 0,0.767 -0.621,1.388 -1.388,1.388 H 98.604 c -0.767,0 -1.389,-0.621 -1.389,-1.388 v -3.008 c 0,-0.767 -0.621,-1.388 -1.388,-1.388 h -5.754 c -0.767,0 -1.388,0.621 -1.388,1.388 v 0.151 c 0,0.767 0.621,1.388 1.388,1.388 h 2.935 c 0.767,0 1.389,0.622 1.389,1.388 v 0.079 c -0.003,0.766 -0.624,1.389 -1.391,1.389 z"
   id="path18" />
	<path
   style="fill:#f5f5f5"
   d="m 115.814,194.176 h 0.077 c 0.767,0 1.388,-0.621 1.388,-1.388 v -3.008 c 0,-0.767 0.621,-1.388 1.388,-1.388 h 5.792 c 0.767,0 1.388,0.621 1.388,1.388 v 3.008 c 0,0.767 0.622,1.388 1.389,1.388 h 11.538 c 0.767,0 1.389,-0.621 1.389,-1.388 v -5.939 c 0,-0.767 -0.621,-1.388 -1.389,-1.388 h -5.79 c -0.767,0 -1.389,0.621 -1.389,1.388 v 0.153 c 0,0.767 0.621,1.388 1.389,1.388 h 2.935 c 0.767,0 1.389,0.621 1.389,1.388 v 0.151 c 0,0.767 -0.621,1.388 -1.389,1.388 h -5.827 c -0.767,0 -1.388,-0.621 -1.388,-1.388 v -3.081 c 0,-0.767 -0.621,-1.388 -1.388,-1.388 h -11.502 c -0.767,0 -1.388,0.621 -1.388,1.388 v 5.939 c -0.002,0.766 0.621,1.389 1.388,1.389 z m 5.712,0 h 0.078 c 0.767,0 1.388,-0.621 1.388,-1.388 v -0.079 c 0,-0.767 -0.621,-1.388 -1.388,-1.388 h -0.078 c -0.767,0 -1.388,0.622 -1.388,1.388 v 0.079 c -0.001,0.765 0.621,1.388 1.388,1.388 z m -5.712,-11.645 h 34.424 c 0.767,0 1.389,-0.621 1.389,-1.388 v -0.152 c 0,-0.767 -0.621,-1.388 -1.389,-1.388 h -34.424 c -0.767,0 -1.388,0.621 -1.388,1.388 v 0.152 c -0.002,0.767 0.621,1.388 1.388,1.388 z m 34.424,11.645 h -5.827 c -0.767,0 -1.389,-0.621 -1.389,-1.388 v -5.939 c 0,-0.767 0.621,-1.388 1.389,-1.388 h 8.646 c 0.767,0 1.388,-0.622 1.388,-1.388 v -3.081 c 0,-0.767 0.622,-1.388 1.389,-1.388 h 0.079 c 0.767,0 1.388,0.621 1.388,1.388 v 8.94 c 0,0.767 0.622,1.388 1.389,1.388 h 0.115 c 0.767,0 1.389,-0.621 1.389,-1.388 v -8.94 c 0,-0.767 0.621,-1.388 1.388,-1.388 h 0.116 c 0.767,0 1.388,0.621 1.388,1.388 v 8.94 c 0,0.767 0.622,1.388 1.388,1.388 h 0.042 c 0.767,0 1.389,-0.621 1.389,-1.388 v -8.94 c 0,-0.767 0.621,-1.388 1.388,-1.388 h 0.078 c 0.767,0 1.388,0.621 1.388,1.388 v 11.797 c 0,0.767 -0.622,1.388 -1.388,1.388 h -11.54 c -0.767,0 -1.389,-0.621 -1.389,-1.388 v -3.008 c 0,-0.767 -0.621,-1.388 -1.388,-1.388 h -5.79 c -0.767,0 -1.389,0.621 -1.389,1.388 v 0.151 c 0,0.767 0.621,1.388 1.389,1.388 h 2.973 c 0.767,0 1.389,0.622 1.389,1.388 v 0.079 c 0.001,0.766 -0.621,1.389 -1.388,1.389 z"
   id="path20" />
	<path
   style="fill:#f5f5f5"
   d="m 173.007,194.176 h 0.077 c 0.767,0 1.388,-0.621 1.388,-1.388 v -3.008 c 0,-0.767 0.622,-1.388 1.388,-1.388 h 5.79 c 0.767,0 1.389,0.621 1.389,1.388 v 3.008 c 0,0.767 0.621,1.388 1.389,1.388 h 11.54 c 0.767,0 1.388,-0.621 1.388,-1.388 v -5.939 c 0,-0.767 -0.621,-1.388 -1.388,-1.388 h -5.827 c -0.767,0 -1.389,0.621 -1.389,1.388 v 0.153 c 0,0.767 0.622,1.388 1.389,1.388 h 2.935 c 0.767,0 1.388,0.621 1.388,1.388 v 0.151 c 0,0.767 -0.621,1.388 -1.388,1.388 h -5.79 c -0.767,0 -1.388,-0.621 -1.388,-1.388 v -3.081 c 0,-0.767 -0.622,-1.388 -1.389,-1.388 h -11.502 c -0.767,0 -1.389,0.621 -1.389,1.388 v 5.939 c 0.001,0.766 0.623,1.389 1.389,1.389 z m 5.713,0 h 0.077 c 0.767,0 1.388,-0.621 1.388,-1.388 v -0.079 c 0,-0.767 -0.621,-1.388 -1.388,-1.388 h -0.077 c -0.767,0 -1.389,0.622 -1.389,1.388 v 0.079 c 0,0.765 0.622,1.388 1.389,1.388 z m -5.713,-11.645 h 34.387 c 0.767,0 1.388,-0.621 1.388,-1.388 v -0.152 c 0,-0.767 -0.621,-1.388 -1.388,-1.388 h -34.387 c -0.767,0 -1.389,0.621 -1.389,1.388 v 0.152 c 0.001,0.767 0.623,1.388 1.389,1.388 z m 34.388,11.645 h -5.827 c -0.767,0 -1.388,-0.621 -1.388,-1.388 v -5.939 c 0,-0.767 0.621,-1.388 1.388,-1.388 h 8.721 c 0.767,0 1.389,-0.622 1.389,-1.388 v -3.081 c 0,-0.767 0.621,-1.388 1.388,-1.388 h 0.078 c 0.767,0 1.388,0.621 1.388,1.388 v 8.94 c 0,0.767 0.621,1.388 1.388,1.388 h 0.042 c 0.767,0 1.389,-0.621 1.389,-1.388 v -8.94 c 0,-0.767 0.621,-1.388 1.388,-1.388 h 0.116 c 0.767,0 1.388,0.621 1.388,1.388 v 8.94 c 0,0.767 0.621,1.388 1.388,1.388 h 0.079 c 0.767,0 1.388,-0.621 1.388,-1.388 v -8.94 c 0,-0.767 0.622,-1.388 1.389,-1.388 h 0.077 c 0.767,0 1.388,0.621 1.388,1.388 v 11.797 c 0,0.767 -0.621,1.388 -1.388,1.388 h -11.501 c -0.767,0 -1.388,-0.621 -1.388,-1.388 v -3.008 c 0,-0.767 -0.621,-1.388 -1.389,-1.388 h -5.827 c -0.767,0 -1.389,0.621 -1.389,1.388 v 0.151 c 0,0.767 0.622,1.388 1.389,1.388 h 2.935 c 0.767,0 1.388,0.622 1.388,1.388 v 0.079 c 10e-4,0.766 -0.62,1.389 -1.387,1.389 z"
   id="path22" />
	<path
   style="fill:#f5f5f5"
   d="m 230.2,194.176 h 0.079 c 0.767,0 1.388,-0.621 1.388,-1.388 v -3.008 c 0,-0.767 0.621,-1.388 1.388,-1.388 h 5.79 c 0.767,0 1.388,0.621 1.388,1.388 v 3.008 c 0,0.767 0.622,1.388 1.389,1.388 h 11.54 c 0.767,0 1.388,-0.621 1.388,-1.388 v -5.939 c 0,-0.767 -0.621,-1.388 -1.388,-1.388 h -5.827 c -0.767,0 -1.389,0.621 -1.389,1.388 v 0.153 c 0,0.767 0.622,1.388 1.389,1.388 h 2.97 c 0.767,0 1.388,0.621 1.388,1.388 v 0.151 c 0,0.767 -0.622,1.388 -1.388,1.388 h -5.79 c -0.767,0 -1.388,-0.621 -1.388,-1.388 v -3.081 c 0,-0.767 -0.621,-1.388 -1.389,-1.388 h -11.54 c -0.767,0 -1.389,0.621 -1.389,1.388 v 5.939 c 0.003,0.766 0.624,1.389 1.391,1.389 z m 5.75,0 h 0.042 c 0.767,0 1.389,-0.621 1.389,-1.388 v -0.079 c 0,-0.767 -0.622,-1.388 -1.389,-1.388 h -0.042 c -0.767,0 -1.388,0.622 -1.388,1.388 v 0.079 c -0.001,0.765 0.621,1.388 1.388,1.388 z m -5.75,-11.645 h 34.425 c 0.767,0 1.388,-0.621 1.388,-1.388 v -0.152 c 0,-0.767 -0.622,-1.388 -1.388,-1.388 H 230.2 c -0.767,0 -1.389,0.621 -1.389,1.388 v 0.152 c 0.001,0.767 0.622,1.388 1.389,1.388 z m 34.426,11.645 h -5.827 c -0.767,0 -1.388,-0.621 -1.388,-1.388 v -5.939 c 0,-0.767 0.621,-1.388 1.388,-1.388 h 8.684 c 0.767,0 1.388,-0.622 1.388,-1.388 v -3.081 c 0,-0.767 0.622,-1.388 1.389,-1.388 h 0.077 c 0.767,0 1.388,0.621 1.388,1.388 v 8.94 c 0,0.767 0.622,1.388 1.388,1.388 h 0.079 c 0.767,0 1.388,-0.621 1.388,-1.388 v -8.94 c 0,-0.767 0.622,-1.388 1.389,-1.388 h 0.077 c 0.767,0 1.388,0.621 1.388,1.388 v 8.94 c 0,0.767 0.622,1.388 1.388,1.388 h 0.077 c 0.767,0 1.388,-0.621 1.388,-1.388 v -8.94 c 0,-0.767 0.622,-1.388 1.389,-1.388 h 0.079 c 0.767,0 1.389,0.621 1.389,1.388 v 11.797 c 0,0.767 -0.622,1.388 -1.389,1.388 h -11.502 c -0.767,0 -1.389,-0.621 -1.389,-1.388 v -3.008 c 0,-0.767 -0.621,-1.388 -1.388,-1.388 h -5.827 c -0.767,0 -1.389,0.621 -1.389,1.388 v 0.151 c 0,0.767 0.622,1.388 1.389,1.388 h 2.97 c 0.767,0 1.388,0.622 1.388,1.388 v 0.079 c 0.007,0.766 -0.614,1.389 -1.381,1.389 z"
   id="path24" />
	<path
   style="fill:#f5f5f5"
   d="m 287.395,194.176 h 0.079 c 0.767,0 1.389,-0.621 1.389,-1.388 v -3.008 c 0,-0.767 0.621,-1.388 1.389,-1.388 h 5.79 c 0.767,0 1.389,0.621 1.389,1.388 v 3.008 c 0,0.767 0.622,1.388 1.388,1.388 h 11.54 c 0.767,0 1.389,-0.621 1.389,-1.388 v -5.939 c 0,-0.767 -0.621,-1.388 -1.389,-1.388 h -5.792 c -0.767,0 -1.388,0.621 -1.388,1.388 v 0.153 c 0,0.767 0.621,1.388 1.388,1.388 h 2.9 c 0.767,0 1.389,0.621 1.389,1.388 v 0.151 c 0,0.767 -0.622,1.388 -1.389,1.388 h -5.754 c -0.767,0 -1.389,-0.621 -1.389,-1.388 v -3.081 c 0,-0.767 -0.621,-1.388 -1.388,-1.388 h -11.54 c -0.767,0 -1.389,0.621 -1.389,1.388 v 5.939 c -0.001,0.766 0.621,1.389 1.388,1.389 z m 5.749,0 h 0.042 c 0.767,0 1.389,-0.621 1.389,-1.388 v -0.079 c 0,-0.767 -0.622,-1.388 -1.389,-1.388 h -0.042 c -0.767,0 -1.388,0.622 -1.388,1.388 v 0.079 c 0,0.765 0.621,1.388 1.388,1.388 z m -5.749,-11.645 h 34.425 c 0.767,0 1.388,-0.621 1.388,-1.388 v -0.152 c 0,-0.767 -0.622,-1.388 -1.388,-1.388 h -34.425 c -0.767,0 -1.389,0.621 -1.389,1.388 v 0.152 c 0,0.767 0.622,1.388 1.389,1.388 z m 34.425,11.645 h -5.79 c -0.767,0 -1.388,-0.621 -1.388,-1.388 v -5.939 c 0,-0.767 0.621,-1.388 1.388,-1.388 h 8.646 c 0.767,0 1.388,-0.622 1.388,-1.388 v -3.081 c 0,-0.767 0.622,-1.388 1.389,-1.388 h 0.079 c 0.767,0 1.388,0.621 1.388,1.388 v 8.94 c 0,0.767 0.621,1.388 1.389,1.388 h 0.077 c 0.767,0 1.389,-0.621 1.389,-1.388 v -8.94 c 0,-0.767 0.621,-1.388 1.389,-1.388 h 0.079 c 0.767,0 1.389,0.621 1.389,1.388 v 8.94 c 0,0.767 0.621,1.388 1.388,1.388 h 0.078 c 0.767,0 1.388,-0.621 1.388,-1.388 v -8.94 c 0,-0.767 0.622,-1.388 1.389,-1.388 h 0.079 c 0.767,0 1.389,0.621 1.389,1.388 v 11.797 c 0,0.767 -0.622,1.388 -1.389,1.388 h -11.505 c -0.767,0 -1.389,-0.621 -1.389,-1.388 v -3.008 c 0,-0.767 -0.621,-1.388 -1.388,-1.388 h -5.826 c -0.767,0 -1.389,0.621 -1.389,1.388 v 0.151 c 0,0.767 0.622,1.388 1.389,1.388 h 2.97 c 0.767,0 1.388,0.622 1.388,1.388 v 0.079 c 0.005,0.766 -0.618,1.389 -1.384,1.389 z"
   id="path26" />
	<path
   style="fill:#f5f5f5"
   d="m 344.589,194.176 h 0.079 c 0.767,0 1.389,-0.621 1.389,-1.388 v -3.008 c 0,-0.767 0.621,-1.388 1.388,-1.388 h 5.826 c 0.767,0 1.389,0.621 1.389,1.388 v 3.008 c 0,0.767 0.621,1.388 1.388,1.388 h 11.505 c 0.767,0 1.388,-0.621 1.388,-1.388 v -5.939 c 0,-0.767 -0.621,-1.388 -1.388,-1.388 h -5.792 c -0.767,0 -1.389,0.621 -1.389,1.388 v 0.153 c 0,0.767 0.621,1.388 1.389,1.388 h 2.973 c 0.767,0 1.388,0.621 1.388,1.388 v 0.151 c 0,0.767 -0.621,1.388 -1.388,1.388 h -5.865 c -0.767,0 -1.388,-0.621 -1.388,-1.388 v -3.081 c 0,-0.767 -0.622,-1.388 -1.389,-1.388 H 344.59 c -0.767,0 -1.389,0.621 -1.389,1.388 v 5.939 c -0.001,0.766 0.621,1.389 1.388,1.389 z m 5.713,0 h 0.116 c 0.767,0 1.388,-0.621 1.388,-1.388 v -0.079 c 0,-0.767 -0.621,-1.388 -1.388,-1.388 h -0.116 c -0.767,0 -1.388,0.622 -1.388,1.388 v 0.079 c -10e-4,0.765 0.621,1.388 1.388,1.388 z m -5.713,-11.645 h 34.424 c 0.767,0 1.389,-0.621 1.389,-1.388 v -0.152 c 0,-0.767 -0.621,-1.388 -1.389,-1.388 h -34.424 c -0.767,0 -1.389,0.621 -1.389,1.388 v 0.152 c 0,0.767 0.622,1.388 1.389,1.388 z m 34.426,11.645 h -5.79 c -0.767,0 -1.389,-0.621 -1.389,-1.388 v -5.939 c 0,-0.767 0.621,-1.388 1.389,-1.388 h 8.646 c 0.767,0 1.389,-0.622 1.389,-1.388 v -3.081 c 0,-0.767 0.621,-1.388 1.389,-1.388 h 0.079 c 0.767,0 1.389,0.621 1.389,1.388 v 8.94 c 0,0.767 0.621,1.388 1.388,1.388 h 0.077 c 0.767,0 1.389,-0.621 1.389,-1.388 v -8.94 c 0,-0.767 0.622,-1.388 1.389,-1.388 h 0.079 c 0.767,0 1.389,0.621 1.389,1.388 v 8.94 c 0,0.767 0.621,1.388 1.389,1.388 h 0.115 c 0.767,0 1.388,-0.621 1.388,-1.388 v -8.94 c 0,-0.767 0.622,-1.388 1.389,-1.388 h 0.04 c 0.767,0 1.389,0.621 1.389,1.388 v 11.797 c 0,0.767 -0.622,1.388 -1.389,1.388 h -11.502 c -0.767,0 -1.389,-0.621 -1.389,-1.388 v -3.008 c 0,-0.767 -0.621,-1.388 -1.389,-1.388 h -5.754 c -0.767,0 -1.389,0.621 -1.389,1.388 v 0.151 c 0,0.767 0.621,1.388 1.389,1.388 h 2.899 c 0.767,0 1.389,0.622 1.389,1.388 v 0.079 c 0,0.766 -0.621,1.389 -1.388,1.389 z"
   id="path28" />
	<path
   style="fill:#f5f5f5"
   d="m 401.82,194.176 h 0.042 c 0.767,0 1.389,-0.621 1.389,-1.388 v -3.008 c 0,-0.767 0.621,-1.388 1.389,-1.388 h 5.792 c 0.767,0 1.389,0.621 1.389,1.388 v 3.008 c 0,0.767 0.621,1.388 1.388,1.388 h 11.538 c 0.767,0 1.389,-0.621 1.389,-1.388 v -5.939 c 0,-0.767 -0.622,-1.388 -1.389,-1.388 h -5.752 c -0.767,0 -1.389,0.621 -1.389,1.388 v 0.153 c 0,0.767 0.622,1.388 1.389,1.388 h 2.933 c 0.767,0 1.389,0.621 1.389,1.388 v 0.151 c 0,0.767 -0.621,1.388 -1.389,1.388 h -5.825 c -0.767,0 -1.389,-0.621 -1.389,-1.388 v -3.081 c 0,-0.767 -0.621,-1.388 -1.389,-1.388 H 401.82 c -0.767,0 -1.389,0.621 -1.389,1.388 v 5.939 c -10e-4,0.766 0.622,1.389 1.389,1.389 z m 5.712,0 h 0.079 c 0.767,0 1.388,-0.621 1.388,-1.388 v -0.079 c 0,-0.767 -0.621,-1.388 -1.388,-1.388 h -0.079 c -0.767,0 -1.388,0.622 -1.388,1.388 v 0.079 c -0.001,0.765 0.62,1.388 1.388,1.388 z m -5.712,-11.645 h 34.462 c 0.767,0 1.389,-0.621 1.389,-1.388 v -0.152 c 0,-0.767 -0.621,-1.388 -1.389,-1.388 H 401.82 c -0.767,0 -1.389,0.621 -1.389,1.388 v 0.152 c -10e-4,0.767 0.622,1.388 1.389,1.388 z m 34.461,11.645 h -5.865 c -0.767,0 -1.389,-0.621 -1.389,-1.388 v -5.939 c 0,-0.767 0.622,-1.388 1.389,-1.388 h 8.647 c 0.767,0 1.389,-0.622 1.389,-1.388 v -3.081 c 0,-0.767 0.622,-1.388 1.389,-1.388 h 0.115 c 0.767,0 1.388,0.621 1.388,1.388 v 8.94 c 0,0.767 0.622,1.388 1.389,1.388 h 0.077 c 0.767,0 1.389,-0.621 1.389,-1.388 v -8.94 c 0,-0.767 0.621,-1.388 1.388,-1.388 h 0.042 c 0.767,0 1.389,0.621 1.389,1.388 v 8.94 c 0,0.767 0.621,1.388 1.389,1.388 h 0.115 c 0.767,0 1.388,-0.621 1.388,-1.388 v -8.94 c 0,-0.767 0.621,-1.388 1.389,-1.388 h 0.079 c 0.767,0 1.389,0.621 1.389,1.388 v 11.797 c 0,0.767 -0.621,1.388 -1.389,1.388 h -11.54 c -0.767,0 -1.389,-0.621 -1.389,-1.388 v -3.008 c 0,-0.767 -0.621,-1.388 -1.389,-1.388 h -5.79 c -0.767,0 -1.389,0.621 -1.389,1.388 v 0.151 c 0,0.767 0.621,1.388 1.389,1.388 h 3.008 c 0.767,0 1.389,0.622 1.389,1.388 v 0.079 c 0.004,0.766 -0.619,1.389 -1.386,1.389 z"
   id="path30" />
	<path
   style="fill:#f5f5f5"
   d="m 459.013,194.176 h 0.079 c 0.767,0 1.389,-0.621 1.389,-1.388 v -3.008 c 0,-0.767 0.621,-1.388 1.389,-1.388 h 5.79 c 0.767,0 1.389,0.621 1.389,1.388 v 3.008 c 0,0.767 0.621,1.388 1.389,1.388 h 11.54 c 0.767,0 1.389,-0.621 1.389,-1.388 v -5.939 c 0,-0.767 -0.621,-1.388 -1.389,-1.388 h -5.754 c -0.767,0 -1.388,0.621 -1.388,1.388 v 0.153 c 0,0.767 0.622,1.388 1.388,1.388 h 2.935 c 0.767,0 1.388,0.621 1.388,1.388 v 0.151 c 0,0.767 -0.622,1.388 -1.388,1.388 h -5.865 c -0.767,0 -1.389,-0.621 -1.389,-1.388 v -3.081 c 0,-0.767 -0.621,-1.388 -1.388,-1.388 h -11.502 c -0.767,0 -1.389,0.621 -1.389,1.388 v 5.939 c -10e-4,0.766 0.621,1.389 1.387,1.389 z m 5.713,0 h 0.079 c 0.767,0 1.389,-0.621 1.389,-1.388 v -0.079 c 0,-0.767 -0.621,-1.388 -1.389,-1.388 h -0.079 c -0.767,0 -1.388,0.622 -1.388,1.388 v 0.079 c 0,0.765 0.621,1.388 1.388,1.388 z m -5.713,-11.645 h 34.388 c 0.767,0 1.389,-0.621 1.389,-1.388 v -0.152 c 0,-0.767 -0.621,-1.388 -1.389,-1.388 h -34.388 c -0.767,0 -1.389,0.621 -1.389,1.388 v 0.152 c 10e-4,0.767 0.623,1.388 1.389,1.388 z m 34.388,11.645 h -5.79 c -0.767,0 -1.389,-0.621 -1.389,-1.388 v -5.939 c 0,-0.767 0.621,-1.388 1.389,-1.388 h 8.721 c 0.767,0 1.389,-0.622 1.389,-1.388 v -3.081 c 0,-0.767 0.621,-1.388 1.388,-1.388 h 0.004 c 0.767,0 1.389,0.621 1.389,1.388 v 8.94 c 0,0.767 0.621,1.388 1.388,1.388 h 0.152 c 0.767,0 1.389,-0.621 1.389,-1.388 v -8.94 c 0,-0.767 0.621,-1.388 1.389,-1.388 h 0.004 c 0.767,0 1.389,0.621 1.389,1.388 v 8.94 c 0,0.767 0.622,1.388 1.389,1.388 h 0.079 c 0.767,0 1.389,-0.621 1.389,-1.388 v -8.94 c 0,-0.767 0.622,-1.388 1.389,-1.388 h 0.151 c 0.767,0 1.389,0.621 1.389,1.388 v 11.797 c 0,0.767 -0.622,1.388 -1.389,1.388 h -11.502 c -0.767,0 -1.388,-0.621 -1.388,-1.388 v -3.008 c 0,-0.767 -0.622,-1.388 -1.389,-1.388 h -5.864 c -0.767,0 -1.388,0.621 -1.388,1.388 v 0.151 c 0,0.767 0.621,1.388 1.388,1.388 h 2.933 c 0.767,0 1.389,0.622 1.389,1.388 v 0.079 c 0.001,0.766 -0.621,1.389 -1.388,1.389 z"
   id="path32" />
	<path
   style="fill:#f5f5f5"
   d="m 1.388,203.035 h 22.963 c 0.767,0 1.388,-0.621 1.388,-1.388 v -3.081 c 0,-0.767 -0.621,-1.388 -1.388,-1.388 H 1.388 C 0.621,197.178 0,197.8 0,198.566 v 3.081 c 0,0.767 0.621,1.388 1.388,1.388 z m 28.634,0 h 22.927 c 0.767,0 1.388,-0.621 1.388,-1.388 v -3.081 c 0,-0.767 -0.621,-1.388 -1.388,-1.388 H 30.022 c -0.767,0 -1.389,0.622 -1.389,1.388 v 3.081 c -10e-4,0.767 0.622,1.388 1.389,1.388 z"
   id="path34" />
	<path
   style="fill:#f5f5f5"
   d="m 58.618,203.035 h 22.927 c 0.767,0 1.388,-0.621 1.388,-1.388 v -3.081 c 0,-0.767 -0.621,-1.388 -1.388,-1.388 H 58.618 c -0.767,0 -1.388,0.622 -1.388,1.388 v 3.081 c 0,0.767 0.622,1.388 1.388,1.388 z m 28.561,0 h 23 c 0.767,0 1.388,-0.621 1.388,-1.388 v -3.081 c 0,-0.767 -0.621,-1.388 -1.388,-1.388 h -23 c -0.767,0 -1.389,0.622 -1.389,1.388 v 3.081 c 0,0.767 0.622,1.388 1.389,1.388 z"
   id="path36" />
	<path
   style="fill:#f5f5f5"
   d="m 115.814,203.035 h 22.963 c 0.767,0 1.389,-0.621 1.389,-1.388 v -3.081 c 0,-0.767 -0.621,-1.388 -1.389,-1.388 h -22.963 c -0.767,0 -1.388,0.622 -1.388,1.388 v 3.081 c -0.002,0.767 0.621,1.388 1.388,1.388 z m 28.596,0 h 22.963 c 0.767,0 1.388,-0.621 1.388,-1.388 v -3.081 c 0,-0.767 -0.622,-1.388 -1.388,-1.388 H 144.41 c -0.767,0 -1.389,0.622 -1.389,1.388 v 3.081 c 0,0.767 0.623,1.388 1.389,1.388 z"
   id="path38" />
	<path
   style="fill:#f5f5f5"
   d="m 173.007,203.035 h 22.963 c 0.767,0 1.388,-0.621 1.388,-1.388 v -3.081 c 0,-0.767 -0.621,-1.388 -1.388,-1.388 h -22.963 c -0.767,0 -1.389,0.622 -1.389,1.388 v 3.081 c 0.001,0.767 0.623,1.388 1.389,1.388 z m 28.561,0 h 23 c 0.767,0 1.388,-0.621 1.388,-1.388 v -3.081 c 0,-0.767 -0.621,-1.388 -1.388,-1.388 h -23 c -0.767,0 -1.388,0.622 -1.388,1.388 v 3.081 c -0.001,0.767 0.62,1.388 1.388,1.388 z"
   id="path40" />
	<path
   style="fill:#f5f5f5"
   d="m 230.2,203.035 h 22.965 c 0.767,0 1.388,-0.621 1.388,-1.388 v -3.081 c 0,-0.767 -0.621,-1.388 -1.388,-1.388 H 230.2 c -0.767,0 -1.389,0.622 -1.389,1.388 v 3.081 c 0.001,0.767 0.622,1.388 1.389,1.388 z m 28.597,0 h 22.965 c 0.767,0 1.389,-0.621 1.389,-1.388 v -3.081 c 0,-0.767 -0.622,-1.388 -1.389,-1.388 h -22.965 c -0.767,0 -1.388,0.622 -1.388,1.388 v 3.081 c 0,0.767 0.621,1.388 1.388,1.388 z"
   id="path42" />
	<path
   style="fill:#f5f5f5"
   d="m 287.395,203.035 h 22.965 c 0.767,0 1.389,-0.621 1.389,-1.388 v -3.081 c 0,-0.767 -0.621,-1.388 -1.389,-1.388 h -22.965 c -0.767,0 -1.389,0.622 -1.389,1.388 v 3.081 c 0,0.767 0.622,1.388 1.389,1.388 z m 28.635,0 h 22.927 c 0.767,0 1.389,-0.621 1.389,-1.388 v -3.081 c 0,-0.767 -0.622,-1.388 -1.389,-1.388 H 316.03 c -0.767,0 -1.388,0.622 -1.388,1.388 v 3.081 c -10e-4,0.767 0.621,1.388 1.388,1.388 z"
   id="path44" />
	<path
   style="fill:#f5f5f5"
   d="m 344.589,203.035 h 22.965 c 0.767,0 1.388,-0.621 1.388,-1.388 v -3.081 c 0,-0.767 -0.621,-1.388 -1.388,-1.388 h -22.965 c -0.767,0 -1.389,0.622 -1.389,1.388 v 3.081 c 0,0.767 0.622,1.388 1.389,1.388 z m 28.635,0 h 22.925 c 0.767,0 1.389,-0.621 1.389,-1.388 v -3.081 c 0,-0.767 -0.622,-1.388 -1.389,-1.388 h -22.925 c -0.767,0 -1.389,0.622 -1.389,1.388 v 3.081 c 0.001,0.767 0.622,1.388 1.389,1.388 z"
   id="path46" />
	<path
   style="fill:#f5f5f5"
   d="m 401.82,203.035 h 22.927 c 0.767,0 1.389,-0.621 1.389,-1.388 v -3.081 c 0,-0.767 -0.622,-1.388 -1.389,-1.388 H 401.82 c -0.767,0 -1.389,0.622 -1.389,1.388 v 3.081 c -10e-4,0.767 0.622,1.388 1.389,1.388 z m 28.597,0 h 22.965 c 0.767,0 1.389,-0.621 1.389,-1.388 v -3.081 c 0,-0.767 -0.621,-1.388 -1.389,-1.388 h -22.965 c -0.767,0 -1.389,0.622 -1.389,1.388 v 3.081 c -0.001,0.767 0.622,1.388 1.389,1.388 z"
   id="path48" />
	<path
   style="fill:#f5f5f5"
   d="m 459.013,203.035 h 22.965 c 0.767,0 1.389,-0.621 1.389,-1.388 v -3.081 c 0,-0.767 -0.621,-1.388 -1.389,-1.388 h -22.965 c -0.767,0 -1.389,0.622 -1.389,1.388 v 3.081 c 10e-4,0.767 0.623,1.388 1.389,1.388 z m 28.599,0 h 23 c 0.767,0 1.389,-0.621 1.389,-1.388 v -3.081 c 0,-0.767 -0.622,-1.388 -1.389,-1.388 h -23 c -0.767,0 -1.389,0.622 -1.389,1.388 v 3.081 c -0.001,0.767 0.621,1.388 1.389,1.388 z"
   id="path50" />
	<path
   style="fill:#f5f5f5"
   d="m 510.611,317.826 h -0.077 c -0.767,0 -1.388,0.621 -1.388,1.388 v 3.008 c 0,0.767 -0.622,1.389 -1.389,1.389 h -5.827 c -0.767,0 -1.389,-0.622 -1.389,-1.389 v -3.008 c 0,-0.767 -0.621,-1.388 -1.389,-1.388 H 487.65 c -0.767,0 -1.388,0.621 -1.388,1.388 v 5.939 c 0,0.767 0.621,1.389 1.388,1.389 h 5.79 c 0.767,0 1.388,-0.622 1.388,-1.389 v -0.152 c 0,-0.767 -0.621,-1.388 -1.388,-1.388 h -2.935 c -0.767,0 -1.389,-0.622 -1.389,-1.389 v -0.151 c 0,-0.767 0.622,-1.388 1.389,-1.388 h 5.792 c 0.767,0 1.388,0.621 1.388,1.388 v 3.081 c 0,0.767 0.622,1.389 1.389,1.389 h 11.538 c 0.767,0 1.389,-0.622 1.389,-1.389 v -5.939 c -10e-4,-0.767 -0.623,-1.389 -1.39,-1.389 z m -5.748,0 h -0.079 c -0.767,0 -1.389,0.621 -1.389,1.388 v 0.079 c 0,0.767 0.621,1.389 1.389,1.389 h 0.079 c 0.767,0 1.389,-0.622 1.389,-1.389 v -0.079 c 0,-0.766 -0.622,-1.388 -1.389,-1.388 z m 5.748,11.644 h -34.423 c -0.767,0 -1.389,0.621 -1.389,1.388 v 0.153 c 0,0.767 0.622,1.388 1.389,1.388 h 34.423 c 0.767,0 1.389,-0.622 1.389,-1.388 v -0.153 c 0,-0.766 -0.622,-1.388 -1.389,-1.388 z m -34.422,-11.644 h 5.79 c 0.767,0 1.389,0.621 1.389,1.388 v 5.939 c 0,0.767 -0.621,1.389 -1.389,1.389 h -8.647 c -0.767,0 -1.388,0.621 -1.388,1.388 v 3.081 c 0,0.767 -0.622,1.388 -1.389,1.388 h -0.077 c -0.767,0 -1.389,-0.622 -1.389,-1.388 v -8.94 c 0,-0.767 -0.621,-1.388 -1.388,-1.388 h -0.079 c -0.767,0 -1.389,0.621 -1.389,1.388 v 8.94 c 0,0.767 -0.622,1.388 -1.388,1.388 h -0.078 c -0.767,0 -1.389,-0.622 -1.389,-1.388 v -8.94 c 0,-0.767 -0.621,-1.388 -1.389,-1.388 h -0.115 c -0.767,0 -1.389,0.621 -1.389,1.388 v 8.94 c 0,0.767 -0.621,1.388 -1.389,1.388 h -0.042 c -0.767,0 -1.388,-0.622 -1.388,-1.388 v -11.797 c 0,-0.767 0.621,-1.388 1.388,-1.388 h 11.502 c 0.767,0 1.389,0.621 1.389,1.388 v 3.008 c 0,0.767 0.621,1.389 1.388,1.389 h 5.79 c 0.767,0 1.388,-0.622 1.388,-1.389 v -0.151 c 0,-0.767 -0.621,-1.388 -1.388,-1.388 h -2.933 c -0.767,0 -1.389,-0.622 -1.389,-1.389 v -0.079 c -0.002,-0.767 0.621,-1.389 1.388,-1.389 z"
   id="path52" />
	<path
   style="fill:#f5f5f5"
   d="m 453.382,317.826 h -0.115 c -0.767,0 -1.388,0.621 -1.388,1.388 v 3.008 c 0,0.767 -0.622,1.389 -1.389,1.389 h -5.754 c -0.767,0 -1.389,-0.622 -1.389,-1.389 v -3.008 c 0,-0.767 -0.621,-1.388 -1.388,-1.388 h -11.502 c -0.767,0 -1.389,0.621 -1.389,1.388 v 5.939 c 0,0.767 0.622,1.389 1.389,1.389 h 5.79 c 0.767,0 1.389,-0.622 1.389,-1.389 v -0.152 c 0,-0.767 -0.622,-1.388 -1.389,-1.388 h -2.935 c -0.767,0 -1.388,-0.622 -1.388,-1.389 v -0.151 c 0,-0.767 0.621,-1.388 1.388,-1.388 h 5.792 c 0.767,0 1.388,0.621 1.388,1.388 v 3.081 c 0,0.767 0.622,1.389 1.389,1.389 h 11.502 c 0.767,0 1.389,-0.622 1.389,-1.389 v -5.939 c -0.002,-0.767 -0.624,-1.389 -1.39,-1.389 z m -5.713,0 h -0.077 c -0.767,0 -1.389,0.621 -1.389,1.388 v 0.079 c 0,0.767 0.622,1.389 1.389,1.389 h 0.077 c 0.767,0 1.389,-0.622 1.389,-1.389 v -0.079 c -10e-4,-0.766 -0.622,-1.388 -1.389,-1.388 z m 5.713,11.644 h -34.387 c -0.767,0 -1.389,0.621 -1.389,1.388 v 0.153 c 0,0.767 0.622,1.388 1.389,1.388 h 34.387 c 0.767,0 1.389,-0.622 1.389,-1.388 v -0.153 c -0.001,-0.766 -0.623,-1.388 -1.389,-1.388 z m -34.388,-11.644 h 5.827 c 0.767,0 1.389,0.621 1.389,1.388 v 5.939 c 0,0.767 -0.622,1.389 -1.389,1.389 h -8.647 c -0.767,0 -1.389,0.621 -1.389,1.388 v 3.081 c 0,0.767 -0.621,1.388 -1.389,1.388 h -0.115 c -0.767,0 -1.389,-0.622 -1.389,-1.388 v -8.94 c 0,-0.767 -0.622,-1.388 -1.389,-1.388 h -0.115 c -0.767,0 -1.389,0.621 -1.389,1.388 v 8.94 c 0,0.767 -0.621,1.388 -1.388,1.388 h -0.042 c -0.767,0 -1.388,-0.622 -1.388,-1.388 v -8.94 c 0,-0.767 -0.622,-1.388 -1.389,-1.388 h -0.115 c -0.767,0 -1.389,0.621 -1.389,1.388 v 8.94 c 0,0.767 -0.621,1.388 -1.388,1.388 h -0.078 c -0.767,0 -1.388,-0.622 -1.388,-1.388 v -11.797 c 0,-0.767 0.622,-1.388 1.388,-1.388 h 11.575 c 0.767,0 1.389,0.621 1.389,1.388 v 3.008 c 0,0.767 0.621,1.389 1.389,1.389 h 5.754 c 0.767,0 1.389,-0.622 1.389,-1.389 v -0.151 c 0,-0.767 -0.621,-1.388 -1.389,-1.388 h -2.935 c -0.767,0 -1.389,-0.622 -1.389,-1.389 v -0.079 c 0,-0.767 0.622,-1.389 1.389,-1.389 z"
   id="path54" />
	<path
   style="fill:#f5f5f5"
   d="m 396.186,317.826 h -0.077 c -0.767,0 -1.389,0.621 -1.389,1.388 v 3.008 c 0,0.767 -0.621,1.389 -1.388,1.389 h -5.792 c -0.767,0 -1.389,-0.622 -1.389,-1.389 v -3.008 c 0,-0.767 -0.622,-1.388 -1.389,-1.388 h -11.538 c -0.767,0 -1.389,0.621 -1.389,1.388 v 5.939 c 0,0.767 0.621,1.389 1.389,1.389 h 5.79 c 0.767,0 1.389,-0.622 1.389,-1.389 v -0.152 c 0,-0.767 -0.621,-1.388 -1.389,-1.388 h -2.935 c -0.767,0 -1.389,-0.622 -1.389,-1.389 v -0.151 c 0,-0.767 0.622,-1.388 1.389,-1.388 h 5.827 c 0.767,0 1.389,0.621 1.389,1.388 v 3.081 c 0,0.767 0.621,1.389 1.388,1.389 h 11.502 c 0.767,0 1.389,-0.622 1.389,-1.389 v -5.939 c 0.002,-0.767 -0.621,-1.389 -1.388,-1.389 z m -5.712,0 h -0.077 c -0.767,0 -1.389,0.621 -1.389,1.388 v 0.079 c 0,0.767 0.622,1.389 1.389,1.389 h 0.077 c 0.767,0 1.388,-0.622 1.388,-1.389 v -0.079 c 10e-4,-0.766 -0.62,-1.388 -1.388,-1.388 z m 5.712,11.644 h -34.424 c -0.767,0 -1.389,0.621 -1.389,1.388 v 0.153 c 0,0.767 0.621,1.388 1.389,1.388 h 34.424 c 0.767,0 1.389,-0.622 1.389,-1.388 v -0.153 c 0.001,-0.766 -0.622,-1.388 -1.389,-1.388 z m -34.424,-11.644 h 5.827 c 0.767,0 1.389,0.621 1.389,1.388 v 5.939 c 0,0.767 -0.622,1.389 -1.389,1.389 h -8.646 c -0.767,0 -1.388,0.621 -1.388,1.388 v 3.081 c 0,0.767 -0.622,1.388 -1.389,1.388 h -0.079 c -0.767,0 -1.388,-0.622 -1.388,-1.388 v -8.94 c 0,-0.767 -0.622,-1.388 -1.389,-1.388 h -0.115 c -0.767,0 -1.389,0.621 -1.389,1.388 v 8.94 c 0,0.767 -0.621,1.388 -1.388,1.388 h -0.116 c -0.767,0 -1.388,-0.622 -1.388,-1.388 v -8.94 c 0,-0.767 -0.622,-1.388 -1.389,-1.388 h -0.042 c -0.767,0 -1.389,0.621 -1.389,1.388 v 8.94 c 0,0.767 -0.621,1.388 -1.389,1.388 h -0.077 c -0.767,0 -1.388,-0.622 -1.388,-1.388 v -11.797 c 0,-0.767 0.621,-1.388 1.388,-1.388 h 11.54 c 0.767,0 1.389,0.621 1.389,1.388 v 3.008 c 0,0.767 0.621,1.389 1.388,1.389 h 5.79 c 0.767,0 1.388,-0.622 1.388,-1.389 v -0.151 c 0,-0.767 -0.621,-1.388 -1.388,-1.388 h -2.973 c -0.767,0 -1.389,-0.622 -1.389,-1.389 v -0.079 c 0,-0.767 0.622,-1.389 1.389,-1.389 z"
   id="path56" />
	<path
   style="fill:#f5f5f5"
   d="m 338.993,317.826 h -0.077 c -0.767,0 -1.389,0.621 -1.389,1.388 v 3.008 c 0,0.767 -0.622,1.389 -1.388,1.389 h -5.79 c -0.767,0 -1.388,-0.622 -1.388,-1.389 v -3.008 c 0,-0.767 -0.622,-1.388 -1.389,-1.388 h -11.54 c -0.767,0 -1.388,0.621 -1.388,1.388 v 5.939 c 0,0.767 0.621,1.389 1.388,1.389 h 5.827 c 0.767,0 1.389,-0.622 1.389,-1.389 v -0.152 c 0,-0.767 -0.622,-1.388 -1.389,-1.388 h -2.935 c -0.767,0 -1.388,-0.622 -1.388,-1.389 v -0.151 c 0,-0.767 0.621,-1.388 1.388,-1.388 h 5.79 c 0.767,0 1.388,0.621 1.388,1.388 v 3.081 c 0,0.767 0.622,1.389 1.389,1.389 h 11.502 c 0.767,0 1.389,-0.622 1.389,-1.389 v -5.939 c -0.001,-0.767 -0.623,-1.389 -1.389,-1.389 z m -5.713,0 h -0.077 c -0.767,0 -1.388,0.621 -1.388,1.388 v 0.079 c 0,0.767 0.622,1.389 1.388,1.389 h 0.077 c 0.767,0 1.389,-0.622 1.389,-1.389 v -0.079 c -10e-4,-0.766 -0.622,-1.388 -1.389,-1.388 z m 5.713,11.644 h -34.388 c -0.767,0 -1.388,0.621 -1.388,1.388 v 0.153 c 0,0.767 0.621,1.388 1.388,1.388 h 34.388 c 0.767,0 1.389,-0.622 1.389,-1.388 v -0.153 c -0.001,-0.766 -0.623,-1.388 -1.389,-1.388 z m -34.388,-11.644 h 5.827 c 0.767,0 1.389,0.621 1.389,1.388 v 5.939 c 0,0.767 -0.622,1.389 -1.389,1.389 h -8.721 c -0.767,0 -1.389,0.621 -1.389,1.388 v 3.081 c 0,0.767 -0.621,1.388 -1.388,1.388 h -0.077 c -0.767,0 -1.389,-0.622 -1.389,-1.388 v -8.94 c 0,-0.767 -0.622,-1.388 -1.389,-1.388 h -0.042 c -0.767,0 -1.389,0.621 -1.389,1.388 v 8.94 c 0,0.767 -0.621,1.388 -1.389,1.388 h -0.115 c -0.767,0 -1.388,-0.622 -1.388,-1.388 v -8.94 c 0,-0.767 -0.622,-1.388 -1.389,-1.388 h -0.079 c -0.767,0 -1.388,0.621 -1.388,1.388 v 8.94 c 0,0.767 -0.622,1.388 -1.389,1.388 h -0.077 c -0.767,0 -1.389,-0.622 -1.389,-1.388 v -11.797 c 0,-0.767 0.622,-1.388 1.389,-1.388 h 11.502 c 0.767,0 1.388,0.621 1.388,1.388 v 3.008 c 0,0.767 0.622,1.389 1.389,1.389 h 5.827 c 0.767,0 1.389,-0.622 1.389,-1.389 v -0.151 c 0,-0.767 -0.621,-1.388 -1.389,-1.388 h -2.935 c -0.767,0 -1.388,-0.622 -1.388,-1.389 v -0.079 c 0,-0.767 0.621,-1.389 1.388,-1.389 z"
   id="path58" />
	<path
   style="fill:#f5f5f5"
   d="m 281.8,317.826 h -0.079 c -0.767,0 -1.388,0.621 -1.388,1.388 v 3.008 c 0,0.767 -0.621,1.389 -1.388,1.389 h -5.79 c -0.767,0 -1.388,-0.622 -1.388,-1.389 v -3.008 c 0,-0.767 -0.622,-1.388 -1.389,-1.388 h -11.54 c -0.767,0 -1.388,0.621 -1.388,1.388 v 5.939 c 0,0.767 0.621,1.389 1.388,1.389 h 5.827 c 0.767,0 1.389,-0.622 1.389,-1.389 v -0.152 c 0,-0.767 -0.622,-1.388 -1.389,-1.388 h -2.97 c -0.767,0 -1.388,-0.622 -1.388,-1.389 v -0.151 c 0,-0.767 0.622,-1.388 1.388,-1.388 h 5.79 c 0.767,0 1.388,0.621 1.388,1.388 v 3.081 c 0,0.767 0.622,1.389 1.389,1.389 h 11.54 c 0.767,0 1.389,-0.622 1.389,-1.389 v -5.939 c -0.003,-0.767 -0.624,-1.389 -1.391,-1.389 z m -5.75,0 h -0.042 c -0.767,0 -1.389,0.621 -1.389,1.388 v 0.079 c 0,0.767 0.621,1.389 1.389,1.389 h 0.042 c 0.767,0 1.388,-0.622 1.388,-1.389 v -0.079 c 0.001,-0.766 -0.621,-1.388 -1.388,-1.388 z m 5.75,11.644 h -34.424 c -0.767,0 -1.388,0.621 -1.388,1.388 v 0.153 c 0,0.767 0.622,1.388 1.388,1.388 H 281.8 c 0.767,0 1.389,-0.622 1.389,-1.388 v -0.153 c -0.001,-0.766 -0.622,-1.388 -1.389,-1.388 z m -34.426,-11.644 h 5.827 c 0.767,0 1.388,0.621 1.388,1.388 v 5.939 c 0,0.767 -0.621,1.389 -1.388,1.389 h -8.684 c -0.767,0 -1.388,0.621 -1.388,1.388 v 3.081 c 0,0.767 -0.621,1.388 -1.389,1.388 h -0.077 c -0.767,0 -1.389,-0.622 -1.389,-1.388 v -8.94 c 0,-0.767 -0.621,-1.388 -1.388,-1.388 h -0.079 c -0.767,0 -1.388,0.621 -1.388,1.388 v 8.94 c 0,0.767 -0.622,1.388 -1.389,1.388 h -0.077 c -0.767,0 -1.388,-0.622 -1.388,-1.388 v -8.94 c 0,-0.767 -0.622,-1.388 -1.388,-1.388 h -0.078 c -0.767,0 -1.388,0.621 -1.388,1.388 v 8.94 c 0,0.767 -0.621,1.388 -1.389,1.388 h -0.079 c -0.767,0 -1.389,-0.622 -1.389,-1.388 v -11.797 c 0,-0.767 0.621,-1.388 1.389,-1.388 h 11.502 c 0.767,0 1.389,0.621 1.389,1.388 v 3.008 c 0,0.767 0.621,1.389 1.388,1.389 h 5.827 c 0.767,0 1.389,-0.622 1.389,-1.389 v -0.151 c 0,-0.767 -0.622,-1.388 -1.389,-1.388 h -2.97 c -0.767,0 -1.388,-0.622 -1.388,-1.389 v -0.079 c -0.005,-0.767 0.616,-1.389 1.383,-1.389 z"
   id="path60" />
	<path
   style="fill:#f5f5f5"
   d="m 224.605,317.826 h -0.079 c -0.767,0 -1.389,0.621 -1.389,1.388 v 3.008 c 0,0.767 -0.621,1.389 -1.388,1.389 h -5.79 c -0.767,0 -1.388,-0.622 -1.388,-1.389 v -3.008 c 0,-0.767 -0.622,-1.388 -1.388,-1.388 h -11.54 c -0.767,0 -1.388,0.621 -1.388,1.388 v 5.939 c 0,0.767 0.621,1.389 1.388,1.389 h 5.792 c 0.767,0 1.388,-0.622 1.388,-1.389 v -0.152 c 0,-0.767 -0.621,-1.388 -1.388,-1.388 h -2.899 c -0.767,0 -1.389,-0.622 -1.389,-1.389 v -0.151 c 0,-0.767 0.622,-1.388 1.389,-1.388 h 5.754 c 0.767,0 1.389,0.621 1.389,1.388 v 3.081 c 0,0.767 0.621,1.389 1.388,1.389 h 11.54 c 0.767,0 1.389,-0.622 1.389,-1.389 v -5.939 c -0.002,-0.767 -0.624,-1.389 -1.391,-1.389 z m -5.749,0 h -0.042 c -0.767,0 -1.389,0.621 -1.389,1.388 v 0.079 c 0,0.767 0.622,1.389 1.389,1.389 h 0.042 c 0.767,0 1.388,-0.622 1.388,-1.389 v -0.079 c 0,-0.766 -0.621,-1.388 -1.388,-1.388 z m 5.749,11.644 H 190.18 c -0.767,0 -1.388,0.621 -1.388,1.388 v 0.153 c 0,0.767 0.621,1.388 1.388,1.388 h 34.424 c 0.767,0 1.389,-0.622 1.389,-1.388 v -0.153 c 0.001,-0.766 -0.621,-1.388 -1.388,-1.388 z M 190.18,317.826 h 5.79 c 0.767,0 1.388,0.621 1.388,1.388 v 5.939 c 0,0.767 -0.621,1.389 -1.388,1.389 h -8.646 c -0.767,0 -1.388,0.621 -1.388,1.388 v 3.081 c 0,0.767 -0.621,1.388 -1.389,1.388 h -0.079 c -0.767,0 -1.388,-0.622 -1.388,-1.388 v -8.94 c 0,-0.767 -0.621,-1.388 -1.388,-1.388 h -0.078 c -0.767,0 -1.388,0.621 -1.388,1.388 v 8.94 c 0,0.767 -0.621,1.388 -1.389,1.388 h -0.079 c -0.767,0 -1.389,-0.622 -1.389,-1.388 v -8.94 c 0,-0.767 -0.621,-1.388 -1.388,-1.388 h -0.077 c -0.767,0 -1.388,0.621 -1.388,1.388 v 8.94 c 0,0.767 -0.622,1.388 -1.389,1.388 h -0.079 c -0.767,0 -1.389,-0.622 -1.389,-1.388 v -11.797 c 0,-0.767 0.622,-1.388 1.389,-1.388 h 11.505 c 0.767,0 1.389,0.621 1.389,1.388 v 3.008 c 0,0.767 0.621,1.389 1.388,1.389 h 5.825 c 0.767,0 1.389,-0.622 1.389,-1.389 v -0.151 c 0,-0.767 -0.621,-1.388 -1.389,-1.388 h -2.97 c -0.767,0 -1.388,-0.622 -1.388,-1.389 v -0.079 c -0.006,-0.767 0.617,-1.389 1.383,-1.389 z"
   id="path62" />
	<path
   style="fill:#f5f5f5"
   d="m 167.411,317.826 h -0.079 c -0.767,0 -1.389,0.621 -1.389,1.388 v 3.008 c 0,0.767 -0.621,1.389 -1.388,1.389 h -5.826 c -0.767,0 -1.389,-0.622 -1.389,-1.389 v -3.008 c 0,-0.767 -0.621,-1.388 -1.388,-1.388 h -11.505 c -0.767,0 -1.389,0.621 -1.389,1.388 v 5.939 c 0,0.767 0.621,1.389 1.389,1.389 h 5.792 c 0.767,0 1.389,-0.622 1.389,-1.389 v -0.152 c 0,-0.767 -0.621,-1.388 -1.389,-1.388 h -2.973 c -0.767,0 -1.389,-0.622 -1.389,-1.389 v -0.151 c 0,-0.767 0.621,-1.388 1.389,-1.388 h 5.865 c 0.767,0 1.388,0.621 1.388,1.388 v 3.081 c 0,0.767 0.622,1.389 1.389,1.389 h 11.502 c 0.767,0 1.389,-0.622 1.389,-1.389 v -5.939 c 0.001,-0.767 -0.621,-1.389 -1.388,-1.389 z m -5.713,0 h -0.116 c -0.767,0 -1.388,0.621 -1.388,1.388 v 0.079 c 0,0.767 0.621,1.389 1.388,1.389 h 0.116 c 0.767,0 1.388,-0.622 1.388,-1.389 v -0.079 c 10e-4,-0.766 -0.621,-1.388 -1.388,-1.388 z m 5.713,11.644 h -34.424 c -0.767,0 -1.389,0.621 -1.389,1.388 v 0.153 c 0,0.767 0.621,1.388 1.389,1.388 h 34.424 c 0.767,0 1.389,-0.622 1.389,-1.388 v -0.153 c 0,-0.766 -0.622,-1.388 -1.389,-1.388 z m -34.426,-11.644 h 5.79 c 0.767,0 1.389,0.621 1.389,1.388 v 5.939 c 0,0.767 -0.621,1.389 -1.389,1.389 h -8.646 c -0.767,0 -1.388,0.621 -1.388,1.388 v 3.081 c 0,0.767 -0.621,1.388 -1.389,1.388 h -0.079 c -0.767,0 -1.389,-0.622 -1.389,-1.388 v -8.94 c 0,-0.767 -0.621,-1.388 -1.388,-1.388 h -0.078 c -0.767,0 -1.388,0.621 -1.388,1.388 v 8.94 c 0,0.767 -0.621,1.388 -1.389,1.388 h -0.079 c -0.767,0 -1.389,-0.622 -1.389,-1.388 v -8.94 c 0,-0.767 -0.621,-1.388 -1.389,-1.388 h -0.115 c -0.767,0 -1.388,0.621 -1.388,1.388 v 8.94 c 0,0.767 -0.621,1.388 -1.388,1.388 h -0.04 c -0.767,0 -1.389,-0.622 -1.389,-1.388 v -11.797 c 0,-0.767 0.621,-1.388 1.389,-1.388 h 11.502 c 0.767,0 1.389,0.621 1.389,1.388 v 3.008 c 0,0.767 0.621,1.389 1.388,1.389 h 5.754 c 0.767,0 1.389,-0.622 1.389,-1.389 v -0.151 c 0,-0.767 -0.621,-1.388 -1.389,-1.388 h -2.899 c -0.767,0 -1.389,-0.622 -1.389,-1.389 v -0.079 c -0.001,-0.767 0.62,-1.389 1.387,-1.389 z"
   id="path64" />
	<path
   style="fill:#f5f5f5"
   d="m 110.18,317.826 h -0.042 c -0.767,0 -1.389,0.621 -1.389,1.388 v 3.008 c 0,0.767 -0.621,1.389 -1.388,1.389 h -5.792 c -0.767,0 -1.388,-0.622 -1.388,-1.389 v -3.008 c 0,-0.767 -0.621,-1.388 -1.388,-1.388 H 87.254 c -0.767,0 -1.388,0.621 -1.388,1.388 v 5.939 c 0,0.767 0.621,1.389 1.388,1.389 h 5.752 c 0.767,0 1.389,-0.622 1.389,-1.389 v -0.152 c 0,-0.767 -0.621,-1.388 -1.389,-1.388 h -2.933 c -0.767,0 -1.388,-0.622 -1.388,-1.389 v -0.151 c 0,-0.767 0.621,-1.388 1.388,-1.388 H 95.9 c 0.767,0 1.389,0.621 1.389,1.388 v 3.081 c 0,0.767 0.621,1.389 1.388,1.389 h 11.505 c 0.767,0 1.389,-0.622 1.389,-1.389 v -5.939 c -0.001,-0.767 -0.624,-1.389 -1.391,-1.389 z m -5.712,0 h -0.079 c -0.767,0 -1.389,0.621 -1.389,1.388 v 0.079 c 0,0.767 0.621,1.389 1.389,1.389 h 0.079 c 0.767,0 1.388,-0.622 1.388,-1.389 v -0.079 c 0.001,-0.766 -0.621,-1.388 -1.388,-1.388 z m 5.712,11.644 H 75.719 c -0.767,0 -1.388,0.621 -1.388,1.388 v 0.153 c 0,0.767 0.621,1.388 1.388,1.388 h 34.462 c 0.767,0 1.389,-0.622 1.389,-1.388 v -0.153 c 0,-0.766 -0.623,-1.388 -1.39,-1.388 z M 75.719,317.826 h 5.865 c 0.767,0 1.389,0.621 1.389,1.388 v 5.939 c 0,0.767 -0.621,1.389 -1.389,1.389 h -8.648 c -0.767,0 -1.388,0.621 -1.388,1.388 v 3.081 c 0,0.767 -0.621,1.388 -1.389,1.388 h -0.115 c -0.767,0 -1.388,-0.622 -1.388,-1.388 v -8.94 c 0,-0.767 -0.621,-1.388 -1.389,-1.388 H 67.19 c -0.767,0 -1.389,0.621 -1.389,1.388 v 8.94 c 0,0.767 -0.621,1.388 -1.388,1.388 H 64.37 c -0.767,0 -1.389,-0.622 -1.389,-1.388 v -8.94 c 0,-0.767 -0.621,-1.388 -1.388,-1.388 h -0.115 c -0.767,0 -1.389,0.621 -1.389,1.388 v 8.94 c 0,0.767 -0.621,1.388 -1.388,1.388 h -0.079 c -0.767,0 -1.388,-0.622 -1.388,-1.388 v -11.797 c 0,-0.767 0.621,-1.388 1.388,-1.388 h 11.54 c 0.767,0 1.389,0.621 1.389,1.388 v 3.008 c 0,0.767 0.621,1.389 1.388,1.389 h 5.79 c 0.767,0 1.388,-0.622 1.388,-1.389 v -0.151 c 0,-0.767 -0.621,-1.388 -1.388,-1.388 H 75.72 c -0.767,0 -1.388,-0.622 -1.388,-1.389 v -0.079 c -0.003,-0.767 0.62,-1.389 1.387,-1.389 z"
   id="path66" />
	<path
   style="fill:#f5f5f5"
   d="m 52.986,317.826 h -0.079 c -0.767,0 -1.388,0.621 -1.388,1.388 v 3.008 c 0,0.767 -0.621,1.389 -1.389,1.389 h -5.79 c -0.767,0 -1.389,-0.622 -1.389,-1.389 v -3.008 c 0,-0.767 -0.621,-1.388 -1.388,-1.388 H 30.022 c -0.767,0 -1.389,0.621 -1.389,1.388 v 5.939 c 0,0.767 0.621,1.389 1.389,1.389 h 5.754 c 0.767,0 1.388,-0.622 1.388,-1.389 v -0.152 c 0,-0.767 -0.621,-1.388 -1.388,-1.388 h -2.935 c -0.767,0 -1.389,-0.622 -1.389,-1.389 v -0.151 c 0,-0.767 0.622,-1.388 1.389,-1.388 h 5.865 c 0.767,0 1.389,0.621 1.389,1.388 v 3.081 c 0,0.767 0.621,1.389 1.388,1.389 h 11.502 c 0.767,0 1.388,-0.622 1.388,-1.389 v -5.939 c 0.002,-0.767 -0.62,-1.389 -1.387,-1.389 z m -5.712,0 h -0.079 c -0.767,0 -1.388,0.621 -1.388,1.388 v 0.079 c 0,0.767 0.621,1.389 1.388,1.389 h 0.079 c 0.767,0 1.388,-0.622 1.388,-1.389 v -0.079 c 0,-0.766 -0.621,-1.388 -1.388,-1.388 z m 5.712,11.644 H 18.599 c -0.767,0 -1.389,0.621 -1.389,1.388 v 0.153 c 0,0.767 0.622,1.388 1.389,1.388 h 34.387 c 0.767,0 1.388,-0.622 1.388,-1.388 v -0.153 c 10e-4,-0.766 -0.621,-1.388 -1.388,-1.388 z M 18.599,317.826 h 5.79 c 0.767,0 1.389,0.621 1.389,1.388 v 5.939 c 0,0.767 -0.621,1.389 -1.389,1.389 H 15.67 c -0.767,0 -1.389,0.621 -1.389,1.388 v 3.081 c 0,0.767 -0.621,1.388 -1.389,1.388 h -0.004 c -0.767,0 -1.389,-0.622 -1.389,-1.388 v -8.94 c 0,-0.767 -0.621,-1.388 -1.389,-1.388 H 9.956 c -0.767,0 -1.389,0.621 -1.389,1.388 v 8.94 c 0,0.767 -0.621,1.388 -1.389,1.388 H 7.175 c -0.767,0 -1.388,-0.622 -1.388,-1.388 v -8.94 c 0,-0.767 -0.622,-1.388 -1.389,-1.388 H 4.317 c -0.767,0 -1.389,0.621 -1.389,1.388 v 8.94 c 0,0.767 -0.621,1.388 -1.388,1.388 H 1.388 C 0.621,332.399 0,331.777 0,331.011 v -11.797 c 0,-0.767 0.621,-1.388 1.388,-1.388 H 12.89 c 0.767,0 1.389,0.621 1.389,1.388 v 3.008 c 0,0.767 0.621,1.389 1.389,1.389 h 5.864 c 0.767,0 1.388,-0.622 1.388,-1.389 v -0.151 c 0,-0.767 -0.621,-1.388 -1.388,-1.388 H 18.6 c -0.767,0 -1.389,-0.622 -1.389,-1.389 v -0.079 c -10e-4,-0.767 0.621,-1.389 1.388,-1.389 z"
   id="path68" />
	<path
   style="fill:#f5f5f5"
   d="m 510.611,308.966 h -22.963 c -0.767,0 -1.388,0.622 -1.388,1.389 v 3.081 c 0,0.767 0.621,1.388 1.388,1.388 h 22.963 c 0.767,0 1.389,-0.621 1.389,-1.388 v -3.081 c 0,-0.767 -0.622,-1.389 -1.389,-1.389 z m -28.633,0 h -22.927 c -0.767,0 -1.388,0.622 -1.388,1.389 v 3.081 c 0,0.767 0.621,1.388 1.388,1.388 h 22.927 c 0.767,0 1.389,-0.621 1.389,-1.388 v -3.081 c 0,-0.767 -0.622,-1.389 -1.389,-1.389 z"
   id="path70" />
	<path
   style="fill:#f5f5f5"
   d="m 453.382,308.966 h -22.927 c -0.767,0 -1.389,0.622 -1.389,1.389 v 3.081 c 0,0.767 0.622,1.388 1.389,1.388 h 22.927 c 0.767,0 1.389,-0.621 1.389,-1.388 v -3.081 c -0.001,-0.767 -0.623,-1.389 -1.389,-1.389 z m -28.561,0 h -23 c -0.767,0 -1.388,0.622 -1.388,1.389 v 3.081 c 0,0.767 0.622,1.388 1.388,1.388 h 23 c 0.767,0 1.389,-0.621 1.389,-1.388 v -3.081 c 0,-0.767 -0.622,-1.389 -1.389,-1.389 z"
   id="path72" />
	<path
   style="fill:#f5f5f5"
   d="m 396.186,308.966 h -22.963 c -0.767,0 -1.389,0.622 -1.389,1.389 v 3.081 c 0,0.767 0.621,1.388 1.389,1.388 h 22.963 c 0.767,0 1.389,-0.621 1.389,-1.388 v -3.081 c 0.001,-0.767 -0.622,-1.389 -1.389,-1.389 z m -28.596,0 h -22.963 c -0.767,0 -1.388,0.622 -1.388,1.389 v 3.081 c 0,0.767 0.621,1.388 1.388,1.388 h 22.963 c 0.767,0 1.389,-0.621 1.389,-1.388 v -3.081 c 0,-0.767 -0.623,-1.389 -1.389,-1.389 z"
   id="path74" />
	<path
   style="fill:#f5f5f5"
   d="M 338.993,308.966 H 316.03 c -0.767,0 -1.388,0.622 -1.388,1.389 v 3.081 c 0,0.767 0.621,1.388 1.388,1.388 h 22.963 c 0.767,0 1.389,-0.621 1.389,-1.388 v -3.081 c -0.001,-0.767 -0.623,-1.389 -1.389,-1.389 z m -28.561,0 h -23 c -0.767,0 -1.389,0.622 -1.389,1.389 v 3.081 c 0,0.767 0.622,1.388 1.389,1.388 h 23 c 0.767,0 1.389,-0.621 1.389,-1.388 v -3.081 c 0,-0.767 -0.621,-1.389 -1.389,-1.389 z"
   id="path76" />
	<path
   style="fill:#f5f5f5"
   d="m 281.8,308.966 h -22.965 c -0.767,0 -1.388,0.622 -1.388,1.389 v 3.081 c 0,0.767 0.621,1.388 1.388,1.388 H 281.8 c 0.767,0 1.389,-0.621 1.389,-1.388 v -3.081 c -0.001,-0.767 -0.622,-1.389 -1.389,-1.389 z m -28.597,0 h -22.965 c -0.767,0 -1.389,0.622 -1.389,1.389 v 3.081 c 0,0.767 0.621,1.388 1.389,1.388 h 22.965 c 0.767,0 1.388,-0.621 1.388,-1.388 v -3.081 c 0,-0.767 -0.621,-1.389 -1.388,-1.389 z"
   id="path78" />
	<path
   style="fill:#f5f5f5"
   d="M 224.605,308.966 H 201.64 c -0.767,0 -1.388,0.622 -1.388,1.389 v 3.081 c 0,0.767 0.621,1.388 1.388,1.388 h 22.965 c 0.767,0 1.389,-0.621 1.389,-1.388 v -3.081 c 0,-0.767 -0.622,-1.389 -1.389,-1.389 z m -28.635,0 h -22.927 c -0.767,0 -1.389,0.622 -1.389,1.389 v 3.081 c 0,0.767 0.622,1.388 1.389,1.388 h 22.927 c 0.767,0 1.388,-0.621 1.388,-1.388 v -3.081 c 0.001,-0.767 -0.621,-1.389 -1.388,-1.389 z"
   id="path80" />
	<path
   style="fill:#f5f5f5"
   d="m 167.411,308.966 h -22.965 c -0.767,0 -1.389,0.622 -1.389,1.389 v 3.081 c 0,0.767 0.621,1.388 1.389,1.388 h 22.965 c 0.767,0 1.389,-0.621 1.389,-1.388 v -3.081 c 0,-0.767 -0.622,-1.389 -1.389,-1.389 z m -28.635,0 h -22.925 c -0.767,0 -1.389,0.622 -1.389,1.389 v 3.081 c 0,0.767 0.621,1.388 1.389,1.388 h 22.925 c 0.767,0 1.389,-0.621 1.389,-1.388 v -3.081 c -0.001,-0.767 -0.622,-1.389 -1.389,-1.389 z"
   id="path82" />
	<path
   style="fill:#f5f5f5"
   d="M 110.18,308.966 H 87.254 c -0.767,0 -1.388,0.622 -1.388,1.389 v 3.081 c 0,0.767 0.621,1.388 1.388,1.388 h 22.927 c 0.767,0 1.389,-0.621 1.389,-1.388 v -3.081 c 0,-0.767 -0.623,-1.389 -1.39,-1.389 z m -28.597,0 H 58.618 c -0.767,0 -1.388,0.622 -1.388,1.389 v 3.081 c 0,0.767 0.621,1.388 1.388,1.388 h 22.965 c 0.767,0 1.389,-0.621 1.389,-1.388 v -3.081 c 0,-0.767 -0.622,-1.389 -1.389,-1.389 z"
   id="path84" />
	<path
   style="fill:#f5f5f5"
   d="M 52.986,308.966 H 30.022 c -0.767,0 -1.389,0.622 -1.389,1.389 v 3.081 c 0,0.767 0.621,1.388 1.389,1.388 h 22.965 c 0.767,0 1.388,-0.621 1.388,-1.388 v -3.081 c 0,-0.767 -0.622,-1.389 -1.389,-1.389 z m -28.598,0 h -23 C 0.621,308.966 0,309.588 0,310.355 v 3.081 c 0,0.767 0.621,1.388 1.388,1.388 h 23 c 0.767,0 1.389,-0.621 1.389,-1.388 v -3.081 c 10e-4,-0.767 -0.621,-1.389 -1.389,-1.389 z"
   id="path86" />
</g>
<g
   id="g98"
   transform="translate(0,-88.276)">
	<path
   style="fill:#ff4b55"
   d="m 248.698,214.275 c 2.62,0.698 5.414,-0.071 7.334,-2.026 2.898,2.934 7.647,3.004 10.649,0.141 1.956,-1.886 2.759,-4.75 2.06,-7.334 -2.548,4.121 -7.925,5.448 -12.046,2.863 -0.21,-0.141 -0.489,-0.28 -0.663,-0.419 -3.875,2.863 -9.357,2.095 -12.291,-1.745 -0.106,-0.211 -0.314,-0.49 -0.454,-0.698 -1.048,4.05 1.396,8.239 5.411,9.218 z"
   id="path90" />
	<path
   style="fill:#ff4b55"
   d="m 264.966,295.855 c 9.386,-5.153 17.219,-13.272 21.514,-23.966 7.314,-18.33 2.708,-39.02 -11.283,-52.44 -0.481,-0.461 -1.212,0.156 -0.863,0.724 13.799,22.503 8.363,52.074 -12.99,68.278 l 1.021,-65.367 c 0.014,-0.887 -0.382,-1.732 -1.071,-2.291 l -3.473,-2.807 c -1.064,-0.86 -2.584,-0.855 -3.642,0.01 l -3.422,2.797 c -0.683,0.558 -1.073,1.398 -1.059,2.28 l 0.992,65.414 c -21.356,-16.195 -26.804,-45.794 -13.026,-68.312 0.348,-0.568 -0.383,-1.185 -0.863,-0.723 -13.964,13.42 -18.599,34.109 -11.286,52.438 4.295,10.692 12.127,18.812 21.516,23.965 -5.975,2.047 -12.255,3.134 -18.605,2.952 -0.671,-0.019 -0.806,0.925 -0.163,1.119 8.068,2.449 16.366,2.617 24.168,0.868 l 3.063,5.943 c 0.212,0.41 0.799,0.412 1.012,10e-4 l 3.084,-5.941 c 7.802,1.746 16.103,1.575 24.177,-0.874 0.642,-0.194 0.508,-1.138 -0.163,-1.119 -6.358,0.184 -12.653,-0.902 -18.638,-2.949 z"
   id="path92" />
	<path
   style="fill:#ff4b55"
   d="m 303.171,235.086 c -4.804,-8.975 -12.782,-15.778 -22.28,-19.111 -0.595,-0.209 -1.059,0.577 -0.573,0.978 20.966,17.271 25.169,48.032 8.954,70.302 -0.839,1.118 -1.747,2.305 -2.62,3.281 19.907,-10.684 27.275,-35.546 16.519,-55.45 z"
   id="path94" />
	<path
   style="fill:#ff4b55"
   d="m 222.755,287.255 c -16.213,-22.27 -12.044,-53.03 8.918,-70.301 0.487,-0.401 0.022,-1.186 -0.573,-0.978 -9.485,3.334 -17.408,10.135 -22.243,19.11 -10.824,19.904 -3.386,44.765 16.552,55.449 -0.942,-0.976 -1.85,-2.162 -2.654,-3.28 z"
   id="path96" />
</g>
<g
   id="g100">
</g>
<g
   id="g102">
</g>
<g
   id="g104">
</g>
<g
   id="g106">
</g>
<g
   id="g108">
</g>
<g
   id="g110">
</g>
<g
   id="g112">
</g>
<g
   id="g114">
</g>
<g
   id="g116">
</g>
<g
   id="g118">
</g>
<g
   id="g120">
</g>
<g
   id="g122">
</g>
<g
   id="g124">
</g>
<g
   id="g126">
</g>
<g
   id="g128">
</g>
</svg>
