<?xml version="1.0" encoding="UTF-8" standalone="no"?>
<svg
   xmlns:dc="http://purl.org/dc/elements/1.1/"
   xmlns:cc="http://creativecommons.org/ns#"
   xmlns:rdf="http://www.w3.org/1999/02/22-rdf-syntax-ns#"
   xmlns:svg="http://www.w3.org/2000/svg"
   xmlns="http://www.w3.org/2000/svg"
   xmlns:sodipodi="http://sodipodi.sourceforge.net/DTD/sodipodi-0.dtd"
   xmlns:inkscape="http://www.inkscape.org/namespaces/inkscape"
   version="1.1"
   id="Layer_1"
   x="0px"
   y="0px"
   viewBox="0 0 512 335.45001"
   xml:space="preserve"
   sodipodi:docname="it-88.svg"
   width="512"
   height="335.45001"
   inkscape:version="1.0.1 (c497b03c, 2020-09-10)"><metadata
   id="metadata411"><rdf:RDF><cc:Work
       rdf:about=""><dc:format>image/svg+xml</dc:format><dc:type
         rdf:resource="http://purl.org/dc/dcmitype/StillImage" /><dc:title></dc:title></cc:Work></rdf:RDF></metadata><defs
   id="defs409" /><sodipodi:namedview
   pagecolor="#ffffff"
   bordercolor="#666666"
   borderopacity="1"
   objecttolerance="10"
   gridtolerance="10"
   guidetolerance="10"
   inkscape:pageopacity="0"
   inkscape:pageshadow="2"
   inkscape:window-width="1091"
   inkscape:window-height="739"
   id="namedview407"
   showgrid="false"
   inkscape:zoom="1.1308594"
   inkscape:cx="256"
   inkscape:cy="256"
   inkscape:window-x="0"
   inkscape:window-y="23"
   inkscape:window-maximized="0"
   inkscape:current-layer="Layer_1" />
<path
   style="fill:#f5f5f5"
   d="M 473.654,335.448 H 38.345 C 17.167,335.448 0,318.28 0,297.103 V 38.345 C 0,17.168 17.167,0 38.345,0 h 435.309 c 21.177,0 38.345,17.167 38.345,38.345 v 258.758 c 0,21.177 -17.168,38.345 -38.345,38.345 z"
   id="path362" />
<polygon
   style="fill:#ff4b55"
   points="273.655,88.276 238.344,88.276 238.344,238.345 0,238.345 0,273.655 238.344,273.655 238.344,423.724 273.655,423.724 273.655,273.655 512,273.655 512,238.345 273.655,238.345 "
   id="polygon364"
   transform="translate(0,-88.276)" />
<g
   id="g374"
   transform="translate(0,-88.276)">
	<path
   style="fill:#464655"
   d="m 165.137,167.355 c 1.482,-2.965 -6.714,-12.568 -6.28,-14.744 0.435,-2.176 1.406,-5.51 -2.076,-18.13 -3.481,-12.62 -13.94,-15.669 -26.56,-16.974 -12.62,-1.305 -29.304,7.745 -33.072,17.624 -2.274,5.962 -0.736,12.622 1.65,18.961 -1.071,0.116 -3.122,0.175 -4.634,-0.942 -1.204,-0.897 -1.863,-2.421 -1.978,-4.522 -0.422,-8.003 3.944,-21.112 3.991,-21.241 l 0.327,-0.979 -13.707,-4.834 0.806,6.432 -10.577,-2.258 0.646,1.774 c 0.931,2.557 9.124,25.035 10.227,27.02 1.809,3.243 4.264,5.318 7.296,6.161 1.088,0.306 2.162,0.422 3.182,0.422 0.131,0 0.241,-0.034 0.37,-0.038 -0.621,1.143 -1.877,2.584 -5.075,4.07 -3.752,1.729 -7.55,3.593 -7.966,10.596 l -0.113,0.058 c 0.034,0.065 0.073,0.1 0.107,0.164 -0.09,1.85 -0.006,3.965 0.437,6.622 1.101,6.568 3.338,13.014 3.434,13.285 l 0.217,0.619 0.653,0.075 c 0.047,0 4.352,0.516 5.671,5.038 0.761,2.617 3.161,4.604 5.521,4.604 0.061,0 0.122,-0.007 0.183,-0.007 1.02,-0.047 3.488,-0.578 4.29,-4.576 l 0.116,-0.578 -6.483,-5.965 2.173,-7.165 -1.034,-0.279 c -0.061,-0.015 -4.354,-1.308 -8.798,-6.154 -0.412,-1.996 -0.363,-3.438 0.169,-4.256 0.605,-0.918 1.89,-1.176 3.379,-1.475 1.387,-0.279 2.822,-0.564 3.985,-1.469 3.737,-2.921 5.828,-7.944 6.888,-11.383 0.574,1.3 1.124,2.563 1.611,3.767 3.699,9.139 -6.527,19.582 -6.527,19.582 6.527,2.611 7.18,4.133 16.319,15.448 9.139,11.315 17.406,6.527 17.406,6.527 0,0 -1.176,-7.244 4.83,-10.302 6.007,-3.058 6.143,-6.989 6.143,-6.989 14.99,3.522 15.891,-2.621 15.235,-4.751 -0.655,-2.129 0.164,-5.487 0.164,-5.487 0,0 1.51,0.095 2.621,-0.655 1.761,-1.187 0.574,-4.013 0.574,-4.013 1.72,-0.82 2.376,-2.621 1.065,-4.014 -1.311,-1.393 -1.229,-2.948 -1.229,-2.948 0,0 3.441,0.244 4.423,-1.721 z m -73.378,-8.666 c -2.475,-0.686 -4.508,-2.428 -6.038,-5.167 -0.727,-1.305 -5.821,-15.02 -9.444,-24.947 l 7.601,1.62 1.429,11.407 2.067,-0.258 -2.088,-16.672 8.595,3.026 c -1.034,3.271 -4.161,13.857 -3.774,21.037 0.142,2.754 1.088,4.8 2.808,6.085 1.557,1.163 3.427,1.434 4.855,1.434 0.842,0 1.415,-0.082 1.802,-0.15 0.213,0.524 0.433,1.039 0.652,1.557 -1.207,0.594 -4.748,2.082 -8.465,1.028 z m 8.167,43.094 c -0.292,1.026 -0.911,2.284 -2.202,2.339 -0.028,0 -0.061,0 -0.095,0 -1.421,0 -3.019,-1.394 -3.516,-3.094 -0.025,-0.087 -0.077,-0.132 -0.105,-0.217 l 1.06,-3.5 z m -4.61,-12.47 -2.656,8.743 c -1.722,-2.338 -4.137,-3.165 -5.306,-3.438 -0.572,-1.72 -2.271,-7.079 -3.155,-12.361 -0.185,-1.116 -0.276,-2.066 -0.361,-3.004 4.4,6.44 9.36,9.219 11.478,10.06 z m -0.987,-16.665 c -0.768,0.598 -1.903,0.823 -3.107,1.067 -1.707,0.34 -3.63,0.727 -4.718,2.38 -0.397,0.605 -0.594,1.363 -0.695,2.207 -0.694,-0.981 -1.405,-1.811 -2.055,-3.005 0.46,-5.318 3.354,-6.664 6.795,-8.253 4.961,-2.296 6.112,-4.743 6.603,-6.205 1.768,-0.345 3.093,-0.893 3.879,-1.265 0.039,0.09 0.078,0.174 0.118,0.265 -0.547,2.412 -2.429,9.38 -6.82,12.809 z m 11.669,-9.389 -4.259,-9.174 50.13,-23.263 c 3.277,6.226 3.605,13.597 3.605,13.597 z"
   id="path366" />
	<path
   style="fill:#464655"
   d="m 438.793,167.355 c 1.482,-2.965 -6.714,-12.568 -6.28,-14.744 0.435,-2.176 1.406,-5.51 -2.076,-18.13 -3.481,-12.62 -13.94,-15.669 -26.56,-16.974 -12.62,-1.305 -29.304,7.745 -33.072,17.624 -2.274,5.962 -0.736,12.622 1.65,18.961 -1.071,0.116 -3.122,0.175 -4.634,-0.942 -1.204,-0.897 -1.863,-2.421 -1.978,-4.522 -0.422,-8.003 3.944,-21.112 3.991,-21.241 l 0.327,-0.979 -13.707,-4.834 0.806,6.432 -10.577,-2.258 0.646,1.774 c 0.931,2.557 9.124,25.035 10.227,27.02 1.809,3.243 4.264,5.318 7.296,6.161 1.088,0.306 2.163,0.422 3.182,0.422 0.131,0 0.241,-0.034 0.37,-0.038 -0.621,1.143 -1.877,2.584 -5.075,4.07 -3.752,1.729 -7.55,3.593 -7.966,10.596 l -0.113,0.058 c 0.034,0.065 0.073,0.1 0.107,0.164 -0.09,1.85 -0.006,3.965 0.437,6.622 1.101,6.568 3.339,13.014 3.434,13.285 l 0.217,0.619 0.653,0.075 c 0.047,0 4.352,0.516 5.671,5.038 0.761,2.617 3.161,4.604 5.521,4.604 0.061,0 0.122,-0.007 0.183,-0.007 1.02,-0.047 3.488,-0.578 4.29,-4.576 l 0.116,-0.578 -6.483,-5.965 2.173,-7.165 -1.034,-0.279 c -0.061,-0.015 -4.354,-1.308 -8.798,-6.154 -0.412,-1.996 -0.363,-3.438 0.169,-4.256 0.605,-0.918 1.89,-1.176 3.379,-1.475 1.387,-0.279 2.822,-0.564 3.985,-1.469 3.737,-2.921 5.828,-7.944 6.888,-11.383 0.574,1.3 1.124,2.563 1.611,3.767 3.699,9.139 -6.527,19.582 -6.527,19.582 6.527,2.611 7.18,4.133 16.319,15.448 9.139,11.314 17.407,6.527 17.407,6.527 0,0 -1.176,-7.244 4.83,-10.302 6.007,-3.058 6.143,-6.989 6.143,-6.989 14.99,3.522 15.891,-2.621 15.235,-4.751 -0.655,-2.129 0.164,-5.487 0.164,-5.487 0,0 1.51,0.095 2.621,-0.655 1.761,-1.187 0.574,-4.013 0.574,-4.013 1.72,-0.82 2.376,-2.621 1.065,-4.014 -1.311,-1.393 -1.229,-2.948 -1.229,-2.948 0,0 3.439,0.244 4.422,-1.721 z m -73.379,-8.666 c -2.475,-0.686 -4.508,-2.428 -6.038,-5.167 -0.727,-1.305 -5.821,-15.02 -9.444,-24.947 l 7.601,1.62 1.429,11.407 2.067,-0.258 -2.088,-16.672 8.595,3.026 c -1.034,3.271 -4.161,13.857 -3.774,21.037 0.142,2.754 1.088,4.8 2.808,6.085 1.557,1.163 3.427,1.434 4.855,1.434 0.842,0 1.415,-0.082 1.802,-0.15 0.213,0.524 0.433,1.039 0.652,1.557 -1.208,0.594 -4.748,2.082 -8.465,1.028 z m 8.166,43.094 c -0.292,1.026 -0.911,2.284 -2.202,2.339 -0.028,0 -0.061,0 -0.095,0 -1.421,0 -3.019,-1.394 -3.516,-3.094 -0.025,-0.087 -0.077,-0.132 -0.105,-0.217 l 1.06,-3.5 z m -4.61,-12.47 -2.656,8.743 c -1.723,-2.338 -4.137,-3.165 -5.306,-3.438 -0.572,-1.72 -2.271,-7.079 -3.155,-12.361 -0.185,-1.116 -0.276,-2.066 -0.361,-3.004 4.401,6.44 9.361,9.219 11.478,10.06 z m -0.985,-16.665 c -0.768,0.598 -1.903,0.823 -3.107,1.067 -1.707,0.34 -3.63,0.727 -4.718,2.38 -0.397,0.605 -0.594,1.363 -0.695,2.207 -0.694,-0.981 -1.405,-1.811 -2.055,-3.005 0.46,-5.318 3.354,-6.664 6.795,-8.253 4.961,-2.296 6.112,-4.743 6.603,-6.205 1.768,-0.345 3.093,-0.893 3.879,-1.265 0.039,0.09 0.078,0.174 0.118,0.265 -0.548,2.412 -2.43,9.38 -6.82,12.809 z m 11.668,-9.389 -4.259,-9.174 50.13,-23.263 c 3.277,6.226 3.605,13.597 3.605,13.597 z"
   id="path368" />
	<path
   style="fill:#464655"
   d="m 165.137,352.734 c 1.482,-2.965 -6.714,-12.568 -6.28,-14.744 0.435,-2.176 1.406,-5.51 -2.076,-18.13 -3.481,-12.62 -13.94,-15.669 -26.56,-16.974 -12.62,-1.305 -29.304,7.745 -33.072,17.624 -2.274,5.962 -0.736,12.622 1.65,18.961 -1.071,0.116 -3.122,0.175 -4.634,-0.942 -1.204,-0.897 -1.863,-2.421 -1.978,-4.522 -0.422,-8.003 3.944,-21.112 3.991,-21.241 l 0.327,-0.979 -13.707,-4.834 0.806,6.432 -10.577,-2.258 0.646,1.774 c 0.931,2.557 9.124,25.035 10.227,27.02 1.809,3.243 4.264,5.318 7.296,6.161 1.088,0.306 2.162,0.422 3.182,0.422 0.131,0 0.241,-0.034 0.37,-0.038 -0.621,1.143 -1.877,2.584 -5.075,4.069 -3.752,1.729 -7.55,3.593 -7.966,10.596 l -0.113,0.059 c 0.034,0.065 0.073,0.1 0.107,0.164 -0.09,1.85 -0.006,3.965 0.437,6.622 1.101,6.568 3.338,13.014 3.434,13.285 l 0.217,0.619 0.653,0.075 c 0.047,0 4.352,0.516 5.671,5.038 0.761,2.617 3.161,4.604 5.521,4.604 0.061,0 0.122,-0.007 0.183,-0.007 1.02,-0.047 3.488,-0.578 4.29,-4.576 l 0.116,-0.578 -6.483,-5.965 2.173,-7.165 -1.034,-0.279 c -0.061,-0.015 -4.354,-1.308 -8.798,-6.154 -0.412,-1.996 -0.363,-3.438 0.169,-4.256 0.605,-0.918 1.89,-1.176 3.379,-1.475 1.387,-0.279 2.822,-0.564 3.985,-1.469 3.737,-2.921 5.828,-7.944 6.888,-11.383 0.574,1.3 1.124,2.563 1.611,3.767 3.699,9.139 -6.527,19.582 -6.527,19.582 6.527,2.611 7.18,4.133 16.319,15.448 9.139,11.315 17.406,6.527 17.406,6.527 0,0 -1.176,-7.244 4.83,-10.302 6.007,-3.058 6.143,-6.989 6.143,-6.989 14.99,3.522 15.891,-2.621 15.235,-4.751 -0.655,-2.129 0.164,-5.487 0.164,-5.487 0,0 1.51,0.095 2.621,-0.655 1.761,-1.187 0.574,-4.013 0.574,-4.013 1.72,-0.819 2.376,-2.621 1.065,-4.014 -1.311,-1.393 -1.229,-2.948 -1.229,-2.948 0,0 3.441,0.244 4.423,-1.721 z m -73.378,-8.666 c -2.475,-0.686 -4.508,-2.428 -6.038,-5.167 -0.727,-1.305 -5.821,-15.02 -9.444,-24.947 l 7.601,1.62 1.429,11.407 2.067,-0.258 -2.088,-16.672 8.595,3.026 c -1.034,3.271 -4.161,13.857 -3.774,21.037 0.142,2.754 1.088,4.8 2.808,6.086 1.557,1.163 3.427,1.434 4.855,1.434 0.842,0 1.415,-0.082 1.802,-0.15 0.213,0.524 0.433,1.039 0.652,1.557 -1.207,0.592 -4.748,2.081 -8.465,1.027 z m 8.167,43.094 c -0.292,1.026 -0.911,2.284 -2.202,2.339 -0.028,0 -0.061,0 -0.095,0 -1.421,0 -3.019,-1.394 -3.516,-3.094 -0.025,-0.087 -0.077,-0.132 -0.105,-0.217 l 1.06,-3.5 z m -4.61,-12.47 -2.656,8.743 c -1.722,-2.338 -4.137,-3.165 -5.306,-3.438 -0.572,-1.72 -2.271,-7.079 -3.155,-12.361 -0.185,-1.116 -0.276,-2.066 -0.361,-3.004 4.4,6.44 9.36,9.219 11.478,10.06 z m -0.987,-16.664 c -0.768,0.598 -1.903,0.823 -3.107,1.067 -1.707,0.34 -3.63,0.727 -4.718,2.38 -0.397,0.605 -0.594,1.363 -0.695,2.207 -0.694,-0.981 -1.405,-1.811 -2.055,-3.005 0.46,-5.318 3.354,-6.664 6.795,-8.253 4.961,-2.296 6.112,-4.743 6.603,-6.205 1.768,-0.345 3.093,-0.893 3.879,-1.265 0.039,0.09 0.078,0.174 0.118,0.265 -0.547,2.411 -2.429,9.379 -6.82,12.809 z m 11.669,-9.39 -4.259,-9.174 50.13,-23.263 c 3.277,6.226 3.605,13.597 3.605,13.597 z"
   id="path370" />
	<path
   style="fill:#464655"
   d="m 438.793,352.734 c 1.482,-2.965 -6.714,-12.568 -6.28,-14.744 0.435,-2.176 1.406,-5.51 -2.076,-18.13 -3.481,-12.62 -13.94,-15.669 -26.56,-16.974 -12.62,-1.305 -29.304,7.745 -33.072,17.624 -2.274,5.962 -0.736,12.622 1.65,18.961 -1.071,0.116 -3.122,0.175 -4.634,-0.942 -1.204,-0.897 -1.863,-2.421 -1.978,-4.522 -0.422,-8.003 3.944,-21.112 3.991,-21.241 l 0.327,-0.979 -13.707,-4.834 0.806,6.432 -10.577,-2.258 0.646,1.774 c 0.931,2.557 9.124,25.035 10.227,27.02 1.809,3.243 4.264,5.318 7.296,6.161 1.088,0.306 2.163,0.422 3.182,0.422 0.131,0 0.241,-0.034 0.37,-0.038 -0.621,1.143 -1.877,2.584 -5.075,4.069 -3.752,1.729 -7.55,3.593 -7.966,10.596 l -0.113,0.059 c 0.034,0.065 0.073,0.1 0.107,0.164 -0.09,1.85 -0.006,3.965 0.437,6.622 1.101,6.568 3.339,13.014 3.434,13.285 l 0.217,0.619 0.653,0.075 c 0.047,0 4.352,0.516 5.671,5.038 0.761,2.617 3.161,4.604 5.521,4.604 0.061,0 0.122,-0.007 0.183,-0.007 1.02,-0.047 3.488,-0.578 4.29,-4.576 l 0.116,-0.578 -6.483,-5.965 2.173,-7.165 -1.034,-0.279 c -0.061,-0.015 -4.354,-1.308 -8.798,-6.154 -0.412,-1.996 -0.363,-3.438 0.169,-4.256 0.605,-0.918 1.89,-1.176 3.379,-1.475 1.387,-0.279 2.822,-0.564 3.985,-1.469 3.737,-2.921 5.828,-7.944 6.888,-11.383 0.574,1.3 1.124,2.563 1.611,3.767 3.699,9.139 -6.527,19.582 -6.527,19.582 6.527,2.611 7.18,4.133 16.319,15.448 9.139,11.314 17.407,6.527 17.407,6.527 0,0 -1.176,-7.244 4.83,-10.302 6.007,-3.058 6.143,-6.989 6.143,-6.989 14.99,3.522 15.891,-2.621 15.235,-4.751 -0.655,-2.129 0.164,-5.487 0.164,-5.487 0,0 1.51,0.095 2.621,-0.655 1.761,-1.187 0.574,-4.013 0.574,-4.013 1.72,-0.819 2.376,-2.621 1.065,-4.014 -1.311,-1.393 -1.229,-2.948 -1.229,-2.948 0,0 3.439,0.244 4.422,-1.721 z m -73.379,-8.666 c -2.475,-0.686 -4.508,-2.428 -6.038,-5.167 -0.727,-1.305 -5.821,-15.02 -9.444,-24.947 l 7.601,1.62 1.429,11.407 2.067,-0.258 -2.088,-16.672 8.595,3.026 c -1.034,3.271 -4.161,13.857 -3.774,21.037 0.142,2.754 1.088,4.8 2.808,6.086 1.557,1.163 3.427,1.434 4.855,1.434 0.842,0 1.415,-0.082 1.802,-0.15 0.213,0.524 0.433,1.039 0.652,1.557 -1.208,0.592 -4.748,2.081 -8.465,1.027 z m 8.166,43.094 c -0.292,1.026 -0.911,2.284 -2.202,2.339 -0.028,0 -0.061,0 -0.095,0 -1.421,0 -3.019,-1.394 -3.516,-3.094 -0.025,-0.087 -0.077,-0.132 -0.105,-0.217 l 1.06,-3.5 z m -4.61,-12.47 -2.656,8.743 c -1.723,-2.338 -4.137,-3.165 -5.306,-3.438 -0.572,-1.72 -2.271,-7.079 -3.155,-12.361 -0.185,-1.116 -0.276,-2.066 -0.361,-3.004 4.401,6.44 9.361,9.219 11.478,10.06 z m -0.985,-16.664 c -0.768,0.598 -1.903,0.823 -3.107,1.067 -1.707,0.34 -3.63,0.727 -4.718,2.38 -0.397,0.605 -0.594,1.363 -0.695,2.207 -0.694,-0.981 -1.405,-1.811 -2.055,-3.005 0.46,-5.318 3.354,-6.664 6.795,-8.253 4.961,-2.296 6.112,-4.743 6.603,-6.205 1.768,-0.345 3.093,-0.893 3.879,-1.265 0.039,0.09 0.078,0.174 0.118,0.265 -0.548,2.411 -2.43,9.379 -6.82,12.809 z m 11.668,-9.39 -4.259,-9.174 50.13,-23.263 c 3.277,6.226 3.605,13.597 3.605,13.597 z"
   id="path372" />
</g>
<g
   id="g376"
   transform="translate(0,-88.276)">
</g>
<g
   id="g378"
   transform="translate(0,-88.276)">
</g>
<g
   id="g380"
   transform="translate(0,-88.276)">
</g>
<g
   id="g382"
   transform="translate(0,-88.276)">
</g>
<g
   id="g384"
   transform="translate(0,-88.276)">
</g>
<g
   id="g386"
   transform="translate(0,-88.276)">
</g>
<g
   id="g388"
   transform="translate(0,-88.276)">
</g>
<g
   id="g390"
   transform="translate(0,-88.276)">
</g>
<g
   id="g392"
   transform="translate(0,-88.276)">
</g>
<g
   id="g394"
   transform="translate(0,-88.276)">
</g>
<g
   id="g396"
   transform="translate(0,-88.276)">
</g>
<g
   id="g398"
   transform="translate(0,-88.276)">
</g>
<g
   id="g400"
   transform="translate(0,-88.276)">
</g>
<g
   id="g402"
   transform="translate(0,-88.276)">
</g>
<g
   id="g404"
   transform="translate(0,-88.276)">
</g>
</svg>
