<?xml version="1.0" encoding="UTF-8" standalone="no"?>
<svg
   xmlns:dc="http://purl.org/dc/elements/1.1/"
   xmlns:cc="http://creativecommons.org/ns#"
   xmlns:rdf="http://www.w3.org/1999/02/22-rdf-syntax-ns#"
   xmlns:svg="http://www.w3.org/2000/svg"
   xmlns="http://www.w3.org/2000/svg"
   xmlns:sodipodi="http://sodipodi.sourceforge.net/DTD/sodipodi-0.dtd"
   xmlns:inkscape="http://www.inkscape.org/namespaces/inkscape"
   version="1.1"
   id="Layer_1"
   x="0px"
   y="0px"
   viewBox="0 0 512 335.45001"
   xml:space="preserve"
   sodipodi:docname="it-82.svg"
   width="512"
   height="335.45001"
   inkscape:version="1.0.1 (c497b03c, 2020-09-10)"><metadata
   id="metadata159"><rdf:RDF><cc:Work
       rdf:about=""><dc:format>image/svg+xml</dc:format><dc:type
         rdf:resource="http://purl.org/dc/dcmitype/StillImage" /><dc:title></dc:title></cc:Work></rdf:RDF></metadata><defs
   id="defs157" /><sodipodi:namedview
   pagecolor="#ffffff"
   bordercolor="#666666"
   borderopacity="1"
   objecttolerance="10"
   gridtolerance="10"
   guidetolerance="10"
   inkscape:pageopacity="0"
   inkscape:pageshadow="2"
   inkscape:window-width="1250"
   inkscape:window-height="866"
   id="namedview155"
   showgrid="false"
   inkscape:zoom="1.640625"
   inkscape:cx="256"
   inkscape:cy="256"
   inkscape:window-x="0"
   inkscape:window-y="23"
   inkscape:window-maximized="0"
   inkscape:current-layer="Layer_1" />
<path
   style="fill:#ffe15a"
   d="m 0,38.345 v 258.76 c 0,21.177 17.167,38.345 38.345,38.345 h 435.31 c 9.386,0 17.98,-3.377 24.644,-8.975 L 13.7,8.976 C 5.326,16.01 0,26.553 0,38.345 Z"
   id="path10" />
<path
   style="fill:#ff4b55"
   d="M 473.655,0 H 38.345 C 28.959,0 20.365,3.378 13.701,8.977 L 498.3,326.473 c 8.374,-7.034 13.7,-17.578 13.7,-29.369 V 38.345 C 512,17.167 494.833,0 473.655,0 Z"
   id="path12" />
<g
   id="g110"
   transform="translate(0,-88.275)">
	<path
   style="fill:#ffbe55"
   d="m 272.821,232.352 c 0.988,-0.794 1.805,-1.777 1.495,-2.604 -0.258,-0.686 -1.533,-1.323 -2.883,-1.997 -2.506,-1.252 -5.853,-2.97 -6.964,-7.084 -0.132,-0.013 -0.255,-0.001 -0.392,-0.026 -1.1,-0.204 -1.786,0.174 -2.582,2.759 -0.146,0.471 -0.456,1.228 -0.867,2.094 0.824,0.546 2.882,1.815 4.887,2.271 3.972,0.899 6.418,2.434 7.306,4.587 z"
   id="path14" />
	<path
   style="fill:#ffbe55"
   d="m 257.407,230.602 c 1.186,1.082 2.275,2.31 3.346,3.681 0.062,0.079 0.128,0.158 0.191,0.236 2.661,-2.04 6.042,-2.052 8.397,-1.667 -0.683,-0.708 -2.013,-1.402 -4.533,-1.976 -2.337,-0.53 -4.601,-1.853 -5.72,-2.572 -0.519,0.828 -1.084,1.615 -1.681,2.298 z"
   id="path16" />
	<path
   style="fill:#ffbe55"
   d="m 270.891,242.311 c 1.246,0.721 3.751,2.343 5.92,4.683 0.32,-1.8 0.225,-4.19 -1.466,-6.293 -1.445,0.8 -2.991,1.306 -4.454,1.61 z"
   id="path18" />
	<path
   style="fill:#ffbe55"
   d="m 250.152,221.281 -0.418,0.508 c -2.081,2.545 -4.442,5.319 -6.698,7.581 1.373,-0.648 2.991,-1.122 4.669,-1.375 0.6,-0.961 2.428,-3.51 4.674,-6.581 -0.542,-0.346 -1.617,-0.872 -2.227,-0.133 z"
   id="path20" />
	<path
   style="fill:#ffbe55"
   d="m 241.993,234.177 c 0.01,0.017 0.152,0.191 0.55,0.341 0.691,0.266 1.972,0.358 3.308,-0.258 3.89,-1.81 7.818,-0.82 11.679,2.916 0.011,0.011 0.007,0.029 0.018,0.04 0.011,0.011 0.029,0.008 0.039,0.019 0.023,0.023 1.322,1.326 3.665,2.52 -1.126,-1.183 -2.137,-2.389 -3.011,-3.507 -1.4,-1.789 -2.611,-3.332 -4.052,-4.252 -3.657,-2.322 -10.027,-0.287 -11.828,1.614 -0.298,0.313 -0.368,0.518 -0.368,0.567 z"
   id="path22" />
	<path
   style="fill:#ffbe55"
   d="m 272.238,236.488 c 0,0 -0.009,0.001 -0.012,0.003 -0.201,0.094 -0.419,0.14 -0.644,0.145 -0.01,0 -0.02,0.007 -0.03,0.007 -0.023,0 -0.043,-0.021 -0.067,-0.022 -0.163,-0.007 -0.329,-0.018 -0.491,-0.077 -0.054,-0.02 -4.994,-1.76 -8.01,0.424 0.844,0.949 1.8,1.825 2.867,2.624 1.482,0.034 6.614,-0.054 9.537,-2.785 1.476,-1.378 1.601,-2.884 1.353,-4.068 -1.091,1.706 -3.022,3.044 -4.503,3.749 z"
   id="path24" />
	<path
   style="fill:#ffbe55"
   d="m 227.19,234.863 c -0.249,-0.361 -0.522,-0.674 -0.736,-1.101 -0.352,-0.703 -0.537,-1.449 -0.724,-2.193 -1.135,1.816 -2.33,4.642 -1.603,7.77 0.855,-2.024 2.146,-3.562 3.063,-4.476 z"
   id="path26" />
	<path
   style="fill:#ffbe55"
   d="m 254.778,228.773 c 1.438,-1.502 3.208,-4.836 3.663,-6.315 0.437,-1.427 1.768,-5.767 6.206,-4.963 0.988,0.183 1.72,-0.445 2.167,-0.999 -1.079,-1.231 -2.49,-2.03 -3.715,-2.059 -0.915,-0.087 -1.966,0.495 -2.78,1.589 -3.992,5.379 -7.03,9.535 -8.675,11.852 1.106,0.129 2.149,0.451 3.134,0.895 z"
   id="path28" />
	<path
   style="fill:#ffbe55"
   d="m 244.471,219.091 c -2.475,3.304 -5.076,5.167 -6.973,6.528 -2.5,1.793 -3.118,2.401 -2.968,3.79 0.031,0.282 0.152,0.491 0.404,0.691 0.332,0.264 0.811,0.452 1.355,0.591 0.033,-0.017 0.054,-0.045 0.089,-0.06 2.985,-1.215 8.93,-8.479 10.886,-10.867 l 0.423,-0.516 c 2.071,-2.506 4.988,-1.503 6.583,-0.415 0.551,-0.747 1.106,-1.5 1.661,-2.25 -2.884,-3.477 -7.65,-2.569 -11.46,2.508 z"
   id="path30" />
	<path
   style="fill:#ffbe55"
   d="m 269.642,218.024 c -0.471,0.68 -1.146,1.387 -2.009,1.917 0.794,2.636 3.011,3.846 5.227,4.95 1.315,0.655 2.553,1.31 3.446,2.236 0.748,-2.678 0.651,-4.809 -0.384,-6.289 -1.519,-2.171 -4.748,-2.699 -6.28,-2.814 z"
   id="path32" />
	<path
   style="fill:#ffbe55"
   d="m 257.974,313.781 0.348,0.395 c 4.394,5.001 8.544,9.832 11.308,13.9 -0.083,-2.197 -0.233,-4.472 -0.498,-6.053 -0.009,-0.05 -0.014,-0.104 -0.017,-0.155 -1.41,-1.822 -2.929,-3.52 -4.531,-4.956 -4.683,-4.185 -7.323,-8.384 -8.8,-11.62 -0.251,2.784 0.066,6.076 2.19,8.489 z"
   id="path34" />
	<path
   style="fill:#ffbe55"
   d="m 255.726,297.638 c -0.374,-0.658 -0.714,-1.366 -0.991,-2.155 -0.002,-0.007 0,-0.013 -0.003,-0.02 -0.023,-0.009 -0.046,-0.018 -0.07,-0.025 -0.957,1.658 -2.71,2.801 -4.584,2.805 0,0 -0.007,0 -0.009,0 -0.145,0 -0.274,-0.056 -0.415,-0.068 -0.244,1.078 -0.323,2.296 0.359,2.947 0.768,0.74 2.328,0.73 3.144,0.522 0.396,-1.688 0.834,-2.884 0.89,-3.022 0.271,-0.674 0.951,-1.067 1.679,-0.984 z"
   id="path36" />
	<path
   style="fill:#ffbe55"
   d="m 252.601,304.935 c -0.169,0.011 -0.324,0.039 -0.501,0.039 -0.477,0 -0.973,-0.064 -1.471,-0.162 -0.294,1.102 -0.396,2.346 0.337,3.095 0.458,0.468 1.128,0.649 1.677,0.683 -0.12,-1.262 -0.149,-2.502 -0.042,-3.655 z"
   id="path38" />
	<path
   style="fill:#ffbe55"
   d="m 193.204,233.803 -0.008,0.004 c -3.208,1.074 -7.017,0.811 -10.349,0.158 1.943,2.996 2.686,6.607 2.773,9.964 4.185,-5.459 8.818,-7.959 12.135,-9.144 -1.706,-0.152 -3.245,-0.468 -4.551,-0.982 z"
   id="path40" />
	<path
   style="fill:#ffbe55"
   d="m 268.831,313.214 c -0.724,-0.056 -2.357,-0.263 -4.296,-0.852 0.683,0.722 1.366,1.444 2.179,2.172 5.342,4.776 9.686,12.049 12.523,17.657 1.011,-3.619 3.389,-6.723 5.945,-9.078 -7.138,-0.472 -12.722,-5.443 -16.351,-9.899 z"
   id="path42" />
	<path
   style="fill:#ffbe55"
   d="m 232.707,254.764 c -1.17,-0.258 -2.485,-0.743 -3.765,-1.529 -0.855,2.721 -1.453,5.241 -1.782,7.542 1.77,-0.163 3.108,-0.148 4.019,-0.074 0.436,-2.442 1.039,-4.531 1.528,-5.939 z"
   id="path44" />
	<path
   style="fill:#ffbe55"
   d="m 182.295,246.979 c 0.383,-3.775 0.178,-9.802 -4.01,-13.423 -0.013,-0.002 -0.025,0.003 -0.04,10e-4 -0.129,-0.017 -12.103,-1.743 -20.095,6.42 -3.006,3.071 -4.961,5.475 -6.53,7.405 -2.129,2.621 -3.657,4.502 -6.136,5.958 7.5,2.673 25.682,7.178 36.811,-6.361 z"
   id="path46" />
	<path
   style="fill:#ffbe55"
   d="m 293.54,198.594 c 3.345,1.796 8.993,3.911 13.934,1.43 0.007,-0.012 0.007,-0.025 0.013,-0.038 0.063,-0.104 6.234,-10.514 1.751,-21.023 -1.687,-3.953 -3.162,-6.678 -4.348,-8.866 -1.605,-2.966 -2.761,-5.101 -3.16,-7.95 -5.331,5.916 -16.448,20.988 -8.19,36.447 z"
   id="path48" />
	<path
   style="fill:#ffbe55"
   d="m 288.972,324.125 c -3.01,2.31 -7.26,6.583 -7.029,12.111 0.01,0.014 0.026,0.021 0.036,0.036 0.068,0.1 7.023,10.002 18.445,10.231 4.308,0.087 7.391,-0.137 9.875,-0.32 3.368,-0.249 5.783,-0.42 8.54,0.378 -3.202,-7.287 -12.385,-23.595 -29.867,-22.436 z"
   id="path50" />
	<path
   style="fill:#ffbe55"
   d="m 264.094,306.06 c -0.03,-0.063 -0.004,-0.131 -0.025,-0.195 l -2.183,1.863 c 1.429,0.889 2.938,1.433 4.228,1.773 -1.286,-1.973 -1.994,-3.387 -2.02,-3.441 z"
   id="path52" />
	<path
   style="fill:#ffbe55"
   d="m 255.089,284.756 c -0.606,-0.042 -1.207,-0.106 -1.8,-0.211 -0.458,0.74 -1.462,2.847 0.021,5.504 0.552,0.99 1.481,2.23 2.775,2.534 0.772,0.175 1.658,-0.084 2.598,-0.586 -1.915,-3.096 -3.068,-5.825 -3.594,-7.241 z"
   id="path54" />
	<path
   style="fill:#ffbe55"
   d="m 287.75,228.557 c 1.66,-1.242 4.687,-3.576 8.277,-6.645 1.077,-6.831 5.062,-13.193 8.629,-17.72 -3.628,0.503 -7.348,-0.387 -10.483,-1.727 4.195,11.23 -4.888,23.672 -6.592,25.866 0.054,0.079 0.116,0.146 0.169,0.226 z"
   id="path56" />
	<path
   style="fill:#ffbe55"
   d="m 259.524,305.542 2.892,-2.47 c -1.88,-0.648 -3.682,-1.707 -5.155,-3.317 0.22,1.016 0.829,3.11 2.263,5.787 z"
   id="path58" />
	<path
   style="fill:#ffbe55"
   d="m 223.848,261.24 c 0.365,-3.085 1.176,-6.521 2.438,-10.271 -0.809,-0.92 -1.518,-2.041 -2.082,-3.38 -1.493,3.454 -3.65,9.106 -4.482,14.581 1.516,-0.399 2.891,-0.706 4.126,-0.93 z"
   id="path60" />
	<path
   style="fill:#ffbe55"
   d="m 279.791,222.315 c 0.364,2.074 0.127,4.461 -0.871,7.223 0.6,1.067 1.107,2.552 1.108,4.166 1.265,-0.269 1.358,-1.035 1.75,-5.214 l 0.167,-1.727 c 0.158,-1.586 -0.127,-2.796 -0.849,-3.591 -0.373,-0.412 -0.837,-0.664 -1.305,-0.857 z"
   id="path62" />
	<path
   style="fill:#ffbe55"
   d="m 279.444,249.619 c 1.038,-0.215 2.354,-0.666 3.405,-1.636 1.591,-1.469 3.353,-4.58 3.064,-5.978 -0.035,-0.174 -0.079,-0.287 -0.383,-0.395 -1.154,-0.412 -1.502,-0.263 -1.5,-0.258 -0.071,0.054 -0.202,0.345 -0.279,0.516 -0.2,0.441 -0.47,1.041 -1.074,1.436 -0.921,0.6 -1.791,0.76 -2.593,0.764 0.234,2.228 -0.206,4.254 -0.64,5.551 z"
   id="path64" />
	<path
   style="fill:#ffbe55"
   d="m 220.897,235.615 c 0.22,-1.465 0.648,-2.833 1.226,-4.06 -2.906,-1.087 -9.474,-3.208 -14.839,-2.47 -7.578,1.02 -13.341,0.171 -16.998,-0.811 1.751,1.805 4.759,3.682 9.468,3.487 11.679,-0.234 18.375,2.408 21.143,3.854 z"
   id="path66" />
	<path
   style="fill:#ffbe55"
   d="m 206.236,235.158 c -2.764,2.165 -4.802,4.767 -6.195,6.988 4.294,-2.226 9.806,-4.447 13.452,-5.842 -1.964,-0.499 -4.38,-0.909 -7.257,-1.146 z"
   id="path68" />
	<path
   style="fill:#ffbe55"
   d="m 284.881,238.197 c 0.494,0.058 1.031,0.166 1.652,0.381 -0.025,-0.124 -0.045,-0.233 -0.077,-0.382 -0.195,-0.9 -0.447,-2.144 -0.383,-3.953 -10e-4,-0.012 -0.008,-0.021 -0.008,-0.033 0,-0.011 0.006,-0.021 0.006,-0.033 10e-4,-0.038 -0.006,-0.058 -0.003,-0.096 0.077,-1.678 -0.489,-3.037 -1.23,-4.043 -0.219,2.159 -0.501,3.79 -1.269,4.937 0.455,0.722 0.992,1.841 1.312,3.222 z"
   id="path70" />
	<path
   style="fill:#ffbe55"
   d="m 289.005,231.608 c 0.053,0.234 0.102,0.47 0.138,0.713 9.359,-1.27 16.006,-10.684 19.839,-18.223 -8.146,8.623 -17.298,15.545 -19.977,17.51 z"
   id="path72" />
	<path
   style="fill:#ffbe55"
   d="m 250.071,295.047 h 0.002 c 0.799,-0.004 1.614,-0.605 1.962,-1.4 -0.551,-0.584 -1.07,-1.239 -1.517,-2.04 -0.299,-0.535 -0.494,-1.049 -0.673,-1.557 -0.631,0.383 -1.33,0.929 -1.643,1.631 -0.235,0.52 -0.225,1.065 0.029,1.714 0.296,0.753 0.854,1.652 1.84,1.652 z"
   id="path74" />
	<path
   style="fill:#ffbe55"
   d="m 216.393,263.144 c 0.637,-5.751 2.733,-11.704 4.39,-15.682 -1.036,0.789 -2.329,1.598 -3.927,2.364 -0.179,0.397 -3.405,7.625 -4.631,14.783 1.474,-0.56 2.865,-1.047 4.168,-1.465 z"
   id="path76" />
	<path
   style="fill:#ffbe55"
   d="m 272.985,313.165 c 1.864,0.195 3.591,0.108 5.092,-0.104 -2.844,-0.97 -5.679,-2.255 -8.001,-3.412 0.821,1.124 1.794,2.335 2.909,3.516 z"
   id="path78" />
	<path
   style="fill:#ffbe55"
   d="m 250.147,283.672 c -7.686,-2.919 -13.749,-11.19 -15.922,-21.709 -0.639,4.083 -0.68,9.139 1.494,13.675 2.356,4.918 7.022,8.375 13.716,10.41 0.144,-0.949 0.415,-1.751 0.712,-2.376 z"
   id="path80" />
	<path
   style="fill:#ffbe55"
   d="m 291.041,235.337 c -0.17,0.036 -0.354,0.034 -0.525,0.066 2.135,2.336 10.717,12.724 13.041,30.852 1.597,0.611 3.085,1.238 4.346,1.874 -0.834,-7.376 -4.173,-26.035 -16.862,-32.792 z"
   id="path82" />
	<path
   style="fill:#ffbe55"
   d="m 208.806,265.982 c 0.666,-5.517 2.606,-11.189 3.926,-14.551 -1.336,0.417 -2.823,0.786 -4.458,1.097 -2.88,4.826 -4.626,12.064 -5.429,16.15 2.121,-1.032 4.088,-1.907 5.961,-2.696 z"
   id="path84" />
	<path
   style="fill:#ffbe55"
   d="m 260.514,294.687 c -0.8,0.467 -1.546,0.77 -2.232,0.938 1.782,3.527 5.092,4.73 7.903,5.043 -2.272,-1.8 -4.124,-3.892 -5.671,-5.981 z"
   id="path86" />
	<path
   style="fill:#ffbe55"
   d="m 237.527,234.923 c 0.395,-0.182 0.886,-0.323 1.335,-0.484 -0.008,-0.083 -0.029,-0.159 -0.03,-0.245 -1.871,-0.038 -4.317,-0.341 -5.889,-1.593 -0.917,-0.733 -1.466,-1.714 -1.589,-2.841 -0.372,-3.399 1.889,-5.022 4.281,-6.735 0.975,-0.701 2.082,-1.512 3.232,-2.541 -3.501,-0.239 -6.641,0.934 -8.59,3.468 -1.929,2.505 -2.298,5.717 -0.966,8.38 1.817,3.643 5.738,3.276 8.216,2.591 z"
   id="path88" />
	<path
   style="fill:#ffbe55"
   d="m 233.21,238.475 c -0.932,-0.107 -1.835,-0.397 -2.707,-0.788 -0.136,1.826 -0.023,4.305 1.164,5.76 0.03,-0.817 0.13,-1.646 0.37,-2.464 0.229,-0.781 0.595,-1.646 1.173,-2.508 z"
   id="path90" />
	<path
   style="fill:#ffbe55"
   d="m 245.178,239.574 c 3.802,0.299 6.72,-0.668 8.458,-1.486 -2.918,-2.081 -5.038,-1.585 -6.442,-0.93 -2.255,1.049 -4.779,0.983 -6.485,0 -0.63,0.286 -1.312,0.57 -2.109,0.799 -1.783,0.895 -2.942,2.167 -3.455,3.798 -0.162,0.513 -0.189,1.02 -0.227,1.523 0.033,-0.028 0.034,-0.079 0.07,-0.105 3.658,-2.622 7.084,-3.8 10.19,-3.599 z"
   id="path92" />
	<path
   style="fill:#ffbe55"
   d="m 262.543,283.597 c -1.305,0.514 -2.653,0.894 -4.042,1.081 0.92,2.195 2.738,5.93 5.615,9.436 1.501,-2.526 -0.266,-7.96 -1.573,-10.517 z"
   id="path94" />
	<path
   style="fill:#ffbe55"
   d="m 232.198,247.475 c -3.393,-1 -4.704,-4.113 -4.945,-7.328 -0.73,1.527 -1.121,3.436 -0.39,5.558 1.472,4.256 4.687,5.497 6.577,5.891 0.021,-0.495 0.043,-0.989 0.081,-1.481 -0.01,-0.011 -0.025,-0.014 -0.035,-0.025 -0.441,-0.486 -0.924,-1.43 -1.288,-2.615 z"
   id="path96" />
	<path
   style="fill:#ffbe55"
   d="m 220.84,239.188 c -0.116,-0.05 -0.245,-0.039 -0.35,-0.117 -0.018,-0.012 -0.751,-0.5 -2.116,-1.12 -4.803,2.592 -7.5,7.88 -8.733,11.03 8.703,-2.109 11.462,-6.068 12.001,-6.993 -0.396,-0.942 -0.664,-1.879 -0.802,-2.8 z"
   id="path98" />
	<path
   style="fill:#ffbe55"
   d="m 277.073,274.305 c 1.614,-3.497 1.962,-7.502 1.108,-11.937 -1.931,8.889 -6.652,16.132 -12.768,19.818 0.279,0.561 0.588,1.255 0.91,2.078 2.401,-1.05 8.01,-4.027 10.75,-9.959 z"
   id="path100" />
	<path
   style="fill:#ffbe55"
   d="m 280.927,240.63 c 0.194,-0.521 0.483,-1.06 0.906,-1.511 -0.188,-0.995 -0.584,-1.831 -0.917,-2.368 -0.476,0.126 -1.01,0.218 -1.618,0.279 -0.042,0.003 -0.083,0.006 -0.125,0.007 -0.32,0.596 -0.745,1.182 -1.293,1.75 0.487,0.615 0.907,1.231 1.215,1.866 0.084,0.046 0.186,0.018 0.263,0.079 0.13,0.094 0.727,0.448 1.569,-0.102 z"
   id="path102" />
	<path
   style="fill:#ffbe55"
   d="m 285.47,249.865 c 1.651,4.334 2.68,8.28 3.089,11.762 1.3,0.339 2.686,0.712 4.125,1.117 -0.825,-6.136 -3.405,-12.589 -4.931,-16.007 -0.678,1.216 -1.5,2.311 -2.283,3.128 z"
   id="path104" />
	<path
   style="fill:#ffbe55"
   d="m 285.207,260.778 c -0.425,-2.691 -1.235,-5.682 -2.424,-8.935 -1.353,0.661 -2.682,0.943 -3.661,1.069 0.002,0.169 0.018,0.334 0.018,0.504 0,0.406 -0.033,0.801 -0.044,1.204 0.039,0.065 0.094,0.114 0.124,0.186 0.695,1.693 1.224,3.336 1.644,4.946 0.503,0.112 2.094,0.472 4.343,1.026 z"
   id="path106" />
	<path
   style="fill:#ffbe55"
   d="m 296.018,263.713 c 1.364,0.412 2.731,0.844 4.063,1.292 -2.018,-12.932 -7.313,-21.527 -10.268,-25.401 -0.028,0.623 -0.159,1.297 -0.534,2.077 -0.044,0.093 -0.135,0.136 -0.193,0.216 0.014,0.175 0.043,0.348 0.039,0.529 0.118,0.116 0.233,0.236 0.312,0.392 0.229,0.446 5.665,11.121 6.581,20.895 z"
   id="path108" />
</g>
<g
   id="g120"
   transform="translate(0,-88.275)">
	<path
   style="fill:#ffd7aa"
   d="m 256.241,281.641 c 10.866,0 19.704,-12.661 19.704,-28.225 0,-0.853 -0.028,-1.694 -0.079,-2.529 -2.112,-3.175 -5.804,-5.388 -6.898,-5.995 -6.514,-0.117 -10.861,-3.017 -12.715,-4.552 -1.843,1.069 -5.842,2.817 -11.315,2.421 -2.218,-0.141 -4.759,0.728 -7.593,2.658 -0.536,2.592 -0.809,5.276 -0.809,7.997 0,15.564 8.84,28.225 19.705,28.225 z"
   id="path112" />
	<path
   style="fill:#ffd7aa"
   d="m 179.125,301.583 c 0.291,-0.079 3.222,-0.874 7.513,-1.227 19.873,-4.479 43.208,-18.734 47.414,-21.372 -0.413,-0.657 -0.886,-1.273 -1.224,-1.981 -2.091,-4.374 -2.425,-9.044 -2.076,-13.116 -2.994,-0.191 -12.125,0.236 -29.301,9.059 -0.231,0.117 -0.48,0.174 -0.73,0.174 -0.327,0 -0.651,-0.099 -0.926,-0.296 -0.487,-0.345 -0.74,-0.936 -0.655,-1.527 0.05,-0.354 0.863,-5.911 2.719,-11.819 -9.869,2.069 -30.705,23.097 -42.175,34.685 -2.167,2.193 -4.119,4.164 -5.771,5.792 -0.228,0.225 -0.47,0.437 -0.714,0.653 -1.45,1.281 -2.947,2.604 -1.887,10.234 0.978,7.043 10.14,7.764 16.957,7.809 h 0.499 c 2.145,0 7.31,1.785 16.257,4.942 8.687,3.066 18.534,6.54 24.909,7.734 3.05,0.566 5.912,1.078 8.552,1.548 8.058,1.44 13.881,2.475 16.929,3.736 3.699,1.532 7.778,9.09 11.313,16.055 l 0.679,1.327 c 2.082,4.019 2.474,9.049 1.017,13.122 -0.707,1.985 -0.202,3.025 0.05,3.382 0.247,0.35 0.536,0.474 0.71,0.474 0.822,0 1.415,0 2.072,-2.08 0.83,-2.625 1.038,-2.879 4.529,-7.102 l 0.954,-1.152 c 3.598,-4.364 -0.007,-13.318 -1.739,-17.624 l -0.244,-0.604 c -1.231,-3.079 -0.141,-6.312 0.914,-9.436 0.717,-2.126 1.459,-4.323 1.459,-6.424 0,-0.458 -0.122,-0.766 -0.412,-1.041 -1.677,-1.589 -7.362,-1.286 -11.517,-1.074 -1.532,0.083 -2.983,0.158 -4.227,0.158 -6.432,0 -16.753,-6.428 -31.762,-16.238 -7.442,-4.855 -16.264,-5.276 -22.251,-4.797 -2.479,0.541 -4.914,0.936 -7.262,1.149 -0.809,0.071 -1.567,-0.487 -1.716,-1.302 -0.148,-0.805 0.346,-1.602 1.143,-1.821 z"
   id="path114" />
	<path
   style="fill:#ffd7aa"
   d="m 362.709,196.658 c -2.7,0.57 -3.025,0.508 -8.457,-0.482 l -1.431,-0.258 c -5.581,-1.027 -11.608,6.528 -14.511,10.143 l -0.409,0.508 c -2.082,2.58 -5.431,3.208 -8.669,3.819 -2.207,0.416 -4.489,0.844 -6.322,1.876 -0.397,0.221 -0.607,0.482 -0.705,0.87 -0.566,2.234 2.479,7.048 4.704,10.563 0.82,1.294 1.596,2.526 2.205,3.607 3.147,5.604 2.592,17.753 1.386,35.647 -0.628,9.341 3.793,17.603 7.237,22.529 1.389,1.568 2.731,3.224 3.998,4.959 0.493,0.674 0.383,1.614 -0.252,2.155 -0.634,0.549 -1.581,0.503 -2.169,-0.087 -0.197,-0.2 -2.026,-2.063 -4.202,-5.159 -8.735,-9.729 -19.46,-16.161 -23.921,-18.601 0.116,1.27 0.161,2.134 0.168,2.316 0.025,0.625 -0.318,1.203 -0.874,1.485 -0.228,0.113 -0.477,0.171 -0.722,0.171 -0.353,0 -0.705,-0.117 -0.994,-0.345 -4.235,-3.372 -19.798,-7.471 -27.185,-9.184 0.651,4.559 0.114,8.739 -1.625,12.487 -1.785,3.846 -4.532,6.552 -7.116,8.456 13.55,16.742 45.638,23.895 64.958,28.182 4.974,1.102 9.272,2.056 12.431,2.97 0.31,0.092 0.614,0.195 0.919,0.303 1.828,0.637 3.711,1.298 9.853,-3.366 5.665,-4.302 1.862,-12.681 -1.494,-18.61 l -0.244,-0.433 c -1.048,-1.868 -2.02,-7.247 -3.645,-16.593 -1.579,-9.078 -3.368,-19.368 -5.45,-25.513 -1.001,-2.95 -1.96,-5.708 -2.846,-8.25 -2.684,-7.713 -4.625,-13.289 -5.015,-16.555 -0.474,-3.974 4.115,-11.225 8.455,-17.711 l 0.834,-1.257 c 2.49,-3.786 6.684,-6.586 10.946,-7.31 2.074,-0.353 2.735,-1.306 2.923,-1.697 0.183,-0.387 0.152,-0.698 0.068,-0.849 -0.402,-0.711 -0.691,-1.24 -2.827,-0.786 z"
   id="path116" />
	<path
   style="fill:#ffd7aa"
   d="m 154.626,195.576 c 1.862,2.035 1.976,2.343 3.894,7.485 l 0.52,1.389 c 1.985,5.304 11.55,6.653 16.145,7.297 l 0.637,0.092 c 3.281,0.47 5.534,3.025 7.713,5.501 1.485,1.685 3.02,3.424 4.841,4.472 0.399,0.228 0.73,0.279 1.109,0.162 2.214,-0.653 4.793,-5.729 6.676,-9.436 0.697,-1.368 1.356,-2.667 1.978,-3.744 3.206,-5.562 13.931,-11.296 29.929,-19.405 8.817,-4.472 13.726,-13.169 16.064,-18.626 0.538,-1.789 1.142,-3.49 1.822,-5.08 0.331,-0.77 1.19,-1.132 1.983,-0.886 0.79,0.27 1.241,1.102 1.034,1.913 -0.063,0.245 -0.62,2.343 -1.878,5.309 -4.28,14.562 -4.088,35.19 -3.802,43.496 3.226,-3.532 6.293,-4.332 8.406,-4.332 2.333,0 4.468,1.022 6.174,2.814 1.788,-2.318 3.826,-2.767 5.311,-2.755 2.696,0.066 4.93,1.796 6.353,3.594 1.559,0.079 5.078,0.494 7.642,2.69 3.533,-17.342 -4.588,-41.982 -10.071,-58.578 -1.716,-5.196 -3.2,-9.686 -4.131,-13.263 -0.082,-0.312 -0.148,-0.628 -0.212,-0.949 -0.387,-1.894 -0.787,-3.852 -7.924,-6.744 -6.599,-2.692 -11.851,4.876 -15.236,10.784 l -0.249,0.437 c -1.071,1.859 -5.203,5.447 -12.413,11.625 -6.989,5.991 -14.913,12.786 -19.128,17.711 -2.016,2.355 -3.889,4.577 -5.612,6.627 -5.269,6.265 -9.078,10.793 -11.693,12.802 -3.179,2.446 -11.77,2.205 -19.582,1.785 l -1.469,-0.075 c -2.462,-0.108 -4.904,-0.843 -7.096,-1.985 l -0.182,-0.045 -0.107,-0.13 c -1.713,-0.936 -3.283,-2.091 -4.489,-3.51 -0.791,-0.931 -1.494,-1.322 -2.046,-1.502 l -1.756,0.39 c -0.355,0.636 -0.515,1.186 0.845,2.67 z"
   id="path118" />
</g>
<path
   style="fill:#464655"
   d="m 368.321,107.609 c -1.271,-2.268 -3.208,-2.991 -6.265,-2.355 -2.091,0.441 -2.091,0.437 -7.231,-0.495 l -1.436,-0.263 c -7.456,-1.356 -14.285,7.189 -17.572,11.287 l -0.406,0.503 c -1.342,1.664 -3.859,2.134 -6.773,2.684 -2.458,0.466 -5.003,0.945 -7.294,2.23 -1.152,0.649 -1.929,1.64 -2.24,2.871 -0.9,3.57 2.151,8.392 5.102,13.056 0.787,1.244 1.533,2.425 2.118,3.466 2.916,5.196 1.934,19.77 0.986,33.867 -0.372,5.529 0.811,10.655 2.563,15.04 -9.06,-7.797 -17.748,-12.198 -19.156,-12.887 -1.25,-8.465 -4.959,-23.398 -15.756,-30.861 14.04,-6.222 20.713,-27.388 21.031,-28.429 0.228,-0.745 -0.113,-1.544 -0.809,-1.894 -0.691,-0.353 -1.542,-0.15 -2.003,0.479 -3.668,4.979 -8.384,9.812 -12.836,13.905 2.725,-7.7 8.778,-14.423 11.403,-17.07 0.462,-0.395 0.914,-0.836 1.352,-1.314 0.574,-0.628 0.555,-1.598 -0.045,-2.205 -0.214,-0.216 -0.502,-0.269 -0.779,-0.337 1.632,-4.508 3.147,-11.85 -0.097,-19.455 -1.743,-4.086 -3.257,-6.886 -4.474,-9.132 -2.183,-4.032 -3.179,-5.87 -2.879,-10.126 0.045,-0.649 -0.306,-1.26 -0.888,-1.544 -0.583,-0.291 -1.279,-0.195 -1.767,0.237 -0.222,0.196 -20.818,18.855 -12.996,39.512 -0.236,0.083 -0.489,0.131 -0.671,0.326 -0.555,0.599 -0.57,1.523 -0.031,2.138 8.776,10.013 -0.949,24.012 -3.177,26.947 -0.05,-0.033 -0.097,-0.076 -0.148,-0.108 0,-1.998 -0.541,-3.667 -1.683,-4.93 -1.004,-1.109 -2.252,-1.695 -3.356,-2.008 4.168,-18.191 -3.954,-42.866 -9.969,-61.074 -1.699,-5.146 -3.168,-9.586 -4.075,-13.068 -0.066,-0.258 -0.118,-0.516 -0.172,-0.778 -0.618,-3.029 -1.785,-5.8 -9.854,-9.07 -9.931,-4.019 -16.917,8.159 -19.209,12.161 l -0.244,0.425 c -0.851,1.478 -6.38,6.216 -11.726,10.796 -7.078,6.066 -15.101,12.943 -19.478,18.057 -2.02,2.364 -3.896,4.597 -5.628,6.653 -4.949,5.882 -8.855,10.526 -11.196,12.328 -2.507,1.93 -13.376,1.344 -17.462,1.123 l -1.497,-0.079 c -3.666,-0.162 -7.337,-1.901 -9.583,-4.547 -1.641,-1.934 -3.709,-2.921 -5.675,-2.759 -1.396,0.129 -2.611,0.861 -3.247,1.964 -1.298,2.251 -0.934,4.286 1.18,6.586 1.441,1.577 1.441,1.577 3.255,6.441 l 0.522,1.398 c 2.65,7.081 13.484,8.604 18.691,9.341 l 0.628,0.087 c 2.115,0.303 3.809,2.226 5.771,4.451 1.388,1.572 2.888,3.114 4.653,4.369 -0.108,0.054 -0.234,0.058 -0.33,0.138 -0.501,0.416 -0.703,1.09 -0.51,1.71 0.018,0.054 1.122,3.04 4.082,5.617 -4.668,0.228 -10.003,-1.558 -12.142,-2.38 -0.339,-0.15 -0.691,-0.291 -1.053,-0.425 -0.811,-0.299 -1.706,0.113 -2.028,0.907 -0.11,0.274 -0.113,0.556 -0.071,0.829 -4.79,0.224 -12.113,1.646 -17.871,7.521 -3.11,3.179 -5.118,5.646 -6.728,7.63 -2.891,3.558 -4.213,5.18 -8.258,6.532 -0.616,0.204 -1.046,0.761 -1.088,1.41 -0.044,0.649 0.31,1.257 0.895,1.539 0.164,0.079 9.667,4.594 20.705,4.594 6.974,0 14.558,-1.813 20.79,-7.673 0.166,0.179 0.301,0.39 0.544,0.48 0.183,0.066 0.371,0.099 0.555,0.099 0.593,0 1.156,-0.333 1.433,-0.89 4.612,-9.335 10.97,-12.692 14.671,-13.895 -3.299,4.2 -4.75,8.168 -4.831,8.403 -0.237,0.679 0.01,1.436 0.606,1.843 0.596,0.407 1.391,0.366 1.939,-0.104 2.409,-2.051 8.275,-4.693 13.249,-6.723 -3.008,4.12 -4.313,8.491 -4.588,9.498 -1.047,1.681 -1.95,3.619 -2.726,5.629 -9.717,0.351 -27.849,17.853 -45.619,35.806 -2.157,2.18 -4.1,4.14 -5.743,5.758 -0.19,0.188 -0.387,0.362 -0.589,0.541 -2.313,2.047 -4.134,4.439 -2.935,13.068 1.478,10.617 15.523,10.593 20.132,10.563 h 0.489 c 1.702,0 8.561,2.421 15.192,4.759 8.798,3.108 18.769,6.624 25.387,7.859 3.058,0.574 5.931,1.086 8.579,1.556 7.564,1.348 13.538,2.418 16.266,3.544 2.919,1.206 7.834,10.897 9.686,14.546 l 0.691,1.356 c 1.689,3.254 2.014,7.31 0.846,10.577 -0.853,2.388 -0.691,4.681 0.445,6.295 0.809,1.144 2.051,1.831 3.322,1.831 2.599,0 4.178,-1.332 5.118,-4.31 0.643,-2.035 0.643,-2.035 3.944,-6.028 l 0.957,-1.161 c 4.81,-5.828 0.726,-15.972 -1.238,-20.849 l -0.242,-0.599 c -0.792,-1.985 0.025,-4.414 0.973,-7.223 0.801,-2.371 1.626,-4.822 1.626,-7.447 0,-1.323 -0.487,-2.484 -1.408,-3.362 -2.671,-2.534 -8.375,-2.226 -13.884,-1.943 -1.471,0.079 -2.865,0.155 -4.058,0.155 -5.962,0 -18.19,-7.988 -30.014,-15.714 -4.437,-2.9 -9.247,-4.377 -13.752,-5.043 17.908,-6.13 35.383,-16.947 38.743,-19.081 2.622,2.986 6.122,5.357 10.622,6.983 -0.501,0.499 -0.957,1.098 -1.278,1.805 -0.59,1.306 -0.604,2.759 -0.038,4.206 0.351,0.897 0.868,1.602 1.457,2.193 -1.024,3.583 -0.02,5.561 1.034,6.606 -1.15,3.567 -0.154,5.665 0.934,6.783 1.142,1.17 2.728,1.668 4.125,1.668 0.184,0 0.334,-0.057 0.51,-0.074 0.476,1.459 1.14,2.888 2.257,4.159 l 0.348,0.391 c 4.824,5.487 12.896,14.67 13.848,18.955 0.179,0.799 0.93,1.314 1.727,1.244 0.807,-0.083 1.423,-0.761 1.431,-1.572 0.002,-0.237 0.035,-3.927 -0.134,-7.689 3.544,5.75 5.991,11.454 6.81,13.46 0.099,0.27 0.21,0.545 0.329,0.82 0.26,0.604 0.849,0.966 1.466,0.966 0.2,0 0.404,-0.038 0.601,-0.117 0.267,-0.109 0.469,-0.296 0.634,-0.509 3.448,3.335 9.503,7.691 17.728,7.855 4.441,0.071 7.62,-0.146 10.171,-0.329 4.57,-0.337 6.655,-0.487 10.41,1.532 0.237,0.129 0.498,0.191 0.757,0.191 0.364,0 0.724,-0.125 1.017,-0.366 0.501,-0.412 0.701,-1.09 0.508,-1.706 -0.09,-0.283 -8.65,-26.692 -30.685,-28.074 0.022,-0.252 0.081,-0.503 -0.024,-0.75 -0.318,-0.757 -1.152,-1.156 -1.937,-0.907 -5.452,1.668 -10.194,-0.075 -13.961,-2.867 4.874,-0.303 8.257,-1.981 8.434,-2.068 0.632,-0.32 0.98,-1.02 0.851,-1.714 -0.127,-0.698 -0.698,-1.227 -1.405,-1.302 -7.142,-0.753 -18.034,-7.277 -18.142,-7.343 -0.043,-0.025 -0.095,-0.01 -0.14,-0.031 0.021,-0.024 0.041,-0.051 0.06,-0.076 0.611,0.057 1.213,0.086 1.791,0.086 1.354,0 2.592,-0.141 3.593,-0.353 0.668,-0.141 1.171,-0.691 1.255,-1.365 0.085,-0.679 -0.268,-1.332 -0.879,-1.635 -2.178,-1.071 -4.064,-2.519 -5.707,-4.116 1.967,-2.388 1.783,-5.993 0.966,-9.178 0.716,-0.296 1.688,-0.759 2.86,-1.425 14.127,17.779 45.855,24.849 66.955,29.535 4.921,1.09 9.172,2.035 12.238,2.921 0.254,0.075 0.501,0.162 0.755,0.249 1.005,0.35 2.016,0.628 3.193,0.628 2.242,0 5.09,-1.011 9.642,-4.465 8.542,-6.49 1.629,-18.714 -0.644,-22.729 l -0.237,-0.425 c -0.832,-1.481 -2.078,-8.646 -3.283,-15.573 -1.6,-9.195 -3.412,-19.613 -5.575,-25.991 -1.003,-2.963 -1.966,-5.729 -2.852,-8.275 -2.521,-7.243 -4.512,-12.96 -4.86,-15.889 -0.376,-3.128 5.663,-12.157 7.936,-15.552 l 0.849,-1.278 c 2.018,-3.071 5.393,-5.334 8.81,-5.912 2.5,-0.428 4.423,-1.694 5.271,-3.478 0.599,-1.264 0.589,-2.68 -0.033,-3.786 z m -2.853,2.412 c -0.188,0.391 -0.849,1.344 -2.923,1.697 -4.263,0.724 -8.456,3.524 -10.946,7.31 l -0.834,1.257 c -4.34,6.486 -8.928,13.738 -8.455,17.711 0.391,3.266 2.332,8.841 5.015,16.555 0.886,2.542 1.845,5.301 2.846,8.25 2.082,6.145 3.871,16.434 5.45,25.513 1.624,9.345 2.596,14.724 3.645,16.593 l 0.244,0.433 c 3.356,5.929 7.158,14.308 1.494,18.61 -6.141,4.664 -8.023,4.002 -9.853,3.366 -0.306,-0.108 -0.609,-0.212 -0.919,-0.303 -3.16,-0.915 -7.458,-1.868 -12.431,-2.97 -19.319,-4.287 -51.407,-11.441 -64.958,-28.182 2.584,-1.903 5.33,-4.61 7.116,-8.456 1.739,-3.747 2.275,-7.927 1.625,-12.487 7.386,1.713 22.949,5.811 27.185,9.184 0.289,0.228 0.641,0.345 0.994,0.345 0.245,0 0.493,-0.058 0.722,-0.171 0.555,-0.282 0.898,-0.861 0.874,-1.485 -0.007,-0.182 -0.052,-1.046 -0.168,-2.316 4.46,2.44 15.186,8.872 23.921,18.601 2.176,3.095 4.004,4.959 4.202,5.159 0.589,0.59 1.535,0.637 2.169,0.087 0.634,-0.541 0.745,-1.481 0.252,-2.155 -1.267,-1.735 -2.609,-3.391 -3.998,-4.959 -3.445,-4.926 -7.865,-13.188 -7.237,-22.529 1.206,-17.895 1.762,-30.044 -1.386,-35.647 -0.609,-1.081 -1.386,-2.313 -2.205,-3.607 -2.223,-3.516 -5.269,-8.33 -4.704,-10.563 0.098,-0.387 0.308,-0.649 0.705,-0.87 1.833,-1.032 4.115,-1.46 6.322,-1.876 3.236,-0.611 6.586,-1.24 8.669,-3.819 l 0.409,-0.508 c 2.904,-3.616 8.93,-11.171 14.511,-10.143 l 1.431,0.258 c 5.431,0.99 5.756,1.053 8.457,0.482 2.136,-0.454 2.425,0.075 2.827,0.79 0.083,0.147 0.115,0.459 -0.068,0.845 z m -55.167,147.887 c -2.484,0.183 -5.567,0.408 -9.875,0.32 -11.423,-0.228 -18.377,-10.131 -18.445,-10.231 -0.01,-0.014 -0.026,-0.022 -0.036,-0.036 -0.231,-5.528 4.019,-9.802 7.029,-12.111 17.482,-1.159 26.665,15.148 29.868,22.436 -2.758,-0.798 -5.174,-0.628 -8.541,-0.378 z m -31.062,-13.992 c -2.837,-5.609 -7.181,-12.881 -12.523,-17.657 -0.813,-0.727 -1.496,-1.45 -2.179,-2.172 1.939,0.589 3.572,0.796 4.296,0.852 3.629,4.456 9.213,9.427 16.352,9.899 -2.558,2.356 -4.936,5.46 -5.946,9.078 z m -28.608,-27.379 c 0.497,0.098 0.994,0.162 1.471,0.162 0.177,0 0.331,-0.028 0.501,-0.039 -0.107,1.153 -0.078,2.395 0.043,3.656 -0.548,-0.034 -1.219,-0.216 -1.677,-0.683 -0.735,-0.752 -0.632,-1.994 -0.338,-3.096 z m 2.528,-3.169 c -0.815,0.209 -2.376,0.217 -3.144,-0.522 -0.681,-0.651 -0.602,-1.87 -0.359,-2.947 0.141,0.013 0.27,0.068 0.415,0.068 0.002,0 0.004,0 0.004,0 1.877,-0.003 3.631,-1.145 4.588,-2.805 0.023,0.009 0.046,0.018 0.07,0.025 0.002,0.007 0,0.013 0.003,0.02 0.277,0.789 0.617,1.497 0.991,2.155 -0.727,-0.083 -1.408,0.31 -1.677,0.982 -0.057,0.141 -0.495,1.337 -0.891,3.024 z m -73.459,3.068 c 2.348,-0.212 4.782,-0.607 7.262,-1.149 5.987,-0.479 14.809,-0.059 22.251,4.797 15.009,9.811 25.33,16.238 31.762,16.238 1.244,0 2.696,-0.075 4.227,-0.158 4.154,-0.212 9.839,-0.516 11.517,1.074 0.289,0.275 0.412,0.583 0.412,1.041 0,2.101 -0.74,4.298 -1.459,6.424 -1.055,3.125 -2.145,6.357 -0.914,9.436 l 0.244,0.604 c 1.732,4.306 5.338,13.26 1.739,17.624 l -0.954,1.152 c -3.49,4.223 -3.699,4.477 -4.529,7.102 -0.658,2.08 -1.25,2.08 -2.072,2.08 -0.172,0 -0.462,-0.125 -0.71,-0.474 -0.252,-0.358 -0.757,-1.398 -0.05,-3.382 1.457,-4.073 1.065,-9.103 -1.017,-13.122 l -0.679,-1.327 c -3.534,-6.965 -7.614,-14.525 -11.313,-16.055 -3.048,-1.26 -8.871,-2.296 -16.929,-3.736 -2.639,-0.47 -5.502,-0.982 -8.552,-1.548 -6.376,-1.194 -16.222,-4.668 -24.909,-7.734 -8.947,-3.158 -14.112,-4.942 -16.257,-4.942 h -0.499 c -6.817,-0.045 -15.979,-0.766 -16.957,-7.809 -1.06,-7.63 0.437,-8.953 1.887,-10.234 0.244,-0.216 0.484,-0.428 0.714,-0.653 1.652,-1.626 3.603,-3.598 5.771,-5.792 11.47,-11.587 32.306,-32.616 42.175,-34.685 -1.856,5.908 -2.669,11.464 -2.719,11.819 -0.085,0.59 0.169,1.182 0.655,1.527 0.275,0.195 0.599,0.296 0.926,0.296 0.249,0 0.499,-0.058 0.73,-0.174 17.176,-8.823 26.307,-9.25 29.301,-9.059 -0.35,4.073 -0.015,8.743 2.076,13.116 0.339,0.708 0.811,1.324 1.224,1.981 -4.206,2.637 -27.541,16.893 -47.414,21.372 -4.291,0.353 -7.223,1.149 -7.513,1.227 -0.797,0.221 -1.292,1.015 -1.142,1.826 0.148,0.81 0.905,1.367 1.715,1.297 z m 5.92,-60.782 c -0.087,-3.358 -0.83,-6.969 -2.773,-9.964 3.332,0.653 7.142,0.916 10.349,-0.158 l 0.008,-0.004 c 1.306,0.514 2.845,0.83 4.551,0.982 -3.317,1.185 -7.95,3.686 -12.135,9.144 z m -34,3.454 c 1.568,-1.93 3.524,-4.335 6.53,-7.405 7.992,-8.163 19.967,-6.436 20.095,-6.42 0.013,0.002 0.025,-0.003 0.04,-10e-4 4.189,3.622 4.393,9.649 4.01,13.423 -11.129,13.537 -29.311,9.034 -36.812,6.361 2.479,-1.457 4.009,-3.336 6.137,-5.958 z M 309.24,90.689 c 4.483,10.509 -1.689,20.919 -1.751,21.023 -0.008,0.012 -0.007,0.025 -0.013,0.038 -4.941,2.481 -10.59,0.367 -13.934,-1.43 -8.258,-15.459 2.859,-30.531 8.191,-36.448 0.399,2.85 1.554,4.984 3.16,7.95 1.185,2.188 2.66,4.913 4.347,8.867 z m -15.067,23.501 c 3.135,1.34 6.855,2.23 10.483,1.727 -3.567,4.529 -7.552,10.89 -8.629,17.72 -3.59,3.069 -6.617,5.401 -8.277,6.645 -0.052,-0.081 -0.115,-0.148 -0.169,-0.226 1.703,-2.192 10.787,-14.636 6.592,-25.866 z m -34.649,103.077 c -1.434,-2.676 -2.044,-4.769 -2.263,-5.786 1.473,1.61 3.275,2.669 5.155,3.317 z m 4.544,0.322 c 0.022,0.064 -0.004,0.134 0.025,0.195 0.026,0.054 0.734,1.469 2.02,3.439 -1.29,-0.34 -2.799,-0.884 -4.228,-1.773 z m 0.517,11.05 c 1.602,1.436 3.121,3.133 4.531,4.956 0.002,0.05 0.009,0.104 0.017,0.154 0.264,1.581 0.414,3.857 0.498,6.054 -2.764,-4.07 -6.915,-8.899 -11.308,-13.9 l -0.348,-0.395 c -2.124,-2.413 -2.44,-5.704 -2.188,-8.488 1.475,3.236 4.115,7.434 8.798,11.619 z m -8.5,-24.331 c -1.294,-0.303 -2.223,-1.544 -2.775,-2.534 -1.483,-2.657 -0.479,-4.764 -0.021,-5.504 0.593,0.105 1.194,0.17 1.8,0.211 0.526,1.415 1.679,4.145 3.593,7.241 -0.939,0.503 -1.825,0.761 -2.597,0.586 z m 7.015,-78.147 c 1.225,0.029 2.636,0.828 3.715,2.059 -0.447,0.553 -1.18,1.182 -2.167,0.999 -4.437,-0.803 -5.769,3.537 -6.206,4.963 -0.456,1.479 -2.226,4.813 -3.663,6.315 -0.985,-0.444 -2.028,-0.767 -3.134,-0.895 1.645,-2.318 4.682,-6.473 8.675,-11.852 0.813,-1.093 1.864,-1.677 2.78,-1.589 z m -8.914,17.561 c 1.441,0.919 2.653,2.463 4.052,4.252 0.874,1.118 1.886,2.324 3.011,3.507 -2.343,-1.195 -3.641,-2.498 -3.665,-2.52 -0.011,-0.011 -0.028,-0.008 -0.039,-0.019 -0.011,-0.011 -0.006,-0.029 -0.018,-0.04 -3.861,-3.736 -7.788,-4.726 -11.679,-2.916 -1.335,0.616 -2.617,0.524 -3.308,0.258 -0.397,-0.15 -0.538,-0.324 -0.55,-0.341 0,-0.05 0.071,-0.254 0.364,-0.566 1.805,-1.902 8.174,-3.937 11.832,-1.615 z m -11.15,-2.63 c 2.257,-2.261 4.617,-5.036 6.698,-7.581 l 0.418,-0.508 c 0.61,-0.739 1.685,-0.211 2.226,0.131 -2.247,3.072 -4.074,5.62 -4.674,6.581 -1.678,0.255 -3.296,0.73 -4.668,1.377 z m 21.772,1.506 c 2.52,0.574 3.85,1.268 4.533,1.976 -2.355,-0.385 -5.737,-0.373 -8.397,1.667 -0.062,-0.079 -0.128,-0.158 -0.191,-0.236 -1.07,-1.372 -2.159,-2.599 -3.346,-3.681 0.597,-0.682 1.162,-1.468 1.679,-2.298 1.119,0.721 3.384,2.043 5.722,2.572 z m -4.18,-5.381 c 0.412,-0.866 0.723,-1.622 0.867,-2.094 0.794,-2.583 1.481,-2.963 2.582,-2.759 0.137,0.024 0.259,0.012 0.392,0.026 1.111,4.114 4.458,5.832 6.964,7.084 1.351,0.674 2.625,1.311 2.883,1.997 0.31,0.828 -0.508,1.81 -1.495,2.604 -0.888,-2.151 -3.332,-3.687 -7.306,-4.589 -2.005,-0.454 -4.063,-1.723 -4.887,-2.269 z m -23.282,19.927 c 2.834,-1.931 5.375,-2.801 7.593,-2.658 5.473,0.395 9.471,-1.352 11.315,-2.421 1.854,1.535 6.201,4.435 12.715,4.552 1.095,0.607 4.787,2.82 6.898,5.995 0.052,0.836 0.079,1.677 0.079,2.529 0,15.564 -8.839,28.225 -19.704,28.225 -10.865,0 -19.704,-12.661 -19.704,-28.225 -0.002,-2.721 0.271,-5.405 0.808,-7.997 z m 39.465,1.575 c -2.169,-2.34 -4.674,-3.964 -5.92,-4.683 1.462,-0.305 3.009,-0.811 4.454,-1.609 1.691,2.103 1.787,4.493 1.466,6.292 z m -1.423,-10.192 c -2.923,2.731 -8.055,2.819 -9.537,2.785 -1.067,-0.798 -2.022,-1.675 -2.867,-2.624 3.016,-2.184 7.957,-0.444 8.01,-0.424 0.162,0.061 0.327,0.071 0.491,0.077 0.023,0.001 0.043,0.022 0.067,0.022 0.01,0 0.02,-0.007 0.03,-0.007 0.225,-0.004 0.444,-0.051 0.644,-0.145 0.004,-0.002 0.009,-0.001 0.009,-0.001 1.485,-0.706 3.416,-2.044 4.507,-3.754 0.247,1.188 0.122,2.693 -1.354,4.071 z m 0.919,-9.674 c -0.893,-0.926 -2.131,-1.58 -3.446,-2.236 -2.217,-1.106 -4.433,-2.314 -5.227,-4.95 0.862,-0.53 1.537,-1.237 2.009,-1.917 1.532,0.115 4.761,0.644 6.281,2.815 1.033,1.478 1.131,3.609 0.383,6.288 z m -22.039,-8.293 c -1.596,-1.088 -4.511,-2.091 -6.583,0.415 l -0.423,0.516 c -1.955,2.388 -7.901,9.653 -10.886,10.867 -0.034,0.014 -0.056,0.043 -0.089,0.06 -0.544,-0.14 -1.023,-0.328 -1.355,-0.591 -0.252,-0.2 -0.372,-0.408 -0.404,-0.691 -0.15,-1.389 0.468,-1.997 2.968,-3.79 1.897,-1.361 4.498,-3.224 6.973,-6.528 3.81,-5.078 8.576,-5.985 11.457,-2.507 -0.553,0.749 -1.108,1.501 -1.658,2.249 z m -14.111,-1.49 c -4.993,-0.683 -9.583,0.983 -12.412,4.654 -1.174,1.526 -1.849,3.258 -2.168,5.027 -0.192,0.079 -0.409,0.083 -0.565,0.239 -0.401,0.408 -0.824,0.924 -1.246,1.494 -2.803,-1.1 -10.389,-3.731 -16.911,-2.846 -7.541,1.021 -13.11,0.024 -16.356,-0.92 3.474,-1.118 6.036,-6.14 8.511,-11.008 0.668,-1.314 1.3,-2.559 1.895,-3.595 2.973,-5.155 16.003,-11.762 28.606,-18.153 5.302,-2.688 9.29,-6.678 12.23,-10.705 -2.292,14.447 -1.845,30.219 -1.584,35.813 z m -14.428,14.225 c 0.188,0.743 0.373,1.49 0.724,2.193 0.214,0.427 0.488,0.74 0.736,1.101 -0.916,0.915 -2.207,2.452 -3.063,4.477 -0.727,-3.129 0.468,-5.956 1.603,-7.771 z m -1.526,16.02 c 0.564,1.337 1.273,2.46 2.082,3.38 -1.261,3.75 -2.072,7.187 -2.438,10.271 -1.235,0.223 -2.61,0.529 -4.127,0.93 0.833,-5.476 2.99,-11.127 4.483,-14.581 z m 2.957,13.186 c 0.329,-2.3 0.926,-4.82 1.782,-7.542 1.28,0.787 2.595,1.271 3.765,1.529 -0.488,1.407 -1.092,3.498 -1.527,5.939 -0.911,-0.072 -2.25,-0.088 -4.02,0.074 z m -6.378,-13.314 c -1.656,3.978 -3.753,9.931 -4.39,15.682 -1.303,0.417 -2.693,0.904 -4.169,1.463 1.227,-7.157 4.452,-14.386 4.631,-14.783 1.599,-0.763 2.892,-1.571 3.928,-2.362 z m -11.141,1.518 c 1.233,-3.15 3.929,-8.438 8.733,-11.03 1.364,0.62 2.099,1.108 2.116,1.12 0.105,0.079 0.234,0.067 0.35,0.117 0.138,0.922 0.407,1.858 0.802,2.801 -0.54,0.924 -3.298,4.884 -12.001,6.992 z m 23.799,2.618 c -1.889,-0.395 -5.105,-1.635 -6.577,-5.891 -0.733,-2.122 -0.341,-4.032 0.39,-5.558 0.242,3.215 1.553,6.327 4.945,7.328 0.364,1.184 0.847,2.129 1.288,2.616 0.01,0.011 0.024,0.014 0.035,0.025 -0.038,0.491 -0.06,0.986 -0.081,1.48 z m -2.936,-13.91 c 0.872,0.391 1.774,0.68 2.707,0.788 -0.578,0.861 -0.945,1.727 -1.173,2.509 -0.238,0.818 -0.34,1.649 -0.37,2.464 -1.189,-1.457 -1.301,-3.933 -1.164,-5.761 z m -1.192,-5.358 c -1.333,-2.663 -0.963,-5.875 0.966,-8.38 1.95,-2.536 5.089,-3.708 8.59,-3.468 -1.15,1.028 -2.257,1.839 -3.232,2.541 -2.392,1.714 -4.653,3.337 -4.281,6.735 0.122,1.128 0.672,2.11 1.589,2.841 1.571,1.252 4.018,1.556 5.889,1.593 0.001,0.085 0.022,0.162 0.03,0.245 -0.449,0.16 -0.94,0.302 -1.335,0.484 -2.479,0.687 -6.4,1.054 -8.216,-2.591 z m 5.833,9.423 c 0.514,-1.631 1.673,-2.904 3.455,-3.798 0.797,-0.228 1.479,-0.513 2.109,-0.799 1.705,0.983 4.228,1.049 6.485,0 1.404,-0.654 3.526,-1.151 6.442,0.93 -1.738,0.819 -4.657,1.785 -8.458,1.486 -3.106,-0.2 -6.532,0.978 -10.191,3.598 -0.035,0.025 -0.036,0.077 -0.07,0.105 0.039,-0.502 0.066,-1.007 0.228,-1.522 z m 23.357,42.927 c 1.389,-0.188 2.737,-0.567 4.042,-1.081 1.306,2.556 3.073,7.99 1.575,10.516 -2.88,-3.506 -4.697,-7.242 -5.617,-9.435 z m 19.678,-22.312 c 0.854,4.436 0.506,8.44 -1.108,11.937 -2.74,5.931 -8.349,8.908 -10.751,9.959 -0.322,-0.823 -0.63,-1.518 -0.91,-2.078 6.118,-3.684 10.839,-10.928 12.769,-19.818 z m 0.916,-7.748 c 0.011,-0.403 0.044,-0.798 0.044,-1.204 0,-0.17 -0.017,-0.334 -0.018,-0.504 0.979,-0.126 2.308,-0.408 3.661,-1.069 1.19,3.253 1.999,6.243 2.424,8.935 -2.249,-0.553 -3.84,-0.913 -4.344,-1.025 -0.42,-1.61 -0.949,-3.253 -1.644,-4.946 -0.029,-0.074 -0.085,-0.121 -0.123,-0.187 z m -10e-4,-13.966 c -0.308,-0.634 -0.728,-1.251 -1.215,-1.866 0.548,-0.569 0.973,-1.155 1.293,-1.75 0.042,-0.001 0.083,-0.003 0.125,-0.007 0.608,-0.061 1.142,-0.154 1.618,-0.279 0.333,0.537 0.728,1.373 0.917,2.368 -0.423,0.45 -0.712,0.99 -0.906,1.511 -0.843,0.55 -1.44,0.195 -1.568,0.104 -0.076,-0.062 -0.18,-0.034 -0.264,-0.081 z m 13.588,22.088 c -1.44,-0.405 -2.826,-0.778 -4.125,-1.117 -0.408,-3.481 -1.437,-7.427 -3.089,-11.762 0.785,-0.818 1.605,-1.912 2.282,-3.128 1.527,3.419 4.107,9.872 4.932,16.007 z m -3.599,-20.847 c 0.058,-0.079 0.149,-0.124 0.193,-0.216 0.375,-0.78 0.507,-1.453 0.534,-2.077 2.955,3.874 8.249,12.469 10.268,25.401 -1.332,-0.448 -2.698,-0.881 -4.063,-1.292 -0.916,-9.773 -6.351,-20.448 -6.582,-20.897 -0.079,-0.156 -0.194,-0.276 -0.312,-0.392 0.005,-0.18 -0.023,-0.352 -0.038,-0.527 z m 14.472,24.36 c -2.324,-18.129 -10.905,-28.516 -13.041,-30.852 0.171,-0.032 0.356,-0.03 0.525,-0.066 12.689,6.759 16.028,25.415 16.861,32.791 -1.26,-0.636 -2.748,-1.261 -4.345,-1.873 z m -14.413,-33.933 c -0.036,-0.243 -0.085,-0.479 -0.138,-0.713 2.679,-1.966 11.831,-8.887 19.977,-17.511 -3.833,7.541 -10.479,16.953 -19.839,18.224 z m -3.077,1.759 c -0.002,0.038 0.004,0.058 0.003,0.096 0,0.011 -0.006,0.021 -0.006,0.033 0,0.012 0.007,0.022 0.008,0.033 -0.063,1.809 0.189,3.052 0.383,3.953 0.032,0.149 0.053,0.258 0.077,0.382 -0.621,-0.215 -1.158,-0.322 -1.652,-0.381 -0.321,-1.383 -0.856,-2.5 -1.314,-3.222 0.768,-1.146 1.05,-2.778 1.269,-4.937 0.743,1.008 1.309,2.366 1.232,4.043 z m -2.313,7.786 c 0.077,-0.171 0.209,-0.462 0.279,-0.516 -0.002,-0.004 0.345,-0.154 1.5,0.258 0.303,0.108 0.348,0.221 0.383,0.395 0.289,1.398 -1.473,4.51 -3.064,5.978 -1.052,0.97 -2.367,1.421 -3.405,1.636 0.433,-1.298 0.873,-3.324 0.642,-5.554 0.802,-0.003 1.672,-0.162 2.593,-0.764 0.602,-0.392 0.872,-0.993 1.072,-1.433 z m -1.975,-13.377 c -0.392,4.179 -0.484,4.945 -1.75,5.214 -0.002,-1.613 -0.509,-3.098 -1.108,-4.165 0.999,-2.762 1.235,-5.149 0.871,-7.223 0.468,0.194 0.931,0.445 1.305,0.857 0.722,0.794 1.006,2.005 0.849,3.591 z m -74.494,0.595 c 5.366,-0.738 11.933,1.383 14.839,2.47 -0.578,1.227 -1.006,2.594 -1.226,4.06 -2.769,-1.446 -9.464,-4.086 -21.144,-3.853 -4.707,0.195 -7.715,-1.681 -9.468,-3.487 3.658,0.982 9.42,1.829 16.999,0.81 z m -1.048,6.073 c 2.878,0.237 5.293,0.649 7.257,1.146 -3.647,1.395 -9.159,3.616 -13.452,5.842 1.392,-2.223 3.43,-4.824 6.195,-6.988 z m 6.496,16.272 c -1.32,3.362 -3.26,9.034 -3.926,14.551 -1.873,0.789 -3.84,1.665 -5.961,2.696 0.804,-4.086 2.549,-11.324 5.429,-16.15 1.635,-0.312 3.121,-0.679 4.458,-1.097 z m 22.987,24.208 c -2.175,-4.536 -2.134,-9.592 -1.494,-13.675 2.173,10.519 8.236,18.791 15.922,21.709 -0.297,0.625 -0.568,1.427 -0.712,2.375 -6.694,-2.034 -11.361,-5.492 -13.716,-10.409 z m 12.484,16.042 c 0.313,-0.703 1.012,-1.248 1.643,-1.631 0.178,0.508 0.374,1.022 0.673,1.557 0.447,0.801 0.967,1.457 1.517,2.04 -0.348,0.796 -1.163,1.396 -1.962,1.4 h -0.002 c -0.986,0 -1.544,-0.898 -1.839,-1.652 -0.255,-0.649 -0.265,-1.193 -0.03,-1.714 z m 24.782,21.485 c -1.114,-1.182 -2.089,-2.392 -2.909,-3.516 2.322,1.156 5.158,2.442 8.001,3.412 -1.501,0.212 -3.228,0.301 -5.092,0.104 z m -14.703,-17.54 c 0.686,-0.168 1.432,-0.471 2.232,-0.938 1.547,2.09 3.399,4.182 5.671,5.981 -2.811,-0.313 -6.121,-1.515 -7.903,-5.043 z M 154.628,104.093 c 0.178,-0.015 0.508,0.017 0.907,0.146 0.552,0.18 1.254,0.57 2.046,1.502 1.206,1.419 2.776,2.574 4.489,3.51 0.099,0.054 0.189,0.122 0.289,0.175 2.191,1.142 4.633,1.877 7.096,1.985 l 1.469,0.075 c 7.811,0.42 16.403,0.662 19.582,-1.785 2.615,-2.009 6.424,-6.536 11.693,-12.802 1.725,-2.051 3.597,-4.273 5.612,-6.627 4.215,-4.926 12.138,-11.72 19.128,-17.711 7.21,-6.178 11.341,-9.764 12.413,-11.625 l 0.249,-0.437 c 3.384,-5.908 8.638,-13.476 15.236,-10.784 7.137,2.891 7.537,4.851 7.924,6.744 0.064,0.32 0.131,0.637 0.212,0.949 0.932,3.578 2.415,8.067 4.131,13.263 5.483,16.596 13.604,41.236 10.071,58.578 -2.564,-2.195 -6.083,-2.61 -7.642,-2.69 -1.421,-1.798 -3.657,-3.528 -6.353,-3.594 -1.485,-0.012 -3.523,0.437 -5.311,2.755 -1.707,-1.792 -3.842,-2.814 -6.174,-2.814 -2.113,0 -5.18,0.8 -8.406,4.332 -0.286,-8.307 -0.479,-28.934 3.802,-43.496 1.259,-2.966 1.816,-5.064 1.878,-5.309 0.209,-0.811 -0.244,-1.643 -1.034,-1.913 -0.792,-0.245 -1.652,0.117 -1.983,0.886 -0.68,1.589 -1.283,3.29 -1.822,5.08 -2.338,5.459 -7.247,14.154 -16.064,18.626 -15.998,8.109 -26.723,13.842 -29.929,19.405 -0.622,1.078 -1.281,2.376 -1.978,3.744 -1.882,3.706 -4.462,8.782 -6.676,9.436 -0.378,0.117 -0.71,0.066 -1.109,-0.162 -1.821,-1.048 -3.356,-2.787 -4.841,-4.472 -2.18,-2.475 -4.433,-5.031 -7.713,-5.501 l -0.637,-0.092 c -4.596,-0.644 -14.161,-1.993 -16.145,-7.297 l -0.52,-1.389 c -1.918,-5.142 -2.033,-5.45 -3.894,-7.485 -1.361,-1.483 -1.201,-2.036 -0.847,-2.671 0.029,-0.053 0.049,-0.104 0.079,-0.158 0.089,-0.147 0.343,-0.335 0.772,-0.377 z"
   id="path122" />
<g
   id="g124"
   transform="translate(0,-88.275)">
</g>
<g
   id="g126"
   transform="translate(0,-88.275)">
</g>
<g
   id="g128"
   transform="translate(0,-88.275)">
</g>
<g
   id="g130"
   transform="translate(0,-88.275)">
</g>
<g
   id="g132"
   transform="translate(0,-88.275)">
</g>
<g
   id="g134"
   transform="translate(0,-88.275)">
</g>
<g
   id="g136"
   transform="translate(0,-88.275)">
</g>
<g
   id="g138"
   transform="translate(0,-88.275)">
</g>
<g
   id="g140"
   transform="translate(0,-88.275)">
</g>
<g
   id="g142"
   transform="translate(0,-88.275)">
</g>
<g
   id="g144"
   transform="translate(0,-88.275)">
</g>
<g
   id="g146"
   transform="translate(0,-88.275)">
</g>
<g
   id="g148"
   transform="translate(0,-88.275)">
</g>
<g
   id="g150"
   transform="translate(0,-88.275)">
</g>
<g
   id="g152"
   transform="translate(0,-88.275)">
</g>
</svg>
