<svg xmlns="http://www.w3.org/2000/svg" xml:space="preserve" width="512" height="335.45001"><path style="fill:#73af00" d="M473.655 335.448H38.345C17.167 335.448 0 318.281 0 297.103V38.345C0 17.168 17.167 0 38.345 0h435.31C494.832 0 512 17.167 512 38.345v258.759c0 21.177-17.167 38.344-38.345 38.344z"/><path style="fill:#ffe15a" d="M511.47 303.437 304.329 167.724 511.47 32.011C508.449 13.849 492.674 0 473.655 0h-9.984L256 136.061 48.329 0h-9.984C19.326 0 3.55 13.849.53 32.011l207.141 135.713L.53 303.437c3.02 18.162 18.796 32.011 37.815 32.011h9.984L256 199.387l207.671 136.061h9.984c19.019 0 34.794-13.849 37.815-32.011z"/><path style="fill:#464655" d="M304.329 256 512 119.939v272.122zm-96.658 0L0 392.061V119.939z" transform="translate(0 -88.276)"/></svg>