<?xml version="1.0" encoding="UTF-8" standalone="no"?>
<svg
   xmlns:dc="http://purl.org/dc/elements/1.1/"
   xmlns:cc="http://creativecommons.org/ns#"
   xmlns:rdf="http://www.w3.org/1999/02/22-rdf-syntax-ns#"
   xmlns:svg="http://www.w3.org/2000/svg"
   xmlns="http://www.w3.org/2000/svg"
   xmlns:sodipodi="http://sodipodi.sourceforge.net/DTD/sodipodi-0.dtd"
   xmlns:inkscape="http://www.inkscape.org/namespaces/inkscape"
   version="1.1"
   id="Layer_1"
   x="0px"
   y="0px"
   viewBox="0 0 512 335.45001"
   xml:space="preserve"
   sodipodi:docname="kg.svg"
   width="512"
   height="335.45001"
   inkscape:version="1.0.1 (c497b03c, 2020-09-10)"><metadata
   id="metadata83"><rdf:RDF><cc:Work
       rdf:about=""><dc:format>image/svg+xml</dc:format><dc:type
         rdf:resource="http://purl.org/dc/dcmitype/StillImage" /><dc:title></dc:title></cc:Work></rdf:RDF></metadata><defs
   id="defs81" /><sodipodi:namedview
   pagecolor="#ffffff"
   bordercolor="#666666"
   borderopacity="1"
   objecttolerance="10"
   gridtolerance="10"
   guidetolerance="10"
   inkscape:pageopacity="0"
   inkscape:pageshadow="2"
   inkscape:window-width="1481"
   inkscape:window-height="935"
   id="namedview79"
   showgrid="false"
   inkscape:zoom="1.640625"
   inkscape:cx="256"
   inkscape:cy="256"
   inkscape:window-x="0"
   inkscape:window-y="23"
   inkscape:window-maximized="0"
   inkscape:current-layer="Layer_1" />
<path
   style="fill:#ff4b55"
   d="M 473.655,335.448 H 38.345 C 17.167,335.448 0,318.281 0,297.103 V 38.345 C 0,17.168 17.167,0 38.345,0 h 435.31 C 494.832,0 512,17.167 512,38.345 v 258.759 c 0,21.177 -17.167,38.344 -38.345,38.344 z"
   id="path10" />
<g
   id="g46"
   transform="translate(0,-88.276)">
	<path
   style="fill:#ffe15a"
   d="m 349.373,282.327 c 0,0 -17.586,-2.932 -30.613,-13.735 -3.843,-3.187 -9.42,-5.622 -14.852,-7.422 4.367,-0.194 8.999,-0.072 13.376,0.813 18.132,3.666 35.713,-5.135 35.713,-5.135 0,0 -17.739,1.79 -33.145,-5.213 -4.167,-1.894 -9.571,-2.786 -14.846,-3.162 3.794,-1.091 7.82,-1.945 11.795,-2.165 18.471,-1.024 33.265,-13.973 33.265,-13.973 0,0 -16.714,6.204 -33.388,3.311 -4.856,-0.843 -10.817,-0.212 -16.364,0.903 3.649,-2.292 7.667,-4.434 11.836,-5.813 17.562,-5.811 28.462,-22.174 28.462,-22.174 0,0 -14.515,10.353 -31.366,11.914 -5.004,0.463 -10.703,2.71 -15.846,5.297 2.967,-3.253 6.354,-6.473 10.104,-8.961 15.413,-10.229 21.622,-28.884 21.622,-28.884 0,0 -11.277,13.809 -27.124,19.751 -4.32,1.62 -8.797,4.864 -12.818,8.36 1.922,-3.494 4.181,-6.989 6.865,-9.991 12.329,-13.791 13.622,-33.409 13.622,-33.409 0,0 -7.423,16.21 -21.253,25.963 -4.032,2.844 -7.8,7.512 -10.934,12.23 0.958,-4.206 2.281,-8.568 4.254,-12.499 8.299,-16.533 4.424,-35.808 4.424,-35.808 0,0 -2.932,17.586 -13.735,30.613 -3.187,3.843 -5.622,9.42 -7.422,14.854 -0.194,-4.367 -0.072,-8.999 0.813,-13.376 3.666,-18.132 -5.135,-35.713 -5.135,-35.713 0,0 1.79,17.739 -5.214,33.145 -1.894,4.167 -2.786,9.571 -3.162,14.846 -1.091,-3.794 -1.945,-7.82 -2.165,-11.795 -1.024,-18.471 -13.973,-33.265 -13.973,-33.265 0,0 6.204,16.714 3.311,33.388 -0.843,4.856 -0.212,10.817 0.903,16.365 -2.292,-3.649 -4.434,-7.667 -5.813,-11.837 -5.811,-17.562 -22.174,-28.462 -22.174,-28.462 0,0 10.353,14.515 11.914,31.366 0.463,5.004 2.71,10.705 5.298,15.847 -3.253,-2.967 -6.473,-6.354 -8.962,-10.105 -10.229,-15.413 -28.884,-21.621 -28.884,-21.621 0,0 13.809,11.277 19.751,27.124 1.62,4.32 4.864,8.798 8.36,12.818 -3.494,-1.922 -6.989,-4.181 -9.991,-6.865 -13.791,-12.329 -33.409,-13.622 -33.409,-13.622 0,0 16.21,7.423 25.963,21.254 2.842,4.031 7.511,7.8 12.227,10.934 -4.205,-0.958 -8.567,-2.281 -12.497,-4.254 -16.533,-8.299 -35.808,-4.424 -35.808,-4.424 0,0 17.586,2.932 30.613,13.735 3.843,3.187 9.42,5.622 14.854,7.422 -4.367,0.194 -8.999,0.072 -13.376,-0.813 -18.132,-3.666 -35.713,5.135 -35.713,5.135 0,0 17.739,-1.79 33.145,5.214 4.167,1.894 9.571,2.786 14.846,3.162 -3.794,1.091 -7.82,1.945 -11.795,2.165 -18.471,1.024 -33.265,13.973 -33.265,13.973 0,0 16.714,-6.204 33.388,-3.311 4.856,0.843 10.817,0.212 16.365,-0.903 -3.649,2.292 -7.667,4.434 -11.837,5.813 -17.562,5.811 -28.462,22.174 -28.462,22.174 0,0 14.515,-10.353 31.366,-11.914 5.004,-0.463 10.705,-2.71 15.847,-5.298 -2.967,3.253 -6.354,6.473 -10.105,8.962 -15.413,10.229 -21.622,28.884 -21.622,28.884 0,0 11.277,-13.809 27.124,-19.751 4.319,-1.62 8.797,-4.864 12.817,-8.36 -1.921,3.493 -4.181,6.989 -6.863,9.99 -12.329,13.791 -13.622,33.409 -13.622,33.409 0,0 7.423,-16.21 21.254,-25.963 4.032,-2.844 7.8,-7.512 10.934,-12.228 -0.958,4.206 -2.281,8.567 -4.254,12.498 -8.299,16.533 -4.424,35.808 -4.424,35.808 0,0 2.932,-17.586 13.735,-30.613 3.187,-3.843 5.622,-9.42 7.422,-14.854 0.194,4.369 0.072,9 -0.813,13.377 -3.666,18.132 5.135,35.712 5.135,35.712 0,0 -1.79,-17.738 5.214,-33.144 1.894,-4.167 2.786,-9.572 3.162,-14.846 1.091,3.794 1.945,7.82 2.165,11.795 1.024,18.471 13.973,33.265 13.973,33.265 0,0 -6.204,-16.715 -3.311,-33.388 0.843,-4.856 0.212,-10.817 -0.903,-16.364 2.292,3.649 4.434,7.666 5.813,11.836 5.811,17.562 22.174,28.462 22.174,28.462 0,0 -10.353,-14.515 -11.914,-31.367 -0.463,-5.004 -2.71,-10.705 -5.298,-15.847 3.253,2.967 6.473,6.354 8.962,10.105 10.229,15.413 28.884,21.622 28.884,21.622 0,0 -13.809,-11.277 -19.751,-27.124 -1.62,-4.319 -4.864,-8.797 -8.36,-12.817 3.493,1.921 6.988,4.181 9.99,6.863 13.791,12.329 33.409,13.622 33.409,13.622 0,0 -16.21,-7.423 -25.963,-21.254 -2.844,-4.032 -7.512,-7.801 -12.23,-10.934 4.206,0.958 8.567,2.281 12.498,4.254 16.532,8.298 35.807,4.423 35.807,4.423 z m -93.394,18.497 c -24.753,0 -44.819,-20.066 -44.819,-44.819 0,-24.753 20.066,-44.819 44.819,-44.819 24.753,0 44.819,20.066 44.819,44.819 0,24.753 -20.066,44.819 -44.819,44.819 z"
   id="path12" />
	<path
   style="fill:#ffe15a"
   d="m 241.769,237.867 c 0.956,-0.746 1.907,-1.495 2.873,-2.161 -6.35,-2.888 -12.066,-4.275 -16.076,-4.896 -0.638,0.694 -1.214,1.439 -1.799,2.179 3.938,0.765 9.229,2.225 15.002,4.878 z"
   id="path14" />
	<path
   style="fill:#ffe15a"
   d="m 230.494,228.832 c 4.309,0.487 10.547,1.77 17.468,4.747 1.16,-0.692 2.314,-1.304 3.47,-1.895 -7.473,-3.068 -14.219,-4.211 -18.862,-4.564 -0.698,0.566 -1.422,1.098 -2.076,1.712 z"
   id="path16" />
	<path
   style="fill:#ffe15a"
   d="m 252.932,249.606 c -0.894,-0.844 -1.799,-1.643 -2.712,-2.398 -8.391,7.986 -15.732,19.633 -19.046,36.532 1.205,1.078 2.401,2.168 3.738,3.085 2.435,-17.187 9.572,-29.05 18.02,-37.219 z"
   id="path18" />
	<path
   style="fill:#ffe15a"
   d="m 249.678,242.183 c 0.951,-0.765 1.901,-1.533 2.865,-2.217 -1.174,-0.749 -2.344,-1.407 -3.51,-2.048 -0.999,0.684 -1.999,1.346 -2.986,2.115 1.208,0.665 2.416,1.373 3.631,2.15 z"
   id="path20" />
	<path
   style="fill:#ffe15a"
   d="m 272.866,240.019 c 7.194,6.319 13.77,15.217 18.449,27.553 1.201,-3.663 2.013,-7.503 2.013,-11.567 0,-7.716 -2.345,-14.883 -6.354,-20.835 -3.71,0.738 -8.691,2.18 -14.108,4.849 z"
   id="path22" />
	<path
   style="fill:#ffe15a"
   d="m 253.202,244.584 c 0.937,0.696 1.855,1.482 2.777,2.255 0.921,-0.774 1.839,-1.559 2.777,-2.255 -0.922,-0.768 -1.842,-1.524 -2.777,-2.214 -0.935,0.691 -1.854,1.446 -2.777,2.214 z"
   id="path24" />
	<path
   style="fill:#ffe15a"
   d="m 255.979,233.769 c -1.173,0.595 -2.347,1.266 -3.527,1.964 1.174,0.617 2.346,1.279 3.527,2.004 1.181,-0.724 2.354,-1.386 3.527,-2.004 -1.18,-0.699 -2.354,-1.369 -3.527,-1.964 z"
   id="path26" />
	<path
   style="fill:#ffe15a"
   d="m 227.104,279.426 c 3.951,-16.135 11.399,-27.189 19.734,-34.793 -1.165,-0.823 -2.326,-1.578 -3.49,-2.276 -8.021,7.053 -15.279,17.245 -19.751,31.929 1.031,1.822 2.196,3.527 3.507,5.14 z"
   id="path28" />
	<path
   style="fill:#ffe15a"
   d="m 239.092,240.019 c -5.417,-2.67 -10.398,-4.11 -14.109,-4.85 -4.009,5.952 -6.354,13.119 -6.354,20.835 0,4.064 0.812,7.904 2.013,11.567 4.68,-12.336 11.255,-21.233 18.45,-27.552 z"
   id="path30" />
	<path
   style="fill:#ffe15a"
   d="m 255.979,229.578 c 7.946,-3.283 15.276,-4.449 20.489,-4.757 -5.887,-3.876 -12.914,-6.165 -20.489,-6.165 -7.575,0 -14.602,2.29 -20.489,6.165 5.213,0.308 12.543,1.473 20.489,4.757 z"
   id="path32" />
	<path
   style="fill:#ffe15a"
   d="m 255.979,252.765 c -7.449,8.255 -13.597,20.107 -15.592,37.081 4.758,2.198 10.007,3.508 15.592,3.508 5.586,0 10.834,-1.31 15.592,-3.508 -1.995,-16.973 -8.143,-28.826 -15.592,-37.081 z"
   id="path34" />
	<path
   style="fill:#ffe15a"
   d="m 268.61,242.357 c -1.163,0.7 -2.324,1.453 -3.49,2.276 8.334,7.603 15.783,18.658 19.734,34.793 1.311,-1.614 2.476,-3.318 3.507,-5.14 -4.471,-14.683 -11.73,-24.876 -19.751,-31.929 z"
   id="path36" />
	<path
   style="fill:#ffe15a"
   d="m 280.783,283.74 c -3.314,-16.899 -10.655,-28.545 -19.046,-36.532 -0.914,0.755 -1.818,1.554 -2.712,2.398 8.448,8.169 15.585,20.032 18.019,37.218 1.338,-0.916 2.534,-2.006 3.739,-3.084 z"
   id="path38" />
	<path
   style="fill:#ffe15a"
   d="m 260.526,231.683 c 1.156,0.591 2.311,1.204 3.47,1.895 6.921,-2.977 13.159,-4.26 17.468,-4.747 -0.654,-0.614 -1.378,-1.146 -2.076,-1.713 -4.643,0.355 -11.389,1.498 -18.862,4.565 z"
   id="path40" />
	<path
   style="fill:#ffe15a"
   d="m 262.28,242.183 c 1.215,-0.777 2.423,-1.484 3.631,-2.15 -0.986,-0.769 -1.987,-1.431 -2.986,-2.115 -1.166,0.642 -2.335,1.299 -3.51,2.048 0.963,0.684 1.914,1.453 2.865,2.217 z"
   id="path42" />
	<path
   style="fill:#ffe15a"
   d="m 270.189,237.867 c 5.773,-2.653 11.064,-4.113 15,-4.877 -0.585,-0.74 -1.16,-1.486 -1.799,-2.179 -4.01,0.621 -9.726,2.007 -16.076,4.896 0.968,0.664 1.92,1.414 2.875,2.16 z"
   id="path44" />
</g>
<g
   id="g48">
</g>
<g
   id="g50">
</g>
<g
   id="g52">
</g>
<g
   id="g54">
</g>
<g
   id="g56">
</g>
<g
   id="g58">
</g>
<g
   id="g60">
</g>
<g
   id="g62">
</g>
<g
   id="g64">
</g>
<g
   id="g66">
</g>
<g
   id="g68">
</g>
<g
   id="g70">
</g>
<g
   id="g72">
</g>
<g
   id="g74">
</g>
<g
   id="g76">
</g>
</svg>
