<svg xmlns="http://www.w3.org/2000/svg" xml:space="preserve" width="512" height="335.45001"><path style="fill:#41479b" d="M473.654 335.448H38.345C17.167 335.448 0 318.281 0 297.103V38.345C0 17.168 17.167 0 38.345 0h435.309c21.177 0 38.345 17.167 38.345 38.345v258.758c0 21.178-17.168 38.345-38.345 38.345z"/><path style="fill:#ff4b55" d="M0 79.44499h512v176.55H0z"/><path style="fill:#f5f5f5" transform="translate(0 -88.276)" d="M368.644 310.417v-8.344h-4.173v-8.344h-4.172v-8.344h-12.516v-25.031h-.001l4.173-4.173v-12.516h-4.172v-8.343h-4.172v-12.517h-4.171v-8.344h-4.172v-8.344h-4.172v-4.171h-8.345v4.171h-4.172v8.344h-4.172v8.344h-4.171v12.517h-4.172v8.343h-25.033V231.15h-4.171v-12.517h-4.172v-12.516h-4.172v-8.343h-4.172v-8.344h-4.172v-4.173h-2.086v-4.172h-4.172v4.172h-2.087v4.173h-4.171v8.344h-4.172v8.343h-4.172v12.516h-4.172v12.517h-4.172v12.515h-25.032v-8.343h-4.172v-12.517h-4.172v-8.344h-4.172v-8.344h-4.172v-4.171h-8.344v4.171h-4.172v8.344h-4.172v8.344h-4.172v12.517h-4.172v8.343h-4.172v12.516l4.17 4.173h.002v25.031h-12.515v8.344h-4.172v8.344h-4.173v8.344h-4.172v12.516h-4.172v12.516h241.975v-12.516h-4.171v-12.516z"/></svg>