<?xml version="1.0" encoding="UTF-8" standalone="no"?>
<svg
   xmlns:dc="http://purl.org/dc/elements/1.1/"
   xmlns:cc="http://creativecommons.org/ns#"
   xmlns:rdf="http://www.w3.org/1999/02/22-rdf-syntax-ns#"
   xmlns:svg="http://www.w3.org/2000/svg"
   xmlns="http://www.w3.org/2000/svg"
   xmlns:sodipodi="http://sodipodi.sourceforge.net/DTD/sodipodi-0.dtd"
   xmlns:inkscape="http://www.inkscape.org/namespaces/inkscape"
   version="1.1"
   id="Layer_1"
   x="0px"
   y="0px"
   viewBox="0 0 512.001 335.45003"
   xml:space="preserve"
   sodipodi:docname="kn.svg"
   width="512.00098"
   height="335.45001"
   inkscape:version="1.0.1 (c497b03c, 2020-09-10)"><metadata
   id="metadata63"><rdf:RDF><cc:Work
       rdf:about=""><dc:format>image/svg+xml</dc:format><dc:type
         rdf:resource="http://purl.org/dc/dcmitype/StillImage" /><dc:title></dc:title></cc:Work></rdf:RDF></metadata><defs
   id="defs61" /><sodipodi:namedview
   pagecolor="#ffffff"
   bordercolor="#666666"
   borderopacity="1"
   objecttolerance="10"
   gridtolerance="10"
   guidetolerance="10"
   inkscape:pageopacity="0"
   inkscape:pageshadow="2"
   inkscape:window-width="1002"
   inkscape:window-height="743"
   id="namedview59"
   showgrid="false"
   inkscape:zoom="1.6406218"
   inkscape:cx="256.0005"
   inkscape:cy="256.0005"
   inkscape:window-x="0"
   inkscape:window-y="23"
   inkscape:window-maximized="0"
   inkscape:current-layer="Layer_1" />
<path
   style="fill:#73af00"
   d="M 473.655,335.448 H 38.345 C 17.167,335.448 0,318.281 0,297.103 V 38.345 C 0,17.168 17.167,0 38.345,0 h 435.31 C 494.832,0 512,17.167 512,38.345 v 258.759 c 0,21.177 -17.167,38.344 -38.345,38.344 z"
   id="path10" />
<g
   id="g16"
   transform="translate(0,-88.276)">
	<polygon
   style="fill:#ffe15a"
   points="415.356,88.276 375.085,88.276 0,334.022 0,360.406 "
   id="polygon12" />
	<polygon
   style="fill:#ffe15a"
   points="512,151.594 96.644,423.724 136.914,423.724 512,177.977 "
   id="polygon14" />
</g>
<path
   style="fill:#464655"
   d="m 473.655,0 h -58.3 L 0,272.13 v 24.973 c 0,21.177 17.167,38.345 38.345,38.345 h 58.3 L 512,63.318 V 38.345 C 512,17.167 494.833,0 473.655,0 Z"
   id="path18" />
<g
   id="g24"
   transform="translate(0,-88.276)">
	<path
   style="fill:#f5f5f5"
   d="m 156.019,275.898 18.119,14.59 19.67,-12.419 c 2.547,-1.608 5.675,0.951 4.602,3.766 l -8.277,21.74 17.89,14.869 c 2.316,1.926 0.849,5.691 -2.159,5.542 l -23.234,-1.154 -8.614,21.61 c -1.116,2.797 -5.15,2.567 -5.938,-0.341 l -6.082,-22.454 -23.213,-1.514 c -3.006,-0.196 -4.032,-4.105 -1.511,-5.752 l 19.475,-12.724 -5.734,-22.546 c -0.741,-2.917 2.66,-5.101 5.006,-3.213 z"
   id="path20" />
	<path
   style="fill:#f5f5f5"
   d="m 323.007,166.29 18.119,14.59 19.67,-12.42 c 2.547,-1.608 5.675,0.951 4.602,3.766 l -8.277,21.74 17.89,14.869 c 2.316,1.926 0.85,5.69 -2.159,5.542 l -23.234,-1.154 -8.613,21.61 c -1.116,2.797 -5.15,2.566 -5.938,-0.341 l -6.082,-22.454 -23.213,-1.514 c -3.006,-0.196 -4.032,-4.105 -1.511,-5.752 l 19.475,-12.724 -5.734,-22.546 c -0.741,-2.918 2.659,-5.101 5.005,-3.212 z"
   id="path22" />
</g>
<path
   style="fill:#ff4b55"
   d="M 512,89.701 136.914,335.448 h 336.742 c 21.177,0 38.345,-17.167 38.345,-38.345 z"
   id="path26" />
<g
   id="g28"
   transform="translate(0,-88.276)">
</g>
<g
   id="g30"
   transform="translate(0,-88.276)">
</g>
<g
   id="g32"
   transform="translate(0,-88.276)">
</g>
<g
   id="g34"
   transform="translate(0,-88.276)">
</g>
<g
   id="g36"
   transform="translate(0,-88.276)">
</g>
<g
   id="g38"
   transform="translate(0,-88.276)">
</g>
<g
   id="g40"
   transform="translate(0,-88.276)">
</g>
<g
   id="g42"
   transform="translate(0,-88.276)">
</g>
<g
   id="g44"
   transform="translate(0,-88.276)">
</g>
<g
   id="g46"
   transform="translate(0,-88.276)">
</g>
<g
   id="g48"
   transform="translate(0,-88.276)">
</g>
<g
   id="g50"
   transform="translate(0,-88.276)">
</g>
<g
   id="g52"
   transform="translate(0,-88.276)">
</g>
<g
   id="g54"
   transform="translate(0,-88.276)">
</g>
<g
   id="g56"
   transform="translate(0,-88.276)">
</g>
</svg>
