<?xml version="1.0" encoding="UTF-8" standalone="no"?>
<svg
   xmlns:dc="http://purl.org/dc/elements/1.1/"
   xmlns:cc="http://creativecommons.org/ns#"
   xmlns:rdf="http://www.w3.org/1999/02/22-rdf-syntax-ns#"
   xmlns:svg="http://www.w3.org/2000/svg"
   xmlns="http://www.w3.org/2000/svg"
   xmlns:sodipodi="http://sodipodi.sourceforge.net/DTD/sodipodi-0.dtd"
   xmlns:inkscape="http://www.inkscape.org/namespaces/inkscape"
   version="1.1"
   id="Layer_1"
   x="0px"
   y="0px"
   viewBox="0 0 512 335.45001"
   xml:space="preserve"
   sodipodi:docname="lc.svg"
   width="512"
   height="335.45001"
   inkscape:version="1.0.1 (c497b03c, 2020-09-10)"><metadata
   id="metadata640"><rdf:RDF><cc:Work
       rdf:about=""><dc:format>image/svg+xml</dc:format><dc:type
         rdf:resource="http://purl.org/dc/dcmitype/StillImage" /><dc:title></dc:title></cc:Work></rdf:RDF></metadata><defs
   id="defs638" /><sodipodi:namedview
   pagecolor="#ffffff"
   bordercolor="#666666"
   borderopacity="1"
   objecttolerance="10"
   gridtolerance="10"
   guidetolerance="10"
   inkscape:pageopacity="0"
   inkscape:pageshadow="2"
   inkscape:window-width="1140"
   inkscape:window-height="806"
   id="namedview636"
   showgrid="false"
   inkscape:zoom="1.2695312"
   inkscape:cx="256"
   inkscape:cy="256"
   inkscape:window-x="0"
   inkscape:window-y="23"
   inkscape:window-maximized="0"
   inkscape:current-layer="Layer_1" />
<path
   style="fill:#3cc8ff"
   d="M 473.655,335.448 H 38.345 C 17.167,335.448 0,318.281 0,297.103 V 38.345 C 0,17.168 17.167,0 38.345,0 h 435.31 C 494.832,0 512,17.167 512,38.345 v 258.759 c 0,21.177 -17.167,38.344 -38.345,38.344 z"
   id="path597" />
<polygon
   style="fill:#464655"
   points="379.644,397.241 256.057,114.759 132.471,397.241 "
   id="polygon599"
   transform="translate(0,-88.276)" />
<path
   style="fill:#f5f5f5"
   d="m 256.057,70.53 96.591,220.78 H 159.466 L 256.057,70.53 m 0,-44.047 -123.586,282.482 h 247.172 z"
   id="path601" />
<polygon
   style="fill:#ffe15a"
   points="379.644,397.241 132.471,397.241 256.057,256 "
   id="polygon603"
   transform="translate(0,-88.276)" />
<g
   id="g605"
   transform="translate(0,-88.276)">
</g>
<g
   id="g607"
   transform="translate(0,-88.276)">
</g>
<g
   id="g609"
   transform="translate(0,-88.276)">
</g>
<g
   id="g611"
   transform="translate(0,-88.276)">
</g>
<g
   id="g613"
   transform="translate(0,-88.276)">
</g>
<g
   id="g615"
   transform="translate(0,-88.276)">
</g>
<g
   id="g617"
   transform="translate(0,-88.276)">
</g>
<g
   id="g619"
   transform="translate(0,-88.276)">
</g>
<g
   id="g621"
   transform="translate(0,-88.276)">
</g>
<g
   id="g623"
   transform="translate(0,-88.276)">
</g>
<g
   id="g625"
   transform="translate(0,-88.276)">
</g>
<g
   id="g627"
   transform="translate(0,-88.276)">
</g>
<g
   id="g629"
   transform="translate(0,-88.276)">
</g>
<g
   id="g631"
   transform="translate(0,-88.276)">
</g>
<g
   id="g633"
   transform="translate(0,-88.276)">
</g>
</svg>
