<?xml version="1.0" encoding="UTF-8" standalone="no"?>
<svg
   xmlns:dc="http://purl.org/dc/elements/1.1/"
   xmlns:cc="http://creativecommons.org/ns#"
   xmlns:rdf="http://www.w3.org/1999/02/22-rdf-syntax-ns#"
   xmlns:svg="http://www.w3.org/2000/svg"
   xmlns="http://www.w3.org/2000/svg"
   xmlns:sodipodi="http://sodipodi.sourceforge.net/DTD/sodipodi-0.dtd"
   xmlns:inkscape="http://www.inkscape.org/namespaces/inkscape"
   version="1.1"
   id="Layer_1"
   x="0px"
   y="0px"
   viewBox="0 0 512 335.45001"
   xml:space="preserve"
   sodipodi:docname="li.svg"
   width="512"
   height="335.45001"
   inkscape:version="1.0.1 (c497b03c, 2020-09-10)"><metadata
   id="metadata65"><rdf:RDF><cc:Work
       rdf:about=""><dc:format>image/svg+xml</dc:format><dc:type
         rdf:resource="http://purl.org/dc/dcmitype/StillImage" /><dc:title></dc:title></cc:Work></rdf:RDF></metadata><defs
   id="defs63" /><sodipodi:namedview
   pagecolor="#ffffff"
   bordercolor="#666666"
   borderopacity="1"
   objecttolerance="10"
   gridtolerance="10"
   guidetolerance="10"
   inkscape:pageopacity="0"
   inkscape:pageshadow="2"
   inkscape:window-width="1055"
   inkscape:window-height="815"
   id="namedview61"
   showgrid="false"
   inkscape:zoom="1.640625"
   inkscape:cx="256"
   inkscape:cy="256"
   inkscape:window-x="0"
   inkscape:window-y="23"
   inkscape:window-maximized="0"
   inkscape:current-layer="Layer_1" />
<path
   style="fill:#41479b;stroke-width:1"
   d="M 473.655,0 H 38.345 C 17.167,0 0,17.167 0,38.345 V 167.724 H 512 V 38.345 C 512,17.167 494.833,0 473.655,0 Z"
   id="path10" />
<path
   style="fill:#ff4b55;stroke-width:1"
   d="m 0,297.103 c 0,21.177 17.167,38.345 38.345,38.345 h 435.31 c 21.177,0 38.345,-17.167 38.345,-38.345 V 167.724 H 0 Z"
   id="path12" />
<path
   style="fill:#ffe15a;stroke-width:1"
   d="m 164.028,100.411 c -0.115,-0.339 -0.374,-0.615 -0.708,-0.749 -0.034,-0.013 -0.727,-0.277 -1.839,-0.59 0.489,-0.662 0.834,-1.438 0.834,-2.322 0,-0.758 -0.269,-1.427 -0.638,-2.031 1.222,-0.683 2.083,-1.94 2.083,-3.435 0,-1.185 -0.544,-2.221 -1.368,-2.952 0.988,-0.726 1.672,-1.841 1.672,-3.157 0,-1.469 -0.836,-2.702 -2.023,-3.394 0.623,-0.704 1.033,-1.604 1.033,-2.616 0,-1.761 -1.167,-3.212 -2.755,-3.738 0.362,-0.6 0.627,-1.265 0.627,-2.016 0,-2.164 -1.739,-3.913 -3.892,-3.968 0.089,-0.332 0.205,-0.655 0.205,-1.015 0,-2.199 -1.789,-3.988 -3.989,-3.988 -0.371,0 -0.705,0.117 -1.046,0.212 0.006,-0.088 0.051,-0.163 0.051,-0.254 0,-2.199 -1.789,-3.988 -3.988,-3.988 -0.756,0 -1.422,0.267 -2.026,0.633 -0.465,-1.686 -1.947,-2.954 -3.778,-2.954 -1.099,0 -2.095,0.447 -2.817,1.169 -0.675,-1.246 -1.95,-2.125 -3.464,-2.125 -1.382,0 -2.541,0.749 -3.257,1.818 -0.728,-0.774 -1.743,-1.271 -2.887,-1.271 -1.476,0 -2.716,0.843 -3.405,2.037 -0.73,-0.818 -1.763,-1.356 -2.944,-1.356 -1.46,0 -2.684,0.826 -3.379,1.998 -0.679,-0.534 -1.496,-0.904 -2.424,-0.904 -1.676,0 -3.101,1.046 -3.69,2.515 -0.718,-0.694 -1.687,-1.132 -2.763,-1.132 -1.521,0 -2.802,0.886 -3.474,2.141 -0.294,-0.182 -0.594,-0.326 -0.931,-0.427 0.841,-1.242 1.332,-2.74 1.332,-4.35 0,-3.125 -1.862,-5.807 -4.525,-7.046 l 1.118,-2.237 c 0.173,-0.345 0.173,-0.755 0,-1.101 l -1.346,-2.692 c 0.098,-0.089 0.191,-0.182 0.28,-0.28 l 2.695,1.346 c 0.173,0.086 0.36,0.128 0.548,0.128 0.188,0 0.376,-0.045 0.548,-0.131 l 6.554,-3.277 c 0.418,-0.209 0.68,-0.633 0.68,-1.098 0,-0.465 -0.263,-0.889 -0.68,-1.098 l -6.554,-3.277 c -0.345,-0.173 -0.753,-0.173 -1.098,0 l -2.692,1.346 c -0.09,-0.099 -0.184,-0.193 -0.282,-0.284 l 1.346,-2.692 c 0.173,-0.345 0.173,-0.755 0,-1.101 l -3.277,-6.554 c -0.416,-0.832 -1.783003,-0.832 -2.199003,0 l -3.276999,6.554 c -0.173,0.345 -0.173,0.756 0,1.101 L 97.565,38.501 c -0.098,0.089 -0.191002,0.182 -0.279998,0.28 L 94.589998,37.435 C 94.245002,37.262 93.837,37.265 93.491999,37.438 l -6.554,3.277 c -0.418002,0.209 -0.679997,0.633 -0.679997,1.098 0,0.465 0.262999,0.889 0.679997,1.098 l 6.554,3.277 c 0.172999,0.086 0.360002,0.131 0.547998,0.131 0.189005,0 0.376003,-0.045 0.548004,-0.131 L 97.28,44.842 c 0.09,0.099 0.183997,0.193 0.281999,0.284 l -1.346002,2.692 c -0.172999,0.345 -0.172999,0.756 0,1.101 l 1.118004,2.237 c -2.662999,1.238 -4.525,3.921 -4.525,7.046 0,1.577 0.478996,3.041 1.287997,4.268 -0.486999,0.093 -0.928,0.256 -1.335997,0.51 -0.672,-1.255 -1.953004,-2.141 -3.474002,-2.141 -1.075,0 -2.045,0.437 -2.762998,1.132 -0.588001,-1.469 -2.012999,-2.515 -3.689999,-2.515 -0.929004,0 -1.747,0.37 -2.424003,0.904 -0.694999,-1.172 -1.92,-1.998 -3.379,-1.998 -1.181,0 -2.214001,0.538 -2.944,1.356 -0.689997,-1.195 -1.929001,-2.037 -3.405,-2.037 -1.142999,0 -2.159001,0.498 -2.886999,1.271 -0.716001,-1.069 -1.875998,-1.818 -3.257001,-1.818 -1.513999,0 -2.787998,0.879 -3.463997,2.125 C 60.352,58.537 59.356001,58.09 58.256998,58.09 c -1.831997,0 -3.313996,1.268 -3.777996,2.954 -0.602,-0.366 -1.270001,-0.633 -2.026,-0.633 -2.199002,0 -3.988002,1.789 -3.988002,3.988 0,0.089 0.045,0.166 0.051,0.254 -0.341,-0.095 -0.675,-0.212 -1.046,-0.212 -2.2,0 -3.989,1.789 -3.989,3.988 0,0.36 0.116,0.683 0.205,1.015 -2.153,0.055 -3.892,1.804 -3.892,3.968 0,0.751 0.265,1.416 0.627,2.016 -1.588,0.526 -2.755,1.976 -2.755,3.738 0,1.012 0.409,1.912 1.033,2.616 -1.186,0.692 -2.023,1.924 -2.023,3.394 0,1.318 0.684,2.431 1.672,3.157 -0.824,0.732 -1.368,1.767 -1.368,2.952 0,1.495 0.862,2.752 2.083,3.435 -0.369,0.605 -0.638,1.273 -0.638,2.031 0,0.931 0.371,1.751 0.907,2.43 -0.888,0.263 -1.433,0.47 -1.463,0.482 -0.334,0.135 -0.594,0.409 -0.708,0.749 -0.115,0.342 -0.074,0.717 0.11,1.027 0.097,0.16 9.76,16.386 12.959,32.378 0.079,0.396 0.366,0.651 0.704,0.811 2.457002,3.319 23.745997,5.913 49.66,5.913 25.914,0 47.202,-2.594 49.66,-5.913 0.338,-0.161 0.626,-0.415 0.704,-0.811 3.196,-15.98 12.861,-32.218 12.959,-32.378 0.185,-0.31 0.226,-0.685 0.111,-1.028 z"
   id="path14" />
<g
   id="g28"
   transform="translate(0,-88.276)">
	<path
   style="fill:#464655"
   d="m 164.028,188.687 c -0.115,-0.339 -0.374,-0.615 -0.708,-0.749 -0.034,-0.013 -0.727,-0.277 -1.839,-0.59 0.489,-0.662 0.834,-1.438 0.834,-2.322 0,-0.758 -0.269,-1.427 -0.638,-2.031 1.222,-0.683 2.083,-1.94 2.083,-3.435 0,-1.185 -0.544,-2.221 -1.368,-2.952 0.988,-0.726 1.672,-1.841 1.672,-3.157 0,-1.469 -0.836,-2.702 -2.023,-3.394 0.623,-0.704 1.033,-1.604 1.033,-2.616 0,-1.761 -1.167,-3.212 -2.755,-3.738 0.362,-0.6 0.627,-1.265 0.627,-2.016 0,-2.164 -1.739,-3.913 -3.892,-3.968 0.089,-0.332 0.205,-0.655 0.205,-1.015 0,-2.199 -1.789,-3.988 -3.989,-3.988 -0.371,0 -0.705,0.117 -1.046,0.212 0.006,-0.088 0.051,-0.163 0.051,-0.254 0,-2.199 -1.789,-3.988 -3.988,-3.988 -0.756,0 -1.422,0.267 -2.026,0.633 -0.465,-1.686 -1.947,-2.954 -3.778,-2.954 -1.099,0 -2.095,0.447 -2.817,1.169 -0.675,-1.246 -1.95,-2.125 -3.464,-2.125 -1.382,0 -2.541,0.749 -3.257,1.818 -0.728,-0.774 -1.743,-1.271 -2.887,-1.271 -1.476,0 -2.716,0.843 -3.405,2.037 -0.73,-0.818 -1.763,-1.356 -2.944,-1.356 -1.46,0 -2.684,0.826 -3.379,1.998 -0.679,-0.534 -1.496,-0.904 -2.424,-0.904 -1.676,0 -3.101,1.046 -3.69,2.515 -0.718,-0.694 -1.687,-1.132 -2.763,-1.132 -1.521,0 -2.802,0.886 -3.474,2.141 -0.294,-0.182 -0.594,-0.326 -0.931,-0.427 0.841,-1.242 1.332,-2.74 1.332,-4.35 0,-3.125 -1.862,-5.807 -4.525,-7.046 l 1.118,-2.237 c 0.173,-0.345 0.173,-0.755 0,-1.101 l -1.346,-2.692 c 0.098,-0.089 0.191,-0.182 0.28,-0.28 l 2.695,1.346 c 0.173,0.086 0.36,0.128 0.548,0.128 0.188,0 0.376,-0.045 0.548,-0.131 l 6.554,-3.277 c 0.418,-0.209 0.68,-0.633 0.68,-1.098 0,-0.465 -0.263,-0.889 -0.68,-1.098 l -6.554,-3.277 c -0.345,-0.173 -0.753,-0.173 -1.098,0 l -2.692,1.346 c -0.09,-0.099 -0.184,-0.193 -0.282,-0.284 l 1.346,-2.692 c 0.173,-0.345 0.173,-0.755 0,-1.101 l -3.277,-6.554 c -0.416,-0.832 -1.783,-0.832 -2.199,0 l -3.277,6.554 c -0.173,0.345 -0.173,0.756 0,1.101 l 1.346,2.692 c -0.098,0.089 -0.191,0.182 -0.28,0.28 l -2.695,-1.346 c -0.345,-0.173 -0.753,-0.17 -1.098,0.003 l -6.554,3.277 c -0.418,0.209 -0.68,0.633 -0.68,1.098 0,0.465 0.263,0.889 0.68,1.098 l 6.554,3.277 c 0.173,0.086 0.36,0.131 0.548,0.131 0.189,0 0.376,-0.045 0.548,-0.131 l 2.692,-1.346 c 0.09,0.099 0.184,0.193 0.282,0.284 l -1.346,2.692 c -0.173,0.345 -0.173,0.756 0,1.101 l 1.118,2.237 c -2.663,1.238 -4.525,3.921 -4.525,7.046 0,1.577 0.479,3.041 1.288,4.268 -0.487,0.093 -0.928,0.256 -1.336,0.51 -0.672,-1.255 -1.953,-2.141 -3.474,-2.141 -1.075,0 -2.045,0.437 -2.763,1.132 -0.588,-1.469 -2.013,-2.515 -3.69,-2.515 -0.929,0 -1.747,0.37 -2.424,0.904 -0.695,-1.172 -1.92,-1.998 -3.379,-1.998 -1.181,0 -2.214,0.538 -2.944,1.356 -0.69,-1.195 -1.929,-2.037 -3.405,-2.037 -1.143,0 -2.159,0.498 -2.887,1.271 -0.716,-1.069 -1.876,-1.818 -3.257,-1.818 -1.514,0 -2.788,0.879 -3.464,2.125 -0.722,-0.722 -1.718,-1.169 -2.817,-1.169 -1.832,0 -3.314,1.268 -3.778,2.954 -0.602,-0.366 -1.27,-0.633 -2.026,-0.633 -2.199,0 -3.988,1.789 -3.988,3.988 0,0.089 0.045,0.166 0.051,0.254 -0.341,-0.095 -0.675,-0.212 -1.046,-0.212 -2.2,0 -3.989,1.789 -3.989,3.988 0,0.36 0.116,0.683 0.205,1.015 -2.153,0.055 -3.892,1.804 -3.892,3.968 0,0.751 0.265,1.416 0.627,2.016 -1.588,0.526 -2.755,1.976 -2.755,3.738 0,1.012 0.409,1.912 1.033,2.616 -1.186,0.692 -2.023,1.924 -2.023,3.394 0,1.318 0.684,2.431 1.672,3.157 -0.824,0.732 -1.368,1.767 -1.368,2.952 0,1.495 0.862,2.752 2.083,3.435 -0.369,0.605 -0.638,1.273 -0.638,2.031 0,0.931 0.371,1.751 0.907,2.43 -0.888,0.263 -1.433,0.47 -1.463,0.482 -0.334,0.135 -0.594,0.409 -0.708,0.749 -0.115,0.342 -0.074,0.717 0.11,1.027 0.097,0.16 9.76,16.386 12.959,32.378 0.079,0.396 0.366,0.651 0.704,0.811 2.457,3.319 23.746,5.913 49.66,5.913 25.914,0 47.202,-2.594 49.66,-5.913 0.338,-0.161 0.626,-0.415 0.704,-0.811 3.196,-15.98 12.861,-32.218 12.959,-32.378 0.185,-0.31 0.226,-0.685 0.111,-1.028 z m -34.742,-7.916 v -19.233 c 1.559,-0.135 3.075,-0.178 4.533,-0.127 v 19.98 c -1.356,-0.655 -2.887,-0.846 -4.533,-0.62 z M 115.14,154.575 c 0.034,0.033 0.082,0.047 0.117,0.079 -0.052,0.011 -0.104,0.022 -0.157,0.034 0.017,-0.038 0.026,-0.075 0.04,-0.113 z m 43.186,28.922 c 0.843,0 1.529,0.685 1.529,1.529 0,0.845 -0.686,1.529 -1.529,1.529 -0.843,0 -1.529,-0.685 -1.529,-1.529 0,-0.845 0.686,-1.529 1.529,-1.529 z m 1.443,-2.408 c -0.843,0 -1.529,-0.685 -1.529,-1.529 0,-0.845 0.686,-1.529 1.529,-1.529 0.845,0 1.532,0.685 1.532,1.529 0,0.845 -0.686,1.529 -1.532,1.529 z m -1.223,-7.639 c 0,-0.845 0.686,-1.529 1.529,-1.529 0.843,0 1.529,0.685 1.529,1.529 0,0.845 -0.686,1.529 -1.529,1.529 -0.843,10e-4 -1.529,-0.684 -1.529,-1.529 z m -45.701,15.237 c -1.468,-5.581 -3.373,-13.982 -4.177,-22.38 0.845,-0.296 2.297,-0.781 4.177,-1.35 z m -20.486,-22.28 c -0.865,8.937 -2.976,17.889 -4.463,23.4 v -24.852 c 2.108,0.638 3.689,1.177 4.463,1.452 z m 9.766,-10.098 c 0,0.845 -0.686,1.529 -1.529,1.529 -0.843,0 -1.529,-0.685 -1.529,-1.529 0,-0.845 0.686,-1.529 1.529,-1.529 0.843,-0.002 1.529,0.684 1.529,1.529 z m -16.523,-1.726 -0.01,-0.002 c 0,0 0.006,-0.003 0.008,-0.006 0.001,0.003 0.001,0.006 0.002,0.008 z m -44.937,17.338 c 0.843,0 1.529,0.685 1.529,1.529 0,0.845 -0.686,1.529 -1.529,1.529 -0.843,0 -1.529,-0.685 -1.529,-1.529 -0.001,-0.845 0.686,-1.529 1.529,-1.529 z m 1.835,7.639 c 0,0.845 -0.686,1.529 -1.529,1.529 -0.845,0 -1.532,-0.685 -1.532,-1.529 0,-0.845 0.686,-1.529 1.532,-1.529 0.843,-0.001 1.529,0.683 1.529,1.529 z m -0.086,3.937 c 0.843,0 1.529,0.685 1.529,1.529 0,0.845 -0.686,1.529 -1.529,1.529 -0.843,0 -1.529,-0.685 -1.529,-1.529 -10e-4,-0.845 0.686,-1.529 1.529,-1.529 z m 6.311,-20.707 c 2.406,-3.892 7.102,-8.53 15.82,-8.53 8.512,0 20.522,2.601 28.214,4.513 0.003,1.668 -0.073,3.378 -0.191,5.098 -5.248,-1.827 -26.121,-8.508 -34.999,-2.432 -10.047,6.89 -6.872,20.033 -4.995,25.476 -1.598,-0.433 -3.214,-0.629 -4.761,-0.66 -3.629,-7.281 -3.265,-16.706 0.912,-23.465 z m 6.923,25.317 c -0.864,-2.009 -6.389,-15.905 1.824,-23.42 v 24.518 c -0.59,-0.422 -1.202,-0.779 -1.824,-1.098 z m 4.282,-25.151 c 1.298,-0.673 2.828,-1.109 4.533,-1.341 v 21.87 c -2.465,2.499 -3.561,5.938 -4.044,8.524 -0.156,-0.196 -0.328,-0.354 -0.49,-0.537 v -28.516 z m 6.992,-1.547 c 1.458,-0.051 2.974,-0.008 4.533,0.127 v 19.213 c -0.268,-0.024 -0.548,-0.093 -0.81,-0.093 -1.208,0 -2.342,0.253 -3.372,0.771 -0.127,0.063 -0.23,0.149 -0.352,0.216 v -20.235 h 10e-4 z m 6.991,0.391 c 1.523,0.202 3.043,0.467 4.533,0.765 v 21.037 c -1.56,-1.076 -3.078,-1.854 -4.533,-2.329 z m 6.992,1.293 c 1.611,0.371 3.132,0.76 4.533,1.151 v 26.012 c -1.355,-1.715 -2.916,-3.337 -4.533,-4.748 z m 14.301,-3.699 c 1.848,0.48 3.306,0.879 4.161,1.12 v 20.844 c -3.331,0.337 -5.876,2.038 -7.818,4.129 1.73,-7.206 3.593,-17.04 3.657,-26.093 z m 6.618,1.12 c 0.833,-0.234 2.231,-0.618 4.009,-1.08 0.068,8.961 1.895,18.677 3.609,25.856 -1.918,-1.996 -4.396,-3.605 -7.617,-3.93 v -20.845 h -0.001 z m 13.479,3.732 c 1.402,-0.39 2.922,-0.78 4.533,-1.151 v 22.606 c 0,0.057 0.025,0.107 0.033,0.163 -1.655,1.495 -3.222,3.21 -4.566,4.989 0,0 0,-26.607 0,-26.607 z m 6.991,-1.679 c 1.491,-0.298 3.01,-0.563 4.533,-0.765 v 19.586 c -1.458,0.535 -2.979,1.384 -4.533,2.507 z m 13.983,-0.95 c 1.706,0.232 3.235,0.666 4.533,1.34 v 28.788 c 0,0.064 0.026,0.12 0.036,0.181 -0.024,0.031 -0.052,0.054 -0.076,0.084 -0.51,-2.732 -1.724,-6.398 -4.493,-8.919 z m 6.991,3.072 c 8.799,8.056 1.79,23.505 1.714,23.669 -0.008,0.017 -0.006,0.034 -0.012,0.051 -0.584,0.332 -1.149,0.722 -1.702,1.151 z m -0.098,-3.25 c -8.702,-5.96 -28.974,0.36 -34.709,2.332 -0.113,-1.673 -0.186,-3.335 -0.183,-4.959 7.684,-1.917 19.798,-4.552 28.366,-4.552 8.718,0 13.415,4.638 15.82,8.53 4.177,6.76 4.542,16.184 0.913,23.466 -1.71,0.034 -3.502,0.275 -5.262,0.81 1.869,-5.351 5.193,-18.675 -4.945,-25.627 z m 15.915,7.531 c -0.843,0 -1.529,-0.685 -1.529,-1.529 0,-0.845 0.686,-1.529 1.529,-1.529 0.845,0 1.532,0.685 1.532,1.529 0,0.844 -0.688,1.529 -1.532,1.529 z m -0.597,-7.285 c 0,0.845 -0.686,1.533 -1.532,1.533 -0.843,0 -1.529,-0.689 -1.529,-1.533 0,-0.845 0.686,-1.529 1.529,-1.529 0.846,0 1.532,0.685 1.532,1.529 z m -3.686,-4.983 c 0,0.845 -0.686,1.529 -1.532,1.529 -0.843,0 -1.529,-0.685 -1.529,-1.529 0,-0.845 0.686,-1.529 1.529,-1.529 0.844,-0.001 1.532,0.685 1.532,1.529 z m -6.515,-5.559 c 0.843,0 1.529,0.685 1.529,1.529 0,0.845 -0.686,1.533 -1.529,1.533 -0.845,0 -1.532,-0.689 -1.532,-1.533 0,-0.844 0.687,-1.529 1.532,-1.529 z m -5.804,-2.321 c 0.843,0 1.529,0.685 1.529,1.529 0,0.845 -0.686,1.529 -1.529,1.529 -0.843,0 -1.529,-0.685 -1.529,-1.529 -0.001,-0.844 0.686,-1.529 1.529,-1.529 z m -6.281,-0.957 c 0.843,0 1.529,0.685 1.529,1.529 0,0.844 -0.686,1.533 -1.529,1.533 -0.845,0 -1.532,-0.689 -1.532,-1.533 0,-0.843 0.687,-1.529 1.532,-1.529 z m -6.145,0.548 c 0.843,0 1.529,0.685 1.529,1.529 0,0.844 -0.686,1.529 -1.529,1.529 -0.845,0 -1.532,-0.685 -1.532,-1.529 0,-0.844 0.687,-1.529 1.532,-1.529 z m -6.349,0.682 c 0.843,0 1.529,0.685 1.529,1.529 0,0.845 -0.686,1.533 -1.529,1.533 -0.845,0 -1.532,-0.689 -1.532,-1.533 0,-0.844 0.686,-1.529 1.532,-1.529 z m -5.805,1.094 c 0.843,0 1.529,0.685 1.529,1.529 0,0.844 -0.686,1.529 -1.529,1.529 -0.843,0 -1.529,-0.685 -1.529,-1.529 0,-0.844 0.686,-1.529 1.529,-1.529 z m -6.451,1.383 c 0.843,0 1.529,0.685 1.529,1.529 0,0.844 -0.686,1.529 -1.529,1.529 -0.843,0 -1.529,-0.685 -1.529,-1.529 0,-0.844 0.684,-1.529 1.529,-1.529 z m -5.531,4.545 c -0.843,0 -1.529,-0.685 -1.529,-1.529 0,-0.845 0.686,-1.529 1.529,-1.529 0.843,0 1.529,0.685 1.529,1.529 0,0.844 -0.686,1.529 -1.529,1.529 z M 98.547,130.09 c 0,-1.13 0.918,-2.048 2.048,-2.048 1.13,0 2.048,0.918 2.048,2.048 0,1.13 -0.918,2.048 -2.048,2.048 -1.129,0.001 -2.048,-0.918 -2.048,-2.048 z m 8.602,-1.904 3.807,1.905 -3.807,1.905 -2.133,-1.067 c 0.052,-0.273 0.085,-0.551 0.085,-0.838 0,-0.287 -0.033,-0.566 -0.085,-0.839 z m -8.457,-4.651 1.902,-3.806 1.902,3.806 -1.067,2.133 c -0.271,-0.052 -0.55,-0.085 -0.836,-0.085 -0.287,0 -0.565,0.033 -0.836,0.085 z m -4.652,8.459 -3.807,-1.905 3.807,-1.905 2.133,1.067 c -0.052,0.273 -0.085,0.551 -0.085,0.838 0,0.287 0.033,0.566 0.085,0.839 z m 4.652,4.65 1.067,-2.133 c 0.271,0.052 0.55,0.085 0.836,0.085 0.286,0 0.565,-0.033 0.836,-0.085 l 1.067,2.133 -1.066,2.133 c -0.278,-0.03 -0.55,-0.085 -0.836,-0.085 -0.287,0 -0.558,0.054 -0.836,0.085 z m 1.903,4.507 c 2.936,0 5.325,2.388 5.325,5.325 0,2.938 -2.389,5.325 -5.325,5.325 -2.936,0 -5.325,-2.388 -5.325,-5.325 0,-2.937 2.388,-5.325 5.325,-5.325 z m -5.775,11.906 c 0.843,0 1.529,0.685 1.529,1.529 0,0.845 -0.686,1.529 -1.529,1.529 -0.843,0 -1.529,-0.685 -1.529,-1.529 -10e-4,-0.845 0.685,-1.529 1.529,-1.529 z m -5.53,-1.485 c 0.843,0 1.529,0.685 1.529,1.529 0,0.844 -0.686,1.529 -1.529,1.529 -0.843,0 -1.529,-0.685 -1.529,-1.529 0,-0.844 0.685,-1.529 1.529,-1.529 z m -6.453,-1.383 c 0.843,0 1.529,0.685 1.529,1.529 0,0.844 -0.686,1.529 -1.529,1.529 -0.843,0 -1.529,-0.685 -1.529,-1.529 0,-0.844 0.686,-1.529 1.529,-1.529 z m -5.803,-1.094 c 0.845,0 1.532,0.685 1.532,1.529 0,0.845 -0.686,1.533 -1.532,1.533 -0.843,0 -1.529,-0.689 -1.529,-1.533 -0.002,-0.844 0.685,-1.529 1.529,-1.529 z m -6.35,-0.682 c 0.845,0 1.532,0.685 1.532,1.529 0,0.844 -0.686,1.529 -1.532,1.529 -0.843,0 -1.529,-0.685 -1.529,-1.529 0,-0.844 0.686,-1.529 1.529,-1.529 z m -6.146,-0.548 c 0.845,0 1.532,0.685 1.532,1.529 0,0.844 -0.686,1.533 -1.532,1.533 -0.843,0 -1.529,-0.689 -1.529,-1.533 0,-0.843 0.686,-1.529 1.529,-1.529 z m -6.28,0.957 c 0.843,0 1.529,0.685 1.529,1.529 0,0.845 -0.686,1.529 -1.529,1.529 -0.843,0 -1.529,-0.685 -1.529,-1.529 -10e-4,-0.844 0.686,-1.529 1.529,-1.529 z m -5.804,2.321 c 0.845,0 1.532,0.685 1.532,1.529 0,0.845 -0.686,1.533 -1.532,1.533 -0.843,0 -1.529,-0.689 -1.529,-1.533 -10e-4,-0.844 0.685,-1.529 1.529,-1.529 z m -4.983,4.029 c 0.843,0 1.529,0.685 1.529,1.529 0,0.845 -0.686,1.529 -1.529,1.529 -0.845,0 -1.532,-0.685 -1.532,-1.529 10e-4,-0.843 0.687,-1.529 1.532,-1.529 z m -3.687,4.984 c 0.843,0 1.529,0.685 1.529,1.529 0,0.845 -0.686,1.533 -1.529,1.533 -0.845,0 -1.532,-0.689 -1.532,-1.533 0,-0.844 0.688,-1.529 1.532,-1.529 z m -2.129,5.754 c 0.843,0 1.529,0.685 1.529,1.529 0,0.845 -0.686,1.529 -1.529,1.529 -0.845,0 -1.532,-0.685 -1.532,-1.529 0.002,-0.845 0.688,-1.529 1.532,-1.529 z m 107.122,54.669 c -5.667,-2.803 -25.06,-4.871 -48.181,-4.871 -23.121,0 -42.515,2.068 -48.182,4.871 -2.931,-13.569 -9.939,-26.697 -12.275,-30.823 3.892,-1.194 15.034,-3.562 20.03,6.43 0.256,0.509 0.831,0.778 1.382,0.647 0.555,-0.131 0.948,-0.627 0.948,-1.197 0,-0.089 0.067,-9.106 5.875,-12.011 5.751,-2.861 15.055,6.637 18.015,12.562 0,0 0.003,0.002 0.003,0.004 0.097,0.193 0.259,0.342 0.446,0.462 0.039,0.024 0.075,0.046 0.117,0.065 0.053,0.026 0.095,0.067 0.153,0.086 0.127,0.042 0.255,0.061 0.38,0.061 0.023,0 0.042,-0.02 0.065,-0.021 0.024,0 0.043,0.015 0.068,0.014 0.116,-0.013 0.201,-0.092 0.305,-0.135 0.11,-0.044 0.221,-0.065 0.314,-0.138 0.114,-0.089 0.174,-0.218 0.252,-0.343 0.051,-0.083 0.136,-0.132 0.168,-0.228 0.036,-0.113 0.189,-0.59 0.415,-1.334 1.074,-3.105 4.477,-10.923 11.524,-10.923 5.981,0 9.336,5.633 10.873,9.237 0.501,1.731 0.854,2.84 0.913,3.02 0.17,0.522 0.651,0.851 1.17,0.851 0.125,0 0.253,-0.019 0.38,-0.061 0.022,-0.008 0.038,-0.025 0.06,-0.033 0.342,-0.087 0.651,-0.258 0.814,-0.584 2.962,-5.928 12.274,-15.404 18.015,-12.562 0.386,0.193 0.743,0.417 1.079,0.66 0.333,0.281 0.558,0.489 0.938,0.794 3.785,3.694 3.858,10.478 3.858,10.557 10e-4,0.569 0.394,1.066 0.948,1.197 0.558,0.128 1.127,-0.138 1.382,-0.647 4.986,-9.97 16.13,-7.617 20.029,-6.426 -2.344,4.129 -9.35,17.254 -12.281,30.819 z"
   id="path16" />
	<path
   style="fill:#464655"
   d="m 105.443,193.561 c -0.159,0.131 -0.314,0.27 -0.468,0.414 -1.192,1.122 -3.153,0.241 -3.153,-1.397 v -0.221 c 0,-0.679 -0.551,-1.229 -1.229,-1.229 -0.678,0 -1.229,0.551 -1.229,1.229 v 0.221 c 0,1.638 -1.96,2.519 -3.153,1.397 -0.152,-0.143 -0.309,-0.281 -0.468,-0.414 -0.522,-0.429 -1.298,-0.365 -1.73,0.163 -0.434,0.522 -0.362,1.297 0.161,1.731 3.358,2.781 5.188,9.358 5.188,11.957 v 1.332 c 0,0.679 0.551,1.229 1.229,1.229 0.678,0 1.229,-0.551 1.229,-1.229 v -1.332 c 0,-2.599 1.831,-9.175 5.188,-11.957 0.523,-0.435 0.595,-1.209 0.161,-1.731 -0.429,-0.523 -1.204,-0.591 -1.726,-0.163 z"
   id="path18" />
	<path
   style="fill:#464655"
   d="m 133.309,198.724 c -0.145,-0.011 -0.288,-0.015 -0.433,-0.011 -1.151,0.079 -2.275,-1.555 -1.717,-2.823 0.023,-0.053 0.047,-0.107 0.071,-0.161 0.215,-0.49 0.051,-1.292 -0.359,-1.813 -0.409,-0.52 -0.94,-0.492 -1.194,0.084 -0.026,0.062 -0.054,0.122 -0.082,0.185 -0.58,1.318 -2.251,0.924 -2.514,-1.013 -0.033,-0.249 -0.067,-0.502 -0.106,-0.754 -0.129,-0.819 -0.6,-1.387 -1.102,-1.16 -0.499,0.218 -0.836,1.137 -0.716,1.969 0.711,5.494 -0.104,11.288 -1.035,13.395 -0.163,0.372 -0.328,0.744 -0.491,1.117 -0.253,0.574 0.07,1.018 0.729,0.97 0.66,-0.05 1.377,-0.503 1.593,-0.992 0.143,-0.324 0.286,-0.649 0.428,-0.974 0.882,-2.01 4.577,-6.467 7.604,-6.236 0.487,-0.003 0.694,-0.32 0.5,-0.796 -0.193,-0.472 -0.706,-0.947 -1.176,-0.987 z"
   id="path20" />
	<path
   style="fill:#464655"
   d="m 151.542,202.548 c -0.12,0 -0.239,0.007 -0.36,0.021 -0.966,0.161 -1.785,-1.338 -1.227,-2.606 0.023,-0.053 0.047,-0.107 0.071,-0.161 0.215,-0.49 0.137,-1.255 -0.167,-1.728 -0.303,-0.473 -0.748,-0.408 -1.002,0.169 -0.026,0.062 -0.054,0.122 -0.082,0.184 -0.58,1.318 -1.945,1.058 -2.024,-0.797 -0.009,-0.239 -0.02,-0.481 -0.033,-0.722 -0.047,-0.783 -0.399,-1.299 -0.835,-1.042 -0.433,0.248 -0.78,1.162 -0.74,1.958 0.192,5.267 -0.91,10.934 -1.841,13.041 -0.163,0.372 -0.328,0.744 -0.491,1.117 -0.253,0.574 -0.015,0.98 0.538,0.886 0.555,-0.097 1.186,-0.587 1.401,-1.077 0.143,-0.324 0.286,-0.649 0.428,-0.974 0.882,-2.01 4.29,-6.593 6.798,-6.59 0.407,-0.039 0.602,-0.36 0.476,-0.807 -0.126,-0.445 -0.52,-0.868 -0.91,-0.872 z"
   id="path22" />
	<path
   style="fill:#464655"
   d="m 77.049,206.624 c -0.931,-2.106 -1.746,-7.901 -1.035,-13.395 0.12,-0.831 -0.217,-1.749 -0.716,-1.969 -0.502,-0.227 -0.974,0.341 -1.102,1.16 -0.039,0.252 -0.073,0.503 -0.106,0.754 -0.264,1.937 -1.934,2.329 -2.514,1.013 -0.028,-0.062 -0.054,-0.124 -0.082,-0.185 -0.254,-0.577 -0.783,-0.604 -1.194,-0.084 -0.409,0.521 -0.574,1.322 -0.359,1.813 0.023,0.054 0.047,0.108 0.071,0.161 0.558,1.268 -0.567,2.902 -1.717,2.823 -0.145,-0.004 -0.288,0 -0.433,0.011 -0.47,0.04 -0.984,0.514 -1.178,0.988 -0.194,0.476 0.013,0.792 0.5,0.796 3.027,-0.232 6.722,4.225 7.604,6.236 0.142,0.324 0.286,0.649 0.428,0.974 0.215,0.49 0.932,0.942 1.593,0.992 0.66,0.049 0.982,-0.395 0.729,-0.97 -0.162,-0.374 -0.325,-0.746 -0.489,-1.118 z"
   id="path24" />
	<path
   style="fill:#464655"
   d="m 57.869,210.863 c -0.93,-2.106 -2.033,-7.774 -1.841,-13.041 0.04,-0.796 -0.309,-1.709 -0.74,-1.958 -0.436,-0.257 -0.788,0.259 -0.835,1.042 -0.014,0.241 -0.024,0.482 -0.033,0.722 -0.078,1.855 -1.443,2.114 -2.024,0.797 -0.028,-0.062 -0.054,-0.124 -0.082,-0.184 -0.254,-0.577 -0.698,-0.642 -1.002,-0.169 -0.303,0.473 -0.383,1.238 -0.167,1.728 0.023,0.054 0.047,0.108 0.071,0.161 0.558,1.268 -0.262,2.767 -1.227,2.606 -0.121,-0.014 -0.241,-0.021 -0.36,-0.021 -0.39,0.003 -0.783,0.426 -0.911,0.871 -0.127,0.446 0.07,0.768 0.476,0.807 2.508,-0.003 5.917,4.579 6.798,6.59 0.142,0.324 0.286,0.649 0.428,0.974 0.215,0.49 0.847,0.98 1.401,1.077 0.554,0.095 0.791,-0.311 0.538,-0.886 -0.162,-0.371 -0.326,-0.744 -0.49,-1.116 z"
   id="path26" />
</g>
<g
   id="g30"
   transform="translate(0,-88.276)">
</g>
<g
   id="g32"
   transform="translate(0,-88.276)">
</g>
<g
   id="g34"
   transform="translate(0,-88.276)">
</g>
<g
   id="g36"
   transform="translate(0,-88.276)">
</g>
<g
   id="g38"
   transform="translate(0,-88.276)">
</g>
<g
   id="g40"
   transform="translate(0,-88.276)">
</g>
<g
   id="g42"
   transform="translate(0,-88.276)">
</g>
<g
   id="g44"
   transform="translate(0,-88.276)">
</g>
<g
   id="g46"
   transform="translate(0,-88.276)">
</g>
<g
   id="g48"
   transform="translate(0,-88.276)">
</g>
<g
   id="g50"
   transform="translate(0,-88.276)">
</g>
<g
   id="g52"
   transform="translate(0,-88.276)">
</g>
<g
   id="g54"
   transform="translate(0,-88.276)">
</g>
<g
   id="g56"
   transform="translate(0,-88.276)">
</g>
<g
   id="g58"
   transform="translate(0,-88.276)">
</g>
</svg>
