<?xml version="1.0" encoding="UTF-8" standalone="no"?>
<svg
   xmlns:dc="http://purl.org/dc/elements/1.1/"
   xmlns:cc="http://creativecommons.org/ns#"
   xmlns:rdf="http://www.w3.org/1999/02/22-rdf-syntax-ns#"
   xmlns:svg="http://www.w3.org/2000/svg"
   xmlns="http://www.w3.org/2000/svg"
   xmlns:sodipodi="http://sodipodi.sourceforge.net/DTD/sodipodi-0.dtd"
   xmlns:inkscape="http://www.inkscape.org/namespaces/inkscape"
   version="1.1"
   id="Layer_1"
   x="0px"
   y="0px"
   viewBox="0 0 512 335.45001"
   xml:space="preserve"
   sodipodi:docname="lk.svg"
   width="512"
   height="335.45001"
   inkscape:version="1.0.1 (c497b03c, 2020-09-10)"><metadata
   id="metadata476"><rdf:RDF><cc:Work
       rdf:about=""><dc:format>image/svg+xml</dc:format><dc:type
         rdf:resource="http://purl.org/dc/dcmitype/StillImage" /><dc:title></dc:title></cc:Work></rdf:RDF></metadata><defs
   id="defs474" /><sodipodi:namedview
   pagecolor="#ffffff"
   bordercolor="#666666"
   borderopacity="1"
   objecttolerance="10"
   gridtolerance="10"
   guidetolerance="10"
   inkscape:pageopacity="0"
   inkscape:pageshadow="2"
   inkscape:window-width="1133"
   inkscape:window-height="791"
   id="namedview472"
   showgrid="false"
   inkscape:zoom="1.1875"
   inkscape:cx="256"
   inkscape:cy="256"
   inkscape:window-x="0"
   inkscape:window-y="23"
   inkscape:window-maximized="0"
   inkscape:current-layer="Layer_1" />
<path
   style="fill:#ffd250"
   d="M 473.655,0 H 38.345 C 17.167,0 0,17.167 0,38.345 v 258.76 c 0,21.177 17.167,38.345 38.345,38.345 h 435.31 C 494.832,335.45 512,318.283 512,297.105 V 38.345 C 512,17.167 494.833,0 473.655,0 Z M 158.897,300.139 c 0,4.875 -3.953,8.828 -8.828,8.828 H 92.69 35.31 c -4.875,0 -8.828,-3.953 -8.828,-8.828 V 35.31 c 0,-4.875 3.953,-8.828 8.828,-8.828 h 57.38 57.379 c 4.875,0 8.828,3.953 8.828,8.828 z m 326.62,0 c 0,4.875 -3.953,8.828 -8.828,8.828 H 194.207 c -4.875,0 -8.828,-3.953 -8.828,-8.828 V 35.31 c 0,-4.875 3.953,-8.828 8.828,-8.828 H 476.69 c 4.875,0 8.828,3.953 8.828,8.828 v 264.828 h -10e-4 z"
   id="path393" />
<path
   style="fill:#963c3c"
   d="M 476.69,26.483 H 194.207 c -4.875,0 -8.828,3.953 -8.828,8.828 v 264.828 c 0,4.875 3.953,8.828 8.828,8.828 H 476.69 c 4.875,0 8.828,-3.953 8.828,-8.828 V 35.31 c -10e-4,-4.875 -3.953,-8.827 -8.828,-8.827 z"
   id="path395" />
<path
   style="fill:#5aa587"
   d="m 35.31,26.483 c -4.875,0 -8.828,3.953 -8.828,8.828 v 264.828 c 0,4.875 3.953,8.828 8.828,8.828 H 92.69 V 26.483 Z"
   id="path397" />
<path
   style="fill:#ff7350"
   d="M 150.069,26.483 H 92.69 v 282.483 h 57.379 c 4.875,0 8.828,-3.953 8.828,-8.828 V 35.31 c 0,-4.875 -3.953,-8.827 -8.828,-8.827 z"
   id="path399" />
<g
   id="g421"
   transform="translate(0,-88.275)">
	<path
   style="fill:#ffd250"
   d="m 393.553,326.734 c -0.296,-1.973 1.441,-4.521 4.125,-8.182 0.971,-1.323 2.374,-3.24 2.752,-4.158 -0.25,-0.018 -0.594,0.002 -0.85,0.015 -1.485,0.072 -3.732,0.174 -5.695,-2.005 -0.768,-0.854 -1.138,-1.922 -1.066,-3.089 0.147,-2.371 2.083,-4.702 3.284,-5.935 -3.097,-2.175 -6.056,-4.434 -8.785,-7.162 -5.214,-5.215 -11.161,-7.726 -17.727,-7.588 -0.608,6.531 2.758,10.826 6.35,15.347 1.059,1.331 2.114,2.66 3.073,4.049 4.725,6.841 3.737,20.049 3.138,21.448 -0.679,1.586 -4.415,5.102 -9.54,4.417 -2.357,-0.31 -5.07,0.483 -6.78,1.977 -0.735,0.643 -1.612,1.713 -1.612,3.147 0,0.072 0.006,0.435 0.118,0.502 0.689,0.416 3.262,-0.396 5.102,-1.391 0.508,-0.277 1.14,-0.195 1.568,0.203 3.623,3.392 7.26,0.461 7.661,0.116 0.497,-0.425 1.23,-0.439 1.736,-0.032 3.708,2.988 7.573,-0.278 7.736,-0.419 0.455,-0.393 1.122,-0.44 1.628,-0.109 1.609,1.055 3.08,1.356 4.393,0.906 1.146,-0.398 1.754,-1.26 1.825,-1.468 0.033,-0.548 -0.703,-3.375 -1.191,-5.247 -0.512,-1.964 -1.04,-3.995 -1.243,-5.342 z"
   id="path401" />
	<path
   style="fill:#ffd250"
   d="m 433.707,201.665 c -1.117,-0.085 -1.926,0.157 -2.479,0.705 -1.015,1.003 -0.932,2.81 -0.93,2.828 0.021,0.402 -0.138,0.794 -0.431,1.068 -0.296,0.273 -0.693,0.413 -1.095,0.354 -2.008,-0.263 -4.978,-2.382 -10.488,-6.421 -8.755,-6.417 -21.987,-16.115 -34.611,-17.71 -14.674,-1.864 -27.733,2.817 -31.05,11.113 -3.694,9.236 4.157,17.651 4.236,17.736 0.399,0.423 0.487,1.054 0.213,1.567 -2.07,3.9 -0.502,6.778 0.911,8.355 0.443,-1.302 1.105,-2.191 2.017,-2.738 2.202,-1.316 5.078,-0.227 9.055,1.279 2.35,0.888 5.013,1.896 8.119,2.657 7.964,1.952 17.677,0.212 26.248,-1.323 3.029,-0.543 5.95,-1.064 8.666,-1.411 6.835,-0.871 13.687,2.158 15.57,6.906 0.913,2.3 1.4,6.915 -5.581,11.993 -12.556,9.133 -69.815,4.918 -73.188,4.661 -0.075,0.007 -0.149,0.013 -0.307,0.024 1.252,1.406 2.721,2.777 3.361,2.948 0.652,0.174 1.077,0.802 0.994,1.473 -0.083,0.67 -0.647,1.177 -1.322,1.187 l -5.866,0.089 0.54,5.645 c 0.039,0.416 -0.116,0.828 -0.422,1.113 -0.305,0.287 -0.727,0.407 -1.137,0.352 -0.23,-0.038 -5.293,-0.847 -8.793,-2.793 l -6.625,4.179 c -0.218,0.138 -0.47,0.207 -0.723,0.207 -0.147,0 -0.295,-0.023 -0.435,-0.072 -0.387,-0.132 -0.694,-0.43 -0.835,-0.814 l -2.528,-6.873 -2.997,5.996 c -0.219,0.439 -0.658,0.724 -1.145,0.747 -0.487,0.051 -0.951,-0.216 -1.213,-0.632 l -2.569,-4.095 c -1.175,1.468 -3.059,3.605 -4.986,4.939 -0.352,0.247 -0.798,0.307 -1.207,0.169 -0.407,-0.139 -0.724,-0.463 -0.853,-0.872 l -1.346,-4.249 c -1.191,1.506 -2.914,3.502 -4.738,4.999 -0.39,0.324 -0.93,0.399 -1.397,0.195 -0.466,-0.203 -0.779,-0.649 -0.81,-1.154 l -0.434,-6.831 c -1.542,0.786 -3.641,1.81 -4.804,2.173 -0.529,0.166 -1.112,-0.011 -1.459,-0.446 -0.349,-0.435 -0.395,-1.037 -0.116,-1.521 2.087,-3.624 4.002,-8.149 4.148,-10.399 -1.384,1.657 -3.321,3.243 -5.486,5.004 -4.606,3.75 -10.337,8.413 -14.556,16.576 -2.946,5.705 -5.062,15.657 -1.331,24.935 3.185,7.915 10.039,13.821 20.308,17.615 -0.343,-1.499 -0.607,-2.97 -0.634,-4.353 -0.134,-7.028 1.325,-13.443 1.388,-13.713 0.168,-0.729 0.892,-1.19 1.621,-1.013 0.729,0.168 1.182,0.894 1.015,1.621 -0.014,0.063 -1.444,6.371 -1.318,13.053 0.063,3.271 1.47,7.307 2.829,11.209 1.806,5.188 3.676,10.552 2.863,15.066 -1.107,6.136 -8.746,7.692 -15.838,6.508 -2.016,-0.339 -3.85,0.159 -5.167,1.388 -1.337,1.247 -2.023,3.159 -1.834,5.114 0.089,0.921 0.434,1.107 0.546,1.169 0.853,0.461 2.86,-0.165 3.945,-0.733 0.546,-0.287 1.221,-0.169 1.639,0.298 2.844,3.186 6.674,0.007 6.835,-0.132 0.549,-0.463 1.369,-0.422 1.863,0.106 1.071,1.142 2.206,1.71 3.469,1.739 2.309,0.141 4.502,-1.916 4.524,-1.933 0.399,-0.389 0.999,-0.49 1.505,-0.26 4.463,2.043 6.805,0.856 6.901,0.8 3.873,-3.302 1.635,-11.137 1.612,-11.217 -0.106,-0.358 -0.059,-0.744 0.13,-1.064 0.189,-0.322 0.502,-0.552 0.865,-0.636 5.425,-1.244 8.457,-4.725 9.923,-7.033 -2.68,-0.026 -4.81,-0.966 -6.065,-2.926 -2.02,-3.165 -1.05,-7.93 2.474,-12.141 6.029,-7.204 9.715,-21.784 9.162,-27.722 -0.068,-0.744 0.479,-1.402 1.223,-1.473 0.724,-0.074 1.402,0.479 1.473,1.223 0.483,5.201 -1.862,15.988 -6.142,24.122 5.422,-1.5 10.371,-3.695 15.534,-6.051 5.132,-2.342 10.441,-4.763 16.82,-6.761 10.781,-3.375 20.29,-1.036 28.274,6.951 3.868,3.868 8.09,6.7 12.98,9.983 2.147,1.441 4.382,2.941 6.7,4.611 6.285,4.524 6.174,8.302 6.056,12.301 -0.035,1.219 -0.074,2.479 0.063,3.844 0.649,6.495 -4.515,7.522 -6.998,8.015 -0.34,0.067 -0.659,0.13 -0.937,0.199 -0.351,0.088 -0.77,0.174 -1.234,0.268 -2.521,0.511 -6.33,1.284 -7.266,4.511 -0.169,0.578 -0.104,0.78 -0.104,0.78 0.398,0.181 2.462,-0.287 4.105,-1.034 0.349,-0.16 0.745,-0.162 1.096,-0.012 0.351,0.15 0.622,0.442 0.747,0.803 0.479,1.405 1.226,1.644 1.471,1.724 1.704,0.532 4.491,-1.036 5.332,-1.633 0.523,-0.369 1.228,-0.33 1.7,0.103 1.397,1.276 2.689,1.837 3.85,1.681 1.554,-0.216 2.497,-1.679 2.507,-1.695 0.224,-0.361 0.605,-0.597 1.028,-0.636 0.43,-0.023 0.842,0.129 1.128,0.442 0.003,0.006 1.187,1.255 3.61,2.02 1.589,0.497 1.99,-0.076 2.121,-0.266 0.671,-0.98 0.43,-3.48 -0.879,-5.115 -1.716,-2.146 -2.513,-5.409 -2.029,-8.312 0.444,-2.673 1.886,-4.852 4.165,-6.304 4.178,-2.659 5.132,-5.524 4.865,-6.07 -0.077,-0.038 -0.531,-0.097 -0.894,-0.145 -1.864,-0.247 -4.984,-0.659 -8.193,-6.584 -2.834,-5.229 -0.092,-13.508 3.082,-23.097 1.61,-4.857 3.274,-9.882 4.299,-14.81 2.84,-13.632 -6.086,-24.456 -6.176,-24.563 -0.461,-0.55 -0.414,-1.365 0.111,-1.857 6.265,-5.878 8.959,-11.327 8.002,-16.195 -0.995,-5.076 -5.911,-8.625 -9.817,-10.121 -4.868,-1.866 -13.75,-0.806 -22.343,0.216 -7.18,0.853 -13.966,1.662 -18.347,0.747 -2.257,-0.474 -3.91,-1.544 -4.913,-3.179 -0.826,-1.348 -1.028,-2.825 -1.021,-3.977 -2.176,0.818 -3.646,2.834 -3.663,2.858 -0.248,0.348 -0.649,0.558 -1.075,0.566 -0.534,-0.021 -0.836,-0.186 -1.096,-0.523 -1.107,-1.431 -1.553,-3.009 -1.32,-4.694 0.298,-2.178 1.704,-4.051 2.856,-5.259 -5.037,-1.769 -8.898,2.453 -9.076,2.654 -0.44,0.488 -1.164,0.591 -1.721,0.256 -2.43,-1.494 -3.936,-4.426 -3.841,-7.469 0.092,-2.873 1.574,-5.282 4.065,-6.605 1.707,-0.906 3.345,-1.073 4.863,-0.5 1.444,0.544 2.457,1.668 3.095,2.622 1.843,-2.102 1.998,-5.73 1.998,-5.772 0.011,-0.363 0.163,-0.706 0.43,-0.953 0.265,-0.247 0.632,-0.402 0.98,-0.363 3.204,0.132 5.693,1.29 7.393,3.439 2.324,2.941 2.542,7.025 2.406,9.554 5.119,-2.613 4.47,-8.644 4.437,-8.926 -0.054,-0.466 0.134,-0.925 0.499,-1.217 0.365,-0.29 0.851,-0.381 1.297,-0.218 5.432,1.917 7.409,6.761 7.874,10.366 1.538,-1.468 1.561,-3.351 1.561,-3.375 0,-0.618 0.419,-1.158 1.018,-1.311 0.605,-0.151 1.226,0.12 1.523,0.662 2.095,3.83 5.291,6.215 7.629,7.548 l -1.61,-3.903 c -0.218,-0.529 -0.081,-1.138 0.343,-1.521 0.426,-0.384 1.048,-0.458 1.549,-0.186 2.68,1.443 4.803,3.076 7.05,4.807 2.71,2.087 5.513,4.243 9.461,6.098 3.855,1.813 6.455,1.468 7.951,0.862 1.55,-0.626 2.436,-1.73 2.724,-2.486 0.544,-1.429 0.703,-3.481 -0.171,-4.842 -0.562,-0.878 -1.512,-1.365 -2.824,-1.451 z"
   id="path403" />
	<path
   style="fill:#ffd250"
   d="m 273.95,221.121 c 0.003,0.001 0.004,0.003 0.004,0.003 0.007,0.002 0.011,0.001 0.014,0.002 0.1,0.033 10.218,3.226 19.404,3.773 0.504,0.03 0.951,0.34 1.155,0.802 0.204,0.463 0.136,1.003 -0.181,1.397 l -0.321,0.399 c 1.822,-0.273 4.114,-0.526 6.362,-0.535 -0.921,-1.096 -2.067,-2.49 -3.243,-3.951 -2.457,-0.045 -11.446,-0.436 -18.762,-3.961 -1.777,-0.862 -4.849,-2.35 -6.31,-1.597 -0.252,0.13 -0.668,0.74 -0.599,1.489 0.091,0.951 0.968,1.725 2.477,2.179 z"
   id="path405" />
	<path
   style="fill:#ffd250"
   d="m 304.436,201.563 c -0.141,0 -0.269,0.015 -0.382,0.05 -0.59,0.177 -0.889,0.844 -0.969,1.364 -0.098,0.666 0.071,1.561 0.844,2.078 1.01,0.671 2.09,0.212 2.705,-0.395 0.194,-0.189 1.122,-1.182 0.437,-2.268 l -0.002,-0.003 c -1.057,-0.487 -1.984,-0.826 -2.633,-0.826 z"
   id="path407" />
	<path
   style="fill:#ffd250"
   d="m 291.157,234.186 c 0.655,1.562 1.672,2.773 2.513,3.585 0.319,-0.691 0.806,-1.408 1.544,-1.946 0.722,-0.526 1.974,-1.039 3.808,-0.657 0.029,0.002 0.054,0.008 0.083,0.011 0.053,0.012 0.094,0.007 0.148,0.02 0.047,0.011 0.077,0.049 0.124,0.062 0.065,0.023 0.134,0.025 0.196,0.06 0.047,0.025 0.076,0.068 0.118,0.098 0.69,0.294 1.266,0.766 1.571,1.48 1.025,2.392 -0.779,7.036 -2.371,10.34 1.125,-0.557 2.202,-1.121 2.784,-1.432 0.405,-0.218 0.895,-0.215 1.297,0.011 0.404,0.224 0.664,0.638 0.693,1.096 l 0.382,6.036 c 2.116,-2.23 3.783,-4.653 3.804,-4.685 0.292,-0.428 0.798,-0.643 1.314,-0.575 0.513,0.076 0.936,0.437 1.092,0.93 l 1.544,4.875 c 2.161,-1.987 4.044,-4.648 4.066,-4.682 0.263,-0.37 0.691,-0.567 1.142,-0.575 0.452,0.012 0.871,0.25 1.112,0.634 l 2.327,3.711 3.321,-6.641 c 0.242,-0.484 0.697,-0.789 1.287,-0.747 0.54,0.03 1.007,0.377 1.195,0.885 l 3.03,8.241 5.914,-3.732 c 0.448,-0.286 1.016,-0.278 1.464,0.014 1.929,1.263 4.893,2.078 6.761,2.497 l -0.505,-5.297 c -0.035,-0.377 0.088,-0.75 0.34,-1.031 0.252,-0.281 0.609,-0.446 0.987,-0.451 l 3.384,-0.051 c -0.814,-0.824 -1.487,-1.621 -1.816,-2.025 -0.221,-0.268 -0.308,-0.597 -0.294,-0.919 -2.493,-0.106 -5.967,-0.551 -9.441,-2.05 l -2.067,3.188 c -0.198,0.305 -0.508,0.516 -0.863,0.588 -0.089,0.02 -0.181,0.029 -0.271,0.029 -0.266,0 -0.529,-0.079 -0.754,-0.23 l -7.816,-5.244 -1.436,3.91 c -0.165,0.449 -0.555,0.777 -1.025,0.863 -0.47,0.092 -0.95,-0.081 -1.265,-0.44 -1.343,-1.54 -3.452,-3.901 -4.706,-5.196 -1.13,1.089 -3.112,2.846 -5.231,4.022 -0.345,0.192 -0.758,0.222 -1.126,0.086 -0.37,-0.136 -0.662,-0.426 -0.8,-0.797 l -2.143,-5.751 c -0.26,-0.7 0.095,-1.48 0.797,-1.741 0.697,-0.26 1.48,0.098 1.741,0.797 l 1.562,4.195 c 2.268,-1.575 4.16,-3.603 4.183,-3.628 0.483,-0.52 1.287,-0.582 1.837,-0.138 0.788,0.631 2.926,2.986 4.419,4.66 l 1.246,-3.393 c 0.142,-0.39 0.458,-0.693 0.853,-0.819 0.391,-0.136 0.826,-0.072 1.172,0.162 l 8.105,5.438 1.96,-3.02 c 0.377,-0.582 1.131,-0.785 1.739,-0.474 3.598,1.799 7.482,2.234 9.962,2.3 -1.513,-2.827 -1.646,-6.411 -1.655,-7.253 -2.026,-0.894 -4.515,-2.244 -7.02,-4.303 l -0.974,2.407 c -0.157,0.384 -0.481,0.676 -0.883,0.791 -0.399,0.111 -0.832,0.039 -1.166,-0.204 l -3.91,-2.837 -0.381,2.93 c -0.06,0.455 -0.343,0.847 -0.758,1.045 -0.41,0.198 -0.895,0.178 -1.288,-0.063 -0.136,-0.081 -3.353,-2.047 -5.27,-4.204 -0.497,-0.558 -0.446,-1.414 0.113,-1.91 0.552,-0.497 1.409,-0.449 1.91,0.113 0.81,0.911 1.945,1.816 2.891,2.502 l 0.393,-3.018 c 0.062,-0.474 0.369,-0.879 0.807,-1.068 0.44,-0.19 0.946,-0.132 1.331,0.147 l 4.352,3.157 1.042,-2.571 c 0.168,-0.413 0.529,-0.717 0.966,-0.812 0.434,-0.094 0.892,0.03 1.216,0.337 3.374,3.175 7.025,4.889 9.295,5.73 -0.776,-3.612 -1.071,-8.142 -1.086,-8.38 -0.002,-0.034 0.013,-0.063 0.013,-0.096 -2.109,-1.163 -5.09,-3.167 -7.667,-6.316 -0.012,1.668 -0.148,3.366 -0.557,4.438 -0.141,0.37 -0.435,0.659 -0.807,0.793 -0.374,0.129 -0.786,0.095 -1.125,-0.097 -0.163,-0.094 -3.108,-1.784 -5.3,-4.254 -0.378,1.361 -0.833,2.794 -1.216,3.434 -0.366,0.606 -1.131,0.83 -1.766,0.514 -0.129,-0.063 -2.203,-1.113 -4.051,-2.719 -0.18,1.802 -0.458,3.838 -0.854,4.83 -0.142,0.36 -0.434,0.64 -0.798,0.771 -0.365,0.125 -0.767,0.097 -1.107,-0.086 -0.124,-0.067 -2.472,-1.355 -4.665,-2.988 l -0.594,2.257 c -0.103,0.386 -0.369,0.708 -0.729,0.879 -0.363,0.168 -0.776,0.172 -1.14,0.009 -0.163,-0.074 -4.033,-1.854 -6.237,-4.547 -0.474,-0.578 -0.39,-1.431 0.19,-1.902 0.576,-0.474 1.431,-0.39 1.902,0.19 1.054,1.287 2.666,2.363 3.829,3.038 l 0.694,-2.637 c 0.121,-0.458 0.47,-0.819 0.924,-0.953 0.451,-0.141 0.942,-0.023 1.293,0.295 1.293,1.17 3.043,2.321 4.287,3.083 0.265,-1.671 0.47,-4.086 0.558,-5.652 0.035,-0.605 0.466,-1.113 1.055,-1.244 0.596,-0.134 1.198,0.145 1.485,0.675 0.744,1.37 2.532,2.705 3.88,3.549 0.37,-1.158 0.826,-2.865 1.169,-4.338 0.132,-0.566 0.608,-0.983 1.186,-1.039 0.578,-0.072 1.128,0.259 1.365,0.789 0.845,1.873 2.893,3.585 4.355,4.633 0.159,-1.973 0.012,-4.777 -0.169,-6.531 -0.067,-0.652 0.342,-1.258 0.971,-1.44 0.643,-0.174 1.3,0.116 1.589,0.702 2.722,5.521 7.535,8.579 10.039,9.865 1.365,-14.934 -3.012,-20.648 -3.059,-20.706 -0.245,-0.308 -0.348,-0.712 -0.275,-1.099 0.074,-0.386 0.308,-0.726 0.649,-0.924 2.431,-1.407 3.906,-3.977 4.811,-6.471 -5.502,5.334 -14.219,7.383 -18.465,8.092 l 2.073,2.527 c 0.316,0.386 0.395,0.915 0.204,1.376 -0.192,0.461 -0.62,0.779 -1.117,0.828 -5.203,0.52 -9,-0.169 -11.556,-1.031 l 0.885,1.633 c 0.233,0.428 0.216,0.95 -0.042,1.362 -0.257,0.414 -0.729,0.693 -1.205,0.634 -4.239,-0.181 -7.948,-1.928 -10.996,-3.471 -0.145,0.995 -0.636,1.964 -1.453,2.763 -1.001,0.977 -2.274,1.482 -3.537,1.482 -0.894,0 -1.781,-0.254 -2.56,-0.774 -1.529,-1.021 -2.303,-2.834 -2.019,-4.73 0.263,-1.742 1.362,-3.104 2.87,-3.555 2.017,-0.599 4.32,0.567 7.233,2.051 2.312,1.178 5.069,2.581 8.075,3.21 l -1.675,-3.094 c -0.312,-0.576 -0.168,-1.291 0.343,-1.702 0.513,-0.404 1.24,-0.393 1.736,0.038 0.03,0.026 3.398,2.793 11.042,2.65 l -1.928,-2.35 c -0.317,-0.386 -0.395,-0.918 -0.203,-1.379 0.194,-0.461 0.626,-0.779 1.124,-0.826 0.146,-0.013 11.251,-1.14 18.083,-6.645 -2.225,0.651 -3.947,0.548 -4.079,0.546 -0.375,-0.03 -0.721,-0.213 -0.954,-0.508 -3.13,-3.933 -6.333,-5.149 -7.948,-5.525 -0.907,2.858 -3.103,5.171 -3.21,5.282 -0.29,0.301 -0.705,0.449 -1.117,0.408 -0.416,-0.044 -0.788,-0.277 -1.01,-0.632 -2.414,-3.891 -5.894,-4.914 -7.916,-5.167 0.248,2.876 -1.762,5.238 -3.1,6.221 -0.52,0.377 -1.23,0.343 -1.704,-0.081 -5.807,-5.191 -10.292,-3.655 -12.106,-2.618 0.573,1.423 0.303,2.586 -0.085,3.372 -2.773,5.619 -19.927,6.749 -23.338,6.918 -0.423,0.03 -0.847,-0.163 -1.119,-0.5 -0.273,-0.337 -0.366,-0.782 -0.256,-1.199 0.25,-0.936 0.083,-1.945 -0.469,-2.847 -0.564,-0.921 -1.468,-1.592 -2.415,-1.795 -0.892,-0.189 -2.593,-0.067 -3.61,1.048 -1.163,1.279 -1.242,3.644 -0.23,6.841 1.816,5.739 7.411,11.393 10.894,14.492 -0.032,-0.714 -0.011,-1.239 -0.003,-1.37 0.03,-0.578 0.423,-1.073 0.98,-1.231 0.558,-0.163 1.151,0.051 1.482,0.526 1.154,1.658 2.53,2.778 3.564,3.464 l 0.679,-4.329 c 0.095,-0.599 0.576,-1.063 1.178,-1.134 0.599,-0.051 1.178,0.268 1.409,0.83 1.226,2.978 8.988,12.301 11.875,15.642 0.37,0.426 0.435,1.037 0.163,1.533 -0.271,0.493 -0.819,0.759 -1.379,0.691 -4.946,-0.705 -12.212,0.941 -12.284,0.957 -0.561,0.13 -1.143,-0.111 -1.45,-0.599 -0.305,-0.488 -0.269,-1.116 0.092,-1.567 l 1.001,-1.246 c -6.867,-0.714 -13.553,-2.519 -16.256,-3.309 l -2.271,6.17 6.12,-0.611 c 0.461,-0.058 0.936,0.156 1.217,0.537 0.286,0.381 0.349,0.881 0.169,1.322 l -1.154,2.82 5.041,-1.334 c 0.668,-0.185 1.353,0.172 1.606,0.81 0.668,1.692 1.487,2.803 2.141,3.492 l 1.42,-3.139 c 0.224,-0.49 0.712,-0.832 1.252,-0.794 0.533,0.003 1.015,0.328 1.224,0.826 z"
   id="path409" />
	<path
   style="fill:#ffd250"
   d="m 273.632,303.383 c 5.337,3.564 9.651,-0.502 11.956,-3.633 -4.917,-3.587 -8.497,-8 -10.61,-13.255 -0.691,-1.717 -1.14,-3.453 -1.491,-5.186 -0.502,-0.394 -7.927,-6.275 -14.146,-13.15 -0.318,0.829 -0.735,1.487 -1.073,1.932 0.437,1.777 0.012,3.228 -0.535,4.158 0.377,1.267 0.074,2.524 -0.365,3.441 0.941,1.42 1.112,2.81 0.509,4.146 -0.138,0.306 -0.324,0.588 -0.518,0.865 0.774,0.934 1.991,3.072 1.991,7.374 0,2.893 1.071,4.629 1.871,5.521 0.467,-0.404 0.978,-0.631 1.54,-0.691 1.707,-0.19 3.109,1.27 5.026,3.284 1.501,1.579 3.368,3.543 5.845,5.194 z"
   id="path411" />
	<path
   style="fill:#ffd250"
   d="m 247.085,266.698 c -0.1,0 -0.201,-0.002 -0.301,-0.002 -1.946,-0.018 -3.725,-0.212 -5.364,-0.527 -0.158,0.452 0.178,1.766 0.529,2.036 0.345,0.265 0.576,0.703 0.564,1.138 -0.012,0.434 -0.199,0.86 -0.558,1.105 -0.231,0.162 -0.918,0.776 -0.927,1.374 -0.009,0.584 0.68,1.187 1.092,1.497 0.301,0.225 0.495,0.567 0.534,0.941 0.039,0.375 -0.079,0.749 -0.328,1.033 -0.174,0.206 -0.671,0.959 -0.585,1.591 0.018,0.134 0.074,0.543 0.779,1.022 0.305,0.207 0.513,0.532 0.575,0.897 0.06,0.365 -0.032,0.738 -0.254,1.034 0.002,0 -0.378,0.555 -0.233,1.107 0.162,0.611 0.924,1.081 1.532,1.367 1.139,0.536 2.778,0.881 4.487,0.948 0.052,-0.009 0.105,-0.001 0.158,-0.003 1.44,0.042 2.919,-0.098 4.182,-0.564 1.239,-0.457 2.061,-1.119 2.444,-1.969 0.12,-0.265 0.369,-0.815 -0.696,-2.058 -0.416,-0.487 -0.435,-1.195 -0.047,-1.704 0.002,-0.003 0.904,-1.244 0.348,-2.234 -0.298,-0.531 -0.207,-1.193 0.222,-1.621 0.079,-0.088 0.919,-1.077 0.254,-2.852 -0.192,-0.511 -0.058,-1.087 0.34,-1.461 0.049,-0.049 1.273,-1.323 1.246,-3.26 -0.166,-0.202 -0.332,-0.405 -0.493,-0.608 -2.62,1.111 -5.832,1.773 -9.5,1.773 z"
   id="path413" />
	<path
   style="fill:#ffd250"
   d="m 259.463,172.374 c -5.472,2.943 -17.142,12.17 -17.479,37.43 l 0.301,42.568 c 0.036,0.06 0.088,0.121 0.118,0.179 0.706,1.332 0.372,3.059 -0.024,4.255 3.381,1.208 7.597,0.712 9.404,0.265 -0.361,-1.055 -0.646,-2.76 0.577,-4.69 -0.19,-50.764 4.651,-72.36 7.103,-80.007 z"
   id="path415" />
	<path
   style="fill:#ffd250"
   d="m 260.026,257.674 c 0,-2.164 -1.632,-3.848 -3.245,-4.394 -0.334,-0.115 -1.473,-0.431 -1.995,0.254 -0.978,1.279 -0.631,2.183 -0.298,3.059 0.186,0.487 0.378,0.989 0.234,1.563 -0.183,0.733 -0.851,1.034 -1.071,1.134 -1.836,0.833 -8.817,1.926 -13.641,-0.564 -0.653,-0.339 -0.918,-1.138 -0.594,-1.801 0.509,-1.043 0.879,-2.574 0.596,-3.106 -0.023,-0.044 -0.086,-0.165 -0.467,-0.216 -0.36,-0.05 -0.718,-0.074 -1.073,-0.074 -1.647,0 -3.175,0.518 -4.001,1.402 -0.664,0.712 -0.872,1.618 -0.634,2.767 0.802,3.873 5.651,6.223 12.971,6.29 5.178,-0.018 9.632,-1.24 11.855,-3.445 0.906,-0.895 1.363,-1.86 1.363,-2.869 z"
   id="path417" />
	<path
   style="fill:#ffd250"
   d="m 248.378,289.781 c 0.313,-0.413 0.83,-0.611 1.34,-0.505 0.941,0.197 3.279,0.693 4.621,-0.348 0.469,-0.36 0.575,-1.341 0.215,-1.981 -0.124,-0.221 -0.499,-0.885 -1.908,-0.345 -1.334,0.514 -3.249,1.071 -4.452,-0.011 -0.241,-0.216 -0.393,-0.469 -0.509,-0.728 -0.362,-0.031 -0.722,-0.051 -1.077,-0.105 -0.115,0.298 -0.274,0.588 -0.546,0.833 -1.198,1.08 -3.115,0.525 -4.45,0.011 -1.405,-0.534 -1.786,0.125 -1.908,0.345 -0.36,0.64 -0.256,1.621 0.212,1.978 1.344,1.036 3.684,0.546 4.452,0.384 0.499,-0.1 1.11,0.072 1.429,0.481 0.317,0.413 0.451,0.951 0.218,1.415 -0.305,0.609 -1.63,3.2 -2.925,4.818 1.692,2.474 3.157,6.883 -0.275,10.806 -0.28,0.317 -0.715,0.476 -1.119,0.458 -0.423,-0.032 -0.809,-0.26 -1.037,-0.618 -0.195,-0.296 -0.883,-1.117 -1.642,-1.265 -0.23,-0.044 -0.591,-0.062 -1.116,0.296 -0.354,0.245 -0.553,1.055 -0.254,1.942 0.534,1.586 2.194,2.466 4.535,2.357 0.532,-0.053 1.108,0.313 1.323,0.851 0.213,0.537 0.062,1.151 -0.377,1.527 l -2.206,1.892 3.602,0.877 c 0.478,0.116 0.854,0.483 0.985,0.957 0.006,0.023 0.544,1.942 1.621,3.561 1.075,-1.619 1.614,-3.538 1.619,-3.561 0.13,-0.474 0.508,-0.841 0.985,-0.957 l 3.602,-0.877 -2.208,-1.892 c -0.439,-0.375 -0.59,-0.99 -0.377,-1.527 0.213,-0.537 0.75,-0.898 1.323,-0.851 2.314,0.103 4.001,-0.771 4.537,-2.359 0.299,-0.885 0.1,-1.695 -0.254,-1.94 -0.532,-0.361 -0.898,-0.343 -1.124,-0.295 -0.785,0.159 -1.489,1.037 -1.635,1.263 -0.23,0.358 -0.615,0.587 -1.037,0.618 -0.439,0.023 -0.841,-0.138 -1.119,-0.458 -3.431,-3.922 -1.964,-8.332 -0.273,-10.806 -1.295,-1.618 -2.62,-4.207 -2.925,-4.818 -0.232,-0.459 -0.179,-1.014 0.134,-1.423 z"
   id="path419" />
</g>
<path
   style="fill:#464655"
   d="m 438.807,113.374 c -0.723,-1.126 -2.164,-2.504 -4.925,-2.684 -1.919,-0.138 -3.457,0.378 -4.576,1.497 -0.9,0.897 -1.334,2.008 -1.54,2.947 -1.846,-0.971 -4.8,-3.135 -7.884,-5.395 -8.981,-6.582 -22.552,-16.529 -35.873,-18.214 -10.804,-1.373 -23.093,0.782 -29.85,7.052 0.102,-0.829 0.132,-1.384 0.136,-1.479 10e-4,-0.018 -0.014,-0.031 -0.014,-0.05 0.002,-0.253 -0.068,-0.489 -0.196,-0.7 -0.028,-0.045 -0.057,-0.079 -0.09,-0.121 -0.15,-0.195 -0.338,-0.363 -0.586,-0.455 -0.004,-0.002 -0.007,-0.008 -0.012,-0.009 h -0.004 c -0.255,-0.089 -0.512,-0.075 -0.757,-0.017 -0.047,0.011 -0.088,0.019 -0.134,0.034 -0.236,0.083 -0.444,0.222 -0.604,0.422 -0.011,0.013 -0.03,0.014 -0.04,0.028 -2.807,3.768 -6.658,4.264 -8.078,4.311 -5.067,-6.017 -10.422,-6.204 -10.653,-6.209 -0.776,0.051 -1.269,0.481 -1.369,1.154 -0.212,1.429 -1.043,2.844 -1.746,3.826 -4.465,-5.551 -10.751,-4.995 -11.031,-4.972 -0.435,0.042 -0.821,0.292 -1.039,0.671 -0.216,0.377 -0.239,0.836 -0.059,1.235 0.806,1.772 -0.171,3.316 -0.95,4.174 -8.79,-7.044 -15.554,-1.305 -15.625,-1.242 -0.516,0.452 -0.613,1.222 -0.222,1.786 0.655,0.95 0.54,1.474 0.365,1.828 -1.422,2.882 -11.74,4.762 -19.467,5.314 -0.041,-1.087 -0.372,-2.169 -0.978,-3.161 -0.959,-1.565 -2.474,-2.667 -4.157,-3.029 -1.871,-0.407 -4.503,0.023 -6.18,1.875 -1.875,2.061 -2.144,5.25 -0.806,9.479 2.092,6.607 8.372,12.823 12.035,16.022 -0.892,-0.33 -1.777,-0.69 -2.634,-1.102 -2.156,-1.05 -5.767,-2.807 -8.435,-1.42 -1.346,0.696 -2.208,2.439 -2.051,4.142 0.079,0.853 0.556,2.77 3.053,3.994 l -3.004,8.16 c -0.16,0.437 -0.085,0.927 0.201,1.295 0.284,0.369 0.738,0.569 1.204,0.518 l 6.033,-0.602 -1.331,3.254 c -0.194,0.476 -0.103,1.021 0.236,1.406 0.339,0.384 0.854,0.555 1.364,0.414 l 6.549,-1.734 c 1.692,3.475 3.948,4.691 4.054,4.745 0.333,0.177 0.717,0.203 1.068,0.081 0.352,-0.121 0.64,-0.382 0.793,-0.721 l 1.043,-2.31 c 1.082,1.514 2.251,2.518 2.974,3.072 -0.44,0.364 -0.874,0.722 -1.351,1.11 -4.547,3.7 -10.774,8.769 -15.25,17.434 -2.248,4.351 -3.999,10.989 -3.476,18.049 -3.26,-2.74 -9.406,-8.175 -13.931,-13.738 0.545,-0.372 1.124,-0.723 1.562,-1.155 1.415,-1.4 2.162,-3.059 2.162,-4.791 0,-3.598 -2.636,-6.13 -5.084,-6.958 -0.911,-0.307 -1.788,-0.353 -2.586,-0.217 -0.079,-58.979 6.638,-77.035 8.002,-80.076 0.215,-0.481 0.132,-1.045 -0.215,-1.443 -0.345,-0.396 -0.895,-0.557 -1.4,-0.408 -0.886,0.26 -21.713,6.766 -22.172,41.226 l 0.29,41.112 c -2.827,-0.298 -5.511,0.506 -7.074,2.175 -0.888,0.95 -1.834,2.616 -1.308,5.166 0.701,3.383 3.43,5.88 7.618,7.252 -0.115,0.444 -0.154,0.946 -0.098,1.508 0.065,0.661 0.271,1.479 0.653,2.188 -0.511,0.609 -1.013,1.48 -1.039,2.553 -0.024,1.034 0.387,2.005 1.226,2.894 -0.331,0.668 -0.62,1.571 -0.493,2.572 0.077,0.596 0.328,1.387 1.034,2.152 -0.199,0.59 -0.322,1.362 -0.109,2.211 0.217,0.877 0.762,1.631 1.571,2.275 -2.072,-0.384 -3.528,0.551 -4.209,1.767 -1.024,1.825 -0.609,4.271 0.924,5.45 1.249,0.96 2.734,1.267 4.087,1.196 -0.689,1.166 -1.417,2.244 -1.875,2.602 -0.298,0.231 -0.487,0.575 -0.518,0.95 -0.033,0.375 0.092,0.747 0.345,1.027 0.141,0.156 3.092,3.481 1.335,6.936 -0.543,-0.446 -1.246,-0.863 -2.082,-1.033 -1.087,-0.221 -2.187,0.03 -3.188,0.717 -1.429,0.98 -1.96,3.05 -1.29,5.035 0.513,1.521 1.792,3.08 3.975,3.799 l -1.899,1.628 c -0.386,0.33 -0.553,0.85 -0.435,1.343 0.118,0.493 0.502,0.879 0.995,0.999 l 5.429,1.323 c 0.416,1.193 1.367,3.496 2.956,5.085 0.254,0.254 0.736,0.396 1.096,0.396 0.36,0 0.703,-0.142 0.957,-0.396 1.589,-1.589 2.541,-3.892 2.956,-5.085 l 5.429,-1.323 c 0.493,-0.12 0.877,-0.505 0.995,-0.999 0.118,-0.495 -0.051,-1.013 -0.435,-1.343 l -1.899,-1.628 c 2.182,-0.721 3.463,-2.279 3.975,-3.799 0.67,-1.986 0.139,-4.057 -1.29,-5.035 -1.003,-0.689 -2.109,-0.936 -3.189,-0.717 -0.835,0.169 -1.536,0.585 -2.081,1.031 -1.728,-3.436 1.198,-6.782 1.34,-6.938 0.25,-0.28 0.374,-0.652 0.34,-1.025 -0.033,-0.374 -0.221,-0.718 -0.516,-0.948 -0.457,-0.356 -1.182,-1.432 -1.871,-2.598 1.352,0.012 2.829,-0.234 4.083,-1.202 0.275,-0.211 0.47,-0.501 0.671,-0.782 0.096,5.939 3.86,8.289 4.023,8.388 0.641,0.382 1.464,0.18 1.85,-0.457 0.319,-0.52 0.509,-0.62 0.505,-0.626 0.476,0.026 1.811,1.432 2.787,2.457 1.592,1.675 3.576,3.762 6.304,5.58 1.999,1.334 3.889,1.859 5.625,1.859 4.872,0 8.521,-4.111 10.078,-6.223 3.034,1.903 6.474,3.555 10.396,4.895 0.134,0.046 0.27,0.064 0.405,0.067 0.468,1.519 0.979,3.048 1.507,4.564 1.693,4.857 3.443,9.881 2.755,13.695 -0.889,4.943 -8.71,4.993 -12.729,4.317 -2.86,-0.466 -5.513,0.266 -7.46,2.081 -1.947,1.819 -2.95,4.567 -2.678,7.354 0.189,1.947 1.164,2.863 1.951,3.288 1.806,0.971 4.248,0.245 5.575,-0.298 3.047,2.654 6.691,1.54 8.896,0.138 1.356,1.133 2.868,1.727 4.505,1.763 0.054,0.002 0.107,0.002 0.162,0.002 2.474,0 4.555,-1.302 5.596,-2.099 5.241,2.121 8.238,0.54 8.763,0.215 4.255,-3.59 3.555,-10.041 3,-12.846 8.745,-2.648 11.563,-10.248 11.685,-10.585 0.169,-0.474 0.062,-1.003 -0.278,-1.374 -0.343,-0.369 -0.867,-0.518 -1.348,-0.389 -2.696,0.724 -4.825,0.231 -5.839,-1.356 -1.373,-2.147 -0.483,-5.661 2.268,-8.947 0.577,-0.69 1.123,-1.453 1.657,-2.248 6.758,-1.511 12.53,-4.139 18.641,-6.926 5.058,-2.306 10.29,-4.692 16.508,-6.641 1.743,-0.547 3.437,-0.868 5.107,-1.085 -0.505,7.331 3.255,12.161 6.948,16.808 1.02,1.282 2.04,2.563 2.964,3.901 3.96,5.735 3.2,17.759 2.879,18.844 -0.281,0.617 -2.935,3.319 -6.697,2.803 -3.126,-0.416 -6.625,0.614 -8.919,2.622 -1.636,1.432 -2.537,3.274 -2.537,5.184 0,1.628 0.782,2.436 1.44,2.828 1.96,1.164 5.203,-0.081 6.941,-0.913 1.624,1.255 3.292,1.718 4.833,1.718 1.917,0 3.64,-0.714 4.849,-1.506 3.628,2.292 7.428,0.95 9.546,-0.495 2.654,1.44 4.787,1.155 6.162,0.614 0.447,-0.175 0.855,-0.397 1.226,-0.647 0.055,0.057 0.105,0.134 0.161,0.181 1.44,1.239 4.104,0.579 5.809,-0.039 0.776,1.284 1.802,1.863 2.613,2.121 2.506,0.798 5.383,-0.575 6.831,-1.432 1.757,1.358 3.502,1.929 5.246,1.684 1.538,-0.213 2.698,-1.039 3.445,-1.763 0.797,0.573 2.007,1.279 3.641,1.795 0.721,0.23 1.355,0.322 1.911,0.322 1.886,0 2.87,-1.075 3.256,-1.636 1.565,-2.285 0.749,-6.154 -0.998,-8.338 -1.031,-1.288 -1.887,-3.699 -1.474,-6.177 0.221,-1.322 0.909,-3.168 2.947,-4.465 3.676,-2.338 6.088,-5.504 6.144,-8.063 0.024,-1.057 -0.377,-1.929 -1.133,-2.457 -0.667,-0.467 -1.414,-0.566 -2.137,-0.661 -1.61,-0.213 -3.616,-0.478 -6.168,-5.191 -2.274,-4.201 0.419,-12.339 3.274,-20.957 1.632,-4.931 3.321,-10.03 4.378,-15.108 2.618,-12.569 -3.693,-22.696 -5.978,-25.849 6.355,-6.251 9.02,-12.25 7.922,-17.842 -1.208,-6.162 -6.953,-10.383 -11.503,-12.126 -5.501,-2.108 -14.719,-1.012 -23.633,0.056 -6.951,0.832 -13.523,1.621 -17.47,0.785 -1.492,-0.312 -2.553,-0.96 -3.153,-1.928 -1.043,-1.683 -0.484,-3.895 -0.479,-3.918 0.109,-0.414 0.014,-0.86 -0.254,-1.193 -0.269,-0.333 -0.714,-0.546 -1.108,-0.505 -2.593,0.104 -4.659,1.549 -5.935,2.742 -0.074,-0.363 -0.086,-0.736 -0.033,-1.122 0.351,-2.601 3.346,-4.874 3.375,-4.896 0.358,-0.269 0.562,-0.7 0.54,-1.149 -0.021,-0.448 -0.263,-0.856 -0.647,-1.09 -5.512,-3.357 -10.658,-0.871 -13.292,1.464 -1.113,-1.09 -1.784,-2.758 -1.732,-4.437 0.033,-1.103 0.423,-3.129 2.627,-4.301 0.997,-0.531 1.854,-0.647 2.631,-0.361 1.3,0.484 2.164,2.082 2.388,2.659 0.142,0.369 0.443,0.659 0.815,0.789 0.374,0.136 0.789,0.095 1.13,-0.106 3.017,-1.76 3.982,-5.457 4.288,-7.508 1.774,0.289 3.127,1.042 4.11,2.282 2.758,3.478 1.63,9.604 1.619,9.666 -0.088,0.458 0.067,0.928 0.407,1.246 0.34,0.317 0.821,0.435 1.272,0.317 6.124,-1.641 8.084,-6.614 8.386,-10.29 4.683,2.916 4.364,8.947 4.346,9.23 -0.03,0.466 0.181,0.915 0.558,1.186 0.378,0.273 0.868,0.331 1.3,0.159 2.241,-0.909 3.481,-2.388 4.169,-3.753 4.263,5.59 10.189,7.53 10.473,7.623 0.502,0.153 1.048,0.014 1.406,-0.374 0.356,-0.387 0.457,-0.946 0.256,-1.432 l -1.323,-3.207 c 1.077,0.759 2.114,1.558 3.18,2.379 2.826,2.174 5.746,4.423 9.96,6.403 4.738,2.226 8.114,1.727 10.119,0.924 1.999,-0.809 3.584,-2.317 4.239,-4.035 0.764,-2.001 1.052,-4.962 -0.425,-7.262 z m -2.105,6.304 c -0.287,0.756 -1.173,1.86 -2.724,2.486 -1.496,0.606 -4.096,0.951 -7.951,-0.862 -3.948,-1.855 -6.752,-4.012 -9.461,-6.098 -2.247,-1.73 -4.37,-3.363 -7.05,-4.807 -0.5,-0.271 -1.122,-0.198 -1.549,0.186 -0.425,0.382 -0.562,0.992 -0.343,1.521 l 1.61,3.903 c -2.338,-1.334 -5.534,-3.718 -7.629,-7.548 -0.296,-0.543 -0.918,-0.814 -1.523,-0.662 -0.599,0.153 -1.018,0.693 -1.018,1.311 0,0.024 -0.023,1.908 -1.561,3.375 -0.466,-3.605 -2.442,-8.448 -7.874,-10.366 -0.446,-0.162 -0.932,-0.072 -1.297,0.218 -0.365,0.292 -0.553,0.753 -0.499,1.217 0.033,0.281 0.682,6.313 -4.437,8.926 0.138,-2.528 -0.081,-6.613 -2.406,-9.554 -1.7,-2.15 -4.188,-3.307 -7.393,-3.439 -0.348,-0.039 -0.715,0.116 -0.98,0.363 -0.266,0.247 -0.419,0.59 -0.43,0.953 0,0.042 -0.156,3.67 -1.998,5.772 -0.638,-0.953 -1.651,-2.078 -3.095,-2.622 -1.518,-0.573 -3.156,-0.405 -4.863,0.5 -2.492,1.323 -3.974,3.732 -4.065,6.605 -0.095,3.043 1.411,5.975 3.841,7.469 0.557,0.337 1.281,0.233 1.721,-0.256 0.178,-0.201 4.039,-4.423 9.076,-2.654 -1.152,1.208 -2.558,3.082 -2.856,5.259 -0.233,1.684 0.213,3.263 1.32,4.694 0.259,0.337 0.562,0.502 1.096,0.523 0.426,-0.007 0.826,-0.218 1.075,-0.566 0.018,-0.024 1.487,-2.04 3.663,-2.858 -0.009,1.152 0.194,2.628 1.021,3.977 1.003,1.635 2.655,2.705 4.913,3.179 4.381,0.915 11.167,0.106 18.347,-0.747 8.593,-1.022 17.475,-2.082 22.343,-0.216 3.906,1.496 8.822,5.044 9.817,10.121 0.957,4.868 -1.737,10.318 -8.002,16.195 -0.525,0.491 -0.573,1.308 -0.111,1.857 0.089,0.107 9.016,10.931 6.176,24.563 -1.025,4.928 -2.689,9.953 -4.299,14.81 -3.174,9.588 -5.914,17.868 -3.082,23.097 3.209,5.926 6.329,6.337 8.193,6.584 0.363,0.047 0.815,0.107 0.894,0.145 0.268,0.546 -0.687,3.411 -4.865,6.07 -2.28,1.452 -3.721,3.631 -4.165,6.304 -0.483,2.903 0.313,6.167 2.029,8.312 1.309,1.635 1.55,4.136 0.879,5.114 -0.132,0.19 -0.532,0.763 -2.121,0.266 -2.423,-0.767 -3.607,-2.016 -3.61,-2.02 -0.286,-0.313 -0.697,-0.466 -1.128,-0.443 -0.425,0.039 -0.806,0.275 -1.028,0.636 -0.011,0.015 -0.953,1.479 -2.507,1.695 -1.161,0.157 -2.453,-0.405 -3.85,-1.681 -0.472,-0.431 -1.177,-0.47 -1.7,-0.103 -0.841,0.597 -3.628,2.165 -5.332,1.633 -0.245,-0.079 -0.992,-0.319 -1.471,-1.724 -0.125,-0.361 -0.396,-0.653 -0.747,-0.803 -0.351,-0.15 -0.747,-0.148 -1.096,0.012 -1.644,0.747 -3.708,1.216 -4.105,1.036 0,0 -0.065,-0.204 0.104,-0.782 0.936,-3.227 4.745,-4 7.266,-4.511 0.463,-0.094 0.883,-0.18 1.234,-0.268 0.278,-0.068 0.597,-0.132 0.937,-0.199 2.483,-0.493 7.647,-1.521 6.998,-8.015 -0.138,-1.365 -0.098,-2.625 -0.063,-3.844 0.118,-4 0.23,-7.777 -6.056,-12.301 -2.318,-1.671 -4.553,-3.17 -6.7,-4.611 -4.889,-3.283 -9.112,-6.115 -12.98,-9.983 -7.983,-7.987 -17.492,-10.327 -28.274,-6.951 -6.378,1.998 -11.687,4.419 -16.82,6.761 -5.163,2.356 -10.112,4.551 -15.534,6.051 4.28,-8.135 6.624,-18.922 6.142,-24.122 -0.071,-0.744 -0.749,-1.297 -1.473,-1.223 -0.744,0.071 -1.291,0.729 -1.223,1.473 0.553,5.938 -3.133,20.518 -9.162,27.722 -3.523,4.211 -4.494,8.977 -2.474,12.141 1.255,1.961 3.384,2.9 6.065,2.926 -1.465,2.308 -4.499,5.79 -9.923,7.033 -0.363,0.085 -0.676,0.313 -0.865,0.636 -0.189,0.321 -0.236,0.706 -0.13,1.064 0.023,0.079 2.261,7.915 -1.612,11.217 -0.097,0.056 -2.439,1.242 -6.901,-0.8 -0.505,-0.23 -1.105,-0.129 -1.505,0.26 -0.023,0.018 -2.215,2.073 -4.524,1.933 -1.263,-0.029 -2.398,-0.597 -3.469,-1.739 -0.493,-0.526 -1.313,-0.569 -1.863,-0.106 -0.16,0.139 -3.991,3.318 -6.835,0.132 -0.417,-0.467 -1.092,-0.585 -1.639,-0.298 -1.086,0.567 -3.092,1.195 -3.945,0.733 -0.113,-0.062 -0.457,-0.247 -0.546,-1.169 -0.189,-1.955 0.497,-3.868 1.834,-5.115 1.318,-1.23 3.153,-1.727 5.167,-1.388 7.092,1.184 14.731,-0.372 15.838,-6.508 0.812,-4.514 -1.057,-9.877 -2.863,-15.066 -1.361,-3.903 -2.766,-7.939 -2.829,-11.209 -0.127,-6.681 1.304,-12.989 1.318,-13.053 0.168,-0.727 -0.286,-1.453 -1.015,-1.621 -0.729,-0.177 -1.453,0.284 -1.621,1.013 -0.063,0.269 -1.523,6.685 -1.388,13.713 0.028,1.383 0.29,2.855 0.634,4.353 -10.269,-3.794 -17.123,-9.699 -20.308,-17.615 -3.732,-9.278 -1.615,-19.23 1.331,-24.935 4.218,-8.163 9.95,-12.826 14.556,-16.576 2.165,-1.761 4.103,-3.347 5.486,-5.004 -0.146,2.25 -2.06,6.775 -4.148,10.399 -0.278,0.483 -0.233,1.086 0.116,1.521 0.348,0.435 0.93,0.611 1.459,0.446 1.163,-0.363 3.263,-1.387 4.804,-2.173 l 0.434,6.831 c 0.032,0.505 0.345,0.951 0.81,1.154 0.467,0.204 1.007,0.129 1.397,-0.195 1.824,-1.496 3.546,-3.492 4.738,-4.999 l 1.346,4.249 c 0.129,0.408 0.446,0.733 0.853,0.872 0.408,0.138 0.854,0.077 1.207,-0.169 1.928,-1.334 3.811,-3.471 4.987,-4.939 l 2.569,4.095 c 0.26,0.416 0.726,0.684 1.213,0.632 0.488,-0.023 0.927,-0.308 1.145,-0.747 l 2.997,-5.996 2.528,6.873 c 0.141,0.384 0.448,0.682 0.835,0.814 0.141,0.05 0.289,0.072 0.435,0.072 0.252,0 0.504,-0.071 0.723,-0.207 l 6.625,-4.179 c 3.501,1.945 8.565,2.755 8.793,2.793 0.408,0.054 0.832,-0.065 1.137,-0.352 0.305,-0.286 0.46,-0.697 0.422,-1.113 l -0.54,-5.645 5.866,-0.089 c 0.675,-0.011 1.239,-0.518 1.322,-1.187 0.083,-0.671 -0.342,-1.299 -0.994,-1.473 -0.64,-0.171 -2.108,-1.543 -3.361,-2.948 0.159,-0.011 0.232,-0.018 0.307,-0.024 3.373,0.257 60.632,4.472 73.188,-4.661 6.983,-5.078 6.495,-9.694 5.581,-11.993 -1.884,-4.748 -8.736,-7.777 -15.57,-6.906 -2.717,0.348 -5.639,0.868 -8.666,1.411 -8.57,1.535 -18.283,3.275 -26.248,1.323 -3.106,-0.761 -5.769,-1.769 -8.119,-2.657 -3.977,-1.506 -6.852,-2.595 -9.055,-1.279 -0.913,0.546 -1.575,1.436 -2.017,2.738 -1.414,-1.577 -2.982,-4.456 -0.911,-8.355 0.273,-0.513 0.186,-1.143 -0.213,-1.567 -0.079,-0.085 -7.931,-8.5 -4.236,-17.736 3.318,-8.295 16.377,-12.977 31.05,-11.113 12.625,1.597 25.856,11.294 34.611,17.71 5.512,4.039 8.48,6.158 10.488,6.421 0.402,0.058 0.798,-0.081 1.095,-0.354 0.295,-0.273 0.452,-0.666 0.431,-1.068 -0.002,-0.018 -0.085,-1.825 0.93,-2.828 0.553,-0.548 1.362,-0.789 2.479,-0.705 1.313,0.086 2.262,0.573 2.825,1.447 0.872,1.367 0.714,3.42 0.169,4.849 z m -42.54,130.836 c -1.313,0.451 -2.784,0.15 -4.393,-0.906 -0.505,-0.331 -1.173,-0.284 -1.628,0.109 -0.163,0.141 -4.03,3.407 -7.736,0.419 -0.505,-0.407 -1.238,-0.393 -1.736,0.032 -0.402,0.345 -4.039,3.275 -7.661,-0.116 -0.428,-0.398 -1.06,-0.479 -1.568,-0.203 -1.842,0.995 -4.414,1.807 -5.102,1.391 -0.113,-0.067 -0.118,-0.43 -0.118,-0.502 0,-1.434 0.877,-2.504 1.612,-3.147 1.709,-1.494 4.423,-2.287 6.78,-1.977 5.126,0.685 8.863,-2.831 9.54,-4.417 0.599,-1.399 1.588,-14.606 -3.138,-21.448 -0.959,-1.388 -2.014,-2.719 -3.073,-4.049 -3.593,-4.52 -6.958,-8.815 -6.35,-15.347 6.566,-0.138 12.513,2.374 17.727,7.588 2.729,2.729 5.687,4.989 8.785,7.162 -1.201,1.234 -3.137,3.564 -3.284,5.935 -0.072,1.166 0.298,2.234 1.066,3.089 1.963,2.179 4.21,2.078 5.695,2.005 0.256,-0.014 0.599,-0.033 0.85,-0.015 -0.378,0.918 -1.781,2.835 -2.752,4.158 -2.684,3.661 -4.42,6.209 -4.125,8.182 0.203,1.346 0.732,3.375 1.244,5.339 0.488,1.871 1.225,4.7 1.191,5.247 -0.071,0.211 -0.679,1.073 -1.826,1.471 z m 5.698,-18.638 c 2.601,-3.549 3.922,-5.471 3.157,-7 -0.785,-1.571 -2.389,-1.503 -3.563,-1.443 -1.26,0.06 -2.454,0.113 -3.558,-1.113 -0.287,-0.319 -0.404,-0.661 -0.377,-1.108 0.094,-1.546 1.838,-3.552 2.842,-4.536 0.777,0.527 1.549,1.054 2.342,1.586 2.125,1.426 4.334,2.909 6.626,4.559 5.119,3.686 5.044,6.209 4.934,10.027 -0.038,1.244 -0.079,2.654 0.076,4.193 0.375,3.758 -1.768,4.481 -4.833,5.09 -0.387,0.077 -0.749,0.15 -1.068,0.23 -0.317,0.079 -0.696,0.156 -1.116,0.242 -1.955,0.396 -5.08,1.065 -7.253,3.091 -0.179,-0.733 -0.397,-1.582 -0.657,-2.574 -0.493,-1.896 -1.004,-3.855 -1.186,-5.058 -0.149,-1.022 2.313,-4.381 3.634,-6.186 z M 262.762,206.629 c -0.562,0.06 -1.073,0.287 -1.54,0.691 -0.8,-0.892 -1.871,-2.627 -1.871,-5.521 0,-4.302 -1.217,-6.441 -1.991,-7.374 0.193,-0.277 0.38,-0.558 0.518,-0.865 0.602,-1.335 0.431,-2.726 -0.509,-4.146 0.439,-0.918 0.742,-2.174 0.365,-3.441 0.548,-0.93 0.972,-2.382 0.535,-4.158 0.339,-0.445 0.756,-1.103 1.073,-1.932 6.219,6.873 13.644,12.755 14.146,13.15 0.351,1.732 0.8,3.468 1.491,5.186 2.113,5.255 5.693,9.667 10.61,13.255 -2.305,3.13 -6.618,7.197 -11.956,3.633 -2.477,-1.651 -4.345,-3.616 -5.844,-5.194 -1.918,-2.014 -3.32,-3.474 -5.027,-3.284 z m -11.321,11.924 c 0.278,0.321 0.68,0.481 1.119,0.458 0.423,-0.032 0.809,-0.26 1.037,-0.618 0.147,-0.225 0.851,-1.105 1.635,-1.263 0.225,-0.05 0.591,-0.067 1.124,0.295 0.354,0.245 0.553,1.055 0.254,1.94 -0.535,1.588 -2.223,2.462 -4.537,2.359 -0.573,-0.047 -1.11,0.313 -1.323,0.851 -0.213,0.537 -0.062,1.152 0.377,1.527 l 2.208,1.892 -3.602,0.877 c -0.478,0.116 -0.854,0.483 -0.985,0.957 -0.006,0.023 -0.544,1.942 -1.619,3.561 -1.077,-1.619 -1.615,-3.538 -1.621,-3.561 -0.13,-0.474 -0.508,-0.841 -0.985,-0.957 l -3.602,-0.877 2.206,-1.892 c 0.439,-0.377 0.59,-0.99 0.377,-1.527 -0.215,-0.537 -0.791,-0.904 -1.323,-0.851 -2.342,0.109 -4.001,-0.771 -4.535,-2.357 -0.299,-0.886 -0.1,-1.697 0.254,-1.942 0.523,-0.358 0.886,-0.34 1.116,-0.296 0.759,0.148 1.447,0.969 1.642,1.265 0.23,0.358 0.615,0.587 1.037,0.618 0.404,0.018 0.839,-0.141 1.119,-0.458 3.432,-3.922 1.966,-8.332 0.275,-10.806 1.295,-1.618 2.62,-4.207 2.925,-4.818 0.233,-0.463 0.098,-1.003 -0.218,-1.415 -0.319,-0.408 -0.93,-0.582 -1.429,-0.481 -0.768,0.162 -3.108,0.652 -4.452,-0.384 -0.467,-0.358 -0.57,-1.34 -0.212,-1.978 0.121,-0.221 0.504,-0.879 1.908,-0.345 1.335,0.514 3.253,1.069 4.45,-0.011 0.273,-0.245 0.431,-0.535 0.546,-0.833 0.355,0.054 0.715,0.073 1.077,0.105 0.116,0.26 0.268,0.512 0.509,0.728 1.204,1.081 3.118,0.525 4.452,0.011 1.409,-0.54 1.785,0.125 1.908,0.345 0.36,0.64 0.254,1.621 -0.215,1.981 -1.343,1.039 -3.681,0.544 -4.621,0.348 -0.509,-0.106 -1.025,0.094 -1.34,0.505 -0.313,0.41 -0.366,0.963 -0.136,1.426 0.305,0.609 1.63,3.2 2.925,4.818 -1.69,2.472 -3.155,6.882 0.275,10.803 z m 4.389,-38.036 c -0.398,0.374 -0.532,0.95 -0.34,1.461 0.666,1.777 -0.174,2.764 -0.254,2.852 -0.43,0.428 -0.52,1.09 -0.222,1.621 0.557,0.99 -0.345,2.23 -0.348,2.234 -0.387,0.509 -0.369,1.217 0.047,1.704 1.064,1.242 0.815,1.793 0.696,2.058 -0.382,0.85 -1.205,1.512 -2.444,1.969 -1.265,0.467 -2.743,0.606 -4.182,0.564 -0.053,0.002 -0.106,-0.006 -0.158,0.003 -1.708,-0.068 -3.348,-0.412 -4.487,-0.948 -0.608,-0.286 -1.369,-0.756 -1.532,-1.367 -0.147,-0.552 0.234,-1.107 0.233,-1.107 0.222,-0.296 0.313,-0.67 0.254,-1.034 -0.062,-0.365 -0.269,-0.689 -0.575,-0.897 -0.705,-0.479 -0.761,-0.888 -0.779,-1.022 -0.086,-0.632 0.41,-1.385 0.585,-1.591 0.248,-0.284 0.366,-0.658 0.328,-1.033 -0.039,-0.374 -0.233,-0.715 -0.534,-0.941 -0.413,-0.31 -1.101,-0.915 -1.092,-1.497 0.009,-0.599 0.696,-1.213 0.927,-1.374 0.36,-0.245 0.546,-0.671 0.558,-1.105 0.012,-0.435 -0.218,-0.874 -0.564,-1.138 -0.352,-0.27 -0.686,-1.583 -0.529,-2.036 1.639,0.316 3.417,0.51 5.364,0.527 0.1,0 0.201,0.002 0.301,0.002 3.668,0 6.879,-0.662 9.496,-1.773 0.162,0.203 0.328,0.406 0.493,0.608 0.031,1.937 -1.193,3.213 -1.242,3.26 z m -9.021,-4.802 c -7.32,-0.067 -12.17,-2.418 -12.971,-6.29 -0.238,-1.151 -0.03,-2.056 0.634,-2.767 0.826,-0.885 2.354,-1.402 4.001,-1.402 0.354,0 0.714,0.024 1.073,0.074 0.381,0.051 0.444,0.172 0.467,0.216 0.284,0.532 -0.086,2.063 -0.596,3.106 -0.324,0.662 -0.06,1.462 0.594,1.801 4.824,2.489 11.805,1.397 13.641,0.564 0.221,-0.1 0.888,-0.402 1.071,-1.134 0.145,-0.575 -0.047,-1.077 -0.234,-1.562 -0.333,-0.876 -0.68,-1.78 0.298,-3.059 0.522,-0.685 1.66,-0.369 1.995,-0.254 1.614,0.546 3.245,2.23 3.245,4.394 0,1.007 -0.458,1.973 -1.362,2.87 -2.224,2.203 -6.678,3.424 -11.856,3.443 z m 4.974,-6.92 c -1.806,0.448 -6.023,0.945 -9.404,-0.265 0.396,-1.196 0.732,-2.923 0.024,-4.255 -0.031,-0.057 -0.082,-0.119 -0.118,-0.179 l -0.301,-42.568 c 0.337,-25.261 12.006,-34.488 17.479,-37.43 -2.452,7.647 -7.293,29.242 -7.103,80.006 -1.223,1.932 -0.937,3.637 -0.577,4.691 z m 36.892,-22.92 -1.42,3.139 c -0.653,-0.689 -1.473,-1.801 -2.141,-3.492 -0.252,-0.638 -0.937,-0.995 -1.605,-0.81 l -5.041,1.334 1.154,-2.82 c 0.18,-0.44 0.116,-0.941 -0.169,-1.322 -0.281,-0.382 -0.756,-0.596 -1.217,-0.537 l -6.12,0.611 2.271,-6.17 c 2.702,0.789 9.389,2.595 16.256,3.309 l -1.001,1.246 c -0.361,0.451 -0.396,1.078 -0.092,1.567 0.307,0.488 0.889,0.729 1.45,0.599 0.072,-0.015 7.338,-1.662 12.284,-0.957 0.561,0.068 1.108,-0.198 1.379,-0.691 0.271,-0.495 0.206,-1.107 -0.163,-1.533 -2.888,-3.34 -10.649,-12.664 -11.875,-15.642 -0.231,-0.562 -0.811,-0.881 -1.409,-0.83 -0.602,0.072 -1.084,0.535 -1.178,1.134 l -0.679,4.329 c -1.034,-0.685 -2.41,-1.806 -3.564,-3.464 -0.331,-0.476 -0.924,-0.691 -1.482,-0.526 -0.557,0.159 -0.95,0.653 -0.98,1.231 -0.007,0.132 -0.029,0.658 0.003,1.37 -3.484,-3.1 -9.077,-8.754 -10.894,-14.492 -1.013,-3.198 -0.934,-5.562 0.229,-6.841 1.016,-1.116 2.719,-1.237 3.611,-1.048 0.948,0.203 1.852,0.874 2.415,1.795 0.552,0.903 0.718,1.911 0.469,2.847 -0.111,0.417 -0.018,0.863 0.256,1.199 0.271,0.337 0.696,0.531 1.119,0.5 3.411,-0.169 20.565,-1.299 23.338,-6.918 0.387,-0.786 0.658,-1.949 0.085,-3.372 1.815,-1.036 6.298,-2.572 12.106,2.618 0.474,0.425 1.184,0.458 1.704,0.081 1.337,-0.983 3.348,-3.346 3.1,-6.221 2.023,0.254 5.503,1.278 7.916,5.167 0.222,0.356 0.594,0.588 1.01,0.632 0.413,0.041 0.826,-0.107 1.117,-0.408 0.107,-0.111 2.303,-2.424 3.21,-5.282 1.615,0.377 4.818,1.592 7.948,5.525 0.234,0.295 0.579,0.478 0.954,0.508 0.132,0.002 1.855,0.105 4.079,-0.546 -6.833,5.505 -17.938,6.631 -18.083,6.645 -0.499,0.047 -0.93,0.365 -1.124,0.826 -0.192,0.461 -0.115,0.994 0.203,1.379 l 1.928,2.35 c -7.645,0.142 -11.012,-2.624 -11.042,-2.65 -0.495,-0.43 -1.223,-0.44 -1.736,-0.038 -0.511,0.41 -0.655,1.126 -0.343,1.702 l 1.675,3.094 c -3.006,-0.629 -5.763,-2.031 -8.075,-3.21 -2.912,-1.483 -5.215,-2.65 -7.233,-2.051 -1.508,0.451 -2.607,1.813 -2.87,3.555 -0.284,1.898 0.49,3.711 2.019,4.73 0.779,0.52 1.667,0.774 2.56,0.774 1.261,0 2.536,-0.505 3.537,-1.482 0.818,-0.798 1.309,-1.768 1.453,-2.763 3.048,1.544 6.758,3.289 10.996,3.471 0.476,0.058 0.948,-0.221 1.205,-0.634 0.259,-0.413 0.275,-0.934 0.042,-1.362 l -0.885,-1.633 c 2.557,0.862 6.354,1.55 11.556,1.031 0.497,-0.05 0.925,-0.366 1.117,-0.828 0.19,-0.461 0.111,-0.99 -0.204,-1.376 l -2.073,-2.527 c 4.247,-0.707 12.964,-2.758 18.465,-8.092 -0.905,2.494 -2.38,5.064 -4.811,6.471 -0.34,0.198 -0.575,0.537 -0.649,0.924 -0.072,0.387 0.03,0.791 0.275,1.099 0.046,0.058 4.424,5.772 3.059,20.706 -2.504,-1.287 -7.317,-4.345 -10.039,-9.865 -0.289,-0.585 -0.946,-0.876 -1.589,-0.702 -0.629,0.181 -1.037,0.788 -0.971,1.44 0.181,1.754 0.328,4.558 0.169,6.531 -1.462,-1.048 -3.51,-2.761 -4.355,-4.633 -0.238,-0.531 -0.788,-0.862 -1.365,-0.789 -0.578,0.056 -1.054,0.474 -1.186,1.039 -0.342,1.473 -0.798,3.18 -1.169,4.338 -1.347,-0.844 -3.136,-2.178 -3.88,-3.549 -0.287,-0.531 -0.889,-0.809 -1.485,-0.675 -0.59,0.13 -1.02,0.64 -1.055,1.244 -0.088,1.566 -0.295,3.982 -0.558,5.652 -1.244,-0.762 -2.994,-1.913 -4.287,-3.083 -0.351,-0.317 -0.842,-0.435 -1.293,-0.295 -0.452,0.134 -0.802,0.495 -0.924,0.953 l -0.694,2.637 c -1.163,-0.675 -2.775,-1.751 -3.829,-3.038 -0.472,-0.579 -1.326,-0.664 -1.902,-0.19 -0.579,0.472 -0.664,1.325 -0.19,1.902 2.205,2.694 6.073,4.473 6.237,4.547 0.365,0.163 0.777,0.159 1.14,-0.009 0.361,-0.171 0.627,-0.493 0.729,-0.879 l 0.594,-2.257 c 2.194,1.633 4.542,2.921 4.665,2.988 0.34,0.183 0.742,0.212 1.107,0.086 0.365,-0.132 0.655,-0.413 0.798,-0.771 0.396,-0.992 0.675,-3.027 0.854,-4.83 1.848,1.606 3.922,2.655 4.051,2.719 0.634,0.316 1.399,0.092 1.766,-0.514 0.382,-0.64 0.836,-2.073 1.216,-3.434 2.191,2.468 5.137,4.16 5.3,4.254 0.34,0.192 0.753,0.225 1.126,0.097 0.372,-0.134 0.666,-0.423 0.807,-0.793 0.408,-1.073 0.544,-2.77 0.557,-4.438 2.577,3.148 5.559,5.153 7.667,6.316 0,0.033 -0.015,0.062 -0.013,0.096 0.014,0.238 0.31,4.768 1.086,8.38 -2.271,-0.841 -5.922,-2.554 -9.295,-5.73 -0.324,-0.307 -0.782,-0.43 -1.216,-0.337 -0.437,0.095 -0.798,0.399 -0.966,0.812 l -1.042,2.571 -4.352,-3.157 c -0.384,-0.278 -0.889,-0.337 -1.331,-0.147 -0.439,0.189 -0.745,0.594 -0.807,1.068 l -0.393,3.018 c -0.946,-0.685 -2.081,-1.591 -2.891,-2.502 -0.5,-0.562 -1.358,-0.609 -1.91,-0.113 -0.558,0.497 -0.609,1.352 -0.113,1.91 1.917,2.156 5.134,4.122 5.27,4.204 0.393,0.242 0.877,0.26 1.288,0.063 0.414,-0.198 0.697,-0.59 0.758,-1.045 l 0.381,-2.93 3.91,2.837 c 0.334,0.243 0.767,0.316 1.166,0.204 0.402,-0.115 0.726,-0.407 0.883,-0.791 l 0.974,-2.407 c 2.505,2.059 4.994,3.409 7.02,4.303 0.01,0.842 0.142,4.426 1.655,7.253 -2.479,-0.065 -6.364,-0.5 -9.962,-2.3 -0.608,-0.31 -1.362,-0.107 -1.739,0.474 l -1.96,3.02 -8.105,-5.438 c -0.345,-0.234 -0.78,-0.298 -1.172,-0.162 -0.395,0.127 -0.71,0.43 -0.853,0.819 l -1.246,3.393 c -1.492,-1.674 -3.631,-4.03 -4.419,-4.66 -0.552,-0.444 -1.355,-0.382 -1.837,0.138 -0.023,0.024 -1.916,2.052 -4.183,3.628 l -1.562,-4.195 c -0.26,-0.697 -1.043,-1.057 -1.741,-0.797 -0.701,0.26 -1.057,1.042 -0.797,1.741 l 2.143,5.751 c 0.138,0.37 0.43,0.661 0.8,0.797 0.369,0.136 0.78,0.106 1.126,-0.086 2.12,-1.177 4.102,-2.934 5.231,-4.022 1.255,1.295 3.363,3.656 4.706,5.196 0.316,0.36 0.794,0.532 1.265,0.44 0.47,-0.086 0.86,-0.414 1.025,-0.863 l 1.436,-3.91 7.816,5.244 c 0.225,0.15 0.488,0.23 0.754,0.23 0.089,0 0.181,-0.009 0.271,-0.029 0.356,-0.072 0.667,-0.284 0.863,-0.588 l 2.067,-3.188 c 3.474,1.5 6.948,1.944 9.441,2.05 -0.014,0.322 0.073,0.65 0.294,0.919 0.33,0.404 1.003,1.199 1.816,2.025 l -3.384,0.051 c -0.377,0.006 -0.735,0.169 -0.986,0.451 -0.252,0.28 -0.375,0.653 -0.34,1.031 l 0.505,5.297 c -1.868,-0.419 -4.831,-1.234 -6.761,-2.497 -0.448,-0.292 -1.016,-0.299 -1.464,-0.014 l -5.914,3.732 -3.03,-8.241 c -0.186,-0.508 -0.655,-0.854 -1.195,-0.885 -0.588,-0.042 -1.045,0.263 -1.287,0.747 l -3.321,6.641 -2.327,-3.711 c -0.242,-0.384 -0.659,-0.622 -1.112,-0.634 -0.451,0.007 -0.879,0.204 -1.142,0.575 -0.023,0.033 -1.907,2.693 -4.066,4.682 l -1.544,-4.875 c -0.157,-0.493 -0.579,-0.854 -1.092,-0.93 -0.516,-0.068 -1.022,0.147 -1.314,0.575 -0.021,0.032 -1.688,2.454 -3.804,4.685 l -0.382,-6.036 c -0.029,-0.458 -0.289,-0.872 -0.693,-1.096 -0.402,-0.225 -0.892,-0.23 -1.297,-0.011 -0.582,0.312 -1.658,0.876 -2.784,1.432 1.592,-3.305 3.398,-7.948 2.371,-10.34 -0.306,-0.714 -0.882,-1.187 -1.571,-1.48 -0.043,-0.03 -0.072,-0.073 -0.118,-0.098 -0.063,-0.034 -0.131,-0.036 -0.196,-0.06 -0.046,-0.013 -0.076,-0.051 -0.124,-0.062 -0.054,-0.013 -0.095,-0.009 -0.148,-0.02 -0.028,-0.003 -0.054,-0.009 -0.083,-0.011 -1.835,-0.382 -3.086,0.13 -3.808,0.657 -0.738,0.54 -1.225,1.256 -1.544,1.946 -0.841,-0.812 -1.857,-2.023 -2.513,-3.585 -0.207,-0.497 -0.691,-0.823 -1.228,-0.83 -0.539,-0.034 -1.027,0.308 -1.251,0.798 z m -10.29,-15.1 c 7.315,3.526 16.305,3.916 18.762,3.961 1.176,1.461 2.323,2.856 3.243,3.951 -2.248,0.009 -4.541,0.263 -6.362,0.535 l 0.321,-0.399 c 0.317,-0.395 0.386,-0.934 0.181,-1.397 -0.204,-0.461 -0.652,-0.771 -1.155,-0.802 -9.186,-0.546 -19.304,-3.738 -19.404,-3.773 -0.004,-0.001 -0.008,0 -0.012,-0.001 0,0 -0.004,-0.003 -0.008,-0.004 -1.508,-0.455 -2.386,-1.23 -2.474,-2.179 -0.068,-0.749 0.348,-1.358 0.599,-1.489 1.46,-0.752 4.532,0.735 6.309,1.597 z m 12.784,0.763 c 0.292,-0.21 0.508,-0.511 0.565,-0.871 l 0.396,-2.537 c 0.811,1.18 1.794,2.486 2.808,3.802 -1.047,-0.072 -2.334,-0.196 -3.769,-0.394 z m -2.382,-0.383 c -0.66,-0.122 -1.339,-0.265 -2.026,-0.423 0.061,-0.29 0.025,-0.6 -0.114,-0.879 -0.039,-0.077 -0.074,-0.159 -0.109,-0.243 0.856,0.702 1.647,1.205 2.249,1.545 z m 17.846,-14.772 c -0.615,0.606 -1.695,1.066 -2.705,0.395 -0.774,-0.516 -0.942,-1.411 -0.844,-2.078 0.079,-0.52 0.378,-1.187 0.969,-1.364 0.113,-0.033 0.242,-0.05 0.382,-0.05 0.649,0 1.575,0.34 2.633,0.824 l 0.002,0.003 c 0.686,1.089 -0.243,2.082 -0.437,2.27 z m 51.45,20.256 c 0.387,0.247 0.877,0.277 1.299,0.083 0.417,-0.195 0.706,-0.591 0.767,-1.05 0.225,-1.702 0.641,-2.746 1.238,-3.104 1.078,-0.647 3.69,0.343 6.709,1.487 2.301,0.872 5.166,1.955 8.43,2.755 8.519,2.087 18.534,0.295 27.368,-1.288 2.985,-0.534 5.86,-1.048 8.533,-1.39 5.589,-0.712 11.287,1.628 12.713,5.22 1.077,2.711 -0.578,5.839 -4.659,8.807 -11.313,8.226 -65.482,4.573 -71.005,4.178 -1.469,-1.399 -2.044,-4.263 -2.215,-6.15 0.893,0.285 1.492,0.427 1.569,0.444 0.092,0.02 0.185,0.029 0.278,0.029 0.387,0 0.762,-0.168 1.024,-0.467 0.321,-0.374 0.416,-0.889 0.247,-1.352 -0.844,-2.303 -1.308,-6.558 -1.501,-8.736 0.358,0.098 0.736,0.063 1.054,-0.134 0.352,-0.216 0.585,-0.584 0.634,-0.994 1.6,-13.594 -1.191,-20.682 -2.654,-23.337 0.355,-0.271 0.687,-0.564 1.004,-0.87 0.098,6.425 3.825,11.592 5.349,13.437 -2.721,6.163 1.23,10.791 3.818,12.432 z"
   id="path423" />
<path
   style="fill:#ffd250"
   d="M 222.355,66.965 C 221.83,56.064 219.242,38.434 210.97,38.03 c -4.662,-0.215 -6.959,2.655 -7.054,2.778 -0.273,0.354 -0.721,0.553 -1.155,0.531 l -3.161,-0.19 0.566,2.095 c 0.136,0.505 -0.035,1.048 -0.435,1.387 -0.192,0.162 -4.662,4.044 -1.942,8.988 2.072,3.767 8.769,5.55 13.658,6.85 2.183,0.582 4.07,1.084 5.294,1.683 2.182,1.066 4.093,2.867 5.614,4.813 z"
   id="path425" />
<path
   style="fill:#464655"
   d="m 211.1,35.326 c -4.757,-0.233 -7.718,2.138 -8.831,3.271 l -4.385,-0.263 c -0.416,-0.033 -0.854,0.16 -1.13,0.497 -0.275,0.337 -0.372,0.786 -0.259,1.207 l 0.842,3.124 c -2.15,2.194 -4.678,6.75 -1.922,11.759 2.628,4.782 9.973,6.735 15.334,8.163 2.047,0.544 3.815,1.015 4.803,1.497 3.17,1.55 5.716,5.076 7.041,7.86 0.227,0.479 0.708,0.771 1.222,0.771 0.097,0 0.194,-0.011 0.292,-0.032 0.615,-0.136 1.054,-0.679 1.06,-1.308 0.014,-1.461 0.187,-35.851 -14.067,-36.546 z m 0.345,25.141 c -4.889,-1.3 -11.586,-3.083 -13.658,-6.85 -2.72,-4.943 1.75,-8.825 1.942,-8.988 0.399,-0.339 0.57,-0.881 0.435,-1.387 l -0.566,-2.095 3.161,0.19 c 0.435,0.023 0.883,-0.177 1.155,-0.531 0.095,-0.124 2.392,-2.994 7.054,-2.778 8.273,0.404 10.86,18.034 11.385,28.935 -1.521,-1.945 -3.432,-3.746 -5.615,-4.813 -1.222,-0.599 -3.11,-1.101 -5.293,-1.683 z"
   id="path427" />
<path
   style="fill:#ffd250"
   d="m 448.542,66.965 c 0.525,-10.901 3.113,-28.531 11.385,-28.935 4.662,-0.215 6.959,2.655 7.054,2.778 0.273,0.354 0.721,0.553 1.155,0.531 l 3.161,-0.19 -0.566,2.095 c -0.136,0.505 0.035,1.048 0.435,1.387 0.192,0.162 4.662,4.044 1.942,8.988 -2.072,3.767 -8.769,5.55 -13.658,6.85 -2.183,0.582 -4.07,1.084 -5.294,1.683 -2.182,1.066 -4.094,2.867 -5.614,4.813 z"
   id="path429" />
<path
   style="fill:#464655"
   d="m 445.729,71.874 c 0.007,0.629 0.446,1.172 1.06,1.308 0.098,0.021 0.195,0.032 0.292,0.032 0.513,0 0.994,-0.292 1.221,-0.771 1.325,-2.784 3.871,-6.31 7.041,-7.86 0.989,-0.483 2.755,-0.953 4.803,-1.497 5.362,-1.427 12.705,-3.381 15.334,-8.163 2.755,-5.01 0.227,-9.566 -1.922,-11.759 L 474.4,40.04 c 0.113,-0.422 0.015,-0.871 -0.259,-1.207 -0.275,-0.337 -0.714,-0.531 -1.13,-0.497 l -4.385,0.263 c -1.113,-1.131 -4.074,-3.502 -8.831,-3.271 -14.252,0.693 -14.079,35.083 -14.066,36.546 z m 8.428,-9.725 c -2.183,1.068 -4.095,2.869 -5.615,4.813 0.525,-10.901 3.113,-28.531 11.385,-28.935 4.662,-0.215 6.959,2.655 7.054,2.778 0.273,0.354 0.721,0.553 1.155,0.531 l 3.161,-0.19 -0.566,2.095 c -0.136,0.505 0.035,1.048 0.435,1.387 0.192,0.162 4.662,4.044 1.942,8.988 -2.072,3.767 -8.769,5.55 -13.658,6.85 -2.181,0.583 -4.069,1.085 -5.293,1.683 z"
   id="path431" />
<path
   style="fill:#ffd250"
   d="m 448.542,268.485 c 0.525,10.901 3.113,28.531 11.385,28.935 4.662,0.215 6.959,-2.655 7.054,-2.779 0.273,-0.354 0.721,-0.553 1.155,-0.531 l 3.161,0.19 -0.566,-2.095 c -0.136,-0.505 0.035,-1.048 0.435,-1.387 0.192,-0.162 4.662,-4.044 1.942,-8.988 -2.072,-3.767 -8.769,-5.55 -13.658,-6.85 -2.183,-0.582 -4.07,-1.084 -5.294,-1.683 -2.182,-1.066 -4.094,-2.866 -5.614,-4.812 z"
   id="path433" />
<path
   style="fill:#464655"
   d="m 459.797,300.123 c 4.757,0.233 7.717,-2.138 8.831,-3.271 l 4.385,0.263 c 0.416,0.033 0.854,-0.16 1.13,-0.497 0.275,-0.337 0.372,-0.786 0.259,-1.207 l -0.842,-3.124 c 2.15,-2.194 4.678,-6.75 1.922,-11.759 -2.628,-4.782 -9.973,-6.735 -15.334,-8.163 -2.047,-0.544 -3.815,-1.015 -4.803,-1.497 -3.17,-1.55 -5.716,-5.076 -7.041,-7.86 -0.227,-0.479 -0.708,-0.771 -1.221,-0.771 -0.097,0 -0.194,0.011 -0.292,0.032 -0.615,0.136 -1.054,0.679 -1.06,1.308 -0.015,1.461 -0.188,35.851 14.066,36.546 z m -0.345,-25.142 c 4.889,1.3 11.586,3.083 13.658,6.85 2.72,4.943 -1.75,8.825 -1.942,8.988 -0.399,0.339 -0.57,0.881 -0.435,1.387 l 0.566,2.095 -3.161,-0.19 c -0.435,-0.023 -0.883,0.177 -1.155,0.531 -0.095,0.124 -2.392,2.994 -7.054,2.778 -8.273,-0.404 -10.86,-18.034 -11.385,-28.935 1.521,1.945 3.432,3.746 5.615,4.813 1.222,0.601 3.11,1.102 5.293,1.683 z"
   id="path435" />
<path
   style="fill:#ffd250"
   d="m 222.355,268.485 c -0.525,10.901 -3.113,28.531 -11.385,28.935 -4.662,0.215 -6.959,-2.655 -7.054,-2.779 -0.273,-0.354 -0.721,-0.553 -1.155,-0.531 l -3.161,0.19 0.566,-2.095 c 0.136,-0.505 -0.035,-1.048 -0.435,-1.387 -0.192,-0.162 -4.662,-4.044 -1.942,-8.988 2.072,-3.767 8.769,-5.55 13.658,-6.85 2.183,-0.582 4.07,-1.084 5.294,-1.683 2.182,-1.066 4.093,-2.866 5.614,-4.812 z"
   id="path437" />
<path
   style="fill:#464655"
   d="m 225.167,263.574 c -0.007,-0.629 -0.446,-1.172 -1.06,-1.308 -0.098,-0.021 -0.195,-0.032 -0.292,-0.032 -0.513,0 -0.994,0.292 -1.222,0.771 -1.325,2.784 -3.871,6.31 -7.041,7.86 -0.989,0.483 -2.755,0.953 -4.803,1.497 -5.362,1.427 -12.705,3.381 -15.334,8.163 -2.755,5.01 -0.227,9.566 1.922,11.759 l -0.842,3.124 c -0.113,0.422 -0.015,0.871 0.259,1.207 0.275,0.337 0.714,0.531 1.13,0.497 l 4.385,-0.263 c 1.113,1.131 4.074,3.502 8.831,3.271 14.254,-0.692 14.081,-35.082 14.067,-36.546 z m -8.428,9.726 c 2.183,-1.068 4.095,-2.869 5.615,-4.813 -0.525,10.901 -3.113,28.531 -11.385,28.935 -4.662,0.215 -6.959,-2.655 -7.054,-2.778 -0.273,-0.354 -0.721,-0.553 -1.155,-0.531 l -3.161,0.19 0.566,-2.095 c 0.136,-0.505 -0.035,-1.048 -0.435,-1.387 -0.192,-0.162 -4.662,-4.044 -1.942,-8.988 2.072,-3.767 8.769,-5.55 13.658,-6.85 2.182,-0.583 4.07,-1.084 5.293,-1.683 z"
   id="path439" />
<g
   id="g441"
   transform="translate(0,-88.275)">
</g>
<g
   id="g443"
   transform="translate(0,-88.275)">
</g>
<g
   id="g445"
   transform="translate(0,-88.275)">
</g>
<g
   id="g447"
   transform="translate(0,-88.275)">
</g>
<g
   id="g449"
   transform="translate(0,-88.275)">
</g>
<g
   id="g451"
   transform="translate(0,-88.275)">
</g>
<g
   id="g453"
   transform="translate(0,-88.275)">
</g>
<g
   id="g455"
   transform="translate(0,-88.275)">
</g>
<g
   id="g457"
   transform="translate(0,-88.275)">
</g>
<g
   id="g459"
   transform="translate(0,-88.275)">
</g>
<g
   id="g461"
   transform="translate(0,-88.275)">
</g>
<g
   id="g463"
   transform="translate(0,-88.275)">
</g>
<g
   id="g465"
   transform="translate(0,-88.275)">
</g>
<g
   id="g467"
   transform="translate(0,-88.275)">
</g>
<g
   id="g469"
   transform="translate(0,-88.275)">
</g>
</svg>
