<?xml version="1.0" encoding="UTF-8" standalone="no"?>
<svg
   xmlns:dc="http://purl.org/dc/elements/1.1/"
   xmlns:cc="http://creativecommons.org/ns#"
   xmlns:rdf="http://www.w3.org/1999/02/22-rdf-syntax-ns#"
   xmlns:svg="http://www.w3.org/2000/svg"
   xmlns="http://www.w3.org/2000/svg"
   xmlns:sodipodi="http://sodipodi.sourceforge.net/DTD/sodipodi-0.dtd"
   xmlns:inkscape="http://www.inkscape.org/namespaces/inkscape"
   version="1.1"
   id="Layer_1"
   x="0px"
   y="0px"
   viewBox="0 0 512 335.45001"
   xml:space="preserve"
   sodipodi:docname="ls.svg"
   width="512"
   height="335.45001"
   inkscape:version="1.0.1 (c497b03c, 2020-09-10)"><metadata
   id="metadata53"><rdf:RDF><cc:Work
       rdf:about=""><dc:format>image/svg+xml</dc:format><dc:type
         rdf:resource="http://purl.org/dc/dcmitype/StillImage" /><dc:title></dc:title></cc:Work></rdf:RDF></metadata><defs
   id="defs51" /><sodipodi:namedview
   pagecolor="#ffffff"
   bordercolor="#666666"
   borderopacity="1"
   objecttolerance="10"
   gridtolerance="10"
   guidetolerance="10"
   inkscape:pageopacity="0"
   inkscape:pageshadow="2"
   inkscape:window-width="1163"
   inkscape:window-height="842"
   id="namedview49"
   showgrid="false"
   inkscape:zoom="1.640625"
   inkscape:cx="256"
   inkscape:cy="256"
   inkscape:window-x="0"
   inkscape:window-y="23"
   inkscape:window-maximized="0"
   inkscape:current-layer="Layer_1" />
<path
   style="fill:#73af00"
   d="m 0,297.103 c 0,21.177 17.167,38.345 38.345,38.345 h 435.31 c 21.177,0 38.345,-17.167 38.345,-38.345 V 223.632 H 0 Z"
   id="path10" />
<path
   style="fill:#41479b"
   d="M 473.655,0 H 38.345 C 17.167,0 0,17.167 0,38.345 v 73.471 H 512 V 38.345 C 512,17.167 494.833,0 473.655,0 Z"
   id="path12" />
<rect
   y="111.814"
   style="fill:#f5f5f5"
   width="512"
   height="111.81"
   id="rect14"
   x="0" />
<path
   style="fill:#464655"
   d="m 286.477,187.637 -2.052,1.045 c -0.279,0.142 -0.58,0.265 -0.865,0.403 l -18.127,-22.898 c 3.726,-8.099 5.934,-19.153 5.934,-24.178 0,-8.257 -5.418,-15.136 -12.547,-16.591 -0.477,-1.077 -1.551,-1.831 -2.805,-1.831 -1.254,0 -2.328,0.754 -2.805,1.831 -7.128,1.455 -12.547,8.335 -12.547,16.591 0,5.025 2.209,16.078 5.934,24.178 l -18.126,22.898 c -0.282,-0.137 -0.583,-0.259 -0.861,-0.401 l -2.052,-1.045 -7.658,15.054 2.052,1.044 c 10.451,5.316 22.921,8.126 36.063,8.126 13.143,0 25.617,-2.812 36.07,-8.127 l 2.052,-1.044 z m -18.181,-45.628 c 0,3.735 -1.387,11.586 -3.957,18.783 -0.339,0.948 -0.686,1.847 -1.042,2.699 l -2.677,-3.382 V 148.15 h 4.606 l -6.141,-6.141 v -13.363 c 5.288,1.541 9.211,6.939 9.211,13.363 z m -20.606,18.782 c -2.57,-7.197 -3.957,-15.048 -3.957,-18.783 0,-6.424 3.923,-11.822 9.212,-13.363 v 13.363 l -6.141,6.141 h 4.606 v 11.959 l -2.677,3.382 c -0.357,-0.851 -0.704,-1.751 -1.043,-2.699 z m -20.648,34.084 0.627,2.579 -2.251,0.614 z m -2.679,5.869 3.851,-1.05 0.707,2.91 c -1.553,-0.574 -3.08,-1.184 -4.558,-1.86 z m 5.839,-5.867 c 1.752,0.693 3.575,1.304 5.449,1.849 l 0.554,1.698 -4.849,1.196 z m 2.164,8.901 -0.467,-1.919 5.022,-1.239 1.557,4.771 c -2.083,-0.454 -4.121,-0.994 -6.112,-1.613 z m 6.816,-6.127 c 1.927,0.449 3.889,0.836 5.892,1.129 l 0.834,1.492 -5.33,1.661 z m 2.742,8.405 -0.631,-1.933 5.763,-1.796 2.612,4.671 c -2.627,-0.196 -5.211,-0.509 -7.744,-0.942 z m 6.923,-6.823 c 2.366,0.224 4.759,0.348 7.167,0.348 0.513,0 1.023,-0.028 1.535,-0.039 l 0.641,0.983 -7.084,2.748 z m 7.167,8.023 c -0.913,0 -1.814,-0.039 -2.719,-0.067 l -1.055,-1.887 7.235,-2.806 2.933,4.497 c -2.109,0.157 -4.236,0.263 -6.394,0.263 z m 5.098,-7.869 c 2.434,-0.163 4.839,-0.44 7.199,-0.831 l 0.691,0.883 -5.608,3.446 z m 4.748,7.28 -1.208,-1.853 5.778,-3.55 3.212,4.107 c -2.536,0.557 -5.134,0.987 -7.782,1.296 z m 5.846,-8.754 c 2.008,-0.433 3.974,-0.941 5.878,-1.536 l 0.715,0.926 -4.077,3.827 z m 5.22,6.673 -1.28,-1.636 4.067,-3.817 2.835,3.671 c -1.833,0.66 -3.7,1.268 -5.622,1.782 z m 3.726,-9.26 c 1.293,-0.48 2.564,-0.985 3.786,-1.54 l 0.6,1.181 -1.962,3.5 z m 4.886,6.327 -0.931,-1.206 1.688,-3.011 1.628,3.2 c -0.779,0.36 -1.585,0.685 -2.385,1.017 z"
   id="path16" />
<g
   id="g18">
</g>
<g
   id="g20">
</g>
<g
   id="g22">
</g>
<g
   id="g24">
</g>
<g
   id="g26">
</g>
<g
   id="g28">
</g>
<g
   id="g30">
</g>
<g
   id="g32">
</g>
<g
   id="g34">
</g>
<g
   id="g36">
</g>
<g
   id="g38">
</g>
<g
   id="g40">
</g>
<g
   id="g42">
</g>
<g
   id="g44">
</g>
<g
   id="g46">
</g>
</svg>
