<svg xmlns="http://www.w3.org/2000/svg" xml:space="preserve" width="512" height="335.45001"><path style="fill:#ff4b55;stroke-width:1" d="M473.655 0H341.333v335.44799h132.322c21.177 0 38.345-17.16699 38.345-38.34499V38.345C512 17.167 494.833 0 473.655 0z"/><path style="fill:#ffe15a;stroke-width:1" d="M170.67.004h170.67v335.45001H170.67z"/><path style="fill:#41479b;stroke-width:1" d="M38.345 0C17.167 0 0 17.167 0 38.345v258.759c0 21.177 17.167 38.34499 38.345 38.34499h132.322V0z"/><path transform="rotate(140.808)" style="fill:#ffcd5a;stroke-width:.99996" d="M-84.09838-358.41977h5.66578v31.66677h-5.66578z"/><path transform="rotate(140.832)" style="fill:#ffbe5a;stroke-width:.999999" d="M-87.05405-340.65305H-75.725v13.93706h-11.32905z"/><path transform="rotate(39.192)" style="fill:#ffcd5a;stroke-width:.99996" d="M314.62241 1.6565h5.66578v31.66677h-5.66578z"/><path transform="rotate(39.168)" style="fill:#ffbe5a;stroke-width:.999999" d="M311.78876 1.79942h11.32905v13.93706h-11.32905z"/><path style="fill:#ffe15a" transform="translate(0 -88.273)" d="M255.805 340.073v-39.657l-5.665-2.832-14.163 28.326z"/><path style="fill:#ffcd5a" transform="translate(0 -88.273)" d="M255.805 340.073v-39.657l5.666-2.832 14.163 28.326z"/><path style="fill:#ffbe5a;stroke-width:1" d="M216.148 209.311v-73.65h8.498v56.653c0 8.497-8.498 16.997-8.498 16.997z"/><path style="fill:#ffcd5a;stroke-width:1" d="M210.482 223.474V135.66h8.498v70.817c-.001 8.498-8.498 16.997-8.498 16.997z"/><path style="fill:#ffe15a;stroke-width:1" d="M204.817 234.805v-99.144h8.498v82.148c0 8.497-8.498 16.996-8.498 16.996z"/><path style="fill:#ff4b55;stroke-width:1" d="M224.646 138.493v53.821c0 14.164 20.537 12.275 31.159 22.661 10.623-10.387 31.159-8.498 31.159-22.661v-53.821z"/><path style="fill:#41479b;stroke-width:1" d="M224.646 169.653v22.662c0 14.164 20.537 12.275 31.159 22.661 10.623-10.387 31.159-8.498 31.159-22.662v-22.662z"/><path style="fill:#ffe15a" d="M250.14 249.427h2.832l2.833 2.834 2.833-2.834h2.833l8.498 11.331-8.498 5.665v16.997l2.832 2.832v2.833l-8.498 5.665-8.498-5.665v-2.833l2.833-2.832v-16.997l-8.498-5.665z" transform="translate(0 -88.273)"/><path style="fill:#ffe15a" d="M244.474 229.599s-11.33 2.833-11.33 14.164c0 11.33 11.33 16.996 11.33 16.996l5.665-8.498c-16.996-5.666-5.665-22.662-5.665-22.662zm22.662 0s11.33 2.833 11.33 14.164c0 11.33-11.33 16.996-11.33 16.996l-5.665-8.498c16.995-5.666 5.665-22.662 5.665-22.662z" transform="translate(0 -88.273)"/><path style="fill:#ffe15a" d="m238.809 257.926-5.666-2.833-5.665 2.833 5.665 2.832zm45.323 0-5.666-2.833-5.665 2.833 5.665 2.832zm-23.32-14.822-2.947-.035-2.06 2.11-2.059-2.11-2.949.035.036-2.947-2.109-2.06 2.109-2.06-.036-2.948 2.949.036 2.059-2.11 2.06 2.11 2.947-.036-.034 2.948 2.109 2.06-2.109 2.06zm-24.244 27.193 2.042 2.272 2.84-1.126c1.471-.583 2.851 1.016 2.059 2.386l-1.529 2.645 1.949 2.354c1.009 1.218-.086 3.026-1.633 2.696l-2.988-.638-1.636 2.581c-.847 1.336-2.904.853-3.069-.721l-.318-3.039-2.959-.758c-1.533-.393-1.709-2.498-.264-3.14l2.792-1.24-.193-3.049c-.097-1.582 1.85-2.4 2.907-1.223zm37.729 6.458c.625-3.222 3.283-5.503 6.382-5.847-.636-.342-1.312-.625-2.057-.769-3.968-.769-7.808 1.824-8.577 5.791-.769 3.968 1.823 7.808 5.791 8.577.746.145 1.479.136 2.195.056-2.745-1.477-4.358-4.586-3.734-7.808zm-29.823-49.989 5.665-28.327-11.33-8.498 2.833-2.833h5.665s2.833-2.833 8.498-2.833c5.665 0 11.33 2.833 11.33 11.33s2.833 31.159 2.833 31.159h-25.494z" transform="translate(0 -88.273)"/><path style="fill:#ffaa5a;stroke-width:1" d="M224.646 127.162c-6.258 0-11.33 5.073-11.33 11.33h22.662c-.001-6.257-5.075-11.33-11.332-11.33z"/><path style="fill:#ffbe5a" d="M221.813 226.766h-16.996v-18.855c0-3.667 2.973-6.639 6.639-6.639h3.718c3.667 0 6.639 2.973 6.639 6.639zm73.65 70.818v-73.65h-8.498v56.653c0 8.497 8.498 16.997 8.498 16.997z" transform="translate(0 -88.273)"/><path style="fill:#ffcd5a;stroke-width:1" d="M301.128 223.474V135.66h-8.498v70.817c0 8.498 8.498 16.997 8.498 16.997z"/><path style="fill:#ffe15a;stroke-width:1" d="M306.794 234.805v-99.144h-8.498v82.148c-.001 8.497 8.498 16.996 8.498 16.996z"/><path style="fill:#ffaa5a;stroke-width:1" d="M286.965 127.162c6.258 0 11.33 5.073 11.33 11.33h-22.662c.001-6.257 5.074-11.33 11.332-11.33z"/><path style="fill:#ffbe5a;stroke-width:1" d="M289.798 138.493h16.996v-18.855c0-3.667-2.973-6.639-6.639-6.639h-3.717c-3.667 0-6.639 2.973-6.639 6.639z"/><path transform="rotate(31.34)" style="fill:#ffaa5a;stroke-width:.999996" d="M360.09607-21.93953h4.24898v76.26965h-4.24898z"/><path transform="rotate(128.638)" style="fill:#ffe15a;stroke-width:.999996" d="M-9.82732-369.91577H1.50364v8.86097H-9.82732z"/><path transform="rotate(31.326)" style="fill:#ffcd5a;stroke-width:.99998" d="M358.6467-21.83772h7.08184V-5.4941h-7.08184z"/><path transform="rotate(57.119 294.14357 247.60964)" style="fill:#73af00" d="M176.231 290.32901h73.65v2.833h-73.65z"/><path style="fill:#73af00" d="M219.413 289.383c-1.016 1.152-1.69 2.899-1.86 4.913-1.397-1.41-3.001-2.308-4.495-2.549-.394 1.461-.234 3.293.479 5.145-1.907-.672-3.775-.775-5.242-.321.413 2.088 2.114 4.354 4.721 5.909 2.606 1.556 5.409 1.976 7.442 1.348l.582-.376c1.407-1.597 2.174-4.324 1.826-7.339-.351-3.015-1.72-5.496-3.453-6.73z" transform="translate(0 -88.273)"/><circle style="fill:#ff4b55;stroke-width:1" cx="220.75" cy="215.37401" r="2.833"/><path style="fill:#73af00;stroke-width:1" d="M208.648 184.458c-1.016 1.152-1.69 2.899-1.86 4.913-1.397-1.41-3.001-2.308-4.495-2.549-.394 1.461-.234 3.293.479 5.145-1.907-.672-3.775-.775-5.242-.321.413 2.088 2.114 4.354 4.721 5.909 2.606 1.556 5.409 1.976 7.442 1.348l.582-.376c1.407-1.597 2.174-4.324 1.826-7.339-.35-3.016-1.719-5.497-3.453-6.73z"/><circle style="fill:#ff4b55;stroke-width:1" cx="209.99001" cy="198.72401" r="2.833"/><path style="fill:#73af00;stroke-width:1" d="M197.884 167.806c-1.016 1.152-1.69 2.899-1.86 4.913-1.397-1.41-3.001-2.308-4.495-2.549-.394 1.461-.234 3.293.479 5.145-1.907-.672-3.775-.775-5.242-.321.413 2.088 2.114 4.354 4.721 5.909 2.606 1.556 5.409 1.976 7.442 1.348l.582-.376c1.407-1.597 2.174-4.324 1.826-7.339-.352-3.016-1.72-5.497-3.453-6.73z"/><circle style="fill:#ff4b55;stroke-width:1" cx="199.22" cy="182.07399" r="2.833"/><path transform="rotate(51.362 318.15861 269.10834)" style="fill:#ffe15a" d="M220.70399 308.815h11.331v8.861h-11.331z"/><path style="fill:#ffe15a" d="M238.81 178.617h2.833v19.829h-2.833z" transform="translate(0 -88.273)"/><path style="fill:#ffe15a" d="M235.97 181.44701h8.498v2.833h-8.498z" transform="translate(0 -88.273)"/><path style="fill:#ff875a" transform="translate(0 -88.273)" d="M247.307 187.109h-5.665l-2.833 2.832 8.498 6.374z"/><path style="fill:#ffaa5a;stroke-width:1" d="M241.642 90.337v2.833h2.833v2.833h-2.833v2.833h5.665s2.833-2.833 8.498-2.833c5.665 0 11.33 2.833 11.33 11.33 0 8.498 2.833 31.159 2.833 31.159h5.665c0-6.258 5.073-11.33 11.33-11.33.984 0 1.922.164 2.833.401v-6.066c0-4.693 3.805-8.498 8.498-8.498s8.498 3.805 8.498 8.498v67.023l3.658-6.009-1.209-.736 8.498-13.962 1.209.736 1.815 1.106 3.025 1.841-8.498 13.962-1.21-.736-7.288 11.974v38.113s-6.764-6.783-8.212-14.287c-1.035-1.33-2.227-3.026-3.276-4.952l-3.242 5.326 3.014 2.409-7.075 8.851-1.879-1.502-3.202 5.261-3.629-2.21 3.485-5.726-1.692-1.353 2.409-3.013-7.433-9.116-2.197 1.79-6.609-8.11c-1.759.707-3.498 1.484-5.171 2.372l13.547 27.095-19.829 14.164-19.829-14.164 13.547-27.095c-1-.531-2.016-1.034-3.055-1.492l-5.891 7.23-2.197-1.79-7.433 9.116 2.409 3.013-2.406 1.923 3.288 5.086-2.379 1.538-3.133-4.846-2.287 1.828-7.075-8.851 3.179-2.541-1.685-2.607c-.04.001-.079.002-.119.002-.926 0-1.833-.413-2.372-1.248-.23-.355-.354-.743-.409-1.135-.533-.032-1.073-.108-1.635-.242-1.053 1.941-2.253 3.65-3.294 4.989-1.447 7.505-8.212 14.287-8.212 14.287v-36.135c-.856-.269-1.719-.611-2.568-1.118-2.606-1.556-4.308-3.822-4.721-5.909.596-.184 1.257-.276 1.961-.276 1.03 0 2.15.199 3.282.597-.369-.96-.584-1.91-.655-2.81l-2.786-4.31c-.04.001-.079.002-.119.002-.926 0-1.833-.413-2.372-1.248-.23-.355-.354-.743-.41-1.135-1.568-.094-3.286-.574-4.943-1.562-2.606-1.556-4.308-3.822-4.721-5.909.596-.184 1.258-.276 1.961-.276 1.03 0 2.15.198 3.282.597-.713-1.853-.873-3.684-.479-5.145 1.494.241 3.098 1.139 4.495 2.549.17-2.014.844-3.761 1.859-4.913 1.734 1.234 3.102 3.715 3.45 6.731.222 1.918-.046 3.681-.605 5.15.335.213.638.484.867.84.563.871.543 1.918.113 2.783l2.786 4.31c.108.06.214.132.322.199V121.5c0-4.693 3.805-8.498 8.498-8.498s8.498 3.805 8.498 8.498v6.066c.91-.236 1.848-.401 2.833-.401 6.258 0 11.33 5.073 11.33 11.33h8.498l5.665-28.327-2.833-2.124-5.665-4.249v6.374h-2.833V96.005h-2.833v-2.833h2.833v-2.833h2.844m45.467 128.741 1.046-1.309.557.445 4.566-7.501c-.398-1.387-.653-2.81-.653-4.237v-.498c-2.472-3.252-5.665-8.455-5.665-13.666 0 5.966-3.662 9.074-8.674 11.462l4.36 5.351-2.195 1.788 6.658 8.165m-62.345-.1 1.514-1.21 1.046 1.309 6.658-8.167-2.195-1.788 3.605-4.424c-6.051-2.527-10.752-5.623-10.752-12.387 0 3.793-1.693 7.578-3.567 10.616.89 1.306 1.561 2.976 1.785 4.91.222 1.918-.046 3.681-.605 5.15.335.213.638.484.867.84.563.871.543 1.917.113 2.783l1.531 2.368m16.873-130.767h-2.833c-1.173 0-2.124.951-2.124 2.124v.708h-.708c-1.173 0-2.124.951-2.124 2.124v2.833c0 1.173.951 2.124 2.124 2.124h.708v12.039c0 1.173.951 2.124 2.124 2.124h2.833c1.173 0 2.124-.951 2.124-2.124v-2.124l2.266 1.699 1.761 1.321-5.062 25.306h-4.799c-1.022-6.413-6.591-11.33-13.288-11.33-.235 0-.47.008-.708.022v-3.563c0-5.857-4.766-10.623-10.623-10.623-5.857 0-10.623 4.766-10.623 10.623v49.575c-.767-2.115-2.014-3.885-3.577-4.998-.372-.265-.803-.394-1.23-.394-.591 0-1.177.246-1.594.719-.654.743-1.192 1.647-1.593 2.667-.93-.504-1.887-.844-2.831-.996-.114-.019-.227-.028-.339-.028-.945 0-1.795.632-2.049 1.571-.249.922-.332 1.934-.254 2.989-.167-.008-.333-.012-.498-.012-.92 0-1.791.125-2.588.371-1.039.321-1.668 1.375-1.458 2.442.55 2.776 2.686 5.514 5.716 7.321 1.398.834 2.916 1.406 4.457 1.685.062.117.129.231.201.342.697 1.079 1.791 1.821 3.042 2.098l1.548 2.395c-.052-.001-.103-.001-.154-.001-.92 0-1.791.125-2.588.371-1.039.321-1.668 1.375-1.458 2.442.55 2.776 2.686 5.514 5.716 7.321.484.289.988.545 1.532.776V234.8c0 .86.519 1.635 1.313 1.963.263.108.538.161.811.161.554 0 1.098-.216 1.505-.625.289-.289 6.952-7.042 8.689-14.879.714-.939 1.374-1.886 1.974-2.834.684.79 1.609 1.335 2.643 1.565l.092.141-1.678 1.342c-.44.352-.723.864-.785 1.425-.063.559.1 1.122.452 1.562l7.075 8.851c.352.44.864.723 1.425.785.078.009.157.013.235.013.48 0 .948-.162 1.326-.465l.452-.361 1.857 2.873c.306.473.787.806 1.338.924.148.032.297.047.446.047.406 0 .808-.117 1.153-.341l1.374-.888-.311.623c-.468.935-.185 2.071.665 2.679l19.829 14.164c.37.264.802.396 1.235.396.433 0 .865-.132 1.235-.396l19.829-14.164c.851-.608 1.133-1.743.665-2.679l-12.597-25.195c.534-.252 1.091-.502 1.674-.753l5.609 6.883c.42.515 1.032.782 1.649.782.472 0 .947-.157 1.341-.478l.551-.448 5.006 6.141-1.338 1.674c-.352.44-.514 1.002-.452 1.562.063.561.345 1.073.785 1.425l.232.185-2.514 4.129c-.61 1.002-.292 2.308.71 2.919l3.629 2.21c.335.204.718.31 1.106.31.168 0 .337-.02.502-.061.547-.134 1.02-.478 1.313-.96l1.947-3.199c.391.309.855.459 1.318.459.623 0 1.241-.274 1.661-.798l7.075-8.851c.26-.326.409-.705.452-1.09 2.308 6.903 7.838 12.507 8.1 12.769.406.407.951.625 1.505.625.274 0 .548-.053.811-.161.794-.329 1.313-1.103 1.313-1.963v-37.514l5.937-9.752c.145.03.29.045.435.045.717 0 1.417-.363 1.817-1.021l8.498-13.962c.294-.481.383-1.059.249-1.607-.134-.547-.479-1.02-.96-1.313l-3.025-1.841-1.814-1.105-1.212-.737c-.344-.21-.726-.309-1.101-.309-.717 0-1.417.363-1.816 1.021l-7.007 11.512v-56.722c0-5.857-4.766-10.623-10.623-10.623-5.857 0-10.623 4.766-10.623 10.623v3.563c-.237-.014-.473-.022-.708-.022-6.697 0-12.266 4.917-13.288 11.33h-1.827c-.67-5.577-2.59-22.173-2.59-29.035 0-9.92-6.951-13.455-13.455-13.455-4.817 0-7.925 1.836-9.258 2.833h-.07c.078-.222.121-.46.121-.708v-2.833c0-1.173-.951-2.124-2.124-2.124h-.708v-.708c-.005-1.17-.956-2.121-2.129-2.121zM223.55 202.926c.544-.957 1.018-1.901 1.426-2.831 1.771 2.377 4.319 4.067 7.031 5.405l-1.86 2.283c-.356.437-.524.997-.467 1.558.057.561.334 1.076.771 1.431l.546.446-3.785 4.642c-.216-.106-.451-.174-.695-.202-.078-.009-.158-.013-.235-.013-.212 0-.42.032-.621.093.097-1.068-.156-2.14-.751-3.062-.072-.111-.149-.22-.23-.324.378-1.519.48-3.138.294-4.756-.192-1.661-.679-3.251-1.424-4.67zm58.029 1.523c1.871-1.091 3.688-2.473 5.066-4.33 1.085 2.477 2.511 4.73 3.861 6.569.017 1.183.179 2.401.491 3.694l-3.225 5.299c-.186.034-.37.094-.543.179l-3.785-4.642.546-.446c.437-.356.714-.871.771-1.431.057-.56-.11-1.121-.467-1.558zm-41.003 13.956c.617 0 1.228-.267 1.649-.782l3.583-4.396-9.697 19.394c-.026-.049-.055-.097-.086-.145l-2.244-3.473.905-.724c.44-.352.723-.864.785-1.425.063-.559-.1-1.122-.452-1.561l-1.338-1.674 5.006-6.141.551.448c.391.324.866.479 1.338.479zm54.274 1.993.462-.76c.406.598.836 1.194 1.288 1.788.04.179.082.356.127.534-.094-.116-.202-.223-.323-.32z"/></svg>