<svg version="1.1" id="Layer_1" xmlns="http://www.w3.org/2000/svg" x="0" y="0" viewBox="0 0 512 335.45001" style="enable-background:new 0 0 512 335.4500122" xml:space="preserve"><style>.st0{fill:#012a87}.st1{fill:#dc171d}.st2{fill:#f5f5f5}.st3{fill:#f9d90f}.st5{fill:#62afe1}.st7{fill:#008830}.st8{fill:#f9b60f}</style><path class="st0" d="M13.03809 325.83997c6.76593 5.96972 15.62957 9.61004 25.30688 9.61004h435.31006c21.08972 0 38.34497-17.25525 38.34497-38.34497V167.72498H227.55554L13.0381 325.83997z"/><path class="st1" d="M473.65503 0H38.34497c-9.6773 0-18.54095 3.64032-25.30688 9.61005l214.51745 158.11493H512v-129.38C512 17.25524 494.74475 0 473.65503 0z"/><path class="st2" d="M13.03809 9.61005C5.05914 16.65009 0 26.93255 0 38.34497v258.76007c0 11.41242 5.05914 21.69489 13.03809 28.73493l214.51745-158.115L13.0381 9.61006zM38.4663 119.6704c6.83911 3.64825 13.58783 3.99652 20.18963 3.53778.27527-.79114.49903-2.21234-.57293-3.73505l-.13135-.187.20264-.10548c.03369-.01757 3.3374-1.77392 2.56152-4.4287l-.0586-.19971.20215-.05079c.06934-.01715 1.01777-.2666 1.78254-1.06158-1.90876.9513-3.67176 1.78265-4.45636 1.19977-.28858-.21387-.41602-.57813-.38477-1.1084-4.71875 2.47266-5.77002 2.37988-6.1543 2.01611-.3833-.3623-.07617-1.0293.14795-1.51611.05567-.12012.10547-.22656.1333-.30908l.04297-.0713c2.7633-2.96593 7.84943-3.61236 13.34375-3.7462.88782-.37275 1.86145-1.09894 2.02832-2.51942l.02442-.20703.20605.0332c.03516.00538 3.28906.49512 4.7002-2.12792l.06982-.12989.14502.02832c.03125.00733 3.16895.59375 4.0044-1.52734l.06982-.17725.18066.06104c.12696.04346 3.14356 1.03174 4.93116-1.49805l.09082-.12842.146.05762c.13232.05127 3.27343 1.25244 4.58544-1.1001l.17383-.312.1753.31103c1.33251 2.36767 4.57128 1.11523 4.604 1.10107l.1455-.05762.09131.12745c1.81446 2.54736 4.90088 1.53271 4.93164 1.52197l.17823-.06055.07129.17432c.86572 2.11328 4.0166 1.53906 4.04834 1.53418l.14404-.02735.06933.12842c1.41602 2.62451 4.67774 2.13428 4.70948 2.1289l.20459-.0327.02539.20556c.33008 2.6621 3.55127 2.9126 3.58398 2.91455l.19922.01367-.01318.1997c-.01007.1474-.00696.28425-.00452.42152.8548.13025 1.65393.26098 2.35999.3778 1.43408.23682 2.5664.42383 3.17236.43604 3.44043.06934 4.91894.68066 6.08642 2.51611.10157.17286.94288 1.65088.40137 2.22608-.2876.30322-.8291.2456-1.65869-.17627-1.58057-.92871-3.51904-1.31543-5.39355-1.68897-.60743-.12109-1.23194-.2456-1.84327-.38818.13038.30957.19239.6416-.00488.87451-.0705.08325-.1723.13422-.28918.17047-.23871 2.37024 2.65027 3.90491 2.68176 3.92133l.20117.1045-.1289.18651c-1.02552 1.48633-.81446 2.88636-.53925 3.69013 6.59003.45544 13.3266.1018 20.1535-3.5412l.36377-.19434-.07275.40577c-.2251 1.25488-.45313 2.51367-.68164 3.77636-1.57276 8.67823-3.19873 17.65186-4.04785 26.73389-.98389 7.16113.58105 13.87744 2.09423 20.37256 1.72461 7.40332 3.50782 15.0586 1.4087 23.22656-2.40625 7.5254-10.8545 11.71875-18.16114 12.54102-2.85351.53027-5.94336.75976-8.93115.98242-7.37842.54883-15.00781 1.11621-20.11377 6.25879l-.14209.14355-.14209-.14355c-5.10547-5.1416-12.73535-5.70996-20.11377-6.2588-2.9878-.22265-6.07715-.45214-8.94482-.98534-7.29248-.81934-15.74072-5.0127-18.14356-12.52735-2.10254-8.1787-.31933-15.83398 1.40528-23.2373 1.51318-6.49512 3.07763-13.21143 2.09521-20.36377-.8501-9.09082-2.47607-18.06445-4.04883-26.74268-.22851-1.2627-.45654-2.52148-.68164-3.77636l-.07275-.40577.36377.19434zm107.86572 93.45166c-5.83923 6.55554-13.80548 10.68842-23.76422 12.3512l.05475 3.29821-.10694.05762c-9.4536 5.12305-30.99804 6.11426-35.41992 6.11426h-.38525c-4.45996 0-26.208-.9961-35.72656-6.1504l-.10596-.05663.03033-3.30353c-9.94793-1.66534-17.90576-5.79645-23.74078-12.34686-9.75244-10.94922-11.6709-27.04395-10.3501-37.50098l.02393-.1875.18896.0127 3.11493.22137c.32233-3.11359 1.02906-6.91388 2.46808-11.18475l.39014-1.15772v1.0835l9.70654 3.03613-2.98584 15.71045-2.57385.393c3.52527 24.68152 21.34686 30.90394 36.38684 31.57575l.2124.00977-.17706 1.70306c5.2008 2.11133 14.98389 3.6944 23.30987 3.6944 8.34589.0072 17.85334-1.53046 23.04157-3.68915l-.17389-1.67218.2124-.00977c15.03998-.67181 32.86157-6.89422 36.38684-31.57574l-2.57385-.393-2.98584-15.71046 9.70606-3.03564v-1.0835l.39013 1.15772c1.43921 4.27075 2.14606 8.07098 2.46845 11.18445l3.30401-.23426.02393.1875c1.3208 10.45703-.59766 26.55176-10.3501 37.50098z"/><path class="st3" d="M65.16455 122.57764c7.74316-.85889 15.06006-1.66895 21.58496 1.98681 6.5249-3.65576 13.83985-2.84521 21.58545-1.98681 2.02728.22485 4.07135.44867 6.12927.60138-.26123-.87519-.40954-2.25177.50598-3.70392-.67352-.40723-2.87866-1.91675-2.71185-4.12305-.73846-.02106-1.94122-.45148-3.5899-1.07373l-.46534-.1748c-.0083.3164-.08642.62646-.36474.83056-.458.33838-1.43701.47852-5.09522-.9248.0918.19384.11036.38232.05567.56445-.29395.97998-2.72266 1.45361-6.5542 1.89209-.5625 2.00537-1.59815 3.40479-3.08008 4.16113-.95654.4878-2.0454.68897-3.20752.68897-2.45361 0-5.23584-.89502-7.80273-1.87744-.21534.10498-.42871.22607-.6416.34765-.9336.5293-1.9878 1.12793-3.1875.26514-2.2832.68652-3.4707.78857-3.96143.33887-.1289-.11817-.2041-.26856-.22607-.44922-2.54297 1.24707-3.07715 1.01953-3.58497.53125-.15185-.14649-.27246-.2622-.55224-.27588-.42676-.104-1.60547-.40235-1.49951-1.06543.08398-.52832.99072-.8584 1.35351-.83057 4.5044-.09326 6.78125-1.63427 6.78565-2.4707.00244-.45264-.68067-.75488-1.78223-.78857l-.25342-.00147c-1.98437-.00879-3.85937-.01758-4.28174-.87353-.12402-.25098-.11523-.54395.02832-.88575-2.48535 1.25489-5.66943 1.35987-6.41992.4336-.13037-.16065-.26855-.4502-.10205-.86328-.13629.0664-.27478.13617-.4123.20452-.69854 1.11915-1.81774 1.61744-2.26739 1.774.57373 2.46288-1.89404 4.1582-2.61718 4.5952.95391 1.4798.80444 2.88148.54382 3.75086 2.04407-.15246 4.07452-.37439 6.0885-.59753zm.99548-12.69165c1.30188-.0202 2.62067-.01752 3.93226-.0144.7749.00292 1.54833.0039 2.31689.00097 4.89355-1.35986 9.083-.57178 13.18603 2.479.6753.3711 1.3379.30371 1.55079.02051.20263-.2705.01709-.73828-.49707-1.2539l-1.27051-.78272c-2.44678-1.3628-2.09033-2.69824-1.82324-3.2085.79736-1.52539 3.958-2.2871 6.6997-.95703 1.78711.3042 4.46192.61475 9.30616.34522.3501-.02442 1.53271-.04834 1.98535.67675.28613.45801.20361 1.08301-.24414 1.85791l-.4165.71973.04345-.83008c.00928-.17773-.10107-.3789-.2876-.52441-.18701-.1455-.60889-.35742-1.33008-.13623-2.56787.6792-5.2417.95996-7.9497.83642-.31836.37745-.6753.61524-1.08155.71924.87207.80127 2.0254 1.8462 2.37744 2.12305 4.50623-2.47235 11.66187-1.8153 16.78565-1.0545-.00055-.07001-.01611-.12757-.01367-.1999-.73389-.10351-3.30127-.63671-3.72803-3.04687-.76074.06738-3.49121.12012-4.85498-2.23193-.65479.08886-3.3291.32226-4.27588-1.6338-.70996.18214-3.39307.68214-5.1206-1.59716-.6626.21875-3.38477.96191-4.77833-1.04883-1.37841 2.00293-4.09765 1.26563-4.75976 1.04883-1.7085 2.26904-4.4038 1.76025-5.11914 1.5752-.9209 1.96289-3.58496 1.72167-4.23682 1.6289-1.35888 2.35156-4.08154 2.29541-4.84424 2.23145-.18975 1.10601-.83905 1.80328-1.55188 2.25708z"/><path d="m64.33838 112.16406.98193-.4541-.7544.7754c-.4038.41454-.51269.74316-.32372.97704.6372.78711 4.12207.64112 6.56445-.89795l.93115-.58642-.66552.87695c-.38233.5039-.51368.88525-.39112 1.13379.31348.63428 2.23242.64307 3.9253.65088l.25878.00097c1.96875.06055 2.17676.85303 2.1748 1.19092-.00634 1.31397-2.8994 2.77979-7.1953 2.86866-.2666-.0293-.91309.26806-.94873.49365-.01807.1123.20703.3667 1.16357.60888.39014.01514.60107.21778.7705.38086.32764.31592.667.6421 3.43653-.75341l.37158-.18702-.08593.40723c-.06543.30957.0454.41113.08203.44434.35937.32959 1.59472.17627 3.67138-.45557l.09864-.02979.08154.063c1.02539.79052 1.86035.31591 2.8291-.23438.24756-.14063.49512-.28125.7456-.39844l.07716-.03613.07959.03076c3.72021 1.4292 7.90917 2.69385 10.76513 1.23633 1.40918-.71875 2.38867-2.07813 2.91162-4.04004l.03516-.13184.13574-.01513c1.8164-.20557 6.06983-.68702 6.35059-1.625.06152-.20508-.09229-.46387-.45703-.76807l-.96973-.80908 1.17187.46972c3.07325 1.23096 4.90479 1.65625 5.44141 1.26075.17188-.12647.22559-.34668.1919-.78565l-.02344-.31152 1.03955.38916c1.49219.56299 3.53369 1.33154 3.83887.97607.06689-.07861.03906-.3335-.23829-.81152l-.23779-.41016.45947.11573c.73438.18408 1.50391.3374 2.24805.48584 1.90723.38037 3.8794.77343 5.50781 1.73095.88477.44971 1.12354.30713 1.1748.25244.21046-.22363-.06347-1.08154-.45116-1.74316-1.08985-1.7129-2.43457-2.25781-5.75293-2.32422-.63477-.01318-1.77979-.20215-3.2295-.4419-4.94726-.81689-14.15478-2.33935-19.40332.64356l-.01416-.02539v.05176h-.8413l.4209-.23926c-.36231-.28809-1.0791-.92285-2.59376-2.32324l-.36132-.33447.4917-.0127c.50634-.0127.91455-.2378 1.28515-.70752l.06397-.08105.10302.00537c2.70508.1333 5.36817-.14112 7.92139-.8169.88623-.27392 1.43652.01123 1.68603.20557.1167.09082.2129.19678.28565.31055.14111-.35059.20752-.72754.0337-1.00635-.26612-.42627-1.01173-.5337-1.62061-.48926-4.91553.27295-7.61915-.0459-9.42725-.35498l-.0542-.01758c-2.67432-1.3125-5.55713-.4502-6.19531.77051-.3927.75043.0224 1.58966 1.14026 2.35126l.04284-1.61933c.01172-.44238.22315-.82617.5957-1.08105.68702-.47217 1.74073-.41846 2.26758-.2295l1.89014.67481-2.0238.29675c-.05854.2356-.26105.41419-.5133.41419-.18653 0-.34309-.10162-.43989-.2467-.38837.09033-.71411.21508-.84527.4381l-.8429 1.43409c.1275.08246.25555.16485.39954.24511l1.33447.82764c.98096.97363.7124 1.5791.55127 1.79443-.3706.49463-1.26856.52588-2.0874.0752-4.02588-2.99268-8.11329-3.75781-12.88819-2.42187l-.05322.00732c-.7788.00342-1.5625.00098-2.3462-.00147-7.05859-.01513-14.35302-.03613-17.80028 3.62256-.03223.08545-.08008.18994-.13282.3047-.14404.312-.41113.89257-.23681 1.0576.18994.18116 1.16064.32374 6.0288-2.25585l.3589-.19043-.06788.40088c-.09766.57275-.03613.94531.18262 1.10742.63428.46826 2.61084-.521 4.35596-1.39404.52783-.26368 1.05566-.52735 1.55859-.76026z" style="fill:#bc715f"/><path class="st1" d="M43.30322 150.35498c.9917 7.21729-.58154 13.97022-2.10302 20.50049-1.79249 7.69531-3.48584 14.96387-1.41065 23.03613 2.34473 7.333 10.63965 11.43457 17.81836 12.24219 2.86035.53125 5.93848.75976 8.91553.98144 7.38427.5498 15.01758 1.11817 20.22607 6.23536 5.2085-5.1172 12.8418-5.68555 20.22656-6.23536 2.97706-.22168 6.05518-.4502 8.90137-.97851 7.19287-.81055 15.4878-4.91211 17.83594-12.25586 2.07178-8.06152.37842-15.33008-1.41406-23.0254-1.52149-6.53026-3.09473-13.2832-2.10205-20.50927.8496-9.09082 2.47753-18.07275 4.05175-26.75976.2041-1.12696.40772-2.25147.60938-3.37256-9.08692 4.69873-17.9707 3.71386-26.56738 2.76172-7.71729-.85547-15.00586-1.6626-21.44288 1.99218l-.09863.05616-.09863-.05616c-6.43701-3.65576-13.72608-2.84863-21.44238-1.99218-8.5962.95166-17.48047 1.937-26.56739-2.76172.20166 1.1211.40528 2.2456.60938 3.37256 1.57422 8.687 3.20215 17.66894 4.05273 26.76855zm1.67188-22.66064c7.8579 4.00488 15.58008 3.18798 23.04834 2.39697 6.68847-.708 13.00732-1.37744 18.64502 1.63623 5.63867-3.01367 11.958-2.34473 18.6455-1.63623 7.46778.79101 15.18995 1.60937 23.04786-2.39649l.36279-.18457-.0752.4004c-.1953 1.04003-.39306 2.08398-.5918 3.13085-1.35693 7.1543-2.76025 14.55225-3.49267 22.03809-.84814 5.90234.50195 11.43945 1.8081 16.79443 1.49073 6.11426 3.03223 12.43555 1.21632 19.18457-2.08301 6.22559-9.39063 9.69239-15.70997 10.3711-2.46533.43847-5.13476.62793-7.7168.81152-6.36767.45313-12.95263.9209-17.35546 5.15723l-.13867.13379-.13867-.1338c-4.40235-4.23632-10.98731-4.70507-17.35499-5.15722-2.58203-.1836-5.25195-.37305-7.73095-.81348-6.30567-.67675-13.6128-4.14355-15.69239-10.35742-1.81933-6.76074-.27783-13.08203 1.2129-19.19629 1.30566-5.35498 2.65576-10.89209 1.80859-16.78564-.73389-7.50049-2.13867-14.9043-3.49707-22.06445-.19727-1.04102-.39404-2.0791-.58838-3.11377l-.0752-.4004.3628.18458z"/><path d="M38.85693 123.6582c1.57276 8.67823 3.19873 17.65186 4.04883 26.74268.98242 7.15234-.58203 13.86865-2.09521 20.36377-1.72461 7.40332-3.50782 15.0586-1.40528 23.2373 2.40284 7.51465 10.85108 11.70801 18.14356 12.52735 2.86767.5332 5.95703.7627 8.94482.98535 7.37842.54883 15.0083 1.11719 20.11377 6.25879l.1421.14355.14208-.14355c5.10596-5.14258 12.73535-5.70996 20.11377-6.2588 2.9878-.22265 6.07764-.45214 8.93115-.98241 7.30664-.82227 15.75489-5.01563 18.16114-12.54102 2.09912-8.16797.31591-15.82324-1.4087-23.22656-1.51318-6.49512-3.07812-13.21143-2.09423-20.37256.84912-9.08203 2.4751-18.05566 4.04785-26.73389.22851-1.2627.45654-2.52148.68164-3.77636l.07275-.40577-.36377.19434c-6.8269 3.643-13.56347 3.99664-20.1535 3.5412-.2752-.80377-.48627-2.2038.53925-3.69013l.1289-.18652-.20117-.1045c-.0315-.01641-2.92047-1.55108-2.68176-3.92132.11688-.03625.21869-.08722.28918-.17047.19727-.2329.13526-.56494.00488-.87451.61133.14258 1.23584.26709 1.84327.38818 1.8745.37354 3.81298.76026 5.39355 1.68897.82959.42187 1.3711.4795 1.6587.17627.5415-.5752-.29981-2.05322-.40138-2.22608-1.16748-1.83545-2.646-2.44677-6.08642-2.5161-.60596-.01222-1.73828-.19923-3.17236-.43604-.70606-.11683-1.5052-.24756-2.35999-.37781-.00244-.13727-.00555-.27411.00452-.42151l.01318-.1997-.19922-.01368c-.03271-.00195-3.2539-.25244-3.58398-2.91455l-.0254-.20557-.20458.03272c-.03174.00537-3.29346.4956-4.70948-2.1289l-.06933-.12843-.14404.02735c-.03174.00488-3.18262.5791-4.04834-1.53418l-.0713-.17432-.17822.06055c-.03076.01074-3.11718 1.02539-4.93164-1.52197l-.0913-.12745-.14551.05762c-.03272.01416-3.27149 1.2666-4.604-1.10107l-.1753-.31104-.17383.31201c-1.31201 2.35254-4.45312 1.15137-4.58545 1.1001l-.146-.05762-.09081.12842c-1.7876 2.52979-4.8042 1.5415-4.93116 1.49805l-.18066-.06104-.06982.17725c-.83545 2.1211-3.97315 1.53467-4.0044 1.52734l-.14502-.02832-.06982.12989c-1.41114 2.62304-4.66504 2.1333-4.7002 2.12793l-.20605-.0332-.02442.20702c-.16687 1.42048-1.1405 2.14667-2.02832 2.51941-5.49432.13385-10.58044.78028-13.34375 3.74622l-.04297.07129c-.02783.08252-.07763.18896-.1333.30908-.22412.48682-.53125 1.1538-.14795 1.51611.38428.36377 1.43555.45655 6.1543-2.01611-.03125.53027.0962.89453.38477 1.1084.7846.58288 2.5476-.24848 4.45636-1.19977-.76477.79498-1.7132 1.04443-1.78253 1.06158l-.20215.05079.05859.1997c.77588 2.65479-2.52783 4.41114-2.56152 4.42871l-.20264.10547.13135.18701c1.07196 1.52271.8482 2.94391.57294 3.73505-6.60181.45874-13.35053.11047-20.18964-3.53778l-.36377-.19434.07275.40577c.2251 1.25488.45313 2.51367.68164 3.77636zm26.35157-.68261c7.7163-.85645 15.00537-1.66358 21.44238 1.99218l.09863.05616.09863-.05616c6.43702-3.65478 13.72559-2.84765 21.44288-1.99218 8.59668.95214 17.48046 1.937 26.56738-2.76172-.20166 1.1211-.40527 2.2456-.60938 3.37256-1.57422 8.687-3.20214 17.66894-4.05175 26.75976-.99268 7.22608.58056 13.979 2.10205 20.50928 1.79248 7.69531 3.48584 14.96387 1.41406 23.02539-2.34815 7.34375-10.64307 11.44531-17.83594 12.25586-2.84619.52832-5.92431.75683-8.90137.97851-7.38476.5498-15.01806 1.11817-20.22656 6.23536-5.2085-5.1172-12.8418-5.68555-20.22607-6.23536-2.97705-.22168-6.05518-.4502-8.91553-.98144-7.17871-.80762-15.47363-4.90918-17.81836-12.24219-2.0752-8.07226-.38184-15.34082 1.41065-23.03613 1.52148-6.53027 3.09472-13.2832 2.10302-20.50049-.85058-9.0996-2.47851-18.08154-4.05273-26.76855-.2041-1.12696-.40772-2.25147-.60938-3.37256 9.08692 4.69873 17.9712 3.71338 26.56739 2.76172zm-6.67627-3.55127c.72314-.43702 3.19091-2.13233 2.61718-4.59522.44965-.15655 1.56885-.65484 2.2674-1.77399.13751-.06835.276-.13812.4123-.20452-.16651.41308-.02833.70263.10204.86328.7505.92627 3.93457.82129 6.41992-.4336-.14355.3418-.15234.63477-.02832.88575.42237.85595 2.29737.86474 4.28174.87353l.25342.00147c1.10156.03369 1.78467.33593 1.78223.78857-.0044.83643-2.28125 2.37744-6.78565 2.4707-.3628-.02783-1.26953.30225-1.35351.83057-.10596.66309 1.07275.96143 1.4995 1.06543.2798.01367.4004.1294.55225.27588.50782.48828 1.042.71582 3.58497-.53125.02197.18066.09716.33105.22607.44922.49072.4497 1.67822.34765 3.96143-.33887 1.1997.8628 2.2539.26416 3.1875-.26514.21289-.12158.42627-.24267.6416-.34765 2.5669.98242 5.34912 1.87744 7.80273 1.87744 1.16211 0 2.25098-.20117 3.20752-.68897 1.48193-.75634 2.51758-2.15576 3.08008-4.16113 3.83154-.43848 6.26025-.9121 6.5542-1.89209.05469-.18213.03613-.3706-.05567-.56445 3.6582 1.40332 4.63721 1.26318 5.09522.9248.27832-.2041.35644-.51416.36475-.83056l.46533.1748c1.64868.62225 2.85144 1.05267 3.5899 1.07373-.1668 2.2063 2.03833 3.71582 2.71185 4.12305-.91552 1.45215-.7672 2.82873-.50598 3.70392-2.05792-.15271-4.10199-.37653-6.12927-.60138-7.7456-.8584-15.06055-1.66895-21.58545 1.98681-6.5249-3.65576-13.8418-2.8457-21.58496-1.98681-2.01398.22314-4.04443.44507-6.0885.59753.26062-.86938.4101-2.27106-.54382-3.75085zm-.1084-5.10596c-.21875-.16211-.28028-.53467-.18262-1.10742l.06787-.40088-.35888.19043c-4.86817 2.57959-5.83887 2.43701-6.02881 2.25586-.17432-.16504.09277-.7456.23681-1.05762.05274-.11475.10059-.21924.13282-.30469 3.44726-3.65869 10.7417-3.6377 17.80029-3.62256.78369.00245 1.56738.00489 2.34619.00147l.05322-.00732c4.7749-1.33594 8.8623-.5708 12.88819 2.42187.81884.45068 1.7168.41943 2.0874-.0752.16113-.21533.42969-.8208-.55127-1.79443l-1.33447-.82764c-.14399-.08026-.27204-.16265-.39954-.24511l.8429-1.43408c.13116-.22303.4569-.34778.84527-.43812.0968.14509.25336.2467.43988.2467.25226 0 .45478-.17858.5133-.41418l2.02381-.29675-1.89014-.6748c-.52685-.18897-1.58056-.24268-2.26757.22949-.37256.25488-.58399.63867-.5957 1.08105l-.04285 1.61933c-1.11786-.7616-1.53296-1.60083-1.14026-2.35126.63818-1.2207 3.521-2.083 6.19531-.7705l.0542.01757c1.8081.30908 4.51172.62793 9.42725.35498.60888-.04443 1.35449.06299 1.6206.48926.17383.2788.10742.65576-.03369 1.00635-.07275-.11377-.16895-.21973-.28564-.31055-.24952-.19434-.7998-.4795-1.68604-.20557-2.55322.67578-5.2163.9502-7.92139.8169l-.10302-.00537-.06397.08105c-.3706.46973-.7788.69483-1.28515.70752l-.4917.0127.36132.33447c1.51465 1.40039 2.23145 2.03515 2.59375 2.32324l-.4209.23926h.84131v-.05176l.01416.0254c5.24854-2.98292 14.45606-1.46046 19.40332-.64356 1.44971.23974 2.59473.4287 3.2295.4419 3.31836.0664 4.66308.61132 5.75293 2.32421.3877.66162.66162 1.51953.45117 1.74316-.05127.0547-.29004.19727-1.1748-.25244-1.62842-.95752-3.6006-1.35058-5.50782-1.73095-.74414-.14844-1.51367-.30176-2.24805-.48584l-.45947-.11573.2378.41016c.27734.47803.30517.73291.23828.81152-.30518.35547-2.34668-.41308-3.83887-.97607l-1.03955-.38916.02344.31152c.03369.43897-.02002.65918-.1919.78565-.53662.3955-2.36816-.02979-5.4414-1.26075l-1.17188-.46972.96973.80908c.36474.3042.51855.56299.45703.76807-.28076.93798-4.53418 1.41943-6.35059 1.625l-.13574.01513-.03516.13184c-.52295 1.96191-1.50244 3.32129-2.91162 4.04004-2.85595 1.45752-7.04492.19287-10.76513-1.23633l-.0796-.03076-.07714.03613c-.2505.11719-.49805.25781-.7456.39844-.96876.5503-1.80372 1.0249-2.82911.23437l-.08154-.06299-.09864.02979c-2.07666.63184-3.312.78516-3.67138.45557-.03662-.0332-.14746-.13477-.08203-.44434l.08593-.40723-.37158.18702c-2.76953 1.3955-3.10888 1.06933-3.43652.75341-.16943-.16308-.38037-.36572-.7705-.38086-.95655-.24218-1.18165-.49658-1.16358-.60888.03564-.22559.68213-.52295.94873-.49365 4.2959-.08887 7.18896-1.5547 7.19531-2.86866.00195-.33789-.20605-1.13037-2.1748-1.19092l-.2588-.00097c-1.69287-.00781-3.61181-.0166-3.92529-.65088-.12256-.24854.0088-.62988.39112-1.13379l.66552-.87695-.93115.58642c-2.44238 1.53907-5.92724 1.68506-6.56445.89795-.18897-.23388-.08008-.5625.32373-.97705l.7544-.77539-.98194.4541c-.50293.23291-1.03076.49658-1.5586.76026-1.74511.87304-3.72167 1.8623-4.35595 1.39404zm14.13232-8.9209c.65186.09277 3.31592.33399 4.23682-1.6289.71533.18505 3.41064.69384 5.11914-1.5752.6621.2168 3.38135.9541 4.75976-1.04883 1.39356 2.01074 4.11573 1.26758 4.77833 1.04883 1.72753 2.2793 4.41064 1.7793 5.1206 1.59717.94678 1.95605 3.6211 1.72265 4.27588 1.63379 1.36377 2.35205 4.09424 2.29931 4.85498 2.23193.42676 2.41016 2.99414 2.94336 3.72803 3.04688-.00244.07232.01312.12988.01367.19989-5.12378-.7608-12.27942-1.41785-16.78565 1.0545-.35205-.27686-1.50537-1.32178-2.37744-2.12305.40625-.104.76319-.3418 1.08155-.71924 2.708.12354 5.38183-.15722 7.9497-.83642.7212-.2212 1.14307-.00928 1.33008.13623.18652.1455.29688.34668.2876.52441l-.04346.83008.4165-.71973c.44776-.7749.53028-1.3999.24415-1.8579-.45264-.7251-1.63526-.70118-1.98535-.67676-4.84424.26953-7.51905-.04102-9.30616-.34522-2.7417-1.33008-5.90234-.56836-6.6997.95703-.2671.51026-.62354 1.8457 1.82324 3.2085l1.2705.78271c.51417.51563.69971.9834.49708 1.25391-.2129.2832-.8755.35059-1.55079-.0205-4.10302-3.05079-8.29248-3.83887-13.18603-2.47901-.76856.00293-1.542.00195-2.3169-.00098-1.31158-.00311-2.63037-.0058-3.93225.0144.71283-.45379 1.36213-1.15106 1.55188-2.25707.7627.06396 3.48536.12011 4.84424-2.23145z"/><path class="st5" d="M49.17041 153.04053c.85742 5.96093-.50195 11.53662-1.8169 16.92822-1.54687 6.34375-3.0078 12.33594-1.21874 18.98633 2.02002 6.0332 9.17382 9.41113 15.36572 10.07617 2.47168.43848 5.13086.62695 7.70264.81055 6.37353.45312 12.96142.9209 17.46533 5.13574 4.5044-4.21484 11.09228-4.68262 17.46582-5.13574 2.57177-.1836 5.23047-.37207 7.68847-.8086 6.20606-.66699 13.35987-4.04492 15.3833-10.08984 1.78565-6.63867.32471-12.63086-1.22216-18.97363-1.31494-5.39258-2.6748-10.96827-1.8164-16.938.7329-7.4951 2.13817-14.90185 3.49657-22.06493.17334-.91358.3462-1.82471.5171-2.7334-7.83741 3.85156-15.49903 3.04101-22.90919 2.25635-6.6621-.7046-12.95605-1.37159-18.50781 1.6416l-.0957.05176-.0957-.05176c-5.55323-3.01367-11.84522-2.3462-18.50733-1.6416-7.41064.78564-15.07129 1.59668-22.90967-2.25635.16992.90283.3418 1.8081.51416 2.71582 1.35987 7.16894 2.76612 14.58154 3.50049 22.0913zm54.38037-1.70899h2.16943v-1.51513h1.84766v-1.73096h2.11572V137.3911l2.80909-4.83105 2.80957 4.83105.00146 10.69434h2.11572v1.73096h1.84766v1.51513h2.16895v3.08545l-17.88526-.05078v-3.03467zm-25.52148-8.33496 8.63867-8.2627 8.63965 8.2627v7.62488l17.6543 11.89075v11.73388h4.19287v3.6377h-1.69971v11.4043h2.99756v5.25293H54.88428v-5.25293h2.99804v-11.4043h-1.6997v-3.6377h4.19287v-11.73388l17.6538-11.89075v-7.62488zm-28.813-9.11523c2.12599-1.12842 4.35743-1.28272 5.96925-.41455.41455.22314.78235.51489 1.10833.86267.12598-.1905.3155-.35535.5567-.47254.76856-.37353 1.71924-.10742 2.16602.60108.16907.26819.23706.50464.25775.92132.18494-.31445.40222-.6347.66852-.96331l.12549-.15479.16894.10596c.40772.25561.78058.50824 1.14496.76019.20233-.00891.3885.01422.5235.08844.22608.1236.37537.35175.45429.62927.02014.0155.04174.0312.0617.04663.0177-.42962.21002-.85742.5343-1.15588.37745-.34766.95508-.46582 1.43897-.29297.646.23096.91943.8667.73047 1.70166-.07861.34815-.20947.68018-.43897 1.10498.47205-.21661 1.01056-.1709 1.48285.10529.89307-1.57538 2.07648-2.56311 3.48102-2.86212 1.79102-.3794 3.88037.3833 5.59326 2.04101l.17871.17334-.19043.16016c-.9939.83832-2.27227 1.42285-3.81195 1.76343.05573.03704.11896.07238.17035.1101 1.44873 1.063 2.24951 3.08692 2.1421 5.41406l-.01124.24366-.2417-.03076c-1.25006-.1587-2.49866-.67164-3.73883-1.50855.08624.22614.17438.45197.23541.6814l.06348.23779-.24268.0415c-.51757.08838-1.0249.13184-1.51464.13184-.19751 0-.37989-.03271-.5713-.0467 1.17805 1.63477 1.82294 3.24451 1.89991 4.81184l.0122.24463-.24462-.0083c-2.3139-.07996-4.24085-.98585-5.22968-2.42621-.00635.03003-.01074.06628-.01782.09448.03857.11297.07483.22607.10742.3393 1.4546 2.89575 1.91297 5.44091 1.33588 7.57446l-.06348.23388-.22851-.08008c-1.78034-.62554-3.14435-1.70147-3.85956-2.98236-.3296 1.08081-.81287 2.00898-1.45099 2.77777l-.1538.18506-.17433-.16552c-1.71728-1.62793-2.5498-3.65088-2.22607-5.41065.01953-.10614.05164-.22015.08221-.33313-.19665.3382-.4093.66034-.65057.95325l-.15283.18555-.1753-.16456c-1.72363-1.62255-2.56298-3.64257-2.2456-5.4038.00757-.04206.02283-.08887.03204-.13208-.73535.70611-1.52093 1.2539-2.3626 1.61499l-.22217.09521-.0791-.22851c-.76417-2.20557-.56983-4.36915.51953-5.7876.52972-.68933 1.47436-1.43646 3.07666-1.75366-2.88776-.87622-4.94568-2.18958-6.10547-3.93433l-.13721-.20703.21924-.11621z"/><path class="st5" d="M58.60498 146.46875c-.0617-.03473-.11517-.0813-.17255-.12256-.09515.39673-.20935.77466-.34246 1.13397.20105-.30114.45605-.60601.77472-.90796-.08826-.03064-.17829-.05743-.2597-.10345z"/><path d="M45.27588 131.02393c1.3584 7.16015 2.76318 14.56396 3.49707 22.06445.84717 5.89355-.50293 11.43066-1.8086 16.78564-1.49072 6.11426-3.03222 12.43555-1.21289 19.1963 2.0796 6.21386 9.38672 9.68066 15.69239 10.35741 2.479.44043 5.14892.62989 7.73095.81348 6.36768.45215 12.95264.9209 17.35499 5.15723l.13867.13379.13867-.1338c4.40283-4.23632 10.9878-4.7041 17.35547-5.15722 2.58203-.1836 5.25146-.37305 7.7168-.81152 6.31933-.67871 13.62695-4.14551 15.70996-10.3711 1.81591-6.74902.27441-13.0703-1.21631-19.18457-1.30616-5.35498-2.65625-10.89209-1.8081-16.79443.73241-7.48584 2.13573-14.88379 3.49267-22.03809.19873-1.04687.39648-2.09082.5918-3.13086l.07519-.40039-.3628.18457c-7.8579 4.00586-15.58007 3.1875-23.04785 2.39649-6.6875-.7085-13.00683-1.37744-18.6455 1.63623-5.6377-3.01367-11.95655-2.34424-18.64502-1.63623-7.46826.79101-15.19043 1.6079-23.04834-2.39697l-.3628-.18457.0752.40039c.19434 1.03466.39111 2.07275.58838 3.11377zm22.78955-.53418c6.6621-.7046 12.9541-1.37207 18.50732 1.6416l.0957.05176.09571-.05176c5.55176-3.01319 11.8457-2.3462 18.50781-1.6416 7.41016.78466 15.07178 1.59521 22.90918-2.25635-.1709.90869-.34375 1.81982-.51709 2.7334-1.3584 7.16308-2.76367 14.56982-3.49658 22.06494-.8584 5.96972.50147 11.5454 1.8164 16.93799 1.54688 6.34277 3.00782 12.33496 1.22217 18.97363-2.02343 6.04492-9.17724 9.42285-15.3833 10.08984-2.458.43653-5.1167.625-7.68847.8086-6.37354.45312-12.96143.9209-17.46582 5.13574-4.5039-4.21484-11.0918-4.68262-17.46534-5.13574-2.57177-.1836-5.23095-.37207-7.70263-.81055-6.1919-.66504-13.3457-4.04297-15.36572-10.07617-1.78907-6.6504-.32813-12.64258 1.21875-18.98633 1.31494-5.3916 2.67431-10.96729 1.81689-16.92822-.73437-7.50977-2.14062-14.92237-3.50049-22.09131-.17236-.90772-.34424-1.81299-.51416-2.71582 7.83838 3.85303 15.49903 3.042 22.90967 2.25635z"/><path class="st2" d="m111.03784 162.30127-16.31763-10.99023H78.6167l-16.3172 10.99023zm1.02368.90039H61.27588v11.04443H72.4453v-3.57226h5.1831v-6.42969h6.07911v6.42969h5.92236v-6.42969h6.0791v6.42969h5.18311v3.57226h11.16943v-11.04443zM69.00635 173.2041h-6.0791v-8.95996h6.0791v8.95996zm35.32373 0v-8.95996h6.0791v8.95996h-6.0791z"/><path d="M60.37549 174.2461h-4.19287v3.63769h1.6997v11.4043h-2.99804v5.25293h63.56836v-5.25293h-2.99756v-11.4043h1.6997v-3.6377h-4.19287v-11.73388l-17.6543-11.89075v-7.62488l-8.63964-8.2627-8.63867 8.2627v7.62488l-17.65381 11.89075v11.73388zm18.5542-30.60694h15.47754v6.77148H78.92969v-6.77148zm14.80572-.9004H79.60144l7.06653-6.75976 7.06744 6.75977zm.9848 8.57228 16.31763 10.99023H62.2995l16.3172-10.99023h16.1035zm21.53418 25.67236h-1.6997v12.30469H99.54053v-13.56543h1.35156v-.57618h15.3623v1.83692zm1.29786 16.65723H55.78467v-3.45215h61.76758v3.45215zM57.083 176.9834v-1.83692h15.3623v.57618h1.35352v13.56543H58.7827v-12.3047H57.083zm16.2627-5.40918h1.01757v3.24805H73.3457v-3.24805zm9.46142-.9004H78.5288v-5.52929h4.27832v5.5293zm12.00146 0h-4.27832v-5.52929h4.27832v5.5293zm5.1831 4.14845h-1.01757v-3.24805h1.01758v3.24805zm-16.93212 3.88085h7.21826v10.58497h-7.21826v-10.58497zm-.90039-.90039v11.48536h-3.81934v-13.56543h16.65772v13.56543h-3.81934v-11.48536h-9.01904zm11.87988-2.98046h-.96777v-3.24805h.96777v3.24805zm-2.93506-3.24805h.96729v3.24805H91.104v-3.24805zm-9.83837 3.24805v-3.24805h.96777v3.24805h-.96778zm-1.96729-3.24805h.96728v3.24805h-.96728v-3.24805zm-1.85889 4.14844v13.56543h-2.74023v-13.56543h2.74023zm18.4585 0h2.74219v13.56543h-2.7422v-13.56543zm2.07617-.9004h-.96728v-3.24804h.96728v3.24805zm-1.96728 0h-.96778v-3.24804h.96778v3.24805zm-5.90284 0h-.96777v-3.24804h.96777v3.24805zm-1.96777 0h-.96777v-3.24804h.96777v3.24805zm-1.96777 0h-.96729v-3.24804h.96729v3.24805zm-1.96729 0h-.96777v-3.24804h.96777v3.24805zm-5.90283 0h-.96777v-3.24804h.96777v3.24805zm-1.96777 0h-.96729v-3.24804h.96729v3.24805zm24.56152-.57617v-3.57226h-5.1831v-6.42969h-6.0791v6.42969h-5.92237v-6.42969h-6.0791v6.42969h-5.1831v3.57226H61.27587v-11.04443h50.78564v11.04443H100.8921zm-22.41211-31.057h-.00024.00024z"/><path class="st2" d="M73.79883 189.28809v-13.56543H72.4453v-.57618H57.083v1.83692h1.6997v12.30469h15.01612zm-4.79248-2.06934h-6.0791v-8.95996h6.0791v8.95996zm25.99121 2.06934v-13.56543H78.33984v13.56543h3.81934v-11.48536h9.01904v11.48536zm5.89453-14.14161v.57618h-1.35156v13.56543h15.01416v-12.3047h1.6997v-1.8369h-15.3623zm9.51709 12.07227h-6.0791v-8.95996h6.0791v8.95996zm-16.00195-43.57959H78.92969v6.77148h15.47754v-6.77148zm-4.16407 6.01074h-7.1499v-5.25049h7.1499v5.2505zm3.49225-6.91113-7.06744-6.75977-7.06653 6.75977zm-29.90777 22.40576h4.27832v7.15918h-4.27832z"/><path d="M62.92725 164.24414v8.95996h6.0791v-8.95996h-6.0791zm.90039 8.05957v-7.15918h4.27832v7.15918h-4.27832z"/><path class="st2" d="M78.52881 165.14453h4.27832v5.5293h-4.27832zm26.70166 0h4.27832v7.15918h-4.27832z"/><path d="M110.40918 164.24414h-6.0791v8.95996h6.0791v-8.95996zm-5.17871 8.05957v-7.15918h4.27832v7.15918h-4.27832z"/><path class="st2" d="M90.53027 165.14453h4.27832v5.5293h-4.27832zm-26.70263 14.01465h4.27832v7.15918h-4.27832z"/><path d="M62.92725 187.21875h6.0791v-8.95996h-6.0791v8.95996zm.90039-8.05957h4.27832v7.15918h-4.27832v-7.15918z"/><path class="st2" d="M105.23047 179.15918h4.27832v7.15918h-4.27832z"/><path d="M104.33008 187.21875h6.0791v-8.95996h-6.0791v8.95996zm.90039-8.05957h4.27832v7.15918h-4.27832v-7.15918z"/><path class="st2" d="M83.05957 178.70313h7.21826v10.58496h-7.21826zm-8.36035-2.98047h2.74023v13.56543h-2.74023zm21.19873 0h2.74219v13.56543h-2.74219zm3.07617-4.14844h1.01758v3.24805h-1.01758zm-13.77295 0h.96729v3.24805h-.96729zm-5.90283 0h.96729v3.24805h-.96729zm17.7085 0h.96729v3.24805h-.96729zm-9.83838 0h.96777v3.24805h-.96777zm-11.80518 0h.96729v3.24805h-.96729zm15.74072 0h.96729v3.24805H91.104zm-9.83837 0h.96777v3.24805h-.96777zm1.96777 0h.96777v3.24805h-.96777zm-5.90283 0h.96777v3.24805h-.96777zm11.80566 0h.96777v3.24805h-.96777zm5.90283 0h.96777v3.24805h-.96777zm-1.96777 0h.96777v3.24805h-.96777zm-19.72559 0h1.01758v3.24805H73.3457z"/><path style="fill:none;stroke:#f5f5f5;stroke-width:0;stroke-linecap:round;stroke-linejoin:round" d="M78.47974 143.18909h.00024"/><path class="st2" d="M55.78467 190.18848h61.76758v3.45215H55.78467zm28.20898-44.88868h5.34912v3.44971h-5.34912z"/><path d="M83.09326 149.6499h7.1499v-5.25049h-7.1499v5.2505zm.9004-4.3501h5.34911v3.44971h-5.34912v-3.4497z"/><path class="st7" d="M62.70117 137.03467c-.00049-.00049-.00049-.00098-.00097-.00147-.09693-.20764-.15955-.36725-.20392-.51513-.0293-.02393-.06024-.04786-.0899-.07178-.01344.11206-.03284.22351-.06702.33447.12597.08289.2486.16815.36181.2539zm-3.14844-1.00927c.38135-.30763.66602-.5005.98194-.66602.0777-.04041.15832-.06708.23828-.0976-.20166-.13532-.39032-.26971-.6045-.40582-.35381.45685-.61468.89404-.79455 1.3131l.17883-.14367zm9.91944 7.39013c-.11414-.3695-.27692-.73328-.4618-1.09436-.78765-.61731-1.5714-1.35816-2.34869-2.24616-.24646.07807-.57605.06067-.9154-.04474.54236.41376.6662 1.1109.30444 1.9201.48523.49836.92426.99506 1.31067 1.48951.66162.08337 1.37103.08154 2.11078-.02435zm-4.46045-3.685c.0282.00354.05621.00629.08417.01123-.02729-.01514-.0539-.02643-.08173-.04254a5.39667 5.39667 0 0 0-.00244.03131zm-7.34863 5.49603v-.00049c-.09473-.41015-.08692-.68652.03515-1.28564a12.68607 12.68607 0 0 0 .03357-.16595c0-.00007-.00006-.00025-.00006-.00037a4.5278 4.5278 0 0 0-.05646.06915c-.80224.9873-1.59033 1.50586-2.17822 1.45703-.27539-.02148-.51172-.16308-.68408-.4082-.0492-.07013-.08283-.1546-.1189-.23682-.1676 1.4925.5434 3.1717 1.95923 4.58057.66553-.87378 1.12683-1.96185 1.40149-3.23834-.18677-.22736-.3269-.49-.39172-.77094zm4.82641-3.37726c.2135.18927.43128.40686.65308.66633.01367.01562.0288.0332.04346.05029-.01026-.04492-.021-.09278-.03223-.1421-.05408-.2332-.08386-.41015-.10077-.57207-.07867.01214-.15521.0335-.23615.0335-.10827 0-.21783-.01312-.32739-.03595zm-4.40307-3.45867c-.05591.05065-.10859.08459-.16376.13134l.0152.1604c.01666.01282.0343.02362.0506.03711.02282-.08764.04962-.18042.08477-.28833a4.3552 4.3552 0 0 1 .01319-.04053zm2.60156.68847c.06042.14966.08496.28711.11047.42456.30982-.1026.60541-.12854.81873-.0398.06048.02534.10327.07899.15674.11603.06811-.0896.13598-.17926.22021-.26788-.01855-.00049-.03809-.00097-.0586-.00195-.6665-.02393-1.23876-.41016-1.61034-1.0879-.02204-.04021-.03425-.08123-.05372-.12182-.05975-.01214-.12011-.00921-.1792-.02807.28614.3789.46485.6831.5957 1.00683zm3.57471.13037a.58623.58623 0 0 1-.0293.03614c.00342.06103.01514.1875.05224.43847.00617.04144.00782.06964.01307.10816.08563-.02765.172-.04334.26117-.05658.00897-.11402.01709-.21558.02465-.31049-.04028-.02692-.07135-.04346-.11383-.07263l-.208-.14307zm-3.38239 5.90893.82202-.33099c-.72742-.18432-1.26684-.7409-1.51776-1.57403-.00922-.03058-.01092-.06024-.01904-.0907-.12445-.00519-.24866.00153-.37305-.03137a.46367.46367 0 0 0-.0249-.00635c.42773.46924.68945.83545.8877 1.23828.13812.28046.19927.54346.22503.79517zm-2.15253-4.45379c.01941.18543.03516.28552.04517.33637.02978.021.05908.04443.08642.06787l.21344-.23474c-.1203-.04071-.23413-.10212-.34503-.1695zm-3.0119 1.08264c.09497-.14862.18646-.30847.279-.4649-.4903-.38013-.7975-.81012-.86402-1.25891-.05603-.38117.08533-.77564.37353-1.0951-.0194-.02905-.04815-.04693-.06494-.07873-.04522-.08539-.07708-.18005-.10156-.27838-1.22626.23816-2.18518.77203-2.81787 1.59527-.95898 1.24903-1.15186 3.15332-.5288 5.13233.95946-.45471 1.84386-1.17218 2.6582-2.11847.18902-.66242.56146-1.15283 1.06646-1.4331zm-.34784-4.03827c.02252-.083.04224-.16613.0758-.24853.28223-.69434.81544-1.11865 1.50098-1.19483.00391-.00042.0077-.00079.0116-.00122-.00305-.0078-.00561-.01635-.00873-.02423-.50842-.4162-.79876-.86602-.82562-1.29876-.00226-.03601.00977-.0702.0116-.10584-.33289-.4021-.7171-.73352-1.1615-.97278-1.42334-.76709-3.39746-.65136-5.31885.3003 1.12384 1.5545 3.04852 2.7376 5.71472 3.5459z"/><path d="M55.23975 138.13892c-1.6023.3172-2.54694 1.06433-3.07666 1.75366-1.08936 1.41846-1.2837 3.58203-.51954 5.7876l.0791.22851.22217-.09521c.84168-.36109 1.62726-.90888 2.36261-1.615-.00921.04322-.02447.09003-.03204.13209-.31738 1.76123.52197 3.78125 2.2456 5.4038l.1753.16456.15283-.18555c.24127-.2929.45392-.61505.65057-.95325-.03057.11298-.06268.227-.0822.33313-.32374 1.75977.50878 3.78272 2.22606 5.41065l.17432.16552.15381-.18506c.63812-.7688 1.1214-1.69696 1.45099-2.77777.7152 1.28089 2.07922 2.35682 3.85956 2.98236l.22851.08008.06348-.23388c.57709-2.13355.11871-4.67871-1.33588-7.57447-.03259-.11322-.06885-.22632-.10742-.3393.00708-.02819.01147-.06444.01782-.09447.98883 1.44037 2.91577 2.34625 5.22968 2.4262l.24463.0083-.01221-.24462c-.07697-1.56732-.72186-3.17707-1.8999-4.81183.1914.01398.37378.04669.57129.04669.48974 0 .99707-.04346 1.51465-.13184l.24267-.0415-.06348-.2378c-.06103-.22942-.14917-.45525-.2354-.68139 1.24016.83691 2.48876 1.34985 3.73882 1.50855l.2417.03076.01123-.24365c.10742-2.32715-.69336-4.35108-2.14209-5.41407-.05139-.03772-.11462-.07306-.17035-.1101 1.53968-.34058 2.81806-.92511 3.81195-1.76343l.19043-.16016-.1787-.17334c-1.7129-1.65771-3.80225-2.4204-5.59327-2.04101-1.40454.299-2.58795 1.28674-3.48102 2.86212-.47229-.27619-1.0108-.3219-1.48285-.10529.2295-.4248.36036-.75683.43897-1.10498.18896-.83496-.08447-1.4707-.73047-1.70166-.48389-.17285-1.06152-.05469-1.43897.29297-.32427.29846-.5166.72626-.5343 1.15588-.01996-.01544-.04156-.03112-.0617-.04663-.07892-.27752-.22821-.50567-.45429-.62927-.135-.07422-.32117-.09735-.5235-.08844-.36438-.25195-.73724-.50458-1.14496-.7602l-.16894-.10595-.12549.15479c-.2663.3286-.48358.64886-.66852.96331-.02069-.41668-.08868-.65313-.25775-.92132-.44678-.7085-1.39746-.97461-2.16601-.60108-.24121.1172-.43073.28205-.5567.47254-.326-.34778-.6938-.63953-1.10834-.86267-1.61182-.86817-3.84326-.71387-5.96924.41455l-.21924.1162.1372.20704c1.1598 1.74475 3.21772 3.0581 6.10548 3.93433zm-.26758-4.27613c.4444.23926.82861.57068 1.1615.97278-.00183.03565-.01386.06983-.0116.10584.02686.43274.3172.88256.82562 1.29876.00312.00788.00568.01642.00873.02423-.0039.00043-.00769.0008-.0116.00123-.68554.07617-1.21875.50048-1.50097 1.19482-.03357.0824-.05329.16553-.0758.24853-2.6662-.80828-4.59089-1.99139-5.71473-3.5459 1.92139-.95165 3.8955-1.06738 5.31885-.30029zm1.59912 1.05078c-.01563-.25146.167-.50146.47607-.65185.56446-.27393 1.26172-.08203 1.58838.43652.14893.23535.19824.41455.19776 1.00928-.00013.1225.00134.21808.00402.30438-.33398-.02246-.66589.10779-.9027.37189-.05213-.04083-.12757-.09363-.2649-.1792-.66357-.41357-1.07422-.896-1.09863-1.29102zm6.29297 1.04932c-.00293-.33008.14502-.66455.39648-.896.2539-.23437.65723-.31689.98291-.2002.5713.20411.52295.8257.44336 1.17823-.08105.3584-.229.7041-.50976 1.19483l-.0146.0255c-.06066-.0446-.11462-.09807-.1856-.12804-.23566-.09937-.49371-.08496-.73627-.00574-.03161-.07025-.07336-.1604-.13287-.2882-.19336-.41505-.24121-.5879-.24365-.88038zm6.87988-1.02978c1.57715-.3379 3.4336.31591 5.00098 1.7495-1.02051.79456-2.34503 1.32575-3.94196 1.6089-.89245-.40131-2.15674-.61207-3.89148-.19544-.0896-.14533-.19153-.28412-.31207-.40662-.02313-.0235-.05084-.03589-.07465-.05804.8318-1.49475 1.92792-2.42359 3.21918-2.6983zm3.54688 8.95214c-2.09351-.34558-4.19715-1.7168-6.27155-4.08117.11188-.14588.19556-.31763.21393-.53699.0202-.2406-.02783-.50122-.1206-.75531 1.69946-.38806 3.14092-.19434 4.21093.59174 1.27637.93603 2.00293 2.71142 1.96729 4.78173zm-8.89356 2.2207c-.0611-.10046-.1079-.20806-.15906-.31347.01947-.31006.03797-.45624.0492-.52246.02734-.02002.0537-.04248.07715-.06348l.22314.23291c.39648.41407.69385.67871 1.0249.91407.51807.36718 1.12989.51367 1.48828.3501.27149-.12159.46827-.3672.57032-.709.15081-.50756.0523-1.1472-.23139-1.69268 1.0033 1.4281 1.58368 2.82898 1.70453 4.18927-2.15137-.1333-3.91406-1.01514-4.74707-2.38525zm-2.80792 4.92817c.22363-.95221.34552-2.00464.35315-3.16675.16815.05005.33984.0755.50995.0755.54492 0 1.07226-.25293 1.40478-.72754.00196-.0028.003-.00555.00495-.00836 1.33197 2.66577 1.78735 5.00647 1.33685 6.97223-1.77039-.67658-3.07214-1.81976-3.60968-3.14508zm-3.72968-1.85932c.17224-.93542.70319-1.77801 1.55909-2.49993.31018-.00123.62005-.08527.8789-.25202.2583-.16601.41101-.39905.5058-.65954.0642-.03376.13269-.06574.19885-.09864-.13446.2104-.23004.42615-.2569.64588-.05908.49023.20801.99658.69776 1.32275.01453.0097.031.0124.04571.0216.01307 2.7068-.55316 4.84235-1.71173 6.35145-1.4873-1.49024-2.20214-3.28174-1.91748-4.83155zm-3.16577-4.51953c.03607.08222.0697.16669.1189.23682.17236.24512.40869.38672.68408.4082.5879.04883 1.37598-.46972 2.17822-1.45703a4.52732 4.52732 0 0 1 .05646-.06915c0 .00012.00006.0003.00006.00037a12.68773 12.68773 0 0 1-.03357.16595c-.12207.59912-.12988.87549-.03515 1.28564v.0005c.06482.28094.20495.54357.39172.77093-.27466 1.27649-.73596 2.36456-1.40149 3.23834-1.41583-1.40887-2.12683-3.08807-1.95923-4.58057zm-2.70288.64356c-.62305-1.979-.43017-3.8833.5288-5.13233.6327-.82324 1.59162-1.35711 2.81788-1.59527.02448.09833.05634.193.10156.27838.01679.0318.04554.04968.06494.07873-.2882.31946-.42956.71393-.37353 1.0951.06653.44879.37372.87878.86401 1.2589-.09253.15644-.18402.3163-.27899.46491-.505.28028-.87744.7707-1.06647 1.4331-.81433.9463-1.69873 1.66377-2.6582 2.11848zm10.50507-8.78076c.04437.14788.107.3075.20392.51513.00048.0005.00048.00098.00097.00147-.11322-.08576-.23584-.17102-.36181-.2539.03418-.11097.05358-.22242.06701-.33448.02967.02392.06061.04785.0899.07178zm.99298 10.43896c-.40235.57227-1.19043.70508-1.79639.30127-.34717-.23096-.53906-.57324-.50049-.89307.0586-.48242.53907-.99316 1.31739-1.40185.11718-.06134.1922-.10468.25164-.14142.24628.22022.58332.35675.9549.35675.0127 0 .02539-.00049.03808-.00049.03504-.00091.06568-.01709.10022-.02032-.0277.1253-.04657.30554-.06555.60821-.04443.71631-.11377.9253-.2998 1.19092zm-5.3877-1.83203c-.07812-.33936-.07031-.56445.03809-1.09473.04217-.208.06524-.32702.08105-.41778.3504-.03034.68079-.23187.90833-.55255l.20007.2135c.46143.49316.72852.85498.92236 1.24853.19483.396.42872 1.12012-.19726 1.52246-.35352.22754-.8584.24073-1.22803.03223-.36328-.20459-.63428-.56006-.7246-.95166zm-2.24072-7.49512c.21728-.53418.61963-.85986 1.13428-.91699.1919-.02148.25586-.01562.48925.04688.08106.02185.14771.03784.20673.04925-.0982.28473-.1012.59277.013.85748.04755.11023.11847.20276.19605.2876a5.53479 5.53479 0 0 0-.10962.09717c-.143.12988-.28247.23956-.41956.34119-.49902-.1463-1.05908-.07349-1.53332.24762-.00019-.00037-.00055-.00055-.00074-.00092-.13476-.25488-.12597-.6416.02393-1.00928zm2.25977-.71582c.11816-.29052.3828-.47412.64697-.47412.06836 0 .13672.0122.20215.03809.13818.0542.24902.16357.31103.3086.0752.1743.07373.38378-.00342.5747-.14795.36572-.52978.56299-.84863.43554-.13818-.0542-.24902-.16357-.31103-.3081-.0752-.1748-.07422-.38428.00293-.5747zm2.4331.02393c.04639-.11719.12158-.19238.22266-.22461.34619-.11084.97949.15967 1.70215.71777.0733.05634.12121.08191.17578.117-.06024.07514-.1272.14374-.1709.23359-.14697.30322-.16846.64502-.0586.93799.00592.01568.0191.02606.0257.04132-.01636.0061-.02771.0091-.04523.0158-.20898.08008-.26855.09034-.45312.08399-.50244-.01807-.93994-.32178-1.23242-.8545-.2085-.38036-.27393-.7998-.16602-1.06835zm3.53858.9209c.06689.17822.05126.39062-.04249.5835-.17968.37157-.58935.56298-.91357.42626-.17139-.07226-.25244-.20703-.29004-.30713-.0669-.17822-.05127-.39062.042-.583l.00048-.0005c.14063-.29003.42139-.4702.6919-.4702.07568 0 .15088.01415.22168.04443.17138.07177.25244.20654.29004.30664zm1.54003 3.93213c-.1792.38867-.43066.74804-.86767 1.24023l-.05902.06628c-.25312-.2365-.60688-.38684-1.01471-.3866h-.00049c-.00378.00013-.0072.00117-.01093.00129-.01849-.0879-.04382-.20087-.08721-.38947-.11915-.51318-.13233-.73242-.06446-1.06543.07764-.3828.33252-.73584.68067-.94384.35449-.21192.84521-.21094 1.19482.00195.61768.37549.4087 1.08594.229 1.47559zm1.32618 2.55127c.30029.46826.41308 1.08056.28125 1.52392-.04395.14844-.13575.34277-.32325.42725-.18017.07812-.6294-.01319-1.04296-.30713-.31055-.22022-.58008-.46094-.96045-.8584l-.27466-.28656c.01892-.01575.04425-.02234.06225-.03912.2583-.24073.396-.55713.38721-.8921-.0019-.07269-.03522-.13427-.05005-.20287.10504-.02375.21668-.05121.31128-.07886.59961-.1753 1.21582.0996 1.60938.71387zm-11.88623-1.01416c.19335-.7041.62207-1.17872 1.208-1.3374.21729-.0586.29102-.06202.56055-.02442.10724.01434.18768.0213.25757.02405-.0987.3836-.05597.781.12524 1.09411.06781.1175.15692.21363.25458.2962-.04529.04847-.094.1064-.15253.17841-.68554.84375-1.36718 1.31446-1.79297 1.29297-.13916-.01123-.25732-.08496-.35107-.21875-.20703-.29492-.24902-.79492-.10937-1.30517zm.5039-3.37061c-.04834-.32861.13916-.68555.49024-.93213.61181-.42969 1.42675-.31299 1.854.26465.19824.26807.2749.48096.33984 1.21289.01484.17004.02839.30347.0423.4123-.39398.01305-.7716.25042-1.00976.62646-.0611-.04047-.15485-.0937-.32843-.17939-.80909-.39892-1.31495-.91064-1.38819-1.40478zm8.167 4.7705c-.00928.0005-.01807.0005-.02686.0005-.49317 0-.89844-.33692-.90918-.76123-.01123-.43165.39014-.79346.89502-.80616.48389-.01318.9248.32862.93555.76074.00537.2041-.08106.39942-.24366.55079-.16992.15869-.40136.24902-.65088.25537zm-4.8086-2.27587c-.13379.49316-.5581.81103-.94482.7085-.19727-.05176-.31348-.19239-.37647-.30128-.125-.21582-.15332-.49707-.07861-.77197.11719-.43066.45605-.72754.79785-.72754a.58474.58474 0 0 1 .14746.01905c.19727.05175.31348.19238.37647.30127.1245.2163.15332.49707.07812.77197zm-.9967-3.76978-.0152-.1604c.05517-.04675.10785-.08069.16376-.13135a4.00859 4.00859 0 0 0-.01319.04053c-.03515.10791-.06195.20069-.08478.28833-.0163-.01349-.03393-.02429-.0506-.0371zm.9215 2.38648c-.02734-.02344-.05664-.04688-.08642-.06787-.01001-.05085-.02576-.15094-.04517-.33637.1109.06738.22473.12879.34503.1695l-.21343.23474zm.38672.38672c-.01684-.02918-.04437-.04645-.06329-.07367l.23517-.25836c.3789-.41602.64795-.66944.96045-.90333.41699-.312.87744-.41992 1.06494-.3413.1958.08203.2959.28076.34521.43261.09705.29828.07734.67377-.02606 1.0357-.28522-.14593-.55542-.2318-.78839-.20367-.26953.02833-.49805.17286-.66113.41797-.1908.28705-.2644.68189-.22803 1.10913-.05963-.00738-.11847.00098-.17822-.01489-.16895-.04443-.40723-.09375-.52832-.10986l-.0072-.00098c.09722-.38183.05542-.7774-.12513-1.08935zm3.90772.96826c.01123.04931.02197.09717.03223.14209a6.72948 6.72948 0 0 0-.04346-.0503c-.2218-.25946-.43958-.47705-.65308-.66632.10956.02283.21912.03595.3274.03595.08093 0 .15747-.02136.23614-.0335.0169.16192.0467.33886.10077.57208zm-.78272 1.94336c-.2622.04345-.333.0415-.5459-.01074-.57519-.14014-1.00488-.59229-1.20996-1.27295-.14892-.49366-.12109-.98145.07276-1.27295.0874-.13184.1997-.20557.333-.21973.43946-.042 1.09034.41064 1.7798 1.2168.04735.05536.08623.0996.12395.14068-.3521.2317-.57837.60956-.5678 1.0307.00353.13501.04626.25867.09399.37922-.03028.00439-.04529.0033-.07984.00897zm-2.5786-1.27588c.12438.0329.24859.02618.37304.03137.00812.03046.00982.06012.01904.0907.25092.83313.79034 1.3897 1.51776 1.57403l-.82202.331c-.02576-.25171-.08691-.51471-.22504-.79517-.19824-.40283-.45996-.76904-.8877-1.23828.0083.00195.01661.0039.02491.00635zm4.04784-3.34131c.01514.10132.02265.17615.03174.25629-.39801.27807-.69122.69897-.78564 1.16119-.016.07898-.02509.15064-.03357.22266-.21765.04797-.45014.0498-.67932-.042-.04798-.01934-.0882-.0459-.13123-.07.08026-.38642.08185-.77582-.02551-1.10578-.03192-.09802-.08771-.16803-.13428-.2492.143-.20398.32898-.41156.5752-.61408.06481-.05316.11163-.09387.15191-.13019.05127.03443.09369.08033.1518.1048.12548.05274.25732.07764.39013.07764.1488 0 .29499-.04157.4361-.10047.00323.1156.0191.2624.05267.48914zm1.17139-.01947a5.4062 5.4062 0 0 1 .00244-.03131c.02783.01611.05444.0274.08173.04254-.02796-.00494-.05597-.00769-.08417-.01123zm-.45184.00513c-.08918.01324-.17554.02893-.26117.05658-.00525-.03852-.0069-.06672-.01307-.10816-.0371-.25097-.04882-.37744-.05224-.43847a.5863.5863 0 0 0 .0293-.03614l.208.14307c.04248.02917.07355.04571.11383.07263-.00756.09491-.01568.19647-.02465.31049zm-4.23468-1.5135c.37158.67774.94384 1.06397 1.61035 1.0879.0205.00098.04004.00146.0586.00195-.08424.08862-.1521.17829-.22022.26789-.05347-.03705-.09626-.0907-.15674-.11603-.21332-.08875-.50891-.0628-.81873.0398-.02551-.13746-.05005-.27491-.11047-.42457-.13086-.32373-.30957-.62793-.5957-1.00683.05908.01886.11944.01593.1792.02807.01946.04059.03167.0816.0537.12183zm-.7627-.09765c.36426.45508.56934.78028.7085 1.12354.04919.12182.09924.27911.11602.44073-.0938.05316-.18853.104-.27813.17108-.2295.17194-.44324.36133-.68207.60187-.1875-.02985-.3753-.10052-.53766-.21368-.08636-.06018-.16205-.13892-.23145-.224-.05572-.38587-.1419-.63092-.28753-.8623.00659-.1504.04101-.31513.1308-.59095.04266-.13116.0716-.22174.09326-.29303.01147.00037.0227.00641.03418.00641.28906 0 .56775-.13281.78363-.34766l.15045.188zm5.66113 5.07178c-.00244.00049-.00488.00098-.00732.00195.26636-.30835.45941-.5711.61517-.82953.43445.45233.8294.90235 1.17914 1.34986-.49463-.49433-1.15063-.70777-1.78699-.52228zm.82709-1.24591c.36176-.8092.23792-1.50635-.30444-1.9201.33935.1054.66894.1228.9154.04473.77728.888 1.56104 1.62885 2.3487 2.24616.18487.36108.34765.72485.46179 1.09436-.73975.1059-1.44916.10772-2.11078.02435-.38641-.49445-.82544-.99115-1.31067-1.4895zm.22858-3.9455c.33545.34082.53857.83301.50586 1.22461-.01075.12598-.05127.2959-.18409.3921-.11523.08251-.49462.10009-.91064-.08204-.30225-.13232-.57275-.28857-.96484-.5581l-.3426-.2353c.02265-.03692.05237-.06732.0716-.10699.12854-.26385.1424-.55206.07672-.8164.09485-.042.20014-.0912.28851-.1377.46534-.24512 1.02393-.12305 1.45948.31982zm-4.3208-1.97412c.03076.15857.0169.3335-.02295.50806-.44391-.23407-.9104-.375-1.29541-.25415-.229.07275-.40772.24512-.5044.48584-.0949.23724-.09924.526-.03674.82647-.13507-.05072-.29578-.10491-.39203-.1311.09796-.28454.10101-.5924-.01263-.857-.01276-.02966-.03754-.04931-.05262-.07726l.19324-.15564c.36182-.292.6167-.46485.9082-.61817.38477-.20068.79053-.23242.9463-.14746.17382.09522.24218.28125.26904.42041zm-1.18555-.76898c-.07996.03052-.16058.05719-.23828.0976-.31592.16552-.60059.3584-.98194.66601l-.17883.14368c.17987-.41907.44074-.85626.79456-1.31311.21417.1361.40283.2705.60449.40582zm-2.34052 11.08441c.05738.04126.11084.08783.17255.12256.08142.04602.17145.07281.2597.10345-.31866.30195-.57366.60682-.77471.90796.13311-.35931.24731-.73724.34246-1.13397z"/><path class="st7" d="M66.5996 137.68945c.12055.1225.22248.2613.31208.40662 1.73474-.41663 2.99903-.20587 3.89148.19543 1.59693-.28314 2.92145-.81433 3.94196-1.60888-1.56739-1.4336-3.42383-2.0874-5.00098-1.74951-1.29126.27471-2.38739 1.20355-3.21918 2.6983.0238.02215.05152.03454.07465.05804z"/><path class="st7" d="M67.1128 138.51178c.09277.25409.1408.5147.1206.75531-.01837.21936-.10205.39111-.21393.53699 2.0744 2.36438 4.17804 3.7356 6.27155 4.08117.03564-2.0703-.69092-3.8457-1.96729-4.78173-1.07-.78608-2.51147-.9798-4.21094-.59174zm.55859 7.48285c-.10205.3418-.29883.5874-.57032.70898-.3584.16358-.97021.0171-1.48828-.3501-.33105-.23535-.62842-.5-1.0249-.91406l-.22314-.2329c-.02344.02099-.0498.04345-.07715.06347-.01123.06622-.02973.2124-.0492.52246.05115.1054.09796.21301.15906.31348.833 1.37011 2.5957 2.25195 4.74707 2.38525-.12085-1.36029-.70123-2.76117-1.70453-4.18927.2837.54547.3822 1.18512.23139 1.69269zm-1.83991-3.62592c-.15576.25843-.34881.52118-.61517.82953.00244-.00097.00488-.00146.00732-.00195.63636-.18549 1.29236.02795 1.78699.52228-.34973-.44751-.74469-.89753-1.17914-1.34986zm-1.96911 4.83826c-.00196.0028-.003.00555-.00495.00836-.33252.47461-.85986.72754-1.40478.72754-.1701 0-.3418-.02545-.50995-.0755-.00763 1.16211-.12952 2.21454-.35315 3.16675.53754 1.32532 1.8393 2.4685 3.60968 3.14508.4505-1.96576-.00488-4.30646-1.33685-6.97223zm-2.3733.44793c-.0147-.0092-.03118-.0119-.04571-.0216-.48975-.32617-.75684-.83252-.69775-1.32275.02685-.21973.12243-.43549.2569-.64588-.06617.0329-.13465.06488-.19886.09864-.09479.2605-.2475.49353-.5058.65954-.25885.16675-.56872.2508-.8789.25202-.8559.72192-1.38685 1.56451-1.55909 2.49993-.28466 1.5498.43018 3.34131 1.91748 4.83155 1.15857-1.5091 1.7248-3.64466 1.71173-6.35144z"/><path class="st3" d="M60.74316 135.75781c-.2915.15332-.54638.32617-.9082.61817l-.19324.15564c.01508.02795.03986.0476.05262.07727.11364.26458.1106.57245.01263.857.09625.02618.25696.08037.39203.1311-.0625-.30048-.05817-.58924.03674-.82648.09668-.24073.2754-.41309.5044-.48584.385-.12085.8515.02008 1.2954.25415.03986-.17456.05372-.34949.02296-.50806-.02686-.13916-.09522-.3252-.26905-.4204-.15576-.08497-.56152-.05323-.94629.14745zm-2.11474 2.52637c-.01148 0-.0227-.00604-.03418-.0064-.02167.07128-.0506.16186-.09326.29302-.08979.27582-.12421.44055-.1308.59094.14563.23139.23181.47644.28753.8623.0694.0851.14509.16383.23145.224.16235.11317.35016.18384.53766.2137.23883-.24055.45257-.42994.68207-.60188.0896-.06707.18432-.11792.27813-.17108-.01678-.16162-.06683-.3189-.11602-.44073-.13916-.34326-.34424-.66846-.7085-1.12354l-.15045-.18799c-.21588.21485-.49457.34766-.78363.34766zm-2.79151.35498c.00019.00037.00055.00055.00074.00092.47424-.32111 1.0343-.39393 1.53332-.24762.13709-.10163.27655-.2113.41956-.34119a5.53543 5.53543 0 0 1 .10962-.09717c-.07758-.08484-.1485-.17737-.19605-.2876-.1142-.2647-.1112-.57275-.013-.85748-.05902-.01141-.12567-.0274-.20672-.04925-.2334-.0625-.29737-.06836-.48926-.04688-.51465.05713-.917.38281-1.13428.917-.1499.36767-.1587.75439-.02393 1.00927zm1.83301-2.43457c.13733.08557.21277.13837.2649.1792.23681-.2641.56872-.39435.9027-.37189-.00268-.0863-.00415-.18188-.00402-.30438.00048-.59473-.04883-.77393-.19776-1.00928-.32666-.51855-1.02392-.71045-1.58838-.43652-.30908.15039-.4917.40039-.47607.65185.02441.39502.43506.87745 1.09863 1.29102zm.75879 1.59229c.31885.12744.70068-.06983.84863-.43555.07715-.19092.07862-.4004.00342-.5747-.06201-.14503-.17285-.2544-.31103-.3086-.06543-.02588-.1338-.03809-.20215-.03809-.26416 0-.52881.1836-.64697.47412-.07715.19043-.07813.3999-.00293.5747.062.14454.17285.25392.31103.30811zm6.39111-.11182c-.08837.0465-.19366.0957-.2885.1377.06566.26434.05181.55255-.07673.8164-.01923.03967-.04895.07007-.0716.107l.3426.23529c.39209.26953.6626.42578.96484.5581.41602.18213.79541.16455.91064.08203.13282-.09619.17334-.26611.18409-.39209.03271-.3916-.17041-.88379-.50586-1.2246-.43555-.44288-.99414-.56495-1.45948-.31983zm-1.71191-.8418c.05951.1278.10126.21796.13287.28821.24256-.07922.50061-.09363.73627.00574.07098.02997.12494.08343.1856.12805l.0146-.02551c.28076-.49073.4287-.83643.50976-1.19483.0796-.35254.12793-.97412-.44336-1.17822-.32568-.1167-.729-.03418-.9829.2002-.25147.23144-.39942.56591-.3965.896.00245.29247.0503.46532.24366.88036zm-.14648 2.44044c-.05811-.02448-.10053-.07038-.1518-.1048-.04028.03631-.0871.07702-.15192.13018-.24621.20252-.43218.4101-.57519.61408.04657.08117.10236.15118.13428.2492.10736.32996.10577.71936.02551 1.10578.04303.0241.08325.05066.13123.07.22918.0918.46167.08997.67932.042.00848-.07202.01757-.14368.03357-.22266.09442-.46222.38763-.88312.78564-1.1612-.0091-.08013-.0166-.15496-.03174-.25628-.03357-.22675-.04944-.37354-.05267-.48914-.14111.0589-.2873.10047-.4361.10047-.13281 0-.26465-.0249-.39013-.07764z"/><path class="st3" d="M60.71973 138.00635c.29248.53271.72998.83642 1.23242.85449.18457.00635.24414-.0039.45312-.08398.01752-.00672.02887-.0097.04523-.01581-.0066-.01526-.01977-.02564-.0257-.04132-.10986-.29297-.08837-.63477.0586-.938.0437-.08984.11066-.15844.1709-.23357-.05457-.0351-.10248-.06067-.17578-.117-.72266-.55811-1.35596-.82862-1.70215-.71778-.10108.03223-.17627.10742-.22266.2246-.1079.26856-.04248.688.16602 1.06837zm2.86084-.49854c-.27051 0-.55127.18018-.6919.47022l-.00049.00049c-.09326.19238-.10888.40478-.04199.583.0376.1001.11865.23487.29004.30713.32422.13672.73389-.05469.91357-.42627.09375-.19287.10938-.40527.04249-.5835-.0376-.1001-.11866-.23486-.29004-.30663-.0708-.03028-.146-.04444-.22168-.04444zm-8.04786 7.34424c.42579.02149 1.10743-.44922 1.79297-1.29297.05854-.07202.10724-.12994.15253-.1784-.09766-.08258-.18677-.17871-.25458-.2962-.18121-.31312-.22394-.71052-.12524-1.09412-.06989-.00275-.15033-.0097-.25757-.02405-.26953-.0376-.34326-.03418-.56055.02441-.58593.1587-1.01464.6333-1.208 1.3374-.13965.51026-.09766 1.01026.10937 1.30518.09375.13379.21191.20752.35107.21875zm4.52149 1.19238c.62598-.40234.39209-1.12646.19726-1.52246-.19384-.39355-.46093-.75537-.92236-1.24853l-.20007-.2135c-.22754.32068-.55792.52221-.90833.55255-.0158.09076-.03888.20978-.08105.41778-.1084.53028-.11621.75537-.03809 1.09473.09033.3916.36133.74707.72461.95166.36963.2085.87451.19531 1.22803-.03223zm-.67578-3.49853c.1211.01611.35937.06543.52832.10986.05975.01587.11859.0075.17822.0149-.03638-.42725.03723-.82209.22803-1.10914.16308-.24511.3916-.38965.66113-.41797.23297-.02813.50317.05774.7884.20368.10339-.36194.1231-.73743.02605-1.0357-.04931-.15186-.14941-.3506-.34521-.43262-.1875-.07862-.64795.0293-1.06494.3413-.3125.2339-.58155.4873-.96045.90332l-.23517.25837c.01892.02722.04645.0445.0633.07367.18054.31195.22234.70752.12512 1.08935l.0072.00098zm-2.41406-1.1836c.17358.0857.26733.13892.32843.17939.23815-.37604.61578-.6134 1.00976-.62647-.01391-.10882-.02746-.24225-.0423-.41229-.06494-.73193-.1416-.94482-.33984-1.2129-.42725-.57763-1.24219-.69433-1.854-.26464-.35108.24658-.53858.60352-.49024.93213.07324.49414.5791 1.00586 1.38819 1.40478zm1.89209.31788c-.063-.1089-.1792-.24952-.37647-.30127a.58474.58474 0 0 0-.14746-.01905c-.3418 0-.68066.29688-.79785.72754-.0747.2749-.04639.55615.07861.77198.06299.10888.1792.2495.37647.30126.38671.10254.81103-.21533.94482-.7085.0752-.2749.04639-.55566-.07812-.77196zm6.54687-1.36475c-.3496-.2129-.84033-.21387-1.19482-.00195-.34815.208-.60303.56103-.68067.94384-.06787.33301-.05469.55225.06446 1.06543.0434.1886.06872.30158.08721.38947.00373-.00012.00715-.00116.01093-.00128h.00049c.40783-.00025.7616.15008 1.0147.3866l.05903-.06629c.43701-.49219.68847-.85156.86767-1.24023.1797-.38965.38868-1.1001-.229-1.47559z"/><path class="st3" d="M62.92474 142.9483c-.03772-.04107-.0766-.08532-.12396-.14068-.68945-.80616-1.34033-1.2588-1.77978-1.2168-.1333.01416-.2456.0879-.33301.21973-.19385.2915-.22168.7793-.07276 1.27295.20508.68066.63477 1.1328 1.20997 1.27295.21289.05224.28369.0542.5459.01074.03454-.00568.04955-.00458.07983-.00897-.04773-.12055-.09046-.2442-.094-.37922-.01056-.42114.2157-.799.56781-1.0307zm2.1131.75898c.01483.0686.04816.13018.05005.20288.00879.33496-.1289.65136-.3872.89209-.01801.01678-.04334.02337-.06226.03912l.27466.28656c.38037.39746.6499.63818.96045.8584.41357.29394.86279.38525 1.04296.30713.1875-.08448.2793-.27881.32325-.42725.13183-.44336.01904-1.05566-.28125-1.52392-.39356-.61426-1.00977-.88917-1.60938-.71387-.0946.02765-.20624.05511-.31128.07886zm-1.18323 1.45062c-.03454.00323-.06518.0194-.10022.02032-.0127 0-.02539.0005-.03808.0005-.37158 0-.70862-.13654-.9549-.35676-.05944.03674-.13446.08008-.25164.14142-.77832.40869-1.2588.91943-1.31739 1.40185-.03857.31983.15332.66211.5005.89307.60595.4038 1.39403.271 1.79638-.30127.18603-.26562.25537-.4746.2998-1.19092.01898-.30267.03784-.4829.06555-.60821zm.78309-1.23602c-.01075-.43213-.45166-.77393-.93555-.76075-.50488.0127-.90625.37451-.89502.80616.01074.42431.41601.76123.90918.76123.00879 0 .01758 0 .02685-.0005.24952-.00634.48096-.09667.65088-.25536.1626-.15137.24903-.34668.24366-.55078z"/><path class="st2" d="M120.63623 152.13135h-2.16894v-1.51514h-1.84766v-1.73096h-2.11572l-.00147-11.27832-2.00976-3.45507-2.00928 3.45507v11.27832h-2.11572v1.73096h-1.84766v1.51514h-2.16943v1.43701l16.28564.0459z"/><path d="M121.43604 151.33154h-2.16895v-1.51513h-1.84766v-1.73096h-2.11572l-.00146-10.69434-2.80957-4.83105-2.80909 4.83105v10.69434h-2.11572v1.73096h-1.84766v1.51513h-2.16943v3.03467l17.88526.05078v-3.08545zm-17.08545.7998h2.16943v-1.51513h1.84766v-1.73096h2.11572v-11.27832l2.00928-3.45507 2.00976 3.45507.00147 11.27832h2.11572v1.73096h1.84766v1.51514h2.16894v1.4829l-16.28564-.0459v-1.437z"/><path class="st3" d="M87.73834 226.48187c0-.43878-.15356-.74048-.47918-.89135-.17676-.08228-.4187-.11896-.72571-.1463l-2.1214-.02277h-.00464l-.01862 2.10724 2.03766.02282c.39539 0 .72571-.06854.95368-.21893.23724-.16455.35821-.43884.35821-.8507z"/><path class="st3" d="m121.83307 228.72717-10.83832-2.42059-.08313-.00092-.9447-9.08563c-5.22632 2.13916-14.62433 3.67548-22.89905 3.67548h-.20947c-8.30512-.00269-18.05493-1.57623-23.32892-3.68176l-.94159 9.05578-.08313.00092-10.83813 2.42053c9.83136 4.97027 31.35553 5.8761 35.23767 5.85101.05957 0 .12353.00098.1914.00098 4.3316 0 25.12397-.95294 34.73737-5.8158zm-31.39972-3.0315c.51636-.79534 1.31653-1.18847 2.40515-1.25658 1.15375-.04572 2.00507.25555 2.58661.93664.46057.50739.70715 1.18848.76758 2.02503.0465.93707-.16284 1.69635-.6001 2.34997-.53967.7218-1.3352 1.11493-2.39124 1.16065-.98626.05487-1.78643-.23267-2.39117-.80408-.54431-.57141-.83276-1.33063-.89325-2.24902-.04187-.85065.12097-1.55463.52106-2.1626h-.00464zm-8.94043 1.93818c-.33026.32965-.81879.49878-1.47473.44849l-2.02832-.13764-.17212 2.60144-.00464-.0091-.86066-.05535.40009-6.12488 2.89831.17829c.5722.05438 1.02814.2235 1.34913.54351.33496.33368.47918.78626.43725 1.33979-.02325.4754-.20001.8955-.54431 1.21545zm4.89166.6267-1.99109-.02788-.01861 2.61468.00006.01831h-.86066l.0232-6.14361 2.99133.02789c.48389.00867.89325.08227 1.21423.224.59546.26007.88855.74048.88855 1.44446 0 .37439-.07904.68066-.2326.9229-.16278.21986-.38611.39814-.68384.5531.26514.08686.43732.22859.56293.39314.14416.14215.20922.3977.22326.76794l.01862.81824c.00928.224.02795.40228.06512.52112.04187.18786.13959.31085.26056.37481l.01862.13306h-1.07001c-.03717-.05536-.05127-.13306-.0791-.20618-.01392-.1001-.0185-.2514-.03253-.49829l-.05121-1.0285c-.01398-.38349-.1582-.66278-.4513-.79535-.1814-.0868-.44195-.11383-.79553-.11383z"/><path class="st3" d="M80.68811 225.42145c-.16748-.1001-.43726-.16461-.77686-.18744l-1.726-.091-.14887 2.13427 1.73993.08686c.3861.0188.72107-.02283.96765-.17829l-.00464.00006c.25586-.15039.39545-.40686.4187-.79998.03253-.45667-.12097-.78626-.46991-.96448zm10.77332 4.14142c.38617.46215.99096.6496 1.80041.60797.77692-.01782 1.30261-.3241 1.61896-.86853.32098-.5348.44195-1.14276.4187-1.828-.04187-.71308-.28381-1.2845-.70715-1.69636-.414-.4201-.97223-.63494-1.6515-.59832-.67455.03656-1.19091.26464-1.591.74005-.39544.43927-.56292 1.08795-.52105 1.9386.0465.67657.25122 1.24792.63269 1.70459h-.00006z"/><path class="st8" d="M60.7215 226.25867c-3.30872-.03955-6.45038-.29145-9.41321-.7655l-.0263 2.87371 9.4395-2.10821z"/><path class="st3" d="m20.54578 175.65997 5.99328.42597.00183.06683 2.93018 6.151L32.25 167.68408l-9.32178-2.91504c-1.38464 4.15894-2.0672 7.85388-2.38244 10.89093z"/><path class="st8" d="M26.58691 177.17981c.08344 2.0874.2563 4.06305.51007 5.935l2.1601-.3299-2.67017-5.6051zm86.19111 49.11499 9.43804 2.10785-.04773-2.87018c-2.9563.47174-6.09014.7229-9.39031.76233z"/><path class="st3" d="m146.95862 176.18994.00183-.06787.18115-.01367 5.81183-.41211c-.31537-3.03699-.99799-6.73187-2.38263-10.89063l-9.32129 2.91455 2.77893 14.61976 2.93018-6.15003z"/><path class="st8" d="m146.91254 177.21686-2.6701 5.60418 2.16009.3299c.25372-1.87164.42651-3.84705.51-5.93408z"/><path class="st3" d="M143.00916 208.90997c-.14551-.1809-.28675-.34344-.44727-.46978-.58582-.52259-1.13873-.81592-1.68677-.87153-.54767-.07379-1.0542.14112-1.53778.62623l-1.0393 1.08288 3.63476 3.22058 1.04834-1.07843c.2135-.22064.3565-.40552.43854-.5636.13617-.31762.161-.65094.08404-1.0185-.09222-.29381-.2403-.58953-.49456-.92785zm-14.55201 6.38227c-.20422-.02698-.44207.00122-.71832.09637l-2.01337.67706h-.00006l.7403 1.9792 1.89148-.62898c.39337-.13421.66626-.29895.84271-.52844.167-.2215.17291-.54144.03552-.90967-.1455-.43237-.41131-.65191-.77826-.68554z"/><path class="st3" d="M147.35107 176.49512c-.10205 3.74414-.43017 13.16992-5.18457 21.72754-5.96923 10.74414-16.72705 16.56152-31.97412 17.29199l1.08057 10.39453c.20264.00098.40771.00195.60937.00195 14.9463 0 26.43164-4.38965 34.15088-13.05566 9.6045-10.7832 11.53858-26.61914 10.2749-36.9961l-8.95703.63575zM122.612 222.36017l-.33026-.75568c-.23883.33447-.47626.59082-.68372.73749-.34912.25934-.81738.4201-1.40039.49194-.75561.10028-1.44153-.04474-2.0575-.44885-.6745-.51044-1.10265-1.25879-1.25097-2.28967-.16266-1.0133.01617-1.87464.5033-2.54712.46338-.64954 1.1264-1.02173 2.01245-1.1297l-.00019.00915c.60187-.08978 1.12232-.05255 1.59382.11548.69366.22736 1.15405.74353 1.43267 1.52527l-.86273.1034c-.17828-.42334-.43799-.71607-.79321-.88288-.34607-.15668-.7826-.20154-1.28632-.13696-.5877.07635-1.0628.35535-1.4016.81152-.33479.4873-.44471 1.1441-.31611 1.98718.10797.69733.35754 1.29114.77814 1.6919.38788.40924.96667.5614 1.7268.46985.56916-.08124 1.02918-.29651 1.35724-.67511.34174-.3592.44971-.9109.35132-1.62586l-2.01037.26612-.08979-.67829 2.7987-.37085.48377 3.25934-.55505.07233zm8.2304-2.22052c-.04546-.05524-.1051-.10657-.1314-.18933-.05927-.06555-.13104-.20856-.21979-.44287l-.40582-.94501c-.16046-.37726-.40802-.57874-.73749-.62537-.1811-.02203-.42407.03308-.77496.13648l-1.8728.62518.93102 2.48102.00428.01788-.82886.28235-2.16254-5.81726 2.82776-.93268c.46344-.15118.8648-.2171 1.21314-.18347.65966.05756 1.12286.42249 1.36651 1.08063.12842.34973.15052.66107.0849.9383-.06091.27325-.21405.50365-.4231.73351.26484.02258.48688.09058.66187.1897.1745.12701.32416.33502.4668.67132l.31598.77417c.1034.19391.1748.35975.25177.47498.104.16235.24664.2472.3955.24988l.05341.13354-1.01617.34705zm4.162-1.87244-.00464-.00012.00323-.00195-3.4712-5.1767 3.9621-2.38397.42109.62518-3.24689 1.95746 1.06867 1.58282 2.9978-1.82067.39355.60595-2.9978 1.82117 1.17737 1.74469 3.3034-1.9939.42133.61151-4.02942 2.42646.0014.00207zm8.6494-6.48822-.00481.00952-1.77857 1.81513-4.7329-4.20923 1.77837-1.80603c.60254-.6242 1.28687-.89581 2.08582-.8216.71997.06733 1.39831.37208 2.04352.95514.51281.44812.88018.95765 1.11712 1.47895.40552.96283.2317 1.80554-.50854 2.57812zm3.81886-4.6908-.00452-.00927-5.47577-3.294.46423-.69532 5.48542 3.27594-.46936.72266zm2.23663-3.68096-.0047-.00006.00073-.0016-5.92944-2.45525 1.83966-4.09998.72052.2873-1.50055 3.37908 1.78717.72748 1.40253-3.11163.68323.29162-1.3885 3.10682 1.99915.84008 1.53851-3.41912.72059.28216-1.87287 4.17145.00397.00165zm3.85217-10.9953-5.85547 1.86584 5.08246 1.17474-.19623.792-.00457-.00006-6.2633-1.47944.22704-.95141 5.8454-1.82446-5.08203-1.19764.20001-.74615 6.26398 1.44238-.21729.9242zm1.2085-6.18653c-.09296.7431-.35034 1.32416-.81348 1.70899-.46332.39355-1.03332.5205-1.7207.4533l.0935-.7755c.36261.01604.67066-.03376.90552-.15247.46033-.2345.73401-.69092.81647-1.3711.03375-.31897.02515-.5985-.04443-.86493-.12537-.51385-.41315-.80291-.88208-.85705-.34815-.04285-.6009.03497-.78577.21954-.16681.21185-.34467.5191-.4831.956l-.3034.80377c-.19586.52636-.37476.88891-.56464 1.09124-.30487.37903-.72595.50403-1.26019.4579-.57104-.06965-1.03198-.30201-1.35425-.7375-.33227-.39917-.46136-.9638-.36468-1.65747.06756-.63385.2915-1.16473.6809-1.58752.36079-.38672.91315-.5647 1.6142-.47895l-.07959.77576c-.34417-.00616-.61975.04828-.82226.18189-.36646.19-.57422.6023-.646 1.2091-.06055.50226.00305.84125.1936 1.1012.19135.21832.43537.35937.72333.38739.30646.03284.55011-.05866.72187-.28833.12396-.15827.2746-.503.4804-1.06165l.29956-.84503c.14685-.3905.31989-.68915.51923-.90045.35547-.35022.81409-.49286 1.38544-.44104.69635.0852 1.18878.378 1.43493.90356.2414.5301.32831 1.1123.25562 1.76935z"/><path d="m156.6582 175.4336-3.30401.23425c-.3224-3.11347-1.02924-6.9137-2.46845-11.18445l-.39013-1.15772v1.0835l-9.70606 3.03564 2.98584 15.71045 2.57385.393c-3.52527 24.68153-21.34686 30.90394-36.38684 31.57575l-.2124.00977.17389 1.67218c-5.18823 2.1587-14.69568 3.69635-23.04157 3.68915-8.32598 0-18.10907-1.58307-23.30987-3.6944l.17706-1.70306-.2124-.00977c-15.03998-.67181-32.86157-6.89423-36.38684-31.57574l2.57385-.393 2.98584-15.71046-9.70654-3.03613v-1.0835l-.39014 1.15772c-1.43902 4.27087-2.14575 8.07116-2.46808 11.18475l-3.11493-.22137-.18896-.0127-.02393.1875c-1.3208 10.45703.59766 26.55176 10.3501 37.50098 5.83502 6.55041 13.79285 10.68152 23.74078 12.34686l-.03033 3.30353.10596.05664c9.51855 5.1543 31.2666 6.15039 35.72656 6.15039h.38525c4.42188 0 25.96631-.99121 35.41993-6.11426l.10693-.05762-.05475-3.29821c9.95874-1.66278 17.92499-5.79566 23.76422-12.3512 9.75244-10.94922 11.6709-27.04395 10.3501-37.50098l-.02393-.1875zm-10.625 37.42187c-7.71924 8.66601-19.20459 13.05566-34.15088 13.05566-.20166 0-.40673-.00097-.60937-.00195l-1.08057-10.39453c15.24707-.73047 26.00489-6.54785 31.97412-17.292 4.7544-8.55761 5.08252-17.9834 5.18457-21.72753l8.95704-.63574c1.26367 10.37695-.67041 26.21289-10.2749 36.99609zM17.1914 175.82324l8.95704.63574c.10205 3.74415.43017 13.16993 5.18457 21.72754 5.96924 10.74414 16.72705 16.56153 31.97412 17.292l-1.08057 10.39453c-.20361.00097-.40674.00195-.60937.00195-14.94483 0-26.43213-4.39062-34.15088-13.05566-9.6045-10.7832-11.53858-26.61914-10.2749-36.9961zm5.73682-11.0542 9.32178 2.91504-2.77893 14.6197-2.93018-6.151-.00183-.06684-5.99328-.42597c.31524-3.03705.9978-6.732 2.38244-10.89093zm3.6587 12.41077 2.67016 5.6051-2.1601.3299c-.25378-1.87195-.42663-3.8476-.51007-5.935zm34.13458 49.07886-9.43952 2.10821.0263-2.87372c2.96284.47406 6.1045.72596 9.41322.7655zm-9.05487 2.4323 10.83813-2.42052.08313-.00092.94159-9.05578c5.27399 2.10553 15.0238 3.67907 23.32892 3.68176h.20947c8.27472 0 17.67273-1.53632 22.89905-3.67548l.9447 9.08563.08313.00092 10.83832 2.4206c-9.6134 4.86285-30.40576 5.81579-34.73737 5.81579-.06787 0-.13183-.00098-.1914-.00098-3.88214.02509-25.40631-.88074-35.23767-5.85101zm61.11139-2.39617c3.30017-.03943 6.43402-.29059 9.39031-.76233l.04773 2.87018-9.43804-2.10785zm28.4715-58.57459 9.32128-2.91455c1.38464 4.15876 2.06726 7.85364 2.38263 10.89063l-5.81183.4121-.18115.01368-.00183.06787-2.93018 6.15003-2.77893-14.61976zm5.66302 9.49665c-.0835 2.08703-.25629 4.06244-.51001 5.93408l-2.1601-.3299 2.6701-5.60418z"/><path class="st3" d="M47.53442 217.84442c.29773-.10101.48853-.33868.61408-.7044.15344-.42054.08374-.76746-.17688-1.00977-.13953-.12384-.34888-.23358-.63733-.31995l-2.03754-.6358-.67456 1.9934 1.92133.60297c.3908.11884.7257.11884.9909.07355zm-13.37506-7.15882c.28845.06855.59552-.0457.90253-.32458.3396-.31036.45117-.63995.3396-1.0006-.0791-.18787-.22803-.40687-.46051-.6308l-1.20496-1.20728-1.60968 1.4491 1.19562 1.2113c.27448.27887.55359.43933.8374.50287z"/><path class="st3" d="M61.61719 225.875c.20263 0 .40576-.00098.60937-.00195l1.08057-10.39453c-15.24707-.73047-26.00488-6.54786-31.97412-17.292-4.7544-8.55761-5.08252-17.9834-5.18457-21.72754l-8.95703-.63574c-1.26368 10.37696.6704 26.2129 10.2749 36.9961 7.71875 8.66503 19.20605 13.05566 34.15088 13.05566zm-16.92493-11.64636 2.84717.86352c.46985.1737.82812.36151 1.07928.5805.50238.42054.628.97364.40009 1.63691-.1117.3653-.29767.6258-.51642.81323-.2326.16913-.50708.26508-.82342.32044.20928.1687.33483.34692.40942.54394.08856.18695.05133.44751-.04645.79492l-.24194.79541c-.06507.2107-.09809.39313-.12097.50788-.00464.18738.0559.33777.16284.42004l-.06055.14173-1.00018-.31995c-.01435-.05438-.01435-.13666-.01435-.21484.02778-.07312.06049-.2331.12555-.4754l.28382-.99146c.11633-.37989.04645-.68616-.18604-.89185-.12097-.12298-.3675-.24182-.70709-.3291l-1.89813-.60797-.84668 2.49127-.00434-.00006-.8327-.2514 1.9911-5.82776zm-6.04352-3.2688 4.01013 2.39532-.41864.62213-3.29376-1.93817-1.0188 1.5816 3.02857 1.80512-.39081.5993-3.0332-1.79644-1.15375 1.76855 3.33563 1.97065-.40008.61706-4.0567-2.40027h-.00007l3.39148-5.22485zm-2.9588-2.51825c.3863.39313.59442.81323.60016 1.26166 0 .46124-.20007.89093-.61877 1.25659-.37214.34741-.79548.5257-1.28864.55359-.48383.00866-.9444-.19702-1.39563-.64954l-1.40033-1.39422-1.97253 1.7782h-.00922l-.6048-.59882 4.68006-4.22376 2.0097 2.0163zm-16.19897-18.669c-.13965-.77705-.0373-1.38044.27923-1.86457.32099-.49823.82807-.7862 1.5166-.8822l.00007-.00916.14416.76752c-.34888.06854-.62805.20612-.8327.3844-.36756.33783-.49317.8457-.36756 1.53595.05591.29205.16285.58002.2978.80908.27923.46625.64196.6532 1.10253.58008.33966-.05939.56293-.18701.66993-.42468.10235-.23359.17688-.59015.20013-1.04682l.04187-.86438c.02863-.53485.08826-.9549.20923-1.18847.19067-.4206.549-.6811 1.08398-.76752.5722-.10101 1.07465.02704 1.50727.34692.43731.29718.72576.81366.83276 1.4994.135.6267.07452 1.1889-.17688 1.69585-.24194.49414-.70715.79541-1.41895.9234l-.13958-.77667c.33026-.11883.57684-.23358.73968-.39306.27924-.30677.36286-.7497.25574-1.35767-.08374-.49414-.25574-.81409-.51642-.97363-.25574-.18787-.51172-.26105-.79083-.21485-.3117.04572-.51642.21485-.61414.48914-.06048.18237-.10693.56177-.1488 1.14276l-.04187.89545c-.02295.42059-.08826.76843-.23248 1.00616-.2279.43836-.61408.708-1.177.79486-.7118.11884-1.26075-.04114-1.6515-.48907-.40008-.43884-.64672-.96454-.77227-1.61823zm2.85656 9.68212-1.45611-4.33337v-.00006.00006l6.15014-1.81934 1.43293 4.25525-.74903.23316-1.17236-3.49695-1.87018.55359 1.08399 3.23132-.7165.224-1.07458-3.24048-2.08417.61206 1.19092 3.57465-.73505.20611zm4.26606 8.1778-.40009-.68152 3.33093-1.7229c.12098-.06897.30707-.16956.57685-.31085.2652-.11884.56292-.27924.86065-.43012l-5.65704.94623-.41406-.72223 3.86133-4.02716-.1861.09186c-.12097.06811-.33026.16913-.61408.32867-.27923.16956-.48846.2743-.6234.3291l-3.3216 1.75074-.40552-.68769-.00385.00202-.00006-.00867.00391.00665 5.65314-2.94592.6048 1.03723-3.88923 4.0409 5.6803-.95539.58618 1.029-5.64306 2.93005z"/><path class="st0" d="m80.25085 224.5351-2.89831-.17829-.40009 6.12488.86066.05536.00464.0091.17212-2.60145 2.02832.13764c.65594.05029 1.14447-.11884 1.47473-.44849.3443-.31995.52106-.74005.54431-1.21545.04193-.55353-.1023-1.0061-.43725-1.33979-.32099-.32-.77692-.48913-1.34913-.54351zm.4931 2.65075c-.24657.15546-.58154.19708-.96764.17829l-1.73993-.08686.14886-2.13427 1.72601.091c.3396.02283.60938.08734.77686.18744.34894.17822.50244.50781.46991.96448-.02325.39312-.16284.6496-.4187.79998l.00464-.00006zm6.88745 1.98389.05122 1.0285c.01404.24689.01861.3982.03253.4983.02783.07311.04193.15081.0791.20617h1.07l-.0186-.13306c-.12098-.06396-.2187-.18695-.26057-.37481-.03717-.11884-.05584-.29712-.06512-.52112l-.01862-.81824c-.01404-.37024-.0791-.6258-.22326-.76794-.12561-.16455-.2978-.30628-.56293-.39313.29773-.15497.52106-.33325.68384-.5531.15356-.24225.2326-.54852.2326-.92291 0-.70398-.29309-1.1844-.88855-1.44446-.32098-.14173-.73034-.21533-1.21423-.224l-2.99133-.0279-.0232 6.14362h.86066l-.00006-.0183.01861-2.6147 1.9911.0279c.35357 0 .61413.02704.79552.11383.2931.13257.43732.41186.4513.79535zm-3.2426-1.64105.01861-2.10724h.00464l2.1214.02276c.307.02735.54895.06403.7257.1463.32563.15088.4792.45258.4792.89136 0 .41187-.12098.68616-.35822.85071-.22797.1504-.5583.21893-.95368.21893l-2.03766-.02282zm6.42138 2.57861c.60474.57141 1.4049.85895 2.39118.80408 1.05603-.04572 1.85156-.43885 2.39123-1.16065.43726-.65362.6466-1.4129.6001-2.34997-.06043-.83655-.307-1.51764-.76758-2.02503-.58154-.68109-1.43286-.98236-2.5866-.93664-1.08863.06811-1.8888.46124-2.40516 1.25659h.00464c-.40009.60797-.56293 1.31195-.52106 2.1626.06049.9184.34894 1.6776.89325 2.24902zm.53967-4.18762c.40009-.4754.91645-.7035 1.591-.74005.67927-.03662 1.2375.17822 1.6515.59832.42334.41187.66528.98328.70715 1.69635.02325.68525-.09772 1.29322-.4187 1.828-.31635.54444-.84204.85071-1.61896.86854-.80945.04162-1.41424-.14582-1.80041-.60797h.00006c-.38147-.45667-.58618-1.02802-.6327-1.7046-.04186-.85064.12562-1.49932.52106-1.9386zm-69.43512-34.0398c.56293-.08685.9491-.3565 1.177-.79486.14423-.23773.20954-.58557.23249-1.00616l.04187-.89545c.04187-.581.08832-.96039.1488-1.14276.09772-.2743.30243-.44342.61414-.48914.27911-.0462.5351.02698.79083.21485.26068.15954.43268.47949.51642.97363.10712.60797.0235 1.0509-.25574 1.35767-.16284.15948-.40942.27423-.73968.39306l.13958.77668c.7118-.128 1.177-.42927 1.41895-.9234.2514-.50696.31189-1.06916.17688-1.69587-.107-.68573-.39545-1.2022-.83276-1.49939-.43262-.31988-.93506-.44793-1.50727-.34692-.53497.08642-.8933.34692-1.08398.76752-.12097.23358-.1806.65362-.20923 1.18847l-.04187.86438c-.02325.45667-.09778.81323-.20013 1.04682-.107.23767-.33027.3653-.66993.42468-.46057.07312-.8233-.11383-1.10254-.58008-.13494-.22906-.24188-.51703-.29779-.80908-.1256-.69025 0-1.19812.36756-1.53595.20465-.17828.48382-.31586.8327-.3844l-.14416-.76752-.00007.00916c-.68853.096-1.19561.38397-1.5166.8822-.31653.48413-.41888 1.08752-.27923 1.86456.12555.65369.37219 1.17939.77227 1.61823.39075.44794.9397.6079 1.6515.48907zm2.0611 3.18201 1.07459 3.24048.71649-.224-1.08399-3.23132 1.87018-.55359 1.17236 3.49695.74903-.23316-1.43293-4.25525-6.15014 1.81934 1.45611 4.33337.73505-.20611-1.19092-3.57465zm-3.08441.05945v-.00006zm10.77905 8.55212-5.6803.95539 3.88922-4.0409-.6048-1.03723-5.65313 2.94592.40552.68769 3.3216-1.75074c.13494-.0548.34417-.15954.6234-.3291.28382-.15954.4931-.26056.61408-.32867l.1861-.09186-3.86133 4.02716.41406.72223 5.65704-.94623c-.29773.15088-.59546.31128-.86065.43012-.26978.1413-.45587.24188-.57685.31085l-3.33093 1.7229.40009.68152 5.64306-2.93006-.58618-1.02899zm-8.05286-1.1748.00385-.00202-.00391-.00665zm5.98737 8.7492h.00922l1.97253-1.7782 1.40033 1.39423c.45123.45252.9118.6582 1.39563.64954.49316-.0279.9165-.20618 1.28864-.5536.4187-.36565.61877-.79534.61877-1.25658-.00574-.44843-.21387-.86853-.60016-1.26166l-2.0097-2.0163-4.68006 4.22376.6048.59881zm4.13104-3.72552 1.20496 1.20727c.23248.22394.3814.44294.4605.6308.11158.36066 0 .69025-.33959 1.00061-.307.27887-.61407.39313-.90253.32459-.28381-.06354-.56292-.224-.8374-.50287l-1.19562-1.2113 1.60968-1.4491zm1.5213 8.66235 4.05671 2.40027.40008-.61706-3.33563-1.97065 1.15375-1.76855 3.0332 1.79645.39081-.59931-3.02857-1.80511 1.0188-1.58161 3.29376 1.93817.41864-.62213-4.01013-2.39532-3.39148 5.22485zm8.28088 4.12317.84669-2.49127 1.89813.60797c.3396.08728.58612.20612.7071.3291.23248.2057.30236.51197.18603.89185l-.28382.99145c-.06506.24231-.09777.40229-.12555.4754 0 .0782 0 .16047.01435.21485l1.00018.31995.06055-.14173c-.10694-.08227-.16748-.23266-.16284-.42004.02288-.11475.0559-.29718.12097-.50788l.24194-.7954c.09778-.34742.13501-.60798.04645-.79493-.07459-.19702-.20014-.37524-.40942-.54394.31634-.05536.59082-.1513.82342-.32044.21875-.18744.40472-.44793.51642-.81323.2279-.66327.1023-1.21637-.40009-1.6369-.25116-.219-.60943-.4068-1.07928-.5805l-2.84717-.86353-1.99109 5.82776.8327.2514.00434.00006zm1.75855-5.13336 2.03754.6358c.28845.08637.4978.1961.63733.31995.26062.2423.33032.58923.17688 1.00976-.12555.36573-.31635.6034-.61408.70441-.2652.04529-.6001.04529-.9909-.07355l-1.92133-.60296.67456-1.99341zm74.58783 4.22485.08979.67829 2.01037-.26612c.09839.71497-.00958 1.26667-.35132 1.62586-.32806.3786-.78808.59387-1.35724.6751-.76013.09156-1.33892-.0606-1.7268-.46984-.4206-.40076-.67017-.99457-.77814-1.6919-.1286-.84307-.01868-1.49987.3161-1.98718.3388-.45617.8139-.73517 1.40161-.81152.50373-.06458.94025-.01972 1.28632.13696.35522.16681.61493.45954.79321.88288l.86273-.1034c-.27862-.78174-.73901-1.29791-1.43267-1.52527-.4715-.16803-.99195-.20526-1.59382-.11548l.00019-.00915c-.88605.10797-1.54908.48016-2.01245 1.1297-.48713.67248-.66596 1.53381-.5033 2.54712.14832 1.03088.57648 1.77923 1.25098 2.28967.61596.40411 1.30188.54913 2.0575.44885.583-.07184 1.05126-.2326 1.40038-.49194.20746-.14667.44489-.40302.68372-.73749l.33026.75568.55505-.07233-.48376-3.25934-2.7987.37085zm11.52509.00983c-.07697-.11523-.14838-.28107-.25177-.47498l-.31598-.77417c-.14264-.3363-.2923-.5443-.4668-.67132-.17499-.09912-.39703-.16712-.66186-.1897.20904-.22986.36218-.46026.4231-.73352.0656-.27722.04351-.58856-.0849-.9383-.24366-.65813-.70686-1.02306-1.36652-1.08062-.34833-.03363-.7497.03229-1.21314.18347l-2.82776.93268 2.16254 5.81726.82886-.28235-.00428-.01788-.93103-2.48102 1.8728-.62518c.3509-.1034.59388-.15851.77497-.13648.32947.04663.57703.24811.73749.62537l.40582.945c.08875.23432.16052.37733.21979.44288.0263.08276.08594.1341.1314.18933l1.01618-.34705-.0534-.13354c-.14887-.00269-.2915-.08753-.39551-.24988zm-2.20978-2.52173c-.17645.2295-.44934.39423-.84271.52844l-1.89148.62897-.7403-1.97919h.00006l2.01337-.67706c.27625-.09515.5141-.12335.71832-.09637.36695.03363.63275.25317.77826.68554.1374.36823.13147.68817-.03552.90967zm9.41119-1.66028-3.3034 1.9939-1.17737-1.74469 2.9978-1.82117-.39355-.60595-2.9978 1.82067-1.06867-1.58282 3.24689-1.95746-.42108-.62518-3.9621 2.38397 3.47119 5.1767 4.02942-2.42646zm-3.60669 3.04004-.0014-.00207-.00323.00195zm8.04084-10.54529c-.6452-.58306-1.32355-.88781-2.04352-.95514-.79895-.07421-1.48328.1974-2.08582.8216l-1.77838 1.80603 4.73291 4.20923 1.77857-1.81513.00482-.00952c.74023-.77258.91406-1.6153.50854-2.57812-.23694-.5213-.6043-1.03083-1.11712-1.47895zm.37445 3.1344c-.08203.15808-.22504.34296-.43854.5636l-1.04834 1.07843-3.63477-3.22058 1.03931-1.08288c.48358-.48511.99011-.70002 1.53778-.62623.54804.0556 1.10095.34894 1.68677.87153.16052.12634.30176.28887.44727.46978.25427.33832.40234.63404.49456.92786.07697.36755.05213.70087-.08404 1.0185zm-1.42731-7.07141 5.47577 3.29401.00452.00928.46936-.72266-5.48542-3.27594zm7.71692-.37768-.00397-.00165-.00073.00159zm1.14832-4.45526-1.53852 3.41912-1.99914-.84008 1.38849-3.10682-.68323-.29162-1.40253 3.11163-1.78717-.72748 1.50055-3.37909-.72052-.28729-1.83966 4.09998 5.92944 2.45526 1.87287-4.17145zm-3.54285-8.16047 5.08203 1.19764-5.8454 1.82446-.22705.95141 6.26331 1.47944.00457.00006.19623-.792-5.08246-1.17474 5.85547-1.86584.21729-.9242-6.26398-1.44238zm5.76464-7.23901c-.57134-.05182-1.02996.09082-1.38543.44104-.19934.2113-.37238.50995-.51923.90045l-.29956.84503c-.2058.55866-.35644.90338-.4804 1.06165-.17176.22967-.41541.32117-.72187.28833-.28796-.02802-.53198-.16907-.72333-.3874-.19055-.25994-.25415-.59893-.1936-1.10119.07178-.6068.27954-1.0191.646-1.2091.20251-.13361.47809-.18805.82226-.18189l.0796-.77576c-.70106-.08575-1.25343.09223-1.6142.47895-.3894.42279-.61335.95367-.68091 1.58752-.09668.69367.0324 1.2583.36468 1.65747.32227.43549.7832.66785 1.35425.7375.53424.04613.95532-.07887 1.2602-.4579.18987-.20233.36877-.56488.56463-1.09124l.3034-.80377c.13843-.4369.31629-.74415.4831-.956.18487-.18457.43762-.26239.78577-.21954.46893.05414.75671.3432.88208.85705.06958.26642.07818.54596.04443.86493-.08246.68018-.35614 1.1366-.81647 1.3711-.23486.11871-.5429.16851-.90552.15246l-.0935.77552c.68738.0672 1.25738-.05976 1.7207-.45331.46314-.38483.72052-.96588.81348-1.70899.0727-.65704-.01422-1.23926-.25562-1.76935-.24615-.52557-.73858-.81835-1.43493-.90356z"/></svg>
