<?xml version="1.0" encoding="UTF-8" standalone="no"?>
<svg
   xmlns:dc="http://purl.org/dc/elements/1.1/"
   xmlns:cc="http://creativecommons.org/ns#"
   xmlns:rdf="http://www.w3.org/1999/02/22-rdf-syntax-ns#"
   xmlns:svg="http://www.w3.org/2000/svg"
   xmlns="http://www.w3.org/2000/svg"
   xmlns:sodipodi="http://sodipodi.sourceforge.net/DTD/sodipodi-0.dtd"
   xmlns:inkscape="http://www.inkscape.org/namespaces/inkscape"
   version="1.1"
   id="Layer_1"
   x="0px"
   y="0px"
   viewBox="0 0 512 335.45001"
   xml:space="preserve"
   sodipodi:docname="mg.svg"
   width="512"
   height="335.45001"
   inkscape:version="1.0.1 (c497b03c, 2020-09-10)"><metadata
   id="metadata51"><rdf:RDF><cc:Work
       rdf:about=""><dc:format>image/svg+xml</dc:format><dc:type
         rdf:resource="http://purl.org/dc/dcmitype/StillImage" /><dc:title></dc:title></cc:Work></rdf:RDF></metadata><defs
   id="defs49" /><sodipodi:namedview
   pagecolor="#ffffff"
   bordercolor="#666666"
   borderopacity="1"
   objecttolerance="10"
   gridtolerance="10"
   guidetolerance="10"
   inkscape:pageopacity="0"
   inkscape:pageshadow="2"
   inkscape:window-width="1037"
   inkscape:window-height="480"
   id="namedview47"
   showgrid="false"
   inkscape:zoom="1.640625"
   inkscape:cx="256"
   inkscape:cy="256"
   inkscape:window-x="0"
   inkscape:window-y="23"
   inkscape:window-maximized="0"
   inkscape:current-layer="Layer_1" />
<path
   style="fill:#ff4b55;stroke-width:1"
   d="M 473.655,0 H 167.724 V 167.724 H 512 V 38.345 C 512,17.167 494.833,0 473.655,0 Z"
   id="path10" />
<path
   style="fill:#73af00;stroke-width:1"
   d="M 167.724,335.449 H 473.657 C 494.834,335.447 512,318.28 512,297.103 V 167.724 H 167.724 Z"
   id="path12" />
<path
   style="fill:#f5f5f5;stroke-width:1"
   d="M 167.724,0 H 38.345 C 17.167,0 0,17.167 0,38.345 v 258.76 c 0,21.176 17.166,38.344 38.343,38.345 H 167.725 V 167.724 0 Z"
   id="path14" />
<g
   id="g16"
   transform="translate(0,-88.275)">
</g>
<g
   id="g18"
   transform="translate(0,-88.275)">
</g>
<g
   id="g20"
   transform="translate(0,-88.275)">
</g>
<g
   id="g22"
   transform="translate(0,-88.275)">
</g>
<g
   id="g24"
   transform="translate(0,-88.275)">
</g>
<g
   id="g26"
   transform="translate(0,-88.275)">
</g>
<g
   id="g28"
   transform="translate(0,-88.275)">
</g>
<g
   id="g30"
   transform="translate(0,-88.275)">
</g>
<g
   id="g32"
   transform="translate(0,-88.275)">
</g>
<g
   id="g34"
   transform="translate(0,-88.275)">
</g>
<g
   id="g36"
   transform="translate(0,-88.275)">
</g>
<g
   id="g38"
   transform="translate(0,-88.275)">
</g>
<g
   id="g40"
   transform="translate(0,-88.275)">
</g>
<g
   id="g42"
   transform="translate(0,-88.275)">
</g>
<g
   id="g44"
   transform="translate(0,-88.275)">
</g>
</svg>
