<svg xmlns="http://www.w3.org/2000/svg" xml:space="preserve" width="512" height="335.45001"><path style="fill:#ff4b55" d="M473.655.001H38.345C17.167.001 0 17.168 0 38.346v258.759c0 21.177 17.167 38.345 38.345 38.345h435.31c21.177 0 38.345-17.167 38.345-38.345V38.346C512 17.168 494.833.001 473.655.001z"/><g transform="translate(0 -88.275)"><path style="fill:#ffe15a" d="M219.121 231.838c1.886-2.873 4.121-5.469 6.607-7.822-.006.004-.011.009-.017.013L97.103 88.276H38.345c-9.386 0-17.98 3.378-24.644 8.977zm-6.803 28.684c-.156-1.508-.456-2.973-.456-4.522 0-1.549.3-3.014.456-4.522v.002L0 229.517v52.966l212.318-21.964zm36.821-47.969h.001zm6.861-.691c2.35 0 4.61.338 6.86.691l19.623-124.277h-52.966l19.623 124.277c2.25-.353 4.51-.691 6.86-.691zm6.86.691h.001-.001zm23.412 11.462c2.486 2.354 4.722 4.949 6.607 7.822L498.3 97.252c-6.665-5.599-15.258-8.977-24.644-8.977h-58.759L286.289 224.029c-.006-.005-.013-.008-.017-.014zm6.607 56.147c-1.886 2.873-4.121 5.469-6.607 7.822.005-.004.011-.009.017-.013l128.608 135.753h58.759c9.386 0 17.98-3.378 24.644-8.977zm6.803-28.684c.156 1.507.456 2.973.456 4.522 0 1.549-.3 3.014-.456 4.522v-.002L512 282.483v-52.966l-212.318 21.964zM256 300.138c-2.35 0-4.61-.338-6.86-.691l-19.623 124.277h52.966L262.86 299.447c-2.25.353-4.51.691-6.86.691zm6.861-.691h-.001zm-13.721 0h-.001.001zm-23.412-11.462c-2.486-2.354-4.722-4.949-6.607-7.822L13.7 414.748c6.665 5.599 15.258 8.977 24.644 8.977h58.759l128.608-135.753c.006.004.013.007.017.013z"/><circle style="fill:#ffe15a" cx="256" cy="256" r="35.31"/></g></svg>