<svg xmlns="http://www.w3.org/2000/svg" xml:space="preserve" width="512" height="335.45001"><path style="fill:#ff4b55;stroke-width:.999999" d="M0 297.10299c0 21.177 17.167 38.34501 38.345 38.34501h435.31c21.177 0 38.345-17.16701 38.345-38.34501v-73.471H0z"/><path style="fill:#ffe15a;stroke-width:.999999" d="M473.655 0H38.345C17.167 0 0 17.167 0 38.345v73.471h512V38.345C512 17.167 494.833 0 473.655 0z"/><path style="fill:#73af00;stroke-width:.999999" d="M0 111.814h512v111.81H0z"/><path style="fill:#f5f5f5;stroke-width:.999999" d="m261.032 56.683 26.435 79.263 83.552.648c5.097.04 7.21 6.545 3.11 9.571l-67.214 49.63499 25.203 79.663c1.537 4.86-3.996 8.879-8.142 5.916L256 232.79199l-67.976 48.587c-4.147 2.964-9.679-1.056-8.142-5.916l25.203-79.663-67.214-49.63499c-4.1-3.028-1.986-9.533 3.11-9.571l83.552-.648 26.435-79.263c1.612-4.835 8.452-4.835 10.064 0z"/></svg>