<?xml version="1.0" encoding="UTF-8" standalone="no"?>
<svg
   xmlns:dc="http://purl.org/dc/elements/1.1/"
   xmlns:cc="http://creativecommons.org/ns#"
   xmlns:rdf="http://www.w3.org/1999/02/22-rdf-syntax-ns#"
   xmlns:svg="http://www.w3.org/2000/svg"
   xmlns="http://www.w3.org/2000/svg"
   xmlns:sodipodi="http://sodipodi.sourceforge.net/DTD/sodipodi-0.dtd"
   xmlns:inkscape="http://www.inkscape.org/namespaces/inkscape"
   version="1.1"
   id="Layer_1"
   x="0px"
   y="0px"
   viewBox="0 0 512 335.45001"
   xml:space="preserve"
   sodipodi:docname="mn.svg"
   width="512"
   height="335.45001"
   inkscape:version="1.0.1 (c497b03c, 2020-09-10)"><metadata
   id="metadata75"><rdf:RDF><cc:Work
       rdf:about=""><dc:format>image/svg+xml</dc:format><dc:type
         rdf:resource="http://purl.org/dc/dcmitype/StillImage" /><dc:title></dc:title></cc:Work></rdf:RDF></metadata><defs
   id="defs73" /><sodipodi:namedview
   pagecolor="#ffffff"
   bordercolor="#666666"
   borderopacity="1"
   objecttolerance="10"
   gridtolerance="10"
   guidetolerance="10"
   inkscape:pageopacity="0"
   inkscape:pageshadow="2"
   inkscape:window-width="954"
   inkscape:window-height="480"
   id="namedview71"
   showgrid="false"
   inkscape:zoom="1.640625"
   inkscape:cx="256"
   inkscape:cy="256"
   inkscape:window-x="0"
   inkscape:window-y="23"
   inkscape:window-maximized="0"
   inkscape:current-layer="Layer_1" />
<path
   style="fill:#ff4b55;stroke-width:1"
   d="M 473.655,0 H 341.333 V 335.44799 H 473.655 C 494.832,335.44799 512,318.281 512,297.103 V 38.345 C 512,17.167 494.833,0 473.655,0 Z"
   id="path10" />
<rect
   x="170.67"
   y="0.0040004272"
   style="fill:#41479b;stroke-width:1"
   width="170.67"
   height="335.45001"
   id="rect12" />
<path
   style="fill:#ff4b55;stroke-width:1"
   d="M 38.345,0 C 17.167,0 0,17.167 0,38.345 v 258.759 c 0,21.177 17.167,38.34499 38.345,38.34499 H 170.667 V 0 Z"
   id="path14" />
<g
   id="g38"
   transform="translate(0,-88.273)">
	<path
   style="fill:#f9cf02"
   d="m 85.689,227.025 c -13.341,0 -24.776,-8.038 -29.814,-19.519 -0.003,0.175 -0.052,0.338 -0.052,0.513 0,16.494 13.372,29.866 29.866,29.866 16.494,0 29.865,-13.372 29.865,-29.866 0,-0.175 -0.049,-0.338 -0.052,-0.512 -5.038,11.48 -16.473,19.518 -29.813,19.518 z"
   id="path16" />
	<circle
   style="fill:#f9cf02"
   cx="85.690002"
   cy="199.877"
   r="21.719999"
   id="circle18" />
	<path
   style="fill:#f9cf02"
   d="m 72.114,159.15 c 0,7.497 6.078,13.575 13.575,13.575 7.497,0 13.575,-6.078 13.575,-13.575 0,-5.43 -3.394,-6.109 -3.394,-8.145 0,-2.036 2.036,-4.751 -2.036,-8.145 2.036,3.394 -1.357,4.073 -1.357,7.466 0,3.393 1.357,3.394 1.357,6.109 0,1.5 -1.216,2.714 -2.714,2.714 -1.5,0 -2.714,-1.216 -2.714,-2.714 0,-2.714 2.714,-5.43 2.714,-9.503 0,-4.073 -0.679,-5.43 -2.714,-8.824 -2.036,-3.394 -5.43,-6.109 -2.714,-8.824 -4.073,1.357 -2.036,6.787 -2.036,10.182 0,3.394 -2.714,5.43 -2.714,9.503 0,4.073 2.036,4.751 2.036,7.466 0,1.5 -1.216,2.714 -2.714,2.714 -1.498,0 -2.714,-1.216 -2.714,-2.714 0,-2.714 1.357,-2.714 1.357,-6.109 0,-3.395 -3.394,-4.073 -1.357,-7.466 -4.073,3.394 -2.036,6.109 -2.036,8.145 -0.006,2.036 -3.4,2.714 -3.4,8.145 z"
   id="path20" />
	<path
   style="fill:#f9cf02"
   d="m 25.959,245.557 v 125.838 c 0,1.238 1.004,2.241 2.241,2.241 h 22.667 c 1.238,0 2.241,-1.004 2.241,-2.241 V 245.557 c 0,-1.238 -1.004,-2.241 -2.241,-2.241 H 28.2 c -1.237,-0.001 -2.241,1.003 -2.241,2.241 z"
   id="path22" />
	<path
   style="fill:#f9cf02"
   d="m 118.27,245.557 v 125.838 c 0,1.238 1.004,2.241 2.241,2.241 h 22.667 c 1.238,0 2.241,-1.004 2.241,-2.241 V 245.557 c 0,-1.238 -1.004,-2.241 -2.241,-2.241 h -22.667 c -1.238,-0.001 -2.241,1.003 -2.241,2.241 z"
   id="path24" />
	<path
   style="fill:#f9cf02"
   d="m 58.539,267.276 v 6.377 c 0,1.238 1.004,2.241 2.241,2.241 h 49.817 c 1.238,0 2.241,-1.004 2.241,-2.241 v -6.377 c 0,-1.238 -1.004,-2.241 -2.241,-2.241 H 60.78 c -1.238,0 -2.241,1.004 -2.241,2.241 z"
   id="path26" />
	<path
   style="fill:#f9cf02"
   d="m 58.539,343.297 v 6.377 c 0,1.238 1.004,2.241 2.241,2.241 h 49.817 c 1.238,0 2.241,-1.004 2.241,-2.241 v -6.377 c 0,-1.238 -1.004,-2.241 -2.241,-2.241 H 60.78 c -1.238,0 -2.241,1.003 -2.241,2.241 z"
   id="path28" />
	<path
   style="fill:#f9cf02"
   d="m 62.585,243.315 h 46.208 c 1.137,0 1.551,1.497 0.577,2.082 l -21.95,13.171 c -1.065,0.639 -2.396,0.639 -3.459,0 L 62.009,245.397 c -0.975,-0.585 -0.56,-2.082 0.576,-2.082 z"
   id="path30" />
	<path
   style="fill:#f9cf02"
   d="m 62.585,357.347 h 46.208 c 1.137,0 1.551,1.497 0.577,2.082 l -21.952,13.17 c -1.065,0.639 -2.396,0.639 -3.459,0 L 62.008,359.428 c -0.974,-0.585 -0.559,-2.081 0.577,-2.081 z"
   id="path32" />
	<path
   style="fill:#f9cf02"
   d="m 88.341,281.537 c -0.856,-0.082 -1.685,-0.259 -2.562,-0.259 -14.931,0 -27.078,12.147 -27.078,27.078 0,8.862 4.329,16.662 10.943,21.583 0.761,0.566 1.767,-0.252 1.397,-1.127 -0.793,-1.879 -1.239,-3.938 -1.239,-6.106 0,-8.825 7.193,-16.002 16.026,-15.975 4.643,0.014 9.094,-2.279 11.149,-6.443 4.251,-8.611 -0.936,-17.17 -8.636,-18.751 z m -2.562,17.883 c -2.99,0 -5.416,-2.424 -5.416,-5.416 0,-2.99 2.425,-5.415 5.416,-5.415 2.99,0 5.415,2.424 5.415,5.415 -0.001,2.992 -2.425,5.416 -5.415,5.416 z"
   id="path34" />
	<path
   style="fill:#f9cf02"
   d="m 101.912,286.772 c -0.761,-0.566 -1.767,0.253 -1.397,1.127 0.794,1.879 1.239,3.938 1.239,6.105 0,8.826 -7.194,16.003 -16.026,15.976 -4.643,-0.014 -9.095,2.279 -11.149,6.443 -4.249,8.612 0.938,17.172 8.638,18.751 0.856,0.082 1.685,0.259 2.562,0.259 14.93,0 27.078,-12.147 27.078,-27.078 -0.002,-8.861 -4.331,-16.661 -10.945,-21.583 z m -16.133,41.35 c -2.99,0 -5.416,-2.424 -5.416,-5.416 0,-2.99 2.425,-5.415 5.416,-5.415 2.99,0 5.415,2.424 5.415,5.415 -0.001,2.991 -2.425,5.416 -5.415,5.416 z"
   id="path36" />
</g>
<g
   id="g40"
   transform="translate(0,-88.273)">
</g>
<g
   id="g42"
   transform="translate(0,-88.273)">
</g>
<g
   id="g44"
   transform="translate(0,-88.273)">
</g>
<g
   id="g46"
   transform="translate(0,-88.273)">
</g>
<g
   id="g48"
   transform="translate(0,-88.273)">
</g>
<g
   id="g50"
   transform="translate(0,-88.273)">
</g>
<g
   id="g52"
   transform="translate(0,-88.273)">
</g>
<g
   id="g54"
   transform="translate(0,-88.273)">
</g>
<g
   id="g56"
   transform="translate(0,-88.273)">
</g>
<g
   id="g58"
   transform="translate(0,-88.273)">
</g>
<g
   id="g60"
   transform="translate(0,-88.273)">
</g>
<g
   id="g62"
   transform="translate(0,-88.273)">
</g>
<g
   id="g64"
   transform="translate(0,-88.273)">
</g>
<g
   id="g66"
   transform="translate(0,-88.273)">
</g>
<g
   id="g68"
   transform="translate(0,-88.273)">
</g>
</svg>
