<?xml version="1.0" encoding="UTF-8" standalone="no"?>
<svg
   xmlns:dc="http://purl.org/dc/elements/1.1/"
   xmlns:cc="http://creativecommons.org/ns#"
   xmlns:rdf="http://www.w3.org/1999/02/22-rdf-syntax-ns#"
   xmlns:svg="http://www.w3.org/2000/svg"
   xmlns="http://www.w3.org/2000/svg"
   xmlns:sodipodi="http://sodipodi.sourceforge.net/DTD/sodipodi-0.dtd"
   xmlns:inkscape="http://www.inkscape.org/namespaces/inkscape"
   version="1.1"
   id="Layer_1"
   x="0px"
   y="0px"
   viewBox="0 0 512 335.45001"
   xml:space="preserve"
   sodipodi:docname="mo.svg"
   width="512"
   height="335.45001"
   inkscape:version="1.0.1 (c497b03c, 2020-09-10)"><metadata
   id="metadata73"><rdf:RDF><cc:Work
       rdf:about=""><dc:format>image/svg+xml</dc:format><dc:type
         rdf:resource="http://purl.org/dc/dcmitype/StillImage" /><dc:title></dc:title></cc:Work></rdf:RDF></metadata><defs
   id="defs71" /><sodipodi:namedview
   pagecolor="#ffffff"
   bordercolor="#666666"
   borderopacity="1"
   objecttolerance="10"
   gridtolerance="10"
   guidetolerance="10"
   inkscape:pageopacity="0"
   inkscape:pageshadow="2"
   inkscape:window-width="956"
   inkscape:window-height="480"
   id="namedview69"
   showgrid="false"
   inkscape:zoom="1.640625"
   inkscape:cx="256"
   inkscape:cy="256"
   inkscape:window-x="0"
   inkscape:window-y="23"
   inkscape:window-maximized="0"
   inkscape:current-layer="Layer_1" />
<path
   style="fill:#5aa587;stroke-width:0.999999"
   d="M 473.655,335.448 H 38.345 C 17.167,335.448 0,318.28099 0,297.10299 V 38.345 C 0,17.168 17.167,0 38.345,0 h 435.31 C 494.832,0 512,17.167 512,38.345 v 258.75899 c 0,21.177 -17.167,38.34401 -38.345,38.34401 z"
   id="path10" />
<g
   id="g24"
   transform="translate(0,-88.276)">
	<path
   style="fill:#f5f5f5"
   d="m 277.124,301.607 c 9.897,2.366 20.461,2.55 31.026,-0.073 18.612,-4.621 33.334,-16.756 41.889,-32.337 -14.85,-9.77 -33.538,-13.609 -52.15,-8.988 -10.006,2.485 -18.784,7.249 -26.183,13.45 0.07,-0.093 0.128,-0.184 0.198,-0.277 27.407,-24.715 58.004,-16.736 58.004,-16.736 l 7.239,-6.185 c 0,0 -30.862,-10.663 -58.506,12.204 17.109,-33.124 -1.353,-61.538 -1.353,-61.538 l -4.258,8.515 c 0,0 15.353,28.154 -2.609,61.003 -0.021,0.024 -0.042,0.05 -0.063,0.074 4.377,-8.792 6.93,-18.648 6.93,-29.143 0,-19.177 -8.229,-36.39 -21.29,-48.448 -13.06,12.058 -21.29,29.271 -21.29,48.448 0,10.496 2.552,20.351 6.93,29.143 -0.021,-0.024 -0.042,-0.051 -0.063,-0.074 -17.962,-32.849 -2.609,-61.003 -2.609,-61.003 l -4.258,-8.515 c 0,0 -18.461,28.414 -1.353,61.538 -27.644,-22.866 -58.506,-12.204 -58.506,-12.204 l 7.239,6.185 c 0,0 30.596,-7.98 58.004,16.736 0.07,0.093 0.128,0.184 0.198,0.277 -7.398,-6.201 -16.177,-10.965 -26.183,-13.45 -18.612,-4.621 -37.3,-0.782 -52.15,8.988 8.555,15.581 23.277,27.715 41.89,32.337 10.564,2.623 21.129,2.439 31.026,0.073 -36.875,10.309 -60.993,-11.901 -60.993,-11.901 l -9.291,2.08 c 0,0 37.269,39.964 91.409,0.76 54.14,39.203 91.409,-0.76 91.409,-0.76 l -9.291,-2.08 c 0.002,0 -24.117,22.211 -60.992,11.901 z"
   id="path12" />
	<path
   style="fill:#f5f5f5"
   d="m 202.194,347.609 c 3.848,2.389 7.871,4.518 12.036,6.387 h 83.539 c 4.167,-1.869 8.189,-3.998 12.036,-6.387 z"
   id="path14" />
	<path
   style="fill:#f5f5f5"
   d="m 221.715,357.015 c 10.719,3.818 22.255,5.912 34.285,5.912 12.03,0 23.566,-2.095 34.285,-5.912 z"
   id="path16" />
	<path
   style="fill:#f5f5f5"
   d="m 179.542,328.508 c 1.29,1.453 2.609,2.88 3.978,4.258 h 144.96 c 1.369,-1.378 2.688,-2.804 3.978,-4.258 z"
   id="path18" />
	<path
   style="fill:#f5f5f5"
   d="m 188.886,337.763 c 2.133,1.86 4.334,3.642 6.618,5.322 h 120.992 c 2.283,-1.681 4.486,-3.463 6.618,-5.322 z"
   id="path20" />
	<path
   style="fill:#f5f5f5"
   d="m 298.579,317.155 c -23.847,0 -40.163,-15.938 -40.326,-16.1 l -2.26,-2.246 -2.252,2.25 c -0.162,0.162 -16.373,16.096 -40.321,16.096 h -42.617 c 1.454,2.193 3,4.318 4.616,6.387 h 38.003 c 21.422,0 36.975,-11.206 42.579,-15.929 5.603,4.724 21.156,15.929 42.579,15.929 h 38.003 c 1.615,-2.069 3.161,-4.194 4.616,-6.387 z"
   id="path22" />
</g>
<g
   id="g36"
   transform="translate(0,-88.276)">
	<path
   style="fill:#ffe15a"
   d="m 254.882,149.878 -3.736,11.203 -11.809,0.092 c -1.132,0.009 -1.602,1.454 -0.691,2.126 l 9.501,7.016 -3.562,11.26 c -0.342,1.08 0.888,1.973 1.81,1.314 l 9.608,-6.868 9.608,6.867 c 0.921,0.659 2.151,-0.235 1.81,-1.314 l -3.562,-11.26 9.501,-7.016 c 0.911,-0.673 0.441,-2.118 -0.691,-2.126 l -11.809,-0.092 -3.736,-11.203 c -0.364,-1.074 -1.884,-1.074 -2.242,10e-4 z"
   id="path26" />
	<path
   style="fill:#ffe15a"
   d="m 198.994,172.809 2.163,7.854 -6.731,4.589 c -0.646,0.44 -0.36,1.449 0.422,1.484 l 8.139,0.371 2.284,7.82 c 0.22,0.75 1.267,0.789 1.542,0.058 l 2.867,-7.626 8.143,0.244 c 0.781,0.023 1.142,-0.961 0.532,-1.448 l -6.367,-5.084 2.749,-7.669 c 0.264,-0.736 -0.561,-1.383 -1.213,-0.953 l -6.802,4.484 -6.444,-4.984 c -0.621,-0.478 -1.492,0.106 -1.284,0.86 z"
   id="path28" />
	<path
   style="fill:#ffe15a"
   d="m 166.41,212.37 5.891,5.628 -3.417,7.395 c -0.328,0.71 0.436,1.428 1.123,1.057 l 7.172,-3.863 5.977,5.536 c 0.573,0.531 1.492,0.026 1.353,-0.742 l -1.458,-8.015 7.112,-3.975 c 0.682,-0.381 0.487,-1.411 -0.288,-1.515 l -8.074,-1.09 -1.582,-7.992 c -0.151,-0.767 -1.192,-0.898 -1.53,-0.194 l -3.532,7.341 -8.089,-0.966 c -0.776,-0.093 -1.223,0.855 -0.658,1.395 z"
   id="path30" />
	<path
   style="fill:#ffe15a"
   d="m 314.859,172.809 -2.163,7.854 6.731,4.589 c 0.646,0.44 0.36,1.449 -0.422,1.484 l -8.139,0.371 -2.284,7.82 c -0.22,0.75 -1.267,0.789 -1.542,0.058 l -2.867,-7.626 -8.143,0.244 c -0.781,0.023 -1.142,-0.961 -0.532,-1.448 l 6.367,-5.084 -2.749,-7.669 c -0.264,-0.736 0.561,-1.383 1.213,-0.953 l 6.802,4.484 6.444,-4.984 c 0.621,-0.478 1.491,0.106 1.284,0.86 z"
   id="path32" />
	<path
   style="fill:#ffe15a"
   d="m 347.443,212.37 -5.891,5.628 3.417,7.395 c 0.328,0.71 -0.436,1.428 -1.123,1.057 l -7.172,-3.863 -5.977,5.536 c -0.573,0.531 -1.492,0.026 -1.353,-0.742 l 1.458,-8.015 -7.112,-3.975 c -0.682,-0.381 -0.487,-1.411 0.288,-1.515 l 8.074,-1.09 1.582,-7.992 c 0.151,-0.767 1.192,-0.898 1.53,-0.194 l 3.532,7.341 8.089,-0.966 c 0.776,-0.093 1.223,0.855 0.658,1.395 z"
   id="path34" />
</g>
<g
   id="g38"
   transform="translate(0,-88.276)">
</g>
<g
   id="g40"
   transform="translate(0,-88.276)">
</g>
<g
   id="g42"
   transform="translate(0,-88.276)">
</g>
<g
   id="g44"
   transform="translate(0,-88.276)">
</g>
<g
   id="g46"
   transform="translate(0,-88.276)">
</g>
<g
   id="g48"
   transform="translate(0,-88.276)">
</g>
<g
   id="g50"
   transform="translate(0,-88.276)">
</g>
<g
   id="g52"
   transform="translate(0,-88.276)">
</g>
<g
   id="g54"
   transform="translate(0,-88.276)">
</g>
<g
   id="g56"
   transform="translate(0,-88.276)">
</g>
<g
   id="g58"
   transform="translate(0,-88.276)">
</g>
<g
   id="g60"
   transform="translate(0,-88.276)">
</g>
<g
   id="g62"
   transform="translate(0,-88.276)">
</g>
<g
   id="g64"
   transform="translate(0,-88.276)">
</g>
<g
   id="g66"
   transform="translate(0,-88.276)">
</g>
</svg>
