<svg xmlns="http://www.w3.org/2000/svg" xml:space="preserve" width="512" height="335.45001"><path style="fill:#4173cd" d="M473.655 335.448H38.345C17.167 335.448 0 318.281 0 297.103V38.345C0 17.168 17.167 0 38.345 0h435.31C494.832 0 512 17.167 512 38.345v258.759c0 21.177-17.167 38.344-38.345 38.344z"/><path style="fill:#f5f5f5" d="M256 295.724c-70.578 0-128-57.422-128-128s57.422-128 128-128 128 57.422 128 128-57.422 128-128 128zm0-229.517c-55.979 0-101.517 45.539-101.517 101.517 0 55.978 45.539 101.517 101.517 101.517 55.978 0 101.517-45.539 101.517-101.517 0-55.978-45.538-101.517-101.517-101.517z"/><g transform="translate(0 -88.276)"><path style="fill:#ffdc00" d="M256 375.172c-65.711 0-119.172-53.461-119.172-119.172S190.289 136.828 256 136.828 375.172 190.289 375.172 256 321.711 375.172 256 375.172zm0-229.517c-60.845 0-110.345 49.5-110.345 110.345S195.155 366.345 256 366.345 366.345 316.845 366.345 256 316.845 145.655 256 145.655z"/><circle style="fill:#ffdc00" cx="141.24001" cy="256" r="8.828"/><circle style="fill:#ffdc00" cx="370.76001" cy="256" r="8.828"/><circle style="fill:#ffdc00" cx="256" cy="141.24001" r="8.828"/><circle style="fill:#ffdc00" cx="174.85001" cy="174.85001" r="8.828"/><circle style="fill:#ffdc00" cx="337.14999" cy="174.85001" r="8.828"/><circle style="fill:#ffdc00" cx="362.01999" cy="212.08" r="8.828"/><circle style="fill:#ffdc00" cx="212.08" cy="149.98" r="8.828"/><circle style="fill:#ffdc00" cx="149.98" cy="212.08" r="8.828"/><circle style="fill:#ffdc00" cx="299.92001" cy="149.98" r="8.828"/><circle style="fill:#ffdc00" cx="368.54999" cy="233.61" r="8.828"/><circle style="fill:#ffdc00" cx="233.61" cy="143.45" r="8.828"/><circle style="fill:#ffdc00" cx="160.59" cy="192.24001" r="8.828"/><circle style="fill:#ffdc00" cx="319.76001" cy="160.59" r="8.828"/><circle style="fill:#ffdc00" cx="351.42001" cy="192.24001" r="8.828"/><circle style="fill:#ffdc00" cx="192.24001" cy="160.59" r="8.828"/><circle style="fill:#ffdc00" cx="143.45" cy="233.61" r="8.828"/><circle style="fill:#ffdc00" cx="278.39001" cy="143.45" r="8.828"/></g><path style="fill:#ffa000" d="M370.759 172.138c-2.44 0-4.414-1.974-4.414-4.414 0-60.845-49.5-110.345-110.345-110.345s-110.345 49.5-110.345 110.345c0 2.44-1.974 4.414-4.414 4.414-2.44 0-4.414-1.974-4.414-4.414 0-65.711 53.461-119.172 119.172-119.172s119.173 53.461 119.173 119.172c0 2.44-1.974 4.414-4.413 4.414z"/><path style="fill:#b4b4b4" d="M280.526 300.138h-49.054c-10.482 0-18.656-9.079-17.558-19.503l15.603-148.221h52.966l15.602 148.221c1.097 10.424-7.076 19.503-17.559 19.503z"/><path style="fill:#aaa" d="M282.232 132.414h-52.671c-2.321 0-4.269-1.748-4.52-4.055l-3.29-30.302c-.567-5.222 3.523-9.781 8.776-9.781h50.945c5.252 0 9.343 4.558 8.776 9.781l-3.268 30.098c-.263 2.423-2.309 4.259-4.748 4.259z"/><path style="fill:#f5f5f5" d="m258.045 98.557 16.364 47.079 49.831 1.015c2.051.042 2.899 2.648 1.263 3.889l-39.717 30.111 14.433 47.705c.595 1.964-1.623 3.575-3.308 2.403L256 202.291l-40.911 28.468c-1.684 1.172-3.902-.439-3.308-2.403l14.433-47.705-39.718-30.111c-1.635-1.239-.788-3.847 1.263-3.889l49.831-1.015 16.364-47.079c.676-1.938 3.416-1.938 4.091 0z"/></svg>