<svg xmlns="http://www.w3.org/2000/svg" xml:space="preserve" width="512" height="335.45001"><path style="fill:#73af00;stroke-width:.999999" d="M473.655 335.448H38.345C17.167 335.448 0 318.28099 0 297.10299V38.345C0 17.168 17.167 0 38.345 0h435.31C494.832 0 512 17.167 512 38.345v258.75899c0 21.177-17.167 38.34401-38.345 38.34401z"/><path style="fill:#ffe15a" d="M351.049 224.986c-.236-1.508-2.423-1.433-2.595.084-5.266 46.402-44.626 82.453-92.452 82.453-47.811 0-87.185-36.051-92.452-82.451-.172-1.517-2.359-1.593-2.595-.084-.732 4.668-1.132 9.441-1.132 14.315 0 53.067 43.07 96.151 96.18 96.151 53.128 0 96.18-43.083 96.18-96.151-.003-4.874-.404-9.649-1.134-14.317z" transform="translate(0 -88.276)"/><path style="fill:#ffe15a" d="m254.81 185.272-6.955 20.854-21.983.17c-1.205.009-1.705 1.547-.735 2.263l17.685 13.059-6.631 20.96c-.363 1.149.945 2.1 1.926 1.399L256 231.196l17.885 12.783c.981.701 2.289-.249 1.926-1.399l-6.631-20.96 17.685-13.059c.97-.716.47-2.254-.735-2.263l-21.983-.17-6.955-20.854c-.383-1.145-2.001-1.145-2.382-.002z" transform="translate(0 -88.276)"/></svg>