<?xml version="1.0" encoding="UTF-8" standalone="no"?>
<svg
   xmlns:dc="http://purl.org/dc/elements/1.1/"
   xmlns:cc="http://creativecommons.org/ns#"
   xmlns:rdf="http://www.w3.org/1999/02/22-rdf-syntax-ns#"
   xmlns:svg="http://www.w3.org/2000/svg"
   xmlns="http://www.w3.org/2000/svg"
   xmlns:sodipodi="http://sodipodi.sourceforge.net/DTD/sodipodi-0.dtd"
   xmlns:inkscape="http://www.inkscape.org/namespaces/inkscape"
   version="1.1"
   id="Layer_1"
   x="0px"
   y="0px"
   viewBox="0 0 512 335.45001"
   xml:space="preserve"
   sodipodi:docname="mr.svg"
   width="512"
   height="335.45001"
   inkscape:version="1.0.1 (c497b03c, 2020-09-10)"><metadata
   id="metadata53"><rdf:RDF><cc:Work
       rdf:about=""><dc:format>image/svg+xml</dc:format><dc:type
         rdf:resource="http://purl.org/dc/dcmitype/StillImage" /><dc:title></dc:title></cc:Work></rdf:RDF></metadata><defs
   id="defs51" /><sodipodi:namedview
   pagecolor="#ffffff"
   bordercolor="#666666"
   borderopacity="1"
   objecttolerance="10"
   gridtolerance="10"
   guidetolerance="10"
   inkscape:pageopacity="0"
   inkscape:pageshadow="2"
   inkscape:window-width="964"
   inkscape:window-height="480"
   id="namedview49"
   showgrid="false"
   inkscape:zoom="1.640625"
   inkscape:cx="256"
   inkscape:cy="256"
   inkscape:window-x="0"
   inkscape:window-y="23"
   inkscape:window-maximized="0"
   inkscape:current-layer="Layer_1" />
<path
   style="fill:#73af00;stroke-width:0.999999"
   d="M 473.655,335.448 H 38.345 C 17.167,335.448 0,318.28099 0,297.10299 V 38.345 C 0,17.168 17.167,0 38.345,0 h 435.31 C 494.832,0 512,17.167 512,38.345 v 258.75899 c 0,21.177 -17.167,38.34401 -38.345,38.34401 z"
   id="path10" />
<g
   id="g16"
   transform="translate(0,-88.276)">
	<path
   style="fill:#ffe15a"
   d="m 351.049,224.986 c -0.236,-1.508 -2.423,-1.433 -2.595,0.084 -5.266,46.402 -44.626,82.453 -92.452,82.453 -47.811,0 -87.185,-36.051 -92.452,-82.451 -0.172,-1.517 -2.359,-1.593 -2.595,-0.084 -0.732,4.668 -1.132,9.441 -1.132,14.315 0,53.067 43.07,96.151 96.18,96.151 53.128,0 96.18,-43.083 96.18,-96.151 -0.003,-4.874 -0.404,-9.649 -1.134,-14.317 z"
   id="path12" />
	<path
   style="fill:#ffe15a"
   d="m 254.81,185.272 -6.955,20.854 -21.983,0.17 c -1.205,0.009 -1.705,1.547 -0.735,2.263 l 17.685,13.059 -6.631,20.96 c -0.363,1.149 0.945,2.1 1.926,1.399 L 256,231.196 l 17.885,12.783 c 0.981,0.701 2.289,-0.249 1.926,-1.399 l -6.631,-20.96 17.685,-13.059 c 0.97,-0.716 0.47,-2.254 -0.735,-2.263 l -21.983,-0.17 -6.955,-20.854 c -0.383,-1.145 -2.001,-1.145 -2.382,-0.002 z"
   id="path14" />
</g>
<g
   id="g18"
   transform="translate(0,-88.276)">
</g>
<g
   id="g20"
   transform="translate(0,-88.276)">
</g>
<g
   id="g22"
   transform="translate(0,-88.276)">
</g>
<g
   id="g24"
   transform="translate(0,-88.276)">
</g>
<g
   id="g26"
   transform="translate(0,-88.276)">
</g>
<g
   id="g28"
   transform="translate(0,-88.276)">
</g>
<g
   id="g30"
   transform="translate(0,-88.276)">
</g>
<g
   id="g32"
   transform="translate(0,-88.276)">
</g>
<g
   id="g34"
   transform="translate(0,-88.276)">
</g>
<g
   id="g36"
   transform="translate(0,-88.276)">
</g>
<g
   id="g38"
   transform="translate(0,-88.276)">
</g>
<g
   id="g40"
   transform="translate(0,-88.276)">
</g>
<g
   id="g42"
   transform="translate(0,-88.276)">
</g>
<g
   id="g44"
   transform="translate(0,-88.276)">
</g>
<g
   id="g46"
   transform="translate(0,-88.276)">
</g>
</svg>
