<?xml version="1.0" encoding="UTF-8" standalone="no"?>
<svg
   xmlns:dc="http://purl.org/dc/elements/1.1/"
   xmlns:cc="http://creativecommons.org/ns#"
   xmlns:rdf="http://www.w3.org/1999/02/22-rdf-syntax-ns#"
   xmlns:svg="http://www.w3.org/2000/svg"
   xmlns="http://www.w3.org/2000/svg"
   xmlns:sodipodi="http://sodipodi.sourceforge.net/DTD/sodipodi-0.dtd"
   xmlns:inkscape="http://www.inkscape.org/namespaces/inkscape"
   version="1.1"
   id="Layer_1"
   x="0px"
   y="0px"
   viewBox="0 0 512 335.45001"
   xml:space="preserve"
   sodipodi:docname="ms.svg"
   width="512"
   height="335.45001"
   inkscape:version="1.0.1 (c497b03c, 2020-09-10)"><metadata
   id="metadata103"><rdf:RDF><cc:Work
       rdf:about=""><dc:format>image/svg+xml</dc:format><dc:type
         rdf:resource="http://purl.org/dc/dcmitype/StillImage" /><dc:title></dc:title></cc:Work></rdf:RDF></metadata><defs
   id="defs101" /><sodipodi:namedview
   pagecolor="#ffffff"
   bordercolor="#666666"
   borderopacity="1"
   objecttolerance="10"
   gridtolerance="10"
   guidetolerance="10"
   inkscape:pageopacity="0"
   inkscape:pageshadow="2"
   inkscape:window-width="892"
   inkscape:window-height="480"
   id="namedview99"
   showgrid="false"
   inkscape:zoom="1.640625"
   inkscape:cx="256"
   inkscape:cy="256"
   inkscape:window-x="0"
   inkscape:window-y="23"
   inkscape:window-maximized="0"
   inkscape:current-layer="Layer_1" />
<path
   style="fill:#41479b;stroke-width:1"
   d="M 473.655,335.448 H 38.345 C 17.167,335.448 0,318.281 0,297.103 V 38.345 C 0,17.168 17.167,0 38.345,0 h 435.31 C 494.832,0 512,17.167 512,38.345 v 258.759 c 0,21.177 -17.167,38.344 -38.345,38.344 z"
   id="path10" />
<path
   style="fill:#f5f5f5;stroke-width:1"
   d="M 8.8279997,167.73 H 24.162 l 81.77,-53.572 v 53.574 h 44.138 v -53.574 l 81.77,53.574 h 15.334 c 4.875,0 8.828,-3.953 8.828,-8.828 v -7.002 L 185.847,105.939 H 256 V 61.801 H 185.845 L 256,15.835 V 8.833 c 0,-4.875 -3.953,-8.828 -8.828,-8.828 h -15.334 l -81.77,53.574 V 0.005 H 105.93 V 53.579 L 26.837,1.759 C 17.606,4.66 9.8860001,10.964 5.1299999,19.195 L 70.154998,61.798 H 0 v 44.138 H 70.154998 L 0,151.901 v 7.002 c 0,4.874 3.953,8.827 8.8279997,8.827 z"
   id="path12" />
<g
   id="g24"
   transform="translate(0,-88.276)">
	<polygon
   style="fill:#ff4b55"
   points="114.759,158.902 0,158.902 0,185.385 114.759,185.385 114.759,256.006 141.241,256.006 141.241,185.385 256,185.385 256,158.902 141.241,158.902 141.241,88.281 114.759,88.281 "
   id="polygon14" />
	<path
   style="fill:#ff4b55"
   d="m 8.225,102.906 72.665,47.169 h 16.213 l -82.5,-53.554 c -2.368,1.871 -4.51,4.014 -6.378,6.385 z"
   id="path16" />
	<path
   style="fill:#ff4b55"
   d="m 166.283,150.074 88.374,-57.366 c -1.536,-2.599 -4.246,-4.427 -7.485,-4.427 h -1.909 l -95.194,61.793 z"
   id="path18" />
	<path
   style="fill:#ff4b55"
   d="M 89.474,194.212 1.269,251.468 c 1.519,2.663 4.273,4.537 7.559,4.537 h 1.665 l 95.196,-61.793 z"
   id="path20" />
	<path
   style="fill:#ff4b55"
   d="M 255.86,247.872 173.194,194.214 H 156.98 l 93.874,60.935 c 2.812,-1.306 4.741,-4.042 5.006,-7.277 z"
   id="path22" />
</g>
<rect
   x="325.35999"
   y="98.973999"
   style="fill:#82afff;stroke-width:1"
   width="117.27"
   height="90.629997"
   id="rect26" />
<path
   style="fill:#c86464;stroke-width:1"
   d="m 325.362,189.598 c 0,30.913 34.649,55.972 58.638,55.972 v 0 c 21.323,0 58.638,-25.06 58.638,-55.972 z"
   id="path28" />
<path
   style="fill:#73af00;stroke-width:1"
   d="m 399.659,132.07 c 1.888,0.333 5.109,0.778 5.442,5.331 0.333,4.553 -1.333,20.768 -2.998,22.766 0,0 5.442,12.328 5.664,19.657 0.222,7.33 -0.777,29.263 -0.111,32.761 0.667,3.498 3.165,10.661 3.165,10.661 0,0 -7.663,-4.498 -10.661,-1.666 -2.998,2.831 -13.993,6.664 -18.325,2.166 0,0 5.164,-14.659 5.164,-31.318 0,-16.659 0,-57.805 0,-57.805 0,0 2.166,-1.721 4.997,-1.777 2.832,-0.054 7.663,-0.776 7.663,-0.776 z"
   id="path30" />
<g
   id="g36"
   transform="translate(0,-88.276)">
	<path
   style="fill:#fff5e1"
   d="m 400.769,308.415 c 0.333,2.11 1.221,3.665 0.777,4.442 -0.445,0.778 -3.331,7.885 -1.666,7.885 1.665,0 4.553,-0.888 5.331,-2.443 0.777,-1.555 1.11,-3.887 1.555,-4.553 0.445,-0.666 -0.778,-3.998 -1.777,-4.553 -0.999,-0.556 -4.22,-0.778 -4.22,-0.778 z"
   id="path32" />
	<path
   style="fill:#fff5e1"
   d="m 381.557,225.011 -6.108,0.778 c 0,0 0.777,-3.998 0.888,-6.775 0.111,-2.776 0.333,-7.885 0.333,-7.885 0,0 4.331,-2.665 4.442,-3.11 0.055,-0.222 0.569,-1.61 0.167,-2.332 -0.402,-0.722 -1.721,-0.778 -1.721,-0.778 0,0 -5.109,2.665 -5.109,3.11 0,0.445 0,3.11 -0.555,4.109 -0.555,1 -3.665,9.329 -3.887,11.55 -0.222,2.221 -0.555,6.886 0.333,7.108 0.888,0.222 10.106,1.222 11.106,0.777 0.999,-0.444 0.111,-6.552 0.111,-6.552 z"
   id="path34" />
</g>
<polygon
   style="fill:#464655"
   points="379.336,203.078 357.105,203.078 357.105,210.74 379.336,210.74 379.336,311.524 386.998,311.524 386.998,210.74 409.229,210.74 409.229,203.078 386.998,203.078 386.998,192.583 379.336,192.583 "
   id="polygon38"
   transform="translate(0,-88.276)" />
<path
   style="fill:#963c3c;stroke-width:1"
   d="m 396.105,128.406 c 0,0 7.441,2.143 8.44,-0.333 1.166,-2.888 -2.721,-3.276 -3.443,-6.33 -0.081,-0.342 -0.777,-4.442 -3.776,-5.219 -2.998,-0.778 -5.775,0 -5.886,1.999 -0.111,1.999 4.665,9.883 4.665,9.883 z"
   id="path40" />
<path
   style="fill:#fff5e1;stroke-width:1"
   d="m 392.107,137.845 c -0.22,0.036 -0.555,-2.221 -0.111,-4.998 0.445,-2.776 0,-3.665 0,-3.665 0,0 -3.109,0.333 -3.109,-0.888 0,-1.221 0.666,-6.886 2.554,-9.773 0,0 1.333,1.666 3.776,1.666 0,0 -0.111,1.999 1.222,3.331 0,0 -1.666,1.443 -0.888,2.443 0.778,1 2.221,2.221 2.221,2.221 0,0 0.111,2.333 1.888,3.887 -0.001,0.001 -2.222,4.888 -7.553,5.776 z"
   id="path42" />
<g
   id="g56"
   transform="translate(0,-88.276)">
	<rect
   x="361.67999"
   y="274.32001"
   style="fill:#464655"
   width="0.66600001"
   height="13.215"
   id="rect44" />
	<rect
   x="364.35999"
   y="271.76001"
   style="fill:#464655"
   width="0.66600001"
   height="18.333"
   id="rect46" />
	<rect
   x="367.04001"
   y="269.42999"
   style="fill:#464655"
   width="0.66600001"
   height="23.01"
   id="rect48" />
	<rect
   x="369.72"
   y="266.09"
   style="fill:#464655"
   width="0.66600001"
   height="29.688"
   id="rect50" />
	<rect
   x="372.39999"
   y="261.72"
   style="fill:#464655"
   width="0.66600001"
   height="38.424"
   id="rect52" />
	<rect
   x="375.07999"
   y="261.72"
   style="fill:#464655"
   width="0.66600001"
   height="40.220001"
   id="rect54" />
</g>
<path
   style="fill:#ffe15a;stroke-width:1"
   d="m 387.109,194.484 c -2.945,-15.315 -11.106,-24.211 -13.993,-24.654 -2.888,-0.444 -4.997,1.888 -5.219,3.554 -0.222,1.666 -1.777,6.664 -4.998,8.995 -3.221,2.333 -9.218,3.665 -10.55,7.996 -1.333,4.331 2.221,6.219 4.331,5.774 0.158,-0.033 0.313,-0.095 0.471,-0.147 l 22.703,27.927 c 0.824,1.014 2.43,0.849 3.005,-0.327 2.333,-4.769 6.762,-16.06 4.25,-29.118 z m -28.052,0.31 c 0.89,-0.956 1.266,-2.273 0.289,-3.641 -1.666,-2.333 -3.554,1 -3.554,1 0,0 -0.555,-2.888 3.776,-4.331 4.331,-1.443 9.218,-3.886 11.439,-9.107 2.221,-5.219 2.11,-4.221 2.11,-4.221 0,0 8.885,4.998 10.106,20.657 1.222,15.659 -3.109,21.99 -3.109,21.99 z"
   id="path58" />
<g
   id="g64"
   transform="translate(0,-88.276)">
	<path
   style="fill:#fff5e1"
   d="m 379.336,249.255 c -1.02,0.652 -1.939,1.214 -2.582,1.549 -2.082,1.082 -4.582,2.166 -4.831,3.165 -0.249,1 -1.666,1.833 -1.582,2.998 0.084,1.166 0,4.664 0,4.664 1.249,-0.249 3.748,-0.666 4.582,-2.166 0.833,-1.5 1.582,-4.415 4.248,-5.664 0.047,-0.022 0.117,-0.045 0.167,-0.067 v -4.479 z"
   id="path60" />
	<path
   style="fill:#fff5e1"
   d="m 401.408,227.981 c -1.249,0.583 -4.997,5.081 -5.58,7.164 -0.583,2.082 -2.415,6.997 -2.415,6.997 0,0 -3.785,0.494 -6.413,1.965 v 7.274 c 1.457,-0.422 2.745,-0.838 3.498,-1.242 2.166,-1.166 5.247,-3.331 6.83,-3.748 1.582,-0.416 2.915,-3.082 3.498,-4.664 0.583,-1.582 2.415,-6.247 2.665,-9.412 0.25,-3.167 -0.834,-4.916 -2.083,-4.334 z"
   id="path62" />
</g>
<path
   style="fill:#f5f5f5;stroke-width:1"
   d="m 384,247.46 -0.291,-0.046 C 324.18,238.015 323.496,186.456 323.496,184.268 V 97.11 h 121.009 v 87.158 c 0,2.189 -0.684,53.747 -60.213,63.146 z M 327.229,100.842 v 83.425 c 0,2.057 0.644,50.387 56.771,59.414 56.128,-9.027 56.771,-57.357 56.771,-59.414 v -83.425 z"
   id="path66" />
<g
   id="g68"
   transform="translate(0,-88.276)">
</g>
<g
   id="g70"
   transform="translate(0,-88.276)">
</g>
<g
   id="g72"
   transform="translate(0,-88.276)">
</g>
<g
   id="g74"
   transform="translate(0,-88.276)">
</g>
<g
   id="g76"
   transform="translate(0,-88.276)">
</g>
<g
   id="g78"
   transform="translate(0,-88.276)">
</g>
<g
   id="g80"
   transform="translate(0,-88.276)">
</g>
<g
   id="g82"
   transform="translate(0,-88.276)">
</g>
<g
   id="g84"
   transform="translate(0,-88.276)">
</g>
<g
   id="g86"
   transform="translate(0,-88.276)">
</g>
<g
   id="g88"
   transform="translate(0,-88.276)">
</g>
<g
   id="g90"
   transform="translate(0,-88.276)">
</g>
<g
   id="g92"
   transform="translate(0,-88.276)">
</g>
<g
   id="g94"
   transform="translate(0,-88.276)">
</g>
<g
   id="g96"
   transform="translate(0,-88.276)">
</g>
</svg>
