<?xml version="1.0" encoding="UTF-8" standalone="no"?>
<svg
   xmlns:dc="http://purl.org/dc/elements/1.1/"
   xmlns:cc="http://creativecommons.org/ns#"
   xmlns:rdf="http://www.w3.org/1999/02/22-rdf-syntax-ns#"
   xmlns:svg="http://www.w3.org/2000/svg"
   xmlns="http://www.w3.org/2000/svg"
   xmlns:sodipodi="http://sodipodi.sourceforge.net/DTD/sodipodi-0.dtd"
   xmlns:inkscape="http://www.inkscape.org/namespaces/inkscape"
   version="1.1"
   id="Layer_1"
   x="0px"
   y="0px"
   viewBox="0 0 512 335.45001"
   xml:space="preserve"
   sodipodi:docname="mt.svg"
   width="512"
   height="335.45001"
   inkscape:version="1.0.1 (c497b03c, 2020-09-10)"><metadata
   id="metadata67"><rdf:RDF><cc:Work
       rdf:about=""><dc:format>image/svg+xml</dc:format><dc:type
         rdf:resource="http://purl.org/dc/dcmitype/StillImage" /><dc:title></dc:title></cc:Work></rdf:RDF></metadata><defs
   id="defs65" /><sodipodi:namedview
   pagecolor="#ffffff"
   bordercolor="#666666"
   borderopacity="1"
   objecttolerance="10"
   gridtolerance="10"
   guidetolerance="10"
   inkscape:pageopacity="0"
   inkscape:pageshadow="2"
   inkscape:window-width="1004"
   inkscape:window-height="480"
   id="namedview63"
   showgrid="false"
   inkscape:zoom="1.640625"
   inkscape:cx="256"
   inkscape:cy="256"
   inkscape:window-x="0"
   inkscape:window-y="23"
   inkscape:window-maximized="0"
   inkscape:current-layer="Layer_1" />
<path
   style="fill:#ff4b55;stroke-width:1"
   d="M 473.655,0 H 256 v 335.44799 h 217.655 c 21.177,0 38.345,-17.167 38.345,-38.345 V 38.345 C 512,17.167 494.833,0 473.655,0 Z"
   id="path10" />
<path
   style="fill:#f5f5f5;stroke-width:1"
   d="M 38.345,0 C 17.167,0 0,17.167 0,38.345 V 297.10499 C 0,318.28199 17.167,335.45 38.345,335.45 H 256 V 0 Z"
   id="path12" />
<path
   style="fill:#ff4b55;stroke-width:1"
   d="m 73.564001,20.598 v 23.62 c 1.300997,0.051 2.752,0.641 3.958001,1.847 1.206001,1.206 1.798001,2.657 1.846999,3.958 H 102.989 v 23.54 H 79.368003 c -0.051,1.301 -0.641004,2.752 -1.847005,3.958 -1.206,1.206 -2.656998,1.796 -3.958,1.847 v 23.62 H 50.023 V 79.368 C 48.722,79.317 47.271,78.727 46.065,77.521 44.859,76.315 44.269,74.864 44.218,73.563 H 20.598 V 50.024 h 23.62 c 0.051,-1.301 0.641,-2.752 1.847,-3.958 1.206,-1.206 2.657,-1.796 3.958,-1.847 v -23.62 h 23.541001 m 2.941,-2.944 H 73.561999 50.022 47.08 v 2.943 21.303 c -1.123,0.46 -2.177,1.165 -3.096,2.083 -0.919,0.919 -1.623,1.973 -2.084,3.096 H 20.598 17.655 v 2.943 23.54 2.943 h 2.943 21.303 c 0.461,1.123 1.165,2.178 2.084,3.096 0.918,0.918 1.972,1.623 3.095,2.083 v 21.303 2.942 h 2.943 23.539998 2.943001 v -2.943 -21.303 c 1.123001,-0.46 2.176999,-1.165 3.096003,-2.084 0.918001,-0.918 1.622999,-1.972 2.083,-3.095 H 102.988 105.93 v -2.943 -23.54 -2.943 h -2.943 -21.300999 c -0.460002,-1.123 -1.165,-2.177 -2.083999,-3.096 C 78.684001,43.065 77.629998,42.36 76.505999,41.9 V 20.598 Z"
   id="path14" />
<polygon
   style="fill:#cdcdcd"
   points="20.598,161.839 50.023,161.839 50.023,191.264 73.564,191.264 73.564,161.839 102.988,161.839 102.988,138.298 73.564,138.298 73.564,108.873 50.023,108.873 50.023,138.298 20.598,138.298 "
   id="polygon16"
   transform="translate(0,-88.275)" />
<g
   id="g30"
   transform="translate(0,-88.275)">
	<circle
   style="fill:#b4a08c"
   cx="61.792999"
   cy="150.07001"
   r="11.77"
   id="circle18" />
	
		<ellipse
   transform="matrix(-0.7071,-0.7071,0.7071,-0.7071,-32.3419,313.0133)"
   style="fill:#b4a08c"
   cx="48.655998"
   cy="163.205"
   rx="5.2340002"
   ry="3.6630001"
   id="ellipse20" />
	
		<ellipse
   transform="matrix(0.7071,-0.7071,0.7071,0.7071,-93.4504,100.7866)"
   style="fill:#b4a08c"
   cx="74.934998"
   cy="163.198"
   rx="5.2340002"
   ry="3.6630001"
   id="ellipse22" />
	
		<ellipse
   transform="matrix(0.7071,0.7071,-0.7071,0.7071,118.773,-12.8703)"
   style="fill:#b4a08c"
   cx="74.921997"
   cy="136.937"
   rx="5.2340002"
   ry="3.6630001"
   id="ellipse24" />
	
		<ellipse
   transform="matrix(-0.7071,0.7071,-0.7071,-0.7071,179.8755,199.3536)"
   style="fill:#b4a08c"
   cx="48.650002"
   cy="136.92999"
   rx="5.2340002"
   ry="3.6630001"
   id="ellipse26" />
	<path
   style="fill:#b4a08c"
   d="m 61.793,166.182 c -8.885,0 -16.113,-7.226 -16.113,-16.113 0,-8.887 7.228,-16.113 16.113,-16.113 8.885,0 16.113,7.228 16.113,16.113 0,8.884 -7.228,16.113 -16.113,16.113 z m 0,-30.755 c -8.072,0 -14.641,6.569 -14.641,14.641 0,8.072 6.569,14.641 14.641,14.641 8.072,0 14.641,-6.569 14.641,-14.641 0,-8.072 -6.569,-14.641 -14.641,-14.641 z"
   id="path28" />
</g>
<g
   id="g32"
   transform="translate(0,-88.275)">
</g>
<g
   id="g34"
   transform="translate(0,-88.275)">
</g>
<g
   id="g36"
   transform="translate(0,-88.275)">
</g>
<g
   id="g38"
   transform="translate(0,-88.275)">
</g>
<g
   id="g40"
   transform="translate(0,-88.275)">
</g>
<g
   id="g42"
   transform="translate(0,-88.275)">
</g>
<g
   id="g44"
   transform="translate(0,-88.275)">
</g>
<g
   id="g46"
   transform="translate(0,-88.275)">
</g>
<g
   id="g48"
   transform="translate(0,-88.275)">
</g>
<g
   id="g50"
   transform="translate(0,-88.275)">
</g>
<g
   id="g52"
   transform="translate(0,-88.275)">
</g>
<g
   id="g54"
   transform="translate(0,-88.275)">
</g>
<g
   id="g56"
   transform="translate(0,-88.275)">
</g>
<g
   id="g58"
   transform="translate(0,-88.275)">
</g>
<g
   id="g60"
   transform="translate(0,-88.275)">
</g>
</svg>
