<svg xmlns="http://www.w3.org/2000/svg" xml:space="preserve" width="512" height="335.45001"><path style="fill:#ff4b55;stroke-width:1" d="M473.655 0H256v335.44799h217.655c21.177 0 38.345-17.167 38.345-38.345V38.345C512 17.167 494.833 0 473.655 0z"/><path style="fill:#f5f5f5;stroke-width:1" d="M38.345 0C17.167 0 0 17.167 0 38.345v258.75999C0 318.28199 17.167 335.45 38.345 335.45H256V0z"/><path style="fill:#ff4b55;stroke-width:1" d="M73.564 20.598v23.62c1.301.051 2.752.641 3.958 1.847 1.206 1.206 1.798 2.657 1.847 3.958h23.62v23.54H79.368c-.051 1.301-.641 2.752-1.847 3.958-1.206 1.206-2.657 1.796-3.958 1.847v23.62h-23.54v-23.62c-1.301-.051-2.752-.641-3.958-1.847-1.206-1.206-1.796-2.657-1.847-3.958h-23.62V50.024h23.62c.051-1.301.641-2.752 1.847-3.958 1.206-1.206 2.657-1.796 3.958-1.847v-23.62h23.541m2.941-2.944H47.08v24.246c-1.123.46-2.177 1.165-3.096 2.083-.919.919-1.623 1.973-2.084 3.096H17.655v29.426h24.246c.461 1.123 1.165 2.178 2.084 3.096.918.918 1.972 1.623 3.095 2.083v24.245h29.426V81.684c1.123-.46 2.177-1.165 3.096-2.084.918-.918 1.623-1.972 2.083-3.095h24.245V47.079H81.686c-.46-1.123-1.165-2.177-2.084-3.096-.918-.918-1.972-1.623-3.096-2.083V20.598z"/><path style="fill:#cdcdcd" transform="translate(0 -88.275)" d="M20.598 161.839h29.425v29.425h23.541v-29.425h29.424v-23.541H73.564v-29.425H50.023v29.425H20.598z"/><g transform="translate(0 -88.275)"><circle style="fill:#b4a08c" cx="61.793" cy="150.07001" r="11.77"/><ellipse transform="rotate(-135 48.65614 163.20576)" style="fill:#b4a08c" cx="48.656" cy="163.205" rx="5.234" ry="3.663"/><ellipse transform="rotate(-45 74.93346 163.19956)" style="fill:#b4a08c" cx="74.935" cy="163.198" rx="5.234" ry="3.663"/><ellipse transform="rotate(45 74.92427 136.93633)" style="fill:#b4a08c" cx="74.922" cy="136.937" rx="5.234" ry="3.663"/><ellipse transform="rotate(135 48.65077 136.9308)" style="fill:#b4a08c" cx="48.65" cy="136.92999" rx="5.234" ry="3.663"/><path style="fill:#b4a08c" d="M61.793 166.182c-8.885 0-16.113-7.226-16.113-16.113s7.228-16.113 16.113-16.113 16.113 7.228 16.113 16.113c0 8.884-7.228 16.113-16.113 16.113zm0-30.755c-8.072 0-14.641 6.569-14.641 14.641s6.569 14.641 14.641 14.641 14.641-6.569 14.641-14.641-6.569-14.641-14.641-14.641z"/></g></svg>