<svg xmlns="http://www.w3.org/2000/svg" xml:space="preserve" width="512" height="335.45001"><path d="M37.7 0h436.70001c20.8 0 37.70002 16.6 37.70002 37v261.4c0 20.5-16.9 37-37.70002 37h-436.7C16.9 335.4 0 318.79998 0 298.4V37C0 16.6 16.9 0 37.7 0z" style="fill:#ed1f34"/><path style="fill:#278a2a" d="M79.7 78.3h352.79999v178.90001H79.7z"/><path d="M295.9 216.5c-27.4 0-49.7-21.9-49.7-48.8s22.2-48.8 49.7-48.8c.79998 0 1.6 0 2.5.1-8.20002-4.5-17.70002-7.2-27.8-7.2-31.39999 0-56.89999 24.99999-56.89999 55.9s25.5 55.9 56.9 55.9c10.1 0 19.6-2.6 27.79998-7.2-.79998.1-1.6.1-2.5.1z" style="fill:#f5f5f5"/></svg>