<?xml version="1.0" encoding="UTF-8" standalone="no"?>
<svg
   xmlns:dc="http://purl.org/dc/elements/1.1/"
   xmlns:cc="http://creativecommons.org/ns#"
   xmlns:rdf="http://www.w3.org/1999/02/22-rdf-syntax-ns#"
   xmlns:svg="http://www.w3.org/2000/svg"
   xmlns="http://www.w3.org/2000/svg"
   xmlns:sodipodi="http://sodipodi.sourceforge.net/DTD/sodipodi-0.dtd"
   xmlns:inkscape="http://www.inkscape.org/namespaces/inkscape"
   version="1.1"
   id="Layer_1"
   x="0px"
   y="0px"
   viewBox="0 0 512 335.45001"
   xml:space="preserve"
   sodipodi:docname="mw.svg"
   width="512"
   height="335.45001"
   inkscape:version="1.0.1 (c497b03c, 2020-09-10)"><metadata
   id="metadata101"><rdf:RDF><cc:Work
       rdf:about=""><dc:format>image/svg+xml</dc:format><dc:type
         rdf:resource="http://purl.org/dc/dcmitype/StillImage" /><dc:title></dc:title></cc:Work></rdf:RDF></metadata><defs
   id="defs99" /><sodipodi:namedview
   pagecolor="#ffffff"
   bordercolor="#666666"
   borderopacity="1"
   objecttolerance="10"
   gridtolerance="10"
   guidetolerance="10"
   inkscape:pageopacity="0"
   inkscape:pageshadow="2"
   inkscape:window-width="1171"
   inkscape:window-height="480"
   id="namedview97"
   showgrid="false"
   inkscape:zoom="1.640625"
   inkscape:cx="256"
   inkscape:cy="256"
   inkscape:window-x="0"
   inkscape:window-y="23"
   inkscape:window-maximized="0"
   inkscape:current-layer="Layer_1" />
<path
   style="fill:#73af00"
   d="m 0,297.103 c 0,21.177 17.167,38.345 38.345,38.345 h 435.31 c 21.177,0 38.345,-17.167 38.345,-38.345 V 223.632 H 0 Z"
   id="path10" />
<path
   style="fill:#464655"
   d="M 473.655,0 H 38.345 C 17.167,0 0,17.167 0,38.345 v 73.471 H 512 V 38.345 C 512,17.167 494.833,0 473.655,0 Z"
   id="path12" />
<g
   id="g64"
   transform="translate(0,-88.276)">
	<rect
   y="200.09"
   style="fill:#ff4b55"
   width="512"
   height="111.81"
   id="rect14"
   x="0" />
	<path
   style="fill:#ff4b55"
   d="M 324.584,189.548 C 310.806,165.961 285.288,150.069 256,150.069 c -29.288,0 -54.806,15.892 -68.584,39.479 z"
   id="path16" />
	<path
   style="fill:#ff4b55"
   d="m 260.561,112.552 c 0,3.961 -4.561,28.69 -4.561,28.69 0,0 -4.561,-24.728 -4.561,-28.69 0,-3.961 2.042,-7.172 4.561,-7.172 2.519,0 4.561,3.21 4.561,7.172 z"
   id="path18" />
	<path
   style="fill:#ff4b55"
   d="m 341.737,149.954 c -2.801,2.801 -23.511,17.062 -23.511,17.062 0,0 14.261,-20.711 17.062,-23.511 2.801,-2.801 6.516,-3.628 8.297,-1.846 1.78,1.779 0.953,5.495 -1.848,8.295 z"
   id="path20" />
	<path
   style="fill:#ff4b55"
   d="m 176.713,143.505 c 2.801,2.801 17.062,23.511 17.062,23.511 0,0 -20.711,-14.261 -23.511,-17.062 -2.801,-2.801 -3.628,-6.516 -1.846,-8.297 1.779,-1.781 5.494,-0.954 8.295,1.848 z"
   id="path22" />
	<path
   style="fill:#ff4b55"
   d="m 215.559,119.689 c 1.516,3.66 6.765,28.252 6.765,28.252 0,0 -13.677,-21.101 -15.192,-24.76 -1.515,-3.659 -0.858,-7.407 1.469,-8.372 2.326,-0.965 5.441,1.22 6.958,4.88 z"
   id="path24" />
	<path
   style="fill:#ff4b55"
   d="m 304.868,123.18 c -1.516,3.66 -15.192,24.76 -15.192,24.76 0,0 5.249,-24.591 6.765,-28.252 1.516,-3.66 4.631,-5.845 6.958,-4.881 2.327,0.964 2.986,4.713 1.469,8.373 z"
   id="path26" />
	<path
   style="fill:#ff4b55"
   d="m 237.274,113.974 c 0.788,3.882 1.233,29.024 1.233,29.024 0,0 -9.385,-23.328 -10.173,-27.211 -0.788,-3.882 0.576,-7.435 3.044,-7.936 2.47,-0.501 5.11,2.24 5.896,6.123 z"
   id="path28" />
	<path
   style="fill:#ff4b55"
   d="m 324.266,134.494 c -2.188,3.302 -19.651,21.395 -19.651,21.395 0,0 9.859,-23.132 12.047,-26.434 2.188,-3.302 5.664,-4.851 7.764,-3.459 2.1,1.392 2.028,5.196 -0.16,8.498 z"
   id="path30" />
	<path
   style="fill:#ff4b55"
   d="m 161.252,160.975 c 3.302,2.188 21.395,19.651 21.395,19.651 0,0 -23.132,-9.859 -26.434,-12.047 -3.302,-2.188 -4.851,-5.664 -3.459,-7.764 1.392,-2.099 5.197,-2.028 8.498,0.16 z"
   id="path32" />
	<path
   style="fill:#ff4b55"
   d="m 194.589,129.913 c 2.214,3.285 12.246,26.343 12.246,26.343 0,0 -17.598,-17.961 -19.811,-21.246 -2.214,-3.285 -2.314,-7.09 -0.224,-8.497 2.088,-1.407 5.576,0.115 7.789,3.4 z"
   id="path34" />
	<path
   style="fill:#ff4b55"
   d="m 355.328,167.83 c -3.285,2.214 -26.343,12.246 -26.343,12.246 0,0 17.961,-17.598 21.246,-19.811 3.285,-2.214 7.09,-2.314 8.497,-0.224 1.408,2.089 -0.115,5.577 -3.4,7.789 z"
   id="path36" />
	<path
   style="fill:#ff4b55"
   d="m 282.812,115.582 c -0.758,3.887 -9.967,27.286 -9.967,27.286 0,0 0.256,-25.144 1.015,-29.032 0.759,-3.887 3.377,-6.649 5.849,-6.167 2.473,0.482 3.861,4.025 3.103,7.913 z"
   id="path38" />
	<path
   style="fill:#ff4b55"
   d="m 285.529,116.258 c -1.151,3.79 -3.969,28.778 -3.969,28.778 0,0 11.546,-22.337 12.697,-26.129 1.151,-3.79 0.129,-7.456 -2.281,-8.188 -2.409,-0.732 -5.296,1.749 -6.447,5.539 z"
   id="path40" />
	<path
   style="fill:#ff4b55"
   d="m 196.989,128.47 c 1.867,3.494 17.543,23.155 17.543,23.155 0,0 -7.63,-23.96 -9.497,-27.454 -1.867,-3.494 -5.181,-5.364 -7.403,-4.177 -2.223,1.188 -2.51,4.981 -0.643,8.476 z"
   id="path42" />
	<path
   style="fill:#ff4b55"
   d="m 356.771,170.23 c -3.493,1.867 -23.155,17.543 -23.155,17.543 0,0 23.96,-7.63 27.454,-9.497 3.493,-1.867 5.364,-5.181 4.177,-7.403 -1.186,-2.222 -4.981,-2.509 -8.476,-0.643 z"
   id="path44" />
	<path
   style="fill:#ff4b55"
   d="m 326.518,136.159 c -2.514,3.062 -14.679,25.068 -14.679,25.068 0,0 19.217,-16.218 21.73,-19.281 2.514,-3.062 2.973,-6.839 1.026,-8.438 -1.947,-1.597 -5.563,-0.411 -8.077,2.651 z"
   id="path46" />
	<path
   style="fill:#ff4b55"
   d="m 162.918,158.723 c 3.062,2.514 25.068,14.679 25.068,14.679 0,0 -16.218,-19.217 -19.281,-21.73 -3.063,-2.513 -6.839,-2.973 -8.438,-1.026 -1.598,1.948 -0.412,5.564 2.651,8.077 z"
   id="path48" />
	<path
   style="fill:#ff4b55"
   d="m 240.044,113.558 c 0.387,3.943 7.346,28.106 7.346,28.106 0,0 2.12,-25.056 1.732,-28.999 -0.387,-3.943 -2.734,-6.938 -5.24,-6.691 -2.507,0.246 -4.225,3.641 -3.838,7.584 z"
   id="path50" />
	<path
   style="fill:#ff4b55"
   d="m 263.061,112.676 c -0.394,3.942 1.686,29.001 1.686,29.001 0,0 6.996,-24.152 7.39,-28.094 0.394,-3.942 -1.319,-7.34 -3.826,-7.591 -2.506,-0.25 -4.856,2.743 -5.25,6.684 z"
   id="path52" />
	<path
   style="fill:#ff4b55"
   d="m 178.569,141.825 c 2.509,3.065 21.699,19.314 21.699,19.314 0,0 -12.131,-22.026 -14.639,-25.091 -2.509,-3.065 -6.123,-4.257 -8.072,-2.663 -1.95,1.595 -1.497,5.374 1.012,8.44 z"
   id="path54" />
	<path
   style="fill:#ff4b55"
   d="m 343.416,151.81 c -3.065,2.509 -19.314,21.699 -19.314,21.699 0,0 22.026,-12.131 25.091,-14.639 3.065,-2.508 4.257,-6.123 2.663,-8.072 -1.595,-1.949 -5.373,-1.497 -8.44,1.012 z"
   id="path56" />
	<path
   style="fill:#ff4b55"
   d="m 307.13,124.252 c -1.873,3.491 -9.54,27.438 -9.54,27.438 0,0 15.706,-19.637 17.579,-23.127 1.873,-3.491 1.59,-7.286 -0.629,-8.477 -2.22,-1.191 -5.537,0.674 -7.41,4.166 z"
   id="path58" />
	<path
   style="fill:#ff4b55"
   d="m 151.01,178.111 c 3.491,1.873 27.438,9.54 27.438,9.54 0,0 -19.637,-15.706 -23.127,-17.579 -3.491,-1.873 -7.286,-1.59 -8.477,0.63 -1.19,2.219 0.675,5.536 4.166,7.409 z"
   id="path60" />
	<path
   style="fill:#ff4b55"
   d="m 217.916,118.847 c 1.144,3.793 12.657,26.148 12.657,26.148 0,0 -2.778,-24.992 -3.924,-28.783 -1.144,-3.793 -4.028,-6.276 -6.439,-5.548 -2.411,0.727 -3.439,4.391 -2.294,8.183 z"
   id="path62" />
</g>
<g
   id="g66"
   transform="translate(0,-88.276)">
</g>
<g
   id="g68"
   transform="translate(0,-88.276)">
</g>
<g
   id="g70"
   transform="translate(0,-88.276)">
</g>
<g
   id="g72"
   transform="translate(0,-88.276)">
</g>
<g
   id="g74"
   transform="translate(0,-88.276)">
</g>
<g
   id="g76"
   transform="translate(0,-88.276)">
</g>
<g
   id="g78"
   transform="translate(0,-88.276)">
</g>
<g
   id="g80"
   transform="translate(0,-88.276)">
</g>
<g
   id="g82"
   transform="translate(0,-88.276)">
</g>
<g
   id="g84"
   transform="translate(0,-88.276)">
</g>
<g
   id="g86"
   transform="translate(0,-88.276)">
</g>
<g
   id="g88"
   transform="translate(0,-88.276)">
</g>
<g
   id="g90"
   transform="translate(0,-88.276)">
</g>
<g
   id="g92"
   transform="translate(0,-88.276)">
</g>
<g
   id="g94"
   transform="translate(0,-88.276)">
</g>
</svg>
