<svg xmlns="http://www.w3.org/2000/svg" xml:space="preserve" width="512" height="335.45001"><path style="fill:#ff4b55;stroke-width:.999999" d="M317.793 8.828v15.133H509.2C503.508 9.914 489.743.001 473.655.001h-164.69c4.876 0 8.828 3.952 8.828 8.827z"/><path style="fill:#f5f5f5;stroke-width:.999999" d="M317.793 23.961v23.96H512v-9.577c0-5.089-1-9.941-2.799-14.385H317.793z"/><path style="fill:#ff4b55;stroke-width:.999999" d="M317.79001 47.925h194.21001v23.96H317.79001z"/><path style="fill:#f5f5f5;stroke-width:.999999" d="M317.79001 71.87399h194.21001v23.96H317.79001z"/><path style="fill:#ff4b55;stroke-width:.999999" d="M317.79001 95.84399h194.21001v23.96H317.79001z"/><path style="fill:#f5f5f5;stroke-width:.999999" d="M317.79001 119.80499h194.21001v23.96H317.79001z"/><path style="fill:#ff4b55;stroke-width:.999999" d="M317.79001 143.76398h194.21001v23.96H317.79001z"/><path style="fill:#f5f5f5;stroke-width:.999999" d="M317.793 182.857c0 4.87499-3.953 8.828-8.828 8.828H512v-23.961H317.793z"/><path style="fill:#ff4b55;stroke-width:.999999" d="M8.83 191.685h-.002c-4.875 0-8.828-3.95301-8.828-8.828v32.78799h512V191.685H308.966z"/><path style="fill:#f5f5f5;stroke-width:.999999" d="M0 215.64499h512v23.96H0z"/><path style="fill:#ff4b55;stroke-width:.999999" d="M0 239.604h512v23.96H0z"/><path style="fill:#f5f5f5;stroke-width:.999999" d="M0 263.57501h512v23.96H0z"/><path style="fill:#ff4b55;stroke-width:.999999" d="M0 297.10399c0 5.089 1 9.941 2.799 14.385h506.4c1.8-4.443 2.799-9.295 2.799-14.385v-9.576H0z"/><path style="fill:#f5f5f5;stroke-width:.999999" d="M38.345 335.448h435.31c16.088 0 29.854-9.91301 35.545-23.96001H2.799c5.692 14.048 19.458 23.96001 35.546 23.96001z"/><path style="fill:#41479b;stroke-width:.999999" d="M8.828 191.685h300.138c4.875 0 8.828-3.95301 8.828-8.828V8.828c0-4.875-3.953-8.828-8.828-8.828H38.345C17.167.001 0 17.168 0 38.346v144.511c0 4.877 3.953 8.828 8.828 8.828z"/><path style="fill:#ffe15a" d="M83.862 184.023c0-33.387 27.1-60.47 60.456-60.47 8.393 0 16.373 1.718 23.641 4.814.943.402 1.654-.911.807-1.489-12.025-8.186-26.731-12.671-42.505-11.851-34.679 1.802-63.036 29.736-65.278 64.39-2.607 40.308 29.289 73.699 68.959 73.699 14.336 0 27.662-4.417 38.729-11.906.852-.577.146-1.892-.802-1.491-7.243 3.072-15.192 4.776-23.55 4.776-33.357-.002-60.457-27.084-60.457-60.472" transform="translate(0 -88.276)"/><path style="fill:#ffe15a" d="m222.061 184.023 25.558-9.889c1.263-.489.833-2.376-.518-2.268l-27.308 2.187 18.766-20.06c.926-.989-.28-2.5-1.45-1.818l-23.718 13.836 8.186-26.176c.404-1.292-1.338-2.131-2.095-1.009l-15.354 22.745-3.939-27.148c-.194-1.341-2.13-1.342-2.326-.001l-2.516 17.178-1.044 7.27-.402 2.702-15.354-22.727c-.758-1.122-2.502-.282-2.095 1.011l8.216 26.154-23.716-13.836c-1.17-.682-2.376.829-1.45 1.818l18.765 20.06-27.315-2.186c-1.351-.108-1.782 1.779-.518 2.268l25.581 9.889-25.582 9.891c-1.265.489-.833 2.376.518 2.268l27.316-2.187-18.766 20.111c-.925.99.284 2.5 1.453 1.816l23.715-13.885-8.216 26.154c-.406 1.292 1.336 2.133 2.095 1.01l15.354-22.726.402 2.766 1.044 7.206 2.517 17.224c.196 1.342 2.132 1.34 2.326-.001l3.939-27.193 15.354 22.745c.758 1.122 2.5.285 2.095-1.009l-8.186-26.175 23.715 13.885c1.169.684 2.377-.825 1.453-1.816l-18.767-20.11 27.309 2.187c1.351.108 1.782-1.779.518-2.268z" transform="translate(0 -88.276)"/></svg>