<?xml version="1.0" encoding="UTF-8" standalone="no"?>
<svg
   xmlns:dc="http://purl.org/dc/elements/1.1/"
   xmlns:cc="http://creativecommons.org/ns#"
   xmlns:rdf="http://www.w3.org/1999/02/22-rdf-syntax-ns#"
   xmlns:svg="http://www.w3.org/2000/svg"
   xmlns="http://www.w3.org/2000/svg"
   xmlns:sodipodi="http://sodipodi.sourceforge.net/DTD/sodipodi-0.dtd"
   xmlns:inkscape="http://www.inkscape.org/namespaces/inkscape"
   version="1.1"
   id="Layer_1"
   x="0px"
   y="0px"
   viewBox="0 0 512 335.45001"
   xml:space="preserve"
   sodipodi:docname="mz.svg"
   width="512"
   height="335.45001"
   inkscape:version="1.0.1 (c497b03c, 2020-09-10)"><metadata
   id="metadata81"><rdf:RDF><cc:Work
       rdf:about=""><dc:format>image/svg+xml</dc:format><dc:type
         rdf:resource="http://purl.org/dc/dcmitype/StillImage" /><dc:title></dc:title></cc:Work></rdf:RDF></metadata><defs
   id="defs79" /><sodipodi:namedview
   pagecolor="#ffffff"
   bordercolor="#666666"
   borderopacity="1"
   objecttolerance="10"
   gridtolerance="10"
   guidetolerance="10"
   inkscape:pageopacity="0"
   inkscape:pageshadow="2"
   inkscape:window-width="870"
   inkscape:window-height="547"
   id="namedview77"
   showgrid="false"
   inkscape:zoom="1.640625"
   inkscape:cx="256"
   inkscape:cy="256"
   inkscape:window-x="0"
   inkscape:window-y="23"
   inkscape:window-maximized="0"
   inkscape:current-layer="Layer_1" />
<path
   style="fill:#5aa587;stroke-width:1"
   d="M 473.655,0 H 38.345 C 17.167,0 0,17.167 0,38.345 v 63.539 H 512 V 38.345 C 512,17.167 494.833,0 473.655,0 Z"
   id="path10" />
<path
   style="fill:#ffe15a;stroke-width:1"
   d="m 0,297.103 c 0,21.177 17.167,38.345 38.345,38.345 h 435.31 c 21.177,0 38.345,-17.167 38.345,-38.345 V 233.564 H 0 Z"
   id="path12" />
<rect
   y="115.82401"
   style="fill:#464655;stroke-width:1"
   width="512"
   height="103.79"
   id="rect14"
   x="0" />
<g
   id="g20"
   transform="translate(0,-88.276)">
	<polygon
   style="fill:#f5f5f5"
   points="512,190.159 0,190.159 0,200.092 0,204.102 512,204.102 512,200.092 "
   id="polygon16" />
	<polygon
   style="fill:#f5f5f5"
   points="512,307.898 0,307.898 0,311.908 0,321.841 512,321.841 512,311.908 "
   id="polygon18" />
</g>
<path
   style="fill:#ff4b55;stroke-width:1"
   d="M 12.828,325.717 206.098,172.3 c 2.946,-2.339 2.946,-6.812 0,-9.151 L 12.828,9.731 C 4.959,16.754 0,26.968 0,38.345 v 258.759 c 0,11.376 4.959,21.59 12.828,28.613 z"
   id="path22" />
<path
   style="fill:#ffe15a;stroke-width:1"
   d="m 81.814001,110.301 12.905001,38.695 40.788998,0.317 c 2.281,0.018 3.226,2.929 1.391,4.284 l -32.813,24.231 12.303,38.891 c 0.687,2.175 -1.788,3.974 -3.644,2.647 L 79.559997,195.646 46.375,219.366 c -1.856,1.326 -4.332,-0.472 -3.644,-2.647 L 55.033999,177.828 22.222,153.597 c -1.835,-1.355 -0.889,-4.266 1.391,-4.284 l 40.789002,-0.317 12.904996,-38.695 c 0.724004,-2.163 3.785001,-2.163 4.507003,0 z"
   id="path24" />
<g
   id="g36"
   transform="translate(0,-88.276)">
	<path
   style="fill:#f5f5f5"
   d="m 77.196,270.447 -3.19,3.21 H 47.328 l 7.281,-26.717 2.975,-1.487 -4.776,23.82 c -0.04,0.294 0.02,0.587 0.215,0.822 0.177,0.235 0.45,0.352 0.744,0.352 z"
   id="path26" />
	<path
   style="fill:#f5f5f5"
   d="m 83.596,274.89 c -1.155,0.861 -2.564,1.351 -4.032,1.351 -1.468,0 -2.877,-0.489 -4.032,-1.351 l 4.032,-4.032 z"
   id="path28" />
	<path
   style="fill:#f5f5f5"
   d="M 111.801,273.657 H 85.123 l -3.19,-3.21 h 23.428 c 0.294,0 0.567,-0.117 0.744,-0.352 0.195,-0.235 0.255,-0.529 0.215,-0.822 l -4.776,-23.82 2.975,1.487 z"
   id="path30" />
	<path
   style="fill:#f5f5f5"
   d="M 104.168,268.49 H 80.543 v -24.369 c 3.954,-3.347 14.386,-1.057 18.809,0.313 z"
   id="path32" />
	<path
   style="fill:#f5f5f5"
   d="M 78.585,244.121 V 268.49 H 54.961 l 4.815,-24.055 c 4.424,-1.371 14.856,-3.66 18.809,-0.314 z"
   id="path34" />
</g>
<g
   id="g44"
   transform="translate(0,-88.276)">
	<path
   style="fill:#464655"
   d="M 114.033,274.381 106.301,246 c -0.078,-0.255 -0.254,-0.489 -0.509,-0.607 l -5.167,-2.583 c -0.02,-0.02 -0.04,-0.02 -0.078,-0.02 -0.02,0 -0.02,-0.02 -0.039,-0.04 -0.627,-0.215 -14.934,-4.874 -20.943,-0.313 -6.009,-4.561 -20.317,0.098 -20.943,0.313 -0.02,0.02 -0.02,0.02 -0.039,0.04 -0.04,0 -0.058,0 -0.078,0.02 l -5.167,2.583 c -0.255,0.117 -0.43,0.352 -0.509,0.607 l -7.732,28.381 c -0.078,0.294 -0.02,0.607 0.157,0.842 0.195,0.235 0.489,0.392 0.783,0.392 h 27.402 c 1.624,1.624 3.817,2.583 6.126,2.583 2.31,0 4.502,-0.959 6.126,-2.583 h 27.402 c 0.294,0 0.587,-0.157 0.783,-0.392 0.176,-0.235 0.235,-0.548 0.157,-0.842 z m -33.49,-30.26 c 3.954,-3.347 14.386,-1.057 18.809,0.313 l 4.815,24.055 H 80.543 c 0,0.001 0,-24.368 0,-24.368 z m -20.767,0.314 c 4.424,-1.37 14.856,-3.66 18.809,-0.313 v 24.369 H 54.961 Z m -12.448,29.222 7.281,-26.717 2.975,-1.487 -4.776,23.82 c -0.04,0.294 0.02,0.587 0.215,0.822 0.177,0.235 0.45,0.352 0.744,0.352 h 23.428 l -3.19,3.21 z m 32.236,2.584 c -1.468,0 -2.877,-0.489 -4.032,-1.351 l 4.032,-4.032 4.032,4.032 c -1.154,0.861 -2.563,1.351 -4.032,1.351 z m 5.559,-2.584 -3.19,-3.21 h 23.428 c 0.294,0 0.567,-0.117 0.744,-0.352 0.195,-0.235 0.255,-0.529 0.215,-0.822 l -4.776,-23.82 2.975,1.487 7.281,26.717 z"
   id="path38" />
	<path
   style="fill:#464655"
   d="m 104.034,218.558 c -0.998,0.695 -2.35,0.576 -3.211,-0.285 l -1.302,-1.302 v 3.187 l -7.967,7.967 H 88.367 L 75.621,240.872 H 72.434 L 47.926,265.38 c -0.604,0.604 -0.814,1.496 -0.544,2.306 l 1.153,3.459 -4.78,4.78 h -3.187 l -9.743,9.743 c -0.778,0.778 -0.778,2.04 0,2.819 l 6.43,6.43 c 0.928,0.928 2.45,0.87 3.304,-0.127 l 14.35,-17.272 1.593,-4.78 3.187,-3.187 6.374,9.56 4.78,-4.78 -5.099,-7.648 1.27,-1.27 c 1.235,-1.235 1.235,-3.236 0,-4.471 l -0.951,-0.951 0.895,-0.895 c 6.801,5.828 14.967,7.335 22.742,4.002 l -2.663,-6.214 c -6.424,2.753 -11.67,0.45 -15.319,-2.549 l 13.464,-13.464 -0.531,-2.656 3.718,-3.718 h 3.187 l 23.901,-23.901 z"
   id="path40" />
	<path
   style="fill:#464655"
   d="m 56.501,215.378 -3.187,3.187 c -0.879,0.879 -0.879,2.306 0,3.187 l 0.531,0.531 -5.311,1.063 -14.34,14.34 7.967,7.967 14.34,-14.34 1.062,-5.312 2.125,2.125 1.593,-1.593 53,53 3.187,-3.187 -53,-53 1.593,-1.593 -6.374,-6.374 c -0.879,-0.881 -2.305,-0.881 -3.186,-0.001 z"
   id="path42" />
</g>
<g
   id="g46"
   transform="translate(0,-88.276)">
</g>
<g
   id="g48"
   transform="translate(0,-88.276)">
</g>
<g
   id="g50"
   transform="translate(0,-88.276)">
</g>
<g
   id="g52"
   transform="translate(0,-88.276)">
</g>
<g
   id="g54"
   transform="translate(0,-88.276)">
</g>
<g
   id="g56"
   transform="translate(0,-88.276)">
</g>
<g
   id="g58"
   transform="translate(0,-88.276)">
</g>
<g
   id="g60"
   transform="translate(0,-88.276)">
</g>
<g
   id="g62"
   transform="translate(0,-88.276)">
</g>
<g
   id="g64"
   transform="translate(0,-88.276)">
</g>
<g
   id="g66"
   transform="translate(0,-88.276)">
</g>
<g
   id="g68"
   transform="translate(0,-88.276)">
</g>
<g
   id="g70"
   transform="translate(0,-88.276)">
</g>
<g
   id="g72"
   transform="translate(0,-88.276)">
</g>
<g
   id="g74"
   transform="translate(0,-88.276)">
</g>
</svg>
