<?xml version="1.0" encoding="UTF-8" standalone="no"?>
<svg
   xmlns:dc="http://purl.org/dc/elements/1.1/"
   xmlns:cc="http://creativecommons.org/ns#"
   xmlns:rdf="http://www.w3.org/1999/02/22-rdf-syntax-ns#"
   xmlns:svg="http://www.w3.org/2000/svg"
   xmlns="http://www.w3.org/2000/svg"
   xmlns:sodipodi="http://sodipodi.sourceforge.net/DTD/sodipodi-0.dtd"
   xmlns:inkscape="http://www.inkscape.org/namespaces/inkscape"
   version="1.1"
   id="Layer_1"
   x="0px"
   y="0px"
   viewBox="0 0 512 335.45001"
   xml:space="preserve"
   sodipodi:docname="na.svg"
   width="512"
   height="335.45001"
   inkscape:version="1.0.1 (c497b03c, 2020-09-10)"><metadata
   id="metadata65"><rdf:RDF><cc:Work
       rdf:about=""><dc:format>image/svg+xml</dc:format><dc:type
         rdf:resource="http://purl.org/dc/dcmitype/StillImage" /><dc:title></dc:title></cc:Work></rdf:RDF></metadata><defs
   id="defs63" /><sodipodi:namedview
   pagecolor="#ffffff"
   bordercolor="#666666"
   borderopacity="1"
   objecttolerance="10"
   gridtolerance="10"
   guidetolerance="10"
   inkscape:pageopacity="0"
   inkscape:pageshadow="2"
   inkscape:window-width="1157"
   inkscape:window-height="689"
   id="namedview61"
   showgrid="false"
   inkscape:zoom="1.640625"
   inkscape:cx="256"
   inkscape:cy="256"
   inkscape:window-x="0"
   inkscape:window-y="23"
   inkscape:window-maximized="0"
   inkscape:current-layer="Layer_1" />
<path
   style="fill:#41479b;stroke-width:1"
   d="M 38.345,0 C 17.167,0 0,17.167 0,38.345 V 256 L 388.414,0 Z"
   id="path10" />
<path
   style="fill:#73af00;stroke-width:1"
   d="m 473.655,335.448 c 21.177,0 38.345,-17.167 38.345,-38.345 V 79.448 l -388.414,256 z"
   id="path12" />
<path
   style="fill:#f5f5f5;stroke-width:1"
   d="M 473.655,0 H 383.139 L 0,251.022 v 46.081 c 0,21.177 17.167,38.345 38.345,38.345 h 90.516 L 512,84.426 V 38.345 C 512,17.167 494.833,0 473.655,0 Z"
   id="path14" />
<path
   style="fill:#ff4b55;stroke-width:1"
   d="m 473.655,0 h -42.2 L 0,282.677 v 14.426 c 0,21.177 17.167,38.345 38.345,38.345 H 80.544998 L 512,52.771 V 38.345 C 512,17.167 494.833,0 473.655,0 Z"
   id="path16" />
<g
   id="g28"
   transform="translate(0,-88.276)">
	<path
   style="fill:#ffe15a"
   d="m 90.207,145.894 c 8.691,0 16.557,3.521 22.254,9.214 l 3.125,-21.686 -17.235,13.561 -8.145,-20.362 -8.145,20.362 -17.235,-13.561 3.125,21.686 c 5.699,-5.694 13.565,-9.214 22.256,-9.214 z"
   id="path18" />
	<path
   style="fill:#ffe15a"
   d="m 67.935,199.634 c -5.693,-5.697 -9.214,-13.565 -9.214,-22.254 0,-8.691 3.521,-16.557 9.214,-22.254 L 46.249,152 59.81,169.235 39.448,177.38 59.81,185.525 46.249,202.76 Z"
   id="path20" />
	<path
   style="fill:#ffe15a"
   d="m 140.966,177.379 -20.362,-8.145 13.561,-17.234 -21.686,3.125 c 5.693,5.697 9.214,13.565 9.214,22.254 0,8.69 -3.521,16.557 -9.214,22.254 l 21.686,3.125 -13.561,-17.235 z"
   id="path22" />
	<path
   style="fill:#ffe15a"
   d="m 90.207,208.865 c -8.691,0 -16.557,-3.521 -22.254,-9.214 l -3.125,21.686 17.235,-13.561 8.145,20.362 8.145,-20.362 17.235,13.561 -3.125,-21.686 c -5.699,5.694 -13.565,9.214 -22.256,9.214 z"
   id="path24" />
	<circle
   style="fill:#ffe15a"
   cx="90.209999"
   cy="177.38"
   r="25.709"
   id="circle26" />
</g>
<g
   id="g30"
   transform="translate(0,-88.276)">
</g>
<g
   id="g32"
   transform="translate(0,-88.276)">
</g>
<g
   id="g34"
   transform="translate(0,-88.276)">
</g>
<g
   id="g36"
   transform="translate(0,-88.276)">
</g>
<g
   id="g38"
   transform="translate(0,-88.276)">
</g>
<g
   id="g40"
   transform="translate(0,-88.276)">
</g>
<g
   id="g42"
   transform="translate(0,-88.276)">
</g>
<g
   id="g44"
   transform="translate(0,-88.276)">
</g>
<g
   id="g46"
   transform="translate(0,-88.276)">
</g>
<g
   id="g48"
   transform="translate(0,-88.276)">
</g>
<g
   id="g50"
   transform="translate(0,-88.276)">
</g>
<g
   id="g52"
   transform="translate(0,-88.276)">
</g>
<g
   id="g54"
   transform="translate(0,-88.276)">
</g>
<g
   id="g56"
   transform="translate(0,-88.276)">
</g>
<g
   id="g58"
   transform="translate(0,-88.276)">
</g>
</svg>
