<?xml version="1.0" encoding="UTF-8" standalone="no"?>
<svg
   xmlns:dc="http://purl.org/dc/elements/1.1/"
   xmlns:cc="http://creativecommons.org/ns#"
   xmlns:rdf="http://www.w3.org/1999/02/22-rdf-syntax-ns#"
   xmlns:svg="http://www.w3.org/2000/svg"
   xmlns="http://www.w3.org/2000/svg"
   xmlns:sodipodi="http://sodipodi.sourceforge.net/DTD/sodipodi-0.dtd"
   xmlns:inkscape="http://www.inkscape.org/namespaces/inkscape"
   version="1.1"
   id="Layer_1"
   x="0px"
   y="0px"
   viewBox="0 0 512 335.45001"
   xml:space="preserve"
   sodipodi:docname="nato.svg"
   width="512"
   height="335.45001"
   inkscape:version="1.0.1 (c497b03c, 2020-09-10)"><metadata
   id="metadata59"><rdf:RDF><cc:Work
       rdf:about=""><dc:format>image/svg+xml</dc:format><dc:type
         rdf:resource="http://purl.org/dc/dcmitype/StillImage" /><dc:title></dc:title></cc:Work></rdf:RDF></metadata><defs
   id="defs57" /><sodipodi:namedview
   pagecolor="#ffffff"
   bordercolor="#666666"
   borderopacity="1"
   objecttolerance="10"
   gridtolerance="10"
   guidetolerance="10"
   inkscape:pageopacity="0"
   inkscape:pageshadow="2"
   inkscape:window-width="991"
   inkscape:window-height="480"
   id="namedview55"
   showgrid="false"
   inkscape:zoom="1.640625"
   inkscape:cx="256"
   inkscape:cy="256"
   inkscape:window-x="0"
   inkscape:window-y="23"
   inkscape:window-maximized="0"
   inkscape:current-layer="Layer_1" />
<path
   style="fill:#41479b;stroke-width:0.999999"
   d="M 473.655,335.448 H 38.345 C 17.167,335.448 0,318.28099 0,297.10299 V 38.345 C 0,17.168 17.167,0 38.345,0 h 435.31 C 494.832,0 512,17.167 512,38.345 v 258.75899 c 0,21.177 -17.167,38.34401 -38.345,38.34401 z"
   id="path10" />
<g
   id="g22"
   transform="translate(0,-88.276)">
	<path
   style="fill:#f5f5f5"
   d="m 353.582,253.845 -25.316,-5.626 C 324.63,214.303 297.7,187.387 263.785,183.748 l -5.629,-25.33 c -0.448,-2.017 -3.862,-2.017 -4.31,0 l -5.615,25.27 c -33.93,3.629 -60.855,30.604 -64.493,64.531 l -25.319,5.626 c -1.01,0.224 -1.729,1.121 -1.729,2.155 0,1.034 0.719,1.931 1.728,2.155 l 25.319,5.626 c 3.637,33.921 30.563,60.865 64.486,64.499 l 5.622,25.301 c 0.225,1.01 1.122,1.729 2.156,1.729 1.034,0 1.931,-0.719 2.155,-1.728 l 5.631,-25.34 c 33.912,-3.639 60.842,-30.547 64.479,-64.46 l 25.318,-5.626 c 1.009,-0.225 1.728,-1.121 1.728,-2.156 0,-1.035 -0.721,-1.931 -1.73,-2.155 z m -29.785,-6.62 -48.291,-10.731 -10.726,-48.264 c 30.702,3.961 55.061,28.292 59.017,58.995 z m -76.575,-59.003 -10.728,48.274 -48.276,10.728 c 3.96,-30.702 28.303,-55.043 59.004,-59.002 z m -9.58,52.54 15.237,15.238 h -83.81 z m -49.422,24.016 48.276,10.728 10.73,48.286 C 216.521,319.835 192.178,295.48 188.22,264.778 Z M 256,342.931 240.762,274.357 256,259.121 Z m 0,-90.052 v -83.81 l 15.238,68.574 z m 8.788,70.854 10.717,-48.228 48.29,-10.731 c -3.955,30.697 -28.311,54.993 -59.007,58.959 z m 9.57,-52.495 L 259.121,256 h 83.81 z"
   id="path12" />
	<path
   style="fill:#f5f5f5"
   d="M 141.241,258.207 H 17.655 c -1.219,0 -2.207,-0.988 -2.207,-2.207 0,-1.219 0.988,-2.207 2.207,-2.207 h 123.586 c 1.219,0 2.207,0.988 2.207,2.207 0,1.219 -0.987,2.207 -2.207,2.207 z"
   id="path14" />
	<path
   style="fill:#f5f5f5"
   d="M 494.345,258.207 H 370.759 c -1.219,0 -2.207,-0.988 -2.207,-2.207 0,-1.219 0.988,-2.207 2.207,-2.207 h 123.586 c 1.219,0 2.207,0.988 2.207,2.207 0,1.219 -0.988,2.207 -2.207,2.207 z"
   id="path16" />
	<path
   style="fill:#f5f5f5"
   d="m 256,143.448 c -1.219,0 -2.207,-0.988 -2.207,-2.207 v -35.31 c 0,-1.219 0.988,-2.207 2.207,-2.207 1.219,0 2.207,0.988 2.207,2.207 v 35.31 c 0,1.22 -0.988,2.207 -2.207,2.207 z"
   id="path18" />
	<path
   style="fill:#f5f5f5"
   d="m 256,408.276 c -1.219,0 -2.207,-0.988 -2.207,-2.207 v -35.31 c 0,-1.219 0.988,-2.207 2.207,-2.207 1.219,0 2.207,0.988 2.207,2.207 v 35.31 c 0,1.219 -0.988,2.207 -2.207,2.207 z"
   id="path20" />
</g>
<g
   id="g24"
   transform="translate(0,-88.276)">
</g>
<g
   id="g26"
   transform="translate(0,-88.276)">
</g>
<g
   id="g28"
   transform="translate(0,-88.276)">
</g>
<g
   id="g30"
   transform="translate(0,-88.276)">
</g>
<g
   id="g32"
   transform="translate(0,-88.276)">
</g>
<g
   id="g34"
   transform="translate(0,-88.276)">
</g>
<g
   id="g36"
   transform="translate(0,-88.276)">
</g>
<g
   id="g38"
   transform="translate(0,-88.276)">
</g>
<g
   id="g40"
   transform="translate(0,-88.276)">
</g>
<g
   id="g42"
   transform="translate(0,-88.276)">
</g>
<g
   id="g44"
   transform="translate(0,-88.276)">
</g>
<g
   id="g46"
   transform="translate(0,-88.276)">
</g>
<g
   id="g48"
   transform="translate(0,-88.276)">
</g>
<g
   id="g50"
   transform="translate(0,-88.276)">
</g>
<g
   id="g52"
   transform="translate(0,-88.276)">
</g>
</svg>
