<svg xmlns="http://www.w3.org/2000/svg" xml:space="preserve" width="512" height="335.45001"><path d="M512 297.10504v-73.47168H321.74579c-19.36066 33.38794-55.49481 55.89374-96.78912 55.89374s-77.42847-22.5058-96.78913-55.89374H1.3233v83.41284c4.40815 16.30988 19.3678 28.40381 37.02167 28.40381h435.31006c21.08972 0 38.34497-17.25525 38.34497-38.34497z" style="fill:#009543"/><path d="M113.1549 167.72498c0-20.3534 5.4701-39.4519 15.0127-55.90833H1.3233v111.81671h126.84424c-9.5426-16.45642-15.01263-35.555-15.01263-55.90838zm223.60352 0c0 20.35339-5.47003 39.45196-15.01263 55.90838H512V111.81665H321.74573c9.5426 16.45642 15.0127 35.55493 15.0127 55.90833z" style="fill:#ed4135"/><path d="M224.95666 55.92328c41.29426 0 77.42841 22.50561 96.78907 55.89337H512V38.34497C512 17.25525 494.74475 0 473.65503 0H38.34497C20.6911 0 5.73145 12.09393 1.3233 28.4038v83.41285h126.8443c19.36066-33.38776 55.49481-55.89337 96.78906-55.89337z" style="fill:#0035ad"/><path d="M116.88214 167.72498c0 44.41815 26.93811 82.65783 65.33258 99.25524 4.52448-4.66381 16.99524-17.034 22.1148-21.07153 3.77235-2.97412 10.99104-4.59643 18.39082-4.78937v-5.11395c-5.72467-1.5304-10.06348-8.82086-10.06348-17.59015 0-8.76922 4.3388-16.05969 10.06348-17.59015v-1.61566c-5.5694.84558-11.14453 4.78131-13.67005 11.02484-5.4906 13.57392-10.1842 19.36267-10.1842 19.36267s2.91455-12.26934 4.38861-28.05609c.67865-7.26782 6.8031-12.36352 19.46564-12.89459v-2.2851h-16.39978v-4.47271h16.39978v-2.23456c-7.1701-.68457-12.67255-4.59015-12.67255-9.31982s5.50244-8.6352 12.67255-9.31983v-2.23456h-16.39978v-4.47265h16.39978v-2.25177c-8.5982-.13416-19.48688-1.45716-20.12702-13.77527-.43652-8.40137-3.35449-16.77252-3.35449-16.77252s6.20178 7.45196 8.57263 12.29986c4.25513 8.7008 9.23938 10.46643 14.90888 10.75714v-3.11566c-7.1701-1.08148-12.67255-7.2514-12.67255-14.7232 0-7.47187 5.50244-13.64179 12.67255-14.72327V99.5105c-4.93439 3.0252-8.60279 3.65399-9.79883 4.62811-2.72687 2.21991-3.8778 2.06787-3.8778 2.06787.19451-2.00378.37566-10.19696.51806-10.98639 1.06982-5.9306 6.4234-8.59985 13.15857-11.58795V59.6789c-58.56385 1.19538-105.8382 49.20118-105.8382 108.04609zM227.193 59.6789v21.96063c4.52917-2.06983 9.36169-4.56873 13.77587-8.39179 2.01862-1.74847 1.87403-2.0678 1.87403-2.0678l.00445.01c-.00445-.01 1.29187 2.14002-1.42602 7.034-4.93 8.87854-9.86506 14.45544-14.22834 18.07416v15.70422c7.1701 1.08148 12.67255 7.2514 12.67255 14.72327 0 7.4718-5.50244 13.64172-12.67255 14.7232v3.11566c5.6695-.2907 10.65375-2.05633 14.90888-10.75714 2.3709-4.8479 8.57263-12.29986 8.57263-12.29986s-2.91797 8.37115-3.3545 16.77252c-.64007 12.31811-11.5288 13.64111-20.127 13.77527v2.25177h16.39977v4.47265H227.193v2.23456c7.1701.68463 12.67255 4.59015 12.67255 9.31983s-5.50244 8.63525-12.67255 9.31982v2.23456h16.39978v4.47271H227.193v2.2851c12.66254.53107 18.78705 5.62677 19.4657 12.8946 1.47406 15.78674 4.38855 28.05608 4.38855 28.05608s-4.6936-5.78875-10.1842-19.36267c-2.52545-6.24353-8.10065-10.17926-13.67005-11.02484v1.6156c5.72467 1.5304 10.06348 8.82099 10.06348 17.59021 0 8.76929-4.3388 16.05982-10.06348 17.59021v5.17334c6.69025.3537 12.98505 1.9076 16.41028 4.72992 6.44006 5.30866 17.71881 17.1684 22.14783 21.88928 39.4278-16.13171 67.28009-54.90771 67.28009-100.073 0-58.8449-47.27435-106.8507-105.8382-108.04608z" style="fill:#fae600"/><path d="M321.74573 111.81665c-19.36066-33.38776-55.49481-55.89337-96.78906-55.89337s-77.42841 22.50561-96.78907 55.89337c-9.5426 16.45642-15.0127 35.55493-15.0127 55.90833s5.47004 39.45196 15.01264 55.90838c19.36066 33.38794 55.49481 55.89374 96.78912 55.89374s77.42847-22.5058 96.78913-55.89374c9.5426-16.45642 15.01263-35.555 15.01263-55.90838s-5.47009-39.4519-15.0127-55.90833zm-99.0254-28.1845c-6.73516 2.98809-12.08874 5.65734-13.15856 11.58794-.1424.78943-.32355 8.9826-.51807 10.9864 0 0 1.15094.15203 3.8778-2.06788 1.19605-.97412 4.86445-1.6029 9.79884-4.62811v12.49182c-7.1701 1.08148-12.67255 7.2514-12.67255 14.72327 0 7.4718 5.50244 13.64172 12.67255 14.7232v3.11566c-5.6695-.2907-10.65375-2.05633-14.90888-10.75714-2.37085-4.8479-8.57263-12.29986-8.57263-12.29986s2.91797 8.37115 3.3545 16.77252c.64013 12.31811 11.5288 13.64111 20.127 13.77527v2.25177h-16.39977v4.47265h16.39978v2.23456c-7.1701.68463-12.67255 4.59015-12.67255 9.31983s5.50244 8.63525 12.67255 9.31982v2.23456h-16.39978v4.47272h16.39978v2.28509c-12.66254.53107-18.78699 5.62677-19.46564 12.8946-1.47406 15.78674-4.38861 28.05608-4.38861 28.05608s4.6936-5.78875 10.1842-19.36267c2.52552-6.24353 8.10065-10.17926 13.67005-11.02484v1.61566c-5.72467 1.53046-10.06348 8.82093-10.06348 17.59015 0 8.76929 4.3388 16.05976 10.06348 17.59015v5.11395c-7.39978.19294-14.61847 1.81525-18.39081 4.78937-5.11957 4.03754-17.59033 16.40772-22.1148 21.07153-38.39448-16.5974-65.33259-54.8371-65.33259-99.25524 0-58.84491 47.27435-106.85071 105.8382-108.04609v23.95325zm43.03077 184.16582c-4.42902-4.72088-15.70777-16.58062-22.14783-21.88928-3.42523-2.82233-9.72003-4.37622-16.41028-4.72992v-5.17334c5.72467-1.5304 10.06348-8.82092 10.06348-17.5902 0-8.76923-4.3388-16.05982-10.06348-17.59022v-1.6156c5.5694.84558 11.1446 4.78131 13.67005 11.02484 5.4906 13.57392 10.1842 19.36267 10.1842 19.36267s-2.91449-12.26934-4.38855-28.05609c-.67865-7.26782-6.80316-12.36352-19.4657-12.89459v-2.2851h16.39978v-4.47271H227.193v-2.23456c7.1701-.68457 12.67255-4.59015 12.67255-9.31982s-5.50244-8.6352-12.67255-9.31983v-2.23456h16.39978v-4.47265H227.193v-2.25177c8.5982-.13416 19.48694-1.45716 20.12702-13.77527.43652-8.40137 3.35449-16.77252 3.35449-16.77252s-6.20172 7.45196-8.57263 12.29986c-4.25513 8.7008-9.23938 10.46643-14.90888 10.75714v-3.11566c7.1701-1.08148 12.67255-7.2514 12.67255-14.7232 0-7.47187-5.50244-13.64179-12.67255-14.72327V96.2981c4.36328-3.61872 9.29834-9.19562 14.22834-18.07416 2.7179-4.89398 1.42157-7.044 1.42602-7.034l-.00445-.01s.14459.31933-1.87403 2.0678c-4.41418 3.82306-9.2467 6.32196-13.77588 8.39179V59.67889c58.56385 1.19538 105.8382 49.20118 105.8382 108.04609 0 45.16528-27.8523 83.94128-67.2801 100.073z"/></svg>