<svg xmlns="http://www.w3.org/2000/svg" viewBox="0 0 512.09998 335.5" style="enable-background:new 0 0 512.0999756 335.5" xml:space="preserve"><path style="fill:#f5f5f5" d="M0 111.83299h512.09998v111.83402H0z"/><path d="M0 299.5268C0 319.39443 16.3898 335.5 36.60574 335.5h438.88848c20.21698 0 36.60575-16.10556 36.60575-35.9732v-75.85978H0v75.85977z" style="fill:#259245"/><path d="M475.49423 0H36.60573C16.38877 0 0 16.10557 0 35.97218V111.833h512.09998V35.9722C512.09998 16.10455 495.7112 0 475.49423 0zM256.04999 136.99535c-17.2559 0-31.29544 13.79693-31.29544 30.75465s14.03953 30.75465 31.29544 30.75465 31.29544-13.79695 31.29544-30.75465-14.03952-30.75465-31.29544-30.75465z" style="fill:#ff7900"/></svg>
