<?xml version="1.0" encoding="UTF-8" standalone="no"?>
<svg
   xmlns:dc="http://purl.org/dc/elements/1.1/"
   xmlns:cc="http://creativecommons.org/ns#"
   xmlns:rdf="http://www.w3.org/1999/02/22-rdf-syntax-ns#"
   xmlns:svg="http://www.w3.org/2000/svg"
   xmlns="http://www.w3.org/2000/svg"
   xmlns:sodipodi="http://sodipodi.sourceforge.net/DTD/sodipodi-0.dtd"
   xmlns:inkscape="http://www.inkscape.org/namespaces/inkscape"
   version="1.1"
   id="Layer_1"
   x="0px"
   y="0px"
   viewBox="0 0 512 335.45001"
   xml:space="preserve"
   sodipodi:docname="nf.svg"
   width="512"
   height="335.45001"
   inkscape:version="1.0.1 (c497b03c, 2020-09-10)"><metadata
   id="metadata770"><rdf:RDF><cc:Work
       rdf:about=""><dc:format>image/svg+xml</dc:format><dc:type
         rdf:resource="http://purl.org/dc/dcmitype/StillImage" /><dc:title></dc:title></cc:Work></rdf:RDF></metadata><defs
   id="defs768" /><sodipodi:namedview
   pagecolor="#ffffff"
   bordercolor="#666666"
   borderopacity="1"
   objecttolerance="10"
   gridtolerance="10"
   guidetolerance="10"
   inkscape:pageopacity="0"
   inkscape:pageshadow="2"
   inkscape:window-width="849"
   inkscape:window-height="480"
   id="namedview766"
   showgrid="false"
   inkscape:zoom="0.61328125"
   inkscape:cx="256"
   inkscape:cy="256"
   inkscape:window-x="0"
   inkscape:window-y="23"
   inkscape:window-maximized="0"
   inkscape:current-layer="Layer_1" />
<path
   style="fill:#73af00"
   d="M 38.345,0 C 17.167,0 0,17.167 0,38.345 v 258.759 c 0,21.177 17.167,38.345 38.345,38.345 H 170.667 V 0 Z"
   id="path725" />
<rect
   x="170.67"
   y="0.0040004272"
   style="fill:#f5f5f5"
   width="170.67"
   height="335.45001"
   id="rect727" />
<g
   id="g733"
   transform="translate(0,-88.273)">
	<path
   style="fill:#73af00"
   d="M 473.655,88.273 H 341.333 v 335.448 h 132.322 c 21.177,0 38.345,-17.167 38.345,-38.345 V 126.618 C 512,105.44 494.833,88.273 473.655,88.273 Z"
   id="path729" />
	<path
   style="fill:#73af00"
   d="M 314.959,342.596 287.563,182.784 c -1.046,-6.102 -3.217,-11.957 -6.402,-17.266 L 256,123.583 230.839,165.518 c -3.186,5.309 -5.356,11.164 -6.402,17.266 l -27.396,159.813 c -0.523,3.052 1.827,5.841 4.925,5.841 h 44.041 v 39.973 h 19.987 v -39.974 h 44.041 c 3.097,0 5.447,-2.788 4.924,-5.841 z"
   id="path731" />
</g>
<g
   id="g735"
   transform="translate(0,-88.273)">
</g>
<g
   id="g737"
   transform="translate(0,-88.273)">
</g>
<g
   id="g739"
   transform="translate(0,-88.273)">
</g>
<g
   id="g741"
   transform="translate(0,-88.273)">
</g>
<g
   id="g743"
   transform="translate(0,-88.273)">
</g>
<g
   id="g745"
   transform="translate(0,-88.273)">
</g>
<g
   id="g747"
   transform="translate(0,-88.273)">
</g>
<g
   id="g749"
   transform="translate(0,-88.273)">
</g>
<g
   id="g751"
   transform="translate(0,-88.273)">
</g>
<g
   id="g753"
   transform="translate(0,-88.273)">
</g>
<g
   id="g755"
   transform="translate(0,-88.273)">
</g>
<g
   id="g757"
   transform="translate(0,-88.273)">
</g>
<g
   id="g759"
   transform="translate(0,-88.273)">
</g>
<g
   id="g761"
   transform="translate(0,-88.273)">
</g>
<g
   id="g763"
   transform="translate(0,-88.273)">
</g>
</svg>
