<svg xmlns="http://www.w3.org/2000/svg" xml:space="preserve" width="512" height="335.45001"><path style="fill:#73af00" d="M38.345 0C17.167 0 0 17.167 0 38.345v258.759c0 21.177 17.167 38.345 38.345 38.345h132.322V0z"/><path style="fill:#f5f5f5" d="M170.67.004h170.67v335.45001H170.67z"/><path style="fill:#73af00" d="M473.655 88.273H341.333v335.448h132.322c21.177 0 38.345-17.167 38.345-38.345V126.618c0-21.178-17.167-38.345-38.345-38.345zM314.959 342.596l-27.396-159.812a49.97632 49.97632 0 0 0-6.402-17.266L256 123.583l-25.161 41.935c-3.186 5.309-5.356 11.164-6.402 17.266l-27.396 159.813c-.523 3.052 1.827 5.841 4.925 5.841h44.041v39.973h19.987v-39.974h44.041c3.097 0 5.447-2.788 4.924-5.841z" transform="translate(0 -88.273)"/></svg>