<?xml version="1.0" encoding="UTF-8" standalone="no"?>
<svg
   xmlns:dc="http://purl.org/dc/elements/1.1/"
   xmlns:cc="http://creativecommons.org/ns#"
   xmlns:rdf="http://www.w3.org/1999/02/22-rdf-syntax-ns#"
   xmlns:svg="http://www.w3.org/2000/svg"
   xmlns="http://www.w3.org/2000/svg"
   xmlns:sodipodi="http://sodipodi.sourceforge.net/DTD/sodipodi-0.dtd"
   xmlns:inkscape="http://www.inkscape.org/namespaces/inkscape"
   version="1.1"
   id="Layer_1"
   x="0px"
   y="0px"
   viewBox="0 0 512 335.45001"
   xml:space="preserve"
   sodipodi:docname="nigeria-svgrepo-com.svg"
   width="512"
   height="335.45001"
   inkscape:version="1.0.1 (c497b03c, 2020-09-10)"><metadata
   id="metadata638"><rdf:RDF><cc:Work
       rdf:about=""><dc:format>image/svg+xml</dc:format><dc:type
         rdf:resource="http://purl.org/dc/dcmitype/StillImage" /><dc:title></dc:title></cc:Work></rdf:RDF></metadata><defs
   id="defs636" /><sodipodi:namedview
   pagecolor="#ffffff"
   bordercolor="#666666"
   borderopacity="1"
   objecttolerance="10"
   gridtolerance="10"
   guidetolerance="10"
   inkscape:pageopacity="0"
   inkscape:pageshadow="2"
   inkscape:window-width="823"
   inkscape:window-height="480"
   id="namedview634"
   showgrid="false"
   inkscape:zoom="0.765625"
   inkscape:cx="256"
   inkscape:cy="256"
   inkscape:window-x="0"
   inkscape:window-y="23"
   inkscape:window-maximized="0"
   inkscape:current-layer="Layer_1" />
<path
   style="fill:#73af00"
   d="M 38.345,0 C 17.167,0 0,17.167 0,38.345 v 258.759 c 0,21.177 17.167,38.345 38.345,38.345 H 170.667 V 0 Z"
   id="path597" />
<rect
   x="170.67"
   y="0.0040004272"
   style="fill:#f5f5f5"
   width="170.67"
   height="335.45001"
   id="rect599" />
<path
   style="fill:#73af00"
   d="M 473.655,0 H 341.333 v 335.448 h 132.322 c 21.177,0 38.345,-17.167 38.345,-38.345 V 38.345 C 512,17.167 494.833,0 473.655,0 Z"
   id="path601" />
<g
   id="g603"
   transform="translate(0,-88.273)">
</g>
<g
   id="g605"
   transform="translate(0,-88.273)">
</g>
<g
   id="g607"
   transform="translate(0,-88.273)">
</g>
<g
   id="g609"
   transform="translate(0,-88.273)">
</g>
<g
   id="g611"
   transform="translate(0,-88.273)">
</g>
<g
   id="g613"
   transform="translate(0,-88.273)">
</g>
<g
   id="g615"
   transform="translate(0,-88.273)">
</g>
<g
   id="g617"
   transform="translate(0,-88.273)">
</g>
<g
   id="g619"
   transform="translate(0,-88.273)">
</g>
<g
   id="g621"
   transform="translate(0,-88.273)">
</g>
<g
   id="g623"
   transform="translate(0,-88.273)">
</g>
<g
   id="g625"
   transform="translate(0,-88.273)">
</g>
<g
   id="g627"
   transform="translate(0,-88.273)">
</g>
<g
   id="g629"
   transform="translate(0,-88.273)">
</g>
<g
   id="g631"
   transform="translate(0,-88.273)">
</g>
</svg>
