<svg xmlns="http://www.w3.org/2000/svg" xml:space="preserve" width="512" height="335.45001"><path style="fill:#41479b" d="M473.655 88.276H38.345C17.167 88.276 0 105.443 0 126.621v73.471h512v-73.471c0-21.178-17.167-38.345-38.345-38.345zM0 385.379c0 21.177 17.167 38.345 38.345 38.345h435.31c21.177 0 38.345-17.167 38.345-38.345v-73.471H0z" transform="translate(0 -88.276)"/><path style="fill:#f5f5f5" d="M0 111.814h512v111.81H0z"/><path style="fill:#afebff" transform="translate(0 -88.276)" d="M282.927 263.276 256 223.677l-26.927 39.599z"/><path style="fill:#557de6" transform="translate(0 -88.276)" d="m300.351 288.619-17.424-25.343h-53.854l-17.424 25.343z"/><path style="fill:#73af00" d="M262.891 261.063c.107-.222.22-.438.317-.664-.096.224-.21.443-.317.664zm.742-1.825c.066-.199.146-.392.203-.594-.058.201-.138.394-.203.594zm-1.658 3.486c.136-.217.27-.433.397-.655-.126.223-.262.439-.397.655zm4.116-7.377c-.241 0-.472.04-.685.111.213-.072.444-.111.685-.111zm-1.261.418c-.335.262-.565.627-.617 1.043l-.001.002.001-.002c.053-.416.281-.782.617-1.043zm-.817 11.819c.377.358.751.698 1.127 1.024 2.01-1.74 4.108-3.951 5.58-6.538-.106.185-.22.365-.332.546-1.375-2.528-2.101-4.715-2.453-6.012-.201-.74-.967-1.256-1.842-1.257.337 2.955 1.061 8.383-2.08 12.237zm7.967-8.346c.066-.199.146-.392.203-.594-.057.201-.137.394-.203.594zm1.198-3.473c-.335.262-.565.627-.617 1.043v.002-.002c.053-.416.281-.782.617-1.043zm-1.939 5.298c.107-.222.22-.438.317-.664-.097.224-.21.443-.317.664z" transform="translate(0 -88.276)"/><path style="fill:#73af00" d="M288.339 269.612c-3.053 0-5.942-1.465-7.706-3.958-2.657-3.754-3.862-7.254-4.349-9.049-.201-.742-.969-1.258-1.845-1.258l.003.001c.401 3.526 1.358 10.575-4.371 14.264h-3.73c-.153-.121-.302-.237-.459-.365.003.003.007.007.01.009-1.044 1.363-3.132 1.745-4.751.91-6.778-3.492-5.726-11.11-5.303-14.818-.875.001-1.641.516-1.842 1.257-.352 1.297-1.078 3.484-2.453 6.012-.111-.182-.226-.361-.331-.546 1.656 2.91 4.113 5.366 6.333 7.186-1.044 1.363-3.132 1.745-4.751.91-6.779-3.492-5.726-11.11-5.304-14.818-.875.001-1.641.516-1.842 1.257-.352 1.297-1.078 3.484-2.452 6.012-.111-.182-.226-.361-.332-.546 1.656 2.91 4.113 5.366 6.333 7.186-1.044 1.363-3.132 1.745-4.751.91-6.778-3.492-5.726-11.11-5.303-14.818l.003-.001c-.876 0-1.644.515-1.845 1.258-.487 1.796-1.692 5.295-4.349 9.049-1.763 2.493-4.652 3.958-7.706 3.958h-2.508v3.168h66.526v-3.168h-.925z" transform="translate(0 -88.276)"/><path style="fill:#73af00" d="M258.723 260.398c.097.226.21.444.317.664-.106-.22-.22-.439-.317-.664zm-.625-1.755c.056.202.137.395.203.594-.067-.199-.147-.392-.203-.594zm-.379-1.833v-.002c-.052-.416-.28-.781-.617-1.043.335.262.565.627.617 1.043zm1.841 5.26c.127.223.262.438.397.655-.136-.217-.27-.433-.397-.655zm1.455 2.195c-.017-.021-.031-.043-.047-.065.136-.181.266-.363.397-.548-.13.184-.264.366-.398.546-.136-.18-.269-.361-.398-.546.145.208.293.411.446.613zm.696.877c.154.185.308.37.466.548-.158-.178-.312-.363-.466-.548zm1.692 1.858c-.148-.148-.292-.303-.438-.456.147.154.29.308.438.456z" transform="translate(0 -88.276)"/><path style="fill:#ffe15a" d="m274.442 167.072-.003-.001c-.481 0-.925.157-1.261.418-.335.262-.565.627-.617 1.043v.002c-.078.625-.211 1.234-.378 1.833-.056.202-.137.395-.203.594-.13.392-.262.782-.424 1.161-.097.226-.21.444-.317.664-.164.34-.332.679-.519 1.007-1.472 2.586-3.57 4.798-5.58 6.538-.375-.324-.749-.665-1.127-1.024 3.14-3.853 2.417-9.282 2.081-12.236l-.003-.001c-.241 0-.472.04-.685.111-.213.072-.408.177-.576.307-.335.262-.565.627-.617 1.043l-.001.002c-.078.625-.211 1.234-.378 1.833-.056.202-.137.395-.203.594-.129.392-.262.782-.424 1.161-.097.226-.21.444-.317.664-.164.34-.332.679-.519 1.007-.127.223-.262.438-.397.655-.196.314-.397.625-.61.927-.13.185-.262.369-.397.548-.136-.181-.27-.363-.401-.548-.213-.302-.414-.612-.61-.927-.136-.217-.27-.433-.397-.655-.188-.329-.354-.667-.519-1.007-.107-.222-.22-.438-.317-.664-.162-.378-.295-.769-.424-1.161-.066-.199-.146-.392-.203-.594-.168-.598-.3-1.208-.378-1.833v-.002c-.052-.417-.28-.781-.617-1.043-.337-.262-.779-.418-1.26-.418l-.003.001c-.422 3.709-1.475 11.326 5.303 14.818 1.143.589 2.515.566 3.591.024.687-.346 1.425-.578 2.194-.578h3.146c5.728-3.688 4.772-10.738 4.37-14.263z"/><path style="fill:#73af00" d="M249.749 258.643c.056.202.137.395.203.594-.066-.199-.146-.392-.203-.594zm-.379-1.833-.001-.002c-.052-.416-.28-.781-.617-1.043.335.262.565.627.617 1.043zm1.006 3.588c.097.226.21.444.317.664-.108-.22-.22-.439-.317-.664zm-2.882-5.051c.241 0 .472.04.685.111-.214-.072-.445-.111-.685-.111z" transform="translate(0 -88.276)"/><path style="fill:#ffe15a" d="M252.793 181.889c1.62.834 3.708.452 4.751-.91-2.22-1.82-4.676-4.275-6.333-7.186-.188-.329-.354-.666-.519-1.007-.107-.222-.22-.438-.317-.664-.162-.378-.295-.769-.424-1.161-.066-.199-.146-.392-.203-.594-.168-.598-.3-1.208-.378-1.833l-.001-.002c-.052-.417-.28-.781-.617-1.043-.168-.13-.363-.235-.576-.307-.213-.072-.444-.111-.685-.111l-.003.001c-.42 3.709-1.473 11.325 5.305 14.817z"/><path style="fill:#73af00" d="M241.401 258.643c.056.202.137.395.203.594-.066-.199-.146-.392-.203-.594zm.627 1.755c.097.226.21.444.317.664-.107-.22-.221-.439-.317-.664zm-1.005-3.588v-.002c-.052-.416-.28-.781-.617-1.043.335.262.565.627.617 1.043z" transform="translate(0 -88.276)"/><path style="fill:#ffe15a" d="M244.446 181.889c1.62.834 3.708.452 4.751-.91-2.22-1.82-4.676-4.275-6.333-7.186-.186-.329-.354-.666-.519-1.007-.107-.222-.22-.438-.317-.664-.162-.378-.295-.769-.424-1.161-.066-.199-.146-.392-.203-.594-.168-.598-.3-1.208-.378-1.833v-.002c-.052-.417-.28-.781-.617-1.043-.335-.262-.779-.418-1.26-.418l-.003.001c-.423 3.709-1.477 11.325 5.303 14.817z"/><path style="fill:#41479b" d="M242.655 154.476c-.131.505-.264 1.011-.395 1.516 4.324-1.297 9.096-2.076 14.274-2.076 5.177.003 9.95.776 14.274 2.076-.131-.505-.264-1.011-.395-1.516-4.301-1.11-8.93-1.748-13.879-1.746-4.948-.001-9.577.636-13.879 1.746z"/><path style="fill:#5aa0e6" d="M242.827 153.817c-.131.505-.264 1.011-.395 1.516 4.276-1.3 8.99-2.08 14.102-2.082 5.113.002 9.826.781 14.102 2.082-.131-.505-.264-1.011-.395-1.516-4.253-1.118-8.823-1.751-13.707-1.752-4.885.001-9.454.637-13.707 1.752z"/><path style="fill:#9bc800" d="M242.986 153.208c-.131.505-.264 1.011-.395 1.516 4.234-1.304 8.892-2.09 13.943-2.088 5.053 0 9.71.783 13.943 2.088-.131-.505-.264-1.011-.395-1.516-4.207-1.117-8.723-1.759-13.548-1.759-4.825-.001-9.34.641-13.548 1.759z"/><path style="fill:#ffe14e" d="M243.167 152.512c-.131.505-.264 1.011-.395 1.516 4.184-1.309 8.78-2.095 13.762-2.095 4.982.002 9.578.786 13.762 2.095-.131-.505-.264-1.011-.395-1.516-4.158-1.122-8.609-1.764-13.367-1.766-4.758.001-9.21.644-13.367 1.766z"/><path style="fill:#ffb14e" d="M243.346 151.828c-.131.505-.264 1.011-.395 1.516 4.136-1.312 8.668-2.101 13.583-2.102 4.915.003 9.448.788 13.583 2.102-.131-.505-.264-1.011-.395-1.516-4.106-1.124-8.497-1.772-13.188-1.773-4.691.003-9.081.646-13.188 1.773z"/><path style="fill:#ff4b55" d="M243.421 151.536c-.093.354-.184.708-.277 1.062 4.082-1.314 8.55-2.111 13.389-2.11 4.841-.002 9.308.793 13.389 2.11-.093-.354-.184-.707-.277-1.062-4.085-1.127-8.45-1.774-13.112-1.775-4.662-.003-9.026.647-13.112 1.775z"/><path style="fill:#ffe15a" d="M300.352 201.881h-88.703c-.585 0-1.121-.322-1.397-.835-.275-.516-.244-1.141.079-1.628l44.352-66.527c.588-.878 2.048-.878 2.636 0l44.352 66.527c.323.486.354 1.111.078 1.628-.276.514-.813.835-1.397.835zm-85.745-3.168h82.785L256 136.626z"/><path style="fill:#ff4b55" d="M259.029 160.656c0-1.394-1.412-3.512-3.673-3.512-1.321 0-2.392.808-2.392 1.803 0 .498.267.947.698 1.273-.002.019-.003.038-.004.055-.54.331-.892.829-.892 1.394 0 .95.979 1.72 2.216 1.79l1.018 2.036.919-1.838c1.207-.307 2.11-1.532 2.11-3.001z"/></svg>