<?xml version="1.0" encoding="UTF-8" standalone="no"?>
<svg
   xmlns:dc="http://purl.org/dc/elements/1.1/"
   xmlns:cc="http://creativecommons.org/ns#"
   xmlns:rdf="http://www.w3.org/1999/02/22-rdf-syntax-ns#"
   xmlns:svg="http://www.w3.org/2000/svg"
   xmlns="http://www.w3.org/2000/svg"
   xmlns:sodipodi="http://sodipodi.sourceforge.net/DTD/sodipodi-0.dtd"
   xmlns:inkscape="http://www.inkscape.org/namespaces/inkscape"
   version="1.1"
   id="Layer_1"
   x="0px"
   y="0px"
   viewBox="0 0 512 335.45001"
   xml:space="preserve"
   sodipodi:docname="ni.svg"
   width="512"
   height="335.45001"
   inkscape:version="1.0.1 (c497b03c, 2020-09-10)"><metadata
   id="metadata587"><rdf:RDF><cc:Work
       rdf:about=""><dc:format>image/svg+xml</dc:format><dc:type
         rdf:resource="http://purl.org/dc/dcmitype/StillImage" /><dc:title></dc:title></cc:Work></rdf:RDF></metadata><defs
   id="defs585" /><sodipodi:namedview
   pagecolor="#ffffff"
   bordercolor="#666666"
   borderopacity="1"
   objecttolerance="10"
   gridtolerance="10"
   guidetolerance="10"
   inkscape:pageopacity="0"
   inkscape:pageshadow="2"
   inkscape:window-width="943"
   inkscape:window-height="558"
   id="namedview583"
   showgrid="false"
   inkscape:zoom="0.61328125"
   inkscape:cx="256"
   inkscape:cy="256"
   inkscape:window-x="0"
   inkscape:window-y="23"
   inkscape:window-maximized="0"
   inkscape:current-layer="Layer_1" />
<g
   id="g468"
   transform="translate(0,-88.276)">
	<path
   style="fill:#41479b"
   d="M 473.655,88.276 H 38.345 C 17.167,88.276 0,105.443 0,126.621 v 73.471 h 512 v -73.471 c 0,-21.178 -17.167,-38.345 -38.345,-38.345 z"
   id="path464" />
	<path
   style="fill:#41479b"
   d="m 0,385.379 c 0,21.177 17.167,38.345 38.345,38.345 h 435.31 c 21.177,0 38.345,-17.167 38.345,-38.345 V 311.908 H 0 Z"
   id="path466" />
</g>
<rect
   y="111.814"
   style="fill:#f5f5f5"
   width="512"
   height="111.81"
   id="rect470"
   x="0" />
<polygon
   style="fill:#afebff"
   points="282.927,263.276 256,223.677 229.073,263.276 "
   id="polygon472"
   transform="translate(0,-88.276)" />
<polygon
   style="fill:#557de6"
   points="300.351,288.619 282.927,263.276 229.073,263.276 211.649,288.619 "
   id="polygon474"
   transform="translate(0,-88.276)" />
<g
   id="g510"
   transform="translate(0,-88.276)">
	<path
   style="fill:#73af00"
   d="m 262.891,261.063 c 0.107,-0.222 0.22,-0.438 0.317,-0.664 -0.096,0.224 -0.21,0.443 -0.317,0.664 z"
   id="path476" />
	<path
   style="fill:#73af00"
   d="m 263.633,259.238 c 0.066,-0.199 0.146,-0.392 0.203,-0.594 -0.058,0.201 -0.138,0.394 -0.203,0.594 z"
   id="path478" />
	<path
   style="fill:#73af00"
   d="m 261.975,262.724 c 0.136,-0.217 0.27,-0.433 0.397,-0.655 -0.126,0.223 -0.262,0.439 -0.397,0.655 z"
   id="path480" />
	<path
   style="fill:#73af00"
   d="m 266.091,255.347 c -0.241,0 -0.472,0.04 -0.685,0.111 0.213,-0.072 0.444,-0.111 0.685,-0.111 z"
   id="path482" />
	<path
   style="fill:#73af00"
   d="m 264.83,255.765 c -0.335,0.262 -0.565,0.627 -0.617,1.043 l -0.001,0.002 0.001,-0.002 c 0.053,-0.416 0.281,-0.782 0.617,-1.043 z"
   id="path484" />
	<path
   style="fill:#73af00"
   d="m 264.013,267.584 c 0.377,0.358 0.751,0.698 1.127,1.024 2.01,-1.74 4.108,-3.951 5.58,-6.538 -0.106,0.185 -0.22,0.365 -0.332,0.546 -1.375,-2.528 -2.101,-4.715 -2.453,-6.012 -0.201,-0.74 -0.967,-1.256 -1.842,-1.257 0.337,2.955 1.061,8.383 -2.08,12.237 z"
   id="path486" />
	<path
   style="fill:#73af00"
   d="m 271.98,259.238 c 0.066,-0.199 0.146,-0.392 0.203,-0.594 -0.057,0.201 -0.137,0.394 -0.203,0.594 z"
   id="path488" />
	<path
   style="fill:#73af00"
   d="m 273.178,255.765 c -0.335,0.262 -0.565,0.627 -0.617,1.043 v 0.002 -0.002 c 0.053,-0.416 0.281,-0.782 0.617,-1.043 z"
   id="path490" />
	<path
   style="fill:#73af00"
   d="m 271.239,261.063 c 0.107,-0.222 0.22,-0.438 0.317,-0.664 -0.097,0.224 -0.21,0.443 -0.317,0.664 z"
   id="path492" />
	<path
   style="fill:#73af00"
   d="m 288.339,269.612 c -3.053,0 -5.942,-1.465 -7.706,-3.958 -2.657,-3.754 -3.862,-7.254 -4.349,-9.049 -0.201,-0.742 -0.969,-1.258 -1.845,-1.258 l 0.003,0.001 c 0.401,3.526 1.358,10.575 -4.371,14.264 h -3.73 c -0.153,-0.121 -0.302,-0.237 -0.459,-0.365 0.003,0.003 0.007,0.007 0.01,0.009 -1.044,1.363 -3.132,1.745 -4.751,0.91 -6.778,-3.492 -5.726,-11.11 -5.303,-14.818 -0.875,10e-4 -1.641,0.516 -1.842,1.257 -0.352,1.297 -1.078,3.484 -2.453,6.012 -0.111,-0.182 -0.226,-0.361 -0.331,-0.546 1.656,2.91 4.113,5.366 6.333,7.186 -1.044,1.363 -3.132,1.745 -4.751,0.91 -6.779,-3.492 -5.726,-11.11 -5.304,-14.818 -0.875,0.001 -1.641,0.516 -1.842,1.257 -0.352,1.297 -1.078,3.484 -2.452,6.012 -0.111,-0.182 -0.226,-0.361 -0.332,-0.546 1.656,2.91 4.113,5.366 6.333,7.186 -1.044,1.363 -3.132,1.745 -4.751,0.91 -6.778,-3.492 -5.726,-11.11 -5.303,-14.818 l 0.003,-0.001 c -0.876,0 -1.644,0.515 -1.845,1.258 -0.487,1.796 -1.692,5.295 -4.349,9.049 -1.763,2.493 -4.652,3.958 -7.706,3.958 h -2.508 v 3.168 h 64.943 1.583 v -3.168 h -0.925 z"
   id="path494" />
	<path
   style="fill:#73af00"
   d="m 258.723,260.398 c 0.097,0.226 0.21,0.444 0.317,0.664 -0.106,-0.22 -0.22,-0.439 -0.317,-0.664 z"
   id="path496" />
	<path
   style="fill:#73af00"
   d="m 258.098,258.643 c 0.056,0.202 0.137,0.395 0.203,0.594 -0.067,-0.199 -0.147,-0.392 -0.203,-0.594 z"
   id="path498" />
	<path
   style="fill:#73af00"
   d="m 257.719,256.81 v -0.002 c -0.052,-0.416 -0.28,-0.781 -0.617,-1.043 0.335,0.262 0.565,0.627 0.617,1.043 z"
   id="path500" />
	<path
   style="fill:#73af00"
   d="m 259.56,262.07 c 0.127,0.223 0.262,0.438 0.397,0.655 -0.136,-0.217 -0.27,-0.433 -0.397,-0.655 z"
   id="path502" />
	<path
   style="fill:#73af00"
   d="m 261.015,264.265 c -0.017,-0.021 -0.031,-0.043 -0.047,-0.065 0.136,-0.181 0.266,-0.363 0.397,-0.548 -0.13,0.184 -0.264,0.366 -0.398,0.546 -0.136,-0.18 -0.269,-0.361 -0.398,-0.546 0.145,0.208 0.293,0.411 0.446,0.613 z"
   id="path504" />
	<path
   style="fill:#73af00"
   d="m 261.711,265.142 c 0.154,0.185 0.308,0.37 0.466,0.548 -0.158,-0.178 -0.312,-0.363 -0.466,-0.548 z"
   id="path506" />
	<path
   style="fill:#73af00"
   d="m 263.403,267 c -0.148,-0.148 -0.292,-0.303 -0.438,-0.456 0.147,0.154 0.29,0.308 0.438,0.456 z"
   id="path508" />
</g>
<path
   style="fill:#ffe15a"
   d="m 274.442,167.072 -0.003,-0.001 c -0.481,0 -0.925,0.157 -1.261,0.418 -0.335,0.262 -0.565,0.627 -0.617,1.043 v 0.002 c -0.078,0.625 -0.211,1.234 -0.378,1.833 -0.056,0.202 -0.137,0.395 -0.203,0.594 -0.13,0.392 -0.262,0.782 -0.424,1.161 -0.097,0.226 -0.21,0.444 -0.317,0.664 -0.164,0.34 -0.332,0.679 -0.519,1.007 -1.472,2.586 -3.57,4.798 -5.58,6.538 -0.375,-0.324 -0.749,-0.665 -1.127,-1.024 3.14,-3.853 2.417,-9.282 2.081,-12.236 l -0.003,-0.001 c -0.241,0 -0.472,0.04 -0.685,0.111 -0.213,0.072 -0.408,0.177 -0.576,0.307 -0.335,0.262 -0.565,0.627 -0.617,1.043 l -0.001,0.002 c -0.078,0.625 -0.211,1.234 -0.378,1.833 -0.056,0.202 -0.137,0.395 -0.203,0.594 -0.129,0.392 -0.262,0.782 -0.424,1.161 -0.097,0.226 -0.21,0.444 -0.317,0.664 -0.164,0.34 -0.332,0.679 -0.519,1.007 -0.127,0.223 -0.262,0.438 -0.397,0.655 -0.196,0.314 -0.397,0.625 -0.61,0.927 -0.13,0.185 -0.262,0.369 -0.397,0.548 -0.136,-0.181 -0.27,-0.363 -0.401,-0.548 -0.213,-0.302 -0.414,-0.612 -0.61,-0.927 -0.136,-0.217 -0.27,-0.433 -0.397,-0.655 -0.188,-0.329 -0.354,-0.667 -0.519,-1.007 -0.107,-0.222 -0.22,-0.438 -0.317,-0.664 -0.162,-0.378 -0.295,-0.769 -0.424,-1.161 -0.066,-0.199 -0.146,-0.392 -0.203,-0.594 -0.168,-0.598 -0.3,-1.208 -0.378,-1.833 v -0.002 c -0.052,-0.417 -0.28,-0.781 -0.617,-1.043 -0.337,-0.262 -0.779,-0.418 -1.26,-0.418 l -0.003,0.001 c -0.422,3.709 -1.475,11.326 5.303,14.818 1.143,0.589 2.515,0.566 3.591,0.024 0.687,-0.346 1.425,-0.578 2.194,-0.578 h 3.146 c 5.728,-3.688 4.772,-10.738 4.37,-14.263 z"
   id="path512" />
<g
   id="g522"
   transform="translate(0,-88.276)">
	<path
   style="fill:#73af00"
   d="m 249.749,258.643 c 0.056,0.202 0.137,0.395 0.203,0.594 -0.066,-0.199 -0.146,-0.392 -0.203,-0.594 z"
   id="path514" />
	<path
   style="fill:#73af00"
   d="m 249.37,256.81 -0.001,-0.002 c -0.052,-0.416 -0.28,-0.781 -0.617,-1.043 0.335,0.262 0.565,0.627 0.617,1.043 z"
   id="path516" />
	<path
   style="fill:#73af00"
   d="m 250.376,260.398 c 0.097,0.226 0.21,0.444 0.317,0.664 -0.108,-0.22 -0.22,-0.439 -0.317,-0.664 z"
   id="path518" />
	<path
   style="fill:#73af00"
   d="m 247.494,255.347 v 0 c 0.241,0 0.472,0.04 0.685,0.111 -0.214,-0.072 -0.445,-0.111 -0.685,-0.111 z"
   id="path520" />
</g>
<path
   style="fill:#ffe15a"
   d="m 252.793,181.889 c 1.62,0.834 3.708,0.452 4.751,-0.91 -2.22,-1.82 -4.676,-4.275 -6.333,-7.186 -0.188,-0.329 -0.354,-0.666 -0.519,-1.007 -0.107,-0.222 -0.22,-0.438 -0.317,-0.664 -0.162,-0.378 -0.295,-0.769 -0.424,-1.161 -0.066,-0.199 -0.146,-0.392 -0.203,-0.594 -0.168,-0.598 -0.3,-1.208 -0.378,-1.833 l -0.001,-0.002 c -0.052,-0.417 -0.28,-0.781 -0.617,-1.043 -0.168,-0.13 -0.363,-0.235 -0.576,-0.307 -0.213,-0.072 -0.444,-0.111 -0.685,-0.111 v 0 l -0.003,0.001 v 0 c -0.42,3.709 -1.473,11.325 5.305,14.817 z"
   id="path524" />
<g
   id="g532"
   transform="translate(0,-88.276)">
	<path
   style="fill:#73af00"
   d="m 241.401,258.643 c 0.056,0.202 0.137,0.395 0.203,0.594 -0.066,-0.199 -0.146,-0.392 -0.203,-0.594 z"
   id="path526" />
	<path
   style="fill:#73af00"
   d="m 242.028,260.398 c 0.097,0.226 0.21,0.444 0.317,0.664 -0.107,-0.22 -0.221,-0.439 -0.317,-0.664 z"
   id="path528" />
	<path
   style="fill:#73af00"
   d="m 241.023,256.81 v -0.002 c -0.052,-0.416 -0.28,-0.781 -0.617,-1.043 0.335,0.262 0.565,0.627 0.617,1.043 z"
   id="path530" />
</g>
<path
   style="fill:#ffe15a"
   d="m 244.446,181.889 c 1.62,0.834 3.708,0.452 4.751,-0.91 -2.22,-1.82 -4.676,-4.275 -6.333,-7.186 -0.186,-0.329 -0.354,-0.666 -0.519,-1.007 -0.107,-0.222 -0.22,-0.438 -0.317,-0.664 -0.162,-0.378 -0.295,-0.769 -0.424,-1.161 -0.066,-0.199 -0.146,-0.392 -0.203,-0.594 -0.168,-0.598 -0.3,-1.208 -0.378,-1.833 v -0.002 c -0.052,-0.417 -0.28,-0.781 -0.617,-1.043 -0.335,-0.262 -0.779,-0.418 -1.26,-0.418 l -0.003,0.001 c -0.423,3.709 -1.477,11.325 5.303,14.817 z"
   id="path534" />
<path
   style="fill:#41479b"
   d="m 242.655,154.476 c -0.131,0.505 -0.264,1.011 -0.395,1.516 4.324,-1.297 9.096,-2.076 14.274,-2.076 5.177,0.003 9.95,0.776 14.274,2.076 -0.131,-0.505 -0.264,-1.011 -0.395,-1.516 -4.301,-1.11 -8.93,-1.748 -13.879,-1.746 -4.948,-10e-4 -9.577,0.636 -13.879,1.746 z"
   id="path536" />
<path
   style="fill:#5aa0e6"
   d="m 242.827,153.817 c -0.131,0.505 -0.264,1.011 -0.395,1.516 4.276,-1.3 8.99,-2.08 14.102,-2.082 5.113,0.002 9.826,0.781 14.102,2.082 -0.131,-0.505 -0.264,-1.011 -0.395,-1.516 -4.253,-1.118 -8.823,-1.751 -13.707,-1.752 -4.885,0.001 -9.454,0.637 -13.707,1.752 z"
   id="path538" />
<path
   style="fill:#9bc800"
   d="m 242.986,153.208 c -0.131,0.505 -0.264,1.011 -0.395,1.516 4.234,-1.304 8.892,-2.09 13.943,-2.088 5.053,0 9.71,0.783 13.943,2.088 -0.131,-0.505 -0.264,-1.011 -0.395,-1.516 -4.207,-1.117 -8.723,-1.759 -13.548,-1.759 -4.825,-0.001 -9.34,0.641 -13.548,1.759 z"
   id="path540" />
<path
   style="fill:#ffe14e"
   d="m 243.167,152.512 c -0.131,0.505 -0.264,1.011 -0.395,1.516 4.184,-1.309 8.78,-2.095 13.762,-2.095 4.982,0.002 9.578,0.786 13.762,2.095 -0.131,-0.505 -0.264,-1.011 -0.395,-1.516 -4.158,-1.122 -8.609,-1.764 -13.367,-1.766 -4.758,0.001 -9.21,0.644 -13.367,1.766 z"
   id="path542" />
<path
   style="fill:#ffb14e"
   d="m 243.346,151.828 c -0.131,0.505 -0.264,1.011 -0.395,1.516 4.136,-1.312 8.668,-2.101 13.583,-2.102 4.915,0.003 9.448,0.788 13.583,2.102 -0.131,-0.505 -0.264,-1.011 -0.395,-1.516 -4.106,-1.124 -8.497,-1.772 -13.188,-1.773 -4.691,0.003 -9.081,0.646 -13.188,1.773 z"
   id="path544" />
<path
   style="fill:#ff4b55"
   d="m 243.421,151.536 c -0.093,0.354 -0.184,0.708 -0.277,1.062 4.082,-1.314 8.55,-2.111 13.389,-2.11 4.841,-0.002 9.308,0.793 13.389,2.11 -0.093,-0.354 -0.184,-0.707 -0.277,-1.062 -4.085,-1.127 -8.45,-1.774 -13.112,-1.775 -4.662,-0.003 -9.026,0.647 -13.112,1.775 z"
   id="path546" />
<path
   style="fill:#ffe15a"
   d="m 300.352,201.881 h -88.703 c -0.585,0 -1.121,-0.322 -1.397,-0.835 -0.275,-0.516 -0.244,-1.141 0.079,-1.628 l 44.352,-66.527 c 0.588,-0.878 2.048,-0.878 2.636,0 l 44.352,66.527 c 0.323,0.486 0.354,1.111 0.078,1.628 -0.276,0.514 -0.813,0.835 -1.397,0.835 z m -85.745,-3.168 h 82.785 L 256,136.626 Z"
   id="path548" />
<path
   style="fill:#ff4b55"
   d="m 259.029,160.656 c 0,-1.394 -1.412,-3.512 -3.673,-3.512 -1.321,0 -2.392,0.808 -2.392,1.803 0,0.498 0.267,0.947 0.698,1.273 -0.002,0.019 -0.003,0.038 -0.004,0.055 -0.54,0.331 -0.892,0.829 -0.892,1.394 0,0.95 0.979,1.72 2.216,1.79 l 1.018,2.036 0.919,-1.838 c 1.207,-0.307 2.11,-1.532 2.11,-3.001 z"
   id="path550" />
<g
   id="g552"
   transform="translate(0,-88.276)">
</g>
<g
   id="g554"
   transform="translate(0,-88.276)">
</g>
<g
   id="g556"
   transform="translate(0,-88.276)">
</g>
<g
   id="g558"
   transform="translate(0,-88.276)">
</g>
<g
   id="g560"
   transform="translate(0,-88.276)">
</g>
<g
   id="g562"
   transform="translate(0,-88.276)">
</g>
<g
   id="g564"
   transform="translate(0,-88.276)">
</g>
<g
   id="g566"
   transform="translate(0,-88.276)">
</g>
<g
   id="g568"
   transform="translate(0,-88.276)">
</g>
<g
   id="g570"
   transform="translate(0,-88.276)">
</g>
<g
   id="g572"
   transform="translate(0,-88.276)">
</g>
<g
   id="g574"
   transform="translate(0,-88.276)">
</g>
<g
   id="g576"
   transform="translate(0,-88.276)">
</g>
<g
   id="g578"
   transform="translate(0,-88.276)">
</g>
<g
   id="g580"
   transform="translate(0,-88.276)">
</g>
</svg>
