<?xml version="1.0" encoding="UTF-8" standalone="no"?>
<svg
   xmlns:dc="http://purl.org/dc/elements/1.1/"
   xmlns:cc="http://creativecommons.org/ns#"
   xmlns:rdf="http://www.w3.org/1999/02/22-rdf-syntax-ns#"
   xmlns:svg="http://www.w3.org/2000/svg"
   xmlns="http://www.w3.org/2000/svg"
   xmlns:sodipodi="http://sodipodi.sourceforge.net/DTD/sodipodi-0.dtd"
   xmlns:inkscape="http://www.inkscape.org/namespaces/inkscape"
   version="1.1"
   id="Layer_1"
   x="0px"
   y="0px"
   viewBox="0 0 512 335.45001"
   xml:space="preserve"
   sodipodi:docname="no.svg"
   width="512"
   height="335.45001"
   inkscape:version="1.0.1 (c497b03c, 2020-09-10)"><metadata
   id="metadata51"><rdf:RDF><cc:Work
       rdf:about=""><dc:format>image/svg+xml</dc:format><dc:type
         rdf:resource="http://purl.org/dc/dcmitype/StillImage" /><dc:title></dc:title></cc:Work></rdf:RDF></metadata><defs
   id="defs49" /><sodipodi:namedview
   pagecolor="#ffffff"
   bordercolor="#666666"
   borderopacity="1"
   objecttolerance="10"
   gridtolerance="10"
   guidetolerance="10"
   inkscape:pageopacity="0"
   inkscape:pageshadow="2"
   inkscape:window-width="1064"
   inkscape:window-height="689"
   id="namedview47"
   showgrid="false"
   inkscape:zoom="1.640625"
   inkscape:cx="256"
   inkscape:cy="256"
   inkscape:window-x="0"
   inkscape:window-y="23"
   inkscape:window-maximized="0"
   inkscape:current-layer="Layer_1" />
<path
   style="fill:#ff4b55"
   d="M 473.655,335.448 H 38.345 C 17.167,335.448 0,318.281 0,297.103 V 38.345 C 0,17.168 17.167,0 38.345,0 h 435.31 C 494.832,0 512,17.167 512,38.345 v 258.759 c 0,21.177 -17.167,38.344 -38.345,38.344 z"
   id="path10" />
<polygon
   style="fill:#f5f5f5"
   points="229.517,88.276 141.241,88.276 141.241,211.862 0,211.862 0,300.138 141.241,300.138 141.241,423.724 229.517,423.724 229.517,300.138 512,300.138 512,211.862 229.517,211.862 "
   id="polygon12"
   transform="translate(0,-88.276)" />
<polygon
   style="fill:#41479b"
   points="211.862,88.276 158.897,88.276 158.897,229.517 0,229.517 0,282.483 158.897,282.483 158.897,423.724 211.862,423.724 211.862,282.483 512,282.483 512,229.517 211.862,229.517 "
   id="polygon14"
   transform="translate(0,-88.276)" />
<g
   id="g16"
   transform="translate(0,-88.276)">
</g>
<g
   id="g18"
   transform="translate(0,-88.276)">
</g>
<g
   id="g20"
   transform="translate(0,-88.276)">
</g>
<g
   id="g22"
   transform="translate(0,-88.276)">
</g>
<g
   id="g24"
   transform="translate(0,-88.276)">
</g>
<g
   id="g26"
   transform="translate(0,-88.276)">
</g>
<g
   id="g28"
   transform="translate(0,-88.276)">
</g>
<g
   id="g30"
   transform="translate(0,-88.276)">
</g>
<g
   id="g32"
   transform="translate(0,-88.276)">
</g>
<g
   id="g34"
   transform="translate(0,-88.276)">
</g>
<g
   id="g36"
   transform="translate(0,-88.276)">
</g>
<g
   id="g38"
   transform="translate(0,-88.276)">
</g>
<g
   id="g40"
   transform="translate(0,-88.276)">
</g>
<g
   id="g42"
   transform="translate(0,-88.276)">
</g>
<g
   id="g44"
   transform="translate(0,-88.276)">
</g>
</svg>
