<?xml version="1.0" encoding="UTF-8" standalone="no"?>
<svg
   xmlns:dc="http://purl.org/dc/elements/1.1/"
   xmlns:cc="http://creativecommons.org/ns#"
   xmlns:rdf="http://www.w3.org/1999/02/22-rdf-syntax-ns#"
   xmlns:svg="http://www.w3.org/2000/svg"
   xmlns="http://www.w3.org/2000/svg"
   xmlns:sodipodi="http://sodipodi.sourceforge.net/DTD/sodipodi-0.dtd"
   xmlns:inkscape="http://www.inkscape.org/namespaces/inkscape"
   version="1.1"
   id="Layer_1"
   x="0px"
   y="0px"
   viewBox="0 0 512 335.45001"
   xml:space="preserve"
   sodipodi:docname="np.svg"
   width="512"
   height="335.45001"
   inkscape:version="1.0.1 (c497b03c, 2020-09-10)"><metadata
   id="metadata116"><rdf:RDF><cc:Work
       rdf:about=""><dc:format>image/svg+xml</dc:format><dc:type
         rdf:resource="http://purl.org/dc/dcmitype/StillImage" /><dc:title></dc:title></cc:Work></rdf:RDF></metadata><defs
   id="defs114" /><sodipodi:namedview
   pagecolor="#ffffff"
   bordercolor="#666666"
   borderopacity="1"
   objecttolerance="10"
   gridtolerance="10"
   guidetolerance="10"
   inkscape:pageopacity="0"
   inkscape:pageshadow="2"
   inkscape:window-width="935"
   inkscape:window-height="480"
   id="namedview112"
   showgrid="false"
   inkscape:zoom="0.61328125"
   inkscape:cx="256"
   inkscape:cy="256"
   inkscape:window-x="0"
   inkscape:window-y="23"
   inkscape:window-maximized="0"
   inkscape:current-layer="Layer_1" />
<path
   style="fill:#f5f5f5"
   d="M 473.655,0 H 38.345 C 17.167,0 0,17.167 0,38.345 v 258.76 c 0,21.177 17.167,38.345 38.345,38.345 h 435.31 C 494.832,335.45 512,318.283 512,297.105 V 38.345 C 512,17.167 494.833,0 473.655,0 Z"
   id="path69" />
<path
   style="fill:#41479b"
   d="M 229.517,167.724 13.052,9.538 C 5.054,16.566 0,26.862 0,38.345 v 258.76 c 0,21.177 17.167,38.345 38.345,38.345 H 229.517 L 79.144,167.724 Z M 203.816,323.972 H 11.476 V 22.601 L 194.364,156.248 H 79.144 53.442 l 17.156,19.137 z"
   id="path71" />
<polygon
   style="fill:#ff4b55"
   points="79.144,244.523 194.364,244.523 11.476,110.876 11.476,412.247 203.816,412.247 70.6,263.661 53.442,244.523 "
   id="polygon73"
   transform="translate(0,-88.275)" />
<g
   id="g79"
   transform="translate(0,-88.275)">
	<path
   style="fill:#f5f5f5"
   d="m 67.345,296.398 7.066,14.583 13.411,-9.096 c 0.591,-0.402 1.386,0.057 1.334,0.77 l -1.171,16.162 16.162,-1.171 c 0.713,-0.052 1.172,0.743 0.77,1.334 l -9.096,13.411 14.583,7.068 c 0.643,0.312 0.643,1.228 0,1.54 l -14.583,7.066 9.096,13.411 c 0.402,0.591 -0.057,1.386 -0.77,1.334 l -16.162,-1.171 1.171,16.162 c 0.052,0.713 -0.743,1.172 -1.334,0.77 l -13.411,-9.096 -7.066,14.583 c -0.312,0.643 -1.228,0.643 -1.54,0 l -7.066,-14.583 -13.411,9.096 c -0.591,0.402 -1.386,-0.057 -1.334,-0.77 l 1.171,-16.162 -16.162,1.171 c -0.713,0.052 -1.172,-0.743 -0.77,-1.334 l 9.096,-13.411 -14.583,-7.066 c -0.643,-0.312 -0.643,-1.228 0,-1.54 l 14.583,-7.068 -9.096,-13.411 c -0.402,-0.591 0.057,-1.386 0.77,-1.334 l 16.162,1.171 -1.171,-16.162 c -0.052,-0.713 0.743,-1.172 1.334,-0.77 l 13.411,9.096 7.066,-14.583 c 0.311,-0.643 1.228,-0.643 1.54,0 z"
   id="path75" />
	<path
   style="fill:#f5f5f5"
   d="m 85.694,212.061 -6.135,-4.191 5.401,-5.661 -7.697,-1.405 2.632,-7.367 -7.603,1.847 -0.591,-7.8 -6.194,4.78 -3.714,-6.886 -3.714,6.886 -6.194,-4.78 -0.591,7.8 -7.603,-1.847 2.632,7.367 -7.697,1.405 5.401,5.661 -6.135,4.191 c -7.741,-3.614 -14.547,-8.895 -19.904,-15.427 3.598,20.961 21.815,36.929 43.804,36.929 21.989,0 40.206,-15.968 43.804,-36.929 -5.355,6.533 -12.162,11.813 -19.902,15.427 z"
   id="path77" />
</g>
<g
   id="g81"
   transform="translate(0,-88.275)">
</g>
<g
   id="g83"
   transform="translate(0,-88.275)">
</g>
<g
   id="g85"
   transform="translate(0,-88.275)">
</g>
<g
   id="g87"
   transform="translate(0,-88.275)">
</g>
<g
   id="g89"
   transform="translate(0,-88.275)">
</g>
<g
   id="g91"
   transform="translate(0,-88.275)">
</g>
<g
   id="g93"
   transform="translate(0,-88.275)">
</g>
<g
   id="g95"
   transform="translate(0,-88.275)">
</g>
<g
   id="g97"
   transform="translate(0,-88.275)">
</g>
<g
   id="g99"
   transform="translate(0,-88.275)">
</g>
<g
   id="g101"
   transform="translate(0,-88.275)">
</g>
<g
   id="g103"
   transform="translate(0,-88.275)">
</g>
<g
   id="g105"
   transform="translate(0,-88.275)">
</g>
<g
   id="g107"
   transform="translate(0,-88.275)">
</g>
<g
   id="g109"
   transform="translate(0,-88.275)">
</g>
</svg>
