<svg xmlns="http://www.w3.org/2000/svg" viewBox="0 0 512.09998 335.5" style="enable-background:new 0 0 512.0999756 335.5" xml:space="preserve"><path d="M512.09991 37.01103v261.47796c0 20.5061-16.89996 37.01102-37.69995 37.01102H37.70001C16.90002 335.5 0 318.89502 0 298.48898V37.01103C0 16.60493 16.90002 0 37.7 0h436.69996c20.8 0 37.69995 16.60492 37.69995 37.01103z" style="fill:#103b9b"/><path style="fill:#f5f5f5" d="m128.02499 207.31358 6.13196 19.2887 15.12476-13.69131-4.50415 19.71733 20.06505-4.42533-13.93206 14.86241 19.62787 6.02599-19.62787 6.02602 13.93206 14.86338-20.06505-4.42532 4.50415 19.71735-15.12476-13.69236-6.13196 19.28974-6.13196-19.28974-15.12475 13.69236 4.50414-19.71735-20.06505 4.42532 13.93206-14.86338-19.62786-6.02602 19.62786-6.02599-13.93206-14.86241 20.06505 4.42533-4.50414-19.71733 15.12475 13.69131z"/><path style="fill:#ffe000" d="M0 150.97508h512.09998v33.54979H0z"/></svg>