<?xml version="1.0" encoding="UTF-8" standalone="no"?>
<svg
   xmlns:dc="http://purl.org/dc/elements/1.1/"
   xmlns:cc="http://creativecommons.org/ns#"
   xmlns:rdf="http://www.w3.org/1999/02/22-rdf-syntax-ns#"
   xmlns:svg="http://www.w3.org/2000/svg"
   xmlns="http://www.w3.org/2000/svg"
   xmlns:sodipodi="http://sodipodi.sourceforge.net/DTD/sodipodi-0.dtd"
   xmlns:inkscape="http://www.inkscape.org/namespaces/inkscape"
   version="1.1"
   id="Layer_1"
   x="0px"
   y="0px"
   viewBox="0 0 512 335.45001"
   xml:space="preserve"
   sodipodi:docname="cook-islands-svgrepo-com.svg"
   width="512"
   height="335.45001"
   inkscape:version="1.0.1 (c497b03c, 2020-09-10)"><metadata
   id="metadata1218"><rdf:RDF><cc:Work
       rdf:about=""><dc:format>image/svg+xml</dc:format><dc:type
         rdf:resource="http://purl.org/dc/dcmitype/StillImage" /><dc:title></dc:title></cc:Work></rdf:RDF></metadata><defs
   id="defs1216" /><sodipodi:namedview
   pagecolor="#ffffff"
   bordercolor="#666666"
   borderopacity="1"
   objecttolerance="10"
   gridtolerance="10"
   guidetolerance="10"
   inkscape:pageopacity="0"
   inkscape:pageshadow="2"
   inkscape:window-width="1797"
   inkscape:window-height="983"
   id="namedview1214"
   showgrid="false"
   inkscape:zoom="1.640625"
   inkscape:cx="256"
   inkscape:cy="256"
   inkscape:window-x="0"
   inkscape:window-y="23"
   inkscape:window-maximized="0"
   inkscape:current-layer="Layer_1" />
<path
   style="fill:#41479b"
   d="M 473.655,335.448 H 38.345 C 17.167,335.448 0,318.281 0,297.103 V 38.345 C 0,17.168 17.167,0 38.345,0 h 435.31 C 494.832,0 512,17.167 512,38.345 v 258.759 c 0,21.177 -17.167,38.344 -38.345,38.344 z"
   id="path1133" />
<path
   style="fill:#f5f5f5"
   d="m 8.828,167.724 h 15.334 l 81.77,-53.574 v 53.574 H 150.07 V 114.15 l 81.769,53.574 h 15.334 c 4.875,0 8.828,-3.953 8.828,-8.828 v -7.002 L 185.847,105.931 H 256 V 61.793 H 185.845 L 256,15.83 V 8.828 C 256,3.954 252.05,0.003 247.177,0 h -15.338 l -81.77,53.574 V 0 H 105.931 V 53.574 L 26.844,1.758 C 17.61,4.658 9.89,10.961 5.131,19.192 L 70.155,61.793 H 0 v 44.138 H 70.155 L 0,151.894 v 7.002 c 0,4.875 3.953,8.828 8.828,8.828 z"
   id="path1135" />
<g
   id="g1147"
   transform="translate(0,-88.276)">
	<polygon
   style="fill:#ff4b55"
   points="141.241,88.276 114.759,88.276 114.759,158.897 0,158.897 0,185.379 114.759,185.379 114.759,256 141.241,256 141.241,185.379 256,185.379 256,158.897 141.241,158.897 "
   id="polygon1137" />
	<path
   style="fill:#ff4b55"
   d="m 8.227,102.902 72.662,47.167 H 97.103 L 14.607,96.519 c -2.369,1.87 -4.51,4.013 -6.38,6.383 z"
   id="path1139" />
	<path
   style="fill:#ff4b55"
   d="m 166.283,150.069 88.374,-57.366 c -1.536,-2.599 -4.246,-4.427 -7.485,-4.427 h -1.909 l -95.194,61.793 z"
   id="path1141" />
	<path
   style="fill:#ff4b55"
   d="M 89.474,194.207 1.269,251.463 C 2.79,254.125 5.542,256 8.828,256 h 1.665 l 95.196,-61.793 z"
   id="path1143" />
	<path
   style="fill:#ff4b55"
   d="M 255.86,247.865 173.194,194.207 H 156.98 l 93.874,60.935 c 2.812,-1.305 4.741,-4.04 5.006,-7.277 z"
   id="path1145" />
</g>
<g
   id="g1181"
   transform="translate(0,-88.276)">
	<path
   style="fill:#f5f5f5"
   d="m 377.129,150.113 3.237,9.708 10.233,0.079 c 0.792,0.007 1.121,1.017 0.483,1.489 l -8.232,6.079 3.086,9.757 c 0.239,0.756 -0.621,1.382 -1.267,0.92 l -8.326,-5.951 -8.326,5.951 c -0.646,0.461 -1.505,-0.164 -1.267,-0.92 l 3.086,-9.757 -8.232,-6.079 c -0.638,-0.471 -0.309,-1.483 0.483,-1.489 l 10.233,-0.079 3.238,-9.708 c 0.257,-0.752 1.32,-0.752 1.571,0 z"
   id="path1149" />
	<path
   style="fill:#f5f5f5"
   d="m 333.617,162.052 6.906,7.552 9.38,-4.089 c 0.727,-0.317 1.439,0.473 1.047,1.163 l -5.048,8.902 6.788,7.658 c 0.526,0.594 -0.006,1.515 -0.782,1.356 l -10.026,-2.05 -5.185,8.822 c -0.402,0.683 -1.442,0.462 -1.532,-0.326 l -1.149,-10.168 -9.993,-2.205 c -0.775,-0.171 -0.885,-1.229 -0.163,-1.557 l 9.316,-4.235 -0.991,-10.185 c -0.076,-0.79 0.896,-1.222 1.432,-0.638 z"
   id="path1151" />
	<path
   style="fill:#f5f5f5"
   d="m 298.722,190.659 9.38,4.089 6.906,-7.552 c 0.535,-0.585 1.507,-0.152 1.43,0.637 l -0.991,10.185 9.316,4.235 c 0.722,0.328 0.61,1.386 -0.163,1.557 l -9.993,2.205 -1.149,10.168 c -0.089,0.788 -1.13,1.009 -1.532,0.326 l -5.185,-8.822 -10.026,2.05 c -0.777,0.159 -1.309,-0.762 -0.782,-1.356 l 6.788,-7.658 -5.048,-8.902 c -0.39,-0.688 0.322,-1.479 1.049,-1.162 z"
   id="path1153" />
	<path
   style="fill:#f5f5f5"
   d="m 278.479,230.985 10.233,-0.079 3.237,-9.708 c 0.25,-0.753 1.314,-0.753 1.566,0 l 3.237,9.708 10.233,0.079 c 0.792,0.007 1.121,1.017 0.483,1.489 l -8.232,6.079 3.086,9.757 c 0.239,0.756 -0.621,1.382 -1.267,0.92 l -8.326,-5.951 -8.326,5.951 c -0.646,0.461 -1.505,-0.164 -1.267,-0.92 l 3.086,-9.757 -8.232,-6.079 c -0.632,-0.472 -0.303,-1.484 0.489,-1.489 z"
   id="path1155" />
	<path
   style="fill:#f5f5f5"
   d="m 276.39,276.057 9.316,-4.235 -0.991,-10.185 c -0.077,-0.789 0.895,-1.221 1.43,-0.637 l 6.906,7.552 9.38,-4.089 c 0.727,-0.317 1.439,0.473 1.047,1.163 l -5.048,8.902 6.788,7.658 c 0.526,0.594 -0.006,1.515 -0.782,1.356 l -10.026,-2.05 -5.185,8.822 c -0.402,0.683 -1.442,0.462 -1.532,-0.326 l -1.149,-10.168 -9.993,-2.205 c -0.773,-0.172 -0.883,-1.23 -0.161,-1.558 z"
   id="path1157" />
	<path
   style="fill:#f5f5f5"
   d="m 292.812,318.083 6.788,-7.658 -5.048,-8.902 c -0.391,-0.69 0.321,-1.48 1.047,-1.163 l 9.38,4.089 6.906,-7.552 c 0.535,-0.585 1.507,-0.152 1.43,0.637 l -0.991,10.185 9.316,4.235 c 0.722,0.328 0.61,1.386 -0.163,1.557 l -9.993,2.205 -1.149,10.168 c -0.089,0.788 -1.13,1.009 -1.532,0.326 l -5.185,-8.822 -10.026,2.05 c -0.774,0.159 -1.306,-0.762 -0.78,-1.355 z"
   id="path1159" />
	<path
   style="fill:#f5f5f5"
   d="m 324.908,349.796 3.086,-9.757 -8.232,-6.079 c -0.638,-0.471 -0.309,-1.483 0.483,-1.489 l 10.233,-0.079 3.237,-9.708 c 0.25,-0.753 1.314,-0.753 1.566,0 l 3.237,9.708 10.233,0.079 c 0.792,0.007 1.121,1.017 0.483,1.489 l -8.232,6.079 3.086,9.757 c 0.239,0.756 -0.621,1.382 -1.267,0.92 l -8.326,-5.951 -8.326,5.951 c -0.639,0.461 -1.499,-0.164 -1.261,-0.92 z"
   id="path1161" />
	<path
   style="fill:#f5f5f5"
   d="m 367.129,365.713 -1.149,-10.168 -9.993,-2.205 c -0.775,-0.171 -0.885,-1.229 -0.163,-1.557 l 9.316,-4.235 -0.991,-10.185 c -0.077,-0.789 0.895,-1.221 1.43,-0.637 l 6.906,7.552 9.38,-4.089 c 0.727,-0.317 1.439,0.473 1.047,1.163 l -5.048,8.902 6.788,7.658 c 0.526,0.594 -0.006,1.515 -0.782,1.356 l -10.026,-2.05 -5.185,8.822 c -0.401,0.681 -1.441,0.46 -1.53,-0.327 z"
   id="path1163" />
	<path
   style="fill:#f5f5f5"
   d="m 412.173,363.08 -5.185,-8.822 -10.026,2.05 c -0.777,0.159 -1.309,-0.763 -0.782,-1.356 l 6.788,-7.658 -5.048,-8.901 c -0.391,-0.69 0.321,-1.48 1.047,-1.163 l 9.38,4.089 6.906,-7.552 c 0.535,-0.585 1.507,-0.152 1.43,0.637 l -0.991,10.185 9.316,4.235 c 0.722,0.328 0.61,1.386 -0.163,1.557 l -9.993,2.205 -1.149,10.168 c -0.088,0.788 -1.128,1.01 -1.53,0.326 z"
   id="path1165" />
	<path
   style="fill:#f5f5f5"
   d="m 452.253,342.355 -8.326,-5.951 -8.326,5.951 c -0.646,0.461 -1.505,-0.164 -1.267,-0.92 l 3.086,-9.757 -8.232,-6.079 c -0.638,-0.471 -0.309,-1.483 0.483,-1.489 l 10.233,-0.079 3.237,-9.708 c 0.25,-0.753 1.314,-0.753 1.566,0 l 3.238,9.708 10.233,0.079 c 0.792,0.007 1.121,1.017 0.483,1.489 l -8.232,6.079 3.086,9.757 c 0.243,0.755 -0.618,1.38 -1.262,0.92 z"
   id="path1167" />
	<path
   style="fill:#f5f5f5"
   d="m 480.437,307.118 -10.026,-2.05 -5.185,8.822 c -0.402,0.683 -1.442,0.462 -1.532,-0.326 l -1.149,-10.168 -9.993,-2.205 c -0.775,-0.171 -0.885,-1.229 -0.163,-1.557 l 9.316,-4.235 -0.991,-10.185 c -0.077,-0.789 0.895,-1.222 1.43,-0.637 l 6.906,7.552 9.38,-4.089 c 0.727,-0.317 1.439,0.473 1.047,1.163 l -5.048,8.901 6.788,7.658 c 0.529,0.594 -0.003,1.515 -0.78,1.356 z"
   id="path1169" />
	<path
   style="fill:#f5f5f5"
   d="m 491.853,263.466 -9.993,2.205 -1.149,10.168 c -0.089,0.788 -1.13,1.009 -1.532,0.326 l -5.185,-8.822 -10.026,2.05 c -0.777,0.159 -1.309,-0.762 -0.782,-1.356 l 6.788,-7.658 -5.048,-8.902 c -0.391,-0.69 0.321,-1.48 1.047,-1.163 l 9.38,4.089 6.906,-7.552 c 0.535,-0.585 1.507,-0.152 1.43,0.637 l -0.991,10.185 9.316,4.235 c 0.724,0.329 0.613,1.387 -0.161,1.558 z"
   id="path1171" />
	<path
   style="fill:#f5f5f5"
   d="m 484.526,218.943 -8.232,6.079 3.086,9.757 c 0.239,0.756 -0.621,1.382 -1.267,0.92 l -8.326,-5.951 -8.326,5.951 c -0.646,0.461 -1.505,-0.164 -1.267,-0.92 l 3.086,-9.757 -8.232,-6.079 c -0.638,-0.471 -0.309,-1.483 0.483,-1.489 l 10.233,-0.079 3.238,-9.708 c 0.25,-0.753 1.314,-0.753 1.566,0 l 3.238,9.708 10.233,0.079 c 0.796,0.007 1.125,1.019 0.487,1.489 z"
   id="path1173" />
	<path
   style="fill:#f5f5f5"
   d="m 459.725,181.25 -5.048,8.902 6.788,7.658 c 0.526,0.594 -0.006,1.515 -0.782,1.356 l -10.026,-2.05 -5.185,8.822 c -0.402,0.683 -1.442,0.462 -1.532,-0.326 l -1.149,-10.168 -9.993,-2.205 c -0.775,-0.171 -0.885,-1.229 -0.163,-1.557 l 9.316,-4.235 -0.991,-10.185 c -0.077,-0.789 0.895,-1.222 1.43,-0.637 l 6.906,7.552 9.38,-4.089 c 0.728,-0.318 1.44,0.473 1.049,1.162 z"
   id="path1175" />
	<path
   style="fill:#f5f5f5"
   d="m 421.736,156.904 -0.991,10.185 9.316,4.235 c 0.722,0.328 0.61,1.386 -0.163,1.557 l -9.993,2.205 -1.149,10.168 c -0.089,0.788 -1.13,1.009 -1.532,0.326 l -5.185,-8.822 -10.026,2.05 c -0.777,0.159 -1.309,-0.762 -0.782,-1.356 l 6.788,-7.658 -5.048,-8.902 c -0.391,-0.69 0.321,-1.48 1.047,-1.163 l 9.38,4.089 6.906,-7.552 c 0.537,-0.585 1.509,-0.151 1.432,0.638 z"
   id="path1177" />
	<path
   style="fill:#f5f5f5"
   d="m 377.129,150.113 3.237,9.708 10.233,0.079 c 0.792,0.007 1.121,1.017 0.483,1.489 l -8.232,6.079 3.086,9.757 c 0.239,0.756 -0.621,1.382 -1.267,0.92 l -8.326,-5.951 -8.326,5.951 c -0.646,0.461 -1.505,-0.164 -1.267,-0.92 l 3.086,-9.757 -8.232,-6.079 c -0.638,-0.471 -0.309,-1.483 0.483,-1.489 l 10.233,-0.079 3.238,-9.708 c 0.257,-0.752 1.32,-0.752 1.571,0 z"
   id="path1179" />
</g>
<g
   id="g1183">
</g>
<g
   id="g1185">
</g>
<g
   id="g1187">
</g>
<g
   id="g1189">
</g>
<g
   id="g1191">
</g>
<g
   id="g1193">
</g>
<g
   id="g1195">
</g>
<g
   id="g1197">
</g>
<g
   id="g1199">
</g>
<g
   id="g1201">
</g>
<g
   id="g1203">
</g>
<g
   id="g1205">
</g>
<g
   id="g1207">
</g>
<g
   id="g1209">
</g>
<g
   id="g1211">
</g>
</svg>
