<?xml version="1.0" encoding="UTF-8" standalone="no"?>
<svg
   xmlns:dc="http://purl.org/dc/elements/1.1/"
   xmlns:cc="http://creativecommons.org/ns#"
   xmlns:rdf="http://www.w3.org/1999/02/22-rdf-syntax-ns#"
   xmlns:svg="http://www.w3.org/2000/svg"
   xmlns="http://www.w3.org/2000/svg"
   xmlns:sodipodi="http://sodipodi.sourceforge.net/DTD/sodipodi-0.dtd"
   xmlns:inkscape="http://www.inkscape.org/namespaces/inkscape"
   version="1.1"
   id="Layer_1"
   x="0px"
   y="0px"
   viewBox="0 0 512 335.45001"
   xml:space="preserve"
   sodipodi:docname="nz.svg"
   width="512"
   height="335.45001"
   inkscape:version="1.0.1 (c497b03c, 2020-09-10)"><metadata
   id="metadata321"><rdf:RDF><cc:Work
       rdf:about=""><dc:format>image/svg+xml</dc:format><dc:type
         rdf:resource="http://purl.org/dc/dcmitype/StillImage" /><dc:title></dc:title></cc:Work></rdf:RDF></metadata><defs
   id="defs319" /><sodipodi:namedview
   pagecolor="#ffffff"
   bordercolor="#666666"
   borderopacity="1"
   objecttolerance="10"
   gridtolerance="10"
   guidetolerance="10"
   inkscape:pageopacity="0"
   inkscape:pageshadow="2"
   inkscape:window-width="968"
   inkscape:window-height="480"
   id="namedview317"
   showgrid="false"
   inkscape:zoom="0.61328125"
   inkscape:cx="256"
   inkscape:cy="256"
   inkscape:window-x="0"
   inkscape:window-y="23"
   inkscape:window-maximized="0"
   inkscape:current-layer="Layer_1" />
<path
   style="fill:#41479b"
   d="M 473.655,335.448 H 38.345 C 17.167,335.448 0,318.281 0,297.103 V 38.345 C 0,17.168 17.167,0 38.345,0 h 435.31 C 494.832,0 512,17.167 512,38.345 v 258.759 c 0,21.177 -17.167,38.344 -38.345,38.344 z"
   id="path254" />
<path
   style="fill:#f5f5f5"
   d="m 8.828,167.724 h 15.334 l 81.77,-53.574 v 53.574 H 150.07 V 114.15 l 81.769,53.574 h 15.334 c 4.876,0 8.828,-3.953 8.828,-8.828 v -7.002 L 185.846,105.931 H 256 V 61.793 H 185.845 L 256,15.83 V 8.828 C 256,3.953 252.049,0 247.172,0 h -15.334 l -81.77,53.574 V 0 H 105.93 V 53.574 L 26.844,1.758 C 17.61,4.658 9.89,10.961 5.133,19.192 L 70.156,61.793 H 0 v 44.138 H 70.155 L 0,151.894 v 7.002 c 0,4.875 3.953,8.828 8.828,8.828 z"
   id="path256" />
<g
   id="g270"
   transform="translate(0,-88.276)">
	<polygon
   style="fill:#ff4b55"
   points="141.241,88.276 114.759,88.276 114.759,158.897 0,158.897 0,185.379 114.759,185.379 114.759,256 141.241,256 141.241,185.379 256,185.379 256,158.897 141.241,158.897 "
   id="polygon258" />
	<path
   style="fill:#ff4b55"
   d="m 8.227,102.902 72.662,47.167 H 97.103 L 14.607,96.519 c -2.369,1.87 -4.51,4.013 -6.38,6.383 z"
   id="path260" />
	<path
   style="fill:#ff4b55"
   d="m 166.283,150.069 88.374,-57.366 c -1.536,-2.599 -4.246,-4.427 -7.485,-4.427 h -1.909 l -95.194,61.793 z"
   id="path262" />
	<path
   style="fill:#ff4b55"
   d="M 89.474,194.207 1.269,251.463 C 2.79,254.125 5.543,256 8.828,256 h 1.665 l 95.196,-61.793 z"
   id="path264" />
	<path
   style="fill:#ff4b55"
   d="M 255.86,247.865 173.194,194.207 H 156.98 l 93.874,60.935 c 2.812,-1.305 4.741,-4.04 5.006,-7.277 z"
   id="path266" />
	<path
   style="fill:#ff4b55"
   d="m 395.474,368.113 c -0.358,0 -0.719,-0.113 -1.026,-0.328 L 384,360.319 l -10.449,7.466 c -0.306,0.215 -0.668,0.328 -1.026,0.328 -0.366,0 -0.728,-0.113 -1.038,-0.337 -0.612,-0.448 -0.875,-1.241 -0.647,-1.965 l 3.875,-12.242 -10.327,-7.62 c -0.612,-0.457 -0.866,-1.241 -0.633,-1.965 0.237,-0.724 0.905,-1.216 1.668,-1.224 l 12.841,-0.104 4.061,-12.181 c 0.242,-0.715 0.918,-1.207 1.677,-1.207 0.759,0 1.436,0.491 1.677,1.207 l 4.061,12.181 12.841,0.104 c 0.763,0.009 1.431,0.5 1.668,1.224 0.233,0.724 -0.022,1.508 -0.633,1.965 l -10.327,7.62 3.875,12.242 c 0.228,0.724 -0.034,1.517 -0.647,1.965 -0.314,0.224 -0.68,0.337 -1.043,0.337 z"
   id="path268" />
</g>
<path
   style="fill:#f5f5f5"
   d="m 384,242.758 4.461,13.378 14.102,0.109 -11.345,8.377 4.254,13.445 -11.472,-8.199 -11.473,8.201 4.254,-13.445 -11.345,-8.377 14.102,-0.109 4.462,-13.38 m 0,-3.531 c -1.519,0 -2.869,0.972 -3.35,2.414 l -3.663,10.984 -11.578,0.09 c -1.519,0.011 -2.861,0.994 -3.33,2.44 -0.47,1.446 0.038,3.029 1.26,3.932 l 9.314,6.878 -3.492,11.039 c -0.458,1.449 0.062,3.029 1.291,3.922 0.619,0.449 1.347,0.674 2.076,0.674 0.719,0 1.439,-0.22 2.053,-0.659 l 9.42,-6.733 9.42,6.733 c 0.615,0.438 1.334,0.659 2.054,0.659 0.728,0 1.457,-0.225 2.076,-0.674 1.229,-0.894 1.749,-2.473 1.291,-3.922 l -3.492,-11.039 9.314,-6.878 c 1.223,-0.903 1.73,-2.486 1.26,-3.932 -0.47,-1.445 -1.811,-2.429 -3.33,-2.44 l -11.578,-0.09 -3.663,-10.984 c -0.484,-1.441 -1.834,-2.414 -3.353,-2.414 z"
   id="path272" />
<path
   style="fill:#ff4b55"
   d="m 395.474,137.517 c -0.362,0 -0.719,-0.113 -1.026,-0.328 L 384,129.716 373.551,137.19 c -0.306,0.215 -0.668,0.328 -1.026,0.328 -0.362,0 -0.728,-0.113 -1.038,-0.337 -0.612,-0.448 -0.875,-1.241 -0.647,-1.965 l 3.875,-12.242 -10.327,-7.629 c -0.612,-0.457 -0.866,-1.25 -0.633,-1.965 0.237,-0.724 0.909,-1.216 1.668,-1.224 l 12.841,-0.095 4.061,-12.181 c 0.242,-0.715 0.918,-1.207 1.677,-1.207 0.759,0 1.436,0.491 1.677,1.207 l 4.061,12.181 12.841,0.095 c 0.759,0.009 1.431,0.5 1.668,1.224 0.233,0.715 -0.022,1.508 -0.633,1.965 l -10.327,7.629 3.875,12.242 c 0.228,0.724 -0.034,1.517 -0.647,1.965 -0.314,0.224 -0.68,0.336 -1.043,0.336 z"
   id="path274" />
<path
   style="fill:#f5f5f5"
   d="m 384,100.437 4.461,13.378 14.102,0.109 -11.345,8.377 4.254,13.446 -11.472,-8.201 -11.473,8.201 4.254,-13.446 -11.345,-8.377 14.102,-0.109 4.462,-13.378 m 0,-3.531 c -1.519,0 -2.869,0.972 -3.35,2.414 l -3.663,10.984 -11.578,0.09 c -1.519,0.011 -2.861,0.994 -3.33,2.44 -0.47,1.446 0.038,3.029 1.26,3.932 l 9.314,6.878 -3.492,11.039 c -0.458,1.449 0.062,3.029 1.291,3.922 0.619,0.449 1.347,0.674 2.076,0.674 0.719,0 1.439,-0.22 2.053,-0.659 l 9.42,-6.733 9.42,6.733 c 0.615,0.438 1.334,0.659 2.054,0.659 0.728,0 1.457,-0.225 2.076,-0.674 1.229,-0.894 1.749,-2.473 1.291,-3.922 l -3.492,-11.039 9.314,-6.878 c 1.223,-0.903 1.73,-2.486 1.26,-3.932 -0.47,-1.446 -1.811,-2.429 -3.33,-2.44 l -11.578,-0.09 -3.663,-10.984 C 386.869,97.878 385.519,96.906 384,96.906 Z"
   id="path276" />
<path
   style="fill:#ff4b55"
   d="m 457.267,181.655 c -0.362,0 -0.719,-0.113 -1.026,-0.328 l -10.447,-7.474 -10.449,7.474 c -0.306,0.215 -0.668,0.328 -1.026,0.328 -0.362,0 -0.728,-0.113 -1.038,-0.337 -0.612,-0.448 -0.875,-1.241 -0.647,-1.965 l 3.875,-12.242 -10.327,-7.629 c -0.612,-0.457 -0.866,-1.25 -0.633,-1.965 0.237,-0.724 0.909,-1.216 1.668,-1.224 l 12.841,-0.095 4.061,-12.181 c 0.242,-0.715 0.918,-1.207 1.677,-1.207 0.759,0 1.436,0.491 1.677,1.207 l 4.061,12.181 12.841,0.095 c 0.759,0.009 1.431,0.5 1.668,1.224 0.233,0.715 -0.022,1.508 -0.633,1.965 l -10.327,7.629 3.875,12.242 c 0.228,0.724 -0.034,1.517 -0.647,1.965 -0.315,0.224 -0.681,0.337 -1.044,0.337 z"
   id="path278" />
<path
   style="fill:#f5f5f5"
   d="m 445.793,144.575 4.461,13.378 14.102,0.109 -11.345,8.377 4.254,13.446 -11.473,-8.201 -11.473,8.201 4.254,-13.445 -11.345,-8.377 14.102,-0.109 4.463,-13.379 m 0,-3.531 c -1.519,0 -2.869,0.972 -3.35,2.414 l -3.663,10.984 -11.578,0.09 c -1.519,0.011 -2.861,0.994 -3.33,2.44 -0.47,1.446 0.038,3.029 1.26,3.932 l 9.314,6.878 -3.492,11.039 c -0.458,1.449 0.062,3.029 1.291,3.922 0.619,0.449 1.347,0.674 2.076,0.674 0.719,0 1.439,-0.22 2.054,-0.659 l 9.42,-6.733 9.42,6.733 c 0.615,0.438 1.334,0.659 2.053,0.659 0.728,0 1.457,-0.225 2.076,-0.674 1.229,-0.894 1.749,-2.473 1.291,-3.922 l -3.492,-11.039 9.314,-6.878 c 1.223,-0.903 1.73,-2.486 1.26,-3.932 -0.47,-1.446 -1.811,-2.429 -3.33,-2.44 l -11.578,-0.09 -3.663,-10.984 c -0.484,-1.442 -1.833,-2.414 -3.353,-2.414 z"
   id="path280" />
<path
   style="fill:#ff4b55"
   d="m 333.681,199.31 c -0.362,0 -0.719,-0.113 -1.026,-0.328 l -10.447,-7.474 -10.449,7.474 c -0.306,0.215 -0.668,0.328 -1.026,0.328 -0.362,0 -0.728,-0.113 -1.038,-0.337 -0.612,-0.448 -0.875,-1.241 -0.647,-1.965 l 3.875,-12.242 -10.327,-7.629 c -0.612,-0.457 -0.866,-1.25 -0.633,-1.965 0.237,-0.724 0.909,-1.216 1.668,-1.224 l 12.841,-0.095 4.061,-12.181 c 0.242,-0.715 0.918,-1.207 1.677,-1.207 0.759,0 1.436,0.491 1.677,1.207 l 4.061,12.181 12.841,0.095 c 0.759,0.009 1.431,0.5 1.668,1.224 0.233,0.715 -0.022,1.508 -0.633,1.965 l -10.327,7.629 3.875,12.242 c 0.228,0.724 -0.034,1.517 -0.647,1.965 -0.315,0.225 -0.681,0.337 -1.044,0.337 z"
   id="path282" />
<path
   style="fill:#f5f5f5"
   d="m 322.207,162.23 4.461,13.378 14.102,0.109 -11.345,8.377 4.254,13.446 -11.473,-8.201 -11.473,8.201 4.254,-13.446 -11.345,-8.377 14.102,-0.109 4.463,-13.378 m 0,-3.531 c -1.519,0 -2.869,0.972 -3.35,2.414 l -3.663,10.984 -11.578,0.09 c -1.519,0.011 -2.861,0.994 -3.33,2.44 -0.47,1.446 0.038,3.029 1.26,3.932 l 9.314,6.878 -3.492,11.039 c -0.458,1.449 0.062,3.029 1.291,3.922 0.619,0.449 1.347,0.674 2.076,0.674 0.719,0 1.439,-0.22 2.054,-0.659 l 9.42,-6.733 9.42,6.733 c 0.615,0.438 1.334,0.659 2.053,0.659 0.728,0 1.457,-0.225 2.076,-0.674 1.229,-0.894 1.749,-2.473 1.291,-3.922 l -3.492,-11.039 9.314,-6.878 c 1.223,-0.903 1.73,-2.486 1.26,-3.932 -0.47,-1.446 -1.811,-2.429 -3.33,-2.44 l -11.578,-0.09 -3.663,-10.984 c -0.484,-1.442 -1.834,-2.414 -3.353,-2.414 z"
   id="path284" />
<g
   id="g286"
   transform="translate(0,-88.276)">
</g>
<g
   id="g288"
   transform="translate(0,-88.276)">
</g>
<g
   id="g290"
   transform="translate(0,-88.276)">
</g>
<g
   id="g292"
   transform="translate(0,-88.276)">
</g>
<g
   id="g294"
   transform="translate(0,-88.276)">
</g>
<g
   id="g296"
   transform="translate(0,-88.276)">
</g>
<g
   id="g298"
   transform="translate(0,-88.276)">
</g>
<g
   id="g300"
   transform="translate(0,-88.276)">
</g>
<g
   id="g302"
   transform="translate(0,-88.276)">
</g>
<g
   id="g304"
   transform="translate(0,-88.276)">
</g>
<g
   id="g306"
   transform="translate(0,-88.276)">
</g>
<g
   id="g308"
   transform="translate(0,-88.276)">
</g>
<g
   id="g310"
   transform="translate(0,-88.276)">
</g>
<g
   id="g312"
   transform="translate(0,-88.276)">
</g>
<g
   id="g314"
   transform="translate(0,-88.276)">
</g>
</svg>
