<svg xmlns="http://www.w3.org/2000/svg" xml:space="preserve" width="512" height="335.45001"><path style="fill:#41479b" d="M473.655 335.448H38.345C17.167 335.448 0 318.281 0 297.103V38.345C0 17.168 17.167 0 38.345 0h435.31C494.832 0 512 17.167 512 38.345v258.759c0 21.177-17.167 38.344-38.345 38.344z"/><path style="fill:#f5f5f5" d="M8.828 167.724h15.334l81.77-53.574v53.574h44.138V114.15l81.769 53.574h15.334c4.876 0 8.828-3.953 8.828-8.828v-7.002l-70.155-45.963H256V61.793h-70.155L256 15.83V8.828C256 3.953 252.049 0 247.172 0h-15.334l-81.77 53.574V0H105.93v53.574L26.844 1.758C17.61 4.658 9.89 10.961 5.133 19.192l65.023 42.601H0v44.138h70.155L0 151.894v7.002c0 4.875 3.953 8.828 8.828 8.828z"/><path style="fill:#ff4b55" d="M141.241 88.276h-26.482v70.621H0v26.482h114.759V256h26.482v-70.621H256v-26.482H141.241z" transform="translate(0 -88.276)"/><path style="fill:#ff4b55" d="m8.227 102.902 72.662 47.167h16.214l-82.496-53.55c-2.369 1.87-4.51 4.013-6.38 6.383zm158.056 47.167 88.374-57.366c-1.536-2.599-4.246-4.427-7.485-4.427h-1.909l-95.194 61.793zm-76.809 44.138L1.269 251.463C2.79 254.125 5.543 256 8.828 256h1.665l95.196-61.793zm166.386 53.658-82.666-53.658H156.98l93.874 60.935c2.812-1.305 4.741-4.04 5.006-7.277zm139.614 120.248c-.358 0-.719-.113-1.026-.328L384 360.319l-10.449 7.466c-.306.215-.668.328-1.026.328-.366 0-.728-.113-1.038-.337-.612-.448-.875-1.241-.647-1.965l3.875-12.242-10.327-7.62c-.612-.457-.866-1.241-.633-1.965.237-.724.905-1.216 1.668-1.224l12.841-.104 4.061-12.181c.242-.715.918-1.207 1.677-1.207s1.436.491 1.677 1.207l4.061 12.181 12.841.104c.763.009 1.431.5 1.668 1.224.233.724-.022 1.508-.633 1.965l-10.327 7.62 3.875 12.242c.228.724-.034 1.517-.647 1.965-.314.224-.68.337-1.043.337z" transform="translate(0 -88.276)"/><path style="fill:#f5f5f5" d="m384 242.758 4.461 13.378 14.102.109-11.345 8.377 4.254 13.445L384 269.868l-11.473 8.201 4.254-13.445-11.345-8.377 14.102-.109 4.462-13.38m0-3.531c-1.519 0-2.869.972-3.35 2.414l-3.663 10.984-11.578.09c-1.519.011-2.861.994-3.33 2.44-.47 1.446.038 3.029 1.26 3.932l9.314 6.878-3.492 11.039c-.458 1.449.062 3.029 1.291 3.922.619.449 1.347.674 2.076.674.719 0 1.439-.22 2.053-.659l9.42-6.733 9.42 6.733c.615.438 1.334.659 2.054.659.728 0 1.457-.225 2.076-.674 1.229-.894 1.749-2.473 1.291-3.922l-3.492-11.039 9.314-6.878c1.223-.903 1.73-2.486 1.26-3.932-.47-1.445-1.811-2.429-3.33-2.44l-11.578-.09-3.663-10.984c-.484-1.441-1.834-2.414-3.353-2.414z"/><path style="fill:#ff4b55" d="M395.474 137.517c-.362 0-.719-.113-1.026-.328L384 129.716l-10.449 7.474c-.306.215-.668.328-1.026.328-.362 0-.728-.113-1.038-.337-.612-.448-.875-1.241-.647-1.965l3.875-12.242-10.327-7.629c-.612-.457-.866-1.25-.633-1.965.237-.724.909-1.216 1.668-1.224l12.841-.095 4.061-12.181c.242-.715.918-1.207 1.677-1.207s1.436.491 1.677 1.207l4.061 12.181 12.841.095c.759.009 1.431.5 1.668 1.224.233.715-.022 1.508-.633 1.965l-10.327 7.629 3.875 12.242c.228.724-.034 1.517-.647 1.965-.314.224-.68.336-1.043.336z"/><path style="fill:#f5f5f5" d="m384 100.437 4.461 13.378 14.102.109-11.345 8.377 4.254 13.446L384 127.546l-11.473 8.201 4.254-13.446-11.345-8.377 14.102-.109L384 100.437m0-3.531c-1.519 0-2.869.972-3.35 2.414l-3.663 10.984-11.578.09c-1.519.011-2.861.994-3.33 2.44-.47 1.446.038 3.029 1.26 3.932l9.314 6.878-3.492 11.039c-.458 1.449.062 3.029 1.291 3.922.619.449 1.347.674 2.076.674.719 0 1.439-.22 2.053-.659l9.42-6.733 9.42 6.733c.615.438 1.334.659 2.054.659.728 0 1.457-.225 2.076-.674 1.229-.894 1.749-2.473 1.291-3.922l-3.492-11.039 9.314-6.878c1.223-.903 1.73-2.486 1.26-3.932-.47-1.446-1.811-2.429-3.33-2.44l-11.578-.09-3.663-10.984c-.484-1.442-1.834-2.414-3.353-2.414z"/><path style="fill:#ff4b55" d="M457.267 181.655c-.362 0-.719-.113-1.026-.328l-10.447-7.474-10.449 7.474c-.306.215-.668.328-1.026.328-.362 0-.728-.113-1.038-.337-.612-.448-.875-1.241-.647-1.965l3.875-12.242-10.327-7.629c-.612-.457-.866-1.25-.633-1.965.237-.724.909-1.216 1.668-1.224l12.841-.095 4.061-12.181c.242-.715.918-1.207 1.677-1.207s1.436.491 1.677 1.207l4.061 12.181 12.841.095c.759.009 1.431.5 1.668 1.224.233.715-.022 1.508-.633 1.965l-10.327 7.629 3.875 12.242c.228.724-.034 1.517-.647 1.965-.315.224-.681.337-1.044.337z"/><path style="fill:#f5f5f5" d="m445.793 144.575 4.461 13.378 14.102.109-11.345 8.377 4.254 13.446-11.473-8.201-11.473 8.201 4.254-13.445-11.345-8.377 14.102-.109 4.463-13.379m0-3.531c-1.519 0-2.869.972-3.35 2.414l-3.663 10.984-11.578.09c-1.519.011-2.861.994-3.33 2.44-.47 1.446.038 3.029 1.26 3.932l9.314 6.878-3.492 11.039c-.458 1.449.062 3.029 1.291 3.922.619.449 1.347.674 2.076.674.719 0 1.439-.22 2.054-.659l9.42-6.733 9.42 6.733c.615.438 1.334.659 2.053.659.728 0 1.457-.225 2.076-.674 1.229-.894 1.749-2.473 1.291-3.922l-3.492-11.039 9.314-6.878c1.223-.903 1.73-2.486 1.26-3.932-.47-1.446-1.811-2.429-3.33-2.44l-11.578-.09-3.663-10.984c-.484-1.442-1.833-2.414-3.353-2.414z"/><path style="fill:#ff4b55" d="M333.681 199.31c-.362 0-.719-.113-1.026-.328l-10.447-7.474-10.449 7.474c-.306.215-.668.328-1.026.328-.362 0-.728-.113-1.038-.337-.612-.448-.875-1.241-.647-1.965l3.875-12.242-10.327-7.629c-.612-.457-.866-1.25-.633-1.965.237-.724.909-1.216 1.668-1.224l12.841-.095 4.061-12.181c.242-.715.918-1.207 1.677-1.207s1.436.491 1.677 1.207l4.061 12.181 12.841.095c.759.009 1.431.5 1.668 1.224.233.715-.022 1.508-.633 1.965l-10.327 7.629 3.875 12.242c.228.724-.034 1.517-.647 1.965-.315.225-.681.337-1.044.337z"/><path style="fill:#f5f5f5" d="m322.207 162.23 4.461 13.378 14.102.109-11.345 8.377 4.254 13.446-11.473-8.201-11.473 8.201 4.254-13.446-11.345-8.377 14.102-.109 4.463-13.378m0-3.531c-1.519 0-2.869.972-3.35 2.414l-3.663 10.984-11.578.09c-1.519.011-2.861.994-3.33 2.44-.47 1.446.038 3.029 1.26 3.932l9.314 6.878-3.492 11.039c-.458 1.449.062 3.029 1.291 3.922.619.449 1.347.674 2.076.674.719 0 1.439-.22 2.054-.659l9.42-6.733 9.42 6.733c.615.438 1.334.659 2.053.659.728 0 1.457-.225 2.076-.674 1.229-.894 1.749-2.473 1.291-3.922l-3.492-11.039 9.314-6.878c1.223-.903 1.73-2.486 1.26-3.932-.47-1.446-1.811-2.429-3.33-2.44l-11.578-.09-3.663-10.984c-.484-1.442-1.834-2.414-3.353-2.414z"/></svg>