<?xml version="1.0" encoding="UTF-8" standalone="no"?>
<svg
   xmlns:dc="http://purl.org/dc/elements/1.1/"
   xmlns:cc="http://creativecommons.org/ns#"
   xmlns:rdf="http://www.w3.org/1999/02/22-rdf-syntax-ns#"
   xmlns:svg="http://www.w3.org/2000/svg"
   xmlns="http://www.w3.org/2000/svg"
   xmlns:sodipodi="http://sodipodi.sourceforge.net/DTD/sodipodi-0.dtd"
   xmlns:inkscape="http://www.inkscape.org/namespaces/inkscape"
   version="1.1"
   id="Layer_1"
   x="0px"
   y="0px"
   viewBox="0 0 512 335.45001"
   xml:space="preserve"
   sodipodi:docname="om.svg"
   width="512"
   height="335.45001"
   inkscape:version="1.0.1 (c497b03c, 2020-09-10)"><metadata
   id="metadata164"><rdf:RDF><cc:Work
       rdf:about=""><dc:format>image/svg+xml</dc:format><dc:type
         rdf:resource="http://purl.org/dc/dcmitype/StillImage" /><dc:title></dc:title></cc:Work></rdf:RDF></metadata><defs
   id="defs162" /><sodipodi:namedview
   pagecolor="#ffffff"
   bordercolor="#666666"
   borderopacity="1"
   objecttolerance="10"
   gridtolerance="10"
   guidetolerance="10"
   inkscape:pageopacity="0"
   inkscape:pageshadow="2"
   inkscape:window-width="969"
   inkscape:window-height="553"
   id="namedview160"
   showgrid="false"
   inkscape:zoom="1.0214844"
   inkscape:cx="256"
   inkscape:cy="256"
   inkscape:window-x="0"
   inkscape:window-y="23"
   inkscape:window-maximized="0"
   inkscape:current-layer="Layer_1" />
<path
   style="fill:#f5f5f5"
   d="M 473.655,0 H 38.345 C 17.167,0 0,17.167 0,38.345 v 73.471 H 512 V 38.345 C 512,17.167 494.833,0 473.655,0 Z"
   id="path61" />
<path
   style="fill:#73af00"
   d="m 0,297.103 c 0,21.177 17.167,38.345 38.345,38.345 h 435.31 c 21.177,0 38.345,-17.167 38.345,-38.345 V 223.632 H 0 Z"
   id="path63" />
<g
   id="g69"
   transform="translate(0,-88.275)">
	<rect
   y="200.089"
   style="fill:#ff4b55"
   width="512"
   height="111.81"
   id="rect65"
   x="0" />
	<path
   style="fill:#ff4b55"
   d="M 38.345,88.275 C 17.167,88.275 0,105.442 0,126.62 v 258.76 c 0,21.177 17.167,38.345 38.345,38.345 h 94.069 V 88.275 Z"
   id="path67" />
</g>
<g
   id="g125"
   transform="translate(0,-88.275)">
	<path
   style="fill:#f5f5f5"
   d="m 36.056,161.442 c -0.494,0.056 -0.971,0.116 -1.436,0.178 v 6.287 c 0.468,0.119 0.945,0.237 1.436,0.353 z"
   id="path71" />
	<path
   style="fill:#f5f5f5"
   d="m 57.803,173.425 c -1.311,-0.105 -3.325,-0.307 -5.729,-0.6 l -15.079,13.411 c 1.953,0.298 4.294,0.694 5.271,1.005 3.875,-3.389 9.069,-8.009 15.537,-13.816 z"
   id="path73" />
	<polygon
   style="fill:#f5f5f5"
   points="80.491,150.804 53.739,150.804 53.739,151.436 53.739,152.095 53.739,152.727 80.491,152.727 80.491,152.095 80.491,151.436 "
   id="polygon75" />
	<path
   style="fill:#f5f5f5"
   d="m 60.685,113.835 c 0,1.884 2.839,3.475 6.2,3.475 3.361,0 6.2,-1.591 6.2,-3.475 0,-1.884 -2.839,-3.475 -6.2,-3.475 -3.361,0 -6.2,1.592 -6.2,3.475 z"
   id="path77" />
	<path
   style="fill:#f5f5f5"
   d="m 54.887,160.592 c -6.039,-0.03 -12.066,0.192 -16.993,0.658 v 7.422 c 5.789,1.242 12.533,2.194 16.993,2.668 0,-0.001 0,-10.748 0,-10.748 z"
   id="path79" />
	<path
   style="fill:#f5f5f5"
   d="m 23.776,197.219 c 2.387,-0.051 7.63,-0.994 11.18,-3.767 1.101,-0.86 2.979,-2.442 5.62,-4.736 -1.791,-0.367 -4.796,-0.812 -6.398,-1.033 z"
   id="path81" />
	<path
   style="fill:#f5f5f5"
   d="m 58.332,148.967 v -3.374 c -0.452,-0.674 -0.919,-1.369 -1.395,-2.076 l -4.107,2.987 c 0.818,1.405 1.342,2.298 1.439,2.463 z"
   id="path83" />
	<path
   style="fill:#f5f5f5"
   d="m 26.728,164.201 c -0.013,0.055 -0.045,0.183 0.161,0.449 0.762,0.977 2.968,1.91 5.895,2.759 v -5.516 c -3.515,0.582 -5.817,1.353 -6.056,2.308 z"
   id="path85" />
	<path
   style="fill:#f5f5f5"
   d="m 73.717,161.568 v -7.004 H 60.169 v 17.108 h 3.445 c 5.57,0.001 10.103,-4.533 10.103,-10.104 z"
   id="path87" />
	<path
   style="fill:#f5f5f5"
   d="m 51.942,136.126 c -7.254,-10.692 -15.001,-21.93 -16.892,-24.157 0.27,0.995 0.925,2.866 2.452,6.366 1.971,4.518 6.755,13.177 10.716,20.149 z"
   id="path89" />
	<path
   style="fill:#f5f5f5"
   d="m 49.128,140.083 c 1.032,1.806 1.977,3.448 2.774,4.824 l 4.007,-2.914 c -0.953,-1.415 -1.934,-2.866 -2.935,-4.344 z"
   id="path91" />
	<path
   style="fill:#f5f5f5"
   d="m 58.332,171.639 v -11.005 c -0.535,-0.011 -1.07,-0.022 -1.608,-0.029 v 10.913 c 0.619,0.056 1.158,0.097 1.608,0.121 z"
   id="path93" />
	<rect
   x="60.169998"
   y="139.52"
   style="fill:#f5f5f5"
   width="13.548"
   height="1.923"
   id="rect95" />
	<path
   style="fill:#f5f5f5"
   d="m 92.547,148.852 v 0.115 h 0.689 c 0.508,0 0.919,0.41 0.919,0.919 v 3.761 c 0,0.508 -0.41,0.918 -0.919,0.918 h -0.689 v 0.115 c 0,0.505 0.412,0.918 0.918,0.918 h 15.501 c 0.506,0 0.918,-0.413 0.918,-0.918 v -5.827 c 0,-0.505 -0.412,-0.919 -0.918,-0.919 h -15.5 c -0.507,0 -0.919,0.411 -0.919,0.918 z"
   id="path97" />
	<path
   style="fill:#f5f5f5"
   d="m 109.89,197.169 -10.345,-9.485 c -1.602,0.221 -4.606,0.665 -6.398,1.033 2.689,2.333 4.567,3.915 5.62,4.738 3.495,2.727 8.631,3.684 11.123,3.714 z"
   id="path99" />
	<polygon
   style="fill:#f5f5f5"
   points="88.643,152.727 92.318,152.727 92.318,150.804 88.643,150.804 88.643,151.436 88.643,152.095 "
   id="polygon101" />
	<path
   style="fill:#f5f5f5"
   d="m 91.454,187.242 c 0.977,-0.313 3.321,-0.71 5.278,-1.007 L 74.518,166.412 c -0.602,1.352 -1.442,2.575 -2.476,3.606 l 0.585,0.522 c 8.047,7.205 14.338,12.784 18.827,16.702 z"
   id="path103" />
	<path
   style="fill:#f5f5f5"
   d="m 41.683,154.678 v -0.115 h -0.689 c -0.508,0 -0.919,-0.41 -0.919,-0.918 v -3.761 c 0,-0.508 0.41,-0.919 0.919,-0.919 h 0.689 v -0.115 c 0,-0.505 -0.412,-0.919 -0.919,-0.919 h -15.5 c -0.506,0 -0.918,0.413 -0.918,0.919 v 5.827 c 0,0.505 0.412,0.918 0.918,0.918 h 15.5 c 0.507,0.003 0.919,-0.409 0.919,-0.917 z"
   id="path105" />
	<polygon
   style="fill:#f5f5f5"
   points="45.587,150.804 41.912,150.804 41.912,152.727 45.587,152.727 45.587,152.095 45.587,151.436 "
   id="polygon107" />
	<path
   style="fill:#f5f5f5"
   d="m 80.895,146.505 -4.107,-2.987 c -0.42,0.625 -0.831,1.236 -1.234,1.835 v 3.614 h 3.902 c 0.097,-0.165 0.621,-1.057 1.439,-2.462 z"
   id="path109" />
	<polygon
   style="fill:#f5f5f5"
   points="70.051,131.188 63.84,131.188 61.398,133.896 72.493,133.896 "
   id="polygon111" />
	<rect
   x="60.169998"
   y="135.82001"
   style="fill:#f5f5f5"
   width="13.548"
   height="1.8660001"
   id="rect113" />
	<path
   style="fill:#f5f5f5"
   d="m 66.886,119.147 c -0.893,0 -1.73,-0.115 -2.526,-0.285 v 10.383 h 5.109 v -10.394 c -0.812,0.178 -1.67,0.296 -2.583,0.296 z"
   id="path115" />
	<path
   style="fill:#f5f5f5"
   d="m 60.169,145.206 h 13.49 c -0.002,-0.115 0.018,-0.227 0.06,-0.338 v -1.585 h -13.55 z"
   id="path117" />
	<path
   style="fill:#f5f5f5"
   d="m 77.815,141.993 4.007,2.914 c 0.797,-1.375 1.742,-3.018 2.774,-4.824 l -3.846,-2.434 c -1.002,1.479 -1.981,2.929 -2.935,4.344 z"
   id="path119" />
	<rect
   x="60.169998"
   y="147.049"
   style="fill:#f5f5f5"
   width="13.548"
   height="1.923"
   id="rect121" />
	<path
   style="fill:#f5f5f5"
   d="m 85.506,138.484 c 3.96,-6.972 8.744,-15.631 10.716,-20.149 1.532,-3.509 2.185,-5.38 2.455,-6.372 -1.857,2.179 -9.623,13.443 -16.895,24.163 z"
   id="path123" />
</g>
<path
   style="fill:#d23741"
   d="M 112.449,108.747 100.47,97.762 c -0.201,-0.184 -0.472,-0.275 -0.744,-0.233 -0.102,0.013 -0.333,0.045 -0.64,0.087 -0.017,-0.017 -0.023,-0.04 -0.042,-0.055 L 75.167,76.254 c 0.244,-0.949 0.386,-1.938 0.386,-2.961 v -7.004 h 5.792 c 0.746,0.971 1.906,1.608 3.221,1.608 1.316,0 2.476,-0.637 3.221,-1.608 h 2.921 v 0.115 c 0,1.519 1.236,2.755 2.755,2.755 h 15.501 c 1.519,0 2.755,-1.236 2.755,-2.755 v -5.827 c 0,-1.519 -1.236,-2.755 -2.755,-2.755 H 93.466 c -1.519,0 -2.755,1.236 -2.755,2.755 v 0.115 H 87.79 c -0.746,-0.971 -1.906,-1.608 -3.221,-1.608 -0.998,0 -1.9,0.374 -2.609,0.97 3.096,-5.3 12.823,-22.1 15.947,-29.259 3.351,-7.682 3.081,-8.674 2.289,-9.311 -0.836,-0.669 -1.894,0.1 -2.293,0.393 -1.537,1.117 -16.44,23.134 -22.348,31.91 v -7.246 c 0,-0.021 -0.01,-0.038 -0.011,-0.057 l -10e-4,-0.002 c -0.021,-0.311 -0.195,-0.57 -0.449,-0.719 l -3.787,-4.2 V 30.014 c 2.19,-0.94 3.617,-2.564 3.617,-4.454 0,-2.978 -3.531,-5.312 -8.038,-5.312 -4.507,0 -8.038,2.334 -8.038,5.312 0,1.906 1.453,3.538 3.674,4.473 v 11.596 l -3.715,4.121 c -0.279,0.158 -0.476,0.446 -0.476,0.789 v 7.486 C 52.538,45.418 37.372,23.003 35.823,21.876 c -0.401,-0.29 -1.46,-1.06 -2.294,-0.393 -0.793,0.637 -1.063,1.629 2.289,9.311 3.025,6.932 12.238,22.899 15.631,28.719 -0.542,-0.267 -1.143,-0.43 -1.786,-0.43 -1.316,0 -2.476,0.637 -3.221,1.608 H 43.52 v -0.115 c 0,-1.519 -1.236,-2.755 -2.755,-2.755 H 25.263 c -1.519,0 -2.755,1.236 -2.755,2.755 v 5.827 c 0,1.519 1.236,2.755 2.755,2.755 h 15.5 c 1.519,0 2.755,-1.236 2.755,-2.755 v -0.115 h 2.921 c 0.746,0.971 1.906,1.608 3.221,1.608 1.315,0 2.476,-0.637 3.222,-1.608 h 5.448 v 4.23 c -8.516,-0.182 -32.093,-0.21 -33.385,4.963 -0.12,0.479 -0.132,1.222 0.495,2.024 2.485,3.183 15.079,5.506 24.214,6.734 l -14.976,13.32 c -0.019,0.017 -0.026,0.04 -0.043,0.057 -0.307,-0.043 -0.538,-0.074 -0.64,-0.087 -0.276,-0.04 -0.544,0.049 -0.744,0.233 l -11.98,10.985 c -0.362,0.33 -0.399,0.888 -0.084,1.265 0.397,0.478 1.406,0.711 2.755,0.711 3.321,0 8.707,-1.416 12.141,-4.097 2.83,-2.21 10.67,-9.084 23.304,-20.43 0.547,-0.491 0.909,-0.817 1.07,-0.96 h 3.154 c 2.621,0 5.038,-0.858 7.01,-2.295 l 0.778,0.695 c 14.546,13.02 23.372,20.754 26.237,22.99 3.434,2.684 8.819,4.097 12.139,4.097 1.35,0 2.358,-0.233 2.756,-0.711 0.318,-0.377 0.279,-0.935 -0.082,-1.265 z M 60.169,83.398 V 66.29 h 13.548 v 7.004 c 0,5.57 -4.533,10.104 -10.104,10.104 z M 32.785,79.135 c -2.926,-0.85 -5.132,-1.782 -5.895,-2.759 -0.207,-0.266 -0.175,-0.393 -0.161,-0.449 0.239,-0.956 2.541,-1.726 6.056,-2.308 z M 35.05,23.694 c 1.89,2.227 9.638,13.463 16.892,24.157 l -3.724,2.358 C 44.258,43.237 39.474,34.578 37.502,30.06 35.975,26.56 35.32,24.691 35.05,23.694 Z m 21.886,31.549 c 0.476,0.706 0.942,1.4 1.395,2.076 v 3.374 H 54.267 C 54.17,60.529 53.646,59.636 52.828,58.23 Z m -5.034,1.39 C 51.105,55.258 50.16,53.615 49.128,51.809 l 3.846,-2.434 c 1.002,1.479 1.982,2.93 2.935,4.344 z m 6.43,15.727 V 83.365 C 57.883,83.34 57.343,83.299 56.724,83.245 V 72.332 c 0.537,0.008 1.072,0.017 1.608,0.028 z m -20.438,0.614 c 4.928,-0.466 10.954,-0.687 16.993,-0.658 V 83.064 C 50.427,82.591 43.683,81.638 37.894,80.396 Z m -3.273,0.371 c 0.465,-0.062 0.941,-0.121 1.436,-0.178 v 6.817 c -0.491,-0.116 -0.968,-0.233 -1.436,-0.353 0,0 0,-6.286 0,-6.286 z m 17.453,11.204 c 2.404,0.294 4.418,0.495 5.729,0.6 C 51.335,90.956 46.141,95.575 42.268,98.965 41.29,98.653 38.95,98.258 36.997,97.96 Z M 40.576,100.44 c -2.641,2.294 -4.519,3.878 -5.62,4.736 -3.55,2.774 -8.792,3.718 -11.18,3.767 l 10.402,-9.537 c 1.602,0.223 4.606,0.667 6.398,1.034 z M 53.739,64.452 v -0.631 -0.66 -0.631 h 26.753 v 0.631 0.66 0.631 z M 73.086,25.56 c 0,1.884 -2.839,3.475 -6.2,3.475 -3.361,0 -6.2,-1.591 -6.2,-3.475 0,-1.884 2.839,-3.475 6.2,-3.475 3.361,0 6.2,1.592 6.2,3.475 z M 60.169,53.172 v -1.923 h 13.548 v 1.923 z m 13.548,1.836 v 1.585 c -0.042,0.111 -0.062,0.223 -0.06,0.338 H 60.169 v -1.923 h 13.548 c 0,0 0,0 0,0 z M 60.169,49.411 v -1.866 h 13.548 v 1.866 z m 9.882,-6.498 2.442,2.709 H 61.398 L 63.84,42.913 Z M 64.36,40.971 V 30.588 c 0.797,0.17 1.633,0.285 2.526,0.285 0.914,0 1.771,-0.118 2.583,-0.296 v 10.394 z m -4.191,17.798 h 13.548 v 1.923 H 60.169 Z M 96.222,30.06 c -1.971,4.518 -6.755,13.177 -10.716,20.149 l -3.724,-2.358 c 7.272,-10.72 15.038,-21.984 16.895,-24.163 -0.27,0.992 -0.924,2.863 -2.455,6.372 z m -9.415,33.101 v 0.66 c 0,1.235 -1.004,2.239 -2.239,2.239 -1.235,0 -2.239,-1.004 -2.239,-2.239 v -0.66 c 0,-1.235 1.004,-2.239 2.239,-2.239 1.234,0 2.239,1.004 2.239,2.239 z m -4.985,-6.528 -4.007,-2.914 c 0.953,-1.415 1.934,-2.866 2.935,-4.344 l 3.846,2.434 c -1.032,1.805 -1.978,3.447 -2.774,4.824 z m -6.268,0.444 c 0.403,-0.6 0.813,-1.21 1.234,-1.835 l 4.107,2.987 c -0.818,1.405 -1.342,2.298 -1.439,2.463 h -3.902 z m -1.036,21.059 22.214,19.823 c -1.955,0.299 -4.301,0.695 -5.278,1.007 -4.49,-3.921 -10.78,-9.497 -18.828,-16.703 l -0.585,-0.522 c 1.035,-1.028 1.873,-2.252 2.477,-3.605 z m 25.028,21.271 10.345,9.485 c -2.493,-0.029 -7.628,-0.984 -11.122,-3.713 -1.053,-0.823 -2.931,-2.406 -5.62,-4.738 1.791,-0.368 4.795,-0.812 6.397,-1.034 z m 10.34,-38.83 v 5.827 c 0,0.505 -0.412,0.918 -0.918,0.918 H 93.466 c -0.506,0 -0.918,-0.413 -0.918,-0.918 v -0.115 h 0.689 c 0.508,0 0.919,-0.41 0.919,-0.918 V 61.61 c 0,-0.508 -0.41,-0.919 -0.919,-0.919 h -0.689 v -0.115 c 0,-0.505 0.412,-0.919 0.918,-0.919 h 15.501 c 0.506,0.002 0.919,0.413 0.919,0.92 z m -17.568,3.875 h -3.674 v -0.631 -0.66 -0.631 h 3.674 z m -67.973,1.951 v -5.827 c 0,-0.505 0.412,-0.919 0.918,-0.919 h 15.5 c 0.506,0 0.919,0.413 0.919,0.919 v 0.115 h -0.689 c -0.508,0 -0.919,0.41 -0.919,0.919 v 3.761 c 0,0.508 0.41,0.918 0.919,0.918 h 0.689 v 0.115 c 0,0.505 -0.412,0.918 -0.919,0.918 h -15.5 c -0.506,10e-4 -0.918,-0.411 -0.918,-0.919 z m 17.567,-3.874 h 3.674 v 0.631 0.66 0.631 h -3.674 z m 9.99,1.291 c 0,1.235 -1.005,2.239 -2.239,2.239 -1.234,0 -2.239,-1.004 -2.239,-2.239 v -0.66 c 0,-1.235 1.004,-2.239 2.239,-2.239 1.235,0 2.239,1.004 2.239,2.239 z"
   id="path127" />
<g
   id="g129"
   transform="translate(0,-88.275)">
</g>
<g
   id="g131"
   transform="translate(0,-88.275)">
</g>
<g
   id="g133"
   transform="translate(0,-88.275)">
</g>
<g
   id="g135"
   transform="translate(0,-88.275)">
</g>
<g
   id="g137"
   transform="translate(0,-88.275)">
</g>
<g
   id="g139"
   transform="translate(0,-88.275)">
</g>
<g
   id="g141"
   transform="translate(0,-88.275)">
</g>
<g
   id="g143"
   transform="translate(0,-88.275)">
</g>
<g
   id="g145"
   transform="translate(0,-88.275)">
</g>
<g
   id="g147"
   transform="translate(0,-88.275)">
</g>
<g
   id="g149"
   transform="translate(0,-88.275)">
</g>
<g
   id="g151"
   transform="translate(0,-88.275)">
</g>
<g
   id="g153"
   transform="translate(0,-88.275)">
</g>
<g
   id="g155"
   transform="translate(0,-88.275)">
</g>
<g
   id="g157"
   transform="translate(0,-88.275)">
</g>
</svg>
