<?xml version="1.0" encoding="UTF-8" standalone="no"?>
<svg
   xmlns:dc="http://purl.org/dc/elements/1.1/"
   xmlns:cc="http://creativecommons.org/ns#"
   xmlns:rdf="http://www.w3.org/1999/02/22-rdf-syntax-ns#"
   xmlns:svg="http://www.w3.org/2000/svg"
   xmlns="http://www.w3.org/2000/svg"
   xmlns:sodipodi="http://sodipodi.sourceforge.net/DTD/sodipodi-0.dtd"
   xmlns:inkscape="http://www.inkscape.org/namespaces/inkscape"
   version="1.1"
   id="Layer_1"
   x="0px"
   y="0px"
   viewBox="0 0 512 335.45001"
   xml:space="preserve"
   sodipodi:docname="pa.svg"
   width="512"
   height="335.45001"
   inkscape:version="1.0.1 (c497b03c, 2020-09-10)"><metadata
   id="metadata433"><rdf:RDF><cc:Work
       rdf:about=""><dc:format>image/svg+xml</dc:format><dc:type
         rdf:resource="http://purl.org/dc/dcmitype/StillImage" /><dc:title></dc:title></cc:Work></rdf:RDF></metadata><defs
   id="defs431" /><sodipodi:namedview
   pagecolor="#ffffff"
   bordercolor="#666666"
   borderopacity="1"
   objecttolerance="10"
   gridtolerance="10"
   guidetolerance="10"
   inkscape:pageopacity="0"
   inkscape:pageshadow="2"
   inkscape:window-width="982"
   inkscape:window-height="587"
   id="namedview429"
   showgrid="false"
   inkscape:zoom="0.87109375"
   inkscape:cx="256"
   inkscape:cy="256"
   inkscape:window-x="0"
   inkscape:window-y="23"
   inkscape:window-maximized="0"
   inkscape:current-layer="Layer_1" />
<g
   id="g386"
   transform="translate(0,-88.275)">
	<path
   style="fill:#f5f5f5"
   d="M 503.172,256 H 256 v 158.897 c 0,4.875 -3.953,8.828 -8.828,8.828 H 473.655 C 494.832,423.725 512,406.558 512,385.38 V 247.172 c 0,4.875 -3.953,8.828 -8.828,8.828 z"
   id="path382" />
	<path
   style="fill:#f5f5f5"
   d="M 8.828,256 H 256 V 97.103 c 0,-4.875 3.953,-8.828 8.828,-8.828 H 38.345 C 17.167,88.276 0,105.443 0,126.621 V 264.828 C 0,259.953 3.953,256 8.828,256 Z"
   id="path384" />
</g>
<path
   style="fill:#ff4b55"
   d="M 473.655,0.001 H 264.828 C 259.953,0.001 256,3.954 256,8.829 v 158.896 h 247.172 c 4.875,0 8.828,-3.953 8.828,-8.828 V 38.346 C 512,17.168 494.833,0.001 473.655,0.001 Z"
   id="path388" />
<g
   id="g394"
   transform="translate(0,-88.275)">
	<path
   style="fill:#4173cd"
   d="M 256,414.897 V 256 H 8.828 C 3.953,256 0,259.953 0,264.828 V 385.38 c 0,21.177 17.167,38.345 38.345,38.345 h 208.828 c 4.874,-0.001 8.827,-3.953 8.827,-8.828 z"
   id="path390" />
	<path
   style="fill:#4173cd"
   d="m 131.4,134.487 8.416,25.234 26.6,0.206 c 3.444,0.026 4.872,4.422 2.101,6.467 l -21.398,15.801 8.023,25.362 c 1.038,3.284 -2.7,5.999 -5.502,3.997 L 128,196.087 106.359,211.555 c -2.802,2.003 -6.54,-0.714 -5.502,-3.997 l 8.023,-25.362 -21.398,-15.801 c -2.771,-2.046 -1.342,-6.441 2.101,-6.467 l 26.6,-0.206 8.416,-25.234 c 1.09,-3.267 5.712,-3.267 6.801,-0.001 z"
   id="path392" />
</g>
<path
   style="fill:#ff4b55"
   d="m 387.4,213.936 8.416,25.234 26.6,0.206 c 3.444,0.026 4.872,4.422 2.101,6.467 l -21.398,15.801 8.023,25.362 c 1.038,3.284 -2.7,5.999 -5.502,3.997 L 384,275.536 362.359,291.004 c -2.802,2.003 -6.54,-0.714 -5.502,-3.997 l 8.023,-25.362 -21.398,-15.801 c -2.771,-2.046 -1.342,-6.441 2.101,-6.467 l 26.6,-0.206 8.416,-25.234 c 1.09,-3.268 5.712,-3.268 6.801,-0.001 z"
   id="path396" />
<g
   id="g398"
   transform="translate(0,-88.275)">
</g>
<g
   id="g400"
   transform="translate(0,-88.275)">
</g>
<g
   id="g402"
   transform="translate(0,-88.275)">
</g>
<g
   id="g404"
   transform="translate(0,-88.275)">
</g>
<g
   id="g406"
   transform="translate(0,-88.275)">
</g>
<g
   id="g408"
   transform="translate(0,-88.275)">
</g>
<g
   id="g410"
   transform="translate(0,-88.275)">
</g>
<g
   id="g412"
   transform="translate(0,-88.275)">
</g>
<g
   id="g414"
   transform="translate(0,-88.275)">
</g>
<g
   id="g416"
   transform="translate(0,-88.275)">
</g>
<g
   id="g418"
   transform="translate(0,-88.275)">
</g>
<g
   id="g420"
   transform="translate(0,-88.275)">
</g>
<g
   id="g422"
   transform="translate(0,-88.275)">
</g>
<g
   id="g424"
   transform="translate(0,-88.275)">
</g>
<g
   id="g426"
   transform="translate(0,-88.275)">
</g>
</svg>
