<?xml version="1.0" encoding="UTF-8" standalone="no"?>
<svg
   xmlns:dc="http://purl.org/dc/elements/1.1/"
   xmlns:cc="http://creativecommons.org/ns#"
   xmlns:rdf="http://www.w3.org/1999/02/22-rdf-syntax-ns#"
   xmlns:svg="http://www.w3.org/2000/svg"
   xmlns="http://www.w3.org/2000/svg"
   xmlns:sodipodi="http://sodipodi.sourceforge.net/DTD/sodipodi-0.dtd"
   xmlns:inkscape="http://www.inkscape.org/namespaces/inkscape"
   version="1.1"
   id="Layer_1"
   x="0px"
   y="0px"
   viewBox="0 0 512 335.45001"
   xml:space="preserve"
   sodipodi:docname="pg.svg"
   width="512"
   height="335.45001"
   inkscape:version="1.0.1 (c497b03c, 2020-09-10)"><metadata
   id="metadata496"><rdf:RDF><cc:Work
       rdf:about=""><dc:format>image/svg+xml</dc:format><dc:type
         rdf:resource="http://purl.org/dc/dcmitype/StillImage" /><dc:title></dc:title></cc:Work></rdf:RDF></metadata><defs
   id="defs494" /><sodipodi:namedview
   pagecolor="#ffffff"
   bordercolor="#666666"
   borderopacity="1"
   objecttolerance="10"
   gridtolerance="10"
   guidetolerance="10"
   inkscape:pageopacity="0"
   inkscape:pageshadow="2"
   inkscape:window-width="882"
   inkscape:window-height="480"
   id="namedview492"
   showgrid="false"
   inkscape:zoom="0.82226562"
   inkscape:cx="256"
   inkscape:cy="256"
   inkscape:window-x="0"
   inkscape:window-y="23"
   inkscape:window-maximized="0"
   inkscape:current-layer="Layer_1" />
<path
   style="fill:#ff4b55"
   d="M 473.655,335.448 H 38.345 C 17.167,335.448 0,318.281 0,297.103 V 38.345 C 0,17.168 17.167,0 38.345,0 h 435.31 C 494.832,0 512,17.167 512,38.345 v 258.759 c 0,21.177 -17.167,38.344 -38.345,38.344 z"
   id="path443" />
<path
   style="fill:#464655"
   d="m 38.337,335.448 h 435.327 c 9.383,-0.002 17.974,-3.379 24.637,-8.975 L 13.7,8.975 C 5.326,16.01 0,26.553 0,38.345 v 258.759 c 0,21.173 17.163,38.34 38.337,38.344 z"
   id="path445" />
<g
   id="g457"
   transform="translate(0,-88.276)">
	<path
   style="fill:#f5f5f5"
   d="m 51.499,250.287 -5.052,15.148 -15.968,0.124 c -1.532,0.012 -2.166,1.966 -0.935,2.876 l 12.845,9.485 -4.817,15.224 c -0.462,1.46 1.201,2.668 2.446,1.778 L 53.009,285.636 66,294.922 c 1.246,0.891 2.908,-0.318 2.446,-1.778 l -4.817,-15.224 12.845,-9.485 c 1.231,-0.909 0.597,-2.863 -0.935,-2.876 l -15.968,-0.124 -5.052,-15.148 c -0.481,-1.452 -2.536,-1.452 -3.02,0 z"
   id="path447" />
	<path
   style="fill:#f5f5f5"
   d="m 160.282,250.287 -5.052,15.148 -15.968,0.124 c -1.532,0.012 -2.166,1.966 -0.935,2.876 l 12.845,9.485 -4.817,15.224 c -0.462,1.46 1.201,2.668 2.446,1.778 l 12.991,-9.286 12.991,9.286 c 1.246,0.891 2.908,-0.318 2.446,-1.778 l -4.817,-15.224 12.845,-9.485 c 1.231,-0.909 0.597,-2.863 -0.935,-2.876 l -15.968,-0.124 -5.052,-15.148 c -0.48,-1.452 -2.535,-1.452 -3.02,0 z"
   id="path449" />
	<path
   style="fill:#f5f5f5"
   d="m 105.89,184.351 -5.052,15.148 -15.968,0.124 c -1.532,0.012 -2.166,1.966 -0.935,2.876 l 12.845,9.485 -4.817,15.224 c -0.462,1.46 1.201,2.668 2.446,1.778 l 12.991,-9.286 12.991,9.286 c 1.246,0.89 2.908,-0.318 2.446,-1.778 l -4.817,-15.224 12.845,-9.485 c 1.231,-0.909 0.597,-2.863 -0.935,-2.876 l -15.968,-0.124 -5.052,-15.148 c -0.481,-1.453 -2.535,-1.453 -3.02,0 z"
   id="path451" />
	<path
   style="fill:#f5f5f5"
   d="m 105.89,346.499 -5.052,15.148 -15.968,0.124 c -1.532,0.012 -2.166,1.966 -0.935,2.876 l 12.845,9.485 -4.817,15.224 c -0.462,1.46 1.201,2.668 2.446,1.778 l 12.991,-9.286 12.991,9.286 c 1.246,0.891 2.908,-0.318 2.446,-1.778 l -4.817,-15.224 12.845,-9.485 c 1.231,-0.909 0.597,-2.863 -0.935,-2.876 l -15.968,-0.124 -5.052,-15.148 c -0.481,-1.452 -2.535,-1.452 -3.02,0 z"
   id="path453" />
	<path
   style="fill:#f5f5f5"
   d="m 131.229,306.991 -2.687,8.055 -8.491,0.066 c -0.814,0.007 -1.152,1.045 -0.497,1.529 l 6.83,5.044 -2.561,8.096 c -0.246,0.777 0.638,1.419 1.301,0.945 l 6.909,-4.938 6.909,4.938 c 0.662,0.473 1.546,-0.169 1.301,-0.945 l -2.561,-8.096 6.83,-5.044 c 0.655,-0.483 0.318,-1.523 -0.497,-1.529 l -8.491,-0.066 -2.687,-8.055 c -0.258,-0.772 -1.351,-0.772 -1.608,0 z"
   id="path455" />
</g>
<path
   style="fill:#ffe15a"
   d="m 437.565,160.069 c -1.292,-10.004 -5.566,-19.89 -8.671,-25.995 1.533,0.767 3.917,2.148 3.917,2.148 l -2.104,-7.628 c 5.26,2.104 9.206,6.182 9.206,6.182 -2.631,-13.152 -6.708,-19.332 -6.708,-19.332 l 3.288,1.184 C 430.311,101.372 421.105,97.032 421.105,97.032 l 5.26,-1.315 C 418.606,85.985 407.69,82.697 407.69,82.697 l 7.102,-3.42 c -18.807,-10.653 -36.956,0.526 -36.956,0.526 0,0 6.313,-6.575 8.68,-9.337 2.367,-2.762 -3.288,-3.682 -3.288,-3.682 0,0 5.524,-3.814 5.26,-6.05 -0.263,-2.236 -5.26,-1.052 -5.26,-1.052 0,0 4.34,-4.471 4.34,-6.97 0,-2.499 -4.471,-0.92 -4.471,-0.92 0,0 1.447,-3.025 1.842,-5.393 0.395,-2.367 -3.946,-0.395 -3.946,-0.395 0,0 4.866,-8.68 4.604,-10.521 -0.263,-1.842 -12.757,5.918 -21.7,14.467 -8.943,8.55 -7.87,22.286 -7.078,25.555 0.792,3.269 1.288,10.893 -2.674,13.566 -3.961,2.674 -11.029,-3.874 -14.536,-7.907 -3.507,-4.033 -7.891,-2.631 -12.45,-1.053 -4.559,1.578 -13.152,-0.526 -15.782,-0.877 -2.631,-0.351 2.98,2.631 7.715,4.384 4.735,1.753 6.839,5.962 13.503,8.417 5.836,2.151 10.51,7.61 5.918,10.126 -3.578,1.961 -3.551,-1.184 -19.332,-5.26 -15.782,-4.077 -34.72,36.035 -34.72,36.035 10.138,-1.254 15.32,-7.327 15.32,-7.327 l -2.739,7.857 c 7.492,-1.419 11.156,-5.975 11.156,-5.975 l -1.981,7.923 c 5.743,-1.783 9.705,-7.923 9.705,-7.923 l -1.684,7.823 c 5.644,-2.674 8.616,-7.823 8.616,-7.823 0.594,2.872 1.062,8.733 1.062,8.733 8.742,-4.673 10.784,-11.31 10.784,-11.31 9.995,30.249 24.462,35.246 24.462,35.246 l 0.789,-7.891 c 4.471,6.313 10.784,9.469 10.784,9.469 l -1.052,-6.839 c 15.519,18.938 33.405,23.673 33.405,23.673 l -4.58,-10.482 5.632,1.143 c -6.05,-5.129 -8.286,-14.072 -8.286,-14.072 l 4.735,0.789 c -7.628,-6.97 -11.442,-14.993 -11.442,-14.993 l 4.604,0.789 c -1.447,-2.236 -2.631,-10.126 -2.631,-10.126 8.417,2.631 12.757,5.918 12.757,5.918 l 0.499,-2.865 c 7.221,5.203 19.079,14.889 27.297,27.066 0.011,3.972 -0.631,7.983 -2.281,12.009 -7.538,18.386 -27.356,17.185 -36.124,13.326 0,0 27.18,21.218 42.086,-8.943 0.945,-1.91 1.536,-3.956 1.959,-6.054 1.859,4.434 3.144,9.058 3.39,13.857 1.578,30.775 -30.511,27.882 -30.511,27.882 0,0 35.509,14.204 37.088,-26.829 0.348,-9.123 -3.515,-18.245 -9.715,-26.918 z m -32.264,-30.719 0.155,-0.888 c 5.393,1.578 11.048,5.393 11.048,5.393 l 1.249,-3.748 c 5.335,6.411 9.596,13.31 11.968,20.452 -7.202,-7.738 -15.833,-14.924 -24.42,-21.209 z"
   id="path459" />
<g
   id="g461"
   transform="translate(0,-88.276)">
</g>
<g
   id="g463"
   transform="translate(0,-88.276)">
</g>
<g
   id="g465"
   transform="translate(0,-88.276)">
</g>
<g
   id="g467"
   transform="translate(0,-88.276)">
</g>
<g
   id="g469"
   transform="translate(0,-88.276)">
</g>
<g
   id="g471"
   transform="translate(0,-88.276)">
</g>
<g
   id="g473"
   transform="translate(0,-88.276)">
</g>
<g
   id="g475"
   transform="translate(0,-88.276)">
</g>
<g
   id="g477"
   transform="translate(0,-88.276)">
</g>
<g
   id="g479"
   transform="translate(0,-88.276)">
</g>
<g
   id="g481"
   transform="translate(0,-88.276)">
</g>
<g
   id="g483"
   transform="translate(0,-88.276)">
</g>
<g
   id="g485"
   transform="translate(0,-88.276)">
</g>
<g
   id="g487"
   transform="translate(0,-88.276)">
</g>
<g
   id="g489"
   transform="translate(0,-88.276)">
</g>
</svg>
