<?xml version="1.0" encoding="UTF-8" standalone="no"?>
<svg
   xmlns:dc="http://purl.org/dc/elements/1.1/"
   xmlns:cc="http://creativecommons.org/ns#"
   xmlns:rdf="http://www.w3.org/1999/02/22-rdf-syntax-ns#"
   xmlns:svg="http://www.w3.org/2000/svg"
   xmlns="http://www.w3.org/2000/svg"
   xmlns:sodipodi="http://sodipodi.sourceforge.net/DTD/sodipodi-0.dtd"
   xmlns:inkscape="http://www.inkscape.org/namespaces/inkscape"
   version="1.1"
   id="Layer_1"
   x="0px"
   y="0px"
   viewBox="0 0 512 335.45001"
   xml:space="preserve"
   sodipodi:docname="ph.svg"
   width="512"
   height="335.45001"
   inkscape:version="1.0.1 (c497b03c, 2020-09-10)"><metadata
   id="metadata683"><rdf:RDF><cc:Work
       rdf:about=""><dc:format>image/svg+xml</dc:format><dc:type
         rdf:resource="http://purl.org/dc/dcmitype/StillImage" /><dc:title></dc:title></cc:Work></rdf:RDF></metadata><defs
   id="defs681" /><sodipodi:namedview
   pagecolor="#ffffff"
   bordercolor="#666666"
   borderopacity="1"
   objecttolerance="10"
   gridtolerance="10"
   guidetolerance="10"
   inkscape:pageopacity="0"
   inkscape:pageshadow="2"
   inkscape:window-width="958"
   inkscape:window-height="592"
   id="namedview679"
   showgrid="false"
   inkscape:zoom="0.81054688"
   inkscape:cx="256"
   inkscape:cy="256"
   inkscape:window-x="0"
   inkscape:window-y="23"
   inkscape:window-maximized="0"
   inkscape:current-layer="Layer_1" />
<path
   style="fill:#f5f5f5"
   d="M 13.7,8.975 C 5.326,16.01 0,26.553 0,38.345 v 258.759 c 0,11.791 5.326,22.335 13.7,29.369 L 256,167.724 Z"
   id="path616" />
<path
   style="fill:#ff4b55"
   d="m 13.7,326.473 c 6.665,5.599 15.258,8.975 24.644,8.975 h 435.31 c 21.177,0 38.345,-17.167 38.345,-38.345 V 167.724 H 256 Z"
   id="path618" />
<path
   style="fill:#41479b"
   d="M 473.655,0 H 38.345 C 28.959,0 20.365,3.378 13.701,8.975 L 256,167.724 H 512 V 38.345 C 512,17.167 494.833,0 473.655,0 Z"
   id="path620" />
<g
   id="g646"
   transform="translate(0,-88.276)">
	<circle
   style="fill:#ffe15a"
   cx="92.690002"
   cy="256"
   r="28.690001"
   id="circle622" />
	<polygon
   style="fill:#ffe15a"
   points="92.69,198.621 103.448,212.966 92.69,256 81.931,212.966 "
   id="polygon624" />
	<polygon
   style="fill:#ffe15a"
   points="92.69,313.379 81.931,299.034 92.69,256 103.448,299.034 "
   id="polygon626" />
	<polygon
   style="fill:#ffe15a"
   points="35.31,256 49.655,245.241 92.69,256 49.655,266.759 "
   id="polygon628" />
	<polygon
   style="fill:#ffe15a"
   points="150.069,256 135.724,266.759 92.69,256 135.724,245.241 "
   id="polygon630" />
	<polygon
   style="fill:#ffe15a"
   points="133.263,215.426 130.727,233.177 92.69,256 115.512,217.963 "
   id="polygon632" />
	<polygon
   style="fill:#ffe15a"
   points="52.116,296.574 54.652,278.823 92.69,256 69.867,294.037 "
   id="polygon634" />
	<polygon
   style="fill:#ffe15a"
   points="52.116,215.426 69.867,217.963 92.69,256 54.652,233.177 "
   id="polygon636" />
	<polygon
   style="fill:#ffe15a"
   points="133.263,296.574 115.512,294.037 92.69,256 130.727,278.823 "
   id="polygon638" />
	<path
   style="fill:#ffe15a"
   d="m 23.658,131.694 1.496,11.16 -10.076,5.028 c -1.304,0.651 -1.03,2.588 0.405,2.85 l 11.076,2.026 1.668,11.136 c 0.216,1.442 2.143,1.779 2.836,0.495 l 5.35,-9.908 11.106,1.854 c 1.438,0.241 2.354,-1.489 1.348,-2.543 l -7.77,-8.15 5.195,-9.99 c 0.672,-1.293 -0.689,-2.699 -2.003,-2.068 l -10.152,4.872 -7.895,-8.029 c -1.02,-1.038 -2.777,-0.177 -2.584,1.267 z"
   id="path640" />
	<path
   style="fill:#ffe15a"
   d="m 28.102,348.906 -1.889,11.101 -11.115,1.805 c -1.439,0.234 -1.752,2.165 -0.461,2.841 l 9.973,5.227 -1.717,11.128 c -0.222,1.441 1.517,2.335 2.56,1.316 l 8.054,-7.87 10.054,5.073 c 1.302,0.657 2.69,-0.722 2.044,-2.028 l -4.996,-10.091 7.93,-7.993 c 1.027,-1.035 0.146,-2.782 -1.298,-2.57 l -11.142,1.633 -5.152,-10.013 c -0.668,-1.295 -2.602,-0.997 -2.845,0.441 z"
   id="path642" />
	<path
   style="fill:#ffe15a"
   d="m 202.734,239.555 -6.481,9.208 -10.81,-3.15 c -1.399,-0.408 -2.513,1.201 -1.639,2.367 l 6.755,9.009 -6.337,9.308 c -0.82,1.205 0.365,2.761 1.745,2.29 l 10.655,-3.64 6.894,8.903 c 0.893,1.153 2.739,0.505 2.717,-0.952 l -0.17,-11.258 10.598,-3.806 c 1.372,-0.492 1.327,-2.449 -0.066,-2.878 l -10.761,-3.318 -0.344,-11.255 c -0.042,-1.459 -1.917,-2.021 -2.756,-0.828 z"
   id="path644" />
</g>
<g
   id="g648"
   transform="translate(0,-88.276)">
</g>
<g
   id="g650"
   transform="translate(0,-88.276)">
</g>
<g
   id="g652"
   transform="translate(0,-88.276)">
</g>
<g
   id="g654"
   transform="translate(0,-88.276)">
</g>
<g
   id="g656"
   transform="translate(0,-88.276)">
</g>
<g
   id="g658"
   transform="translate(0,-88.276)">
</g>
<g
   id="g660"
   transform="translate(0,-88.276)">
</g>
<g
   id="g662"
   transform="translate(0,-88.276)">
</g>
<g
   id="g664"
   transform="translate(0,-88.276)">
</g>
<g
   id="g666"
   transform="translate(0,-88.276)">
</g>
<g
   id="g668"
   transform="translate(0,-88.276)">
</g>
<g
   id="g670"
   transform="translate(0,-88.276)">
</g>
<g
   id="g672"
   transform="translate(0,-88.276)">
</g>
<g
   id="g674"
   transform="translate(0,-88.276)">
</g>
<g
   id="g676"
   transform="translate(0,-88.276)">
</g>
</svg>
