<svg xmlns="http://www.w3.org/2000/svg" xml:space="preserve" width="512" height="335.45001"><path style="fill:#73af00" d="M473.655 0H132.414v335.448h341.241c21.177 0 38.345-17.167 38.345-38.345V38.345C512 17.167 494.833 0 473.655 0z"/><path style="fill:#f5f5f5" d="M38.345 88.275C17.167 88.275 0 105.442 0 126.62v258.76c0 21.177 17.167 38.345 38.345 38.345h94.069V88.275zm373.708 213.913c-40.632 36.196-102.833 32.477-138.956-8.227-36.054-40.629-32.405-103.01 8.226-139.204.06-.053.118-.105.178-.157.96-.844.032-2.377-1.16-1.913-40.07 15.604-68.479 54.579-68.479 100.214 0 59.444 48.071 107.587 107.373 107.587 41.023 0 76.574-23.083 94.633-56.969.602-1.131-.81-2.231-1.766-1.377-.015.014-.033.03-.049.046zm-52.266-129.599 14.12 15.841 19.56-8.232c2.532-1.066 4.964 1.705 3.578 4.077L386.342 202.6l13.873 16.058c1.796 2.079-.088 5.248-2.772 4.663l-20.735-4.516-10.986 18.156c-1.422 2.35-5.018 1.538-5.292-1.196l-2.112-21.116-20.662-4.838c-2.675-.627-3.014-4.297-.498-5.402l19.43-8.533-1.784-21.145c-.232-2.738 3.156-4.193 4.983-2.142z" transform="translate(0 -88.275)"/></svg>