<?xml version="1.0" encoding="UTF-8" standalone="no"?>
<svg
   xmlns:dc="http://purl.org/dc/elements/1.1/"
   xmlns:cc="http://creativecommons.org/ns#"
   xmlns:rdf="http://www.w3.org/1999/02/22-rdf-syntax-ns#"
   xmlns:svg="http://www.w3.org/2000/svg"
   xmlns="http://www.w3.org/2000/svg"
   xmlns:sodipodi="http://sodipodi.sourceforge.net/DTD/sodipodi-0.dtd"
   xmlns:inkscape="http://www.inkscape.org/namespaces/inkscape"
   version="1.1"
   id="Layer_1"
   x="0px"
   y="0px"
   viewBox="0 0 512 335.45001"
   xml:space="preserve"
   sodipodi:docname="pn.svg"
   width="512"
   height="335.45001"
   inkscape:version="1.0.1 (c497b03c, 2020-09-10)"><metadata
   id="metadata864"><rdf:RDF><cc:Work
       rdf:about=""><dc:format>image/svg+xml</dc:format><dc:type
         rdf:resource="http://purl.org/dc/dcmitype/StillImage" /><dc:title></dc:title></cc:Work></rdf:RDF></metadata><defs
   id="defs862" /><sodipodi:namedview
   pagecolor="#ffffff"
   bordercolor="#666666"
   borderopacity="1"
   objecttolerance="10"
   gridtolerance="10"
   guidetolerance="10"
   inkscape:pageopacity="0"
   inkscape:pageshadow="2"
   inkscape:window-width="956"
   inkscape:window-height="480"
   id="namedview860"
   showgrid="false"
   inkscape:zoom="0.83203125"
   inkscape:cx="256"
   inkscape:cy="256"
   inkscape:window-x="0"
   inkscape:window-y="23"
   inkscape:window-maximized="0"
   inkscape:current-layer="Layer_1" />
<path
   style="fill:#41479b"
   d="M 473.655,335.448 H 38.345 C 17.167,335.448 0,318.281 0,297.103 V 38.345 C 0,17.168 17.167,0 38.345,0 h 435.31 C 494.832,0 512,17.167 512,38.345 v 258.759 c 0,21.177 -17.167,38.344 -38.345,38.344 z"
   id="path693" />
<path
   style="fill:#f5f5f5"
   d="m 8.828,167.724 h 15.334 l 81.77,-53.574 v 53.574 H 150.07 V 114.15 l 81.769,53.574 h 15.334 c 4.875,0 8.828,-3.953 8.828,-8.828 v -7.002 L 185.847,105.931 H 256 V 61.793 H 185.845 L 256,15.83 V 8.828 C 256,3.953 252.05,0.002 247.175,0 H 231.838 L 150.069,53.574 V 0 H 105.931 V 53.574 L 26.844,1.758 C 24.557,2.476 22.362,3.405 20.282,4.519 20.262,4.53 20.241,4.54 20.22,4.551 19.749,4.804 19.284,5.071 18.825,5.343 18.769,5.376 18.711,5.407 18.655,5.44 18.21,5.707 17.773,5.986 17.341,6.27 17.275,6.314 17.206,6.355 17.14,6.399 16.709,6.686 16.286,6.984 15.867,7.288 15.805,7.333 15.741,7.376 15.679,7.422 15.256,7.732 14.843,8.053 14.433,8.38 14.38,8.423 14.325,8.464 14.272,8.507 c -0.414,0.334 -0.82,0.68 -1.22,1.031 -0.043,0.039 -0.088,0.075 -0.131,0.115 -0.405,0.36 -0.801,0.728 -1.191,1.103 -0.034,0.033 -0.07,0.066 -0.105,0.099 -0.395,0.385 -0.781,0.778 -1.16,1.178 -0.025,0.026 -0.051,0.053 -0.076,0.081 -0.384,0.409 -0.76,0.828 -1.127,1.255 -0.017,0.02 -0.033,0.039 -0.05,0.058 -0.372,0.435 -0.735,0.877 -1.087,1.33 -0.009,0.011 -0.019,0.023 -0.028,0.035 -0.356,0.458 -0.704,0.924 -1.039,1.398 -0.004,0.007 -0.01,0.013 -0.014,0.021 -0.34,0.479 -0.669,0.966 -0.985,1.461 -0.001,10e-4 -0.002,0.003 -0.003,0.004 -0.32,0.499 -0.628,1.005 -0.925,1.518 L 70.155,61.793 H 0 v 44.138 H 70.154 L 0,151.894 v 7.008 c 0.003,4.873 3.954,8.822 8.828,8.822 z"
   id="path695" />
<g
   id="g707"
   transform="translate(0,-88.276)">
	<polygon
   style="fill:#ff4b55"
   points="141.241,88.276 114.759,88.276 114.759,158.897 0,158.897 0,185.379 114.759,185.379 114.759,256 141.241,256 141.241,185.379 256,185.379 256,158.897 141.241,158.897 "
   id="polygon697" />
	<path
   style="fill:#ff4b55"
   d="m 8.228,102.903 72.661,47.166 H 97.103 L 14.607,96.519 c -2.369,1.87 -4.509,4.014 -6.379,6.384 z"
   id="path699" />
	<path
   style="fill:#ff4b55"
   d="m 166.283,150.069 88.374,-57.366 c -1.536,-2.599 -4.246,-4.427 -7.485,-4.427 h -1.909 l -95.194,61.793 z"
   id="path701" />
	<path
   style="fill:#ff4b55"
   d="M 89.474,194.207 1.269,251.463 C 2.79,254.125 5.542,256 8.828,256 h 1.665 l 95.196,-61.793 z"
   id="path703" />
	<path
   style="fill:#ff4b55"
   d="m 255.86,247.866 -82.666,-53.66 H 156.98 l 93.874,60.935 c 2.812,-1.304 4.741,-4.039 5.006,-7.275 z"
   id="path705" />
</g>
<g
   id="g721"
   transform="translate(0,-88.276)">
	<path
   style="fill:#73af00"
   d="m 387.207,177.365 c -0.199,0 -0.402,-0.063 -0.575,-0.193 -0.138,-0.106 -13.838,-10.783 -5.769,-28.879 0.214,-0.48 0.777,-0.692 1.259,-0.482 0.48,0.216 0.695,0.777 0.482,1.259 -7.443,16.687 4.662,26.19 5.181,26.586 0.418,0.318 0.499,0.915 0.18,1.333 -0.188,0.246 -0.47,0.376 -0.758,0.376 z"
   id="path709" />
	<path
   style="fill:#73af00"
   d="m 379.316,161.734 c -0.038,0 -0.074,-0.002 -0.111,-0.006 -0.523,-0.062 -0.896,-0.534 -0.836,-1.056 0.396,-3.422 1.683,-5.81 3.828,-7.096 3.449,-2.073 7.761,-0.417 7.941,-0.344 0.489,0.192 0.729,0.742 0.537,1.231 -0.192,0.489 -0.746,0.733 -1.231,0.541 -0.038,-0.014 -3.638,-1.382 -6.276,0.209 -1.604,0.969 -2.583,2.879 -2.905,5.679 -0.058,0.485 -0.472,0.842 -0.947,0.842 z"
   id="path711" />
	<path
   style="fill:#73af00"
   d="m 381.902,149.46 c -0.082,-0.21 -2.141,-5.098 -11.447,-3.018 -10.539,2.361 -10.661,16.264 -10.661,16.403 0,0.478 0.355,0.884 0.831,0.945 0.041,0.006 0.082,0.008 0.121,0.008 0.428,0 0.811,-0.288 0.92,-0.711 3.928,-14.962 18.557,-12.449 19.178,-12.34 0.352,0.063 0.69,-0.067 0.907,-0.331 0.222,-0.269 0.28,-0.635 0.151,-0.956 z"
   id="path713" />
	<path
   style="fill:#73af00"
   d="m 379.71,157.21 c 0,0 -6.348,-4.046 -8.967,1.111 -2.618,5.158 -0.634,10.712 0.397,12.934 0,0 3.784,-4.183 7.38,-4.761 4.444,-0.714 5.555,-6.269 2.46,-9.046 -3.698,-3.317 -1.27,-0.238 -1.27,-0.238 z"
   id="path715" />
	<path
   style="fill:#73af00"
   d="m 386.645,147.731 c -0.09,5.554 3.005,6.282 3.005,6.282 2.001,-5.099 -3.005,-6.282 -3.005,-6.282 z"
   id="path717" />
	<path
   style="fill:#73af00"
   d="m 385.676,159.396 c 0.042,-5.27 3.616,-5.863 3.616,-5.863 2.166,4.9 -3.616,5.863 -3.616,5.863 z"
   id="path719" />
</g>
<path
   style="fill:#ff4b55"
   d="m 406.292,66.871 c 0,0 -5.054,-0.747 -6.993,-1.663 -1.613,-0.761 -3.719,-2.599 -6.444,-2.24 -2.083,0 -3.772,1.688 -3.772,3.772 0,2.083 1.431,4.579 8.917,4.025 3.629,-0.269 6.721,1.389 6.721,1.389 -0.475,-1.984 1.571,-5.283 1.571,-5.283 z"
   id="path723" />
<path
   style="fill:#ffe15a"
   d="m 401.047,68.525 c 0,0 -7.752,0.537 -9.454,-0.717 -1.571,-1.158 -1.161,-3.002 0.448,-3.181 2.42,-0.27 9.006,3.898 9.006,3.898 z"
   id="path725" />
<path
   style="fill:#b49b91"
   d="m 416.131,77.305 -17.14,10.712 -1.964,-1.905 9.402,-9.106 2.201,0.893 2.143,-2.857 -5.118,-2.678 c 0,0 -13.569,12.794 -25.113,13.866 -3.884,0.361 -7.842,0.107 -10.929,-1.164 l -6.925,9.972 14.52,12.378 21.305,-0.833 17.615,-23.924 3.094,1.428 2.618,-3.094 z"
   id="path727" />
<path
   style="fill:#9b8278"
   d="m 368.365,106.148 c -4.768,0 -8.648,-3.88 -8.648,-8.646 0,-4.768 3.88,-8.648 8.648,-8.648 4.767,0 8.646,3.88 8.646,8.648 10e-4,4.767 -3.879,8.646 -8.646,8.646 z m 0,-14.437 c -3.193,0 -5.791,2.598 -5.791,5.791 0,3.193 2.598,5.79 5.791,5.79 3.193,0 5.79,-2.596 5.79,-5.79 0,-3.194 -2.596,-5.791 -5.79,-5.791 z"
   id="path729" />
<g
   id="g735"
   transform="translate(0,-88.276)">
	<path
   style="fill:#73af00"
   d="m 404.387,202.439 c 0,0 1.587,-1.032 3.174,-5.871 l -3.253,0.476 c 0,0 0.634,-2.698 -0.079,-4.682 l -3.65,2.857 c 0,0 -1.666,-3.491 -2.38,-3.967 0,0 -2.539,3.571 -3.967,4.046 0,0 -1.428,-5.158 -2.857,-6.189 l -2.46,3.491 -3.65,-2.857 c 0,0 0,2.46 -0.079,3.016 -0.079,0.555 -4.761,-4.919 -4.761,-4.919 0,0 -2.063,0.873 -4.84,5.316 l -3.491,-3.571 -1.428,4.682 -4.84,-1.27 0.793,2.777 -4.205,-0.318 c 0,0 0.714,4.126 2.777,5.555 z"
   id="path731" />
	<path
   style="fill:#73af00"
   d="m 362.333,220.094 c 0,0 -13.092,16.663 -37.849,14.759 l 26.899,3.69 13.806,-13.092 z"
   id="path733" />
</g>
<g
   id="g741"
   transform="translate(0,-88.276)">
	<path
   style="fill:#ffe15a"
   d="m 319.604,232.353 c 2.618,1.905 18.806,6.547 30.47,0.952 0,0 0.238,2.738 -1.071,4.285 0,0 8.569,-3.452 13.212,-9.879 4.643,-6.427 -9.641,13.806 -9.641,13.806 l -21.9,4.046 -8.927,-7.38 z"
   id="path737" />
	<path
   style="fill:#ffe15a"
   d="m 317.882,172.349 c -2.908,0.244 -6.053,1.995 -7.662,4.122 -0.876,-0.372 -2.823,-0.537 -4.436,0.537 -2.148,1.432 -6.118,6.604 -9.45,5.236 0,0 -0.298,4.879 4.879,4.702 0,0 -1.31,2.024 -1.071,5.237 0.238,3.213 -2.083,5.356 -2.083,5.356 0,0 10.474,1.487 10.891,-6.665 0.051,-0.996 0.102,-1.874 0.15,-2.657 5.466,2.952 7.617,-1.215 7.617,-1.215 0,0 -3.285,-3.103 0.059,-7.52 3.343,-4.418 12.533,5.996 12.533,5.996 0.18,-4.167 -0.194,-14.073 -11.427,-13.129 z"
   id="path739" />
</g>
<g
   id="g749"
   transform="translate(0,-88.276)">
	<path
   style="fill:#73af00"
   d="m 358.365,199.82 c 0,0 -3.015,2.063 -12.378,0.159 0,0 2.063,-4.602 1.111,-7.3 0,0 -2.539,2.38 -8.728,4.761 -6.189,2.381 -13.806,9.998 -16.029,14.918 0,0 13.92,-32.088 2.738,-35.35 -3.836,-1.119 -7.135,0.695 -8.302,2.474 0.564,0.666 1.106,1.615 1.161,2.882 0.119,2.738 -2.618,21.186 -6.665,33.921 0,0 -1.191,-4.404 -3.094,-6.547 -1.903,-2.143 -3.332,-5.594 -3.332,-5.594 0,0 -3.213,2.143 -2.738,6.07 0,0 -1.785,-1.428 -5.237,-0.476 -3.452,0.952 -4.761,-1.31 -4.761,-1.31 0,0 -2.857,7.617 5.594,11.545 0,0 -2.261,1.071 -3.332,1.905 -1.071,0.833 -2.738,0.833 -2.738,0.833 0,0 2.976,5.475 9.283,6.07 6.308,0.595 9.207,2.393 11.188,5.633 6.428,10.514 18.727,18.488 38.802,6.189 0,0 -28.565,8.887 -29.835,-9.363 -1.111,-15.965 16.345,-19.202 18.091,-15.711 1.746,3.491 -0.159,6.507 -0.159,6.507 0,0 9.522,-2.221 4.919,-10.951 0,0.002 9.363,1.431 14.441,-11.265 z"
   id="path743" />
	<path
   style="fill:#73af00"
   d="m 450.052,232.353 c -2.618,1.905 -19.162,9.046 -30.589,-2.38 -11.426,-11.426 -15.882,-28.582 -15.235,-26.662 h -11.426 l 3.809,34.279 42.372,7.975 8.927,-7.38 z"
   id="path745" />
	<path
   style="fill:#73af00"
   d="m 451.774,172.349 c 2.908,0.244 6.053,1.995 7.662,4.122 0.876,-0.372 2.823,-0.537 4.436,0.537 2.148,1.432 6.118,6.604 9.45,5.236 0,0 0.298,4.879 -4.879,4.702 0,0 1.31,2.024 1.071,5.237 -0.238,3.213 2.083,5.356 2.083,5.356 0,0 -10.474,1.487 -10.891,-6.665 -0.051,-0.996 -0.102,-1.874 -0.15,-2.657 -5.466,2.952 -7.617,-1.215 -7.617,-1.215 0,0 3.284,-3.103 -0.059,-7.52 -3.343,-4.418 -12.533,5.996 -12.533,5.996 -0.179,-4.167 0.195,-14.073 11.427,-13.129 z"
   id="path747" />
</g>
<path
   style="fill:#ffe15a"
   d="m 411.29,111.544 c 0,0 3.015,2.063 12.378,0.159 0,0 -2.063,-4.602 -1.111,-7.3 0,0 2.539,2.38 8.728,4.761 6.189,2.381 13.806,9.998 16.029,14.918 0,0 -13.92,-32.088 -2.738,-35.35 3.836,-1.119 7.135,0.695 8.302,2.474 -0.564,0.666 -1.106,1.615 -1.161,2.882 -0.119,2.738 2.618,21.186 6.665,33.921 0,0 1.191,-4.404 3.094,-6.547 1.903,-2.143 3.332,-5.594 3.332,-5.594 0,0 3.213,2.143 2.738,6.07 0,0 1.785,-1.428 5.237,-0.476 3.452,0.952 4.761,-1.31 4.761,-1.31 0,0 2.857,7.617 -5.594,11.545 0,0 2.261,1.071 3.332,1.905 1.071,0.833 2.738,0.833 2.738,0.833 0,0 -2.976,5.475 -9.283,6.07 -6.308,0.595 -9.207,2.393 -11.188,5.633 -6.428,10.514 -18.727,18.488 -38.802,6.189 0,0 28.565,8.887 29.835,-9.363 1.111,-15.965 -16.345,-19.202 -18.091,-15.711 -1.746,3.491 0.159,6.507 0.159,6.507 0,0 -9.522,-2.221 -4.919,-10.951 0.001,0.002 -9.362,1.431 -14.441,-11.265 z"
   id="path751" />
<g
   id="g757"
   transform="translate(0,-88.276)">
	<path
   style="fill:#73af00"
   d="m 403.197,226.482 c 4.682,6.824 11.188,13.013 30.073,18.884 18.885,5.871 23.933,6.744 33.829,14.749 0,0 1.88,1.985 2.6,5.167 0.845,3.738 -4.919,14.52 -4.919,14.52 0,0 0.555,-2.539 -2.936,-7.458 -3.491,-4.919 -24.122,-13.806 -34.913,-16.504 -10.792,-2.698 -29.439,-15.215 -24.28,-24.598 z"
   id="path753" />
	<path
   style="fill:#73af00"
   d="m 467.082,260.086 c 0.008,0.01 0.011,0.02 0.019,0.03 -0.012,-0.013 -0.022,-0.026 -0.034,-0.039 z"
   id="path755" />
</g>
<g
   id="g763"
   transform="translate(0,-88.276)">
	<path
   style="fill:#ffe15a"
   d="m 466.605,283.295 c 0,0 0.476,3.452 -2.38,6.428 -2.857,2.976 -4.879,5.118 -4.761,7.617 0,0 -4.285,-3.094 -3.571,-9.998 0,0 -5.594,4.642 -14.045,0.119 0,0 0.833,-8.45 11.784,-9.522 0,0 -4.285,-3.332 1.31,-8.45 0,0 0.65,2.289 5.713,3.452 4.404,1.012 12.239,-4.511 6.445,-12.824 9.979,11.276 4.861,19.012 -0.495,23.178 z"
   id="path759" />
	<path
   style="fill:#ffe15a"
   d="m 399.111,220.213 c 0,0 2.413,3.945 8.689,7.776 7.538,4.602 8.213,6.744 8.213,6.744 l -5.118,-0.119 c 0,0 6.547,3.571 8.332,8.094 0,0 -2.738,0.476 -5.832,-0.358 0,0 2.499,2.261 1.31,9.522 h -12.736 z"
   id="path761" />
</g>
<path
   style="fill:#73af00"
   d="m 373.759,164.549 v -30.47 c 0,0 -10.342,17.693 -19.275,30.47 z"
   id="path765" />
<path
   style="fill:#ffe15a"
   d="m 364.863,133.444 c -2.539,4.602 -10.474,19.758 -29.359,25.63 -18.886,5.871 -22.337,4.761 -32.234,12.765 0,0 -1.88,1.985 -2.6,5.167 -0.845,3.738 4.919,14.52 4.919,14.52 0,0 -0.555,-2.539 2.936,-7.458 3.491,-4.919 24.006,-14.324 34.913,-16.504 15.085,-3.016 28.733,-19.202 26.511,-29.676 -2.22,-10.474 -5.086,-4.444 -5.086,-4.444 z"
   id="path767" />
<g
   id="g773"
   transform="translate(0,-88.276)">
	<path
   style="fill:#73af00"
   d="m 303.288,260.086 c -0.008,0.01 -0.011,0.02 -0.019,0.03 0.012,-0.013 0.022,-0.026 0.034,-0.039 z"
   id="path769" />
	<path
   style="fill:#73af00"
   d="m 303.765,283.295 c 0,0 -0.476,3.452 2.38,6.428 2.857,2.976 4.879,5.118 4.761,7.617 0,0 4.285,-3.094 3.571,-9.998 0,0 5.594,4.642 14.045,0.119 0,0 -0.833,-8.45 -11.784,-9.522 0,0 4.285,-3.332 -1.309,-8.45 0,0 -0.65,2.289 -5.713,3.452 -4.404,1.012 -12.239,-4.511 -6.445,-12.824 -9.98,11.276 -4.862,19.012 0.494,23.178 z"
   id="path771" />
</g>
<path
   style="fill:#ffe15a"
   d="m 330.118,245.802 c 0,0 2.698,12.14 2.857,24.678 0,0 11.823,0.397 17.536,-8.49 0,0 -11.426,-5.951 -17.536,-17.457 z"
   id="path775" />
<path
   style="fill:#73af00"
   d="m 327.578,218.982 c -0.476,-5.713 2.063,-20.155 13.647,-30.628 l 0.284,-12.826 c 0,0 -3.451,0.359 -6.511,3.038 l -6.547,10.145 -6.07,22.972 z"
   id="path777" />
<path
   style="fill:#ffe15a"
   d="m 327.895,223.108 c 0,0 0,12.22 5.078,21.425 l -2.857,1.269 c 0,0 -10.236,-8.054 -12.378,-24.598 0,0 -9.165,6.07 -12.537,-6.348 0,0 9.839,3.968 13.013,-5.078 2.863,-8.162 5.758,-23.02 16.783,-31.212 -5.241,8.055 -13.133,28.673 -7.023,35.974 1.618,1.933 6.269,3.571 11.359,1.397 -0.332,4.06 -2.268,10.264 -11.438,7.171 z"
   id="path779" />
<path
   style="fill:#ffce5a"
   d="m 329.378,247.969 -1.672,-3.072 c -0.292,-0.537 -0.094,-1.21 0.444,-1.503 l 3.051,-1.658 c 0.537,-0.292 1.209,-0.094 1.502,0.444 l 1.672,3.072 c 0.292,0.537 0.094,1.21 -0.444,1.503 l -3.051,1.658 c -0.537,0.292 -1.209,0.093 -1.502,-0.444 z"
   id="path781" />
<g
   id="g787"
   transform="translate(0,-88.276)">
	<path
   style="fill:#ffe15a"
   d="m 432.636,334.078 c 0,0 -2.698,12.14 -2.857,24.678 0,0 -11.823,0.397 -17.536,-8.49 0,0 11.426,-5.951 17.536,-17.457 z"
   id="path783" />
	<path
   style="fill:#ffe15a"
   d="m 435.175,307.258 c 0.476,-5.713 -2.063,-20.155 -13.647,-30.628 l -0.284,-12.826 c 0,0 3.451,0.359 6.511,3.038 l 6.547,10.145 6.07,22.972 z"
   id="path785" />
</g>
<path
   style="fill:#73af00"
   d="m 423.42,215.936 c 5.09,2.174 9.741,0.536 11.359,-1.397 6.11,-7.3 -1.782,-27.918 -7.023,-35.974 11.026,8.192 13.919,23.05 16.783,31.212 3.174,9.046 13.013,5.078 13.013,5.078 -3.372,12.418 -12.537,6.348 -12.537,6.348 -2.143,16.544 -12.378,24.598 -12.378,24.598 l -2.857,-1.269 c 5.078,-9.205 5.078,-21.425 5.078,-21.425 -9.17,3.094 -11.106,-3.11 -11.438,-7.171 z"
   id="path789" />
<path
   style="fill:#ffce5a"
   d="m 433.375,247.969 1.672,-3.072 c 0.292,-0.537 0.094,-1.21 -0.444,-1.503 l -3.051,-1.658 c -0.537,-0.292 -1.209,-0.094 -1.502,0.444 l -1.672,3.072 c -0.292,0.537 -0.094,1.21 0.444,1.503 l 3.051,1.658 c 0.537,0.292 1.209,0.093 1.502,-0.444 z"
   id="path791" />
<path
   style="fill:#4173cd"
   d="m 343.289,160.74 c -2.103,0 -3.809,1.705 -3.809,3.809 v 41.896 c 0,11.426 3.809,53.322 41.896,68.557 38.088,-15.235 41.896,-57.131 41.896,-68.557 v -41.896 c 0,-2.103 -1.705,-3.809 -3.809,-3.809 z"
   id="path793" />
<path
   style="fill:#ffe15a"
   d="m 379.068,160.74 -36.121,69.231 c 0.904,3.202 2.031,6.516 3.446,9.864 l 34.984,-67.053 34.984,67.053 c 1.415,-3.349 2.542,-6.663 3.446,-9.864 L 383.686,160.74 Z"
   id="path795" />
<path
   style="fill:#73af00"
   d="m 416.36,239.835 -34.984,-67.053 -34.984,67.053 v 0 c 5.762,13.639 16.188,27.649 34.984,35.167 18.796,-7.517 29.223,-21.528 34.984,-35.167 z"
   id="path797" />
<path
   style="fill:#ffe15a"
   d="m 395.54,244.175 2.304,1.105 c -0.966,1.428 -2.977,3.738 -6.823,5.831 -2.905,1.581 -5.713,3.452 -7.741,4.886 v -31.433 l 9.522,-0.979 v -3.809 l -9.522,-0.979 v -4.734 c 0,-1.052 -0.853,-1.905 -1.905,-1.905 -0.897,0 -1.614,0.633 -1.816,1.469 -0.633,-0.454 -1.367,-0.777 -2.202,-0.777 -2.131,0 -3.866,1.735 -3.866,3.866 0,1.003 0.407,1.9 1.037,2.589 l -4.578,0.471 v 3.809 l 9.522,0.979 v 31.433 c -2.027,-1.433 -4.835,-3.305 -7.741,-4.886 -3.847,-2.092 -5.857,-4.403 -6.823,-5.831 l 2.304,-1.105 -8.689,-11.069 v 15.235 l 2.929,-1.405 c 1.159,1.867 3.608,4.881 8.46,7.519 4.059,2.209 7.998,5.079 9.559,6.254 l 1.905,1.476 1.905,-1.476 c 1.561,-1.175 5.501,-4.045 9.559,-6.254 4.852,-2.638 7.302,-5.652 8.46,-7.519 l 2.929,1.405 v -15.235 z m -18.183,-25.496 c -1.082,0 -1.962,-0.879 -1.962,-1.962 0,-1.083 0.879,-1.962 1.962,-1.962 1.083,0 1.962,0.879 1.962,1.962 0,1.083 -0.879,1.962 -1.962,1.962 z"
   id="path799" />
<path
   style="fill:#f5f5f5"
   d="m 384.319,210.254 h -5.885 c -1.53,0 -2.771,-1.24 -2.771,-2.771 v -9.694 c 0,-1.53 1.24,-2.771 2.771,-2.771 h 5.885 c 1.53,0 2.771,1.24 2.771,2.771 v 9.694 c 0,1.531 -1.241,2.771 -2.771,2.771 z"
   id="path801" />
<path
   style="fill:#b49b91"
   d="m 408.038,160.74 c -7.617,-11.426 -7.617,-34.279 -7.617,-34.279 0,0 0,-15.235 -19.043,-15.235 -9.647,0 -14.398,3.91 -16.746,7.767 -9.14,3.672 -13.724,11.276 -13.724,11.276 3.896,1.949 7.339,2.877 10.463,3.115 6.209,7.389 8.275,14.524 8.824,19.656 -3.576,3.652 -5.559,12.46 -0.243,19.125 0,0 11.267,-2.618 20.779,-11.426 h 17.306 v 0.001 z"
   id="path803" />
<g
   id="g811"
   transform="translate(0,-88.276)">
	<path
   style="fill:#9b8278"
   d="m 390.729,249.016 h 14.215 c -0.716,-7.022 -7.619,-5.891 -14.215,0 z"
   id="path805" />
	<path
   style="fill:#9b8278"
   d="m 404.589,241.826 c -4.163,-11.818 -4.169,-27.089 -4.169,-27.089 0,0 -0.001,-0.248 -0.04,-0.675 -4.959,-0.673 -10.035,-0.308 -19.956,3.532 -10.563,4.088 -15.734,4.205 -19.055,4.067 6.209,7.389 8.275,14.524 8.824,19.656 l 0.153,8.096 c 0,0 5.951,0.873 19.043,-6.666 6.532,-3.759 12.068,-4.081 15.2,-0.921 z"
   id="path807" />
	<path
   style="fill:#9b8278"
   d="m 384.312,213.071 c 7.725,-1.931 12.654,-1.732 15.83,-0.605 -0.851,-4.243 -4.349,-12.964 -18.765,-12.964 -9.647,0 -14.398,3.91 -16.746,7.767 l -5.789,8.103 c -10e-4,10e-4 7.24,2.257 25.47,-2.301 z"
   id="path809" />
</g>
<path
   style="fill:#ffe15a"
   d="m 368.79,109.561 c 0.75,0.748 2.988,6.144 2.527,6.946 -0.297,0.515 -6.257,1.997 -7.223,1.241 -0.862,-0.674 -1.87,-6.486 -1.293,-7.157 0.523,-0.606 5.362,-1.654 5.989,-1.03 z"
   id="path813" />
<path
   style="fill:#73af00"
   d="m 376.454,109.273 c 0.692,0.793 2.26,6.068 1.639,6.741 -0.399,0.433 -7.042,0.957 -7.965,0.127 -0.822,-0.74 -1.004,-6.227 -0.278,-6.761 0.656,-0.485 6.026,-0.769 6.604,-0.107 z"
   id="path815" />
<path
   style="fill:#ffe15a"
   d="m 383.706,109.072 c 0.717,0.747 2.353,5.707 1.711,6.337 -0.413,0.405 -7.284,0.882 -8.241,0.099 -0.853,-0.698 -1.054,-5.852 -0.305,-6.353 0.682,-0.452 6.237,-0.706 6.835,-0.083 z"
   id="path817" />
<g
   id="g823"
   transform="translate(0,-88.276)">
	<path
   style="fill:#73af00"
   d="m 391.078,197.694 c 0.634,0.815 1.831,6.019 1.165,6.623 -0.428,0.387 -7.09,0.405 -7.951,-0.465 -0.768,-0.776 -0.568,-6.08 0.193,-6.542 0.687,-0.418 6.063,-0.297 6.593,0.384 z"
   id="path819" />
	<path
   style="fill:#73af00"
   d="m 406.29,200.847 c 0.491,0.909 0.444,5.743 -0.313,6.228 -0.487,0.311 -6.485,-0.758 -7.191,-1.758 -0.63,-0.892 0.444,-6.09 1.271,-6.421 0.746,-0.298 5.823,1.192 6.233,1.951 z"
   id="path821" />
</g>
<path
   style="fill:#ffe15a"
   d="m 399.299,110.51 c 0.601,0.828 1.059,5.681 0.334,6.194 -0.466,0.33 -7.33,-0.234 -8.162,-1.131 -0.743,-0.801 -0.2,-5.803 0.614,-6.175 0.737,-0.338 6.712,0.421 7.214,1.112 z"
   id="path825" />
<circle
   style="fill:#9b8278"
   cx="368.35999"
   cy="97.503998"
   r="2.5899999"
   id="circle827" />
<g
   id="g829"
   transform="translate(0,-88.276)">
</g>
<g
   id="g831"
   transform="translate(0,-88.276)">
</g>
<g
   id="g833"
   transform="translate(0,-88.276)">
</g>
<g
   id="g835"
   transform="translate(0,-88.276)">
</g>
<g
   id="g837"
   transform="translate(0,-88.276)">
</g>
<g
   id="g839"
   transform="translate(0,-88.276)">
</g>
<g
   id="g841"
   transform="translate(0,-88.276)">
</g>
<g
   id="g843"
   transform="translate(0,-88.276)">
</g>
<g
   id="g845"
   transform="translate(0,-88.276)">
</g>
<g
   id="g847"
   transform="translate(0,-88.276)">
</g>
<g
   id="g849"
   transform="translate(0,-88.276)">
</g>
<g
   id="g851"
   transform="translate(0,-88.276)">
</g>
<g
   id="g853"
   transform="translate(0,-88.276)">
</g>
<g
   id="g855"
   transform="translate(0,-88.276)">
</g>
<g
   id="g857"
   transform="translate(0,-88.276)">
</g>
</svg>
