<?xml version="1.0" encoding="UTF-8" standalone="no"?>
<svg
   xmlns:dc="http://purl.org/dc/elements/1.1/"
   xmlns:cc="http://creativecommons.org/ns#"
   xmlns:rdf="http://www.w3.org/1999/02/22-rdf-syntax-ns#"
   xmlns:svg="http://www.w3.org/2000/svg"
   xmlns="http://www.w3.org/2000/svg"
   xmlns:sodipodi="http://sodipodi.sourceforge.net/DTD/sodipodi-0.dtd"
   xmlns:inkscape="http://www.inkscape.org/namespaces/inkscape"
   version="1.1"
   id="Layer_1"
   x="0px"
   y="0px"
   viewBox="0 0 512 335.45001"
   xml:space="preserve"
   sodipodi:docname="pr.svg"
   width="512"
   height="335.45001"
   inkscape:version="1.0.1 (c497b03c, 2020-09-10)"><metadata
   id="metadata974"><rdf:RDF><cc:Work
       rdf:about=""><dc:format>image/svg+xml</dc:format><dc:type
         rdf:resource="http://purl.org/dc/dcmitype/StillImage" /><dc:title></dc:title></cc:Work></rdf:RDF></metadata><defs
   id="defs972" /><sodipodi:namedview
   pagecolor="#ffffff"
   bordercolor="#666666"
   borderopacity="1"
   objecttolerance="10"
   gridtolerance="10"
   guidetolerance="10"
   inkscape:pageopacity="0"
   inkscape:pageshadow="2"
   inkscape:window-width="928"
   inkscape:window-height="599"
   id="namedview970"
   showgrid="false"
   inkscape:zoom="0.82421875"
   inkscape:cx="256"
   inkscape:cy="256"
   inkscape:window-x="0"
   inkscape:window-y="23"
   inkscape:window-maximized="0"
   inkscape:current-layer="Layer_1" />
<path
   style="fill:#ff4b55"
   d="M 473.655,0 H 38.345 C 17.167,0 0,17.167 0,38.345 V 67.09 H 512 V 38.345 C 512,17.167 494.833,0 473.655,0 Z"
   id="path923" />
<rect
   y="67.093994"
   style="fill:#f5f5f5"
   width="512"
   height="67.089996"
   id="rect925"
   x="0" />
<g
   id="g931"
   transform="translate(0,-88.276)">
	<rect
   y="222.46001"
   style="fill:#ff4b55"
   width="512"
   height="67.089996"
   id="rect927"
   x="0" />
	<path
   style="fill:#ff4b55"
   d="m 0,385.379 c 0,21.177 17.167,38.345 38.345,38.345 h 435.31 c 21.177,0 38.345,-17.167 38.345,-38.345 V 356.634 H 0 Z"
   id="path929" />
</g>
<rect
   y="201.27399"
   style="fill:#f5f5f5"
   width="512"
   height="67.089996"
   id="rect933"
   x="0" />
<path
   style="fill:#41479b"
   d="M 13.7,326.472 247.598,173.228 c 3.966,-2.599 3.966,-8.412 0,-11.009 L 13.7,8.975 C 5.326,16.01 0,26.553 0,38.345 v 258.759 c 0,11.791 5.326,22.334 13.7,29.368 z"
   id="path935" />
<path
   style="fill:#f5f5f5"
   d="m 90.183,126.75 9.213,27.623 29.118,0.226 c 3.769,0.029 5.333,4.84 2.301,7.08 l -23.424,17.298 8.783,27.763 c 1.138,3.594 -2.955,6.568 -6.023,4.375 l -23.689,-16.932 -23.69,16.932 c -3.066,2.193 -7.159,-0.781 -6.023,-4.375 l 8.783,-27.763 -23.424,-17.299 c -3.032,-2.24 -1.47,-7.05 2.301,-7.08 l 29.118,-0.226 9.213,-27.623 c 1.192,-3.576 6.25,-3.576 7.443,0.001 z"
   id="path937" />
<g
   id="g939"
   transform="translate(0,-88.276)">
</g>
<g
   id="g941"
   transform="translate(0,-88.276)">
</g>
<g
   id="g943"
   transform="translate(0,-88.276)">
</g>
<g
   id="g945"
   transform="translate(0,-88.276)">
</g>
<g
   id="g947"
   transform="translate(0,-88.276)">
</g>
<g
   id="g949"
   transform="translate(0,-88.276)">
</g>
<g
   id="g951"
   transform="translate(0,-88.276)">
</g>
<g
   id="g953"
   transform="translate(0,-88.276)">
</g>
<g
   id="g955"
   transform="translate(0,-88.276)">
</g>
<g
   id="g957"
   transform="translate(0,-88.276)">
</g>
<g
   id="g959"
   transform="translate(0,-88.276)">
</g>
<g
   id="g961"
   transform="translate(0,-88.276)">
</g>
<g
   id="g963"
   transform="translate(0,-88.276)">
</g>
<g
   id="g965"
   transform="translate(0,-88.276)">
</g>
<g
   id="g967"
   transform="translate(0,-88.276)">
</g>
</svg>
