<?xml version="1.0" encoding="UTF-8" standalone="no"?>
<svg
   xmlns:dc="http://purl.org/dc/elements/1.1/"
   xmlns:cc="http://creativecommons.org/ns#"
   xmlns:rdf="http://www.w3.org/1999/02/22-rdf-syntax-ns#"
   xmlns:svg="http://www.w3.org/2000/svg"
   xmlns="http://www.w3.org/2000/svg"
   xmlns:sodipodi="http://sodipodi.sourceforge.net/DTD/sodipodi-0.dtd"
   xmlns:inkscape="http://www.inkscape.org/namespaces/inkscape"
   version="1.1"
   id="Layer_1"
   x="0px"
   y="0px"
   viewBox="0 0 512 335.45001"
   xml:space="preserve"
   sodipodi:docname="rs.svg"
   width="512"
   height="335.45001"
   inkscape:version="1.0.1 (c497b03c, 2020-09-10)"><metadata
   id="metadata337"><rdf:RDF><cc:Work
       rdf:about=""><dc:format>image/svg+xml</dc:format><dc:type
         rdf:resource="http://purl.org/dc/dcmitype/StillImage" /><dc:title></dc:title></cc:Work></rdf:RDF></metadata><defs
   id="defs335" /><sodipodi:namedview
   pagecolor="#ffffff"
   bordercolor="#666666"
   borderopacity="1"
   objecttolerance="10"
   gridtolerance="10"
   guidetolerance="10"
   inkscape:pageopacity="0"
   inkscape:pageshadow="2"
   inkscape:window-width="1131"
   inkscape:window-height="796"
   id="namedview333"
   showgrid="false"
   inkscape:zoom="1.1972656"
   inkscape:cx="256"
   inkscape:cy="256"
   inkscape:window-x="0"
   inkscape:window-y="23"
   inkscape:window-maximized="0"
   inkscape:current-layer="Layer_1" />
<path
   style="fill:#f5f5f5"
   d="m 0,297.103 c 0,21.177 17.167,38.345 38.345,38.345 h 435.31 c 21.177,0 38.345,-17.167 38.345,-38.345 V 223.632 H 0 Z"
   id="path222" />
<path
   style="fill:#ff4b55"
   d="M 473.655,0 H 38.345 C 17.167,0 0,17.167 0,38.345 v 73.471 H 512 V 38.345 C 512,17.167 494.833,0 473.655,0 Z"
   id="path224" />
<rect
   y="111.814"
   style="fill:#41479b"
   width="512"
   height="111.81"
   id="rect226"
   x="0" />
<polygon
   style="fill:#ffe15a"
   points="106.814,184.18 175.669,184.18 173.021,200.07 109.462,200.07 "
   id="polygon228"
   transform="translate(0,-88.276)" />
<polygon
   style="fill:#ffd350"
   points="173.021,200.07 173.683,196.097 108.8,196.097 109.462,200.07 "
   id="polygon230"
   transform="translate(0,-88.276)" />
<g
   id="g242"
   transform="translate(0,-88.276)">
	<rect
   x="139.92"
   y="147.10001"
   style="fill:#ffe15a"
   width="2.648"
   height="10.593"
   id="rect232" />
	<rect
   x="137.27"
   y="149.75"
   style="fill:#ffe15a"
   width="7.9450002"
   height="2.648"
   id="rect234" />
	<path
   style="fill:#ffe15a"
   d="m 173.228,189.476 c -0.3,0 -0.604,-0.052 -0.903,-0.158 -1.375,-0.499 -2.086,-2.017 -1.587,-3.393 l 5.61,-15.481 c 0.278,-0.768 0.212,-1.613 -0.18,-2.319 -0.209,-0.375 -0.695,-1.035 -1.624,-1.234 -6.839,-1.453 -20.096,-3.897 -32.024,-3.897 h -2.558 c -11.927,0 -25.184,2.444 -32.026,3.9 -0.926,0.196 -1.414,0.856 -1.621,1.231 -0.392,0.706 -0.458,1.551 -0.179,2.319 l 5.609,15.481 c 0.499,1.376 -0.212,2.894 -1.587,3.393 -1.374,0.491 -2.895,-0.215 -3.392,-1.588 l -5.61,-15.481 c -0.8,-2.209 -0.609,-4.648 0.526,-6.694 1.097,-1.978 2.973,-3.38 5.149,-3.843 7.047,-1.5 20.718,-4.017 33.131,-4.017 h 2.558 c 12.413,0 26.084,2.517 33.128,4.013 2.179,0.466 4.055,1.867 5.152,3.846 1.135,2.046 1.326,4.484 0.527,6.694 l -5.611,15.481 c -0.388,1.078 -1.406,1.747 -2.488,1.747 z"
   id="path236" />
	<path
   style="fill:#ffe15a"
   d="m 141.251,187.159 c -1.462,0 -2.648,-1.184 -2.648,-2.648 v -21.517 c 0,-1.464 1.186,-2.648 2.648,-2.648 1.462,0 2.648,1.184 2.648,2.648 v 21.517 c 0.001,1.463 -1.185,2.648 -2.648,2.648 z"
   id="path238" />
	<path
   style="fill:#ffe15a"
   d="m 159.559,189.476 c -0.179,0 -0.36,-0.018 -0.541,-0.054 -1.433,-0.298 -2.353,-1.699 -2.055,-3.132 l 3.212,-15.481 c 0.417,-2.017 -0.236,-3.784 -0.608,-4.094 -3.672,-1.347 -11.039,-3.722 -17.594,-3.722 h -1.465 c -6.554,0 -13.921,2.375 -17.73,3.791 -0.235,0.241 -0.889,2.007 -0.472,4.024 l 3.212,15.481 c 0.298,1.432 -0.622,2.835 -2.055,3.132 -1.434,0.277 -2.836,-0.623 -3.13,-2.056 l -3.212,-15.481 c -0.8,-3.859 0.428,-8.801 3.808,-10.062 5.063,-1.882 12.565,-4.125 19.578,-4.125 h 1.465 c 7.014,0 14.517,2.242 19.576,4.122 3.383,1.265 4.611,6.207 3.811,10.066 l -3.212,15.481 c -0.258,1.252 -1.36,2.11 -2.588,2.11 z"
   id="path240" />
</g>
<polygon
   style="fill:#ffd350"
   points="175.669,184.18 106.814,184.18 107.476,188.152 175.007,188.152 "
   id="polygon244"
   transform="translate(0,-88.276)" />
<path
   style="fill:#ff4b55"
   d="m 90.924,111.794 c -1.463,0 -2.648,1.186 -2.648,2.648 v 92.486 c 0,29.365 23.713,53.17 52.966,53.17 29.253,0 52.966,-23.805 52.966,-53.17 v -92.486 c 0,-1.463 -1.185,-2.648 -2.648,-2.648 z"
   id="path246" />
<path
   style="fill:#f5f5f5"
   d="m 146.538,199.187 5.297,-13.241 -10.593,2.648 -10.593,-2.648 5.297,13.241 -13.241,45.021 c 0,0 7.945,5.297 18.538,5.297 10.593,0 18.538,-5.297 18.538,-5.297 z"
   id="path248" />
<polygon
   style="fill:#ffe15a"
   points="127.667,280.802 123.037,278.232 110.552,300.704 98.869,300.704 98.869,306.001 104.559,306.001 97.215,311.876 100.523,316.014 106.762,311.022 104.301,318.403 109.326,320.079 114.163,305.568 123.346,303.272 122.061,298.135 117.388,299.304 "
   id="polygon250"
   transform="translate(0,-88.276)" />
<path
   style="fill:#f5f5f5"
   d="m 122.703,138.276 -12.089,-6.045 c -2.22,-1.11 -3.372,-3.614 -2.77,-6.022 l 0.684,-2.735 c 0.474,-1.898 -0.961,-3.736 -2.918,-3.736 -0.914,0 -1.778,0.415 -2.348,1.129 -6.273,7.841 -9.69,17.583 -9.69,27.625 v 55.991 c 0,0 11.059,-2.212 21.048,-16.742 1.834,-2.668 4.854,-4.247 8.072,-4.412 l -5.286,15.857 10.594,2.649 9.269,-11.03 z"
   id="path252" />
<polygon
   style="fill:#ffe15a"
   points="154.816,280.802 159.446,278.232 171.929,300.704 183.614,300.704 183.614,306.001 177.923,306.001 185.268,311.876 181.96,316.014 175.721,311.022 178.182,318.403 173.156,320.079 168.32,305.568 159.137,303.272 160.422,298.135 165.095,299.304 "
   id="polygon254"
   transform="translate(0,-88.276)" />
<path
   style="fill:#f5f5f5"
   d="m 159.779,138.276 12.089,-6.045 c 2.22,-1.11 3.372,-3.614 2.77,-6.022 l -0.684,-2.735 c -0.474,-1.898 0.961,-3.736 2.918,-3.736 0.914,0 1.778,0.415 2.348,1.129 6.273,7.841 9.69,17.583 9.69,27.625 v 55.991 c 0,0 -11.059,-2.212 -21.048,-16.742 -1.834,-2.668 -4.853,-4.247 -8.072,-4.412 l 5.286,15.857 -10.593,2.648 -9.269,-11.03 z"
   id="path256" />
<g
   id="g262"
   transform="translate(0,-88.276)">
	<polygon
   style="fill:#ffe15a"
   points="116.083,213.311 125.352,215.959 120.055,218.607 128,218.607 125.352,208.014 112.11,208.014 "
   id="polygon258" />
	<polygon
   style="fill:#ffe15a"
   points="166.4,213.311 157.131,215.959 162.428,218.607 154.483,218.607 157.131,208.014 170.372,208.014 "
   id="polygon260" />
</g>
<path
   style="fill:#f5f5f5"
   d="m 158.996,117.662 -12.458,2.077 -5.297,10.593 -5.297,-10.593 -12.458,-2.077 c -1.428,-0.238 -2.524,1.245 -1.876,2.54 l 6.39,12.778 -5.297,5.297 h 18.538 18.538 l -5.297,-5.297 6.389,-12.778 c 0.648,-1.296 -0.447,-2.779 -1.875,-2.54 z"
   id="path264" />
<circle
   style="fill:#ffbe50"
   cx="141.24001"
   cy="97.063995"
   r="3.9719999"
   id="circle266" />
<ellipse
   style="fill:#41479b"
   cx="141.19"
   cy="106.54401"
   rx="3.1389999"
   ry="2.207"
   id="ellipse268" />
<ellipse
   style="fill:#ff4b55"
   cx="125.52"
   cy="106.54401"
   rx="3.1389999"
   ry="2.207"
   id="ellipse270" />
<g
   id="g276"
   transform="translate(0,-88.276)">
	<ellipse
   style="fill:#41479b"
   cx="109.85"
   cy="194.82001"
   rx="3.1389999"
   ry="2.207"
   id="ellipse272" />
	<ellipse
   style="fill:#41479b"
   cx="172.52"
   cy="194.82001"
   rx="3.1389999"
   ry="2.207"
   id="ellipse274" />
</g>
<ellipse
   style="fill:#ff4b55"
   cx="156.85001"
   cy="106.54401"
   rx="3.1389999"
   ry="2.207"
   id="ellipse278" />
<g
   id="g288"
   transform="translate(0,-88.276)">
	<circle
   style="fill:#ffbe50"
   cx="159.64999"
   cy="185.34"
   r="3.9719999"
   id="circle280" />
	<circle
   style="fill:#ffbe50"
   cx="174.17"
   cy="185.34"
   r="3.9719999"
   id="circle282" />
	<circle
   style="fill:#ffbe50"
   cx="122.86"
   cy="185.34"
   r="3.9719999"
   id="circle284" />
	<circle
   style="fill:#ffbe50"
   cx="108.33"
   cy="185.34"
   r="3.9719999"
   id="circle286" />
</g>
<path
   style="fill:#41479b"
   d="m 145.803,74.718 c 0.455,-0.781 0.735,-1.678 0.735,-2.648 0,-2.925 -2.371,-5.297 -5.297,-5.297 -2.926,0 -5.297,2.371 -5.297,5.297 0,0.97 0.279,1.867 0.735,2.648 z"
   id="path290" />
<path
   style="fill:#ff4b55"
   d="m 141.241,192.566 c -10.953,0 -19.862,-8.909 -19.862,-19.862 v -35.752 h 39.724 v 35.752 c 0,10.953 -8.909,19.862 -19.862,19.862 z"
   id="path292" />
<path
   style="fill:#a54b50"
   d="m 159.779,138.276 v 34.428 c 0,10.238 -8.3,18.538 -18.538,18.538 -10.238,0 -18.538,-8.3 -18.538,-18.538 v -34.428 h 37.076 m 2.649,-2.648 h -2.648 -37.076 -2.648 v 2.648 34.428 c 0,11.682 9.504,21.186 21.186,21.186 11.682,0 21.186,-9.504 21.186,-21.186 v -34.428 z"
   id="path294" />
<g
   id="g300"
   transform="translate(0,-88.276)">
	<path
   style="fill:#f5f5f5"
   d="m 137.269,279.08 c 1.281,0.28 2.607,0.437 3.972,0.437 1.365,0 2.691,-0.158 3.972,-0.437 v -52.529 h -7.945 c 0.001,0 0.001,52.529 0.001,52.529 z"
   id="path296" />
	<rect
   x="122.7"
   y="248.39999"
   style="fill:#f5f5f5"
   width="37.080002"
   height="7.9450002"
   id="rect298" />
</g>
<g
   id="g302"
   transform="translate(0,-88.276)">
</g>
<g
   id="g304"
   transform="translate(0,-88.276)">
</g>
<g
   id="g306"
   transform="translate(0,-88.276)">
</g>
<g
   id="g308"
   transform="translate(0,-88.276)">
</g>
<g
   id="g310"
   transform="translate(0,-88.276)">
</g>
<g
   id="g312"
   transform="translate(0,-88.276)">
</g>
<g
   id="g314"
   transform="translate(0,-88.276)">
</g>
<g
   id="g316"
   transform="translate(0,-88.276)">
</g>
<g
   id="g318"
   transform="translate(0,-88.276)">
</g>
<g
   id="g320"
   transform="translate(0,-88.276)">
</g>
<g
   id="g322"
   transform="translate(0,-88.276)">
</g>
<g
   id="g324"
   transform="translate(0,-88.276)">
</g>
<g
   id="g326"
   transform="translate(0,-88.276)">
</g>
<g
   id="g328"
   transform="translate(0,-88.276)">
</g>
<g
   id="g330"
   transform="translate(0,-88.276)">
</g>
</svg>
