<?xml version="1.0" encoding="UTF-8" standalone="no"?>
<svg
   xmlns:dc="http://purl.org/dc/elements/1.1/"
   xmlns:cc="http://creativecommons.org/ns#"
   xmlns:rdf="http://www.w3.org/1999/02/22-rdf-syntax-ns#"
   xmlns:svg="http://www.w3.org/2000/svg"
   xmlns="http://www.w3.org/2000/svg"
   xmlns:sodipodi="http://sodipodi.sourceforge.net/DTD/sodipodi-0.dtd"
   xmlns:inkscape="http://www.inkscape.org/namespaces/inkscape"
   version="1.1"
   id="Layer_1"
   x="0px"
   y="0px"
   viewBox="0 0 512 335.45001"
   xml:space="preserve"
   sodipodi:docname="rw.svg"
   width="512"
   height="335.45001"
   inkscape:version="1.0.1 (c497b03c, 2020-09-10)"><metadata
   id="metadata57"><rdf:RDF><cc:Work
       rdf:about=""><dc:format>image/svg+xml</dc:format><dc:type
         rdf:resource="http://purl.org/dc/dcmitype/StillImage" /><dc:title></dc:title></cc:Work></rdf:RDF></metadata><defs
   id="defs55" /><sodipodi:namedview
   pagecolor="#ffffff"
   bordercolor="#666666"
   borderopacity="1"
   objecttolerance="10"
   gridtolerance="10"
   guidetolerance="10"
   inkscape:pageopacity="0"
   inkscape:pageshadow="2"
   inkscape:window-width="1091"
   inkscape:window-height="839"
   id="namedview53"
   showgrid="false"
   inkscape:zoom="1.640625"
   inkscape:cx="256"
   inkscape:cy="256"
   inkscape:window-x="0"
   inkscape:window-y="23"
   inkscape:window-maximized="0"
   inkscape:current-layer="Layer_1" />
<path
   style="fill:#4173cd;stroke-width:0.999999"
   d="M 473.655,0 H 38.345 C 17.167,0 0,17.167 0,38.345 V 167.724 H 512 V 38.345 C 512,17.167 494.833,0 473.655,0 Z"
   id="path10" />
<rect
   y="167.724"
   style="fill:#ffe15a;stroke-width:0.999999"
   width="512"
   height="83.860001"
   id="rect12"
   x="0" />
<path
   style="fill:#73af00;stroke-width:0.999999"
   d="m 0,297.10299 c 0,21.177 17.167,38.34501 38.345,38.34501 h 435.31 c 21.177,0 38.345,-17.16701 38.345,-38.34501 V 251.586 H 0 Z"
   id="path14" />
<g
   id="g20"
   transform="translate(0,-88.276)">
	<path
   style="fill:#ffe15a"
   d="m 458.211,178.12 36.134,-5.982 -36.134,-5.982 31.094,-19.354 -35.672,8.301 21.321,-29.78 -29.78,21.321 8.301,-35.672 -19.354,31.094 -5.983,-36.135 -5.982,36.134 -19.354,-31.094 8.301,35.672 -29.78,-21.321 21.321,29.78 -35.672,-8.301 31.094,19.354 -36.135,5.983 36.134,5.982 -31.094,19.354 35.672,-8.301 -21.321,29.78 29.78,-21.321 -8.301,35.672 19.354,-31.094 5.983,36.135 5.982,-36.134 19.354,31.094 -8.301,-35.672 29.78,21.321 -21.321,-29.78 35.672,8.301 z m -30.073,16.087 c -12.189,0 -22.069,-9.88 -22.069,-22.069 0,-12.189 9.88,-22.069 22.069,-22.069 12.189,0 22.069,9.88 22.069,22.069 0,12.189 -9.88,22.069 -22.069,22.069 z"
   id="path16" />
	<circle
   style="fill:#ffe15a"
   cx="428.14001"
   cy="172.14"
   r="16.552"
   id="circle18" />
</g>
<g
   id="g22"
   transform="translate(0,-88.276)">
</g>
<g
   id="g24"
   transform="translate(0,-88.276)">
</g>
<g
   id="g26"
   transform="translate(0,-88.276)">
</g>
<g
   id="g28"
   transform="translate(0,-88.276)">
</g>
<g
   id="g30"
   transform="translate(0,-88.276)">
</g>
<g
   id="g32"
   transform="translate(0,-88.276)">
</g>
<g
   id="g34"
   transform="translate(0,-88.276)">
</g>
<g
   id="g36"
   transform="translate(0,-88.276)">
</g>
<g
   id="g38"
   transform="translate(0,-88.276)">
</g>
<g
   id="g40"
   transform="translate(0,-88.276)">
</g>
<g
   id="g42"
   transform="translate(0,-88.276)">
</g>
<g
   id="g44"
   transform="translate(0,-88.276)">
</g>
<g
   id="g46"
   transform="translate(0,-88.276)">
</g>
<g
   id="g48"
   transform="translate(0,-88.276)">
</g>
<g
   id="g50"
   transform="translate(0,-88.276)">
</g>
</svg>
