<svg xmlns="http://www.w3.org/2000/svg" xml:space="preserve" width="512" height="335.45001"><path style="fill:#4173cd;stroke-width:.999999" d="M473.655 0H38.345C17.167 0 0 17.167 0 38.345v129.379h512V38.345C512 17.167 494.833 0 473.655 0z"/><path style="fill:#ffe15a;stroke-width:.999999" d="M0 167.724h512v83.86H0z"/><path style="fill:#73af00;stroke-width:.999999" d="M0 297.10299c0 21.177 17.167 38.34501 38.345 38.34501h435.31c21.177 0 38.345-17.16701 38.345-38.34501V251.586H0z"/><g transform="translate(0 -88.276)"><path style="fill:#ffe15a" d="m458.211 178.12 36.134-5.982-36.134-5.982 31.094-19.354-35.672 8.301 21.321-29.78-29.78 21.321 8.301-35.672-19.354 31.094-5.983-36.135-5.982 36.134-19.354-31.094 8.301 35.672-29.78-21.321 21.321 29.78-35.672-8.301 31.094 19.354-36.135 5.983 36.134 5.982-31.094 19.354 35.672-8.301-21.321 29.78 29.78-21.321-8.301 35.672 19.354-31.094 5.983 36.135 5.982-36.134 19.354 31.094-8.301-35.672 29.78 21.321-21.321-29.78 35.672 8.301zm-30.073 16.087c-12.189 0-22.069-9.88-22.069-22.069 0-12.189 9.88-22.069 22.069-22.069 12.189 0 22.069 9.88 22.069 22.069 0 12.189-9.88 22.069-22.069 22.069z"/><circle style="fill:#ffe15a" cx="428.14001" cy="172.14" r="16.552"/></g></svg>