<?xml version="1.0" encoding="UTF-8" standalone="no"?>
<svg
   xmlns:dc="http://purl.org/dc/elements/1.1/"
   xmlns:cc="http://creativecommons.org/ns#"
   xmlns:rdf="http://www.w3.org/1999/02/22-rdf-syntax-ns#"
   xmlns:svg="http://www.w3.org/2000/svg"
   xmlns="http://www.w3.org/2000/svg"
   xmlns:sodipodi="http://sodipodi.sourceforge.net/DTD/sodipodi-0.dtd"
   xmlns:inkscape="http://www.inkscape.org/namespaces/inkscape"
   version="1.1"
   id="Layer_1"
   x="0px"
   y="0px"
   viewBox="0 0 512 335.45001"
   xml:space="preserve"
   sodipodi:docname="sb.svg"
   width="512"
   height="335.45001"
   inkscape:version="1.0.1 (c497b03c, 2020-09-10)"><metadata
   id="metadata310"><rdf:RDF><cc:Work
       rdf:about=""><dc:format>image/svg+xml</dc:format><dc:type
         rdf:resource="http://purl.org/dc/dcmitype/StillImage" /><dc:title></dc:title></cc:Work></rdf:RDF></metadata><defs
   id="defs308" /><sodipodi:namedview
   pagecolor="#ffffff"
   bordercolor="#666666"
   borderopacity="1"
   objecttolerance="10"
   gridtolerance="10"
   guidetolerance="10"
   inkscape:pageopacity="0"
   inkscape:pageshadow="2"
   inkscape:window-width="1120"
   inkscape:window-height="764"
   id="namedview306"
   showgrid="false"
   inkscape:zoom="1.0644531"
   inkscape:cx="256"
   inkscape:cy="256"
   inkscape:window-x="0"
   inkscape:window-y="23"
   inkscape:window-maximized="0"
   inkscape:current-layer="Layer_1" />
<path
   style="fill:#41479b"
   d="M 473.885,0.001 H 38.115 C 17.045,0.124 0,17.24 0,38.34 v 258.759 c 0,21.177 17.167,38.345 38.345,38.345 h 435.31 c 21.177,0 38.345,-17.167 38.345,-38.345 V 38.34 C 512,17.24 494.955,0.124 473.885,0.001 Z"
   id="path257" />
<path
   style="fill:#73af00"
   d="M 498.304,8.974 13.704,326.47 c 6.665,5.597 15.257,8.972 24.641,8.972 h 435.31 c 21.177,0 38.345,-17.167 38.345,-38.345 V 38.339 C 512,26.55 506.675,16.009 498.304,8.974 Z"
   id="path259" />
<path
   style="fill:#ffe15a"
   d="M 512,8.828 C 512,3.953 508.047,0 503.172,0 H 487.833 L 0,319.616 v 7.006 c 0,4.875 3.953,8.828 8.828,8.828 H 24.167 L 512,15.834 Z"
   id="path261" />
<g
   id="g273"
   transform="translate(0,-88.275)">
	<path
   style="fill:#f5f5f5"
   d="m 44.429,115.778 -4.726,14.169 -14.936,0.116 c -1.432,0.011 -2.026,1.839 -0.874,2.69 l 12.015,8.873 -4.505,14.241 c -0.433,1.366 1.123,2.495 2.289,1.663 l 12.152,-8.685 12.152,8.685 c 1.165,0.833 2.72,-0.297 2.289,-1.663 l -4.505,-14.241 12.015,-8.873 c 1.152,-0.851 0.558,-2.679 -0.874,-2.69 l -14.936,-0.116 -4.726,-14.169 c -0.454,-1.359 -2.376,-1.359 -2.83,0 z"
   id="path263" />
	<path
   style="fill:#f5f5f5"
   d="m 158.21,115.778 -4.726,14.169 -14.936,0.116 c -1.432,0.011 -2.026,1.839 -0.874,2.69 l 12.015,8.873 -4.505,14.241 c -0.433,1.366 1.123,2.495 2.289,1.663 l 12.152,-8.685 12.152,8.685 c 1.165,0.833 2.72,-0.297 2.289,-1.663 l -4.505,-14.241 12.015,-8.873 c 1.152,-0.851 0.558,-2.679 -0.874,-2.69 l -14.936,-0.116 -4.726,-14.169 c -0.455,-1.359 -2.377,-1.359 -2.83,0 z"
   id="path265" />
	<path
   style="fill:#f5f5f5"
   d="m 101.32,166.476 -4.726,14.169 -14.936,0.116 c -1.432,0.011 -2.026,1.839 -0.874,2.69 l 12.015,8.873 -4.505,14.241 c -0.433,1.366 1.123,2.495 2.289,1.663 l 12.152,-8.685 12.152,8.685 c 1.165,0.833 2.72,-0.297 2.289,-1.663 l -4.505,-14.241 12.015,-8.873 c 1.152,-0.851 0.558,-2.679 -0.874,-2.69 l -14.936,-0.116 -4.726,-14.169 c -0.456,-1.359 -2.377,-1.359 -2.83,0 z"
   id="path267" />
	<path
   style="fill:#f5f5f5"
   d="m 44.429,217.174 -4.726,14.169 -14.936,0.116 c -1.432,0.011 -2.026,1.839 -0.874,2.69 l 12.015,8.873 -4.505,14.241 c -0.433,1.366 1.123,2.495 2.289,1.663 l 12.152,-8.685 12.152,8.685 c 1.165,0.833 2.72,-0.297 2.289,-1.663 l -4.505,-14.241 12.015,-8.873 c 1.152,-0.851 0.558,-2.679 -0.874,-2.69 l -14.936,-0.116 -4.726,-14.169 c -0.454,-1.359 -2.376,-1.359 -2.83,0 z"
   id="path269" />
	<path
   style="fill:#f5f5f5"
   d="m 158.21,217.174 -4.726,14.169 -14.936,0.116 c -1.432,0.011 -2.026,1.839 -0.874,2.69 l 12.015,8.873 -4.505,14.241 c -0.433,1.366 1.123,2.495 2.289,1.663 l 12.152,-8.685 12.152,8.685 c 1.165,0.833 2.72,-0.297 2.289,-1.663 l -4.505,-14.241 12.015,-8.873 c 1.152,-0.851 0.558,-2.679 -0.874,-2.69 l -14.936,-0.116 -4.726,-14.169 c -0.455,-1.359 -2.377,-1.359 -2.83,0 z"
   id="path271" />
</g>
<g
   id="g275"
   transform="translate(0,-88.275)">
</g>
<g
   id="g277"
   transform="translate(0,-88.275)">
</g>
<g
   id="g279"
   transform="translate(0,-88.275)">
</g>
<g
   id="g281"
   transform="translate(0,-88.275)">
</g>
<g
   id="g283"
   transform="translate(0,-88.275)">
</g>
<g
   id="g285"
   transform="translate(0,-88.275)">
</g>
<g
   id="g287"
   transform="translate(0,-88.275)">
</g>
<g
   id="g289"
   transform="translate(0,-88.275)">
</g>
<g
   id="g291"
   transform="translate(0,-88.275)">
</g>
<g
   id="g293"
   transform="translate(0,-88.275)">
</g>
<g
   id="g295"
   transform="translate(0,-88.275)">
</g>
<g
   id="g297"
   transform="translate(0,-88.275)">
</g>
<g
   id="g299"
   transform="translate(0,-88.275)">
</g>
<g
   id="g301"
   transform="translate(0,-88.275)">
</g>
<g
   id="g303"
   transform="translate(0,-88.275)">
</g>
</svg>
