<svg xmlns="http://www.w3.org/2000/svg" xml:space="preserve" width="512" height="335.45001"><path style="fill:#73af00" d="M38.345 335.448h435.31c21.177 0 38.345-17.167 38.345-38.345v-73.471L20.404 330.992c5.354 2.841 11.457 4.456 17.941 4.456z"/><path style="fill:#41479b" d="M38.345 0C17.167 0 0 17.167 0 38.345v258.759c0 8.681 2.888 16.684 7.751 23.111L170.666 0z"/><path style="fill:#ffe15a" d="M170.666 0 7.751 320.214c1.097 1.449 2.293 2.819 3.581 4.098L341.333 0z"/><path style="fill:#ff4b55" d="M473.655 0H341.333L11.331 324.312c1.497 1.487 3.122 2.845 4.847 4.069L512 111.816V38.345C512 17.167 494.833 0 473.655 0z"/><path style="fill:#f5f5f5" d="M20.404 330.992 512 223.632V111.816L16.178 328.382c1.348.956 2.757 1.831 4.226 2.61z"/></svg>