<?xml version="1.0" encoding="UTF-8" standalone="no"?>
<svg
   xmlns:dc="http://purl.org/dc/elements/1.1/"
   xmlns:cc="http://creativecommons.org/ns#"
   xmlns:rdf="http://www.w3.org/1999/02/22-rdf-syntax-ns#"
   xmlns:svg="http://www.w3.org/2000/svg"
   xmlns="http://www.w3.org/2000/svg"
   xmlns:sodipodi="http://sodipodi.sourceforge.net/DTD/sodipodi-0.dtd"
   xmlns:inkscape="http://www.inkscape.org/namespaces/inkscape"
   version="1.1"
   id="Layer_1"
   x="0px"
   y="0px"
   viewBox="0 0 512 335.45001"
   xml:space="preserve"
   sodipodi:docname="sg.svg"
   width="512"
   height="335.45001"
   inkscape:version="1.0.1 (c497b03c, 2020-09-10)"><metadata
   id="metadata171"><rdf:RDF><cc:Work
       rdf:about=""><dc:format>image/svg+xml</dc:format><dc:type
         rdf:resource="http://purl.org/dc/dcmitype/StillImage" /><dc:title></dc:title></cc:Work></rdf:RDF></metadata><defs
   id="defs169" /><sodipodi:namedview
   pagecolor="#ffffff"
   bordercolor="#666666"
   borderopacity="1"
   objecttolerance="10"
   gridtolerance="10"
   guidetolerance="10"
   inkscape:pageopacity="0"
   inkscape:pageshadow="2"
   inkscape:window-width="1152"
   inkscape:window-height="863"
   id="namedview167"
   showgrid="false"
   inkscape:zoom="1.2949219"
   inkscape:cx="256"
   inkscape:cy="256"
   inkscape:window-x="0"
   inkscape:window-y="23"
   inkscape:window-maximized="0"
   inkscape:current-layer="Layer_1" />
<path
   style="fill:#f5f5f5"
   d="M 473.655,335.449 H 38.345 C 17.167,335.449 0,318.282 0,297.103 V 38.345 C 0,17.168 17.167,0 38.345,0 h 435.31 C 494.832,0 512,17.167 512,38.345 v 258.76 c 0,21.177 -17.167,38.344 -38.345,38.344 z"
   id="path116" />
<path
   style="fill:#ff4b55"
   d="M 473.655,0 H 38.345 C 17.167,0 0,17.167 0,38.345 V 167.724 H 512 V 38.345 C 512,17.167 494.833,0 473.655,0 Z"
   id="path118" />
<g
   id="g134"
   transform="translate(0,-88.275)">
	<path
   style="fill:#f5f5f5"
   d="m 0,255.999 h 512 v 158.897 c 0,4.875 -3.953,8.828 -8.828,8.828 H 8.828 C 3.953,423.724 0,419.771 0,414.896 Z"
   id="path120" />
	<path
   style="fill:#f5f5f5"
   d="m 72.569,172.262 c 0,-29.028 21.3,-53.091 49.113,-57.543 1.51,-0.242 1.578,-2.319 0.088,-2.663 -6.886,-1.583 -14.199,-2.034 -21.793,-1 -29.998,4.086 -53.186,30.046 -53.61,60.318 -0.483,34.566 27.383,62.712 61.785,62.712 4.683,0 9.23,-0.547 13.606,-1.554 1.489,-0.342 1.414,-2.424 -0.094,-2.666 -27.802,-4.447 -49.095,-28.462 -49.095,-57.604 z"
   id="path122" />
	<path
   style="fill:#f5f5f5"
   d="m 122.14,187.794 -2.613,7.836 -8.259,0.064 c -1.069,0.009 -1.513,1.373 -0.652,2.008 l 6.644,4.907 -2.492,7.875 c -0.322,1.02 0.839,1.863 1.708,1.241 l 6.72,-4.803 6.72,4.803 c 0.87,0.622 2.03,-0.222 1.708,-1.241 l -2.492,-7.875 6.644,-4.907 c 0.861,-0.636 0.417,-1.999 -0.652,-2.008 l -8.259,-0.064 -2.613,-7.836 c -0.339,-1.013 -1.774,-1.013 -2.112,0 z"
   id="path124" />
	<path
   style="fill:#f5f5f5"
   d="m 162.967,187.794 -2.613,7.836 -8.259,0.064 c -1.069,0.009 -1.513,1.373 -0.652,2.008 l 6.644,4.907 -2.492,7.875 c -0.322,1.02 0.839,1.863 1.708,1.241 l 6.72,-4.803 6.72,4.803 c 0.87,0.622 2.03,-0.222 1.708,-1.241 l -2.492,-7.875 6.644,-4.907 c 0.861,-0.636 0.417,-1.999 -0.652,-2.008 l -8.259,-0.064 -2.613,-7.836 c -0.339,-1.013 -1.773,-1.013 -2.112,0 z"
   id="path126" />
	<path
   style="fill:#f5f5f5"
   d="m 142.738,124.789 -2.613,7.836 -8.259,0.064 c -1.069,0.008 -1.513,1.373 -0.652,2.008 l 6.644,4.907 -2.492,7.875 c -0.322,1.02 0.839,1.863 1.708,1.241 l 6.72,-4.803 6.72,4.803 c 0.87,0.622 2.03,-0.222 1.708,-1.241 l -2.492,-7.875 6.644,-4.907 c 0.861,-0.636 0.417,-1.999 -0.652,-2.008 l -8.259,-0.064 -2.613,-7.836 c -0.339,-1.014 -1.774,-1.014 -2.112,0 z"
   id="path128" />
	<path
   style="fill:#f5f5f5"
   d="m 110.186,148.928 -2.613,7.836 -8.259,0.064 c -1.069,0.008 -1.513,1.373 -0.652,2.008 l 6.644,4.907 -2.492,7.875 c -0.322,1.02 0.839,1.863 1.708,1.241 l 6.72,-4.803 6.72,4.803 c 0.87,0.622 2.03,-0.222 1.708,-1.241 l -2.492,-7.875 6.645,-4.907 c 0.861,-0.636 0.417,-1.999 -0.652,-2.008 l -8.259,-0.064 -2.613,-7.836 c -0.34,-1.015 -1.775,-1.015 -2.113,0 z"
   id="path130" />
	<path
   style="fill:#f5f5f5"
   d="m 175.014,148.928 -2.613,7.836 -8.259,0.064 c -1.069,0.008 -1.513,1.373 -0.652,2.008 l 6.644,4.907 -2.492,7.875 c -0.322,1.02 0.839,1.863 1.708,1.241 l 6.72,-4.803 6.72,4.803 c 0.87,0.622 2.03,-0.222 1.708,-1.241 l -2.492,-7.875 6.644,-4.907 c 0.861,-0.636 0.417,-1.999 -0.652,-2.008 l -8.259,-0.064 -2.613,-7.836 c -0.339,-1.015 -1.774,-1.015 -2.112,0 z"
   id="path132" />
</g>
<g
   id="g136"
   transform="translate(0,-88.275)">
</g>
<g
   id="g138"
   transform="translate(0,-88.275)">
</g>
<g
   id="g140"
   transform="translate(0,-88.275)">
</g>
<g
   id="g142"
   transform="translate(0,-88.275)">
</g>
<g
   id="g144"
   transform="translate(0,-88.275)">
</g>
<g
   id="g146"
   transform="translate(0,-88.275)">
</g>
<g
   id="g148"
   transform="translate(0,-88.275)">
</g>
<g
   id="g150"
   transform="translate(0,-88.275)">
</g>
<g
   id="g152"
   transform="translate(0,-88.275)">
</g>
<g
   id="g154"
   transform="translate(0,-88.275)">
</g>
<g
   id="g156"
   transform="translate(0,-88.275)">
</g>
<g
   id="g158"
   transform="translate(0,-88.275)">
</g>
<g
   id="g160"
   transform="translate(0,-88.275)">
</g>
<g
   id="g162"
   transform="translate(0,-88.275)">
</g>
<g
   id="g164"
   transform="translate(0,-88.275)">
</g>
</svg>
