<?xml version="1.0" encoding="UTF-8" standalone="no"?>
<svg
   xmlns:dc="http://purl.org/dc/elements/1.1/"
   xmlns:cc="http://creativecommons.org/ns#"
   xmlns:rdf="http://www.w3.org/1999/02/22-rdf-syntax-ns#"
   xmlns:svg="http://www.w3.org/2000/svg"
   xmlns="http://www.w3.org/2000/svg"
   xmlns:sodipodi="http://sodipodi.sourceforge.net/DTD/sodipodi-0.dtd"
   xmlns:inkscape="http://www.inkscape.org/namespaces/inkscape"
   version="1.1"
   id="Layer_1"
   x="0px"
   y="0px"
   viewBox="0 0 512 335.45001"
   xml:space="preserve"
   sodipodi:docname="sk.svg"
   width="512"
   height="335.45001"
   inkscape:version="1.0.1 (c497b03c, 2020-09-10)"><metadata
   id="metadata174"><rdf:RDF><cc:Work
       rdf:about=""><dc:format>image/svg+xml</dc:format><dc:type
         rdf:resource="http://purl.org/dc/dcmitype/StillImage" /><dc:title></dc:title></cc:Work></rdf:RDF></metadata><defs
   id="defs172" /><sodipodi:namedview
   pagecolor="#ffffff"
   bordercolor="#666666"
   borderopacity="1"
   objecttolerance="10"
   gridtolerance="10"
   guidetolerance="10"
   inkscape:pageopacity="0"
   inkscape:pageshadow="2"
   inkscape:window-width="949"
   inkscape:window-height="666"
   id="namedview170"
   showgrid="false"
   inkscape:zoom="1.203125"
   inkscape:cx="256"
   inkscape:cy="256"
   inkscape:window-x="0"
   inkscape:window-y="23"
   inkscape:window-maximized="0"
   inkscape:current-layer="Layer_1" />
<path
   style="fill:#f5f5f5"
   d="M 473.655,0 H 38.345 C 17.167,0 0,17.167 0,38.345 v 73.471 H 512 V 38.345 C 512,17.167 494.833,0 473.655,0 Z"
   id="path125" />
<path
   style="fill:#ff4b55"
   d="m 0,297.103 c 0,21.177 17.167,38.345 38.345,38.345 h 435.31 c 21.177,0 38.345,-17.167 38.345,-38.345 V 223.632 H 0 Z"
   id="path127" />
<rect
   y="111.814"
   style="fill:#41479b"
   width="512"
   height="111.81"
   id="rect129"
   x="0" />
<path
   style="fill:#ff4b55"
   d="M 130.225,251.009 C 127.612,249.508 66.207,213.793 66.207,158.896 V 83.862 h 132.414 v 75.034 c 0,54.897 -61.405,90.612 -64.018,92.113 l -2.189,1.249 z"
   id="path131" />
<polygon
   style="fill:#f5f5f5"
   points="139.35,236.672 139.35,224.254 143.511,224.254 160.158,226.995 157.903,217.318 160.158,207.641 143.511,210.381 139.35,210.381 139.35,206.187 142.091,185.379 132.414,188.198 122.737,185.379 125.478,206.187 125.478,210.381 121.315,210.381 104.67,207.641 106.924,217.318 104.67,226.995 121.315,224.254 125.478,224.254 125.478,236.672 118.542,236.672 97.734,233.931 100.552,243.608 97.734,253.284 118.542,250.543 125.478,250.543 125.478,282.483 139.35,282.483 139.35,250.543 146.285,250.543 167.094,253.284 164.276,243.608 167.094,233.931 146.285,236.672 "
   id="polygon133"
   transform="translate(0,-88.276)" />
<path
   style="fill:#41479b"
   d="m 132.414,180.965 c -9.118,0 -16.938,5.532 -20.302,13.419 -0.594,-0.049 -1.162,-0.178 -1.767,-0.178 -11.751,0 -21.266,9.21 -21.94,20.791 17.875,22.004 40.264,35.116 41.82,36.011 l 2.189,1.25 2.189,-1.25 c 1.556,-0.894 23.945,-14.006 41.82,-36.011 -0.673,-11.581 -10.189,-20.791 -21.94,-20.791 -0.605,0 -1.174,0.129 -1.767,0.178 -3.364,-7.887 -11.184,-13.419 -20.302,-13.419 z"
   id="path135" />
<path
   style="fill:#f5f5f5"
   d="m 194.207,88.276 c 0,0 0,52.966 0,70.621 0,52.966 -61.793,88.276 -61.793,88.276 0,0 -61.793,-35.31 -61.793,-88.276 0,-17.655 0,-70.621 0,-70.621 h 123.586 m 8.827,-8.828 H 194.206 70.621 61.793 v 8.828 70.621 c 0,57.428 63.537,94.394 66.241,95.94 l 4.38,2.503 4.38,-2.503 c 2.705,-1.546 66.241,-38.513 66.241,-95.94 V 88.276 79.448 Z"
   id="path137" />
<g
   id="g139"
   transform="translate(0,-88.276)">
</g>
<g
   id="g141"
   transform="translate(0,-88.276)">
</g>
<g
   id="g143"
   transform="translate(0,-88.276)">
</g>
<g
   id="g145"
   transform="translate(0,-88.276)">
</g>
<g
   id="g147"
   transform="translate(0,-88.276)">
</g>
<g
   id="g149"
   transform="translate(0,-88.276)">
</g>
<g
   id="g151"
   transform="translate(0,-88.276)">
</g>
<g
   id="g153"
   transform="translate(0,-88.276)">
</g>
<g
   id="g155"
   transform="translate(0,-88.276)">
</g>
<g
   id="g157"
   transform="translate(0,-88.276)">
</g>
<g
   id="g159"
   transform="translate(0,-88.276)">
</g>
<g
   id="g161"
   transform="translate(0,-88.276)">
</g>
<g
   id="g163"
   transform="translate(0,-88.276)">
</g>
<g
   id="g165"
   transform="translate(0,-88.276)">
</g>
<g
   id="g167"
   transform="translate(0,-88.276)">
</g>
</svg>
