<?xml version="1.0" encoding="UTF-8" standalone="no"?>
<svg
   xmlns:dc="http://purl.org/dc/elements/1.1/"
   xmlns:cc="http://creativecommons.org/ns#"
   xmlns:rdf="http://www.w3.org/1999/02/22-rdf-syntax-ns#"
   xmlns:svg="http://www.w3.org/2000/svg"
   xmlns="http://www.w3.org/2000/svg"
   xmlns:sodipodi="http://sodipodi.sourceforge.net/DTD/sodipodi-0.dtd"
   xmlns:inkscape="http://www.inkscape.org/namespaces/inkscape"
   version="1.1"
   id="Layer_1"
   x="0px"
   y="0px"
   viewBox="0 0 512 335.45001"
   xml:space="preserve"
   sodipodi:docname="sl.svg"
   width="512"
   height="335.45001"
   inkscape:version="1.0.1 (c497b03c, 2020-09-10)"><metadata
   id="metadata106"><rdf:RDF><cc:Work
       rdf:about=""><dc:format>image/svg+xml</dc:format><dc:type
         rdf:resource="http://purl.org/dc/dcmitype/StillImage" /><dc:title></dc:title></cc:Work></rdf:RDF></metadata><defs
   id="defs104" /><sodipodi:namedview
   pagecolor="#ffffff"
   bordercolor="#666666"
   borderopacity="1"
   objecttolerance="10"
   gridtolerance="10"
   guidetolerance="10"
   inkscape:pageopacity="0"
   inkscape:pageshadow="2"
   inkscape:window-width="1171"
   inkscape:window-height="829"
   id="namedview102"
   showgrid="false"
   inkscape:zoom="1.4726562"
   inkscape:cx="256"
   inkscape:cy="256"
   inkscape:window-x="0"
   inkscape:window-y="23"
   inkscape:window-maximized="0"
   inkscape:current-layer="Layer_1" />
<path
   style="fill:#41479b"
   d="m 0,297.097 c 0,21.177 17.167,38.345 38.345,38.345 h 435.31 c 21.177,0 38.345,-17.167 38.345,-38.345 V 223.632 H 0 Z"
   id="path65" />
<path
   style="fill:#73af00"
   d="M 473.885,0 H 38.115 C 17.045,0.124 0,17.238 0,38.338 v 73.478 H 512 V 38.338 C 512,17.238 494.955,0.124 473.885,0 Z"
   id="path67" />
<rect
   y="111.82101"
   style="fill:#f5f5f5"
   width="512"
   height="111.81"
   id="rect69"
   x="0" />
<g
   id="g71"
   transform="translate(0,-88.279)">
</g>
<g
   id="g73"
   transform="translate(0,-88.279)">
</g>
<g
   id="g75"
   transform="translate(0,-88.279)">
</g>
<g
   id="g77"
   transform="translate(0,-88.279)">
</g>
<g
   id="g79"
   transform="translate(0,-88.279)">
</g>
<g
   id="g81"
   transform="translate(0,-88.279)">
</g>
<g
   id="g83"
   transform="translate(0,-88.279)">
</g>
<g
   id="g85"
   transform="translate(0,-88.279)">
</g>
<g
   id="g87"
   transform="translate(0,-88.279)">
</g>
<g
   id="g89"
   transform="translate(0,-88.279)">
</g>
<g
   id="g91"
   transform="translate(0,-88.279)">
</g>
<g
   id="g93"
   transform="translate(0,-88.279)">
</g>
<g
   id="g95"
   transform="translate(0,-88.279)">
</g>
<g
   id="g97"
   transform="translate(0,-88.279)">
</g>
<g
   id="g99"
   transform="translate(0,-88.279)">
</g>
</svg>
