<svg xmlns="http://www.w3.org/2000/svg" xml:space="preserve" width="512" height="335.45001"><style>.st0{fill:#f5f5f5}.st2{fill:#b46446}.st3{fill:#41aa5a}.st4{fill:#ffe15a}.st7{fill:#ffc75a}</style><path class="st0" d="M473.88501 0h-435.77C17.045.124 0 17.23841 0 38.33891V167.727h512V38.33891C512 17.23841 494.95499.12401 473.88501 0z"/><path d="M0 297.1041C0 318.28162 17.167 335.45 38.345 335.45h435.31c21.177 0 38.345-17.16739 38.345-38.34591V167.728H0v129.3761z" style="fill:#82afff"/><path class="st2" d="M256.82 239.70972c-1.49499-.065-36.791-1.87004-54.505-26.14061-10.324-14.14234-12.384-32.95278-6.123-55.90833l2.529.69002c-6.03799 22.14352-4.11999 40.19595 5.704 53.66328 16.958 23.24955 52.15401 25.0606 52.51 25.07561l-.115 2.62006v-.00003z"/><path class="st3" d="M196.167 147.48251c-1.74 4.53311-1.343 9.28023.672 12.87831 3.90601-1.32502 7.377-4.5871 9.118-9.1202 1.74-4.53312 1.343-9.28023-.672-12.87832-3.907 1.32703-7.378 4.58712-9.118 9.12021zm22.108 62.6695c-1.932 3.18709-2.43899 7.46017-1.007 11.60827 1.336 3.8761 4.094 6.73516 7.29 8.17821-3.105-1.62803-7.054-2.03505-10.93-.69801-4.148 1.43002-7.2 4.46312-8.52001 7.94818 3.187 1.93105 7.459 2.43906 11.608 1.00702 4.148-1.43002 7.2-4.46312 8.52-7.94818l-.004-.00202c1.916-3.18309 2.418-7.43918.992-11.57328-1.431-4.1481-4.46299-7.20018-7.949-8.5202h.00002zm-7.55799-11.56827c-2.98 2.23705-5.044 6.01314-5.263 10.39523-.205 4.09511 1.288 7.77619 3.715 10.30625-2.275-2.66806-5.788-4.51912-9.88-4.7241-4.38201-.22001-8.34501 1.45702-10.86901 4.1991 2.237 2.98008 6.013 5.04412 10.394 5.26313 4.381.21899 8.345-1.45705 10.869-4.19912l-.002-.00201c2.963-2.24104 5.015-6.00313 5.235-10.37024.219-4.38112-1.457-8.3442-4.199-10.86827l.00001.00003zm-3.269-13.0423c-3.604.947-6.941 3.66509-8.797 7.6392-1.73599 3.71507-1.742 7.68719-.449 10.94627-1.1-3.3291-3.654-6.36914-7.368-8.1042-3.976-1.85705-8.278-1.80105-11.649-.214.947 3.60409 3.665 6.94118 7.639 8.7972 3.976 1.85704 8.278 1.80104 11.649.214 0 0-.00101-.00299-.002-.004 3.591-.95602 6.911-3.6651 8.761-7.62618 1.859-3.97309 1.804-8.2762.216-11.64829zm1.854-12.94133c-3.709-.36899-7.783 1.01703-10.908 4.09612-2.921 2.87805-4.312 6.59915-4.235 10.10425.129-3.50309-1.206-7.2432-4.083-10.16324-3.08-3.12609-7.132-4.5721-10.845-4.25911-.369 3.7091 1.01601 7.7822 4.096 10.90825 3.08 3.12608 7.132 4.5721 10.845 4.2591v-.006c3.699.355 7.755-1.02604 10.87-4.09511 3.127-3.07807 4.573-7.13118 4.26-10.84426z"/><path class="st3" d="M211.924 160.28183c-3.596-.97801-7.843-.285-11.435 2.23405-3.357 2.35505-5.344 5.79413-5.848 9.26522.707-3.43407.009-7.34217-2.344-10.69826-2.519-3.59207-6.276-5.68913-9.991-5.99513-.978 3.59608-.285 7.84318 2.234 11.43527s6.276 5.68913 9.991 5.99513v-.00299c3.58799.96103 7.81798.26903 11.39799-2.24205 3.592-2.52005 5.689-6.27815 5.995-9.99124z"/><circle class="st4" cx="212.97" cy="228.23645" r="2.73103"/><circle class="st4" cx="225.52" cy="229.77647" r="2.73103"/><circle class="st4" cx="205.75999" cy="207.59595" r="2.73103"/><circle class="st4" cx="188.39" cy="187.05545" r="2.73103"/><circle class="st4" cx="200.52" cy="173.15512" r="2.73103"/><circle class="st4" cx="195.92" cy="158.89479" r="2.73104"/><path class="st2" d="m256.932 239.70972-.11498-2.62207c.355-.013 35.552-1.82604 52.51-25.07561 9.82401-13.46532 11.74201-31.51976 5.70402-53.66329l2.52899-.69001c6.26 22.95555 4.20001 41.767-6.12299 55.90832-17.71301 24.27259-53.009 26.07762-54.505 26.14263l-.00003.00003z"/><path class="st3" d="M317.586 147.48251c1.73999 4.53311 1.34299 9.28023-.672 12.87831-3.906-1.32502-7.37701-4.5871-9.11801-9.1202-1.73999-4.53312-1.34299-9.28023.672-12.87832 3.906 1.32703 7.37701 4.58712 9.118 9.12021zm-22.10999 62.6695c1.93201 3.18709 2.439 7.46017 1.007 11.60827-1.336 3.8761-4.094 6.73516-7.29002 8.17821 3.10501-1.62803 7.05399-2.03505 10.93-.69801 4.148 1.43002 7.2 4.46312 8.51998 7.94818-3.187 1.93105-7.45901 2.43906-11.608 1.00702-4.148-1.43002-7.2-4.46312-8.51999-7.94818.00101-.00101.003-.00101.003-.00101-1.913-3.18507-2.41501-7.4412-.99-11.5743 1.43-4.1481 4.46302-7.20017 7.948-8.52018h.00003zm7.56-11.56827c2.98001 2.23705 5.044 6.01314 5.263 10.39523.20499 4.09511-1.288 7.77619-3.715 10.30625 2.275-2.66806 5.788-4.51912 9.88001-4.7241 4.38199-.22001 8.345 1.45702 10.86899 4.1991-2.237 2.98008-6.013 5.04412-10.395 5.26313-4.38198.21899-8.345-1.45705-10.86898-4.19912l.00202-.00201c-2.96302-2.24104-5.016-6.00313-5.23499-10.37024-.219-4.38112 1.458-8.3442 4.20001-10.86827l-.00006.00003zm3.268-13.0423c3.60401.947 6.94102 3.66509 8.797 7.6392 1.736 3.71507 1.742 7.68719.449 10.94627 1.10001-3.3291 3.654-6.36914 7.36802-8.1042 3.97601-1.85705 8.27801-1.80105 11.64899-.214-.947 3.60409-3.66501 6.94118-7.63901 8.7972-3.97601 1.85704-8.27799 1.80104-11.64899.214 0 0 .001-.00299.00202-.004-3.591-.95602-6.91101-3.6651-8.76099-7.62618-1.85999-3.97309-1.80399-8.2762-.216-11.64829h-.00003zm-1.854-12.94133c3.70902-.36899 7.783 1.01703 10.908 4.09612 2.92098 2.87805 4.312 6.59915 4.23498 10.10425-.129-3.50309 1.206-7.2432 4.083-10.16324 3.08-3.12609 7.132-4.5721 10.845-4.25911.369 3.7091-1.01599 7.7822-4.096 10.90825-3.07999 3.12608-7.132 4.5721-10.845 4.2591v-.006c-3.699.355-7.755-1.02604-10.87-4.09511-3.12701-3.07807-4.573-7.13118-4.26-10.84426h.00002z"/><path class="st3" d="M301.828 160.28183c3.59601-.97801 7.84299-.285 11.435 2.23405 3.357 2.35505 5.344 5.79413 5.848 9.26522-.707-3.43407-.00901-7.34217 2.34399-10.69826 2.519-3.59207 6.276-5.68913 9.991-5.99513.978 3.59608.285 7.84318-2.23402 11.43527s-6.276 5.68913-9.991 5.99513v-.00299c-3.588.96103-7.81799.26903-11.398-2.24205-3.59201-2.52005-5.689-6.27815-5.995-9.99124h.00003z"/><circle class="st4" cx="300.79001" cy="228.23645" r="2.73102"/><circle class="st4" cx="288.22" cy="229.77647" r="2.73102"/><circle class="st4" cx="307.98999" cy="207.59595" r="2.73102"/><circle class="st4" cx="325.35999" cy="187.05545" r="2.73102"/><circle class="st4" cx="313.23999" cy="173.15512" r="2.73102"/><circle class="st4" cx="317.84" cy="158.89479" r="2.73103"/><path d="M272.247 147.97054h-31.32499c-9.751 0-17.655 7.90419-17.655 17.6554v27.59568c0 9.75224 7.90401 17.6554 17.655 17.6554h31.325c9.75.00001 17.655-7.90319 17.655-17.6554v-27.59567c0-9.75124-7.904-17.65541-17.655-17.65541z" style="fill:#8cd7ff"/><path class="st0" d="M261.753 171.9881v3.49408h-3.494v-3.49408h-2.692v3.49408h-3.495v-3.49408h-2.186v6.99016l1.748 2.21307v25.7496h10.485v-25.7496l1.747-2.21307v-6.99016h-2.113zm-4.36701-11.06926c1.729-.83801 2.185 2.69507 2.185 2.69507 3.64099-1.82105 2.691-4.77611 1.821-6.18914-1.165-1.89404-5.82499-2.62205-7.791 1.31104s3.35 11.72427 3.35 11.72427c.289-2.40506-1.823-8.4492.435-9.54123v-.00001zm22.336 17.58642v3.49508h-3.496v-3.49508h-2.69102v3.49508h-3.496v-3.49508h-2.186v6.99016l1.74798 2.21306v25.7496h10.486v-25.7496l1.747-2.21306v-6.99016h-2.11197zm-4.369-11.06927c1.72901-.83801 2.185 2.69508 2.185 2.69508 3.641-1.82106 2.69101-4.77612 1.82102-6.18914-1.16501-1.89405-5.82501-2.62206-7.79099 1.31103-1.966 3.9331 3.35001 11.72427 3.35001 11.72427.29-2.40405-1.82101-8.4482.435-9.54123l-.00003-.00001zm-31.567 11.06927v3.49508h-3.496v-3.49508h-2.691v3.49508H234.104v-3.49508h-2.187v6.99016l1.748 2.21306v25.7496h10.486v-25.7496l1.748-2.21306v-6.99016h-2.113zm-4.369-11.06927c1.729-.83801 2.185 2.69508 2.185 2.69508 3.641-1.82106 2.691-4.77612 1.821-6.18914-1.165-1.89405-5.825-2.62206-7.791 1.31103-1.966 3.9331 3.35 11.72427 3.35 11.72427.291-2.40405-1.821-8.4482.435-9.54123v-.00001z"/><path d="M285.55399 208.805c-2.33402-1.15403-4.926-1.86407-7.706-1.86407-2.979 0-5.741.81502-8.19601 2.13005-3.19101-3.43907-7.71302-5.62512-12.776-5.62512s-9.58301 2.18605-12.776 5.62512c-2.455-1.31503-5.217-2.13005-8.196-2.13005-2.78101 0-5.373.71001-7.706 1.86406 4.99 9.15222 14.546 23.94158 28.678 29.5937 14.13199-5.65215 23.68798-20.4415 28.678-29.5937z" style="fill:#6ec86e"/><path class="st4" d="m256.71799 91.6722.15799-.07802s-.05301.01401-.158.07802zm.15801-.07802.158.07802c-.106-.064-.158-.07802-.158-.07802zm33.533 14.96437c-.983-5.67914-8.301-6.66316-16.712-7.20917-8.41001-.54602-12.01502-5.35213-12.01502-5.35213h-9.612s-3.605 4.80611-12.015 5.35213c-8.41.54601-15.729 1.52904-16.712 7.20917-.98301 5.67914 6.22599 14.63635 6.22599 14.63635l6.335-5.13312s-7.755-7.42717-3.933-10.15825c3.775-2.69706 14.782-.829 19.68401-7.30317-.207 1.35304-.135 3.02308.704 5.08112 1.602 3.9331 1.02 8.88422 1.02 8.88422h6.992s-.58302-4.95211 1.01998-8.88422c.83899-2.05804.913-3.72909.70401-5.08112 4.90302 6.47416 15.91 4.60612 19.684 7.30317 3.82299 2.73108-3.93302 10.15825-3.93302 10.15825l6.33499 5.13312c.00201.001 7.211-8.9562 6.228-14.63635h.00006zm-29.965-32.22277h-1.82101v-1.96605c0-.96603-.78202-1.74804-1.74799-1.74804s-1.748.78201-1.748 1.74804v1.96605h-1.894c-.966 0-1.748.78202-1.748 1.74804s.782 1.74804 1.748 1.74804h1.894V82.856c0 .96602.782 1.74804 1.748 1.74804s1.74799-.78202 1.74799-1.74804v-5.02413h1.82101c.966 0 1.74799-.78201 1.74799-1.74804-.00101-.96602-.783-1.74804-1.74799-1.74804z"/><circle cx="256.87" cy="84.60303" r="3.49604"/><path class="st7" d="M231.827 154.9477c1.408.70303 3.052 1.31104 4.733 1.31104 5.791 0 8.629-3.27507 8.629-9.0662s-3.494-10.15825-9.284-10.15825c0 0-.653.011-1.699.171-.22501.036-.448.07-.668.12-5.567 1.06202-19.325 6.19114-22.10001 31.16676-3.879 34.91283 24.467 66.4116 45.439 73.40175v-3.4961c-.00101.00202-49.517-37.8639-25.05-83.44998v-.00001z"/><path class="st7" d="m235.904 140.52835 20.972 6.99217-20.972 6.99018v-13.98235z"/><path class="st4" d="m277.84698 154.51068-20.971-6.99017 20.971-6.99217v13.98234zm-62.936 14.36734c2.504-22.53854 14.317-27.17265 19.406-28.14567.111-.025.22501-.04203.41701-.07302.64-.098 1.081-.125 1.219-.131 3.832.026 6.359 2.91308 6.359 6.40816 0 3.8541-2.258 5.31514-4.51402 5.38814 0 0 1.821-3.7871-1.894-4.80612-2.50599-.68901-5.679 1.31103-5.388 4.95112.205 2.55907 2.634 5.02413 5.388 5.02413 5.791 0 10.48601-4.1851 10.48601-9.97624s-4.695-10.48624-10.48599-10.48624c0 0-.653.011-1.699.171-.22501.036-.448.07001-.668.12-5.567 1.06203-19.325 6.19115-22.1 31.16675-3.879 34.91283 24.46699 66.41159 45.43899 73.40175v-3.4961s-7.427-3.71408-12.505-7.32118c-15.689-11.14227-32.292-36.70389-29.46-62.19548z"/><path class="st7" d="M281.926 154.9477c-1.408.70303-3.052 1.31104-4.733 1.31104-5.791 0-8.629-3.27507-8.629-9.0662s3.49398-10.15825 9.284-10.15825c0 0 .653.011 1.699.171.225.036.448.07.668.12 5.56698 1.06202 19.325 6.19114 22.1 31.16676 3.879 34.91283-24.467 66.4116-45.439 73.40175v-3.4961c0 .00202 49.516-37.8639 25.05-83.44998v-.00001z"/><path class="st7" d="m277.84698 140.52835-20.971 6.99217 20.971 6.99018v-13.98235z"/><path class="st4" d="M298.84 168.87805c-2.504-22.53854-14.31699-27.17265-19.40601-28.14567-.111-.025-.225-.04203-.417-.07302-.64-.098-1.08099-.125-1.21899-.131-3.832.026-6.359 2.91308-6.359 6.40816 0 3.8541 2.258 5.31514 4.514 5.38814 0 0-1.82101-3.7871 1.89402-4.80612 2.506-.68901 5.67898 1.31103 5.388 4.95113-.205 2.55906-2.634 5.02412-5.388 5.02412-5.79099 0-10.486-4.1851-10.486-9.97624s4.69501-10.48624 10.486-10.48624c0 0 .65301.011 1.699.171.225.036.448.07001.668.12 5.56699 1.06203 19.32501 6.19115 22.1 31.16675 3.879 34.91283-24.467 66.41159-45.43899 73.40175v-3.4961s7.427-3.71408 12.505-7.32118c15.69-11.14227 32.293-36.70389 29.46-62.19548H298.84z"/><circle class="st4" cx="256.87" cy="147.52452" r="3.49604"/><path class="st7" d="M281.83401 119.44785c.92801-2.40306-.328-5.62513-.328-5.62513-3.22198-.109-5.461 2.23905-5.461 2.23905.27301-2.89407-.983-5.51614-.983-5.51614-4.151.491-5.51599 2.95007-5.51599 2.95007-.21799-4.53311-2.95001-6.39016-2.95001-6.39016-3.60501 1.09202-4.69602 5.02413-4.69602 5.02413-.54599-4.4781-5.02398-6.55315-5.02398-6.55315s-4.478 2.07605-5.024 6.55315c0 0-1.092-3.9331-4.696-5.02413 0 0-2.731 1.85705-2.95 6.39016 0 0-1.365-2.45706-5.516-2.95007 0 0-1.256 2.62206-.983 5.51614 0 0-2.239-2.34806-5.461-2.23905 0 0-1.256 3.22207-.32801 5.62513 0 0-3.659-1.14602-6.663.60002 0 0 5.506 2.13006 7.341 4.75112h48.56101c1.83402-2.62206 7.341-4.75112 7.341-4.75112-3.004-1.74604-6.664-.60002-6.664-.60002z"/><path class="st4" d="M281.156 124.79998c0 1.57204-3.674 6.43417-3.674 6.43417s-11.914 1.65803-20.606 1.65803c-8.748 0-20.68899-1.70402-20.68899-1.70402s-3.592-4.83513-3.592-6.39016c0-4.47011 10.871-8.09419 24.28002-8.09419 13.41.001 24.281 3.6261 24.281 8.09619l-.00002-.00002z"/><ellipse class="st7" cx="256.87" cy="130.04411" rx="20.97699" ry="6.99017"/><path class="st7" d="M262.009 91.26617c0-2.29406-1.711-5.20712-5.133-3.16807-3.423-2.03905-5.13299.87401-5.13299 3.16807 0 2.29407-2.622 2.62207-2.95 2.40307 0 0 2.185 2.84006 4.696.98302 0 0 1.347 1.96605 3.38599 1.96605 2.039 0 3.387-1.96605 3.387-1.96605 2.513 1.85704 4.696-.98302 4.696-.98302-.32699.219-2.949-.109-2.949-2.40307z"/><path class="st2" d="M249.884 260.68124c-.196 0-.396-.044-.584-.14004-.649-.32102-.911-1.10901-.587-1.75803l6.99-13.98132c.324-.64201 1.111-.91103 1.758-.58403.64899.32103.911 1.10904.587 1.75804l-6.99 13.98132c-.231.45902-.693.72403-1.174.72403v.00003z"/><path class="st2" d="M263.86899 260.68124c-.48099 0-.943-.26602-1.17401-.72403l-6.99-13.98132c-.32401-.649-.062-1.43704.58698-1.75804.646-.331 1.43302-.06201 1.758.58403l6.98999 13.98132c.324.64902.062 1.43705-.587 1.75803-.189.09604-.388.14004-.58402.14004l.00006-.00003z"/><path class="st0" d="M288.333 248.44891a144.18959 144.18959 0 0 1-62.915 0v-13.5333a144.18959 144.18959 0 0 0 62.915 0v13.5333z"/><path class="st0" d="M242.749 243.35281c-13.377 2.58106-27.086 3.28908-40.72701 2.01506.23 1.80205 11.017 7.15816 11.017 7.15816s-9.518 4.60013-9.306 6.26615c13.058 1.22003 26.183.63803 39.016-1.67704v-13.76233zm28.30499 0c13.37701 2.58106 27.086 3.28908 40.72699 2.01506-.23002 1.80205-11.017 7.15816-11.017 7.15816s9.518 4.60013 9.306 6.26615c-13.05802 1.22003-26.18302.63803-39.016-1.67704v-13.76233z"/></svg>