<?xml version="1.0" encoding="UTF-8" standalone="no"?>
<svg
   xmlns:dc="http://purl.org/dc/elements/1.1/"
   xmlns:cc="http://creativecommons.org/ns#"
   xmlns:rdf="http://www.w3.org/1999/02/22-rdf-syntax-ns#"
   xmlns:svg="http://www.w3.org/2000/svg"
   xmlns="http://www.w3.org/2000/svg"
   xmlns:sodipodi="http://sodipodi.sourceforge.net/DTD/sodipodi-0.dtd"
   xmlns:inkscape="http://www.inkscape.org/namespaces/inkscape"
   version="1.1"
   id="Layer_1"
   x="0px"
   y="0px"
   viewBox="0 0 512 335.45001"
   xml:space="preserve"
   sodipodi:docname="sn.svg"
   width="512"
   height="335.45001"
   inkscape:version="1.0.1 (c497b03c, 2020-09-10)"><metadata
   id="metadata212"><rdf:RDF><cc:Work
       rdf:about=""><dc:format>image/svg+xml</dc:format><dc:type
         rdf:resource="http://purl.org/dc/dcmitype/StillImage" /><dc:title></dc:title></cc:Work></rdf:RDF></metadata><defs
   id="defs210" /><sodipodi:namedview
   pagecolor="#ffffff"
   bordercolor="#666666"
   borderopacity="1"
   objecttolerance="10"
   gridtolerance="10"
   guidetolerance="10"
   inkscape:pageopacity="0"
   inkscape:pageshadow="2"
   inkscape:window-width="1199"
   inkscape:window-height="779"
   id="namedview208"
   showgrid="false"
   inkscape:zoom="1.3671875"
   inkscape:cx="256"
   inkscape:cy="256"
   inkscape:window-x="0"
   inkscape:window-y="23"
   inkscape:window-maximized="0"
   inkscape:current-layer="Layer_1" />
<path
   style="fill:#73af00"
   d="M 38.345,0 C 17.167,0 0,17.167 0,38.345 v 258.759 c 0,21.177 17.167,38.345 38.345,38.345 H 170.667 V 0 Z"
   id="path169" />
<rect
   x="170.67"
   y="0.0040004272"
   style="fill:#ffe15a"
   width="170.67"
   height="335.45001"
   id="rect171" />
<path
   style="fill:#ff4b55"
   d="M 473.655,0 H 341.333 v 335.448 h 132.322 c 21.177,0 38.345,-17.167 38.345,-38.345 V 38.345 C 512,17.167 494.833,0 473.655,0 Z"
   id="path173" />
<path
   style="fill:#73af00"
   d="m 258.04,117.504 11.693,35.062 36.959,0.287 c 2.067,0.017 2.924,2.654 1.261,3.881 l -29.732,21.955 11.148,35.239 c 0.623,1.971 -1.62,3.601 -3.302,2.399 L 256,194.833 225.931,216.325 c -1.682,1.202 -3.925,-0.428 -3.302,-2.399 l 11.148,-35.239 -29.732,-21.955 c -1.663,-1.228 -0.806,-3.865 1.261,-3.881 l 36.959,-0.287 11.693,-35.062 c 0.655,-1.959 3.429,-1.959 4.082,0.002 z"
   id="path175" />
<g
   id="g177"
   transform="translate(0,-88.273)">
</g>
<g
   id="g179"
   transform="translate(0,-88.273)">
</g>
<g
   id="g181"
   transform="translate(0,-88.273)">
</g>
<g
   id="g183"
   transform="translate(0,-88.273)">
</g>
<g
   id="g185"
   transform="translate(0,-88.273)">
</g>
<g
   id="g187"
   transform="translate(0,-88.273)">
</g>
<g
   id="g189"
   transform="translate(0,-88.273)">
</g>
<g
   id="g191"
   transform="translate(0,-88.273)">
</g>
<g
   id="g193"
   transform="translate(0,-88.273)">
</g>
<g
   id="g195"
   transform="translate(0,-88.273)">
</g>
<g
   id="g197"
   transform="translate(0,-88.273)">
</g>
<g
   id="g199"
   transform="translate(0,-88.273)">
</g>
<g
   id="g201"
   transform="translate(0,-88.273)">
</g>
<g
   id="g203"
   transform="translate(0,-88.273)">
</g>
<g
   id="g205"
   transform="translate(0,-88.273)">
</g>
</svg>
