<?xml version="1.0" encoding="UTF-8" standalone="no"?>
<svg
   xmlns:dc="http://purl.org/dc/elements/1.1/"
   xmlns:cc="http://creativecommons.org/ns#"
   xmlns:rdf="http://www.w3.org/1999/02/22-rdf-syntax-ns#"
   xmlns:svg="http://www.w3.org/2000/svg"
   xmlns="http://www.w3.org/2000/svg"
   xmlns:sodipodi="http://sodipodi.sourceforge.net/DTD/sodipodi-0.dtd"
   xmlns:inkscape="http://www.inkscape.org/namespaces/inkscape"
   version="1.1"
   id="Layer_1"
   x="0px"
   y="0px"
   viewBox="0 0 512 335.45001"
   xml:space="preserve"
   sodipodi:docname="so-so.svg"
   width="512"
   height="335.45001"
   inkscape:version="1.0.1 (c497b03c, 2020-09-10)"><metadata
   id="metadata413"><rdf:RDF><cc:Work
       rdf:about=""><dc:format>image/svg+xml</dc:format><dc:type
         rdf:resource="http://purl.org/dc/dcmitype/StillImage" /><dc:title></dc:title></cc:Work></rdf:RDF></metadata><defs
   id="defs411" /><sodipodi:namedview
   pagecolor="#ffffff"
   bordercolor="#666666"
   borderopacity="1"
   objecttolerance="10"
   gridtolerance="10"
   guidetolerance="10"
   inkscape:pageopacity="0"
   inkscape:pageshadow="2"
   inkscape:window-width="1059"
   inkscape:window-height="749"
   id="namedview409"
   showgrid="false"
   inkscape:zoom="1.1679688"
   inkscape:cx="256"
   inkscape:cy="256"
   inkscape:window-x="0"
   inkscape:window-y="23"
   inkscape:window-maximized="0"
   inkscape:current-layer="Layer_1" />
<path
   style="fill:#73af00"
   d="M 473.654,0 H 38.345 C 17.167,0 0,17.167 0,38.344 v 73.471 H 511.999 V 38.344 C 511.999,17.167 494.831,0 473.654,0 Z"
   id="path320" />
<path
   style="fill:#ff4b55"
   d="M 511.999,223.632 H 0 v 73.471 c 0,21.177 17.167,38.345 38.345,38.345 h 435.309 c 21.177,0 38.345,-17.167 38.345,-38.345 z"
   id="path322" />
<rect
   y="111.814"
   style="fill:#f5f5f5"
   width="512"
   height="111.81"
   id="rect324"
   x="0" />
<path
   style="fill:#464655"
   d="m 258.225,142.208 5.507,16.513 17.407,0.135 c 2.253,0.018 3.188,2.893 1.375,4.232 l -14.003,10.34 5.25,16.597 c 0.68,2.148 -1.767,3.926 -3.601,2.615 l -14.162,-10.121 -14.162,10.122 c -1.834,1.311 -4.28,-0.467 -3.601,-2.615 l 5.25,-16.597 -14.003,-10.34 c -1.813,-1.338 -0.878,-4.215 1.375,-4.232 l 17.407,-0.135 5.507,-16.513 c 0.717,-2.138 3.741,-2.138 4.454,-0.001 z"
   id="path326" />
<g
   id="g376"
   transform="translate(0,-88.276)">
	<path
   style="fill:#f5f5f5"
   d="m 136.486,133.86 c 0.693,4.441 3.378,5.835 5.713,5.654 2.752,-0.214 5.166,-2.731 5.166,-5.388 v -15.243 c 0,-0.764 0.621,-1.386 1.386,-1.386 0.765,0 1.386,0.622 1.386,1.386 v 15.308 c 0,1.841 0.909,3.556 2.434,4.587 0.931,0.63 2.015,0.956 3.107,0.956 0.695,0 1.394,-0.132 2.06,-0.398 l 1.385,-0.554 c 0.128,12.794 -0.651,24.04 -0.665,24.246 -0.108,1.526 1.041,2.852 2.567,2.961 0.067,0.006 0.134,0.008 0.201,0.008 1.441,0 2.658,-1.116 2.762,-2.574 0.064,-0.902 0.918,-13.216 0.662,-26.851 l 0.838,-0.334 c 0.735,-0.292 1.559,-0.257 2.265,0.095 3.053,1.521 6.725,0.928 9.139,-1.483 l 0.5,-0.498 c 2.24,-2.243 3.009,-5.502 2.007,-8.509 l -2.36,-7.08 c 1.276,0.384 2.678,-0.181 3.294,-1.41 0.685,-1.369 0.13,-3.034 -1.239,-3.719 l -5.543,-2.772 c -1.003,-0.503 -2.206,-0.349 -3.055,0.384 -0.847,0.736 -1.167,1.908 -0.813,2.972 l 4.459,13.378 c 0.334,1.002 0.077,2.09 -0.669,2.836 l -0.498,0.498 c -0.723,0.723 -1.823,0.898 -2.743,0.444 -1.796,-0.897 -3.841,-1.066 -5.76,-0.576 -0.39,-8.895 -1.347,-17.753 -3.389,-23.876 -0.483,-1.451 -2.05,-2.238 -3.507,-1.751 -1.452,0.482 -2.237,2.051 -1.752,3.505 1.996,5.988 2.867,15.115 3.176,24.19 l -3.317,1.327 v -15.308 c 0,-3.821 -3.108,-6.929 -6.929,-6.929 -3.82,0 -6.929,3.107 -6.929,6.929 v 13.416 l -2.827,-13.965 c -0.301,-1.502 -1.762,-2.482 -3.265,-2.168 -1.501,0.306 -2.471,1.768 -2.166,3.266 z"
   id="path328" />
	<path
   style="fill:#f5f5f5"
   d="m 141.821,110.569 c 1.53,0 2.772,-1.239 2.772,-2.772 v -2.771 c 0,-1.532 -1.241,-2.772 -2.772,-2.772 -1.53,0 -2.772,1.239 -2.772,2.772 v 2.772 c 0.002,1.531 1.242,2.771 2.772,2.771 z"
   id="path330" />
	<path
   style="fill:#f5f5f5"
   d="m 169.536,107.797 h 2.772 c 1.53,0 2.772,-1.239 2.772,-2.772 0,-1.533 -1.241,-2.772 -2.772,-2.772 h -2.772 c -1.53,0 -2.772,1.239 -2.772,2.772 0,1.533 1.241,2.772 2.772,2.772 z"
   id="path332" />
	<path
   style="fill:#f5f5f5"
   d="m 151.481,144.22 -13.857,8.314 c -1.313,0.788 -1.738,2.49 -0.95,3.802 0.52,0.866 1.437,1.345 2.379,1.345 0.486,0 0.977,-0.127 1.423,-0.395 l 13.857,-8.314 c 1.313,-0.788 1.738,-2.49 0.95,-3.802 -0.787,-1.312 -2.488,-1.736 -3.802,-0.95 z"
   id="path334" />
	<path
   style="fill:#f5f5f5"
   d="m 188.845,149.123 0.065,-0.044 c 0.233,0.937 0.632,1.843 1.279,2.604 1.126,1.326 2.815,1.992 4.723,1.835 2.707,-0.198 4.547,-1.434 5.764,-3.031 0.185,0.127 0.381,0.244 0.585,0.346 1.498,0.755 3.23,0.698 4.879,-0.157 4.189,-2.157 5.091,-7.148 4.963,-9.757 -0.074,-1.521 -1.368,-2.595 -2.886,-2.625 -1.523,0.065 -2.707,1.356 -2.653,2.877 0.001,0.035 0.064,3.324 -1.948,4.544 -0.328,-0.458 -0.717,-1.486 -0.863,-2.336 -0.234,-1.427 -1.544,-2.42 -2.954,-2.306 -1.437,0.114 -2.547,1.321 -2.552,2.763 -0.001,0.403 -0.09,3.959 -2.836,4.257 -0.319,-0.436 -0.324,-2.271 -0.011,-3.627 0.265,-1.112 -0.181,-2.273 -1.122,-2.923 -0.943,-0.652 -2.187,-0.652 -3.133,-0.011 l -1.547,1.053 c -0.735,-16.072 -2.426,-34.8 -2.447,-35.04 -0.138,-1.521 -1.478,-2.655 -3.011,-2.509 -1.525,0.138 -2.648,1.486 -2.51,3.012 0.024,0.256 1.982,21.924 2.585,38.473 -0.141,0.135 -0.288,0.282 -0.427,0.412 -1.096,-2.763 -3.268,-4.503 -6.067,-4.769 -3.949,-0.349 -8.227,2.338 -9.761,6.176 -1.322,3.302 -0.49,6.547 2.119,8.266 1.876,1.237 4.706,1.626 8.266,0.378 -0.868,3.053 -2.451,6.15 -4.508,8.544 -1.842,2.146 -4.918,4.622 -8.854,4.512 -2.291,-0.089 -4.052,-0.839 -5.382,-2.295 -3.209,-3.505 -2.933,-9.849 -2.93,-9.917 0.079,-1.526 -1.089,-2.828 -2.614,-2.912 -1.536,-0.162 -2.836,1.086 -2.921,2.614 -0.019,0.352 -0.42,8.687 4.352,13.93 2.349,2.584 5.471,3.968 9.278,4.117 0.185,0.008 0.371,0.011 0.557,0.011 4.637,0 9.134,-2.273 12.717,-6.45 3.371,-3.925 5.66,-9.256 6.346,-14.205 -0.009,9.481 -5.721,20.174 -13.298,24.885 -3.217,1.997 -8.232,3.8 -13.881,1.015 -6.964,-3.437 -6.134,-11.396 -6.098,-11.722 0.191,-1.518 -0.887,-2.904 -2.406,-3.093 -1.512,-0.184 -2.905,0.885 -3.093,2.406 -0.062,0.495 -1.394,12.179 9.145,17.378 2.707,1.337 5.537,2.001 8.391,2.001 3.665,0 7.363,-1.096 10.869,-3.277 9.223,-5.732 15.917,-18.187 15.917,-29.614 0.004,-1.785 -0.03,-3.737 -0.087,-5.789 z m -16.711,2.857 c -0.495,-0.328 -0.108,-1.375 -0.024,-1.583 0.584,-1.461 2.409,-2.726 3.868,-2.726 0.074,0 0.15,0.002 0.223,0.011 0.354,0.032 1.295,0.121 1.699,2.214 0.043,0.222 0.079,0.449 0.108,0.682 -3.089,1.813 -5.159,1.871 -5.874,1.402 z"
   id="path336" />
	<path
   style="fill:#f5f5f5"
   d="m 143.221,177.469 c -1.313,-0.771 -3.009,-0.33 -3.789,0.982 -0.127,0.214 -0.297,0.447 -0.468,0.658 -0.03,-0.071 -0.06,-0.146 -0.089,-0.227 -1.155,-3.083 -0.333,-7.832 0.083,-9.402 0.391,-1.478 -0.489,-2.994 -1.966,-3.389 -1.475,-0.378 -2.993,0.482 -3.389,1.96 -0.202,0.749 -1.906,7.478 0.082,12.777 1.272,3.389 3.224,4.244 4.64,4.36 0.126,0.011 0.25,0.017 0.373,0.017 2.984,0 4.969,-3.007 5.522,-3.959 0.764,-1.321 0.316,-3.002 -0.999,-3.777 z"
   id="path338" />
	<path
   style="fill:#f5f5f5"
   d="m 194.365,127.198 c 0.599,0 1.203,-0.192 1.71,-0.593 l 13.972,-10.969 c 0.193,-0.151 0.316,-0.35 0.457,-0.536 2.012,-1.214 3.374,-3.399 3.374,-5.916 0,-3.821 -3.108,-6.929 -6.929,-6.929 -3.82,0 -6.929,3.107 -6.929,6.929 0,2.138 0.993,4.029 2.519,5.3 l -9.889,7.764 c -1.203,0.945 -1.412,2.688 -0.468,3.89 0.548,0.696 1.361,1.06 2.183,1.06 z m 12.585,-19.401 c 0.765,0 1.386,0.622 1.386,1.386 0,0.764 -0.621,1.386 -1.386,1.386 -0.765,0 -1.386,-0.622 -1.386,-1.386 0,-0.764 0.621,-1.386 1.386,-1.386 z"
   id="path340" />
	<path
   style="fill:#f5f5f5"
   d="m 203.67,124.569 c -1.46,-0.487 -3.023,0.3 -3.507,1.751 -0.297,0.887 -1.636,5.459 1.08,8.173 1.054,1.056 2.44,1.583 4.141,1.58 1.137,0 2.414,-0.233 3.828,-0.706 1.452,-0.482 2.237,-2.051 1.752,-3.505 -0.484,-1.451 -2.051,-2.241 -3.507,-1.751 -1.548,0.514 -2.204,0.43 -2.262,0.484 -0.163,-0.412 -0.055,-1.649 0.228,-2.534 0.48,-1.446 -0.305,-3.01 -1.753,-3.492 z"
   id="path342" />
	<path
   style="fill:#f5f5f5"
   d="m 235.388,113.113 c 0.259,0.076 0.521,0.111 0.778,0.111 1.201,0 2.306,-0.785 2.659,-1.995 l 1.618,-5.543 c 0.429,-1.47 -0.415,-3.009 -1.884,-3.437 -1.474,-0.425 -3.008,0.414 -3.437,1.884 l -1.617,5.543 c -0.43,1.469 0.416,3.009 1.883,3.437 z"
   id="path344" />
	<path
   style="fill:#f5f5f5"
   d="m 219.235,112.788 c 0.44,0.257 0.921,0.378 1.397,0.378 0.952,0 1.879,-0.49 2.396,-1.373 0.772,-1.321 0.328,-3.02 -0.993,-3.791 -0.557,-0.324 -0.482,-1.242 -0.461,-1.423 0.083,-0.728 0.516,-1.615 1.272,-1.852 1.461,-0.455 2.278,-2.008 1.823,-3.469 -0.458,-1.464 -2.008,-2.273 -3.471,-1.824 -2.763,0.861 -4.777,3.418 -5.131,6.515 -0.331,2.882 0.884,5.502 3.168,6.839 z"
   id="path346" />
	<path
   style="fill:#f5f5f5"
   d="m 197.25,157.682 c -1.53,0 -2.772,1.239 -2.772,2.772 0,1.353 0.969,2.479 2.252,2.722 0.146,0.214 0.52,0.947 0.52,2.82 0,1.532 1.241,2.772 2.772,2.772 1.531,0 2.772,-1.239 2.772,-2.772 -0.001,-8.219 -5.318,-8.314 -5.544,-8.314 z"
   id="path348" />
	<path
   style="fill:#f5f5f5"
   d="m 244.269,146.208 c 0.348,0.057 0.694,0.084 1.042,0.084 2.177,0 4.377,-1.099 6.557,-3.277 1.082,-1.082 1.082,-2.836 0,-3.919 -1.082,-1.082 -2.836,-1.082 -3.919,0 -1.657,1.66 -2.549,1.694 -2.778,1.643 -0.53,-0.076 -1.009,-0.766 -1.116,-0.956 -0.695,-1.347 -2.344,-1.887 -3.701,-1.207 -1.369,0.685 -1.924,2.349 -1.239,3.719 0.171,0.343 1.772,3.363 5.154,3.913 z"
   id="path350" />
	<path
   style="fill:#f5f5f5"
   d="m 291.377,126.732 c -0.018,-0.043 -0.034,-0.084 -0.047,-0.121 -0.491,-1.44 -2.061,-2.222 -3.498,-1.732 -1.453,0.482 -2.238,2.051 -1.753,3.505 0.216,0.65 1.451,3.908 4.509,4.32 0.204,0.028 0.407,0.041 0.609,0.041 1.92,0 3.721,-1.242 5.361,-3.7 0.849,-1.272 0.504,-2.994 -0.769,-3.843 -1.274,-0.847 -2.996,-0.506 -3.843,0.769 -0.221,0.325 -0.41,0.574 -0.569,0.761 z"
   id="path352" />
	<path
   style="fill:#f5f5f5"
   d="m 285.936,177.083 c 0,-11.819 -0.52,-22.906 -1.24,-32.62 3.936,6.825 7.476,13.721 9.731,19.737 0.418,1.112 1.474,1.798 2.595,1.798 0.323,0 0.652,-0.057 0.973,-0.175 1.433,-0.538 2.159,-2.135 1.622,-3.57 -3.508,-9.352 -9.813,-20.489 -16.028,-30.376 -1.515,-14.93 -3.211,-24.405 -3.242,-24.574 -0.274,-1.507 -1.714,-2.525 -3.222,-2.23 -1.506,0.274 -2.505,1.716 -2.231,3.221 0.022,0.12 0.896,5.002 1.939,13.217 -2.129,-3.159 -4.107,-6.01 -5.768,-8.356 l 0.136,0.043 c 1.46,0.487 3.021,-0.3 3.507,-1.751 0.484,-1.453 -0.3,-3.023 -1.752,-3.505 l -8.314,-2.772 c -1.153,-0.39 -2.419,0.022 -3.125,1.006 -0.189,0.263 -0.319,0.551 -0.405,0.85 -1.66,-1.227 -3.787,-2.223 -5.784,-1.388 -1.208,0.501 -2.648,1.762 -2.648,4.931 0,2.433 0.928,5.064 1.912,7.851 1.632,4.622 2.654,8.022 0.926,9.643 -0.956,0.896 -1.909,1.234 -2.84,0.999 -1.709,-0.433 -3.401,-2.709 -4.527,-6.09 -0.049,-0.147 -0.151,-0.253 -0.221,-0.385 0.583,-4.294 0.329,-9.465 -0.845,-15.333 -0.299,-1.502 -1.756,-2.479 -3.262,-2.174 -1.501,0.3 -2.474,1.759 -2.174,3.262 1.81,9.05 1.267,16.434 -1.452,19.749 -1.052,1.283 -2.368,1.878 -4.145,1.878 -0.562,0 -0.945,-0.179 -1.326,-0.617 -2.187,-2.52 -2.177,-10.65 -1.472,-15.621 0.113,-0.793 -0.126,-1.6 -0.652,-2.206 -0.526,-0.606 -1.29,-0.956 -2.092,-0.956 -4.769,0 -6.577,5.423 -8.172,10.209 -0.7,2.103 -2.004,6.014 -2.913,6.42 -1.678,0 -2.762,-4.926 -2.772,-8.317 -0.004,-1.529 -1.244,-2.766 -2.772,-2.766 h -0.004 c -1.529,0 -2.767,1.239 -2.767,2.769 0,6.392 2.177,13.857 8.314,13.857 4.569,0 6.421,-4.98 7.97,-9.608 0.269,3.681 1.1,7.495 3.144,9.849 1.436,1.656 3.342,2.53 5.514,2.53 3.421,0 6.336,-1.351 8.43,-3.905 0.38,-0.462 0.706,-0.993 1.03,-1.529 1.61,2.287 3.583,3.796 5.807,4.357 0.652,0.166 1.309,0.249 1.959,0.249 2.14,0 4.231,-0.883 6.036,-2.579 0.375,-0.353 0.64,-0.738 0.926,-1.118 0.678,0.194 1.365,0.309 2.047,0.309 2.246,0 4.406,-0.904 5.747,-1.764 1.283,-0.823 1.654,-2.522 0.839,-3.81 -0.817,-1.286 -2.524,-1.67 -3.816,-0.863 -0.023,0.011 -1.875,1.075 -3.137,0.825 0.003,-3.038 -1.096,-6.265 -2.1,-9.108 -0.572,-1.619 -1.158,-3.277 -1.433,-4.633 0.228,0.192 0.452,0.393 0.651,0.587 1.08,1.082 2.835,1.082 3.917,0 0.179,-0.179 0.282,-0.396 0.403,-0.606 2.873,3.958 8.781,12.274 14.859,21.86 1.16,11.783 2.179,26.815 2.179,43.3 0,1.532 1.241,2.772 2.772,2.772 1.527,-0.002 2.768,-1.241 2.768,-2.773 z"
   id="path354" />
	<path
   style="fill:#f5f5f5"
   d="m 288.707,116.111 c 0,1.532 1.241,2.772 2.772,2.772 1.53,0 2.772,-1.239 2.772,-2.772 0,-3.262 -2.552,-8.531 -3.064,-9.554 -0.685,-1.367 -2.348,-1.919 -3.719,-1.239 -1.369,0.685 -1.924,2.349 -1.239,3.719 0.999,1.999 2.478,5.629 2.478,7.074 z"
   id="path356" />
	<path
   style="fill:#f5f5f5"
   d="m 276.096,177.386 c -1.358,-0.693 -3.029,-0.143 -3.72,1.22 -0.298,0.582 -0.759,1.229 -1.149,1.645 -0.124,-1.101 0.171,-3.302 0.729,-5.126 0.372,-1.218 -0.132,-2.534 -1.224,-3.188 -1.087,-0.658 -2.487,-0.487 -3.385,0.414 l -5.543,5.543 c -1.082,1.082 -1.082,2.836 0,3.919 1.082,1.084 2.836,1.082 3.919,0 l 0.141,-0.141 c 0.239,1.112 0.698,2.127 1.483,2.912 1.039,1.039 2.295,1.589 3.601,1.589 0.253,0 0.508,-0.022 0.761,-0.062 3.139,-0.509 5.094,-3.97 5.619,-5.017 0.683,-1.367 0.131,-3.021 -1.232,-3.708 z"
   id="path358" />
	<path
   style="fill:#f5f5f5"
   d="m 275.023,155.085 h -19.532 c 0.173,-0.69 0.352,-1.347 0.533,-1.973 7.789,-1.619 12.418,-4.132 13.78,-7.489 0.471,-1.164 0.962,-3.516 -1.042,-6.219 -1.806,-2.435 -4.358,-3.529 -7.006,-2.988 -3.938,0.799 -7.447,5.042 -9.965,11.836 -7.823,1.34 -12.832,4.148 -16.002,6.92 -1.124,-11.357 -5.534,-18.103 -5.747,-18.424 -0.85,-1.274 -2.571,-1.619 -3.843,-0.769 -1.273,0.85 -1.617,2.569 -0.769,3.843 0.05,0.076 5.077,7.765 5.077,20.634 0,12.65 -10.087,22.172 -16.629,22.172 -3.112,0 -4.473,-3.699 -5.073,-6.826 6.404,-4.489 12.056,-9.683 13.304,-14.674 1.689,-6.753 -0.437,-11.73 -1.843,-15.023 -0.066,-0.151 -0.136,-0.314 -0.205,-0.482 0.06,0.054 0.116,0.111 0.173,0.166 1.08,1.082 2.835,1.082 3.917,0 1.082,-1.082 1.082,-2.836 0,-3.919 -1.62,-1.621 -4.766,-4.168 -7.626,-2.972 -1.208,0.501 -2.648,1.762 -2.648,4.931 0,1.432 0.598,2.831 1.291,4.455 1.248,2.921 2.799,6.556 1.562,11.502 -0.732,2.927 -4.328,6.479 -9.071,10.005 -0.509,-0.608 -1.244,-1.017 -2.097,-1.017 h -0.004 c -1.529,0.002 -2.767,1.239 -2.767,2.769 0,0.499 0.022,1.032 0.054,1.579 -5.931,3.841 -12.642,7.396 -17.831,9.757 -1.393,0.633 -2.008,2.276 -1.375,3.67 0.465,1.021 1.471,1.624 2.524,1.624 0.384,0 0.774,-0.078 1.145,-0.249 1.558,-0.708 8.954,-4.154 16.553,-8.863 1.399,4.751 4.364,9.112 10.016,9.112 6.648,0 14.191,-5.437 18.543,-13.554 0.525,0.928 1.13,1.816 1.849,2.646 6.976,8.044 20.601,8.136 21.178,8.136 1.493,0 2.716,-1.18 2.77,-2.671 0.053,-1.491 -1.084,-2.758 -2.571,-2.863 -0.022,-0.002 -2.23,-0.246 -3.459,-1.681 -0.742,-0.866 -1.038,-2.057 -0.907,-3.64 0.285,-3.415 11.3,-5.967 21.011,-6.12 1.158,-0.019 2.182,-0.753 2.57,-1.843 l 2.772,-7.795 c 0.301,-0.847 0.172,-1.792 -0.348,-2.525 -0.516,-0.74 -1.362,-1.178 -2.262,-1.178 z M 262.857,141.85 c 0.053,-0.011 0.124,-0.028 0.211,-0.028 0.265,0 0.683,0.13 1.241,0.883 0.106,0.141 0.443,0.622 0.358,0.833 -0.318,0.785 -2.231,2.081 -6.218,3.256 1.753,-3.42 3.468,-4.754 4.408,-4.944 z m -16.736,36.432 c -2.816,-0.915 -5.685,-2.366 -7.671,-4.663 -2.183,-2.525 -2.989,-5.719 -2.461,-9.76 0.079,-0.212 0.26,-0.631 0.578,-1.175 3.903,-0.358 14.328,1.181 15.051,4.167 -3.215,1.642 -5.585,3.949 -5.858,7.231 -0.137,1.645 0.03,3.039 0.361,4.2 z"
   id="path360" />
	<path
   style="fill:#f5f5f5"
   d="m 305.193,115.235 -2.772,-8.314 c -0.447,-1.337 -1.834,-2.135 -3.209,-1.833 -1.382,0.295 -2.319,1.58 -2.178,2.985 1.912,19.124 5.529,56.419 5.529,60.695 0,3.84 -6.831,11.402 -17.868,16.921 -1.369,0.685 -1.924,2.349 -1.239,3.719 0.486,0.972 1.464,1.532 2.482,1.532 0.415,0 0.839,-0.095 1.237,-0.292 10.081,-5.042 20.931,-14.038 20.931,-21.879 0,-4.095 -2.833,-33.558 -4.455,-50.107 1.317,-0.561 2.002,-2.048 1.542,-3.427 z"
   id="path362" />
	<path
   style="fill:#f5f5f5"
   d="m 328.319,140.242 c 0.533,0.533 1.242,0.812 1.961,0.812 0.468,0 0.94,-0.119 1.369,-0.363 1.084,-0.617 1.622,-1.884 1.315,-3.093 -0.497,-1.949 -0.662,-4.384 -0.399,-5.38 1.388,0.043 2.677,-0.945 2.881,-2.377 0.216,-1.516 -0.836,-2.921 -2.35,-3.137 -1.833,-0.249 -3.442,0.289 -4.566,1.54 -0.728,0.812 -1.161,1.854 -1.397,2.975 l -3.21,-3.21 c -1.082,-1.082 -2.836,-1.082 -3.919,0 -1.082,1.082 -1.082,2.836 0,3.919 z"
   id="path364" />
	<path
   style="fill:#f5f5f5"
   d="m 334.554,143.132 -10.393,7.448 c -1.244,0.89 -1.53,2.623 -0.639,3.868 0.542,0.755 1.393,1.155 2.255,1.155 0.559,0 1.123,-0.168 1.612,-0.52 l 10.393,-7.448 c 1.244,-0.89 1.53,-2.623 0.639,-3.868 -0.893,-1.243 -2.628,-1.533 -3.867,-0.635 z"
   id="path366" />
	<path
   style="fill:#f5f5f5"
   d="m 333.633,153.556 c -0.872,1.123 -0.747,2.703 0.243,3.676 0.119,0.201 0.659,1.261 0.562,3.989 -0.054,1.532 1.142,2.815 2.671,2.869 0.034,0.002 0.067,0.002 0.1,0.002 1.486,0 2.714,-1.177 2.769,-2.671 0.202,-5.656 -1.65,-7.724 -2.455,-8.35 -1.206,-0.944 -2.95,-0.723 -3.89,0.485 z"
   id="path368" />
	<path
   style="fill:#f5f5f5"
   d="m 357.82,173.965 c 1.53,0 2.772,-1.239 2.772,-2.772 0,-4.089 -0.21,-8.654 -0.554,-13.404 2.748,4.503 5.031,8.654 6.495,12.07 0.449,1.053 1.472,1.681 2.548,1.681 0.364,0 0.735,-0.071 1.09,-0.225 1.406,-0.604 2.058,-2.233 1.454,-3.637 -2.537,-5.921 -7.279,-13.764 -12.68,-21.863 -1.087,-10.173 -2.507,-20.139 -3.61,-27.289 0.587,0.06 1.196,-0.084 1.731,-0.43 0.875,-0.561 1.286,-1.535 1.227,-2.504 0.071,0.273 0.148,0.546 0.307,0.797 0.019,0.028 1.8,2.969 1.01,6.785 -0.31,1.496 0.653,2.964 2.153,3.275 0.19,0.038 0.378,0.057 0.564,0.057 1.287,0 2.44,-0.902 2.712,-2.211 1.251,-6.055 -1.639,-10.688 -1.762,-10.882 -0.823,-1.289 -2.536,-1.667 -3.827,-0.85 -0.879,0.561 -1.294,1.535 -1.237,2.506 -0.072,-0.274 -0.151,-0.55 -0.312,-0.801 l -4.676,-7.275 c -0.715,-1.11 -2.112,-1.559 -3.34,-1.082 -1.23,0.482 -1.95,1.762 -1.721,3.061 0.039,0.217 2.156,12.38 4.034,27.038 -2.125,-3 -4.249,-5.934 -6.31,-8.734 -0.335,-4.193 -0.671,-8.07 -0.961,-11.275 0.153,-0.046 0.303,-0.106 0.45,-0.179 1.369,-0.685 1.924,-2.349 1.239,-3.719 l -2.772,-5.543 c -0.598,-1.196 -1.963,-1.792 -3.249,-1.423 -1.284,0.373 -2.121,1.608 -1.988,2.94 0.331,3.307 0.674,6.969 1.013,10.815 -1.753,-2.311 -3.375,-4.426 -4.762,-6.217 0.27,-0.233 0.502,-0.522 0.672,-0.863 0.685,-1.369 0.13,-3.034 -1.239,-3.719 l -5.543,-2.772 c -1.162,-0.579 -2.574,-0.276 -3.395,0.736 -0.818,1.012 -0.821,2.457 -0.008,3.475 0.15,0.186 6.973,8.74 15.136,19.781 1.416,18.312 2.358,37.359 1.027,41.353 -0.244,0.73 -0.669,1.591 -1.068,1.621 -1.675,0.233 -5.673,-3.513 -7.681,-7.527 -1.158,-2.312 -2.822,-2.552 -3.712,-2.511 -2.978,0.184 -4.141,3.462 -6.253,9.41 -1.514,4.263 -3.395,9.562 -5.507,11.73 -1.144,-1.398 -2.624,-6.09 -3.446,-10.912 0.386,1.066 1.384,1.837 2.583,1.837 1.53,0 2.772,-1.239 2.772,-2.772 0,-4.132 -2.891,-35.609 -4.505,-52.859 1.347,-0.542 2.057,-2.049 1.591,-3.445 l -2.772,-8.314 c -0.446,-1.337 -1.813,-2.124 -3.203,-1.835 -1.379,0.292 -2.319,1.572 -2.186,2.975 1.884,19.77 5.416,57.959 5.525,63.23 -0.007,-0.047 -0.017,-0.095 -0.023,-0.141 -0.215,-1.516 -1.63,-2.554 -3.135,-2.351 -1.516,0.22 -2.567,1.621 -2.35,3.137 0.809,5.665 2.877,15.405 7.64,16.991 0.376,0.127 0.883,0.241 1.476,0.241 1.092,0 2.481,-0.387 3.9,-1.807 3.019,-3.018 5.061,-8.771 6.863,-13.846 0.407,-1.148 0.889,-2.506 1.344,-3.67 2.542,3.713 6.978,8.335 11.473,7.973 1.58,-0.114 4.455,-0.963 5.932,-5.397 1.474,-4.422 0.892,-19.84 -0.102,-34.601 2.335,3.273 4.672,6.623 6.902,9.933 0.864,8.299 1.483,16.615 1.483,23.444 -10e-4,1.526 1.24,2.765 2.771,2.765 z"
   id="path370" />
	<path
   style="fill:#f5f5f5"
   d="m 378.852,159.388 c -1.963,-14.626 -4.698,-31.568 -6.431,-41.966 0.782,0.192 1.634,0.035 2.322,-0.492 1.218,-0.928 1.451,-2.668 0.522,-3.884 l -5.023,-6.582 c -0.776,-1.012 -2.142,-1.369 -3.313,-0.858 -1.171,0.512 -1.839,1.757 -1.621,3.015 0.05,0.285 4.992,28.735 8.049,51.504 1.167,8.702 -0.537,16.477 -4.563,20.797 -2.588,2.774 -6.016,4.03 -10.165,3.789 -1.524,-0.082 -2.845,1.066 -2.941,2.593 -0.096,1.527 1.064,2.841 2.592,2.94 0.468,0.03 0.929,0.043 1.387,0.043 5.226,0 9.762,-1.917 13.182,-5.586 5.221,-5.605 7.409,-14.831 6.003,-25.313 z"
   id="path372" />
	<path
   style="fill:#f5f5f5"
   d="m 348.363,177.657 c -1.018,1.107 -0.94,2.85 0.137,3.894 0.15,0.146 0.33,0.433 0.331,0.574 10e-4,0.078 -0.111,0.311 -0.419,0.62 -1.082,1.082 -1.082,2.836 0,3.919 0.542,0.542 1.25,0.812 1.96,0.812 0.71,0 1.418,-0.27 1.96,-0.812 1.758,-1.757 2.08,-3.54 2.04,-4.728 -0.085,-2.558 -1.827,-4.209 -2.175,-4.514 -1.131,-0.987 -2.816,-0.867 -3.834,0.235 z"
   id="path374" />
</g>
<g
   id="g378"
   transform="translate(0,-88.276)">
</g>
<g
   id="g380"
   transform="translate(0,-88.276)">
</g>
<g
   id="g382"
   transform="translate(0,-88.276)">
</g>
<g
   id="g384"
   transform="translate(0,-88.276)">
</g>
<g
   id="g386"
   transform="translate(0,-88.276)">
</g>
<g
   id="g388"
   transform="translate(0,-88.276)">
</g>
<g
   id="g390"
   transform="translate(0,-88.276)">
</g>
<g
   id="g392"
   transform="translate(0,-88.276)">
</g>
<g
   id="g394"
   transform="translate(0,-88.276)">
</g>
<g
   id="g396"
   transform="translate(0,-88.276)">
</g>
<g
   id="g398"
   transform="translate(0,-88.276)">
</g>
<g
   id="g400"
   transform="translate(0,-88.276)">
</g>
<g
   id="g402"
   transform="translate(0,-88.276)">
</g>
<g
   id="g404"
   transform="translate(0,-88.276)">
</g>
<g
   id="g406"
   transform="translate(0,-88.276)">
</g>
</svg>
