<svg xmlns="http://www.w3.org/2000/svg" xml:space="preserve" width="512" height="335.45001"><path style="fill:#73af00" d="M473.885 0H38.115C17.045.124 0 17.238 0 38.338v258.759c0 21.177 17.167 38.345 38.345 38.345h435.31c21.177 0 38.345-17.167 38.345-38.345V38.338C512 17.238 494.955.124 473.885 0z"/><path style="fill:#f5f5f5" d="M0 150.07001h512v35.31H0zM0 326.62h512v35.31H0z" transform="translate(0 -88.279)"/><path style="fill:#c8414b" d="M0 97.10101h512v141.24001H0z"/><path style="fill:#ffe15a" d="m253.801 113.338-12.854 38.541-40.627.314c-2.228.018-3.15 2.86-1.359 4.183l32.683 24.135-12.255 38.737c-.672 2.124 1.746 3.881 3.559 2.585L256 198.208l33.053 23.625c1.812 1.295 4.23-.461 3.559-2.585l-12.255-38.737 32.683-24.135c1.792-1.323.868-4.166-1.359-4.183l-40.627-.314-12.854-38.541c-.706-2.112-3.694-2.112-4.399 0z"/></svg>