<?xml version="1.0" encoding="UTF-8" standalone="no"?>
<svg
   xmlns:dc="http://purl.org/dc/elements/1.1/"
   xmlns:cc="http://creativecommons.org/ns#"
   xmlns:rdf="http://www.w3.org/1999/02/22-rdf-syntax-ns#"
   xmlns:svg="http://www.w3.org/2000/svg"
   xmlns="http://www.w3.org/2000/svg"
   xmlns:sodipodi="http://sodipodi.sourceforge.net/DTD/sodipodi-0.dtd"
   xmlns:inkscape="http://www.inkscape.org/namespaces/inkscape"
   version="1.1"
   id="Layer_1"
   x="0px"
   y="0px"
   viewBox="0 0 512 335.45001"
   xml:space="preserve"
   sodipodi:docname="sr.svg"
   width="512"
   height="335.45001"
   inkscape:version="1.0.1 (c497b03c, 2020-09-10)"><metadata
   id="metadata809"><rdf:RDF><cc:Work
       rdf:about=""><dc:format>image/svg+xml</dc:format><dc:type
         rdf:resource="http://purl.org/dc/dcmitype/StillImage" /><dc:title></dc:title></cc:Work></rdf:RDF></metadata><defs
   id="defs807" /><sodipodi:namedview
   pagecolor="#ffffff"
   bordercolor="#666666"
   borderopacity="1"
   objecttolerance="10"
   gridtolerance="10"
   guidetolerance="10"
   inkscape:pageopacity="0"
   inkscape:pageshadow="2"
   inkscape:window-width="976"
   inkscape:window-height="781"
   id="namedview805"
   showgrid="false"
   inkscape:zoom="1.0976562"
   inkscape:cx="256"
   inkscape:cy="256"
   inkscape:window-x="0"
   inkscape:window-y="23"
   inkscape:window-maximized="0"
   inkscape:current-layer="Layer_1" />
<path
   style="fill:#73af00"
   d="M 473.885,0 H 38.115 C 17.045,0.124 0,17.238 0,38.338 v 258.759 c 0,21.177 17.167,38.345 38.345,38.345 h 435.31 c 21.177,0 38.345,-17.167 38.345,-38.345 V 38.338 C 512,17.238 494.955,0.124 473.885,0 Z"
   id="path762" />
<g
   id="g768"
   transform="translate(0,-88.279)">
	<rect
   y="150.07001"
   style="fill:#f5f5f5"
   width="512"
   height="35.310001"
   id="rect764"
   x="0" />
	<rect
   y="326.62"
   style="fill:#f5f5f5"
   width="512"
   height="35.310001"
   id="rect766"
   x="0" />
</g>
<rect
   y="97.101006"
   style="fill:#c8414b"
   width="512"
   height="141.24001"
   id="rect770"
   x="0" />
<path
   style="fill:#ffe15a"
   d="m 253.801,113.338 -12.854,38.541 -40.627,0.314 c -2.228,0.018 -3.15,2.86 -1.359,4.183 l 32.683,24.135 -12.255,38.737 c -0.672,2.124 1.746,3.881 3.559,2.585 L 256,198.208 l 33.053,23.625 c 1.812,1.295 4.23,-0.461 3.559,-2.585 l -12.255,-38.737 32.683,-24.135 c 1.792,-1.323 0.868,-4.166 -1.359,-4.183 L 271.054,151.879 258.2,113.338 c -0.706,-2.112 -3.694,-2.112 -4.399,0 z"
   id="path772" />
<g
   id="g774"
   transform="translate(0,-88.279)">
</g>
<g
   id="g776"
   transform="translate(0,-88.279)">
</g>
<g
   id="g778"
   transform="translate(0,-88.279)">
</g>
<g
   id="g780"
   transform="translate(0,-88.279)">
</g>
<g
   id="g782"
   transform="translate(0,-88.279)">
</g>
<g
   id="g784"
   transform="translate(0,-88.279)">
</g>
<g
   id="g786"
   transform="translate(0,-88.279)">
</g>
<g
   id="g788"
   transform="translate(0,-88.279)">
</g>
<g
   id="g790"
   transform="translate(0,-88.279)">
</g>
<g
   id="g792"
   transform="translate(0,-88.279)">
</g>
<g
   id="g794"
   transform="translate(0,-88.279)">
</g>
<g
   id="g796"
   transform="translate(0,-88.279)">
</g>
<g
   id="g798"
   transform="translate(0,-88.279)">
</g>
<g
   id="g800"
   transform="translate(0,-88.279)">
</g>
<g
   id="g802"
   transform="translate(0,-88.279)">
</g>
</svg>
