<?xml version="1.0" encoding="UTF-8" standalone="no"?>
<svg
   xmlns:dc="http://purl.org/dc/elements/1.1/"
   xmlns:cc="http://creativecommons.org/ns#"
   xmlns:rdf="http://www.w3.org/1999/02/22-rdf-syntax-ns#"
   xmlns:svg="http://www.w3.org/2000/svg"
   xmlns="http://www.w3.org/2000/svg"
   xmlns:sodipodi="http://sodipodi.sourceforge.net/DTD/sodipodi-0.dtd"
   xmlns:inkscape="http://www.inkscape.org/namespaces/inkscape"
   version="1.1"
   id="Layer_1"
   x="0px"
   y="0px"
   viewBox="0 0 512 335.45001"
   xml:space="preserve"
   sodipodi:docname="st.svg"
   width="512"
   height="335.45001"
   inkscape:version="1.0.1 (c497b03c, 2020-09-10)"><metadata
   id="metadata352"><rdf:RDF><cc:Work
       rdf:about=""><dc:format>image/svg+xml</dc:format><dc:type
         rdf:resource="http://purl.org/dc/dcmitype/StillImage" /><dc:title></dc:title></cc:Work></rdf:RDF></metadata><defs
   id="defs350" /><sodipodi:namedview
   pagecolor="#ffffff"
   bordercolor="#666666"
   borderopacity="1"
   objecttolerance="10"
   gridtolerance="10"
   guidetolerance="10"
   inkscape:pageopacity="0"
   inkscape:pageshadow="2"
   inkscape:window-width="1003"
   inkscape:window-height="745"
   id="namedview348"
   showgrid="false"
   inkscape:zoom="1.640625"
   inkscape:cx="256"
   inkscape:cy="256"
   inkscape:window-x="0"
   inkscape:window-y="23"
   inkscape:window-maximized="0"
   inkscape:current-layer="Layer_1" />
<path
   style="fill:#73af00"
   d="M 473.654,335.448 H 38.345 C 17.167,335.448 0,318.281 0,297.103 V 38.345 C 0,17.168 17.167,0 38.345,0 h 435.309 c 21.177,0 38.345,17.167 38.345,38.345 v 258.758 c 0,21.178 -17.168,38.345 -38.345,38.345 z"
   id="path305" />
<rect
   y="79.444992"
   style="fill:#ffe15a"
   width="512"
   height="176.55"
   id="rect307"
   x="0" />
<path
   style="fill:#ff4b55"
   d="M 11.527,10.95 C 4.417,17.911 0,27.61 0,38.345 v 258.758 c 0,10.735 4.417,20.435 11.527,27.395 L 176.552,167.724 Z"
   id="path309" />
<g
   id="g315"
   transform="translate(0,-88.276)">
	<path
   style="fill:#464655"
   d="m 278.298,215.768 9.047,27.126 28.594,0.222 c 3.702,0.029 5.237,4.753 2.259,6.953 l -23.002,16.986 8.626,27.263 c 1.117,3.53 -2.902,6.45 -5.914,4.297 l -23.263,-16.628 -23.263,16.628 c -3.011,2.153 -7.031,-0.767 -5.914,-4.297 l 8.626,-27.263 -23.002,-16.986 c -2.978,-2.199 -1.443,-6.924 2.259,-6.953 l 28.594,-0.222 9.047,-27.126 c 1.167,-3.513 6.135,-3.513 7.306,0 z"
   id="path311" />
	<path
   style="fill:#464655"
   d="m 410.299,215.768 9.047,27.126 28.594,0.222 c 3.702,0.029 5.237,4.753 2.259,6.953 l -23.002,16.986 8.626,27.263 c 1.117,3.53 -2.902,6.45 -5.914,4.297 l -23.263,-16.628 -23.263,16.628 c -3.011,2.153 -7.031,-0.767 -5.914,-4.297 l 8.626,-27.263 -23.002,-16.986 c -2.978,-2.199 -1.443,-6.924 2.259,-6.953 l 28.594,-0.222 9.047,-27.126 c 1.166,-3.513 6.134,-3.513 7.306,0 z"
   id="path313" />
</g>
<g
   id="g317"
   transform="translate(0,-88.276)">
</g>
<g
   id="g319"
   transform="translate(0,-88.276)">
</g>
<g
   id="g321"
   transform="translate(0,-88.276)">
</g>
<g
   id="g323"
   transform="translate(0,-88.276)">
</g>
<g
   id="g325"
   transform="translate(0,-88.276)">
</g>
<g
   id="g327"
   transform="translate(0,-88.276)">
</g>
<g
   id="g329"
   transform="translate(0,-88.276)">
</g>
<g
   id="g331"
   transform="translate(0,-88.276)">
</g>
<g
   id="g333"
   transform="translate(0,-88.276)">
</g>
<g
   id="g335"
   transform="translate(0,-88.276)">
</g>
<g
   id="g337"
   transform="translate(0,-88.276)">
</g>
<g
   id="g339"
   transform="translate(0,-88.276)">
</g>
<g
   id="g341"
   transform="translate(0,-88.276)">
</g>
<g
   id="g343"
   transform="translate(0,-88.276)">
</g>
<g
   id="g345"
   transform="translate(0,-88.276)">
</g>
</svg>
