<svg xmlns="http://www.w3.org/2000/svg" xml:space="preserve" width="512" height="335.45001"><path style="fill:#ff4b55" d="M473.655 0H38.345C17.167 0 0 17.167 0 38.345v73.471h512V38.345C512 17.167 494.833 0 473.655 0z"/><path style="fill:#464655" d="M0 297.103c0 21.177 17.167 38.345 38.345 38.345h435.31c21.177 0 38.345-17.167 38.345-38.345v-73.471H0z"/><path style="fill:#f5f5f5" d="M0 111.814h512v111.81H0z"/><path style="fill:#73af00" d="m150.03 223.314 7.36 22.068 23.262.18c3.011.023 4.26 3.866 1.837 5.656l-18.713 13.82 7.017 22.179c.908 2.871-2.361 5.247-4.811 3.496l-18.925-13.527-18.925 13.527c-2.451 1.751-5.719-.625-4.811-3.496l7.017-22.179-18.713-13.82c-2.423-1.789-1.174-5.633 1.837-5.656l23.263-.18 7.36-22.068c.951-2.857 4.992-2.857 5.945 0zm217.887 0 7.36 22.068 23.262.18c3.011.023 4.26 3.866 1.837 5.656l-18.713 13.82 7.017 22.179c.908 2.871-2.361 5.247-4.811 3.496l-18.925-13.527-18.925 13.527c-2.451 1.751-5.719-.625-4.811-3.496l7.017-22.179-18.713-13.82c-2.423-1.789-1.174-5.633 1.837-5.656l23.262-.18 7.36-22.068c.952-2.857 4.993-2.857 5.946 0z" transform="translate(0 -88.276)"/></svg>