<?xml version="1.0" encoding="UTF-8" standalone="no"?>
<svg
   xmlns:dc="http://purl.org/dc/elements/1.1/"
   xmlns:cc="http://creativecommons.org/ns#"
   xmlns:rdf="http://www.w3.org/1999/02/22-rdf-syntax-ns#"
   xmlns:svg="http://www.w3.org/2000/svg"
   xmlns="http://www.w3.org/2000/svg"
   xmlns:sodipodi="http://sodipodi.sourceforge.net/DTD/sodipodi-0.dtd"
   xmlns:inkscape="http://www.inkscape.org/namespaces/inkscape"
   version="1.1"
   id="Layer_1"
   x="0px"
   y="0px"
   viewBox="0 0 512 335.45001"
   xml:space="preserve"
   sodipodi:docname="sz.svg"
   width="512"
   height="335.45001"
   inkscape:version="1.0.1 (c497b03c, 2020-09-10)"><metadata
   id="metadata962"><rdf:RDF><cc:Work
       rdf:about=""><dc:format>image/svg+xml</dc:format><dc:type
         rdf:resource="http://purl.org/dc/dcmitype/StillImage" /><dc:title></dc:title></cc:Work></rdf:RDF></metadata><defs
   id="defs960" /><sodipodi:namedview
   pagecolor="#ffffff"
   bordercolor="#666666"
   borderopacity="1"
   objecttolerance="10"
   gridtolerance="10"
   guidetolerance="10"
   inkscape:pageopacity="0"
   inkscape:pageshadow="2"
   inkscape:window-width="1127"
   inkscape:window-height="834"
   id="namedview958"
   showgrid="false"
   inkscape:zoom="1.2011719"
   inkscape:cx="256"
   inkscape:cy="256"
   inkscape:window-x="0"
   inkscape:window-y="23"
   inkscape:window-maximized="0"
   inkscape:current-layer="Layer_1" />
<g
   id="g823"
   transform="translate(0,-88.276)">
	<path
   style="fill:#4173cd"
   d="m 0,385.379 c 0,21.177 17.167,38.345 38.345,38.345 h 435.31 c 21.177,0 38.345,-17.167 38.345,-38.345 V 361.931 H 0 Z"
   id="path819" />
	<path
   style="fill:#4173cd"
   d="M 473.655,88.276 H 38.345 C 17.167,88.276 0,105.443 0,126.621 v 23.448 h 512 v -23.448 c 0,-21.178 -17.167,-38.345 -38.345,-38.345 z"
   id="path821" />
</g>
<rect
   y="61.794006"
   style="fill:#ff4b55"
   width="512"
   height="211.86"
   id="rect825"
   x="0" />
<g
   id="g833"
   transform="translate(0,-88.276)">
	<rect
   y="141.24001"
   style="fill:#ffe15a"
   width="512"
   height="17.655001"
   id="rect827"
   x="0" />
	<rect
   y="353.10001"
   style="fill:#ffe15a"
   width="512"
   height="17.655001"
   id="rect829"
   x="0" />
	<path
   style="fill:#ffe15a"
   d="M 448.897,264.519 H 62.734 c -2.621,0 -4.745,-2.124 -4.745,-4.745 v -1.501 c 0,-2.621 2.124,-4.745 4.745,-4.745 h 386.163 c 2.621,0 4.745,2.124 4.745,4.745 v 1.501 c 0,2.62 -2.124,4.745 -4.745,4.745 z"
   id="path831" />
</g>
<polygon
   style="fill:#f5f5f5"
   points="412.428,242.538 393.195,250.781 373.962,242.538 393.195,234.295 "
   id="polygon835"
   transform="translate(0,-88.276)" />
<path
   style="fill:#ffe15a"
   d="M 378.695,150.751 H 96.456 c -1.939,0 -3.511,1.571 -3.511,3.511 0,1.939 1.571,3.511 3.511,3.511 h 282.238 c 1.939,0 3.511,-1.572 3.511,-3.511 0,-1.939 -1.572,-3.511 -3.51,-3.511 z"
   id="path837" />
<polygon
   style="fill:#f5f5f5"
   points="432.425,223.305 413.192,231.548 393.959,223.305 413.192,215.062 "
   id="polygon839"
   transform="translate(0,-88.276)" />
<path
   style="fill:#ffe15a"
   d="M 398.69,131.518 H 116.452 c -1.939,0 -3.511,1.571 -3.511,3.511 0,1.939 1.571,3.511 3.511,3.511 H 398.69 c 1.939,0 3.511,-1.572 3.511,-3.511 0,-1.939 -1.571,-3.511 -3.511,-3.511 z"
   id="path841" />
<path
   style="fill:#f5f5f5"
   d="m 255.816,99.31 c -48.808,0 -91.39,27.639 -114.197,68.69 22.806,41.05 65.389,68.69 114.197,68.69 48.808,0 91.39,-27.639 114.197,-68.69 -22.806,-41.051 -65.39,-68.69 -114.197,-68.69 z"
   id="path843" />
<path
   style="fill:#464655"
   d="m 141.62,168 c 22.806,41.05 65.389,68.69 114.197,68.69 8.15,0 16.106,-0.836 23.846,-2.312 -5.909,-12.971 -26.691,-12.949 -27.967,-17.837 -1.374,-5.266 16.943,-4.121 20.149,-8.472 3.206,-4.35 -17.401,-6.182 -18.317,-10.532 -0.916,-4.351 8.243,-7.327 9.846,-14.196 1.603,-6.869 5.266,-8.929 8.013,-13.05 2.748,-4.121 -4.579,-5.495 -6.411,-19.233 -1.832,-13.738 -12.594,-15.57 -17.859,-26.788 -5.267,-11.219 3.206,-19.462 8.701,-24.957 C 207.009,99.31 164.426,126.949 141.62,168 Z"
   id="path845" />
<g
   id="g871"
   transform="translate(0,-88.276)">
	<rect
   x="184.37"
   y="231.55"
   style="fill:#f5f5f5"
   width="5.4949999"
   height="21.981001"
   id="rect847" />
	<rect
   x="195.37"
   y="231.55"
   style="fill:#f5f5f5"
   width="5.4949999"
   height="21.981001"
   id="rect849" />
	<rect
   x="206.36"
   y="231.55"
   style="fill:#f5f5f5"
   width="5.4949999"
   height="21.981001"
   id="rect851" />
	<rect
   x="217.35001"
   y="231.55"
   style="fill:#f5f5f5"
   width="5.4949999"
   height="21.981001"
   id="rect853" />
	<rect
   x="228.34"
   y="231.55"
   style="fill:#f5f5f5"
   width="5.4949999"
   height="21.981001"
   id="rect855" />
	<rect
   x="239.33"
   y="231.55"
   style="fill:#f5f5f5"
   width="5.4949999"
   height="21.981001"
   id="rect857" />
	<rect
   x="184.37"
   y="264.51999"
   style="fill:#f5f5f5"
   width="5.4949999"
   height="21.981001"
   id="rect859" />
	<rect
   x="195.37"
   y="264.51999"
   style="fill:#f5f5f5"
   width="5.4949999"
   height="21.981001"
   id="rect861" />
	<rect
   x="206.36"
   y="264.51999"
   style="fill:#f5f5f5"
   width="5.4949999"
   height="21.981001"
   id="rect863" />
	<rect
   x="217.35001"
   y="264.51999"
   style="fill:#f5f5f5"
   width="5.4949999"
   height="21.981001"
   id="rect865" />
	<rect
   x="228.34"
   y="264.51999"
   style="fill:#f5f5f5"
   width="5.4949999"
   height="21.981001"
   id="rect867" />
	<rect
   x="239.33"
   y="264.51999"
   style="fill:#f5f5f5"
   width="5.4949999"
   height="21.981001"
   id="rect869" />
</g>
<g
   id="g897"
   transform="translate(0,-88.276)">
	<rect
   x="266.79999"
   y="231.55"
   style="fill:#464655"
   width="5.4949999"
   height="21.981001"
   id="rect873" />
	<rect
   x="277.79001"
   y="231.55"
   style="fill:#464655"
   width="5.4949999"
   height="21.981001"
   id="rect875" />
	<rect
   x="288.78"
   y="231.55"
   style="fill:#464655"
   width="5.4949999"
   height="21.981001"
   id="rect877" />
	<rect
   x="299.76999"
   y="231.55"
   style="fill:#464655"
   width="5.4949999"
   height="21.981001"
   id="rect879" />
	<rect
   x="310.76001"
   y="231.55"
   style="fill:#464655"
   width="5.4949999"
   height="21.981001"
   id="rect881" />
	<rect
   x="321.75"
   y="231.55"
   style="fill:#464655"
   width="5.4949999"
   height="21.981001"
   id="rect883" />
	<rect
   x="266.79999"
   y="264.51999"
   style="fill:#464655"
   width="5.4949999"
   height="21.981001"
   id="rect885" />
	<rect
   x="277.79001"
   y="264.51999"
   style="fill:#464655"
   width="5.4949999"
   height="21.981001"
   id="rect887" />
	<rect
   x="288.78"
   y="264.51999"
   style="fill:#464655"
   width="5.4949999"
   height="21.981001"
   id="rect889" />
	<rect
   x="299.76999"
   y="264.51999"
   style="fill:#464655"
   width="5.4949999"
   height="21.981001"
   id="rect891" />
	<rect
   x="310.76001"
   y="264.51999"
   style="fill:#464655"
   width="5.4949999"
   height="21.981001"
   id="rect893" />
	<rect
   x="321.75"
   y="264.51999"
   style="fill:#464655"
   width="5.4949999"
   height="21.981001"
   id="rect895" />
</g>
<path
   style="fill:#245dbd"
   d="m 425.386,164.394 c -4.401,10.223 -16.925,11.426 -9.985,37.486 l 3.554,-3.608 c 0,0 3.723,9.823 12.693,16.438 0,0 11,-9.222 11.847,-23.854 l 4.569,2.005 c 0,-0.003 -2.2,-26.663 -22.678,-28.467 z"
   id="path899" />
<g
   id="g911"
   transform="translate(0,-88.276)">
	<path
   style="fill:#ff4b55"
   d="m 441.633,273.618 c -0.352,0 -0.701,-0.163 -0.966,-0.482 -4.31,-5.199 -9.8,-6.866 -9.853,-6.884 -0.725,-0.213 -1.169,-1.084 -0.989,-1.942 0.18,-0.852 0.915,-1.385 1.636,-1.172 0.254,0.075 6.27,1.886 11.136,7.755 0.524,0.627 0.515,1.647 -0.015,2.268 -0.264,0.307 -0.605,0.457 -0.949,0.457 z"
   id="path901" />
	<path
   style="fill:#ff4b55"
   d="m 438.531,285.746 c -0.405,0 -0.807,-0.213 -1.074,-0.627 -3.197,-4.924 -6.823,-7.605 -6.86,-7.63 -0.638,-0.463 -0.833,-1.453 -0.441,-2.211 0.394,-0.751 1.227,-0.983 1.865,-0.52 0.167,0.119 4.088,3.026 7.584,8.407 0.455,0.702 0.344,1.71 -0.248,2.249 -0.246,0.225 -0.538,0.332 -0.826,0.332 z"
   id="path903" />
	<path
   style="fill:#ff4b55"
   d="m 431.426,299.245 c -0.076,0 -0.153,-0.007 -0.233,-0.025 -0.735,-0.15 -1.233,-0.978 -1.106,-1.848 0.534,-3.671 0.087,-9.691 -0.646,-12.798 -0.201,-0.852 0.22,-1.736 0.939,-1.98 0.727,-0.232 1.468,0.263 1.668,1.116 0.828,3.508 1.312,10.055 0.708,14.201 -0.112,0.783 -0.685,1.334 -1.33,1.334 z"
   id="path905" />
	<path
   style="fill:#ff4b55"
   d="m 421.903,284.436 c -0.386,0 -0.769,-0.194 -1.036,-0.57 -0.481,-0.676 -0.409,-1.692 0.161,-2.261 0.034,-0.031 3.49,-3.54 4.393,-8.394 0.161,-0.864 0.878,-1.409 1.613,-1.221 0.729,0.188 1.193,1.046 1.032,1.911 -1.106,5.939 -5.122,9.992 -5.294,10.161 -0.255,0.249 -0.562,0.374 -0.869,0.374 z"
   id="path907" />
	<path
   style="fill:#ff4b55"
   d="m 418.143,274.175 c -0.455,0 -0.899,-0.269 -1.155,-0.765 -0.392,-0.751 -0.193,-1.741 0.445,-2.205 0.051,-0.038 4.961,-3.652 6.484,-7.598 0.309,-0.814 1.119,-1.172 1.795,-0.796 0.68,0.37 0.979,1.322 0.669,2.124 -1.869,4.842 -7.302,8.833 -7.531,9.002 -0.224,0.163 -0.467,0.238 -0.707,0.238 z"
   id="path909" />
</g>
<path
   style="fill:#245dbd"
   d="m 82.285,167.834 c -3.679,8.548 -14.152,9.555 -8.35,31.345 l 2.972,-3.017 c 0,0 3.113,8.213 10.614,13.745 0,0 9.198,-7.711 9.906,-19.947 l 3.821,1.676 c 0,0.001 -1.839,-22.292 -18.963,-23.802 z"
   id="path913" />
<g
   id="g925"
   transform="translate(0,-88.276)">
	<path
   style="fill:#ff4b55"
   d="m 95.871,273.628 c -0.295,0 -0.586,-0.136 -0.807,-0.404 -3.604,-4.348 -8.194,-5.741 -8.239,-5.757 -0.606,-0.178 -0.978,-0.906 -0.826,-1.624 0.15,-0.713 0.765,-1.158 1.368,-0.98 0.212,0.063 5.242,1.577 9.311,6.485 0.438,0.524 0.431,1.377 -0.013,1.896 -0.221,0.258 -0.507,0.384 -0.794,0.384 z"
   id="path915" />
	<path
   style="fill:#ff4b55"
   d="m 93.277,283.768 c -0.339,0 -0.674,-0.178 -0.898,-0.524 -2.674,-4.117 -5.705,-6.359 -5.736,-6.38 -0.533,-0.387 -0.696,-1.215 -0.37,-1.849 0.33,-0.629 1.026,-0.822 1.559,-0.435 0.139,0.099 3.418,2.53 6.342,7.03 0.381,0.587 0.288,1.43 -0.207,1.88 -0.206,0.189 -0.45,0.278 -0.69,0.278 z"
   id="path917" />
	<path
   style="fill:#ff4b55"
   d="m 87.335,295.057 c -0.064,0 -0.128,-0.006 -0.194,-0.021 -0.615,-0.126 -1.031,-0.818 -0.925,-1.545 0.447,-3.07 0.073,-8.104 -0.54,-10.701 -0.168,-0.713 0.183,-1.451 0.785,-1.655 0.608,-0.194 1.227,0.22 1.395,0.932 0.692,2.933 1.097,8.407 0.593,11.875 -0.095,0.653 -0.575,1.115 -1.114,1.115 z"
   id="path919" />
	<path
   style="fill:#ff4b55"
   d="m 79.372,282.674 c -0.323,0 -0.643,-0.162 -0.867,-0.477 -0.403,-0.566 -0.343,-1.415 0.135,-1.891 0.029,-0.026 2.919,-2.959 3.672,-7.019 0.135,-0.723 0.734,-1.178 1.348,-1.022 0.61,0.157 0.998,0.875 0.863,1.598 -0.925,4.966 -4.284,8.355 -4.427,8.497 -0.211,0.209 -0.467,0.314 -0.724,0.314 z"
   id="path921" />
	<path
   style="fill:#ff4b55"
   d="m 76.228,274.093 c -0.381,0 -0.751,-0.225 -0.967,-0.639 -0.328,-0.629 -0.161,-1.457 0.372,-1.844 0.042,-0.031 4.148,-3.054 5.422,-6.354 0.258,-0.681 0.936,-0.98 1.502,-0.665 0.568,0.309 0.818,1.106 0.559,1.775 -1.564,4.049 -6.105,7.385 -6.297,7.527 -0.186,0.137 -0.39,0.2 -0.591,0.2 z"
   id="path923" />
</g>
<g
   id="g927"
   transform="translate(0,-88.276)">
</g>
<g
   id="g929"
   transform="translate(0,-88.276)">
</g>
<g
   id="g931"
   transform="translate(0,-88.276)">
</g>
<g
   id="g933"
   transform="translate(0,-88.276)">
</g>
<g
   id="g935"
   transform="translate(0,-88.276)">
</g>
<g
   id="g937"
   transform="translate(0,-88.276)">
</g>
<g
   id="g939"
   transform="translate(0,-88.276)">
</g>
<g
   id="g941"
   transform="translate(0,-88.276)">
</g>
<g
   id="g943"
   transform="translate(0,-88.276)">
</g>
<g
   id="g945"
   transform="translate(0,-88.276)">
</g>
<g
   id="g947"
   transform="translate(0,-88.276)">
</g>
<g
   id="g949"
   transform="translate(0,-88.276)">
</g>
<g
   id="g951"
   transform="translate(0,-88.276)">
</g>
<g
   id="g953"
   transform="translate(0,-88.276)">
</g>
<g
   id="g955"
   transform="translate(0,-88.276)">
</g>
</svg>
