<?xml version="1.0" encoding="UTF-8" standalone="no"?>
<svg
   xmlns:dc="http://purl.org/dc/elements/1.1/"
   xmlns:cc="http://creativecommons.org/ns#"
   xmlns:rdf="http://www.w3.org/1999/02/22-rdf-syntax-ns#"
   xmlns:svg="http://www.w3.org/2000/svg"
   xmlns="http://www.w3.org/2000/svg"
   xmlns:sodipodi="http://sodipodi.sourceforge.net/DTD/sodipodi-0.dtd"
   xmlns:inkscape="http://www.inkscape.org/namespaces/inkscape"
   version="1.1"
   id="Layer_1"
   x="0px"
   y="0px"
   viewBox="0 0 512 335.45001"
   xml:space="preserve"
   sodipodi:docname="th.svg"
   width="512"
   height="335.45001"
   inkscape:version="1.0.1 (c497b03c, 2020-09-10)"><metadata
   id="metadata1363"><rdf:RDF><cc:Work
       rdf:about=""><dc:format>image/svg+xml</dc:format><dc:type
         rdf:resource="http://purl.org/dc/dcmitype/StillImage" /><dc:title></dc:title></cc:Work></rdf:RDF></metadata><defs
   id="defs1361" /><sodipodi:namedview
   pagecolor="#ffffff"
   bordercolor="#666666"
   borderopacity="1"
   objecttolerance="10"
   gridtolerance="10"
   guidetolerance="10"
   inkscape:pageopacity="0"
   inkscape:pageshadow="2"
   inkscape:window-width="978"
   inkscape:window-height="657"
   id="namedview1359"
   showgrid="false"
   inkscape:zoom="1.2558594"
   inkscape:cx="256"
   inkscape:cy="256"
   inkscape:window-x="0"
   inkscape:window-y="23"
   inkscape:window-maximized="0"
   inkscape:current-layer="Layer_1" />
<path
   style="fill:#f5f5f5"
   d="M 473.7,0 H 38.3 C 17.1,0 0,17.2 0,38.3 v 258.8 c 0,21.2 17.2,38.3 38.3,38.3 h 435.3 c 21.2,0 38.3,-17.2 38.3,-38.3 V 38.3 C 512,17.1 494.8,0 473.7,0 Z"
   id="path1318" />
<g
   id="g1324"
   transform="translate(0,-88.3)">
	<path
   style="fill:#ff4b55"
   d="m 0,385.4 c 0,21.2 17.2,38.3 38.3,38.3 h 435.3 c 21.2,0 38.3,-17.2 38.3,-38.3 V 370.8 H 0 Z"
   id="path1320" />
	<path
   style="fill:#ff4b55"
   d="M 473.7,88.3 H 38.3 C 17.1,88.3 0,105.5 0,126.6 v 14.6 h 512 v -14.6 c 0,-21.2 -17.2,-38.3 -38.3,-38.3 z"
   id="path1322" />
</g>
<rect
   y="105.89999"
   style="fill:#41479b"
   width="512"
   height="123.6"
   id="rect1326"
   x="0" />
<g
   id="g1328"
   transform="translate(0,-88.3)">
</g>
<g
   id="g1330"
   transform="translate(0,-88.3)">
</g>
<g
   id="g1332"
   transform="translate(0,-88.3)">
</g>
<g
   id="g1334"
   transform="translate(0,-88.3)">
</g>
<g
   id="g1336"
   transform="translate(0,-88.3)">
</g>
<g
   id="g1338"
   transform="translate(0,-88.3)">
</g>
<g
   id="g1340"
   transform="translate(0,-88.3)">
</g>
<g
   id="g1342"
   transform="translate(0,-88.3)">
</g>
<g
   id="g1344"
   transform="translate(0,-88.3)">
</g>
<g
   id="g1346"
   transform="translate(0,-88.3)">
</g>
<g
   id="g1348"
   transform="translate(0,-88.3)">
</g>
<g
   id="g1350"
   transform="translate(0,-88.3)">
</g>
<g
   id="g1352"
   transform="translate(0,-88.3)">
</g>
<g
   id="g1354"
   transform="translate(0,-88.3)">
</g>
<g
   id="g1356"
   transform="translate(0,-88.3)">
</g>
</svg>
