<?xml version="1.0" encoding="UTF-8" standalone="no"?>
<svg
   xmlns:dc="http://purl.org/dc/elements/1.1/"
   xmlns:cc="http://creativecommons.org/ns#"
   xmlns:rdf="http://www.w3.org/1999/02/22-rdf-syntax-ns#"
   xmlns:svg="http://www.w3.org/2000/svg"
   xmlns="http://www.w3.org/2000/svg"
   xmlns:sodipodi="http://sodipodi.sourceforge.net/DTD/sodipodi-0.dtd"
   xmlns:inkscape="http://www.inkscape.org/namespaces/inkscape"
   version="1.1"
   id="Layer_1"
   x="0px"
   y="0px"
   viewBox="0 0 512 335.45001"
   xml:space="preserve"
   sodipodi:docname="tj.svg"
   width="512"
   height="335.45001"
   inkscape:version="1.0.1 (c497b03c, 2020-09-10)"><metadata
   id="metadata1198"><rdf:RDF><cc:Work
       rdf:about=""><dc:format>image/svg+xml</dc:format><dc:type
         rdf:resource="http://purl.org/dc/dcmitype/StillImage" /><dc:title></dc:title></cc:Work></rdf:RDF></metadata><defs
   id="defs1196" /><sodipodi:namedview
   pagecolor="#ffffff"
   bordercolor="#666666"
   borderopacity="1"
   objecttolerance="10"
   gridtolerance="10"
   guidetolerance="10"
   inkscape:pageopacity="0"
   inkscape:pageshadow="2"
   inkscape:window-width="1059"
   inkscape:window-height="726"
   id="namedview1194"
   showgrid="false"
   inkscape:zoom="1.234375"
   inkscape:cx="256"
   inkscape:cy="256"
   inkscape:window-x="0"
   inkscape:window-y="23"
   inkscape:window-maximized="0"
   inkscape:current-layer="Layer_1" />
<path
   style="fill:#73af00"
   d="m 0,297.103 c 0,21.177 17.167,38.345 38.345,38.345 h 435.31 c 21.177,0 38.345,-17.167 38.345,-38.345 V 223.632 H 0 Z"
   id="path1131" />
<path
   style="fill:#ff4b55"
   d="M 473.655,0 H 38.345 C 17.167,0 0,17.167 0,38.345 v 73.471 H 512 V 38.345 C 512,17.167 494.833,0 473.655,0 Z"
   id="path1133" />
<rect
   y="111.814"
   style="fill:#f5f5f5"
   width="512"
   height="111.81"
   id="rect1135"
   x="0" />
<g
   id="g1161"
   transform="translate(0,-88.276)">
	<path
   style="fill:#ffcd5a"
   d="m 227.069,287.535 c 3.67,-1.849 5.817,-4.897 6.966,-7.097 6.575,4.296 12.209,2.837 15.145,1.463 2.865,-1.342 5.224,-3.531 6.798,-5.762 1.575,2.231 3.934,4.42 6.798,5.762 2.935,1.374 8.569,2.83 15.145,-1.463 1.148,2.2 3.295,5.247 6.966,7.097 2.116,1.066 4.448,1.601 6.979,1.601 2.6,0 5.408,-0.563 8.408,-1.687 l -1.457,-3.886 c -4.771,1.789 -8.819,1.886 -12.025,0.286 -4.488,-2.237 -5.986,-7.17 -5.998,-7.211 l -0.875,-3.063 -2.447,2.038 c -4.318,3.596 -8.789,4.478 -12.936,2.53 -4.211,-1.972 -6.484,-5.963 -6.484,-7.16 v -17.907 c 0.898,-1.975 2.879,-3.358 5.186,-3.358 0.793,0 1.577,0.172 2.329,0.511 l 2.568,1.159 -0.388,-2.792 c -0.814,-5.866 -5.875,-10.289 -11.77,-10.289 -5.896,0 -10.956,4.423 -11.77,10.289 l -0.388,2.792 2.568,-1.159 c 0.751,-0.339 1.536,-0.511 2.329,-0.511 2.307,0 4.289,1.383 5.186,3.358 v 17.907 c 0,1.197 -2.272,5.188 -6.484,7.16 -4.145,1.947 -8.618,1.068 -12.936,-2.53 l -2.429,-2.012 -0.893,3.029 c -0.014,0.049 -1.513,4.982 -6.001,7.219 -3.209,1.601 -7.255,1.505 -12.025,-0.286 l -1.457,3.886 c 2.999,1.124 5.809,1.687 8.408,1.687 2.535,-0.001 4.867,-0.535 6.984,-1.601 z m 21.647,-40.93 c -0.248,0 -0.495,0.01 -0.742,0.032 1.389,-3.096 4.495,-5.219 8.003,-5.219 3.507,0 6.614,2.123 8.003,5.219 -3.226,-0.284 -6.278,1.292 -8.003,3.789 -1.592,-2.308 -4.253,-3.821 -7.261,-3.821 z"
   id="path1137" />
	<path
   style="fill:#ffcd5a"
   d="m 220.051,300.727 1.315,3.935 c 8.821,-2.944 21.438,-4.633 34.612,-4.633 13.174,0 25.791,1.689 34.612,4.633 l 1.315,-3.935 c -9.228,-3.082 -22.324,-4.849 -35.927,-4.849 -13.603,0.001 -26.699,1.767 -35.927,4.849 z"
   id="path1139" />
	<path
   style="fill:#ffcd5a"
   d="m 255.978,291.73 c 2.163,0.007 4.068,-1.279 5.359,-3.01 -0.858,-0.53 -2.004,-0.84 -3.302,-1.001 10e-4,-0.047 0.017,-0.09 0.017,-0.138 0,-1.779 -0.84,-3.315 -2.074,-4.149 -1.235,0.834 -2.074,2.37 -2.074,4.149 0,0.047 0.015,0.09 0.017,0.138 -1.297,0.161 -2.443,0.47 -3.302,1.001 1.289,1.731 3.195,3.015 5.359,3.01 z"
   id="path1141" />
	<path
   style="fill:#ffcd5a"
   d="m 236.935,293.69 c 2.12,-0.426 3.731,-2.067 4.649,-4.021 -0.947,-0.348 -2.132,-0.422 -3.434,-0.32 -0.009,-0.046 -0.002,-0.092 -0.012,-0.139 -0.355,-1.742 -1.485,-3.08 -2.862,-3.65 -1.043,1.065 -1.559,2.738 -1.203,4.48 0.01,0.047 0.033,0.086 0.043,0.132 -1.238,0.417 -2.3,0.949 -3.034,1.641 1.611,1.438 3.734,2.316 5.853,1.877 z"
   id="path1143" />
	<path
   style="fill:#ffcd5a"
   d="m 276.68,285.559 c -1.377,0.57 -2.507,1.908 -2.862,3.65 -0.01,0.047 -0.003,0.092 -0.012,0.139 -1.302,-0.102 -2.487,-0.028 -3.434,0.32 0.918,1.955 2.529,3.595 4.649,4.021 2.119,0.439 4.242,-0.439 5.854,-1.878 -0.735,-0.691 -1.796,-1.224 -3.034,-1.641 0.011,-0.046 0.034,-0.085 0.043,-0.132 0.355,-1.741 -0.162,-3.414 -1.204,-4.479 z"
   id="path1145" />
	<path
   style="fill:#ffcd5a"
   d="m 255.424,209.15 -1.398,4.191 -4.417,0.034 c -0.572,0.004 -0.809,0.734 -0.349,1.074 l 3.553,2.624 -1.332,4.212 c -0.172,0.545 0.448,0.996 0.914,0.664 l 3.594,-2.569 3.594,2.569 c 0.466,0.332 1.086,-0.118 0.914,-0.664 l -1.333,-4.212 3.553,-2.624 c 0.46,-0.34 0.223,-1.069 -0.349,-1.074 l -4.417,-0.034 -1.398,-4.191 c -0.181,-0.543 -0.948,-0.543 -1.129,0 z"
   id="path1147" />
	<path
   style="fill:#ffcd5a"
   d="m 230.138,216.065 -1.398,4.191 -4.417,0.034 c -0.572,0.004 -0.809,0.734 -0.349,1.074 l 3.553,2.624 -1.333,4.212 c -0.172,0.545 0.448,0.996 0.914,0.664 l 3.594,-2.569 3.594,2.569 c 0.466,0.332 1.086,-0.118 0.914,-0.664 l -1.333,-4.212 3.553,-2.624 c 0.46,-0.34 0.223,-1.069 -0.349,-1.074 l -4.417,-0.034 -1.398,-4.191 c -0.18,-0.543 -0.947,-0.543 -1.128,0 z"
   id="path1149" />
	<path
   style="fill:#ffcd5a"
   d="m 211.553,234.737 -1.398,4.191 -4.417,0.034 c -0.572,0.004 -0.809,0.734 -0.349,1.074 l 3.553,2.624 -1.332,4.212 c -0.172,0.545 0.448,0.996 0.914,0.664 l 3.594,-2.569 3.594,2.569 c 0.466,0.332 1.086,-0.118 0.914,-0.664 l -1.332,-4.212 3.553,-2.624 c 0.46,-0.34 0.223,-1.069 -0.349,-1.074 l -4.417,-0.034 -1.398,-4.191 c -0.182,-0.542 -0.949,-0.542 -1.13,0 z"
   id="path1151" />
	<path
   style="fill:#ffcd5a"
   d="m 204.724,259.979 -1.398,4.191 -4.417,0.034 c -0.572,0.004 -0.809,0.734 -0.349,1.074 l 3.553,2.624 -1.333,4.212 c -0.172,0.545 0.448,0.996 0.914,0.664 l 3.594,-2.569 3.594,2.569 c 0.466,0.332 1.086,-0.118 0.914,-0.664 l -1.333,-4.212 3.553,-2.624 c 0.46,-0.34 0.223,-1.069 -0.349,-1.074 l -4.417,-0.034 -1.398,-4.191 c -0.18,-0.543 -0.947,-0.543 -1.128,0 z"
   id="path1153" />
	<path
   style="fill:#ffcd5a"
   d="m 281.862,216.065 1.398,4.191 4.417,0.034 c 0.572,0.004 0.809,0.734 0.349,1.074 l -3.553,2.624 1.333,4.212 c 0.172,0.545 -0.448,0.996 -0.914,0.664 l -3.594,-2.569 -3.594,2.569 c -0.466,0.332 -1.086,-0.118 -0.914,-0.664 l 1.333,-4.212 -3.553,-2.624 c -0.46,-0.34 -0.223,-1.069 0.349,-1.074 l 4.417,-0.034 1.398,-4.191 c 0.18,-0.543 0.947,-0.543 1.128,0 z"
   id="path1155" />
	<path
   style="fill:#ffcd5a"
   d="m 300.447,234.737 1.398,4.191 4.417,0.034 c 0.572,0.004 0.809,0.734 0.349,1.074 l -3.553,2.624 1.333,4.212 c 0.172,0.545 -0.448,0.996 -0.914,0.664 l -3.594,-2.569 -3.594,2.569 c -0.466,0.332 -1.086,-0.118 -0.914,-0.664 l 1.333,-4.212 -3.553,-2.624 c -0.46,-0.34 -0.223,-1.069 0.349,-1.074 l 4.417,-0.034 1.398,-4.191 c 0.18,-0.542 0.947,-0.542 1.128,0 z"
   id="path1157" />
	<path
   style="fill:#ffcd5a"
   d="m 307.276,259.979 1.398,4.191 4.417,0.034 c 0.572,0.004 0.809,0.734 0.349,1.074 l -3.553,2.624 1.332,4.212 c 0.172,0.545 -0.448,0.996 -0.914,0.664 l -3.594,-2.569 -3.594,2.569 c -0.466,0.332 -1.086,-0.118 -0.914,-0.664 l 1.332,-4.212 -3.553,-2.624 c -0.46,-0.34 -0.223,-1.069 0.349,-1.074 l 4.417,-0.034 1.398,-4.191 c 0.182,-0.543 0.949,-0.543 1.13,0 z"
   id="path1159" />
</g>
<g
   id="g1163"
   transform="translate(0,-88.276)">
</g>
<g
   id="g1165"
   transform="translate(0,-88.276)">
</g>
<g
   id="g1167"
   transform="translate(0,-88.276)">
</g>
<g
   id="g1169"
   transform="translate(0,-88.276)">
</g>
<g
   id="g1171"
   transform="translate(0,-88.276)">
</g>
<g
   id="g1173"
   transform="translate(0,-88.276)">
</g>
<g
   id="g1175"
   transform="translate(0,-88.276)">
</g>
<g
   id="g1177"
   transform="translate(0,-88.276)">
</g>
<g
   id="g1179"
   transform="translate(0,-88.276)">
</g>
<g
   id="g1181"
   transform="translate(0,-88.276)">
</g>
<g
   id="g1183"
   transform="translate(0,-88.276)">
</g>
<g
   id="g1185"
   transform="translate(0,-88.276)">
</g>
<g
   id="g1187"
   transform="translate(0,-88.276)">
</g>
<g
   id="g1189"
   transform="translate(0,-88.276)">
</g>
<g
   id="g1191"
   transform="translate(0,-88.276)">
</g>
</svg>
