<?xml version="1.0" encoding="UTF-8" standalone="no"?>
<svg
   xmlns:dc="http://purl.org/dc/elements/1.1/"
   xmlns:cc="http://creativecommons.org/ns#"
   xmlns:rdf="http://www.w3.org/1999/02/22-rdf-syntax-ns#"
   xmlns:svg="http://www.w3.org/2000/svg"
   xmlns="http://www.w3.org/2000/svg"
   xmlns:sodipodi="http://sodipodi.sourceforge.net/DTD/sodipodi-0.dtd"
   xmlns:inkscape="http://www.inkscape.org/namespaces/inkscape"
   version="1.1"
   id="Layer_1"
   x="0px"
   y="0px"
   viewBox="0 0 512 335.45001"
   xml:space="preserve"
   sodipodi:docname="tk.svg"
   width="512"
   height="335.45001"
   inkscape:version="1.0.1 (c497b03c, 2020-09-10)"><metadata
   id="metadata1840"><rdf:RDF><cc:Work
       rdf:about=""><dc:format>image/svg+xml</dc:format><dc:type
         rdf:resource="http://purl.org/dc/dcmitype/StillImage" /><dc:title></dc:title></cc:Work></rdf:RDF></metadata><defs
   id="defs1838" /><sodipodi:namedview
   pagecolor="#ffffff"
   bordercolor="#666666"
   borderopacity="1"
   objecttolerance="10"
   gridtolerance="10"
   guidetolerance="10"
   inkscape:pageopacity="0"
   inkscape:pageshadow="2"
   inkscape:window-width="1078"
   inkscape:window-height="812"
   id="namedview1836"
   showgrid="false"
   inkscape:zoom="1.2246094"
   inkscape:cx="256"
   inkscape:cy="256"
   inkscape:window-x="0"
   inkscape:window-y="23"
   inkscape:window-maximized="0"
   inkscape:current-layer="Layer_1" />
<path
   style="fill:#41479b"
   d="M 473.655,335.448 H 38.345 C 17.167,335.448 0,318.281 0,297.103 V 38.345 C 0,17.168 17.167,0 38.345,0 h 435.31 C 494.832,0 512,17.167 512,38.345 v 258.759 c 0,21.177 -17.167,38.344 -38.345,38.344 z"
   id="path1787" />
<g
   id="g1793"
   transform="translate(0,-88.276)">
	<path
   style="fill:#ffe15a"
   d="M 476.69,370.759 H 123.586 c -4.875,0 -8.828,-3.953 -8.828,-8.828 v 0 c 0,-4.875 3.953,-8.828 8.828,-8.828 H 476.69 l 8.828,8.828 z"
   id="path1789" />
	<path
   style="fill:#ffe15a"
   d="M 481.103,344.276 H 123.586 c 0,0 141.241,-158.897 273.655,-194.207 0,0 -44.138,114.759 61.793,185.379 h 22.069 c 2.438,0 4.414,1.976 4.414,4.414 v 0 c 0,2.438 -1.975,4.414 -4.414,4.414 z"
   id="path1791" />
</g>
<g
   id="g1803"
   transform="translate(0,-88.276)">
	<path
   style="fill:#f5f5f5"
   d="m 108.162,293.173 3.425,10.271 10.826,0.084 c 1.401,0.011 1.983,1.8 0.855,2.632 l -8.71,6.431 3.266,10.323 c 0.423,1.336 -1.099,2.442 -2.239,1.626 l -8.808,-6.295 -8.808,6.295 c -1.14,0.815 -2.662,-0.29 -2.239,-1.626 l 3.266,-10.323 -8.71,-6.431 c -1.128,-0.833 -0.546,-2.622 0.855,-2.632 l 10.826,-0.084 3.425,-10.271 c 0.445,-1.33 2.327,-1.33 2.77,0 z"
   id="path1795" />
	<path
   style="fill:#f5f5f5"
   d="m 107.901,151.97 2.778,8.332 8.783,0.068 c 1.138,0.009 1.609,1.46 0.694,2.135 l -7.065,5.218 2.649,8.374 c 0.343,1.085 -0.892,1.981 -1.816,1.32 l -7.146,-5.108 -7.146,5.108 c -0.925,0.661 -2.159,-0.236 -1.816,-1.32 l 2.649,-8.374 -7.065,-5.218 c -0.915,-0.675 -0.444,-2.126 0.694,-2.135 l 8.783,-0.068 2.778,-8.332 c 0.36,-1.078 1.886,-1.078 2.246,0 z"
   id="path1797" />
	<path
   style="fill:#f5f5f5"
   d="m 41.359,203.53 2.778,8.332 8.783,0.068 c 1.138,0.009 1.609,1.46 0.694,2.135 l -7.065,5.218 2.649,8.374 c 0.343,1.085 -0.892,1.981 -1.816,1.32 l -7.146,-5.108 -7.146,5.108 c -0.925,0.661 -2.159,-0.236 -1.816,-1.32 l 2.649,-8.374 -7.065,-5.218 c -0.915,-0.675 -0.444,-2.126 0.694,-2.135 l 8.783,-0.068 2.778,-8.332 c 0.361,-1.079 1.887,-1.079 2.246,0 z"
   id="path1799" />
	<path
   style="fill:#f5f5f5"
   d="m 155.489,200.014 2.138,6.412 6.759,0.052 c 0.875,0.007 1.238,1.123 0.534,1.643 l -5.438,4.015 2.039,6.444 c 0.264,0.834 -0.686,1.525 -1.398,1.015 l -5.498,-3.93 -5.498,3.93 c -0.712,0.509 -1.662,-0.181 -1.398,-1.015 l 2.039,-6.444 -5.438,-4.015 c -0.704,-0.52 -0.341,-1.636 0.534,-1.643 l 6.759,-0.052 2.138,-6.412 c 0.277,-0.829 1.451,-0.829 1.728,0 z"
   id="path1801" />
</g>
<g
   id="g1805"
   transform="translate(0,-88.276)">
</g>
<g
   id="g1807"
   transform="translate(0,-88.276)">
</g>
<g
   id="g1809"
   transform="translate(0,-88.276)">
</g>
<g
   id="g1811"
   transform="translate(0,-88.276)">
</g>
<g
   id="g1813"
   transform="translate(0,-88.276)">
</g>
<g
   id="g1815"
   transform="translate(0,-88.276)">
</g>
<g
   id="g1817"
   transform="translate(0,-88.276)">
</g>
<g
   id="g1819"
   transform="translate(0,-88.276)">
</g>
<g
   id="g1821"
   transform="translate(0,-88.276)">
</g>
<g
   id="g1823"
   transform="translate(0,-88.276)">
</g>
<g
   id="g1825"
   transform="translate(0,-88.276)">
</g>
<g
   id="g1827"
   transform="translate(0,-88.276)">
</g>
<g
   id="g1829"
   transform="translate(0,-88.276)">
</g>
<g
   id="g1831"
   transform="translate(0,-88.276)">
</g>
<g
   id="g1833"
   transform="translate(0,-88.276)">
</g>
</svg>
