<?xml version="1.0" encoding="UTF-8" standalone="no"?>
<svg
   xmlns:dc="http://purl.org/dc/elements/1.1/"
   xmlns:cc="http://creativecommons.org/ns#"
   xmlns:rdf="http://www.w3.org/1999/02/22-rdf-syntax-ns#"
   xmlns:svg="http://www.w3.org/2000/svg"
   xmlns="http://www.w3.org/2000/svg"
   xmlns:sodipodi="http://sodipodi.sourceforge.net/DTD/sodipodi-0.dtd"
   xmlns:inkscape="http://www.inkscape.org/namespaces/inkscape"
   version="1.1"
   id="Layer_1"
   x="0px"
   y="0px"
   viewBox="0 0 512.064 335.45"
   xml:space="preserve"
   sodipodi:docname="tl.svg"
   width="512.06403"
   height="335.45001"
   inkscape:version="1.0.1 (c497b03c, 2020-09-10)"><metadata
   id="metadata53"><rdf:RDF><cc:Work
       rdf:about=""><dc:format>image/svg+xml</dc:format><dc:type
         rdf:resource="http://purl.org/dc/dcmitype/StillImage" /><dc:title></dc:title></cc:Work></rdf:RDF></metadata><defs
   id="defs51" /><sodipodi:namedview
   pagecolor="#ffffff"
   bordercolor="#666666"
   borderopacity="1"
   objecttolerance="10"
   gridtolerance="10"
   guidetolerance="10"
   inkscape:pageopacity="0"
   inkscape:pageshadow="2"
   inkscape:window-width="2560"
   inkscape:window-height="984"
   id="namedview49"
   showgrid="false"
   inkscape:zoom="1.6404199"
   inkscape:cx="110.0328"
   inkscape:cy="256.032"
   inkscape:window-x="0"
   inkscape:window-y="23"
   inkscape:window-maximized="1"
   inkscape:current-layer="Layer_1" />
<path
   style="fill:#ff4b55"
   d="M 473.792,335.488 H 38.336 C 17.216,335.488 0,318.4 0,297.152 V 38.336 C 0,17.152 17.216,0 38.336,0 h 435.392 c 21.184,0 38.336,17.216 38.336,38.336 v 258.88 c 0.064,21.184 -17.152,38.272 -38.272,38.272 z"
   id="path10" />
<path
   style="fill:#ffe15a"
   d="M 14.592,327.296 287.424,173.248 c 4.288,-2.432 4.288,-8.576 0,-11.008 L 14.592,8.192 C 5.696,15.168 0,26.112 0,38.272 v 258.88 c 0,12.224 5.696,23.104 14.592,30.144 z"
   id="path12" />
<path
   style="fill:#464655"
   d="M 12.224,325.184 195.776,173.76 c 3.776,-3.072 3.776,-9.024 0,-12.096 L 12.224,10.304 C 4.736,17.344 0,27.328 0,38.336 v 258.88 c 0,11.072 4.736,20.928 12.224,27.968 z"
   id="path14" />
<path
   style="fill:#f5f5f5"
   d="m 55.104,126.208 0.832,31.808 -29.824,11.072 c -2.88,1.088 -2.688,5.12 0.192,6.016 l 30.528,9.024 1.28,31.808 c 0.128,3.008 4.096,4.224 5.824,1.728 L 81.92,191.488 112.512,200 c 2.88,0.832 5.184,-2.624 3.392,-4.992 l -19.328,-25.216 17.6,-26.496 c 1.728,-2.496 -0.832,-5.824 -3.712,-4.672 L 80.448,149.248 60.8,124.224 c -1.856,-2.368 -5.696,-0.96 -5.696,1.984 z"
   id="path16" />
<g
   id="g18">
</g>
<g
   id="g20">
</g>
<g
   id="g22">
</g>
<g
   id="g24">
</g>
<g
   id="g26">
</g>
<g
   id="g28">
</g>
<g
   id="g30">
</g>
<g
   id="g32">
</g>
<g
   id="g34">
</g>
<g
   id="g36">
</g>
<g
   id="g38">
</g>
<g
   id="g40">
</g>
<g
   id="g42">
</g>
<g
   id="g44">
</g>
<g
   id="g46">
</g>
</svg>
