<?xml version="1.0" encoding="UTF-8" standalone="no"?>
<svg
   xmlns:dc="http://purl.org/dc/elements/1.1/"
   xmlns:cc="http://creativecommons.org/ns#"
   xmlns:rdf="http://www.w3.org/1999/02/22-rdf-syntax-ns#"
   xmlns:svg="http://www.w3.org/2000/svg"
   xmlns="http://www.w3.org/2000/svg"
   xmlns:sodipodi="http://sodipodi.sourceforge.net/DTD/sodipodi-0.dtd"
   xmlns:inkscape="http://www.inkscape.org/namespaces/inkscape"
   version="1.1"
   id="Layer_1"
   x="0px"
   y="0px"
   viewBox="0 0 512 335.45001"
   xml:space="preserve"
   sodipodi:docname="tm.svg"
   width="512"
   height="335.45001"
   inkscape:version="1.0.1 (c497b03c, 2020-09-10)"><metadata
   id="metadata2199"><rdf:RDF><cc:Work
       rdf:about=""><dc:format>image/svg+xml</dc:format><dc:type
         rdf:resource="http://purl.org/dc/dcmitype/StillImage" /><dc:title></dc:title></cc:Work></rdf:RDF></metadata><defs
   id="defs2197" /><sodipodi:namedview
   pagecolor="#ffffff"
   bordercolor="#666666"
   borderopacity="1"
   objecttolerance="10"
   gridtolerance="10"
   guidetolerance="10"
   inkscape:pageopacity="0"
   inkscape:pageshadow="2"
   inkscape:window-width="1260"
   inkscape:window-height="913"
   id="namedview2195"
   showgrid="false"
   inkscape:zoom="1.2207031"
   inkscape:cx="256"
   inkscape:cy="256"
   inkscape:window-x="0"
   inkscape:window-y="23"
   inkscape:window-maximized="0"
   inkscape:current-layer="Layer_1" />
<path
   style="fill:#73af00"
   d="M 473.655,335.448 H 38.345 C 17.167,335.448 0,318.281 0,297.103 V 38.345 C 0,17.168 17.167,0 38.345,0 h 435.31 C 494.832,0 512,17.167 512,38.345 v 258.759 c 0,21.177 -17.167,38.344 -38.345,38.344 z"
   id="path2064" />
<rect
   x="70.620003"
   y="0.0040004272"
   style="fill:#ff4b55"
   width="88.279999"
   height="335.45001"
   id="rect2066" />
<polygon
   style="fill:#f5f5f5"
   points="97.102,141.238 79.447,126.526 79.447,111.813 97.102,97.1 132.413,97.1 150.068,111.813 150.068,126.526 132.413,141.238 "
   id="polygon2068"
   transform="translate(0,-88.273)" />
<g
   id="g2076"
   transform="translate(0,-88.273)">
	<polygon
   style="fill:#73af00"
   points="97.102,264.825 79.447,250.112 79.447,235.399 97.102,220.687 132.413,220.687 150.068,235.399 150.068,250.112 132.413,264.825 "
   id="polygon2070" />
	<polygon
   style="fill:#73af00"
   points="97.102,203.031 79.447,188.319 79.447,173.606 97.102,158.894 132.413,158.894 150.068,173.606 150.068,188.319 132.413,203.031 "
   id="polygon2072" />
	<polygon
   style="fill:#73af00"
   points="97.102,326.618 79.447,311.905 79.447,297.192 97.102,282.48 132.413,282.48 150.068,297.192 150.068,311.905 132.413,326.618 "
   id="polygon2074" />
</g>
<g
   id="g2100"
   transform="translate(0,-88.273)">
	<polygon
   style="fill:#ffb400"
   points="70.62,167.721 70.62,132.411 88.275,150.066 "
   id="polygon2078" />
	<polygon
   style="fill:#ffb400"
   points="158.895,132.411 158.895,167.721 141.24,150.066 "
   id="polygon2080" />
	<polygon
   style="fill:#ffb400"
   points="70.62,229.514 70.62,194.204 88.275,211.859 "
   id="polygon2082" />
	<polygon
   style="fill:#ffb400"
   points="158.895,194.204 158.895,229.514 141.24,211.859 "
   id="polygon2084" />
	<polygon
   style="fill:#ffb400"
   points="70.62,291.307 70.62,255.997 88.275,273.652 "
   id="polygon2086" />
	<polygon
   style="fill:#ffb400"
   points="158.895,255.997 158.895,291.307 141.24,273.652 "
   id="polygon2088" />
	<polygon
   style="fill:#ffb400"
   points="70.62,353.1 70.62,317.79 88.275,335.445 "
   id="polygon2090" />
	<polygon
   style="fill:#ffb400"
   points="158.895,317.79 158.895,353.1 141.24,335.445 "
   id="polygon2092" />
	<polygon
   style="fill:#ffb400"
   points="70.62,105.928 70.62,88.273 88.275,88.273 "
   id="polygon2094" />
	<polygon
   style="fill:#ffb400"
   points="158.895,88.273 158.895,105.928 141.24,88.273 "
   id="polygon2096" />
	<rect
   x="110.34"
   y="158.897"
   style="fill:#ffb400"
   width="8.8280001"
   height="44.139999"
   id="rect2098" />
</g>
<rect
   x="97.099998"
   y="88.273994"
   style="fill:#ff4b55"
   width="35.310001"
   height="8.8280001"
   id="rect2102" />
<g
   id="g2112"
   transform="translate(0,-88.273)">
	<polygon
   style="fill:#ffb400"
   points="132.413,203.031 141.24,195.675 141.24,166.249 132.413,158.894 "
   id="polygon2104" />
	<polygon
   style="fill:#ffb400"
   points="97.102,158.894 88.275,166.249 88.275,195.675 97.102,203.03 "
   id="polygon2106" />
	<polygon
   style="fill:#ffb400"
   points="79.447,111.813 79.447,119.169 114.758,119.169 114.758,97.1 97.102,97.1 "
   id="polygon2108" />
	<polygon
   style="fill:#ffb400"
   points="150.068,126.526 150.068,119.169 114.758,119.169 114.758,141.238 132.412,141.238 "
   id="polygon2110" />
</g>
<polygon
   style="fill:#ff4b55"
   points="114.758,105.928 132.413,119.221 114.758,132.411 97.102,119.221 "
   id="polygon2114"
   transform="translate(0,-88.273)" />
<g
   id="g2120"
   transform="translate(0,-88.273)">
	<polygon
   style="fill:#73af00"
   points="132.343,119.169 114.758,119.169 114.758,132.411 132.413,119.221 "
   id="polygon2116" />
	<polygon
   style="fill:#73af00"
   points="97.171,119.169 114.758,119.169 114.758,105.928 "
   id="polygon2118" />
</g>
<rect
   x="97.099998"
   y="141.244"
   style="fill:#ff4b55"
   width="35.310001"
   height="26.483"
   id="rect2122" />
<rect
   x="132.41"
   y="150.06401"
   style="fill:#ffb400"
   width="8.8280001"
   height="8.8280001"
   id="rect2124" />
<rect
   x="110.34"
   y="150.06401"
   style="fill:#f5f5f5"
   width="8.8280001"
   height="8.8280001"
   id="rect2126" />
<rect
   x="110.34"
   y="203.03401"
   style="fill:#ff4b55"
   width="8.8280001"
   height="8.8280001"
   id="rect2128" />
<g
   id="g2134"
   transform="translate(0,-88.273)">
	<rect
   x="123.59"
   y="300.13699"
   style="fill:#ffb400"
   width="8.8280001"
   height="8.8280001"
   id="rect2130" />
	<rect
   x="97.099998"
   y="300.13699"
   style="fill:#ffb400"
   width="8.8280001"
   height="8.8280001"
   id="rect2132" />
</g>
<rect
   x="110.34"
   y="220.69402"
   style="fill:#ff4b55"
   width="8.8280001"
   height="8.8280001"
   id="rect2136" />
<rect
   x="88.279999"
   y="150.06401"
   style="fill:#ffb400"
   width="8.8280001"
   height="8.8280001"
   id="rect2138" />
<polygon
   style="fill:#f5f5f5"
   points="97.102,388.411 79.447,373.699 79.447,358.985 97.102,344.273 132.413,344.273 150.068,358.985 150.068,373.699 132.413,388.411 "
   id="polygon2140"
   transform="translate(0,-88.273)" />
<g
   id="g2146"
   transform="translate(0,-88.273)">
	<polygon
   style="fill:#ffb400"
   points="79.447,358.985 79.447,366.342 114.758,366.342 114.758,344.273 97.102,344.273 "
   id="polygon2142" />
	<polygon
   style="fill:#ffb400"
   points="150.068,373.699 150.068,366.342 114.758,366.342 114.758,388.411 132.412,388.411 "
   id="polygon2144" />
</g>
<polygon
   style="fill:#ff4b55"
   points="97.102,370.756 97.102,361.928 114.758,353.1 132.413,361.928 132.413,370.756 114.758,379.583 "
   id="polygon2148"
   transform="translate(0,-88.273)" />
<g
   id="g2162"
   transform="translate(0,-88.273)">
	<path
   style="fill:#f5f5f5"
   d="m 280.009,136.34 c -0.94,-0.462 -1.791,0.761 -1.028,1.48 9.99,9.427 16.303,22.666 16.303,37.433 0,29.007 -23.316,52.279 -51.986,52.279 -5.292,0 -10.389,-0.825 -15.197,-2.328 -0.996,-0.311 -1.641,1.025 -0.783,1.621 8.382,5.827 18.485,9.31 29.514,9.31 29.049,0 52.787,-23.275 52.787,-52.703 0,-20.682 -12.139,-38.505 -29.61,-47.092 z"
   id="path2150" />
	<path
   style="fill:#f5f5f5"
   d="m 208.171,170.399 -2.159,6.109 5.08,4.021 c 0.658,0.521 0.275,1.579 -0.564,1.557 l -6.477,-0.167 -2.254,6.074 c -0.292,0.787 -1.417,0.749 -1.655,-0.055 l -1.843,-6.211 -6.474,-0.267 c -0.839,-0.034 -1.15,-1.116 -0.459,-1.591 l 5.338,-3.672 -1.747,-6.24 c -0.226,-0.808 0.706,-1.439 1.372,-0.928 l 5.142,3.942 5.395,-3.59 c 0.697,-0.464 1.585,0.228 1.305,1.018 z"
   id="path2152" />
	<path
   style="fill:#f5f5f5"
   d="m 234.407,183.649 -2.159,6.109 5.08,4.021 c 0.658,0.521 0.275,1.579 -0.564,1.557 l -6.477,-0.167 -2.254,6.074 c -0.292,0.787 -1.417,0.749 -1.655,-0.055 l -1.843,-6.211 -6.474,-0.267 c -0.839,-0.034 -1.15,-1.116 -0.459,-1.591 l 5.338,-3.672 -1.747,-6.24 c -0.226,-0.808 0.706,-1.439 1.372,-0.928 l 5.142,3.942 5.395,-3.59 c 0.696,-0.464 1.584,0.227 1.305,1.018 z"
   id="path2154" />
	<path
   style="fill:#f5f5f5"
   d="m 234.142,156.355 -2.159,6.109 5.08,4.021 c 0.658,0.521 0.275,1.579 -0.564,1.557 l -6.477,-0.167 -2.254,6.074 c -0.292,0.787 -1.417,0.749 -1.655,-0.055 l -1.843,-6.211 -6.474,-0.267 c -0.839,-0.034 -1.15,-1.116 -0.459,-1.591 l 5.338,-3.672 -1.747,-6.24 c -0.226,-0.808 0.706,-1.439 1.372,-0.928 l 5.142,3.942 5.395,-3.59 c 0.696,-0.466 1.584,0.226 1.305,1.018 z"
   id="path2156" />
	<path
   style="fill:#f5f5f5"
   d="m 235.034,130.01 -2.159,6.109 5.08,4.021 c 0.658,0.521 0.275,1.579 -0.564,1.557 l -6.477,-0.167 -2.254,6.074 c -0.292,0.787 -1.417,0.749 -1.655,-0.055 l -1.843,-6.211 -6.474,-0.267 c -0.839,-0.034 -1.15,-1.116 -0.459,-1.591 l 5.338,-3.672 -1.747,-6.24 c -0.226,-0.808 0.706,-1.439 1.372,-0.928 l 5.142,3.942 5.395,-3.59 c 0.697,-0.465 1.586,0.227 1.305,1.018 z"
   id="path2158" />
	<path
   style="fill:#f5f5f5"
   d="m 260.739,143.259 -2.159,6.109 5.08,4.021 c 0.658,0.521 0.275,1.579 -0.564,1.557 l -6.477,-0.167 -2.254,6.074 c -0.292,0.787 -1.417,0.749 -1.655,-0.055 l -1.843,-6.211 -6.474,-0.267 c -0.839,-0.034 -1.15,-1.116 -0.459,-1.591 l 5.338,-3.672 -1.747,-6.24 c -0.226,-0.808 0.706,-1.439 1.372,-0.928 l 5.142,3.942 5.395,-3.59 c 0.697,-0.464 1.586,0.228 1.305,1.018 z"
   id="path2160" />
</g>
<g
   id="g2164"
   transform="translate(0,-88.273)">
</g>
<g
   id="g2166"
   transform="translate(0,-88.273)">
</g>
<g
   id="g2168"
   transform="translate(0,-88.273)">
</g>
<g
   id="g2170"
   transform="translate(0,-88.273)">
</g>
<g
   id="g2172"
   transform="translate(0,-88.273)">
</g>
<g
   id="g2174"
   transform="translate(0,-88.273)">
</g>
<g
   id="g2176"
   transform="translate(0,-88.273)">
</g>
<g
   id="g2178"
   transform="translate(0,-88.273)">
</g>
<g
   id="g2180"
   transform="translate(0,-88.273)">
</g>
<g
   id="g2182"
   transform="translate(0,-88.273)">
</g>
<g
   id="g2184"
   transform="translate(0,-88.273)">
</g>
<g
   id="g2186"
   transform="translate(0,-88.273)">
</g>
<g
   id="g2188"
   transform="translate(0,-88.273)">
</g>
<g
   id="g2190"
   transform="translate(0,-88.273)">
</g>
<g
   id="g2192"
   transform="translate(0,-88.273)">
</g>
</svg>
