<svg xmlns="http://www.w3.org/2000/svg" xml:space="preserve" width="512" height="335.45001"><path style="fill:#73af00" d="M473.655 335.448H38.345C17.167 335.448 0 318.281 0 297.103V38.345C0 17.168 17.167 0 38.345 0h435.31C494.832 0 512 17.167 512 38.345v258.759c0 21.177-17.167 38.344-38.345 38.344z"/><path style="fill:#ff4b55" d="M70.62.004h88.28v335.45001H70.62z"/><path style="fill:#f5f5f5" transform="translate(0 -88.273)" d="m97.102 141.238-17.655-14.712v-14.713L97.102 97.1h35.311l17.655 14.713v14.713l-17.655 14.712z"/><path style="fill:#73af00" d="m97.102 264.825-17.655-14.713v-14.713l17.655-14.712h35.311l17.655 14.712v14.713l-17.655 14.713zm0-61.794-17.655-14.712v-14.713l17.655-14.712h35.311l17.655 14.712v14.713l-17.655 14.712zm0 123.587-17.655-14.713v-14.713l17.655-14.712h35.311l17.655 14.712v14.713l-17.655 14.713z" transform="translate(0 -88.273)"/><path style="fill:#ffb400" d="M70.62 167.721v-35.31l17.655 17.655zm88.275-35.31v35.31l-17.655-17.655zM70.62 229.514v-35.31l17.655 17.655zm88.275-35.31v35.31l-17.655-17.655zM70.62 291.307v-35.31l17.655 17.655zm88.275-35.31v35.31l-17.655-17.655zM70.62 353.1v-35.31l17.655 17.655zm88.275-35.31v35.31l-17.655-17.655zM70.62 105.928V88.273h17.655zm88.275-17.655v17.655L141.24 88.273zm-48.555 70.624h8.828v44.14h-8.828z" transform="translate(0 -88.273)"/><path style="fill:#ff4b55" d="M97.1 88.27399h35.31v8.828H97.1z"/><path style="fill:#ffb400" d="m132.413 203.031 8.827-7.356v-29.426l-8.827-7.355zm-35.311-44.137-8.827 7.355v29.426l8.827 7.355zm-17.655-47.081v7.356h35.311V97.1H97.102zm70.621 14.713v-7.357h-35.31v22.069h17.654z" transform="translate(0 -88.273)"/><path style="fill:#ff4b55" transform="translate(0 -88.273)" d="m114.758 105.928 17.655 13.293-17.655 13.19-17.656-13.19z"/><path style="fill:#73af00" d="M132.343 119.169h-17.585v13.242l17.655-13.19zm-35.172 0h17.587v-13.241z" transform="translate(0 -88.273)"/><path style="fill:#ff4b55" d="M97.1 141.244h35.31v26.483H97.1z"/><path style="fill:#ffb400" d="M132.41 150.06401h8.828v8.828h-8.828z"/><path style="fill:#f5f5f5" d="M110.34 150.06401h8.828v8.828h-8.828z"/><path style="fill:#ff4b55" d="M110.34 203.03401h8.828v8.828h-8.828z"/><path style="fill:#ffb400" d="M123.59 300.13699h8.828v8.828h-8.828zm-26.49 0h8.828v8.828H97.1z" transform="translate(0 -88.273)"/><path style="fill:#ff4b55" d="M110.34 220.69402h8.828v8.828h-8.828z"/><path style="fill:#ffb400" d="M88.28 150.06401h8.828v8.828H88.28z"/><path style="fill:#f5f5f5" transform="translate(0 -88.273)" d="m97.102 388.411-17.655-14.712v-14.714l17.655-14.712h35.311l17.655 14.712v14.714l-17.655 14.712z"/><path style="fill:#ffb400" d="M79.447 358.985v7.357h35.311v-22.069H97.102zm70.621 14.714v-7.357h-35.31v22.069h17.654z" transform="translate(0 -88.273)"/><path style="fill:#ff4b55" transform="translate(0 -88.273)" d="M97.102 370.756v-8.828l17.656-8.828 17.655 8.828v8.828l-17.655 8.827z"/><path style="fill:#f5f5f5" d="M280.009 136.34c-.94-.462-1.791.761-1.028 1.48 9.99 9.427 16.303 22.666 16.303 37.433 0 29.007-23.316 52.279-51.986 52.279-5.292 0-10.389-.825-15.197-2.328-.996-.311-1.641 1.025-.783 1.621 8.382 5.827 18.485 9.31 29.514 9.31 29.049 0 52.787-23.275 52.787-52.703 0-20.682-12.139-38.505-29.61-47.092zm-71.838 34.059-2.159 6.109 5.08 4.021c.658.521.275 1.579-.564 1.557l-6.477-.167-2.254 6.074c-.292.787-1.417.749-1.655-.055l-1.843-6.211-6.474-.267c-.839-.034-1.15-1.116-.459-1.591l5.338-3.672-1.747-6.24c-.226-.808.706-1.439 1.372-.928l5.142 3.942 5.395-3.59c.697-.464 1.585.228 1.305 1.018zm26.236 13.25-2.159 6.109 5.08 4.021c.658.521.275 1.579-.564 1.557l-6.477-.167-2.254 6.074c-.292.787-1.417.749-1.655-.055l-1.843-6.211-6.474-.267c-.839-.034-1.15-1.116-.459-1.591l5.338-3.672-1.747-6.24c-.226-.808.706-1.439 1.372-.928l5.142 3.942 5.395-3.59c.696-.464 1.584.227 1.305 1.018zm-.265-27.294-2.159 6.109 5.08 4.021c.658.521.275 1.579-.564 1.557l-6.477-.167-2.254 6.074c-.292.787-1.417.749-1.655-.055l-1.843-6.211-6.474-.267c-.839-.034-1.15-1.116-.459-1.591l5.338-3.672-1.747-6.24c-.226-.808.706-1.439 1.372-.928l5.142 3.942 5.395-3.59c.696-.466 1.584.226 1.305 1.018zm.892-26.345-2.159 6.109 5.08 4.021c.658.521.275 1.579-.564 1.557l-6.477-.167-2.254 6.074c-.292.787-1.417.749-1.655-.055l-1.843-6.211-6.474-.267c-.839-.034-1.15-1.116-.459-1.591l5.338-3.672-1.747-6.24c-.226-.808.706-1.439 1.372-.928l5.142 3.942 5.395-3.59c.697-.465 1.586.227 1.305 1.018zm25.705 13.249-2.159 6.109 5.08 4.021c.658.521.275 1.579-.564 1.557l-6.477-.167-2.254 6.074c-.292.787-1.417.749-1.655-.055l-1.843-6.211-6.474-.267c-.839-.034-1.15-1.116-.459-1.591l5.338-3.672-1.747-6.24c-.226-.808.706-1.439 1.372-.928l5.142 3.942 5.395-3.59c.697-.464 1.586.228 1.305 1.018z" transform="translate(0 -88.273)"/></svg>