<svg version="1.1" id="Layer_1" xmlns="http://www.w3.org/2000/svg" x="0" y="0" viewBox="0 0 512.09998 335.5" style="enable-background:new 0 0 512.0999756 335.5" xml:space="preserve"><style>.st1{fill:#fff}</style><path d="M0 36.34584v262.80829C0 319.2269 16.5593 335.5 36.98504 335.5h438.12989c20.42575 0 36.98504-16.2731 36.98504-36.34586V36.34584C512.09997 16.2731 495.54068 0 475.11493 0H36.98504C16.5593 0 0 16.27209 0 36.34584z" style="fill:#ed1f34"/><path class="st1" d="M208.8226 250.70659c-46.62173 0-84.41602-37.14111-84.41602-82.9571S162.20087 84.7924 208.8226 84.7924c22.99098 0 43.82396 9.04559 59.04895 23.69564-20.1808-31.88907-56.14471-53.13085-97.17192-53.13085-63.16448 0-114.36889 50.31947-114.36889 112.3923s51.20442 112.3923 114.3689 112.3923c41.0272 0 76.99006-21.2428 97.17191-53.13189-15.22397 14.6511-36.05795 23.69669-59.04895 23.69669zM278.40326 167.7495l33.29947-12.53443 1.83972-34.99499 22.42047 27.24949 34.4353-9.09434-19.44287 29.37427 19.44287 29.37425-34.4353-9.09432-22.42047 27.24947-1.83972-34.99498z"/></svg>