<svg xmlns="http://www.w3.org/2000/svg" xml:space="preserve" width="512" height="335.45001"><path style="fill:#ff4b55" d="M473.655 335.448H38.345C17.167 335.448 0 318.281 0 297.103V38.345C0 17.168 17.167 0 38.345 0h435.31C494.832 0 512 17.167 512 38.345v258.759c0 21.177-17.167 38.344-38.345 38.344z"/><path style="fill:#f5f5f5" d="m11.668 99.091 350.263 324.633h26.483L28.014 89.695c-6.235 1.741-11.826 5.015-16.346 9.396zm488.664 313.818L150.069 88.276h-26.483l360.399 334.029c6.236-1.741 11.827-5.015 16.347-9.396z" transform="translate(0 -88.276)"/><path style="fill:#464655" transform="translate(0 -88.276)" d="M485.517 423.724 123.586 88.276H26.483l361.931 335.448z"/></svg>