<svg xmlns="http://www.w3.org/2000/svg" xml:space="preserve" width="512" height="335.45001"><path style="fill:#82afff" d="M473.885.001H38.115C17.045.124 0 17.239 0 38.339v258.759c0 21.177 17.167 38.345 38.345 38.345h435.31c21.177 0 38.345-17.167 38.345-38.345V38.339c0-21.1-17.045-38.215-38.115-38.338z"/><path style="fill:#41479b" d="M8.828 167.725h238.345c4.875 0 8.828-3.953 8.828-8.828V8.828c0-4.875-3.953-8.828-8.828-8.828H38.115C17.045.124 0 17.239 0 38.339v120.557c0 4.876 3.953 8.829 8.828 8.829z"/><path style="fill:#f5f5f5" d="M8.828 167.725h15.334l81.77-53.574v53.574h44.138v-53.574l81.77 53.574h15.334c4.875 0 8.828-3.953 8.828-8.828v-7.002l-70.155-45.963H256V61.794h-70.155L256 15.83V8.828C256 3.953 252.047 0 247.172 0h-15.334l-81.77 53.574V.001H105.93v53.574L26.837 1.755c-9.231 2.9-16.951 9.204-21.707 17.436l65.025 42.603H0v44.138h70.155L0 151.895v7.002c0 4.875 3.953 8.828 8.828 8.828z"/><path style="fill:#ff4b55" d="M141.241 88.279h-26.482v70.62H0v26.483h114.759v70.621h26.482v-70.621H256v-26.483H141.241z" transform="translate(0 -88.278)"/><path style="fill:#ff4b55" d="m8.226 102.904 72.664 47.168h16.213L14.606 96.52c-2.369 1.871-4.511 4.015-6.38 6.384zm158.057 47.168 88.374-57.366c-1.536-2.599-4.246-4.427-7.485-4.427h-1.909l-95.194 61.793zM89.474 194.21 1.269 251.464c1.519 2.663 4.273 4.537 7.559 4.537h1.665l95.196-61.793H89.474zm166.386 53.658-82.666-53.658H156.98l93.874 60.935c2.812-1.306 4.741-4.04 5.006-7.277z" transform="translate(0 -88.278)"/><path style="fill:#ffe15a" d="m218.666 353.365-4.726 14.169-14.936.116c-1.432.011-2.026 1.839-.874 2.69l12.015 8.873-4.505 14.241c-.433 1.366 1.123 2.495 2.289 1.663l12.152-8.685 12.152 8.685c1.165.833 2.72-.297 2.289-1.663l-4.505-14.241 12.015-8.873c1.152-.851.558-2.679-.874-2.69l-14.936-.116-4.726-14.169c-.454-1.359-2.377-1.359-2.83 0zM448.735 243.02l-4.726 14.169-14.936.116c-1.432.011-2.026 1.839-.874 2.69l12.015 8.873-4.505 14.241c-.433 1.366 1.123 2.495 2.289 1.663l12.152-8.685 12.152 8.685c1.165.833 2.72-.297 2.289-1.663l-4.505-14.241 12.015-8.873c1.152-.851.558-2.679-.874-2.69l-14.936-.116-4.726-14.169c-.454-1.359-2.377-1.359-2.83 0zm0-119.173-4.726 14.169-14.936.116c-1.432.011-2.026 1.839-.874 2.69l12.015 8.873-4.505 14.241c-.433 1.366 1.123 2.495 2.289 1.663l12.152-8.685 12.152 8.685c1.165.833 2.72-.297 2.289-1.663l-4.505-14.241 12.015-8.873c1.152-.851.558-2.679-.874-2.69l-14.936-.116-4.726-14.169c-.454-1.358-2.377-1.358-2.83 0zM277.812 278.818l4.665 14.189-11.915 9.007c-1.142.864-.529 2.685.904 2.68l14.936-.052 4.885 14.115c.469 1.354 2.39 1.332 2.828-.032l4.566-14.222 14.934-.284c1.432-.028 2.005-1.862.844-2.699l-12.115-8.737 4.345-14.291c.417-1.37-1.151-2.483-2.306-1.636l-12.053 8.822-12.248-8.548c-1.176-.819-2.718.327-2.27 1.688zm-1.104 61.241 4.665 14.189-11.915 9.007c-1.142.864-.529 2.685.904 2.68l14.936-.052 4.885 14.115c.469 1.354 2.39 1.332 2.828-.032l4.566-14.222 14.934-.284c1.432-.028 2.005-1.862.844-2.699l-12.115-8.737 4.345-14.291c.417-1.37-1.151-2.483-2.306-1.636l-12.053 8.822-12.248-8.548c-1.175-.819-2.718.328-2.27 1.688zm64.552-15.448 4.665 14.189-11.915 9.007c-1.142.864-.529 2.685.904 2.68l14.936-.052 4.885 14.115c.469 1.354 2.39 1.332 2.828-.032l4.566-14.222 14.934-.284c1.432-.028 2.005-1.862.844-2.699l-12.115-8.737 4.345-14.291c.417-1.37-1.151-2.483-2.306-1.636l-12.053 8.822-12.248-8.548c-1.175-.819-2.718.327-2.27 1.688zm-1.103-133.517 4.665 14.189-11.915 9.007c-1.142.864-.529 2.685.904 2.68l14.936-.052 4.885 14.115c.469 1.354 2.39 1.332 2.828-.032l4.566-14.222 14.934-.284c1.432-.028 2.005-1.862.844-2.699l-12.115-8.737 4.345-14.291c.417-1.37-1.151-2.483-2.306-1.636l-12.053 8.822-12.248-8.548c-1.176-.819-2.718.327-2.27 1.688zm54.62-18.207 4.665 14.189-11.915 9.007c-1.142.864-.529 2.685.904 2.68l14.936-.052 4.885 14.115c.469 1.354 2.39 1.332 2.828-.032l4.566-14.222 14.934-.284c1.432-.028 2.005-1.862.844-2.699l-12.115-8.737 4.345-14.291c.417-1.37-1.151-2.483-2.306-1.636l-12.053 8.822-12.248-8.548c-1.175-.819-2.718.327-2.27 1.688z" transform="translate(0 -88.278)"/></svg>