<?xml version="1.0" encoding="UTF-8" standalone="no"?>
<svg
   xmlns:dc="http://purl.org/dc/elements/1.1/"
   xmlns:cc="http://creativecommons.org/ns#"
   xmlns:rdf="http://www.w3.org/1999/02/22-rdf-syntax-ns#"
   xmlns:svg="http://www.w3.org/2000/svg"
   xmlns="http://www.w3.org/2000/svg"
   xmlns:sodipodi="http://sodipodi.sourceforge.net/DTD/sodipodi-0.dtd"
   xmlns:inkscape="http://www.inkscape.org/namespaces/inkscape"
   version="1.1"
   id="Layer_1"
   x="0px"
   y="0px"
   viewBox="0 0 512 335.45001"
   xml:space="preserve"
   sodipodi:docname="tv.svg"
   width="512"
   height="335.45001"
   inkscape:version="1.0.1 (c497b03c, 2020-09-10)"><metadata
   id="metadata2280"><rdf:RDF><cc:Work
       rdf:about=""><dc:format>image/svg+xml</dc:format><dc:type
         rdf:resource="http://purl.org/dc/dcmitype/StillImage" /><dc:title></dc:title></cc:Work></rdf:RDF></metadata><defs
   id="defs2278" /><sodipodi:namedview
   pagecolor="#ffffff"
   bordercolor="#666666"
   borderopacity="1"
   objecttolerance="10"
   gridtolerance="10"
   guidetolerance="10"
   inkscape:pageopacity="0"
   inkscape:pageshadow="2"
   inkscape:window-width="1111"
   inkscape:window-height="827"
   id="namedview2276"
   showgrid="false"
   inkscape:zoom="1.4589844"
   inkscape:cx="256"
   inkscape:cy="256"
   inkscape:window-x="0"
   inkscape:window-y="23"
   inkscape:window-maximized="0"
   inkscape:current-layer="Layer_1" />
<path
   style="fill:#82afff"
   d="M 473.885,0.001 H 38.115 C 17.045,0.124 0,17.239 0,38.339 v 258.759 c 0,21.177 17.167,38.345 38.345,38.345 h 435.31 c 21.177,0 38.345,-17.167 38.345,-38.345 V 38.339 C 512,17.239 494.955,0.124 473.885,0.001 Z"
   id="path2209" />
<path
   style="fill:#41479b"
   d="m 8.828,167.725 h 238.345 c 4.875,0 8.828,-3.953 8.828,-8.828 V 8.828 C 256.001,3.953 252.048,0 247.173,0 H 38.115 C 17.045,0.124 0,17.239 0,38.339 v 120.557 c 0,4.876 3.953,8.829 8.828,8.829 z"
   id="path2211" />
<path
   style="fill:#f5f5f5"
   d="m 8.828,167.725 h 15.334 l 81.77,-53.574 v 53.574 h 44.138 v -53.574 l 81.77,53.574 h 15.334 c 4.875,0 8.828,-3.953 8.828,-8.828 v -7.002 L 185.847,105.932 H 256 V 61.794 H 185.845 L 256,15.83 V 8.828 C 256,3.953 252.047,0 247.172,0 h -15.334 l -81.77,53.574 V 0.001 H 105.93 V 53.575 L 26.837,1.755 C 17.606,4.655 9.886,10.959 5.13,19.191 L 70.155,61.794 H 0 v 44.138 H 70.155 L 0,151.895 v 7.002 c 0,4.875 3.953,8.828 8.828,8.828 z"
   id="path2213" />
<g
   id="g2225"
   transform="translate(0,-88.278)">
	<polygon
   style="fill:#ff4b55"
   points="141.241,88.279 114.759,88.279 114.759,158.899 0,158.899 0,185.382 114.759,185.382 114.759,256.003 141.241,256.003 141.241,185.382 256,185.382 256,158.899 141.241,158.899 "
   id="polygon2215" />
	<path
   style="fill:#ff4b55"
   d="M 8.226,102.904 80.89,150.072 H 97.103 L 14.606,96.52 c -2.369,1.871 -4.511,4.015 -6.38,6.384 z"
   id="path2217" />
	<path
   style="fill:#ff4b55"
   d="m 166.283,150.072 88.374,-57.366 c -1.536,-2.599 -4.246,-4.427 -7.485,-4.427 h -1.909 l -95.194,61.793 z"
   id="path2219" />
	<path
   style="fill:#ff4b55"
   d="M 89.474,194.21 1.269,251.464 c 1.519,2.663 4.273,4.537 7.559,4.537 h 1.665 l 95.196,-61.793 H 89.474 Z"
   id="path2221" />
	<path
   style="fill:#ff4b55"
   d="M 255.86,247.868 173.194,194.21 H 156.98 l 93.874,60.935 c 2.812,-1.306 4.741,-4.04 5.006,-7.277 z"
   id="path2223" />
</g>
<g
   id="g2243"
   transform="translate(0,-88.278)">
	<path
   style="fill:#ffe15a"
   d="m 218.666,353.365 -4.726,14.169 -14.936,0.116 c -1.432,0.011 -2.026,1.839 -0.874,2.69 l 12.015,8.873 -4.505,14.241 c -0.433,1.366 1.123,2.495 2.289,1.663 l 12.152,-8.685 12.152,8.685 c 1.165,0.833 2.72,-0.297 2.289,-1.663 l -4.505,-14.241 12.015,-8.873 c 1.152,-0.851 0.558,-2.679 -0.874,-2.69 l -14.936,-0.116 -4.726,-14.169 c -0.454,-1.359 -2.377,-1.359 -2.83,0 z"
   id="path2227" />
	<path
   style="fill:#ffe15a"
   d="m 448.735,243.02 -4.726,14.169 -14.936,0.116 c -1.432,0.011 -2.026,1.839 -0.874,2.69 l 12.015,8.873 -4.505,14.241 c -0.433,1.366 1.123,2.495 2.289,1.663 l 12.152,-8.685 12.152,8.685 c 1.165,0.833 2.72,-0.297 2.289,-1.663 l -4.505,-14.241 12.015,-8.873 c 1.152,-0.851 0.558,-2.679 -0.874,-2.69 l -14.936,-0.116 -4.726,-14.169 c -0.454,-1.359 -2.377,-1.359 -2.83,0 z"
   id="path2229" />
	<path
   style="fill:#ffe15a"
   d="m 448.735,123.847 -4.726,14.169 -14.936,0.116 c -1.432,0.011 -2.026,1.839 -0.874,2.69 l 12.015,8.873 -4.505,14.241 c -0.433,1.366 1.123,2.495 2.289,1.663 l 12.152,-8.685 12.152,8.685 c 1.165,0.833 2.72,-0.297 2.289,-1.663 l -4.505,-14.241 12.015,-8.873 c 1.152,-0.851 0.558,-2.679 -0.874,-2.69 l -14.936,-0.116 -4.726,-14.169 c -0.454,-1.358 -2.377,-1.358 -2.83,0 z"
   id="path2231" />
	<path
   style="fill:#ffe15a"
   d="m 277.812,278.818 4.665,14.189 -11.915,9.007 c -1.142,0.864 -0.529,2.685 0.904,2.68 l 14.936,-0.052 4.885,14.115 c 0.469,1.354 2.39,1.332 2.828,-0.032 l 4.566,-14.222 14.934,-0.284 c 1.432,-0.028 2.005,-1.862 0.844,-2.699 l -12.115,-8.737 4.345,-14.291 c 0.417,-1.37 -1.151,-2.483 -2.306,-1.636 l -12.053,8.822 -12.248,-8.548 c -1.176,-0.819 -2.718,0.327 -2.27,1.688 z"
   id="path2233" />
	<path
   style="fill:#ffe15a"
   d="m 276.708,340.059 4.665,14.189 -11.915,9.007 c -1.142,0.864 -0.529,2.685 0.904,2.68 l 14.936,-0.052 4.885,14.115 c 0.469,1.354 2.39,1.332 2.828,-0.032 l 4.566,-14.222 14.934,-0.284 c 1.432,-0.028 2.005,-1.862 0.844,-2.699 l -12.115,-8.737 4.345,-14.291 c 0.417,-1.37 -1.151,-2.483 -2.306,-1.636 l -12.053,8.822 -12.248,-8.548 c -1.175,-0.819 -2.718,0.328 -2.27,1.688 z"
   id="path2235" />
	<path
   style="fill:#ffe15a"
   d="m 341.26,324.611 4.665,14.189 -11.915,9.007 c -1.142,0.864 -0.529,2.685 0.904,2.68 l 14.936,-0.052 4.885,14.115 c 0.469,1.354 2.39,1.332 2.828,-0.032 l 4.566,-14.222 14.934,-0.284 c 1.432,-0.028 2.005,-1.862 0.844,-2.699 l -12.115,-8.737 4.345,-14.291 c 0.417,-1.37 -1.151,-2.483 -2.306,-1.636 l -12.053,8.822 -12.248,-8.548 c -1.175,-0.819 -2.718,0.327 -2.27,1.688 z"
   id="path2237" />
	<path
   style="fill:#ffe15a"
   d="m 340.157,191.094 4.665,14.189 -11.915,9.007 c -1.142,0.864 -0.529,2.685 0.904,2.68 l 14.936,-0.052 4.885,14.115 c 0.469,1.354 2.39,1.332 2.828,-0.032 l 4.566,-14.222 14.934,-0.284 c 1.432,-0.028 2.005,-1.862 0.844,-2.699 l -12.115,-8.737 4.345,-14.291 c 0.417,-1.37 -1.151,-2.483 -2.306,-1.636 l -12.053,8.822 -12.248,-8.548 c -1.176,-0.819 -2.718,0.327 -2.27,1.688 z"
   id="path2239" />
	<path
   style="fill:#ffe15a"
   d="m 394.777,172.887 4.665,14.189 -11.915,9.007 c -1.142,0.864 -0.529,2.685 0.904,2.68 l 14.936,-0.052 4.885,14.115 c 0.469,1.354 2.39,1.332 2.828,-0.032 l 4.566,-14.222 14.934,-0.284 c 1.432,-0.028 2.005,-1.862 0.844,-2.699 l -12.115,-8.737 4.345,-14.291 c 0.417,-1.37 -1.151,-2.483 -2.306,-1.636 l -12.053,8.822 -12.248,-8.548 c -1.175,-0.819 -2.718,0.327 -2.27,1.688 z"
   id="path2241" />
</g>
<g
   id="g2245"
   transform="translate(0,-88.278)">
</g>
<g
   id="g2247"
   transform="translate(0,-88.278)">
</g>
<g
   id="g2249"
   transform="translate(0,-88.278)">
</g>
<g
   id="g2251"
   transform="translate(0,-88.278)">
</g>
<g
   id="g2253"
   transform="translate(0,-88.278)">
</g>
<g
   id="g2255"
   transform="translate(0,-88.278)">
</g>
<g
   id="g2257"
   transform="translate(0,-88.278)">
</g>
<g
   id="g2259"
   transform="translate(0,-88.278)">
</g>
<g
   id="g2261"
   transform="translate(0,-88.278)">
</g>
<g
   id="g2263"
   transform="translate(0,-88.278)">
</g>
<g
   id="g2265"
   transform="translate(0,-88.278)">
</g>
<g
   id="g2267"
   transform="translate(0,-88.278)">
</g>
<g
   id="g2269"
   transform="translate(0,-88.278)">
</g>
<g
   id="g2271"
   transform="translate(0,-88.278)">
</g>
<g
   id="g2273"
   transform="translate(0,-88.278)">
</g>
</svg>
