<?xml version="1.0" encoding="UTF-8" standalone="no"?>
<svg
   xmlns:dc="http://purl.org/dc/elements/1.1/"
   xmlns:cc="http://creativecommons.org/ns#"
   xmlns:rdf="http://www.w3.org/1999/02/22-rdf-syntax-ns#"
   xmlns:svg="http://www.w3.org/2000/svg"
   xmlns="http://www.w3.org/2000/svg"
   xmlns:sodipodi="http://sodipodi.sourceforge.net/DTD/sodipodi-0.dtd"
   xmlns:inkscape="http://www.inkscape.org/namespaces/inkscape"
   version="1.1"
   id="Layer_1"
   x="0px"
   y="0px"
   viewBox="0 0 512 335.45001"
   xml:space="preserve"
   sodipodi:docname="ug.svg"
   width="512"
   height="335.45001"
   inkscape:version="1.0.1 (c497b03c, 2020-09-10)"><metadata
   id="metadata2355"><rdf:RDF><cc:Work
       rdf:about=""><dc:format>image/svg+xml</dc:format><dc:type
         rdf:resource="http://purl.org/dc/dcmitype/StillImage" /><dc:title></dc:title></cc:Work></rdf:RDF></metadata><defs
   id="defs2353" /><sodipodi:namedview
   pagecolor="#ffffff"
   bordercolor="#666666"
   borderopacity="1"
   objecttolerance="10"
   gridtolerance="10"
   guidetolerance="10"
   inkscape:pageopacity="0"
   inkscape:pageshadow="2"
   inkscape:window-width="1176"
   inkscape:window-height="795"
   id="namedview2351"
   showgrid="false"
   inkscape:zoom="1.2910156"
   inkscape:cx="256"
   inkscape:cy="256"
   inkscape:window-x="0"
   inkscape:window-y="23"
   inkscape:window-maximized="0"
   inkscape:current-layer="Layer_1" />
<path
   style="fill:#464655"
   d="M 473.655,0 H 38.345 C 17.167,0 0,17.167 0,38.345 V 55.909 H 512 V 38.345 C 512,17.167 494.833,0 473.655,0 Z"
   id="path2290" />
<rect
   y="55.914001"
   style="fill:#ffe15a"
   width="512"
   height="55.908001"
   id="rect2292"
   x="0" />
<rect
   y="111.814"
   style="fill:#ff4b55"
   width="512"
   height="55.908001"
   id="rect2294"
   x="0" />
<rect
   y="167.724"
   style="fill:#464655"
   width="512"
   height="55.908001"
   id="rect2296"
   x="0" />
<rect
   y="223.634"
   style="fill:#ffe15a"
   width="512"
   height="55.908001"
   id="rect2298"
   x="0" />
<path
   style="fill:#ff4b55"
   d="m 0,297.103 c 0,21.177 17.167,38.345 38.345,38.345 h 435.31 c 21.177,0 38.345,-17.167 38.345,-38.345 V 279.539 H 0 Z"
   id="path2300" />
<circle
   style="fill:#f5f5f5"
   cx="256"
   cy="167.724"
   r="52.966"
   id="circle2302" />
<path
   style="fill:#ff4b55"
   d="m 259.194,135.476 5.217,-2.087 c 0.756,-0.302 1.121,-1.17 0.787,-1.911 -1.171,-2.594 -4.305,-7.962 -10.263,-8.124 -3.773,-0.102 -6.594,0.748 -8.186,1.405 -0.813,0.335 -1.14,1.303 -0.696,2.062 l 3.148,5.378 z"
   id="path2304" />
<path
   style="fill:#ffe15a"
   d="m 254.935,123.354 c -0.434,-0.012 -0.825,0.013 -1.234,0.025 l -0.568,8.329 3.03,1.678 6.554,-5.93 c -1.725,-2.087 -4.255,-4.007 -7.782,-4.102 z"
   id="path2306" />
<path
   style="fill:#464655"
   d="m 277.377,184.456 -23.588,-27.52 c 0,-5.696 2.058,-10.347 3.196,-12.486 3.247,-1.45 5.341,-5.021 4.469,-8.962 -0.633,-2.867 -2.947,-5.206 -5.809,-5.86 -5.15,-1.177 -9.719,2.702 -9.719,7.65 0,0.186 0.042,0.361 0.055,0.544 -5.088,1.342 -6.034,2.978 -6.034,2.978 0,0 3.335,-0.887 6.229,-1.645 0.058,0.236 0.136,0.463 0.214,0.691 l -5.707,1.938 6.232,-0.758 c 0.692,1.266 1.718,2.318 2.957,3.046 -4.658,3.752 -11.81,10.803 -11.81,18.763 0,7.278 5.391,12.128 12.181,15.352 2.372,1.128 4.555,2.615 6.349,4.535 l 0.067,0.072 0.59,9.035 c -4.87,0 -10.675,0 -13.29,0 -4.915,0 -6.265,3.194 -6.265,8.477 l 2.334,-3.317 1.966,3.686 0.246,-4.178 2.089,2.702 c 0,0 -0.022,-3.53 2.642,-3.992 1.412,-0.246 6.307,-0.553 10.465,-0.553 l 0.881,13.464 c -5.639,-0.026 -12.021,2.629 -12.021,2.629 1.965,-0.369 6.758,0.369 6.758,0.369 l -0.799,2.335 c 5.528,-3.01 15.665,-3.072 15.665,-3.072 0,0 -2.211,-1.508 -7.371,-2.099 l 0.119,-13.628 h 8.111 l 1.228,-3.194 c 0,0 -4.185,-5.553 -4.185,-8.493 6.488,1.232 11.555,1.491 11.555,1.491 z m -16.686,7.372 0.041,-4.674 c 2.435,2.61 4.361,4.674 4.361,4.674 0,0 -1.819,0 -4.402,0 z"
   id="path2308" />
<path
   style="fill:#696e7d"
   d="m 277.377,188.387 c -1.965,-7.863 -10.58,-10.28 -19.657,-15.726 -9.828,-5.897 -3.932,-15.725 -3.932,-15.725 0,0 32.926,9.665 35.383,23.588 1.913,10.844 -5.897,17.692 -9.828,19.657 l 1.412,-3.932 h -7.31 c 0,0 7.74,-6.02 7.863,-11.795 z"
   id="path2310" />
<path
   style="fill:#fffcff"
   d="m 289.172,180.524 c -1.643,-9.309 -16.893,-16.707 -26.829,-20.594 v 0 c -3.18,-0.354 -5.974,4.991 2.749,10.765 11.735,7.768 12.286,17.692 12.286,17.692 l 3.932,-3.932 c -0.122,5.774 -7.863,11.795 -7.863,11.795 h 7.31 l -1.412,3.932 c 3.93,-1.966 11.74,-8.814 9.827,-19.658 z"
   id="path2312" />
<path
   style="fill:#ff4b55"
   d="m 289.172,180.524 c -1.089,-6.169 -8.159,-11.492 -15.693,-15.517 -3.629,-1.085 -6.79,-0.946 -6.79,-0.946 2.211,1.352 3.194,4.791 3.194,4.791 -1.597,-0.983 -5.16,-0.491 -5.16,-0.491 0.991,0.85 1.93,2.582 2.558,3.911 9.609,7.469 10.097,16.116 10.097,16.116 l 3.932,-3.932 c -0.122,5.774 -7.863,11.795 -7.863,11.795 h 7.31 l -1.412,3.932 c 3.93,-1.967 11.74,-8.815 9.827,-19.659 z"
   id="path2314" />
<circle
   style="fill:#f5f5f5"
   cx="250.59"
   cy="136.54401"
   r="1.311"
   id="circle2316" />
<path
   style="fill:#ff4b55"
   d="m 247.155,141.537 c 0,0 -2.867,3.358 -0.983,4.341 1.884,0.983 3.701,-1.809 3.701,-1.809 z"
   id="path2318" />
<g
   id="g2320"
   transform="translate(0,-88.276)">
</g>
<g
   id="g2322"
   transform="translate(0,-88.276)">
</g>
<g
   id="g2324"
   transform="translate(0,-88.276)">
</g>
<g
   id="g2326"
   transform="translate(0,-88.276)">
</g>
<g
   id="g2328"
   transform="translate(0,-88.276)">
</g>
<g
   id="g2330"
   transform="translate(0,-88.276)">
</g>
<g
   id="g2332"
   transform="translate(0,-88.276)">
</g>
<g
   id="g2334"
   transform="translate(0,-88.276)">
</g>
<g
   id="g2336"
   transform="translate(0,-88.276)">
</g>
<g
   id="g2338"
   transform="translate(0,-88.276)">
</g>
<g
   id="g2340"
   transform="translate(0,-88.276)">
</g>
<g
   id="g2342"
   transform="translate(0,-88.276)">
</g>
<g
   id="g2344"
   transform="translate(0,-88.276)">
</g>
<g
   id="g2346"
   transform="translate(0,-88.276)">
</g>
<g
   id="g2348"
   transform="translate(0,-88.276)">
</g>
</svg>
