<?xml version="1.0" encoding="UTF-8" standalone="no"?>
<svg
   xmlns:dc="http://purl.org/dc/elements/1.1/"
   xmlns:cc="http://creativecommons.org/ns#"
   xmlns:rdf="http://www.w3.org/1999/02/22-rdf-syntax-ns#"
   xmlns:svg="http://www.w3.org/2000/svg"
   xmlns="http://www.w3.org/2000/svg"
   xmlns:sodipodi="http://sodipodi.sourceforge.net/DTD/sodipodi-0.dtd"
   xmlns:inkscape="http://www.inkscape.org/namespaces/inkscape"
   version="1.1"
   id="Layer_1"
   x="0px"
   y="0px"
   viewBox="0 0 512 335.45001"
   xml:space="preserve"
   sodipodi:docname="uk.svg"
   width="512"
   height="335.45001"
   inkscape:version="1.0.1 (c497b03c, 2020-09-10)"><metadata
   id="metadata2518"><rdf:RDF><cc:Work
       rdf:about=""><dc:format>image/svg+xml</dc:format><dc:type
         rdf:resource="http://purl.org/dc/dcmitype/StillImage" /><dc:title></dc:title></cc:Work></rdf:RDF></metadata><defs
   id="defs2516" /><sodipodi:namedview
   pagecolor="#ffffff"
   bordercolor="#666666"
   borderopacity="1"
   objecttolerance="10"
   gridtolerance="10"
   guidetolerance="10"
   inkscape:pageopacity="0"
   inkscape:pageshadow="2"
   inkscape:window-width="1130"
   inkscape:window-height="723"
   id="namedview2514"
   showgrid="false"
   inkscape:zoom="1.1445312"
   inkscape:cx="256"
   inkscape:cy="256"
   inkscape:window-x="0"
   inkscape:window-y="23"
   inkscape:window-maximized="0"
   inkscape:current-layer="Layer_1" />
<path
   style="fill:#41479b"
   d="M 473.655,0.001 H 38.345 C 17.167,0.001 0,17.168 0,38.346 v 258.759 c 0,21.177 17.167,38.345 38.345,38.345 h 435.31 C 494.832,335.45 512,318.283 512,297.105 V 38.346 C 512,17.168 494.833,0.001 473.655,0.001 Z"
   id="path2467" />
<path
   style="fill:#f5f5f5"
   d="M 511.469,32.007 C 508.447,13.848 492.672,0 473.655,0 h -9.977 L 300.138,107.147 V 0.001 H 211.862 V 107.148 L 48.322,0.001 H 38.345 C 19.328,0.001 3.553,13.848 0.531,32.008 l 139.778,91.58 H 0 v 88.276 H 140.309 L 0.531,303.442 c 3.022,18.159 18.797,32.007 37.814,32.007 h 9.977 l 163.54,-107.147 v 107.147 h 88.276 V 228.302 l 163.54,107.147 h 9.977 c 19.017,0 34.792,-13.847 37.814,-32.007 L 371.691,211.862 H 512 V 123.586 H 371.691 Z"
   id="path2469" />
<g
   id="g2481"
   transform="translate(0,-88.275)">
	<polygon
   style="fill:#ff4b55"
   points="229.517,229.517 0,229.517 0,282.483 229.517,282.483 229.517,423.724 282.483,423.724 282.483,282.483 512,282.483 512,229.517 282.483,229.517 282.483,88.276 229.517,88.276 "
   id="polygon2471" />
	<path
   style="fill:#ff4b55"
   d="M 24.793,421.252 211.376,300.138 H 178.948 L 9.224,410.31 c 4.153,4.847 9.49,8.645 15.569,10.942 z"
   id="path2473" />
	<path
   style="fill:#ff4b55"
   d="M 346.388,300.138 H 313.96 l 180.716,117.305 c 5.057,-3.321 9.277,-7.807 12.287,-13.075 z"
   id="path2475" />
	<path
   style="fill:#ff4b55"
   d="m 4.049,109.475 157.73,102.387 h 32.428 L 15.475,95.842 c -4.799,3.572 -8.726,8.242 -11.426,13.633 z"
   id="path2477" />
	<path
   style="fill:#ff4b55"
   d="M 332.566,211.862 502.601,101.487 c -4.199,-4.831 -9.578,-8.607 -15.699,-10.86 L 300.138,211.862 Z"
   id="path2479" />
</g>
<g
   id="g2483"
   transform="translate(0,-88.275)">
</g>
<g
   id="g2485"
   transform="translate(0,-88.275)">
</g>
<g
   id="g2487"
   transform="translate(0,-88.275)">
</g>
<g
   id="g2489"
   transform="translate(0,-88.275)">
</g>
<g
   id="g2491"
   transform="translate(0,-88.275)">
</g>
<g
   id="g2493"
   transform="translate(0,-88.275)">
</g>
<g
   id="g2495"
   transform="translate(0,-88.275)">
</g>
<g
   id="g2497"
   transform="translate(0,-88.275)">
</g>
<g
   id="g2499"
   transform="translate(0,-88.275)">
</g>
<g
   id="g2501"
   transform="translate(0,-88.275)">
</g>
<g
   id="g2503"
   transform="translate(0,-88.275)">
</g>
<g
   id="g2505"
   transform="translate(0,-88.275)">
</g>
<g
   id="g2507"
   transform="translate(0,-88.275)">
</g>
<g
   id="g2509"
   transform="translate(0,-88.275)">
</g>
<g
   id="g2511"
   transform="translate(0,-88.275)">
</g>
</svg>
