<?xml version="1.0" encoding="UTF-8" standalone="no"?>
<svg
   xmlns:dc="http://purl.org/dc/elements/1.1/"
   xmlns:cc="http://creativecommons.org/ns#"
   xmlns:rdf="http://www.w3.org/1999/02/22-rdf-syntax-ns#"
   xmlns:svg="http://www.w3.org/2000/svg"
   xmlns="http://www.w3.org/2000/svg"
   xmlns:sodipodi="http://sodipodi.sourceforge.net/DTD/sodipodi-0.dtd"
   xmlns:inkscape="http://www.inkscape.org/namespaces/inkscape"
   version="1.1"
   id="Layer_1"
   x="0px"
   y="0px"
   viewBox="0 0 512 335.45001"
   xml:space="preserve"
   sodipodi:docname="un.svg"
   width="512"
   height="335.45001"
   inkscape:version="1.0.1 (c497b03c, 2020-09-10)"><metadata
   id="metadata2609"><rdf:RDF><cc:Work
       rdf:about=""><dc:format>image/svg+xml</dc:format><dc:type
         rdf:resource="http://purl.org/dc/dcmitype/StillImage" /><dc:title></dc:title></cc:Work></rdf:RDF></metadata><defs
   id="defs2607" /><sodipodi:namedview
   pagecolor="#ffffff"
   bordercolor="#666666"
   borderopacity="1"
   objecttolerance="10"
   gridtolerance="10"
   guidetolerance="10"
   inkscape:pageopacity="0"
   inkscape:pageshadow="2"
   inkscape:window-width="942"
   inkscape:window-height="690"
   id="namedview2605"
   showgrid="false"
   inkscape:zoom="1.0878906"
   inkscape:cx="256"
   inkscape:cy="256"
   inkscape:window-x="0"
   inkscape:window-y="23"
   inkscape:window-maximized="0"
   inkscape:current-layer="Layer_1" />
<path
   style="fill:#82afff"
   d="M 473.655,0 H 38.345 C 17.167,0 0,17.167 0,38.345 v 258.76 c 0,21.177 17.167,38.345 38.345,38.345 h 435.31 C 494.832,335.45 512,318.283 512,297.105 V 38.345 C 512,17.167 494.833,0 473.655,0 Z"
   id="path2528" />
<g
   id="g2572"
   transform="translate(0,-88.275)">
	<path
   style="fill:#f5f5f5"
   d="m 255.25,321.654 c 44.902,0 81.431,-36.532 81.431,-81.431 0,-44.899 -36.53,-81.431 -81.431,-81.431 -44.901,0 -81.431,36.532 -81.431,81.431 -10e-4,44.899 36.529,81.431 81.431,81.431 z m 9.29,-154.345 6.999,-2.579 c 9.877,2.13 19.061,6.133 27.145,11.651 -0.695,-0.07 -2.532,-0.258 -2.849,-0.364 -0.392,-0.13 -0.998,2.494 -0.998,2.494 l 3.212,1.278 0.876,-3.226 c 3.336,2.295 6.451,4.876 9.382,7.654 l -4.722,4.722 h -0.834 l -0.679,-2.665 -2.583,-4.643 -9.124,-3.289 -6.309,3.054 3.581,7.753 c -8.824,-5.615 -19.177,-8.989 -30.296,-9.37 v -10.806 l 6.43,2.03 -2.673,-4.712 -3.757,1.608 v -4.824 c 2.791,0.075 5.538,0.303 8.248,0.669 l -3.158,1.053 z m 42.256,59.602 1.537,-0.651 0.387,-3.783 c 1.647,4.952 2.598,10.206 2.798,15.657 h -14.162 l 0.522,-2.262 4.002,-0.348 3.313,-5.641 -0.094,-1.058 -3.393,4.35 -2.072,0.509 -1.321,-1.553 1.554,-2.641 -3.381,-2.494 -3.037,2.663 c -0.818,-2.952 -1.932,-5.78 -3.373,-8.414 l 1.647,-0.599 1.321,-0.788 -0.011,-1.554 0.847,-1.053 -0.49,-0.3 c -0.362,0.172 -2.251,0.721 -2.251,0.721 l -0.655,2.126 -0.94,0.572 c -1.386,-2.385 -3.015,-4.604 -4.85,-6.641 l 7.809,-7.809 0.067,0.11 1.902,-1.143 -0.295,-0.643 2.321,-2.321 c 5.233,5.632 9.318,12.318 11.913,19.719 l -1.944,-2.889 -1.002,0.374 z m -10.295,51.61 -4.224,-4.224 -1.594,-4.226 -0.82,1.812 -1.634,-1.634 1.675,-5.135 -1.085,-3.726 -0.077,0.01 c 1.148,-1.809 2.183,-3.695 3.03,-5.686 l 0.02,-0.002 c 0.262,0 1.218,-1.218 1.218,-1.218 l 2.349,0.26 6.072,-2.4 -2.332,-2.211 -1.373,-1.226 -1.064,-2.166 -1.902,-3.313 c 0.03,-0.372 0.038,-0.749 0.057,-1.124 h 16.704 c -0.517,13.964 -6.113,26.621 -15.02,36.209 z m -81.054,-2.672 2.091,-3.654 -4.501,-15.731 -3.549,-8.76 3.219,-1.393 0.87,-2.61 2.174,-0.063 c 0.759,8.84 4.436,16.839 10.054,23.075 l -9.222,9.222 z m 5.024,-38.563 -0.045,0.849 h -0.567 c 0.019,-0.321 0.022,-0.647 0.049,-0.966 z m 53.608,32.972 -0.715,-0.388 -9.109,3.522 -4.721,-1.817 -2.197,0.607 v -3.002 l 2.273,-0.686 1.378,0.332 2.901,1.135 -1.749,-3.198 3.748,3.142 1.798,0.41 -0.547,-2.397 1.219,-3.961 4.247,-2.591 0.367,2.385 -5.181,2.816 0.994,1.983 5.388,-1.088 0.085,2.688 c -0.057,0.035 -0.12,0.069 -0.179,0.108 z m -21.468,-15.686 -0.162,-0.348 -0.978,0.056 c -1.258,-0.34 -2.441,-0.839 -3.541,-1.482 l 3.635,-0.441 1.597,-4.286 v 6.556 c -0.182,-0.025 -0.372,-0.023 -0.551,-0.055 z m -15.265,-8.942 -3.551,-0.547 1.811,-2.773 h 1.063 c 0.128,1.144 0.352,2.247 0.677,3.32 z m 19.991,-14.448 0.979,0.297 1.231,1.493 -2.21,2.21 z m 6.586,26.542 -1.695,1.984 -2.825,1.405 -0.947,-1.66 -0.57,3.3 -0.547,0.214 v -4.163 c 0.396,-0.044 0.802,-0.052 1.19,-0.12 l 1.352,1.695 1.122,-1.397 -0.088,-0.934 c 0.623,-0.199 1.259,-0.364 1.853,-0.625 z m -1.271,-21.951 -0.045,2.259 -0.082,0.103 h -2.236 z m 1.341,7.777 2.703,-0.086 1.474,1.228 -0.491,0.884 -2.063,-1.178 -1.13,0.884 0.567,1.694 -0.023,0.075 -4.739,-4.739 h 3.157 z m -1.788,6.58 -2.582,-0.278 -1.824,4.728 c -0.15,0.026 -0.309,0.025 -0.46,0.046 v -9.364 z m -13.406,-11.996 -0.181,-0.761 -1.813,0.761 h -0.802 l 0.265,-1.101 1.171,-1.134 -0.929,-0.211 -0.966,1.373 -1.004,0.46 0.118,0.615 h -1.054 l 0.634,-2.467 1.856,-1.646 4.114,4.114 h -1.409 z m -7.747,4.177 0.428,0.504 0.289,-0.504 h 1.493 l -1.942,2.101 c -0.206,-0.684 -0.37,-1.379 -0.474,-2.101 z m 2.311,6.356 2.699,-4.662 -0.706,-0.631 1.19,-0.614 0.149,-0.45 h 1.9 l -0.436,0.234 -0.181,0.626 1.472,-0.1 -1.095,1.095 -1.113,0.234 -0.231,1.11 -3.426,3.425 c -0.071,-0.093 -0.154,-0.173 -0.222,-0.267 z m 9.799,-22.414 -0.78,-0.12 0.604,2.505 0.177,0.138 v 6.406 l -3.51,-3.509 2.463,-1.331 -2.225,-3.686 c 1.036,-0.41 2.135,-0.674 3.271,-0.839 v 0.436 z m -32.958,16.058 -0.042,0.794 -0.175,1.06 c -0.067,-0.611 -0.09,-1.235 -0.127,-1.855 z m 2.043,4.959 2.598,2.611 2.131,-1.484 5.02,4.212 5.4,0.95 1.51,-4.248 c 0.509,0.91 1.081,1.768 1.729,2.578 l -4.639,4.639 0.746,-1.901 -2.762,-0.449 0.884,3.243 0.131,0.109 -6.237,6.236 c -4.064,-4.569 -6.996,-10.165 -8.274,-16.374 z m 21.338,7.569 c 2.696,2.156 5.97,3.559 9.577,3.964 v 4.829 l -0.047,0.114 0.047,-0.015 v 3.611 l -1.216,0.244 -0.705,4.533 1.921,-0.223 v 1.438 l -3.042,0.84 -1.013,0.977 c -6.61,-1.161 -12.582,-4.15 -17.398,-8.434 z m 35.222,17.229 3.064,0.65 3.014,0.093 1.657,1.657 -5.063,-0.184 -3.262,-1.774 c 0.201,-0.145 0.393,-0.296 0.59,-0.442 z m 2.936,-8.305 -0.914,-0.914 1.86,-0.142 c -0.299,0.366 -0.632,0.702 -0.946,1.056 z m 4.789,-40.284 c -1.421,0.021 -2.798,0.04 -2.921,0.04 -0.262,0 -2.308,1.749 -2.308,1.749 l -1.564,2.025 -0.471,-2.471 1.108,-2.524 -0.854,-0.782 -3.828,2.436 -0.812,-0.41 2.99,-2.99 0.658,0.217 1.906,-0.448 -0.969,-1.363 2.276,-2.276 c 1.842,2.071 3.467,4.338 4.789,6.797 z m -11.198,-6.293 -0.183,-0.585 -1.239,0.195 -0.77,1.491 -3.405,0.335 c 0.249,0.499 1.309,2.569 1.405,2.755 l -4.225,4.225 c -0.898,-0.718 -1.857,-1.346 -2.879,-1.892 l 0.523,-0.281 -0.621,-2.098 -0.423,-0.774 -1.885,2.061 c -1.365,-0.497 -2.802,-0.812 -4.294,-0.98 V 204.83 c 8.213,0.481 15.67,3.752 21.453,8.897 z m -22.172,4.455 c -1.348,0.152 -2.646,0.433 -3.893,0.855 l 0.625,-1.451 -3.257,2.56 0.006,0.01 c -1.089,0.567 -2.106,1.229 -3.058,1.99 L 231.709,213.73 c 5.783,-5.145 13.24,-8.416 21.453,-8.897 v 16.808 z m -13.2,6.248 -5.614,0.982 0.196,-2.133 -4.653,-1.606 -7.442,1.556 c 1.532,-3.697 3.687,-7.06 6.306,-10.006 z m -18.021,0.187 2.337,0.489 -2.801,0.775 c 0.138,-0.43 0.309,-0.843 0.464,-1.264 z m -6.258,10.058 h -0.362 l 0.38,-0.351 c -0.007,0.117 -0.011,0.235 -0.018,0.351 z m 4.453,40.155 8.621,-8.62 c 4.705,4.237 10.413,7.356 16.736,8.963 l -2.969,2.861 6.391,8.445 4.247,0.234 v 6.322 c -11.153,-0.41 -21.485,-4.038 -30.08,-10.036 l 1.38,-0.896 z m 37.201,12.112 5.385,0.297 0.137,1.235 3.276,3.59 c -2.858,0.562 -5.804,0.861 -8.798,0.971 z m 34.207,-10.934 2.005,2.005 c -0.959,0.89 -1.923,1.773 -2.942,2.598 z m 2.004,-80.494 -1.223,1.223 -1.45,-3.168 -2.636,-1.402 c 0,0 -2.455,-2.166 -3.733,-3.5 3.246,1.981 6.271,4.271 9.042,6.847 z m -9.61,-7.194 1.845,6.455 4.31,3.752 0.168,0.274 -8.519,8.518 c -6.546,-5.897 -15.042,-9.631 -24.405,-10.122 v -16.704 c 9.693,0.359 18.75,3.161 26.601,7.827 z m -30.776,8.879 c -9.363,0.491 -17.859,4.225 -24.405,10.122 l -11.806,-11.806 c 9.587,-8.908 22.247,-14.504 36.211,-15.019 z m -27.358,13.072 c -4.474,4.968 -7.719,11.049 -9.236,17.794 l -3.67,6.61 h -13.919 c 0.515,-13.964 6.111,-26.623 15.018,-36.21 z m -14.918,28.581 -3.966,8.524 -5.61,-2.087 -1.053,3.734 c -0.734,-3.292 -1.149,-6.694 -1.277,-10.173 h 11.905 z m -4.183,42.281 0.648,0.574 -8.111,8.111 c -5.601,-5.909 -10.254,-12.696 -13.778,-20.137 l 2.157,1.26 14.387,12.801 z m 3.779,3.348 1.964,1.741 6.369,-1.21 c 9.629,7.289 21.471,11.754 34.346,12.196 v 16.704 c -19.72,-0.531 -37.59,-8.461 -50.969,-21.142 z m 46.855,12.729 c 3.539,-0.121 7.014,-0.49 10.374,-1.197 l 0.389,2.573 9.952,7.339 11.206,-6.217 3.217,-6.782 -0.211,-4.196 2.116,-4.964 -0.516,-0.404 c 0.914,-0.759 1.768,-1.586 2.635,-2.396 l 1.926,1.924 0.586,3.637 2.186,-0.866 7.111,7.111 c -13.379,12.681 -31.25,20.611 -50.969,21.142 v -16.704 z m 44.857,-16.456 -0.399,-4.754 -0.535,0.024 c 8.618,-10.086 13.95,-23.015 14.436,-37.173 H 332.4 c -0.531,19.719 -8.461,37.588 -21.14,50.967 z m 13.501,-46.079 c -0.362,-10.537 -3.417,-20.378 -8.515,-28.892 l 7.1,6.641 5.697,-4.893 -8.744,-13.181 -5.771,-4.437 0.015,-0.425 5.781,-5.781 c 12.68,13.379 20.609,31.249 21.14,50.967 h -16.703 z m -62.533,-58.357 c -15.115,0.519 -28.815,6.582 -39.162,16.244 l -11.807,-11.806 c 13.379,-12.681 31.25,-20.611 50.969,-21.142 z m -42.115,19.198 c -9.661,10.347 -15.723,24.046 -16.243,39.161 H 178.1 c 0.531,-19.719 8.461,-37.588 21.14,-50.967 z m -16.243,43.336 c 0.213,6.208 1.355,12.172 3.309,17.773 l -0.63,2.237 -16.32,-0.359 c -1.841,-6.26 -2.878,-12.847 -3.062,-19.651 z"
   id="path2530" />
	<path
   style="fill:#f5f5f5"
   d="m 198.993,336.966 15.076,-2.44 c 1.348,-0.218 1.907,-1.846 0.973,-2.842 -3.626,-3.874 -10.833,-11.898 -15.007,-18.728 -5.742,-9.396 -15.852,-17.142 -15.852,-17.142 0,0 1.932,25.842 21.42,34.716 0,0 -19.314,-4.872 -31.668,-8.178 -12.354,-3.306 -15.735,-6.944 -15.735,-6.944 0,0 9.648,24.689 40.793,21.558 z"
   id="path2532" />
	<path
   style="fill:#f5f5f5"
   d="m 184.029,308.083 c -0.522,-6.439 -5.228,-22.899 -14.098,-36.505 0,0 0.011,33.068 11.752,44.269 0,0 -16.62,-15.943 -26.538,-23.251 -9.286,-6.841 -13.398,-14.616 -13.398,-14.616 0,0 2.495,20.896 16.008,31.319 9.134,7.047 29.406,12.006 29.406,12.006 0,0 -2.61,-6.786 -3.132,-13.222 z"
   id="path2534" />
	<path
   style="fill:#f5f5f5"
   d="m 152.188,283.373 10.154,8.782 c 1.059,0.916 2.709,0.193 2.731,-1.207 0.055,-3.532 0.271,-8.893 1.035,-12.273 1.218,-5.394 2.724,-22.909 -3.423,-35.64 0,0 -7.431,22.816 -1.623,41.817 0,0 -9.123,-14.505 -18.444,-25.491 -4.872,-5.742 -6.801,-12.512 -6.801,-12.512 0,0 -0.159,22.779 16.371,36.524 z"
   id="path2536" />
	<path
   style="fill:#f5f5f5"
   d="m 149.401,260.898 c 0.796,1.073 2.447,0.846 2.902,-0.409 1.335,-3.683 3.925,-10.306 7.366,-16.612 6.264,-11.484 3.375,-25 3.375,-25 0,0 -10.056,17.237 -12.971,36.392 -0.19,-0.854 -0.398,-1.767 -0.647,-2.81 -2.76,-11.602 -13.495,-40.542 -13.495,-40.542 0,0 -3.776,15.893 0.943,28.48 2.424,6.459 9.2,16.012 12.527,20.501 z"
   id="path2538" />
	<path
   style="fill:#f5f5f5"
   d="m 147.33,235.49 c 0.303,1.155 1.92,1.184 2.264,0.04 0.961,-3.19 2.959,-7.587 7.117,-11.837 7.83,-8.003 13.767,-19.114 16.801,-29.045 0,0 -16.706,13.404 -21.974,22.442 0,0 0.521,-12.429 -1.266,-21.411 -1.523,-7.656 1.713,-15.031 1.713,-15.031 0,0 -10.586,10.161 -9.021,28.778 0.986,11.713 3.005,20.876 4.366,26.064 z"
   id="path2540" />
	<path
   style="fill:#f5f5f5"
   d="m 157.91,203.576 c 3.169,-2.905 8.719,-7.853 14.07,-10.856 7.105,-3.986 12.724,-16.844 13.963,-19.705 0,0 -19.797,16.201 -25.186,21.401 0,0 3.263,-14.485 5.351,-20.749 2.088,-6.264 1.827,-8.352 3.654,-10.962 0,0 -9.526,8.352 -12.137,15.007 -2.145,5.47 -1.734,17.903 -2.026,24.767 -0.054,1.244 1.394,1.938 2.311,1.097 z"
   id="path2542" />
	<path
   style="fill:#f5f5f5"
   d="m 177.939,174.451 c 5.568,-4.524 14.442,-17.748 14.442,-17.748 -2.199,1.256 -11.136,4.35 -18.617,12.006 -7.482,7.656 -9.048,18.095 -9.048,18.095 0,0 7.655,-7.829 13.223,-12.353 z"
   id="path2544" />
	<path
   style="fill:#f5f5f5"
   d="m 304.372,340.794 c -16.355,-3.219 -30.362,-5.568 -46.781,-1.297 -0.808,0.21 -1.564,0.452 -2.342,0.681 -0.779,-0.227 -1.534,-0.47 -2.342,-0.681 -16.418,-4.27 -30.425,-1.922 -46.781,1.297 -14.742,2.901 -28.857,0.391 -28.857,0.391 0,0 10.24,10.398 33.556,10.398 10.172,0 22.955,-8.562 31.021,-9.018 1.986,-0.113 3.948,0.008 5.891,0.225 -17.32,7.065 -25.315,17.78 -25.472,17.987 -0.695,0.918 -0.515,2.227 0.402,2.92 0.377,0.289 0.82,0.428 1.26,0.428 0.63,0 1.255,-0.286 1.664,-0.823 0.637,-0.839 13.431,-14.073 29.658,-18.963 16.227,4.89 29.022,18.125 29.658,18.963 0.409,0.538 1.034,0.823 1.664,0.823 0.44,0 0.883,-0.139 1.26,-0.428 0.917,-0.693 1.097,-2.003 0.402,-2.92 -0.157,-0.207 -8.152,-10.922 -25.472,-17.987 1.943,-0.216 3.905,-0.337 5.891,-0.225 8.066,0.457 20.85,9.018 31.021,9.018 23.316,0 33.556,-10.398 33.556,-10.398 0,0 -14.115,2.508 -28.857,-0.391 z"
   id="path2546" />
	<path
   style="fill:#f5f5f5"
   d="m 304.894,330.528 c 19.488,-8.874 21.42,-34.716 21.42,-34.716 0,0 -10.111,7.746 -15.852,17.142 -4.173,6.829 -11.381,14.854 -15.006,18.728 -0.932,0.996 -0.374,2.624 0.973,2.842 l 15.076,2.441 c 31.146,3.132 40.791,-21.56 40.791,-21.56 0,0 -3.382,3.639 -15.735,6.944 -12.354,3.307 -31.667,8.179 -31.667,8.179 z"
   id="path2548" />
	<path
   style="fill:#f5f5f5"
   d="m 355.353,292.596 c -9.918,7.308 -26.538,23.251 -26.538,23.251 11.742,-11.201 11.752,-44.269 11.752,-44.269 -8.87,13.607 -13.576,30.067 -14.098,36.505 -0.522,6.438 -3.132,13.224 -3.132,13.224 0,0 20.27,-4.959 29.406,-12.006 13.513,-10.424 16.008,-31.319 16.008,-31.319 0,0 -4.112,7.773 -13.398,14.614 z"
   id="path2550" />
	<path
   style="fill:#f5f5f5"
   d="m 349.438,284.854 c 5.807,-19.003 -1.623,-41.817 -1.623,-41.817 -6.147,12.732 -4.641,30.247 -3.423,35.64 0.764,3.38 0.98,8.74 1.035,12.273 0.022,1.4 1.672,2.123 2.731,1.207 l 10.154,-8.782 c 16.53,-13.746 16.371,-36.523 16.371,-36.523 0,0 -1.929,6.77 -6.801,12.512 -9.322,10.983 -18.444,25.49 -18.444,25.49 z"
   id="path2552" />
	<path
   style="fill:#f5f5f5"
   d="m 360.426,255.27 c -2.915,-19.155 -12.971,-36.392 -12.971,-36.392 0,0 -2.889,13.516 3.375,25 3.439,6.306 6.03,12.929 7.366,16.612 0.455,1.256 2.106,1.482 2.902,0.409 3.328,-4.489 10.103,-14.041 12.526,-20.502 4.719,-12.587 0.943,-28.48 0.943,-28.48 0,0 -10.735,28.94 -13.495,40.542 -0.249,1.044 -0.456,1.955 -0.646,2.811 z"
   id="path2554" />
	<path
   style="fill:#f5f5f5"
   d="m 360.225,195.678 c -1.786,8.982 -1.266,21.411 -1.266,21.411 -5.267,-9.038 -21.974,-22.442 -21.974,-22.442 3.034,9.93 8.972,21.041 16.801,29.045 4.158,4.25 6.156,8.647 7.117,11.837 0.344,1.143 1.961,1.114 2.264,-0.04 1.362,-5.186 3.38,-14.351 4.365,-26.065 1.566,-18.617 -9.021,-28.778 -9.021,-28.778 0,0 3.237,7.377 1.714,15.032 z"
   id="path2556" />
	<path
   style="fill:#f5f5f5"
   d="m 349.742,194.417 c -5.389,-5.202 -25.186,-21.401 -25.186,-21.401 1.24,2.861 6.858,15.72 13.963,19.705 5.351,3.001 10.901,7.95 14.07,10.856 0.916,0.84 2.365,0.147 2.311,-1.096 -0.292,-6.863 0.119,-19.297 -2.026,-24.767 -2.61,-6.655 -12.137,-15.007 -12.137,-15.007 1.827,2.61 1.566,4.698 3.654,10.962 2.088,6.263 5.351,20.748 5.351,20.748 z"
   id="path2558" />
	<path
   style="fill:#f5f5f5"
   d="m 332.559,174.451 c 5.568,4.523 13.224,12.353 13.224,12.353 0,0 -1.566,-10.44 -9.048,-18.095 -7.481,-7.656 -16.419,-10.75 -18.617,-12.006 0,0 8.873,13.224 14.441,17.748 z"
   id="path2560" />
	<polygon
   style="fill:#f5f5f5"
   points="298.681,220.419 302.818,224.994 305.135,223.503 302.356,217.82 298.444,217.49 294.895,219.827 "
   id="polygon2562" />
	<polygon
   style="fill:#f5f5f5"
   points="308.689,228.544 307.775,227.303 306.339,228.021 304.056,236.113 304.047,236.979 305.361,237.482 "
   id="polygon2564" />
	<polygon
   style="fill:#f5f5f5"
   points="267.255,223.714 267.839,224.622 270.648,221.822 269.604,220.714 "
   id="polygon2566" />
	<polygon
   style="fill:#f5f5f5"
   points="293.226,213.225 292.632,213.393 292.009,214.227 294.28,216.861 295.2,216.078 294.692,214.841 295.327,212.799 "
   id="polygon2568" />
	<polygon
   style="fill:#f5f5f5"
   points="250.943,263.713 251.4,264.495 252.509,262.669 252.542,261.398 "
   id="polygon2570" />
</g>
<g
   id="g2574"
   transform="translate(0,-88.275)">
</g>
<g
   id="g2576"
   transform="translate(0,-88.275)">
</g>
<g
   id="g2578"
   transform="translate(0,-88.275)">
</g>
<g
   id="g2580"
   transform="translate(0,-88.275)">
</g>
<g
   id="g2582"
   transform="translate(0,-88.275)">
</g>
<g
   id="g2584"
   transform="translate(0,-88.275)">
</g>
<g
   id="g2586"
   transform="translate(0,-88.275)">
</g>
<g
   id="g2588"
   transform="translate(0,-88.275)">
</g>
<g
   id="g2590"
   transform="translate(0,-88.275)">
</g>
<g
   id="g2592"
   transform="translate(0,-88.275)">
</g>
<g
   id="g2594"
   transform="translate(0,-88.275)">
</g>
<g
   id="g2596"
   transform="translate(0,-88.275)">
</g>
<g
   id="g2598"
   transform="translate(0,-88.275)">
</g>
<g
   id="g2600"
   transform="translate(0,-88.275)">
</g>
<g
   id="g2602"
   transform="translate(0,-88.275)">
</g>
</svg>
