<?xml version="1.0" encoding="UTF-8" standalone="no"?>
<svg
   xmlns:dc="http://purl.org/dc/elements/1.1/"
   xmlns:cc="http://creativecommons.org/ns#"
   xmlns:rdf="http://www.w3.org/1999/02/22-rdf-syntax-ns#"
   xmlns:svg="http://www.w3.org/2000/svg"
   xmlns="http://www.w3.org/2000/svg"
   xmlns:sodipodi="http://sodipodi.sourceforge.net/DTD/sodipodi-0.dtd"
   xmlns:inkscape="http://www.inkscape.org/namespaces/inkscape"
   version="1.1"
   id="Layer_1"
   x="0px"
   y="0px"
   viewBox="0 0 512 335.45001"
   xml:space="preserve"
   sodipodi:docname="uz.svg"
   width="512"
   height="335.45001"
   inkscape:version="1.0.1 (c497b03c, 2020-09-10)"><metadata
   id="metadata2918"><rdf:RDF><cc:Work
       rdf:about=""><dc:format>image/svg+xml</dc:format><dc:type
         rdf:resource="http://purl.org/dc/dcmitype/StillImage" /><dc:title></dc:title></cc:Work></rdf:RDF></metadata><defs
   id="defs2916" /><sodipodi:namedview
   pagecolor="#ffffff"
   bordercolor="#666666"
   borderopacity="1"
   objecttolerance="10"
   gridtolerance="10"
   guidetolerance="10"
   inkscape:pageopacity="0"
   inkscape:pageshadow="2"
   inkscape:window-width="1158"
   inkscape:window-height="712"
   id="namedview2914"
   showgrid="false"
   inkscape:zoom="1.1230469"
   inkscape:cx="256"
   inkscape:cy="256"
   inkscape:window-x="0"
   inkscape:window-y="23"
   inkscape:window-maximized="0"
   inkscape:current-layer="Layer_1" />
<path
   style="fill:#82afff"
   d="M 473.655,0 H 38.345 C 17.167,0 0,17.167 0,38.345 v 63.539 H 512 V 38.345 C 512,17.167 494.833,0 473.655,0 Z"
   id="path2837" />
<path
   style="fill:#73af00"
   d="m 0,297.103 c 0,21.177 17.167,38.345 38.345,38.345 h 435.31 c 21.177,0 38.345,-17.167 38.345,-38.345 V 233.564 H 0 Z"
   id="path2839" />
<rect
   y="115.82401"
   style="fill:#f5f5f5"
   width="512"
   height="103.79"
   id="rect2841"
   x="0" />
<g
   id="g2847"
   transform="translate(0,-88.276)">
	<polygon
   style="fill:#ff4b55"
   points="512,204.102 512,200.092 512,190.159 0,190.159 0,200.092 0,204.102 "
   id="polygon2843" />
	<polygon
   style="fill:#ff4b55"
   points="512,321.841 512,311.908 512,307.898 0,307.898 0,311.908 0,321.841 "
   id="polygon2845" />
</g>
<g
   id="g2881"
   transform="translate(0,-88.276)">
	<path
   style="fill:#f5f5f5"
   d="m 113.491,172.071 c -18.072,0 -32.721,-14.614 -32.721,-32.621 0,-18.073 14.648,-32.753 32.721,-32.753 0.07,0 0.138,0 0.206,10e-4 1.064,0.014 1.437,-1.399 0.499,-1.902 -5.565,-2.983 -11.916,-4.671 -18.668,-4.622 -21.624,0.154 -39.189,18.073 -38.959,39.697 0.226,21.401 17.722,38.724 39.242,38.724 6.659,0 12.921,-1.685 18.417,-4.627 0.935,-0.501 0.557,-1.914 -0.503,-1.899 -0.08,0.002 -0.157,0.002 -0.234,0.002 z"
   id="path2849" />
	<path
   style="fill:#f5f5f5"
   d="m 139.113,163.05 -1.461,4.382 -4.619,0.035 c -0.598,0.004 -0.846,0.768 -0.365,1.123 l 3.716,2.744 -1.394,4.404 c -0.18,0.57 0.469,1.042 0.956,0.694 l 3.758,-2.686 3.758,2.686 c 0.487,0.348 1.135,-0.124 0.956,-0.694 l -1.394,-4.404 3.715,-2.744 c 0.481,-0.355 0.233,-1.119 -0.365,-1.123 l -4.619,-0.035 -1.461,-4.382 c -0.189,-0.567 -0.991,-0.567 -1.181,0 z"
   id="path2851" />
	<path
   style="fill:#f5f5f5"
   d="m 171.656,163.05 -1.461,4.382 -4.619,0.035 c -0.598,0.004 -0.846,0.768 -0.365,1.123 l 3.715,2.744 -1.394,4.404 c -0.18,0.57 0.469,1.042 0.956,0.694 l 3.758,-2.686 3.758,2.686 c 0.487,0.348 1.135,-0.124 0.956,-0.694 l -1.394,-4.404 3.715,-2.744 c 0.481,-0.355 0.233,-1.119 -0.365,-1.123 l -4.619,-0.035 -1.461,-4.382 c -0.189,-0.567 -0.992,-0.567 -1.18,0 z"
   id="path2853" />
	<path
   style="fill:#f5f5f5"
   d="m 204.198,163.05 -1.461,4.382 -4.619,0.035 c -0.598,0.004 -0.846,0.768 -0.365,1.123 l 3.716,2.744 -1.394,4.404 c -0.18,0.57 0.469,1.042 0.956,0.694 l 3.758,-2.686 3.758,2.686 c 0.487,0.348 1.135,-0.124 0.956,-0.694 l -1.394,-4.404 3.715,-2.744 c 0.481,-0.355 0.233,-1.119 -0.365,-1.123 l -4.619,-0.035 -1.461,-4.382 c -0.189,-0.567 -0.992,-0.567 -1.181,0 z"
   id="path2855" />
	<path
   style="fill:#f5f5f5"
   d="m 236.74,163.05 -1.461,4.382 -4.619,0.035 c -0.598,0.004 -0.846,0.768 -0.365,1.123 l 3.715,2.744 -1.394,4.404 c -0.18,0.57 0.469,1.042 0.956,0.694 l 3.758,-2.686 3.758,2.686 c 0.487,0.348 1.135,-0.124 0.956,-0.694 l -1.394,-4.404 3.715,-2.744 c 0.481,-0.355 0.233,-1.119 -0.365,-1.123 l -4.619,-0.035 -1.461,-4.382 c -0.188,-0.567 -0.991,-0.567 -1.18,0 z"
   id="path2857" />
	<path
   style="fill:#f5f5f5"
   d="m 269.283,163.05 -1.461,4.382 -4.619,0.035 c -0.598,0.004 -0.846,0.768 -0.365,1.123 l 3.716,2.744 -1.394,4.404 c -0.18,0.57 0.469,1.042 0.956,0.694 l 3.758,-2.686 3.758,2.686 c 0.487,0.348 1.135,-0.124 0.956,-0.694 l -1.394,-4.404 3.716,-2.744 c 0.481,-0.355 0.233,-1.119 -0.365,-1.123 l -4.619,-0.035 -1.461,-4.382 c -0.191,-0.567 -0.993,-0.567 -1.182,0 z"
   id="path2859" />
	<path
   style="fill:#f5f5f5"
   d="m 171.656,132.678 -1.461,4.382 -4.619,0.035 c -0.598,0.004 -0.846,0.768 -0.365,1.123 l 3.715,2.744 -1.394,4.404 c -0.18,0.57 0.469,1.042 0.956,0.694 l 3.758,-2.686 3.758,2.686 c 0.487,0.348 1.135,-0.124 0.956,-0.694 l -1.394,-4.404 3.715,-2.744 c 0.481,-0.355 0.233,-1.119 -0.365,-1.123 l -4.619,-0.035 -1.461,-4.382 c -0.189,-0.569 -0.992,-0.569 -1.18,0 z"
   id="path2861" />
	<path
   style="fill:#f5f5f5"
   d="m 204.198,132.678 -1.461,4.382 -4.619,0.035 c -0.598,0.004 -0.846,0.768 -0.365,1.123 l 3.716,2.744 -1.394,4.404 c -0.18,0.57 0.469,1.042 0.956,0.694 l 3.758,-2.686 3.758,2.686 c 0.487,0.348 1.135,-0.124 0.956,-0.694 l -1.394,-4.404 3.715,-2.744 c 0.481,-0.355 0.233,-1.119 -0.365,-1.123 l -4.619,-0.035 -1.461,-4.382 c -0.189,-0.569 -0.992,-0.569 -1.181,0 z"
   id="path2863" />
	<path
   style="fill:#f5f5f5"
   d="m 236.74,132.678 -1.461,4.382 -4.619,0.035 c -0.598,0.004 -0.846,0.768 -0.365,1.123 l 3.715,2.744 -1.394,4.404 c -0.18,0.57 0.469,1.042 0.956,0.694 l 3.758,-2.686 3.758,2.686 c 0.487,0.348 1.135,-0.124 0.956,-0.694 l -1.394,-4.404 3.715,-2.744 c 0.481,-0.355 0.233,-1.119 -0.365,-1.123 l -4.619,-0.035 -1.461,-4.382 c -0.188,-0.569 -0.991,-0.569 -1.18,0 z"
   id="path2865" />
	<path
   style="fill:#f5f5f5"
   d="m 269.283,132.678 -1.461,4.382 -4.619,0.035 c -0.598,0.004 -0.846,0.768 -0.365,1.123 l 3.716,2.744 -1.394,4.404 c -0.18,0.57 0.469,1.042 0.956,0.694 l 3.758,-2.686 3.758,2.686 c 0.487,0.348 1.135,-0.124 0.956,-0.694 l -1.394,-4.404 3.716,-2.744 c 0.481,-0.355 0.233,-1.119 -0.365,-1.123 l -4.619,-0.035 -1.461,-4.382 c -0.191,-0.569 -0.993,-0.569 -1.182,0 z"
   id="path2867" />
	<path
   style="fill:#f5f5f5"
   d="m 204.198,163.05 -1.461,4.382 -4.619,0.035 c -0.598,0.004 -0.846,0.768 -0.365,1.123 l 3.716,2.744 -1.394,4.404 c -0.18,0.57 0.469,1.042 0.956,0.694 l 3.758,-2.686 3.758,2.686 c 0.487,0.348 1.135,-0.124 0.956,-0.694 l -1.394,-4.404 3.715,-2.744 c 0.481,-0.355 0.233,-1.119 -0.365,-1.123 l -4.619,-0.035 -1.461,-4.382 c -0.189,-0.567 -0.992,-0.567 -1.181,0 z"
   id="path2869" />
	<path
   style="fill:#f5f5f5"
   d="m 204.198,102.304 -1.461,4.382 -4.619,0.035 c -0.598,0.004 -0.846,0.768 -0.365,1.123 l 3.716,2.744 -1.394,4.404 c -0.18,0.57 0.469,1.042 0.956,0.694 l 3.758,-2.686 3.758,2.686 c 0.487,0.348 1.135,-0.124 0.956,-0.694 l -1.394,-4.404 3.715,-2.744 c 0.481,-0.355 0.233,-1.119 -0.365,-1.123 l -4.619,-0.035 -1.461,-4.382 c -0.189,-0.567 -0.992,-0.567 -1.181,0 z"
   id="path2871" />
	<path
   style="fill:#f5f5f5"
   d="m 236.74,163.05 -1.461,4.382 -4.619,0.035 c -0.598,0.004 -0.846,0.768 -0.365,1.123 l 3.715,2.744 -1.394,4.404 c -0.18,0.57 0.469,1.042 0.956,0.694 l 3.758,-2.686 3.758,2.686 c 0.487,0.348 1.135,-0.124 0.956,-0.694 l -1.394,-4.404 3.715,-2.744 c 0.481,-0.355 0.233,-1.119 -0.365,-1.123 l -4.619,-0.035 -1.461,-4.382 c -0.188,-0.567 -0.991,-0.567 -1.18,0 z"
   id="path2873" />
	<path
   style="fill:#f5f5f5"
   d="m 269.283,163.05 -1.461,4.382 -4.619,0.035 c -0.598,0.004 -0.846,0.768 -0.365,1.123 l 3.716,2.744 -1.394,4.404 c -0.18,0.57 0.469,1.042 0.956,0.694 l 3.758,-2.686 3.758,2.686 c 0.487,0.348 1.135,-0.124 0.956,-0.694 l -1.394,-4.404 3.716,-2.744 c 0.481,-0.355 0.233,-1.119 -0.365,-1.123 l -4.619,-0.035 -1.461,-4.382 c -0.191,-0.567 -0.993,-0.567 -1.182,0 z"
   id="path2875" />
	<path
   style="fill:#f5f5f5"
   d="m 236.74,102.304 -1.461,4.382 -4.619,0.035 c -0.598,0.004 -0.846,0.768 -0.365,1.123 l 3.715,2.744 -1.394,4.404 c -0.18,0.57 0.469,1.042 0.956,0.694 l 3.758,-2.686 3.758,2.686 c 0.487,0.348 1.135,-0.124 0.956,-0.694 l -1.394,-4.404 3.715,-2.744 c 0.481,-0.355 0.233,-1.119 -0.365,-1.123 l -4.619,-0.035 -1.461,-4.382 c -0.188,-0.567 -0.991,-0.567 -1.18,0 z"
   id="path2877" />
	<path
   style="fill:#f5f5f5"
   d="m 269.283,102.304 -1.461,4.382 -4.619,0.035 c -0.598,0.004 -0.846,0.768 -0.365,1.123 l 3.716,2.744 -1.394,4.404 c -0.18,0.57 0.469,1.042 0.956,0.694 l 3.758,-2.686 3.758,2.686 c 0.487,0.348 1.135,-0.124 0.956,-0.694 l -1.394,-4.404 3.716,-2.744 c 0.481,-0.355 0.233,-1.119 -0.365,-1.123 l -4.619,-0.035 -1.461,-4.382 c -0.191,-0.567 -0.993,-0.567 -1.182,0 z"
   id="path2879" />
</g>
<g
   id="g2883"
   transform="translate(0,-88.276)">
</g>
<g
   id="g2885"
   transform="translate(0,-88.276)">
</g>
<g
   id="g2887"
   transform="translate(0,-88.276)">
</g>
<g
   id="g2889"
   transform="translate(0,-88.276)">
</g>
<g
   id="g2891"
   transform="translate(0,-88.276)">
</g>
<g
   id="g2893"
   transform="translate(0,-88.276)">
</g>
<g
   id="g2895"
   transform="translate(0,-88.276)">
</g>
<g
   id="g2897"
   transform="translate(0,-88.276)">
</g>
<g
   id="g2899"
   transform="translate(0,-88.276)">
</g>
<g
   id="g2901"
   transform="translate(0,-88.276)">
</g>
<g
   id="g2903"
   transform="translate(0,-88.276)">
</g>
<g
   id="g2905"
   transform="translate(0,-88.276)">
</g>
<g
   id="g2907"
   transform="translate(0,-88.276)">
</g>
<g
   id="g2909"
   transform="translate(0,-88.276)">
</g>
<g
   id="g2911"
   transform="translate(0,-88.276)">
</g>
</svg>
