<?xml version="1.0" encoding="UTF-8" standalone="no"?>
<svg
   xmlns:dc="http://purl.org/dc/elements/1.1/"
   xmlns:cc="http://creativecommons.org/ns#"
   xmlns:rdf="http://www.w3.org/1999/02/22-rdf-syntax-ns#"
   xmlns:svg="http://www.w3.org/2000/svg"
   xmlns="http://www.w3.org/2000/svg"
   xmlns:sodipodi="http://sodipodi.sourceforge.net/DTD/sodipodi-0.dtd"
   xmlns:inkscape="http://www.inkscape.org/namespaces/inkscape"
   version="1.1"
   id="Layer_1"
   x="0px"
   y="0px"
   viewBox="0 0 512 335.45001"
   xml:space="preserve"
   sodipodi:docname="va.svg"
   width="512"
   height="335.45001"
   inkscape:version="1.0.1 (c497b03c, 2020-09-10)"><metadata
   id="metadata3128"><rdf:RDF><cc:Work
       rdf:about=""><dc:format>image/svg+xml</dc:format><dc:type
         rdf:resource="http://purl.org/dc/dcmitype/StillImage" /><dc:title></dc:title></cc:Work></rdf:RDF></metadata><defs
   id="defs3126" /><sodipodi:namedview
   pagecolor="#ffffff"
   bordercolor="#666666"
   borderopacity="1"
   objecttolerance="10"
   gridtolerance="10"
   guidetolerance="10"
   inkscape:pageopacity="0"
   inkscape:pageshadow="2"
   inkscape:window-width="1056"
   inkscape:window-height="696"
   id="namedview3124"
   showgrid="false"
   inkscape:zoom="1.0742188"
   inkscape:cx="256"
   inkscape:cy="256"
   inkscape:window-x="0"
   inkscape:window-y="23"
   inkscape:window-maximized="0"
   inkscape:current-layer="Layer_1" />
<path
   style="fill:#f5f5f5"
   d="M 473.655,0 H 256 v 335.448 h 217.655 c 21.177,0 38.345,-17.167 38.345,-38.345 V 38.345 C 512,17.167 494.833,0 473.655,0 Z"
   id="path2987" />
<path
   style="fill:#ffe15a"
   d="M 38.345,0 C 17.167,0 0,17.167 0,38.345 v 258.76 c 0,21.177 17.167,38.345 38.345,38.345 H 256 V 0 Z"
   id="path2989" />
<g
   id="g2997"
   transform="translate(0,-88.275)">
	<path
   style="fill:#ebebeb"
   d="m 408.267,174.751 -0.587,1.173 c 1.895,0.97 2.978,2.074 2.978,3.25 l -0.295,-5.831 c -0.394,0.783 -1.167,1.345 -2.096,1.408 z"
   id="path2991" />
	<path
   style="fill:#ebebeb"
   d="m 362.438,175.924 -0.587,-1.173 c -0.928,-0.064 -1.7,-0.625 -2.098,-1.408 l -0.294,5.831 c 0,-1.173 1.084,-2.279 2.979,-3.25 z"
   id="path2993" />
	<path
   style="fill:#ebebeb"
   d="m 362.019,169.665 c 1.414,0 2.56,1.146 2.56,2.56 0,0.512 -0.189,0.962 -0.448,1.362 l 0.674,1.347 c 1.932,-0.679 4.312,-1.256 7.027,-1.703 l -0.288,-1.152 c -1.058,-0.314 -1.845,-1.256 -1.845,-2.415 0,-1.414 1.146,-2.56 2.56,-2.56 1.414,0 2.56,1.146 2.56,2.56 0,0.722 -0.303,1.367 -0.783,1.833 l 0.342,1.367 c 1.427,-0.179 2.922,-0.32 4.474,-0.426 -0.116,-0.481 -0.193,-0.978 -0.193,-1.494 0,-3.534 2.866,-6.4 6.4,-6.4 3.534,0 6.4,2.866 6.4,6.4 0,0.518 -0.077,1.013 -0.193,1.494 1.554,0.105 3.049,0.247 4.474,0.426 l 0.342,-1.367 c -0.48,-0.466 -0.783,-1.111 -0.783,-1.833 0,-1.414 1.146,-2.56 2.56,-2.56 1.414,0 2.56,1.146 2.56,2.56 0,1.16 -0.787,2.101 -1.845,2.415 l -0.288,1.152 c 2.714,0.446 5.095,1.023 7.027,1.703 l 0.674,-1.347 c -0.259,-0.401 -0.448,-0.85 -0.448,-1.362 0,-1.414 1.146,-2.56 2.56,-2.56 0.921,0 1.693,0.513 2.143,1.244 l -0.196,-3.904 c -2.528,-2.87 -12.746,-5.02 -24.987,-5.02 -12.241,0 -22.458,2.148 -24.986,5.02 l -0.196,3.904 c 0.45,-0.731 1.221,-1.244 2.142,-1.244 z"
   id="path2995" />
</g>
<path
   style="fill:#e6b432"
   d="m 389.056,51.275 c 0.693,-0.874 1.123,-1.964 1.123,-3.165 0,-2.383 -1.635,-4.367 -3.84,-4.939 v -3.134 c 0.751,-0.446 1.28,-1.23 1.28,-2.167 0,-1.414 -1.146,-2.56 -2.56,-2.56 -1.414,0 -2.56,1.146 -2.56,2.56 0,0.937 0.529,1.721 1.28,2.167 v 3.134 c -2.205,0.57 -3.84,2.556 -3.84,4.939 0,1.202 0.431,2.292 1.123,3.165 1.302,-0.356 2.628,-0.605 3.997,-0.605 1.369,0 2.694,0.248 3.997,0.605 z"
   id="path2999" />
<path
   style="fill:#ebebeb"
   d="m 374.332,64.235 -0.227,-0.909 c -1.058,-0.314 -1.845,-1.256 -1.845,-2.415 0,-1.414 1.146,-2.56 2.56,-2.56 1.414,0 2.56,1.146 2.56,2.56 0,0.722 -0.303,1.367 -0.783,1.833 l 0.289,1.154 c 2.505,-0.274 5.267,-0.427 8.174,-0.427 -2.121,0 -3.84,-1.719 -3.84,-3.84 0,-2.121 1.719,-3.84 3.84,-3.84 2.121,0 3.84,1.719 3.84,3.84 0,2.121 -1.719,3.84 -3.84,3.84 2.908,0 5.67,0.153 8.174,0.427 l 0.289,-1.154 c -0.48,-0.466 -0.783,-1.111 -0.783,-1.833 0,-1.414 1.146,-2.56 2.56,-2.56 1.414,0 2.56,1.146 2.56,2.56 0,1.16 -0.787,2.101 -1.845,2.415 l -0.227,0.909 c 1.301,0.201 2.511,0.434 3.597,0.7 l 1.887,-3.774 c -3.265,-5.059 -7.484,-8.589 -12.216,-9.885 -1.302,-0.356 -2.628,-0.605 -3.997,-0.605 -1.368,0 -2.694,0.248 -3.997,0.605 -4.733,1.295 -8.951,4.825 -12.216,9.885 l 1.887,3.774 c 1.087,-0.265 2.298,-0.498 3.599,-0.7 z"
   id="path3001" />
<g
   id="g3007"
   transform="translate(0,-88.275)">
	<path
   style="fill:#e6b432"
   d="m 382.499,362.135 v -5.59 c 0,-0.599 0.084,-1.175 0.214,-1.734 -0.068,-0.044 -0.143,-0.075 -0.214,-0.116 -0.756,-0.439 -1.623,-0.71 -2.56,-0.71 -0.937,0 -1.804,0.27 -2.56,0.71 -1.524,0.887 -2.56,2.519 -2.56,4.41 0,1.377 0.551,2.622 1.434,3.541 1.098,-0.606 2.343,-0.981 3.685,-0.981 0.904,0 1.757,0.184 2.561,0.47 z"
   id="path3003" />
	<path
   style="fill:#e6b432"
   d="m 387.619,341.896 c -1.524,0.887 -2.56,2.519 -2.56,4.41 0,1.377 0.551,2.622 1.434,3.541 1.098,-0.606 2.343,-0.981 3.686,-0.981 1.343,0 2.586,0.375 3.686,0.981 0.884,-0.92 1.434,-2.164 1.434,-3.541 0,-1.89 -1.036,-3.523 -2.56,-4.41 -0.756,-0.439 -1.623,-0.71 -2.56,-0.71 -0.937,-10e-4 -1.804,0.27 -2.56,0.71 z"
   id="path3005" />
</g>
<path
   style="fill:#ff4b57"
   d="m 386.494,261.571 c -1.88,1.037 -3.283,2.817 -3.78,4.966 -0.129,0.559 -0.214,1.135 -0.214,1.734 v 5.59 c -0.804,-0.286 -1.657,-0.47 -2.56,-0.47 -1.343,0 -2.588,0.375 -3.686,0.981 -2.37,1.308 -3.994,3.8 -3.994,6.699 v 10.24 h 15.36 v -10.24 c 0,-0.903 -0.184,-1.756 -0.47,-2.56 h 10.71 v -10.24 c 0,-2.898 -1.624,-5.391 -3.994,-6.699 -1.098,-0.606 -2.343,-0.981 -3.686,-0.981 -1.343,0 -2.588,0.374 -3.686,0.98 z"
   id="path3009" />
<g
   id="g3015"
   transform="translate(0,-88.275)">
	<path
   style="fill:#e6b432"
   d="m 387.619,246.896 4.374,4.375 1.496,-1.496 c 0.355,-0.355 0.797,-0.538 1.254,-0.641 l 21.651,-21.656 13.868,13.868 9.05,-9.05 -3.62,-3.62 -1.811,1.81 -3.62,-3.62 1.81,-1.81 -1.81,-1.811 3.62,-3.62 1.811,1.81 1.81,-1.81 3.62,3.62 -1.81,1.811 3.62,3.62 9.05,-9.05 -13.871,-13.871 9.492,-9.495 c -0.458,-0.188 -0.888,-0.465 -1.26,-0.836 l -5.12,-5.12 c -0.382,-0.382 -0.661,-0.825 -0.849,-1.297 l -53.333,53.347 c 0.341,0.435 0.577,0.958 0.577,1.554 z"
   id="path3011" />
	<path
   style="fill:#e6b432"
   d="m 381.747,262.133 -7.241,-7.241 -22.507,22.514 c -1.998,2.001 -1.998,5.242 10e-4,7.24 1,1 2.31,1.5 3.62,1.5 1.31,0 2.622,-0.5 3.622,-1.5 l 17.592,-17.597 z"
   id="path3013" />
</g>
<g
   id="g3025"
   transform="translate(0,-88.275)">
	<path
   style="fill:#d2d2d2"
   d="m 311.864,288.704 c 0.142,-0.402 0.235,-0.828 0.235,-1.279 0,-2.121 -1.719,-3.84 -3.84,-3.84 -2.121,0 -3.84,1.719 -3.84,3.84 0,2.121 1.719,3.84 3.84,3.84 0.451,0 0.877,-0.092 1.279,-0.235 0.726,-0.824 1.502,-1.6 2.326,-2.326 z"
   id="path3017" />
	<path
   style="fill:#d2d2d2"
   d="m 309.538,324.781 c -0.402,-0.142 -0.828,-0.235 -1.279,-0.235 -2.121,0 -3.84,1.719 -3.84,3.84 0,2.121 1.719,3.84 3.84,3.84 2.121,0 3.84,-1.719 3.84,-3.84 0,-0.45 -0.092,-0.877 -0.235,-1.279 -0.824,-0.726 -1.6,-1.503 -2.326,-2.326 z"
   id="path3019" />
	<path
   style="fill:#d2d2d2"
   d="m 347.94,291.031 c 0.402,0.142 0.828,0.235 1.279,0.235 2.121,0 3.84,-1.719 3.84,-3.84 0,-2.121 -1.719,-3.84 -3.84,-3.84 -2.121,0 -3.84,1.719 -3.84,3.84 0,0.451 0.092,0.877 0.235,1.279 0.825,0.725 1.6,1.501 2.326,2.326 z"
   id="path3021" />
	<path
   style="fill:#d2d2d2"
   d="m 345.379,328.385 c 0,2.121 1.719,3.84 3.84,3.84 1.183,0 2.227,-0.546 2.932,-1.387 -2.407,-0.871 -4.655,-1.841 -6.727,-2.903 -0.017,0.151 -0.045,0.297 -0.045,0.45 z"
   id="path3023" />
</g>
<path
   style="fill:#e6b432"
   d="m 340.033,236.403 c -0.539,-0.391 -0.862,-0.957 -0.987,-1.561 -0.435,0.094 -0.884,0.149 -1.347,0.149 -3.04,0 -5.581,-2.135 -6.23,-4.983 -0.696,0.705 -1.662,1.143 -2.73,1.143 -1.069,0 -2.035,-0.438 -2.73,-1.143 -0.648,2.848 -3.189,4.983 -6.23,4.983 -3.529,0 -6.4,-2.87 -6.4,-6.4 0,-3.041 2.136,-5.581 4.983,-6.23 -0.705,-0.696 -1.143,-1.662 -1.143,-2.73 0,-1.069 0.438,-2.035 1.143,-2.73 -2.847,-0.648 -4.983,-3.189 -4.983,-6.23 0,-3.53 2.871,-6.4 6.4,-6.4 3.04,0 5.581,2.135 6.23,4.983 0.696,-0.705 1.662,-1.143 2.73,-1.143 1.069,0 2.035,0.438 2.73,1.143 0.648,-2.848 3.189,-4.983 6.23,-4.983 3.529,0 6.4,2.87 6.4,6.4 0,3.041 -2.136,5.581 -4.983,6.23 0.705,0.696 1.143,1.662 1.143,2.73 0,1.069 -0.438,2.035 -1.143,2.73 2.847,0.648 4.983,3.189 4.983,6.23 0,1.35 -0.425,2.599 -1.141,3.633 0.024,0.017 0.053,0.018 0.077,0.035 1.656,1.199 3.565,2.314 5.685,3.333 0.638,-0.797 1.218,-1.639 1.758,-2.509 1.687,-2.717 2.879,-5.763 3.451,-9.027 0.253,-1.44 0.409,-2.912 0.409,-4.424 0,-6.466 -2.43,-12.364 -6.399,-16.875 -0.726,-0.824 -1.502,-1.601 -2.326,-2.326 -4.511,-3.969 -10.408,-6.399 -16.875,-6.399 -6.467,0 -12.364,2.43 -16.875,6.399 -0.824,0.726 -1.601,1.502 -2.326,2.326 -3.969,4.511 -6.399,10.408 -6.399,16.875 0,6.467 2.43,12.364 6.399,16.875 0.726,0.824 1.502,1.601 2.326,2.326 4.511,3.969 10.408,6.399 16.875,6.399 6.152,0 11.8,-2.184 16.22,-5.813 -1.781,-0.941 -3.442,-1.941 -4.925,-3.016 z m 8.497,-21.951 c 0.435,1.657 0.69,3.387 0.69,5.178 0,1.791 -0.255,3.521 -0.69,5.178 -0.723,-2.062 -2.005,-3.839 -3.679,-5.178 1.674,-1.339 2.956,-3.116 3.679,-5.178 z M 333.918,199.84 c -2.062,0.723 -3.839,2.005 -5.178,3.679 -1.34,-1.674 -3.116,-2.956 -5.178,-3.679 1.657,-0.435 3.386,-0.69 5.178,-0.69 1.792,0 3.52,0.255 5.178,0.69 z m -24.969,14.612 c 0.723,2.062 2.005,3.84 3.679,5.178 -1.674,1.34 -2.956,3.116 -3.679,5.178 -0.435,-1.657 -0.69,-3.386 -0.69,-5.178 0,-1.792 0.255,-3.52 0.69,-5.178 z m 14.612,24.969 c 2.062,-0.723 3.839,-2.005 5.178,-3.679 1.34,1.674 3.116,2.957 5.178,3.679 -1.657,0.435 -3.386,0.69 -5.178,0.69 -1.792,0 -3.521,-0.256 -5.178,-0.69 z"
   id="path3027" />
<g
   id="g3037"
   transform="translate(0,-88.275)">
	<path
   style="fill:#f0c814"
   d="m 324.899,307.906 c 0,-2.121 -1.719,-3.84 -3.84,-3.84 -1.052,0 -2.004,0.425 -2.697,1.11 -0.705,0.696 -1.143,1.662 -1.143,2.73 0,1.069 0.438,2.035 1.143,2.73 0.694,0.685 1.645,1.11 2.697,1.11 2.121,-10e-4 3.84,-1.72 3.84,-3.84 z"
   id="path3029" />
	<path
   style="fill:#f0c814"
   d="m 332.579,307.906 c 0,2.121 1.719,3.84 3.84,3.84 1.052,0 2.004,-0.425 2.697,-1.11 0.705,-0.696 1.143,-1.662 1.143,-2.73 0,-1.069 -0.438,-2.035 -1.143,-2.73 -0.694,-0.685 -1.645,-1.11 -2.697,-1.11 -2.121,-10e-4 -3.84,1.718 -3.84,3.84 z"
   id="path3031" />
	<path
   style="fill:#f0c814"
   d="m 328.739,304.065 c 2.121,0 3.84,-1.719 3.84,-3.84 0,-1.052 -0.425,-2.004 -1.11,-2.697 -0.696,-0.705 -1.662,-1.143 -2.73,-1.143 -1.069,0 -2.035,0.438 -2.73,1.143 -0.685,0.694 -1.11,1.645 -1.11,2.697 0,2.121 1.719,3.84 3.84,3.84 z"
   id="path3033" />
	<path
   style="fill:#f0c814"
   d="m 328.739,311.745 c -2.121,0 -3.84,1.719 -3.84,3.84 0,1.052 0.425,2.004 1.11,2.697 0.696,0.705 1.662,1.143 2.73,1.143 1.069,0 2.035,-0.438 2.73,-1.143 0.685,-0.693 1.11,-1.645 1.11,-2.697 0,-2.121 -1.719,-3.84 -3.84,-3.84 z"
   id="path3035" />
</g>
<g
   id="g3055"
   transform="translate(0,-88.275)">
	<path
   style="fill:#d2d2d2"
   d="m 446.345,195.421 c 0.372,0.372 0.802,0.65 1.26,0.836 0.466,0.191 0.96,0.288 1.455,0.288 0.982,0 1.965,-0.375 2.714,-1.126 1.331,-1.331 1.411,-3.361 0.381,-4.857 l 1.416,-5.661 c 0.201,0.051 0.393,0.122 0.609,0.122 1.414,0 2.56,-1.146 2.56,-2.56 0,-1.414 -1.146,-2.56 -2.56,-2.56 -1.414,0 -2.56,1.146 -2.56,2.56 0,0.216 0.073,0.408 0.122,0.609 l -5.661,1.416 c -1.496,-1.031 -3.527,-0.95 -4.857,0.381 -1.118,1.118 -1.398,2.752 -0.849,4.134 0.188,0.471 0.467,0.915 0.849,1.297 z"
   id="path3039" />
	<path
   style="fill:#d2d2d2"
   d="m 382.499,255.645 v -1.5 -10.24 c 0,-0.596 0.236,-1.119 0.577,-1.554 l -53.333,-53.347 c -0.188,0.471 -0.467,0.915 -0.849,1.297 l -5.12,5.12 c -0.372,0.372 -0.802,0.65 -1.26,0.836 l 9.492,9.495 -13.871,13.871 9.05,9.05 3.62,-3.62 -1.81,-1.811 3.62,-3.62 1.81,1.81 1.811,-1.81 3.62,3.62 -1.81,1.811 1.81,1.81 -3.62,3.62 -1.811,-1.81 -3.62,3.62 9.05,9.05 13.868,-13.868 21.651,21.656 c 0.457,0.103 0.898,0.286 1.254,0.641 z"
   id="path3041" />
	<path
   style="fill:#d2d2d2"
   d="m 388.372,262.133 4.914,4.915 17.592,17.597 c 1,1 2.309,1.5 3.622,1.5 1.31,0 2.62,-0.5 3.62,-1.5 2.001,-1.997 2.001,-5.24 10e-4,-7.24 l -22.507,-22.514 z"
   id="path3043" />
	<polygon
   style="fill:#d2d2d2"
   points="391.993,251.271 387.619,246.896 387.619,254.145 387.619,255.645 "
   id="polygon3045" />
	<path
   style="fill:#d2d2d2"
   d="m 460.58,291.031 c 0.402,0.142 0.828,0.235 1.279,0.235 2.121,0 3.84,-1.719 3.84,-3.84 0,-2.121 -1.719,-3.84 -3.84,-3.84 -2.121,0 -3.84,1.719 -3.84,3.84 0,0.451 0.092,0.877 0.235,1.279 0.825,0.725 1.6,1.501 2.326,2.326 z"
   id="path3047" />
	<path
   style="fill:#d2d2d2"
   d="m 461.859,324.545 c -0.451,0 -0.877,0.092 -1.279,0.235 -0.726,0.824 -1.502,1.601 -2.326,2.326 -0.142,0.402 -0.235,0.828 -0.235,1.279 0,2.121 1.719,3.84 3.84,3.84 2.121,0 3.84,-1.719 3.84,-3.84 0,-2.12 -1.719,-3.84 -3.84,-3.84 z"
   id="path3049" />
	<path
   style="fill:#d2d2d2"
   d="m 424.504,288.704 c 0.142,-0.402 0.235,-0.828 0.235,-1.279 0,-2.121 -1.719,-3.84 -3.84,-3.84 -2.121,0 -3.84,1.719 -3.84,3.84 0,2.121 1.719,3.84 3.84,3.84 0.451,0 0.877,-0.092 1.279,-0.235 0.726,-0.824 1.502,-1.6 2.326,-2.326 z"
   id="path3051" />
	<path
   style="fill:#d2d2d2"
   d="m 420.899,332.226 c 2.121,0 3.84,-1.719 3.84,-3.84 0,-0.154 -0.028,-0.3 -0.045,-0.45 -2.07,1.063 -4.32,2.033 -6.726,2.904 0.705,0.84 1.748,1.386 2.931,1.386 z"
   id="path3053" />
</g>
<path
   style="fill:#e6b432"
   d="m 460.58,236.506 c 3.969,-4.511 6.399,-10.408 6.399,-16.875 0,-6.467 -2.43,-12.364 -6.399,-16.875 -0.726,-0.824 -1.502,-1.601 -2.326,-2.326 -4.511,-3.969 -10.408,-6.399 -16.875,-6.399 -6.467,0 -12.364,2.43 -16.875,6.399 -0.824,0.726 -1.601,1.502 -2.326,2.326 -3.969,4.511 -6.399,10.408 -6.399,16.875 0,1.519 0.158,3 0.413,4.448 0.574,3.256 1.764,6.294 3.447,9.004 0.541,0.871 1.12,1.711 1.758,2.509 2.118,-1.018 4.025,-2.132 5.681,-3.33 0.025,-0.019 0.056,-0.02 0.082,-0.038 -0.716,-1.033 -1.141,-2.283 -1.141,-3.633 0,-3.041 2.136,-5.581 4.983,-6.23 -0.705,-0.696 -1.143,-1.662 -1.143,-2.73 0,-1.069 0.438,-2.035 1.143,-2.73 -2.847,-0.648 -4.983,-3.189 -4.983,-6.23 0,-3.53 2.871,-6.4 6.4,-6.4 3.04,0 5.581,2.135 6.23,4.983 0.696,-0.705 1.662,-1.143 2.73,-1.143 1.068,0 2.035,0.438 2.73,1.143 0.649,-2.848 3.189,-4.983 6.23,-4.983 3.529,0 6.4,2.87 6.4,6.4 0,3.041 -2.136,5.581 -4.983,6.23 0.705,0.696 1.143,1.662 1.143,2.73 0,1.069 -0.438,2.035 -1.143,2.73 2.847,0.648 4.983,3.189 4.983,6.23 0,3.53 -2.871,6.4 -6.4,6.4 -3.04,0 -5.581,-2.135 -6.23,-4.983 -0.696,0.705 -1.662,1.143 -2.73,1.143 -1.068,0 -2.035,-0.438 -2.73,-1.143 -0.649,2.848 -3.189,4.983 -6.23,4.983 -0.463,0 -0.914,-0.055 -1.351,-0.149 -0.124,0.606 -0.448,1.174 -0.989,1.565 -1.482,1.074 -3.14,2.073 -4.921,3.012 4.419,3.629 10.069,5.813 16.22,5.813 6.467,0 12.364,-2.43 16.875,-6.399 0.826,-0.727 1.601,-1.504 2.327,-2.327 z m -38.991,-11.697 c -0.435,-1.657 -0.69,-3.386 -0.69,-5.178 0,-1.792 0.255,-3.521 0.69,-5.178 0.723,2.062 2.005,3.84 3.679,5.178 -1.674,1.339 -2.956,3.115 -3.679,5.178 z m 19.79,-21.29 c -1.34,-1.674 -3.116,-2.956 -5.178,-3.679 1.657,-0.435 3.386,-0.69 5.178,-0.69 1.792,0 3.521,0.255 5.178,0.69 -2.062,0.724 -3.838,2.005 -5.178,3.679 z m 19.791,10.933 c 0.435,1.657 0.69,3.387 0.69,5.178 0,1.791 -0.255,3.521 -0.69,5.178 -0.723,-2.062 -2.005,-3.839 -3.679,-5.178 1.674,-1.339 2.956,-3.116 3.679,-5.178 z m -24.969,24.969 c 2.062,-0.723 3.839,-2.005 5.178,-3.679 1.34,1.674 3.116,2.957 5.178,3.679 -1.657,0.435 -3.386,0.69 -5.178,0.69 -1.792,0 -3.521,-0.256 -5.178,-0.69 z"
   id="path3057" />
<g
   id="g3067"
   transform="translate(0,-88.275)">
	<path
   style="fill:#f0c814"
   d="m 445.219,307.906 c 0,2.121 1.719,3.84 3.84,3.84 1.052,0 2.004,-0.425 2.697,-1.11 0.705,-0.696 1.143,-1.662 1.143,-2.73 0,-1.069 -0.438,-2.035 -1.143,-2.73 -0.694,-0.685 -1.645,-1.11 -2.697,-1.11 -2.121,-10e-4 -3.84,1.718 -3.84,3.84 z"
   id="path3059" />
	<path
   style="fill:#f0c814"
   d="m 437.539,307.906 c 0,-2.121 -1.719,-3.84 -3.84,-3.84 -1.052,0 -2.004,0.425 -2.697,1.11 -0.705,0.696 -1.143,1.662 -1.143,2.73 0,1.069 0.438,2.035 1.143,2.73 0.694,0.685 1.645,1.11 2.697,1.11 2.121,-10e-4 3.84,-1.72 3.84,-3.84 z"
   id="path3061" />
	<path
   style="fill:#f0c814"
   d="m 441.379,304.065 c 2.121,0 3.84,-1.719 3.84,-3.84 0,-1.052 -0.425,-2.004 -1.11,-2.697 -0.696,-0.705 -1.662,-1.143 -2.73,-1.143 -1.068,0 -2.035,0.438 -2.73,1.143 -0.685,0.694 -1.11,1.645 -1.11,2.697 0,2.121 1.719,3.84 3.84,3.84 z"
   id="path3063" />
	<path
   style="fill:#f0c814"
   d="m 441.379,311.745 c -2.121,0 -3.84,1.719 -3.84,3.84 0,1.052 0.425,2.004 1.11,2.697 0.696,0.705 1.662,1.143 2.73,1.143 1.068,0 2.035,-0.438 2.73,-1.143 0.685,-0.693 1.11,-1.645 1.11,-2.697 0,-2.121 -1.719,-3.84 -3.84,-3.84 z"
   id="path3065" />
</g>
<path
   style="fill:#f7b518"
   d="m 328.894,102.025 c 0.382,-0.382 0.661,-0.825 0.849,-1.297 0.548,-1.382 0.269,-3.015 -0.849,-4.134 -1.331,-1.331 -3.361,-1.411 -4.857,-0.381 l -5.661,-1.416 c 0.051,-0.201 0.122,-0.393 0.122,-0.609 0,-1.414 -1.146,-2.56 -2.56,-2.56 -1.414,0 -2.56,1.146 -2.56,2.56 0,1.414 1.146,2.56 2.56,2.56 0.216,0 0.408,-0.073 0.609,-0.122 l 1.416,5.661 c -1.031,1.496 -0.95,3.527 0.381,4.857 0.75,0.75 1.732,1.126 2.714,1.126 0.495,0 0.99,-0.098 1.455,-0.288 0.458,-0.188 0.888,-0.465 1.26,-0.836 z"
   id="path3069" />
<path
   style="fill:#ff4b55"
   d="m 430.08,236.405 c 0.541,-0.391 0.864,-0.959 0.989,-1.565 0.139,-0.679 0.022,-1.406 -0.416,-2.01 -0.811,-1.117 -2.353,-1.375 -3.492,-0.608 -0.026,0.018 -0.056,0.019 -0.082,0.038 -1.655,1.198 -3.563,2.312 -5.681,3.33 -7.506,3.611 -17.667,6.019 -28.658,6.798 V 206.43 c 11.172,15.257 22.054,23.457 26.9,26.652 -1.683,-2.71 -2.873,-5.748 -3.447,-9.004 -6.196,-5.126 -14.957,-13.736 -23.453,-26.718 v -17.395 c 0.181,-0.399 0.366,-0.788 0.546,-1.192 l -4.914,-4.915 7.241,-7.241 1.496,-1.496 c 1,-1 1,-2.62 0,-3.62 -0.644,-0.644 -1.539,-0.828 -2.367,-0.641 -0.457,0.103 -0.897,0.286 -1.254,0.641 l -1.496,1.496 -4.374,4.374 v -1.5 -7.25 -2.99 c 0,-0.596 -0.236,-1.119 -0.577,-1.554 -0.469,-0.598 -1.165,-1.006 -1.983,-1.006 -0.819,0 -1.514,0.408 -1.983,1.006 -0.341,0.435 -0.577,0.958 -0.577,1.554 v 10.24 1.5 l -5.87,-5.87 c -0.355,-0.355 -0.797,-0.538 -1.254,-0.641 -0.828,-0.186 -1.722,-0.003 -2.367,0.641 -1,1 -1,2.62 0,3.62 l 1.496,1.496 7.241,7.241 -4.914,4.915 c 0.18,0.405 0.365,0.792 0.546,1.192 v 17.374 c -8.487,12.956 -17.25,21.576 -23.449,26.714 -0.573,3.265 -1.763,6.312 -3.451,9.027 4.846,-3.194 15.727,-11.394 26.9,-26.652 v 35.958 c -10.991,-0.778 -21.152,-3.187 -28.659,-6.797 -2.12,-1.02 -4.029,-2.134 -5.685,-3.333 -0.024,-0.018 -0.053,-0.019 -0.077,-0.035 -1.139,-0.77 -2.684,-0.511 -3.498,0.605 -0.439,0.606 -0.555,1.334 -0.414,2.014 0.125,0.604 0.448,1.171 0.986,1.561 1.484,1.075 3.144,2.076 4.926,3.015 0.155,0.082 0.309,0.162 0.466,0.243 2.07,1.063 4.32,2.033 6.727,2.903 7.27,2.631 15.932,4.351 25.228,4.966 v 18.891 c 0.756,-0.439 1.623,-0.71 2.56,-0.71 0.937,0 1.804,0.27 2.56,0.71 v -18.667 c 0.851,0.018 1.702,0.036 2.56,0.036 0.858,0 1.709,-0.019 2.56,-0.036 v 5.867 c 0.756,-0.439 1.623,-0.71 2.56,-0.71 0.937,0 1.804,0.27 2.56,0.71 v -6.091 c 9.297,-0.615 17.96,-2.335 25.229,-4.966 2.407,-0.871 4.655,-1.841 6.726,-2.904 0.157,-0.081 0.311,-0.161 0.466,-0.243 1.783,-0.935 3.441,-1.937 4.923,-3.01 z m -45.021,6.265 c -0.856,0 -1.709,-0.018 -2.56,-0.038 v -43.691 c 0.858,-1.347 1.711,-2.749 2.56,-4.185 0.849,1.437 1.702,2.838 2.56,4.185 v 43.691 c -0.85,0.021 -1.703,0.038 -2.56,0.038 z"
   id="path3071" />
<g
   id="g3079"
   transform="translate(0,-88.275)">
	<path
   style="fill:#e6b432"
   d="m 385.059,184.456 c 14.138,0 25.6,2.42 25.6,5.405 0,-5.022 0,-9.922 0,-10.687 0,-1.174 -1.084,-2.28 -2.978,-3.25 l 0.587,-1.173 c 0.928,-0.064 1.7,-0.625 2.098,-1.408 0.172,-0.34 0.295,-0.708 0.295,-1.118 0,-0.492 -0.175,-0.926 -0.417,-1.316 -0.451,-0.73 -1.221,-1.244 -2.143,-1.244 -1.414,0 -2.56,1.146 -2.56,2.56 0,0.512 0.189,0.962 0.448,1.362 l -0.674,1.347 c -1.932,-0.679 -4.312,-1.256 -7.027,-1.703 l 0.288,-1.152 c 1.058,-0.314 1.845,-1.256 1.845,-2.415 0,-1.414 -1.146,-2.56 -2.56,-2.56 -1.414,0 -2.56,1.146 -2.56,2.56 0,0.722 0.303,1.367 0.783,1.833 l -0.342,1.367 c -1.427,-0.179 -2.922,-0.32 -4.474,-0.426 0.116,-0.481 0.193,-0.978 0.193,-1.494 0,-3.534 -2.866,-6.4 -6.4,-6.4 -3.534,0 -6.4,2.866 -6.4,6.4 0,0.518 0.077,1.013 0.193,1.494 -1.554,0.105 -3.049,0.247 -4.474,0.426 l -0.342,-1.367 c 0.48,-0.466 0.783,-1.111 0.783,-1.833 0,-1.414 -1.146,-2.56 -2.56,-2.56 -1.414,0 -2.56,1.146 -2.56,2.56 0,1.16 0.787,2.101 1.845,2.415 l 0.288,1.152 c -2.714,0.446 -5.095,1.023 -7.027,1.703 l -0.674,-1.347 c 0.259,-0.401 0.448,-0.85 0.448,-1.362 0,-1.414 -1.146,-2.56 -2.56,-2.56 -0.921,0 -1.693,0.513 -2.143,1.244 -0.241,0.391 -0.417,0.824 -0.417,1.316 0,0.409 0.121,0.778 0.294,1.118 0.397,0.783 1.17,1.344 2.098,1.408 l 0.587,1.173 c -1.895,0.97 -2.978,2.074 -2.978,3.25 0,0.766 0,5.665 0,10.687 -0.003,-2.985 11.459,-5.405 25.597,-5.405 z"
   id="path3073" />
	<path
   style="fill:#e6b432"
   d="m 359.459,190.145 0.032,-0.013 c -0.008,-0.086 -0.032,-0.202 -0.032,-0.271 0,0.096 0,0.189 0,0.284 z"
   id="path3075" />
	<path
   style="fill:#e6b432"
   d="m 410.659,190.145 c 0,-0.095 0,-0.189 0,-0.285 0,0.07 -0.024,0.186 -0.032,0.271 z"
   id="path3077" />
</g>
<path
   style="fill:#ebebeb"
   d="m 364.579,106.991 c 0,0.512 -0.189,0.962 -0.448,1.362 l 0.97,1.941 c 1.694,-0.84 4.008,-1.561 6.775,-2.114 l -0.333,-1.333 c -1.058,-0.314 -1.845,-1.256 -1.845,-2.415 0,-1.414 1.146,-2.56 2.56,-2.56 1.414,0 2.56,1.146 2.56,2.56 0,0.722 -0.303,1.367 -0.783,1.833 l 0.37,1.476 c 2.47,-0.369 5.198,-0.615 8.094,-0.706 v -2.319 c -0.78,-0.703 -1.28,-1.71 -1.28,-2.844 0,-2.121 1.719,-3.84 3.84,-3.84 2.121,0 3.84,1.719 3.84,3.84 0,1.133 -0.5,2.141 -1.28,2.844 v 2.319 c 2.895,0.092 5.624,0.338 8.094,0.706 l 0.37,-1.476 c -0.48,-0.466 -0.783,-1.111 -0.783,-1.833 0,-1.414 1.146,-2.56 2.56,-2.56 1.414,0 2.56,1.146 2.56,2.56 0,1.16 -0.787,2.101 -1.845,2.415 l -0.333,1.333 c 2.767,0.553 5.082,1.276 6.775,2.114 l 0.97,-1.941 c -0.259,-0.401 -0.448,-0.85 -0.448,-1.362 0,-1.414 1.146,-2.56 2.56,-2.56 0.612,0 1.152,0.245 1.592,0.604 0.57,-1.399 0.873,-2.51 0.936,-3.176 0.008,-0.086 0.032,-0.202 0.032,-0.271 0,-2.985 -11.462,-5.405 -25.6,-5.405 -14.138,0 -25.6,2.42 -25.6,5.405 0,0.07 0.024,0.186 0.032,0.271 0.062,0.666 0.365,1.777 0.935,3.176 0.44,-0.359 0.98,-0.604 1.592,-0.604 1.415,-10e-4 2.561,1.146 2.561,2.56 z"
   id="path3081" />
<path
   style="fill:#e6b432"
   d="m 359.459,106.991 c 0,1.354 1.06,2.435 2.391,2.526 l 1.105,2.209 c -0.599,0.587 -0.937,1.205 -0.937,1.847 0,0.738 0.445,1.447 1.23,2.11 l 3.89,6.668 c 0,-2.828 8.023,-5.12 17.92,-5.12 9.897,0 17.92,2.292 17.92,5.12 l 3.89,-6.668 c 0.786,-0.663 1.23,-1.37 1.23,-2.11 0,-0.642 -0.337,-1.26 -0.937,-1.847 l 1.105,-2.209 c 1.331,-0.092 2.392,-1.172 2.392,-2.526 0,-0.801 -0.391,-1.487 -0.968,-1.956 -0.44,-0.359 -0.98,-0.604 -1.592,-0.604 -1.414,0 -2.56,1.146 -2.56,2.56 0,0.512 0.189,0.962 0.448,1.362 l -0.97,1.941 c -1.694,-0.84 -4.008,-1.561 -6.775,-2.114 l 0.333,-1.333 c 1.058,-0.314 1.845,-1.256 1.845,-2.415 0,-1.414 -1.146,-2.56 -2.56,-2.56 -1.414,0 -2.56,1.146 -2.56,2.56 0,0.722 0.303,1.367 0.783,1.833 l -0.37,1.476 c -2.47,-0.369 -5.198,-0.615 -8.094,-0.706 v -2.319 c 0.78,-0.703 1.28,-1.71 1.28,-2.844 0,-2.121 -1.719,-3.84 -3.84,-3.84 -2.121,0 -3.84,1.719 -3.84,3.84 0,1.133 0.5,2.141 1.28,2.844 v 2.319 c -2.895,0.092 -5.624,0.338 -8.094,0.706 l -0.37,-1.476 c 0.48,-0.466 0.783,-1.111 0.783,-1.833 0,-1.414 -1.146,-2.56 -2.56,-2.56 -1.414,0 -2.56,1.146 -2.56,2.56 0,1.16 0.787,2.101 1.845,2.415 l 0.333,1.333 c -2.767,0.553 -5.082,1.276 -6.775,2.114 l -0.97,-1.941 c 0.259,-0.401 0.448,-0.85 0.448,-1.362 0,-1.414 -1.146,-2.56 -2.56,-2.56 -0.612,0 -1.152,0.245 -1.592,0.604 -0.576,0.469 -0.967,1.154 -0.967,1.956 z"
   id="path3083" />
<ellipse
   style="fill:#ebebeb"
   cx="385.06"
   cy="122.355"
   rx="17.92"
   ry="5.1199999"
   id="ellipse3085" />
<g
   id="g3091"
   transform="translate(0,-88.275)">
	<path
   style="fill:#e6b432"
   d="m 410.046,167.005 -4.507,-10.14 c 0,-0.64 -0.491,-1.25 -1.35,-1.815 l 3.639,-7.279 c 0.632,-1.265 0.12,-2.803 -1.145,-3.435 -1.268,-0.628 -2.803,-0.117 -3.435,1.145 l -1.977,3.955 -1.887,3.774 c -1.086,-0.266 -2.297,-0.499 -3.597,-0.7 l 0.227,-0.909 c 1.058,-0.314 1.845,-1.256 1.845,-2.415 0,-1.414 -1.146,-2.56 -2.56,-2.56 -1.414,0 -2.56,1.146 -2.56,2.56 0,0.722 0.303,1.367 0.783,1.833 l -0.289,1.154 c -2.505,-0.274 -5.267,-0.427 -8.174,-0.427 -2.908,0 -5.67,0.153 -8.174,0.427 l -0.289,-1.154 c 0.48,-0.466 0.783,-1.111 0.783,-1.833 0,-1.414 -1.146,-2.56 -2.56,-2.56 -1.414,0 -2.56,1.146 -2.56,2.56 0,1.16 0.787,2.101 1.845,2.415 l 0.227,0.909 c -1.301,0.201 -2.511,0.434 -3.598,0.7 l -1.887,-3.774 -1.977,-3.955 c -0.633,-1.262 -2.166,-1.772 -3.435,-1.145 -1.265,0.632 -1.778,2.17 -1.145,3.435 l 3.639,7.279 c -0.858,0.565 -1.35,1.175 -1.35,1.815 l -4.507,10.14 c 2.528,-2.87 12.746,-5.02 24.987,-5.02 12.242,0 22.46,2.149 24.988,5.02 z"
   id="path3087" />
	<circle
   style="fill:#e6b432"
   cx="385.06"
   cy="147.91"
   r="3.8399999"
   id="circle3089" />
</g>
<g
   id="g3093"
   transform="translate(0,-88.275)">
</g>
<g
   id="g3095"
   transform="translate(0,-88.275)">
</g>
<g
   id="g3097"
   transform="translate(0,-88.275)">
</g>
<g
   id="g3099"
   transform="translate(0,-88.275)">
</g>
<g
   id="g3101"
   transform="translate(0,-88.275)">
</g>
<g
   id="g3103"
   transform="translate(0,-88.275)">
</g>
<g
   id="g3105"
   transform="translate(0,-88.275)">
</g>
<g
   id="g3107"
   transform="translate(0,-88.275)">
</g>
<g
   id="g3109"
   transform="translate(0,-88.275)">
</g>
<g
   id="g3111"
   transform="translate(0,-88.275)">
</g>
<g
   id="g3113"
   transform="translate(0,-88.275)">
</g>
<g
   id="g3115"
   transform="translate(0,-88.275)">
</g>
<g
   id="g3117"
   transform="translate(0,-88.275)">
</g>
<g
   id="g3119"
   transform="translate(0,-88.275)">
</g>
<g
   id="g3121"
   transform="translate(0,-88.275)">
</g>
</svg>
