<svg xmlns="http://www.w3.org/2000/svg" xml:space="preserve" width="512" height="335.45001"><path style="fill:#f5f5f5" d="M473.655 0H256v335.448h217.655c21.177 0 38.345-17.167 38.345-38.345V38.345C512 17.167 494.833 0 473.655 0z"/><path style="fill:#ffe15a" d="M38.345 0C17.167 0 0 17.167 0 38.345v258.76c0 21.177 17.167 38.345 38.345 38.345H256V0z"/><path style="fill:#ebebeb" d="m408.267 174.751-.587 1.173c1.895.97 2.978 2.074 2.978 3.25l-.295-5.831c-.394.783-1.167 1.345-2.096 1.408zm-45.829 1.173-.587-1.173c-.928-.064-1.7-.625-2.098-1.408l-.294 5.831c0-1.173 1.084-2.279 2.979-3.25zm-.419-6.259c1.414 0 2.56 1.146 2.56 2.56 0 .512-.189.962-.448 1.362l.674 1.347c1.932-.679 4.312-1.256 7.027-1.703l-.288-1.152c-1.058-.314-1.845-1.256-1.845-2.415 0-1.414 1.146-2.56 2.56-2.56 1.414 0 2.56 1.146 2.56 2.56 0 .722-.303 1.367-.783 1.833l.342 1.367c1.427-.179 2.922-.32 4.474-.426-.116-.481-.193-.978-.193-1.494 0-3.534 2.866-6.4 6.4-6.4 3.534 0 6.4 2.866 6.4 6.4 0 .518-.077 1.013-.193 1.494 1.554.105 3.049.247 4.474.426l.342-1.367c-.48-.466-.783-1.111-.783-1.833 0-1.414 1.146-2.56 2.56-2.56 1.414 0 2.56 1.146 2.56 2.56 0 1.16-.787 2.101-1.845 2.415l-.288 1.152c2.714.446 5.095 1.023 7.027 1.703l.674-1.347c-.259-.401-.448-.85-.448-1.362 0-1.414 1.146-2.56 2.56-2.56.921 0 1.693.513 2.143 1.244l-.196-3.904c-2.528-2.87-12.746-5.02-24.987-5.02-12.241 0-22.458 2.148-24.986 5.02l-.196 3.904c.45-.731 1.221-1.244 2.142-1.244z" transform="translate(0 -88.275)"/><path style="fill:#e6b432" d="M389.056 51.275c.693-.874 1.123-1.964 1.123-3.165 0-2.383-1.635-4.367-3.84-4.939v-3.134c.751-.446 1.28-1.23 1.28-2.167 0-1.414-1.146-2.56-2.56-2.56-1.414 0-2.56 1.146-2.56 2.56 0 .937.529 1.721 1.28 2.167v3.134c-2.205.57-3.84 2.556-3.84 4.939 0 1.202.431 2.292 1.123 3.165 1.302-.356 2.628-.605 3.997-.605 1.369 0 2.694.248 3.997.605z"/><path style="fill:#ebebeb" d="m374.332 64.235-.227-.909c-1.058-.314-1.845-1.256-1.845-2.415 0-1.414 1.146-2.56 2.56-2.56 1.414 0 2.56 1.146 2.56 2.56 0 .722-.303 1.367-.783 1.833l.289 1.154c2.505-.274 5.267-.427 8.174-.427-2.121 0-3.84-1.719-3.84-3.84 0-2.121 1.719-3.84 3.84-3.84 2.121 0 3.84 1.719 3.84 3.84 0 2.121-1.719 3.84-3.84 3.84 2.908 0 5.67.153 8.174.427l.289-1.154c-.48-.466-.783-1.111-.783-1.833 0-1.414 1.146-2.56 2.56-2.56 1.414 0 2.56 1.146 2.56 2.56 0 1.16-.787 2.101-1.845 2.415l-.227.909c1.301.201 2.511.434 3.597.7l1.887-3.774c-3.265-5.059-7.484-8.589-12.216-9.885-1.302-.356-2.628-.605-3.997-.605-1.368 0-2.694.248-3.997.605-4.733 1.295-8.951 4.825-12.216 9.885l1.887 3.774c1.087-.265 2.298-.498 3.599-.7z"/><path style="fill:#e6b432" d="M382.499 362.135v-5.59c0-.599.084-1.175.214-1.734-.068-.044-.143-.075-.214-.116-.756-.439-1.623-.71-2.56-.71s-1.804.27-2.56.71c-1.524.887-2.56 2.519-2.56 4.41 0 1.377.551 2.622 1.434 3.541 1.098-.606 2.343-.981 3.685-.981.904 0 1.757.184 2.561.47zm5.12-20.239c-1.524.887-2.56 2.519-2.56 4.41 0 1.377.551 2.622 1.434 3.541 1.098-.606 2.343-.981 3.686-.981s2.586.375 3.686.981c.884-.92 1.434-2.164 1.434-3.541 0-1.89-1.036-3.523-2.56-4.41-.756-.439-1.623-.71-2.56-.71-.937-.001-1.804.27-2.56.71z" transform="translate(0 -88.275)"/><path style="fill:#ff4b57" d="M386.494 261.571c-1.88 1.037-3.283 2.817-3.78 4.966-.129.559-.214 1.135-.214 1.734v5.59c-.804-.286-1.657-.47-2.56-.47-1.343 0-2.588.375-3.686.981-2.37 1.308-3.994 3.8-3.994 6.699v10.24h15.36v-10.24c0-.903-.184-1.756-.47-2.56h10.71v-10.24c0-2.898-1.624-5.391-3.994-6.699-1.098-.606-2.343-.981-3.686-.981s-2.588.374-3.686.98z"/><path style="fill:#e6b432" d="m387.619 246.896 4.374 4.375 1.496-1.496c.355-.355.797-.538 1.254-.641l21.651-21.656 13.868 13.868 9.05-9.05-3.62-3.62-1.811 1.81-3.62-3.62 1.81-1.81-1.81-1.811 3.62-3.62 1.811 1.81 1.81-1.81 3.62 3.62-1.81 1.811 3.62 3.62 9.05-9.05-13.871-13.871 9.492-9.495c-.458-.188-.888-.465-1.26-.836l-5.12-5.12c-.382-.382-.661-.825-.849-1.297l-53.333 53.347c.341.435.577.958.577 1.554zm-5.872 15.237-7.241-7.241-22.507 22.514c-1.998 2.001-1.998 5.242.001 7.24 1 1 2.31 1.5 3.62 1.5s2.622-.5 3.622-1.5l17.592-17.597z" transform="translate(0 -88.275)"/><path style="fill:#d2d2d2" d="M311.864 288.704c.142-.402.235-.828.235-1.279 0-2.121-1.719-3.84-3.84-3.84-2.121 0-3.84 1.719-3.84 3.84 0 2.121 1.719 3.84 3.84 3.84.451 0 .877-.092 1.279-.235.726-.824 1.502-1.6 2.326-2.326zm-2.326 36.077c-.402-.142-.828-.235-1.279-.235-2.121 0-3.84 1.719-3.84 3.84 0 2.121 1.719 3.84 3.84 3.84 2.121 0 3.84-1.719 3.84-3.84 0-.45-.092-.877-.235-1.279-.824-.726-1.6-1.503-2.326-2.326zm38.402-33.75c.402.142.828.235 1.279.235 2.121 0 3.84-1.719 3.84-3.84 0-2.121-1.719-3.84-3.84-3.84-2.121 0-3.84 1.719-3.84 3.84 0 .451.092.877.235 1.279.825.725 1.6 1.501 2.326 2.326zm-2.561 37.354c0 2.121 1.719 3.84 3.84 3.84 1.183 0 2.227-.546 2.932-1.387-2.407-.871-4.655-1.841-6.727-2.903-.017.151-.045.297-.045.45z" transform="translate(0 -88.275)"/><path style="fill:#e6b432" d="M340.033 236.403c-.539-.391-.862-.957-.987-1.561-.435.094-.884.149-1.347.149-3.04 0-5.581-2.135-6.23-4.983-.696.705-1.662 1.143-2.73 1.143-1.069 0-2.035-.438-2.73-1.143-.648 2.848-3.189 4.983-6.23 4.983-3.529 0-6.4-2.87-6.4-6.4 0-3.041 2.136-5.581 4.983-6.23-.705-.696-1.143-1.662-1.143-2.73 0-1.069.438-2.035 1.143-2.73-2.847-.648-4.983-3.189-4.983-6.23 0-3.53 2.871-6.4 6.4-6.4 3.04 0 5.581 2.135 6.23 4.983.696-.705 1.662-1.143 2.73-1.143 1.069 0 2.035.438 2.73 1.143.648-2.848 3.189-4.983 6.23-4.983 3.529 0 6.4 2.87 6.4 6.4 0 3.041-2.136 5.581-4.983 6.23.705.696 1.143 1.662 1.143 2.73 0 1.069-.438 2.035-1.143 2.73 2.847.648 4.983 3.189 4.983 6.23 0 1.35-.425 2.599-1.141 3.633.024.017.053.018.077.035 1.656 1.199 3.565 2.314 5.685 3.333.638-.797 1.218-1.639 1.758-2.509 1.687-2.717 2.879-5.763 3.451-9.027.253-1.44.409-2.912.409-4.424 0-6.466-2.43-12.364-6.399-16.875-.726-.824-1.502-1.601-2.326-2.326-4.511-3.969-10.408-6.399-16.875-6.399-6.467 0-12.364 2.43-16.875 6.399-.824.726-1.601 1.502-2.326 2.326-3.969 4.511-6.399 10.408-6.399 16.875 0 6.467 2.43 12.364 6.399 16.875.726.824 1.502 1.601 2.326 2.326 4.511 3.969 10.408 6.399 16.875 6.399 6.152 0 11.8-2.184 16.22-5.813-1.781-.941-3.442-1.941-4.925-3.016zm8.497-21.951c.435 1.657.69 3.387.69 5.178s-.255 3.521-.69 5.178c-.723-2.062-2.005-3.839-3.679-5.178 1.674-1.339 2.956-3.116 3.679-5.178zm-14.612-14.612c-2.062.723-3.839 2.005-5.178 3.679-1.34-1.674-3.116-2.956-5.178-3.679 1.657-.435 3.386-.69 5.178-.69 1.792 0 3.52.255 5.178.69zm-24.969 14.612c.723 2.062 2.005 3.84 3.679 5.178-1.674 1.34-2.956 3.116-3.679 5.178-.435-1.657-.69-3.386-.69-5.178 0-1.792.255-3.52.69-5.178zm14.612 24.969c2.062-.723 3.839-2.005 5.178-3.679 1.34 1.674 3.116 2.957 5.178 3.679-1.657.435-3.386.69-5.178.69-1.792 0-3.521-.256-5.178-.69z"/><path style="fill:#f0c814" d="M324.899 307.906c0-2.121-1.719-3.84-3.84-3.84-1.052 0-2.004.425-2.697 1.11-.705.696-1.143 1.662-1.143 2.73 0 1.069.438 2.035 1.143 2.73.694.685 1.645 1.11 2.697 1.11 2.121-.001 3.84-1.72 3.84-3.84zm7.68 0c0 2.121 1.719 3.84 3.84 3.84 1.052 0 2.004-.425 2.697-1.11.705-.696 1.143-1.662 1.143-2.73 0-1.069-.438-2.035-1.143-2.73-.694-.685-1.645-1.11-2.697-1.11-2.121-.001-3.84 1.718-3.84 3.84zm-3.84-3.841c2.121 0 3.84-1.719 3.84-3.84 0-1.052-.425-2.004-1.11-2.697-.696-.705-1.662-1.143-2.73-1.143-1.069 0-2.035.438-2.73 1.143-.685.694-1.11 1.645-1.11 2.697 0 2.121 1.719 3.84 3.84 3.84zm0 7.68c-2.121 0-3.84 1.719-3.84 3.84 0 1.052.425 2.004 1.11 2.697.696.705 1.662 1.143 2.73 1.143 1.069 0 2.035-.438 2.73-1.143.685-.693 1.11-1.645 1.11-2.697 0-2.121-1.719-3.84-3.84-3.84z" transform="translate(0 -88.275)"/><path style="fill:#d2d2d2" d="M446.345 195.421c.372.372.802.65 1.26.836.466.191.96.288 1.455.288.982 0 1.965-.375 2.714-1.126 1.331-1.331 1.411-3.361.381-4.857l1.416-5.661c.201.051.393.122.609.122 1.414 0 2.56-1.146 2.56-2.56 0-1.414-1.146-2.56-2.56-2.56-1.414 0-2.56 1.146-2.56 2.56 0 .216.073.408.122.609l-5.661 1.416c-1.496-1.031-3.527-.95-4.857.381-1.118 1.118-1.398 2.752-.849 4.134.188.471.467.915.849 1.297zm-63.846 60.224v-11.74c0-.596.236-1.119.577-1.554l-53.333-53.347c-.188.471-.467.915-.849 1.297l-5.12 5.12c-.372.372-.802.65-1.26.836l9.492 9.495-13.871 13.871 9.05 9.05 3.62-3.62-1.81-1.811 3.62-3.62 1.81 1.81 1.811-1.81 3.62 3.62-1.81 1.811 1.81 1.81-3.62 3.62-1.811-1.81-3.62 3.62 9.05 9.05 13.868-13.868 21.651 21.656c.457.103.898.286 1.254.641zm5.873 6.488 4.914 4.915 17.592 17.597c1 1 2.309 1.5 3.622 1.5 1.31 0 2.62-.5 3.62-1.5 2.001-1.997 2.001-5.24.001-7.24l-22.507-22.514zm3.621-10.862-4.374-4.375v8.749zm68.587 39.76c.402.142.828.235 1.279.235 2.121 0 3.84-1.719 3.84-3.84 0-2.121-1.719-3.84-3.84-3.84-2.121 0-3.84 1.719-3.84 3.84 0 .451.092.877.235 1.279.825.725 1.6 1.501 2.326 2.326zm1.279 33.514c-.451 0-.877.092-1.279.235-.726.824-1.502 1.601-2.326 2.326-.142.402-.235.828-.235 1.279 0 2.121 1.719 3.84 3.84 3.84 2.121 0 3.84-1.719 3.84-3.84 0-2.12-1.719-3.84-3.84-3.84z" transform="translate(0 -88.275)"/><path style="fill:#d2d2d2" d="M424.504 288.704c.142-.402.235-.828.235-1.279 0-2.121-1.719-3.84-3.84-3.84-2.121 0-3.84 1.719-3.84 3.84 0 2.121 1.719 3.84 3.84 3.84.451 0 .877-.092 1.279-.235.726-.824 1.502-1.6 2.326-2.326zm-3.605 43.522c2.121 0 3.84-1.719 3.84-3.84 0-.154-.028-.3-.045-.45-2.07 1.063-4.32 2.033-6.726 2.904.705.84 1.748 1.386 2.931 1.386z" transform="translate(0 -88.275)"/><path style="fill:#e6b432" d="M460.58 236.506c3.969-4.511 6.399-10.408 6.399-16.875 0-6.467-2.43-12.364-6.399-16.875-.726-.824-1.502-1.601-2.326-2.326-4.511-3.969-10.408-6.399-16.875-6.399-6.467 0-12.364 2.43-16.875 6.399-.824.726-1.601 1.502-2.326 2.326-3.969 4.511-6.399 10.408-6.399 16.875 0 1.519.158 3 .413 4.448.574 3.256 1.764 6.294 3.447 9.004.541.871 1.12 1.711 1.758 2.509 2.118-1.018 4.025-2.132 5.681-3.33.025-.019.056-.02.082-.038-.716-1.033-1.141-2.283-1.141-3.633 0-3.041 2.136-5.581 4.983-6.23-.705-.696-1.143-1.662-1.143-2.73 0-1.069.438-2.035 1.143-2.73-2.847-.648-4.983-3.189-4.983-6.23 0-3.53 2.871-6.4 6.4-6.4 3.04 0 5.581 2.135 6.23 4.983.696-.705 1.662-1.143 2.73-1.143s2.035.438 2.73 1.143c.649-2.848 3.189-4.983 6.23-4.983 3.529 0 6.4 2.87 6.4 6.4 0 3.041-2.136 5.581-4.983 6.23.705.696 1.143 1.662 1.143 2.73 0 1.069-.438 2.035-1.143 2.73 2.847.648 4.983 3.189 4.983 6.23 0 3.53-2.871 6.4-6.4 6.4-3.04 0-5.581-2.135-6.23-4.983-.696.705-1.662 1.143-2.73 1.143s-2.035-.438-2.73-1.143c-.649 2.848-3.189 4.983-6.23 4.983-.463 0-.914-.055-1.351-.149-.124.606-.448 1.174-.989 1.565-1.482 1.074-3.14 2.073-4.921 3.012 4.419 3.629 10.069 5.813 16.22 5.813 6.467 0 12.364-2.43 16.875-6.399.826-.727 1.601-1.504 2.327-2.327zm-38.991-11.697c-.435-1.657-.69-3.386-.69-5.178 0-1.792.255-3.521.69-5.178.723 2.062 2.005 3.84 3.679 5.178-1.674 1.339-2.956 3.115-3.679 5.178zm19.79-21.29c-1.34-1.674-3.116-2.956-5.178-3.679 1.657-.435 3.386-.69 5.178-.69 1.792 0 3.521.255 5.178.69-2.062.724-3.838 2.005-5.178 3.679zm19.791 10.933c.435 1.657.69 3.387.69 5.178s-.255 3.521-.69 5.178c-.723-2.062-2.005-3.839-3.679-5.178 1.674-1.339 2.956-3.116 3.679-5.178zm-24.969 24.969c2.062-.723 3.839-2.005 5.178-3.679 1.34 1.674 3.116 2.957 5.178 3.679-1.657.435-3.386.69-5.178.69-1.792 0-3.521-.256-5.178-.69z"/><path style="fill:#f0c814" d="M445.219 307.906c0 2.121 1.719 3.84 3.84 3.84 1.052 0 2.004-.425 2.697-1.11.705-.696 1.143-1.662 1.143-2.73 0-1.069-.438-2.035-1.143-2.73-.694-.685-1.645-1.11-2.697-1.11-2.121-.001-3.84 1.718-3.84 3.84zm-7.68 0c0-2.121-1.719-3.84-3.84-3.84-1.052 0-2.004.425-2.697 1.11-.705.696-1.143 1.662-1.143 2.73 0 1.069.438 2.035 1.143 2.73.694.685 1.645 1.11 2.697 1.11 2.121-.001 3.84-1.72 3.84-3.84zm3.84-3.841c2.121 0 3.84-1.719 3.84-3.84 0-1.052-.425-2.004-1.11-2.697-.696-.705-1.662-1.143-2.73-1.143s-2.035.438-2.73 1.143c-.685.694-1.11 1.645-1.11 2.697 0 2.121 1.719 3.84 3.84 3.84zm0 7.68c-2.121 0-3.84 1.719-3.84 3.84 0 1.052.425 2.004 1.11 2.697.696.705 1.662 1.143 2.73 1.143s2.035-.438 2.73-1.143c.685-.693 1.11-1.645 1.11-2.697 0-2.121-1.719-3.84-3.84-3.84z" transform="translate(0 -88.275)"/><path style="fill:#f7b518" d="M328.894 102.025c.382-.382.661-.825.849-1.297.548-1.382.269-3.015-.849-4.134-1.331-1.331-3.361-1.411-4.857-.381l-5.661-1.416c.051-.201.122-.393.122-.609 0-1.414-1.146-2.56-2.56-2.56-1.414 0-2.56 1.146-2.56 2.56 0 1.414 1.146 2.56 2.56 2.56.216 0 .408-.073.609-.122l1.416 5.661c-1.031 1.496-.95 3.527.381 4.857.75.75 1.732 1.126 2.714 1.126.495 0 .99-.098 1.455-.288.458-.188.888-.465 1.26-.836z"/><path style="fill:#ff4b55" d="M430.08 236.405c.541-.391.864-.959.989-1.565.139-.679.022-1.406-.416-2.01-.811-1.117-2.353-1.375-3.492-.608-.026.018-.056.019-.082.038-1.655 1.198-3.563 2.312-5.681 3.33-7.506 3.611-17.667 6.019-28.658 6.798V206.43c11.172 15.257 22.054 23.457 26.9 26.652-1.683-2.71-2.873-5.748-3.447-9.004-6.196-5.126-14.957-13.736-23.453-26.718v-17.395c.181-.399.366-.788.546-1.192l-4.914-4.915 7.241-7.241 1.496-1.496c1-1 1-2.62 0-3.62-.644-.644-1.539-.828-2.367-.641-.457.103-.897.286-1.254.641l-1.496 1.496-4.374 4.374v-11.74c0-.596-.236-1.119-.577-1.554-.469-.598-1.165-1.006-1.983-1.006-.819 0-1.514.408-1.983 1.006-.341.435-.577.958-.577 1.554v11.74l-5.87-5.87c-.355-.355-.797-.538-1.254-.641-.828-.186-1.722-.003-2.367.641-1 1-1 2.62 0 3.62l1.496 1.496 7.241 7.241-4.914 4.915c.18.405.365.792.546 1.192v17.374c-8.487 12.956-17.25 21.576-23.449 26.714-.573 3.265-1.763 6.312-3.451 9.027 4.846-3.194 15.727-11.394 26.9-26.652v35.958c-10.991-.778-21.152-3.187-28.659-6.797-2.12-1.02-4.029-2.134-5.685-3.333-.024-.018-.053-.019-.077-.035-1.139-.77-2.684-.511-3.498.605-.439.606-.555 1.334-.414 2.014.125.604.448 1.171.986 1.561 1.484 1.075 3.144 2.076 4.926 3.015.155.082.309.162.466.243 2.07 1.063 4.32 2.033 6.727 2.903 7.27 2.631 15.932 4.351 25.228 4.966v18.891c.756-.439 1.623-.71 2.56-.71s1.804.27 2.56.71v-18.667c.851.018 1.702.036 2.56.036.858 0 1.709-.019 2.56-.036v5.867c.756-.439 1.623-.71 2.56-.71s1.804.27 2.56.71v-6.091c9.297-.615 17.96-2.335 25.229-4.966 2.407-.871 4.655-1.841 6.726-2.904.157-.081.311-.161.466-.243 1.783-.935 3.441-1.937 4.923-3.01zm-45.021 6.265c-.856 0-1.709-.018-2.56-.038v-43.691c.858-1.347 1.711-2.749 2.56-4.185.849 1.437 1.702 2.838 2.56 4.185v43.691c-.85.021-1.703.038-2.56.038z"/><path style="fill:#e6b432" d="M385.059 184.456c14.138 0 25.6 2.42 25.6 5.405v-10.687c0-1.174-1.084-2.28-2.978-3.25l.587-1.173c.928-.064 1.7-.625 2.098-1.408.172-.34.295-.708.295-1.118 0-.492-.175-.926-.417-1.316-.451-.73-1.221-1.244-2.143-1.244-1.414 0-2.56 1.146-2.56 2.56 0 .512.189.962.448 1.362l-.674 1.347c-1.932-.679-4.312-1.256-7.027-1.703l.288-1.152c1.058-.314 1.845-1.256 1.845-2.415 0-1.414-1.146-2.56-2.56-2.56-1.414 0-2.56 1.146-2.56 2.56 0 .722.303 1.367.783 1.833l-.342 1.367c-1.427-.179-2.922-.32-4.474-.426.116-.481.193-.978.193-1.494 0-3.534-2.866-6.4-6.4-6.4-3.534 0-6.4 2.866-6.4 6.4 0 .518.077 1.013.193 1.494-1.554.105-3.049.247-4.474.426l-.342-1.367c.48-.466.783-1.111.783-1.833 0-1.414-1.146-2.56-2.56-2.56-1.414 0-2.56 1.146-2.56 2.56 0 1.16.787 2.101 1.845 2.415l.288 1.152c-2.714.446-5.095 1.023-7.027 1.703l-.674-1.347c.259-.401.448-.85.448-1.362 0-1.414-1.146-2.56-2.56-2.56-.921 0-1.693.513-2.143 1.244-.241.391-.417.824-.417 1.316 0 .409.121.778.294 1.118.397.783 1.17 1.344 2.098 1.408l.587 1.173c-1.895.97-2.978 2.074-2.978 3.25v10.687c-.003-2.985 11.459-5.405 25.597-5.405zm-25.6 5.689.032-.013c-.008-.086-.032-.202-.032-.271v.284z" transform="translate(0 -88.275)"/><path style="fill:#e6b432" d="M410.659 190.145v-.285c0 .07-.024.186-.032.271z" transform="translate(0 -88.275)"/><path style="fill:#ebebeb" d="M364.579 106.991c0 .512-.189.962-.448 1.362l.97 1.941c1.694-.84 4.008-1.561 6.775-2.114l-.333-1.333c-1.058-.314-1.845-1.256-1.845-2.415 0-1.414 1.146-2.56 2.56-2.56 1.414 0 2.56 1.146 2.56 2.56 0 .722-.303 1.367-.783 1.833l.37 1.476c2.47-.369 5.198-.615 8.094-.706v-2.319c-.78-.703-1.28-1.71-1.28-2.844 0-2.121 1.719-3.84 3.84-3.84 2.121 0 3.84 1.719 3.84 3.84 0 1.133-.5 2.141-1.28 2.844v2.319c2.895.092 5.624.338 8.094.706l.37-1.476c-.48-.466-.783-1.111-.783-1.833 0-1.414 1.146-2.56 2.56-2.56 1.414 0 2.56 1.146 2.56 2.56 0 1.16-.787 2.101-1.845 2.415l-.333 1.333c2.767.553 5.082 1.276 6.775 2.114l.97-1.941c-.259-.401-.448-.85-.448-1.362 0-1.414 1.146-2.56 2.56-2.56.612 0 1.152.245 1.592.604.57-1.399.873-2.51.936-3.176.008-.086.032-.202.032-.271 0-2.985-11.462-5.405-25.6-5.405-14.138 0-25.6 2.42-25.6 5.405 0 .07.024.186.032.271.062.666.365 1.777.935 3.176.44-.359.98-.604 1.592-.604 1.415-.001 2.561 1.146 2.561 2.56z"/><path style="fill:#e6b432" d="M359.459 106.991c0 1.354 1.06 2.435 2.391 2.526l1.105 2.209c-.599.587-.937 1.205-.937 1.847 0 .738.445 1.447 1.23 2.11l3.89 6.668c0-2.828 8.023-5.12 17.92-5.12 9.897 0 17.92 2.292 17.92 5.12l3.89-6.668c.786-.663 1.23-1.37 1.23-2.11 0-.642-.337-1.26-.937-1.847l1.105-2.209c1.331-.092 2.392-1.172 2.392-2.526 0-.801-.391-1.487-.968-1.956-.44-.359-.98-.604-1.592-.604-1.414 0-2.56 1.146-2.56 2.56 0 .512.189.962.448 1.362l-.97 1.941c-1.694-.84-4.008-1.561-6.775-2.114l.333-1.333c1.058-.314 1.845-1.256 1.845-2.415 0-1.414-1.146-2.56-2.56-2.56-1.414 0-2.56 1.146-2.56 2.56 0 .722.303 1.367.783 1.833l-.37 1.476c-2.47-.369-5.198-.615-8.094-.706v-2.319c.78-.703 1.28-1.71 1.28-2.844 0-2.121-1.719-3.84-3.84-3.84-2.121 0-3.84 1.719-3.84 3.84 0 1.133.5 2.141 1.28 2.844v2.319c-2.895.092-5.624.338-8.094.706l-.37-1.476c.48-.466.783-1.111.783-1.833 0-1.414-1.146-2.56-2.56-2.56-1.414 0-2.56 1.146-2.56 2.56 0 1.16.787 2.101 1.845 2.415l.333 1.333c-2.767.553-5.082 1.276-6.775 2.114l-.97-1.941c.259-.401.448-.85.448-1.362 0-1.414-1.146-2.56-2.56-2.56-.612 0-1.152.245-1.592.604-.576.469-.967 1.154-.967 1.956z"/><ellipse style="fill:#ebebeb" cx="385.06" cy="122.355" rx="17.92" ry="5.12"/><g transform="translate(0 -88.275)"><path style="fill:#e6b432" d="m410.046 167.005-4.507-10.14c0-.64-.491-1.25-1.35-1.815l3.639-7.279c.632-1.265.12-2.803-1.145-3.435-1.268-.628-2.803-.117-3.435 1.145l-1.977 3.955-1.887 3.774c-1.086-.266-2.297-.499-3.597-.7l.227-.909c1.058-.314 1.845-1.256 1.845-2.415 0-1.414-1.146-2.56-2.56-2.56-1.414 0-2.56 1.146-2.56 2.56 0 .722.303 1.367.783 1.833l-.289 1.154c-2.505-.274-5.267-.427-8.174-.427-2.908 0-5.67.153-8.174.427l-.289-1.154c.48-.466.783-1.111.783-1.833 0-1.414-1.146-2.56-2.56-2.56-1.414 0-2.56 1.146-2.56 2.56 0 1.16.787 2.101 1.845 2.415l.227.909c-1.301.201-2.511.434-3.598.7l-1.887-3.774-1.977-3.955c-.633-1.262-2.166-1.772-3.435-1.145-1.265.632-1.778 2.17-1.145 3.435l3.639 7.279c-.858.565-1.35 1.175-1.35 1.815l-4.507 10.14c2.528-2.87 12.746-5.02 24.987-5.02 12.242 0 22.46 2.149 24.988 5.02z"/><circle style="fill:#e6b432" cx="385.06" cy="147.91" r="3.84"/></g></svg>