<svg xmlns="http://www.w3.org/2000/svg" xml:space="preserve" width="512" height="335.45001"><path style="fill:#ffe15a" d="M114.76.004h282.48001v335.45001H114.76z"/><path style="fill:#73af00" d="M473.655 335.448c21.177 0 38.345-17.167 38.345-38.345V38.345C512 17.168 494.833 0 473.655 0h-76.414v335.448z"/><path style="fill:#4173cd" d="M38.345 335.448h76.414V0H38.345C17.167 0 0 17.167 0 38.345v258.759c0 21.177 17.167 38.344 38.345 38.344z"/><path style="fill:#73af00" d="m249.158 251.475-28.636-57.271-28.636 57.271 28.636 57.271zm70.957 0-28.636-57.271-28.635 57.271 28.635 57.271zm-35.479 68.851L256 263.056l-28.636 57.27L256 377.597z" transform="translate(0 -88.273)"/></svg>