<?xml version="1.0" encoding="UTF-8" standalone="no"?>
<svg
   xmlns:dc="http://purl.org/dc/elements/1.1/"
   xmlns:cc="http://creativecommons.org/ns#"
   xmlns:rdf="http://www.w3.org/1999/02/22-rdf-syntax-ns#"
   xmlns:svg="http://www.w3.org/2000/svg"
   xmlns="http://www.w3.org/2000/svg"
   xmlns:sodipodi="http://sodipodi.sourceforge.net/DTD/sodipodi-0.dtd"
   xmlns:inkscape="http://www.inkscape.org/namespaces/inkscape"
   version="1.1"
   id="Layer_1"
   x="0px"
   y="0px"
   viewBox="0 0 512 335.45001"
   xml:space="preserve"
   sodipodi:docname="ve.svg"
   width="512"
   height="335.45001"
   inkscape:version="1.0.1 (c497b03c, 2020-09-10)"><metadata
   id="metadata3201"><rdf:RDF><cc:Work
       rdf:about=""><dc:format>image/svg+xml</dc:format><dc:type
         rdf:resource="http://purl.org/dc/dcmitype/StillImage" /><dc:title></dc:title></cc:Work></rdf:RDF></metadata><defs
   id="defs3199" /><sodipodi:namedview
   pagecolor="#ffffff"
   bordercolor="#666666"
   borderopacity="1"
   objecttolerance="10"
   gridtolerance="10"
   guidetolerance="10"
   inkscape:pageopacity="0"
   inkscape:pageshadow="2"
   inkscape:window-width="1092"
   inkscape:window-height="812"
   id="namedview3197"
   showgrid="false"
   inkscape:zoom="1.0351562"
   inkscape:cx="256"
   inkscape:cy="256"
   inkscape:window-x="0"
   inkscape:window-y="23"
   inkscape:window-maximized="0"
   inkscape:current-layer="Layer_1" />
<path
   style="fill:#ffe15a"
   d="M 473.655,0 H 38.345 C 17.167,0 0,17.167 0,38.345 v 73.471 H 512 V 38.345 C 512,17.167 494.833,0 473.655,0 Z"
   id="path3138" />
<path
   style="fill:#ff4b55"
   d="m 0,297.103 c 0,21.177 17.167,38.345 38.345,38.345 h 435.31 c 21.177,0 38.345,-17.167 38.345,-38.345 V 223.632 H 0 Z"
   id="path3140" />
<rect
   y="111.814"
   style="fill:#41479b"
   width="512"
   height="111.81"
   id="rect3142"
   x="0" />
<g
   id="g3164"
   transform="translate(0,-88.276)">
	<path
   style="fill:#f5f5f5"
   d="m 178.14,277.497 2.212,6.633 6.991,0.054 c 0.905,0.007 1.281,1.162 0.553,1.7 l -5.624,4.153 2.109,6.667 c 0.273,0.863 -0.71,1.577 -1.447,1.05 l -5.688,-4.066 -5.688,4.066 c -0.736,0.526 -1.719,-0.188 -1.447,-1.05 l 2.109,-6.667 -5.624,-4.153 c -0.728,-0.537 -0.353,-1.693 0.553,-1.7 l 6.993,-0.054 2.212,-6.633 c 0.285,-0.858 1.5,-0.858 1.786,0 z"
   id="path3144" />
	<path
   style="fill:#f5f5f5"
   d="m 191.723,256.383 -1.185,6.891 6.136,3.352 c 0.794,0.434 0.579,1.63 -0.317,1.759 l -6.92,1.002 -1.292,6.872 c -0.168,0.889 -1.37,1.055 -1.771,0.243 l -3.092,-6.272 -6.935,0.895 c -0.898,0.116 -1.427,-0.978 -0.778,-1.609 l 5.01,-4.878 -2.994,-6.319 c -0.387,-0.818 0.489,-1.659 1.29,-1.237 l 6.187,3.257 5.085,-4.8 c 0.659,-0.623 1.729,-0.049 1.576,0.844 z"
   id="path3146" />
	<path
   style="fill:#f5f5f5"
   d="m 208.913,237.902 -3.282,6.174 4.779,5.103 c 0.619,0.661 0.041,1.729 -0.851,1.571 l -6.887,-1.213 -3.377,6.123 c -0.437,0.792 -1.632,0.573 -1.758,-0.323 l -0.974,-6.924 -6.867,-1.32 c -0.889,-0.171 -1.049,-1.375 -0.235,-1.772 l 6.284,-3.066 -0.867,-6.938 c -0.113,-0.898 0.983,-1.422 1.612,-0.771 l 4.857,5.028 6.33,-2.968 c 0.823,-0.383 1.66,0.496 1.236,1.296 z"
   id="path3148" />
	<path
   style="fill:#f5f5f5"
   d="m 229.598,226.436 -4.824,5.062 3.228,6.202 c 0.418,0.803 -0.427,1.676 -1.244,1.284 l -6.304,-3.025 -4.902,4.986 c -0.634,0.646 -1.726,0.111 -1.606,-0.786 l 0.928,-6.931 -6.257,-3.122 c -0.81,-0.404 -0.64,-1.607 0.25,-1.77 l 6.878,-1.259 1.035,-6.915 c 0.134,-0.895 1.331,-1.105 1.761,-0.308 l 3.322,6.152 6.897,-1.152 c 0.894,-0.147 1.462,0.927 0.838,1.582 z"
   id="path3150" />
	<path
   style="fill:#f5f5f5"
   d="m 253.374,221.123 -6.004,3.584 1.448,6.84 c 0.188,0.886 -0.861,1.501 -1.542,0.905 l -5.263,-4.602 -6.059,3.49 c -0.785,0.452 -1.693,-0.355 -1.336,-1.187 l 2.751,-6.429 -5.192,-4.683 c -0.672,-0.606 -0.185,-1.719 0.716,-1.637 l 6.964,0.629 2.85,-6.385 c 0.369,-0.826 1.578,-0.708 1.779,0.174 l 1.554,6.817 6.953,0.737 c 0.897,0.097 1.159,1.283 0.381,1.747 z"
   id="path3152" />
	<path
   style="fill:#f5f5f5"
   d="m 333.859,277.497 -2.212,6.633 -6.991,0.054 c -0.905,0.007 -1.281,1.162 -0.553,1.7 l 5.624,4.153 -2.109,6.667 c -0.273,0.863 0.71,1.577 1.447,1.05 l 5.688,-4.066 5.688,4.066 c 0.737,0.526 1.719,-0.188 1.447,-1.05 l -2.109,-6.667 5.625,-4.153 c 0.728,-0.537 0.353,-1.693 -0.553,-1.7 l -6.991,-0.054 -2.212,-6.633 c -0.287,-0.858 -1.502,-0.858 -1.789,0 z"
   id="path3154" />
	<path
   style="fill:#f5f5f5"
   d="m 320.277,256.383 1.185,6.891 -6.136,3.352 c -0.794,0.434 -0.579,1.63 0.317,1.759 l 6.92,1.002 1.292,6.872 c 0.168,0.889 1.371,1.055 1.771,0.243 l 3.092,-6.272 6.935,0.895 c 0.898,0.116 1.427,-0.978 0.778,-1.609 l -5.01,-4.878 2.994,-6.319 c 0.387,-0.818 -0.489,-1.659 -1.29,-1.237 l -6.187,3.257 -5.085,-4.8 c -0.659,-0.623 -1.729,-0.049 -1.576,0.844 z"
   id="path3156" />
	<path
   style="fill:#f5f5f5"
   d="m 303.087,237.902 3.282,6.174 -4.779,5.103 c -0.619,0.661 -0.041,1.729 0.851,1.571 l 6.887,-1.213 3.377,6.123 c 0.437,0.792 1.632,0.573 1.758,-0.323 l 0.974,-6.924 6.867,-1.32 c 0.889,-0.171 1.049,-1.375 0.235,-1.772 l -6.284,-3.066 0.866,-6.938 c 0.113,-0.898 -0.983,-1.422 -1.612,-0.771 l -4.857,5.028 -6.33,-2.968 c -0.822,-0.383 -1.659,0.496 -1.235,1.296 z"
   id="path3158" />
	<path
   style="fill:#f5f5f5"
   d="m 282.402,226.436 4.824,5.062 -3.228,6.202 c -0.418,0.803 0.427,1.676 1.244,1.284 l 6.304,-3.025 4.903,4.986 c 0.634,0.646 1.726,0.111 1.605,-0.786 l -0.928,-6.931 6.257,-3.122 c 0.81,-0.404 0.64,-1.607 -0.25,-1.77 l -6.878,-1.259 -1.035,-6.915 c -0.134,-0.895 -1.331,-1.105 -1.761,-0.308 l -3.322,6.152 -6.897,-1.152 c -0.894,-0.147 -1.462,0.927 -0.838,1.582 z"
   id="path3160" />
	<path
   style="fill:#f5f5f5"
   d="m 258.626,221.123 6.004,3.584 -1.448,6.84 c -0.188,0.886 0.861,1.501 1.542,0.905 l 5.263,-4.602 6.059,3.49 c 0.785,0.452 1.693,-0.355 1.336,-1.187 l -2.751,-6.429 5.192,-4.683 c 0.672,-0.606 0.185,-1.719 -0.716,-1.637 l -6.964,0.629 -2.85,-6.385 c -0.369,-0.826 -1.578,-0.708 -1.779,0.174 l -1.554,6.817 -6.953,0.737 c -0.897,0.097 -1.159,1.283 -0.381,1.747 z"
   id="path3162" />
</g>
<g
   id="g3166"
   transform="translate(0,-88.276)">
</g>
<g
   id="g3168"
   transform="translate(0,-88.276)">
</g>
<g
   id="g3170"
   transform="translate(0,-88.276)">
</g>
<g
   id="g3172"
   transform="translate(0,-88.276)">
</g>
<g
   id="g3174"
   transform="translate(0,-88.276)">
</g>
<g
   id="g3176"
   transform="translate(0,-88.276)">
</g>
<g
   id="g3178"
   transform="translate(0,-88.276)">
</g>
<g
   id="g3180"
   transform="translate(0,-88.276)">
</g>
<g
   id="g3182"
   transform="translate(0,-88.276)">
</g>
<g
   id="g3184"
   transform="translate(0,-88.276)">
</g>
<g
   id="g3186"
   transform="translate(0,-88.276)">
</g>
<g
   id="g3188"
   transform="translate(0,-88.276)">
</g>
<g
   id="g3190"
   transform="translate(0,-88.276)">
</g>
<g
   id="g3192"
   transform="translate(0,-88.276)">
</g>
<g
   id="g3194"
   transform="translate(0,-88.276)">
</g>
</svg>
