<svg xmlns="http://www.w3.org/2000/svg" xml:space="preserve" width="512" height="335.45001"><path style="fill:#464655" d="M473.651 0H38.292C17.807 0 1.077 16.061 0 36.277V299.21c1.077 20.215 17.807 36.277 38.292 36.277h435.359c21.18 0 38.349-17.169 38.349-38.349V38.349C512 17.169 494.831 0 473.651 0z"/><path style="fill:#ffe15a" d="M0 299.209c.251 4.699 1.352 9.171 3.144 13.272l246.328-135.909H512v-17.657H249.472L3.144 23.005C1.351 27.106.25 31.576 0 36.275v5.166l228.923 126.3L0 294.044z"/><path style="fill:#73af00" d="M512 194.229H256.029L14.713 327.369c6.506 5.081 14.685 8.117 23.579 8.117h435.359c21.18 0 38.349-17.169 38.349-38.349V194.229z"/><path style="fill:#ff4b55" d="M473.651 0H38.292c-8.894 0-17.074 3.036-23.579 8.117l241.316 133.14H512V38.349C512 17.169 494.831 0 473.651 0z"/><path style="fill:#ffe15a" d="M76.461 206.481c-25.208-7.93-44.239 10.387-48.588 19.815-3.684 7.988-10.526 44.172 23.583 49.942 34.108 5.771 33.724-26.415 33.724-26.415-1.538 5.129-4.296 19.747-28.917 19.747-9.235 0-22.504-13.721-20.003-28.852 2.353-14.237 15.071-21.521 24.685-21.927 9.103-.384 30.325 5.899 30.325 31.738 0 29.043-29.933 32.314-29.933 32.314v17.537c26.056-2.555 40.801-16.987 44.705-40.107 3.887-23.016-3.951-45.729-29.581-53.792z" transform="translate(0 -88.256)"/><path style="fill:#ffe15a" d="M48.549 249.548c-.595.755-.912 1.694-.927 2.655l-.074 4.717-.918 1.601c-.331.578-.135 1.317.441 1.652.583.341 1.331.141 1.666-.446l.941-1.647 3.766-1.364c1.141-.413 2.058-1.271 2.555-2.378.984-2.197 3.098-6.232 6.522-10.441 3.424 4.209 5.538 8.244 6.522 10.441.496 1.107 1.413 1.964 2.554 2.378l3.768 1.364.941 1.647c.334.587 1.084.787 1.666.446.576-.337.772-1.074.441-1.652l-.918-1.601-.074-4.717c-.015-.961-.332-1.9-.927-2.655-3.155-4.007-6.512-7.159-9.82-9.946 2.643-2.484 5.632-4.856 9.395-6.687.871-.424 1.326-1.402 1.101-2.343-.307-1.286-1.713-1.961-2.911-1.402-2.523 1.175-6.86 3.491-11.739 7.047-4.88-3.557-9.216-5.871-11.739-7.047-1.198-.558-2.604.117-2.911 1.402-.224.942.231 1.919 1.1 2.343 3.764 1.831 6.753 4.204 9.396 6.687-3.304 2.787-6.661 5.938-9.817 9.946z" transform="translate(0 -88.256)"/></svg>