<svg xmlns="http://www.w3.org/2000/svg" xml:space="preserve" width="512" height="335.45001"><style>.st0{fill:#ed2939}</style><path class="st0" d="M136.53333 0h66.56v132.50275h-66.56z"/><path class="st0" d="M473.65503 0H206.50665v135.85724H0v161.2478c0 21.08972 17.25525 38.34497 38.34497 38.34497h435.31006c21.08972 0 38.34497-17.25525 38.34497-38.34497V38.34497C512 17.25525 494.74475 0 473.65503 0zm-74.29504 114.05298L358.40002 154.307 317.44 114.05298h81.92zm-95.5733 13.41803 40.95995 40.25397-40.95996 40.25402v-80.508zM317.44 221.39703l40.96002-40.25402L399.36 221.39703h-81.92zm95.5733-13.41803-40.95996-40.25402 40.95997-40.25397v80.508z"/><path d="M68.26666 0H38.34497C17.25525 0 0 17.25525 0 38.34497v94.15778h68.26666V0z" style="fill:#002395"/><path d="M206.50665 0h-3.41333v132.50275h-66.55999V0H68.26666v132.50275H0v3.35449h206.50665zm192.85334 114.05298H317.44l40.96002 40.25403zM317.44 221.39703h81.91999l-40.95997-40.25402zm-13.65332-93.92602V207.979l40.95996-40.25402zM413.01331 207.979v-80.50799l-40.95997 40.25397z" style="fill:#f5f5f5"/></svg>