<?xml version="1.0" encoding="UTF-8" standalone="no"?>
<svg
   xmlns:dc="http://purl.org/dc/elements/1.1/"
   xmlns:cc="http://creativecommons.org/ns#"
   xmlns:rdf="http://www.w3.org/1999/02/22-rdf-syntax-ns#"
   xmlns:svg="http://www.w3.org/2000/svg"
   xmlns="http://www.w3.org/2000/svg"
   xmlns:sodipodi="http://sodipodi.sourceforge.net/DTD/sodipodi-0.dtd"
   xmlns:inkscape="http://www.inkscape.org/namespaces/inkscape"
   version="1.1"
   id="Layer_1"
   x="0px"
   y="0px"
   viewBox="0 0 512 335.45001"
   xml:space="preserve"
   sodipodi:docname="ye.svg"
   width="512"
   height="335.45001"
   inkscape:version="1.0.1 (c497b03c, 2020-09-10)"><metadata
   id="metadata3315"><rdf:RDF><cc:Work
       rdf:about=""><dc:format>image/svg+xml</dc:format><dc:type
         rdf:resource="http://purl.org/dc/dcmitype/StillImage" /><dc:title></dc:title></cc:Work></rdf:RDF></metadata><defs
   id="defs3313" /><sodipodi:namedview
   pagecolor="#ffffff"
   bordercolor="#666666"
   borderopacity="1"
   objecttolerance="10"
   gridtolerance="10"
   guidetolerance="10"
   inkscape:pageopacity="0"
   inkscape:pageshadow="2"
   inkscape:window-width="962"
   inkscape:window-height="709"
   id="namedview3311"
   showgrid="false"
   inkscape:zoom="1.0136719"
   inkscape:cx="256"
   inkscape:cy="256"
   inkscape:window-x="0"
   inkscape:window-y="23"
   inkscape:window-maximized="0"
   inkscape:current-layer="Layer_1" />
<path
   style="fill:#464655"
   d="m 0,297.103 c 0,21.177 17.167,38.345 38.345,38.345 h 435.31 c 21.177,0 38.345,-17.167 38.345,-38.345 V 223.632 H 0 Z"
   id="path3274" />
<path
   style="fill:#ff4b55"
   d="M 473.655,0 H 38.345 C 17.167,0 0,17.167 0,38.345 v 73.471 H 512 V 38.345 C 512,17.167 494.833,0 473.655,0 Z"
   id="path3276" />
<rect
   y="111.814"
   style="fill:#f5f5f5"
   width="512"
   height="111.81"
   id="rect3278"
   x="0" />
<g
   id="g3280"
   transform="translate(0,-88.276)">
</g>
<g
   id="g3282"
   transform="translate(0,-88.276)">
</g>
<g
   id="g3284"
   transform="translate(0,-88.276)">
</g>
<g
   id="g3286"
   transform="translate(0,-88.276)">
</g>
<g
   id="g3288"
   transform="translate(0,-88.276)">
</g>
<g
   id="g3290"
   transform="translate(0,-88.276)">
</g>
<g
   id="g3292"
   transform="translate(0,-88.276)">
</g>
<g
   id="g3294"
   transform="translate(0,-88.276)">
</g>
<g
   id="g3296"
   transform="translate(0,-88.276)">
</g>
<g
   id="g3298"
   transform="translate(0,-88.276)">
</g>
<g
   id="g3300"
   transform="translate(0,-88.276)">
</g>
<g
   id="g3302"
   transform="translate(0,-88.276)">
</g>
<g
   id="g3304"
   transform="translate(0,-88.276)">
</g>
<g
   id="g3306"
   transform="translate(0,-88.276)">
</g>
<g
   id="g3308"
   transform="translate(0,-88.276)">
</g>
</svg>
