<?xml version="1.0" encoding="UTF-8" standalone="no"?>
<svg
   xmlns:dc="http://purl.org/dc/elements/1.1/"
   xmlns:cc="http://creativecommons.org/ns#"
   xmlns:rdf="http://www.w3.org/1999/02/22-rdf-syntax-ns#"
   xmlns:svg="http://www.w3.org/2000/svg"
   xmlns="http://www.w3.org/2000/svg"
   xmlns:sodipodi="http://sodipodi.sourceforge.net/DTD/sodipodi-0.dtd"
   xmlns:inkscape="http://www.inkscape.org/namespaces/inkscape"
   version="1.1"
   id="Layer_1"
   x="0px"
   y="0px"
   viewBox="0 0 512 335.45001"
   xml:space="preserve"
   sodipodi:docname="zw.svg"
   width="512"
   height="335.45001"
   inkscape:version="1.0.1 (c497b03c, 2020-09-10)"><metadata
   id="metadata3449"><rdf:RDF><cc:Work
       rdf:about=""><dc:format>image/svg+xml</dc:format><dc:type
         rdf:resource="http://purl.org/dc/dcmitype/StillImage" /><dc:title></dc:title></cc:Work></rdf:RDF></metadata><defs
   id="defs3447" /><sodipodi:namedview
   pagecolor="#ffffff"
   bordercolor="#666666"
   borderopacity="1"
   objecttolerance="10"
   gridtolerance="10"
   guidetolerance="10"
   inkscape:pageopacity="0"
   inkscape:pageshadow="2"
   inkscape:window-width="1004"
   inkscape:window-height="718"
   id="namedview3445"
   showgrid="false"
   inkscape:zoom="0.90820312"
   inkscape:cx="256"
   inkscape:cy="256"
   inkscape:window-x="0"
   inkscape:window-y="23"
   inkscape:window-maximized="0"
   inkscape:current-layer="Layer_1" />
<path
   style="fill:#73af00"
   d="M 473.655,0 H 38.345 C 17.167,0 0,17.167 0,38.345 v 9.577 H 512 V 38.345 C 512,17.167 494.833,0 473.655,0 Z"
   id="path3384" />
<rect
   y="47.923996"
   style="fill:#ffe15a"
   width="512"
   height="47.923"
   id="rect3386"
   x="0" />
<rect
   y="95.843994"
   style="fill:#ff4b55"
   width="512"
   height="47.923"
   id="rect3388"
   x="0" />
<path
   style="fill:#73af00"
   d="m 0,297.103 c 0,21.177 17.167,38.345 38.345,38.345 h 435.31 c 21.177,0 38.345,-17.167 38.345,-38.345 v -9.577 H 0 Z"
   id="path3390" />
<rect
   y="239.604"
   style="fill:#ffe15a"
   width="512"
   height="47.923"
   id="rect3392"
   x="0" />
<rect
   y="191.68399"
   style="fill:#ff4b55"
   width="512"
   height="47.923"
   id="rect3394"
   x="0" />
<path
   style="fill:#464655"
   d="M 20.068,4.628 C 12.413,8.786 6.337,15.476 2.954,23.572 v 288.303 c 3.383,8.096 9.46,14.786 17.114,18.944 L 195.818,191.684 H 512 V 143.762 H 195.818 Z"
   id="path3396" />
<path
   style="fill:#f5f5f5"
   d="M 12.573,325.495 211.862,167.724 12.573,9.953 C 4.85,16.968 0,27.09 0,38.345 v 258.759 c 0,11.254 4.85,21.376 12.573,28.391 z"
   id="path3398" />
<polygon
   style="fill:#ff4b55"
   points="146.264,235.186 116.164,264.525 123.27,305.953 86.065,286.393 48.86,305.953 55.966,264.525 25.866,235.186 67.463,229.141 86.065,191.448 104.668,229.141 "
   id="polygon3400"
   transform="translate(0,-88.276)" />
<path
   style="fill:#ffe15a"
   d="m 134.328,172.527 -49.436,-38.27 c -5.784,-13.554 -14.005,-22.296 -20.984,-22.296 -5.929,0 -8.828,5.495 -9.658,8.797 -4.27,1.977 -5.272,5.912 -5.314,6.083 -0.07,0.282 -0.003,0.582 0.175,0.81 0.18,0.228 0.454,0.362 0.745,0.362 l 0.885,-0.017 c 3.972,-0.092 10.59,-0.266 12.282,12.352 1.056,7.879 -0.512,21.992 -5.497,32.629 -3.484,7.432 -2.333,13.442 -2.282,13.694 0.095,0.474 0.536,0.786 1.028,0.756 0.076,-0.008 0.26,-0.015 0.494,-0.023 l 4,22.614 c 0.081,0.452 0.472,0.782 0.932,0.782 h 59.683 c 0.437,0 0.817,-0.299 0.92,-0.723 l 6.667,-27.384 c 0.002,-0.008 0.011,-0.012 0.013,-0.02 0.004,-0.015 -0.001,-0.03 0.002,-0.045 l 2.118,-8.698 c 1.567,0.185 2.499,0.282 2.551,0.288 0.452,0.059 0.82,-0.199 0.975,-0.59 0.155,-0.391 0.036,-0.841 -0.299,-1.101 z"
   id="path3402" />
<g
   id="g3412"
   transform="translate(0,-88.276)">
	<path
   style="fill:#464655"
   d="m 134.328,260.803 -49.436,-38.27 c -5.784,-13.554 -14.005,-22.296 -20.984,-22.296 -5.929,0 -8.828,5.495 -9.658,8.797 -4.27,1.977 -5.272,5.912 -5.314,6.083 -0.07,0.282 -0.003,0.582 0.175,0.81 0.18,0.228 0.454,0.362 0.745,0.362 l 0.885,-0.017 c 3.972,-0.092 10.59,-0.266 12.282,12.352 1.056,7.879 -0.512,21.992 -5.497,32.629 -3.484,7.432 -2.333,13.442 -2.282,13.694 0.095,0.474 0.536,0.786 1.028,0.756 0.076,-0.008 0.26,-0.015 0.494,-0.023 l 4,22.614 c 0.081,0.452 0.472,0.782 0.932,0.782 h 59.683 c 0.437,0 0.817,-0.299 0.92,-0.723 l 6.667,-27.384 c 0.002,-0.008 0.011,-0.012 0.013,-0.02 0.004,-0.015 -0.001,-0.03 0.002,-0.045 l 2.118,-8.698 c 1.567,0.185 2.499,0.282 2.551,0.288 0.452,0.059 0.82,-0.199 0.975,-0.59 0.155,-0.391 0.036,-0.841 -0.299,-1.101 z m -75.089,1.256 c 4.512,-9.624 6.945,-24.106 5.661,-33.685 -1.832,-13.662 -9.5,-14.091 -13.641,-14.008 0.587,-1.141 1.807,-2.817 4.164,-3.778 0.292,-0.118 0.505,-0.377 0.569,-0.687 0.066,-0.317 1.678,-7.768 7.914,-7.768 6.159,0 13.93,8.588 19.338,21.368 0.063,0.15 0.164,0.281 0.292,0.38 l 46.95,36.345 c -8.275,-1.004 -29.898,-3.983 -42.706,-9.03 -6.695,-2.637 -8.221,-6.65 -9.567,-10.191 -0.185,-0.49 -0.735,-0.732 -1.223,-0.548 -0.489,0.186 -0.735,0.734 -0.548,1.223 1.338,3.518 3.171,8.338 10.644,11.282 1.523,0.6 3.167,1.171 4.896,1.713 -0.301,0.913 -2.217,5.566 -10.712,8.618 -6.884,2.474 -11.783,6.644 -12.452,10.411 -2.516,-0.01 -4.761,-0.006 -6.647,0.006 v -2.735 c 0,-2.078 2.002,-5.087 4.121,-8.274 2.953,-4.44 6.3,-9.473 6.3,-14.621 0,-0.523 -0.425,-0.948 -0.948,-0.948 -0.523,0 -0.948,0.425 -0.948,0.948 0,4.575 -3.179,9.355 -5.983,13.571 -2.382,3.581 -4.438,6.674 -4.438,9.323 v 2.751 c -1.43,0.015 -2.551,0.034 -3.282,0.055 -0.169,-1.783 -0.266,-6.363 2.246,-11.721 z m 37.571,-6.001 c -1.096,3.046 -4.34,4.077 -6.745,4.407 2.607,-2.317 3.487,-4.46 3.734,-5.244 0.982,0.29 1.99,0.567 3.011,0.837 z m 1.826,0.471 c 1.043,0.262 2.095,0.514 3.158,0.758 -0.967,1.967 -3.551,2.932 -6.375,3.336 1.4,-0.888 2.586,-2.198 3.217,-4.094 z m 26.783,21.01 c -9.604,-2.959 -37.32,-3.716 -54.69,-3.827 0.588,-2.152 3.314,-4.978 7.93,-7.243 0.047,0.008 0.09,0.029 0.139,0.029 25.93,0.092 43.979,3.938 48.114,4.907 z m -1.223,5.021 -3.788,-4.226 c 1.806,0.314 3.345,0.664 4.562,1.053 z m -49.004,0.668 1.842,1.734 c -0.567,-0.004 -1.126,-0.01 -1.706,-0.013 -0.05,-0.556 -0.092,-1.145 -0.136,-1.721 z m 47.871,3.985 -4.813,-5.274 c -0.317,-0.348 -0.841,-0.412 -1.226,-0.148 l -5.652,3.784 -4.253,-4.661 c -0.329,-0.362 -0.887,-0.41 -1.276,-0.113 l -5.109,3.917 -4.636,-4.577 c -0.348,-0.344 -0.904,-0.366 -1.276,-0.051 l -4.991,4.198 -4.676,-4.339 c -0.354,-0.328 -0.903,-0.335 -1.269,-0.018 l -4.878,4.287 -4.011,-3.774 c -0.07,-1.126 -0.132,-2.286 -0.186,-3.479 l 3.591,3.526 c 0.35,0.345 0.907,0.36 1.281,0.042 l 5.023,-4.324 4.589,4.519 c 0.346,0.341 0.897,0.363 1.272,0.053 l 5.039,-4.199 4.835,4.555 c 0.341,0.32 0.861,0.346 1.226,0.062 l 5.057,-3.879 4.231,4.855 c 0.32,0.367 0.867,0.43 1.265,0.148 l 5.625,-4.008 5.592,6.238 c 0.067,0.074 0.151,0.12 0.233,0.168 z m -2.843,-0.305 c -1.508,-0.191 -3.614,-0.416 -6.466,-0.647 l 3.648,-2.442 z m -11.087,-0.977 c -1.902,-0.12 -4.035,-0.236 -6.417,-0.345 l 3.59,-2.752 z M 98.749,285.42 c -2.168,-0.082 -4.525,-0.156 -7.057,-0.221 l 3.69,-3.104 z m -10.813,-0.308 c -2.184,-0.045 -4.505,-0.082 -6.946,-0.111 l 3.507,-3.08 z M 76.195,275.67 c 1.966,0.025 4.014,0.061 6.109,0.105 l -3.198,2.753 z m 10.889,0.22 c 2.036,0.056 4.093,0.125 6.146,0.202 l -3.218,2.681 z m 10.988,0.411 c 2.174,0.105 4.32,0.222 6.401,0.356 l -3.319,2.546 z m 10.877,0.685 c 2.338,0.19 4.55,0.405 6.586,0.648 l -3.715,2.647 z m -50.268,-1.345 c 2.847,-0.042 7.95,-0.065 14.175,-0.009 0.355,9.004 1.142,16.237 2.337,21.55 H 62.492 Z m 61.956,21.542 H 77.132 c -0.665,-2.849 -1.204,-6.31 -1.617,-10.338 31.69,0.209 43.729,1.782 46.738,2.274 0.089,0.087 0.188,0.158 0.298,0.202 z m 6.723,-27.618 c -4.006,-0.937 -20.542,-4.446 -44.395,-4.904 1.681,-0.67 3.114,-1.395 4.321,-2.145 0.564,0.071 2.225,0.254 4.307,0.254 4.323,0 10.396,-0.818 12.073,-5.064 9.846,2.155 19.938,3.57 25.542,4.27 z"
   id="path3404" />
	<path
   style="fill:#464655"
   d="m 66.592,208.606 c 0,-1.741 -1.416,-3.158 -3.158,-3.158 -1.741,0 -3.158,1.416 -3.158,3.158 0,1.741 1.416,3.158 3.158,3.158 1.741,0 3.158,-1.417 3.158,-3.158 z m -3.158,1.263 c -0.697,0 -1.263,-0.566 -1.263,-1.263 0,-0.697 0.566,-1.263 1.263,-1.263 0.697,0 1.263,0.566 1.263,1.263 0,0.697 -0.566,1.263 -1.263,1.263 z"
   id="path3406" />
	<path
   style="fill:#464655"
   d="m 89.907,267.321 c -1.713,0 -3.105,1.393 -3.105,3.105 0,1.712 1.393,3.105 3.105,3.105 1.712,0 3.106,-1.393 3.106,-3.105 0,-1.712 -1.394,-3.105 -3.106,-3.105 z m 0,4.316 c -0.668,0 -1.21,-0.543 -1.21,-1.21 0,-0.667 0.543,-1.21 1.21,-1.21 0.668,0 1.212,0.543 1.212,1.21 0,0.667 -0.545,1.21 -1.212,1.21 z"
   id="path3408" />
	<path
   style="fill:#464655"
   d="m 99.19,267.851 c -1.713,0 -3.106,1.394 -3.106,3.106 0,1.712 1.394,3.105 3.106,3.105 1.713,0 3.105,-1.393 3.105,-3.105 0,-1.712 -1.392,-3.106 -3.105,-3.106 z m 0,4.316 c -0.668,0 -1.212,-0.543 -1.212,-1.21 0,-0.668 0.544,-1.212 1.212,-1.212 0.668,0 1.21,0.544 1.21,1.212 10e-4,0.667 -0.542,1.21 -1.21,1.21 z"
   id="path3410" />
</g>
<g
   id="g3414"
   transform="translate(0,-88.276)">
</g>
<g
   id="g3416"
   transform="translate(0,-88.276)">
</g>
<g
   id="g3418"
   transform="translate(0,-88.276)">
</g>
<g
   id="g3420"
   transform="translate(0,-88.276)">
</g>
<g
   id="g3422"
   transform="translate(0,-88.276)">
</g>
<g
   id="g3424"
   transform="translate(0,-88.276)">
</g>
<g
   id="g3426"
   transform="translate(0,-88.276)">
</g>
<g
   id="g3428"
   transform="translate(0,-88.276)">
</g>
<g
   id="g3430"
   transform="translate(0,-88.276)">
</g>
<g
   id="g3432"
   transform="translate(0,-88.276)">
</g>
<g
   id="g3434"
   transform="translate(0,-88.276)">
</g>
<g
   id="g3436"
   transform="translate(0,-88.276)">
</g>
<g
   id="g3438"
   transform="translate(0,-88.276)">
</g>
<g
   id="g3440"
   transform="translate(0,-88.276)">
</g>
<g
   id="g3442"
   transform="translate(0,-88.276)">
</g>
</svg>
