<?xml version="1.0" encoding="UTF-8" standalone="no"?>
<svg
   xmlns:dc="http://purl.org/dc/elements/1.1/"
   xmlns:cc="http://creativecommons.org/ns#"
   xmlns:rdf="http://www.w3.org/1999/02/22-rdf-syntax-ns#"
   xmlns:svg="http://www.w3.org/2000/svg"
   xmlns="http://www.w3.org/2000/svg"
   xmlns:sodipodi="http://sodipodi.sourceforge.net/DTD/sodipodi-0.dtd"
   xmlns:inkscape="http://www.inkscape.org/namespaces/inkscape"
   version="1.1"
   id="Layer_1"
   x="0px"
   y="0px"
   viewBox="0 0 512.1 335.45003"
   xml:space="preserve"
   sodipodi:docname="anguilla.svg"
   width="512.09998"
   height="335.45001"
   inkscape:version="1.0.1 (c497b03c, 2020-09-10)"><metadata
   id="metadata348"><rdf:RDF><cc:Work
       rdf:about=""><dc:format>image/svg+xml</dc:format><dc:type
         rdf:resource="http://purl.org/dc/dcmitype/StillImage" /><dc:title></dc:title></cc:Work></rdf:RDF></metadata><defs
   id="defs346" /><sodipodi:namedview
   pagecolor="#ffffff"
   bordercolor="#666666"
   borderopacity="1"
   objecttolerance="10"
   gridtolerance="10"
   guidetolerance="10"
   inkscape:pageopacity="0"
   inkscape:pageshadow="2"
   inkscape:window-width="1797"
   inkscape:window-height="984"
   id="namedview344"
   showgrid="false"
   inkscape:zoom="1.6403047"
   inkscape:cx="256.04999"
   inkscape:cy="256.04999"
   inkscape:window-x="0"
   inkscape:window-y="23"
   inkscape:window-maximized="0"
   inkscape:current-layer="Layer_1" />
<path
   style="fill:#41479b"
   d="M 472.1,0 H 39.9 C 17.9,0 0,17.8 0,39.9 v 255.7 c 0,22 17.8,39.9 39.9,39.9 h 432.3 c 22,0 39.9,-17.8 39.9,-39.9 V 39.8 C 512,17.8 494.2,0 472.1,0 Z"
   id="path283" />
<path
   style="fill:#f5f5f5"
   d="m 8.8,167.7 h 15.3 l 81.8,-53.6 v 53.6 H 150 v -53.6 l 81.8,53.6 h 15.3 c 4.9,0 8.8,-4 8.8,-8.8 v -7 l -70.2,-46 H 256 V 61.8 h -70.2 l 70.2,-46 v -7 C 256,3.9 252,0 247.2,0 H 231.9 L 150.1,53.6 V 0 H 106 V 53.6 L 27.3,2 C 18.1,5 10.5,11.3 5.6,19.5 L 70.2,61.8 H 0 v 44.1 H 70.2 L 0,151.9 v 7 c 0,4.8 4,8.8 8.8,8.8 z"
   id="path285" />
<g
   id="g297"
   transform="translate(0,-88.3)">
	<polygon
   style="fill:#ff4b55"
   points="141.2,88.3 114.8,88.3 114.8,158.9 0,158.9 0,185.4 114.8,185.4 114.8,256 141.2,256 141.2,185.4 256,185.4 256,158.9 141.2,158.9 "
   id="polygon287" />
	<path
   style="fill:#ff4b55"
   d="M 8.7,103.2 80.8,150 H 97 L 15,96.8 c -2.2,1.9 -4.4,4.1 -6.3,6.4 z"
   id="path289" />
	<path
   style="fill:#ff4b55"
   d="m 166.3,150.1 88.4,-57.4 c -1.5,-2.6 -4.2,-4.4 -7.5,-4.4 h -1.9 l -95.2,61.8 z"
   id="path291" />
	<path
   style="fill:#ff4b55"
   d="M 89.5,194.2 0,251.5 c 1.5,2.7 5.5,4.5 8.8,4.5 h 1.7 l 95.2,-61.8 z"
   id="path293" />
	<path
   style="fill:#ff4b55"
   d="M 255.9,247.9 173.2,194.2 H 157 l 93.9,60.9 c 2.8,-1.3 4.7,-4 5,-7.2 z"
   id="path295" />
</g>
<path
   style="fill:#f5f5f5"
   d="m 328.6,104.4 c -1.2,15.8 -6.1,116 57.5,138.7 63.6,-22.7 58.7,-122.9 57.5,-138.7 -7.7,3 -35.6,12.2 -57.5,-3.4 -21.9,15.5 -49.8,6.4 -57.5,3.4 z"
   id="path299" />
<g
   id="g307"
   transform="translate(0,-88.3)">
	<path
   style="fill:#ffa028"
   d="m 417.4,212.9 c -3.5,-2.7 -9.9,2.3 -17.2,1.8 -6.7,-0.5 -15,-7.3 -25.7,-4.3 -3,-2.7 -1.5,-9.1 -1.5,-9.1 -7.5,4.8 -8,11.4 -7.5,15 -5.3,7 -5,17.8 -4,21 1.3,4.3 3.7,4.8 4.1,9.6 0.4,4.8 2.2,3.1 2.2,3.1 3.7,-2.1 4.3,-6 5.9,-12.5 6.1,0.8 10,-4.7 10,-4.7 -4,1.2 -6.5,-0.9 -7.9,-2.9 0.2,-0.6 0.4,-1.2 0.6,-1.9 4.5,-12.4 26.2,-9 28.2,-5.6 3.6,6.2 8.4,8.5 8.4,8.5 0,-6.5 -4.8,-12.1 -4.8,-12.1 7.3,-1.3 9.2,-5.9 9.2,-5.9 z m -52.1,26.6 c -0.7,0 -1.3,-0.6 -1.3,-1.3 0,-0.7 0.6,-1.3 1.3,-1.3 0.7,0 1.3,0.6 1.3,1.3 0,0.7 -0.5,1.3 -1.3,1.3 z"
   id="path301" />
	<path
   style="fill:#ffa028"
   d="m 396.1,292.2 c 4.2,-1.3 3.7,-9.5 8.3,-15.2 4.2,-5.3 14.5,-8.2 18.2,-18.7 3.9,-0.9 8.4,3.9 8.4,3.9 0.3,-8.9 -4.9,-13.1 -8.1,-14.7 -2.8,-8.4 -11.8,-14.2 -15.1,-15.2 -4.2,-1.4 -6.1,0.4 -10.2,-2 -4.1,-2.4 -3.8,0 -3.8,0 -0.4,4.3 2.6,7 7,11.9 -4.1,4.6 -1.9,10.9 -1.9,10.9 1.2,-4 4.5,-4.8 6.8,-4.8 0.4,0.5 0.8,1 1.2,1.6 7.6,10.8 -7.4,26.6 -11.4,26.3 -7.2,-0.5 -11.8,2.1 -11.8,2.1 5.3,3.7 12.7,3 12.7,3 -3,6.7 -0.3,10.9 -0.3,10.9 z m 7.6,-57.9 c 0.4,-0.6 1.2,-0.7 1.8,-0.3 0.6,0.4 0.7,1.2 0.3,1.8 -0.4,0.6 -1.2,0.7 -1.8,0.3 -0.5,-0.4 -0.7,-1.2 -0.3,-1.8 z"
   id="path303" />
	<path
   style="fill:#ffa028"
   d="m 339.2,234.8 c -0.6,4.4 7.1,7.4 10.3,13.9 3,6 1.3,16.6 9.3,24.4 -0.8,3.9 -7,5.9 -7,5.9 7.9,4 13.9,1.1 16.7,-1.1 8.8,1 17.8,-4.8 20.1,-7.3 3,-3.3 2.2,-5.7 6.1,-8.4 3.9,-2.8 1.6,-3.5 1.6,-3.5 -3.7,-2.2 -7.4,-0.6 -13.8,1.3 -2.4,-5.6 -9.1,-6.3 -9.1,-6.3 3.1,2.8 2.5,6.1 1.5,8.2 -0.7,0.1 -1.3,0.3 -2,0.4 -13,2.4 -21,-18 -19.1,-21.4 3.5,-6.3 3.1,-11.6 3.1,-11.6 -5.6,3.3 -8,10.3 -8,10.3 -4.8,-5.5 -9.7,-4.8 -9.7,-4.8 z m 49.3,31.3 c 0.4,0.6 0.2,1.4 -0.5,1.8 -0.6,0.4 -1.4,0.2 -1.8,-0.5 -0.4,-0.6 -0.2,-1.4 0.5,-1.8 0.7,-0.3 1.5,-0.1 1.8,0.5 z"
   id="path305" />
</g>
<path
   style="fill:#cdce0c"
   d="m 386.1,246.4 -0.5,-0.2 C 314,221.3 325.5,103.2 325.7,102 l 0.2,-2.1 2,0.9 c 0.3,0.2 33.6,14.9 57.3,-2.9 l 0.9,-0.7 0.9,0.7 c 23.8,17.8 57,3.1 57.3,2.9 l 2,-0.9 0.2,2.1 c 0.1,1.2 11.7,119.3 -59.9,144.2 z m -57.5,-142 c -1.2,15.8 -6.1,116 57.5,138.7 63.6,-22.7 58.7,-122.9 57.5,-138.7 -7.7,3 -35.6,12.2 -57.5,-3.4 -21.9,15.5 -49.8,6.4 -57.5,3.4 z"
   id="path309" />
<path
   style="fill:#82afff"
   d="m 346.2,207.5 c 8.7,15.8 21.4,29 39.9,35.6 18.5,-6.6 31.2,-19.8 39.9,-35.6 z"
   id="path311" />
<g
   id="g313">
</g>
<g
   id="g315">
</g>
<g
   id="g317">
</g>
<g
   id="g319">
</g>
<g
   id="g321">
</g>
<g
   id="g323">
</g>
<g
   id="g325">
</g>
<g
   id="g327">
</g>
<g
   id="g329">
</g>
<g
   id="g331">
</g>
<g
   id="g333">
</g>
<g
   id="g335">
</g>
<g
   id="g337">
</g>
<g
   id="g339">
</g>
<g
   id="g341">
</g>
</svg>
