<?xml version="1.0" encoding="UTF-8" standalone="no"?>
<svg
   xmlns:dc="http://purl.org/dc/elements/1.1/"
   xmlns:cc="http://creativecommons.org/ns#"
   xmlns:rdf="http://www.w3.org/1999/02/22-rdf-syntax-ns#"
   xmlns:svg="http://www.w3.org/2000/svg"
   xmlns="http://www.w3.org/2000/svg"
   xmlns:sodipodi="http://sodipodi.sourceforge.net/DTD/sodipodi-0.dtd"
   xmlns:inkscape="http://www.inkscape.org/namespaces/inkscape"
   version="1.1"
   id="Layer_1"
   x="0px"
   y="0px"
   viewBox="0 0 512 335.45001"
   xml:space="preserve"
   sodipodi:docname="angola.svg"
   width="512"
   height="335.45001"
   inkscape:version="1.0.1 (c497b03c, 2020-09-10)"><metadata
   id="metadata281"><rdf:RDF><cc:Work
       rdf:about=""><dc:format>image/svg+xml</dc:format><dc:type
         rdf:resource="http://purl.org/dc/dcmitype/StillImage" /><dc:title></dc:title></cc:Work></rdf:RDF></metadata><defs
   id="defs279" /><sodipodi:namedview
   pagecolor="#ffffff"
   bordercolor="#666666"
   borderopacity="1"
   objecttolerance="10"
   gridtolerance="10"
   guidetolerance="10"
   inkscape:pageopacity="0"
   inkscape:pageshadow="2"
   inkscape:window-width="1797"
   inkscape:window-height="984"
   id="namedview277"
   showgrid="false"
   inkscape:zoom="1.640625"
   inkscape:cx="256"
   inkscape:cy="256"
   inkscape:window-x="0"
   inkscape:window-y="23"
   inkscape:window-maximized="0"
   inkscape:current-layer="Layer_1" />
<path
   style="fill:#ff4b55"
   d="M 512,38.345 C 512,17.168 494.833,0 473.655,0 H 38.345 C 17.167,0 0,17.167 0,38.345 v 129.379 h 512 z"
   id="path230" />
<path
   style="fill:#464655"
   d="m 38.345,335.448 h 435.31 c 21.177,0 38.345,-17.167 38.345,-38.345 V 167.724 H 0 v 129.379 c 0,21.178 17.167,38.345 38.345,38.345 z"
   id="path232" />
<g
   id="g244"
   transform="translate(0,-88.276)">
	<path
   style="fill:#ffe15a"
   d="m 235.904,182.293 6.036,18.097 19.076,0.148 c 1.478,0.011 2.091,1.898 0.902,2.775 l -15.346,11.332 5.754,18.188 c 0.446,1.409 -1.159,2.574 -2.361,1.716 l -15.52,-11.093 -15.52,11.093 c -1.203,0.86 -2.807,-0.307 -2.361,-1.716 l 5.754,-18.188 -15.346,-11.332 c -1.188,-0.878 -0.576,-2.764 0.902,-2.775 l 19.076,-0.148 6.036,-18.097 c 0.467,-1.403 2.45,-1.403 2.918,0 z"
   id="path234" />
	<path
   style="fill:#ffe15a"
   d="m 317.487,335.944 c 0,0 -109.206,-82.385 -112.43,-85.092 -4.983,-4.185 -8.828,-11.586 -9.012,-20.598 0,0 -11.777,12.064 -9.471,24.552 2.667,14.436 10.943,19.586 21.61,26.574 7.496,4.911 67.087,42.495 101.875,64.419 z"
   id="path236" />
	<path
   style="fill:#ffe15a"
   d="m 350.162,360.092 c -1.423,-1.016 -12.861,-9.47 -28.73,-21.227 l -5.759,10.472 c 11.651,7.341 19.409,12.227 19.409,12.227 0,0 1.103,14.345 12.69,11.955 4.176,-0.864 7.538,-9.749 2.39,-13.427 z"
   id="path238" />
	<path
   style="fill:#ffe15a"
   d="m 255.863,322.053 c -8.256,2.905 -17.097,4.567 -26.346,4.567 -23.442,0 -44.445,-10.212 -58.987,-26.36 l -12.928,11.635 c 4.333,4.812 8.96,9.347 14.175,13.217 l -2.574,4.459 19.112,11.034 2.53,-4.383 c 8.634,3.755 17.916,6.282 27.638,7.383 v 5.084 h 22.069 v -5.084 c 9.722,-1.101 19.004,-3.628 27.638,-7.383 l 2.53,4.383 7.595,-4.385 c -7.416,-4.677 -15.015,-9.471 -22.452,-14.167 z"
   id="path240" />
	<path
   style="fill:#ffe15a"
   d="m 325.951,236.138 c -1.101,-9.722 -3.628,-19.004 -7.383,-27.637 l 4.383,-2.53 -11.034,-19.113 -4.459,2.574 c -5.708,-7.691 -12.509,-14.492 -20.201,-20.2 l 2.574,-4.459 -19.112,-11.034 -2.53,4.383 c -7.163,-3.115 -14.788,-5.327 -22.723,-6.639 l -2.9,17.404 c 37.656,6.237 66.4,38.862 66.4,78.286 0,21.228 -8.377,40.465 -21.942,54.717 4.692,3.543 9.35,7.059 13.953,10.535 2.23,-2.442 4.504,-4.847 6.482,-7.511 l 4.459,2.574 11.034,-19.112 -4.383,-2.53 c 3.755,-8.634 6.282,-17.916 7.383,-27.637 h 5.083 V 236.14 h -5.084 z"
   id="path242" />
</g>
<g
   id="g246">
</g>
<g
   id="g248">
</g>
<g
   id="g250">
</g>
<g
   id="g252">
</g>
<g
   id="g254">
</g>
<g
   id="g256">
</g>
<g
   id="g258">
</g>
<g
   id="g260">
</g>
<g
   id="g262">
</g>
<g
   id="g264">
</g>
<g
   id="g266">
</g>
<g
   id="g268">
</g>
<g
   id="g270">
</g>
<g
   id="g272">
</g>
<g
   id="g274">
</g>
</svg>
