<?xml version="1.0" encoding="UTF-8" standalone="no"?>
<svg
   xmlns:dc="http://purl.org/dc/elements/1.1/"
   xmlns:cc="http://creativecommons.org/ns#"
   xmlns:rdf="http://www.w3.org/1999/02/22-rdf-syntax-ns#"
   xmlns:svg="http://www.w3.org/2000/svg"
   xmlns="http://www.w3.org/2000/svg"
   xmlns:sodipodi="http://sodipodi.sourceforge.net/DTD/sodipodi-0.dtd"
   xmlns:inkscape="http://www.inkscape.org/namespaces/inkscape"
   version="1.1"
   id="Layer_1"
   x="0px"
   y="0px"
   viewBox="0 0 512 335.45001"
   xml:space="preserve"
   sodipodi:docname="american-samoa-svgrepo-com.svg"
   width="512"
   height="335.45001"
   inkscape:version="1.0.1 (c497b03c, 2020-09-10)"><metadata
   id="metadata79"><rdf:RDF><cc:Work
       rdf:about=""><dc:format>image/svg+xml</dc:format><dc:type
         rdf:resource="http://purl.org/dc/dcmitype/StillImage" /><dc:title></dc:title></cc:Work></rdf:RDF></metadata><defs
   id="defs77" /><sodipodi:namedview
   pagecolor="#ffffff"
   bordercolor="#666666"
   borderopacity="1"
   objecttolerance="10"
   gridtolerance="10"
   guidetolerance="10"
   inkscape:pageopacity="0"
   inkscape:pageshadow="2"
   inkscape:window-width="1797"
   inkscape:window-height="983"
   id="namedview75"
   showgrid="false"
   inkscape:zoom="1.640625"
   inkscape:cx="256"
   inkscape:cy="256"
   inkscape:window-x="0"
   inkscape:window-y="23"
   inkscape:window-maximized="0"
   inkscape:current-layer="Layer_1" />
<path
   style="fill:#41479b"
   d="M 473.655,335.448 H 38.345 C 17.167,335.448 0,318.281 0,297.103 V 38.345 C 0,17.168 17.167,0 38.345,0 h 435.31 C 494.832,0 512,17.167 512,38.345 v 258.759 c 0,21.177 -17.167,38.344 -38.345,38.344 z"
   id="path10" />
<path
   style="fill:#ff4b55"
   d="M 507.384,315.358 56.713,167.724 507.384,20.09 C 504.235,14.283 499.623,9.388 494.051,5.88 L 0,167.724 494.051,329.568 c 5.573,-3.508 10.183,-8.403 13.333,-14.21 z"
   id="path12" />
<path
   style="fill:#f5f5f5"
   d="M 507.384,315.358 C 510.328,309.93 512,303.712 512,297.105 V 38.346 c 0,-6.609 -1.673,-12.826 -4.616,-18.254 L 56.713,167.724 Z"
   id="path14" />
<path
   style="fill:#fff5dc"
   d="m 458.103,124.28 c 0,0 30.229,1.281 33.047,-1.025 2.818,-2.305 3.33,-17.676 -6.66,-19.981 -9.991,-2.305 -37.145,12.553 -37.145,12.553 z"
   id="path16" />
<g
   id="g26"
   transform="translate(0,-88.276)">
	<path
   style="fill:#d27d69"
   d="m 398.926,236.381 c 0,0 -0.342,0.854 -0.512,4.611 -0.171,3.757 0.512,13.492 12.297,17.761 l -2.732,11.443 12.467,7.514 c 0,0 9.223,-13.663 9.735,-25.106 0.511,-11.441 -31.255,-16.223 -31.255,-16.223 z"
   id="path18" />
	<path
   style="fill:#d27d69"
   d="m 361.525,228.695 4.867,-4.867 c 0,0 -9.964,6.079 -13.748,0.598 -4.952,-7.172 1.708,-14.687 8.625,-18.018 6.916,-3.33 20.75,-0.768 20.75,-0.768 l 8.71,22.287 -26.386,16.651 z"
   id="path20" />
	<path
   style="fill:#d27d69"
   d="m 443.245,186.17 23.569,-2.818 c 0,0 -6.916,9.991 -20.494,17.42 0,0 14.09,0 18.188,4.867 4.099,4.867 -4.099,9.479 -7.172,11.016 -3.074,1.537 -29.716,17.932 -29.716,17.932 l -23.825,-2.818 z"
   id="path22" />
	<path
   style="fill:#d27d69"
   d="m 460.75,168.067 c 0,0 5.123,-11.955 4.952,-20.323 l -17.249,11.955 c 0,0 3.928,-1.878 2.562,-8.71 l -56.359,30.57 -11.443,20.323 34.84,10.76 z"
   id="path24" />
</g>
<path
   style="fill:#ffe15a"
   d="m 418.268,172.953 -5.892,9.351 c 0,0 -10.504,-2.305 -14.09,0.256 -3.586,2.562 -3.97,12.169 2.305,12.937 0,0 4.355,2.69 6.916,0.512 0,0 5.251,2.049 6.148,-1.281 0.897,-3.33 -0.256,-6.148 -0.256,-6.148 h 3.714 l 6.532,-11.656 z"
   id="path28" />
<path
   style="fill:#b95546"
   d="m 365.624,152.716 c 0,0 16.395,-8.198 16.395,-20.494 0,-12.297 -15.2,-12.98 -27.496,-8.881 0,0 -7.343,-5.806 -1.195,-11.614 8.428,-7.96 45.087,-24.593 45.087,-24.593 l -4.099,20.494 c 0,0 14.602,7.686 20.494,4.099 4.951,-3.014 53.284,-40.988 53.284,-40.988 0,0 -4.099,20.494 -32.79,40.988 l -3.04,15.201 c -0.668,3.34 -2.84,6.184 -5.887,7.706 l -11.567,5.783 c 0,0 32.79,4.099 32.79,8.198 0,4.098 -8.198,24.593 -24.593,32.79 l -8.197,-8.198 4.099,-12.297 c 0,0 -12.297,-4.099 -20.494,-8.198 0,0 -12.297,4.099 -20.494,4.099 -8.197,0.003 -12.297,-4.095 -12.297,-4.095 z"
   id="path30" />
<path
   style="fill:#fff5dc"
   d="m 341.032,173.21 v -8.516 c 0,-2.42 0.961,-4.742 2.673,-6.453 l 17.822,-17.822 4.099,8.198 h 16.395 l -4.099,4.099 v 4.099 l -20.494,12.297 z"
   id="path32" />
<g
   id="g42"
   transform="translate(0,-88.276)">
	<path
   style="fill:#ffe15a"
   d="m 349.229,257.387 h -8.197 c 0,0 -8.198,12.297 0,12.297 0,0 12.297,-8.198 16.395,-12.297 0,0 0,-4.099 -8.198,0 z"
   id="path34" />
	<path
   style="fill:#ffe15a"
   d="m 449.21,275.569 h -56.663 c -0.467,-0.503 -1.12,-0.828 -1.86,-0.828 0,0 -9.926,-4.114 -11.337,-4.114 h -1.163 c -1.411,0 -2.556,1.144 -2.556,2.556 v 2.386 h -12.953 v -2.386 c 0,-1.411 -1.144,-2.556 -2.556,-2.556 h -1.163 c -1.411,0 -2.556,1.144 -2.556,2.556 v 0.043 c -5.551,-0.226 -17.42,-0.934 -23.569,-2.983 l -32.79,8.198 32.79,8.198 c 6.147,-2.049 18.016,-2.758 23.569,-2.984 v 0.043 c 0,1.411 1.144,2.556 2.556,2.556 h 1.163 c 1.411,0 2.556,-1.144 2.556,-2.556 v -2.386 h 12.953 v 2.386 c 0,1.411 1.144,2.556 2.556,2.556 h 1.163 c 1.411,0 11.337,-4.114 11.337,-4.114 0.74,0 1.394,-0.324 1.86,-0.828 h 56.663 c 1.587,0 2.872,-1.287 2.872,-2.872 0.001,-1.585 -1.285,-2.871 -2.872,-2.871 z"
   id="path36" />
	<path
   style="fill:#ffe15a"
   d="m 446.746,286.591 c -3.416,-0.683 -42.525,6.148 -42.525,6.148 0,0 -2.391,-2.391 4.781,-9.052 l -3.415,-0.854 c 0,0 -7.514,5.294 -10.589,5.977 -2.647,0.588 -8.562,3.464 -9.833,7.303 l -23.812,3.969 0.512,2.049 23.357,-2.738 c 1.115,3.588 4.786,4.32 7.384,3.25 0,0 3.416,1.366 6.49,-1.025 0,0 6.148,1.025 6.489,-4.611 l 42.867,-6.49 c 0.002,0.002 1.71,-3.243 -1.706,-3.926 z"
   id="path38" />
	<path
   style="fill:#ffe15a"
   d="m 422.495,315.454 c 0,0 -3.245,4.269 -11.272,0.512 -8.026,-3.757 -17.42,0.342 -22.543,-0.854 -5.123,-1.196 -12.809,-4.269 -19.981,-1.537 -7.172,2.732 -11.101,2.562 -9.564,-0.854 1.537,-3.415 2.391,-5.977 0,-7.172 l 2.732,-3.416 -0.512,-2.049 c 0,0 -13.663,-5.294 -22.884,2.049 -9.223,7.343 -6.489,24.081 8.881,25.276 0,0 4.782,5.977 16.566,4.269 0,0 7.686,5.294 20.835,2.903 0,0 0.512,1.537 9.052,0.854 8.54,-0.683 18.103,0.342 16.395,6.148 0,0 6.319,-1.195 2.562,-7.003 0,0 7.514,-0.342 12.638,4.099 0,0 0.342,-5.123 -4.611,-7.857 0,0 8.369,-2.903 12.98,0 0,0 -3.074,-6.489 -11.272,-5.635 0,0 5.977,-4.782 8.71,-3.586 0,0 -2.562,-3.074 -10.077,0 -10e-4,0 4.781,-2.903 1.365,-6.147 z"
   id="path40" />
</g>
<g
   id="g44">
</g>
<g
   id="g46">
</g>
<g
   id="g48">
</g>
<g
   id="g50">
</g>
<g
   id="g52">
</g>
<g
   id="g54">
</g>
<g
   id="g56">
</g>
<g
   id="g58">
</g>
<g
   id="g60">
</g>
<g
   id="g62">
</g>
<g
   id="g64">
</g>
<g
   id="g66">
</g>
<g
   id="g68">
</g>
<g
   id="g70">
</g>
<g
   id="g72">
</g>
</svg>
