<?xml version="1.0" encoding="UTF-8" standalone="no"?>
<svg
   xmlns:dc="http://purl.org/dc/elements/1.1/"
   xmlns:cc="http://creativecommons.org/ns#"
   xmlns:rdf="http://www.w3.org/1999/02/22-rdf-syntax-ns#"
   xmlns:svg="http://www.w3.org/2000/svg"
   xmlns="http://www.w3.org/2000/svg"
   xmlns:sodipodi="http://sodipodi.sourceforge.net/DTD/sodipodi-0.dtd"
   xmlns:inkscape="http://www.inkscape.org/namespaces/inkscape"
   version="1.1"
   id="Layer_1"
   x="0px"
   y="0px"
   viewBox="0 0 512 335.45001"
   xml:space="preserve"
   sodipodi:docname="burkina-faso.svg"
   width="512"
   height="335.45001"
   inkscape:version="1.0.1 (c497b03c, 2020-09-10)"><metadata
   id="metadata100"><rdf:RDF><cc:Work
       rdf:about=""><dc:format>image/svg+xml</dc:format><dc:type
         rdf:resource="http://purl.org/dc/dcmitype/StillImage" /><dc:title></dc:title></cc:Work></rdf:RDF></metadata><defs
   id="defs98" /><sodipodi:namedview
   pagecolor="#ffffff"
   bordercolor="#666666"
   borderopacity="1"
   objecttolerance="10"
   gridtolerance="10"
   guidetolerance="10"
   inkscape:pageopacity="0"
   inkscape:pageshadow="2"
   inkscape:window-width="1797"
   inkscape:window-height="983"
   id="namedview96"
   showgrid="false"
   inkscape:zoom="1.640625"
   inkscape:cx="256"
   inkscape:cy="256"
   inkscape:window-x="0"
   inkscape:window-y="23"
   inkscape:window-maximized="0"
   inkscape:current-layer="Layer_1" />
<path
   style="fill:#ff4b55"
   d="M 473.651,0 H 38.292 C 17.807,0 1.077,16.061 0,36.277 V 167.743 H 512 V 38.349 C 512,17.169 494.831,0 473.651,0 Z"
   id="path59" />
<path
   style="fill:#73af00"
   d="m 0,299.209 c 1.077,20.215 17.807,36.277 38.292,36.277 h 435.359 c 21.18,0 38.349,-17.169 38.349,-38.349 V 167.743 H 0 Z"
   id="path61" />
<path
   style="fill:#ffe15a"
   d="m 258.715,119.592 11.107,33.304 35.106,0.273 c 2.72,0.021 3.847,3.492 1.66,5.107 l -28.242,20.855 10.59,33.472 c 0.82,2.593 -2.132,4.739 -4.345,3.156 l -28.563,-20.414 -28.562,20.415 c -2.213,1.581 -5.166,-0.564 -4.345,-3.156 l 10.59,-33.472 -28.242,-20.855 c -2.188,-1.616 -1.061,-5.086 1.66,-5.107 l 35.106,-0.273 11.107,-33.304 c 0.862,-2.581 4.512,-2.581 5.373,-0.001 z"
   id="path63" />
<g
   id="g65">
</g>
<g
   id="g67">
</g>
<g
   id="g69">
</g>
<g
   id="g71">
</g>
<g
   id="g73">
</g>
<g
   id="g75">
</g>
<g
   id="g77">
</g>
<g
   id="g79">
</g>
<g
   id="g81">
</g>
<g
   id="g83">
</g>
<g
   id="g85">
</g>
<g
   id="g87">
</g>
<g
   id="g89">
</g>
<g
   id="g91">
</g>
<g
   id="g93">
</g>
</svg>
