<?xml version="1.0" encoding="UTF-8" standalone="no"?>
<svg
   xmlns:dc="http://purl.org/dc/elements/1.1/"
   xmlns:cc="http://creativecommons.org/ns#"
   xmlns:rdf="http://www.w3.org/1999/02/22-rdf-syntax-ns#"
   xmlns:svg="http://www.w3.org/2000/svg"
   xmlns="http://www.w3.org/2000/svg"
   xmlns:sodipodi="http://sodipodi.sourceforge.net/DTD/sodipodi-0.dtd"
   xmlns:inkscape="http://www.inkscape.org/namespaces/inkscape"
   version="1.1"
   id="Layer_1"
   x="0px"
   y="0px"
   viewBox="0 0 512.004 335.44999"
   xml:space="preserve"
   sodipodi:docname="british-columbia.svg"
   width="512.00403"
   height="335.45001"
   inkscape:version="1.0.1 (c497b03c, 2020-09-10)"><metadata
   id="metadata1499"><rdf:RDF><cc:Work
       rdf:about=""><dc:format>image/svg+xml</dc:format><dc:type
         rdf:resource="http://purl.org/dc/dcmitype/StillImage" /><dc:title></dc:title></cc:Work></rdf:RDF></metadata><defs
   id="defs1497" /><sodipodi:namedview
   pagecolor="#ffffff"
   bordercolor="#666666"
   borderopacity="1"
   objecttolerance="10"
   gridtolerance="10"
   guidetolerance="10"
   inkscape:pageopacity="0"
   inkscape:pageshadow="2"
   inkscape:window-width="1797"
   inkscape:window-height="983"
   id="namedview1495"
   showgrid="false"
   inkscape:zoom="1.6406121"
   inkscape:cx="256.00201"
   inkscape:cy="256.00201"
   inkscape:window-x="0"
   inkscape:window-y="23"
   inkscape:window-maximized="0"
   inkscape:current-layer="Layer_1" />
<g
   id="g1408"
   transform="translate(0,-88.276)">
	<polygon
   style="fill:#41479b"
   points="225.391,88.277 61.853,88.277 225.391,141.85 "
   id="polygon1392" />
	<path
   style="fill:#41479b"
   d="m 512.001,150.07 v -23.448 c 0,-7.559 -2.196,-14.601 -5.972,-20.54 l -134.28,43.988 z"
   id="path1394" />
	<polygon
   style="fill:#41479b"
   points="450.265,88.277 286.726,88.277 286.726,141.85 "
   id="polygon1396" />
	<path
   style="fill:#41479b"
   d="M 5.994,106.05 C 2.553,111.449 0.42,117.762 0.06,124.548 v 25.522 h 140.309 z"
   id="path1398" />
	<polygon
   style="fill:#41479b"
   points="512.001,240.152 512.001,194.208 371.75,194.208 "
   id="polygon1400" />
	<polygon
   style="fill:#41479b"
   points="0.058,194.208 0.058,240.171 140.367,194.208 "
   id="polygon1402" />
	<polygon
   style="fill:#41479b"
   points="286.726,256.001 450.265,256.001 286.726,202.427 "
   id="polygon1404" />
	<polygon
   style="fill:#41479b"
   points="61.852,256.001 225.391,256.001 225.391,202.427 "
   id="polygon1406" />
</g>
<g
   id="g1426"
   transform="translate(0,-88.276)">
	<path
   style="fill:#f5f5f5"
   d="m 102.336,374.07 c 25.589,0 25.589,-7.724 51.178,-7.724 25.6,0 25.6,7.724 51.2,7.724 25.6,0 25.6,-7.724 51.2,-7.724 25.6,0 25.6,7.724 51.2,7.724 25.593,0 25.593,-7.724 51.186,-7.724 25.597,0 25.597,7.724 51.192,7.724 25.619,0 25.619,-7.724 51.237,-7.724 25.636,0 25.636,7.724 51.272,7.724 v -23.172 c -25.635,0 -25.636,-7.724 -51.272,-7.724 -25.619,0 -25.619,7.724 -51.237,7.724 -25.597,0 -25.597,-7.724 -51.192,-7.724 -25.593,0 -25.593,7.724 -51.186,7.724 -25.6,0 -25.6,-7.724 -51.2,-7.724 -25.6,0 -25.6,7.724 -51.2,7.724 -25.6,0 -25.6,-7.724 -51.2,-7.724 -25.589,0 -25.589,7.724 -51.178,7.724 -25.576,0 -25.576,-7.724 -51.153,-7.724 -25.571,0 -25.593,7.712 -51.126,7.724 v 23.172 c 25.533,-0.012 25.554,-7.724 51.126,-7.724 25.577,0 25.577,7.724 51.153,7.724 z"
   id="path1410" />
	<path
   style="fill:#f5f5f5"
   d="m 102.336,327.725 c 25.589,0 25.589,-7.724 51.178,-7.724 25.6,0 25.6,7.724 51.2,7.724 25.6,0 25.6,-7.724 51.2,-7.724 25.6,0 25.6,7.724 51.2,7.724 25.593,0 25.593,-7.724 51.186,-7.724 25.597,0 25.597,7.724 51.192,7.724 25.619,0 25.619,-7.724 51.237,-7.724 25.636,0 25.636,7.724 51.272,7.724 v -23.172 c -25.635,0 -25.636,-7.724 -51.272,-7.724 -25.619,0 -25.619,7.724 -51.237,7.724 -25.597,0 -25.597,-7.724 -51.192,-7.724 -25.593,0 -25.593,7.724 -51.186,7.724 -25.6,0 -25.6,-7.724 -51.2,-7.724 -25.6,0 -25.6,7.724 -51.2,7.724 -25.6,0 -25.6,-7.724 -51.2,-7.724 -25.589,0 -25.589,7.724 -51.178,7.724 -25.576,0 -25.576,-7.724 -51.153,-7.724 -25.571,0 -25.593,7.712 -51.126,7.724 v 23.172 c 25.533,-0.012 25.554,-7.724 51.126,-7.724 25.577,0 25.577,7.724 51.153,7.724 z"
   id="path1412" />
	<path
   style="fill:#f5f5f5"
   d="m 102.336,281.38 c 25.589,0 25.589,-7.724 51.178,-7.724 25.6,0 25.6,7.724 51.2,7.724 25.6,0 25.6,-7.724 51.2,-7.724 25.6,0 25.6,7.724 51.2,7.724 25.593,0 25.593,-7.724 51.186,-7.724 25.597,0 25.597,7.724 51.192,7.724 25.619,0 25.619,-7.724 51.237,-7.724 25.636,0 25.636,7.724 51.272,7.724 v -25.379 h -7.635 -54.1 H 286.726 269.3 242.817 225.391 61.852 21.045 0.058 v 25.379 c 25.533,-0.012 25.554,-7.724 51.126,-7.724 25.576,0 25.576,7.724 51.152,7.724 z"
   id="path1414" />
	<path
   style="fill:#f5f5f5"
   d="m 409.492,397.242 c -25.597,0 -25.597,-7.724 -51.192,-7.724 -25.593,0 -25.593,7.724 -51.186,7.724 -25.6,0 -25.6,-7.724 -51.2,-7.724 -25.6,0 -25.6,7.724 -51.2,7.724 -25.6,0 -25.6,-7.724 -51.2,-7.724 -25.589,0 -25.589,7.724 -51.178,7.724 -25.576,0 -25.576,-7.724 -51.153,-7.724 -24.948,0 -25.587,7.337 -49.31,7.706 4.992,15.379 19.429,26.5 36.472,26.5 h 435.31 c 17.043,0 31.48,-11.122 36.471,-26.5 -23.767,-0.369 -24.407,-7.706 -49.398,-7.706 -25.617,0 -25.617,7.724 -51.236,7.724 z"
   id="path1416" />
	<polygon
   style="fill:#f5f5f5"
   points="450.265,256.001 504.366,256.001 314.018,194.208 346.446,194.208 512.001,247.939 512.001,240.152 371.75,194.208 512.001,194.208 512.001,185.38 269.3,185.38 269.3,256.001 286.726,256.001 286.726,202.427 "
   id="polygon1418" />
	<polygon
   style="fill:#f5f5f5"
   points="225.391,202.427 225.391,256.001 242.817,256.001 242.817,185.38 0.058,185.38 0.058,194.208 140.367,194.208 0.058,240.171 0.058,252.269 179.007,194.208 211.435,194.208 21.045,256.001 61.852,256.001 "
   id="polygon1420" />
	<path
   style="fill:#f5f5f5"
   d="m 512.001,158.897 v -8.828 H 371.75 l 134.279,-43.988 c -2.304,-3.623 -5.196,-6.83 -8.546,-9.492 l -164.857,53.48 H 300.198 L 485.165,90.035 c -3.633,-1.141 -7.497,-1.759 -11.507,-1.759 H 450.267 L 286.727,141.85 V 88.277 H 269.3 v 70.621 h 242.701 z"
   id="path1422" />
	<path
   style="fill:#f5f5f5"
   d="m 242.817,88.277 h -17.426 v 53.574 L 61.853,88.277 H 38.346 c -6.92,0 -13.406,1.843 -19.011,5.049 L 194.266,150.07 H 161.838 L 10.008,100.791 c -1.485,1.629 -2.825,3.392 -4.014,5.259 l 134.374,44.02 H 0.058 v 8.828 h 242.759 z"
   id="path1424" />
</g>
<g
   id="g1438"
   transform="translate(0,-88.276)">
	<rect
   x="269.29999"
   y="158.901"
   style="fill:#ff4b55"
   width="242.7"
   height="26.483"
   id="rect1428" />
	<rect
   x="0.057999998"
   y="158.901"
   style="fill:#ff4b55"
   width="242.75999"
   height="26.483"
   id="rect1430" />
	<polygon
   style="fill:#ff4b55"
   points="269.3,185.38 269.3,158.897 269.3,88.277 242.817,88.277 242.817,158.897 242.817,185.38 242.817,256.001 269.3,256.001 "
   id="polygon1432" />
	<polygon
   style="fill:#ff4b55"
   points="0.058,256.001 21.045,256.001 211.435,194.208 179.007,194.208 0.058,252.269 "
   id="polygon1434" />
	<polygon
   style="fill:#ff4b55"
   points="512.001,247.939 346.446,194.208 314.018,194.208 504.366,256.001 512.001,256.001 "
   id="polygon1436" />
</g>
<g
   id="g1446"
   transform="translate(0,-88.276)">
	<path
   style="fill:#41479b"
   d="m 102.336,304.553 c 25.589,0 25.589,-7.724 51.178,-7.724 25.6,0 25.6,7.724 51.2,7.724 25.6,0 25.6,-7.724 51.2,-7.724 25.6,0 25.6,7.724 51.2,7.724 25.593,0 25.593,-7.724 51.186,-7.724 25.597,0 25.597,7.724 51.192,7.724 25.619,0 25.619,-7.724 51.237,-7.724 25.636,0 25.636,7.724 51.272,7.724 v -23.172 c -25.635,0 -25.636,-7.724 -51.272,-7.724 -25.619,0 -25.619,7.724 -51.237,7.724 -25.597,0 -25.597,-7.724 -51.192,-7.724 -25.593,0 -25.593,7.724 -51.186,7.724 -25.6,0 -25.6,-7.724 -51.2,-7.724 -25.6,0 -25.6,7.724 -51.2,7.724 -25.6,0 -25.6,-7.724 -51.2,-7.724 -25.589,0 -25.589,7.724 -51.178,7.724 -25.576,0 -25.576,-7.724 -51.153,-7.724 -25.571,0 -25.593,7.712 -51.126,7.724 -0.02,0 -0.038,0 -0.057,0 v 23.172 c 0.02,0 0.038,0 0.057,0 25.533,-0.012 25.554,-7.724 51.126,-7.724 25.577,0 25.577,7.724 51.153,7.724 z"
   id="path1440" />
	<path
   style="fill:#41479b"
   d="m 102.336,350.897 c 25.589,0 25.589,-7.724 51.178,-7.724 25.6,0 25.6,7.724 51.2,7.724 25.6,0 25.6,-7.724 51.2,-7.724 25.6,0 25.6,7.724 51.2,7.724 25.593,0 25.593,-7.724 51.186,-7.724 25.597,0 25.597,7.724 51.192,7.724 25.619,0 25.619,-7.724 51.237,-7.724 25.636,0 25.636,7.724 51.272,7.724 v -23.172 c -25.635,0 -25.636,-7.724 -51.272,-7.724 -25.619,0 -25.619,7.724 -51.237,7.724 -25.597,0 -25.597,-7.724 -51.192,-7.724 -25.593,0 -25.593,7.724 -51.186,7.724 -25.6,0 -25.6,-7.724 -51.2,-7.724 -25.6,0 -25.6,7.724 -51.2,7.724 -25.6,0 -25.6,-7.724 -51.2,-7.724 -25.589,0 -25.589,7.724 -51.178,7.724 -25.576,0 -25.576,-7.724 -51.153,-7.724 -25.571,0 -25.593,7.712 -51.126,7.724 -0.02,0 -0.038,0 -0.057,0 v 23.172 c 0.02,0 0.038,0 0.057,0 25.533,-0.012 25.554,-7.724 51.126,-7.724 25.577,0 25.577,7.724 51.153,7.724 z"
   id="path1442" />
	<path
   style="fill:#41479b"
   d="m 1.875,397.225 c 23.723,-0.37 24.362,-7.706 49.31,-7.706 25.576,0 25.576,7.724 51.153,7.724 25.589,0 25.589,-7.724 51.178,-7.724 25.6,0 25.6,7.724 51.2,7.724 25.6,0 25.6,-7.724 51.2,-7.724 25.6,0 25.6,7.724 51.2,7.724 25.593,0 25.593,-7.724 51.186,-7.724 25.597,0 25.597,7.724 51.192,7.724 25.619,0 25.619,-7.724 51.238,-7.724 24.992,0 25.631,7.337 49.398,7.706 1.21,-3.731 1.874,-7.71 1.874,-11.844 v -11.31 c -25.635,0 -25.636,-7.724 -51.272,-7.724 -25.619,0 -25.619,7.724 -51.238,7.724 -25.597,0 -25.597,-7.724 -51.192,-7.724 -25.593,0 -25.593,7.724 -51.186,7.724 -25.6,0 -25.6,-7.724 -51.2,-7.724 -25.6,0 -25.6,7.724 -51.2,7.724 -25.6,0 -25.6,-7.724 -51.2,-7.724 -25.589,0 -25.589,7.724 -51.178,7.724 -25.576,0 -25.576,-7.724 -51.153,-7.724 -25.571,0 -25.593,7.712 -51.126,7.724 -0.02,0 -0.038,0 -0.057,0 v 11.31 c -0.001,4.134 0.661,8.112 1.873,11.844 z"
   id="path1444" />
</g>
<g
   id="g1452"
   transform="translate(0,-88.276)">
	<path
   style="fill:#ff4b55"
   d="M 194.265,150.07 19.335,93.326 c -3.488,1.996 -6.637,4.515 -9.326,7.465 l 151.829,49.279 z"
   id="path1448" />
	<path
   style="fill:#ff4b55"
   d="M 332.625,150.07 497.484,96.59 c -3.631,-2.884 -7.791,-5.131 -12.32,-6.553 L 300.197,150.07 Z"
   id="path1450" />
</g>
<g
   id="g1462"
   transform="translate(0,-88.276)">
	<path
   style="fill:#ffe15a"
   d="m 301.319,156.76 -13.023,6.732 -5.143,-11.965 c -0.531,-1.235 -2.66,-1.455 -3.592,-0.373 l -10.607,12.338 -11.091,-17.201 c -0.744,-1.153 -2.865,-1.153 -3.608,0 l -11.091,17.201 -10.607,-12.338 c -0.931,-1.082 -3.061,-0.862 -3.592,0.373 l -5.143,11.965 -13.023,-6.732 c -1.721,-0.889 -3.848,0.566 -2.923,2.001 l 12.722,19.731 h -0.551 c -1.476,0 -2.674,0.928 -2.674,2.073 v 5.853 c 0,1.145 1.197,2.073 2.674,2.073 h 72.021 c 1.476,0 2.674,-0.928 2.674,-2.073 v -5.853 c 0,-1.145 -1.197,-2.073 -2.674,-2.073 h -0.551 l 12.722,-19.731 c 0.927,-1.435 -1.2,-2.891 -2.92,-2.001 z"
   id="path1454" />
	<path
   style="fill:#ffe15a"
   d="m 401.702,411.837 c 18.541,-9.549 25.212,-23.871 27.64,-29.192 3.679,-8.06 20.748,-14.56 20.748,-14.56 0,0 -21.086,0.099 -32.372,14.751 -10.404,13.507 -29.137,14.669 -47.202,25.005 -1.722,-2.165 -3.495,-4.288 -5.334,-6.35 l 56.292,-68.143 -68.143,56.292 c -2.667,-2.379 -5.426,-4.655 -8.264,-6.837 1.794,-4.664 5.334,-11.873 12.285,-20.083 13.475,-15.917 14.157,-31.702 14.365,-37.546 0.316,-8.854 13.597,-21.393 13.597,-21.393 0,0 -19.443,8.161 -24.263,26.016 -4.44,16.452 -21.287,24.694 -34.02,41.14 -2.417,-1.345 -4.864,-2.642 -7.362,-3.851 l 25.914,-84.448 -41.402,78.061 c -3.369,-1.174 -6.787,-2.238 -10.263,-3.167 -0.124,-4.999 0.393,-13 3.665,-23.219 6.358,-19.863 0.947,-34.707 -1.098,-40.186 -3.097,-8.301 4.375,-24.967 4.375,-24.967 0,0 -14.84,14.98 -12.46,33.321 2.194,16.904 -10.225,30.969 -15.693,51.044 -2.735,-0.31 -5.489,-0.557 -8.267,-0.715 l -8.38,-87.982 -8.38,87.979 c -3.598,0.204 -7.153,0.563 -10.677,1.022 -2.029,-4.567 -4.625,-12.169 -5.515,-22.89 -1.727,-20.783 -12.406,-32.428 -16.392,-36.707 -6.039,-6.483 -5.513,-24.74 -5.513,-24.74 0,0 -7.978,19.518 1.24,35.552 8.494,14.775 2.409,32.519 5.035,53.152 -2.671,0.762 -5.312,1.592 -7.917,2.502 l -41.402,-78.061 25.914,84.448 c -3.231,1.564 -6.376,3.274 -9.47,5.063 -3.623,-3.444 -8.925,-9.472 -13.846,-19.028 -9.549,-18.541 -23.872,-25.212 -29.192,-27.64 -8.06,-3.679 -14.56,-20.747 -14.56,-20.747 0,0 0.098,21.086 14.751,32.371 13.507,10.404 14.669,29.138 25.004,47.203 -2.165,1.723 -4.288,3.495 -6.35,5.334 l -68.143,-56.292 56.292,68.143 c -2.379,2.667 -4.655,5.426 -6.837,8.264 -4.664,-1.794 -11.874,-5.335 -20.083,-12.285 -15.917,-13.475 -31.702,-14.157 -37.547,-14.366 -8.854,-0.314 -21.391,-13.596 -21.391,-13.596 0,0 8.161,19.443 26.016,24.263 14.759,3.983 22.958,17.931 36.351,29.956 h 261.239 c 3.605,-3.447 9.017,-7.772 17.015,-11.891 z"
   id="path1456" />
	<polygon
   style="fill:#ffe15a"
   points="444.867,423.725 472.183,409.238 424.973,423.725 "
   id="polygon1458" />
	<polygon
   style="fill:#ffe15a"
   points="39.934,409.238 67.25,423.725 87.145,423.725 "
   id="polygon1460" />
</g>
<g
   id="g1464">
</g>
<g
   id="g1466">
</g>
<g
   id="g1468">
</g>
<g
   id="g1470">
</g>
<g
   id="g1472">
</g>
<g
   id="g1474">
</g>
<g
   id="g1476">
</g>
<g
   id="g1478">
</g>
<g
   id="g1480">
</g>
<g
   id="g1482">
</g>
<g
   id="g1484">
</g>
<g
   id="g1486">
</g>
<g
   id="g1488">
</g>
<g
   id="g1490">
</g>
<g
   id="g1492">
</g>
</svg>
