<?xml version="1.0" encoding="iso-8859-1"?>
<!-- Generator: Adobe Illustrator 19.0.0, SVG Export Plug-In . SVG Version: 6.00 Build 0)  -->
<svg version="1.1" id="Layer_1" xmlns="http://www.w3.org/2000/svg" xmlns:xlink="http://www.w3.org/1999/xlink" x="0px" y="0px"
	 viewBox="0 0 512 512" style="enable-background:new 0 0 512 512;" xml:space="preserve">
<path style="fill:#F5F5F5;" d="M473.655,423.722H38.345C17.167,423.722,0,406.554,0,385.377V126.618
	c0-21.177,17.167-38.345,38.345-38.345h435.31c21.177,0,38.345,17.167,38.345,38.345v258.759
	C512,406.554,494.833,423.722,473.655,423.722z"/>
<polygon style="fill:#41479B;" points="512,211.866 229.517,211.866 229.517,88.28 141.241,88.28 141.241,211.866 0,211.866 
	0,300.142 141.241,300.142 141.241,423.728 229.517,423.728 229.517,300.142 512,300.142 "/>
<polygon style="fill:#FF4B55;" points="512,229.521 211.862,229.521 211.862,88.28 158.897,88.28 158.897,229.521 0,229.521 
	0,282.487 158.897,282.487 158.897,423.728 211.862,423.728 211.862,282.487 512,282.487 "/>
<g>
</g>
<g>
</g>
<g>
</g>
<g>
</g>
<g>
</g>
<g>
</g>
<g>
</g>
<g>
</g>
<g>
</g>
<g>
</g>
<g>
</g>
<g>
</g>
<g>
</g>
<g>
</g>
<g>
</g>
</svg>
