<?xml version="1.0" encoding="UTF-8" standalone="no"?>
<svg
   xmlns:dc="http://purl.org/dc/elements/1.1/"
   xmlns:cc="http://creativecommons.org/ns#"
   xmlns:rdf="http://www.w3.org/1999/02/22-rdf-syntax-ns#"
   xmlns:svg="http://www.w3.org/2000/svg"
   xmlns="http://www.w3.org/2000/svg"
   xmlns:sodipodi="http://sodipodi.sourceforge.net/DTD/sodipodi-0.dtd"
   xmlns:inkscape="http://www.inkscape.org/namespaces/inkscape"
   version="1.1"
   id="Layer_1"
   x="0px"
   y="0px"
   viewBox="0 0 512 335.45001"
   xml:space="preserve"
   sodipodi:docname="bermuda.svg"
   width="512"
   height="335.45001"
   inkscape:version="1.0.1 (c497b03c, 2020-09-10)"><metadata
   id="metadata971"><rdf:RDF><cc:Work
       rdf:about=""><dc:format>image/svg+xml</dc:format><dc:type
         rdf:resource="http://purl.org/dc/dcmitype/StillImage" /><dc:title></dc:title></cc:Work></rdf:RDF></metadata><defs
   id="defs969" /><sodipodi:namedview
   pagecolor="#ffffff"
   bordercolor="#666666"
   borderopacity="1"
   objecttolerance="10"
   gridtolerance="10"
   guidetolerance="10"
   inkscape:pageopacity="0"
   inkscape:pageshadow="2"
   inkscape:window-width="1797"
   inkscape:window-height="983"
   id="namedview967"
   showgrid="false"
   inkscape:zoom="1.640625"
   inkscape:cx="256"
   inkscape:cy="256"
   inkscape:window-x="0"
   inkscape:window-y="23"
   inkscape:window-maximized="0"
   inkscape:current-layer="Layer_1" />
<path
   style="fill:#ff4b55"
   d="M 473.655,335.448 H 38.346 c -21.177,0 -38.345,-17.167 -38.345,-38.345 V 38.346 C 0.001,17.169 17.168,0.001 38.346,0.001 H 473.655 C 494.832,0.001 512,17.168 512,38.346 v 258.758 c 0,21.177 -17.167,38.344 -38.345,38.344 z"
   id="path832" />
<path
   style="fill:#41479b"
   d="m 0.001,38.346 v 120.582 c 0.017,4.861 3.961,8.797 8.826,8.797 h 238.344 c 4.875,0 8.828,-3.953 8.828,-8.828 V 8.828 c 0,-4.874 -3.95,-8.825 -8.823,-8.828 H 38.346 C 17.169,0.001 0.001,17.168 0.001,38.346 Z"
   id="path834" />
<path
   style="fill:#f5f5f5"
   d="M 150.069,53.573 V 0.001 H 105.931 V 53.574 L 26.845,1.759 C 17.611,4.659 9.891,10.962 5.134,19.193 L 70.156,61.794 H 0.001 v 44.138 H 70.154 L 0.001,151.893 v 7.033 c 0.017,4.861 3.961,8.797 8.826,8.797 H 24.16 l 81.77,-53.572 v 53.573 h 44.138 v -53.573 l 81.77,53.573 h 15.333 c 4.875,0 8.828,-3.953 8.828,-8.828 v -7.002 l -70.155,-45.963 h 70.155 V 61.794 H 185.844 L 255.999,15.83 V 8.828 c 0,-4.874 -3.95,-8.825 -8.823,-8.828 h -15.338 z"
   id="path836" />
<g
   id="g848"
   transform="translate(0,-88.276)">
	<polygon
   style="fill:#ff4b55"
   points="141.241,88.277 114.758,88.277 114.758,158.897 0,158.897 0,185.38 114.758,185.38 114.758,256.001 141.241,256.001 141.241,185.38 255.999,185.38 255.999,158.897 141.241,158.897 "
   id="polygon838" />
	<path
   style="fill:#ff4b55"
   d="m 8.228,102.903 72.661,47.166 H 97.103 L 14.608,96.519 c -2.369,1.871 -4.51,4.014 -6.38,6.384 z"
   id="path840" />
	<path
   style="fill:#ff4b55"
   d="m 166.283,150.07 88.374,-57.366 c -1.536,-2.599 -4.246,-4.427 -7.485,-4.427 h -1.909 l -95.194,61.793 z"
   id="path842" />
	<path
   style="fill:#ff4b55"
   d="M 89.474,194.208 1.269,251.462 c 1.519,2.663 4.273,4.537 7.559,4.537 h 1.665 l 95.195,-61.793 H 89.474 Z"
   id="path844" />
	<path
   style="fill:#ff4b55"
   d="M 255.859,247.866 173.193,194.208 H 156.98 l 93.873,60.934 c 2.813,-1.305 4.741,-4.04 5.006,-7.276 z"
   id="path846" />
</g>
<path
   style="fill:#f5f5f5"
   d="m 320.945,85.754 c -1.741,0 -3.153,1.411 -3.153,3.153 v 116.65 c 0,9.458 6.305,40.985 66.207,50.443 59.902,-9.458 66.207,-40.985 66.207,-50.443 V 88.907 c 0,-1.741 -1.411,-3.153 -3.153,-3.153 z"
   id="path850" />
<path
   style="fill:#73af00"
   d="m 383.999,256 c 50.004,-7.895 62.651,-31.16 65.469,-44.138 H 318.531 c 2.817,12.977 15.464,36.242 65.468,44.138 z"
   id="path852" />
<path
   style="fill:#82afff"
   d="m 424.984,151.961 c 0,0 3.153,-3.153 0,-9.458 l -40.985,-1.834 -40.985,1.834 c -3.153,6.305 0,9.458 0,9.458 -3.153,3.153 -3.153,6.305 -3.153,6.305 h 6.305 l 6.831,11.297 31.001,17.078 31.002,-17.077 6.831,-11.297 h 6.305 c 10e-4,-0.001 10e-4,-3.154 -3.152,-6.306 z"
   id="path854" />
<path
   style="fill:#f5f5f5"
   d="m 415.002,169.563 c 0,0 -1.971,-4.335 -7.225,-3.809 0,0 -2.89,-3.809 -7.751,-2.759 0,0 -5.649,-3.284 -8.932,2.759 0,0 -10.444,-1.062 -11.002,6.891 0,0 16.256,24.504 16.651,24.767 0.394,0.263 19.442,0.131 19.442,0.131 l 8.802,-9.711 -8.671,-12.489 z"
   id="path856" />
<path
   style="fill:#f0c850"
   d="m 384.394,177.313 c 0,0 -13.79,-22.528 -15.764,-24.434 -1.905,-1.839 -5.649,-3.546 -9.459,-0.394 0,0 -11.428,-0.919 -9.853,7.751 l 3.284,13.137 c 0,0 -2.89,9.064 -4.204,9.984 -1.313,0.919 -6.174,3.415 -6.174,3.415 l 2.759,10.903 36.781,-1.839 z"
   id="path858" />
<path
   style="fill:#965032"
   d="m 400.288,167.462 -0.043,0.019 -1.017,-2.401 c -0.082,-0.194 -0.238,-0.348 -0.434,-0.425 -0.196,-0.077 -0.413,-0.074 -0.609,0.012 l -6.842,3.017 -8.138,-13.322 c 0.361,-0.31 0.518,-0.817 0.348,-1.289 -0.22,-0.616 -0.897,-0.936 -1.512,-0.717 l -1.814,0.649 -1.227,-3.626 c -0.14,-0.413 -0.585,-0.628 -0.999,-0.495 -0.413,0.141 -0.634,0.588 -0.494,1.001 l 1.236,3.654 -1.939,0.694 c -0.615,0.222 -0.935,0.899 -0.714,1.512 0.172,0.483 0.628,0.786 1.113,0.786 0.068,0 0.138,-0.023 0.207,-0.035 l 2.682,16.153 -1.73,0.762 c -0.377,0.167 -0.564,0.597 -0.424,0.985 l 0.981,2.732 c 0.024,0.46 0.022,1.236 -0.135,2.218 l -11.006,-18.879 c 0.462,-0.289 0.693,-0.851 0.502,-1.383 -0.222,-0.616 -0.893,-0.939 -1.512,-0.717 l -1.814,0.649 -1.227,-3.626 c -0.139,-0.413 -0.587,-0.634 -0.999,-0.495 -0.413,0.141 -0.634,0.588 -0.494,1.001 l 1.236,3.654 -1.939,0.694 c -0.615,0.222 -0.935,0.899 -0.714,1.512 0.158,0.441 0.559,0.701 0.995,0.748 l 4.777,29.814 c -0.617,0.259 -1.222,0.522 -1.901,0.764 0,0 -2.233,10.641 -0.525,11.166 1.708,0.525 19.31,5.911 19.31,5.911 0,0 24.302,-11.56 24.828,-11.822 0.525,-0.263 1.577,-7.882 1.577,-7.882 z m -1.491,0.64 -2.035,0.874 -0.674,-1.663 1.999,-0.882 z m -12.3,3.44 1.673,-0.737 0.643,1.585 -1.771,0.761 z m -0.909,2.232 -1.978,0.85 -0.622,-1.534 2.062,-0.909 z m 4.672,-2.005 -0.649,-1.6 1.788,-0.788 0.655,1.618 z m 2.58,-3.024 1.806,-0.797 0.669,1.649 -1.814,0.779 z m -11.104,-13.766 8.152,13.346 -3.897,1.718 -5.005,-14.796 z m -2.814,1.007 0.578,-0.207 5.042,14.904 -2.963,1.306 z m 2.624,17.739 0.617,1.521 -1.945,0.835 -0.548,-1.528 z m -15.251,-12.676 11.938,20.479 c -0.601,1.737 -1.735,3.753 -3.723,5.732 l -8.797,-26.004 z m -2.947,1.055 0.882,-0.316 9.009,26.632 c -1.366,1.133 -3.065,2.228 -5.156,3.231 z"
   id="path860" />
<path
   style="fill:#ff4b55"
   d="m 427.842,137.724 c -0.837,-1.33 -3.524,-0.76 -3.524,-0.76 0,0 -0.767,-1.534 -2.794,-1.682 -2.027,-0.148 -2.399,1.657 -2.399,1.657 0,0 -0.38,-0.282 -2.613,-0.216 -2.233,0.066 -1.773,3.744 -1.773,3.744 0,0 -0.854,0 -3.744,-0.919 -2.89,-0.92 -4.794,-0.263 -4.794,-0.263 -0.131,-1.511 -0.919,-2.627 -0.919,-2.627 -2.43,0.985 -4.335,-0.131 -4.794,-0.985 -0.46,-0.854 0.723,-2.167 0.723,-3.284 0,-1.117 -1.544,-1.067 -2.086,-2.052 -0.542,-0.985 0,-1.527 1.429,-2.167 1.429,-0.64 2.759,-3.005 1.871,-4.926 -0.888,-1.921 -3.448,-1.577 -3.448,-1.577 0.887,0.148 1.625,1.823 0.198,2.167 -1.427,0.344 -2.709,-4.877 -2.709,-4.877 3.3,2.217 5.715,0.887 6.404,-1.035 0.69,-1.922 -1.133,-3.251 -1.133,-3.251 -1.429,2.315 -3.892,0.296 -2.561,-1.182 1.33,-1.478 1.444,-3.957 1.444,-3.957 -2.956,1.446 -4.794,-0.394 -4.794,-0.394 3.875,-2.692 2.759,-6.503 2.759,-6.503 -1.444,-0.657 -4.532,-0.131 -4.532,-0.131 0.657,-1.314 0.525,-3.679 0.525,-3.679 -1.642,-0.263 -3.481,0.788 -3.481,0.788 0.525,-1.838 -0.198,-5.057 -0.198,-5.057 -1.182,0.198 -3.415,0.854 -3.415,0.854 -0.919,-2.102 -3.481,-3.35 -3.481,-3.35 0,0 -2.561,1.248 -3.481,3.35 0,0 -2.233,-0.657 -3.415,-0.854 0,0 -0.723,3.219 -0.198,5.057 0,0 -1.839,-1.05 -3.481,-0.788 0,0 -0.131,2.365 0.525,3.679 0,0 -3.087,-0.525 -4.532,0.131 0,0 -1.117,3.809 2.759,6.503 0,0 -1.839,1.839 -4.794,0.394 0,0 0.115,2.479 1.444,3.957 1.33,1.478 -1.133,3.498 -2.561,1.182 0,0 -1.823,1.33 -1.133,3.251 0.69,1.921 3.104,3.251 6.404,1.035 0,0 -1.281,5.221 -2.709,4.877 -1.428,-0.344 -0.69,-2.019 0.198,-2.167 0,0 -2.561,-0.345 -3.448,1.577 -0.887,1.921 0.444,4.286 1.871,4.926 1.429,0.64 1.971,1.182 1.429,2.167 -0.542,0.985 -2.086,0.936 -2.086,2.052 0,1.116 1.182,2.43 0.723,3.284 -0.46,0.854 -2.365,1.971 -4.794,0.985 0,0 -0.788,1.117 -0.919,2.627 0,0 -1.905,-0.657 -4.794,0.263 -2.89,0.919 -3.744,0.919 -3.744,0.919 0,0 0.46,-3.678 -1.773,-3.744 -2.233,-0.066 -2.613,0.216 -2.613,0.216 0,0 -0.371,-1.805 -2.399,-1.657 -2.027,0.149 -2.794,1.682 -2.794,1.682 0,0 -2.687,-0.569 -3.524,0.76 -0.837,1.33 -0.936,3.35 0.64,4.188 1.577,0.838 5.763,4.335 5.763,4.335 l 5.911,2.561 20.69,-9.163 10.837,2.857 10.837,-2.857 20.69,9.163 5.911,-2.561 c 0,0 4.188,-3.498 5.763,-4.335 1.572,-0.838 1.474,-2.857 0.636,-4.188 z"
   id="path862" />
<path
   style="fill:#f5f5f5"
   d="m 377.546,104.336 c 0,0 0.223,2.782 4.34,2.04 -0.001,0 -0.111,-2.893 -4.34,-2.04 z"
   id="path864" />
<path
   style="fill:#ff4b55"
   d="m 362.313,214.227 c 0,0 -2.956,-0.098 -6.009,2.167 -3.054,2.266 -4.401,0.657 -7.455,0.657 -3.054,0 -3.777,3.186 -3.777,3.186 0,0 -5.911,1.478 -3.546,5.813 1.495,2.742 3.576,2.684 4.908,2.272 -0.067,1.842 0.352,3.866 2.481,4.231 4.04,0.69 5.813,-1.478 4.926,-4.828 0,0 0.492,3.448 3.153,3.35 2.66,-0.098 4.434,-1.577 4.138,-5.123 -0.296,-3.546 4.434,-1.379 8.078,-6.601 z"
   id="path866" />
<g
   id="g874"
   transform="translate(0,-88.276)">
	<path
   style="fill:#82afff"
   d="m 345.039,315.179 c 0,0 -1.839,2.43 -1.313,4.794 0,0 -3.94,-1.248 -1.839,-7.094 -10e-4,10e-4 2.693,-0.721 3.152,2.3 z"
   id="path868" />
	<path
   style="fill:#82afff"
   d="m 351.229,318.365 c 0,0 -1.084,3.054 0.394,5.763 0,0 -4.926,-0.148 -3.94,-6.207 0,0.001 1.576,-1.625 3.546,0.444 z"
   id="path870" />
	<path
   style="fill:#82afff"
   d="m 356.156,318.069 c 0,0 0.887,2.561 0,5.025 0,0 4.04,-0.246 3.35,-6.059 -10e-4,-0.001 -2.168,-0.789 -3.35,1.034 z"
   id="path872" />
</g>
<g
   id="g880"
   transform="translate(0,-88.276)">
	<path
   style="fill:#ff4b55"
   d="m 352.56,259.153 c -0.373,-3.038 -19.409,-4.828 -18.227,11.166 0,0 -2.112,-0.039 -3.15,1.928 -1.038,1.967 -3.264,1.484 -3.932,0.779 0,0 0.148,3.561 4.562,3.412 0,0 -1.397,1.1 -1.199,2.708 0.198,1.608 1.359,3.635 1.286,5.02 -0.073,1.385 -1.385,3.314 -1.385,3.314 0,0 3.388,-1.162 3.61,-3.585 0.222,-2.423 -0.321,-4.451 0.346,-5.687 0,0 -0.321,1.706 1.187,3.858 1.508,2.152 1.582,4.772 0.964,6.404 0,0 3.758,-1.855 3.041,-5.44 -0.717,-3.585 -1.484,-3.264 -1.138,-5.267 0,0 3.907,3.981 3.24,7.369 0,0 1.249,-1.496 1.138,-4.314 -0.111,-2.818 -2.068,-4.715 -2.068,-4.715 0,0 13.005,-6.507 11.725,-16.95 z"
   id="path876" />
	<path
   style="fill:#ff4b55"
   d="m 405.686,302.503 c 0,0 2.956,-0.098 6.009,2.167 3.054,2.266 4.401,0.657 7.455,0.657 3.054,0 3.777,3.186 3.777,3.186 0,0 5.911,1.478 3.546,5.813 -1.495,2.742 -3.576,2.684 -4.908,2.272 0.067,1.842 -0.352,3.866 -2.481,4.231 -4.04,0.69 -5.813,-1.478 -4.926,-4.828 0,0 -0.492,3.448 -3.153,3.35 -2.66,-0.098 -4.434,-1.577 -4.138,-5.123 0.296,-3.546 -4.434,-1.379 -8.078,-6.601 z"
   id="path878" />
</g>
<g
   id="g888"
   transform="translate(0,-88.276)">
	<path
   style="fill:#82afff"
   d="m 422.961,315.179 c 0,0 1.839,2.43 1.313,4.794 0,0 3.94,-1.248 1.839,-7.094 0,10e-4 -2.693,-0.721 -3.152,2.3 z"
   id="path882" />
	<path
   style="fill:#82afff"
   d="m 416.769,318.365 c 0,0 1.084,3.054 -0.394,5.763 0,0 4.926,-0.148 3.94,-6.207 0.002,0.001 -1.575,-1.625 -3.546,0.444 z"
   id="path884" />
	<path
   style="fill:#82afff"
   d="m 411.844,318.069 c 0,0 -0.887,2.561 0,5.025 0,0 -4.04,-0.246 -3.35,-6.059 -0.001,-0.001 2.168,-0.789 3.35,1.034 z"
   id="path886" />
</g>
<path
   style="fill:#ff4b55"
   d="m 415.44,170.877 c 0.373,-3.038 19.409,-4.828 18.227,11.166 0,0 2.112,-0.039 3.15,1.928 1.038,1.967 3.264,1.484 3.932,0.779 0,0 -0.148,3.561 -4.562,3.412 0,0 1.397,1.1 1.199,2.708 -0.198,1.608 -1.361,3.635 -1.286,5.02 0.074,1.385 1.385,3.314 1.385,3.314 0,0 -3.388,-1.162 -3.61,-3.585 -0.222,-2.423 0.321,-4.451 -0.346,-5.687 0,0 0.321,1.706 -1.187,3.858 -1.508,2.152 -1.582,4.772 -0.964,6.404 0,0 -3.758,-1.855 -3.041,-5.44 0.717,-3.585 1.484,-3.264 1.138,-5.267 0,0 -3.907,3.981 -3.24,7.369 0,0 -1.249,-1.496 -1.138,-4.314 0.111,-2.819 2.068,-4.715 2.068,-4.715 0,0 -13.006,-6.507 -11.725,-16.95 z"
   id="path890" />
<path
   style="fill:#ffe15a"
   d="m 423.227,143.618 c -0.724,-0.487 -1.703,-0.284 -2.185,0.447 -0.997,1.505 -2.311,2.386 -4.014,2.691 -5.641,0.979 -13.773,-4.575 -16.135,-6.312 -3.423,-2.516 -7.651,-2.953 -10.458,-1.224 -1.12,0.371 -4.544,1.45 -6.434,1.45 -1.89,0 -5.314,-1.08 -6.434,-1.45 -2.807,-1.729 -7.036,-1.292 -10.458,1.224 -2.361,1.737 -10.494,7.29 -16.135,6.312 -1.704,-0.305 -3.017,-1.185 -4.014,-2.691 -0.482,-0.729 -1.461,-0.932 -2.185,-0.447 -0.726,0.48 -0.925,1.46 -0.445,2.183 1.478,2.236 3.527,3.599 6.091,4.057 0.648,0.117 1.31,0.169 1.984,0.169 6.016,0 12.823,-4.292 16.568,-7.041 2.785,-2.045 5.907,-2.041 7.313,-0.856 0.355,0.301 0.759,0.776 0.662,1.333 -0.052,0.305 -0.253,0.579 -0.587,0.81 0.081,-0.483 -0.066,-0.998 -0.439,-1.373 -0.616,-0.616 -1.613,-0.616 -2.229,0 -0.802,0.798 -0.889,2.093 -0.214,3.147 0.679,1.056 2.142,1.828 3.88,1.185 0.883,-0.329 1.589,-0.958 2.078,-1.728 2.396,-0.697 4.565,-0.702 4.565,-0.702 0,0 2.169,0.004 4.565,0.702 0.489,0.77 1.195,1.399 2.078,1.728 1.738,0.643 3.2,-0.129 3.88,-1.185 0.675,-1.053 0.588,-2.349 -0.214,-3.147 -0.616,-0.616 -1.613,-0.616 -2.229,0 -0.373,0.375 -0.519,0.889 -0.439,1.373 -0.334,-0.231 -0.534,-0.505 -0.587,-0.81 -0.097,-0.557 0.307,-1.032 0.662,-1.333 1.406,-1.185 4.527,-1.188 7.313,0.856 3.745,2.75 10.552,7.041 16.568,7.041 0.674,0 1.336,-0.052 1.984,-0.169 2.564,-0.459 4.613,-1.823 6.091,-4.057 0.478,-0.725 0.28,-1.703 -0.447,-2.183 z"
   id="path892" />
<g
   id="g902"
   transform="translate(0,-88.276)">
	<path
   style="fill:#82afff"
   d="m 343.83,233.635 c 0,0 -0.259,-3.523 -0.371,-4.673 -0.112,-1.15 -2.262,-2.003 -3.079,-0.853 -0.816,1.148 -1.037,3.263 3.45,5.526 z"
   id="path894" />
	<path
   style="fill:#82afff"
   d="m 344.591,232.503 c 0,0 3.104,-2.513 2.709,-3.842 -0.394,-1.33 -1.231,-2.019 -2.266,-1.625 -1.036,0.393 -1.527,2.806 -0.443,5.467 z"
   id="path896" />
	<path
   style="fill:#82afff"
   d="m 350.65,230.532 c 0.446,-0.446 0.591,-2.611 -0.64,-2.857 -1.231,-0.246 -2.857,1.675 -2.759,4.04 0,0 2.561,-0.346 3.399,-1.183 z"
   id="path898" />
	<path
   style="fill:#82afff"
   d="m 349.369,231.763 c -1.429,0.457 -2.808,1.675 -2.808,1.675 0,0 2.561,1.871 4.335,1.281 1.774,-0.591 0.937,-3.743 -1.527,-2.956 z"
   id="path900" />
</g>
<path
   style="fill:#f5f5f5"
   d="m 390.453,104.336 c 0,0 -0.223,2.782 -4.34,2.04 0,0 0.112,-2.893 4.34,-2.04 z"
   id="path904" />
<g
   id="g914"
   transform="translate(0,-88.276)">
	<path
   style="fill:#82afff"
   d="m 424.169,233.635 c 0,0 0.259,-3.523 0.371,-4.673 0.111,-1.15 2.262,-2.003 3.079,-0.853 0.816,1.15 1.038,3.263 -3.45,5.526 z"
   id="path906" />
	<path
   style="fill:#82afff"
   d="m 423.409,232.503 c 0,0 -3.104,-2.513 -2.709,-3.842 0.394,-1.33 1.231,-2.019 2.266,-1.625 1.035,0.393 1.526,2.806 0.443,5.467 z"
   id="path908" />
	<path
   style="fill:#82afff"
   d="m 417.35,230.532 c -0.446,-0.446 -0.591,-2.611 0.64,-2.857 1.231,-0.246 2.857,1.675 2.759,4.04 -0.001,0 -2.562,-0.346 -3.399,-1.183 z"
   id="path910" />
	<path
   style="fill:#82afff"
   d="m 418.63,231.763 c 1.429,0.457 2.808,1.675 2.808,1.675 0,0 -2.561,1.871 -4.335,1.281 -1.774,-0.591 -0.936,-3.743 1.527,-2.956 z"
   id="path912" />
</g>
<g
   id="g922"
   transform="translate(0,-88.276)">
	<path
   style="fill:#464655"
   d="m 382.369,199.169 1.25,1.25 c 0.21,0.21 0.551,0.21 0.76,0 l 1.25,-1.25 c 0.339,-0.339 0.099,-0.918 -0.381,-0.918 h -2.5 c -0.478,0 -0.717,0.579 -0.379,0.918 z"
   id="path916" />
	<path
   style="fill:#464655"
   d="m 381.715,204.294 c -0.927,0 -1.729,-0.332 -2.274,-0.946 -0.564,-0.638 -0.803,-1.515 -0.661,-2.408 0.051,-0.299 0.351,-0.48 0.632,-0.456 0.301,0.05 0.505,0.332 0.457,0.634 -0.09,0.564 0.054,1.108 0.397,1.496 0.354,0.397 0.895,0.581 1.559,0.573 1.386,-0.055 1.618,-1.41 1.628,-1.465 l -0.007,-2.473 c 0,-0.305 0.246,-0.551 0.551,-0.551 0.305,0 0.551,0.246 0.551,0.551 v 2.559 c -0.134,0.884 -0.856,2.408 -2.68,2.482 -0.049,0.004 -0.102,0.004 -0.153,0.004 z"
   id="path918" />
	<path
   style="fill:#464655"
   d="m 386.284,204.294 c -0.051,0 -0.103,0 -0.156,-0.003 -1.824,-0.074 -2.546,-1.598 -2.674,-2.396 l -0.007,-2.645 c 0,-0.305 0.246,-0.551 0.551,-0.551 0.305,0 0.551,0.246 0.551,0.551 v 2.559 c 0.019,0.055 0.277,1.327 1.621,1.379 0.683,0.012 1.204,-0.169 1.559,-0.573 0.343,-0.388 0.488,-0.932 0.397,-1.496 -0.047,-0.301 0.156,-0.585 0.457,-0.634 0.288,-0.036 0.584,0.154 0.632,0.456 0.143,0.893 -0.097,1.77 -0.66,2.408 -0.543,0.613 -1.344,0.945 -2.271,0.945 z"
   id="path920" />
</g>
<g
   id="g928"
   transform="translate(0,-88.276)">
	<path
   style="fill:#f5f5f5"
   d="m 402.916,284.375 c 0,0 -3.94,-6.305 -8.538,-2.102 -4.598,4.204 -6.305,9.327 -11.56,8.932 -2.883,-0.216 -4.356,-1.533 -5.121,-2.684 1.396,-1.149 2.386,-2.894 1.312,-5.461 -2.365,-5.649 -11.034,-3.94 -13.399,2.233 0,0 2.759,-9.064 -6.831,-6.042 0,0 -1.182,-6.305 -6.699,-4.598 -3,0.929 -4.11,2.775 -4.522,4.279 -1.161,-0.27 -2.652,-0.262 -4.017,0.843 l 6.962,18.785 10.509,0.131 2.365,3.546 13.793,8.67 2.496,5.255 h 8.67 c 0,0 0.657,-5.386 5.255,-6.962 4.598,-1.577 12.085,-4.861 12.874,-7.751 0.788,-2.89 0.788,-2.89 0.788,-2.89 l 8.407,0.131 c 0.919,-0.657 7.094,-10.772 7.094,-10.772 l 2.866,-13.027 c -1.583,-0.226 -19.689,-2.576 -22.704,9.484 z"
   id="path924" />
	<path
   style="fill:#f5f5f5"
   d="m 425.641,274.785 -0.024,0.109 c 0.073,0.01 0.156,0.023 0.156,0.023 z"
   id="path926" />
</g>
<g
   id="g934"
   transform="translate(0,-88.276)">
	<path
   style="fill:#ffe15a"
   d="m 368.424,304.516 c -3.406,-1.373 -4.622,-3.297 -5.043,-4.322 -0.391,-0.948 -0.314,-1.62 -0.207,-1.866 0.217,-0.502 0.48,-0.822 0.725,-0.884 0.231,-0.055 0.523,0.077 0.576,0.11 0.11,0.126 0.169,0.526 0.063,0.625 -0.634,0.597 -0.663,1.594 -0.067,2.229 0.599,0.634 1.593,0.662 2.229,0.067 0.648,-0.609 1.02,-1.462 1.045,-2.401 0.03,-1.006 -0.339,-2.01 -0.982,-2.688 -0.646,-0.683 -1.971,-1.305 -3.383,-1.053 -0.291,0.051 -0.619,0.17 -0.954,0.332 0.221,-2.184 -0.621,-3.302 -1.239,-3.753 -1.039,-0.755 -2.518,-0.772 -3.763,-0.043 -1.273,0.748 -1.961,2.057 -1.793,3.411 0.108,0.865 0.975,1.383 1.821,1.266 0.864,-0.105 1.543,-0.997 1.437,-1.859 0.179,-0.163 0.414,-0.218 0.406,-0.256 0.003,0.003 0.211,0.348 -0.04,1.46 -0.393,1.742 -1.314,2.814 -2.74,3.19 -1.775,0.49 -4.049,-0.258 -5.393,-1.734 -1.869,-2.057 -5.781,-12.971 -8.107,-20.241 9.971,-4.729 11.196,-12.586 11.007,-16.964 -0.288,-6.669 -4.278,-13.492 -8.715,-14.899 -1.746,-0.551 -4.361,-0.665 -6.259,0.314 -1.075,0.561 -1.821,1.419 -2.157,2.487 -0.685,2.179 0.686,3.981 2.326,4.569 1.698,0.609 3.412,-0.124 4.071,-1.746 0.327,-0.807 -0.03,-1.73 -0.836,-2.057 -0.811,-0.335 -1.694,0.058 -2.019,0.862 -0.066,0.036 -0.285,-0.046 -0.448,-0.231 -0.118,-0.136 -0.143,-0.268 -0.085,-0.449 0.052,-0.167 0.171,-0.413 0.605,-0.638 1.03,-0.538 2.752,-0.456 3.852,-0.108 2.539,0.803 6.246,5.77 6.516,12.029 0.161,3.741 -0.974,10.598 -10.388,14.505 -0.755,0.314 -1.144,1.149 -0.9,1.928 0.615,1.967 6.098,19.341 9.204,22.755 1.671,1.838 4.196,2.906 6.611,2.906 0.654,0 1.301,-0.077 1.92,-0.241 1.053,-0.279 1.932,-0.822 2.697,-1.504 0.076,0.578 0.21,1.17 0.454,1.762 0.609,1.484 2.3,4.243 7.02,6.145 9.547,3.83 10.454,6.391 10.402,7.318 -0.029,0.508 -0.32,0.772 -0.557,0.905 -0.103,0.058 -0.205,0.095 -0.292,0.117 0.352,-0.483 0.416,-1.145 0.105,-1.703 -0.425,-0.76 -1.383,-1.032 -2.144,-0.607 -1.073,0.6 -1.821,2.014 -1.18,3.559 0.5,1.201 1.671,1.928 3.023,1.928 0.217,0 0.439,-0.019 0.663,-0.059 1.963,-0.332 3.413,-1.961 3.529,-3.959 0.27,-4.777 -6.937,-8.236 -12.616,-10.514 z"
   id="path930" />
	<path
   style="fill:#ffe15a"
   d="m 399.575,304.516 c 3.406,-1.373 4.622,-3.297 5.043,-4.322 0.391,-0.948 0.314,-1.62 0.207,-1.866 -0.217,-0.502 -0.48,-0.822 -0.725,-0.884 -0.231,-0.055 -0.523,0.077 -0.576,0.11 -0.11,0.126 -0.169,0.526 -0.063,0.625 0.635,0.597 0.663,1.594 0.067,2.229 -0.599,0.634 -1.593,0.662 -2.229,0.067 -0.648,-0.609 -1.02,-1.462 -1.045,-2.401 -0.029,-1.006 0.339,-2.01 0.982,-2.688 0.646,-0.683 1.971,-1.305 3.383,-1.053 0.291,0.051 0.619,0.17 0.954,0.332 -0.221,-2.184 0.621,-3.302 1.239,-3.753 1.039,-0.755 2.518,-0.772 3.763,-0.043 1.273,0.748 1.961,2.057 1.793,3.411 -0.108,0.865 -0.975,1.383 -1.821,1.266 -0.864,-0.105 -1.543,-0.997 -1.437,-1.859 -0.179,-0.163 -0.414,-0.218 -0.406,-0.256 -0.003,0.003 -0.211,0.348 0.04,1.46 0.393,1.742 1.314,2.814 2.74,3.19 1.775,0.49 4.049,-0.258 5.393,-1.734 1.869,-2.057 5.781,-12.971 8.107,-20.241 -9.971,-4.729 -11.196,-12.586 -11.007,-16.964 0.288,-6.669 4.278,-13.492 8.715,-14.899 1.746,-0.551 4.361,-0.665 6.259,0.314 1.075,0.561 1.821,1.419 2.157,2.487 0.685,2.179 -0.686,3.981 -2.326,4.569 -1.698,0.609 -3.412,-0.124 -4.071,-1.746 -0.327,-0.807 0.03,-1.73 0.836,-2.057 0.811,-0.335 1.694,0.058 2.019,0.862 0.066,0.036 0.285,-0.046 0.448,-0.231 0.118,-0.136 0.143,-0.268 0.085,-0.449 -0.052,-0.167 -0.171,-0.413 -0.605,-0.638 -1.03,-0.538 -2.752,-0.456 -3.852,-0.108 -2.539,0.803 -6.246,5.77 -6.516,12.029 -0.161,3.741 0.974,10.598 10.388,14.505 0.755,0.314 1.144,1.149 0.9,1.928 -0.615,1.967 -6.098,19.341 -9.204,22.755 -1.671,1.838 -4.196,2.906 -6.611,2.906 -0.654,0 -1.301,-0.077 -1.92,-0.241 -1.053,-0.279 -1.932,-0.822 -2.697,-1.504 -0.076,0.578 -0.21,1.17 -0.454,1.762 -0.609,1.484 -2.3,4.243 -7.02,6.145 -9.547,3.83 -10.454,6.391 -10.402,7.318 0.03,0.508 0.32,0.772 0.557,0.905 0.103,0.058 0.205,0.095 0.292,0.117 -0.352,-0.483 -0.416,-1.145 -0.105,-1.703 0.425,-0.76 1.383,-1.032 2.144,-0.607 1.073,0.6 1.821,2.014 1.18,3.559 -0.5,1.201 -1.671,1.928 -3.023,1.928 -0.217,0 -0.439,-0.019 -0.663,-0.059 -1.963,-0.332 -3.413,-1.961 -3.529,-3.959 -0.271,-4.777 6.937,-8.236 12.616,-10.514 z"
   id="path932" />
</g>
<g
   id="g936">
</g>
<g
   id="g938">
</g>
<g
   id="g940">
</g>
<g
   id="g942">
</g>
<g
   id="g944">
</g>
<g
   id="g946">
</g>
<g
   id="g948">
</g>
<g
   id="g950">
</g>
<g
   id="g952">
</g>
<g
   id="g954">
</g>
<g
   id="g956">
</g>
<g
   id="g958">
</g>
<g
   id="g960">
</g>
<g
   id="g962">
</g>
<g
   id="g964">
</g>
</svg>
