<?xml version="1.0" encoding="UTF-8" standalone="no"?>
<svg
   xmlns:dc="http://purl.org/dc/elements/1.1/"
   xmlns:cc="http://creativecommons.org/ns#"
   xmlns:rdf="http://www.w3.org/1999/02/22-rdf-syntax-ns#"
   xmlns:svg="http://www.w3.org/2000/svg"
   xmlns="http://www.w3.org/2000/svg"
   xmlns:sodipodi="http://sodipodi.sourceforge.net/DTD/sodipodi-0.dtd"
   xmlns:inkscape="http://www.inkscape.org/namespaces/inkscape"
   version="1.1"
   id="Layer_1"
   x="0px"
   y="0px"
   viewBox="0 0 512 335.45001"
   xml:space="preserve"
   sodipodi:docname="british-indian-ocean-territory.svg"
   width="512"
   height="335.45001"
   inkscape:version="1.0.1 (c497b03c, 2020-09-10)"><metadata
   id="metadata1574"><rdf:RDF><cc:Work
       rdf:about=""><dc:format>image/svg+xml</dc:format><dc:type
         rdf:resource="http://purl.org/dc/dcmitype/StillImage" /><dc:title></dc:title></cc:Work></rdf:RDF></metadata><defs
   id="defs1572" /><sodipodi:namedview
   pagecolor="#ffffff"
   bordercolor="#666666"
   borderopacity="1"
   objecttolerance="10"
   gridtolerance="10"
   guidetolerance="10"
   inkscape:pageopacity="0"
   inkscape:pageshadow="2"
   inkscape:window-width="1797"
   inkscape:window-height="983"
   id="namedview1570"
   showgrid="false"
   inkscape:zoom="1.640625"
   inkscape:cx="256"
   inkscape:cy="256"
   inkscape:window-x="0"
   inkscape:window-y="23"
   inkscape:window-maximized="0"
   inkscape:current-layer="Layer_1" />
<path
   style="fill:#f5f5f5"
   d="m 38.345,335.448 h 435.309 c 21.177,0 38.345,-17.167 38.345,-38.345 V 38.345 C 511.999,17.169 494.832,0 473.654,0 H 38.345 C 17.167,0 0,17.169 0,38.345 v 258.758 c 0,21.177 17.167,38.345 38.345,38.345 z"
   id="path1501" />
<g
   id="g1517"
   transform="translate(0,-88.276)">
	<path
   style="fill:#41479b"
   d="m 512,353.103 c -25.629,0 -25.629,-8.828 -51.256,-8.828 -25.629,0 -25.629,8.828 -51.256,8.828 -25.611,0 -25.611,-8.828 -51.221,-8.828 -25.589,0 -25.589,8.828 -51.177,8.828 -25.602,0 -25.602,-8.828 -51.204,-8.828 -25.596,0 -25.596,8.828 -51.191,8.828 -25.595,0 -25.596,-8.828 -51.19,-8.828 -25.594,0 -25.596,8.828 -51.191,8.828 -25.585,0 -25.585,-8.828 -51.168,-8.828 -25.571,0 -25.571,8.828 -51.143,8.828 V 326.62 c 25.571,0 25.571,-8.828 51.143,-8.828 25.584,0 25.584,8.828 51.168,8.828 25.596,0 25.596,-8.828 51.191,-8.828 25.595,0 25.596,8.828 51.19,8.828 25.596,0 25.596,-8.828 51.191,-8.828 25.602,0 25.602,8.828 51.204,8.828 25.589,0 25.589,-8.828 51.177,-8.828 25.611,0 25.611,8.828 51.221,8.828 25.629,0 25.629,-8.828 51.256,-8.828 25.629,0 25.629,8.828 51.256,8.828 z"
   id="path1503" />
	<path
   style="fill:#41479b"
   d="m 512,247.172 c -25.629,0 -25.629,-8.828 -51.256,-8.828 -25.629,0 -25.629,8.828 -51.256,8.828 -25.611,0 -25.611,-8.828 -51.221,-8.828 -25.589,0 -25.589,8.828 -51.177,8.828 -25.602,0 -25.602,-8.828 -51.204,-8.828 -25.596,0 -25.596,8.828 -51.191,8.828 -25.595,0 -25.596,-8.828 -51.19,-8.828 -25.594,0 -25.596,8.828 -51.191,8.828 -25.585,0 -25.585,-8.828 -51.168,-8.828 -25.571,0 -25.571,8.828 -51.143,8.828 V 220.69 c 25.571,0 25.571,-8.828 51.143,-8.828 25.584,0 25.584,8.828 51.168,8.828 25.596,0 25.596,-8.828 51.191,-8.828 25.595,0 25.596,8.828 51.19,8.828 25.596,0 25.596,-8.828 51.191,-8.828 25.602,0 25.602,8.828 51.204,8.828 25.589,0 25.589,-8.828 51.177,-8.828 25.611,0 25.611,8.828 51.221,8.828 25.629,0 25.629,-8.828 51.256,-8.828 25.629,0 25.629,8.828 51.256,8.828 z"
   id="path1505" />
	<path
   style="fill:#41479b"
   d="m 512,194.207 c -25.629,0 -25.629,-8.828 -51.256,-8.828 -25.629,0 -25.629,8.828 -51.256,8.828 -25.611,0 -25.611,-8.828 -51.221,-8.828 -25.589,0 -25.589,8.828 -51.177,8.828 -25.602,0 -25.602,-8.828 -51.204,-8.828 -25.596,0 -25.596,8.828 -51.191,8.828 -25.595,0 -25.596,-8.828 -51.19,-8.828 -25.594,0 -25.596,8.828 -51.191,8.828 -25.585,0 -25.585,-8.828 -51.168,-8.828 -25.571,0 -25.571,8.828 -51.143,8.828 v -26.483 c 25.571,0 25.571,-8.828 51.143,-8.828 25.584,0 25.584,8.828 51.168,8.828 25.596,0 25.596,-8.828 51.191,-8.828 25.595,0 25.596,8.828 51.19,8.828 25.596,0 25.596,-8.828 51.191,-8.828 25.602,0 25.602,8.828 51.204,8.828 25.589,0 25.589,-8.828 51.177,-8.828 25.611,0 25.611,8.828 51.221,8.828 25.629,0 25.629,-8.828 51.256,-8.828 25.629,0 25.629,8.828 51.256,8.828 z"
   id="path1507" />
	<path
   style="fill:#41479b"
   d="m 512,141.242 c -25.629,0 -25.629,-8.828 -51.256,-8.828 -25.629,0 -25.629,8.828 -51.256,8.828 -25.611,0 -25.611,-8.828 -51.221,-8.828 -25.589,0 -25.589,8.828 -51.177,8.828 -25.602,0 -25.602,-8.828 -51.204,-8.828 -25.596,0 -25.596,8.828 -51.191,8.828 -25.595,0 -25.596,-8.828 -51.19,-8.828 -25.594,0 -25.596,8.828 -51.191,8.828 -25.585,0 -25.585,-8.828 -51.168,-8.828 -25.571,0 -25.571,8.828 -51.143,8.828 v -26.483 c 25.571,0 25.571,-8.828 51.143,-8.828 25.584,0 25.584,8.828 51.168,8.828 25.596,0 25.596,-8.828 51.191,-8.828 25.595,0 25.596,8.828 51.19,8.828 25.596,0 25.596,-8.828 51.191,-8.828 25.602,0 25.602,8.828 51.204,8.828 25.589,0 25.589,-8.828 51.177,-8.828 25.611,0 25.611,8.828 51.221,8.828 25.629,0 25.629,-8.828 51.256,-8.828 25.629,0 25.629,8.828 51.256,8.828 z"
   id="path1509" />
	<path
   style="fill:#41479b"
   d="m 512,300.138 c -25.629,0 -25.629,-8.828 -51.256,-8.828 -25.629,0 -25.629,8.828 -51.256,8.828 -25.611,0 -25.611,-8.828 -51.221,-8.828 -25.589,0 -25.589,8.828 -51.177,8.828 -25.602,0 -25.602,-8.828 -51.204,-8.828 -25.596,0 -25.596,8.828 -51.191,8.828 -25.595,0 -25.596,-8.828 -51.19,-8.828 -25.594,0 -25.596,8.828 -51.191,8.828 -25.585,0 -25.585,-8.828 -51.168,-8.828 -25.571,0 -25.571,8.828 -51.143,8.828 v -26.483 c 25.571,0 25.571,-8.828 51.143,-8.828 25.584,0 25.584,8.828 51.168,8.828 25.596,0 25.596,-8.828 51.191,-8.828 25.595,0 25.596,8.828 51.19,8.828 25.596,0 25.596,-8.828 51.191,-8.828 25.602,0 25.602,8.828 51.204,8.828 25.589,0 25.589,-8.828 51.177,-8.828 25.611,0 25.611,8.828 51.221,8.828 25.629,0 25.629,-8.828 51.256,-8.828 25.629,0 25.629,8.828 51.256,8.828 z"
   id="path1511" />
	<path
   style="fill:#41479b"
   d="m 512,406.069 c -25.629,0 -25.629,-8.828 -51.256,-8.828 -25.629,0 -25.629,8.828 -51.256,8.828 -25.611,0 -25.611,-8.828 -51.221,-8.828 -25.589,0 -25.589,8.828 -51.177,8.828 -25.602,0 -25.602,-8.828 -51.204,-8.828 -25.596,0 -25.596,8.828 -51.191,8.828 -25.595,0 -25.596,-8.828 -51.19,-8.828 -25.594,0 -25.596,8.828 -51.191,8.828 -25.585,0 -25.585,-8.828 -51.168,-8.828 -25.571,0 -25.571,8.828 -51.143,8.828 v -26.483 c 25.571,0 25.571,-8.828 51.143,-8.828 25.584,0 25.584,8.828 51.168,8.828 25.596,0 25.596,-8.828 51.191,-8.828 25.595,0 25.596,8.828 51.19,8.828 25.596,0 25.596,-8.828 51.191,-8.828 25.602,0 25.602,8.828 51.204,8.828 25.589,0 25.589,-8.828 51.177,-8.828 25.611,0 25.611,8.828 51.221,8.828 25.629,0 25.629,-8.828 51.256,-8.828 25.629,0 25.629,8.828 51.256,8.828 z"
   id="path1513" />
	<path
   style="fill:#41479b"
   d="m 8.828,256 h 238.344 c 4.875,0 8.828,-3.953 8.828,-8.828 V 97.104 c 0,-4.874 -3.95,-8.825 -8.823,-8.828 H 38.345 C 17.167,88.276 0,105.445 0,126.621 V 247.172 C 0,252.049 3.953,256 8.828,256 Z"
   id="path1515" />
</g>
<path
   style="fill:#f5f5f5"
   d="m 8.828,167.724 h 15.333 l 81.77,-53.573 v 53.573 h 44.138 v -53.573 l 81.769,53.573 h 15.333 c 4.875,0 8.828,-3.953 8.828,-8.828 v -7.002 l -70.154,-45.963 h 70.154 V 61.793 H 185.844 L 255.999,15.83 V 8.828 c 0,-4.874 -3.95,-8.825 -8.823,-8.828 h -15.338 l -81.77,53.573 V 0 H 105.93 V 53.573 L 26.844,1.758 C 17.61,4.658 9.89,10.961 5.131,19.192 L 70.155,61.793 H 0 v 44.138 H 70.155 L 0,151.894 v 7.002 c 0,4.875 3.953,8.828 8.828,8.828 z"
   id="path1519" />
<g
   id="g1531"
   transform="translate(0,-88.276)">
	<polygon
   style="fill:#ff4b55"
   points="141.241,88.276 114.758,88.276 114.758,158.897 0,158.897 0,185.379 114.758,185.379 114.758,256 141.241,256 141.241,185.379 255.999,185.379 255.999,158.897 141.241,158.897 "
   id="polygon1521" />
	<path
   style="fill:#ff4b55"
   d="m 8.227,102.902 72.662,47.167 H 97.103 L 14.607,96.519 c -2.369,1.87 -4.51,4.013 -6.38,6.383 z"
   id="path1523" />
	<path
   style="fill:#ff4b55"
   d="m 166.283,150.069 88.374,-57.366 c -1.536,-2.599 -4.246,-4.427 -7.485,-4.427 h -1.909 l -95.194,61.793 z"
   id="path1525" />
	<path
   style="fill:#ff4b55"
   d="M 89.474,194.207 1.269,251.463 C 2.79,254.125 5.542,256 8.828,256 h 1.665 l 95.195,-61.793 z"
   id="path1527" />
	<path
   style="fill:#ff4b55"
   d="M 255.859,247.867 173.193,194.208 H 156.98 l 93.873,60.934 c 2.813,-1.305 4.741,-4.04 5.006,-7.275 z"
   id="path1529" />
</g>
<path
   style="fill:#965032"
   d="m 388.413,299.111 v 0 c -3.375,0 -6.111,-2.737 -6.111,-6.111 V 97.448 h 12.222 v 195.553 c 10e-4,3.375 -2.736,6.11 -6.111,6.11 z"
   id="path1533" />
<polygon
   style="fill:#73af00"
   points="416.746,198.432 444.588,162.635 448.909,149.671 435.946,153.993 400.149,181.834 394.525,136.836 388.413,124.613 382.302,136.836 376.678,181.834 340.881,153.993 327.918,149.671 332.239,162.635 360.081,198.432 315.081,204.056 302.859,210.167 315.081,216.278 360.081,221.904 332.239,257.699 327.918,270.664 340.881,266.343 379.771,236.095 388.413,222.39 397.055,236.095 435.946,266.343 448.909,270.664 444.588,257.699 416.746,221.904 461.746,216.278 473.968,210.167 461.746,204.056 "
   id="polygon1535"
   transform="translate(0,-88.276)" />
<path
   style="fill:#ffe15a"
   d="m 415.018,193.064 c -5.492,-5.482 -17.252,-3.467 -23.549,-1.877 v -5.129 c 0,-1.687 -1.368,-3.055 -3.055,-3.055 -1.687,0 -3.055,1.368 -3.055,3.055 v 5.128 c -6.296,-1.594 -18.055,-3.609 -23.549,1.878 -5.238,5.235 -1.443,17.858 2.161,26.634 v 8.126 c 0,2.247 1.821,4.066 4.066,4.066 h 40.756 c 2.246,0 4.066,-1.821 4.066,-4.066 v -8.126 c 3.602,-8.776 7.397,-21.399 2.159,-26.634 z m -4.321,4.321 c 2.333,2.335 -0.28,12.567 -4.49,22.284 h -14.739 v -22.17 c 6.861,-1.943 16.259,-3.091 19.229,-0.114 z m -44.567,0 c 2.968,-2.976 12.366,-1.828 19.229,0.114 v 22.169 H 370.62 c -4.21,-9.716 -6.823,-19.948 -4.49,-22.283 z"
   id="path1537" />
<g
   id="g1539">
</g>
<g
   id="g1541">
</g>
<g
   id="g1543">
</g>
<g
   id="g1545">
</g>
<g
   id="g1547">
</g>
<g
   id="g1549">
</g>
<g
   id="g1551">
</g>
<g
   id="g1553">
</g>
<g
   id="g1555">
</g>
<g
   id="g1557">
</g>
<g
   id="g1559">
</g>
<g
   id="g1561">
</g>
<g
   id="g1563">
</g>
<g
   id="g1565">
</g>
<g
   id="g1567">
</g>
</svg>
