<?xml version="1.0" encoding="UTF-8" standalone="no"?>
<svg
   xmlns:dc="http://purl.org/dc/elements/1.1/"
   xmlns:cc="http://creativecommons.org/ns#"
   xmlns:rdf="http://www.w3.org/1999/02/22-rdf-syntax-ns#"
   xmlns:svg="http://www.w3.org/2000/svg"
   xmlns="http://www.w3.org/2000/svg"
   xmlns:sodipodi="http://sodipodi.sourceforge.net/DTD/sodipodi-0.dtd"
   xmlns:inkscape="http://www.inkscape.org/namespaces/inkscape"
   version="1.1"
   id="Layer_1"
   x="0px"
   y="0px"
   viewBox="0 0 512 335.45001"
   xml:space="preserve"
   sodipodi:docname="abkhazia-svgrepo-com.svg"
   width="512"
   height="335.45001"
   inkscape:version="1.0.1 (c497b03c, 2020-09-10)"><metadata
   id="metadata81"><rdf:RDF><cc:Work
       rdf:about=""><dc:format>image/svg+xml</dc:format><dc:type
         rdf:resource="http://purl.org/dc/dcmitype/StillImage" /><dc:title></dc:title></cc:Work></rdf:RDF></metadata><defs
   id="defs79" /><sodipodi:namedview
   pagecolor="#ffffff"
   bordercolor="#666666"
   borderopacity="1"
   objecttolerance="10"
   gridtolerance="10"
   guidetolerance="10"
   inkscape:pageopacity="0"
   inkscape:pageshadow="2"
   inkscape:window-width="1797"
   inkscape:window-height="983"
   id="namedview77"
   showgrid="false"
   inkscape:zoom="1.640625"
   inkscape:cx="256"
   inkscape:cy="256"
   inkscape:window-x="0"
   inkscape:window-y="23"
   inkscape:window-maximized="0"
   inkscape:current-layer="Layer_1" />
<rect
   y="47.878994"
   style="fill:#f5f5f5"
   width="512"
   height="47.923"
   id="rect10"
   x="0" />
<rect
   y="95.788994"
   style="fill:#73af00"
   width="512"
   height="47.923"
   id="rect12"
   x="0" />
<rect
   y="143.709"
   style="fill:#f5f5f5"
   width="512"
   height="47.923"
   id="rect14"
   x="0" />
<rect
   y="191.629"
   style="fill:#73af00"
   width="512"
   height="47.923"
   id="rect16"
   x="0" />
<rect
   y="239.55899"
   style="fill:#f5f5f5"
   width="512"
   height="47.923"
   id="rect18"
   x="0" />
<g
   id="g24"
   transform="translate(0,-88.301)">
	<path
   style="fill:#73af00"
   d="M 473.655,88.301 H 38.346 c -21.177,0 -38.345,17.167 -38.345,38.345 v 9.525 h 511.998 v -9.562 c -0.02,-21.16 -17.179,-38.308 -38.344,-38.308 z"
   id="path20" />
	<path
   style="fill:#73af00"
   d="M 512,375.777 H 0.001 v 9.628 c 0,20.513 16.108,37.263 36.364,38.294 h 439.27 c 20.245,-1.03 36.344,-17.761 36.363,-38.256 v -9.665 z"
   id="path22" />
</g>
<path
   style="fill:#ff4b55"
   d="m 0.001,38.345 v 96.57 c 0.017,4.861 3.961,8.797 8.826,8.797 h 238.344 c 4.875,0 8.828,-3.953 8.828,-8.828 V 8.777 c 0,-4.558 -3.456,-8.309 -7.891,-8.777 H 38.346 C 17.169,0 0.001,17.167 0.001,38.345 Z"
   id="path26" />
<g
   id="g44"
   transform="translate(0,-88.301)">
	<path
   style="fill:#f5f5f5"
   d="m 135.749,220.664 h -14.233 c -1.294,0 -2.453,-0.805 -2.902,-2.02 l -4.583,-12.372 c -1.789,-4.83 -2.592,-9.97 -2.362,-15.115 l 1.596,-35.735 c 0.041,-0.907 0.623,-1.7 1.476,-2.01 v 0 c 1.464,-0.533 3.014,0.552 3.014,2.111 v 16.273 c 0,0.455 0.369,0.824 0.824,0.824 v 0 c 0.439,0 0.801,-0.344 0.823,-0.783 l 1.279,-25.948 c 0.052,-1.054 0.844,-1.922 1.888,-2.071 v 0 c 1.294,-0.185 2.464,0.792 2.513,2.1 l 0.883,24.191 c 0.018,0.486 0.448,0.852 0.93,0.791 v 0 c 0.408,-0.051 0.717,-0.394 0.725,-0.806 l 0.531,-26.881 c 0.029,-1.468 1.473,-2.487 2.866,-2.023 v 0 c 0.853,0.285 1.443,1.063 1.486,1.961 l 1.312,27.17 c 0.014,0.302 0.191,0.573 0.461,0.708 v 0 c 0.546,0.274 1.192,-0.111 1.21,-0.723 l 0.658,-21.052 c 0.05,-1.59 1.715,-2.605 3.151,-1.921 v 0 c 0.725,0.345 1.205,1.058 1.252,1.86 l 1.532,25.838 4.099,11.957 c 0.231,0.671 1.174,0.684 1.418,0.018 1.161,-3.169 3.796,-9.087 8.024,-11.693 0.749,-0.461 1.709,-0.402 2.413,0.126 v 0 c 1.035,0.777 1.156,2.274 0.271,3.217 -2.061,2.194 -5.066,6.805 -4.849,14.912 0.028,1.032 -0.271,2.046 -0.881,2.879 l -11.55,15.778 c -1.156,1.58 -1.898,3.425 -2.157,5.366 l -0.052,0.387 c -0.202,1.538 -1.514,2.686 -3.066,2.686 z"
   id="path28" />
	<path
   style="fill:#f5f5f5"
   d="m 128.671,100.34 2.319,6.954 7.33,0.056 c 0.568,0.004 0.803,0.729 0.346,1.067 l -5.897,4.354 2.211,6.989 c 0.171,0.542 -0.445,0.99 -0.907,0.659 l -5.964,-4.263 -5.964,4.263 c -0.462,0.33 -1.078,-0.118 -0.907,-0.659 l 2.211,-6.989 -5.897,-4.354 c -0.457,-0.338 -0.222,-1.063 0.346,-1.067 l 7.33,-0.056 2.319,-6.954 c 0.181,-0.54 0.944,-0.54 1.124,0 z"
   id="path30" />
	<path
   style="fill:#f5f5f5"
   d="m 94.188,110.345 2.319,6.954 7.33,0.056 c 0.568,0.004 0.803,0.729 0.346,1.067 l -5.897,4.354 2.211,6.989 c 0.171,0.542 -0.445,0.99 -0.907,0.659 l -5.964,-4.263 -5.964,4.263 c -0.462,0.33 -1.078,-0.118 -0.907,-0.659 l 2.211,-6.989 -5.897,-4.354 c -0.457,-0.338 -0.222,-1.063 0.346,-1.067 l 7.33,-0.056 2.319,-6.954 c 0.183,-0.539 0.944,-0.539 1.124,0 z"
   id="path32" />
	<path
   style="fill:#f5f5f5"
   d="m 163.992,110.345 2.319,6.954 7.33,0.056 c 0.568,0.004 0.803,0.729 0.346,1.067 l -5.897,4.354 2.211,6.989 c 0.171,0.542 -0.445,0.99 -0.907,0.659 l -5.964,-4.263 -5.964,4.263 c -0.462,0.33 -1.078,-0.118 -0.907,-0.659 l 2.211,-6.989 -5.897,-4.354 c -0.457,-0.338 -0.222,-1.063 0.346,-1.067 l 7.33,-0.056 2.319,-6.954 c 0.183,-0.539 0.944,-0.539 1.124,0 z"
   id="path34" />
	<path
   style="fill:#f5f5f5"
   d="m 187.118,136.64 2.319,6.954 7.33,0.056 c 0.568,0.004 0.803,0.729 0.346,1.067 l -5.897,4.354 2.211,6.989 c 0.171,0.542 -0.445,0.99 -0.907,0.659 l -5.964,-4.263 -5.964,4.263 c -0.462,0.33 -1.078,-0.118 -0.907,-0.659 l 2.211,-6.989 -5.897,-4.354 c -0.457,-0.338 -0.222,-1.063 0.346,-1.067 l 7.33,-0.056 2.319,-6.954 c 0.183,-0.539 0.944,-0.539 1.124,0 z"
   id="path36" />
	<path
   style="fill:#f5f5f5"
   d="m 69.139,136.64 2.319,6.954 7.33,0.056 c 0.568,0.004 0.803,0.729 0.346,1.067 l -5.897,4.354 2.211,6.989 c 0.171,0.542 -0.445,0.99 -0.907,0.659 l -5.964,-4.263 -5.964,4.263 c -0.462,0.33 -1.078,-0.118 -0.907,-0.659 l 2.211,-6.989 -5.897,-4.354 c -0.457,-0.338 -0.222,-1.063 0.346,-1.067 l 7.33,-0.056 2.319,-6.954 c 0.181,-0.539 0.944,-0.539 1.124,0 z"
   id="path38" />
	<path
   style="fill:#f5f5f5"
   d="m 193.77,171.131 2.319,6.954 7.33,0.056 c 0.568,0.004 0.803,0.729 0.346,1.067 l -5.897,4.354 2.211,6.989 c 0.171,0.542 -0.445,0.99 -0.907,0.659 l -5.964,-4.263 -5.964,4.263 c -0.462,0.33 -1.078,-0.118 -0.907,-0.659 l 2.211,-6.989 -5.897,-4.354 c -0.457,-0.338 -0.222,-1.063 0.346,-1.067 l 7.33,-0.056 2.319,-6.954 c 0.181,-0.539 0.944,-0.539 1.124,0 z"
   id="path40" />
	<path
   style="fill:#f5f5f5"
   d="m 60.152,171.131 2.319,6.954 7.33,0.056 c 0.568,0.004 0.803,0.729 0.346,1.067 l -5.897,4.354 2.211,6.989 c 0.171,0.542 -0.445,0.99 -0.907,0.659 l -5.964,-4.263 -5.964,4.263 c -0.462,0.33 -1.078,-0.118 -0.907,-0.659 l 2.211,-6.989 -5.897,-4.354 c -0.457,-0.338 -0.222,-1.063 0.346,-1.067 l 7.33,-0.056 2.319,-6.954 c 0.182,-0.539 0.944,-0.539 1.124,0 z"
   id="path42" />
</g>
<g
   id="g46">
</g>
<g
   id="g48">
</g>
<g
   id="g50">
</g>
<g
   id="g52">
</g>
<g
   id="g54">
</g>
<g
   id="g56">
</g>
<g
   id="g58">
</g>
<g
   id="g60">
</g>
<g
   id="g62">
</g>
<g
   id="g64">
</g>
<g
   id="g66">
</g>
<g
   id="g68">
</g>
<g
   id="g70">
</g>
<g
   id="g72">
</g>
<g
   id="g74">
</g>
</svg>
