<?xml version="1.0" encoding="UTF-8" standalone="no"?>
<svg
   xmlns:dc="http://purl.org/dc/elements/1.1/"
   xmlns:cc="http://creativecommons.org/ns#"
   xmlns:rdf="http://www.w3.org/1999/02/22-rdf-syntax-ns#"
   xmlns:svg="http://www.w3.org/2000/svg"
   xmlns="http://www.w3.org/2000/svg"
   xmlns:sodipodi="http://sodipodi.sourceforge.net/DTD/sodipodi-0.dtd"
   xmlns:inkscape="http://www.inkscape.org/namespaces/inkscape"
   version="1.1"
   id="Layer_1"
   x="0px"
   y="0px"
   viewBox="0 0 512 335.45001"
   xml:space="preserve"
   sodipodi:docname="cambodia.svg"
   width="512"
   height="335.45001"
   inkscape:version="1.0.1 (c497b03c, 2020-09-10)"><metadata
   id="metadata51"><rdf:RDF><cc:Work
       rdf:about=""><dc:format>image/svg+xml</dc:format><dc:type
         rdf:resource="http://purl.org/dc/dcmitype/StillImage" /><dc:title></dc:title></cc:Work></rdf:RDF></metadata><defs
   id="defs49" /><sodipodi:namedview
   pagecolor="#ffffff"
   bordercolor="#666666"
   borderopacity="1"
   objecttolerance="10"
   gridtolerance="10"
   guidetolerance="10"
   inkscape:pageopacity="0"
   inkscape:pageshadow="2"
   inkscape:window-width="1797"
   inkscape:window-height="983"
   id="namedview47"
   showgrid="false"
   inkscape:zoom="1.640625"
   inkscape:cx="256"
   inkscape:cy="256"
   inkscape:window-x="0"
   inkscape:window-y="23"
   inkscape:window-maximized="0"
   inkscape:current-layer="Layer_1" />
<path
   style="fill:#41479b"
   d="M 473.654,335.448 H 38.345 C 17.167,335.448 0,318.281 0,297.103 V 38.345 C 0,17.168 17.167,0 38.345,0 h 435.309 c 21.177,0 38.345,17.167 38.345,38.345 v 258.758 c 0,21.178 -17.168,38.345 -38.345,38.345 z"
   id="path10" />
<rect
   y="79.444992"
   style="fill:#ff4b55"
   width="512"
   height="176.55"
   id="rect12"
   x="0" />
<polygon
   style="fill:#f5f5f5"
   points="368.644,310.417 368.644,302.073 364.471,302.073 364.471,293.729 360.299,293.729 360.299,285.385 347.783,285.385 347.783,260.354 347.782,260.354 351.955,256.181 351.955,243.665 347.783,243.665 347.783,235.322 343.611,235.322 343.611,222.805 339.44,222.805 339.44,214.461 335.268,214.461 335.268,206.117 331.096,206.117 331.096,201.946 322.751,201.946 322.751,206.117 318.579,206.117 318.579,214.461 314.407,214.461 314.407,222.805 310.236,222.805 310.236,235.322 306.064,235.322 306.064,243.665 281.031,243.665 281.031,231.15 276.86,231.15 276.86,218.633 272.688,218.633 272.688,206.117 268.516,206.117 268.516,197.774 264.344,197.774 264.344,189.43 260.172,189.43 260.172,185.257 258.086,185.257 258.086,181.085 253.914,181.085 253.914,185.257 251.827,185.257 251.827,189.43 247.656,189.43 247.656,197.774 243.484,197.774 243.484,206.117 239.312,206.117 239.312,218.633 235.14,218.633 235.14,231.15 230.968,231.15 230.968,243.665 205.936,243.665 205.936,235.322 201.764,235.322 201.764,222.805 197.592,222.805 197.592,214.461 193.42,214.461 193.42,206.117 189.248,206.117 189.248,201.946 180.904,201.946 180.904,206.117 176.732,206.117 176.732,214.461 172.56,214.461 172.56,222.805 168.388,222.805 168.388,235.322 164.216,235.322 164.216,243.665 160.044,243.665 160.044,256.181 164.214,260.354 164.216,260.354 164.216,285.385 151.701,285.385 151.701,293.729 147.529,293.729 147.529,302.073 143.356,302.073 143.356,310.417 139.184,310.417 139.184,322.933 135.012,322.933 135.012,335.449 376.987,335.449 376.987,322.933 372.816,322.933 372.816,310.417 "
   id="polygon14"
   transform="translate(0,-88.276)" />
<g
   id="g16">
</g>
<g
   id="g18">
</g>
<g
   id="g20">
</g>
<g
   id="g22">
</g>
<g
   id="g24">
</g>
<g
   id="g26">
</g>
<g
   id="g28">
</g>
<g
   id="g30">
</g>
<g
   id="g32">
</g>
<g
   id="g34">
</g>
<g
   id="g36">
</g>
<g
   id="g38">
</g>
<g
   id="g40">
</g>
<g
   id="g42">
</g>
<g
   id="g44">
</g>
</svg>
