<?xml version="1.0" encoding="UTF-8" standalone="no"?>
<svg
   xmlns:dc="http://purl.org/dc/elements/1.1/"
   xmlns:cc="http://creativecommons.org/ns#"
   xmlns:rdf="http://www.w3.org/1999/02/22-rdf-syntax-ns#"
   xmlns:svg="http://www.w3.org/2000/svg"
   xmlns="http://www.w3.org/2000/svg"
   xmlns:sodipodi="http://sodipodi.sourceforge.net/DTD/sodipodi-0.dtd"
   xmlns:inkscape="http://www.inkscape.org/namespaces/inkscape"
   version="1.1"
   id="Layer_1"
   x="0px"
   y="0px"
   viewBox="0 0 512 335.45001"
   xml:space="preserve"
   sodipodi:docname="basque-country.svg"
   width="512"
   height="335.45001"
   inkscape:version="1.0.1 (c497b03c, 2020-09-10)"><metadata
   id="metadata286"><rdf:RDF><cc:Work
       rdf:about=""><dc:format>image/svg+xml</dc:format><dc:type
         rdf:resource="http://purl.org/dc/dcmitype/StillImage" /><dc:title></dc:title></cc:Work></rdf:RDF></metadata><defs
   id="defs284" /><sodipodi:namedview
   pagecolor="#ffffff"
   bordercolor="#666666"
   borderopacity="1"
   objecttolerance="10"
   gridtolerance="10"
   guidetolerance="10"
   inkscape:pageopacity="0"
   inkscape:pageshadow="2"
   inkscape:window-width="1797"
   inkscape:window-height="983"
   id="namedview282"
   showgrid="false"
   inkscape:zoom="1.640625"
   inkscape:cx="256"
   inkscape:cy="256"
   inkscape:window-x="0"
   inkscape:window-y="23"
   inkscape:window-maximized="0"
   inkscape:current-layer="Layer_1" />
<path
   style="fill:#ff4b55"
   d="M 473.654,335.448 H 38.345 C 17.167,335.448 0,318.28 0,297.103 V 38.345 C 0,17.168 17.167,0 38.345,0 h 435.309 c 21.177,0 38.345,17.167 38.345,38.345 v 258.758 c 0,21.177 -17.168,38.345 -38.345,38.345 z"
   id="path245" />
<path
   style="fill:#73af00"
   d="m 473.654,0 h -1.921 L 255.999,141.343 40.267,0 H 38.345 C 20.965,0 6.293,11.567 1.588,27.422 L 215.735,167.724 1.588,308.026 c 4.705,15.854 19.377,27.422 36.757,27.422 h 1.922 L 255.999,194.105 471.733,335.448 h 1.921 c 17.38,0 32.053,-11.567 36.757,-27.422 L 296.265,167.724 510.411,27.422 C 505.706,11.569 491.035,0 473.654,0 Z"
   id="path247" />
<polygon
   style="fill:#f5f5f5"
   points="278.068,88.276 233.931,88.276 233.931,233.931 0,233.931 0,278.069 233.931,278.069 233.931,423.724 278.068,423.724 278.068,278.069 512,278.069 512,233.931 278.068,233.931 "
   id="polygon249"
   transform="translate(0,-88.276)" />
<g
   id="g251">
</g>
<g
   id="g253">
</g>
<g
   id="g255">
</g>
<g
   id="g257">
</g>
<g
   id="g259">
</g>
<g
   id="g261">
</g>
<g
   id="g263">
</g>
<g
   id="g265">
</g>
<g
   id="g267">
</g>
<g
   id="g269">
</g>
<g
   id="g271">
</g>
<g
   id="g273">
</g>
<g
   id="g275">
</g>
<g
   id="g277">
</g>
<g
   id="g279">
</g>
</svg>
