<?xml version="1.0" encoding="UTF-8" standalone="no"?>
<svg
   xmlns:dc="http://purl.org/dc/elements/1.1/"
   xmlns:cc="http://creativecommons.org/ns#"
   xmlns:rdf="http://www.w3.org/1999/02/22-rdf-syntax-ns#"
   xmlns:svg="http://www.w3.org/2000/svg"
   xmlns="http://www.w3.org/2000/svg"
   xmlns:sodipodi="http://sodipodi.sourceforge.net/DTD/sodipodi-0.dtd"
   xmlns:inkscape="http://www.inkscape.org/namespaces/inkscape"
   version="1.1"
   id="Layer_1"
   x="0px"
   y="0px"
   viewBox="0 0 512 335.45001"
   xml:space="preserve"
   sodipodi:docname="british-virgin-islands-svgrepo-com.svg"
   width="512"
   height="335.45001"
   inkscape:version="1.0.1 (c497b03c, 2020-09-10)"><metadata
   id="metadata1699"><rdf:RDF><cc:Work
       rdf:about=""><dc:format>image/svg+xml</dc:format><dc:type
         rdf:resource="http://purl.org/dc/dcmitype/StillImage" /><dc:title></dc:title></cc:Work></rdf:RDF></metadata><defs
   id="defs1697" /><sodipodi:namedview
   pagecolor="#ffffff"
   bordercolor="#666666"
   borderopacity="1"
   objecttolerance="10"
   gridtolerance="10"
   guidetolerance="10"
   inkscape:pageopacity="0"
   inkscape:pageshadow="2"
   inkscape:window-width="1797"
   inkscape:window-height="983"
   id="namedview1695"
   showgrid="false"
   inkscape:zoom="1.640625"
   inkscape:cx="256"
   inkscape:cy="256"
   inkscape:window-x="0"
   inkscape:window-y="23"
   inkscape:window-maximized="0"
   inkscape:current-layer="Layer_1" />
<path
   style="fill:#41479b"
   d="M 473.655,335.448 H 38.346 c -21.177,0 -38.345,-17.167 -38.345,-38.345 V 38.346 C 0.001,17.169 17.168,0.001 38.346,0.001 H 473.655 C 494.832,0.001 512,17.168 512,38.346 v 258.758 c 0,21.177 -17.167,38.344 -38.345,38.344 z"
   id="path1576" />
<path
   style="fill:#f5f5f5"
   d="M 150.069,53.573 V 0.001 H 105.931 V 53.574 L 26.845,1.759 C 17.611,4.659 9.891,10.962 5.134,19.193 L 70.156,61.794 H 0.001 v 44.138 H 70.154 L 0.001,151.893 v 7.033 c 0.017,4.861 3.961,8.797 8.826,8.797 H 24.16 l 81.77,-53.572 v 53.573 h 44.138 v -53.573 l 81.77,53.573 h 15.333 c 4.875,0 8.828,-3.953 8.828,-8.828 v -7.002 l -70.155,-45.963 h 70.155 V 61.794 H 185.844 L 255.999,15.83 V 8.828 c 0,-4.874 -3.95,-8.825 -8.823,-8.828 h -15.338 z"
   id="path1578" />
<g
   id="g1590"
   transform="translate(0,-88.276)">
	<polygon
   style="fill:#ff4b55"
   points="141.241,88.277 114.758,88.277 114.758,158.897 0,158.897 0,185.38 114.758,185.38 114.758,256.001 141.241,256.001 141.241,185.38 255.999,185.38 255.999,158.897 141.241,158.897 "
   id="polygon1580" />
	<path
   style="fill:#ff4b55"
   d="m 8.228,102.903 72.661,47.166 H 97.103 L 14.608,96.519 c -2.369,1.871 -4.51,4.014 -6.38,6.384 z"
   id="path1582" />
	<path
   style="fill:#ff4b55"
   d="m 166.283,150.07 88.374,-57.366 c -1.536,-2.599 -4.246,-4.427 -7.485,-4.427 h -1.909 l -95.194,61.793 z"
   id="path1584" />
	<path
   style="fill:#ff4b55"
   d="M 89.474,194.208 1.269,251.462 c 1.519,2.663 4.273,4.537 7.559,4.537 h 1.665 l 95.195,-61.793 H 89.474 Z"
   id="path1586" />
	<path
   style="fill:#ff4b55"
   d="M 255.859,247.866 173.193,194.208 H 156.98 l 93.873,60.934 c 2.813,-1.305 4.741,-4.04 5.006,-7.276 z"
   id="path1588" />
</g>
<path
   style="fill:#73af00"
   d="m 387.75,82.849 h -57.796 c 0,0 0,74.795 0,105.393 0,23.798 57.796,47.597 57.796,47.597 0,0 57.796,-23.798 57.796,-47.597 0,-30.599 0,-105.393 0,-105.393 z"
   id="path1592" />
<path
   style="fill:#ff4b55"
   d="m 353.913,163.267 c 0,0 -0.324,-1.119 -0.036,-2.13 0.289,-1.011 -0.454,-1.938 -0.614,-2.815 -0.433,-2.382 1.588,-2.996 1.696,-5.124 0,0 1.443,1.48 0.903,2.888 -0.541,1.408 0.794,1.624 0.614,2.959 -0.181,1.335 -1.661,2.743 -1.516,3.934 z"
   id="path1594" />
<path
   style="fill:#ffe15a"
   d="m 376.637,161.005 c -1.181,-1.476 -3.252,0.114 -4.768,1.27 -0.211,0.162 -0.39,0.286 -0.577,0.422 l -5.592,-8.259 c 0.157,-0.236 0.27,-0.503 0.27,-0.807 0,-0.823 -0.666,-1.49 -1.49,-1.49 -0.824,0 -1.49,0.666 -1.49,1.49 0,0.305 0.114,0.572 0.27,0.807 l -5.769,8.519 h -4.085 c 0,0 -0.169,2.539 4.291,2.847 0.575,0.871 1.395,1.564 2.377,1.956 -0.461,0.075 -0.833,0.431 -0.833,0.914 v 0.597 c 0,0.038 0.036,0.06 0.04,0.097 h 10.391 c 0.004,-0.036 0.04,-0.059 0.04,-0.097 v -0.597 c 0,-0.488 -0.378,-0.852 -0.847,-0.919 1.739,-0.7 2.961,-2.327 3.167,-4.26 0.162,-0.12 0.313,-0.23 0.489,-0.363 1.097,-0.842 2.749,-2.124 3.276,-1.453 0.131,0.164 0.118,0.255 0.113,0.288 -0.06,0.39 -0.893,0.95 -1.562,1.399 -1.053,0.707 -2.142,1.441 -2.228,2.481 -0.025,0.297 0.194,0.554 0.49,0.581 0.015,0 0.032,0 0.045,0 0.277,0 0.512,-0.213 0.535,-0.491 0.043,-0.527 0.993,-1.165 1.757,-1.677 0.973,-0.657 1.892,-1.273 2.024,-2.127 0.061,-0.395 -0.052,-0.772 -0.334,-1.128 z m -9.559,1.95 c -0.308,-1.174 -1.034,-2.302 -1.941,-2.71 0.48,-0.247 0.819,-0.734 0.819,-1.311 0,-0.822 -0.666,-1.49 -1.49,-1.49 -0.822,0 -1.49,0.666 -1.49,1.49 0,0.577 0.338,1.064 0.819,1.311 -0.907,0.407 -1.634,1.535 -1.941,2.71 h -3.065 l 5.353,-7.905 c 0.111,0.026 0.219,0.068 0.339,0.068 0.12,0 0.227,-0.042 0.339,-0.068 l 5.353,7.905 z"
   id="path1596" />
<path
   style="fill:#ffc8b9"
   d="m 384.066,112.88 c 0,0 -5.383,-1.593 -7.791,17.247 0,0 -13.174,16.751 -13.599,17.742 -0.425,0.992 -0.035,8.11 1.382,7.543 1.417,-0.567 3.967,-3.86 3.825,-6.269 -0.142,-2.409 0.945,-3.752 2.018,-4.958 2.018,-2.266 13.387,-12.536 13.812,-14.803 0.424,-2.265 0.353,-16.502 0.353,-16.502 z"
   id="path1598" />
<g
   id="g1604"
   transform="translate(0,-88.276)">
	<path
   style="fill:#f5f5f5"
   d="m 392.425,197.579 c 0,0 8.322,-1.098 10.766,7.402 0,0 -6.835,3.754 -5.985,8.641 0.85,4.887 -0.106,27.198 -0.106,27.198 -13.068,4.249 -19.974,-1.063 -19.974,-1.063 0,0 3.4,-12.643 2.869,-22.948 0,0 -3.081,-2.337 -2.337,-4.993 0.744,-2.656 2.656,-5.631 3.294,-7.862 0.638,-2.231 2.337,-5.95 6.481,-6.269 4.141,-0.318 4.992,-0.106 4.992,-0.106 z"
   id="path1600" />
	<path
   style="fill:#f5f5f5"
   d="m 379.534,237.278 c 0,0 -6.516,24.649 -4.249,58.221 0,0 20.328,2.691 31.378,-1.346 0,0 -5.737,-40.16 -11.262,-55.884 z"
   id="path1602" />
</g>
<path
   style="fill:#ffc8b9"
   d="m 383.358,94.785 v 10.211 c 0,1.121 0.909,2.03 2.03,2.03 h 0.182 c 0.793,0 1.437,0.643 1.437,1.437 v 2.441 c 0,0 1.368,3.574 6.691,-0.608 V 94.861 Z"
   id="path1606" />
<path
   style="fill:#8c5a28"
   d="m 382.154,92.694 c -0.33,0.825 0.018,3.063 2.053,2.904 2.543,-0.199 5.613,-0.213 6.304,2.603 0.642,2.617 0.213,9.154 3.046,9.58 2.834,0.425 6.046,-1.458 5.985,-7.083 -0.053,-4.958 -3.294,-10.89 -7.827,-9.987 0,0 -4.02,-2.816 -6.375,0.354 0.002,0 -2.477,-0.142 -3.186,1.629 z"
   id="path1608" />
<path
   style="fill:#ffc8b9"
   d="m 403.19,116.705 c 0,0 2.9,19.104 2.762,20.682 -0.141,1.629 -10.27,17.282 -9.704,18.983 0.567,1.7 1.133,3.967 -1.983,4.817 -3.116,0.85 -2.797,-4.126 -1.948,-6.676 0.849,-2.55 7.968,-16.131 7.968,-17.689 0,-1.558 -4.038,-11.616 -3.046,-15.583 0.993,-3.968 5.951,-4.534 5.951,-4.534 z"
   id="path1610" />
<path
   style="fill:#ff4b55"
   d="m 341.163,102.986 c 0,0 -0.324,-1.119 -0.036,-2.13 0.289,-1.011 -0.454,-1.938 -0.613,-2.815 -0.433,-2.382 1.588,-2.996 1.696,-5.124 0,0 1.443,1.48 0.903,2.888 -0.542,1.408 0.794,1.624 0.614,2.959 -0.18,1.335 -1.661,2.743 -1.516,3.934 z"
   id="path1612" />
<path
   style="fill:#ffe15a"
   d="m 363.888,100.724 c -1.181,-1.476 -3.252,0.114 -4.768,1.27 -0.211,0.162 -0.39,0.286 -0.577,0.422 l -5.592,-8.259 c 0.157,-0.236 0.27,-0.503 0.27,-0.807 0,-0.823 -0.666,-1.49 -1.49,-1.49 -0.824,0 -1.49,0.666 -1.49,1.49 0,0.305 0.114,0.572 0.27,0.807 l -5.769,8.519 h -4.085 c 0,0 -0.169,2.539 4.291,2.847 0.575,0.871 1.395,1.564 2.377,1.956 -0.461,0.075 -0.833,0.431 -0.833,0.914 v 0.597 c 0,0.038 0.036,0.06 0.04,0.097 h 10.391 c 0.004,-0.036 0.04,-0.058 0.04,-0.097 v -0.597 c 0,-0.488 -0.378,-0.852 -0.847,-0.919 1.739,-0.7 2.961,-2.327 3.167,-4.26 0.162,-0.12 0.313,-0.23 0.489,-0.363 1.097,-0.842 2.749,-2.124 3.276,-1.453 0.131,0.164 0.118,0.255 0.113,0.288 -0.06,0.39 -0.893,0.95 -1.562,1.399 -1.053,0.707 -2.142,1.441 -2.228,2.481 -0.025,0.297 0.194,0.554 0.49,0.582 0.015,0 0.032,0 0.045,0 0.277,0 0.512,-0.213 0.535,-0.491 0.043,-0.527 0.993,-1.165 1.757,-1.677 0.973,-0.657 1.892,-1.273 2.024,-2.127 0.061,-0.395 -0.052,-0.772 -0.334,-1.129 z m -9.559,1.951 c -0.308,-1.174 -1.034,-2.302 -1.941,-2.71 0.48,-0.247 0.819,-0.734 0.819,-1.311 0,-0.822 -0.666,-1.49 -1.49,-1.49 -0.822,0 -1.49,0.666 -1.49,1.49 0,0.577 0.338,1.064 0.819,1.311 -0.907,0.407 -1.634,1.535 -1.941,2.71 h -3.065 l 5.353,-7.905 c 0.111,0.026 0.218,0.068 0.339,0.068 0.12,0 0.227,-0.042 0.339,-0.068 l 5.353,7.905 z"
   id="path1614" />
<path
   style="fill:#ff4b55"
   d="m 341.163,123.079 c 0,0 -0.324,-1.119 -0.036,-2.13 0.289,-1.011 -0.454,-1.938 -0.613,-2.815 -0.433,-2.382 1.588,-2.996 1.696,-5.124 0,0 1.443,1.48 0.903,2.888 -0.541,1.408 0.794,1.624 0.614,2.959 -0.18,1.335 -1.661,2.743 -1.516,3.934 z"
   id="path1616" />
<path
   style="fill:#ffe15a"
   d="m 363.888,120.818 c -1.181,-1.476 -3.252,0.114 -4.768,1.27 -0.211,0.162 -0.39,0.286 -0.577,0.422 l -5.592,-8.259 c 0.157,-0.236 0.27,-0.503 0.27,-0.807 0,-0.823 -0.666,-1.49 -1.49,-1.49 -0.824,0 -1.49,0.666 -1.49,1.49 0,0.305 0.114,0.572 0.27,0.807 l -5.769,8.519 h -4.085 c 0,0 -0.169,2.539 4.291,2.847 0.575,0.871 1.395,1.564 2.377,1.956 -0.461,0.075 -0.833,0.431 -0.833,0.914 v 0.597 c 0,0.038 0.036,0.06 0.04,0.097 h 10.391 c 0.004,-0.036 0.04,-0.058 0.04,-0.097 v -0.597 c 0,-0.488 -0.378,-0.852 -0.847,-0.92 1.739,-0.7 2.961,-2.327 3.167,-4.26 0.162,-0.12 0.313,-0.23 0.489,-0.363 1.097,-0.842 2.749,-2.124 3.276,-1.453 0.131,0.164 0.118,0.255 0.113,0.288 -0.06,0.39 -0.893,0.95 -1.562,1.399 -1.053,0.707 -2.142,1.441 -2.228,2.481 -0.025,0.297 0.194,0.554 0.49,0.581 0.015,0 0.032,0 0.045,0 0.277,0 0.512,-0.213 0.535,-0.491 0.043,-0.527 0.993,-1.165 1.757,-1.677 0.973,-0.657 1.892,-1.273 2.024,-2.127 0.061,-0.393 -0.052,-0.77 -0.334,-1.127 z m -9.559,1.951 c -0.308,-1.174 -1.034,-2.302 -1.941,-2.71 0.48,-0.247 0.819,-0.734 0.819,-1.311 0,-0.822 -0.666,-1.49 -1.49,-1.49 -0.822,0 -1.49,0.666 -1.49,1.49 0,0.577 0.338,1.064 0.819,1.311 -0.907,0.407 -1.634,1.535 -1.941,2.71 h -3.065 l 5.353,-7.905 c 0.111,0.026 0.218,0.068 0.339,0.068 0.12,0 0.227,-0.042 0.339,-0.068 l 5.353,7.905 z"
   id="path1618" />
<path
   style="fill:#ff4b55"
   d="m 341.163,143.173 c 0,0 -0.324,-1.119 -0.036,-2.13 0.289,-1.011 -0.454,-1.938 -0.613,-2.815 -0.433,-2.382 1.588,-2.996 1.696,-5.124 0,0 1.443,1.48 0.903,2.888 -0.542,1.408 0.794,1.624 0.614,2.959 -0.18,1.335 -1.661,2.743 -1.516,3.934 z"
   id="path1620" />
<path
   style="fill:#ffe15a"
   d="m 363.888,140.911 c -1.181,-1.476 -3.252,0.114 -4.768,1.27 -0.211,0.162 -0.39,0.286 -0.577,0.422 l -5.592,-8.259 c 0.157,-0.236 0.27,-0.503 0.27,-0.807 0,-0.823 -0.666,-1.49 -1.49,-1.49 -0.824,0 -1.49,0.666 -1.49,1.49 0,0.305 0.114,0.572 0.27,0.807 l -5.769,8.519 h -4.085 c 0,0 -0.169,2.539 4.291,2.847 0.575,0.871 1.395,1.564 2.377,1.956 -0.461,0.075 -0.833,0.431 -0.833,0.914 v 0.597 c 0,0.038 0.036,0.06 0.04,0.097 h 10.391 c 0.004,-0.036 0.04,-0.058 0.04,-0.097 v -0.597 c 0,-0.488 -0.378,-0.852 -0.847,-0.919 1.739,-0.7 2.961,-2.327 3.167,-4.26 0.162,-0.12 0.313,-0.23 0.489,-0.363 1.097,-0.842 2.749,-2.124 3.276,-1.453 0.131,0.164 0.118,0.255 0.113,0.288 -0.06,0.39 -0.893,0.95 -1.562,1.399 -1.053,0.707 -2.142,1.441 -2.228,2.481 -0.025,0.297 0.194,0.554 0.49,0.582 0.015,0 0.032,0 0.045,0 0.277,0 0.512,-0.213 0.535,-0.491 0.043,-0.527 0.993,-1.165 1.757,-1.677 0.973,-0.657 1.892,-1.273 2.024,-2.127 0.061,-0.395 -0.052,-0.773 -0.334,-1.129 z m -9.559,1.952 c -0.308,-1.174 -1.034,-2.302 -1.941,-2.71 0.48,-0.247 0.819,-0.734 0.819,-1.311 0,-0.822 -0.666,-1.49 -1.49,-1.49 -0.822,0 -1.49,0.666 -1.49,1.49 0,0.577 0.338,1.064 0.819,1.311 -0.907,0.407 -1.634,1.535 -1.941,2.71 h -3.065 l 5.353,-7.905 c 0.111,0.026 0.218,0.068 0.339,0.068 0.12,0 0.227,-0.042 0.339,-0.068 l 5.353,7.905 z"
   id="path1622" />
<path
   style="fill:#ff4b55"
   d="m 341.163,183.359 c 0,0 -0.324,-1.119 -0.036,-2.13 0.289,-1.011 -0.454,-1.938 -0.613,-2.815 -0.433,-2.382 1.588,-2.996 1.696,-5.124 0,0 1.443,1.48 0.903,2.888 -0.54,1.408 0.794,1.624 0.614,2.959 -0.18,1.335 -1.661,2.743 -1.516,3.934 z"
   id="path1624" />
<path
   style="fill:#ffe15a"
   d="m 363.888,181.098 c -1.181,-1.476 -3.252,0.114 -4.768,1.27 -0.211,0.162 -0.39,0.286 -0.577,0.422 l -5.592,-8.258 c 0.157,-0.236 0.27,-0.503 0.27,-0.807 0,-0.823 -0.666,-1.49 -1.49,-1.49 -0.824,0 -1.49,0.666 -1.49,1.49 0,0.305 0.114,0.572 0.27,0.807 l -5.769,8.519 h -4.085 c 0,0 -0.169,2.539 4.291,2.847 0.575,0.871 1.395,1.564 2.377,1.956 -0.461,0.075 -0.833,0.431 -0.833,0.914 v 0.597 c 0,0.038 0.036,0.06 0.04,0.097 h 10.391 c 0.004,-0.036 0.04,-0.058 0.04,-0.097 v -0.597 c 0,-0.488 -0.378,-0.852 -0.847,-0.919 1.739,-0.7 2.961,-2.327 3.167,-4.26 0.162,-0.12 0.313,-0.23 0.489,-0.363 1.097,-0.842 2.749,-2.124 3.276,-1.453 0.131,0.164 0.118,0.255 0.113,0.288 -0.06,0.389 -0.893,0.95 -1.562,1.399 -1.053,0.707 -2.142,1.441 -2.228,2.481 -0.025,0.297 0.194,0.554 0.49,0.582 0.015,0 0.032,0 0.045,0 0.277,0 0.512,-0.213 0.535,-0.491 0.043,-0.527 0.993,-1.165 1.757,-1.677 0.973,-0.657 1.892,-1.273 2.024,-2.127 0.061,-0.396 -0.052,-0.773 -0.334,-1.13 z m -9.559,1.951 c -0.308,-1.174 -1.034,-2.302 -1.941,-2.71 0.48,-0.247 0.819,-0.734 0.819,-1.311 0,-0.822 -0.666,-1.49 -1.49,-1.49 -0.822,0 -1.49,0.666 -1.49,1.49 0,0.577 0.338,1.064 0.819,1.311 -0.907,0.407 -1.634,1.535 -1.941,2.71 h -3.065 l 5.353,-7.905 c 0.111,0.026 0.218,0.068 0.339,0.068 0.12,0 0.227,-0.042 0.339,-0.068 l 5.353,7.905 z"
   id="path1626" />
<path
   style="fill:#ff4b55"
   d="m 341.163,203.453 c 0,0 -0.324,-1.119 -0.036,-2.13 0.289,-1.011 -0.454,-1.938 -0.613,-2.815 -0.433,-2.382 1.588,-2.996 1.696,-5.124 0,0 1.443,1.48 0.903,2.888 -0.542,1.408 0.794,1.624 0.614,2.959 -0.181,1.335 -1.661,2.743 -1.516,3.934 z"
   id="path1628" />
<path
   style="fill:#ffe15a"
   d="m 363.888,201.191 c -1.181,-1.476 -3.252,0.114 -4.768,1.27 -0.211,0.162 -0.39,0.286 -0.577,0.422 l -5.592,-8.258 c 0.157,-0.236 0.27,-0.503 0.27,-0.807 0,-0.823 -0.666,-1.49 -1.49,-1.49 -0.824,0 -1.49,0.666 -1.49,1.49 0,0.305 0.114,0.572 0.27,0.807 l -5.769,8.519 h -4.085 c 0,0 -0.169,2.539 4.291,2.847 0.575,0.871 1.395,1.564 2.377,1.956 -0.461,0.075 -0.833,0.431 -0.833,0.914 v 0.597 c 0,0.038 0.036,0.06 0.04,0.097 h 10.391 c 0.004,-0.036 0.04,-0.058 0.04,-0.097 v -0.597 c 0,-0.488 -0.378,-0.852 -0.847,-0.919 1.739,-0.7 2.961,-2.327 3.167,-4.26 0.162,-0.12 0.313,-0.23 0.489,-0.363 1.097,-0.842 2.749,-2.124 3.276,-1.453 0.131,0.164 0.118,0.255 0.113,0.288 -0.06,0.39 -0.893,0.95 -1.562,1.399 -1.053,0.707 -2.142,1.441 -2.228,2.481 -0.025,0.297 0.194,0.554 0.49,0.582 0.015,0 0.032,0 0.045,0 0.277,0 0.512,-0.213 0.535,-0.491 0.043,-0.527 0.993,-1.165 1.757,-1.677 0.973,-0.657 1.892,-1.273 2.024,-2.127 0.061,-0.395 -0.052,-0.774 -0.334,-1.13 z m -9.559,1.952 c -0.308,-1.174 -1.034,-2.302 -1.941,-2.71 0.48,-0.247 0.819,-0.734 0.819,-1.311 0,-0.822 -0.666,-1.49 -1.49,-1.49 -0.822,0 -1.49,0.667 -1.49,1.49 0,0.577 0.338,1.064 0.819,1.311 -0.907,0.407 -1.634,1.535 -1.941,2.71 h -3.065 l 5.353,-7.905 c 0.111,0.026 0.218,0.068 0.339,0.068 0.12,0 0.227,-0.042 0.339,-0.068 l 5.353,7.905 z"
   id="path1630" />
<path
   style="fill:#ff4b55"
   d="m 411.071,102.986 c 0,0 -0.324,-1.119 -0.036,-2.13 0.289,-1.011 -0.455,-1.938 -0.613,-2.815 -0.433,-2.382 1.588,-2.996 1.696,-5.124 0,0 1.443,1.48 0.903,2.888 -0.542,1.408 0.794,1.624 0.614,2.959 -0.18,1.335 -1.661,2.743 -1.516,3.934 z"
   id="path1632" />
<path
   style="fill:#ffe15a"
   d="m 433.795,100.724 c -1.181,-1.476 -3.252,0.114 -4.768,1.27 -0.211,0.162 -0.39,0.286 -0.577,0.422 l -5.592,-8.259 c 0.157,-0.236 0.27,-0.503 0.27,-0.807 0,-0.823 -0.666,-1.49 -1.49,-1.49 -0.824,0 -1.49,0.666 -1.49,1.49 0,0.305 0.114,0.572 0.27,0.807 l -5.769,8.519 h -4.085 c 0,0 -0.169,2.539 4.291,2.847 0.575,0.871 1.395,1.564 2.377,1.956 -0.461,0.075 -0.833,0.431 -0.833,0.914 v 0.597 c 0,0.038 0.036,0.06 0.04,0.097 h 10.391 c 0.004,-0.036 0.04,-0.058 0.04,-0.097 v -0.597 c 0,-0.488 -0.378,-0.852 -0.847,-0.919 1.739,-0.7 2.961,-2.327 3.167,-4.26 0.162,-0.12 0.313,-0.23 0.489,-0.363 1.097,-0.842 2.749,-2.124 3.276,-1.453 0.131,0.164 0.118,0.255 0.113,0.288 -0.06,0.39 -0.893,0.95 -1.562,1.399 -1.053,0.707 -2.142,1.441 -2.228,2.481 -0.025,0.297 0.194,0.554 0.49,0.582 0.015,0 0.032,0 0.045,0 0.277,0 0.512,-0.213 0.535,-0.491 0.043,-0.527 0.993,-1.165 1.757,-1.677 0.973,-0.657 1.892,-1.273 2.024,-2.127 0.061,-0.395 -0.05,-0.772 -0.334,-1.129 z m -9.558,1.951 c -0.308,-1.174 -1.034,-2.302 -1.941,-2.71 0.48,-0.247 0.819,-0.734 0.819,-1.311 0,-0.822 -0.667,-1.49 -1.49,-1.49 -0.822,0 -1.49,0.666 -1.49,1.49 0,0.577 0.338,1.064 0.819,1.311 -0.907,0.407 -1.634,1.535 -1.941,2.71 h -3.065 l 5.353,-7.905 c 0.111,0.026 0.218,0.068 0.339,0.068 0.12,0 0.227,-0.042 0.339,-0.068 l 5.353,7.905 z"
   id="path1634" />
<path
   style="fill:#ff4b55"
   d="m 411.071,123.079 c 0,0 -0.324,-1.119 -0.036,-2.13 0.289,-1.011 -0.455,-1.938 -0.613,-2.815 -0.433,-2.382 1.588,-2.996 1.696,-5.124 0,0 1.443,1.48 0.903,2.888 -0.542,1.408 0.794,1.624 0.614,2.959 -0.18,1.335 -1.661,2.743 -1.516,3.934 z"
   id="path1636" />
<path
   style="fill:#ffe15a"
   d="m 433.795,120.818 c -1.181,-1.476 -3.252,0.114 -4.768,1.27 -0.211,0.162 -0.39,0.286 -0.577,0.422 l -5.592,-8.259 c 0.157,-0.236 0.27,-0.503 0.27,-0.807 0,-0.823 -0.666,-1.49 -1.49,-1.49 -0.824,0 -1.49,0.666 -1.49,1.49 0,0.305 0.114,0.572 0.27,0.807 l -5.769,8.519 h -4.085 c 0,0 -0.169,2.539 4.291,2.847 0.575,0.871 1.395,1.564 2.377,1.956 -0.461,0.075 -0.833,0.431 -0.833,0.914 v 0.597 c 0,0.038 0.036,0.06 0.04,0.097 h 10.391 c 0.004,-0.036 0.04,-0.058 0.04,-0.097 v -0.597 c 0,-0.488 -0.378,-0.852 -0.847,-0.92 1.739,-0.7 2.961,-2.327 3.167,-4.26 0.162,-0.12 0.313,-0.23 0.489,-0.363 1.097,-0.842 2.749,-2.124 3.276,-1.453 0.131,0.164 0.118,0.255 0.113,0.288 -0.06,0.39 -0.893,0.95 -1.562,1.399 -1.053,0.707 -2.142,1.441 -2.228,2.481 -0.025,0.297 0.194,0.554 0.49,0.581 0.015,0 0.032,0 0.045,0 0.277,0 0.512,-0.213 0.535,-0.491 0.043,-0.527 0.993,-1.165 1.757,-1.677 0.973,-0.657 1.892,-1.273 2.024,-2.127 0.061,-0.393 -0.05,-0.77 -0.334,-1.127 z m -9.558,1.951 c -0.308,-1.174 -1.034,-2.302 -1.941,-2.71 0.48,-0.247 0.819,-0.734 0.819,-1.311 0,-0.822 -0.667,-1.49 -1.49,-1.49 -0.822,0 -1.49,0.666 -1.49,1.49 0,0.577 0.338,1.064 0.819,1.311 -0.907,0.407 -1.634,1.535 -1.941,2.71 h -3.065 l 5.353,-7.905 c 0.111,0.026 0.218,0.068 0.339,0.068 0.12,0 0.227,-0.042 0.339,-0.068 l 5.353,7.905 z"
   id="path1638" />
<path
   style="fill:#ff4b55"
   d="m 411.071,143.173 c 0,0 -0.324,-1.119 -0.036,-2.13 0.289,-1.011 -0.455,-1.938 -0.613,-2.815 -0.433,-2.382 1.588,-2.996 1.696,-5.124 0,0 1.443,1.48 0.903,2.888 -0.542,1.408 0.794,1.624 0.614,2.959 -0.18,1.335 -1.661,2.743 -1.516,3.934 z"
   id="path1640" />
<path
   style="fill:#ffe15a"
   d="m 433.795,140.911 c -1.181,-1.476 -3.252,0.114 -4.768,1.27 -0.211,0.162 -0.39,0.286 -0.577,0.422 l -5.592,-8.259 c 0.157,-0.236 0.27,-0.503 0.27,-0.807 0,-0.823 -0.666,-1.49 -1.49,-1.49 -0.824,0 -1.49,0.666 -1.49,1.49 0,0.305 0.114,0.572 0.27,0.807 l -5.769,8.519 h -4.085 c 0,0 -0.169,2.539 4.291,2.847 0.575,0.871 1.395,1.564 2.377,1.956 -0.461,0.075 -0.833,0.431 -0.833,0.914 v 0.597 c 0,0.038 0.036,0.06 0.04,0.097 h 10.391 c 0.004,-0.036 0.04,-0.058 0.04,-0.097 v -0.597 c 0,-0.488 -0.378,-0.852 -0.847,-0.919 1.739,-0.7 2.961,-2.327 3.167,-4.26 0.162,-0.12 0.313,-0.23 0.489,-0.363 1.097,-0.842 2.749,-2.124 3.276,-1.453 0.131,0.164 0.118,0.255 0.113,0.288 -0.06,0.39 -0.893,0.95 -1.562,1.399 -1.053,0.707 -2.142,1.441 -2.228,2.481 -0.025,0.297 0.194,0.554 0.49,0.582 0.015,0 0.032,0 0.045,0 0.277,0 0.512,-0.213 0.535,-0.491 0.043,-0.527 0.993,-1.165 1.757,-1.677 0.973,-0.657 1.892,-1.273 2.024,-2.127 0.061,-0.395 -0.05,-0.773 -0.334,-1.129 z m -9.558,1.952 c -0.308,-1.174 -1.034,-2.302 -1.941,-2.71 0.48,-0.247 0.819,-0.734 0.819,-1.311 0,-0.822 -0.667,-1.49 -1.49,-1.49 -0.822,0 -1.49,0.666 -1.49,1.49 0,0.577 0.338,1.064 0.819,1.311 -0.907,0.407 -1.634,1.535 -1.941,2.71 h -3.065 l 5.353,-7.905 c 0.111,0.026 0.218,0.068 0.339,0.068 0.12,0 0.227,-0.042 0.339,-0.068 l 5.353,7.905 z"
   id="path1642" />
<path
   style="fill:#ff4b55"
   d="m 411.071,163.267 c 0,0 -0.324,-1.119 -0.036,-2.13 0.289,-1.011 -0.455,-1.938 -0.613,-2.815 -0.433,-2.382 1.588,-2.996 1.696,-5.124 0,0 1.443,1.48 0.903,2.888 -0.542,1.408 0.794,1.624 0.614,2.959 -0.181,1.335 -1.661,2.743 -1.516,3.934 z"
   id="path1644" />
<path
   style="fill:#ffe15a"
   d="m 433.795,161.005 c -1.181,-1.476 -3.252,0.114 -4.768,1.27 -0.211,0.162 -0.39,0.286 -0.577,0.422 l -5.592,-8.259 c 0.157,-0.236 0.27,-0.503 0.27,-0.807 0,-0.823 -0.666,-1.49 -1.49,-1.49 -0.824,0 -1.49,0.666 -1.49,1.49 0,0.305 0.114,0.572 0.27,0.807 l -5.769,8.519 h -4.085 c 0,0 -0.169,2.539 4.291,2.847 0.575,0.871 1.395,1.564 2.377,1.956 -0.461,0.075 -0.833,0.431 -0.833,0.914 v 0.597 c 0,0.038 0.036,0.06 0.04,0.097 h 10.391 c 0.004,-0.036 0.04,-0.059 0.04,-0.097 v -0.597 c 0,-0.488 -0.378,-0.852 -0.847,-0.919 1.739,-0.7 2.961,-2.327 3.167,-4.26 0.162,-0.12 0.313,-0.23 0.489,-0.363 1.097,-0.842 2.749,-2.124 3.276,-1.453 0.131,0.164 0.118,0.255 0.113,0.288 -0.06,0.39 -0.893,0.95 -1.562,1.399 -1.053,0.707 -2.142,1.441 -2.228,2.481 -0.025,0.297 0.194,0.554 0.49,0.581 0.015,0 0.032,0 0.045,0 0.277,0 0.512,-0.213 0.535,-0.491 0.043,-0.527 0.993,-1.165 1.757,-1.677 0.973,-0.657 1.892,-1.273 2.024,-2.127 0.061,-0.395 -0.05,-0.772 -0.334,-1.128 z m -9.558,1.95 c -0.308,-1.174 -1.034,-2.302 -1.941,-2.71 0.48,-0.247 0.819,-0.734 0.819,-1.311 0,-0.822 -0.667,-1.49 -1.49,-1.49 -0.822,0 -1.49,0.666 -1.49,1.49 0,0.577 0.338,1.064 0.819,1.311 -0.907,0.407 -1.634,1.535 -1.941,2.71 h -3.065 l 5.353,-7.905 c 0.111,0.026 0.218,0.068 0.339,0.068 0.12,0 0.227,-0.042 0.339,-0.068 l 5.353,7.905 z"
   id="path1646" />
<path
   style="fill:#ff4b55"
   d="m 411.071,183.359 c 0,0 -0.324,-1.119 -0.036,-2.13 0.289,-1.011 -0.455,-1.938 -0.613,-2.815 -0.433,-2.382 1.588,-2.996 1.696,-5.124 0,0 1.443,1.48 0.903,2.888 -0.542,1.408 0.794,1.624 0.614,2.959 -0.18,1.335 -1.661,2.743 -1.516,3.934 z"
   id="path1648" />
<path
   style="fill:#ffe15a"
   d="m 433.795,181.098 c -1.181,-1.476 -3.252,0.114 -4.768,1.27 -0.211,0.162 -0.39,0.286 -0.577,0.422 l -5.592,-8.258 c 0.157,-0.236 0.27,-0.503 0.27,-0.807 0,-0.823 -0.666,-1.49 -1.49,-1.49 -0.824,0 -1.49,0.666 -1.49,1.49 0,0.305 0.114,0.572 0.27,0.807 l -5.769,8.519 h -4.085 c 0,0 -0.169,2.539 4.291,2.847 0.575,0.871 1.395,1.564 2.377,1.956 -0.461,0.075 -0.833,0.431 -0.833,0.914 v 0.597 c 0,0.038 0.036,0.06 0.04,0.097 h 10.391 c 0.004,-0.036 0.04,-0.058 0.04,-0.097 v -0.597 c 0,-0.488 -0.378,-0.852 -0.847,-0.919 1.739,-0.7 2.961,-2.327 3.167,-4.26 0.162,-0.12 0.313,-0.23 0.489,-0.363 1.097,-0.842 2.749,-2.124 3.276,-1.453 0.131,0.164 0.118,0.255 0.113,0.288 -0.06,0.389 -0.893,0.95 -1.562,1.399 -1.053,0.707 -2.142,1.441 -2.228,2.481 -0.025,0.297 0.194,0.554 0.49,0.582 0.015,0 0.032,0 0.045,0 0.277,0 0.512,-0.213 0.535,-0.491 0.043,-0.527 0.993,-1.165 1.757,-1.677 0.973,-0.657 1.892,-1.273 2.024,-2.127 0.061,-0.396 -0.05,-0.773 -0.334,-1.13 z m -9.558,1.951 c -0.308,-1.174 -1.034,-2.302 -1.941,-2.71 0.48,-0.247 0.819,-0.734 0.819,-1.311 0,-0.822 -0.667,-1.49 -1.49,-1.49 -0.822,0 -1.49,0.666 -1.49,1.49 0,0.577 0.338,1.064 0.819,1.311 -0.907,0.407 -1.634,1.535 -1.941,2.71 h -3.065 l 5.353,-7.905 c 0.111,0.026 0.218,0.068 0.339,0.068 0.12,0 0.227,-0.042 0.339,-0.068 l 5.353,7.905 z"
   id="path1650" />
<path
   style="fill:#ff4b55"
   d="m 411.071,203.453 c 0,0 -0.324,-1.119 -0.036,-2.13 0.289,-1.011 -0.455,-1.938 -0.613,-2.815 -0.433,-2.382 1.588,-2.996 1.696,-5.124 0,0 1.443,1.48 0.903,2.888 -0.542,1.408 0.794,1.624 0.614,2.959 -0.181,1.335 -1.661,2.743 -1.516,3.934 z"
   id="path1652" />
<path
   style="fill:#ffe15a"
   d="m 433.795,201.191 c -1.181,-1.476 -3.252,0.114 -4.768,1.27 -0.211,0.162 -0.39,0.286 -0.577,0.422 l -5.592,-8.258 c 0.157,-0.236 0.27,-0.503 0.27,-0.807 0,-0.823 -0.666,-1.49 -1.49,-1.49 -0.824,0 -1.49,0.666 -1.49,1.49 0,0.305 0.114,0.572 0.27,0.807 l -5.769,8.519 h -4.085 c 0,0 -0.169,2.539 4.291,2.847 0.575,0.871 1.395,1.564 2.377,1.956 -0.461,0.075 -0.833,0.431 -0.833,0.914 v 0.597 c 0,0.038 0.036,0.06 0.04,0.097 h 10.391 c 0.004,-0.036 0.04,-0.058 0.04,-0.097 v -0.597 c 0,-0.488 -0.378,-0.852 -0.847,-0.919 1.739,-0.7 2.961,-2.327 3.167,-4.26 0.162,-0.12 0.313,-0.23 0.489,-0.363 1.097,-0.842 2.749,-2.124 3.276,-1.453 0.131,0.164 0.118,0.255 0.113,0.288 -0.06,0.39 -0.893,0.95 -1.562,1.399 -1.053,0.707 -2.142,1.441 -2.228,2.481 -0.025,0.297 0.194,0.554 0.49,0.582 0.015,0 0.032,0 0.045,0 0.277,0 0.512,-0.213 0.535,-0.491 0.043,-0.527 0.993,-1.165 1.757,-1.677 0.973,-0.657 1.892,-1.273 2.024,-2.127 0.061,-0.395 -0.05,-0.774 -0.334,-1.13 z m -9.558,1.952 c -0.308,-1.174 -1.034,-2.302 -1.941,-2.71 0.48,-0.247 0.819,-0.734 0.819,-1.311 0,-0.822 -0.667,-1.49 -1.49,-1.49 -0.822,0 -1.49,0.667 -1.49,1.49 0,0.577 0.338,1.064 0.819,1.311 -0.907,0.407 -1.634,1.535 -1.941,2.71 h -3.065 l 5.353,-7.905 c 0.111,0.026 0.218,0.068 0.339,0.068 0.12,0 0.227,-0.042 0.339,-0.068 l 5.353,7.905 z"
   id="path1654" />
<g
   id="g1660"
   transform="translate(0,-88.276)">
	<path
   style="fill:#f5f5f5"
   d="m 445.546,171.125 c 0,0 0,74.795 0,105.393 0,23.798 -57.796,47.597 -57.796,47.597 0,0 -57.796,-23.798 -57.796,-47.597 0,-30.599 0,-105.393 0,-105.393 h 57.796 57.796 m 3.4,-3.4 h -3.4 -57.796 -57.796 -3.4 v 3.4 105.393 c 0,11.128 10.265,23.111 30.511,35.616 14.518,8.967 28.79,14.878 29.39,15.125 l 1.294,0.533 1.294,-0.533 c 0.6,-0.247 14.872,-6.158 29.39,-15.125 20.246,-12.505 30.511,-24.488 30.511,-35.616 V 171.125 Z"
   id="path1656" />
	<path
   style="fill:#f5f5f5"
   d="m 449.437,295.262 15.412,10.629 c -17.901,22.963 -45.794,37.772 -77.1,37.772 -31.305,0 -59.198,-14.81 -77.1,-37.772 l 15.412,-10.629 c 14.498,18.089 36.756,29.703 61.687,29.703 24.933,0 47.191,-11.614 61.689,-29.703 m -0.674,-4.594 -1.978,2.468 c -14.48,18.067 -35.998,28.429 -59.034,28.429 -23.036,0 -44.554,-10.362 -59.034,-28.429 l -1.978,-2.468 -2.604,1.796 -15.412,10.629 -2.967,2.046 2.216,2.842 c 19.363,24.836 48.442,39.082 79.78,39.082 31.338,0 60.418,-14.244 79.78,-39.082 l 2.216,-2.842 -2.967,-2.046 -15.412,-10.629 z"
   id="path1658" />
</g>
<path
   style="fill:#ffe15a"
   d="m 387.75,255.388 c 31.305,0 59.198,-14.81 77.1,-37.772 l -15.412,-10.629 c -14.498,18.089 -36.756,29.703 -61.687,29.703 -24.931,0 -47.189,-11.614 -61.687,-29.703 l -15.412,10.629 c 17.9,22.961 45.793,37.772 77.098,37.772 z"
   id="path1662" />
<g
   id="g1664">
</g>
<g
   id="g1666">
</g>
<g
   id="g1668">
</g>
<g
   id="g1670">
</g>
<g
   id="g1672">
</g>
<g
   id="g1674">
</g>
<g
   id="g1676">
</g>
<g
   id="g1678">
</g>
<g
   id="g1680">
</g>
<g
   id="g1682">
</g>
<g
   id="g1684">
</g>
<g
   id="g1686">
</g>
<g
   id="g1688">
</g>
<g
   id="g1690">
</g>
<g
   id="g1692">
</g>
</svg>
