<?xml version="1.0" encoding="UTF-8" standalone="no"?>
<svg
   xmlns:dc="http://purl.org/dc/elements/1.1/"
   xmlns:cc="http://creativecommons.org/ns#"
   xmlns:rdf="http://www.w3.org/1999/02/22-rdf-syntax-ns#"
   xmlns:svg="http://www.w3.org/2000/svg"
   xmlns="http://www.w3.org/2000/svg"
   xmlns:sodipodi="http://sodipodi.sourceforge.net/DTD/sodipodi-0.dtd"
   xmlns:inkscape="http://www.inkscape.org/namespaces/inkscape"
   version="1.1"
   id="Layer_1"
   x="0px"
   y="0px"
   viewBox="0 0 511.997 335.45001"
   xml:space="preserve"
   sodipodi:docname="aruba.svg"
   width="511.99701"
   height="335.45001"
   inkscape:version="1.0.1 (c497b03c, 2020-09-10)"><metadata
   id="metadata540"><rdf:RDF><cc:Work
       rdf:about=""><dc:format>image/svg+xml</dc:format><dc:type
         rdf:resource="http://purl.org/dc/dcmitype/StillImage" /><dc:title></dc:title></cc:Work></rdf:RDF></metadata><defs
   id="defs538" /><sodipodi:namedview
   pagecolor="#ffffff"
   bordercolor="#666666"
   borderopacity="1"
   objecttolerance="10"
   gridtolerance="10"
   guidetolerance="10"
   inkscape:pageopacity="0"
   inkscape:pageshadow="2"
   inkscape:window-width="1797"
   inkscape:window-height="983"
   id="namedview536"
   showgrid="false"
   inkscape:zoom="1.6406346"
   inkscape:cx="255.9985"
   inkscape:cy="255.9985"
   inkscape:window-x="0"
   inkscape:window-y="23"
   inkscape:window-maximized="0"
   inkscape:current-layer="Layer_1" />
<path
   style="fill:#4173cd"
   d="M 473.601,335.409 H 38.34 C 17.165,335.409 0,318.244 0,297.069 V 38.34 C 0,17.165 17.165,0 38.34,0 h 435.261 c 21.175,0 38.34,17.165 38.34,38.34 v 258.729 c 0.001,21.175 -17.165,38.34 -38.34,38.34 z"
   id="path493" />
<g
   id="g499"
   transform="translate(0,-88.294)">
	<rect
   x="0.057"
   y="317.789"
   style="fill:#ffe15a"
   width="511.94"
   height="17.653"
   id="rect495" />
	<rect
   x="0.057"
   y="353.099"
   style="fill:#ffe15a"
   width="511.94"
   height="17.653"
   id="rect497" />
</g>
<polygon
   style="fill:#ff4b55"
   points="65.282,153.519 76.498,120.678 87.713,153.519 120.557,164.734 87.713,175.949 76.498,208.791 65.282,175.949 32.438,164.734 "
   id="polygon501"
   transform="translate(0,-88.294)" />
<path
   style="fill:#f5f5f5"
   d="m 76.498,38.286 9.713,28.441 28.441,9.713 -28.441,9.713 -9.713,28.441 L 66.785,86.153 38.344,76.44 66.785,66.727 76.498,38.286 m 0,-11.807 -3.611,10.573 -9.107,26.67 -26.67,9.107 -10.573,3.61 10.573,3.61 26.67,9.107 9.107,26.67 3.611,10.573 3.611,-10.573 9.107,-26.67 26.67,-9.107 10.573,-3.61 -10.573,-3.61 -26.67,-9.107 -9.107,-26.669 z"
   id="path503" />
<g
   id="g505">
</g>
<g
   id="g507">
</g>
<g
   id="g509">
</g>
<g
   id="g511">
</g>
<g
   id="g513">
</g>
<g
   id="g515">
</g>
<g
   id="g517">
</g>
<g
   id="g519">
</g>
<g
   id="g521">
</g>
<g
   id="g523">
</g>
<g
   id="g525">
</g>
<g
   id="g527">
</g>
<g
   id="g529">
</g>
<g
   id="g531">
</g>
<g
   id="g533">
</g>
</svg>
