<?xml version="1.0" encoding="UTF-8" standalone="no"?>
<svg
   xmlns:dc="http://purl.org/dc/elements/1.1/"
   xmlns:cc="http://creativecommons.org/ns#"
   xmlns:rdf="http://www.w3.org/1999/02/22-rdf-syntax-ns#"
   xmlns:svg="http://www.w3.org/2000/svg"
   xmlns="http://www.w3.org/2000/svg"
   xmlns:sodipodi="http://sodipodi.sourceforge.net/DTD/sodipodi-0.dtd"
   xmlns:inkscape="http://www.inkscape.org/namespaces/inkscape"
   version="1.1"
   id="Layer_1"
   x="0px"
   y="0px"
   viewBox="0 0 512 335.45001"
   xml:space="preserve"
   sodipodi:docname="andorra-svgrepo-com.svg"
   width="512"
   height="335.45001"
   inkscape:version="1.0.1 (c497b03c, 2020-09-10)"><metadata
   id="metadata228"><rdf:RDF><cc:Work
       rdf:about=""><dc:format>image/svg+xml</dc:format><dc:type
         rdf:resource="http://purl.org/dc/dcmitype/StillImage" /><dc:title></dc:title></cc:Work></rdf:RDF></metadata><defs
   id="defs226" /><sodipodi:namedview
   pagecolor="#ffffff"
   bordercolor="#666666"
   borderopacity="1"
   objecttolerance="10"
   gridtolerance="10"
   guidetolerance="10"
   inkscape:pageopacity="0"
   inkscape:pageshadow="2"
   inkscape:window-width="1797"
   inkscape:window-height="983"
   id="namedview224"
   showgrid="false"
   inkscape:zoom="1.640625"
   inkscape:cx="256"
   inkscape:cy="256"
   inkscape:window-x="0"
   inkscape:window-y="23"
   inkscape:window-maximized="0"
   inkscape:current-layer="Layer_1" />
<path
   style="fill:#41479b"
   d="M 36.364,335.4 H 170.666 V 0.00299695 H 38.345 C 17.167,0.00299695 0,17.169997 0,38.347997 V 297.107 c 0,20.512 16.108,37.263 36.364,38.293 z"
   id="path81" />
<rect
   x="170.67"
   y="0"
   style="fill:#ffe15a"
   width="170.67"
   height="335.39001"
   id="rect83" />
<path
   style="fill:#ff4b55"
   d="M 475.636,335.4 C 495.892,334.37 512,317.619 512,297.106 V 38.347997 C 512,17.170997 494.833,0.00299695 473.655,0.00299695 H 341.334 V 335.4 Z"
   id="path85" />
<path
   style="fill:#dcbe82"
   d="m 316.023,196.367 c 0,-2.562 -2.077,-4.64 -4.64,-4.64 -0.556,0 -1.082,0.114 -1.577,0.294 -2.296,-2.042 -6.457,-7.11 -2.282,-14.264 0.564,0.439 1.265,0.711 2.035,0.711 1.841,0 3.332,-1.492 3.332,-3.332 0,-1.454 -0.937,-2.678 -2.236,-3.133 3.431,-1.75 8.324,-5.465 8.072,-12.412 -0.359,-9.852 -8.429,-15.29 -13.38,-13.116 0.018,-0.138 0.042,-0.274 0.042,-0.416 0,-1.815 -1.471,-3.286 -3.286,-3.286 -1.116,0 -2.098,0.559 -2.691,1.409 -0.202,-0.985 -0.178,-2.814 2.112,-4.791 4.253,-3.673 9.086,-12.469 0.29,-18.655 -4.871,-3.425 -14.182,-5.066 -17.301,-0.386 -1.353,2.029 -0.268,4.945 1.277,5.6 -2.489,1.388 -7.211,3.471 -10.942,1.843 -5.316,-2.319 -2.246,-6.926 -1.063,-8.989 2.078,-3.625 0.774,-9.569 -6.186,-9.569 -4.64,0 -6.959,4.64 -11.598,4.64 -4.639,0 -6.959,-4.64 -11.598,-4.64 -6.959,0 -8.264,5.944 -6.186,9.569 1.183,2.062 4.253,6.669 -1.063,8.989 -3.731,1.629 -8.452,-0.455 -10.942,-1.843 1.544,-0.654 2.63,-3.57 1.277,-5.6 -3.119,-4.679 -12.43,-3.039 -17.301,0.386 -8.796,6.186 -3.962,14.982 0.29,18.655 2.29,1.977 2.314,3.807 2.112,4.791 -0.594,-0.85 -1.576,-1.409 -2.691,-1.409 -1.815,0 -3.286,1.471 -3.286,3.286 0,0.142 0.024,0.279 0.042,0.416 -4.951,-2.175 -13.022,3.264 -13.38,13.116 -0.253,6.946 4.641,10.662 8.072,12.412 -1.299,0.456 -2.236,1.679 -2.236,3.133 0,1.841 1.492,3.332 3.332,3.332 0.77,0 1.47,-0.271 2.035,-0.711 4.175,7.155 0.015,12.222 -2.282,14.264 -0.494,-0.18 -1.021,-0.294 -1.577,-0.294 -2.562,0 -4.64,2.077 -4.64,4.64 0,2.406 1.837,4.361 4.182,4.594 -3.198,3.285 -6.067,10.525 0.168,18.749 6.814,8.989 23.052,8.264 30.881,8.554 4.964,0.184 8.698,2.754 10.771,4.614 -1.325,0.817 -2.217,2.269 -2.217,3.94 0,2.343 1.743,4.26 4,4.575 0.82,1.312 2.265,2.191 3.926,2.191 1.856,0 3.445,-1.097 4.188,-2.673 2.45,2.019 4.125,2.866 4.125,2.866 0,0 1.675,-0.846 4.125,-2.866 0.742,1.575 2.332,2.673 4.188,2.673 1.661,0 3.106,-0.879 3.926,-2.191 2.257,-0.314 4,-2.232 4,-4.575 0,-1.672 -0.892,-3.124 -2.217,-3.94 2.072,-1.859 5.806,-4.43 10.771,-4.614 7.829,-0.29 24.067,0.435 30.881,-8.554 6.234,-8.224 3.366,-15.465 0.168,-18.749 2.341,-0.234 4.178,-2.188 4.178,-4.594 z"
   id="path87" />
<path
   style="fill:#d2aa73"
   d="m 214.246,136.779 v 67.273 c 0,7.687 6.231,13.919 13.919,13.919 h 18.558 c 6.959,0 9.279,4.64 9.279,4.64 0,0 2.319,-4.64 9.279,-4.64 h 18.558 c 7.687,0 13.919,-6.231 13.919,-13.919 v -67.273 c 0,-1.281 -1.038,-2.319 -2.319,-2.319 h -78.871 c -1.284,-0.002 -2.322,1.038 -2.322,2.319 z"
   id="path89" />
<g
   id="g95"
   transform="translate(0,-88.300003)">
	<rect
   x="218.88"
   y="227.39999"
   style="fill:#ff4b55"
   width="34.796001"
   height="34.796001"
   id="rect91" />
	<path
   style="fill:#ff4b55"
   d="m 253.681,301.629 v 0 c -19.218,0 -34.796,-15.578 -34.796,-34.796 v 0 h 34.796 z"
   id="path93" />
</g>
<g
   id="g101"
   transform="translate(0,-88.300003)">
	<path
   style="fill:#ffe15a"
   d="m 258.321,301.629 v 0 -34.796 h 34.796 v 0 c -0.001,19.218 -15.58,34.796 -34.796,34.796 z"
   id="path97" />
	<rect
   x="258.32001"
   y="227.39999"
   style="fill:#ffe15a"
   width="4.9710002"
   height="34.796001"
   id="rect99" />
</g>
<rect
   x="263.29001"
   y="139.09999"
   style="fill:#ff4b55"
   width="4.9710002"
   height="34.796001"
   id="rect103" />
<rect
   x="268.26001"
   y="139.09999"
   style="fill:#ffe15a"
   width="4.9710002"
   height="34.796001"
   id="rect105" />
<rect
   x="273.23999"
   y="139.09999"
   style="fill:#ff4b55"
   width="4.9710002"
   height="34.796001"
   id="rect107" />
<g
   id="g113"
   transform="translate(0,-88.300003)">
	<rect
   x="278.20001"
   y="227.39999"
   style="fill:#ffe15a"
   width="4.9710002"
   height="34.796001"
   id="rect109" />
	<rect
   x="288.14001"
   y="227.39999"
   style="fill:#ffe15a"
   width="4.9710002"
   height="34.796001"
   id="rect111" />
</g>
<g
   id="g119"
   transform="translate(0,-88.300003)">
	<rect
   x="283.17999"
   y="227.39999"
   style="fill:#ff4b55"
   width="4.9710002"
   height="34.796001"
   id="rect115" />
	<rect
   x="230.48"
   y="266.84"
   style="fill:#ff4b55"
   width="3.8659999"
   height="34.796001"
   id="rect117" />
</g>
<g
   id="g125"
   transform="translate(0,-88.300003)">
	<rect
   x="234.35001"
   y="266.84"
   style="fill:#ffe15a"
   width="3.8659999"
   height="34.796001"
   id="rect121" />
	<rect
   x="242.09"
   y="266.84"
   style="fill:#ffe15a"
   width="3.8659999"
   height="34.796001"
   id="rect123" />
</g>
<rect
   x="238.21001"
   y="178.53999"
   style="fill:#ff4b55"
   width="3.8659999"
   height="34.796001"
   id="rect127" />
<rect
   x="249.81"
   y="178.53999"
   style="fill:#ffe15a"
   width="3.8659999"
   height="34.796001"
   id="rect129" />
<rect
   x="245.95"
   y="178.53999"
   style="fill:#ff4b55"
   width="3.8659999"
   height="34.796001"
   id="rect131" />
<path
   style="fill:#ffe15a"
   d="m 222.751,211.559 v -33.026 h -3.866 v 25.517 c -0.001,3.099 1.532,5.824 3.866,7.509 z"
   id="path133" />
<path
   style="fill:#ff4b55"
   d="m 226.617,213.174 v -34.641 h -3.866 v 33.026 c 1.127,0.815 2.437,1.374 3.866,1.615 z"
   id="path135" />
<path
   style="fill:#ffe15a"
   d="m 226.617,178.533 v 34.641 c 0.505,0.085 1.016,0.156 1.547,0.156 h 2.319 v -34.796 z"
   id="path137" />
<g
   id="g143"
   transform="translate(0,-88.300003)">
	<path
   style="fill:#f5f5f5"
   d="m 224.071,260.218 c -0.173,0 -0.348,-0.049 -0.503,-0.151 -2.281,-1.509 -2.414,-3.082 -2.29,-3.884 0.167,-1.084 0.973,-1.983 2.053,-2.292 1.028,-0.289 2.054,0.014 2.746,0.819 1.44,1.674 2.927,2.333 4.179,1.87 0.991,-0.367 1.582,-1.344 1.582,-2.074 0,-0.505 0.408,-0.914 0.914,-0.914 0.506,0 0.914,0.408 0.914,0.914 0,1.598 -1.166,3.191 -2.774,3.787 -1.175,0.434 -3.538,0.702 -6.2,-2.391 -0.286,-0.33 -0.622,-0.32 -0.86,-0.254 -0.324,0.093 -0.683,0.381 -0.749,0.812 -0.097,0.63 0.447,1.388 1.492,2.081 0.422,0.278 0.536,0.846 0.258,1.267 -0.175,0.265 -0.466,0.41 -0.762,0.41 z"
   id="path139" />
	<path
   style="fill:#f5f5f5"
   d="m 248.604,260.218 c -0.296,0 -0.587,-0.145 -0.762,-0.408 -0.278,-0.422 -0.163,-0.989 0.258,-1.267 1.045,-0.693 1.589,-1.451 1.492,-2.081 -0.067,-0.431 -0.425,-0.719 -0.749,-0.812 -0.238,-0.066 -0.575,-0.077 -0.86,0.254 -2.662,3.095 -5.026,2.827 -6.2,2.391 -1.608,-0.596 -2.774,-2.19 -2.774,-3.787 0,-0.505 0.408,-0.914 0.914,-0.914 0.505,0 0.914,0.408 0.914,0.914 0,0.73 0.591,1.706 1.582,2.074 1.252,0.465 2.74,-0.196 4.179,-1.87 0.693,-0.809 1.719,-1.11 2.746,-0.819 1.08,0.309 1.887,1.208 2.053,2.292 0.124,0.801 -0.009,2.374 -2.29,3.884 -0.155,0.099 -0.33,0.149 -0.503,0.149 z"
   id="path141" />
</g>
<g
   id="g149"
   transform="translate(0,-88.300003)">
	<path
   style="fill:#ffe15a"
   d="m 223.567,261.304 c -0.193,0 -0.387,-0.061 -0.553,-0.185 -0.402,-0.307 -0.479,-0.879 -0.174,-1.281 l 19.864,-26.119 c 0.19,-0.343 0.262,-0.818 0.344,-1.365 0.153,-1.026 0.345,-2.303 1.911,-3.245 1.021,-0.612 2.232,-0.595 3.245,0.052 1.118,0.714 1.777,2.044 1.641,3.309 -0.082,0.769 -0.531,2.172 -2.612,2.943 -0.476,0.177 -1,-0.067 -1.174,-0.538 -0.175,-0.473 0.066,-1 0.538,-1.174 0.607,-0.225 1.348,-0.655 1.43,-1.425 0.063,-0.584 -0.269,-1.229 -0.808,-1.575 -0.301,-0.193 -0.774,-0.358 -1.319,-0.025 -0.829,0.498 -0.911,1.044 -1.047,1.949 -0.096,0.641 -0.205,1.367 -0.633,2.106 l -19.927,26.214 c -0.176,0.233 -0.45,0.359 -0.726,0.359 z"
   id="path145" />
	<polygon
   style="fill:#ffe15a"
   points="230.925,254.506 241.891,254.506 245.547,243.54 236.408,232.575 227.271,243.54 "
   id="polygon147" />
</g>
<path
   style="fill:#f5f5f5"
   d="m 236.408,142.848 -10.166,12.199 4.024,12.074 h 12.282 l 4.024,-12.074 z m -8.11,12.588 7.197,-8.636 v 18.493 h -3.911 z m 12.935,9.857 h -3.911 V 146.8 l 7.197,8.636 z"
   id="path151" />
<path
   style="fill:#ff4b55"
   d="m 284.562,189.519 0.138,-2.027 c 0,0 1.798,-1.29 0.921,-2.488 -0.875,-1.198 -1.889,-1.429 -4.009,-1.152 -2.12,0.277 -5.438,0.231 -6.866,0.322 -1.429,0.093 -2.166,0.875 -4.424,0.231 l 0.599,-1.383 c 0,0 -1.059,0.093 -1.705,0.415 -0.352,0.177 -1.198,-0.968 -2.027,-0.783 -0.826,0.183 -1.659,1.889 -2.95,2.765 l 0.691,1.383 c 0,0 0.783,-0.369 1.383,0.046 0.599,0.415 0.783,0.691 1.798,0.691 l 0.646,0.277 c 0,0 -0.231,1.474 0.737,2.166 0,0 -1.106,1.429 -0.968,1.659 0.138,0.231 1.059,1.982 1.429,2.995 l 0.83,-1.567 c 0,0 -1.245,-1.106 -1.014,-1.245 0.231,-0.138 1.059,-0.322 0.921,-0.691 -0.138,-0.369 0.646,0.046 1.521,0.184 0,0 0.046,1.383 0.231,1.567 0.185,0.184 0.461,0.921 0.415,1.705 -0.046,0.783 -0.737,1.014 -0.737,1.014 l 1.245,0.369 c 0,0 0.322,-0.461 0.553,-0.415 0,0 -0.093,-3.825 0.415,-4.424 0,0 2.995,0.599 4.377,-0.138 0,0 0.177,0.223 0.522,0.435 -0.138,0.321 -0.255,0.641 -0.203,0.735 0.116,0.209 0.486,0.185 0.578,-0.046 0.035,-0.087 0.089,-0.266 0.143,-0.451 0.167,0.055 0.35,0.098 0.559,0.119 -0.02,0.291 -0.022,0.559 0.045,0.621 0.174,0.161 0.519,0.024 0.535,-0.225 0.006,-0.081 0.002,-0.234 -0.002,-0.398 0.238,-0.02 0.492,-0.062 0.772,-0.145 l -1.567,2.581 -0.783,0.322 1.014,0.507 0.921,-0.369 c 0,0 0.875,-2.212 2.304,-2.857 0,0 0.968,2.304 -0.231,3.549 l 1.059,0.599 0.507,-1.059 c 0,0 -0.184,-2.073 0.507,-3.41 z"
   id="path153" />
<g
   id="g171"
   transform="translate(0,-88.300003)">
	<path
   style="fill:#4173cd"
   d="m 267.209,271.235 c 0,0 -0.462,-0.439 -0.578,-1.017 -0.116,-0.578 -0.255,-0.833 -0.764,-0.994 0,0 0.323,0.37 0.278,0.948 -0.046,0.578 0,1.365 0.323,1.619 z"
   id="path155" />
	<path
   style="fill:#4173cd"
   d="m 271.233,272.865 c 0,0 -0.629,2.138 -2.477,3.25 l -0.646,-0.277 c 0,0 1.973,-1.686 2.212,-3.134 z"
   id="path157" />
	<path
   style="fill:#4173cd"
   d="m 268.087,271.743 c -0.066,-0.068 0.81,-0.323 0.601,-1.017 -0.209,-0.694 -0.209,-1.203 0.209,-1.526 0,0 0.046,0.578 0.37,0.948 0.323,0.37 0.509,1.295 -0.023,1.827 10e-4,-0.001 -0.532,0.416 -1.157,-0.232 z"
   id="path159" />
	<path
   style="fill:#4173cd"
   d="m 268.188,278.049 v 0 c -0.11,-0.054 -0.157,-0.189 -0.102,-0.299 l 0.279,-0.568 c 0.163,-0.333 0.055,-0.747 -0.266,-0.932 -0.353,-0.203 -0.797,-0.063 -0.973,0.296 l -0.29,0.59 c -0.054,0.11 -0.189,0.157 -0.299,0.102 l -0.174,0.354 c 0,0 0.256,0.126 0.566,0.278 l -0.007,0.013 c -0.071,0.143 -0.011,0.317 0.132,0.387 0.143,0.071 0.317,0.011 0.387,-0.132 l 0.007,-0.013 c 0.31,0.152 0.566,0.278 0.566,0.278 z"
   id="path161" />
	<polygon
   style="fill:#4173cd"
   points="270.539,283.864 269.954,282.935 270.424,281.944 271.117,282.083 "
   id="polygon163" />
	<polygon
   style="fill:#4173cd"
   points="273.362,284.65 273.365,284.271 272.12,283.902 271.697,284.65 "
   id="polygon165" />
	<polygon
   style="fill:#4173cd"
   points="278.433,283.794 279.347,282.881 280.322,283.35 280.322,283.794 "
   id="polygon167" />
	<polygon
   style="fill:#4173cd"
   points="284.349,284.605 284.377,284.271 283.318,283.672 282.385,284.605 "
   id="polygon169" />
</g>
<path
   style="fill:#ff4b55"
   d="m 284.562,203.958 0.138,-2.027 c 0,0 1.798,-1.29 0.921,-2.488 -0.875,-1.198 -1.889,-1.429 -4.009,-1.152 -2.12,0.277 -5.438,0.231 -6.866,0.322 -1.429,0.093 -2.166,0.875 -4.424,0.231 l 0.599,-1.383 c 0,0 -1.059,0.093 -1.705,0.415 -0.352,0.177 -1.198,-0.968 -2.027,-0.783 -0.826,0.183 -1.659,1.889 -2.95,2.765 l 0.691,1.383 c 0,0 0.783,-0.369 1.383,0.046 0.599,0.415 0.783,0.691 1.798,0.691 l 0.646,0.277 c 0,0 -0.231,1.474 0.737,2.166 0,0 -1.106,1.429 -0.968,1.658 0.138,0.231 1.059,1.982 1.429,2.995 l 0.83,-1.567 c 0,0 -1.245,-1.106 -1.014,-1.245 0.231,-0.139 1.059,-0.322 0.921,-0.691 -0.138,-0.369 0.646,0.046 1.521,0.184 0,0 0.046,1.383 0.231,1.567 0.184,0.184 0.461,0.921 0.415,1.705 -0.046,0.783 -0.737,1.014 -0.737,1.014 l 1.245,0.369 c 0,0 0.322,-0.461 0.553,-0.415 0,0 -0.093,-3.825 0.415,-4.424 0,0 2.995,0.599 4.377,-0.138 0,0 0.177,0.223 0.522,0.435 -0.138,0.321 -0.255,0.641 -0.203,0.735 0.116,0.209 0.486,0.185 0.578,-0.046 0.035,-0.087 0.089,-0.266 0.143,-0.451 0.167,0.055 0.35,0.098 0.559,0.119 -0.02,0.291 -0.022,0.559 0.045,0.621 0.174,0.161 0.519,0.024 0.535,-0.225 0.006,-0.081 0.002,-0.234 -0.002,-0.398 0.238,-0.02 0.492,-0.062 0.772,-0.145 l -1.567,2.581 -0.783,0.322 1.014,0.507 0.921,-0.369 c 0,0 0.875,-2.212 2.304,-2.857 0,0 0.968,2.304 -0.231,3.549 l 1.059,0.599 0.507,-1.059 c 0,0 -0.184,-2.073 0.507,-3.41 z"
   id="path173" />
<g
   id="g191"
   transform="translate(0,-88.300003)">
	<path
   style="fill:#4173cd"
   d="m 267.209,285.673 c 0,0 -0.462,-0.439 -0.578,-1.017 -0.116,-0.578 -0.255,-0.833 -0.764,-0.994 0,0 0.323,0.37 0.278,0.948 -0.046,0.578 0,1.365 0.323,1.619 z"
   id="path175" />
	<path
   style="fill:#4173cd"
   d="m 271.233,287.303 c 0,0 -0.629,2.138 -2.477,3.25 l -0.646,-0.277 c 0,0 1.973,-1.686 2.212,-3.134 z"
   id="path177" />
	<path
   style="fill:#4173cd"
   d="m 268.087,286.182 c -0.066,-0.068 0.81,-0.323 0.601,-1.017 -0.209,-0.694 -0.209,-1.203 0.209,-1.527 0,0 0.046,0.578 0.37,0.948 0.324,0.37 0.509,1.295 -0.023,1.827 10e-4,0 -0.532,0.417 -1.157,-0.231 z"
   id="path179" />
	<path
   style="fill:#4173cd"
   d="m 268.188,292.487 v 0 c -0.11,-0.054 -0.157,-0.189 -0.102,-0.299 l 0.279,-0.568 c 0.163,-0.333 0.055,-0.747 -0.266,-0.932 -0.353,-0.203 -0.797,-0.063 -0.973,0.296 l -0.29,0.59 c -0.054,0.11 -0.189,0.157 -0.299,0.102 l -0.174,0.354 c 0,0 0.256,0.126 0.566,0.278 l -0.007,0.013 c -0.071,0.143 -0.011,0.317 0.132,0.387 0.143,0.071 0.317,0.011 0.387,-0.132 l 0.007,-0.013 c 0.31,0.152 0.566,0.278 0.566,0.278 z"
   id="path181" />
	<polygon
   style="fill:#4173cd"
   points="270.539,298.302 269.954,297.373 270.424,296.382 271.117,296.521 "
   id="polygon183" />
	<polygon
   style="fill:#4173cd"
   points="273.362,299.089 273.365,298.71 272.12,298.341 271.697,299.089 "
   id="polygon185" />
	<polygon
   style="fill:#4173cd"
   points="278.433,298.233 279.347,297.319 280.322,297.788 280.322,298.233 "
   id="polygon187" />
	<polygon
   style="fill:#4173cd"
   points="284.349,299.044 284.377,298.71 283.318,298.11 282.385,299.044 "
   id="polygon189" />
</g>
<g
   id="g193">
</g>
<g
   id="g195">
</g>
<g
   id="g197">
</g>
<g
   id="g199">
</g>
<g
   id="g201">
</g>
<g
   id="g203">
</g>
<g
   id="g205">
</g>
<g
   id="g207">
</g>
<g
   id="g209">
</g>
<g
   id="g211">
</g>
<g
   id="g213">
</g>
<g
   id="g215">
</g>
<g
   id="g217">
</g>
<g
   id="g219">
</g>
<g
   id="g221">
</g>
</svg>
