<?xml version="1.0" encoding="UTF-8" standalone="no"?>
<svg
   xmlns:dc="http://purl.org/dc/elements/1.1/"
   xmlns:cc="http://creativecommons.org/ns#"
   xmlns:rdf="http://www.w3.org/1999/02/22-rdf-syntax-ns#"
   xmlns:svg="http://www.w3.org/2000/svg"
   xmlns="http://www.w3.org/2000/svg"
   xmlns:sodipodi="http://sodipodi.sourceforge.net/DTD/sodipodi-0.dtd"
   xmlns:inkscape="http://www.inkscape.org/namespaces/inkscape"
   version="1.1"
   id="Layer_1"
   x="0px"
   y="0px"
   viewBox="0 0 512 335.45001"
   xml:space="preserve"
   sodipodi:docname="azores.svg"
   width="512"
   height="335.45001"
   inkscape:version="1.0.1 (c497b03c, 2020-09-10)"><metadata
   id="metadata103"><rdf:RDF><cc:Work
       rdf:about=""><dc:format>image/svg+xml</dc:format><dc:type
         rdf:resource="http://purl.org/dc/dcmitype/StillImage" /><dc:title></dc:title></cc:Work></rdf:RDF></metadata><defs
   id="defs101" /><sodipodi:namedview
   pagecolor="#ffffff"
   bordercolor="#666666"
   borderopacity="1"
   objecttolerance="10"
   gridtolerance="10"
   guidetolerance="10"
   inkscape:pageopacity="0"
   inkscape:pageshadow="2"
   inkscape:window-width="2560"
   inkscape:window-height="984"
   id="namedview99"
   showgrid="false"
   inkscape:zoom="1.640625"
   inkscape:cx="256"
   inkscape:cy="256"
   inkscape:window-x="0"
   inkscape:window-y="23"
   inkscape:window-maximized="1"
   inkscape:current-layer="Layer_1" />
<path
   style="fill:#41479b"
   d="M 38.292,0 C 17.807,0 1.077,16.061 0,36.277 V 299.21 c 1.077,20.215 17.807,36.277 38.292,36.277 H 203.058 V 334.383 0 Z"
   id="path10" />
<path
   style="fill:#f5f5f5"
   d="M 473.651,0 H 203.057 V 334.382 H 482.784 C 499.553,330.284 512,315.168 512,297.137 V 38.349 C 512,17.169 494.831,0 473.651,0 Z"
   id="path12" />
<g
   id="g34"
   transform="translate(0,-88.256)">
	<path
   style="fill:#ffe15a"
   d="m 262.615,254.072 c -3.717,0 -7.322,1.265 -10.225,3.587 l -17.604,14.084 c -2.902,2.322 -6.508,3.587 -10.225,3.587 h -4.887 v -2.811 c 0,-4.317 3.499,-7.818 7.818,-7.818 h 8.126 v -3.789 c 0,-3.778 -3.062,-6.84 -6.84,-6.84 h -3.789 v 0 c 0,-2.934 -2.379,-5.314 -5.314,-5.314 v 0 c -14.674,0 -26.571,11.896 -26.571,26.571 h -10.201 c -3.716,0 -7.322,-1.265 -10.223,-3.587 l -17.605,-14.084 c -2.902,-2.322 -6.508,-3.587 -10.223,-3.587 H 67.328 c -2.612,0 -3.92,3.157 -2.073,5.005 l 26.832,26.832 c 3.433,3.433 8.09,5.362 12.945,5.362 h 18.988 l 15.588,11.691 c 3.679,2.76 8.154,4.251 12.754,4.251 h 19.486 c 3.345,0 6.496,-1.575 8.502,-4.251 l 2.125,-2.834 v 12.4 l -13.114,26.229 c -1.3,2.599 0.59,5.657 3.496,5.657 h 42.908 c 2.159,0 3.909,-1.75 3.909,-3.909 v -47.462 l 7.44,9.92 c 2.007,2.676 5.157,4.251 8.503,4.251 h 19.486 c 4.6,0 9.075,-1.492 12.754,-4.251 l 15.588,-11.691 h 18.988 c 4.856,0 9.512,-1.929 12.945,-5.362 l 26.832,-26.832 c 1.846,-1.846 0.539,-5.005 -2.073,-5.005 z"
   id="path14" />
	<path
   style="fill:#ffe15a"
   d="m 204.759,167.967 2.54,7.618 8.031,0.062 c 1.04,0.008 1.471,1.335 0.635,1.952 l -6.46,4.771 2.422,7.657 c 0.313,0.991 -0.816,1.811 -1.661,1.206 l -6.533,-4.669 -6.533,4.669 c -0.845,0.605 -1.974,-0.215 -1.661,-1.206 l 2.422,-7.657 -6.46,-4.771 c -0.837,-0.618 -0.405,-1.944 0.635,-1.952 l 8.031,-0.062 2.54,-7.618 c 0.328,-0.987 1.723,-0.987 2.052,0 z"
   id="path16" />
	<path
   style="fill:#ffe15a"
   d="m 86.799,215.977 7.183,3.59 5.722,-5.635 c 0.74,-0.729 1.984,-0.096 1.83,0.933 l -1.195,7.941 7.127,3.701 c 0.923,0.479 0.704,1.857 -0.321,2.027 l -7.921,1.318 -1.318,7.921 c -0.171,1.025 -1.548,1.244 -2.027,0.321 l -3.701,-7.127 -7.941,1.195 c -1.029,0.155 -1.662,-1.088 -0.933,-1.83 l 5.635,-5.722 -3.59,-7.183 c -0.467,-0.928 0.52,-1.915 1.45,-1.45 z"
   id="path18" />
	<path
   style="fill:#ffe15a"
   d="m 322.117,217.429 -3.59,7.183 5.634,5.722 c 0.729,0.741 0.096,1.984 -0.933,1.83 l -7.941,-1.195 -3.701,7.127 c -0.479,0.923 -1.857,0.704 -2.027,-0.321 l -1.318,-7.921 -7.921,-1.318 c -1.025,-0.171 -1.244,-1.548 -0.321,-2.027 l 7.127,-3.701 -1.195,-7.941 c -0.155,-1.029 1.088,-1.662 1.83,-0.933 l 5.722,5.635 7.183,-3.59 c 0.929,-0.467 1.916,0.52 1.451,1.45 z"
   id="path20" />
	<path
   style="fill:#ffe15a"
   d="m 141.003,180.24 5.263,6.066 7.443,-3.016 c 0.963,-0.391 1.869,0.67 1.333,1.562 l -4.143,6.88 5.168,6.147 c 0.669,0.796 -0.06,1.985 -1.073,1.75 l -7.823,-1.814 -4.249,6.815 c -0.55,0.882 -1.907,0.556 -1.996,-0.479 l -0.692,-8.001 -7.793,-1.936 c -1.009,-0.251 -1.119,-1.641 -0.161,-2.047 l 7.395,-3.131 -0.568,-8.011 c -0.073,-1.037 1.215,-1.57 1.896,-0.785 z"
   id="path22" />
	<path
   style="fill:#ffe15a"
   d="m 268.358,181.026 -0.568,8.011 7.395,3.131 c 0.958,0.405 0.848,1.797 -0.161,2.047 l -7.793,1.936 -0.692,8.001 c -0.089,1.036 -1.446,1.362 -1.996,0.479 l -4.249,-6.815 -7.823,1.814 c -1.013,0.235 -1.741,-0.955 -1.073,-1.75 l 5.168,-6.147 -4.143,-6.88 c -0.536,-0.891 0.37,-1.951 1.333,-1.562 l 7.442,3.016 5.263,-6.066 c 0.681,-0.786 1.97,-0.253 1.897,0.785 z"
   id="path24" />
	<path
   style="fill:#ffe15a"
   d="m 172.276,170.964 3.978,6.976 7.888,-1.505 c 1.021,-0.195 1.703,1.022 1.003,1.791 l -5.405,5.939 3.869,7.036 c 0.501,0.912 -0.446,1.936 -1.394,1.507 l -7.319,-3.305 -5.497,5.854 c -0.712,0.758 -1.979,0.174 -1.864,-0.86 l 0.882,-7.982 -7.267,-3.419 c -0.941,-0.443 -0.777,-1.828 0.242,-2.038 l 7.864,-1.628 1.005,-7.968 c 0.133,-1.029 1.501,-1.301 2.015,-0.398 z"
   id="path26" />
	<path
   style="fill:#ffe15a"
   d="m 297.03,196.579 -2.12,7.746 6.642,4.514 c 0.86,0.584 0.481,1.927 -0.557,1.975 l -8.022,0.377 -2.24,7.712 c -0.29,0.999 -1.684,1.053 -2.052,0.081 l -2.838,-7.512 -8.026,0.253 c -1.04,0.033 -1.522,-1.276 -0.711,-1.926 l 6.268,-5.02 -2.721,-7.555 c -0.352,-0.978 0.744,-1.842 1.612,-1.271 l 6.712,4.41 6.344,-4.923 c 0.824,-0.638 1.984,0.137 1.709,1.139 z"
   id="path28" />
	<path
   style="fill:#ffe15a"
   d="m 112.142,195.439 6.344,4.923 6.712,-4.41 c 0.869,-0.571 1.964,0.292 1.612,1.271 l -2.721,7.555 6.268,5.02 c 0.811,0.65 0.329,1.959 -0.711,1.926 l -8.026,-0.253 -2.838,7.512 c -0.367,0.972 -1.761,0.918 -2.052,-0.081 l -2.239,-7.712 -8.022,-0.377 c -1.038,-0.049 -1.417,-1.392 -0.557,-1.975 l 6.642,-4.514 -2.12,-7.746 c -0.274,-1.001 0.886,-1.776 1.708,-1.139 z"
   id="path30" />
	<path
   style="fill:#ffe15a"
   d="m 237.201,171.365 1.005,7.968 7.864,1.628 c 1.019,0.211 1.182,1.596 0.242,2.038 l -7.267,3.419 0.882,7.982 c 0.114,1.033 -1.153,1.618 -1.864,0.86 l -5.497,-5.854 -7.319,3.305 c -0.948,0.428 -1.895,-0.597 -1.394,-1.507 l 3.869,-7.036 -5.405,-5.939 c -0.7,-0.769 -0.018,-1.986 1.003,-1.791 l 7.888,1.505 3.978,-6.976 c 0.517,-0.906 1.884,-0.634 2.015,0.398 z"
   id="path32" />
</g>
<path
   style="fill:#ff4b55"
   d="m 72.189,37.911 v 22.852 c 0,9.45 -7.689,17.138 -17.138,17.138 -9.449,0 -17.138,-7.689 -17.138,-17.138 V 37.911 H 72.189 M 77.901,26.486 H 32.199 c -3.155,0 -5.713,2.558 -5.713,5.713 v 28.565 c 0,15.776 12.789,28.565 28.565,28.565 15.776,0 28.565,-12.789 28.565,-28.565 V 32.199 c -0.002,-3.155 -2.56,-5.713 -5.715,-5.713 z"
   id="path36" />
<path
   style="fill:#f5f5f5"
   d="m 72.189,37.911 v 22.852 c 0,9.45 -7.689,17.138 -17.138,17.138 -9.449,0 -17.138,-7.689 -17.138,-17.138 V 37.911 h 34.276"
   id="path38" />
<g
   id="g54"
   transform="translate(0,-88.256)">
	<circle
   style="fill:#ffe15a"
   cx="32.16"
   cy="120.449"
   r="2.8559999"
   id="circle40" />
	<circle
   style="fill:#ffe15a"
   cx="77.857002"
   cy="120.449"
   r="2.8559999"
   id="circle42" />
	<circle
   style="fill:#ffe15a"
   cx="32.16"
   cy="143.30901"
   r="2.8559999"
   id="circle44" />
	<circle
   style="fill:#ffe15a"
   cx="77.857002"
   cy="143.30901"
   r="2.8559999"
   id="circle46" />
	<circle
   style="fill:#ffe15a"
   cx="55.009998"
   cy="120.449"
   r="2.8559999"
   id="circle48" />
	<circle
   style="fill:#ffe15a"
   cx="72.150002"
   cy="164.379"
   r="2.8559999"
   id="circle50" />
	<circle
   style="fill:#ffe15a"
   cx="38.189999"
   cy="164.379"
   r="2.8559999"
   id="circle52" />
</g>
<g
   id="g66"
   transform="translate(0,-88.256)">
	<path
   style="fill:#41479b"
   d="m 58.74,141.858 v 4.92 c 0,2.034 -1.655,3.689 -3.689,3.689 -2.034,0 -3.689,-1.655 -3.689,-3.689 v -4.92 h 7.378"
   id="path56" />
	<path
   style="fill:#41479b"
   d="m 58.74,130.194 v 4.92 c 0,2.034 -1.655,3.689 -3.689,3.689 -2.034,0 -3.689,-1.655 -3.689,-3.689 v -4.92 h 7.378"
   id="path58" />
	<path
   style="fill:#41479b"
   d="m 58.74,153.641 v 4.92 c 0,2.034 -1.655,3.689 -3.689,3.689 -2.034,0 -3.689,-1.655 -3.689,-3.689 v -4.92 h 7.378"
   id="path60" />
	<path
   style="fill:#41479b"
   d="m 68.677,141.858 v 4.92 c 0,2.034 -1.655,3.689 -3.689,3.689 -2.034,0 -3.689,-1.655 -3.689,-3.689 v -4.92 h 7.378"
   id="path62" />
	<path
   style="fill:#41479b"
   d="m 48.802,141.858 v 4.92 c 0,2.034 -1.655,3.689 -3.689,3.689 -2.034,0 -3.689,-1.655 -3.689,-3.689 v -4.92 h 7.378"
   id="path64" />
</g>
<g
   id="g68">
</g>
<g
   id="g70">
</g>
<g
   id="g72">
</g>
<g
   id="g74">
</g>
<g
   id="g76">
</g>
<g
   id="g78">
</g>
<g
   id="g80">
</g>
<g
   id="g82">
</g>
<g
   id="g84">
</g>
<g
   id="g86">
</g>
<g
   id="g88">
</g>
<g
   id="g90">
</g>
<g
   id="g92">
</g>
<g
   id="g94">
</g>
<g
   id="g96">
</g>
</svg>
