<?xml version="1.0" encoding="UTF-8" standalone="no"?>
<svg
   xmlns:dc="http://purl.org/dc/elements/1.1/"
   xmlns:cc="http://creativecommons.org/ns#"
   xmlns:rdf="http://www.w3.org/1999/02/22-rdf-syntax-ns#"
   xmlns:svg="http://www.w3.org/2000/svg"
   xmlns="http://www.w3.org/2000/svg"
   xmlns:sodipodi="http://sodipodi.sourceforge.net/DTD/sodipodi-0.dtd"
   xmlns:inkscape="http://www.inkscape.org/namespaces/inkscape"
   version="1.1"
   id="Layer_1"
   x="0px"
   y="0px"
   viewBox="0 0 512 335.45001"
   xml:space="preserve"
   sodipodi:docname="bahrain.svg"
   width="512"
   height="335.45001"
   inkscape:version="1.0.1 (c497b03c, 2020-09-10)"><metadata
   id="metadata96"><rdf:RDF><cc:Work
       rdf:about=""><dc:format>image/svg+xml</dc:format><dc:type
         rdf:resource="http://purl.org/dc/dcmitype/StillImage" /><dc:title></dc:title></cc:Work></rdf:RDF></metadata><defs
   id="defs94" /><sodipodi:namedview
   pagecolor="#ffffff"
   bordercolor="#666666"
   borderopacity="1"
   objecttolerance="10"
   gridtolerance="10"
   guidetolerance="10"
   inkscape:pageopacity="0"
   inkscape:pageshadow="2"
   inkscape:window-width="1797"
   inkscape:window-height="983"
   id="namedview92"
   showgrid="false"
   inkscape:zoom="1.640625"
   inkscape:cx="256"
   inkscape:cy="256"
   inkscape:window-x="0"
   inkscape:window-y="23"
   inkscape:window-maximized="0"
   inkscape:current-layer="Layer_1" />
<path
   style="fill:#f5f5f5"
   d="m 38.345,335.452 h 102.898 l 70.621,-20.966 -70.621,-20.966 70.621,-20.966 -70.621,-20.966 70.621,-20.966 -70.621,-20.966 70.621,-20.966 -70.622,-20.962 70.621,-20.966 L 141.242,125.796 211.863,104.83 141.242,83.864 211.863,62.898 141.242,41.932 211.863,20.966 141.242,0 H 38.345 C 17.167,0.004 0,17.171 0,38.349 v 258.759 c 0,21.177 17.167,38.344 38.345,38.344 z"
   id="path57" />
<path
   style="fill:#ff4b55"
   d="m 141.241,41.935 70.621,20.966 -70.621,20.966 70.621,20.966 -70.621,20.966 70.621,20.966 -70.621,20.963 70.621,20.966 -70.621,20.966 70.621,20.966 -70.621,20.966 70.621,20.966 -70.621,20.966 70.621,20.966 -70.621,20.966 h 332.414 c 21.177,0 38.345,-17.167 38.345,-38.345 V 38.349 C 512,17.172 494.833,0.004 473.655,0.004 H 141.242 l 70.621,20.966 z"
   id="path59" />
<g
   id="g61">
</g>
<g
   id="g63">
</g>
<g
   id="g65">
</g>
<g
   id="g67">
</g>
<g
   id="g69">
</g>
<g
   id="g71">
</g>
<g
   id="g73">
</g>
<g
   id="g75">
</g>
<g
   id="g77">
</g>
<g
   id="g79">
</g>
<g
   id="g81">
</g>
<g
   id="g83">
</g>
<g
   id="g85">
</g>
<g
   id="g87">
</g>
<g
   id="g89">
</g>
</svg>
