<?xml version="1.0" encoding="UTF-8" standalone="no"?>
<svg
   xmlns:dc="http://purl.org/dc/elements/1.1/"
   xmlns:cc="http://creativecommons.org/ns#"
   xmlns:rdf="http://www.w3.org/1999/02/22-rdf-syntax-ns#"
   xmlns:svg="http://www.w3.org/2000/svg"
   xmlns="http://www.w3.org/2000/svg"
   xmlns:sodipodi="http://sodipodi.sourceforge.net/DTD/sodipodi-0.dtd"
   xmlns:inkscape="http://www.inkscape.org/namespaces/inkscape"
   version="1.1"
   id="Layer_1"
   x="0px"
   y="0px"
   viewBox="0 0 512 335.45001"
   xml:space="preserve"
   sodipodi:docname="bosnia-and-herzegovina.svg"
   width="512"
   height="335.45001"
   inkscape:version="1.0.1 (c497b03c, 2020-09-10)"><metadata
   id="metadata1343"><rdf:RDF><cc:Work
       rdf:about=""><dc:format>image/svg+xml</dc:format><dc:type
         rdf:resource="http://purl.org/dc/dcmitype/StillImage" /><dc:title></dc:title></cc:Work></rdf:RDF></metadata><defs
   id="defs1341" /><sodipodi:namedview
   pagecolor="#ffffff"
   bordercolor="#666666"
   borderopacity="1"
   objecttolerance="10"
   gridtolerance="10"
   guidetolerance="10"
   inkscape:pageopacity="0"
   inkscape:pageshadow="2"
   inkscape:window-width="1797"
   inkscape:window-height="983"
   id="namedview1339"
   showgrid="false"
   inkscape:zoom="1.640625"
   inkscape:cx="256"
   inkscape:cy="256"
   inkscape:window-x="0"
   inkscape:window-y="23"
   inkscape:window-maximized="0"
   inkscape:current-layer="Layer_1" />
<path
   style="fill:#41479b"
   d="M 473.655,335.448 H 38.345 C 17.167,335.448 0,318.281 0,297.103 V 38.345 C 0,17.168 17.167,0 38.345,0 h 435.31 C 494.832,0 512,17.167 512,38.345 v 258.759 c 0,21.177 -17.167,38.344 -38.345,38.344 z"
   id="path1282" />
<polygon
   style="fill:#ffe15a"
   points="105.93,88.276 441.378,88.276 441.378,423.724 "
   id="polygon1284"
   transform="translate(0,-88.276)" />
<g
   id="g1306"
   transform="translate(0,-88.276)">
	<path
   style="fill:#f5f5f5"
   d="m 207.351,213.176 5.088,15.254 16.079,0.125 c 1.246,0.01 1.762,1.599 0.76,2.339 l -12.936,9.553 4.851,15.331 c 0.376,1.187 -0.977,2.17 -1.991,1.446 l -13.082,-9.351 -13.082,9.351 c -1.013,0.724 -2.366,-0.258 -1.991,-1.446 l 4.851,-15.331 -12.936,-9.553 c -1.002,-0.74 -0.486,-2.329 0.76,-2.339 l 16.079,-0.125 5.088,-15.254 c 0.397,-1.182 2.068,-1.182 2.462,0 z"
   id="path1286" />
	<path
   style="fill:#f5f5f5"
   d="m 170.57,176.394 5.088,15.254 16.079,0.125 c 1.246,0.01 1.762,1.6 0.76,2.339 l -12.936,9.553 4.851,15.331 c 0.376,1.187 -0.977,2.17 -1.991,1.446 l -13.082,-9.351 -13.082,9.351 c -1.013,0.725 -2.366,-0.258 -1.991,-1.446 l 4.851,-15.331 -12.936,-9.553 c -1.002,-0.74 -0.486,-2.329 0.76,-2.339 l 16.079,-0.125 5.088,-15.254 c 0.396,-1.182 2.068,-1.182 2.462,0 z"
   id="path1288" />
	<path
   style="fill:#f5f5f5"
   d="m 133.789,139.613 5.088,15.254 16.079,0.125 c 1.246,0.01 1.762,1.599 0.76,2.339 l -12.936,9.553 4.851,15.331 c 0.376,1.187 -0.977,2.17 -1.991,1.446 l -13.082,-9.351 -13.082,9.351 c -1.013,0.725 -2.366,-0.258 -1.991,-1.446 l 4.851,-15.331 -12.936,-9.553 c -1.002,-0.74 -0.486,-2.329 0.76,-2.339 l 16.079,-0.125 5.088,-15.254 c 0.395,-1.182 2.067,-1.182 2.462,0 z"
   id="path1290" />
	<path
   style="fill:#f5f5f5"
   d="m 97.006,102.831 5.088,15.254 16.079,0.125 c 1.246,0.01 1.762,1.599 0.76,2.339 l -12.936,9.553 4.851,15.331 c 0.376,1.187 -0.977,2.17 -1.991,1.446 l -13.082,-9.351 -13.082,9.351 c -1.013,0.724 -2.366,-0.258 -1.991,-1.446 l 4.851,-15.331 -12.936,-9.553 c -1.002,-0.74 -0.486,-2.329 0.76,-2.339 l 16.079,-0.125 5.088,-15.254 c 0.397,-1.181 2.068,-1.181 2.462,0 z"
   id="path1292" />
	<path
   style="fill:#f5f5f5"
   d="m 354.478,360.302 5.088,15.254 16.079,0.125 c 1.246,0.01 1.762,1.599 0.76,2.339 l -12.936,9.553 4.851,15.331 c 0.376,1.187 -0.977,2.171 -1.99,1.446 l -13.082,-9.351 -13.082,9.351 c -1.013,0.724 -2.366,-0.258 -1.99,-1.446 l 4.851,-15.331 -12.936,-9.553 c -1.002,-0.74 -0.486,-2.329 0.76,-2.339 l 16.079,-0.125 5.088,-15.254 c 0.395,-1.181 2.066,-1.181 2.46,0 z"
   id="path1294" />
	<path
   style="fill:#f5f5f5"
   d="m 317.696,323.521 5.088,15.254 16.079,0.125 c 1.246,0.01 1.762,1.599 0.76,2.339 l -12.936,9.553 4.851,15.331 c 0.376,1.187 -0.977,2.171 -1.99,1.446 l -13.082,-9.351 -13.082,9.351 c -1.013,0.724 -2.366,-0.258 -1.991,-1.446 l 4.851,-15.331 -12.936,-9.553 c -1.002,-0.74 -0.486,-2.329 0.76,-2.339 l 16.079,-0.125 5.088,-15.254 c 0.395,-1.182 2.067,-1.182 2.461,0 z"
   id="path1296" />
	<path
   style="fill:#f5f5f5"
   d="m 280.915,286.74 5.088,15.254 16.079,0.125 c 1.246,0.01 1.762,1.599 0.76,2.339 l -12.936,9.553 4.851,15.331 c 0.376,1.187 -0.977,2.171 -1.99,1.446 l -13.082,-9.351 -13.082,9.351 c -1.013,0.724 -2.366,-0.258 -1.991,-1.446 l 4.851,-15.331 -12.936,-9.553 c -1.002,-0.74 -0.486,-2.329 0.76,-2.339 l 16.079,-0.125 5.088,-15.254 c 0.395,-1.182 2.067,-1.182 2.461,0 z"
   id="path1298" />
	<path
   style="fill:#f5f5f5"
   d="m 244.134,249.958 5.088,15.254 16.079,0.125 c 1.246,0.01 1.762,1.599 0.76,2.339 l -12.936,9.553 4.851,15.331 c 0.376,1.187 -0.977,2.17 -1.991,1.445 l -13.082,-9.351 -13.082,9.351 c -1.013,0.725 -2.366,-0.258 -1.991,-1.445 l 4.851,-15.331 -12.936,-9.553 c -1.002,-0.74 -0.486,-2.329 0.76,-2.339 l 16.079,-0.125 5.088,-15.254 c 0.396,-1.182 2.066,-1.182 2.462,0 z"
   id="path1300" />
	<path
   style="fill:#f5f5f5"
   d="m 41.942,88.276 6.83,5.044 -4.851,15.331 c -0.375,1.187 0.977,2.17 1.991,1.447 l 13.081,-9.351 13.082,9.351 c 1.013,0.724 2.366,-0.258 1.99,-1.447 l -4.85,-15.331 6.833,-5.044 z"
   id="path1302" />
	<path
   style="fill:#f5f5f5"
   d="m 412.427,412.463 -16.079,-0.125 -5.087,-15.254 c -0.394,-1.182 -2.066,-1.182 -2.46,0 l -5.087,15.254 -16.079,0.125 c -1.246,0.01 -1.762,1.6 -0.76,2.339 l 12.083,8.921 h 22.151 l 12.082,-8.921 c 0.998,-0.74 0.482,-2.33 -0.764,-2.339 z"
   id="path1304" />
</g>
<g
   id="g1308">
</g>
<g
   id="g1310">
</g>
<g
   id="g1312">
</g>
<g
   id="g1314">
</g>
<g
   id="g1316">
</g>
<g
   id="g1318">
</g>
<g
   id="g1320">
</g>
<g
   id="g1322">
</g>
<g
   id="g1324">
</g>
<g
   id="g1326">
</g>
<g
   id="g1328">
</g>
<g
   id="g1330">
</g>
<g
   id="g1332">
</g>
<g
   id="g1334">
</g>
<g
   id="g1336">
</g>
</svg>
