<?xml version="1.0" encoding="UTF-8" standalone="no"?>
<svg
   xmlns:dc="http://purl.org/dc/elements/1.1/"
   xmlns:cc="http://creativecommons.org/ns#"
   xmlns:rdf="http://www.w3.org/1999/02/22-rdf-syntax-ns#"
   xmlns:svg="http://www.w3.org/2000/svg"
   xmlns="http://www.w3.org/2000/svg"
   xmlns:sodipodi="http://sodipodi.sourceforge.net/DTD/sodipodi-0.dtd"
   xmlns:inkscape="http://www.inkscape.org/namespaces/inkscape"
   version="1.1"
   id="Layer_1"
   x="0px"
   y="0px"
   viewBox="0 0 512 335.45001"
   xml:space="preserve"
   sodipodi:docname="bolivia.svg"
   width="512"
   height="335.45001"
   inkscape:version="1.0.1 (c497b03c, 2020-09-10)"><metadata
   id="metadata1233"><rdf:RDF><cc:Work
       rdf:about=""><dc:format>image/svg+xml</dc:format><dc:type
         rdf:resource="http://purl.org/dc/dcmitype/StillImage" /><dc:title></dc:title></cc:Work></rdf:RDF></metadata><defs
   id="defs1231" /><sodipodi:namedview
   pagecolor="#ffffff"
   bordercolor="#666666"
   borderopacity="1"
   objecttolerance="10"
   gridtolerance="10"
   guidetolerance="10"
   inkscape:pageopacity="0"
   inkscape:pageshadow="2"
   inkscape:window-width="1797"
   inkscape:window-height="983"
   id="namedview1229"
   showgrid="false"
   inkscape:zoom="1.640625"
   inkscape:cx="256"
   inkscape:cy="256"
   inkscape:window-x="0"
   inkscape:window-y="23"
   inkscape:window-maximized="0"
   inkscape:current-layer="Layer_1" />
<path
   style="fill:#73af00"
   d="m 38.345,335.448 h 435.31 c 21.177,0 38.345,-17.167 38.345,-38.345 V 223.632 H 0 v 73.471 c 0,21.178 17.167,38.345 38.345,38.345 z"
   id="path1072" />
<path
   style="fill:#ff4b55"
   d="M 512,38.345 C 512,17.168 494.833,0 473.655,0 H 38.345 C 17.167,0 0,17.167 0,38.345 v 73.471 h 512 z"
   id="path1074" />
<rect
   y="111.814"
   style="fill:#ffe15a"
   width="512"
   height="111.81"
   id="rect1076"
   x="0" />
<path
   style="fill:#73af00"
   d="m 244.598,117.68 c 0,0 -0.227,0.284 -0.653,0.817 -0.355,0.492 -0.888,1.248 -1.47,2.254 -1.145,1.999 -2.347,5.098 -2.38,8.792 -0.012,1.801 0.36,3.988 0.974,5.727 0.666,1.92 1.771,3.756 3.168,5.396 1.399,1.655 3.268,2.931 5.267,3.873 0.991,0.503 2.079,0.792 3.158,1.058 0.535,0.163 1.105,0.171 1.654,0.279 0.276,0.052 0.562,0.029 0.841,0.051 l 0.422,0.019 0.211,0.011 0.105,0.006 0.053,0.003 0.026,0.001 c -0.085,0.003 0.227,-0.004 -0.184,0.007 0.684,-0.04 1.514,-0.045 2.078,-0.114 0.492,-0.115 0.906,-0.095 1.47,-0.262 1.08,-0.266 2.167,-0.555 3.158,-1.058 1.998,-0.942 3.868,-2.218 5.267,-3.873 1.397,-1.64 2.502,-3.476 3.168,-5.396 0.638,-1.953 0.979,-3.822 0.974,-5.736 -0.031,-3.678 -1.234,-6.788 -2.379,-8.785 -0.578,-1.002 -1.113,-1.763 -1.494,-2.276 -0.396,-0.505 -0.607,-0.776 -0.607,-0.776 l -0.053,-0.067 c -0.381,-0.486 -0.295,-1.187 0.191,-1.568 0.384,-0.3 0.904,-0.309 1.291,-0.061 0,0 0.326,0.209 0.937,0.6 0.578,0.434 1.474,1.047 2.439,2.039 1.937,1.918 4.451,5.334 5.358,10.298 0.449,2.376 0.498,5.25 -0.121,8.075 -0.6,2.854 -1.817,5.805 -3.782,8.387 -1.93,2.594 -4.523,4.888 -7.606,6.435 -1.521,0.811 -3.176,1.4 -4.874,1.81 -0.814,0.239 -1.847,0.338 -2.767,0.483 -0.862,0.095 -1.475,0.097 -2.226,0.15 l -0.292,0.001 -0.082,-0.004 -0.164,-0.008 -0.328,-0.017 -0.657,-0.035 c -0.437,-0.035 -0.876,-0.029 -1.309,-0.104 -0.863,-0.152 -1.741,-0.223 -2.583,-0.466 -1.698,-0.409 -3.354,-0.999 -4.874,-1.81 -3.083,-1.547 -5.676,-3.842 -7.606,-6.435 -1.964,-2.583 -3.181,-5.534 -3.782,-8.387 -0.642,-3.04 -0.562,-5.596 -0.12,-8.084 0.905,-4.949 3.421,-8.377 5.357,-10.291 0.961,-0.988 1.86,-1.607 2.463,-2.061 0.58,-0.364 0.891,-0.559 0.891,-0.559 0.526,-0.33 1.22,-0.172 1.55,0.354 0.26,0.418 0.212,0.943 -0.078,1.307 z"
   id="path1078" />
<path
   style="fill:#ff4b55"
   d="m 253.782,205.59 v 13.971 c 0,1.394 -1.685,2.092 -2.67,1.107 l -0.769,-0.769 c -0.639,-0.639 -0.998,-1.505 -0.998,-2.408 V 205.59 Z"
   id="path1080" />
<path
   style="fill:#ffe15a"
   d="m 247.126,203.371 v 10.141 c 0,0.609 0.242,1.194 0.673,1.625 l 1.545,1.545 v -13.311 z"
   id="path1082" />
<path
   style="fill:#73af00"
   d="m 244.908,203.371 v 5.442 c 0,0.777 0.309,1.522 0.857,2.071 l 1.361,1.361 v -8.874 z"
   id="path1084" />
<path
   style="fill:#ff4b55"
   d="m 258.219,205.59 v 13.971 c 0,1.394 1.685,2.092 2.67,1.107 l 0.769,-0.769 c 0.639,-0.639 0.998,-1.505 0.998,-2.408 V 205.59 Z"
   id="path1086" />
<path
   style="fill:#ffe15a"
   d="m 264.874,203.371 v 10.141 c 0,0.609 -0.242,1.194 -0.673,1.625 l -1.545,1.545 v -13.311 z"
   id="path1088" />
<path
   style="fill:#73af00"
   d="m 267.093,203.371 v 5.442 c 0,0.777 -0.309,1.522 -0.857,2.071 l -1.361,1.361 v -8.874 z"
   id="path1090" />
<path
   style="fill:#ff4b55"
   d="m 267.093,163.439 24.403,-17.748 v 36.498 c 0,10.474 -8.491,18.964 -18.964,18.964 v 0 c -3.554,0 -7.037,-0.999 -10.051,-2.882 l -13.135,-8.21 v -26.93 z"
   id="path1092" />
<path
   style="fill:#ffe15a"
   d="m 282.622,152.144 v 25.607 c 0,10.474 -8.491,18.964 -18.964,18.964 -1.575,0 -3.127,-0.227 -4.64,-0.61 l -9.673,-6.046 v -26.93 l 17.748,0.308 z"
   id="path1094" />
<path
   style="fill:#73af00"
   d="m 275.967,156.985 v 16.531 c 0,10.474 -8.491,18.964 -18.964,18.964 -1.575,0 -3.128,-0.227 -4.64,-0.61 l -3.018,-1.886 V 163.13 l 17.748,0.308 z"
   id="path1096" />
<polygon
   style="fill:#f5f5f5"
   points="295.489,233.967 291.496,233.967 292.826,229.974 302.589,225.094 "
   id="polygon1098"
   transform="translate(0,-88.276)" />
<path
   style="fill:#ff4b55"
   d="m 280.404,174.531 24.403,-17.748 v 36.498 c 0,10.474 -8.491,18.964 -18.964,18.964 v 0 c -3.554,0 -7.037,-0.999 -10.051,-2.882 l -13.135,-8.21 v -26.93 z"
   id="path1100" />
<path
   style="fill:#73af00"
   d="m 289.278,168.077 v 16.531 c 0,10.474 -8.491,18.964 -18.964,18.964 -1.575,0 -3.127,-0.227 -4.64,-0.61 l -3.018,-1.886 v -26.852 l 17.748,0.308 z"
   id="path1102" />
<polygon
   style="fill:#f5f5f5"
   points="308.8,245.059 304.807,245.059 306.137,241.066 315.9,236.185 "
   id="polygon1104"
   transform="translate(0,-88.276)" />
<path
   style="fill:#ff4b55"
   d="m 273.748,170.094 24.403,-17.748 v 36.498 c 0,10.474 -8.491,18.964 -18.964,18.964 v 0 c -3.554,0 -7.037,-0.999 -10.051,-2.882 L 256,196.716 v -26.93 z"
   id="path1106" />
<path
   style="fill:#ffe15a"
   d="m 289.278,158.8 v 25.607 c 0,10.474 -8.491,18.964 -18.964,18.964 -1.575,0 -3.127,-0.227 -4.64,-0.61 L 256,196.716 v -26.93 l 17.748,0.308 z"
   id="path1108" />
<path
   style="fill:#73af00"
   d="m 282.622,163.64 v 16.531 c 0,10.474 -8.491,18.964 -18.964,18.964 -1.575,0 -3.127,-0.227 -4.64,-0.61 L 256,196.64 v -26.854 l 17.748,0.308 z"
   id="path1110" />
<polygon
   style="fill:#f5f5f5"
   points="302.144,240.622 298.152,240.622 299.482,236.629 309.244,231.748 "
   id="polygon1112"
   transform="translate(0,-88.276)" />
<path
   style="fill:#ff4b55"
   d="m 244.908,163.439 -24.403,-17.748 v 36.498 c 0,10.474 8.491,18.964 18.964,18.964 v 0 c 3.554,0 7.037,-0.999 10.051,-2.882 l 13.135,-8.21 v -26.93 z"
   id="path1114" />
<path
   style="fill:#ffe15a"
   d="m 229.378,152.144 v 25.607 c 0,10.474 8.491,18.964 18.964,18.964 1.575,0 3.127,-0.227 4.64,-0.61 l 9.673,-6.046 v -26.93 l -17.748,0.308 z"
   id="path1116" />
<path
   style="fill:#73af00"
   d="m 236.034,156.985 v 16.531 c 0,10.474 8.491,18.964 18.964,18.964 1.575,0 3.128,-0.227 4.64,-0.61 l 3.018,-1.886 V 163.13 l -17.748,0.308 z"
   id="path1118" />
<polygon
   style="fill:#f5f5f5"
   points="216.512,233.967 220.504,233.967 219.174,229.974 209.412,225.094 "
   id="polygon1120"
   transform="translate(0,-88.276)" />
<path
   style="fill:#ff4b55"
   d="m 231.597,174.531 -24.403,-17.748 v 36.498 c 0,10.474 8.491,18.964 18.964,18.964 v 0 c 3.554,0 7.037,-0.999 10.051,-2.882 l 13.135,-8.21 v -26.93 z"
   id="path1122" />
<path
   style="fill:#73af00"
   d="m 222.723,168.077 v 16.531 c 0,10.474 8.491,18.964 18.964,18.964 1.575,0 3.127,-0.227 4.64,-0.61 l 3.018,-1.886 v -26.852 l -17.748,0.308 z"
   id="path1124" />
<polygon
   style="fill:#f5f5f5"
   points="203.201,245.059 207.193,245.059 205.863,241.066 196.102,236.185 "
   id="polygon1126"
   transform="translate(0,-88.276)" />
<path
   style="fill:#ff4b55"
   d="m 238.252,170.094 -24.403,-17.748 v 36.498 c 0,10.474 8.491,18.964 18.964,18.964 v 0 c 3.554,0 7.037,-0.999 10.051,-2.882 l 13.135,-8.21 v -26.93 z"
   id="path1128" />
<path
   style="fill:#ffe15a"
   d="m 222.723,158.8 v 25.607 c 0,10.474 8.491,18.964 18.964,18.964 1.575,0 3.127,-0.227 4.64,-0.61 L 256,196.715 v -26.93 l -17.748,0.308 z"
   id="path1130" />
<path
   style="fill:#73af00"
   d="m 229.378,163.64 v 16.531 c 0,10.474 8.491,18.964 18.964,18.964 1.575,0 3.127,-0.227 4.64,-0.61 L 256,196.639 v -26.854 l -17.748,0.308 z"
   id="path1132" />
<g
   id="g1138"
   transform="translate(0,-88.276)">
	<path
   style="fill:#ffbe5a"
   d="m 226.947,291.354 -2.925,-2.925 c -1.773,-1.773 -1.726,-4.664 0.106,-6.378 l 48.417,-45.496 6.275,6.275 -45.496,48.417 c -1.712,1.833 -4.602,1.882 -6.377,0.107 z"
   id="path1134" />
	<circle
   style="fill:#ffbe5a"
   cx="225.49001"
   cy="289.89001"
   r="2.2179999"
   id="circle1136" />
</g>
<ellipse
   transform="rotate(-135)"
   style="fill:#f5f5f5;stroke-width:0.99999"
   cx="-302.01065"
   cy="87.86718"
   rx="4.4359574"
   ry="2.2179787"
   id="ellipse1140" />
<g
   id="g1146"
   transform="translate(0,-88.276)">
	<path
   style="fill:#ffbe5a"
   d="m 285.053,291.354 2.925,-2.925 c 1.773,-1.773 1.726,-4.664 -0.106,-6.378 l -48.417,-45.496 -6.275,6.275 45.496,48.417 c 1.714,1.833 4.603,1.882 6.377,0.107 z"
   id="path1142" />
	<circle
   style="fill:#ffbe5a"
   cx="286.51001"
   cy="289.89001"
   r="2.2179999"
   id="circle1144" />
</g>
<ellipse
   transform="rotate(-45)"
   style="fill:#f5f5f5;stroke-width:0.99999"
   cx="60.032616"
   cy="274.17984"
   rx="4.4359574"
   ry="2.2179787"
   id="ellipse1148" />
<ellipse
   style="fill:#ffbe5a"
   cx="256"
   cy="177.86401"
   rx="19.615999"
   ry="23.294001"
   id="ellipse1150" />
<polygon
   style="fill:#ff4b55"
   points="259.428,245.602 259.021,250.221 262.52,247.178 260.706,251.446 264.974,249.632 261.93,253.13 266.55,252.724 262.573,255.111 267.093,256.152 262.573,257.193 266.55,259.58 261.93,259.174 264.974,262.671 260.706,260.857 262.52,265.126 259.021,262.082 259.428,266.701 257.042,262.726 256,267.244 254.959,262.726 252.573,266.701 252.979,262.082 249.481,265.126 251.294,260.857 247.027,262.671 250.07,259.174 245.451,259.58 249.427,257.193 244.908,256.152 249.427,255.111 245.451,252.724 250.07,253.13 247.027,249.632 251.294,251.446 249.481,247.178 252.979,250.221 252.573,245.602 254.959,249.578 256,245.059 257.042,249.578 "
   id="polygon1152"
   transform="translate(0,-88.276)" />
<path
   style="fill:#73af00"
   d="m 280.542,177.443 c 0,0 -7.349,1.941 -12.132,-2.08 -5.316,-4.469 -9.302,-6.579 -11.01,-7.371 -0.585,-0.271 -1.239,-0.271 -1.825,-10e-4 -1.224,0.565 -3.476,1.736 -5.468,3.49 -2.912,2.566 -11.855,7.626 -13.657,7.626 v 11.029 l 14.073,12.196 16.639,-0.486 z"
   id="path1154" />
<path
   style="fill:#3cc8ff"
   d="m 256,206.699 c -14.068,0 -25.513,-12.938 -25.513,-28.84 0,-15.902 11.444,-28.84 25.513,-28.84 14.069,0 25.513,12.938 25.513,28.84 0,15.902 -11.445,28.84 -25.513,28.84 z m 0,-51.025 c -10.398,0 -18.857,9.953 -18.857,22.185 0,12.232 8.459,22.185 18.857,22.185 10.398,0 18.857,-9.953 18.857,-22.185 0,-12.232 -8.459,-22.185 -18.857,-22.185 z"
   id="path1156" />
<g
   id="g1178"
   transform="translate(0,-88.276)">
	<path
   style="fill:#ffbe5a"
   d="m 252.178,288.946 0.489,1.465 1.545,0.012 c 0.2,10e-4 0.282,0.257 0.122,0.375 l -1.242,0.918 0.466,1.473 c 0.061,0.191 -0.157,0.349 -0.32,0.232 l -1.257,-0.898 -1.257,0.898 c -0.162,0.116 -0.38,-0.042 -0.32,-0.232 l 0.466,-1.473 -1.242,-0.918 c -0.161,-0.119 -0.078,-0.374 0.122,-0.375 l 1.545,-0.012 0.489,-1.465 c 0.063,-0.19 0.331,-0.19 0.394,0 z"
   id="path1158" />
	<path
   style="fill:#ffbe5a"
   d="m 245.242,285.964 0.489,1.465 1.545,0.012 c 0.2,0.001 0.282,0.257 0.122,0.375 l -1.242,0.918 0.466,1.473 c 0.061,0.191 -0.157,0.349 -0.32,0.232 l -1.257,-0.898 -1.257,0.898 c -0.162,0.116 -0.38,-0.042 -0.32,-0.232 l 0.466,-1.473 -1.242,-0.918 c -0.161,-0.119 -0.078,-0.374 0.122,-0.375 l 1.545,-0.012 0.489,-1.465 c 0.063,-0.19 0.332,-0.19 0.394,0 z"
   id="path1160" />
	<path
   style="fill:#ffbe5a"
   d="m 239.673,280.904 0.489,1.465 1.545,0.012 c 0.2,0.001 0.282,0.257 0.122,0.375 l -1.242,0.918 0.466,1.473 c 0.061,0.191 -0.157,0.349 -0.32,0.232 l -1.257,-0.898 -1.257,0.898 c -0.162,0.116 -0.38,-0.042 -0.32,-0.232 l 0.466,-1.473 -1.242,-0.918 c -0.161,-0.119 -0.078,-0.374 0.122,-0.375 l 1.545,-0.012 0.489,-1.465 c 0.063,-0.19 0.331,-0.19 0.394,0 z"
   id="path1162" />
	<path
   style="fill:#ffbe5a"
   d="m 235.875,274.167 0.489,1.465 1.545,0.012 c 0.2,10e-4 0.282,0.257 0.122,0.375 l -1.242,0.918 0.466,1.473 c 0.061,0.191 -0.157,0.349 -0.32,0.232 l -1.257,-0.898 -1.257,0.898 c -0.162,0.116 -0.38,-0.042 -0.32,-0.232 l 0.466,-1.473 -1.242,-0.918 c -0.161,-0.119 -0.078,-0.374 0.122,-0.375 l 1.545,-0.012 0.489,-1.465 c 0.063,-0.19 0.331,-0.19 0.394,0 z"
   id="path1164" />
	<path
   style="fill:#ffbe5a"
   d="m 234.199,266.333 0.489,1.465 1.545,0.012 c 0.2,10e-4 0.282,0.257 0.122,0.375 l -1.242,0.918 0.466,1.473 c 0.061,0.191 -0.157,0.349 -0.32,0.232 l -1.257,-0.898 -1.257,0.898 c -0.162,0.116 -0.38,-0.042 -0.32,-0.232 l 0.466,-1.473 -1.242,-0.918 c -0.161,-0.119 -0.078,-0.374 0.122,-0.375 l 1.545,-0.012 0.489,-1.465 c 0.062,-0.19 0.331,-0.19 0.394,0 z"
   id="path1166" />
	<path
   style="fill:#ffbe5a"
   d="m 259.812,288.946 -0.489,1.465 -1.545,0.012 c -0.2,10e-4 -0.282,0.257 -0.122,0.375 l 1.242,0.918 -0.466,1.473 c -0.061,0.191 0.157,0.349 0.32,0.232 l 1.257,-0.898 1.257,0.898 c 0.162,0.116 0.38,-0.042 0.32,-0.232 l -0.466,-1.473 1.242,-0.918 c 0.161,-0.119 0.078,-0.374 -0.122,-0.375 l -1.545,-0.012 -0.489,-1.465 c -0.063,-0.19 -0.331,-0.19 -0.394,0 z"
   id="path1168" />
	<path
   style="fill:#ffbe5a"
   d="m 266.748,285.964 -0.489,1.465 -1.545,0.012 c -0.2,0.001 -0.283,0.257 -0.122,0.375 l 1.242,0.918 -0.466,1.473 c -0.061,0.191 0.157,0.349 0.32,0.232 l 1.257,-0.898 1.257,0.898 c 0.162,0.116 0.38,-0.042 0.32,-0.232 l -0.466,-1.473 1.242,-0.918 c 0.161,-0.119 0.078,-0.374 -0.122,-0.375 l -1.545,-0.012 -0.489,-1.465 c -0.063,-0.19 -0.332,-0.19 -0.394,0 z"
   id="path1170" />
	<path
   style="fill:#ffbe5a"
   d="m 272.317,280.904 -0.489,1.465 -1.545,0.012 c -0.2,0.001 -0.282,0.257 -0.122,0.375 l 1.242,0.918 -0.466,1.473 c -0.061,0.191 0.157,0.349 0.32,0.232 l 1.257,-0.898 1.257,0.898 c 0.162,0.116 0.38,-0.042 0.32,-0.232 l -0.466,-1.473 1.242,-0.918 c 0.161,-0.119 0.078,-0.374 -0.122,-0.375 l -1.545,-0.012 -0.489,-1.465 c -0.062,-0.19 -0.331,-0.19 -0.394,0 z"
   id="path1172" />
	<path
   style="fill:#ffbe5a"
   d="m 276.115,274.167 -0.489,1.465 -1.545,0.012 c -0.2,10e-4 -0.282,0.257 -0.122,0.375 l 1.242,0.918 -0.466,1.473 c -0.061,0.191 0.157,0.349 0.32,0.232 l 1.257,-0.898 1.257,0.898 c 0.162,0.116 0.38,-0.042 0.32,-0.232 l -0.466,-1.473 1.242,-0.918 c 0.161,-0.119 0.078,-0.374 -0.122,-0.375 l -1.545,-0.012 -0.489,-1.465 c -0.063,-0.19 -0.331,-0.19 -0.394,0 z"
   id="path1174" />
	<path
   style="fill:#ffbe5a"
   d="m 277.791,266.333 -0.489,1.465 -1.545,0.012 c -0.2,10e-4 -0.283,0.257 -0.122,0.375 l 1.242,0.918 -0.466,1.473 c -0.061,0.191 0.157,0.349 0.32,0.232 l 1.257,-0.898 1.257,0.898 c 0.162,0.116 0.38,-0.042 0.32,-0.232 l -0.466,-1.473 1.242,-0.918 c 0.161,-0.119 0.078,-0.374 -0.122,-0.375 l -1.545,-0.012 -0.489,-1.465 c -0.062,-0.19 -0.33,-0.19 -0.394,0 z"
   id="path1176" />
</g>
<path
   style="fill:#f5f5f5"
   d="m 246.361,192.082 0.737,3.526 h 0.318 v -2.406 c 0,0 0.524,1.678 1.266,2.406 h 0.6 c -0.287,-0.369 -0.803,-1.135 -0.803,-1.927 0,-1.091 0.868,-1.24 0.868,-2.407 h 0.744 v 4.333 h 0.435 l 0.806,-3.861 c 0,0 0.664,2.415 1.914,3.861 h 0.556 c -0.401,-0.589 -1.234,-2.109 -1.081,-4.407 0,0 1.191,-0.596 1.191,-2.208 v -2.294 c 0,-0.429 0.349,-0.778 0.778,-0.778 h 0.535 c 0,0 -0.796,-1.544 -1.647,-1.768 v -0.968 l -0.641,0.969 c -0.612,0.132 -0.973,0.698 -0.973,1.304 v 1.397 c 0,0.429 -0.348,0.778 -0.778,0.778 h -2.781 c -0.823,0 -2.142,0.823 -2.142,1.878 0,1.055 0.791,1.747 0.791,1.747 z"
   id="path1180" />
<path
   style="fill:#ffbe5a"
   d="m 258.819,188.567 h -0.255 c -2.016,0.11 -3.142,1.436 -3.142,1.436 l 2.045,2.045 v 3.848 h 2.447 v -3.848 l 2.045,-2.045 c 0.002,0 -1.124,-1.325 -3.14,-1.436 z"
   id="path1182" />
<g
   id="g1190"
   transform="translate(0,-88.276)">
	<rect
   x="263.12"
   y="270.54999"
   style="fill:#f5f5f5"
   width="0.73900002"
   height="13.634"
   id="rect1184" />
	<path
   style="fill:#f5f5f5"
   d="m 263.511,270.445 -3.987,4.819 c 0,0 -0.52,-2.323 1.803,-4.61 l -5.13,0.936 c 0,0 1.56,-2.912 5.65,-2.6 l -4.194,-3.501 c 0,0 3.605,-0.207 5.442,2.496 0,0 1.039,-3.119 3.951,-3.258 l -2.403,3.651 c 0,0 2.403,-1.225 5.731,-0.15 l -4.957,1.318 c 0,0 2.773,0.277 3.917,4.333 l -4.298,-2.946 c 0,0 1.318,1.56 0.832,4.61 z"
   id="path1186" />
	<polygon
   style="fill:#f5f5f5"
   points="209.856,240.622 213.849,240.622 212.519,236.629 202.756,231.748 "
   id="polygon1188" />
</g>
<path
   style="fill:#825546"
   d="m 262.941,142.702 26.337,-8.104 -13.981,-5.242 c -2.49,-0.935 -5.129,-1.412 -7.789,-1.412 h -2.633 c -1.225,0 -2.218,0.993 -2.218,2.218 v 2.218 H 256 249.345 v -2.218 c 0,-1.225 -0.993,-2.218 -2.218,-2.218 h -2.633 c -2.66,0 -5.299,0.479 -7.789,1.412 l -13.981,5.242 26.337,8.104 c 1.31,0.403 1.944,1.886 1.332,3.113 l -3.266,6.531 h 17.748 l -3.266,-6.531 c -0.614,-1.226 0.021,-2.71 1.332,-3.113 z"
   id="path1192" />
<circle
   style="fill:#f5f5f5"
   cx="256"
   cy="134.59399"
   r="4.4359999"
   id="circle1194" />
<path
   style="fill:#ffbe5a"
   d="m 258.219,134.598 v 0 c 0,1.225 -0.993,2.218 -2.218,2.218 h -8.874 l 3.787,-3.787 c 0.416,-0.416 0.98,-0.65 1.569,-0.65 H 256 c 1.226,0.002 2.219,0.995 2.219,2.219 z"
   id="path1196" />
<g
   id="g1198">
</g>
<g
   id="g1200">
</g>
<g
   id="g1202">
</g>
<g
   id="g1204">
</g>
<g
   id="g1206">
</g>
<g
   id="g1208">
</g>
<g
   id="g1210">
</g>
<g
   id="g1212">
</g>
<g
   id="g1214">
</g>
<g
   id="g1216">
</g>
<g
   id="g1218">
</g>
<g
   id="g1220">
</g>
<g
   id="g1222">
</g>
<g
   id="g1224">
</g>
<g
   id="g1226">
</g>
</svg>
