<?xml version="1.0" encoding="UTF-8" standalone="no"?>
<svg
   xmlns:dc="http://purl.org/dc/elements/1.1/"
   xmlns:cc="http://creativecommons.org/ns#"
   xmlns:rdf="http://www.w3.org/1999/02/22-rdf-syntax-ns#"
   xmlns:svg="http://www.w3.org/2000/svg"
   xmlns="http://www.w3.org/2000/svg"
   xmlns:sodipodi="http://sodipodi.sourceforge.net/DTD/sodipodi-0.dtd"
   xmlns:inkscape="http://www.inkscape.org/namespaces/inkscape"
   version="1.1"
   id="Layer_1"
   x="0px"
   y="0px"
   viewBox="0 0 512.00001 335.45002"
   xml:space="preserve"
   sodipodi:docname="bonaire-svgrepo-com.svg"
   width="512"
   height="335.45001"
   inkscape:version="1.0.1 (c497b03c, 2020-09-10)"><metadata
   id="metadata1280"><rdf:RDF><cc:Work
       rdf:about=""><dc:format>image/svg+xml</dc:format><dc:type
         rdf:resource="http://purl.org/dc/dcmitype/StillImage" /><dc:title></dc:title></cc:Work></rdf:RDF></metadata><defs
   id="defs1278" /><sodipodi:namedview
   pagecolor="#ffffff"
   bordercolor="#666666"
   borderopacity="1"
   objecttolerance="10"
   gridtolerance="10"
   guidetolerance="10"
   inkscape:pageopacity="0"
   inkscape:pageshadow="2"
   inkscape:window-width="1797"
   inkscape:window-height="983"
   id="namedview1276"
   showgrid="false"
   inkscape:zoom="1.6406282"
   inkscape:cx="255.9995"
   inkscape:cy="255.9995"
   inkscape:window-x="0"
   inkscape:window-y="23"
   inkscape:window-maximized="0"
   inkscape:current-layer="Layer_1" />
<path
   style="fill:#41479b"
   d="m 511.222,30.617 c -0.255,-1.248 -0.57201,-2.474 -0.94501,-3.674 -0.373,-1.2 -0.804,-2.376 -1.29,-3.523 -0.727,-1.72 -1.577,-3.377 -2.538,-4.958 -0.96101,-1.581 -2.03301,-3.087 -3.20401,-4.508 -1.172,-1.42 -2.444,-2.755 -3.80701,-3.992 -0.371,-0.338 -0.754,-0.662 -1.138,-0.985 L 13.700027,326.473 c 6.665013,5.599 15.258029,8.975 24.644048,8.975 H 473.65492 C 494.83196,335.448 512,318.281 512,297.103 V 38.345 c 10e-4,-2.647 -0.267,-5.232 -0.778,-7.728 z"
   id="path1235" />
<path
   style="fill:#f5f5f5"
   d="M 496.59897,7.618 C 495.61497,6.882 494.59396,6.192 493.53996,5.551 487.74095,2.028 480.93494,0 473.65592,0 H 224.77944 L 0,147.268 v 149.834 c 0,11.791 5.3260104,22.335 13.700027,29.369 L 498.30097,8.976 c -0.555,-0.467 -1.12,-0.923 -1.702,-1.358 z"
   id="path1237" />
<path
   style="fill:#ffe15a"
   d="M 38.345075,0 C 31.066061,0 24.259047,2.029 18.462036,5.551 17.408034,6.191 16.388032,6.882 15.40303,7.618 14.418028,8.354 13.471026,9.136 12.563024,9.962 11.201022,11.2 9.9290193,12.534 8.7560171,13.954 7.5840148,15.374 6.5120127,16.88 5.5520108,18.462 4.5910089,20.043 3.7410073,21.7 3.0140059,23.42 2.5280049,24.566 2.0980041,25.742 1.7240034,26.943 1.3500026,28.144 1.034002,29.369 0.77900152,30.617 0.26800052,33.113 0,35.698 0,38.345 V 147.27 L 224.77944,0 Z"
   id="path1239" />
<path
   style="fill:#464655"
   d="m 202.27439,140.861 c -4.006,-26.737 -25.08904,-47.82 -51.8261,-51.826 l -9.20701,-18.415 -9.20702,18.415 c -26.73705,4.006 -47.819096,25.088 -51.826104,51.826 l -18.415036,9.207 18.415036,9.207 c 4.006008,26.737 25.089054,47.82 51.826104,51.826 l 9.20702,18.415 9.20701,-18.415 c 26.73706,-4.006 47.8191,-25.088 51.8261,-51.826 l 18.41504,-9.207 z m -61.03311,62.173 c -29.25206,0 -52.966108,-23.713 -52.966108,-52.965 0,-29.252 23.713048,-52.966 52.966108,-52.966 29.25305,0 52.9661,23.713 52.9661,52.966 0,29.253 -23.71305,52.965 -52.9661,52.965 z"
   id="path1241" />
<polygon
   style="fill:#ff4b55"
   points="170.638,255.316 150.746,254.807 141.241,272.289 131.737,254.807 111.844,255.316 122.232,238.344 111.844,221.372 131.737,221.882 141.241,204.398 150.746,221.882 170.638,221.372 160.25,238.344 "
   id="polygon1243"
   transform="matrix(1.0000019,0,0,1,0,-88.276)" />
<g
   id="g1245">
</g>
<g
   id="g1247">
</g>
<g
   id="g1249">
</g>
<g
   id="g1251">
</g>
<g
   id="g1253">
</g>
<g
   id="g1255">
</g>
<g
   id="g1257">
</g>
<g
   id="g1259">
</g>
<g
   id="g1261">
</g>
<g
   id="g1263">
</g>
<g
   id="g1265">
</g>
<g
   id="g1267">
</g>
<g
   id="g1269">
</g>
<g
   id="g1271">
</g>
<g
   id="g1273">
</g>
</svg>
