<?xml version="1.0" encoding="UTF-8" standalone="no"?>
<svg
   xmlns:dc="http://purl.org/dc/elements/1.1/"
   xmlns:cc="http://creativecommons.org/ns#"
   xmlns:rdf="http://www.w3.org/1999/02/22-rdf-syntax-ns#"
   xmlns:svg="http://www.w3.org/2000/svg"
   xmlns="http://www.w3.org/2000/svg"
   xmlns:sodipodi="http://sodipodi.sourceforge.net/DTD/sodipodi-0.dtd"
   xmlns:inkscape="http://www.inkscape.org/namespaces/inkscape"
   version="1.1"
   id="Layer_1"
   x="0px"
   y="0px"
   viewBox="0 0 512 335.45001"
   xml:space="preserve"
   sodipodi:docname="cg.svg"
   width="512"
   height="335.45001"
   inkscape:version="1.0.1 (c497b03c, 2020-09-10)"><metadata
   id="metadata1198"><rdf:RDF><cc:Work
       rdf:about=""><dc:format>image/svg+xml</dc:format><dc:type
         rdf:resource="http://purl.org/dc/dcmitype/StillImage" /><dc:title></dc:title></cc:Work></rdf:RDF></metadata><defs
   id="defs1196" /><sodipodi:namedview
   pagecolor="#ffffff"
   bordercolor="#666666"
   borderopacity="1"
   objecttolerance="10"
   gridtolerance="10"
   guidetolerance="10"
   inkscape:pageopacity="0"
   inkscape:pageshadow="2"
   inkscape:window-width="1012"
   inkscape:window-height="480"
   id="namedview1194"
   showgrid="false"
   inkscape:zoom="0.61328125"
   inkscape:cx="256"
   inkscape:cy="256"
   inkscape:window-x="0"
   inkscape:window-y="23"
   inkscape:window-maximized="0"
   inkscape:current-layer="Layer_1" />
<path
   style="fill:#ffe15a"
   d="m 11.668,324.634 c 6.901,6.688 16.3,10.812 26.669,10.814 H 150.069 L 500.332,10.814 C 493.43,4.124 484.026,0 473.655,0 H 361.931 Z"
   id="path1157" />
<path
   style="fill:#73af00"
   d="M 11.668,324.634 361.931,0 H 38.345 C 17.167,0 0,17.167 0,38.345 v 258.759 c 0,10.805 4.477,20.56 11.668,27.53 z"
   id="path1159" />
<path
   style="fill:#ff4b55"
   d="M 500.332,10.814 150.069,335.448 H 473.663 C 494.837,335.444 512,318.278 512,297.103 V 38.345 c 0,-10.806 -4.477,-20.561 -11.668,-27.531 z"
   id="path1161" />
<g
   id="g1163"
   transform="translate(0,-88.276)">
</g>
<g
   id="g1165"
   transform="translate(0,-88.276)">
</g>
<g
   id="g1167"
   transform="translate(0,-88.276)">
</g>
<g
   id="g1169"
   transform="translate(0,-88.276)">
</g>
<g
   id="g1171"
   transform="translate(0,-88.276)">
</g>
<g
   id="g1173"
   transform="translate(0,-88.276)">
</g>
<g
   id="g1175"
   transform="translate(0,-88.276)">
</g>
<g
   id="g1177"
   transform="translate(0,-88.276)">
</g>
<g
   id="g1179"
   transform="translate(0,-88.276)">
</g>
<g
   id="g1181"
   transform="translate(0,-88.276)">
</g>
<g
   id="g1183"
   transform="translate(0,-88.276)">
</g>
<g
   id="g1185"
   transform="translate(0,-88.276)">
</g>
<g
   id="g1187"
   transform="translate(0,-88.276)">
</g>
<g
   id="g1189"
   transform="translate(0,-88.276)">
</g>
<g
   id="g1191"
   transform="translate(0,-88.276)">
</g>
</svg>
