<?xml version="1.0" encoding="UTF-8" standalone="no"?>
<svg
   xmlns:dc="http://purl.org/dc/elements/1.1/"
   xmlns:cc="http://creativecommons.org/ns#"
   xmlns:rdf="http://www.w3.org/1999/02/22-rdf-syntax-ns#"
   xmlns:svg="http://www.w3.org/2000/svg"
   xmlns="http://www.w3.org/2000/svg"
   xmlns:sodipodi="http://sodipodi.sourceforge.net/DTD/sodipodi-0.dtd"
   xmlns:inkscape="http://www.inkscape.org/namespaces/inkscape"
   version="1.1"
   id="Layer_1"
   x="0px"
   y="0px"
   viewBox="0 0 512 335.45001"
   xml:space="preserve"
   sodipodi:docname="ch.svg"
   width="512"
   height="335.45001"
   inkscape:version="1.0.1 (c497b03c, 2020-09-10)"><metadata
   id="metadata1060"><rdf:RDF><cc:Work
       rdf:about=""><dc:format>image/svg+xml</dc:format><dc:type
         rdf:resource="http://purl.org/dc/dcmitype/StillImage" /><dc:title></dc:title></cc:Work></rdf:RDF></metadata><defs
   id="defs1058" /><sodipodi:namedview
   pagecolor="#ffffff"
   bordercolor="#666666"
   borderopacity="1"
   objecttolerance="10"
   gridtolerance="10"
   guidetolerance="10"
   inkscape:pageopacity="0"
   inkscape:pageshadow="2"
   inkscape:window-width="1209"
   inkscape:window-height="860"
   id="namedview1056"
   showgrid="false"
   inkscape:zoom="1.3808594"
   inkscape:cx="256"
   inkscape:cy="256"
   inkscape:window-x="0"
   inkscape:window-y="23"
   inkscape:window-maximized="0"
   inkscape:current-layer="Layer_1" />
<path
   style="fill:#ff4b55"
   d="M 473.655,335.448 H 38.345 C 17.167,335.448 0,318.281 0,297.103 V 38.345 C 0,17.168 17.167,0 38.345,0 h 435.31 C 494.832,0 512,17.167 512,38.345 v 258.759 c 0,21.177 -17.167,38.344 -38.345,38.344 z"
   id="path1021" />
<path
   style="fill:#f5f5f5"
   d="M 353.103,132.414 H 291.31 V 70.621 c 0,-4.875 -3.953,-8.828 -8.828,-8.828 h -52.966 c -4.875,0 -8.828,3.953 -8.828,8.828 v 61.793 h -61.793 c -4.875,0 -8.828,3.953 -8.828,8.828 v 52.966 c 0,4.875 3.953,8.828 8.828,8.828 h 61.793 v 61.793 c 0,4.875 3.953,8.828 8.828,8.828 h 52.966 c 4.875,0 8.828,-3.953 8.828,-8.828 v -61.795 h 61.793 c 4.875,0 8.828,-3.953 8.828,-8.828 V 141.24 c 0,-4.874 -3.953,-8.826 -8.828,-8.826 z"
   id="path1023" />
<g
   id="g1025"
   transform="translate(0,-88.276)">
</g>
<g
   id="g1027"
   transform="translate(0,-88.276)">
</g>
<g
   id="g1029"
   transform="translate(0,-88.276)">
</g>
<g
   id="g1031"
   transform="translate(0,-88.276)">
</g>
<g
   id="g1033"
   transform="translate(0,-88.276)">
</g>
<g
   id="g1035"
   transform="translate(0,-88.276)">
</g>
<g
   id="g1037"
   transform="translate(0,-88.276)">
</g>
<g
   id="g1039"
   transform="translate(0,-88.276)">
</g>
<g
   id="g1041"
   transform="translate(0,-88.276)">
</g>
<g
   id="g1043"
   transform="translate(0,-88.276)">
</g>
<g
   id="g1045"
   transform="translate(0,-88.276)">
</g>
<g
   id="g1047"
   transform="translate(0,-88.276)">
</g>
<g
   id="g1049"
   transform="translate(0,-88.276)">
</g>
<g
   id="g1051"
   transform="translate(0,-88.276)">
</g>
<g
   id="g1053"
   transform="translate(0,-88.276)">
</g>
</svg>
