<?xml version="1.0" encoding="UTF-8" standalone="no"?>
<svg
   xmlns:dc="http://purl.org/dc/elements/1.1/"
   xmlns:cc="http://creativecommons.org/ns#"
   xmlns:rdf="http://www.w3.org/1999/02/22-rdf-syntax-ns#"
   xmlns:svg="http://www.w3.org/2000/svg"
   xmlns="http://www.w3.org/2000/svg"
   xmlns:sodipodi="http://sodipodi.sourceforge.net/DTD/sodipodi-0.dtd"
   xmlns:inkscape="http://www.inkscape.org/namespaces/inkscape"
   version="1.1"
   id="Layer_1"
   x="0px"
   y="0px"
   viewBox="0 0 512 335.45001"
   xml:space="preserve"
   sodipodi:docname="china-svgrepo-com.svg"
   width="512"
   height="335.45001"
   inkscape:version="1.0.1 (c497b03c, 2020-09-10)"><metadata
   id="metadata911"><rdf:RDF><cc:Work
       rdf:about=""><dc:format>image/svg+xml</dc:format><dc:type
         rdf:resource="http://purl.org/dc/dcmitype/StillImage" /><dc:title></dc:title></cc:Work></rdf:RDF></metadata><defs
   id="defs909" /><sodipodi:namedview
   pagecolor="#ffffff"
   bordercolor="#666666"
   borderopacity="1"
   objecttolerance="10"
   gridtolerance="10"
   guidetolerance="10"
   inkscape:pageopacity="0"
   inkscape:pageshadow="2"
   inkscape:window-width="1797"
   inkscape:window-height="983"
   id="namedview907"
   showgrid="false"
   inkscape:zoom="1.640625"
   inkscape:cx="256"
   inkscape:cy="256"
   inkscape:window-x="0"
   inkscape:window-y="23"
   inkscape:window-maximized="0"
   inkscape:current-layer="Layer_1" />
<path
   style="fill:#ff4b55"
   d="M 473.655,0 H 38.345 C 17.167,0 0,17.167 0,38.345 v 258.76 c 0,21.177 17.167,38.345 38.345,38.345 h 435.31 C 494.832,335.45 512,318.283 512,297.105 V 38.345 C 512,17.167 494.833,0 473.655,0 Z"
   id="path862" />
<g
   id="g874"
   transform="translate(0,-88.275)">
	<path
   style="fill:#ffe15a"
   d="m 85.007,140.731 8.416,25.234 26.6,0.206 c 3.444,0.026 4.872,4.422 2.101,6.467 l -21.398,15.801 8.023,25.362 c 1.038,3.284 -2.7,5.999 -5.502,3.997 l -21.64,-15.469 -21.64,15.468 c -2.802,2.003 -6.54,-0.714 -5.502,-3.997 l 8.023,-25.362 -21.398,-15.8 c -2.771,-2.046 -1.343,-6.441 2.101,-6.467 l 26.6,-0.206 8.416,-25.234 c 1.09,-3.267 5.711,-3.267 6.8,0 z"
   id="path864" />
	<path
   style="fill:#ffe15a"
   d="m 181.599,146.949 6.035,8.228 9.739,-3.046 c 1.261,-0.394 2.298,1.044 1.526,2.115 l -5.962,8.281 5.906,8.321 c 0.765,1.077 -0.282,2.508 -1.54,2.105 l -9.719,-3.111 -6.089,8.189 c -0.788,1.06 -2.473,0.506 -2.478,-0.814 l -0.045,-10.205 -9.67,-3.261 c -1.252,-0.423 -1.246,-2.195 0.009,-2.609 l 9.69,-3.196 0.114,-10.204 c 0.014,-1.317 1.703,-1.858 2.484,-0.793 z"
   id="path866" />
	<path
   style="fill:#ffe15a"
   d="m 144.857,122.419 10.144,1.102 4.328,-9.241 c 0.561,-1.196 2.322,-0.991 2.591,0.302 l 2.086,9.988 10.126,1.26 c 1.311,0.163 1.66,1.901 0.513,2.558 l -8.855,5.07 1.931,10.02 c 0.25,1.298 -1.295,2.166 -2.274,1.279 l -7.559,-6.855 -8.932,4.932 c -1.156,0.639 -2.461,-0.563 -1.919,-1.768 l 4.183,-9.308 -7.452,-6.972 c -0.963,-0.898 -0.224,-2.509 1.089,-2.367 z"
   id="path868" />
	<path
   style="fill:#ffe15a"
   d="m 160.895,221.313 -6.034,8.23 -9.739,-3.046 c -1.261,-0.394 -2.298,1.043 -1.526,2.115 l 5.962,8.281 -5.906,8.321 c -0.765,1.077 0.282,2.508 1.54,2.105 l 9.718,-3.111 6.089,8.189 c 0.788,1.06 2.473,0.506 2.478,-0.814 l 0.045,-10.205 9.67,-3.261 c 1.252,-0.423 1.246,-2.195 -0.009,-2.609 l -9.69,-3.196 -0.114,-10.204 c -0.016,-1.319 -1.703,-1.861 -2.484,-0.795 z"
   id="path870" />
	<path
   style="fill:#ffe15a"
   d="m 197.635,198.261 -10.145,1.102 -4.328,-9.241 c -0.561,-1.196 -2.321,-0.991 -2.591,0.302 l -2.087,9.988 -10.126,1.26 c -1.311,0.163 -1.66,1.901 -0.513,2.558 l 8.855,5.07 -1.931,10.02 c -0.25,1.298 1.295,2.166 2.274,1.279 l 7.559,-6.855 8.932,4.932 c 1.156,0.639 2.461,-0.563 1.919,-1.768 l -4.183,-9.308 7.452,-6.972 c 0.967,-0.898 0.228,-2.509 -1.087,-2.367 z"
   id="path872" />
</g>
<g
   id="g876">
</g>
<g
   id="g878">
</g>
<g
   id="g880">
</g>
<g
   id="g882">
</g>
<g
   id="g884">
</g>
<g
   id="g886">
</g>
<g
   id="g888">
</g>
<g
   id="g890">
</g>
<g
   id="g892">
</g>
<g
   id="g894">
</g>
<g
   id="g896">
</g>
<g
   id="g898">
</g>
<g
   id="g900">
</g>
<g
   id="g902">
</g>
<g
   id="g904">
</g>
</svg>
