<?xml version="1.0" encoding="UTF-8" standalone="no"?>
<svg
   xmlns:dc="http://purl.org/dc/elements/1.1/"
   xmlns:cc="http://creativecommons.org/ns#"
   xmlns:rdf="http://www.w3.org/1999/02/22-rdf-syntax-ns#"
   xmlns:svg="http://www.w3.org/2000/svg"
   xmlns="http://www.w3.org/2000/svg"
   xmlns:sodipodi="http://sodipodi.sourceforge.net/DTD/sodipodi-0.dtd"
   xmlns:inkscape="http://www.inkscape.org/namespaces/inkscape"
   version="1.1"
   id="Layer_1"
   x="0px"
   y="0px"
   viewBox="0 0 512 335.45001"
   xml:space="preserve"
   sodipodi:docname="christmas-island.svg"
   width="512"
   height="335.45001"
   inkscape:version="1.0.1 (c497b03c, 2020-09-10)"><metadata
   id="metadata1029"><rdf:RDF><cc:Work
       rdf:about=""><dc:format>image/svg+xml</dc:format><dc:type
         rdf:resource="http://purl.org/dc/dcmitype/StillImage" /><dc:title></dc:title></cc:Work></rdf:RDF></metadata><defs
   id="defs1027" /><sodipodi:namedview
   pagecolor="#ffffff"
   bordercolor="#666666"
   borderopacity="1"
   objecttolerance="10"
   gridtolerance="10"
   guidetolerance="10"
   inkscape:pageopacity="0"
   inkscape:pageshadow="2"
   inkscape:window-width="1797"
   inkscape:window-height="983"
   id="namedview1025"
   showgrid="false"
   inkscape:zoom="1.640625"
   inkscape:cx="256"
   inkscape:cy="256"
   inkscape:window-x="0"
   inkscape:window-y="23"
   inkscape:window-maximized="0"
   inkscape:current-layer="Layer_1" />
<path
   style="fill:#41479b"
   d="m 38.345,335.448 h 435.31 c 9.386,0 17.98,-3.378 24.644,-8.977 L 13.7,8.975 C 5.326,16.01 0,26.553 0,38.345 v 258.759 c 0,21.177 17.167,38.344 38.345,38.344 z"
   id="path972" />
<path
   style="fill:#73af00"
   d="M 512,297.103 V 38.345 C 512,17.168 494.833,0 473.655,0 H 38.345 C 28.959,0 20.365,3.377 13.701,8.975 l 484.6,317.496 C 506.674,319.438 512,308.895 512,297.103 Z"
   id="path974" />
<circle
   style="fill:#ffe15a"
   cx="256"
   cy="167.724"
   r="52.966"
   id="circle976" />
<g
   id="g988"
   transform="translate(0,-88.276)">
	<path
   style="fill:#f5f5f5"
   d="m 38.615,256.597 3.064,7.761 7.978,-2.443 c 0.444,-0.136 0.823,0.341 0.593,0.744 l -4.158,7.234 6.884,4.714 c 0.383,0.262 0.247,0.856 -0.212,0.927 l -8.248,1.26 0.607,8.321 c 0.034,0.462 -0.516,0.727 -0.856,0.413 l -6.127,-5.663 -6.127,5.663 c -0.34,0.314 -0.89,0.05 -0.856,-0.413 l 0.607,-8.321 -8.248,-1.26 c -0.458,-0.07 -0.594,-0.665 -0.212,-0.927 l 6.884,-4.714 -4.158,-7.234 c -0.231,-0.402 0.149,-0.879 0.593,-0.744 l 7.978,2.443 3.064,-7.761 c 0.169,-0.432 0.779,-0.432 0.95,0 z"
   id="path978" />
	<path
   style="fill:#f5f5f5"
   d="m 150.193,235.676 3.064,7.761 7.978,-2.443 c 0.444,-0.136 0.823,0.341 0.593,0.744 l -4.158,7.234 6.884,4.714 c 0.383,0.262 0.247,0.856 -0.212,0.927 l -8.248,1.26 0.607,8.321 c 0.034,0.462 -0.516,0.727 -0.856,0.413 l -6.127,-5.663 -6.127,5.663 c -0.341,0.314 -0.89,0.05 -0.856,-0.413 l 0.607,-8.321 -8.248,-1.26 c -0.458,-0.07 -0.594,-0.665 -0.212,-0.927 l 6.884,-4.714 -4.158,-7.234 c -0.231,-0.402 0.149,-0.879 0.593,-0.744 l 7.978,2.443 3.064,-7.761 c 0.169,-0.431 0.78,-0.431 0.95,0 z"
   id="path980" />
	<path
   style="fill:#f5f5f5"
   d="m 94.403,185.366 3.064,7.761 7.978,-2.443 c 0.444,-0.136 0.823,0.341 0.593,0.744 l -4.158,7.234 6.884,4.714 c 0.383,0.262 0.247,0.856 -0.212,0.927 l -8.248,1.26 0.607,8.321 c 0.034,0.462 -0.516,0.727 -0.856,0.413 l -6.127,-5.663 -6.127,5.663 c -0.34,0.314 -0.89,0.05 -0.856,-0.413 l 0.607,-8.321 -8.248,-1.26 c -0.458,-0.07 -0.594,-0.665 -0.212,-0.927 l 6.884,-4.714 -4.158,-7.234 c -0.231,-0.402 0.149,-0.879 0.593,-0.744 l 7.978,2.443 3.064,-7.761 c 0.17,-0.431 0.78,-0.431 0.95,0 z"
   id="path982" />
	<path
   style="fill:#f5f5f5"
   d="m 94.403,368.175 3.064,7.761 7.978,-2.443 c 0.444,-0.136 0.823,0.341 0.593,0.743 l -4.158,7.234 6.884,4.714 c 0.383,0.262 0.247,0.856 -0.212,0.927 l -8.248,1.26 0.607,8.321 c 0.034,0.462 -0.516,0.727 -0.856,0.413 l -6.127,-5.663 -6.127,5.663 c -0.34,0.314 -0.89,0.05 -0.856,-0.413 l 0.607,-8.321 -8.248,-1.26 c -0.458,-0.07 -0.594,-0.665 -0.212,-0.927 l 6.884,-4.714 -4.158,-7.234 c -0.231,-0.402 0.149,-0.879 0.593,-0.743 l 7.978,2.443 3.064,-7.761 c 0.17,-0.431 0.78,-0.431 0.95,0 z"
   id="path984" />
	<path
   style="fill:#f5f5f5"
   d="m 117.239,263.62 2.138,6.413 6.761,0.053 c 0.524,0.004 0.74,0.672 0.32,0.983 l -5.439,4.017 2.039,6.445 c 0.158,0.5 -0.41,0.913 -0.836,0.608 l -5.5,-3.932 -5.5,3.932 c -0.426,0.305 -0.994,-0.108 -0.836,-0.608 l 2.039,-6.445 -5.439,-4.017 c -0.422,-0.311 -0.204,-0.98 0.32,-0.983 l 6.761,-0.053 2.138,-6.413 c 0.166,-0.497 0.869,-0.497 1.034,0 z"
   id="path986" />
</g>
<path
   style="fill:#73af00"
   d="m 224.575,144.94 c -2.166,-0.505 -4.343,5.067 -1.93,6.997 2.413,1.93 6.756,5.549 4.102,7.721 -2.654,2.172 -3.619,2.413 -4.102,5.067 -0.482,2.654 0,3.137 -2.172,4.343 -2.172,1.206 -7.239,3.619 -5.067,6.033 2.172,2.413 5.067,0.966 6.997,-2.895 0,0 13.512,-0.482 13.995,0.482 0.482,0.966 1.689,4.585 4.585,3.619 2.895,-0.966 2.895,-0.966 2.895,-0.966 0,0 1.689,-0.724 2.895,0.724 1.206,1.448 4.102,1.93 7.48,1.93 3.379,0 6.273,1.93 6.033,6.515 -0.154,2.937 -0.904,9.043 -1.421,13.052 -0.277,2.147 1.195,4.122 3.33,4.478 l 6.178,1.03 c 1.625,0.27 3.136,-0.889 3.281,-2.53 0.29,-3.3 0.711,-8.137 0.697,-8.308 -0.139,-1.735 3.378,-10.616 3.137,-14.719 -0.242,-4.102 -0.242,-4.102 -0.242,-4.102 0,0 3.619,-0.482 5.067,-2.895 1.448,-2.413 4.585,-8.445 10.858,-10.616 l 1.689,-4.102 c 0,0 -4.825,-2.172 -3.861,-3.619 0.966,-1.448 1.448,-5.309 0.724,-8.445 -0.724,-3.136 -0.966,-7.48 -0.966,-7.48 0,0 -1.72,-0.727 -2.083,0.273 -0.363,1 -0.727,1.544 -1.635,1.363 -0.908,-0.182 -2.271,-0.273 -2.634,-1.09 -0.363,-0.817 -1.363,-1.635 -2.271,-1.181 -0.908,0.455 -2.453,6.54 -4.632,7.176 0,0 -0.182,-2.634 -1.544,-2.089 -1.362,0.545 -1.272,1.816 -1.453,4.087 -0.181,2.271 -15.443,17.622 -28.796,13.535 0,0 -1.453,-2.906 -4.451,-2.634 -2.998,0.272 -5.905,0.182 -7.63,-1.908 -1.728,-2.091 -4.477,-8.245 -7.053,-8.846 z"
   id="path990" />
<path
   style="fill:#ffe15a"
   d="m 322.837,170.181 c 4.024,4.276 48.239,16.317 92.932,-7.094 44.693,-23.411 71.295,-30.15 71.295,-30.15 0,0 0.354,-6.03 5.853,-6.916 5.497,-0.887 2.838,-3.192 1.419,-4.966 -1.419,-1.773 -8.335,-6.562 -17.736,-2.483 0,0 -10.936,0.414 -12.591,-14.72 C 462.354,88.718 461.644,73.347 457.861,66.726 454.077,60.105 422.864,27 419.08,29.6 c -3.784,2.601 9.459,35.47 21.756,47.058 0,0 2.838,20.337 -0.71,21.282 -3.548,0.946 -23.174,-17.026 -58.172,-21.282 0,0 14.898,20.337 33.106,28.85 18.208,8.513 23.174,16.317 22.701,19.627 -0.473,3.31 -6.621,19.154 -16.789,26.485 -10.168,7.33 -35.707,27.193 -93.642,16.789 0,-0.001 -6.384,-0.238 -4.493,1.772 z"
   id="path992" />
<g
   id="g994">
</g>
<g
   id="g996">
</g>
<g
   id="g998">
</g>
<g
   id="g1000">
</g>
<g
   id="g1002">
</g>
<g
   id="g1004">
</g>
<g
   id="g1006">
</g>
<g
   id="g1008">
</g>
<g
   id="g1010">
</g>
<g
   id="g1012">
</g>
<g
   id="g1014">
</g>
<g
   id="g1016">
</g>
<g
   id="g1018">
</g>
<g
   id="g1020">
</g>
<g
   id="g1022">
</g>
</svg>
