<?xml version="1.0" encoding="UTF-8" standalone="no"?>
<svg
   xmlns:dc="http://purl.org/dc/elements/1.1/"
   xmlns:cc="http://creativecommons.org/ns#"
   xmlns:rdf="http://www.w3.org/1999/02/22-rdf-syntax-ns#"
   xmlns:svg="http://www.w3.org/2000/svg"
   xmlns="http://www.w3.org/2000/svg"
   xmlns:sodipodi="http://sodipodi.sourceforge.net/DTD/sodipodi-0.dtd"
   xmlns:inkscape="http://www.inkscape.org/namespaces/inkscape"
   version="1.1"
   id="Layer_1"
   x="0px"
   y="0px"
   viewBox="0 0 512 335.45001"
   xml:space="preserve"
   sodipodi:docname="cameroon.svg"
   width="512"
   height="335.45001"
   inkscape:version="1.0.1 (c497b03c, 2020-09-10)"><metadata
   id="metadata98"><rdf:RDF><cc:Work
       rdf:about=""><dc:format>image/svg+xml</dc:format><dc:type
         rdf:resource="http://purl.org/dc/dcmitype/StillImage" /><dc:title></dc:title></cc:Work></rdf:RDF></metadata><defs
   id="defs96" /><sodipodi:namedview
   pagecolor="#ffffff"
   bordercolor="#666666"
   borderopacity="1"
   objecttolerance="10"
   gridtolerance="10"
   guidetolerance="10"
   inkscape:pageopacity="0"
   inkscape:pageshadow="2"
   inkscape:window-width="1797"
   inkscape:window-height="983"
   id="namedview94"
   showgrid="false"
   inkscape:zoom="1.640625"
   inkscape:cx="256"
   inkscape:cy="256"
   inkscape:window-x="0"
   inkscape:window-y="23"
   inkscape:window-maximized="0"
   inkscape:current-layer="Layer_1" />
<path
   style="fill:#73af00"
   d="M 38.345,335.448 H 170.667 V 0 H 38.345 C 17.167,0 0,17.167 0,38.345 v 258.759 c 0,21.177 17.167,38.344 38.345,38.344 z"
   id="path53" />
<rect
   x="170.67"
   y="0.0040004272"
   style="fill:#ff4b55"
   width="170.67"
   height="335.45001"
   id="rect55" />
<g
   id="g61"
   transform="translate(0,-88.273)">
	<path
   style="fill:#ffe15a"
   d="m 473.655,423.721 c 21.177,0 38.345,-17.167 38.345,-38.345 V 126.618 C 512,105.441 494.833,88.273 473.655,88.273 H 341.334 v 335.448 z"
   id="path57" />
	<path
   style="fill:#ffe15a"
   d="m 257.834,223.641 7.584,22.741 23.971,0.185 c 1.857,0.014 2.627,2.385 1.133,3.488 l -19.284,14.24 7.231,22.856 c 0.561,1.771 -1.455,3.235 -2.967,2.155 L 256,275.366 l -19.502,13.94 c -1.511,1.08 -3.527,-0.385 -2.967,-2.155 l 7.231,-22.856 -19.284,-14.24 c -1.494,-1.103 -0.724,-3.474 1.133,-3.488 l 23.971,-0.185 7.584,-22.741 c 0.588,-1.762 3.08,-1.762 3.668,0 z"
   id="path59" />
</g>
<g
   id="g63">
</g>
<g
   id="g65">
</g>
<g
   id="g67">
</g>
<g
   id="g69">
</g>
<g
   id="g71">
</g>
<g
   id="g73">
</g>
<g
   id="g75">
</g>
<g
   id="g77">
</g>
<g
   id="g79">
</g>
<g
   id="g81">
</g>
<g
   id="g83">
</g>
<g
   id="g85">
</g>
<g
   id="g87">
</g>
<g
   id="g89">
</g>
<g
   id="g91">
</g>
</svg>
