<?xml version="1.0" encoding="UTF-8" standalone="no"?>
<svg
   xmlns:dc="http://purl.org/dc/elements/1.1/"
   xmlns:cc="http://creativecommons.org/ns#"
   xmlns:rdf="http://www.w3.org/1999/02/22-rdf-syntax-ns#"
   xmlns:svg="http://www.w3.org/2000/svg"
   xmlns="http://www.w3.org/2000/svg"
   xmlns:sodipodi="http://sodipodi.sourceforge.net/DTD/sodipodi-0.dtd"
   xmlns:inkscape="http://www.inkscape.org/namespaces/inkscape"
   version="1.1"
   id="Layer_1"
   x="0px"
   y="0px"
   viewBox="0 0 512 335.45001"
   xml:space="preserve"
   sodipodi:docname="cocos-island.svg"
   width="512"
   height="335.45001"
   inkscape:version="1.0.1 (c497b03c, 2020-09-10)"><metadata
   id="metadata970"><rdf:RDF><cc:Work
       rdf:about=""><dc:format>image/svg+xml</dc:format><dc:type
         rdf:resource="http://purl.org/dc/dcmitype/StillImage" /><dc:title></dc:title></cc:Work></rdf:RDF></metadata><defs
   id="defs968" /><sodipodi:namedview
   pagecolor="#ffffff"
   bordercolor="#666666"
   borderopacity="1"
   objecttolerance="10"
   gridtolerance="10"
   guidetolerance="10"
   inkscape:pageopacity="0"
   inkscape:pageshadow="2"
   inkscape:window-width="1797"
   inkscape:window-height="983"
   id="namedview966"
   showgrid="false"
   inkscape:zoom="1.640625"
   inkscape:cx="256"
   inkscape:cy="256"
   inkscape:window-x="0"
   inkscape:window-y="23"
   inkscape:window-maximized="0"
   inkscape:current-layer="Layer_1" />
<path
   style="fill:#73af00"
   d="M 512,38.307 C 511.98,17.147 494.821,4.3683713e-8 473.656,4.3683713e-8 H 38.345 C 17.167,-9.9995632e-4 0,17.167 0,38.344 v 258.76 c 0,21.176 17.167,38.345 38.345,38.345 h 435.311 c 21.165,0 38.324,-17.148 38.344,-38.307 V 38.307 Z"
   id="path913" />
<g
   id="g929"
   transform="translate(0,-88.275)">
	<path
   style="fill:#ffe15a"
   d="m 283.616,307.644 c -28.522,0 -51.645,-23.122 -51.645,-51.645 0,-28.523 23.122,-51.645 51.645,-51.645 3.785,0 7.452,0.454 10.987,1.265 1.409,0.323 2.156,-1.568 0.927,-2.329 -10.816,-6.706 -23.841,-10.184 -37.745,-9.053 -30.263,2.462 -54.593,27.134 -56.653,57.428 -2.462,36.189 26.164,66.309 61.826,66.309 11.955,0 23.11,-3.396 32.574,-9.265 1.229,-0.763 0.486,-2.654 -0.925,-2.329 -3.537,0.81 -7.206,1.264 -10.991,1.264 z"
   id="path915" />
	<path
   style="fill:#ffe15a"
   d="m 328.63,212.27 3.879,9.824 10.099,-3.093 c 0.561,-0.172 1.043,0.433 0.75,0.941 l -5.262,9.158 8.715,5.967 c 0.484,0.331 0.312,1.085 -0.268,1.173 l -10.441,1.596 0.768,10.534 c 0.043,0.585 -0.653,0.92 -1.084,0.522 l -7.756,-7.168 -7.756,7.168 c -0.431,0.398 -1.127,0.063 -1.084,-0.522 l 0.768,-10.534 -10.441,-1.596 c -0.58,-0.088 -0.751,-0.842 -0.268,-1.173 l 8.715,-5.967 -5.262,-9.158 c -0.292,-0.509 0.189,-1.112 0.75,-0.941 l 10.099,3.093 3.879,-9.824 c 0.212,-0.545 0.984,-0.545 1.2,0 z"
   id="path917" />
	<path
   style="fill:#ffe15a"
   d="m 469.871,185.786 3.879,9.824 10.099,-3.093 c 0.561,-0.172 1.043,0.433 0.75,0.941 l -5.262,9.158 8.715,5.967 c 0.484,0.331 0.312,1.085 -0.268,1.173 l -10.441,1.596 0.768,10.534 c 0.043,0.585 -0.653,0.92 -1.084,0.522 l -7.756,-7.168 -7.756,7.168 c -0.431,0.398 -1.127,0.063 -1.084,-0.522 l 0.768,-10.534 -10.441,-1.596 c -0.58,-0.088 -0.751,-0.842 -0.268,-1.173 l 8.715,-5.967 -5.262,-9.158 c -0.292,-0.509 0.189,-1.112 0.75,-0.941 l 10.099,3.093 3.879,-9.824 c 0.213,-0.544 0.985,-0.544 1.2,0 z"
   id="path919" />
	<path
   style="fill:#ffe15a"
   d="m 399.251,122.101 3.879,9.824 10.099,-3.093 c 0.561,-0.172 1.043,0.433 0.75,0.941 l -5.262,9.158 8.715,5.967 c 0.484,0.331 0.312,1.085 -0.268,1.173 l -10.441,1.596 0.768,10.534 c 0.043,0.585 -0.653,0.92 -1.084,0.522 l -7.756,-7.168 -7.756,7.168 c -0.431,0.398 -1.127,0.063 -1.084,-0.522 l 0.768,-10.534 -10.441,-1.596 c -0.58,-0.088 -0.751,-0.842 -0.268,-1.173 l 8.715,-5.967 -5.262,-9.158 c -0.292,-0.509 0.189,-1.112 0.75,-0.941 l 10.099,3.093 3.879,-9.824 c 0.212,-0.545 0.984,-0.545 1.2,0 z"
   id="path921" />
	<path
   style="fill:#ffe15a"
   d="m 399.251,353.512 3.879,9.824 10.099,-3.093 c 0.561,-0.172 1.043,0.433 0.75,0.941 l -5.262,9.158 8.715,5.967 c 0.484,0.331 0.312,1.085 -0.268,1.173 l -10.441,1.596 0.768,10.534 c 0.043,0.585 -0.653,0.92 -1.084,0.522 l -7.756,-7.168 -7.756,7.168 c -0.431,0.398 -1.127,0.063 -1.084,-0.522 l 0.768,-10.534 -10.441,-1.596 c -0.58,-0.088 -0.751,-0.842 -0.268,-1.173 l 8.715,-5.967 -5.262,-9.158 c -0.292,-0.509 0.189,-1.112 0.75,-0.941 l 10.099,3.093 3.879,-9.824 c 0.212,-0.545 0.984,-0.545 1.2,0 z"
   id="path923" />
	<path
   style="fill:#ffe15a"
   d="m 428.156,221.16 2.708,8.118 8.557,0.066 c 0.663,0.006 0.938,0.851 0.405,1.245 l -6.884,5.084 2.581,8.159 c 0.2,0.632 -0.52,1.155 -1.059,0.769 l -6.963,-4.977 -6.963,4.977 c -0.54,0.385 -1.259,-0.137 -1.059,-0.769 l 2.581,-8.159 -6.884,-5.084 c -0.533,-0.394 -0.258,-1.24 0.405,-1.245 l 8.557,-0.066 2.708,-8.118 c 0.211,-0.629 1.101,-0.629 1.31,0 z"
   id="path925" />
	<circle
   style="fill:#ffe15a"
   cx="92.690002"
   cy="180.96899"
   r="57.380001"
   id="circle927" />
</g>
<path
   style="fill:#964b50"
   d="m 86.787,137.392 h 15.496 c 0,0 8.804,-39.444 0.704,-53.532 l -4.93,3.169 c 0,0.003 8.1,27.119 -11.27,50.363 z"
   id="path931" />
<path
   style="fill:#73af00"
   d="m 87.373,85.622 c 0,0 -8.921,6.104 -6.104,24.183 0,0 6.808,-5.635 10.566,-18.079 0,0 -5.4,10.331 2.113,18.548 0,0 7.982,-11.27 6.808,-21.131 0,0 26.539,27.714 20.896,20.661 -0.939,-1.174 1.409,-12.914 -7.748,-22.539 0,0 15.027,3.756 20.661,2.348 0,0 0.47,-11.975 -13.853,-14.088 l 3.287,-9.391 c 0,0 -11.035,-0.704 -16.905,4.93 0,0 -1.409,-14.557 4.461,-21.6 0,0 -17.374,-2.583 -18.079,20.192 0,0 -6.339,-14.557 -25.826,-11.035 0,0 11.035,7.982 12.914,11.505 0,0 -15.496,-10.566 -22.774,4.226 0,0 12.444,-3.287 16.905,2.583 0,0 -19.957,-2.113 -21.6,15.027 0,-0.001 18.549,-8.688 34.278,-6.34 z"
   id="path933" />
<g
   id="g935">
</g>
<g
   id="g937">
</g>
<g
   id="g939">
</g>
<g
   id="g941">
</g>
<g
   id="g943">
</g>
<g
   id="g945">
</g>
<g
   id="g947">
</g>
<g
   id="g949">
</g>
<g
   id="g951">
</g>
<g
   id="g953">
</g>
<g
   id="g955">
</g>
<g
   id="g957">
</g>
<g
   id="g959">
</g>
<g
   id="g961">
</g>
<g
   id="g963">
</g>
</svg>
