<?xml version="1.0" encoding="UTF-8" standalone="no"?>
<svg
   xmlns:dc="http://purl.org/dc/elements/1.1/"
   xmlns:cc="http://creativecommons.org/ns#"
   xmlns:rdf="http://www.w3.org/1999/02/22-rdf-syntax-ns#"
   xmlns:svg="http://www.w3.org/2000/svg"
   xmlns="http://www.w3.org/2000/svg"
   xmlns:sodipodi="http://sodipodi.sourceforge.net/DTD/sodipodi-0.dtd"
   xmlns:inkscape="http://www.inkscape.org/namespaces/inkscape"
   version="1.1"
   id="Layer_1"
   x="0px"
   y="0px"
   viewBox="0 0 512 335.45001"
   xml:space="preserve"
   sodipodi:docname="cape-verde.svg"
   width="512"
   height="335.45001"
   inkscape:version="1.0.1 (c497b03c, 2020-09-10)"><metadata
   id="metadata391"><rdf:RDF><cc:Work
       rdf:about=""><dc:format>image/svg+xml</dc:format><dc:type
         rdf:resource="http://purl.org/dc/dcmitype/StillImage" /><dc:title></dc:title></cc:Work></rdf:RDF></metadata><defs
   id="defs389" /><sodipodi:namedview
   pagecolor="#ffffff"
   bordercolor="#666666"
   borderopacity="1"
   objecttolerance="10"
   gridtolerance="10"
   guidetolerance="10"
   inkscape:pageopacity="0"
   inkscape:pageshadow="2"
   inkscape:window-width="1797"
   inkscape:window-height="983"
   id="namedview387"
   showgrid="false"
   inkscape:zoom="1.640625"
   inkscape:cx="256"
   inkscape:cy="256"
   inkscape:window-x="0"
   inkscape:window-y="23"
   inkscape:window-maximized="0"
   inkscape:current-layer="Layer_1" />
<path
   style="fill:#41479b"
   d="M 473.654,335.448 H 38.345 C 17.167,335.448 0,318.281 0,297.103 V 38.345 C 0,17.168 17.167,0 38.345,0 h 435.309 c 21.177,0 38.345,17.167 38.345,38.345 v 258.758 c 0,21.178 -17.168,38.345 -38.345,38.345 z"
   id="path324" />
<g
   id="g330"
   transform="translate(0,-88.276)">
	<rect
   y="282.48099"
   style="fill:#f5f5f5"
   width="512"
   height="23.540001"
   id="rect326"
   x="0" />
	<rect
   y="329.57101"
   style="fill:#f5f5f5"
   width="512"
   height="23.540001"
   id="rect328"
   x="0" />
</g>
<rect
   y="217.745"
   style="fill:#ff4b55"
   width="512"
   height="23.540001"
   id="rect332"
   x="0" />
<g
   id="g354"
   transform="translate(0,-88.276)">
	<path
   style="fill:#ffe15a"
   d="m 169.649,234.664 2.708,8.118 8.557,0.066 c 0.663,0.006 0.938,0.851 0.405,1.245 l -6.884,5.084 2.581,8.159 c 0.2,0.632 -0.52,1.155 -1.059,0.769 l -6.963,-4.977 -6.963,4.977 c -0.54,0.385 -1.259,-0.137 -1.059,-0.769 l 2.581,-8.159 -6.884,-5.084 c -0.533,-0.394 -0.258,-1.24 0.405,-1.245 l 8.557,-0.066 2.708,-8.118 c 0.21,-0.629 1.101,-0.629 1.31,0 z"
   id="path334" />
	<path
   style="fill:#ffe15a"
   d="m 169.649,377.322 2.708,8.118 8.557,0.066 c 0.663,0.006 0.938,0.851 0.405,1.245 l -6.884,5.084 2.581,8.159 c 0.2,0.632 -0.52,1.155 -1.059,0.769 l -6.963,-4.977 -6.963,4.977 c -0.54,0.385 -1.259,-0.137 -1.059,-0.769 l 2.581,-8.159 -6.884,-5.084 c -0.533,-0.394 -0.258,-1.24 0.405,-1.245 l 8.557,-0.066 2.708,-8.118 c 0.21,-0.629 1.101,-0.629 1.31,0 z"
   id="path336" />
	<path
   style="fill:#ffe15a"
   d="m 123.342,385.293 6.881,-5.088 7.041,4.864 c 0.545,0.376 1.257,-0.158 1.047,-0.787 l -2.712,-8.117 6.802,-5.194 c 0.527,-0.403 0.238,-1.244 -0.425,-1.238 l -8.557,0.071 -2.838,-8.074 c -0.22,-0.626 -1.109,-0.611 -1.309,0.021 l -2.577,8.161 -8.555,0.204 c -0.663,0.015 -0.924,0.866 -0.384,1.251 l 6.965,4.972 -2.45,8.2 c -0.19,0.637 0.537,1.148 1.071,0.754 z"
   id="path338" />
	<path
   style="fill:#ffe15a"
   d="m 137.104,269.322 -6.987,-4.941 -6.937,5.012 c -0.537,0.388 -1.26,-0.131 -1.063,-0.765 l 2.54,-8.172 -6.91,-5.049 c -0.535,-0.391 -0.265,-1.238 0.398,-1.247 l 8.557,-0.109 2.667,-8.131 c 0.206,-0.63 1.096,-0.634 1.309,-0.007 l 2.749,8.105 8.558,0.023 c 0.663,0.002 0.942,0.846 0.41,1.242 l -6.859,5.118 2.623,8.147 c 0.204,0.63 -0.513,1.156 -1.055,0.774 z"
   id="path340" />
	<path
   style="fill:#ffe15a"
   d="m 201.552,269.427 6.881,-5.088 7.041,4.864 c 0.545,0.376 1.257,-0.158 1.047,-0.787 l -2.712,-8.117 6.802,-5.194 c 0.527,-0.403 0.238,-1.244 -0.425,-1.238 l -8.557,0.071 -2.838,-8.074 c -0.22,-0.626 -1.109,-0.611 -1.309,0.021 l -2.577,8.161 -8.555,0.204 c -0.663,0.015 -0.924,0.866 -0.384,1.251 l 6.965,4.972 -2.45,8.2 c -0.19,0.636 0.538,1.148 1.071,0.754 z"
   id="path342" />
	<path
   style="fill:#ffe15a"
   d="m 215.315,385.189 -6.987,-4.941 -6.937,5.012 c -0.537,0.388 -1.26,-0.131 -1.063,-0.765 l 2.54,-8.172 -6.91,-5.049 c -0.535,-0.391 -0.265,-1.238 0.398,-1.247 l 8.557,-0.109 2.667,-8.131 c 0.206,-0.63 1.096,-0.634 1.309,-0.007 l 2.749,8.105 8.558,0.023 c 0.663,0.002 0.942,0.846 0.41,1.242 l -6.859,5.118 2.623,8.147 c 0.203,0.63 -0.514,1.156 -1.055,0.774 z"
   id="path344" />
	<path
   style="fill:#ffe15a"
   d="m 113.107,335.327 -8.557,0.056 -2.824,-8.078 c -0.218,-0.626 -1.108,-0.613 -1.309,0.019 l -2.591,8.157 -8.556,0.19 c -0.663,0.014 -0.926,0.865 -0.386,1.251 l 6.957,4.984 -2.464,8.195 c -0.191,0.634 0.536,1.148 1.07,0.754 l 6.89,-5.076 7.033,4.876 c 0.545,0.377 1.257,-0.156 1.048,-0.785 l -2.699,-8.121 6.81,-5.182 c 0.528,-0.402 0.241,-1.244 -0.422,-1.24 z"
   id="path346" />
	<path
   style="fill:#ffe15a"
   d="m 89.271,291.343 8.556,-0.161 2.617,-8.148 c 0.203,-0.631 1.092,-0.641 1.309,-0.014 l 2.798,8.087 8.558,-0.029 c 0.663,-0.002 0.948,0.841 0.418,1.24 l -6.827,5.16 2.673,8.13 c 0.207,0.63 -0.506,1.161 -1.05,0.781 l -7.017,-4.898 -6.906,5.054 c -0.535,0.392 -1.26,-0.124 -1.068,-0.758 l 2.49,-8.188 -6.941,-5.006 c -0.538,-0.389 -0.272,-1.238 0.39,-1.25 z"
   id="path348" />
	<path
   style="fill:#ffe15a"
   d="m 248.699,291.027 -8.557,0.056 -2.824,-8.078 c -0.218,-0.626 -1.108,-0.613 -1.309,0.019 l -2.591,8.157 -8.556,0.19 c -0.663,0.014 -0.926,0.865 -0.386,1.251 l 6.957,4.984 -2.464,8.195 c -0.191,0.635 0.536,1.148 1.07,0.755 l 6.89,-5.076 7.033,4.876 c 0.545,0.377 1.257,-0.156 1.048,-0.785 l -2.698,-8.121 6.81,-5.182 c 0.527,-0.403 0.24,-1.245 -0.423,-1.241 z"
   id="path350" />
	<path
   style="fill:#ffe15a"
   d="m 224.864,335.643 8.556,-0.161 2.617,-8.148 c 0.203,-0.631 1.092,-0.641 1.309,-0.014 l 2.798,8.087 8.558,-0.029 c 0.663,-0.002 0.948,0.841 0.418,1.24 l -6.827,5.16 2.673,8.13 c 0.207,0.63 -0.506,1.161 -1.05,0.781 l -7.017,-4.898 -6.906,5.054 c -0.535,0.392 -1.26,-0.124 -1.068,-0.758 l 2.49,-8.188 -6.941,-5.006 c -0.538,-0.388 -0.273,-1.237 0.39,-1.25 z"
   id="path352" />
</g>
<g
   id="g356">
</g>
<g
   id="g358">
</g>
<g
   id="g360">
</g>
<g
   id="g362">
</g>
<g
   id="g364">
</g>
<g
   id="g366">
</g>
<g
   id="g368">
</g>
<g
   id="g370">
</g>
<g
   id="g372">
</g>
<g
   id="g374">
</g>
<g
   id="g376">
</g>
<g
   id="g378">
</g>
<g
   id="g380">
</g>
<g
   id="g382">
</g>
<g
   id="g384">
</g>
</svg>
