<?xml version="1.0" encoding="UTF-8" standalone="no"?>
<svg
   xmlns:dc="http://purl.org/dc/elements/1.1/"
   xmlns:cc="http://creativecommons.org/ns#"
   xmlns:rdf="http://www.w3.org/1999/02/22-rdf-syntax-ns#"
   xmlns:svg="http://www.w3.org/2000/svg"
   xmlns="http://www.w3.org/2000/svg"
   xmlns:sodipodi="http://sodipodi.sourceforge.net/DTD/sodipodi-0.dtd"
   xmlns:inkscape="http://www.inkscape.org/namespaces/inkscape"
   version="1.1"
   id="Layer_1"
   x="0px"
   y="0px"
   viewBox="0 0 512 335.45001"
   xml:space="preserve"
   sodipodi:docname="cw.svg"
   width="512"
   height="335.45001"
   inkscape:version="1.0.1 (c497b03c, 2020-09-10)"><metadata
   id="metadata55"><rdf:RDF><cc:Work
       rdf:about=""><dc:format>image/svg+xml</dc:format><dc:type
         rdf:resource="http://purl.org/dc/dcmitype/StillImage" /><dc:title></dc:title></cc:Work></rdf:RDF></metadata><defs
   id="defs53" /><sodipodi:namedview
   pagecolor="#ffffff"
   bordercolor="#666666"
   borderopacity="1"
   objecttolerance="10"
   gridtolerance="10"
   guidetolerance="10"
   inkscape:pageopacity="0"
   inkscape:pageshadow="2"
   inkscape:window-width="1846"
   inkscape:window-height="984"
   id="namedview51"
   showgrid="false"
   inkscape:zoom="1.640625"
   inkscape:cx="256"
   inkscape:cy="256"
   inkscape:window-x="0"
   inkscape:window-y="23"
   inkscape:window-maximized="0"
   inkscape:current-layer="Layer_1" />
<path
   style="fill:#41479b"
   d="M 473.885,0 H 38.115 C 17.045,0.124 0,17.238 0,38.338 v 258.759 c 0,21.177 17.167,38.345 38.345,38.345 h 435.31 c 21.177,0 38.345,-17.167 38.345,-38.345 V 38.338 C 512,17.238 494.955,0.124 473.885,0 Z"
   id="path10" />
<rect
   y="229.511"
   style="fill:#ffe15a"
   width="512"
   height="44.139999"
   id="rect12"
   x="0" />
<g
   id="g18"
   transform="translate(0,-88.279)">
	<path
   style="fill:#f5f5f5"
   d="m 118.945,170.87 -8.683,26.034 -27.443,0.213 c -2.632,0.02 -3.723,3.379 -1.606,4.942 l 22.077,16.302 -8.278,26.165 c -0.793,2.509 2.063,4.585 4.204,3.054 l 22.327,-15.958 22.327,15.958 c 2.141,1.53 4.998,-0.545 4.204,-3.054 l -8.278,-26.165 22.077,-16.302 c 2.118,-1.564 1.026,-4.921 -1.606,-4.942 l -27.443,-0.213 -8.683,-26.034 c -0.832,-2.497 -4.363,-2.497 -5.196,0 z"
   id="path14" />
	<path
   style="fill:#f5f5f5"
   d="m 56.393,122.828 -5.025,15.069 -15.884,0.124 c -1.523,0.012 -2.155,1.955 -0.929,2.86 l 12.778,9.436 -4.791,15.145 c -0.459,1.452 1.194,2.654 2.433,1.768 l 12.922,-9.237 12.922,9.237 c 1.239,0.886 2.893,-0.316 2.433,-1.768 l -4.791,-15.145 12.778,-9.436 c 1.225,-0.905 0.594,-2.849 -0.929,-2.86 l -15.884,-0.124 -5.025,-15.069 c -0.482,-1.445 -2.526,-1.445 -3.008,0 z"
   id="path16" />
</g>
<g
   id="g20">
</g>
<g
   id="g22">
</g>
<g
   id="g24">
</g>
<g
   id="g26">
</g>
<g
   id="g28">
</g>
<g
   id="g30">
</g>
<g
   id="g32">
</g>
<g
   id="g34">
</g>
<g
   id="g36">
</g>
<g
   id="g38">
</g>
<g
   id="g40">
</g>
<g
   id="g42">
</g>
<g
   id="g44">
</g>
<g
   id="g46">
</g>
<g
   id="g48">
</g>
</svg>
