<?xml version="1.0" encoding="UTF-8" standalone="no"?>
<svg
   xmlns:dc="http://purl.org/dc/elements/1.1/"
   xmlns:cc="http://creativecommons.org/ns#"
   xmlns:rdf="http://www.w3.org/1999/02/22-rdf-syntax-ns#"
   xmlns:svg="http://www.w3.org/2000/svg"
   xmlns="http://www.w3.org/2000/svg"
   xmlns:sodipodi="http://sodipodi.sourceforge.net/DTD/sodipodi-0.dtd"
   xmlns:inkscape="http://www.inkscape.org/namespaces/inkscape"
   version="1.1"
   id="Layer_1"
   x="0px"
   y="0px"
   viewBox="0 0 512 335.45001"
   xml:space="preserve"
   sodipodi:docname="cy.svg"
   width="512"
   height="335.45001"
   inkscape:version="1.0.1 (c497b03c, 2020-09-10)"><metadata
   id="metadata146"><rdf:RDF><cc:Work
       rdf:about=""><dc:format>image/svg+xml</dc:format><dc:type
         rdf:resource="http://purl.org/dc/dcmitype/StillImage" /><dc:title></dc:title></cc:Work></rdf:RDF></metadata><defs
   id="defs144" /><sodipodi:namedview
   pagecolor="#ffffff"
   bordercolor="#666666"
   borderopacity="1"
   objecttolerance="10"
   gridtolerance="10"
   guidetolerance="10"
   inkscape:pageopacity="0"
   inkscape:pageshadow="2"
   inkscape:window-width="1846"
   inkscape:window-height="984"
   id="namedview142"
   showgrid="false"
   inkscape:zoom="1.640625"
   inkscape:cx="256"
   inkscape:cy="256"
   inkscape:window-x="0"
   inkscape:window-y="23"
   inkscape:window-maximized="0"
   inkscape:current-layer="Layer_1" />
<path
   style="fill:#f5f5f5;stroke-width:1"
   d="M 473.655,335.448 H 38.345 C 17.167,335.448 0,318.281 0,297.103 V 38.345 C 0,17.168 17.167,0 38.345,0 h 435.31 C 494.832,0 512,17.167 512,38.345 v 258.759 c 0,21.177 -17.167,38.344 -38.345,38.344 z"
   id="path57" />
<g
   id="g107"
   transform="translate(0,-88.276)">
	<path
   style="fill:#73af00"
   d="m 244.426,360.546 c 4.884,-3.648 9.128,-4.841 15.694,-6.034 6.569,-1.193 13.506,-3.228 17.144,-4.21 3.67,-1.016 -12.328,4.841 -16.403,5.999 -4.007,1.227 -16.435,4.245 -16.435,4.245 z"
   id="path59" />
	<path
   style="fill:#73af00"
   d="m 270.865,350.274 c -1.314,-8.252 1.952,-16.94 9.429,-20.41 1.752,5.996 -3.604,16.166 -9.429,20.41 z"
   id="path61" />
	<path
   style="fill:#73af00"
   d="m 283.629,345.997 c -4.008,-6.904 2.728,-15.763 7.746,-20.074 2.324,4.143 -1.752,16.503 -7.746,20.074 z"
   id="path63" />
	<path
   style="fill:#73af00"
   d="m 295.383,340.675 c -4.244,-5.894 0.809,-16.201 6.198,-20.276 2.088,5.828 -0.001,16.267 -6.198,20.276 z"
   id="path65" />
	<path
   style="fill:#73af00"
   d="m 307.171,333.266 c -3.906,-5.558 -1.177,-14.18 4.446,-19.805 4.009,4.649 0.572,14.686 -4.446,19.805 z"
   id="path67" />
	<path
   style="fill:#73af00"
   d="m 316.637,325.856 c -3.267,-5.255 0.739,-17.816 5.994,-21.287 2.256,4.648 0.572,17.785 -5.994,21.287 z"
   id="path69" />
	<path
   style="fill:#73af00"
   d="m 324.146,323.87 c -0.943,-7.511 12.192,-15.83 17.548,-15.594 -0.573,6.128 -6.198,12.864 -17.548,15.594 z"
   id="path71" />
	<path
   style="fill:#73af00"
   d="m 316.803,332.355 c 6.198,-6.33 18.155,-6.33 22.397,-5.018 -1.11,3.706 -15.255,11.756 -22.397,5.018 z"
   id="path73" />
	<path
   style="fill:#73af00"
   d="m 308.316,338.722 c 8.69,-2.325 14.314,-4.211 19.501,1.177 -3.671,4.649 -17.749,3.269 -19.501,-1.177 z"
   id="path75" />
	<path
   style="fill:#73af00"
   d="m 295.923,344.348 c 8.319,-4.447 18.389,2.121 19.905,5.927 -9.262,3.872 -20.074,-4.952 -19.905,-5.927 z"
   id="path77" />
	<path
   style="fill:#73af00"
   d="m 284.537,350.712 c 7.578,-2.897 16.268,0.943 19.703,5.187 -4.041,1.954 -14.617,4.075 -19.703,-5.187 z"
   id="path79" />
	<path
   style="fill:#73af00"
   d="m 274.166,353.978 c 8.69,-0.975 17.007,5.625 18.827,9.364 -11.049,1.077 -15.326,-2.256 -18.827,-9.364 z"
   id="path81" />
	<path
   style="fill:#73af00"
   d="m 271.37,360.546 c -4.817,-3.648 -9.06,-4.841 -15.628,-6.034 -6.569,-1.193 -13.506,-3.228 -17.209,-4.21 -3.604,-1.016 12.393,4.841 16.468,5.999 4.041,1.227 16.369,4.245 16.369,4.245 z"
   id="path83" />
	<path
   style="fill:#73af00"
   d="m 244.931,350.274 c 1.379,-8.252 -1.887,-16.94 -9.431,-20.41 -1.684,5.996 3.672,16.166 9.431,20.41 z"
   id="path85" />
	<path
   style="fill:#73af00"
   d="m 232.233,345.997 c 4.076,-6.904 -2.728,-15.763 -7.746,-20.074 -2.325,4.143 1.752,16.503 7.746,20.074 z"
   id="path87" />
	<path
   style="fill:#73af00"
   d="m 220.412,340.675 c 4.311,-5.894 -0.742,-16.201 -6.131,-20.276 -2.121,5.828 0.001,16.267 6.131,20.276 z"
   id="path89" />
	<path
   style="fill:#73af00"
   d="m 208.657,333.266 c 3.873,-5.558 1.18,-14.18 -4.412,-19.805 -4.007,4.649 -0.572,14.686 4.412,19.805 z"
   id="path91" />
	<path
   style="fill:#73af00"
   d="m 199.228,325.856 c 3.334,-5.255 -0.742,-17.816 -5.996,-21.287 -2.324,4.648 -0.573,17.785 5.996,21.287 z"
   id="path93" />
	<path
   style="fill:#73af00"
   d="m 191.649,323.87 c 1.011,-7.511 -12.125,-15.83 -17.481,-15.594 0.573,6.128 6.098,12.864 17.481,15.594 z"
   id="path95" />
	<path
   style="fill:#73af00"
   d="m 199.059,332.355 c -6.198,-6.33 -18.153,-6.33 -22.397,-5.018 1.177,3.706 15.255,11.756 22.397,5.018 z"
   id="path97" />
	<path
   style="fill:#73af00"
   d="m 207.546,338.722 c -8.69,-2.325 -14.314,-4.211 -19.501,1.177 3.604,4.649 17.749,3.269 19.501,-1.177 z"
   id="path99" />
	<path
   style="fill:#73af00"
   d="m 219.872,344.348 c -8.285,-4.447 -18.322,2.121 -19.838,5.927 9.263,3.872 20.007,-4.952 19.838,-5.927 z"
   id="path101" />
	<path
   style="fill:#73af00"
   d="m 231.222,350.712 c -7.544,-2.897 -16.2,0.943 -19.635,5.187 4.075,1.954 14.652,4.075 19.635,-5.187 z"
   id="path103" />
	<path
   style="fill:#73af00"
   d="m 241.731,353.978 c -8.757,-0.975 -17.075,5.625 -18.86,9.364 11.114,1.077 15.358,-2.256 18.86,-9.364 z"
   id="path105" />
</g>
<path
   style="fill:#ffc850;stroke-width:1"
   d="m 147.966,140.918 c 0,0 -2.412,3.146 1.685,11.114 4.097,7.968 1.154,17.164 5.568,20.106 4.414,2.943 0.185,8.778 5.242,12.664 5.056,3.887 18.345,12.831 27.517,13.877 9.172,1.045 18.082,-8.222 23.374,-1.382 5.292,6.84 4.136,11.661 9.128,12.193 4.992,0.532 4.992,-1.675 4.625,-4.985 -0.367,-3.31 3.31,-12.505 11.77,-12.505 8.46,0 17.422,-1.007 31.7,-6.389 14.278,-5.382 21.266,-7.956 23.105,-16.416 1.839,-8.46 7.068,-18.462 17.143,-13.828 10.076,4.633 9.398,2.46 12.495,0.236 3.097,-2.224 13.482,4.209 15.83,0.809 2.348,-3.401 -18.377,-20.224 -17.209,-29.1 1.166,-8.875 3.961,-16.247 12.495,-16.975 8.534,-0.728 6.327,-10.291 15.155,-15.073 8.828,-4.781 12.894,-5.329 19.872,-12.412 6.978,-7.083 25.329,-21.421 25.329,-21.421 0,0 -35.701,17.097 -42.841,18.66 -7.14,1.564 -10.087,11.863 -29.949,17.38 -19.862,5.517 -20.966,7.724 -36.046,11.034 -13.581,2.982 -44.26,1.98 -62.408,-3.843 -2.503,-0.803 -4.99,1.173 -4.768,3.793 0.747,8.821 0.538,24.681 -10.176,27.142 0,0 -14.603,-10.906 -23.798,-6.125 -9.195,4.781 -15.735,21.834 -22.58,19.192 -6.845,-2.642 -7.741,-13.587 -12.258,-7.746 z"
   id="path109" />
<g
   id="g111">
</g>
<g
   id="g113">
</g>
<g
   id="g115">
</g>
<g
   id="g117">
</g>
<g
   id="g119">
</g>
<g
   id="g121">
</g>
<g
   id="g123">
</g>
<g
   id="g125">
</g>
<g
   id="g127">
</g>
<g
   id="g129">
</g>
<g
   id="g131">
</g>
<g
   id="g133">
</g>
<g
   id="g135">
</g>
<g
   id="g137">
</g>
<g
   id="g139">
</g>
</svg>
