<?xml version="1.0" encoding="UTF-8" standalone="no"?>
<svg
   xmlns:dc="http://purl.org/dc/elements/1.1/"
   xmlns:cc="http://creativecommons.org/ns#"
   xmlns:rdf="http://www.w3.org/1999/02/22-rdf-syntax-ns#"
   xmlns:svg="http://www.w3.org/2000/svg"
   xmlns="http://www.w3.org/2000/svg"
   xmlns:sodipodi="http://sodipodi.sourceforge.net/DTD/sodipodi-0.dtd"
   xmlns:inkscape="http://www.inkscape.org/namespaces/inkscape"
   version="1.1"
   id="Layer_1"
   x="0px"
   y="0px"
   viewBox="0 0 512 335.45001"
   xml:space="preserve"
   sodipodi:docname="dj.svg"
   width="512"
   height="335.45001"
   inkscape:version="1.0.1 (c497b03c, 2020-09-10)"><metadata
   id="metadata53"><rdf:RDF><cc:Work
       rdf:about=""><dc:format>image/svg+xml</dc:format><dc:type
         rdf:resource="http://purl.org/dc/dcmitype/StillImage" /><dc:title></dc:title></cc:Work></rdf:RDF></metadata><defs
   id="defs51" /><sodipodi:namedview
   pagecolor="#ffffff"
   bordercolor="#666666"
   borderopacity="1"
   objecttolerance="10"
   gridtolerance="10"
   guidetolerance="10"
   inkscape:pageopacity="0"
   inkscape:pageshadow="2"
   inkscape:window-width="2560"
   inkscape:window-height="984"
   id="namedview49"
   showgrid="false"
   inkscape:zoom="1.640625"
   inkscape:cx="256"
   inkscape:cy="256"
   inkscape:window-x="0"
   inkscape:window-y="23"
   inkscape:window-maximized="1"
   inkscape:current-layer="Layer_1" />
<path
   style="fill:#f5f5f5"
   d="M 13.696,8.973 C 5.325,16.007 0,26.549 0,38.338 v 258.759 c 0,11.794 5.329,22.338 13.704,29.373 L 256,167.724 Z"
   id="path10" />
<path
   style="fill:#73af00"
   d="m 13.704,326.47 c 6.665,5.597 15.257,8.972 24.641,8.972 h 435.31 c 21.177,0 38.345,-17.167 38.345,-38.345 V 167.724 H 256 Z"
   id="path12" />
<path
   style="fill:#82afff"
   d="M 473.885,0 H 38.115 C 28.817,0.055 20.306,3.418 13.696,8.973 L 256,167.724 H 512 V 38.338 C 512,17.238 494.955,0.124 473.885,0 Z"
   id="path14" />
<path
   style="fill:#ff4b55"
   d="m 91.766,127.858 -8.94,26.806 -28.257,0.22 c -1.549,0.012 -2.191,1.99 -0.946,2.91 l 22.732,16.787 -8.523,26.942 c -0.467,1.478 1.215,2.699 2.475,1.798 l 22.989,-16.431 22.989,16.431 c 1.26,0.9 2.942,-0.321 2.475,-1.798 l -8.523,-26.942 22.732,-16.787 c 1.246,-0.92 0.604,-2.898 -0.946,-2.91 l -28.257,-0.22 -8.94,-26.806 c -0.491,-1.47 -2.57,-1.47 -3.06,0 z"
   id="path16" />
<g
   id="g18">
</g>
<g
   id="g20">
</g>
<g
   id="g22">
</g>
<g
   id="g24">
</g>
<g
   id="g26">
</g>
<g
   id="g28">
</g>
<g
   id="g30">
</g>
<g
   id="g32">
</g>
<g
   id="g34">
</g>
<g
   id="g36">
</g>
<g
   id="g38">
</g>
<g
   id="g40">
</g>
<g
   id="g42">
</g>
<g
   id="g44">
</g>
<g
   id="g46">
</g>
</svg>
