<?xml version="1.0" encoding="UTF-8" standalone="no"?>
<svg
   xmlns:dc="http://purl.org/dc/elements/1.1/"
   xmlns:cc="http://creativecommons.org/ns#"
   xmlns:rdf="http://www.w3.org/1999/02/22-rdf-syntax-ns#"
   xmlns:svg="http://www.w3.org/2000/svg"
   xmlns="http://www.w3.org/2000/svg"
   xmlns:sodipodi="http://sodipodi.sourceforge.net/DTD/sodipodi-0.dtd"
   xmlns:inkscape="http://www.inkscape.org/namespaces/inkscape"
   version="1.1"
   id="Layer_1"
   x="0px"
   y="0px"
   viewBox="0 0 512.001 335.45003"
   xml:space="preserve"
   sodipodi:docname="do.svg"
   width="512.00098"
   height="335.45001"
   inkscape:version="1.0.1 (c497b03c, 2020-09-10)"><metadata
   id="metadata169"><rdf:RDF><cc:Work
       rdf:about=""><dc:format>image/svg+xml</dc:format><dc:type
         rdf:resource="http://purl.org/dc/dcmitype/StillImage" /><dc:title></dc:title></cc:Work></rdf:RDF></metadata><defs
   id="defs167" /><sodipodi:namedview
   pagecolor="#ffffff"
   bordercolor="#666666"
   borderopacity="1"
   objecttolerance="10"
   gridtolerance="10"
   guidetolerance="10"
   inkscape:pageopacity="0"
   inkscape:pageshadow="2"
   inkscape:window-width="2560"
   inkscape:window-height="984"
   id="namedview165"
   showgrid="false"
   inkscape:zoom="1.6406218"
   inkscape:cx="256.0005"
   inkscape:cy="256.0005"
   inkscape:window-x="0"
   inkscape:window-y="23"
   inkscape:window-maximized="1"
   inkscape:current-layer="Layer_1" />
<path
   style="fill:#f5f5f5"
   d="M 503.172,335.449 H 8.828 C 3.953,335.449 0,331.496 0,326.621 V 8.828 C 0,3.953 3.953,0 8.828,0 h 494.345 c 4.875,0 8.828,3.953 8.828,8.828 v 317.793 c -10e-4,4.876 -3.954,8.828 -8.829,8.828 z"
   id="path10" />
<g
   id="g16"
   transform="translate(0,-88.275)">
	<path
   style="fill:#41479b"
   d="m 8.828,220.69 h 203.034 c 4.875,0 8.828,-3.953 8.828,-8.828 V 97.103 c 0,-4.876 -3.953,-8.828 -8.828,-8.828 H 38.345 C 17.167,88.276 0,105.443 0,126.621 v 85.241 c 0,4.875 3.953,8.828 8.828,8.828 z"
   id="path12" />
	<path
   style="fill:#41479b"
   d="M 503.172,291.31 H 300.138 c -4.875,0 -8.828,3.953 -8.828,8.828 v 114.759 c 0,4.875 3.953,8.828 8.828,8.828 h 173.517 c 21.177,0 38.345,-17.167 38.345,-38.345 v -85.241 c 0,-4.876 -3.953,-8.829 -8.828,-8.829 z"
   id="path14" />
</g>
<g
   id="g22"
   transform="translate(0,-88.275)">
	<path
   style="fill:#ff4b55"
   d="M 473.655,88.276 H 300.138 c -4.875,0 -8.828,3.951 -8.828,8.828 v 114.759 c 0,4.875 3.953,8.828 8.828,8.828 h 203.034 c 4.875,0 8.828,-3.953 8.828,-8.828 v -85.241 c 0,-21.179 -17.167,-38.346 -38.345,-38.346 z"
   id="path18" />
	<path
   style="fill:#ff4b55"
   d="M 220.69,414.897 V 300.138 c 0,-4.875 -3.953,-8.828 -8.828,-8.828 H 8.828 C 3.953,291.31 0,295.263 0,300.138 v 85.241 c 0,21.177 17.167,38.345 38.345,38.345 h 173.517 c 4.875,0 8.828,-3.952 8.828,-8.827 z"
   id="path20" />
</g>
<g
   id="g30"
   transform="translate(0,-88.275)">
	<path
   style="fill:#64b496"
   d="m 250.932,281.171 c 0,0 5.274,1.931 4.586,8.552 l 2.132,-0.04 c 0,0 -1.345,-7.651 -2.457,-8.568 -1.111,-0.917 -4.261,0.056 -4.261,0.056 z"
   id="path24" />
	<path
   style="fill:#64b496"
   d="m 256.218,280.149 c -2.237,0 -6.147,-0.003 -10.259,-1.113 0.917,-0.954 2.184,-2.876 2.184,-6.227 0,-5.248 -3.616,-1.9 -3.616,-1.9 0,0 -2.378,2.001 -0.94,7.35 -1.402,-0.535 -2.793,-1.225 -4.119,-2.109 0.825,-1.036 2.471,-3.45 3.427,-7.278 0,0 -6.026,-1.191 -7.674,3.347 -1.01,-1.281 -1.874,-2.722 -2.595,-4.317 1.549,0.019 3.71,-1.003 3.71,-6.901 0,0 -3.935,0.007 -4.988,3.42 -0.414,-1.427 -0.729,-2.956 -0.961,-4.572 1.571,0.456 5.633,0.783 5.633,-8.032 0,0 -4.877,0.009 -6.006,4.329 -0.062,-1.105 -0.086,-2.247 -0.075,-3.425 2.368,-1.238 5.636,-3.965 5.297,-9.56 0,0 -2.249,0.51 -4.31,2.239 0.406,-2.121 0.238,-5.226 -3.015,-7.817 0,0 -2.989,5.29 1.377,9.585 -0.38,0.534 -0.711,1.142 -0.984,1.817 -0.981,-1.494 -2.554,-2.883 -5.088,-3.727 0,0 -1.166,7.085 5.449,10.049 0.157,4.138 0.804,7.794 1.916,10.973 -1.895,-1.669 -3.428,-3.967 -3.428,-3.967 0,-7.872 -6.453,-8.071 -6.453,-8.071 -1.205,8.985 5.439,9.348 5.439,9.348 l 3.638,3.97 c -7.872,-1.312 -7.872,5.248 -7.872,5.248 5.248,1.312 7.872,-1.312 7.872,-1.312 l 2.838,1.459 c -5.034,0.147 -6.774,5.101 -6.774,5.101 6.327,1.054 10.953,-0.433 12.526,-1.057 6.372,4.455 14.226,4.461 17.852,4.461 v -1.311 z"
   id="path26" />
	<path
   style="fill:#64b496"
   d="m 255.772,280.149 c 2.237,0 6.147,-0.003 10.259,-1.113 -0.917,-0.954 -2.184,-2.876 -2.184,-6.227 0,-5.248 3.616,-1.9 3.616,-1.9 0,0 2.378,2.001 0.94,7.35 1.402,-0.535 2.793,-1.225 4.119,-2.109 -0.825,-1.036 -2.471,-3.45 -3.427,-7.278 0,0 6.026,-1.191 7.674,3.347 1.01,-1.281 1.874,-2.722 2.595,-4.317 -1.549,0.019 -3.71,-1.003 -3.71,-6.901 0,0 3.935,0.007 4.988,3.42 0.414,-1.427 0.729,-2.956 0.961,-4.572 -1.571,0.456 -5.633,0.783 -5.633,-8.032 0,0 4.877,0.009 6.006,4.329 0.062,-1.105 0.086,-2.247 0.075,-3.425 -2.368,-1.238 -5.636,-3.965 -5.297,-9.56 0,0 2.249,0.51 4.311,2.239 -0.406,-2.121 -0.238,-5.226 3.015,-7.817 0,0 2.989,5.29 -1.377,9.585 0.38,0.534 0.711,1.142 0.983,1.817 0.981,-1.494 2.555,-2.883 5.088,-3.727 0,0 1.166,7.085 -5.449,10.049 -0.157,4.138 -0.804,7.794 -1.916,10.973 1.895,-1.669 3.428,-3.967 3.428,-3.967 0,-7.872 6.453,-8.071 6.453,-8.071 1.205,8.985 -5.439,9.348 -5.439,9.348 l -3.638,3.97 c 7.872,-1.312 7.872,5.248 7.872,5.248 -5.248,1.312 -7.872,-1.312 -7.872,-1.312 l -2.838,1.459 c 5.034,0.147 6.774,5.101 6.774,5.101 -6.327,1.054 -10.953,-0.433 -12.526,-1.057 -6.372,4.455 -14.226,4.461 -17.852,4.461 l 0.001,-1.311 z"
   id="path28" />
</g>
<path
   style="fill:#41479b"
   d="m 233.863,134.68 c -4.614,2.957 -8.681,6.722 -11.958,11.167 1.408,1.038 2.816,2.077 4.224,3.115 2.892,-3.923 6.481,-7.245 10.551,-9.856 z"
   id="path32" />
<path
   style="fill:#ff6b71"
   d="m 256.015,168.791 h 18.367 v 10.496 c 0,2.898 -2.349,5.248 -5.248,5.248 h -7.872 c -2.156,0 -4.052,1.054 -5.248,2.66 z"
   id="path34" />
<polygon
   style="fill:#5f64b9"
   points="279.63,230.826 274.382,236.074 274.382,250.506 259.95,250.506 259.95,245.258 259.95,230.826 "
   id="polygon36"
   transform="translate(0,-88.275)" />
<rect
   x="267.82001"
   y="162.22501"
   style="fill:#f5f5f5"
   width="6.5599999"
   height="6.5599999"
   id="rect38" />
<path
   style="fill:#ff6b71"
   d="m 256.015,168.791 h -18.368 v 10.496 c 0,2.898 2.349,5.248 5.248,5.248 h 7.872 c 2.156,0 4.052,1.054 5.248,2.66 z"
   id="path40" />
<path
   style="fill:#f5f5f5"
   d="m 252.735,184.851 c 1.309,0.418 2.439,1.233 3.25,2.307 h 0.06 c 0.812,-1.074 1.942,-1.888 3.25,-2.307 v -10.813 h -6.56 z"
   id="path42" />
<polygon
   style="fill:#5f64b9"
   points="232.399,230.826 237.647,236.074 237.647,250.506 252.079,250.506 252.079,245.258 252.079,230.826 "
   id="polygon44"
   transform="translate(0,-88.275)" />
<rect
   x="237.64999"
   y="162.22501"
   style="fill:#f5f5f5"
   width="6.5599999"
   height="6.5599999"
   id="rect46" />
<polygon
   style="fill:#41479b"
   points="248.143,243.946 248.143,241.322 244.207,237.386 244.207,241.322 "
   id="polygon48"
   transform="translate(0,-88.275)" />
<polygon
   style="fill:#f5f5f5"
   points="253.39,247.882 253.39,246.57 248.143,241.322 248.143,245.258 "
   id="polygon50"
   transform="translate(0,-88.275)" />
<polygon
   style="fill:#41479b"
   points="263.886,243.946 263.886,241.322 267.822,237.386 267.822,241.322 "
   id="polygon52"
   transform="translate(0,-88.275)" />
<polygon
   style="fill:#f5f5f5"
   points="258.638,247.882 258.638,246.57 263.886,241.322 263.886,245.258 "
   id="polygon54"
   transform="translate(0,-88.275)" />
<path
   style="fill:#ff4b55"
   d="m 263.932,177.974 h -15.829 c -3.597,0 -6.515,-2.937 -6.515,-6.56 v -20.291 l 14.525,9.795 14.333,-9.795 v 20.291 c 0,3.624 -2.916,6.56 -6.514,6.56 z"
   id="path56" />
<g
   id="g64"
   transform="translate(0,-88.275)">
	<polygon
   style="fill:#41479b"
   points="241.583,253.13 246.831,255.754 246.831,242.634 241.583,238.698 "
   id="polygon58" />
	<polygon
   style="fill:#41479b"
   points="270.446,253.13 265.198,255.754 265.198,242.634 270.446,238.698 "
   id="polygon60" />
	<rect
   x="248.14"
   y="255.75999"
   style="fill:#41479b"
   width="15.743"
   height="6.5599999"
   id="rect62" />
</g>
<polygon
   style="fill:#ff4b55"
   points="263.886,243.946 263.886,255.754 248.143,255.754 248.143,243.946 256.015,247.882 "
   id="polygon66"
   transform="translate(0,-88.275)" />
<g
   id="g72"
   transform="translate(0,-88.275)">
	<path
   style="fill:#f5f5f5"
   d="m 261.919,245.186 v 13.191 c 0,1.086 -0.883,1.967 -1.967,1.967 h -7.872 c -1.085,0 -1.967,-0.883 -1.967,-1.967 V 245.24 l -3.936,-2.636 v 15.774 c 0,3.255 2.648,5.903 5.903,5.903 h 7.872 c 3.255,0 5.903,-2.648 5.903,-5.903 v -15.863 z"
   id="path68" />
	<path
   style="fill:#f5f5f5"
   d="m 263.293,254.35 c -2.21,0.199 -4.697,0.422 -7.278,1.32 -2.581,-0.898 -5.068,-1.121 -7.278,-1.32 -3.698,-0.332 -5.892,-0.655 -7.148,-2.886 v 3.787 c 1.929,1.254 4.372,1.485 6.913,1.713 2.281,0.205 4.639,0.416 7.049,1.329 l 0.465,0.175 0.465,-0.175 c 2.409,-0.913 4.767,-1.123 7.049,-1.329 2.543,-0.228 4.99,-0.456 6.919,-1.711 v -3.798 c -1.257,2.24 -3.453,2.563 -7.156,2.895 z"
   id="path70" />
</g>
<polygon
   style="fill:#ffe15a"
   points="256.671,240.01 255.359,240.01 255.359,241.978 253.39,241.978 253.39,243.29 255.359,243.29 255.359,249.194 256.671,249.194 256.671,243.29 258.638,243.29 258.638,241.978 256.671,241.978 "
   id="polygon74"
   transform="translate(0,-88.275)" />
<rect
   x="66.899681"
   y="276.86984"
   transform="rotate(-45)"
   style="fill:#464655;stroke-width:0.99999"
   width="1.0179902"
   height="16.303844"
   id="rect76" />
<polygon
   style="fill:#ffe15a"
   points="244.16,235.661 241.278,234.22 242.719,237.102 "
   id="polygon78"
   transform="translate(0,-88.275)" />
<rect
   x="112.28907"
   y="263.02246"
   transform="rotate(-36.071182)"
   style="fill:#464655;stroke-width:1.00002"
   width="1.0190176"
   height="16.305281"
   id="rect80" />
<polygon
   style="fill:#ffe15a"
   points="246.851,233.854 244.227,231.982 245.204,235.054 "
   id="polygon82"
   transform="translate(0,-88.275)" />
<rect
   x="14.143666"
   y="283.97189"
   transform="rotate(-55.075102)"
   style="fill:#464655;stroke-width:0.999996"
   width="1.0179961"
   height="16.302937"
   id="rect84" />
<polygon
   style="fill:#ffe15a"
   points="241.8,238.023 238.71,237.108 240.633,239.693 "
   id="polygon86"
   transform="translate(0,-88.275)" />
<rect
   x="-295.15137"
   y="68.889801"
   transform="rotate(-135)"
   style="fill:#464655;stroke-width:0.99999"
   width="1.0179902"
   height="16.303844"
   id="rect88" />
<polygon
   style="fill:#ffe15a"
   points="267.863,235.661 270.745,234.22 269.304,237.102 "
   id="polygon90"
   transform="translate(0,-88.275)" />
<rect
   x="-301.57516"
   y="22.164154"
   transform="rotate(-143.92882)"
   style="fill:#464655;stroke-width:1.00002"
   width="1.0190176"
   height="16.304281"
   id="rect92" />
<polygon
   style="fill:#ffe15a"
   points="265.173,233.854 267.796,231.982 266.819,235.054 "
   id="polygon94"
   transform="translate(0,-88.275)" />
<rect
   x="-279.02374"
   y="119.5312"
   transform="rotate(-124.9249)"
   style="fill:#464655;stroke-width:0.999996"
   width="1.0179961"
   height="16.302937"
   id="rect96" />
<polygon
   style="fill:#ffe15a"
   points="270.223,238.023 273.313,237.108 271.39,239.693 "
   id="polygon98"
   transform="translate(0,-88.275)" />
<path
   style="fill:#f5f5f5"
   d="m 255.349,184.161 c 0,0 -5.074,-5.449 -4.089,-10.451 0.791,-4.023 3.192,-8.458 5.071,-9.537 0,0 2.657,-0.164 1.991,2.145 -0.666,2.308 -1.478,2.903 -1.24,5.178 0.409,3.937 1.044,8.603 -1.733,12.665 z"
   id="path100" />
<path
   style="fill:#41479b"
   d="m 256.888,164.202 c -0.317,-0.042 -0.558,-0.028 -0.558,-0.028 -1.879,1.079 -4.28,5.514 -5.071,9.537 -0.448,2.275 0.361,4.638 1.373,6.543 -0.641,-8.248 1.767,-11.174 4.256,-16.052 z"
   id="path102" />
<path
   style="fill:#ff4b55"
   d="m 257.081,171.497 c -0.237,-2.274 0.574,-2.87 1.24,-5.178 0.467,-1.615 -0.693,-2.019 -1.432,-2.116 0,0 -1.694,3.892 -1.803,6.503 -0.096,2.297 0.492,11.644 0.264,13.458 2.776,-4.065 2.141,-8.731 1.731,-12.667 z"
   id="path104" />
<path
   style="fill:#f5f0f0"
   d="m 253.639,166.148 c 1.057,-1.031 2.543,-1.492 3.998,-1.242 -0.69,-2.221 -1.38,-4.442 -2.07,-6.664 -1.454,-0.249 -2.941,0.212 -3.999,1.242 0.69,2.222 1.381,4.443 2.071,6.664 z"
   id="path106" />
<path
   style="fill:#f5f5f5"
   d="m 257.638,164.906 c 1.057,-1.031 2.543,-1.492 3.999,-1.242 -0.69,-2.221 -1.38,-4.442 -2.07,-6.664 -1.454,-0.249 -2.941,0.212 -3.999,1.242 0.689,2.221 1.379,4.442 2.07,6.664 z"
   id="path108" />
<path
   style="fill:#5f64b9"
   d="m 250.022,136.079 c -7.122,-0.164 -14.156,1.587 -20.37,5.07 -0.855,-1.526 -1.711,-3.052 -2.567,-4.577 7.033,-3.944 14.996,-5.926 23.058,-5.74 -0.041,1.749 -0.082,3.498 -0.121,5.247 z"
   id="path110" />
<path
   style="fill:#41479b"
   d="m 278.167,134.68 c 4.614,2.957 8.681,6.722 11.958,11.167 -1.408,1.038 -2.816,2.077 -4.224,3.115 -2.892,-3.923 -6.481,-7.245 -10.551,-9.856 z"
   id="path112" />
<path
   style="fill:#5f64b9"
   d="m 262.008,136.079 c 7.122,-0.164 14.156,1.587 20.37,5.07 0.855,-1.526 1.711,-3.052 2.567,-4.577 -7.033,-3.944 -14.996,-5.926 -23.058,-5.74 0.041,1.749 0.082,3.498 0.121,5.247 z"
   id="path114" />
<path
   style="fill:#41479b"
   d="m 266.51,134.68 c -6.871,-1.88 -14.121,-1.88 -20.991,0 -0.461,-1.687 -0.924,-3.374 -1.385,-5.062 7.777,-2.127 15.983,-2.127 23.761,0 -0.461,1.687 -0.923,3.374 -1.385,5.062 z"
   id="path116" />
<g
   id="g122"
   transform="translate(0,-88.275)">
	<path
   style="fill:#ff6b71"
   d="m 238.432,281.757 c -5.663,1.479 -11.199,3.474 -16.529,5.985 0.746,1.582 1.492,3.165 2.237,4.747 5.143,-2.424 10.489,-4.337 15.96,-5.742 z"
   id="path118" />
	<path
   style="fill:#ff6b71"
   d="m 273.598,281.757 c 5.663,1.479 11.199,3.474 16.529,5.985 -0.746,1.582 -1.492,3.165 -2.237,4.747 -5.143,-2.424 -10.489,-4.337 -15.96,-5.742 z"
   id="path120" />
</g>
<g
   id="g130"
   transform="translate(0,-88.275)">
	<path
   style="fill:#ff4b55"
   d="m 277.119,285.815 c -13.799,-3.313 -28.184,-3.313 -41.983,0 -0.408,-1.702 -0.817,-3.402 -1.225,-5.102 14.603,-3.506 29.83,-3.506 44.433,0 -0.407,1.7 -0.816,3.402 -1.225,5.102 z"
   id="path124" />
	<path
   style="fill:#ff4b55"
   d="m 256.015,287.241 -3.618,0.905 c -0.828,0.207 -1.63,-0.419 -1.63,-1.272 v -1.887 c 0,-0.853 0.802,-1.48 1.63,-1.273 l 3.618,0.905 z"
   id="path126" />
	<path
   style="fill:#ff4b55"
   d="m 256.015,284.617 3.618,-0.905 c 0.828,-0.207 1.63,0.419 1.63,1.273 v 1.887 c 0,0.853 -0.802,1.48 -1.63,1.272 l -3.618,-0.905 z"
   id="path128" />
</g>
<path
   style="fill:#ff6b71"
   d="m 256.296,198.966 h -0.563 c -0.569,0 -1.031,-0.461 -1.031,-1.031 v -0.563 c 0,-0.569 0.461,-1.031 1.031,-1.031 h 0.563 c 0.569,0 1.031,0.461 1.031,1.031 v 0.563 c -10e-4,0.57 -0.462,1.031 -1.031,1.031 z"
   id="path132" />
<g
   id="g134">
</g>
<g
   id="g136">
</g>
<g
   id="g138">
</g>
<g
   id="g140">
</g>
<g
   id="g142">
</g>
<g
   id="g144">
</g>
<g
   id="g146">
</g>
<g
   id="g148">
</g>
<g
   id="g150">
</g>
<g
   id="g152">
</g>
<g
   id="g154">
</g>
<g
   id="g156">
</g>
<g
   id="g158">
</g>
<g
   id="g160">
</g>
<g
   id="g162">
</g>
</svg>
