<?xml version="1.0" encoding="UTF-8" standalone="no"?>
<svg
   xmlns:dc="http://purl.org/dc/elements/1.1/"
   xmlns:cc="http://creativecommons.org/ns#"
   xmlns:rdf="http://www.w3.org/1999/02/22-rdf-syntax-ns#"
   xmlns:svg="http://www.w3.org/2000/svg"
   xmlns="http://www.w3.org/2000/svg"
   xmlns:sodipodi="http://sodipodi.sourceforge.net/DTD/sodipodi-0.dtd"
   xmlns:inkscape="http://www.inkscape.org/namespaces/inkscape"
   version="1.1"
   id="Layer_1"
   x="0px"
   y="0px"
   viewBox="0 0 512 335.45001"
   xml:space="preserve"
   sodipodi:docname="ec.svg"
   width="512"
   height="335.45001"
   inkscape:version="1.0.1 (c497b03c, 2020-09-10)"><metadata
   id="metadata141"><rdf:RDF><cc:Work
       rdf:about=""><dc:format>image/svg+xml</dc:format><dc:type
         rdf:resource="http://purl.org/dc/dcmitype/StillImage" /><dc:title></dc:title></cc:Work></rdf:RDF></metadata><defs
   id="defs139" /><sodipodi:namedview
   pagecolor="#ffffff"
   bordercolor="#666666"
   borderopacity="1"
   objecttolerance="10"
   gridtolerance="10"
   guidetolerance="10"
   inkscape:pageopacity="0"
   inkscape:pageshadow="2"
   inkscape:window-width="2560"
   inkscape:window-height="984"
   id="namedview137"
   showgrid="false"
   inkscape:zoom="1.1210938"
   inkscape:cx="256"
   inkscape:cy="256"
   inkscape:window-x="0"
   inkscape:window-y="23"
   inkscape:window-maximized="1"
   inkscape:current-layer="Layer_1" />
<path
   style="fill:#ff4b55"
   d="m 0,297.103 c 0,21.177 17.167,38.345 38.345,38.345 h 435.31 c 21.177,0 38.345,-17.167 38.345,-38.345 V 251.586 H 0 Z"
   id="path10" />
<path
   style="fill:#ffe15a"
   d="M 473.655,0 H 38.345 C 17.167,0 0,17.167 0,38.345 V 167.724 H 512 V 38.345 C 512,17.167 494.833,0 473.655,0 Z"
   id="path12" />
<rect
   y="167.724"
   style="fill:#41479b"
   width="512"
   height="83.860001"
   id="rect14"
   x="0" />
<path
   style="fill:#ffe15a"
   d="m 246.788,172.677 64.48,-55.268 v 79.987 c 0,13.481 -10.929,24.408 -24.408,24.408 v 0 c -6.03,0 -11.847,-2.232 -16.329,-6.265 l -23.743,-21.368 z"
   id="path16" />
<path
   style="fill:#ff4b55"
   d="m 280.801,204.128 -18.66,-16.794 v -27.815 l 33.775,-28.95 v 20.221 46.607 c 0,4.994 -4.063,9.056 -9.056,9.056 -2.241,0 -4.393,-0.826 -6.059,-2.325 z"
   id="path18" />
<path
   style="fill:#41479b"
   d="m 271.352,151.624 v 31.617 l 15.352,13.862 v -46.505 -12.131 l 9.212,-7.896 v 20.221 46.607 c 0,4.994 -4.063,9.056 -9.056,9.056 -2.241,0 -4.393,-0.825 -6.059,-2.325 l -18.66,-16.794 v -27.815 z"
   id="path20" />
<path
   style="fill:#ffe15a"
   d="m 265.212,172.677 -64.48,-55.268 v 79.987 c 0,13.481 10.929,24.408 24.408,24.408 v 0 c 6.03,0 11.847,-2.232 16.329,-6.265 l 23.743,-21.368 z"
   id="path22" />
<path
   style="fill:#ff4b55"
   d="m 231.199,204.128 18.66,-16.794 v -27.815 l -33.775,-28.95 v 20.221 46.607 c 0,4.994 4.063,9.056 9.056,9.056 2.241,0 4.393,-0.826 6.059,-2.325 z"
   id="path24" />
<g
   id="g32"
   transform="translate(0,-88.276)">
	<path
   style="fill:#41479b"
   d="m 240.648,239.9 v 31.617 l -15.352,13.862 v -46.505 -12.131 l -9.212,-7.896 v 20.221 46.607 c 0,4.994 4.063,9.056 9.056,9.056 2.241,0 4.393,-0.825 6.059,-2.325 l 18.66,-16.794 v -27.815 z"
   id="path26" />
	<rect
   x="309.04001"
   y="205.96001"
   style="fill:#41479b"
   width="4.414"
   height="26.448999"
   id="rect28" />
	<rect
   x="198.50999"
   y="205.96001"
   style="fill:#41479b"
   width="4.414"
   height="26.448999"
   id="rect30" />
</g>
<g
   id="g40"
   transform="translate(0,-88.276)">
	<path
   style="fill:#5a4646"
   d="m 246.788,193.404 c 0,0 6.141,-29.17 -15.352,-25.331 -21.493,3.838 -21.493,9.978 -46.057,22.261 0,0 27.635,6.141 39.916,3.071 0,0 9.212,12.281 18.423,15.352 h 9.212 z"
   id="path34" />
	<path
   style="fill:#5a4646"
   d="m 265.212,193.404 c 0,0 -6.141,-29.17 15.352,-25.331 21.493,3.838 21.493,9.978 46.057,22.261 0,0 -27.635,6.141 -39.916,3.071 0,0 -9.212,12.281 -18.423,15.352 h -9.212 z"
   id="path36" />
	<path
   style="fill:#5a4646"
   d="M 265.212,208.756 H 246.789 V 193.29 c 0,-5.025 4.073,-9.098 9.098,-9.098 h 0.226 c 5.025,0 9.098,4.073 9.098,9.098 v 15.466 z"
   id="path38" />
</g>
<circle
   style="fill:#e6e1cd"
   cx="256"
   cy="105.12399"
   r="6.1409998"
   id="circle42" />
<path
   style="fill:#ffd0af"
   d="m 242.823,101.162 11.546,6.166 c 0.969,0.518 2.162,0.34 2.937,-0.437 v 0 c 0.974,-0.974 0.974,-2.552 0,-3.527 l -7.448,-7.448 h -1.791 c -2.896,0 -5.244,2.348 -5.244,5.246 z"
   id="path44" />
<path
   style="fill:#ffaf94"
   d="m 246.827,102.057 h -9.249 l 4.047,-4.738 c 0.76,-0.89 1.871,-1.402 3.042,-1.402 h 5.192 v 3.108 c 0,1.674 -1.358,3.032 -3.032,3.032 z"
   id="path46" />
<g
   id="g52"
   transform="translate(0,-88.276)">
	<path
   style="fill:#8cb400"
   d="m 282.186,208.764 c -2.072,-2.458 -2.514,-5.717 -1.504,-8.541 2.954,-0.516 6.091,0.471 8.162,2.931 1.77,2.101 2.283,4.772 1.784,7.272 0.614,1.042 1.364,2.382 2.189,3.964 0.041,-0.225 0.032,-0.448 0.096,-0.673 0.724,-2.546 2.743,-4.348 5.135,-4.958 1.713,1.778 2.483,4.373 1.759,6.918 -0.622,2.19 -2.227,3.777 -4.18,4.581 0.771,1.769 1.534,3.677 2.247,5.69 0.041,-0.118 0.044,-0.238 0.092,-0.355 1,-2.451 3.206,-4.019 5.65,-4.362 1.506,1.955 1.986,4.619 0.987,7.07 -0.875,2.144 -2.69,3.558 -4.764,4.121 1.067,4.213 1.775,8.683 1.775,13.183 h -3.071 c 0,-3.922 -0.602,-7.85 -1.511,-11.608 -1.895,0.612 -4.012,0.481 -5.845,-0.641 -2.236,-1.37 -3.416,-3.778 -3.361,-6.223 2.154,-1.16 4.835,-1.203 7.071,0.168 0.081,0.05 0.135,0.121 0.213,0.173 -0.658,-1.89 -1.358,-3.683 -2.077,-5.365 -1.843,0.871 -4.012,1.005 -6.002,0.071 -2.374,-1.114 -3.811,-3.379 -4.026,-5.815 2.006,-1.386 4.657,-1.722 7.023,-0.62 -0.846,-1.625 -1.608,-2.985 -2.206,-4.002 -2.115,-0.244 -4.152,-1.218 -5.636,-2.979 z"
   id="path48" />
	<path
   style="fill:#8cb400"
   d="m 229.814,208.764 c 2.071,-2.458 2.514,-5.717 1.504,-8.541 -2.954,-0.516 -6.091,0.471 -8.162,2.931 -1.77,2.101 -2.283,4.772 -1.784,7.272 -0.614,1.042 -1.364,2.382 -2.189,3.964 -0.041,-0.225 -0.032,-0.448 -0.096,-0.673 -0.724,-2.546 -2.743,-4.348 -5.135,-4.958 -1.713,1.778 -2.483,4.373 -1.759,6.918 0.622,2.19 2.227,3.777 4.18,4.581 -0.771,1.769 -1.534,3.677 -2.247,5.69 -0.041,-0.118 -0.044,-0.238 -0.092,-0.355 -1,-2.451 -3.206,-4.019 -5.65,-4.362 -1.506,1.955 -1.986,4.619 -0.986,7.07 0.875,2.144 2.69,3.558 4.764,4.121 -1.067,4.213 -1.775,8.683 -1.775,13.183 h 3.071 c 0,-3.922 0.602,-7.85 1.511,-11.608 1.895,0.612 4.012,0.481 5.844,-0.641 2.237,-1.37 3.416,-3.778 3.361,-6.223 -2.154,-1.16 -4.835,-1.203 -7.071,0.168 -0.081,0.05 -0.135,0.121 -0.213,0.173 0.658,-1.89 1.358,-3.683 2.077,-5.365 1.843,0.871 4.012,1.005 6.002,0.071 2.374,-1.114 3.811,-3.379 4.026,-5.815 -2.006,-1.386 -4.657,-1.722 -7.023,-0.62 0.845,-1.625 1.608,-2.985 2.206,-4.002 2.115,-0.244 4.152,-1.218 5.636,-2.979 z"
   id="path50" />
</g>
<path
   style="fill:#ffe15a"
   d="m 256,188.03 -64.48,-55.268 v 79.987 c 0,13.481 10.929,24.408 24.408,24.408 v 0 c 6.03,0 11.847,-2.232 16.329,-6.265 L 256,209.524 Z"
   id="path54" />
<path
   style="fill:#ff4b55"
   d="m 221.987,219.48 18.66,-16.794 v -27.815 l -33.775,-28.95 v 20.221 46.607 c 0,4.994 4.063,9.056 9.056,9.056 2.242,0 4.393,-0.825 6.059,-2.325 z"
   id="path56" />
<path
   style="fill:#41479b"
   d="m 231.436,166.976 v 31.617 l -15.352,13.862 V 165.95 153.818 l -9.212,-7.896 v 20.221 46.607 c 0,4.994 4.063,9.056 9.056,9.056 2.241,0 4.393,-0.825 6.059,-2.325 l 18.66,-16.794 v -27.815 z"
   id="path58" />
<path
   style="fill:#ffe15a"
   d="m 256,188.03 64.48,-55.268 v 79.987 c 0,13.481 -10.929,24.408 -24.408,24.408 v 0 c -6.03,0 -11.847,-2.232 -16.329,-6.265 L 256,209.524 Z"
   id="path60" />
<path
   style="fill:#ff4b55"
   d="m 290.013,219.48 -18.66,-16.794 v -27.815 l 33.775,-28.95 v 20.221 46.607 c 0,4.994 -4.063,9.056 -9.056,9.056 -2.241,0 -4.393,-0.825 -6.059,-2.325 z"
   id="path62" />
<path
   style="fill:#41479b"
   d="m 280.564,166.976 v 31.617 l 15.352,13.862 V 165.95 153.818 l 9.212,-7.896 v 20.221 46.607 c 0,4.994 -4.063,9.056 -9.056,9.056 -2.241,0 -4.393,-0.825 -6.059,-2.325 l -18.66,-16.794 v -27.815 z"
   id="path64" />
<ellipse
   style="fill:#69c3ff"
   cx="256"
   cy="166.534"
   rx="30.705"
   ry="46.060001"
   id="ellipse66" />
<path
   style="fill:#009b64"
   d="m 228.365,178.819 h 55.268 l 3.071,-12.281 -13.993,2.333 c -2.807,0.468 -5.678,-0.332 -7.839,-2.184 l -15.884,-13.615 c -1.419,-1.216 -3.228,-1.886 -5.097,-1.886 v 0 c -2.077,0 -4.07,0.825 -5.538,2.294 l -9.988,9.988 z"
   id="path68" />
<path
   style="fill:#f5f5f5"
   d="m 253.087,164.474 5.274,-3.37 -9.374,-8.034 c -1.419,-1.216 -3.228,-1.886 -5.097,-1.886 v 0 c -2.077,0 -4.07,0.825 -5.538,2.294 l -9.988,9.988 v 3.071 l 15.352,-3.071 2.714,1.357 c 2.127,1.064 4.655,0.93 6.657,-0.349 z"
   id="path70" />
<polygon
   style="fill:#5aa0e6"
   points="246.788,300.87 256,300.87 268.281,297.8 280.564,285.517 283.634,267.095 228.365,267.095 231.436,285.517 "
   id="polygon72"
   transform="translate(0,-88.276)" />
<path
   style="fill:#ffc88c"
   d="m 256,215.664 c -18.624,0 -33.775,-22.039 -33.775,-49.128 0,-27.089 15.151,-49.128 33.775,-49.128 18.624,0 33.775,22.039 33.775,49.128 0,27.089 -15.151,49.128 -33.775,49.128 z m 0,-92.113 c -15.236,0 -27.635,19.284 -27.635,42.986 0,23.702 12.397,42.987 27.635,42.987 15.238,0 27.634,-19.284 27.634,-42.987 0,-23.703 -12.398,-42.986 -27.634,-42.986 z"
   id="path74" />
<g
   id="g80"
   transform="translate(0,-88.276)">
	<path
   style="fill:#e1e1e1"
   d="m 234.339,300.595 c -2.574,-3.554 -6.406,-5.865 -10.746,-5.865 -4.34,0 -8.172,2.311 -10.746,5.865 4.39,1.217 7.982,4.781 9.683,9.479 0.685,1.892 1.064,3.968 1.064,6.15 -0.001,-7.597 4.588,-13.923 10.745,-15.629 z"
   id="path76" />
	<path
   style="fill:#e1e1e1"
   d="m 226.031,310.281 c 0,0 -0.241,4.094 -2.339,6.013 l -0.088,-0.072 c -2.099,-1.919 -2.339,-6.013 -2.339,-6.013 z"
   id="path78" />
</g>
<path
   style="fill:#966446"
   d="m 294.4,223.34 h -76.8 c -0.838,0 -1.516,-0.679 -1.516,-1.516 v -0.038 c 0,-0.838 0.679,-1.516 1.516,-1.516 h 76.8 c 0.838,0 1.516,0.679 1.516,1.516 v 0.038 c 0,0.837 -0.678,1.516 -1.516,1.516 z"
   id="path82" />
<path
   style="fill:#be915a"
   d="m 271.427,227.946 h -30.856 c -3.35,0 -6.066,-2.716 -6.066,-6.066 v -0.151 c 0,-3.35 2.716,-6.066 6.066,-6.066 h 30.856 c 3.35,0 6.066,2.716 6.066,6.066 v 0.151 c 0,3.35 -2.716,6.066 -6.066,6.066 z"
   id="path84" />
<path
   style="fill:#b9b9b9"
   d="m 228.365,220.27 h -10.746 c -0.847,0 -1.535,0.687 -1.535,1.535 0,0.848 0.687,1.535 1.535,1.535 h 10.746 z"
   id="path86" />
<polygon
   style="fill:#ff4b55"
   points="243.719,340.786 249.859,316.222 256,316.222 256,344.276 "
   id="polygon88"
   transform="translate(0,-88.276)" />
<polygon
   style="fill:#41479b"
   points="234.507,334.645 243.719,316.222 252.929,316.222 246.788,337.716 "
   id="polygon90"
   transform="translate(0,-88.276)" />
<polygon
   style="fill:#ffe15a"
   points="240.648,331.574 246.788,316.222 240.648,316.222 231.436,328.504 "
   id="polygon92"
   transform="translate(0,-88.276)" />
<polygon
   style="fill:#ff4b55"
   points="268.281,340.786 262.141,316.222 256,316.222 256,344.276 "
   id="polygon94"
   transform="translate(0,-88.276)" />
<polygon
   style="fill:#41479b"
   points="277.493,334.645 268.281,316.222 259.071,316.222 265.212,337.716 "
   id="polygon96"
   transform="translate(0,-88.276)" />
<polygon
   style="fill:#ffe15a"
   points="271.352,331.574 265.212,316.222 271.352,316.222 280.564,328.504 "
   id="polygon98"
   transform="translate(0,-88.276)" />
<g
   id="g104"
   transform="translate(0,-88.276)">
	<polygon
   style="fill:#41479b"
   points="189.314,221.035 193.728,221.035 193.728,247.482 189.314,243.034 "
   id="polygon100" />
	<polygon
   style="fill:#41479b"
   points="318.232,221.035 322.646,221.035 322.646,243.034 318.232,247.482 "
   id="polygon102" />
</g>
<g
   id="g106">
</g>
<g
   id="g108">
</g>
<g
   id="g110">
</g>
<g
   id="g112">
</g>
<g
   id="g114">
</g>
<g
   id="g116">
</g>
<g
   id="g118">
</g>
<g
   id="g120">
</g>
<g
   id="g122">
</g>
<g
   id="g124">
</g>
<g
   id="g126">
</g>
<g
   id="g128">
</g>
<g
   id="g130">
</g>
<g
   id="g132">
</g>
<g
   id="g134">
</g>
</svg>
