<?xml version="1.0" encoding="UTF-8" standalone="no"?>
<svg
   xmlns:dc="http://purl.org/dc/elements/1.1/"
   xmlns:cc="http://creativecommons.org/ns#"
   xmlns:rdf="http://www.w3.org/1999/02/22-rdf-syntax-ns#"
   xmlns:svg="http://www.w3.org/2000/svg"
   xmlns="http://www.w3.org/2000/svg"
   xmlns:sodipodi="http://sodipodi.sourceforge.net/DTD/sodipodi-0.dtd"
   xmlns:inkscape="http://www.inkscape.org/namespaces/inkscape"
   version="1.1"
   id="Layer_1"
   x="0px"
   y="0px"
   viewBox="0 0 512.001 335.45003"
   xml:space="preserve"
   sodipodi:docname="eh.svg"
   width="512.00098"
   height="335.45001"
   inkscape:version="1.0.1 (c497b03c, 2020-09-10)"><metadata
   id="metadata169"><rdf:RDF><cc:Work
       rdf:about=""><dc:format>image/svg+xml</dc:format><dc:type
         rdf:resource="http://purl.org/dc/dcmitype/StillImage" /><dc:title></dc:title></cc:Work></rdf:RDF></metadata><defs
   id="defs167" /><sodipodi:namedview
   pagecolor="#ffffff"
   bordercolor="#666666"
   borderopacity="1"
   objecttolerance="10"
   gridtolerance="10"
   guidetolerance="10"
   inkscape:pageopacity="0"
   inkscape:pageshadow="2"
   inkscape:window-width="936"
   inkscape:window-height="480"
   id="namedview165"
   showgrid="false"
   inkscape:zoom="0.61328005"
   inkscape:cx="256.0005"
   inkscape:cy="256.0005"
   inkscape:window-x="0"
   inkscape:window-y="23"
   inkscape:window-maximized="0"
   inkscape:current-layer="Layer_1" />
<path
   style="fill:#464655"
   d="M 512,111.817 H 0 V 8.828 C 0,3.953 3.953,0 8.828,0 h 494.345 c 4.875,0 8.828,3.953 8.828,8.828 z"
   id="path120" />
<path
   style="fill:#73af00"
   d="M 503.172,335.449 H 8.828 C 3.953,335.449 0,331.496 0,326.621 V 223.633 h 512 v 102.988 c 0,4.876 -3.953,8.828 -8.828,8.828 z"
   id="path122" />
<rect
   y="111.815"
   style="fill:#f5f5f5"
   width="512"
   height="111.81"
   id="rect124"
   x="0" />
<g
   id="g132"
   transform="translate(0,-88.276)">
	<path
   style="fill:#ff4b55"
   d="m 12.828,413.994 193.27,-153.418 c 2.946,-2.338 2.946,-6.812 0,-9.15 L 12.828,98.008 C 4.959,105.031 0,115.245 0,126.622 v 258.759 c 0,11.376 4.959,21.59 12.828,28.613 z"
   id="path126" />
	<path
   style="fill:#ff4b55"
   d="m 264.957,256.001 c 0,-20.136 13.151,-37.194 31.33,-43.068 1.045,-0.338 0.908,-1.867 -0.184,-1.974 -3.49,-0.343 -7.096,-0.289 -10.778,0.227 -21.354,2.997 -37.828,21.055 -38.858,42.593 -1.242,26.005 19.474,47.48 45.206,47.48 1.489,0 2.959,-0.074 4.41,-0.215 1.097,-0.107 1.24,-1.641 0.191,-1.98 -18.172,-5.878 -31.317,-22.933 -31.317,-43.063 z"
   id="path128" />
	<path
   style="fill:#ff4b55"
   d="m 303.384,226.265 -5.946,17.83 -18.795,0.146 c -2.433,0.019 -3.443,3.124 -1.485,4.569 l 15.119,11.165 -5.67,17.92 c -0.734,2.321 1.908,4.239 3.887,2.824 l 15.29,-10.93 15.29,10.93 c 1.98,1.415 4.621,-0.504 3.887,-2.824 l -5.67,-17.92 15.119,-11.165 c 1.958,-1.446 0.949,-4.551 -1.485,-4.569 l -18.795,-0.146 -5.946,-17.83 c -0.764,-2.308 -4.029,-2.308 -4.8,0 z"
   id="path130" />
</g>
<g
   id="g134"
   transform="translate(0,-88.276)">
</g>
<g
   id="g136"
   transform="translate(0,-88.276)">
</g>
<g
   id="g138"
   transform="translate(0,-88.276)">
</g>
<g
   id="g140"
   transform="translate(0,-88.276)">
</g>
<g
   id="g142"
   transform="translate(0,-88.276)">
</g>
<g
   id="g144"
   transform="translate(0,-88.276)">
</g>
<g
   id="g146"
   transform="translate(0,-88.276)">
</g>
<g
   id="g148"
   transform="translate(0,-88.276)">
</g>
<g
   id="g150"
   transform="translate(0,-88.276)">
</g>
<g
   id="g152"
   transform="translate(0,-88.276)">
</g>
<g
   id="g154"
   transform="translate(0,-88.276)">
</g>
<g
   id="g156"
   transform="translate(0,-88.276)">
</g>
<g
   id="g158"
   transform="translate(0,-88.276)">
</g>
<g
   id="g160"
   transform="translate(0,-88.276)">
</g>
<g
   id="g162"
   transform="translate(0,-88.276)">
</g>
</svg>
