<?xml version="1.0" encoding="UTF-8" standalone="no"?>
<svg
   xmlns:dc="http://purl.org/dc/elements/1.1/"
   xmlns:cc="http://creativecommons.org/ns#"
   xmlns:rdf="http://www.w3.org/1999/02/22-rdf-syntax-ns#"
   xmlns:svg="http://www.w3.org/2000/svg"
   xmlns="http://www.w3.org/2000/svg"
   xmlns:sodipodi="http://sodipodi.sourceforge.net/DTD/sodipodi-0.dtd"
   xmlns:inkscape="http://www.inkscape.org/namespaces/inkscape"
   version="1.1"
   id="Layer_1"
   x="0px"
   y="0px"
   viewBox="0 0 512 335.45001"
   xml:space="preserve"
   sodipodi:docname="canary-islands.svg"
   width="512"
   height="335.45001"
   inkscape:version="1.0.1 (c497b03c, 2020-09-10)"><metadata
   id="metadata322"><rdf:RDF><cc:Work
       rdf:about=""><dc:format>image/svg+xml</dc:format><dc:type
         rdf:resource="http://purl.org/dc/dcmitype/StillImage" /><dc:title></dc:title></cc:Work></rdf:RDF></metadata><defs
   id="defs320" /><sodipodi:namedview
   pagecolor="#ffffff"
   bordercolor="#666666"
   borderopacity="1"
   objecttolerance="10"
   gridtolerance="10"
   guidetolerance="10"
   inkscape:pageopacity="0"
   inkscape:pageshadow="2"
   inkscape:window-width="1797"
   inkscape:window-height="983"
   id="namedview318"
   showgrid="false"
   inkscape:zoom="1.640625"
   inkscape:cx="256"
   inkscape:cy="256"
   inkscape:window-x="0"
   inkscape:window-y="23"
   inkscape:window-maximized="0"
   inkscape:current-layer="Layer_1" />
<path
   style="fill:#f5f5f5"
   d="M 36.364,335.4 H 170.666 V 0.00299695 H 38.345 C 17.167,0.00299695 0,17.169997 0,38.347997 V 297.107 c 0,20.512 16.108,37.263 36.364,38.293 z"
   id="path233" />
<rect
   x="170.67"
   y="0"
   style="fill:#4173cd"
   width="170.67"
   height="335.39001"
   id="rect235" />
<path
   style="fill:#ffe15a"
   d="M 475.636,335.4 C 495.892,334.37 512,317.619 512,297.106 V 38.347997 C 512,17.170997 494.833,0.00299695 473.655,0.00299695 H 341.334 V 335.4 Z"
   id="path237" />
<g
   id="g243"
   transform="translate(0,-88.300003)">
	<path
   style="fill:#c17400"
   d="m 229.356,265.768 c -0.102,2.636 -4.055,3.751 -4.055,3.751 -0.405,-4.46 4.157,-12.671 5.068,-13.38 0.913,-0.71 4.562,-4.055 0.913,-3.346 -3.649,0.71 -7.198,8.92 -8.009,10.339 -0.811,1.419 -2.737,1.318 -2.737,1.318 0,0 0,-6.589 0,-8.008 0,-1.419 6.285,-4.46 6.285,-4.46 0,0 1.014,-6.082 0.102,-6.69 -0.913,-0.608 -2.838,1.116 -5.576,1.318 -2.737,0.203 -6.082,0.305 -8.92,2.94 -2.838,2.636 -2.94,4.46 -2.94,8.92 0,4.46 0,0 0,10.745 0,10.745 -10.036,18.247 -13.786,21.997 -1.021,1.021 -1.412,2.27 -1.446,3.58 -0.754,0.706 -2.417,1.735 -3.806,1.437 -2.135,-0.459 -2.453,-4.213 -2.453,-6.41 0,-0.672 -0.544,-1.216 -1.216,-1.216 -0.672,0 -1.216,0.544 -1.216,1.216 0,7.432 3.164,8.755 5.048,8.884 0.104,0.007 0.207,0.01 0.313,0.01 1.249,0 2.592,-0.493 3.706,-1.181 0.725,2.624 2.252,5.063 2.69,6.048 0.811,1.825 -3.649,4.765 -3.649,4.765 l 3.649,11.252 h 4.968 c 0,-2.787 -3.395,-2.23 -3.903,-2.94 -0.506,-0.71 -1.114,-7.147 -1.114,-7.147 l 7.048,-5.897 c 0.544,-0.455 0.858,-1.128 0.858,-1.837 v -3.138 c 0,0 5.17,0.836 6.463,1.976 1.292,1.14 0.152,4.562 0.152,5.017 0,0.455 6.538,6.234 6.538,6.234 h 4.486 c 0,-2.052 -2.129,-1.976 -3.193,-2.357 -1.065,-0.381 -4.257,-4.333 -4.257,-4.333 0,0 1.724,-5.347 1.724,-6.665 0,-1.318 -7.4,-6.69 -7.4,-6.69 0,0 1.014,-1.724 8.515,-6.387 7.501,-4.663 6.893,-9.934 6.893,-9.934 l 6.488,-7.298 v -5.271 c -10e-4,0 -2.129,0.203 -2.231,2.838 z"
   id="path239" />
	<path
   style="fill:#c17400"
   d="m 282.829,265.768 c 0.102,2.636 4.055,3.751 4.055,3.751 0.405,-4.46 -4.157,-12.671 -5.068,-13.38 -0.913,-0.71 -4.562,-4.055 -0.913,-3.346 3.649,0.71 7.198,8.92 8.009,10.339 0.811,1.419 2.737,1.318 2.737,1.318 0,0 0,-6.589 0,-8.008 0,-1.419 -6.285,-4.46 -6.285,-4.46 0,0 -1.014,-6.082 -0.102,-6.69 0.913,-0.608 2.838,1.116 5.576,1.318 2.737,0.203 6.082,0.305 8.92,2.94 2.838,2.636 2.94,4.46 2.94,8.92 0,4.46 0,0 0,10.745 0,10.745 10.036,18.247 13.786,21.997 1.021,1.021 1.412,2.27 1.446,3.58 0.754,0.706 2.417,1.735 3.806,1.437 2.135,-0.459 2.453,-4.213 2.453,-6.41 0,-0.672 0.544,-1.216 1.216,-1.216 0.672,0 1.216,0.544 1.216,1.216 0,7.432 -3.164,8.755 -5.048,8.884 -0.104,0.007 -0.207,0.01 -0.313,0.01 -1.249,0 -2.592,-0.493 -3.707,-1.181 -0.725,2.624 -2.252,5.063 -2.69,6.048 -0.811,1.825 3.649,4.765 3.649,4.765 l -3.649,11.252 h -4.968 c 0,-2.787 3.396,-2.23 3.903,-2.94 0.507,-0.71 1.114,-7.147 1.114,-7.147 l -7.048,-5.897 c -0.544,-0.455 -0.858,-1.128 -0.858,-1.837 v -3.138 c 0,0 -5.17,0.836 -6.463,1.976 -1.292,1.14 -0.152,4.562 -0.152,5.017 0,0.455 -6.538,6.234 -6.538,6.234 h -4.486 c 0,-2.052 2.129,-1.976 3.193,-2.357 1.065,-0.381 4.257,-4.333 4.257,-4.333 0,0 -1.724,-5.347 -1.724,-6.665 0,-1.318 7.4,-6.69 7.4,-6.69 0,0 -1.014,-1.724 -8.515,-6.387 -7.501,-4.663 -6.893,-9.934 -6.893,-9.934 l -6.488,-7.298 v -5.271 c 0.002,0 2.131,0.203 2.232,2.838 z"
   id="path241" />
</g>
<g
   id="g259"
   transform="translate(0,-88.300003)">
	<polygon
   style="fill:#c8c8c8"
   points="253.634,266.124 246.335,258.824 239.037,266.124 "
   id="polygon245" />
	<polygon
   style="fill:#c8c8c8"
   points="273.097,266.124 265.799,258.824 258.5,266.124 "
   id="polygon247" />
	<polygon
   style="fill:#c8c8c8"
   points="253.634,278.288 246.335,270.99 239.037,278.288 "
   id="polygon249" />
	<polygon
   style="fill:#c8c8c8"
   points="273.097,278.288 265.799,270.99 258.5,278.288 "
   id="polygon251" />
	<polygon
   style="fill:#c8c8c8"
   points="253.634,290.452 246.335,283.154 239.037,290.452 "
   id="polygon253" />
	<polygon
   style="fill:#c8c8c8"
   points="273.097,290.452 265.799,283.154 258.5,290.452 "
   id="polygon255" />
	<polygon
   style="fill:#c8c8c8"
   points="263.366,302.617 256.067,295.319 248.768,302.617 "
   id="polygon257" />
</g>
<g
   id="g271"
   transform="translate(0,-88.300003)">
	<rect
   x="254.85001"
   y="219.89999"
   style="fill:#ffe15a"
   width="2.4330001"
   height="14.598"
   id="rect261" />
	<path
   style="fill:#ffe15a"
   d="m 242.723,234.79 c -0.041,-0.157 -0.937,-3.892 1.579,-6.614 2.216,-2.4 6.247,-3.132 11.965,-2.178 l -0.399,2.4 c -4.798,-0.803 -8.178,-0.307 -9.779,1.428 -1.608,1.741 -1.012,4.35 -1.006,4.376 z"
   id="path263" />
	<path
   style="fill:#ffe15a"
   d="m 236.06,242.883 c -3.04,-1.521 -4.534,-5.935 -3.263,-9.641 0.533,-1.554 2.929,-6.49 11.345,-4.804 l -0.478,2.386 c -4.446,-0.896 -7.561,0.282 -8.565,3.208 -0.867,2.526 0.11,5.707 2.049,6.676 z"
   id="path265" />
	<path
   style="fill:#ffe15a"
   d="m 269.411,234.79 -2.359,-0.589 1.18,0.295 -1.182,-0.29 c 0.007,-0.026 0.61,-2.649 -1.018,-4.395 -1.608,-1.725 -4.984,-2.215 -9.764,-1.414 l -0.399,-2.4 c 5.726,-0.956 9.75,-0.221 11.965,2.178 2.514,2.723 1.617,6.458 1.577,6.615 z"
   id="path267" />
	<path
   style="fill:#ffe15a"
   d="m 276.074,242.883 -1.088,-2.176 c 1.939,-0.969 2.916,-4.151 2.049,-6.676 -1.004,-2.925 -4.125,-4.1 -8.565,-3.208 l -0.478,-2.386 c 8.422,-1.685 10.812,3.253 11.345,4.804 1.272,3.706 -0.223,8.121 -3.263,9.642 z"
   id="path269" />
</g>
<path
   style="fill:#ff4b55"
   d="m 265.799,146.195 c 0,0 -4.866,-2.433 -9.731,-2.433 -4.865,0 -9.731,2.433 -9.731,2.433 -4.866,-2.433 -12.164,0 -12.164,4.866 0,4.866 7.298,12.164 7.298,12.164 h 14.598 14.598 c 0,0 7.298,-7.298 7.298,-12.164 0,-4.866 -7.3,-7.299 -12.166,-4.866 z"
   id="path273" />
<rect
   x="253.64"
   y="132.81"
   style="fill:#ffe15a"
   width="4.8660002"
   height="2.4330001"
   id="rect275" />
<g
   id="g283"
   transform="translate(0,-88.300003)">
	<rect
   x="231.74001"
   y="207.74001"
   style="fill:#c8c8c8"
   width="48.661999"
   height="9.7309999"
   id="rect277" />
	
		<rect
   x="225.64999"
   y="212.19701"
   transform="matrix(0.3161,0.9487,-0.9487,0.3161,365.4303,-67.1599)"
   style="fill:#c8c8c8"
   width="7.2969999"
   height="15.386"
   id="rect279" />
	
		<rect
   x="275.151"
   y="216.241"
   transform="matrix(0.9487,0.3162,-0.3162,0.9487,84.0405,-78.153)"
   style="fill:#c8c8c8"
   width="15.387"
   height="7.2969999"
   id="rect281" />
</g>
<path
   style="fill:#464655"
   d="m 256.067,222.832 c -14.086,0 -25.546,-7.094 -25.546,-15.814 v -41.359 c 0,-2.013 1.638,-3.649 3.649,-3.649 h 43.793 c 2.013,0 3.649,1.638 3.649,3.649 v 41.359 c 0,8.72 -11.459,15.814 -25.545,15.814 z m -21.897,-58.39 c -0.671,0 -1.216,0.546 -1.216,1.216 v 41.359 c 0,7.377 10.368,13.38 23.113,13.38 12.745,0 23.113,-6.004 23.113,-13.38 v -41.359 c 0,-0.67 -0.545,-1.216 -1.216,-1.216 z"
   id="path285" />
<g
   id="g287">
</g>
<g
   id="g289">
</g>
<g
   id="g291">
</g>
<g
   id="g293">
</g>
<g
   id="g295">
</g>
<g
   id="g297">
</g>
<g
   id="g299">
</g>
<g
   id="g301">
</g>
<g
   id="g303">
</g>
<g
   id="g305">
</g>
<g
   id="g307">
</g>
<g
   id="g309">
</g>
<g
   id="g311">
</g>
<g
   id="g313">
</g>
<g
   id="g315">
</g>
</svg>
