<?xml version="1.0" encoding="UTF-8" standalone="no"?>
<svg
   xmlns:dc="http://purl.org/dc/elements/1.1/"
   xmlns:cc="http://creativecommons.org/ns#"
   xmlns:rdf="http://www.w3.org/1999/02/22-rdf-syntax-ns#"
   xmlns:svg="http://www.w3.org/2000/svg"
   xmlns="http://www.w3.org/2000/svg"
   xmlns:sodipodi="http://sodipodi.sourceforge.net/DTD/sodipodi-0.dtd"
   xmlns:inkscape="http://www.inkscape.org/namespaces/inkscape"
   version="1.1"
   id="Layer_1"
   x="0px"
   y="0px"
   viewBox="0 0 512 335.45001"
   xml:space="preserve"
   sodipodi:docname="et.svg"
   width="512"
   height="335.45001"
   inkscape:version="1.0.1 (c497b03c, 2020-09-10)"><metadata
   id="metadata59"><rdf:RDF><cc:Work
       rdf:about=""><dc:format>image/svg+xml</dc:format><dc:type
         rdf:resource="http://purl.org/dc/dcmitype/StillImage" /><dc:title></dc:title></cc:Work></rdf:RDF></metadata><defs
   id="defs57" /><sodipodi:namedview
   pagecolor="#ffffff"
   bordercolor="#666666"
   borderopacity="1"
   objecttolerance="10"
   gridtolerance="10"
   guidetolerance="10"
   inkscape:pageopacity="0"
   inkscape:pageshadow="2"
   inkscape:window-width="2560"
   inkscape:window-height="984"
   id="namedview55"
   showgrid="false"
   inkscape:zoom="1.640625"
   inkscape:cx="256"
   inkscape:cy="256"
   inkscape:window-x="0"
   inkscape:window-y="23"
   inkscape:window-maximized="1"
   inkscape:current-layer="Layer_1" />
<path
   style="fill:#73af00"
   d="M 473.655,0 H 38.345 C 17.167,0 0,17.167 0,38.345 v 73.471 H 512 V 38.345 C 512,17.167 494.833,0 473.655,0 Z"
   id="path10" />
<path
   style="fill:#ff4b55"
   d="m 0,297.103 c 0,21.177 17.167,38.345 38.345,38.345 h 435.31 c 21.177,0 38.345,-17.167 38.345,-38.345 V 223.632 H 0 Z"
   id="path12" />
<rect
   y="111.814"
   style="fill:#ffe15a"
   width="512"
   height="111.81"
   id="rect14"
   x="0" />
<path
   style="fill:#4173cd"
   d="m 361.945,167.822 c 0,58.426 -47.434,105.945 -105.945,105.945 -58.511,0 -105.945,-47.519 -105.945,-105.945 0,-58.595 47.435,-106.029 105.945,-106.029 58.51,0 105.945,47.434 105.945,106.029 z"
   id="path16" />
<g
   id="g22"
   transform="translate(0,-88.276)">
	<path
   style="fill:#f2dd30"
   d="m 175.42,229.463 h 61.556 l 13.929,-42.867 3.699,11.498 -20.227,62.316 -6.026,-4.396 6.301,-19.362 h -49.506 z m 30.756,94.784 19.025,-58.51 -36.462,-26.55 h 12.026 l 52.995,38.473 -6.024,4.396 -16.509,-12.007 -15.325,47.181 z m 99.646,0 -49.822,-36.186 -36.442,26.464 3.721,-11.329 52.952,-38.558 2.262,7.102 -16.468,11.923 40.057,29.172 z m 30.756,-94.784 -49.781,36.274 13.931,42.869 -9.724,-7.104 -20.209,-62.316 h 7.399 l 6.298,19.448 40.079,-29.172 h 12.006 v 0.001 z M 256,170.953 l 19.025,58.51 h 45.088 l -9.745,7.189 h -65.487 l 2.305,-7.189 h 20.418 l -15.326,-47.096 z"
   id="path18" />
	<path
   style="fill:#f2dd30"
   d="m 257.775,340.822 h -3.53 V 294.91 h 3.53 z m 78.276,-56.991 -43.651,-14.12 1.099,-3.297 43.672,14.12 z m -160.123,0 -1.1,-3.297 43.692,-14.12 1.08,3.297 z m 104.361,-58.173 -2.877,-2.028 26.995,-37.12 2.812,2.03 z m -48.513,0 -27.038,-37.118 2.855,-2.03 26.973,37.12 z"
   id="path20" />
</g>
<g
   id="g24">
</g>
<g
   id="g26">
</g>
<g
   id="g28">
</g>
<g
   id="g30">
</g>
<g
   id="g32">
</g>
<g
   id="g34">
</g>
<g
   id="g36">
</g>
<g
   id="g38">
</g>
<g
   id="g40">
</g>
<g
   id="g42">
</g>
<g
   id="g44">
</g>
<g
   id="g46">
</g>
<g
   id="g48">
</g>
<g
   id="g50">
</g>
<g
   id="g52">
</g>
</svg>
