<?xml version="1.0" encoding="UTF-8" standalone="no"?>
<svg
   xmlns:dc="http://purl.org/dc/elements/1.1/"
   xmlns:cc="http://creativecommons.org/ns#"
   xmlns:rdf="http://www.w3.org/1999/02/22-rdf-syntax-ns#"
   xmlns:svg="http://www.w3.org/2000/svg"
   xmlns="http://www.w3.org/2000/svg"
   xmlns:sodipodi="http://sodipodi.sourceforge.net/DTD/sodipodi-0.dtd"
   xmlns:inkscape="http://www.inkscape.org/namespaces/inkscape"
   version="1.1"
   id="Layer_1"
   x="0px"
   y="0px"
   viewBox="0 0 512 335.45001"
   xml:space="preserve"
   sodipodi:docname="fm.svg"
   width="512"
   height="335.45001"
   inkscape:version="1.0.1 (c497b03c, 2020-09-10)"><metadata
   id="metadata57"><rdf:RDF><cc:Work
       rdf:about=""><dc:format>image/svg+xml</dc:format><dc:type
         rdf:resource="http://purl.org/dc/dcmitype/StillImage" /><dc:title></dc:title></cc:Work></rdf:RDF></metadata><defs
   id="defs55" /><sodipodi:namedview
   pagecolor="#ffffff"
   bordercolor="#666666"
   borderopacity="1"
   objecttolerance="10"
   gridtolerance="10"
   guidetolerance="10"
   inkscape:pageopacity="0"
   inkscape:pageshadow="2"
   inkscape:window-width="969"
   inkscape:window-height="480"
   id="namedview53"
   showgrid="false"
   inkscape:zoom="1.640625"
   inkscape:cx="256"
   inkscape:cy="256"
   inkscape:window-x="0"
   inkscape:window-y="23"
   inkscape:window-maximized="0"
   inkscape:current-layer="Layer_1" />
<path
   style="fill:#82afff;stroke-width:0.999999"
   d="M 473.655,335.448 H 38.345 C 17.167,335.448 0,318.28099 0,297.10299 V 38.345 C 0,17.168 17.167,0 38.345,0 h 435.31 C 494.832,0 512,17.167 512,38.345 v 258.75899 c 0,21.177 -17.167,38.34401 -38.345,38.34401 z"
   id="path10" />
<g
   id="g20"
   transform="translate(0,-88.276)">
	<path
   style="fill:#f5f5f5"
   d="m 254.837,136.575 -6.801,20.392 -21.495,0.167 c -1.178,0.009 -1.667,1.513 -0.719,2.214 l 17.292,12.769 -6.484,20.494 c -0.355,1.123 0.924,2.054 1.882,1.368 l 17.487,-12.5 17.489,12.5 c 0.959,0.685 2.238,-0.244 1.882,-1.368 l -6.484,-20.494 17.292,-12.769 c 0.948,-0.7 0.459,-2.204 -0.719,-2.214 l -21.495,-0.167 -6.801,-20.392 c -0.372,-1.118 -1.954,-1.118 -2.326,0 z"
   id="path12" />
	<path
   style="fill:#f5f5f5"
   d="m 254.837,318.637 -6.801,20.392 -21.495,0.167 c -1.178,0.009 -1.667,1.513 -0.719,2.214 l 17.292,12.769 -6.484,20.494 c -0.355,1.123 0.924,2.054 1.882,1.368 l 17.487,-12.5 17.489,12.5 c 0.959,0.685 2.238,-0.244 1.882,-1.368 l -6.484,-20.494 17.292,-12.769 c 0.948,-0.7 0.459,-2.204 -0.719,-2.214 l -21.495,-0.167 -6.801,-20.392 c -0.372,-1.118 -1.954,-1.118 -2.326,0 z"
   id="path14" />
	<path
   style="fill:#f5f5f5"
   d="m 375.431,254.842 -20.392,-6.801 -0.167,-21.495 c -0.009,-1.178 -1.513,-1.667 -2.214,-0.719 l -12.769,17.292 -20.494,-6.484 c -1.123,-0.355 -2.053,0.924 -1.368,1.882 l 12.5,17.489 -12.5,17.489 c -0.685,0.959 0.244,2.238 1.368,1.882 l 20.494,-6.484 12.769,17.292 c 0.7,0.948 2.204,0.459 2.214,-0.719 l 0.167,-21.495 20.392,-6.801 c 1.117,-0.373 1.117,-1.955 0,-2.328 z"
   id="path16" />
	<path
   style="fill:#f5f5f5"
   d="m 136.569,254.842 20.392,-6.801 0.167,-21.495 c 0.009,-1.178 1.513,-1.667 2.214,-0.719 l 12.769,17.292 20.494,-6.484 c 1.123,-0.355 2.054,0.924 1.368,1.882 l -12.5,17.489 12.5,17.489 c 0.685,0.959 -0.244,2.238 -1.368,1.882 l -20.494,-6.484 -12.769,17.292 c -0.7,0.948 -2.204,0.459 -2.214,-0.719 l -0.167,-21.495 -20.392,-6.801 c -1.117,-0.373 -1.117,-1.955 0,-2.328 z"
   id="path18" />
</g>
<g
   id="g22"
   transform="translate(0,-88.276)">
</g>
<g
   id="g24"
   transform="translate(0,-88.276)">
</g>
<g
   id="g26"
   transform="translate(0,-88.276)">
</g>
<g
   id="g28"
   transform="translate(0,-88.276)">
</g>
<g
   id="g30"
   transform="translate(0,-88.276)">
</g>
<g
   id="g32"
   transform="translate(0,-88.276)">
</g>
<g
   id="g34"
   transform="translate(0,-88.276)">
</g>
<g
   id="g36"
   transform="translate(0,-88.276)">
</g>
<g
   id="g38"
   transform="translate(0,-88.276)">
</g>
<g
   id="g40"
   transform="translate(0,-88.276)">
</g>
<g
   id="g42"
   transform="translate(0,-88.276)">
</g>
<g
   id="g44"
   transform="translate(0,-88.276)">
</g>
<g
   id="g46"
   transform="translate(0,-88.276)">
</g>
<g
   id="g48"
   transform="translate(0,-88.276)">
</g>
<g
   id="g50"
   transform="translate(0,-88.276)">
</g>
</svg>
