<?xml version="1.0" encoding="UTF-8" standalone="no"?>
<svg
   xmlns:dc="http://purl.org/dc/elements/1.1/"
   xmlns:cc="http://creativecommons.org/ns#"
   xmlns:rdf="http://www.w3.org/1999/02/22-rdf-syntax-ns#"
   xmlns:svg="http://www.w3.org/2000/svg"
   xmlns="http://www.w3.org/2000/svg"
   xmlns:sodipodi="http://sodipodi.sourceforge.net/DTD/sodipodi-0.dtd"
   xmlns:inkscape="http://www.inkscape.org/namespaces/inkscape"
   version="1.1"
   id="Layer_1"
   x="0px"
   y="0px"
   viewBox="0 0 512 335.45001"
   xml:space="preserve"
   sodipodi:docname="corsica.svg"
   width="512"
   height="335.45001"
   inkscape:version="1.0.1 (c497b03c, 2020-09-10)"><metadata
   id="metadata1259"><rdf:RDF><cc:Work
       rdf:about=""><dc:format>image/svg+xml</dc:format><dc:type
         rdf:resource="http://purl.org/dc/dcmitype/StillImage" /><dc:title></dc:title></cc:Work></rdf:RDF></metadata><defs
   id="defs1257" /><sodipodi:namedview
   pagecolor="#ffffff"
   bordercolor="#666666"
   borderopacity="1"
   objecttolerance="10"
   gridtolerance="10"
   guidetolerance="10"
   inkscape:pageopacity="0"
   inkscape:pageshadow="2"
   inkscape:window-width="1797"
   inkscape:window-height="983"
   id="namedview1255"
   showgrid="false"
   inkscape:zoom="1.640625"
   inkscape:cx="256"
   inkscape:cy="256"
   inkscape:window-x="0"
   inkscape:window-y="23"
   inkscape:window-maximized="0"
   inkscape:current-layer="Layer_1" />
<path
   style="fill:#f5f5f5"
   d="M 473.655,335.448 H 38.345 C 17.167,335.448 0,318.281 0,297.103 V 38.345 C 0,17.168 17.167,0 38.345,0 h 435.31 C 494.832,0 512,17.167 512,38.345 v 258.759 c 0,21.177 -17.167,38.344 -38.345,38.344 z"
   id="path1220" />
<path
   style="fill:#464655"
   d="m 142.247,185.065 c 0,0 0.245,4.682 -3.698,8.871 -3.943,4.191 -1.972,9.612 3.204,12.077 0,0 -3.572,8.502 1.726,12.075 3.345,2.258 7.886,1.972 7.886,1.972 0,0 2.465,10.105 0.493,16.511 -1.972,6.408 0.739,24.891 45.838,14.294 0,0 0.409,11.829 18.483,21.03 18.071,9.201 14.532,30.995 14.532,30.995 0,0 24.876,14.402 52.37,-19.639 27.495,-34.04 29.458,-38.623 49.097,-46.478 0,0 -30.767,-31.422 -19.638,-58.916 1.465,-3.624 3.122,-7.426 4.849,-11.336 3.186,10.348 9.48,25.459 20.723,34.248 3.498,2.721 7.815,3.58 11.988,4.418 4.48,0.9 8.346,1.677 10.167,4.439 1.601,2.46 1.747,6.799 0.509,12.803 -13.368,14.583 -26.287,18.47 -26.468,18.516 l -3.109,0.839 6.536,21.557 -19.506,17.945 0.348,1.739 c 2.414,12.029 9.839,13.624 12.908,13.768 0.184,0 0.369,0.021 0.553,0.021 7.098,0 14.319,-5.973 16.611,-13.849 3.969,-13.603 16.918,-15.158 17.062,-15.158 l 1.964,-0.225 0.654,-1.862 c 0.287,-0.819 7.017,-20.212 10.33,-39.972 1.332,-7.993 1.586,-14.356 1.314,-19.923 0.103,-0.192 0.22,-0.299 0.322,-0.493 l -0.338,-0.177 c -1.25,-21.07 -12.679,-26.678 -23.966,-31.88 -9.622,-4.467 -13.399,-8.804 -15.268,-12.244 0.388,0.01 0.718,0.113 1.112,0.113 3.069,0 6.301,-0.348 9.574,-1.268 9.123,-2.537 16.509,-8.776 21.95,-18.534 3.314,-5.973 27.965,-73.604 30.767,-81.295 l 1.943,-5.34 -31.821,6.792 2.424,-19.352 -41.241,14.545 0.982,2.946 c 0.143,0.388 13.277,39.83 12.008,63.907 -0.348,6.322 -2.332,10.903 -5.953,13.603 -4.552,3.362 -10.722,3.183 -13.944,2.836 7.178,-19.071 11.806,-39.108 4.963,-57.047 -11.336,-29.721 -61.535,-56.952 -99.502,-53.024 -37.967,3.928 -69.436,13.102 -79.91,51.071 -10.474,37.969 -7.554,48 -6.244,54.546 1.309,6.546 -23.351,35.442 -18.892,44.361 2.956,5.913 13.308,5.174 13.308,5.174 z m 181.997,-34.336 c 0.66,-1.557 1.32,-3.107 1.961,-4.684 1.163,0.207 2.887,0.452 5.421,0.452 4.296,0 9.921,-0.819 14.606,-4.317 5.175,-3.866 8.019,-10.024 8.449,-18.308 1.166,-21.602 -8.244,-53.454 -11.353,-63.294 l 25.857,-9.103 -6.28,50.161 6.219,0.777 4.299,-34.322 22.868,-4.874 c -10.903,29.867 -26.226,71.128 -28.415,75.057 -4.602,8.244 -10.719,13.481 -18.166,15.548 -11.182,3.169 -21.835,-1.311 -25.466,-3.093 z m 15.512,119.291 3.191,10.53 c -0.082,0.256 -0.238,0.392 -0.314,0.654 -1.493,5.115 -6.301,9.308 -10.577,9.308 -0.103,0 -0.204,0 -0.287,0 -3.886,-0.163 -5.749,-3.948 -6.628,-7.037 z m 33.787,-54.334 c -0.253,2.823 -0.526,5.682 -1.085,9.037 -2.659,15.895 -7.774,32.015 -9.492,37.191 -3.519,0.823 -10.781,3.311 -15.964,10.346 l -7.991,-26.303 c 6.371,-2.531 21.294,-10.893 34.532,-30.271 z m -52.081,-58.398 c 0.12,-0.274 0.238,-0.524 0.355,-0.798 2.362,1.12 6.349,2.766 11.668,3.805 1.478,4.398 4.94,11.757 19.866,18.667 10.351,4.779 19.058,8.832 20.444,24.83 -1.954,3.593 -4.094,6.089 -6.18,9.039 -0.305,-2.541 -0.895,-4.823 -2.092,-6.641 -3.273,-4.971 -9.063,-6.137 -14.197,-7.16 -3.62,-0.736 -7.037,-1.411 -9.348,-3.212 -13.21,-10.315 -18.872,-31.282 -20.516,-38.53 z M 158.019,110.883 c 0,0 0.984,-22.178 10.845,-40.909 l 150.824,69.991 -12.817,27.602 z"
   id="path1222" />
<g
   id="g1224">
</g>
<g
   id="g1226">
</g>
<g
   id="g1228">
</g>
<g
   id="g1230">
</g>
<g
   id="g1232">
</g>
<g
   id="g1234">
</g>
<g
   id="g1236">
</g>
<g
   id="g1238">
</g>
<g
   id="g1240">
</g>
<g
   id="g1242">
</g>
<g
   id="g1244">
</g>
<g
   id="g1246">
</g>
<g
   id="g1248">
</g>
<g
   id="g1250">
</g>
<g
   id="g1252">
</g>
</svg>
