<?xml version="1.0" encoding="UTF-8" standalone="no"?>
<svg
   xmlns:dc="http://purl.org/dc/elements/1.1/"
   xmlns:cc="http://creativecommons.org/ns#"
   xmlns:rdf="http://www.w3.org/1999/02/22-rdf-syntax-ns#"
   xmlns:svg="http://www.w3.org/2000/svg"
   xmlns="http://www.w3.org/2000/svg"
   xmlns:sodipodi="http://sodipodi.sourceforge.net/DTD/sodipodi-0.dtd"
   xmlns:inkscape="http://www.inkscape.org/namespaces/inkscape"
   version="1.1"
   id="Layer_1"
   x="0px"
   y="0px"
   viewBox="0 0 512 335.45001"
   xml:space="preserve"
   sodipodi:docname="gi.svg"
   width="512"
   height="335.45001"
   inkscape:version="1.0.1 (c497b03c, 2020-09-10)"><metadata
   id="metadata114"><rdf:RDF><cc:Work
       rdf:about=""><dc:format>image/svg+xml</dc:format><dc:type
         rdf:resource="http://purl.org/dc/dcmitype/StillImage" /><dc:title></dc:title></cc:Work></rdf:RDF></metadata><defs
   id="defs112" /><sodipodi:namedview
   pagecolor="#ffffff"
   bordercolor="#666666"
   borderopacity="1"
   objecttolerance="10"
   gridtolerance="10"
   guidetolerance="10"
   inkscape:pageopacity="0"
   inkscape:pageshadow="2"
   inkscape:window-width="1252"
   inkscape:window-height="812"
   id="namedview110"
   showgrid="false"
   inkscape:zoom="1.640625"
   inkscape:cx="256"
   inkscape:cy="256"
   inkscape:window-x="0"
   inkscape:window-y="23"
   inkscape:window-maximized="0"
   inkscape:current-layer="Layer_1" />
<path
   style="fill:#f5f5f5"
   d="M 473.655,335.448 H 38.345 C 17.167,335.448 0,318.281 0,297.103 V 38.345 C 0,17.168 17.167,0 38.345,0 h 435.31 C 494.832,0 512,17.167 512,38.345 v 258.759 c 0,21.177 -17.167,38.344 -38.345,38.344 z"
   id="path55" />
<g
   id="g61"
   transform="translate(0,-88.276)">
	<path
   style="fill:#ff4b55"
   d="m 0,385.379 c 0,21.177 17.167,38.345 38.345,38.345 h 435.31 c 21.165,0 38.324,-17.148 38.344,-38.307 V 308.966 H 0 Z"
   id="path57" />
	<polygon
   style="fill:#ff4b55"
   points="335.447,194.207 335.447,150.069 344.275,150.069 344.275,132.414 291.309,132.414 291.309,150.069 300.137,150.069 300.137,194.207 273.654,194.207 273.654,132.414 282.482,132.414 282.482,114.759 229.516,114.759 229.516,132.414 238.344,132.414 238.344,194.207 211.861,194.207 211.861,150.069 220.689,150.069 220.689,132.414 167.723,132.414 167.723,150.069 176.551,150.069 176.551,194.207 158.895,194.207 158.895,211.862 167.723,211.862 167.723,282.483 158.895,282.483 158.895,300.138 353.102,300.138 353.102,282.483 344.275,282.483 344.275,211.862 353.102,211.862 353.102,194.207 "
   id="polygon59" />
</g>
<g
   id="g75"
   transform="translate(0,-88.276)">
	<path
   style="fill:#464655"
   d="m 273.654,291.31 h -35.31 V 256 c 0,-9.751 7.904,-17.655 17.655,-17.655 v 0 c 9.751,0 17.655,7.904 17.655,17.655 z"
   id="path63" />
	<path
   style="fill:#464655"
   d="m 255.999,167.724 c -4.875,0 -8.828,3.953 -8.828,8.828 v 26.483 h 17.655 v -26.483 c 0,-4.876 -3.952,-8.828 -8.827,-8.828 z"
   id="path65" />
	<path
   style="fill:#464655"
   d="m 317.792,176.552 c -4.875,0 -8.828,3.953 -8.828,8.828 v 17.655 h 17.655 V 185.38 c 10e-4,-4.877 -3.952,-8.828 -8.827,-8.828 z"
   id="path67" />
	<path
   style="fill:#464655"
   d="m 194.206,176.552 c -4.875,0 -8.828,3.953 -8.828,8.828 v 17.655 h 17.655 V 185.38 c 0,-4.877 -3.952,-8.828 -8.827,-8.828 z"
   id="path69" />
	<path
   style="fill:#464655"
   d="m 326.62,291.31 h -35.31 v -26.483 c 0,-9.751 7.904,-17.655 17.655,-17.655 v 0 c 9.751,0 17.655,7.904 17.655,17.655 z"
   id="path71" />
	<path
   style="fill:#464655"
   d="m 220.689,291.31 h -35.31 v -26.483 c 0,-9.751 7.904,-17.655 17.655,-17.655 v 0 c 9.751,0 17.655,7.904 17.655,17.655 z"
   id="path73" />
</g>
<path
   style="fill:#ffe15a"
   d="m 280.275,233.931 c 0,-1.474 -0.737,-2.854 -1.965,-3.672 l -17.897,-11.932 v -3.737 l 15.215,-7.608 c 2.182,-1.09 3.064,-3.742 1.974,-5.922 -1.095,-2.185 -3.737,-3.064 -5.922,-1.974 l -15.681,7.84 -15.681,-7.84 c -2.173,-1.09 -4.832,-0.211 -5.922,1.974 -1.09,2.181 -0.207,4.832 1.974,5.922 l 15.215,7.608 v 3.737 l -17.897,11.932 c -1.228,0.819 -1.965,2.198 -1.965,3.672 0,1.474 0.737,2.854 1.965,3.672 l 17.897,11.932 v 37.362 H 233.93 v 6.759 c 0,2.44 1.974,4.414 4.414,4.414 1.689,0 3.159,-0.948 3.901,-2.345 h 9.341 v 8.828 h -9.418 c -0.762,-1.319 -2.189,-2.207 -3.823,-2.207 -2.44,0 -4.414,1.974 -4.414,4.414 v 6.621 h 17.655 v 4.414 c 0,2.44 1.974,4.414 4.414,4.414 2.44,0 4.414,-1.974 4.414,-4.414 v -4.414 -26.483 -37.362 l 17.897,-11.932 c 1.227,-0.82 1.964,-2.199 1.964,-3.673 z m -24.276,7.935 -11.905,-7.935 11.905,-7.935 11.905,7.935 z"
   id="path77" />
<g
   id="g79">
</g>
<g
   id="g81">
</g>
<g
   id="g83">
</g>
<g
   id="g85">
</g>
<g
   id="g87">
</g>
<g
   id="g89">
</g>
<g
   id="g91">
</g>
<g
   id="g93">
</g>
<g
   id="g95">
</g>
<g
   id="g97">
</g>
<g
   id="g99">
</g>
<g
   id="g101">
</g>
<g
   id="g103">
</g>
<g
   id="g105">
</g>
<g
   id="g107">
</g>
</svg>
