<?xml version="1.0" encoding="UTF-8" standalone="no"?>
<svg
   xmlns:dc="http://purl.org/dc/elements/1.1/"
   xmlns:cc="http://creativecommons.org/ns#"
   xmlns:rdf="http://www.w3.org/1999/02/22-rdf-syntax-ns#"
   xmlns:svg="http://www.w3.org/2000/svg"
   xmlns="http://www.w3.org/2000/svg"
   xmlns:sodipodi="http://sodipodi.sourceforge.net/DTD/sodipodi-0.dtd"
   xmlns:inkscape="http://www.inkscape.org/namespaces/inkscape"
   version="1.1"
   id="Layer_1"
   x="0px"
   y="0px"
   viewBox="0 0 512.4 335.45"
   xml:space="preserve"
   sodipodi:docname="gr.svg"
   width="512.40002"
   height="335.45001"
   inkscape:version="1.0.1 (c497b03c, 2020-09-10)"><metadata
   id="metadata49"><rdf:RDF><cc:Work
       rdf:about=""><dc:format>image/svg+xml</dc:format><dc:type
         rdf:resource="http://purl.org/dc/dcmitype/StillImage" /><dc:title></dc:title></cc:Work></rdf:RDF></metadata><defs
   id="defs47" /><sodipodi:namedview
   pagecolor="#ffffff"
   bordercolor="#666666"
   borderopacity="1"
   objecttolerance="10"
   gridtolerance="10"
   guidetolerance="10"
   inkscape:pageopacity="0"
   inkscape:pageshadow="2"
   inkscape:window-width="1645"
   inkscape:window-height="883"
   id="namedview45"
   showgrid="false"
   inkscape:zoom="1.6393443"
   inkscape:cx="256.2"
   inkscape:cy="256.2"
   inkscape:window-x="0"
   inkscape:window-y="23"
   inkscape:window-maximized="0"
   inkscape:current-layer="Layer_1" />
<path
   style="fill:#f5f5f5"
   d="M 512,37.3 C 511.4,16.6 494.5,0 473.7,0 H 38.3 C 17.2,0.1 0,17.2 0,38.4 v 258.8 c 0,0.4 0,0.7 0,1.1 v 0 c 0.1,5.2 1.3,10.1 3.3,14.5 v 0 c 0.2,0.6 0.5,1.1 0.8,1.6 v 0 c 0.3,0.5 0.5,1 0.8,1.6 0,0 0,0 0,0.1 0.3,0.5 0.6,1 0.9,1.5 0,0 0,0.1 0.1,0.1 0.3,0.5 0.6,0.9 0.9,1.4 l 0.1,0.1 c 0.3,0.5 0.6,0.9 1,1.3 0,0.1 0.1,0.1 0.1,0.2 0.3,0.4 0.7,0.8 1,1.2 0.1,0.1 0.1,0.1 0.2,0.2 0.3,0.4 0.7,0.8 1,1.2 0.1,0.1 0.1,0.1 0.2,0.2 0.3,0.4 0.7,0.7 1.1,1.1 0.1,0.1 0.2,0.2 0.2,0.2 0.4,0.3 0.7,0.7 1.1,1 0.1,0.1 0.2,0.2 0.3,0.3 0.4,0.3 0.7,0.6 1.1,0.9 0.1,0.1 0.2,0.2 0.4,0.3 0.4,0.3 0.7,0.6 1.1,0.8 0.1,0.1 0.3,0.2 0.4,0.3 0.4,0.3 0.7,0.5 1.1,0.7 0.2,0.1 0.3,0.2 0.5,0.3 0.4,0.2 0.7,0.5 1.1,0.7 0.2,0.1 0.4,0.2 0.5,0.3 0.3,0.2 0.7,0.4 1,0.6 0.2,0.1 0.4,0.2 0.6,0.3 0.3,0.2 0.7,0.4 1,0.5 0.2,0.1 0.4,0.2 0.7,0.3 0.3,0.2 0.7,0.3 1,0.5 0.2,0.1 0.5,0.2 0.7,0.3 0.3,0.1 0.7,0.3 1,0.4 0.3,0.1 0.5,0.2 0.8,0.3 0.3,0.1 0.6,0.2 1,0.3 0.3,0.1 0.6,0.2 0.9,0.2 0.3,0.1 0.6,0.2 0.9,0.3 0.3,0.1 0.6,0.1 0.9,0.2 0.3,0.1 0.6,0.1 0.9,0.2 0.3,0.1 0.7,0.1 1,0.2 0.3,0.1 0.6,0.1 0.9,0.2 0.4,0.1 0.7,0.1 1.1,0.1 0.3,0 0.5,0.1 0.8,0.1 0.4,0 0.8,0.1 1.3,0.1 0.2,0 0.4,0 0.7,0.1 0.6,0 1.3,0 2,0 h 435.3 c 0.7,0 1.3,0 2,0 0.2,0 0.4,0 0.7,-0.1 0.4,0 0.8,-0.1 1.3,-0.1 0.3,0 0.5,-0.1 0.8,-0.1 0.4,0 0.7,-0.1 1.1,-0.1 0.3,0 0.6,-0.1 0.9,-0.2 0.3,-0.1 0.7,-0.1 1,-0.2 0.3,-0.1 0.6,-0.1 0.9,-0.2 0.3,-0.1 0.6,-0.1 0.9,-0.2 0.3,-0.1 0.6,-0.2 0.9,-0.3 0.3,-0.1 0.6,-0.2 0.9,-0.2 0.3,-0.1 0.6,-0.2 1,-0.3 0.3,-0.1 0.5,-0.2 0.8,-0.3 0.3,-0.1 0.7,-0.3 1,-0.4 0.2,-0.1 0.5,-0.2 0.7,-0.3 0.3,-0.1 0.7,-0.3 1,-0.5 0.2,-0.1 0.4,-0.2 0.7,-0.3 0.3,-0.2 0.7,-0.3 1,-0.5 0.2,-0.1 0.4,-0.2 0.6,-0.3 0.4,-0.2 0.7,-0.4 1,-0.6 0.2,-0.1 0.4,-0.2 0.5,-0.3 0.4,-0.2 0.7,-0.4 1.1,-0.7 0.2,-0.1 0.3,-0.2 0.5,-0.3 0.4,-0.2 0.7,-0.5 1.1,-0.7 0.1,-0.1 0.3,-0.2 0.4,-0.3 0.4,-0.3 0.7,-0.5 1.1,-0.8 0.1,-0.1 0.2,-0.2 0.4,-0.3 0.4,-0.3 0.7,-0.6 1.1,-0.9 0.1,-0.1 0.2,-0.2 0.3,-0.3 0.4,-0.3 0.7,-0.7 1.1,-1 0.1,-0.1 0.2,-0.2 0.3,-0.2 0.4,-0.4 0.7,-0.7 1.1,-1.1 0.1,-0.1 0.1,-0.1 0.2,-0.2 0.4,-0.4 0.7,-0.8 1,-1.2 0.1,-0.1 0.1,-0.1 0.2,-0.2 0.3,-0.4 0.7,-0.8 1,-1.2 0,-0.1 0.1,-0.1 0.1,-0.2 0.3,-0.4 0.7,-0.9 1,-1.3 l 0.1,-0.1 c 0.3,-0.5 0.6,-0.9 0.9,-1.4 0,0 0,-0.1 0.1,-0.1 0.3,-0.5 0.6,-1 0.9,-1.5 0,0 0,0 0,-0.1 0.3,-0.5 0.6,-1 0.8,-1.6 v 0 c 0.3,-0.5 0.5,-1.1 0.8,-1.6 v 0 c 2,-4.5 3.2,-9.4 3.3,-14.5 v 0 c 0,-0.4 0,-0.7 0,-1.1 V 38.4 C 512,38.1 512,37.7 512,37.3 Z"
   id="path10" />
<path
   style="fill:#41479b"
   d="m 0,223.7 h 512 v 37.3 0 H 0 v 0 z m 3.3,89.1 v 0 c 0.2,0.6 0.5,1.1 0.8,1.6 v 0 c 0.3,0.5 0.5,1 0.8,1.6 0,0 0,0 0,0.1 0.3,0.5 0.6,1 0.9,1.5 0,0 0,0.1 0.1,0.1 0.3,0.5 0.6,0.9 0.9,1.4 l 0.1,0.1 c 0.3,0.5 0.6,0.9 1,1.3 0,0.1 0.1,0.1 0.1,0.2 0.3,0.4 0.7,0.8 1,1.2 0.1,0.1 0.1,0.1 0.2,0.2 0.3,0.4 0.7,0.8 1,1.2 0.1,0.1 0.1,0.1 0.2,0.2 0.3,0.4 0.7,0.7 1.1,1.1 0.1,0.1 0.2,0.2 0.2,0.2 0.4,0.3 0.7,0.7 1.1,1 0.1,0.1 0.2,0.2 0.3,0.3 0.4,0.3 0.7,0.6 1.1,0.9 0.1,0.1 0.2,0.2 0.4,0.3 0.4,0.3 0.7,0.6 1.1,0.8 0.1,0.1 0.3,0.2 0.4,0.3 0.4,0.3 0.7,0.5 1.1,0.7 0.2,0.1 0.3,0.2 0.5,0.3 0.4,0.2 0.7,0.5 1.1,0.7 0.2,0.1 0.4,0.2 0.5,0.3 0.3,0.2 0.7,0.4 1,0.6 0.2,0.1 0.4,0.2 0.6,0.3 0.3,0.2 0.7,0.4 1,0.5 0.2,0.1 0.4,0.2 0.7,0.3 0.3,0.2 0.7,0.3 1,0.5 0.2,0.1 0.5,0.2 0.7,0.3 0.3,0.1 0.7,0.3 1,0.4 0.3,0.1 0.5,0.2 0.8,0.3 0.3,0.1 0.6,0.2 1,0.3 0.3,0.1 0.6,0.2 0.9,0.2 0.3,0.1 0.6,0.2 0.9,0.3 0.3,0.1 0.6,0.1 0.9,0.2 0.3,0.1 0.6,0.1 0.9,0.2 0.3,0.1 0.7,0.1 1,0.2 0.3,0.1 0.6,0.1 0.9,0.2 0.4,0.1 0.7,0.1 1.1,0.1 0.3,0 0.5,0.1 0.8,0.1 0.4,0 0.8,0.1 1.3,0.1 0.2,0 0.4,0 0.7,0.1 0.6,0 1.3,0 2,0 h 435.3 c 0.7,0 1.3,0 2,0 0.2,0 0.4,0 0.7,-0.1 0.4,0 0.8,-0.1 1.3,-0.1 0.3,0 0.5,-0.1 0.8,-0.1 0.4,0 0.7,-0.1 1.1,-0.1 0.3,0 0.6,-0.1 0.9,-0.2 0.3,-0.1 0.7,-0.1 1,-0.2 0.3,-0.1 0.6,-0.1 0.9,-0.2 0.3,-0.1 0.6,-0.1 0.9,-0.2 0.3,-0.1 0.6,-0.2 0.9,-0.3 0.3,-0.1 0.6,-0.2 0.9,-0.2 0.3,-0.1 0.6,-0.2 1,-0.3 0.3,-0.1 0.5,-0.2 0.8,-0.3 0.3,-0.1 0.7,-0.3 1,-0.4 0.2,-0.1 0.5,-0.2 0.7,-0.3 0.3,-0.1 0.7,-0.3 1,-0.5 0.2,-0.1 0.4,-0.2 0.7,-0.3 0.3,-0.2 0.7,-0.3 1,-0.5 0.2,-0.1 0.4,-0.2 0.6,-0.3 0.4,-0.2 0.7,-0.4 1,-0.6 0.2,-0.1 0.4,-0.2 0.5,-0.3 0.4,-0.2 0.7,-0.4 1.1,-0.7 0.2,-0.1 0.3,-0.2 0.5,-0.3 0.4,-0.2 0.7,-0.5 1.1,-0.7 0.1,-0.1 0.3,-0.2 0.4,-0.3 0.4,-0.3 0.7,-0.5 1.1,-0.8 0.1,-0.1 0.2,-0.2 0.4,-0.3 0.4,-0.3 0.7,-0.6 1.1,-0.9 0.1,-0.1 0.2,-0.2 0.3,-0.3 0.4,-0.3 0.7,-0.7 1.1,-1 0.1,-0.1 0.2,-0.2 0.3,-0.2 0.4,-0.4 0.7,-0.7 1.1,-1.1 0.1,-0.1 0.1,-0.1 0.2,-0.2 0.4,-0.4 0.7,-0.8 1,-1.2 0.1,-0.1 0.1,-0.1 0.2,-0.2 0.3,-0.4 0.7,-0.8 1,-1.2 0,-0.1 0.1,-0.1 0.1,-0.2 0.3,-0.4 0.7,-0.9 1,-1.3 l 0.1,-0.1 c 0.3,-0.5 0.6,-0.9 0.9,-1.4 0,0 0,-0.1 0.1,-0.1 0.3,-0.5 0.6,-1 0.9,-1.5 0,0 0,0 0,-0.1 0.3,-0.5 0.6,-1 0.8,-1.6 v 0 c 0.3,-0.5 0.5,-1.1 0.8,-1.6 v 0 c 2,-4.5 3.2,-9.4 3.3,-14.5 H 0 c 0.2,5.1 1.3,10 3.3,14.5 z M 176.6,74.6 v 37.3 H 107 v 74.5 H 512 V 149.1 H 176.6 v 0 -37.3 H 512 v 0 -37.3 H 176.6 Z m -107,37.3 H 0 v 0 37.3 37.3 H 69.6 Z M 512,37.3 C 511.4,16.6 494.5,0 473.7,0 H 106.9 v 74.5 h 69.6 V 37.2 H 512 Z M 69.6,0.1 H 38.3 C 17.2,0.1 0,17.2 0,38.4 v 36.2 h 69.6 z"
   id="path12" />
<g
   id="g14">
</g>
<g
   id="g16">
</g>
<g
   id="g18">
</g>
<g
   id="g20">
</g>
<g
   id="g22">
</g>
<g
   id="g24">
</g>
<g
   id="g26">
</g>
<g
   id="g28">
</g>
<g
   id="g30">
</g>
<g
   id="g32">
</g>
<g
   id="g34">
</g>
<g
   id="g36">
</g>
<g
   id="g38">
</g>
<g
   id="g40">
</g>
<g
   id="g42">
</g>
</svg>
