<?xml version="1.0" encoding="UTF-8" standalone="no"?>
<svg
   xmlns:dc="http://purl.org/dc/elements/1.1/"
   xmlns:cc="http://creativecommons.org/ns#"
   xmlns:rdf="http://www.w3.org/1999/02/22-rdf-syntax-ns#"
   xmlns:svg="http://www.w3.org/2000/svg"
   xmlns="http://www.w3.org/2000/svg"
   xmlns:sodipodi="http://sodipodi.sourceforge.net/DTD/sodipodi-0.dtd"
   xmlns:inkscape="http://www.inkscape.org/namespaces/inkscape"
   version="1.1"
   id="Layer_1"
   x="0px"
   y="0px"
   viewBox="0 0 512 335.45001"
   xml:space="preserve"
   sodipodi:docname="gt.svg"
   width="512"
   height="335.45001"
   inkscape:version="1.0.1 (c497b03c, 2020-09-10)"><metadata
   id="metadata189"><rdf:RDF><cc:Work
       rdf:about=""><dc:format>image/svg+xml</dc:format><dc:type
         rdf:resource="http://purl.org/dc/dcmitype/StillImage" /><dc:title></dc:title></cc:Work></rdf:RDF></metadata><defs
   id="defs187" /><sodipodi:namedview
   pagecolor="#ffffff"
   bordercolor="#666666"
   borderopacity="1"
   objecttolerance="10"
   gridtolerance="10"
   guidetolerance="10"
   inkscape:pageopacity="0"
   inkscape:pageshadow="2"
   inkscape:window-width="1404"
   inkscape:window-height="815"
   id="namedview185"
   showgrid="false"
   inkscape:zoom="1.640625"
   inkscape:cx="256"
   inkscape:cy="256"
   inkscape:window-x="0"
   inkscape:window-y="23"
   inkscape:window-maximized="0"
   inkscape:current-layer="Layer_1" />
<path
   style="fill:#82afff"
   d="M 38.345,0 C 17.167,0 0,17.167 0,38.345 v 258.759 c 0,21.177 17.167,38.345 38.345,38.345 H 170.667 V 0 Z"
   id="path10" />
<rect
   x="170.67"
   y="0.0040004272"
   style="fill:#f5f5f5"
   width="170.67"
   height="335.45001"
   id="rect12" />
<path
   style="fill:#82afff"
   d="M 473.655,0 H 341.333 v 335.448 h 132.322 c 21.177,0 38.345,-17.167 38.345,-38.345 V 38.345 C 512,17.167 494.833,0 473.655,0 Z"
   id="path14" />
<polygon
   style="fill:#ffc855"
   points="253.368,216.561 253.773,212.107 248.711,214.638 "
   id="polygon16"
   transform="translate(0,-88.273)" />
<g
   id="g106"
   transform="translate(0,-88.273)">
	<path
   style="fill:#73af00"
   d="m 256,305.649 c -28.135,0 -51.023,-22.89 -51.023,-51.023 0,-17.478 8.797,-33.548 23.531,-42.989 l 1.31,2.046 c -14.034,8.993 -22.412,24.299 -22.412,40.943 0,26.795 21.8,48.594 48.594,48.594 v 2.43 0 z"
   id="path18" />
	<path
   style="fill:#73af00"
   d="m 226.798,308.833 c 1.944,0.396 4.943,-0.117 8.023,-1.551 3.081,-1.436 5.402,-3.402 6.349,-5.145 -1.944,-0.396 -4.943,0.116 -8.023,1.551 -3.079,1.436 -5.401,3.402 -6.349,5.145 z"
   id="path20" />
	<path
   style="fill:#73af00"
   d="m 241.172,302.137 c 0.396,-1.944 -0.117,-4.943 -1.551,-8.023 -1.436,-3.081 -3.402,-5.402 -5.145,-6.349 -0.396,1.944 0.116,4.943 1.551,8.023 1.435,3.079 3.401,5.401 5.145,6.349 z"
   id="path22" />
	<path
   style="fill:#73af00"
   d="m 216.633,302.593 c 1.865,0.678 4.907,0.61 8.164,-0.356 3.258,-0.968 5.843,-2.572 7.036,-4.157 -1.865,-0.678 -4.907,-0.61 -8.164,0.356 -3.257,0.967 -5.843,2.572 -7.036,4.157 z"
   id="path24" />
	<path
   style="fill:#73af00"
   d="m 231.834,298.079 c 0.678,-1.865 0.61,-4.907 -0.356,-8.164 -0.968,-3.257 -2.572,-5.843 -4.157,-7.036 -0.678,1.865 -0.61,4.907 0.356,8.164 0.967,3.258 2.572,5.843 4.157,7.036 z"
   id="path26" />
	<path
   style="fill:#73af00"
   d="m 207.231,294.085 c 1.713,1.001 4.717,1.482 8.096,1.116 3.379,-0.366 6.21,-1.481 7.668,-2.826 -1.713,-1.001 -4.717,-1.482 -8.096,-1.116 -3.379,0.367 -6.21,1.481 -7.668,2.826 z"
   id="path28" />
	<path
   style="fill:#73af00"
   d="m 222.995,292.374 c 1.001,-1.713 1.482,-4.717 1.116,-8.096 -0.366,-3.379 -1.481,-6.21 -2.826,-7.668 -1.001,1.713 -1.482,4.717 -1.116,8.096 0.367,3.379 1.481,6.211 2.826,7.668 z"
   id="path30" />
	<path
   style="fill:#73af00"
   d="m 199.458,282.336 c 1.508,1.289 4.38,2.294 7.77,2.531 3.39,0.237 6.375,-0.358 8.047,-1.423 -1.508,-1.289 -4.38,-2.294 -7.77,-2.531 -3.39,-0.237 -6.374,0.357 -8.047,1.423 z"
   id="path32" />
	<path
   style="fill:#73af00"
   d="m 215.276,283.444 c 1.289,-1.508 2.294,-4.381 2.531,-7.77 0.237,-3.39 -0.358,-6.375 -1.423,-8.047 -1.289,1.508 -2.294,4.38 -2.531,7.77 -0.238,3.391 0.357,6.374 1.423,8.047 z"
   id="path34" />
	<path
   style="fill:#73af00"
   d="m 194.908,269.394 c 1.204,1.577 3.799,3.164 7.064,4.109 3.264,0.946 6.306,0.991 8.167,0.301 -1.204,-1.577 -3.799,-3.164 -7.064,-4.109 -3.265,-0.945 -6.307,-0.991 -8.167,-0.301 z"
   id="path36" />
	<path
   style="fill:#73af00"
   d="m 210.138,273.804 c 1.577,-1.204 3.164,-3.799 4.109,-7.064 0.946,-3.264 0.991,-6.306 0.301,-8.167 -1.577,1.204 -3.164,3.799 -4.109,7.064 -0.945,3.265 -0.99,6.307 -0.301,8.167 z"
   id="path38" />
	<path
   style="fill:#73af00"
   d="m 192.982,254.283 c 0.758,1.834 2.858,4.034 5.77,5.788 2.912,1.753 5.839,2.58 7.815,2.391 -0.758,-1.834 -2.858,-4.034 -5.77,-5.788 -2.912,-1.753 -5.84,-2.579 -7.815,-2.391 z"
   id="path40" />
	<path
   style="fill:#73af00"
   d="m 206.567,262.462 c 1.834,-0.758 4.034,-2.858 5.788,-5.77 1.753,-2.912 2.58,-5.839 2.391,-7.815 -1.833,0.758 -4.034,2.858 -5.788,5.77 -1.752,2.912 -2.58,5.84 -2.391,7.815 z"
   id="path42" />
	<path
   style="fill:#73af00"
   d="m 194.807,240.016 c 0.356,1.952 1.949,4.544 4.428,6.869 2.479,2.325 5.17,3.746 7.139,3.977 -0.356,-1.952 -1.949,-4.544 -4.428,-6.869 -2.479,-2.325 -5.168,-3.747 -7.139,-3.977 z"
   id="path44" />
	<path
   style="fill:#73af00"
   d="m 206.375,250.862 c 1.952,-0.356 4.544,-1.949 6.869,-4.428 2.324,-2.479 3.746,-5.17 3.977,-7.139 -1.952,0.356 -4.544,1.949 -6.869,4.428 -2.324,2.478 -3.747,5.168 -3.977,7.139 z"
   id="path46" />
	<path
   style="fill:#73af00"
   d="m 201.975,224.579 c -0.408,1.941 0.085,4.943 1.501,8.033 1.416,3.09 3.368,5.423 5.105,6.382 0.408,-1.941 -0.085,-4.943 -1.501,-8.033 -1.416,-3.091 -3.368,-5.425 -5.105,-6.382 z"
   id="path48" />
	<path
   style="fill:#73af00"
   d="m 208.58,238.994 c 1.941,0.408 4.943,-0.085 8.033,-1.501 3.09,-1.416 5.423,-3.368 6.382,-5.105 -1.941,-0.408 -4.943,0.085 -8.033,1.501 -3.09,1.416 -5.424,3.368 -6.382,5.105 z"
   id="path50" />
	<path
   style="fill:#73af00"
   d="m 210.546,213.146 c -0.915,1.76 -1.247,4.785 -0.714,8.141 0.533,3.357 1.785,6.13 3.201,7.519 0.915,-1.76 1.247,-4.785 0.714,-8.141 -0.533,-3.357 -1.786,-6.129 -3.201,-7.519 z"
   id="path52" />
	<path
   style="fill:#73af00"
   d="m 213.034,228.806 c 1.76,0.915 4.785,1.247 8.141,0.714 3.357,-0.533 6.13,-1.785 7.519,-3.201 -1.76,-0.915 -4.785,-1.247 -8.141,-0.714 -3.357,0.533 -6.13,1.785 -7.519,3.201 z"
   id="path54" />
	<path
   style="fill:#73af00"
   d="m 218.951,205.189 c -1.164,1.607 -1.938,4.548 -1.906,7.947 0.033,3.399 0.864,6.326 2.059,7.908 1.164,-1.607 1.938,-4.548 1.905,-7.947 -0.032,-3.398 -0.862,-6.326 -2.058,-7.908 z"
   id="path56" />
	<path
   style="fill:#73af00"
   d="m 219.105,221.044 c 1.607,1.164 4.548,1.938 7.947,1.906 3.399,-0.033 6.325,-0.864 7.908,-2.059 -1.607,-1.164 -4.548,-1.938 -7.947,-1.906 -3.398,0.033 -6.324,0.864 -7.908,2.059 z"
   id="path58" />
	<path
   style="fill:#73af00"
   d="m 223.183,216.875 c 1.977,0.16 4.894,-0.707 7.78,-2.502 2.887,-1.794 4.956,-4.024 5.688,-5.868 -1.977,-0.16 -4.894,0.707 -7.78,2.502 -2.886,1.794 -4.955,4.024 -5.688,5.868 z"
   id="path60" />
	<path
   style="fill:#73af00"
   d="m 256,305.649 v -2.43 c 26.794,0 48.594,-21.799 48.594,-48.594 0,-16.644 -8.378,-31.951 -22.411,-40.943 l 1.31,-2.046 c 14.734,9.441 23.531,25.512 23.531,42.989 -10e-4,28.134 -22.889,51.024 -51.024,51.024 z"
   id="path62" />
	<path
   style="fill:#73af00"
   d="m 285.202,308.833 c -1.944,0.396 -4.943,-0.117 -8.023,-1.551 -3.081,-1.436 -5.402,-3.402 -6.349,-5.145 1.944,-0.396 4.943,0.116 8.023,1.551 3.08,1.435 5.401,3.402 6.349,5.145 z"
   id="path64" />
	<path
   style="fill:#73af00"
   d="m 270.828,302.137 c -0.396,-1.944 0.117,-4.943 1.551,-8.023 1.436,-3.081 3.402,-5.402 5.145,-6.349 0.396,1.944 -0.116,4.943 -1.551,8.023 -1.435,3.079 -3.401,5.401 -5.145,6.349 z"
   id="path66" />
	<path
   style="fill:#73af00"
   d="m 295.367,302.593 c -1.865,0.678 -4.907,0.61 -8.164,-0.356 -3.258,-0.968 -5.843,-2.572 -7.036,-4.157 1.865,-0.678 4.907,-0.61 8.164,0.356 3.257,0.967 5.843,2.572 7.036,4.157 z"
   id="path68" />
	<path
   style="fill:#73af00"
   d="m 280.165,298.079 c -0.677,-1.865 -0.61,-4.907 0.356,-8.164 0.968,-3.257 2.572,-5.843 4.157,-7.036 0.678,1.865 0.61,4.907 -0.356,8.164 -0.966,3.258 -2.571,5.843 -4.157,7.036 z"
   id="path70" />
	<path
   style="fill:#73af00"
   d="m 304.769,294.085 c -1.713,1.001 -4.717,1.482 -8.096,1.116 -3.379,-0.366 -6.21,-1.481 -7.668,-2.826 1.713,-1.001 4.717,-1.482 8.096,-1.116 3.379,0.367 6.21,1.481 7.668,2.826 z"
   id="path72" />
	<path
   style="fill:#73af00"
   d="m 289.005,292.374 c -1.001,-1.713 -1.482,-4.717 -1.116,-8.096 0.366,-3.379 1.481,-6.21 2.826,-7.668 1.001,1.713 1.482,4.717 1.116,8.096 -0.367,3.379 -1.481,6.211 -2.826,7.668 z"
   id="path74" />
	<path
   style="fill:#73af00"
   d="m 312.542,282.336 c -1.508,1.289 -4.381,2.294 -7.77,2.531 -3.391,0.237 -6.375,-0.358 -8.047,-1.423 1.508,-1.289 4.38,-2.294 7.77,-2.531 3.39,-0.237 6.374,0.357 8.047,1.423 z"
   id="path76" />
	<path
   style="fill:#73af00"
   d="m 296.724,283.444 c -1.289,-1.508 -2.294,-4.381 -2.531,-7.77 -0.237,-3.39 0.358,-6.375 1.423,-8.047 1.289,1.508 2.294,4.38 2.531,7.77 0.238,3.391 -0.357,6.374 -1.423,8.047 z"
   id="path78" />
	<path
   style="fill:#73af00"
   d="m 317.092,269.394 c -1.204,1.577 -3.799,3.164 -7.064,4.109 -3.264,0.946 -6.306,0.991 -8.167,0.301 1.204,-1.577 3.799,-3.164 7.064,-4.109 3.265,-0.945 6.307,-0.991 8.167,-0.301 z"
   id="path80" />
	<path
   style="fill:#73af00"
   d="m 301.862,273.804 c -1.577,-1.204 -3.164,-3.799 -4.109,-7.064 -0.946,-3.264 -0.991,-6.306 -0.301,-8.167 1.577,1.204 3.164,3.799 4.109,7.064 0.945,3.265 0.99,6.307 0.301,8.167 z"
   id="path82" />
	<path
   style="fill:#73af00"
   d="m 319.018,254.283 c -0.758,1.834 -2.858,4.034 -5.77,5.788 -2.912,1.753 -5.839,2.58 -7.815,2.391 0.758,-1.834 2.858,-4.034 5.77,-5.788 2.912,-1.753 5.84,-2.579 7.815,-2.391 z"
   id="path84" />
	<path
   style="fill:#73af00"
   d="m 305.433,262.462 c -1.834,-0.758 -4.034,-2.858 -5.788,-5.77 -1.753,-2.912 -2.58,-5.839 -2.391,-7.815 1.833,0.758 4.034,2.858 5.788,5.77 1.752,2.912 2.58,5.84 2.391,7.815 z"
   id="path86" />
	<path
   style="fill:#73af00"
   d="m 317.193,240.016 c -0.356,1.952 -1.949,4.544 -4.428,6.869 -2.479,2.325 -5.17,3.746 -7.139,3.977 0.356,-1.952 1.949,-4.544 4.428,-6.869 2.479,-2.325 5.168,-3.747 7.139,-3.977 z"
   id="path88" />
	<path
   style="fill:#73af00"
   d="m 305.625,250.862 c -1.952,-0.356 -4.544,-1.949 -6.869,-4.428 -2.325,-2.479 -3.746,-5.17 -3.977,-7.139 1.952,0.356 4.544,1.949 6.869,4.428 2.324,2.478 3.747,5.168 3.977,7.139 z"
   id="path90" />
	<path
   style="fill:#73af00"
   d="m 310.026,224.579 c 0.408,1.941 -0.085,4.943 -1.501,8.033 -1.416,3.09 -3.368,5.423 -5.105,6.382 -0.408,-1.941 0.085,-4.943 1.501,-8.033 1.415,-3.091 3.367,-5.425 5.105,-6.382 z"
   id="path92" />
	<path
   style="fill:#73af00"
   d="m 303.42,238.994 c -1.941,0.408 -4.943,-0.085 -8.033,-1.501 -3.09,-1.416 -5.423,-3.368 -6.382,-5.105 1.941,-0.408 4.943,0.085 8.033,1.501 3.09,1.416 5.424,3.368 6.382,5.105 z"
   id="path94" />
	<path
   style="fill:#73af00"
   d="m 301.454,213.146 c 0.915,1.76 1.247,4.785 0.714,8.141 -0.533,3.357 -1.785,6.13 -3.201,7.519 -0.915,-1.76 -1.247,-4.785 -0.714,-8.141 0.533,-3.356 1.786,-6.129 3.201,-7.519 z"
   id="path96" />
	<path
   style="fill:#73af00"
   d="m 298.966,228.806 c -1.76,0.915 -4.785,1.247 -8.141,0.714 -3.357,-0.533 -6.13,-1.785 -7.519,-3.201 1.76,-0.915 4.785,-1.247 8.141,-0.714 3.357,0.533 6.13,1.785 7.519,3.201 z"
   id="path98" />
	<path
   style="fill:#73af00"
   d="m 293.049,205.189 c 1.164,1.607 1.938,4.548 1.905,7.947 -0.033,3.399 -0.864,6.326 -2.059,7.908 -1.164,-1.607 -1.938,-4.548 -1.905,-7.947 0.033,-3.398 0.863,-6.326 2.059,-7.908 z"
   id="path100" />
	<path
   style="fill:#73af00"
   d="m 292.895,221.044 c -1.607,1.164 -4.548,1.938 -7.947,1.906 -3.399,-0.033 -6.325,-0.864 -7.908,-2.059 1.607,-1.164 4.548,-1.938 7.947,-1.906 3.398,0.033 6.324,0.864 7.908,2.059 z"
   id="path102" />
	<path
   style="fill:#73af00"
   d="m 288.817,216.875 c -1.977,0.16 -4.894,-0.707 -7.78,-2.502 -2.886,-1.795 -4.956,-4.024 -5.688,-5.868 1.977,-0.16 4.894,0.707 7.78,2.502 2.886,1.794 4.955,4.024 5.688,5.868 z"
   id="path104" />
</g>
<path
   style="fill:#966446"
   d="m 228.146,206.075 -8.844,8.844 -4.361,-8.723 13.084,-13.084 4.361,4.361 -1.26,3.779 c -0.606,1.819 -1.626,3.469 -2.98,4.823 z"
   id="path108" />
<path
   style="fill:#b9b9b9"
   d="m 275.997,140.78 -47.972,47.972 c -1.204,1.204 -1.204,3.157 0,4.361 l 2.18,2.18 8.723,-8.723 34.889,-39.251 4.361,-4.361 z"
   id="path110" />
<path
   style="fill:#966446"
   d="m 239.83,181.307 c -0.578,0.578 -0.904,1.363 -0.904,2.18 v 3.084 l 34.889,-39.251 z"
   id="path112" />
<polygon
   style="fill:#a0a0a0"
   points="273.816,231.233 275.997,233.415 278.177,235.595 302.164,207.248 278.177,231.233 275.997,229.053 "
   id="polygon114"
   transform="translate(0,-88.273)" />
<path
   style="fill:#966446"
   d="m 286.284,206.075 8.844,8.844 4.361,-8.723 -13.084,-13.084 -4.361,4.361 1.26,3.779 c 0.606,1.819 1.626,3.469 2.98,4.823 z"
   id="path116" />
<path
   style="fill:#b9b9b9"
   d="m 238.433,140.78 47.972,47.972 c 1.204,1.204 1.204,3.157 0,4.361 l -2.18,2.18 -8.723,-8.723 -34.889,-39.251 -4.361,-4.361 z"
   id="path118" />
<path
   style="fill:#966446"
   d="m 274.6,181.307 c 0.578,0.578 0.904,1.363 0.904,2.18 v 3.084 L 240.615,147.32 Z"
   id="path120" />
<polygon
   style="fill:#a0a0a0"
   points="240.614,231.233 238.433,233.415 236.253,235.595 212.266,207.248 236.253,231.233 238.433,229.053 "
   id="polygon122"
   transform="translate(0,-88.273)" />
<path
   style="fill:#b9b9b9"
   d="m 239.315,204.261 2.167,1.976 c 7.906,-8.668 21.741,-23.837 43.673,-43.529 0.001,0.001 -18.169,11.216 -45.84,41.553 z"
   id="path124" />
<path
   style="fill:#ffe15a"
   d="m 233.184,213.158 v 0 c -0.778,-0.71 -0.833,-1.916 -0.124,-2.694 l 4.644,-5.092 c 0.71,-0.778 1.916,-0.833 2.694,-0.124 v 0 c 0.778,0.71 0.833,1.916 0.124,2.694 l -4.644,5.092 c -0.71,0.779 -1.916,0.834 -2.694,0.124 z"
   id="path126" />
<path
   style="fill:#ffc855"
   d="m 237.556,202.657 -1.258,0.561 c -1.119,0.557 -4.063,2.222 -4.57,4.595 -0.242,1.124 0.099,2.219 0.972,3.255 0.083,-0.214 0.196,-0.422 0.361,-0.601 l 0.585,-0.641 c -0.396,-0.574 -0.605,-1.138 -0.486,-1.704 0.318,-1.484 2.298,-2.809 3.542,-3.466 l 5.564,5.075 1.384,-1.517 z"
   id="path128" />
<path
   style="fill:#b9b9b9"
   d="m 275.093,206.66 -2.167,1.976 c -7.906,-8.668 -21.741,-23.837 -43.673,-43.529 -10e-4,0.001 18.169,11.216 45.84,41.553 z"
   id="path130" />
<path
   style="fill:#ffe15a"
   d="m 281.224,215.559 v 0 c 0.778,-0.71 0.833,-1.916 0.124,-2.694 l -4.644,-5.092 c -0.71,-0.778 -1.916,-0.833 -2.694,-0.124 v 0 c -0.778,0.71 -0.833,1.916 -0.124,2.694 l 4.644,5.092 c 0.71,0.778 1.916,0.833 2.694,0.124 z"
   id="path132" />
<path
   style="fill:#ffc855"
   d="m 276.852,205.056 1.258,0.561 c 1.119,0.557 4.063,2.222 4.57,4.595 0.242,1.124 -0.099,2.219 -0.972,3.255 -0.083,-0.214 -0.196,-0.421 -0.361,-0.601 l -0.585,-0.641 c 0.396,-0.574 0.605,-1.138 0.486,-1.704 -0.318,-1.484 -2.298,-2.809 -3.542,-3.466 l -5.564,5.075 -1.384,-1.517 z"
   id="path134" />
<path
   style="fill:#69b469"
   d="m 258.161,126.41 c 0.17,-0.422 0.268,-0.879 0.268,-1.362 0,-2.013 -1.632,-3.645 -3.645,-3.645 -2.013,0 -3.645,1.632 -3.645,3.645 0,1.199 0.587,2.254 1.482,2.919 -1.318,10.585 9.119,11.394 13.096,12.874 6.035,2.246 13.603,6.787 13.127,19.484 -0.462,12.342 -8.267,24.251 -8.267,24.251 l 6.479,-8.808 c -2.369,10.02 -7.901,22.784 -21.057,37.963 0,0 8.995,-8.799 16.501,-20.146 -5.523,12.993 -11.642,25.005 -11.642,25.005 0,0 10.833,-14.072 19.59,-38.419 10.617,-29.517 -11.716,-47.251 -22.287,-53.761 z"
   id="path136" />
<rect
   x="239"
   y="169.994"
   style="fill:#f4e08f"
   width="9.7189999"
   height="4.8600001"
   id="rect138" />
<g
   id="g144"
   transform="translate(0,-88.273)">
	<circle
   style="fill:#ecd077"
   cx="239"
   cy="263.12701"
   r="4.8600001"
   id="circle140" />
	<circle
   style="fill:#ecd077"
   cx="239"
   cy="231.547"
   r="4.8600001"
   id="circle142" />
</g>
<path
   style="fill:#fcf0a8"
   d="m 268.148,148.13 c 2.684,0 4.86,-2.176 4.86,-4.86 0,-2.684 -2.176,-4.86 -4.86,-4.86 h -29.156 c 2.684,0 4.86,2.176 4.86,4.86 0,2.684 -2.176,4.86 -4.86,4.86 -2.684,0 -4.86,-2.176 -4.86,-4.86 0,8.157 6.826,18.019 9.027,26.727 0,0 0.692,2.176 0.692,4.86 0,2.684 -2.176,4.86 -4.86,4.86 h 29.156 c 2.684,0 4.86,-2.176 4.86,-4.86 0,-8.157 -6.826,-18.019 -9.027,-26.727 z"
   id="path146" />
<g
   id="g152"
   transform="translate(0,-88.273)">
	<path
   style="fill:#f4e08f"
   d="m 243.852,231.545 c 0,2.684 -2.176,4.86 -4.86,4.86 h 29.156 c 2.684,0 4.86,-2.176 4.86,-4.86 z"
   id="path148" />
	<path
   style="fill:#f4e08f"
   d="m 243.852,263.13 c 0,2.684 -2.176,4.86 -4.86,4.86 h 29.156 c 2.684,0 4.86,-2.176 4.86,-4.86 z"
   id="path150" />
</g>
<g
   id="g154">
</g>
<g
   id="g156">
</g>
<g
   id="g158">
</g>
<g
   id="g160">
</g>
<g
   id="g162">
</g>
<g
   id="g164">
</g>
<g
   id="g166">
</g>
<g
   id="g168">
</g>
<g
   id="g170">
</g>
<g
   id="g172">
</g>
<g
   id="g174">
</g>
<g
   id="g176">
</g>
<g
   id="g178">
</g>
<g
   id="g180">
</g>
<g
   id="g182">
</g>
</svg>
