<?xml version="1.0" encoding="UTF-8" standalone="no"?>
<svg
   xmlns:dc="http://purl.org/dc/elements/1.1/"
   xmlns:cc="http://creativecommons.org/ns#"
   xmlns:rdf="http://www.w3.org/1999/02/22-rdf-syntax-ns#"
   xmlns:svg="http://www.w3.org/2000/svg"
   xmlns="http://www.w3.org/2000/svg"
   xmlns:sodipodi="http://sodipodi.sourceforge.net/DTD/sodipodi-0.dtd"
   xmlns:inkscape="http://www.inkscape.org/namespaces/inkscape"
   version="1.1"
   id="Layer_1"
   x="0px"
   y="0px"
   viewBox="0 0 512 335.45001"
   xml:space="preserve"
   sodipodi:docname="gu.svg"
   width="512"
   height="335.45001"
   inkscape:version="1.0.1 (c497b03c, 2020-09-10)"><metadata
   id="metadata71"><rdf:RDF><cc:Work
       rdf:about=""><dc:format>image/svg+xml</dc:format><dc:type
         rdf:resource="http://purl.org/dc/dcmitype/StillImage" /><dc:title></dc:title></cc:Work></rdf:RDF></metadata><defs
   id="defs69" /><sodipodi:namedview
   pagecolor="#ffffff"
   bordercolor="#666666"
   borderopacity="1"
   objecttolerance="10"
   gridtolerance="10"
   guidetolerance="10"
   inkscape:pageopacity="0"
   inkscape:pageshadow="2"
   inkscape:window-width="1474"
   inkscape:window-height="857"
   id="namedview67"
   showgrid="false"
   inkscape:zoom="1.640625"
   inkscape:cx="256"
   inkscape:cy="256"
   inkscape:window-x="0"
   inkscape:window-y="23"
   inkscape:window-maximized="0"
   inkscape:current-layer="Layer_1" />
<path
   style="fill:#41479b"
   d="M 473.655,335.448 H 38.345 C 17.167,335.448 0,318.281 0,297.103 V 38.345 C 0,17.168 17.167,0 38.345,0 h 435.31 C 494.832,0 512,17.167 512,38.345 v 258.759 c 0,21.177 -17.167,38.344 -38.345,38.344 z"
   id="path10" />
<path
   style="fill:#3cc8ff"
   d="m 256.057,79.448 c -33.549,17.651 -56.175,59.69 -56.175,88.276 0,28.586 22.626,70.626 56.175,88.276 33.549,-17.651 56.175,-59.69 56.175,-88.276 0,-28.586 -22.625,-70.626 -56.175,-88.276 z"
   id="path12" />
<path
   style="fill:#73af00"
   d="m 263.302,137.497 c 5.42,-2.857 14.674,-6.001 25.19,-2.142 0,0 -10.127,-11.281 -24.181,-2.09 3.781,-4.585 9.459,-10.261 15.608,-11.842 0,0 -12.237,-4.57 -19.641,11.75 1.434,-8.231 1.173,-21.191 -12.094,-28.714 0,0 7.419,15.919 8.147,29.129 -0.431,-2.344 -1.294,-4.794 -3.572,-7.17 -7.015,-7.319 -13.114,-7.929 -13.114,-7.929 0,0 9.726,10.778 14.505,20.975 -2.753,-3.294 -7.605,-7.512 -15.42,-7.252 -18.3,0.61 -22.264,11.59 -22.264,11.59 7.586,-3.194 19.625,-4.785 28.958,-3.996 -12.049,2.123 -16.33,17.134 -16.33,17.134 9.675,-12.064 20.235,-14.024 24.451,-14.311 -7.702,6.371 -7.233,18.104 -7.233,18.104 1.79,-6.605 8.724,-14.133 12.103,-17.507 9.098,9.843 10.175,20.907 10.175,20.907 0,0 1.991,-3.329 1.073,-10.104 -0.868,-6.396 -4.882,-10.595 -7.945,-13.062 16.064,2.214 26.546,13.866 26.546,13.866 -5.256,-15.335 -18.409,-17.331 -24.962,-17.336 z"
   id="path14" />
<path
   style="fill:#ff4b55"
   d="M 473.655,0 H 38.345 C 17.863,0 1.135,16.06 0.058,36.273 v 262.903 c 1.077,20.214 17.805,36.273 38.287,36.273 h 435.31 c 21.177,0 38.345,-17.167 38.345,-38.345 V 38.345 C 512,17.167 494.833,0 473.655,0 Z m 20.748,317.793 H 17.714 V 17.655 h 476.69 z"
   id="path16" />
<polygon
   style="fill:#ff965a"
   points="312.702,261.884 308.288,280.275 238.126,277.332 246.219,263.356 "
   id="polygon18"
   transform="translate(0,-88.275)" />
<path
   style="fill:#4173cd"
   d="m 202.307,185.379 c 6.664,26.153 26.631,56.353 53.75,70.621 27.119,-14.268 47.086,-44.468 53.75,-70.621 z"
   id="path20" />
<g
   id="g26"
   transform="translate(0,-88.275)">
	<path
   style="fill:#ffe15a"
   d="m 211.919,300.137 c 0,0 19.255,-0.953 30.823,3.797 2.89,1.186 3.264,5.09 0.654,6.807 -5.635,3.708 -13.822,10.09 -13.822,15.88 z"
   id="path22" />
	<path
   style="fill:#ffe15a"
   d="m 245.759,335.447 c -0.736,-7.357 5.773,-12.707 14.712,-16.184 11.586,-4.505 5.241,-11.678 -0.552,-16.367 -6.909,-5.592 2.023,-7.172 39.54,-7.908 l -18.391,28.69 -25.011,20.598 z"
   id="path24" />
</g>
<path
   style="fill:#ff4b55"
   d="m 256.057,260.992 -2.056,-1.086 c -35.014,-18.414 -58.535,-62.535 -58.535,-92.181 0,-29.646 23.521,-73.768 58.535,-92.181 l 2.056,-1.086 2.056,1.086 c 35.012,18.414 58.535,62.535 58.535,92.181 0,29.646 -23.521,73.768 -58.535,92.181 z m 0,-176.518 c -31.057,17.535 -51.763,56.759 -51.763,83.25 0,26.491 20.707,65.716 51.763,83.25 31.057,-17.535 51.763,-56.759 51.763,-83.25 0,-26.491 -20.706,-65.716 -51.763,-83.25 z"
   id="path28" />
<g
   id="g34"
   transform="translate(0,-88.275)">
	<path
   style="fill:#a54b37"
   d="m 274.816,306.388 c -0.405,0 -0.81,-0.108 -1.173,-0.337 -11.996,-7.539 -18.874,-20.018 -18.874,-34.237 v -40.642 c 0,-1.219 0.988,-2.207 2.207,-2.207 1.219,0 2.207,0.988 2.207,2.207 v 40.642 c 0,12.668 6.125,23.785 16.806,30.496 1.035,0.651 1.345,2.013 0.698,3.043 -0.422,0.669 -1.138,1.035 -1.871,1.035 z"
   id="path30" />
	<circle
   style="fill:#a54b37"
   cx="256.98001"
   cy="231.30901"
   r="4.8280001"
   id="circle32" />
</g>
<g
   id="g36">
</g>
<g
   id="g38">
</g>
<g
   id="g40">
</g>
<g
   id="g42">
</g>
<g
   id="g44">
</g>
<g
   id="g46">
</g>
<g
   id="g48">
</g>
<g
   id="g50">
</g>
<g
   id="g52">
</g>
<g
   id="g54">
</g>
<g
   id="g56">
</g>
<g
   id="g58">
</g>
<g
   id="g60">
</g>
<g
   id="g62">
</g>
<g
   id="g64">
</g>
</svg>
