<?xml version="1.0" encoding="UTF-8" standalone="no"?>
<svg
   xmlns:dc="http://purl.org/dc/elements/1.1/"
   xmlns:cc="http://creativecommons.org/ns#"
   xmlns:rdf="http://www.w3.org/1999/02/22-rdf-syntax-ns#"
   xmlns:svg="http://www.w3.org/2000/svg"
   xmlns="http://www.w3.org/2000/svg"
   xmlns:sodipodi="http://sodipodi.sourceforge.net/DTD/sodipodi-0.dtd"
   xmlns:inkscape="http://www.inkscape.org/namespaces/inkscape"
   version="1.1"
   id="Layer_1"
   x="0px"
   y="0px"
   viewBox="0 0 512 335.45001"
   xml:space="preserve"
   sodipodi:docname="gw.svg"
   width="512"
   height="335.45001"
   inkscape:version="1.0.1 (c497b03c, 2020-09-10)"><metadata
   id="metadata53"><rdf:RDF><cc:Work
       rdf:about=""><dc:format>image/svg+xml</dc:format><dc:type
         rdf:resource="http://purl.org/dc/dcmitype/StillImage" /><dc:title></dc:title></cc:Work></rdf:RDF></metadata><defs
   id="defs51" /><sodipodi:namedview
   pagecolor="#ffffff"
   bordercolor="#666666"
   borderopacity="1"
   objecttolerance="10"
   gridtolerance="10"
   guidetolerance="10"
   inkscape:pageopacity="0"
   inkscape:pageshadow="2"
   inkscape:window-width="1540"
   inkscape:window-height="883"
   id="namedview49"
   showgrid="false"
   inkscape:zoom="1.640625"
   inkscape:cx="256"
   inkscape:cy="256"
   inkscape:window-x="0"
   inkscape:window-y="23"
   inkscape:window-maximized="0"
   inkscape:current-layer="Layer_1" />
<path
   style="fill:#ffe15a"
   d="M 473.885,0 H 38.115 C 17.045,0.124 0,17.238 0,38.338 V 167.723 H 512 V 38.338 C 512,17.238 494.955,0.124 473.885,0 Z"
   id="path10" />
<path
   style="fill:#73af00"
   d="m 0,297.097 c 0,21.177 17.167,38.345 38.345,38.345 h 435.31 c 21.177,0 38.345,-17.167 38.345,-38.345 V 167.724 H 0 Z"
   id="path12" />
<path
   style="fill:#ff4b55"
   d="M 38.345,335.442 H 167.724 V 0 H 38.115 C 17.045,0.124 0,17.238 0,38.338 v 258.759 c 0,21.177 17.167,38.345 38.345,38.345 z"
   id="path14" />
<path
   style="fill:#464655"
   d="m 82.197,123.683 -9.731,29.18 -30.759,0.238 c -1.686,0.013 -2.386,2.165 -1.028,3.167 l 24.744,18.272 -9.278,29.326 c -0.509,1.608 1.322,2.937 2.694,1.958 l 25.024,-17.887 25.024,17.887 c 1.372,0.981 3.202,-0.35 2.694,-1.958 l -9.278,-29.326 24.744,-18.272 c 1.356,-1.002 0.658,-3.154 -1.028,-3.167 l -30.759,-0.238 -9.731,-29.18 c -0.536,-1.6 -2.798,-1.6 -3.332,0 z"
   id="path16" />
<g
   id="g18">
</g>
<g
   id="g20">
</g>
<g
   id="g22">
</g>
<g
   id="g24">
</g>
<g
   id="g26">
</g>
<g
   id="g28">
</g>
<g
   id="g30">
</g>
<g
   id="g32">
</g>
<g
   id="g34">
</g>
<g
   id="g36">
</g>
<g
   id="g38">
</g>
<g
   id="g40">
</g>
<g
   id="g42">
</g>
<g
   id="g44">
</g>
<g
   id="g46">
</g>
</svg>
