<?xml version="1.0" encoding="UTF-8" standalone="no"?>
<svg
   xmlns:dc="http://purl.org/dc/elements/1.1/"
   xmlns:cc="http://creativecommons.org/ns#"
   xmlns:rdf="http://www.w3.org/1999/02/22-rdf-syntax-ns#"
   xmlns:svg="http://www.w3.org/2000/svg"
   xmlns="http://www.w3.org/2000/svg"
   xmlns:sodipodi="http://sodipodi.sourceforge.net/DTD/sodipodi-0.dtd"
   xmlns:inkscape="http://www.inkscape.org/namespaces/inkscape"
   version="1.1"
   id="Layer_1"
   x="0px"
   y="0px"
   viewBox="0 0 512 335.45001"
   xml:space="preserve"
   sodipodi:docname="hk.svg"
   width="512"
   height="335.45001"
   inkscape:version="1.0.1 (c497b03c, 2020-09-10)"><metadata
   id="metadata59"><rdf:RDF><cc:Work
       rdf:about=""><dc:format>image/svg+xml</dc:format><dc:type
         rdf:resource="http://purl.org/dc/dcmitype/StillImage" /><dc:title></dc:title></cc:Work></rdf:RDF></metadata><defs
   id="defs57" /><sodipodi:namedview
   pagecolor="#ffffff"
   bordercolor="#666666"
   borderopacity="1"
   objecttolerance="10"
   gridtolerance="10"
   guidetolerance="10"
   inkscape:pageopacity="0"
   inkscape:pageshadow="2"
   inkscape:window-width="1398"
   inkscape:window-height="817"
   id="namedview55"
   showgrid="false"
   inkscape:zoom="1.640625"
   inkscape:cx="256"
   inkscape:cy="256"
   inkscape:window-x="0"
   inkscape:window-y="23"
   inkscape:window-maximized="0"
   inkscape:current-layer="Layer_1" />
<path
   style="fill:#ff4b55"
   d="M 473.655,335.448 H 38.345 C 17.167,335.448 0,318.281 0,297.103 V 38.345 C 0,17.168 17.167,0 38.345,0 h 435.31 C 494.832,0 512,17.167 512,38.345 v 258.759 c 0,21.177 -17.167,38.344 -38.345,38.344 z"
   id="path10" />
<g
   id="g22"
   transform="translate(0,-88.276)">
	<path
   style="fill:#f5f5f5"
   d="m 224.477,268.922 c -11.128,0.115 -23.624,-3.449 -34.573,-15.518 -0.755,-0.832 -0.65,-2.143 0.209,-2.87 l 0.004,-0.003 c 0.832,-0.705 2.062,-0.596 2.797,0.211 16.69,18.327 37.376,15.119 49.735,10.69 -4.566,0.203 -10.303,-0.14 -13.993,-2.565 -15.415,-10.133 -8.433,-20.913 -18.671,-33.944 -10.173,-12.948 -19.327,-12.631 -33.741,-10.446 -14.27,2.162 -18.816,-8.305 -20.231,-14.114 -0.253,-1.041 -1.705,-1.106 -2.077,-0.103 -17.786,48.054 35.694,107.514 90.601,64.761 -5.419,1.995 -12.397,3.823 -20.06,3.901 z M 184.41,252.615 c -0.312,0.858 -1.537,0.824 -1.802,-0.05 l -2.048,-6.749 -7.049,-0.247 c -0.913,-0.032 -1.259,-1.207 -0.51,-1.729 l 5.786,-4.033 -1.943,-6.781 c -0.252,-0.877 0.759,-1.57 1.487,-1.02 l 5.624,4.256 5.848,-3.944 c 0.757,-0.511 1.728,0.236 1.429,1.099 l -2.31,6.664 5.558,4.343 c 0.719,0.563 0.309,1.717 -0.604,1.699 l -7.052,-0.138 z"
   id="path12" />
	<path
   style="fill:#f5f5f5"
   d="m 263.869,236.995 c 8.836,-6.765 20.972,-11.407 36.972,-8.317 1.103,0.213 1.804,1.325 1.555,2.421 l -0.001,0.004 c -0.243,1.064 -1.293,1.714 -2.365,1.508 -24.346,-4.657 -38.976,10.317 -46.209,21.272 3.532,-2.901 8.329,-6.067 12.736,-6.338 18.412,-1.137 19.289,11.678 35.298,15.965 15.905,4.259 23.04,-1.483 33.266,-11.876 10.122,-10.289 20.038,-4.639 24.653,-0.839 0.826,0.681 2.027,-0.137 1.723,-1.163 -14.586,-49.12 -93.042,-64.627 -111.339,2.513 3.137,-4.843 7.626,-10.491 13.711,-15.15 z m 41.842,-10.979 c -0.265,-0.874 0.736,-1.582 1.472,-1.042 l 5.687,4.172 5.789,-4.03 c 0.749,-0.522 1.731,0.211 1.446,1.078 l -2.211,6.698 5.621,4.26 c 0.728,0.552 0.334,1.711 -0.578,1.708 l -7.053,-0.033 -2.315,6.663 c -0.3,0.863 -1.525,0.847 -1.803,-0.022 l -2.148,-6.718 -7.052,-0.142 c -0.913,-0.019 -1.277,-1.188 -0.535,-1.721 l 5.726,-4.119 z"
   id="path14" />
	<path
   style="fill:#f5f5f5"
   d="m 234.399,241.626 c -4.34,-10.248 -5.8,-23.159 1.195,-37.877 0.482,-1.015 1.735,-1.416 2.733,-0.899 l 0.004,0.002 c 0.969,0.501 1.335,1.681 0.87,2.667 -10.599,22.408 0.241,40.318 9.038,50.061 -1.926,-4.146 -3.79,-9.581 -2.952,-13.917 3.505,-18.111 16.131,-15.756 24.286,-30.184 8.103,-14.335 4.327,-22.679 -3.178,-35.179 -7.43,-12.374 0.521,-20.561 5.355,-24.079 0.865,-0.63 0.374,-1.997 -0.695,-1.959 -51.207,1.837 -85.845,73.92 -25.416,108.428 -3.905,-4.249 -8.251,-10.007 -11.24,-17.064 z m -0.165,-43.258 c -0.913,0.038 -1.347,-1.108 -0.64,-1.685 l 5.462,-4.462 -2.454,-6.613 c -0.318,-0.856 0.637,-1.624 1.405,-1.13 l 5.932,3.816 5.53,-4.377 c 0.716,-0.567 1.741,0.104 1.508,0.988 l -1.796,6.82 5.871,3.907 c 0.76,0.506 0.439,1.688 -0.472,1.74 l -7.042,0.399 -1.901,6.792 c -0.246,0.879 -1.47,0.939 -1.801,0.088 l -2.556,-6.573 z"
   id="path16" />
	<path
   style="fill:#f5f5f5"
   d="m 274.297,264.879 c 9.198,6.264 17.417,16.328 19.508,32.489 0.145,1.115 -0.692,2.13 -1.811,2.237 h -0.006 c -1.086,0.104 -2.033,-0.69 -2.175,-1.771 -3.225,-24.577 -22.037,-33.763 -34.71,-37.19 3.863,2.443 8.375,6.002 10.018,10.101 6.862,17.123 -5.027,21.982 -4.07,38.527 0.951,16.438 8.644,21.408 21.724,27.852 12.947,6.379 10.698,17.566 8.54,23.143 -0.386,0.999 0.767,1.881 1.645,1.27 42.054,-29.276 32.134,-108.631 -37.355,-104.915 5.587,1.457 12.359,3.943 18.692,8.257 z m 23.567,36.276 c 0.747,-0.526 1.732,0.202 1.451,1.07 l -2.175,6.709 5.644,4.231 c 0.73,0.547 0.344,1.71 -0.569,1.711 l -7.053,0.004 -2.279,6.675 c -0.295,0.864 -1.521,0.855 -1.803,-0.013 l -2.184,-6.707 -7.052,-0.105 c -0.914,-0.013 -1.283,-1.182 -0.545,-1.718 l 5.704,-4.15 -2.08,-6.74 c -0.269,-0.873 0.727,-1.586 1.466,-1.049 l 5.709,4.142 z"
   id="path18" />
	<path
   style="fill:#f5f5f5"
   d="m 251.292,284.822 c -3.169,10.668 -10.254,21.56 -25.013,28.469 -1.017,0.477 -2.239,-0.011 -2.681,-1.044 l -0.002,-0.004 c -0.429,-1.003 0.039,-2.146 1.025,-2.611 22.43,-10.551 25.457,-31.265 24.864,-44.38 -1.151,4.424 -3.169,9.804 -6.573,12.617 -14.223,11.747 -22.47,1.899 -37.939,7.846 -15.37,5.908 -17.763,14.749 -19.922,29.169 -2.136,14.274 -13.479,15.535 -19.446,15.176 -1.068,-0.064 -1.559,1.303 -0.71,1.954 40.684,31.15 113.258,-2.444 88.574,-67.507 0.314,5.762 0.005,12.968 -2.177,20.315 z m -27.386,33.486 c 0.728,0.552 0.335,1.713 -0.578,1.708 l -7.052,-0.031 -2.312,6.664 c -0.299,0.863 -1.525,0.847 -1.803,-0.022 l -2.151,-6.718 -7.052,-0.14 c -0.913,-0.018 -1.278,-1.187 -0.536,-1.721 l 5.724,-4.121 -2.046,-6.75 c -0.265,-0.874 0.735,-1.582 1.471,-1.042 l 5.688,4.17 5.788,-4.032 c 0.749,-0.522 1.731,0.211 1.446,1.078 l -2.208,6.698 z"
   id="path20" />
</g>
<g
   id="g24">
</g>
<g
   id="g26">
</g>
<g
   id="g28">
</g>
<g
   id="g30">
</g>
<g
   id="g32">
</g>
<g
   id="g34">
</g>
<g
   id="g36">
</g>
<g
   id="g38">
</g>
<g
   id="g40">
</g>
<g
   id="g42">
</g>
<g
   id="g44">
</g>
<g
   id="g46">
</g>
<g
   id="g48">
</g>
<g
   id="g50">
</g>
<g
   id="g52">
</g>
</svg>
