<?xml version="1.0" encoding="UTF-8" standalone="no"?>
<svg
   xmlns:dc="http://purl.org/dc/elements/1.1/"
   xmlns:cc="http://creativecommons.org/ns#"
   xmlns:rdf="http://www.w3.org/1999/02/22-rdf-syntax-ns#"
   xmlns:svg="http://www.w3.org/2000/svg"
   xmlns="http://www.w3.org/2000/svg"
   xmlns:sodipodi="http://sodipodi.sourceforge.net/DTD/sodipodi-0.dtd"
   xmlns:inkscape="http://www.inkscape.org/namespaces/inkscape"
   version="1.1"
   id="Layer_1"
   x="0px"
   y="0px"
   viewBox="0 0 512 335.45001"
   xml:space="preserve"
   sodipodi:docname="hr.svg"
   width="512"
   height="335.45001"
   inkscape:version="1.0.1 (c497b03c, 2020-09-10)"><metadata
   id="metadata155"><rdf:RDF><cc:Work
       rdf:about=""><dc:format>image/svg+xml</dc:format><dc:type
         rdf:resource="http://purl.org/dc/dcmitype/StillImage" /><dc:title></dc:title></cc:Work></rdf:RDF></metadata><defs
   id="defs153" /><sodipodi:namedview
   pagecolor="#ffffff"
   bordercolor="#666666"
   borderopacity="1"
   objecttolerance="10"
   gridtolerance="10"
   guidetolerance="10"
   inkscape:pageopacity="0"
   inkscape:pageshadow="2"
   inkscape:window-width="1577"
   inkscape:window-height="822"
   id="namedview151"
   showgrid="false"
   inkscape:zoom="1.640625"
   inkscape:cx="256"
   inkscape:cy="256"
   inkscape:window-x="0"
   inkscape:window-y="23"
   inkscape:window-maximized="0"
   inkscape:current-layer="Layer_1" />
<path
   style="fill:#41479b"
   d="m 0,297.105 c 0,21.176 17.167,38.345 38.345,38.345 h 435.311 c 21.165,0 38.324,-17.148 38.344,-38.307 V 223.634 H 0 Z"
   id="path10" />
<path
   style="fill:#ff4b55"
   d="M 473.656,0 H 38.345 C 17.167,0 0,17.168 0,38.345 v 73.471 H 512 V 38.307 C 511.98,17.149 494.821,0 473.656,0 Z"
   id="path12" />
<rect
   y="111.814"
   style="fill:#f5f5f5"
   width="512"
   height="111.81"
   id="rect14"
   x="0" />
<g
   id="g26"
   transform="translate(0,-88.275)">
	<rect
   x="194.21001"
   y="203.02901"
   style="fill:#ff4b55"
   width="24.716999"
   height="28.25"
   id="rect16" />
	<rect
   x="243.64"
   y="203.02901"
   style="fill:#ff4b55"
   width="24.716999"
   height="28.25"
   id="rect18" />
	<rect
   x="218.92999"
   y="231.27901"
   style="fill:#ff4b55"
   width="24.716999"
   height="28.25"
   id="rect20" />
	<rect
   x="293.07999"
   y="203.02901"
   style="fill:#ff4b55"
   width="24.716999"
   height="28.25"
   id="rect22" />
	<rect
   x="268.35999"
   y="231.27901"
   style="fill:#ff4b55"
   width="24.716999"
   height="28.25"
   id="rect24" />
</g>
<g
   id="g38"
   transform="translate(0,-88.275)">
	<rect
   x="218.92999"
   y="203.02901"
   style="fill:#f5f5f5"
   width="24.716999"
   height="28.25"
   id="rect28" />
	<rect
   x="268.35999"
   y="203.02901"
   style="fill:#f5f5f5"
   width="24.716999"
   height="28.25"
   id="rect30" />
	<rect
   x="194.21001"
   y="231.27901"
   style="fill:#f5f5f5"
   width="24.716999"
   height="28.25"
   id="rect32" />
	<rect
   x="243.64"
   y="231.27901"
   style="fill:#f5f5f5"
   width="24.716999"
   height="28.25"
   id="rect34" />
	<rect
   x="293.07999"
   y="231.27901"
   style="fill:#f5f5f5"
   width="24.716999"
   height="28.25"
   id="rect36" />
</g>
<g
   id="g46"
   transform="translate(0,-88.275)">
	<rect
   x="243.64"
   y="259.52899"
   style="fill:#ff4b55"
   width="24.716999"
   height="28.25"
   id="rect40" />
	<rect
   x="218.92999"
   y="287.77899"
   style="fill:#ff4b55"
   width="24.716999"
   height="28.25"
   id="rect42" />
	<rect
   x="268.35999"
   y="287.77899"
   style="fill:#ff4b55"
   width="24.716999"
   height="28.25"
   id="rect44" />
</g>
<g
   id="g54"
   transform="translate(0,-88.275)">
	<rect
   x="218.92999"
   y="259.52899"
   style="fill:#f5f5f5"
   width="24.716999"
   height="28.25"
   id="rect48" />
	<rect
   x="268.35999"
   y="259.52899"
   style="fill:#f5f5f5"
   width="24.716999"
   height="28.25"
   id="rect50" />
	<rect
   x="243.64"
   y="287.77899"
   style="fill:#f5f5f5"
   width="24.716999"
   height="28.25"
   id="rect52" />
</g>
<g
   id="g60"
   transform="translate(0,-88.275)">
	<path
   style="fill:#ff4b55"
   d="m 317.793,203.035 v 79.448 c 0,34.128 -27.666,61.793 -61.793,61.793 -34.127,0 -61.793,-27.666 -61.793,-61.793 v -79.448 h 123.586 m 4.413,-4.415 h -4.414 -123.586 -4.414 v 4.414 79.448 c 0,36.507 29.7,66.207 66.207,66.207 36.507,0 66.207,-29.701 66.207,-66.207 v -79.448 z"
   id="path56" />
	<path
   style="fill:#ff4b55"
   d="M 218.924,287.779 V 259.53 h -24.717 v 22.953 c 0,1.789 0.118,3.546 0.267,5.297 z"
   id="path58" />
</g>
<g
   id="g66"
   transform="translate(0,-88.275)">
	<path
   style="fill:#f5f5f5"
   d="m 317.526,287.779 h -24.45 v 28.248 h 14.774 c 5.361,-8.269 8.794,-17.887 9.676,-28.248 z"
   id="path62" />
	<path
   style="fill:#f5f5f5"
   d="m 204.149,316.028 h 14.774 V 287.78 h -24.45 c 0.882,10.36 4.315,19.978 9.676,28.248 z"
   id="path64" />
</g>
<g
   id="g74"
   transform="translate(0,-88.275)">
	<path
   style="fill:#ff4b55"
   d="m 293.075,287.779 h 24.45 c 0.149,-1.749 0.267,-3.508 0.267,-5.297 V 259.53 h -24.717 z"
   id="path68" />
	<path
   style="fill:#ff4b55"
   d="M 218.924,331.833 V 316.028 H 204.15 c 3.957,6.105 8.972,11.439 14.774,15.805 z"
   id="path70" />
	<path
   style="fill:#ff4b55"
   d="m 307.849,316.028 h -14.774 v 15.806 c 5.801,-4.367 10.815,-9.701 14.774,-15.806 z"
   id="path72" />
</g>
<g
   id="g80"
   transform="translate(0,-88.275)">
	<path
   style="fill:#f5f5f5"
   d="m 218.924,331.833 c 7.195,5.415 15.567,9.345 24.717,11.202 v -27.007 h -24.717 z"
   id="path76" />
	<path
   style="fill:#f5f5f5"
   d="m 268.358,343.034 c 9.15,-1.857 17.523,-5.788 24.717,-11.202 v -15.805 h -24.717 z"
   id="path78" />
</g>
<path
   style="fill:#ff4b55"
   d="m 268.358,227.753 h -24.717 v 27.008 c 3.993,0.811 8.126,1.241 12.359,1.241 4.233,0 8.365,-0.43 12.359,-1.241 v -27.008 z"
   id="path82" />
<g
   id="g90"
   transform="translate(0,-88.275)">
	<path
   style="fill:#4173cd"
   d="m 211.27,156.29 c -5.378,-0.832 -10.88,-1.432 -16.489,-1.779 -4.338,3.571 -8.473,7.294 -12.398,11.15 3.942,9.515 7.883,19.03 11.823,28.545 7.913,-3.277 16.021,-5.9 24.247,-7.867 -2.394,-10.015 -4.789,-20.032 -7.183,-30.049 z"
   id="path84" />
	<path
   style="fill:#4173cd"
   d="m 271.002,151.604 c -4.833,-2.445 -9.837,-4.706 -15.003,-6.765 -5.165,2.06 -10.17,4.321 -15.003,6.765 0.803,10.267 1.607,20.534 2.41,30.803 8.382,-0.657 16.804,-0.657 25.186,0 0.803,-10.268 1.607,-20.535 2.41,-30.803 z"
   id="path86" />
	<path
   style="fill:#4173cd"
   d="m 329.616,165.661 c -3.925,-3.855 -8.061,-7.578 -12.398,-11.15 -5.609,0.346 -11.111,0.947 -16.489,1.779 -2.395,10.017 -4.789,20.033 -7.184,30.049 8.226,1.967 16.334,4.589 24.247,7.867 3.942,-9.516 7.884,-19.031 11.824,-28.545 z"
   id="path88" />
</g>
<g
   id="g96"
   transform="translate(0,-88.275)">
	<path
   style="fill:#41479b"
   d="m 240.996,151.604 c -5.154,-1.663 -10.456,-3.118 -15.894,-4.346 -4.798,2.841 -9.411,5.858 -13.832,9.033 2.394,10.017 4.789,20.033 7.183,30.049 8.226,-1.967 16.569,-3.277 24.952,-3.933 -0.803,-10.268 -1.606,-20.535 -2.409,-30.803 z"
   id="path92" />
	<path
   style="fill:#41479b"
   d="m 300.729,156.29 c -4.422,-3.175 -9.035,-6.193 -13.832,-9.033 -5.438,1.228 -10.741,2.685 -15.894,4.346 -0.803,10.267 -1.607,20.534 -2.41,30.803 8.383,0.655 16.726,1.966 24.952,3.933 2.395,-10.015 4.789,-20.032 7.184,-30.049 z"
   id="path94" />
</g>
<g
   id="g102"
   transform="translate(0,-88.275)">
	<path
   style="fill:#ff4b55"
   d="m 241.96,163.925 c -9.345,0.73 -18.646,2.191 -27.817,4.385 -0.479,-2.003 -0.958,-4.007 -1.437,-6.011 9.485,-2.266 19.105,-3.778 28.771,-4.535 0.162,2.054 0.322,4.107 0.483,6.161 z"
   id="path98" />
	<path
   style="fill:#ff4b55"
   d="m 242.925,176.245 c -8.703,0.681 -17.366,2.042 -25.907,4.084 -0.48,-2.003 -0.958,-4.007 -1.437,-6.009 8.855,-2.118 17.838,-3.529 26.862,-4.234 0.159,2.051 0.321,4.107 0.482,6.159 z"
   id="path100" />
</g>
<path
   style="fill:#ffe15a"
   d="m 285.326,90.045 c -2.155,-0.383 -4.316,-0.724 -6.482,-1.022 -3.562,-0.492 -6.215,-3.516 -5.906,-6.915 v 0 c 0.308,-3.398 3.713,-5.863 7.59,-5.327 2.325,0.32 4.646,0.685 6.959,1.097 3.859,0.682 6.357,4.082 5.604,7.406 v 0 c -0.75,3.332 -4.218,5.386 -7.765,4.761 z"
   id="path104" />
<path
   style="fill:#ff4b55"
   d="m 320.157,100.222 c -8.215,-3.402 -16.636,-6.125 -25.175,-8.168 0.48,-2.003 0.958,-4.007 1.437,-6.009 8.855,2.116 17.585,4.94 26.103,8.468 -0.788,1.902 -1.577,3.806 -2.365,5.709 z"
   id="path106" />
<g
   id="g118"
   transform="translate(0,-88.275)">
	<path
   style="fill:#ffe15a"
   d="m 317.952,169.958 c -0.873,2.407 -3.817,3.552 -6.599,2.647 -2.781,-0.906 -4.483,-3.55 -3.779,-6.012 0.704,-2.462 3.686,-3.765 6.636,-2.806 2.953,0.957 4.616,3.764 3.742,6.171 z"
   id="path108" />
	<path
   style="fill:#ffe15a"
   d="m 204.424,166.594 c 0.703,2.464 -1,5.109 -3.779,6.012 -2.781,0.9 -5.725,-0.245 -6.599,-2.647 -0.874,-2.408 0.79,-5.214 3.742,-6.171 2.95,-0.956 5.934,0.346 6.636,2.806 z"
   id="path110" />
	<path
   style="fill:#ffe15a"
   d="m 254.589,162.548 c 0.006,2.047 -1.834,3.714 -4.114,3.784 -2.279,0.073 -4.222,-1.481 -4.342,-3.52 -0.119,-2.04 1.719,-3.806 4.111,-3.883 2.393,-0.075 4.336,1.572 4.345,3.619 z"
   id="path112" />
	<path
   style="fill:#ffe15a"
   d="m 265.865,162.811 c -0.121,2.044 -2.065,3.593 -4.342,3.52 -2.279,-0.07 -4.119,-1.737 -4.114,-3.784 0.009,-2.045 1.953,-3.697 4.344,-3.619 2.393,0.073 4.229,1.842 4.112,3.883 z"
   id="path114" />
	<path
   style="fill:#ffe15a"
   d="m 260.007,172.079 c -0.057,2.047 -1.85,3.657 -4.008,3.657 -2.156,-10e-4 -3.949,-1.609 -4.008,-3.657 -0.056,-2.041 1.737,-3.755 4.008,-3.75 2.271,-0.005 4.064,1.707 4.008,3.75 z"
   id="path116" />
</g>
<g
   id="g120">
</g>
<g
   id="g122">
</g>
<g
   id="g124">
</g>
<g
   id="g126">
</g>
<g
   id="g128">
</g>
<g
   id="g130">
</g>
<g
   id="g132">
</g>
<g
   id="g134">
</g>
<g
   id="g136">
</g>
<g
   id="g138">
</g>
<g
   id="g140">
</g>
<g
   id="g142">
</g>
<g
   id="g144">
</g>
<g
   id="g146">
</g>
<g
   id="g148">
</g>
</svg>
