<?xml version="1.0" encoding="UTF-8" standalone="no"?>
<svg
   xmlns:dc="http://purl.org/dc/elements/1.1/"
   xmlns:cc="http://creativecommons.org/ns#"
   xmlns:rdf="http://www.w3.org/1999/02/22-rdf-syntax-ns#"
   xmlns:svg="http://www.w3.org/2000/svg"
   xmlns="http://www.w3.org/2000/svg"
   xmlns:sodipodi="http://sodipodi.sourceforge.net/DTD/sodipodi-0.dtd"
   xmlns:inkscape="http://www.inkscape.org/namespaces/inkscape"
   version="1.1"
   id="Layer_1"
   x="0px"
   y="0px"
   viewBox="0 0 512 335.45001"
   xml:space="preserve"
   sodipodi:docname="je.svg"
   width="512"
   height="335.45001"
   inkscape:version="1.0.1 (c497b03c, 2020-09-10)"><metadata
   id="metadata149"><rdf:RDF><cc:Work
       rdf:about=""><dc:format>image/svg+xml</dc:format><dc:type
         rdf:resource="http://purl.org/dc/dcmitype/StillImage" /><dc:title></dc:title></cc:Work></rdf:RDF></metadata><defs
   id="defs147" /><sodipodi:namedview
   pagecolor="#ffffff"
   bordercolor="#666666"
   borderopacity="1"
   objecttolerance="10"
   gridtolerance="10"
   guidetolerance="10"
   inkscape:pageopacity="0"
   inkscape:pageshadow="2"
   inkscape:window-width="1646"
   inkscape:window-height="900"
   id="namedview145"
   showgrid="false"
   inkscape:zoom="1.640625"
   inkscape:cx="256"
   inkscape:cy="256"
   inkscape:window-x="0"
   inkscape:window-y="23"
   inkscape:window-maximized="0"
   inkscape:current-layer="Layer_1" />
<path
   style="fill:#f5f5f5"
   d="M 473.655,335.448 H 38.345 C 17.167,335.448 0,318.281 0,297.103 V 38.345 C 0,17.168 17.167,0 38.345,0 h 435.31 C 494.832,0 512,17.167 512,38.345 v 258.759 c 0,21.177 -17.167,38.344 -38.345,38.344 z"
   id="path10" />
<path
   style="fill:#ff4b55"
   d="M 479.172,0.4 256,146.617 32.828,0.4 C 19.454,2.328 8.316,11.154 3.132,23.158 L 223.784,167.724 3.132,312.29 c 5.184,12.004 16.323,20.83 29.697,22.758 L 256,188.831 479.172,335.047 c 13.374,-1.928 24.512,-10.753 29.697,-22.758 L 288.216,167.724 508.87,23.158 C 503.684,11.154 492.546,2.328 479.172,0.4 Z"
   id="path12" />
<path
   style="fill:#ffe15a"
   d="m 282.557,38.584 c 0,0 -2.795,-4.193 -6.988,-1.398 0,0 4.849,3.495 1.572,7.164 -3.467,3.883 -8.233,0.085 -8.532,-2.698 1.271,-0.097 2.276,-1.148 2.276,-2.444 0,-1.361 -1.102,-2.463 -2.463,-2.463 -1.361,0 -2.463,1.102 -2.463,2.463 0,1.062 0.676,1.959 1.618,2.305 -0.601,2.382 -6.849,4.205 -8.65,0.26 -2.028,-4.441 1.18,-8.212 5.504,-7.688 0,0 -0.83,-5.503 -6.682,-3.189 0,0 2.446,-6.29 -1.747,-10.483 -4.193,4.193 -1.747,10.483 -1.747,10.483 -5.853,-2.315 -6.682,3.189 -6.682,3.189 4.324,-0.524 7.531,3.245 5.504,7.688 -1.801,3.945 -8.049,2.122 -8.65,-0.26 0.942,-0.345 1.618,-1.242 1.618,-2.305 0,-1.361 -1.102,-2.463 -2.463,-2.463 -1.361,0 -2.463,1.102 -2.463,2.463 0,1.297 1.005,2.347 2.276,2.444 -0.299,2.783 -5.066,6.581 -8.532,2.698 -3.276,-3.669 1.572,-7.164 1.572,-7.164 -4.193,-2.795 -6.988,1.398 -6.988,1.398 -1.398,-5.591 -6.988,-4.193 -6.988,-4.193 5.591,6.988 9.702,21.404 9.702,21.404 h 47.687 c 0,0 4.11,-14.415 9.702,-21.404 -0.005,0 -5.596,-1.398 -6.993,4.193 z"
   id="path14" />
<path
   style="fill:#ff4b55"
   d="M 279.843,55.795 C 272.129,53.076 264.064,51.717 256,51.717 c -8.064,0 -16.129,1.359 -23.843,4.078 -12.507,54.799 23.843,69.446 23.843,69.446 0,0 36.35,-14.647 23.843,-69.446 z"
   id="path16" />
<g
   id="g42"
   transform="translate(0,-88.276)">
	<path
   style="fill:#82afff"
   d="m 238.561,163.567 c 0,0 -1.146,-0.216 -2.143,0.582 0,0 -0.349,-1.378 1.444,-1.71 1.795,-0.334 0.699,1.128 0.699,1.128 z"
   id="path18" />
	<path
   style="fill:#82afff"
   d="m 237.181,161.824 c 0,0 -0.908,-0.732 -2.163,-0.5 0,0 0.344,-1.379 2.082,-0.824 1.738,0.554 0.081,1.324 0.081,1.324 z"
   id="path20" />
	<path
   style="fill:#82afff"
   d="m 237.932,162.538 c 0,0 -1.252,-0.216 -2.342,0.582 0,0 -0.381,-1.378 1.579,-1.71 1.96,-0.333 0.763,1.128 0.763,1.128 z"
   id="path22" />
	<path
   style="fill:#82afff"
   d="m 259.623,166.199 c 0,0 -1.165,0.055 -1.95,1.062 0,0 -0.658,-1.26 1.01,-1.998 1.667,-0.739 0.94,0.936 0.94,0.936 z"
   id="path24" />
	<path
   style="fill:#82afff"
   d="m 257.914,164.697 c 0,0 -1.053,-0.502 -2.22,0.014 0,0 0.015,-1.422 1.834,-1.284 1.819,0.138 0.386,1.27 0.386,1.27 z"
   id="path26" />
	<path
   style="fill:#82afff"
   d="m 258.773,165.343 c 0,0 -1.269,0.079 -2.144,1.107 0,0 -0.69,-1.252 1.141,-2.029 1.831,-0.777 1.003,0.922 1.003,0.922 z"
   id="path28" />
	<path
   style="fill:#82afff"
   d="m 272.931,166.919 c 0,0 -0.436,0 -1.217,0.735 0,0 -0.559,-1.25 1.087,-1.864 1.648,-0.614 0.13,1.129 0.13,1.129 z"
   id="path30" />
	<path
   style="fill:#82afff"
   d="m 272.095,165.202 c 0,0 -0.983,-0.544 -2.135,-0.116 0,0 0.097,-1.366 1.838,-1.129 1.741,0.239 0.297,1.245 0.297,1.245 z"
   id="path32" />
	<path
   style="fill:#82afff"
   d="m 272.883,165.873 c 0,0 -1.225,0.003 -2.125,0.94 0,0 -0.59,-1.245 1.215,-1.886 1.805,-0.64 0.91,0.946 0.91,0.946 z"
   id="path34" />
	<path
   style="fill:#82afff"
   d="m 236.644,154.919 c 0,0 -1.053,-0.7 -2.387,-0.329 0,0 0.238,-1.519 2.17,-1.091 1.933,0.428 0.217,1.42 0.217,1.42 z"
   id="path36" />
	<path
   style="fill:#82afff"
   d="m 236.557,152.297 c 0,0 -0.68,-1.069 -2.131,-1.163 0,0 0.939,-1.441 2.588,-0.335 1.65,1.104 -0.457,1.498 -0.457,1.498 z"
   id="path38" />
	<path
   style="fill:#82afff"
   d="m 236.563,153.689 c 0,0 -1.11,-0.82 -2.577,-0.518 0,0 0.33,-1.603 2.408,-1.011 2.079,0.594 0.169,1.529 0.169,1.529 z"
   id="path40" />
</g>
<path
   style="fill:#ffe15a"
   d="m 269.568,70.209 c 1.844,0.05 4.035,-0.681 4.384,-2.591 0.401,-2.195 -1.479,-3.305 -4.002,-3.206 -1.842,0.073 -6.507,1.131 -9.848,1.013 -3.305,-0.116 -3.395,-3.386 1.611,-3.039 7.424,0.515 8.603,-0.448 8.603,-0.448 -3.986,0.747 -5.58,-0.648 -9.815,-0.648 -4.235,0 -5.048,2.933 -3.338,4.534 1.916,1.794 8.868,0.598 10.712,0.249 1.844,-0.349 4.182,-0.367 4.367,0.93 0.165,1.163 -2.923,1.1 -5.111,1.016 -3.482,-0.134 -8.55,0.811 -13.058,1.044 -3.756,0.194 -4.279,-0.865 -5.134,-1.95 0.2,-0.361 0.314,-0.764 0.314,-1.19 0,-0.215 -0.034,-0.423 -0.088,-0.625 0.284,-0.311 0.582,-0.809 0.718,-1.618 0,0 -0.961,-0.169 -1.687,0.198 -0.582,-0.459 -1.353,-0.746 -2.206,-0.746 -0.854,0 -1.624,0.287 -2.206,0.746 -0.726,-0.366 -1.687,-0.198 -1.687,-0.198 0.137,0.81 0.435,1.306 0.718,1.618 -0.054,0.201 -0.088,0.408 -0.088,0.625 0,0.782 0.376,1.489 0.983,1.996 0.292,0.245 0.51,0.567 0.584,0.941 l 0.105,0.531 c 0.046,0.233 0.196,0.415 0.391,0.526 -3.096,-0.319 -4.562,-2.265 -5.314,-3.347 -0.849,-1.22 -1.378,-3.919 -2.674,-4.218 l -0.764,4.07 c 0,0 1.637,3.786 4.683,5.331 3.438,1.743 4.086,1.794 5.215,2.292 0.132,0.598 -2.126,0.963 -4.418,0.499 -1.6,-0.324 -3.756,-2.648 -4.984,-2.482 l 1.431,3.179 c 3.886,2.458 7.283,2.51 10.197,1.993 2.059,-0.365 2.842,-2.042 2.978,-2.76 0.841,-0.156 1.757,-0.33 4.595,-1.027 1.188,-0.292 2.557,-0.446 3.919,-0.51 0.384,0.876 1.262,1.998 4.285,2.104 0,0 0.73,1.163 -1.76,0.93 -2.492,-0.233 -3.13,-1.009 -4.593,-0.843 l 1.304,3.102 c 0,0 3.189,-1.096 7.108,-0.697 0,0 0.73,0.2 1.163,-0.431 0.431,-0.631 0.233,-0.996 -0.167,-1.561 -0.224,-0.318 -0.354,-1.348 -0.424,-2.191 1.436,0.361 5.841,-0.533 7.433,-0.399 1.594,0.132 1.827,1.993 1.461,2.624 -0.365,0.631 -3.703,0.092 -3.703,0.092 l 1.121,3.064 c 0,0 0.337,-0.162 1.187,-0.963 0.692,-0.651 3.521,-0.431 3.521,-0.93 v -5.676 c 0,-0.269 -0.234,-0.479 -0.502,-0.456 -6.242,0.544 -7.52,-0.497 -7.52,-0.497 z"
   id="path44" />
<path
   style="fill:#ff4b55"
   d="m 244.679,68.192 c 0.094,0.183 0.163,0.382 0.201,0.593 l 0.094,0.531 c 0.033,0.186 0.18,0.321 0.35,0.321 h 1.448 c 0.17,0 0.317,-0.135 0.35,-0.321 l 0.094,-0.531 c 0.038,-0.211 0.107,-0.409 0.201,-0.593 z"
   id="path46" />
<g
   id="g74"
   transform="translate(0,-88.276)">
	<path
   style="fill:#82afff"
   d="m 246.047,157.517 c -0.334,0 -0.595,0.041 -0.559,0.505 l 0.135,1.985 c 0.023,0.303 0.206,0.534 0.424,0.534 0.217,0 0.402,-0.231 0.424,-0.534 l 0.135,-1.985 c 0.035,-0.464 -0.226,-0.505 -0.559,-0.505 z"
   id="path48" />
	<path
   style="fill:#82afff"
   d="m 241.736,183.171 c 0,0 -0.935,-0.177 -1.748,0.474 0,0 -0.285,-1.124 1.178,-1.396 1.465,-0.269 0.57,0.922 0.57,0.922 z"
   id="path50" />
	<path
   style="fill:#82afff"
   d="m 240.61,181.75 c 0,0 -0.74,-0.597 -1.764,-0.408 0,0 0.28,-1.126 1.698,-0.673 1.418,0.452 0.066,1.081 0.066,1.081 z"
   id="path52" />
	<path
   style="fill:#82afff"
   d="m 241.224,182.332 c 0,0 -1.022,-0.177 -1.91,0.474 0,0 -0.311,-1.124 1.288,-1.396 1.598,-0.27 0.622,0.922 0.622,0.922 z"
   id="path54" />
	<path
   style="fill:#82afff"
   d="m 258.916,185.319 c 0,0 -0.95,0.045 -1.59,0.865 0,0 -0.537,-1.028 0.824,-1.63 1.362,-0.601 0.766,0.765 0.766,0.765 z"
   id="path56" />
	<path
   style="fill:#82afff"
   d="m 257.523,184.094 c 0,0 -0.858,-0.409 -1.811,0.011 0,0 0.012,-1.16 1.496,-1.047 1.484,0.112 0.315,1.036 0.315,1.036 z"
   id="path58" />
	<path
   style="fill:#82afff"
   d="m 258.222,184.62 c 0,0 -1.035,0.065 -1.749,0.903 0,0 -0.563,-1.022 0.93,-1.655 1.495,-0.634 0.819,0.752 0.819,0.752 z"
   id="path60" />
	<path
   style="fill:#82afff"
   d="m 269.771,185.905 c 0,0 -0.355,0 -0.993,0.599 0,0 -0.457,-1.02 0.887,-1.519 1.344,-0.501 0.106,0.92 0.106,0.92 z"
   id="path62" />
	<path
   style="fill:#82afff"
   d="m 269.09,184.505 c 0,0 -0.802,-0.444 -1.742,-0.094 0,0 0.079,-1.114 1.5,-0.92 1.42,0.193 0.242,1.014 0.242,1.014 z"
   id="path64" />
	<path
   style="fill:#82afff"
   d="m 269.732,185.052 c 0,0 -0.999,0.002 -1.734,0.767 0,0 -0.482,-1.015 0.991,-1.538 1.473,-0.523 0.743,0.771 0.743,0.771 z"
   id="path66" />
	<path
   style="fill:#82afff"
   d="m 240.172,176.117 c 0,0 -0.858,-0.57 -1.947,-0.268 0,0 0.194,-1.24 1.771,-0.89 1.576,0.35 0.176,1.158 0.176,1.158 z"
   id="path68" />
	<path
   style="fill:#82afff"
   d="m 240.102,173.978 c 0,0 -0.555,-0.873 -1.738,-0.949 0,0 0.766,-1.175 2.111,-0.274 1.345,0.902 -0.373,1.223 -0.373,1.223 z"
   id="path70" />
	<path
   style="fill:#82afff"
   d="m 240.107,175.114 c 0,0 -0.906,-0.669 -2.102,-0.422 0,0 0.269,-1.308 1.964,-0.824 1.696,0.483 0.138,1.246 0.138,1.246 z"
   id="path72" />
</g>
<path
   style="fill:#ffe15a"
   d="m 267.028,90.751 c 1.504,0.041 3.292,-0.555 3.576,-2.113 0.327,-1.79 -1.206,-2.696 -3.265,-2.614 -1.503,0.06 -5.308,0.922 -8.033,0.826 -2.696,-0.095 -2.77,-2.762 1.314,-2.479 6.056,0.42 7.017,-0.365 7.017,-0.365 -3.251,0.609 -4.552,-0.529 -8.007,-0.529 -3.455,0 -4.117,2.392 -2.723,3.699 1.563,1.463 7.234,0.488 8.738,0.203 1.504,-0.285 3.412,-0.3 3.563,0.759 0.136,0.948 -2.385,0.897 -4.169,0.829 -2.841,-0.109 -6.974,0.662 -10.652,0.851 -3.064,0.158 -3.49,-0.706 -4.188,-1.59 0.163,-0.295 0.256,-0.622 0.256,-0.97 0,-0.175 -0.029,-0.344 -0.073,-0.509 0.232,-0.254 0.474,-0.66 0.586,-1.32 0,0 -0.785,-0.138 -1.376,0.161 -0.474,-0.374 -1.103,-0.608 -1.8,-0.608 -0.697,0 -1.325,0.234 -1.8,0.608 -0.591,-0.299 -1.376,-0.161 -1.376,-0.161 0.111,0.66 0.354,1.066 0.586,1.32 -0.044,0.164 -0.073,0.333 -0.073,0.509 0,0.638 0.308,1.215 0.802,1.628 0.238,0.2 0.416,0.462 0.476,0.768 l 0.086,0.434 c 0.038,0.19 0.16,0.338 0.319,0.429 -2.526,-0.26 -3.721,-1.847 -4.334,-2.73 -0.692,-0.995 -1.124,-3.197 -2.182,-3.441 l -0.623,3.319 c 0,0 1.336,3.089 3.82,4.349 2.804,1.422 3.332,1.463 4.254,1.869 0.108,0.488 -1.734,0.786 -3.604,0.406 -1.305,-0.265 -3.063,-2.159 -4.066,-2.025 l 1.167,2.593 c 3.17,2.005 5.941,2.047 8.318,1.625 1.679,-0.298 2.318,-1.665 2.429,-2.251 0.685,-0.127 1.432,-0.269 3.748,-0.838 0.97,-0.238 2.086,-0.364 3.198,-0.416 0.313,0.715 1.03,1.631 3.495,1.716 0,0 0.596,0.948 -1.436,0.758 -2.033,-0.19 -2.553,-0.823 -3.746,-0.687 l 1.064,2.53 c 0,0 2.601,-0.894 5.799,-0.569 0,0 0.596,0.162 0.948,-0.352 0.352,-0.515 0.19,-0.813 -0.136,-1.273 -0.183,-0.259 -0.288,-1.1 -0.346,-1.788 1.171,0.295 4.765,-0.435 6.062,-0.327 1.301,0.108 1.49,1.625 1.192,2.141 -0.298,0.515 -3.021,0.075 -3.021,0.075 l 0.915,2.499 c 0,0 0.275,-0.132 0.969,-0.786 0.564,-0.531 2.872,-0.352 2.872,-0.758 v -4.63 c 0,-0.22 -0.191,-0.391 -0.409,-0.372 -5.088,0.445 -6.131,-0.403 -6.131,-0.403 z"
   id="path76" />
<path
   style="fill:#ff4b55"
   d="m 246.727,89.104 c 0.076,0.15 0.134,0.312 0.163,0.483 l 0.076,0.434 c 0.026,0.152 0.147,0.262 0.285,0.262 h 1.181 c 0.138,0 0.258,-0.11 0.285,-0.262 l 0.076,-0.434 c 0.031,-0.171 0.087,-0.334 0.163,-0.483 z"
   id="path78" />
<g
   id="g106"
   transform="translate(0,-88.276)">
	<path
   style="fill:#82afff"
   d="m 247.842,178.237 c -0.273,0 -0.484,0.033 -0.456,0.413 l 0.11,1.619 c 0.019,0.248 0.168,0.436 0.346,0.436 0.179,0 0.328,-0.188 0.346,-0.436 l 0.11,-1.619 c 0.029,-0.38 -0.183,-0.413 -0.456,-0.413 z"
   id="path80" />
	<path
   style="fill:#82afff"
   d="m 245.267,198.753 c 0,0 -0.7,-0.132 -1.309,0.355 0,0 -0.213,-0.842 0.883,-1.045 1.096,-0.203 0.426,0.69 0.426,0.69 z"
   id="path82" />
	<path
   style="fill:#82afff"
   d="m 244.424,197.688 c 0,0 -0.555,-0.447 -1.321,-0.306 0,0 0.21,-0.843 1.271,-0.504 1.062,0.34 0.05,0.81 0.05,0.81 z"
   id="path84" />
	<path
   style="fill:#82afff"
   d="m 244.883,198.124 c 0,0 -0.765,-0.132 -1.43,0.355 0,0 -0.233,-0.842 0.964,-1.045 1.197,-0.203 0.466,0.69 0.466,0.69 z"
   id="path86" />
	<path
   style="fill:#82afff"
   d="m 258.13,200.361 c 0,0 -0.712,0.033 -1.191,0.648 0,0 -0.402,-0.77 0.617,-1.22 1.019,-0.451 0.574,0.572 0.574,0.572 z"
   id="path88" />
	<path
   style="fill:#82afff"
   d="m 257.087,199.444 c 0,0 -0.643,-0.307 -1.356,0.009 0,0 0.01,-0.868 1.12,-0.785 1.112,0.084 0.236,0.776 0.236,0.776 z"
   id="path90" />
	<path
   style="fill:#82afff"
   d="m 257.611,199.838 c 0,0 -0.775,0.049 -1.309,0.676 0,0 -0.422,-0.765 0.696,-1.239 1.118,-0.474 0.613,0.563 0.613,0.563 z"
   id="path92" />
	<path
   style="fill:#82afff"
   d="m 266.259,200.8 c 0,0 -0.266,0 -0.744,0.449 0,0 -0.342,-0.764 0.664,-1.138 1.006,-0.375 0.08,0.689 0.08,0.689 z"
   id="path94" />
	<path
   style="fill:#82afff"
   d="m 265.748,199.752 c 0,0 -0.6,-0.332 -1.304,-0.071 0,0 0.06,-0.834 1.123,-0.69 1.064,0.145 0.181,0.761 0.181,0.761 z"
   id="path96" />
	<path
   style="fill:#82afff"
   d="m 266.229,200.161 c 0,0 -0.748,0.002 -1.299,0.575 0,0 -0.361,-0.76 0.742,-1.152 1.103,-0.392 0.557,0.577 0.557,0.577 z"
   id="path98" />
	<path
   style="fill:#82afff"
   d="m 244.096,193.472 c 0,0 -0.643,-0.427 -1.458,-0.201 0,0 0.146,-0.928 1.326,-0.666 1.18,0.261 0.132,0.867 0.132,0.867 z"
   id="path100" />
	<path
   style="fill:#82afff"
   d="m 244.043,191.87 c 0,0 -0.415,-0.653 -1.301,-0.711 0,0 0.574,-0.879 1.58,-0.205 1.008,0.675 -0.279,0.916 -0.279,0.916 z"
   id="path102" />
	<path
   style="fill:#82afff"
   d="m 244.046,192.721 c 0,0 -0.679,-0.501 -1.574,-0.316 0,0 0.201,-0.979 1.471,-0.617 1.27,0.361 0.103,0.933 0.103,0.933 z"
   id="path104" />
</g>
<path
   style="fill:#ffe15a"
   d="m 264.204,107.373 c 1.126,0.031 2.465,-0.416 2.678,-1.582 0.245,-1.341 -0.903,-2.018 -2.444,-1.958 -1.126,0.044 -3.974,0.691 -6.015,0.619 -2.018,-0.071 -2.073,-2.068 0.984,-1.856 4.534,0.314 5.255,-0.274 5.255,-0.274 -2.434,0.457 -3.409,-0.396 -5.995,-0.396 -2.586,0 -3.083,1.791 -2.039,2.77 1.17,1.096 5.417,0.365 6.542,0.152 1.126,-0.213 2.554,-0.224 2.668,0.568 0.102,0.71 -1.785,0.672 -3.122,0.62 -2.127,-0.082 -5.221,0.495 -7.976,0.638 -2.294,0.118 -2.614,-0.529 -3.136,-1.191 0.122,-0.221 0.192,-0.466 0.192,-0.726 0,-0.131 -0.021,-0.258 -0.054,-0.381 0.173,-0.191 0.355,-0.494 0.439,-0.989 0,0 -0.587,-0.103 -1.031,0.12 -0.355,-0.28 -0.825,-0.456 -1.347,-0.456 -0.522,0 -0.992,0.175 -1.347,0.456 -0.444,-0.224 -1.031,-0.12 -1.031,-0.12 0.084,0.494 0.266,0.798 0.439,0.989 -0.033,0.122 -0.054,0.249 -0.054,0.381 0,0.478 0.231,0.909 0.6,1.219 0.179,0.149 0.311,0.346 0.356,0.575 l 0.064,0.324 c 0.028,0.142 0.12,0.253 0.238,0.321 -1.891,-0.195 -2.786,-1.384 -3.245,-2.044 -0.519,-0.745 -0.842,-2.393 -1.633,-2.577 l -0.467,2.485 c 0,0 1.001,2.313 2.86,3.256 2.1,1.065 2.495,1.096 3.185,1.4 0.082,0.365 -1.299,0.588 -2.698,0.305 -0.978,-0.199 -2.294,-1.618 -3.044,-1.516 l 0.874,1.942 c 2.374,1.501 4.448,1.533 6.228,1.217 1.258,-0.223 1.736,-1.247 1.818,-1.685 0.513,-0.095 1.073,-0.202 2.806,-0.628 0.726,-0.179 1.561,-0.273 2.394,-0.311 0.235,0.535 0.771,1.22 2.616,1.284 0,0 0.446,0.71 -1.075,0.568 -1.522,-0.142 -1.912,-0.616 -2.805,-0.515 l 0.797,1.895 c 0,0 1.948,-0.67 4.341,-0.426 0,0 0.446,0.121 0.71,-0.264 0.264,-0.385 0.142,-0.609 -0.102,-0.953 -0.137,-0.194 -0.216,-0.824 -0.259,-1.338 0.877,0.221 3.567,-0.326 4.54,-0.244 0.973,0.082 1.116,1.217 0.893,1.602 -0.223,0.385 -2.262,0.056 -2.262,0.056 l 0.684,1.871 c 0,0 0.205,-0.099 0.725,-0.588 0.423,-0.397 2.151,-0.264 2.151,-0.568 v -3.467 c 0,-0.164 -0.142,-0.292 -0.307,-0.278 -3.809,0.335 -4.589,-0.302 -4.589,-0.302 z"
   id="path108" />
<path
   style="fill:#ff4b55"
   d="m 249.003,106.142 c 0.057,0.113 0.099,0.234 0.122,0.362 l 0.057,0.324 c 0.02,0.114 0.11,0.196 0.213,0.196 h 0.884 c 0.104,0 0.193,-0.083 0.213,-0.196 l 0.057,-0.324 c 0.023,-0.128 0.065,-0.25 0.122,-0.362 z"
   id="path110" />
<path
   style="fill:#82afff"
   d="m 249.838,106.783 c -0.204,0 -0.363,0.024 -0.342,0.309 l 0.083,1.212 c 0.014,0.185 0.126,0.327 0.259,0.327 0.134,0 0.245,-0.141 0.259,-0.327 l 0.083,-1.212 c 0.021,-0.285 -0.138,-0.309 -0.342,-0.309 z"
   id="path112" />
<g
   id="g114">
</g>
<g
   id="g116">
</g>
<g
   id="g118">
</g>
<g
   id="g120">
</g>
<g
   id="g122">
</g>
<g
   id="g124">
</g>
<g
   id="g126">
</g>
<g
   id="g128">
</g>
<g
   id="g130">
</g>
<g
   id="g132">
</g>
<g
   id="g134">
</g>
<g
   id="g136">
</g>
<g
   id="g138">
</g>
<g
   id="g140">
</g>
<g
   id="g142">
</g>
</svg>
