<?xml version="1.0" encoding="UTF-8" standalone="no"?>
<svg
   xmlns:dc="http://purl.org/dc/elements/1.1/"
   xmlns:cc="http://creativecommons.org/ns#"
   xmlns:rdf="http://www.w3.org/1999/02/22-rdf-syntax-ns#"
   xmlns:svg="http://www.w3.org/2000/svg"
   xmlns="http://www.w3.org/2000/svg"
   xmlns:sodipodi="http://sodipodi.sourceforge.net/DTD/sodipodi-0.dtd"
   xmlns:inkscape="http://www.inkscape.org/namespaces/inkscape"
   version="1.1"
   id="Layer_1"
   x="0px"
   y="0px"
   viewBox="0 0 512 335.45001"
   xml:space="preserve"
   sodipodi:docname="jo.svg"
   width="512"
   height="335.45001"
   inkscape:version="1.0.1 (c497b03c, 2020-09-10)"><metadata
   id="metadata55"><rdf:RDF><cc:Work
       rdf:about=""><dc:format>image/svg+xml</dc:format><dc:type
         rdf:resource="http://purl.org/dc/dcmitype/StillImage" /><dc:title></dc:title></cc:Work></rdf:RDF></metadata><defs
   id="defs53" /><sodipodi:namedview
   pagecolor="#ffffff"
   bordercolor="#666666"
   borderopacity="1"
   objecttolerance="10"
   gridtolerance="10"
   guidetolerance="10"
   inkscape:pageopacity="0"
   inkscape:pageshadow="2"
   inkscape:window-width="1413"
   inkscape:window-height="791"
   id="namedview51"
   showgrid="false"
   inkscape:zoom="1.640625"
   inkscape:cx="256"
   inkscape:cy="256"
   inkscape:window-x="0"
   inkscape:window-y="23"
   inkscape:window-maximized="0"
   inkscape:current-layer="Layer_1" />
<path
   style="fill:#464655"
   d="M 473.655,0 H 38.345 C 29.365,0 21.112,3.095 14.578,8.266 l 191.171,103.55 H 512 V 38.345 C 512,17.167 494.833,0 473.655,0 Z"
   id="path10" />
<path
   style="fill:#73af00"
   d="m 14.578,327.182 c 6.535,5.171 14.787,8.266 23.767,8.266 h 435.31 c 21.177,0 38.345,-17.167 38.345,-38.345 V 223.632 H 205.75 Z"
   id="path12" />
<path
   style="fill:#f5f5f5"
   d="m 302.368,164.151 c 2.838,1.537 2.838,5.61 0,7.147 L 205.75,223.632 H 512 V 111.816 H 205.749 Z"
   id="path14" />
<path
   style="fill:#ff4b55"
   d="m 302.368,171.298 c 2.838,-1.537 2.838,-5.61 0,-7.147 L 205.749,111.817 14.578,8.266 C 5.702,15.289 0,26.147 0,38.345 v 73.471 111.816 73.471 c 0,12.198 5.702,23.057 14.578,30.079 l 191.171,-103.55 z"
   id="path16" />
<path
   style="fill:#f5f5f5"
   d="m 95.399,144.888 5.247,11.381 12.169,-2.994 c 0.759,-0.186 1.389,0.602 1.038,1.302 l -5.626,11.198 9.928,7.648 c 0.62,0.478 0.395,1.462 -0.371,1.623 l -12.263,2.583 0.211,12.53 c 0.013,0.782 -0.897,1.22 -1.5,0.723 l -9.665,-7.977 -9.665,7.977 c -0.604,0.498 -1.513,0.06 -1.5,-0.723 l 0.211,-12.53 -12.263,-2.583 c -0.766,-0.161 -0.991,-1.145 -0.371,-1.623 l 9.928,-7.648 -5.626,-11.198 c -0.351,-0.7 0.278,-1.489 1.038,-1.302 l 12.169,2.994 5.247,-11.381 c 0.326,-0.71 1.336,-0.71 1.664,0 z"
   id="path18" />
<g
   id="g20">
</g>
<g
   id="g22">
</g>
<g
   id="g24">
</g>
<g
   id="g26">
</g>
<g
   id="g28">
</g>
<g
   id="g30">
</g>
<g
   id="g32">
</g>
<g
   id="g34">
</g>
<g
   id="g36">
</g>
<g
   id="g38">
</g>
<g
   id="g40">
</g>
<g
   id="g42">
</g>
<g
   id="g44">
</g>
<g
   id="g46">
</g>
<g
   id="g48">
</g>
</svg>
