<?xml version="1.0" encoding="UTF-8" standalone="no"?>
<svg
   xmlns:dc="http://purl.org/dc/elements/1.1/"
   xmlns:cc="http://creativecommons.org/ns#"
   xmlns:rdf="http://www.w3.org/1999/02/22-rdf-syntax-ns#"
   xmlns:svg="http://www.w3.org/2000/svg"
   xmlns="http://www.w3.org/2000/svg"
   xmlns:sodipodi="http://sodipodi.sourceforge.net/DTD/sodipodi-0.dtd"
   xmlns:inkscape="http://www.inkscape.org/namespaces/inkscape"
   version="1.1"
   id="Layer_1"
   x="0px"
   y="0px"
   viewBox="0 0 512 335.45001"
   xml:space="preserve"
   sodipodi:docname="ke.svg"
   width="512"
   height="335.45001"
   inkscape:version="1.0.1 (c497b03c, 2020-09-10)"><metadata
   id="metadata81"><rdf:RDF><cc:Work
       rdf:about=""><dc:format>image/svg+xml</dc:format><dc:type
         rdf:resource="http://purl.org/dc/dcmitype/StillImage" /><dc:title></dc:title></cc:Work></rdf:RDF></metadata><defs
   id="defs79" /><sodipodi:namedview
   pagecolor="#ffffff"
   bordercolor="#666666"
   borderopacity="1"
   objecttolerance="10"
   gridtolerance="10"
   guidetolerance="10"
   inkscape:pageopacity="0"
   inkscape:pageshadow="2"
   inkscape:window-width="1282"
   inkscape:window-height="723"
   id="namedview77"
   showgrid="false"
   inkscape:zoom="1.640625"
   inkscape:cx="256"
   inkscape:cy="256"
   inkscape:window-x="0"
   inkscape:window-y="23"
   inkscape:window-maximized="0"
   inkscape:current-layer="Layer_1" />
<path
   style="fill:#73af00"
   d="m 0,297.103 c 0,21.177 17.167,38.345 38.345,38.345 h 435.31 c 21.177,0 38.345,-17.167 38.345,-38.345 V 223.632 H 0 Z"
   id="path10" />
<path
   style="fill:#464655"
   d="M 473.655,0 H 38.345 C 17.167,0 0,17.167 0,38.345 v 73.471 H 512 V 38.345 C 512,17.167 494.833,0 473.655,0 Z"
   id="path12" />
<rect
   y="111.814"
   style="fill:#c8414b"
   width="512"
   height="111.81"
   id="rect14"
   x="0" />
<g
   id="g24"
   transform="translate(0,-88.276)">
	<rect
   y="194.21001"
   style="fill:#f5f5f5"
   width="512"
   height="17.655001"
   id="rect16"
   x="0" />
	<rect
   y="300.14001"
   style="fill:#f5f5f5"
   width="512"
   height="17.655001"
   id="rect18"
   x="0" />
	<path
   style="fill:#f5f5f5"
   d="m 303.268,181.618 c 7.108,-14.657 14.525,-48.61 14.525,-48.61 0,0 -22.072,26.845 -29.182,41.501 -1.49,3.072 -0.858,6.605 1.294,8.995 l -80.967,166.934 5.496,2.666 80.967,-166.934 c 3.212,0.211 6.378,-1.48 7.867,-4.552 z"
   id="path20" />
	<path
   style="fill:#f5f5f5"
   d="m 208.732,181.618 c -7.108,-14.657 -14.525,-48.61 -14.525,-48.61 0,0 22.072,26.845 29.181,41.501 1.49,3.072 0.858,6.605 -1.294,8.995 l 80.968,166.934 -5.496,2.666 -80.968,-166.934 c -3.211,0.211 -6.377,-1.48 -7.866,-4.552 z"
   id="path22" />
</g>
<path
   style="fill:#c8414b"
   d="M 300.138,167.724 C 300.138,216.478 264.126,256 256,256 c -8.126,0 -44.138,-39.522 -44.138,-88.276 0,-48.754 36.012,-88.276 44.138,-88.276 8.126,0 44.138,39.522 44.138,88.276 z"
   id="path26" />
<g
   id="g32"
   transform="translate(0,-88.276)">
	<path
   style="fill:#464655"
   d="m 291.31,298.591 c 5.199,-12.631 8.828,-27.14 8.828,-42.591 0,-15.451 -3.628,-29.959 -8.828,-42.591 -5.199,12.631 -8.828,27.14 -8.828,42.591 0,15.451 3.629,29.959 8.828,42.591 z"
   id="path28" />
	<path
   style="fill:#464655"
   d="m 220.69,213.409 c -5.199,12.631 -8.828,27.14 -8.828,42.591 0,15.45 3.628,29.959 8.828,42.591 5.199,-12.631 8.828,-27.14 8.828,-42.591 0,-15.451 -3.629,-29.959 -8.828,-42.591 z"
   id="path30" />
</g>
<g
   id="g44"
   transform="translate(0,-88.276)">
	<ellipse
   style="fill:#f5f5f5"
   cx="256"
   cy="256"
   rx="8.8280001"
   ry="13.241"
   id="ellipse34" />
	<path
   style="fill:#f5f5f5"
   d="m 257.324,167.724 v 75.034 c 2.407,-5.01 6.676,-19.815 6.676,-37.517 0,-17.703 -4.269,-32.507 -6.676,-37.517 z"
   id="path36" />
	<path
   style="fill:#f5f5f5"
   d="m 254.676,167.724 c -2.407,5.01 -6.676,19.814 -6.676,37.517 0,17.703 4.269,32.508 6.676,37.517 z"
   id="path38" />
	<path
   style="fill:#f5f5f5"
   d="m 257.324,269.241 v 75.034 c 2.407,-5.01 6.676,-19.815 6.676,-37.517 0,-17.703 -4.269,-32.507 -6.676,-37.517 z"
   id="path40" />
	<path
   style="fill:#f5f5f5"
   d="m 254.676,269.241 c -2.407,5.01 -6.676,19.814 -6.676,37.517 0,17.703 4.269,32.508 6.676,37.517 z"
   id="path42" />
</g>
<g
   id="g46">
</g>
<g
   id="g48">
</g>
<g
   id="g50">
</g>
<g
   id="g52">
</g>
<g
   id="g54">
</g>
<g
   id="g56">
</g>
<g
   id="g58">
</g>
<g
   id="g60">
</g>
<g
   id="g62">
</g>
<g
   id="g64">
</g>
<g
   id="g66">
</g>
<g
   id="g68">
</g>
<g
   id="g70">
</g>
<g
   id="g72">
</g>
<g
   id="g74">
</g>
</svg>
