<?xml version="1.0" encoding="UTF-8" standalone="no"?>
<svg
   xmlns:dc="http://purl.org/dc/elements/1.1/"
   xmlns:cc="http://creativecommons.org/ns#"
   xmlns:rdf="http://www.w3.org/1999/02/22-rdf-syntax-ns#"
   xmlns:svg="http://www.w3.org/2000/svg"
   xmlns="http://www.w3.org/2000/svg"
   xmlns:sodipodi="http://sodipodi.sourceforge.net/DTD/sodipodi-0.dtd"
   xmlns:inkscape="http://www.inkscape.org/namespaces/inkscape"
   version="1.1"
   id="Layer_1"
   x="0px"
   y="0px"
   viewBox="0 0 511.999 335.45002"
   xml:space="preserve"
   sodipodi:docname="ki.svg"
   width="511.99899"
   height="335.45001"
   inkscape:version="1.0.1 (c497b03c, 2020-09-10)"><metadata
   id="metadata71"><rdf:RDF><cc:Work
       rdf:about=""><dc:format>image/svg+xml</dc:format><dc:type
         rdf:resource="http://purl.org/dc/dcmitype/StillImage" /><dc:title></dc:title></cc:Work></rdf:RDF></metadata><defs
   id="defs69" /><sodipodi:namedview
   pagecolor="#ffffff"
   bordercolor="#666666"
   borderopacity="1"
   objecttolerance="10"
   gridtolerance="10"
   guidetolerance="10"
   inkscape:pageopacity="0"
   inkscape:pageshadow="2"
   inkscape:window-width="1557"
   inkscape:window-height="886"
   id="namedview67"
   showgrid="false"
   inkscape:zoom="1.6406282"
   inkscape:cx="255.9995"
   inkscape:cy="255.9995"
   inkscape:window-x="0"
   inkscape:window-y="23"
   inkscape:window-maximized="0"
   inkscape:current-layer="Layer_1" />
<path
   style="fill:#ff4b55"
   d="M 473.654,0 H 38.345 C 17.167,0 0,17.167 0,38.344 v 258.758 c 0,21.177 17.167,38.345 38.345,38.345 h 435.309 c 21.177,0 38.345,-17.167 38.345,-38.345 V 38.344 C 511.999,17.167 494.831,0 473.654,0 Z"
   id="path10" />
<path
   style="fill:#ffe15a"
   d="m 305.466,170.503 c -2.239,-1.926 -4.779,-3.328 -7.328,-4.353 14.409,-2.841 25.997,-15.016 25.997,-15.016 -7.005,3.073 -10.261,3.695 -21.41,0.031 -2.805,-0.922 -5.688,-1.246 -8.435,-1.217 12.224,-8.14 18.272,-23.82 18.272,-23.82 -5.295,5.519 -8.066,7.341 -19.768,8.222 -2.945,0.222 -5.732,1.026 -8.26,2.104 8.18,-12.197 7.766,-29.001 7.766,-29.001 -2.78,7.126 -4.642,9.869 -15.117,15.16 -2.636,1.332 -4.904,3.143 -6.826,5.105 2.888,-14.399 -3.924,-29.763 -3.924,-29.763 0.159,7.647 -0.513,10.894 -8.164,19.793 -1.926,2.239 -3.328,4.779 -4.353,7.328 C 251.075,110.667 238.9,99.079 238.9,99.079 c 3.073,7.005 3.695,10.261 0.031,21.41 -0.922,2.805 -1.246,5.688 -1.217,8.435 -8.14,-12.224 -23.82,-18.272 -23.82,-18.272 5.519,5.295 7.341,8.066 8.222,19.768 0.222,2.945 1.026,5.732 2.103,8.259 -12.199,-8.179 -29,-7.765 -29,-7.765 7.126,2.78 9.869,4.642 15.16,15.117 1.332,2.636 3.143,4.903 5.106,6.826 -14.4,-2.889 -29.765,3.924 -29.765,3.924 7.648,-0.159 10.894,0.513 19.793,8.164 2.239,1.926 4.779,3.327 7.328,4.353 -14.409,2.841 -25.997,15.016 -25.997,15.016 7.005,-3.073 10.261,-3.695 21.41,-0.031 2.806,0.922 5.689,1.246 8.436,1.217 -12.224,8.139 -18.273,23.821 -18.273,23.821 5.295,-5.519 8.066,-7.341 19.768,-8.222 2.945,-0.222 5.732,-1.026 8.259,-2.103 -8.179,12.199 -7.765,29 -7.765,29 2.78,-7.127 4.642,-9.869 15.117,-15.161 2.636,-1.332 4.903,-3.143 6.826,-5.105 -2.889,14.4 3.924,29.764 3.924,29.764 -0.159,-7.648 0.513,-10.894 8.164,-19.793 1.926,-2.239 3.328,-4.779 4.353,-7.328 2.841,14.408 15.016,25.997 15.016,25.997 -3.073,-7.005 -3.695,-10.262 -0.031,-21.41 0.922,-2.805 1.246,-5.688 1.217,-8.435 8.14,12.224 23.82,18.272 23.82,18.272 -5.519,-5.295 -7.341,-8.066 -8.222,-19.768 -0.222,-2.944 -1.026,-5.732 -2.103,-8.259 12.197,8.179 29,7.765 29,7.765 -7.126,-2.781 -9.869,-4.642 -15.161,-15.117 -1.332,-2.636 -3.143,-4.904 -5.105,-6.826 14.4,2.888 29.764,-3.924 29.764,-3.924 -7.647,0.158 -10.894,-0.513 -19.792,-8.165 z"
   id="path12" />
<path
   style="fill:#ffd25a"
   d="m 291.406,174.767 35.214,-7.043 -35.214,-7.043 29.839,-19.982 -35.229,6.968 19.921,-29.88 -29.88,19.921 6.969,-35.229 -19.982,29.838 -7.044,-35.213 -7.042,35.214 -19.982,-29.838 6.969,35.229 -29.88,-19.921 19.921,29.88 -35.229,-6.968 29.839,19.982 -35.216,7.042 35.214,7.043 -29.839,19.982 35.229,-6.969 -19.921,29.88 29.88,-19.921 -6.969,35.229 19.982,-29.838 7.044,35.214 7.043,-35.214 19.982,29.838 -6.969,-35.229 29.88,19.921 -19.921,-29.88 35.229,6.969 z"
   id="path14" />
<circle
   style="fill:#ffe15a"
   cx="256"
   cy="167.724"
   r="35.310001"
   id="circle16" />
<g
   id="g22"
   transform="translate(0,-88.276)">
	<path
   style="fill:#41479b"
   d="m 102.265,361.93 c 25.61,0 25.61,8.828 51.221,8.828 25.629,0 25.629,-8.828 51.256,-8.828 25.627,0 25.629,8.828 51.256,8.828 25.571,0 25.571,-8.828 51.143,-8.828 25.585,0 25.585,8.828 51.169,8.828 25.596,0 25.596,-8.828 51.191,-8.828 25.595,0 25.595,8.828 51.19,8.828 25.596,0 25.596,-8.828 51.192,-8.828 0.041,0 0.075,0.002 0.116,0.002 V 335.45 c -0.041,0 -0.075,-0.002 -0.116,-0.002 -25.596,0 -25.596,8.828 -51.192,8.828 -25.594,0 -25.594,-8.828 -51.19,-8.828 -25.596,0 -25.596,8.828 -51.191,8.828 -25.585,0 -25.585,-8.828 -51.169,-8.828 -25.571,0 -25.571,8.828 -51.143,8.828 -25.629,0 -25.629,-8.828 -51.256,-8.828 -25.627,0 -25.629,8.828 -51.256,8.828 -25.611,0 -25.611,-8.828 -51.221,-8.828 -25.588,0 -25.588,8.828 -51.177,8.828 -25.561,0 -25.609,-8.797 -51.088,-8.825 v 26.483 c 25.48,0.029 25.527,8.825 51.088,8.825 25.589,-0.001 25.589,-8.829 51.177,-8.829 z"
   id="path18" />
	<path
   style="fill:#41479b"
   d="m 0,308.967 c 25.48,0.028 25.527,8.824 51.088,8.824 25.589,0 25.589,-8.828 51.177,-8.828 25.61,0 25.61,8.828 51.221,8.828 25.629,0 25.629,-8.828 51.256,-8.828 25.627,0 25.629,8.828 51.256,8.828 25.571,0 25.571,-8.828 51.143,-8.828 25.585,0 25.585,8.828 51.169,8.828 25.596,0 25.596,-8.828 51.191,-8.828 25.595,0 25.595,8.828 51.19,8.828 25.596,0 25.596,-8.828 51.192,-8.828 0.041,0 0.075,0.002 0.116,0.002 v -26.483 c -0.041,0 -0.075,-0.002 -0.116,-0.002 -25.596,0 -25.596,8.828 -51.192,8.828 -25.594,0 -25.594,-8.828 -51.19,-8.828 -25.596,0 -25.596,8.828 -51.191,8.828 -25.585,0 -25.585,-8.828 -51.169,-8.828 -25.571,0 -25.571,8.828 -51.143,8.828 -25.629,0 -25.629,-8.828 -51.256,-8.828 -25.627,0 -25.629,8.828 -51.256,8.828 -25.611,0 -25.611,-8.828 -51.221,-8.828 -25.588,0 -25.588,8.828 -51.177,8.828 -25.561,0 -25.609,-8.797 -51.088,-8.825 z"
   id="path20" />
</g>
<g
   id="g30"
   transform="translate(0,-88.276)">
	<path
   style="fill:#f5f5f5"
   d="m 0,388.415 c 25.48,0.028 25.527,8.824 51.088,8.824 25.589,0 25.589,-8.828 51.177,-8.828 25.61,0 25.61,8.828 51.221,8.828 25.629,0 25.629,-8.828 51.256,-8.828 25.627,0 25.629,8.828 51.256,8.828 25.571,0 25.571,-8.828 51.143,-8.828 25.585,0 25.585,8.828 51.169,8.828 25.596,0 25.596,-8.828 51.191,-8.828 25.595,0 25.595,8.828 51.19,8.828 25.596,0 25.596,-8.828 51.192,-8.828 0.041,0 0.075,0.002 0.116,0.002 V 361.93 c -0.041,0 -0.075,-0.002 -0.116,-0.002 -25.596,0 -25.596,8.828 -51.192,8.828 -25.594,0 -25.594,-8.828 -51.19,-8.828 -25.596,0 -25.596,8.828 -51.191,8.828 -25.585,0 -25.585,-8.828 -51.169,-8.828 -25.571,0 -25.571,8.828 -51.143,8.828 -25.629,0 -25.629,-8.828 -51.256,-8.828 -25.627,0 -25.629,8.828 -51.256,8.828 -25.611,0 -25.611,-8.828 -51.221,-8.828 -25.588,0 -25.588,8.828 -51.177,8.828 -25.561,0 -25.609,-8.797 -51.088,-8.825 z"
   id="path24" />
	<path
   style="fill:#f5f5f5"
   d="m 0,335.451 c 25.48,0.028 25.527,8.824 51.088,8.824 25.589,0 25.589,-8.828 51.177,-8.828 25.61,0 25.61,8.828 51.221,8.828 25.629,0 25.629,-8.828 51.256,-8.828 25.627,0 25.629,8.828 51.256,8.828 25.571,0 25.571,-8.828 51.143,-8.828 25.585,0 25.585,8.828 51.169,8.828 25.596,0 25.596,-8.828 51.191,-8.828 25.595,0 25.595,8.828 51.19,8.828 25.596,0 25.596,-8.828 51.192,-8.828 0.041,0 0.075,0.002 0.116,0.002 v -26.483 c -0.041,0 -0.075,-0.002 -0.116,-0.002 -25.596,0 -25.596,8.828 -51.192,8.828 -25.594,0 -25.594,-8.828 -51.19,-8.828 -25.596,0 -25.596,8.828 -51.191,8.828 -25.585,0 -25.585,-8.828 -51.169,-8.828 -25.571,0 -25.571,8.828 -51.143,8.828 -25.629,0 -25.629,-8.828 -51.256,-8.828 -25.627,0 -25.629,8.828 -51.256,8.828 -25.611,0 -25.611,-8.828 -51.221,-8.828 -25.588,0 -25.588,8.828 -51.177,8.828 -25.561,0 -25.609,-8.797 -51.088,-8.825 z"
   id="path26" />
	<path
   style="fill:#f5f5f5"
   d="m 0,282.484 c 25.48,0.028 25.527,8.824 51.088,8.824 25.589,0 25.589,-8.828 51.177,-8.828 25.61,0 25.61,8.828 51.221,8.828 25.629,0 25.629,-8.828 51.256,-8.828 25.627,0 25.629,8.828 51.256,8.828 25.571,0 25.571,-8.828 51.143,-8.828 25.585,0 25.585,8.828 51.169,8.828 25.596,0 25.596,-8.828 51.191,-8.828 25.595,0 25.595,8.828 51.19,8.828 25.596,0 25.596,-8.828 51.192,-8.828 0.041,0 0.075,0.002 0.116,0.002 V 256 c -0.041,0 -0.075,-0.002 -0.116,-0.002 -25.596,0 -25.596,8.828 -51.192,8.828 -25.594,0 -25.594,-8.828 -51.19,-8.828 -25.596,0 -25.596,8.828 -51.191,8.828 -25.585,0 -25.585,-8.828 -51.169,-8.828 -25.571,0 -25.571,8.828 -51.143,8.828 -25.629,0 -25.629,-8.828 -51.256,-8.828 -25.627,0 -25.629,8.828 -51.256,8.828 -25.611,0 -25.611,-8.828 -51.221,-8.828 -25.588,0 -25.588,8.828 -51.177,8.828 -25.561,0 -25.609,-8.797 -51.088,-8.825 z"
   id="path28" />
</g>
<path
   style="fill:#41479b"
   d="m 460.692,308.965 c -25.594,0 -25.594,-8.828 -51.19,-8.828 -25.596,0 -25.596,8.828 -51.191,8.828 -25.585,0 -25.585,-8.828 -51.169,-8.828 -25.571,0 -25.571,8.828 -51.142,8.828 -25.629,0 -25.629,-8.828 -51.256,-8.828 -25.629,0 -25.629,8.828 -51.256,8.828 -25.611,0 -25.611,-8.828 -51.221,-8.828 -25.589,0 -25.589,8.828 -51.177,8.828 -25.516,0 -25.612,-8.764 -50.957,-8.823 1.549,19.755 18.059,35.306 38.212,35.306 h 435.309 c 20.154,0 36.665,-15.553 38.215,-35.31 -25.58,0.003 -25.586,8.827 -51.177,8.827 z"
   id="path32" />
<path
   style="fill:#ffe15a"
   d="m 274.38,46.888 c 42.927,-1.66 64.746,-20.396 64.746,-20.396 -3.083,1.185 -51.227,5.217 -64.983,6.403 -8.687,0.748 -19.524,10.653 -26.349,17.865 -1.838,-4.994 -5.431,-10.174 -12.546,-11.224 -14.467,-2.134 -52.888,-4.505 -62.374,-9.013 v 0 c 0,0 6.123,9.465 37.769,13.756 15.162,2.056 23.522,7.256 27.503,10.796 l -3.609,-0.124 c 0,0 0,0 -6.166,-3.084 -6.166,-3.083 -12.333,2.134 -12.333,2.134 h -9.822 c -1.23,0 -1.932,1.405 -1.194,2.388 l 0.945,1.26 c 0.964,1.287 2.479,2.044 4.087,2.044 h 10.015 c 3.558,6.166 17.076,12.57 28.223,12.57 11.146,0 45.299,-15.178 48.619,-15.178 l -30.894,-1.057 z"
   id="path34" />
<g
   id="g36">
</g>
<g
   id="g38">
</g>
<g
   id="g40">
</g>
<g
   id="g42">
</g>
<g
   id="g44">
</g>
<g
   id="g46">
</g>
<g
   id="g48">
</g>
<g
   id="g50">
</g>
<g
   id="g52">
</g>
<g
   id="g54">
</g>
<g
   id="g56">
</g>
<g
   id="g58">
</g>
<g
   id="g60">
</g>
<g
   id="g62">
</g>
<g
   id="g64">
</g>
</svg>
