<?xml version="1.0" encoding="UTF-8" standalone="no"?>
<svg
   xmlns:dc="http://purl.org/dc/elements/1.1/"
   xmlns:cc="http://creativecommons.org/ns#"
   xmlns:rdf="http://www.w3.org/1999/02/22-rdf-syntax-ns#"
   xmlns:svg="http://www.w3.org/2000/svg"
   xmlns="http://www.w3.org/2000/svg"
   xmlns:sodipodi="http://sodipodi.sourceforge.net/DTD/sodipodi-0.dtd"
   xmlns:inkscape="http://www.inkscape.org/namespaces/inkscape"
   version="1.1"
   id="Layer_1"
   x="0px"
   y="0px"
   viewBox="0 0 512 335.45001"
   xml:space="preserve"
   sodipodi:docname="comoros.svg"
   width="512"
   height="335.45001"
   inkscape:version="1.0.1 (c497b03c, 2020-09-10)"><metadata
   id="metadata1131"><rdf:RDF><cc:Work
       rdf:about=""><dc:format>image/svg+xml</dc:format><dc:type
         rdf:resource="http://purl.org/dc/dcmitype/StillImage" /><dc:title></dc:title></cc:Work></rdf:RDF></metadata><defs
   id="defs1129" /><sodipodi:namedview
   pagecolor="#ffffff"
   bordercolor="#666666"
   borderopacity="1"
   objecttolerance="10"
   gridtolerance="10"
   guidetolerance="10"
   inkscape:pageopacity="0"
   inkscape:pageshadow="2"
   inkscape:window-width="1797"
   inkscape:window-height="983"
   id="namedview1127"
   showgrid="false"
   inkscape:zoom="1.640625"
   inkscape:cx="256"
   inkscape:cy="256"
   inkscape:window-x="0"
   inkscape:window-y="23"
   inkscape:window-maximized="0"
   inkscape:current-layer="Layer_1" />
<path
   style="fill:#ffe15a"
   d="M 473.651,0 H 38.292 C 17.807,0 1.077,16.06 0,36.277 V 83.872 H 512 V 38.35 C 512,17.17 494.831,0 473.651,0 Z"
   id="path1074" />
<rect
   y="83.862"
   style="fill:#f5f5f5"
   width="512"
   height="83.870003"
   id="rect1076"
   x="0" />
<rect
   y="167.74199"
   style="fill:#ff4b55"
   width="512"
   height="83.870003"
   id="rect1078"
   x="0" />
<path
   style="fill:#4173cd"
   d="m 0,299.209 c 1.077,20.215 17.807,36.277 38.292,36.277 h 435.359 c 21.18,0 38.349,-17.169 38.349,-38.349 V 251.615 H 0 Z"
   id="path1080" />
<path
   style="fill:#73af00"
   d="M 250.668,164.229 13.669,8.956 C 5.775,15.576 0.584,25.313 0,36.277 V 299.21 c 0.584,10.964 5.775,20.701 13.669,27.321 L 250.668,171.256 c 2.53,-1.659 2.53,-5.368 0,-7.027 z"
   id="path1082" />
<g
   id="g1094"
   transform="translate(0,-88.257)">
	<path
   style="fill:#f5f5f5"
   d="m 48.839,256 c 0,-31.923 20.867,-58.934 49.695,-68.237 1.515,-0.489 1.304,-2.702 -0.275,-2.908 -2.968,-0.388 -5.99,-0.598 -9.065,-0.598 -39.623,0 -71.743,32.121 -71.743,71.743 0,39.622 32.121,71.743 71.743,71.743 3.075,0 6.097,-0.21 9.065,-0.598 1.579,-0.207 1.79,-2.419 0.275,-2.908 C 69.706,314.934 48.839,287.923 48.839,256 Z"
   id="path1084" />
	<path
   style="fill:#f5f5f5"
   d="m 98.901,201.202 1.975,5.922 6.242,0.049 c 0.808,0.007 1.143,1.037 0.493,1.517 l -5.021,3.708 1.883,5.952 c 0.244,0.77 -0.633,1.408 -1.291,0.938 l -5.079,-3.63 -5.079,3.63 c -0.658,0.47 -1.535,-0.168 -1.291,-0.938 l 1.883,-5.952 -5.021,-3.708 c -0.65,-0.48 -0.315,-1.512 0.493,-1.517 l 6.242,-0.049 1.975,-5.922 c 0.255,-0.767 1.34,-0.767 1.596,0 z"
   id="path1086" />
	<path
   style="fill:#f5f5f5"
   d="m 98.901,231.212 1.975,5.922 6.242,0.049 c 0.808,0.007 1.143,1.037 0.493,1.517 l -5.021,3.708 1.883,5.952 c 0.244,0.77 -0.633,1.408 -1.291,0.938 l -5.079,-3.63 -5.079,3.63 c -0.658,0.47 -1.535,-0.168 -1.291,-0.938 l 1.883,-5.952 -5.021,-3.708 c -0.65,-0.48 -0.315,-1.512 0.493,-1.517 l 6.242,-0.049 1.975,-5.922 c 0.255,-0.767 1.34,-0.767 1.596,0 z"
   id="path1088" />
	<path
   style="fill:#f5f5f5"
   d="m 98.901,261.221 1.975,5.922 6.242,0.049 c 0.808,0.007 1.143,1.037 0.493,1.517 l -5.021,3.708 1.883,5.952 c 0.244,0.77 -0.633,1.408 -1.291,0.938 l -5.079,-3.63 -5.079,3.63 c -0.658,0.47 -1.535,-0.168 -1.291,-0.938 l 1.883,-5.952 -5.021,-3.708 c -0.65,-0.48 -0.315,-1.512 0.493,-1.517 l 6.242,-0.049 1.975,-5.922 c 0.255,-0.767 1.34,-0.767 1.596,0 z"
   id="path1090" />
	<path
   style="fill:#f5f5f5"
   d="m 98.901,291.229 1.975,5.922 6.242,0.049 c 0.808,0.007 1.143,1.037 0.493,1.517 l -5.021,3.708 1.883,5.952 c 0.244,0.77 -0.633,1.408 -1.291,0.938 l -5.079,-3.63 -5.079,3.63 c -0.658,0.47 -1.535,-0.168 -1.291,-0.938 l 1.883,-5.952 -5.021,-3.708 c -0.65,-0.48 -0.315,-1.512 0.493,-1.517 l 6.242,-0.049 1.975,-5.922 c 0.255,-0.765 1.34,-0.765 1.596,0 z"
   id="path1092" />
</g>
<g
   id="g1096">
</g>
<g
   id="g1098">
</g>
<g
   id="g1100">
</g>
<g
   id="g1102">
</g>
<g
   id="g1104">
</g>
<g
   id="g1106">
</g>
<g
   id="g1108">
</g>
<g
   id="g1110">
</g>
<g
   id="g1112">
</g>
<g
   id="g1114">
</g>
<g
   id="g1116">
</g>
<g
   id="g1118">
</g>
<g
   id="g1120">
</g>
<g
   id="g1122">
</g>
<g
   id="g1124">
</g>
</svg>
