<?xml version="1.0" encoding="UTF-8" standalone="no"?>
<svg
   xmlns:dc="http://purl.org/dc/elements/1.1/"
   xmlns:cc="http://creativecommons.org/ns#"
   xmlns:rdf="http://www.w3.org/1999/02/22-rdf-syntax-ns#"
   xmlns:svg="http://www.w3.org/2000/svg"
   xmlns="http://www.w3.org/2000/svg"
   xmlns:sodipodi="http://sodipodi.sourceforge.net/DTD/sodipodi-0.dtd"
   xmlns:inkscape="http://www.inkscape.org/namespaces/inkscape"
   version="1.1"
   id="Layer_1"
   x="0px"
   y="0px"
   viewBox="0 0 512 335.45001"
   xml:space="preserve"
   sodipodi:docname="kp.svg"
   width="512"
   height="335.45001"
   inkscape:version="1.0.1 (c497b03c, 2020-09-10)"><metadata
   id="metadata833"><rdf:RDF><cc:Work
       rdf:about=""><dc:format>image/svg+xml</dc:format><dc:type
         rdf:resource="http://purl.org/dc/dcmitype/StillImage" /><dc:title></dc:title></cc:Work></rdf:RDF></metadata><defs
   id="defs831" /><sodipodi:namedview
   pagecolor="#ffffff"
   bordercolor="#666666"
   borderopacity="1"
   objecttolerance="10"
   gridtolerance="10"
   guidetolerance="10"
   inkscape:pageopacity="0"
   inkscape:pageshadow="2"
   inkscape:window-width="859"
   inkscape:window-height="480"
   id="namedview829"
   showgrid="false"
   inkscape:zoom="0.61328125"
   inkscape:cx="256"
   inkscape:cy="256"
   inkscape:window-x="0"
   inkscape:window-y="23"
   inkscape:window-maximized="0"
   inkscape:current-layer="Layer_1" />
<g
   id="g784"
   transform="translate(0,-88.276)">
	<path
   style="fill:#41479b"
   d="m 0,385.379 c 0,21.177 17.167,38.345 38.345,38.345 h 435.31 c 21.177,0 38.345,-17.167 38.345,-38.345 v -5.793 H 0 Z"
   id="path780" />
	<path
   style="fill:#41479b"
   d="M 473.655,88.276 H 38.345 C 17.167,88.276 0,105.443 0,126.621 v 5.793 h 512 v -5.793 c 0,-21.178 -17.167,-38.345 -38.345,-38.345 z"
   id="path782" />
</g>
<g
   id="g790"
   transform="translate(0,-88.276)">
	<rect
   y="132.41"
   style="fill:#f5f5f5"
   width="512"
   height="17.655001"
   id="rect786"
   x="0" />
	<rect
   y="361.92999"
   style="fill:#f5f5f5"
   width="512"
   height="17.655001"
   id="rect788"
   x="0" />
</g>
<rect
   y="61.794006"
   style="fill:#ff4b55"
   width="512"
   height="211.86"
   id="rect792"
   x="0" />
<circle
   style="fill:#f5f5f5"
   cx="141.24001"
   cy="167.724"
   r="70.620003"
   id="circle794" />
<path
   style="fill:#ff4b55"
   d="m 143.122,103.429 14.167,42.478 44.777,0.348 c 1.905,0.014 2.695,2.445 1.162,3.577 l -36.021,26.6 13.506,42.692 c 0.575,1.816 -1.493,3.318 -3.042,2.211 l -36.429,-26.039 -36.429,26.038 c -1.549,1.108 -3.617,-0.395 -3.042,-2.211 l 13.507,-42.692 -36.021,-26.6 c -1.533,-1.131 -0.743,-3.562 1.162,-3.577 l 44.777,-0.348 14.167,-42.478 c 0.601,-1.806 3.156,-1.806 3.759,0.001 z"
   id="path796" />
<g
   id="g798"
   transform="translate(0,-88.276)">
</g>
<g
   id="g800"
   transform="translate(0,-88.276)">
</g>
<g
   id="g802"
   transform="translate(0,-88.276)">
</g>
<g
   id="g804"
   transform="translate(0,-88.276)">
</g>
<g
   id="g806"
   transform="translate(0,-88.276)">
</g>
<g
   id="g808"
   transform="translate(0,-88.276)">
</g>
<g
   id="g810"
   transform="translate(0,-88.276)">
</g>
<g
   id="g812"
   transform="translate(0,-88.276)">
</g>
<g
   id="g814"
   transform="translate(0,-88.276)">
</g>
<g
   id="g816"
   transform="translate(0,-88.276)">
</g>
<g
   id="g818"
   transform="translate(0,-88.276)">
</g>
<g
   id="g820"
   transform="translate(0,-88.276)">
</g>
<g
   id="g822"
   transform="translate(0,-88.276)">
</g>
<g
   id="g824"
   transform="translate(0,-88.276)">
</g>
<g
   id="g826"
   transform="translate(0,-88.276)">
</g>
</svg>
