<?xml version="1.0" encoding="UTF-8" standalone="no"?>
<svg
   xmlns:dc="http://purl.org/dc/elements/1.1/"
   xmlns:cc="http://creativecommons.org/ns#"
   xmlns:rdf="http://www.w3.org/1999/02/22-rdf-syntax-ns#"
   xmlns:svg="http://www.w3.org/2000/svg"
   xmlns="http://www.w3.org/2000/svg"
   xmlns:sodipodi="http://sodipodi.sourceforge.net/DTD/sodipodi-0.dtd"
   xmlns:inkscape="http://www.inkscape.org/namespaces/inkscape"
   version="1.1"
   id="Layer_1"
   x="0px"
   y="0px"
   viewBox="0 0 512 335.45001"
   xml:space="preserve"
   sodipodi:docname="kr.svg"
   width="512"
   height="335.45001"
   inkscape:version="1.0.1 (c497b03c, 2020-09-10)"><metadata
   id="metadata177"><rdf:RDF><cc:Work
       rdf:about=""><dc:format>image/svg+xml</dc:format><dc:type
         rdf:resource="http://purl.org/dc/dcmitype/StillImage" /><dc:title></dc:title></cc:Work></rdf:RDF></metadata><defs
   id="defs175" /><sodipodi:namedview
   pagecolor="#ffffff"
   bordercolor="#666666"
   borderopacity="1"
   objecttolerance="10"
   gridtolerance="10"
   guidetolerance="10"
   inkscape:pageopacity="0"
   inkscape:pageshadow="2"
   inkscape:window-width="1378"
   inkscape:window-height="887"
   id="namedview173"
   showgrid="false"
   inkscape:zoom="1.2070312"
   inkscape:cx="256"
   inkscape:cy="256"
   inkscape:window-x="0"
   inkscape:window-y="23"
   inkscape:window-maximized="0"
   inkscape:current-layer="Layer_1" />
<path
   style="fill:#f5f5f5"
   d="M 473.655,0 H 38.345 C 17.167,0 0,17.167 0,38.345 v 258.76 c 0,21.177 17.167,38.345 38.345,38.345 h 435.31 C 494.832,335.45 512,318.283 512,297.105 V 38.345 C 512,17.167 494.833,0 473.655,0 Z"
   id="path98" />
<path
   style="fill:#ff4b55"
   d="m 305.009,94.256 c -40.563,-27.042 -95.35,-15.986 -122.374,24.506 -13.555,20.211 -8.045,47.674 12.235,61.195 20.265,13.521 47.64,8.03 61.161,-12.252 13.521,-20.281 40.914,-25.704 61.178,-12.254 20.298,13.521 25.757,40.984 12.217,61.195 27.042,-40.559 16.111,-95.347 -24.417,-122.39"
   id="path100" />
<path
   style="fill:#41479b"
   d="m 182.634,118.763 c -13.555,20.211 -8.045,47.674 12.235,61.195 20.265,13.521 47.64,8.03 61.161,-12.252 13.521,-20.281 40.914,-25.704 61.178,-12.254 20.298,13.521 25.757,40.984 12.217,61.195 -27.006,40.632 -81.775,51.549 -122.338,24.507 -40.526,-27.039 -51.494,-81.827 -24.453,-122.391"
   id="path102" />
<g
   id="g140"
   transform="translate(0,-88.275)">
	<path
   style="fill:#464655"
   d="m 349.92,149.189 16.035,24.102 c 1.347,2.025 0.802,4.759 -1.219,6.112 l -4.066,2.723 c -2.029,1.358 -4.775,0.812 -6.129,-1.22 L 338.486,156.81 c -1.351,-2.027 -0.803,-4.766 1.223,-6.119 l 4.086,-2.728 c 2.03,-1.355 4.773,-0.805 6.125,1.226 z"
   id="path104" />
	<path
   style="fill:#464655"
   d="m 374.66,186.35 16.087,24.087 c 1.358,2.034 0.804,4.786 -1.237,6.134 l -4.084,2.699 c -2.026,1.34 -4.754,0.789 -6.103,-1.23 l -16.078,-24.062 c -1.354,-2.026 -0.81,-4.767 1.217,-6.122 l 4.075,-2.724 c 2.026,-1.355 4.768,-0.81 6.123,1.218 z"
   id="path106" />
	<path
   style="fill:#464655"
   d="m 367.089,137.731 40.829,61.273 c 1.352,2.028 0.803,4.768 -1.225,6.12 l -4.102,2.734 c -2.028,1.352 -4.769,0.804 -6.121,-1.224 l -40.843,-61.269 c -1.353,-2.029 -0.803,-4.771 1.227,-6.123 l 4.115,-2.739 c 2.029,-1.347 4.768,-0.8 6.12,1.228 z"
   id="path108" />
	<path
   style="fill:#464655"
   d="m 384.211,126.291 16.07,24.149 c 1.354,2.034 0.798,4.78 -1.241,6.127 l -4.087,2.7 c -2.028,1.34 -4.757,0.789 -6.105,-1.234 l -16.082,-24.117 c -1.353,-2.028 -0.804,-4.769 1.224,-6.122 l 4.099,-2.732 c 2.028,-1.352 4.77,-0.803 6.122,1.229 z"
   id="path110" />
	<path
   style="fill:#464655"
   d="m 408.967,163.531 16.045,24.099 c 1.35,2.026 0.803,4.762 -1.22,6.115 l -4.075,2.724 c -2.029,1.356 -4.775,0.809 -6.127,-1.223 l -16.045,-24.099 c -1.349,-2.026 -0.803,-4.762 1.22,-6.115 l 4.075,-2.724 c 2.03,-1.357 4.774,-0.811 6.127,1.223 z"
   id="path112" />
	<path
   style="fill:#464655"
   d="m 132.721,293.982 40.824,61.207 c 1.352,2.027 0.806,4.767 -1.222,6.12 l -4.088,2.73 c -2.028,1.354 -4.769,0.807 -6.123,-1.222 L 121.288,301.61 c -1.353,-2.027 -0.806,-4.767 1.222,-6.12 l 4.089,-2.73 c 2.027,-1.354 4.769,-0.807 6.122,1.222 z"
   id="path114" />
	<path
   style="fill:#464655"
   d="m 115.582,305.43 16.028,24.041 c 1.351,2.026 0.806,4.761 -1.217,6.116 l -4.066,2.722 c -2.027,1.357 -4.771,0.812 -6.126,-1.217 l -16.047,-24.035 c -1.354,-2.027 -0.808,-4.768 1.22,-6.122 l 4.086,-2.728 c 2.027,-1.353 4.769,-0.806 6.122,1.223 z"
   id="path116" />
	<path
   style="fill:#464655"
   d="m 140.351,342.604 16.046,24.102 c 1.35,2.026 0.803,4.763 -1.222,6.115 l -4.078,2.727 c -2.029,1.356 -4.772,0.809 -6.126,-1.222 l -16.056,-24.097 c -1.351,-2.027 -0.804,-4.766 1.222,-6.118 l 4.088,-2.73 c 2.03,-1.357 4.773,-0.808 6.126,1.223 z"
   id="path118" />
	<path
   style="fill:#464655"
   d="m 98.442,316.875 40.798,61.21 c 1.351,2.026 0.804,4.764 -1.219,6.118 l -4.077,2.726 c -2.028,1.356 -4.771,0.809 -6.125,-1.22 L 86.997,324.507 c -1.353,-2.028 -0.804,-4.769 1.224,-6.122 l 4.102,-2.734 c 2.026,-1.352 4.767,-0.804 6.119,1.224 z"
   id="path120" />
	<path
   style="fill:#464655"
   d="m 121.294,210.441 40.818,-61.257 c 1.353,-2.03 4.095,-2.578 6.124,-1.224 l 4.087,2.729 c 2.027,1.353 2.573,4.093 1.222,6.12 l -40.834,61.223 c -1.35,2.023 -4.081,2.573 -6.108,1.231 l -4.071,-2.695 c -2.038,-1.348 -2.592,-4.095 -1.238,-6.127 z"
   id="path122" />
	<path
   style="fill:#464655"
   d="m 104.147,199.008 40.825,-61.269 c 1.353,-2.03 4.097,-2.578 6.126,-1.222 l 4.077,2.726 c 2.024,1.353 2.57,4.09 1.22,6.116 l -40.814,61.272 c -1.353,2.03 -4.095,2.579 -6.124,1.224 l -4.088,-2.729 c -2.026,-1.352 -2.573,-4.091 -1.222,-6.118 z"
   id="path124" />
	<path
   style="fill:#464655"
   d="m 86.99,187.624 40.829,-61.33 c 1.353,-2.031 4.098,-2.58 6.127,-1.224 l 4.077,2.726 c 2.023,1.353 2.57,4.087 1.222,6.114 l -40.804,61.339 c -1.351,2.03 -4.094,2.581 -6.123,1.228 l -4.1,-2.734 c -2.029,-1.352 -2.577,-4.091 -1.228,-6.119 z"
   id="path126" />
	<path
   style="fill:#464655"
   d="m 338.493,355.188 16.047,-24.035 c 1.355,-2.029 4.099,-2.574 6.126,-1.217 l 4.066,2.722 c 2.023,1.354 2.567,4.09 1.216,6.116 l -16.028,24.04 c -1.353,2.029 -4.095,2.577 -6.123,1.223 l -4.086,-2.728 c -2.026,-1.353 -2.572,-4.093 -1.218,-6.121 z"
   id="path128" />
	<path
   style="fill:#464655"
   d="m 363.243,318.141 16.073,-24.154 c 1.351,-2.03 4.094,-2.58 6.123,-1.227 l 4.096,2.73 c 2.029,1.353 2.577,4.096 1.223,6.124 l -16.107,24.116 c -1.351,2.022 -4.082,2.571 -6.109,1.227 l -4.062,-2.692 c -2.035,-1.35 -2.589,-4.093 -1.237,-6.124 z"
   id="path130" />
	<path
   style="fill:#464655"
   d="M 355.626,366.698 371.683,342.6 c 1.352,-2.029 4.093,-2.578 6.122,-1.225 l 4.104,2.737 c 2.027,1.352 2.575,4.09 1.225,6.119 l -16.047,24.1 c -1.351,2.029 -4.09,2.579 -6.12,1.228 l -4.115,-2.739 c -2.028,-1.351 -2.578,-4.093 -1.226,-6.122 z"
   id="path132" />
	<path
   style="fill:#464655"
   d="m 380.403,329.463 16.066,-24.042 c 1.354,-2.025 4.092,-2.571 6.119,-1.22 l 4.102,2.734 c 2.03,1.353 2.577,4.096 1.221,6.125 l -16.066,24.043 c -1.353,2.025 -4.092,2.571 -6.118,1.22 l -4.103,-2.734 c -2.03,-1.354 -2.577,-4.097 -1.221,-6.126 z"
   id="path134" />
	<path
   style="fill:#464655"
   d="m 372.771,378.081 16.075,-24.056 c 1.35,-2.019 4.077,-2.569 6.103,-1.23 l 4.086,2.7 c 2.04,1.348 2.595,4.097 1.239,6.131 l -16.063,24.088 c -1.352,2.028 -4.093,2.575 -6.121,1.224 l -4.098,-2.732 c -2.03,-1.354 -2.577,-4.097 -1.221,-6.125 z"
   id="path136" />
	<path
   style="fill:#464655"
   d="m 397.554,340.969 16.035,-24.085 c 1.353,-2.031 4.098,-2.58 6.127,-1.223 l 4.072,2.722 c 2.025,1.354 2.57,4.093 1.218,6.119 l -16.049,24.053 c -1.349,2.024 -4.083,2.573 -6.11,1.229 l -4.06,-2.69 c -2.033,-1.349 -2.586,-4.094 -1.233,-6.125 z"
   id="path138" />
</g>
<g
   id="g142"
   transform="translate(0,-88.275)">
</g>
<g
   id="g144"
   transform="translate(0,-88.275)">
</g>
<g
   id="g146"
   transform="translate(0,-88.275)">
</g>
<g
   id="g148"
   transform="translate(0,-88.275)">
</g>
<g
   id="g150"
   transform="translate(0,-88.275)">
</g>
<g
   id="g152"
   transform="translate(0,-88.275)">
</g>
<g
   id="g154"
   transform="translate(0,-88.275)">
</g>
<g
   id="g156"
   transform="translate(0,-88.275)">
</g>
<g
   id="g158"
   transform="translate(0,-88.275)">
</g>
<g
   id="g160"
   transform="translate(0,-88.275)">
</g>
<g
   id="g162"
   transform="translate(0,-88.275)">
</g>
<g
   id="g164"
   transform="translate(0,-88.275)">
</g>
<g
   id="g166"
   transform="translate(0,-88.275)">
</g>
<g
   id="g168"
   transform="translate(0,-88.275)">
</g>
<g
   id="g170"
   transform="translate(0,-88.275)">
</g>
</svg>
