<?xml version="1.0" encoding="UTF-8" standalone="no"?>
<svg
   xmlns:dc="http://purl.org/dc/elements/1.1/"
   xmlns:cc="http://creativecommons.org/ns#"
   xmlns:rdf="http://www.w3.org/1999/02/22-rdf-syntax-ns#"
   xmlns:svg="http://www.w3.org/2000/svg"
   xmlns="http://www.w3.org/2000/svg"
   xmlns:sodipodi="http://sodipodi.sourceforge.net/DTD/sodipodi-0.dtd"
   xmlns:inkscape="http://www.inkscape.org/namespaces/inkscape"
   version="1.1"
   id="Layer_1"
   x="0px"
   y="0px"
   viewBox="0 0 512 335.45001"
   xml:space="preserve"
   sodipodi:docname="cayman-islands.svg"
   width="512"
   height="335.45001"
   inkscape:version="1.0.1 (c497b03c, 2020-09-10)"><metadata
   id="metadata598"><rdf:RDF><cc:Work
       rdf:about=""><dc:format>image/svg+xml</dc:format><dc:type
         rdf:resource="http://purl.org/dc/dcmitype/StillImage" /><dc:title></dc:title></cc:Work></rdf:RDF></metadata><defs
   id="defs596" /><sodipodi:namedview
   pagecolor="#ffffff"
   bordercolor="#666666"
   borderopacity="1"
   objecttolerance="10"
   gridtolerance="10"
   guidetolerance="10"
   inkscape:pageopacity="0"
   inkscape:pageshadow="2"
   inkscape:window-width="1797"
   inkscape:window-height="983"
   id="namedview594"
   showgrid="false"
   inkscape:zoom="1.640625"
   inkscape:cx="256"
   inkscape:cy="256"
   inkscape:window-x="0"
   inkscape:window-y="23"
   inkscape:window-maximized="0"
   inkscape:current-layer="Layer_1" />
<path
   style="fill:#41479b"
   d="M 473.655,335.5 H 38.345 C 17.167,335.5 0,318.332 0,297.155 V 38.396 C 0,17.219 17.167,0.051 38.345,0.051 h 435.31 C 494.832,0.051 512,17.218 512,38.396 v 258.759 c 0,21.177 -17.167,38.345 -38.345,38.345 z"
   id="path393" />
<path
   style="fill:#f5f5f5"
   d="m 8.828,167.725 h 15.334 l 81.77,-53.574 v 53.574 h 44.138 v -53.574 l 81.77,53.574 h 15.334 c 4.875,0 8.828,-3.953 8.828,-8.828 v -7.002 L 185.847,105.932 H 256 V 61.794 H 185.845 L 256,15.831 V 8.829 C 256,4.27 252.544,0.52 248.109,0.052 H 231.761 L 150.068,53.575 V 0.051 H 105.93 V 53.574 L 26.894,1.791 C 17.652,4.679 9.921,10.977 5.153,19.206 L 70.155,61.794 H 0 v 44.138 H 70.155 L 0,151.895 v 7.002 c 0,4.875 3.953,8.828 8.828,8.828 z"
   id="path395" />
<g
   id="g407"
   transform="translate(0,-88.25)">
	<polygon
   style="fill:#ff4b55"
   points="141.241,88.25 114.759,88.25 114.759,158.871 0,158.871 0,185.354 114.759,185.354 114.759,255.975 141.241,255.975 141.241,185.354 256,185.354 256,158.871 141.241,158.871 "
   id="polygon397" />
	<path
   style="fill:#ff4b55"
   d="M 8.254,102.894 80.89,150.043 H 97.104 L 14.643,96.516 c -2.372,1.869 -4.517,4.009 -6.389,6.378 z"
   id="path399" />
	<path
   style="fill:#ff4b55"
   d="m 166.283,150.044 88.374,-57.366 c -1.536,-2.599 -4.246,-4.427 -7.485,-4.427 h -1.909 l -95.194,61.793 z"
   id="path401" />
	<path
   style="fill:#ff4b55"
   d="M 89.474,194.182 1.269,251.437 c 1.519,2.663 4.273,4.537 7.559,4.537 h 1.665 l 95.196,-61.793 H 89.474 Z"
   id="path403" />
	<path
   style="fill:#ff4b55"
   d="M 255.86,247.841 173.194,194.183 H 156.98 l 93.874,60.935 c 2.812,-1.306 4.741,-4.042 5.006,-7.277 z"
   id="path405" />
</g>
<g
   id="g439"
   transform="translate(0,-88.25)">
	<path
   style="fill:#ffe15a"
   d="m 383.828,172.193 c 0,0 -3.691,-14.766 -14.766,-22.15 0,0 11.074,18.457 11.074,33.224 z"
   id="path409" />
	<path
   style="fill:#ffe15a"
   d="m 366.754,156.158 c 0,0 7.73,4.729 11.882,12.459 l -3.346,7.73 c 0.002,-0.002 -2.767,-10.96 -8.536,-20.189 z"
   id="path411" />
	<path
   style="fill:#ffe15a"
   d="m 358.218,157.888 c 0,0 13.382,4.153 19.726,12.806 l -3.807,5.768 c 0,-10e-4 -5.075,-9.806 -15.919,-18.574 z"
   id="path413" />
	<path
   style="fill:#ffe15a"
   d="m 356.257,164.579 c 0,0 14.074,2.191 20.419,8.883 l -1.615,6.345 c 0,0 -7.73,-9.229 -18.804,-15.228 z"
   id="path415" />
	<path
   style="fill:#ffe15a"
   d="m 356.718,169.194 c 0,0 13.612,1.385 19.842,8.536 6.229,7.153 -2.307,4.96 -2.307,4.96 0,0 -7.152,-8.19 -17.535,-13.496 z"
   id="path417" />
	<path
   style="fill:#ffe15a"
   d="m 383.828,172.193 c 0,0 3.691,-14.766 14.766,-22.15 0,0 -11.074,18.457 -11.074,33.224 z"
   id="path419" />
	<path
   style="fill:#ffe15a"
   d="m 400.901,156.158 c 0,0 -7.73,4.729 -11.882,12.459 l 3.346,7.73 c 0,-0.002 2.769,-10.96 8.536,-20.189 z"
   id="path421" />
	<path
   style="fill:#ffe15a"
   d="m 409.438,157.888 c 0,0 -13.382,4.153 -19.726,12.806 l 3.807,5.768 c -0.001,-10e-4 5.075,-9.806 15.919,-18.574 z"
   id="path423" />
	<path
   style="fill:#ffe15a"
   d="m 411.4,164.579 c 0,0 -14.074,2.191 -20.419,8.883 l 1.615,6.345 c 0,0 7.728,-9.229 18.804,-15.228 z"
   id="path425" />
	<path
   style="fill:#ffe15a"
   d="m 410.937,169.194 c 0,0 -13.612,1.385 -19.842,8.536 -6.229,7.153 2.307,4.96 2.307,4.96 0,0 7.153,-8.19 17.535,-13.496 z"
   id="path427" />
	<path
   style="fill:#ffe15a"
   d="m 383.828,150.044 c 0,0 -3.691,7.767 0,11.651 3.692,-3.884 0,-11.651 0,-11.651 z"
   id="path429" />
	<path
   style="fill:#ffe15a"
   d="m 380.15,151.972 c 0,0 -0.495,8.586 4.386,10.794 1.959,-4.987 -4.386,-10.794 -4.386,-10.794 z"
   id="path431" />
	<path
   style="fill:#ffe15a"
   d="m 387.506,151.972 c 0,0 0.495,8.586 -4.386,10.794 -1.959,-4.987 4.386,-10.794 4.386,-10.794 z"
   id="path433" />
	<path
   style="fill:#ffe15a"
   d="m 388.715,156.925 c 0,0 -3.221,7.975 -8.578,7.884 0.361,-5.346 8.578,-7.884 8.578,-7.884 z"
   id="path435" />
	<path
   style="fill:#ffe15a"
   d="m 378.941,156.925 c 0,0 3.221,7.975 8.578,7.884 -0.361,-5.346 -8.578,-7.884 -8.578,-7.884 z"
   id="path437" />
</g>
<ellipse
   style="fill:#ffd255"
   cx="383.82001"
   cy="87.639999"
   rx="11.08"
   ry="14.766"
   id="ellipse441" />
<g
   id="g451"
   transform="translate(0,-88.25)">
	<path
   style="fill:#73af00"
   d="m 358.526,190.958 -2.538,-3.923 c 0,0 -7.383,1.769 -9.152,-3.768 l -2.846,-0.231 c 0,0 0.384,-3.768 3.691,-4.307 0,0 1.999,-2.461 5.537,-1.999 3.538,0.461 5.384,3.46 7.422,4.23 2.038,0.769 2.269,3.307 2.269,3.307 l 15.535,15.919 c 0,0 -4.46,5.692 -8.46,7.537 -4,1.845 -18.688,-7.151 -11.458,-16.765 z"
   id="path443" />
	<path
   style="fill:#73af00"
   d="m 408.977,193.88 c 0,0 6.461,4.384 6.691,16.497 h -10.729 c 0,0 0.116,-8.191 -1.961,-12.574 z"
   id="path445" />
	<path
   style="fill:#73af00"
   d="m 407.593,194.343 c 0,0 8.075,2.654 13.036,-3.691 l -8.422,-1.153 z"
   id="path447" />
	<path
   style="fill:#73af00"
   d="m 405.17,185.46 8.2,2.764 c 1.034,0.349 1.399,1.629 0.674,2.445 -3.111,3.505 -12.397,11.903 -27.37,11.903 -19.496,0 -24.533,-12.267 -24.764,-13.19 -0.231,-0.922 -1.269,-8.422 -1.269,-8.422 l 8.306,-0.922 z"
   id="path449" />
</g>
<g
   id="g457"
   transform="translate(0,-88.25)">
	<polygon
   style="fill:#ff4b55"
   points="335.838,319.854 324.764,305.088 325.44,298.403 346.913,298.403 "
   id="polygon453" />
	<polygon
   style="fill:#ff4b55"
   points="431.818,319.854 442.892,305.088 442.216,298.403 420.744,298.403 "
   id="polygon455" />
</g>
<g
   id="g463"
   transform="translate(0,-88.25)">
	<path
   style="fill:#ffd25a"
   d="m 325.351,334.621 c -10.593,0 -18.699,-5.685 -19.117,-5.981 l 8.536,-12.052 c 0.071,0.046 7.223,4.906 14.516,2.697 7.38,-2.228 12.225,-10.937 14.991,-17.856 l 13.71,5.486 c -5.816,14.542 -14.112,23.479 -24.651,26.569 -2.756,0.809 -5.443,1.137 -7.985,1.137 z"
   id="path459" />
	<path
   style="fill:#ffd25a"
   d="m 442.305,334.621 c 10.593,0 18.699,-5.685 19.117,-5.981 l -8.536,-12.052 c -0.071,0.046 -7.223,4.906 -14.516,2.697 -7.38,-2.228 -12.225,-10.937 -14.991,-17.856 l -13.71,5.486 c 5.816,14.542 14.112,23.479 24.651,26.569 2.756,0.809 5.444,1.137 7.985,1.137 z"
   id="path461" />
</g>
<path
   style="fill:#ff4b55"
   d="m 431.818,168.848 h -95.98 v -35.47 c 0,-4.875 3.953,-8.828 8.828,-8.828 h 78.325 c 4.875,0 8.828,3.953 8.828,8.828 z"
   id="path465" />
<g
   id="g473"
   transform="translate(0,-88.25)">
	<path
   style="fill:#ffe15a"
   d="m 362.025,238.641 -1.153,-7.383 c -5.422,-0.231 -8.536,-6.575 -8.536,-6.575 l -4.384,2.422 c 4.613,11.074 14.073,11.536 14.073,11.536 z"
   id="path467" />
	<path
   style="fill:#ffe15a"
   d="m 419.82,231.027 c 1.615,-1.23 5.153,-1.692 5.153,-1.692 -2.538,-2.615 -5.306,-0.769 -5.306,-0.769 2.307,-2.153 1,-5.229 1,-5.229 0,1 -1.615,1.692 -1.615,1.692 0.077,-1.999 -1.999,-3.923 -1.999,-3.923 l -1.077,1.769 c -0.692,-1.692 -3.153,-2.999 -3.153,-2.999 l -1,4.153 c -2.307,-1.999 -6.383,-1.846 -6.383,-1.846 l 0.769,1.923 c -2.461,0.076 -9.152,1.461 -13.075,1.922 -3.923,0.461 -7.075,-0.615 -7.075,-2.383 0,-1.482 3.428,-1.665 4.911,-1.687 1.049,0.234 2.368,0.612 4.222,1.169 3.46,1.038 5.487,-0.466 5.487,-0.466 -1.212,-0.461 -1.346,-1 -1.346,-1 2.595,-1.5 5.03,-1.13 5.03,-1.13 -0.865,-1.903 -4.615,-1.788 -4.615,-1.788 0.981,-0.519 1.73,-2.134 1.73,-2.134 -0.231,0.231 -2.362,0.754 -5.272,1.144 -2.19,0.295 -4.247,1.96 -5.097,2.73 -2.31,-0.177 -8.342,-0.25 -7.281,3.933 1.308,5.153 11.69,3.307 18.073,2.307 6.383,-1 9.69,-0.153 11.074,0.692 1.385,0.846 -0.589,3.712 -7.075,2.538 -5.605,-1.014 -8.692,-1.043 -10.387,-0.865 -1.879,0.12 -3.481,0.626 -4.61,0.865 -2.538,0.538 -12.306,3.999 -14.151,-1 -1.846,-5 -10.844,8.152 -10.844,8.152 l 0.703,0.836 -2.395,-0.567 c -3.23,4.326 -12.92,5.653 -12.92,5.653 0,0 -1.442,-2.595 -2.654,-2.942 -1.212,-0.346 -1.73,1.557 -1.73,1.557 0,0 -1.442,0.057 -1.557,1.385 -0.116,1.326 1.038,1.442 1.038,1.442 0,0 -1.385,2.019 0.922,2.595 0,0 -0.173,2.826 3.23,0.865 10.11,1.274 17.482,-3.917 20.674,-6.749 2.087,0.134 5.339,0.067 7.839,-1.23 3.999,-2.077 8.614,-4.692 11.305,-3.691 0,0 2.154,6.614 -6.306,6.767 0,0 -1.251,-1.582 -2.51,-1.582 -0.543,0 -1.108,0.652 -0.934,1.238 0,0 -1.476,-0.087 -1.737,0.782 -0.213,0.708 0.303,1.519 1.389,1.389 0,0 -0.738,1.086 0,1.737 0.738,0.651 1.651,0 1.651,0 0,0 -0.391,1.346 0.521,1.476 0.78,0.111 1.813,-1.163 2.109,-1.55 1.354,0.211 10.591,1.276 12.586,-8.413 0,0 4.615,1.999 9.152,1.615 4.537,-0.384 8.999,0.308 8.614,2.538 -0.503,1.617 -1.495,1.51 -1.495,1.51 -1.086,-0.435 -2.91,-0.391 -3.17,1.173 -0.26,1.564 1.867,1.607 1.867,1.607 0.608,1.433 2.345,0.825 2.345,0.825 1.519,1.086 2.519,-0.087 2.519,-0.087 0.652,0.565 1.324,0.67 1.954,0.13 0.608,-0.521 0.267,-3.996 0.209,-5.236 -0.096,-2.063 -0.385,-7.459 -3.384,-7.537 -2.999,-0.077 -6.845,1.692 -12.151,-2.769 -0.277,-0.233 -0.547,-0.381 -0.821,-0.579 2.511,0.233 4.31,0.914 6.051,1.194 2.385,0.386 9.384,-0.23 10.998,-1.46 z"
   id="path469" />
	<path
   style="fill:#ffe15a"
   d="m 347.95,227.104 c 0,0 -1.471,0.04 -2.191,-0.173 -1.235,-0.364 -1.385,-2.307 -0.057,-2.654 0,0 -1.597,-1.085 -0.865,-2.307 0.586,-0.978 2.079,-0.975 2.598,-0.398 0,0 -0.487,-1.609 0.921,-2.14 1.12,-0.423 2.019,0.865 2.019,2.538 0,0 1.674,-1.362 2.538,-0.461 0.602,0.628 0.429,1.453 -0.577,3.172 -1.027,1.755 -4.386,2.423 -4.386,2.423 z"
   id="path471" />
</g>
<g
   id="g493"
   transform="translate(0,-88.25)">
	<path
   style="fill:#41479b"
   d="m 346.131,226.393 c 0,0 -0.781,1.346 -3.04,0.521 0,0 1.954,-0.913 2.215,-1.694 z"
   id="path475" />
	<path
   style="fill:#41479b"
   d="m 345.305,222.441 c 0,0 -1.216,-0.781 -2.562,-0.738 0,0 1.997,-1.476 3.691,-0.173 z"
   id="path477" />
	<path
   style="fill:#41479b"
   d="m 348.129,220.356 c 0,0 0.391,-1.433 -0.391,-2.215 0,0 1.607,0.695 1.824,1.997 z"
   id="path479" />
	<path
   style="fill:#41479b"
   d="m 351.69,221.833 c 0,0 0.781,-1.737 0.087,-2.562 0,0 2.084,1.216 1.216,3.214 z"
   id="path481" />
	<path
   style="fill:#41479b"
   d="m 347.62,241.134 c 0,0 -0.836,-1.711 -1.914,-1.705 0,0 2.268,-0.825 3.249,1.12 z"
   id="path483" />
	<path
   style="fill:#41479b"
   d="m 345.793,243.315 c 0,0 -1.491,-1.186 -2.462,-0.716 0,0 1.693,-1.72 3.414,-0.386 z"
   id="path485" />
	<path
   style="fill:#41479b"
   d="m 346.84,246.391 c 0,0 -1.905,-0.021 -2.383,0.946 0,0 0.28,-2.397 2.458,-2.4 z"
   id="path487" />
	<path
   style="fill:#41479b"
   d="m 348.582,248.37 c 0,0 -0.781,1.346 -3.04,0.521 0,0 1.954,-0.913 2.215,-1.694 z"
   id="path489" />
	<path
   style="fill:#41479b"
   d="m 382.909,247.686 c 0,0 -0.64,1.102 -2.49,0.427 0,0 1.502,-0.536 1.715,-1.177 z"
   id="path491" />
</g>
<path
   style="fill:#ffd255"
   d="m 363.372,135.624 c 0,0 -4.154,7.075 -3.155,17.304 0,0 12.247,-1.788 17.554,-14.016 0,0 1.293,-0.523 1.797,-1.779 0.429,-1.068 0.394,-2.827 -1.663,-2.817 0,0 0.616,-1.23 1.365,-1.519 0,0 -1.326,-0.519 -2.884,-0.173 0,0 1.212,-1.212 1.212,-2.769 0,0 -1.846,1.212 -2.999,1.326 0,0 -0.116,-1.903 0.346,-2.134 0,0 -2.422,0.231 -3.634,1.5 0,0 -0.808,-1.096 -0.75,-2.25 0,0 -2.25,0.981 -3.115,2.422 0,0 -0.692,-0.75 -0.634,-1.5 0,0 -1.615,1.961 -1.961,2.999 0,0 -1.522,-0.418 -2.191,0.808 -0.484,0.887 -0.374,1.86 0.712,2.598 z"
   id="path495" />
<g
   id="g511"
   transform="translate(0,-88.25)">
	<path
   style="fill:#41479b"
   d="m 381.063,242.535 c 0,0 -0.492,-0.927 -1.969,-1.129 0,0 1.882,-0.868 3.069,0.376 z"
   id="path497" />
	<path
   style="fill:#41479b"
   d="m 411.595,246.052 c 0,0 -1.079,0.341 -1.585,1.867 0,0 -0.553,-2.167 1.001,-3.182 z"
   id="path499" />
	<path
   style="fill:#41479b"
   d="m 413.859,246.849 c 0,0 -1.022,0.993 -0.973,2.601 0,0 -1.261,-1.847 -0.149,-3.332 z"
   id="path501" />
	<path
   style="fill:#41479b"
   d="m 418.745,246.762 c 0,0 -0.309,1.052 0.625,2.174 0,0 -1.933,-0.615 -1.97,-2.298 z"
   id="path503" />
	<path
   style="fill:#41479b"
   d="m 416.449,247.171 c 0,0 -0.82,0.78 -0.602,2.374 0,0 -1.525,-1.34 -0.575,-2.934 z"
   id="path505" />
	<path
   style="fill:#41479b"
   d="m 379.489,244.431 c 0,0 -0.988,-0.354 -2.216,0.49 0,0 0.807,-1.909 2.522,-1.788 z"
   id="path507" />
	<path
   style="fill:#41479b"
   d="m 380.839,246.531 c 0,0 -1.015,-0.266 -2.165,0.682 0,0 0.177,-1.842 1.897,-1.87 z"
   id="path509" />
</g>
<path
   style="fill:#f5f5f5"
   d="m 431.818,174.797 c -8.006,0 -8.006,7.221 -16.011,7.221 -8.005,0 -8.006,-7.221 -16.011,-7.221 -8,0 -8,7.221 -16,7.221 -7.993,0 -7.993,-7.221 -15.986,-7.221 -7.993,0 -7.992,7.221 -15.983,7.221 -7.994,0 -7.994,-7.221 -15.989,-7.221 v -13.332 c 7.994,0 7.994,7.221 15.989,7.221 7.992,0 7.992,-7.221 15.983,-7.221 7.993,0 7.993,7.221 15.986,7.221 8,0 8,-7.221 16,-7.221 8.006,0 8.006,7.221 16.011,7.221 8.005,0 8.006,-7.221 16.011,-7.221 z"
   id="path513" />
<path
   style="fill:#41479b"
   d="m 415.807,182.019 c -8.006,0 -8.006,-7.221 -16.011,-7.221 -8,0 -8,7.221 -16,7.221 -7.993,0 -7.993,-7.221 -15.986,-7.221 -7.993,0 -7.992,7.221 -15.983,7.221 -7.978,0 -8,-7.186 -15.944,-7.217 0.11,3.192 0.477,7.93 1.412,13.497 6.494,0.86 7.085,7.051 14.531,7.051 7.992,0 7.992,-7.222 15.983,-7.222 7.993,0 7.993,7.222 15.986,7.222 8,0 8,-7.222 16,-7.222 8.006,0 8.006,7.222 16.011,7.222 7.457,0 8.05,-6.193 14.553,-7.051 0.936,-5.567 1.302,-10.305 1.412,-13.497 -7.953,0.031 -7.975,7.217 -15.964,7.217 z"
   id="path515" />
<path
   style="fill:#f5f5f5"
   d="m 415.807,195.351 c -8.006,0 -8.006,-7.222 -16.011,-7.222 -8,0 -8,7.222 -16,7.222 -7.993,0 -7.993,-7.222 -15.986,-7.222 -7.993,0 -7.992,7.222 -15.983,7.222 -7.446,0 -8.038,-6.191 -14.531,-7.051 0.742,4.412 1.848,9.331 3.479,14.418 3.599,2.066 5.166,5.965 11.052,5.965 7.992,0 7.992,-7.221 15.983,-7.221 7.993,0 7.993,7.221 15.986,7.221 8,0 8,-7.221 16,-7.221 8.006,0 8.006,7.221 16.011,7.221 5.899,0 7.465,-3.907 11.076,-5.971 1.63,-5.085 2.735,-10.003 3.478,-14.412 -6.504,0.858 -7.097,7.051 -14.554,7.051 z"
   id="path517" />
<path
   style="fill:#41479b"
   d="m 415.807,208.682 c -8.006,0 -8.006,-7.221 -16.011,-7.221 -8,0 -8,7.221 -16,7.221 -7.993,0 -7.993,-7.221 -15.986,-7.221 -7.993,0 -7.992,7.221 -15.983,7.221 -5.885,0 -7.453,-3.9 -11.052,-5.965 2.031,6.338 4.884,12.911 8.866,19.041 0.671,0.138 1.363,0.256 2.186,0.256 7.992,0 7.992,-7.222 15.983,-7.222 7.993,0 7.993,7.222 15.986,7.222 8,0 8,-7.222 16,-7.222 8.006,0 8.006,7.222 16.011,7.222 0.832,0 1.533,-0.118 2.21,-0.258 3.982,-6.132 6.835,-12.706 8.866,-19.044 -3.61,2.063 -5.177,5.97 -11.076,5.97 z"
   id="path519" />
<path
   style="fill:#f5f5f5"
   d="m 415.807,222.014 c -8.006,0 -8.006,-7.222 -16.011,-7.222 -8,0 -8,7.222 -16,7.222 -7.993,0 -7.993,-7.222 -15.986,-7.222 -7.993,0 -7.992,7.222 -15.983,7.222 -0.823,0 -1.515,-0.118 -2.186,-0.256 2.53,3.895 5.526,7.599 9.054,10.951 2.444,-2.065 4.386,-4.585 9.116,-4.585 7.993,0 7.993,7.221 15.986,7.221 8,0 8,-7.221 16,-7.221 4.749,0 6.691,2.532 9.149,4.6 3.535,-3.357 6.537,-7.066 9.071,-10.968 -0.677,0.14 -1.378,0.258 -2.21,0.258 z"
   id="path521" />
<path
   style="fill:#41479b"
   d="m 408.945,232.724 c -2.457,-2.068 -4.399,-4.6 -9.149,-4.6 -8,0 -8,7.221 -16,7.221 -7.993,0 -7.993,-7.221 -15.986,-7.221 -4.73,0 -6.671,2.52 -9.116,4.585 6.43,6.11 14.628,11.034 25.133,13.661 10.497,-2.623 18.69,-7.542 25.118,-13.646 z"
   id="path523" />
<g
   id="g529"
   transform="translate(0,-88.25)">
	<path
   style="fill:#f5f5f5"
   d="m 399.796,249.715 c -8,0 -8,7.221 -16,7.221 -7.993,0 -7.993,-7.221 -15.986,-7.221 -7.993,0 -7.992,7.221 -15.983,7.221 -7.994,0 -7.994,-7.221 -15.989,-7.221 0,4.555 0,8.511 0,11.074 0,0.625 0.014,1.395 0.044,2.262 7.944,0.031 7.967,7.217 15.944,7.217 7.992,0 7.992,-7.221 15.983,-7.221 7.993,0 7.993,7.221 15.986,7.221 8,0 8,-7.221 16,-7.221 8.006,0 8.006,7.221 16.011,7.221 7.989,0 8.011,-7.186 15.967,-7.217 0.03,-0.868 0.044,-1.638 0.044,-2.262 0,-2.563 0,-6.52 0,-11.074 -8.006,0 -8.006,7.221 -16.011,7.221 -8.005,0.001 -8.005,-7.221 -16.01,-7.221 z"
   id="path525" />
	<path
   style="fill:#f5f5f5"
   d="m 428.127,212.8 c 2.039,0 3.691,1.653 3.691,3.691 v 33.224 7.383 c 0,1.399 0,2.678 0,3.691 0,0.625 -0.014,1.395 -0.044,2.262 -0.11,3.192 -0.477,7.93 -1.412,13.497 -0.742,4.409 -1.848,9.327 -3.478,14.412 -2.031,6.339 -4.884,12.914 -8.866,19.044 -2.535,3.903 -5.537,7.613 -9.071,10.968 -6.428,6.103 -14.621,11.022 -25.117,13.646 -10.505,-2.626 -18.703,-7.551 -25.133,-13.661 -3.528,-3.352 -6.524,-7.055 -9.054,-10.951 -3.982,-6.131 -6.835,-12.703 -8.866,-19.041 -1.631,-5.087 -2.738,-10.007 -3.479,-14.418 -0.936,-5.567 -1.302,-10.305 -1.412,-13.497 -0.03,-0.868 -0.044,-1.638 -0.044,-2.262 0,-1.013 0,-2.293 0,-3.691 v -7.383 -33.224 c 0,-2.039 1.653,-3.691 3.691,-3.691 h 88.596 m -0.002,-2.768 H 339.53 c -3.562,0 -6.461,2.898 -6.461,6.461 v 33.224 7.383 3.691 c 0,0.651 0.014,1.453 0.046,2.358 0.105,3.014 0.441,7.863 1.449,13.86 0.858,5.106 2.061,10.086 3.573,14.804 2.34,7.299 5.429,13.929 9.181,19.704 2.763,4.253 5.949,8.106 9.468,11.451 7.342,6.977 16.214,11.801 26.369,14.34 l 0.672,0.168 0.671,-0.168 c 10.147,-2.537 19.013,-7.357 26.353,-14.325 3.528,-3.35 6.72,-7.208 9.487,-11.468 3.753,-5.777 6.841,-12.407 9.181,-19.709 1.512,-4.714 2.713,-9.693 3.572,-14.797 1.009,-5.997 1.345,-10.848 1.449,-13.86 0.031,-0.905 0.046,-1.707 0.046,-2.358 v -3.691 -7.383 -33.224 c 0,-3.563 -2.897,-6.461 -6.459,-6.461 z"
   id="path527" />
</g>
<polygon
   style="fill:#73af00"
   points="377.272,307.532 367.438,300.077 379.775,299.827 383.828,288.169 387.881,299.827 400.217,300.077 390.385,307.532 393.959,319.345 383.828,312.296 373.698,319.345 "
   id="polygon531"
   transform="translate(0,-88.25)" />
<path
   style="fill:#ffe15a"
   d="m 383.828,202.197 3.517,10.115 10.708,0.218 -8.535,6.47 3.102,10.251 -8.791,-6.116 -8.791,6.116 3.102,-10.251 -8.534,-6.47 10.708,-0.218 3.514,-10.115 m 0,-4.555 -1.412,4.064 -3.175,9.133 -9.667,0.198 -4.301,0.087 3.428,2.6 7.704,5.842 -2.799,9.255 -1.246,4.118 3.532,-2.457 7.936,-5.523 7.936,5.523 3.532,2.457 -1.246,-4.118 -2.799,-9.255 7.704,-5.842 3.428,-2.6 -4.301,-0.087 -9.667,-0.198 -3.175,-9.133 z"
   id="path533" />
<polygon
   style="fill:#73af00"
   points="355.025,278.739 345.191,271.284 357.528,271.032 361.581,259.374 365.633,271.032 377.971,271.284 368.137,278.739 371.711,290.551 361.581,283.502 351.451,290.551 "
   id="polygon535"
   transform="translate(0,-88.25)" />
<path
   style="fill:#ffe15a"
   d="m 361.581,173.403 3.517,10.115 10.708,0.218 -8.534,6.47 3.102,10.251 -8.791,-6.116 -8.791,6.116 3.102,-10.251 -8.534,-6.47 10.708,-0.218 3.513,-10.115 m 0,-4.555 -1.412,4.064 -3.175,9.133 -9.667,0.198 -4.301,0.087 3.428,2.6 7.704,5.842 -2.799,9.255 -1.246,4.118 3.532,-2.457 7.936,-5.523 7.936,5.523 3.532,2.457 -1.246,-4.118 -2.799,-9.255 7.704,-5.842 3.428,-2.6 -4.301,-0.087 -9.667,-0.198 -3.175,-9.133 z"
   id="path537" />
<polygon
   style="fill:#73af00"
   points="399.322,278.739 389.49,271.284 401.826,271.032 405.879,259.374 409.932,271.032 422.269,271.284 412.436,278.739 416.009,290.551 405.879,283.502 395.75,290.551 "
   id="polygon539"
   transform="translate(0,-88.25)" />
<g
   id="g545"
   transform="translate(0,-88.25)">
	<path
   style="fill:#ffe15a"
   d="m 405.879,261.653 3.517,10.115 10.707,0.218 -8.534,6.47 3.102,10.251 -8.791,-6.116 -8.791,6.116 3.102,-10.251 -8.534,-6.47 10.708,-0.218 3.514,-10.115 m 0,-4.555 -1.412,4.064 -3.175,9.133 -9.667,0.198 -4.301,0.087 3.428,2.6 7.704,5.842 -2.799,9.255 -1.246,4.118 3.532,-2.457 7.936,-5.523 7.936,5.523 3.532,2.457 -1.246,-4.118 -2.799,-9.255 7.704,-5.842 3.428,-2.6 -4.301,-0.087 -9.667,-0.198 -3.175,-9.133 z"
   id="path541" />
	<path
   style="fill:#ffe15a"
   d="m 442.216,298.403 c -9.161,23.326 -31.85,39.908 -58.388,39.908 -26.538,0 -49.227,-16.583 -58.388,-39.908 l -13.738,5.375 c 11.317,28.814 39.345,49.3 72.126,49.3 32.781,0 60.809,-20.486 72.126,-49.3 z"
   id="path543" />
</g>
<g
   id="g553"
   transform="translate(0,-88.25)">
	<polygon
   style="fill:#f5f5f5"
   points="376.445,201.725 387.52,201.725 391.211,212.8 380.137,212.8 "
   id="polygon547" />
	<path
   style="fill:#f5f5f5"
   d="m 409.668,212.8 h -7.383 l -2.461,-7.383 h 3.37 c 2.397,0 4.524,1.534 5.282,3.807 z"
   id="path549" />
	<path
   style="fill:#f5f5f5"
   d="m 369.062,212.8 h -7.383 l -0.842,-2.525 c -0.797,-2.39 0.982,-4.858 3.502,-4.858 h 2.261 z"
   id="path551" />
</g>
<g
   id="g559"
   transform="translate(0,-88.25)">
	<path
   style="fill:#41479b"
   d="m 402.285,212.8 h -11.074 l -3.691,-11.074 h 8.414 c 1.589,0 2.999,1.016 3.502,2.525 z"
   id="path555" />
	<path
   style="fill:#41479b"
   d="m 380.137,212.8 h -11.074 l -2.494,-7.48 c -0.589,-1.768 0.727,-3.594 2.591,-3.594 h 7.286 z"
   id="path557" />
</g>
<path
   style="fill:#509664"
   d="m 410.937,98.94 c -2.884,4.153 -10.959,9.113 -24.11,9.113 -10.836,0 -17.805,-6.543 -20.132,-9.123 -0.567,-0.628 -0.863,-1.431 -0.863,-2.278 v -2.518 c 0,-1.084 0.562,-2.07 1.498,-2.614 2.344,-1.364 7.762,-3.54 18.458,-3.54 13.267,10e-4 25.149,10.96 25.149,10.96 z"
   id="path561" />
<g
   id="g563">
</g>
<g
   id="g565">
</g>
<g
   id="g567">
</g>
<g
   id="g569">
</g>
<g
   id="g571">
</g>
<g
   id="g573">
</g>
<g
   id="g575">
</g>
<g
   id="g577">
</g>
<g
   id="g579">
</g>
<g
   id="g581">
</g>
<g
   id="g583">
</g>
<g
   id="g585">
</g>
<g
   id="g587">
</g>
<g
   id="g589">
</g>
<g
   id="g591">
</g>
</svg>
