<?xml version="1.0" encoding="UTF-8" standalone="no"?>
<svg
   xmlns:dc="http://purl.org/dc/elements/1.1/"
   xmlns:cc="http://creativecommons.org/ns#"
   xmlns:rdf="http://www.w3.org/1999/02/22-rdf-syntax-ns#"
   xmlns:svg="http://www.w3.org/2000/svg"
   xmlns="http://www.w3.org/2000/svg"
   xmlns:sodipodi="http://sodipodi.sourceforge.net/DTD/sodipodi-0.dtd"
   xmlns:inkscape="http://www.inkscape.org/namespaces/inkscape"
   version="1.1"
   id="Layer_1"
   x="0px"
   y="0px"
   viewBox="0 0 512 335.45001"
   xml:space="preserve"
   sodipodi:docname="kz.svg"
   width="512"
   height="335.45001"
   inkscape:version="1.0.1 (c497b03c, 2020-09-10)"><metadata
   id="metadata119"><rdf:RDF><cc:Work
       rdf:about=""><dc:format>image/svg+xml</dc:format><dc:type
         rdf:resource="http://purl.org/dc/dcmitype/StillImage" /><dc:title></dc:title></cc:Work></rdf:RDF></metadata><defs
   id="defs117" /><sodipodi:namedview
   pagecolor="#ffffff"
   bordercolor="#666666"
   borderopacity="1"
   objecttolerance="10"
   gridtolerance="10"
   guidetolerance="10"
   inkscape:pageopacity="0"
   inkscape:pageshadow="2"
   inkscape:window-width="1369"
   inkscape:window-height="728"
   id="namedview115"
   showgrid="false"
   inkscape:zoom="1.640625"
   inkscape:cx="256"
   inkscape:cy="256"
   inkscape:window-x="0"
   inkscape:window-y="23"
   inkscape:window-maximized="0"
   inkscape:current-layer="Layer_1" />
<path
   style="fill:#82c3d2"
   d="M 473.655,0 H 38.345 C 17.167,0 0,17.167 0,38.345 v 258.76 c 0,21.177 17.167,38.345 38.345,38.345 h 435.31 C 494.832,335.45 512,318.283 512,297.105 V 38.345 C 512,17.167 494.833,0 473.655,0 Z"
   id="path10" />
<g
   id="g82"
   transform="translate(0,-88.275)">
	<path
   style="fill:#ffe15a"
   d="m 59.516,128.447 c -0.799,-3.382 -0.998,-4.63 0.52,-6.147 0.74,-0.74 0.74,-1.939 0,-2.679 -0.74,-0.74 -1.939,-0.74 -2.679,0 -3.072,3.073 -2.339,6.262 -1.544,9.638 -2.422,-0.791 -4.934,-0.204 -6.28,1.494 -0.668,0.847 -1.96,3.223 0.461,7.017 0.563,0.881 1.727,1.14 2.616,0.582 0.883,-0.563 1.14,-1.736 0.577,-2.616 -0.908,-1.429 -0.935,-2.31 -0.681,-2.632 0.3,-0.381 1.23,-0.582 2.204,-0.237 0.629,0.218 2.091,0.973 2.091,3.253 0,1.821 -0.842,3.49 -2.31,4.575 -1.471,1.088 -3.375,1.395 -5.21,0.825 -2.266,-0.692 -3.849,-3.079 -3.849,-5.806 0,-1.951 0.418,-3.923 1.186,-5.651 0.122,-0.255 3.018,-6.254 3.764,-8.49 1.475,-4.423 -0.024,-6.647 -1.047,-7.576 -1.369,-1.247 -3.37,-1.558 -5.092,-0.803 -0.262,0.116 -0.478,0.284 -0.705,0.44 -0.227,-0.157 -0.444,-0.324 -0.705,-0.44 -1.721,-0.755 -3.721,-0.445 -5.092,0.803 -1.023,0.929 -2.522,3.154 -1.047,7.576 0.746,2.236 3.641,8.235 3.738,8.435 0.793,1.784 1.212,3.756 1.212,5.707 0,2.728 -1.582,5.114 -3.849,5.806 -1.842,0.569 -3.74,0.266 -5.21,-0.825 -1.468,-1.085 -2.31,-2.753 -2.31,-4.575 0,-2.28 1.462,-3.034 2.091,-3.253 0.977,-0.344 1.902,-0.145 2.204,0.237 0.254,0.322 0.227,1.203 -0.681,2.632 -0.563,0.881 -0.306,2.055 0.577,2.616 0.89,0.563 2.058,0.3 2.616,-0.582 2.421,-3.794 1.129,-6.169 0.461,-7.017 -1.347,-1.698 -3.858,-2.286 -6.28,-1.494 0.796,-3.375 1.528,-6.566 -1.544,-9.638 -0.74,-0.74 -1.939,-0.74 -2.679,0 -0.74,0.74 -0.74,1.939 0,2.679 1.517,1.517 1.32,2.764 0.52,6.147 -0.481,2.027 -1.077,4.555 -1.077,7.671 0,2.074 0.728,4.056 1.955,5.685 h -0.061 c -1.047,0 -1.895,0.847 -1.895,1.895 0,1.048 0.847,1.895 1.895,1.895 h 0.061 c -1.227,1.628 -1.955,3.611 -1.955,5.684 0,3.116 0.596,5.644 1.075,7.672 0.799,3.383 0.998,4.63 -0.52,6.147 -0.74,0.74 -0.74,1.939 0,2.679 0.37,0.37 0.855,0.555 1.34,0.555 0.484,0 0.97,-0.185 1.34,-0.555 3.072,-3.073 2.339,-6.263 1.544,-9.638 2.422,0.788 4.934,0.204 6.28,-1.494 0.668,-0.847 1.96,-3.223 -0.461,-7.017 -0.561,-0.881 -1.732,-1.143 -2.616,-0.582 -0.883,0.563 -1.14,1.736 -0.577,2.616 0.908,1.429 0.935,2.31 0.681,2.632 -0.301,0.377 -1.227,0.577 -2.204,0.237 -0.629,-0.218 -2.091,-0.973 -2.091,-3.253 0,-1.821 0.842,-3.49 2.31,-4.574 1.471,-1.088 3.373,-1.399 5.21,-0.825 2.266,0.692 3.849,3.079 3.849,5.806 0,1.951 -0.418,3.923 -1.212,5.707 l -12.411,27.92 c -1.02,2.295 -1.538,4.734 -1.538,7.246 0,3.233 1.47,6.185 3.784,7.987 -2.313,1.802 -3.784,4.754 -3.784,7.987 0,2.513 0.519,4.952 1.538,7.246 l 12.409,27.919 c 0.793,1.784 1.212,3.756 1.212,5.707 0,2.728 -1.582,5.114 -3.849,5.806 -1.842,0.574 -3.74,0.267 -5.21,-0.825 -1.468,-1.085 -2.31,-2.753 -2.31,-4.574 0,-2.28 1.462,-3.034 2.091,-3.253 0.977,-0.341 1.902,-0.145 2.204,0.237 0.254,0.322 0.227,1.203 -0.681,2.632 -0.563,0.881 -0.306,2.053 0.577,2.616 0.89,0.563 2.058,0.303 2.616,-0.582 2.421,-3.794 1.129,-6.169 0.461,-7.017 -1.347,-1.699 -3.858,-2.283 -6.28,-1.494 0.796,-3.375 1.528,-6.566 -1.544,-9.638 -0.74,-0.74 -1.939,-0.74 -2.679,0 -0.74,0.74 -0.74,1.939 0,2.679 1.517,1.517 1.32,2.764 0.52,6.147 -0.479,2.026 -1.075,4.554 -1.075,7.67 0,2.073 0.728,4.056 1.955,5.685 h -0.061 c -1.047,0 -1.895,0.847 -1.895,1.895 0,1.047 0.847,1.895 1.895,1.895 h 0.061 c -1.227,1.629 -1.955,3.611 -1.955,5.685 0,3.116 0.596,5.644 1.075,7.672 0.799,3.383 0.998,4.63 -0.52,6.147 -0.74,0.74 -0.74,1.939 0,2.679 0.37,0.37 0.855,0.555 1.34,0.555 0.484,0 0.97,-0.185 1.34,-0.555 3.072,-3.073 2.339,-6.263 1.544,-9.638 2.422,0.788 4.934,0.204 6.28,-1.494 0.668,-0.847 1.96,-3.223 -0.461,-7.017 -0.561,-0.881 -1.732,-1.143 -2.616,-0.582 -0.883,0.563 -1.14,1.736 -0.577,2.616 0.908,1.429 0.935,2.31 0.681,2.632 -0.301,0.381 -1.227,0.58 -2.204,0.237 -0.629,-0.218 -2.091,-0.973 -2.091,-3.253 0,-1.821 0.842,-3.49 2.31,-4.574 1.471,-1.088 3.373,-1.399 5.21,-0.825 2.266,0.692 3.849,3.079 3.849,5.806 0,1.951 -0.418,3.923 -1.212,5.707 l -12.41,27.924 c -1.02,2.294 -1.538,4.734 -1.538,7.246 0,3.233 1.47,6.185 3.784,7.987 -2.313,1.801 -3.784,4.754 -3.784,7.987 0,2.513 0.519,4.952 1.538,7.246 l 12.409,27.919 c 0.793,1.784 1.212,3.756 1.212,5.707 0,2.728 -1.582,5.115 -3.849,5.806 -1.842,0.574 -3.74,0.263 -5.21,-0.825 -1.468,-1.085 -2.31,-2.753 -2.31,-4.574 0,-2.28 1.462,-3.034 2.091,-3.253 0.977,-0.341 1.902,-0.145 2.204,0.237 0.254,0.322 0.227,1.203 -0.681,2.632 -0.563,0.881 -0.306,2.054 0.577,2.616 0.89,0.563 2.058,0.303 2.616,-0.582 2.421,-3.794 1.129,-6.169 0.461,-7.017 -1.347,-1.703 -3.858,-2.285 -6.28,-1.494 0.796,-3.375 1.528,-6.566 -1.544,-9.638 -0.74,-0.74 -1.939,-0.74 -2.679,0 -0.74,0.74 -0.74,1.939 0,2.679 1.517,1.517 1.32,2.764 0.52,6.147 -0.479,2.026 -1.075,4.553 -1.075,7.669 0,2.969 1.423,5.798 3.802,7.58 -2.379,1.782 -3.802,4.61 -3.802,7.58 0,3.116 0.596,5.644 1.075,7.672 0.799,3.382 0.998,4.63 -0.52,6.147 -0.74,0.74 -0.74,1.94 0,2.679 0.37,0.37 0.855,0.555 1.34,0.555 0.484,0 0.97,-0.185 1.34,-0.555 3.072,-3.073 2.339,-6.263 1.544,-9.639 2.422,0.788 4.934,0.204 6.28,-1.494 0.668,-0.847 1.96,-3.223 -0.461,-7.017 -0.561,-0.881 -1.732,-1.14 -2.616,-0.582 -0.883,0.563 -1.14,1.736 -0.577,2.616 0.908,1.429 0.935,2.31 0.681,2.632 -0.301,0.381 -1.227,0.577 -2.204,0.237 -0.629,-0.218 -2.091,-0.973 -2.091,-3.253 0,-1.821 0.842,-3.49 2.31,-4.575 1.471,-1.088 3.373,-1.395 5.21,-0.825 2.266,0.692 3.849,3.079 3.849,5.806 0,1.951 -0.418,3.923 -1.186,5.651 -0.122,0.255 -3.018,6.254 -3.764,8.49 -1.475,4.423 0.024,6.647 1.047,7.576 0.875,0.796 2.002,1.214 3.154,1.214 0.653,0 1.315,-0.137 1.939,-0.41 0.262,-0.116 0.478,-0.284 0.705,-0.44 0.227,0.157 0.444,0.324 0.705,0.44 0.623,0.274 1.287,0.41 1.939,0.41 1.149,0 2.278,-0.418 3.154,-1.214 1.023,-0.929 2.522,-3.154 1.047,-7.576 -0.746,-2.236 -3.641,-8.234 -3.738,-8.435 -0.793,-1.784 -1.212,-3.756 -1.212,-5.707 0,-2.728 1.582,-5.114 3.849,-5.806 1.843,-0.57 3.74,-0.263 5.21,0.825 1.468,1.085 2.31,2.753 2.31,4.575 0,2.28 -1.462,3.034 -2.091,3.253 -0.973,0.341 -1.905,0.145 -2.204,-0.237 -0.254,-0.322 -0.227,-1.203 0.681,-2.632 0.563,-0.881 0.306,-2.053 -0.577,-2.616 -0.885,-0.555 -2.052,-0.296 -2.616,0.582 -2.421,3.794 -1.129,6.169 -0.461,7.017 1.347,1.698 3.858,2.283 6.28,1.494 -0.796,3.375 -1.528,6.566 1.544,9.639 0.37,0.37 0.855,0.555 1.34,0.555 0.485,0 0.97,-0.185 1.34,-0.555 0.74,-0.74 0.74,-1.94 0,-2.679 -1.517,-1.517 -1.32,-2.764 -0.52,-6.147 0.479,-2.028 1.075,-4.556 1.075,-7.672 0,-2.97 -1.423,-5.798 -3.801,-7.58 2.378,-1.782 3.801,-4.609 3.801,-7.58 0,-3.116 -0.596,-5.644 -1.075,-7.672 -0.799,-3.382 -0.998,-4.63 0.52,-6.147 0.74,-0.74 0.74,-1.939 0,-2.679 -0.74,-0.74 -1.939,-0.74 -2.679,0 -3.072,3.073 -2.339,6.262 -1.544,9.638 -2.422,-0.791 -4.934,-0.209 -6.28,1.494 -0.668,0.847 -1.96,3.223 0.461,7.017 0.563,0.881 1.727,1.14 2.616,0.582 0.883,-0.563 1.14,-1.736 0.577,-2.616 -0.908,-1.429 -0.935,-2.31 -0.681,-2.632 0.3,-0.381 1.23,-0.577 2.204,-0.237 0.629,0.218 2.091,0.973 2.091,3.253 0,1.821 -0.842,3.49 -2.31,4.574 -1.471,1.088 -3.375,1.399 -5.21,0.825 -2.266,-0.692 -3.849,-3.079 -3.849,-5.806 0,-1.95 0.418,-3.923 1.212,-5.707 l 12.409,-27.919 c 1.02,-2.294 1.538,-4.734 1.538,-7.246 0,-3.233 -1.47,-6.185 -3.784,-7.987 2.314,-1.802 3.784,-4.754 3.784,-7.987 0,-2.513 -0.519,-4.952 -1.538,-7.246 L 46.645,271.081 c -0.793,-1.784 -1.212,-3.756 -1.212,-5.707 0,-2.728 1.582,-5.114 3.849,-5.806 1.843,-0.569 3.74,-0.263 5.21,0.825 1.468,1.085 2.31,2.753 2.31,4.574 0,2.28 -1.462,3.034 -2.091,3.253 -0.973,0.344 -1.905,0.145 -2.204,-0.237 -0.254,-0.322 -0.227,-1.203 0.681,-2.632 0.563,-0.881 0.306,-2.054 -0.577,-2.616 -0.885,-0.555 -2.052,-0.296 -2.616,0.582 -2.421,3.794 -1.129,6.169 -0.461,7.017 1.347,1.698 3.858,2.283 6.28,1.494 -0.796,3.375 -1.528,6.566 1.544,9.638 0.37,0.37 0.855,0.555 1.34,0.555 0.485,0 0.97,-0.185 1.34,-0.555 0.74,-0.74 0.74,-1.94 0,-2.679 -1.517,-1.517 -1.32,-2.764 -0.52,-6.147 0.479,-2.028 1.075,-4.556 1.075,-7.672 0,-2.074 -0.728,-4.056 -1.955,-5.685 h 0.061 c 1.047,0 1.895,-0.847 1.895,-1.895 0,-1.047 -0.847,-1.895 -1.895,-1.895 h -0.061 c 1.227,-1.629 1.955,-3.61 1.955,-5.685 0,-3.116 -0.596,-5.644 -1.075,-7.672 -0.799,-3.383 -0.998,-4.63 0.52,-6.147 0.74,-0.74 0.74,-1.939 0,-2.679 -0.74,-0.74 -1.939,-0.74 -2.679,0 -3.072,3.073 -2.339,6.263 -1.544,9.638 -2.422,-0.788 -4.934,-0.204 -6.28,1.494 -0.668,0.847 -1.96,3.223 0.461,7.017 0.563,0.881 1.727,1.137 2.616,0.582 0.883,-0.563 1.14,-1.736 0.577,-2.616 -0.908,-1.429 -0.935,-2.31 -0.681,-2.632 0.3,-0.381 1.23,-0.577 2.204,-0.237 0.629,0.218 2.091,0.973 2.091,3.253 0,1.821 -0.842,3.49 -2.31,4.574 -1.471,1.088 -3.375,1.395 -5.21,0.825 -2.266,-0.692 -3.849,-3.079 -3.849,-5.806 0,-1.951 0.418,-3.923 1.212,-5.707 l 12.409,-27.919 c 1.02,-2.294 1.538,-4.734 1.538,-7.246 0,-3.233 -1.47,-6.185 -3.784,-7.987 2.314,-1.801 3.784,-4.754 3.784,-7.987 0,-2.513 -0.519,-4.952 -1.538,-7.246 L 46.646,157.391 c -0.793,-1.784 -1.212,-3.756 -1.212,-5.707 0,-2.728 1.582,-5.114 3.849,-5.806 1.843,-0.569 3.74,-0.263 5.21,0.825 1.468,1.085 2.31,2.753 2.31,4.574 0,2.28 -1.462,3.034 -2.091,3.253 -0.973,0.341 -1.905,0.141 -2.204,-0.237 -0.254,-0.322 -0.227,-1.203 0.681,-2.632 0.563,-0.881 0.306,-2.054 -0.577,-2.616 -0.885,-0.555 -2.052,-0.3 -2.616,0.581 -2.421,3.794 -1.129,6.169 -0.461,7.017 1.347,1.698 3.858,2.283 6.28,1.494 -0.796,3.375 -1.528,6.566 1.544,9.638 0.37,0.37 0.855,0.555 1.34,0.555 0.484,0 0.97,-0.185 1.34,-0.555 0.74,-0.74 0.74,-1.939 0,-2.679 -1.517,-1.517 -1.32,-2.764 -0.52,-6.147 0.479,-2.028 1.075,-4.556 1.075,-7.672 0,-2.074 -0.728,-4.056 -1.955,-5.685 H 58.7 c 1.047,0 1.895,-0.847 1.895,-1.895 0,-1.048 -0.847,-1.895 -1.895,-1.895 h -0.061 c 1.227,-1.629 1.955,-3.61 1.955,-5.685 -0.004,-3.114 -0.6,-5.642 -1.078,-7.67 z m -19.23,-8.076 c -0.673,-2.02 -0.438,-3.171 0.006,-3.575 0.29,-0.274 0.73,-0.263 1.009,-0.137 0.342,0.151 0.342,0.392 0.342,0.511 0,1.047 0.847,1.895 1.895,1.895 1.047,0 1.895,-0.847 1.895,-1.895 0,-0.118 0,-0.359 0.342,-0.511 0.274,-0.126 0.711,-0.137 1.009,0.137 0.445,0.404 0.68,1.555 0.006,3.575 -0.49,1.465 -2.263,5.279 -3.251,7.349 -0.968,-2.022 -2.76,-5.874 -3.253,-7.349 z m 3.251,78.186 c 0.544,0.739 1.159,1.427 1.907,1.987 -0.748,0.561 -1.363,1.248 -1.907,1.987 -0.544,-0.739 -1.159,-1.427 -1.907,-1.987 0.748,-0.562 1.363,-1.248 1.907,-1.987 z m 0,113.69 c 0.544,0.739 1.159,1.427 1.907,1.987 -0.748,0.561 -1.363,1.248 -1.907,1.987 -0.544,-0.739 -1.159,-1.427 -1.907,-1.987 0.748,-0.56 1.363,-1.245 1.907,-1.987 z m 3.251,82.162 c 0.673,2.02 0.438,3.171 -0.006,3.575 -0.298,0.27 -0.735,0.259 -1.009,0.137 -0.342,-0.152 -0.342,-0.392 -0.342,-0.511 0,-1.047 -0.847,-1.895 -1.895,-1.895 -1.048,0 -1.895,0.847 -1.895,1.895 0,0.118 0,0.359 -0.342,0.511 -0.278,0.122 -0.718,0.134 -1.009,-0.137 -0.445,-0.404 -0.679,-1.555 -0.006,-3.575 0.49,-1.465 2.263,-5.279 3.251,-7.349 0.967,2.021 2.759,5.873 3.253,7.349 z m -1.362,-23.328 c -0.717,0.558 -1.353,1.226 -1.889,1.981 -0.535,-0.755 -1.172,-1.422 -1.889,-1.981 0.717,-0.558 1.353,-1.226 1.889,-1.981 0.535,0.755 1.17,1.423 1.889,1.981 z M 55.588,327.928 43.536,355.044 31.484,327.928 c -0.793,-1.784 -1.212,-3.756 -1.212,-5.707 0,-2.728 1.582,-5.115 3.849,-5.806 1.841,-0.57 3.742,-0.263 5.21,0.825 1.468,1.085 2.31,2.753 2.31,4.575 0,2.28 -1.462,3.034 -2.091,3.253 -0.977,0.341 -1.906,0.145 -2.204,-0.237 -0.254,-0.322 -0.227,-1.203 0.681,-2.632 0.563,-0.881 0.306,-2.053 -0.577,-2.616 -0.885,-0.555 -2.052,-0.296 -2.616,0.582 -2.42,3.794 -1.129,6.169 -0.461,7.017 1.372,1.732 3.953,2.328 6.421,1.465 0.281,-0.098 0.566,-0.218 0.847,-0.362 v 4.792 c 0,-10e-4 -0.003,-0.003 -0.003,-0.003 -0.057,-0.998 -0.883,-1.785 -1.891,-1.785 -1.047,0 -1.895,0.847 -1.895,1.895 0,1.236 0.864,3.38 3.79,4.044 v 3.535 c 0,1.047 0.847,1.895 1.895,1.895 1.047,0 1.895,-0.847 1.895,-1.895 v -3.535 c 2.925,-0.664 3.79,-2.808 3.79,-4.044 0,-1.047 -0.845,-1.957 -1.891,-1.957 -1.047,0 -1.891,0.785 -1.891,1.832 -10e-4,0.003 -0.007,0.008 -0.008,0.011 v -4.783 c 0.281,0.143 0.566,0.264 0.847,0.362 2.468,0.862 5.048,0.266 6.421,-1.465 0.668,-0.847 1.96,-3.223 -0.461,-7.017 -0.563,-0.881 -1.732,-1.14 -2.616,-0.582 -0.883,0.563 -1.14,1.736 -0.577,2.616 0.908,1.429 0.935,2.31 0.681,2.632 -0.3,0.381 -1.228,0.577 -2.204,0.237 -0.629,-0.218 -2.091,-0.973 -2.091,-3.253 0,-1.821 0.842,-3.49 2.31,-4.575 1.471,-1.088 3.375,-1.399 5.21,-0.825 2.266,0.692 3.849,3.079 3.849,5.806 0,1.949 -0.418,3.923 -1.213,5.705 z m 0,-27.386 c 0.793,1.784 1.212,3.756 1.212,5.707 0,2.728 -1.582,5.114 -3.849,5.806 -1.839,0.574 -3.742,0.263 -5.21,-0.825 -1.468,-1.085 -2.31,-2.753 -2.31,-4.574 0,-2.28 1.462,-3.034 2.091,-3.253 0.975,-0.341 1.905,-0.145 2.204,0.237 0.254,0.322 0.227,1.203 -0.681,2.632 -0.563,0.881 -0.306,2.053 0.577,2.616 0.89,0.563 2.058,0.303 2.616,-0.582 2.421,-3.794 1.129,-6.169 0.461,-7.017 -1.373,-1.732 -3.953,-2.321 -6.421,-1.465 -0.281,0.098 -0.566,0.219 -0.847,0.361 v -4.793 l 0.003,0.006 c 0.057,0.995 0.883,1.784 1.891,1.784 1.047,0 1.895,-0.847 1.895,-1.895 0,-1.236 -0.864,-3.38 -3.79,-4.044 v -3.535 c 0,-1.047 -0.847,-1.895 -1.895,-1.895 -1.047,0 -1.895,0.847 -1.895,1.895 v 3.535 c -2.925,0.664 -3.79,2.808 -3.79,4.044 0,1.047 0.845,1.957 1.891,1.957 1.047,0 1.891,-0.785 1.891,-1.832 0.001,-0.003 0.007,-0.008 0.007,-0.008 l 10e-4,4.78 c -0.281,-0.142 -0.566,-0.264 -0.847,-0.361 -2.468,-0.855 -5.049,-0.267 -6.421,1.465 -0.668,0.847 -1.96,3.223 0.461,7.017 0.563,0.881 1.732,1.137 2.616,0.582 0.883,-0.563 1.14,-1.736 0.577,-2.616 -0.908,-1.429 -0.935,-2.31 -0.681,-2.632 0.298,-0.381 1.227,-0.577 2.204,-0.237 0.629,0.218 2.091,0.973 2.091,3.253 0,1.821 -0.842,3.49 -2.31,4.574 -1.471,1.088 -3.371,1.399 -5.21,0.825 -2.266,-0.692 -3.849,-3.079 -3.849,-5.806 0,-1.951 0.418,-3.923 1.212,-5.707 L 43.535,273.425 Z M 45.426,257.39 c -0.717,0.558 -1.353,1.226 -1.889,1.981 -0.535,-0.755 -1.172,-1.422 -1.889,-1.981 0.717,-0.558 1.353,-1.226 1.889,-1.981 0.535,0.755 1.17,1.422 1.889,1.981 z M 55.588,214.238 43.536,241.354 31.484,214.238 c -0.793,-1.784 -1.212,-3.756 -1.212,-5.707 0,-2.728 1.582,-5.114 3.849,-5.806 1.841,-0.57 3.742,-0.263 5.21,0.825 1.468,1.085 2.31,2.753 2.31,4.575 0,2.28 -1.462,3.034 -2.091,3.253 -0.977,0.344 -1.906,0.145 -2.204,-0.237 -0.254,-0.322 -0.227,-1.203 0.681,-2.632 0.563,-0.881 0.306,-2.053 -0.577,-2.616 -0.885,-0.559 -2.052,-0.3 -2.616,0.58 -2.42,3.794 -1.129,6.169 -0.461,7.017 1.372,1.732 3.953,2.324 6.421,1.465 0.281,-0.098 0.566,-0.218 0.847,-0.361 v 4.792 l -0.003,-0.006 c -0.057,-0.995 -0.883,-1.784 -1.891,-1.784 -1.047,0 -1.895,0.847 -1.895,1.895 0,1.236 0.864,3.38 3.79,4.044 v 3.535 c 0,1.047 0.847,1.895 1.895,1.895 1.047,0 1.895,-0.847 1.895,-1.895 v -3.535 c 2.925,-0.664 3.79,-2.808 3.79,-4.044 0,-1.047 -0.845,-1.958 -1.891,-1.958 -1.047,0 -1.891,0.785 -1.891,1.832 -10e-4,0.003 -0.007,0.008 -0.007,0.008 l -10e-4,-4.78 c 0.281,0.143 0.566,0.264 0.847,0.361 2.468,0.858 5.048,0.267 6.421,-1.465 0.668,-0.847 1.96,-3.223 -0.461,-7.017 -0.563,-0.885 -1.732,-1.143 -2.616,-0.58 -0.883,0.563 -1.14,1.736 -0.577,2.616 0.908,1.429 0.935,2.31 0.681,2.632 -0.3,0.381 -1.228,0.582 -2.204,0.237 -0.629,-0.218 -2.091,-0.973 -2.091,-3.253 0,-1.821 0.842,-3.49 2.31,-4.575 1.471,-1.088 3.375,-1.395 5.21,-0.825 2.266,0.692 3.849,3.079 3.849,5.806 0,1.951 -0.418,3.923 -1.213,5.708 z m 0,-27.388 c 0.793,1.784 1.212,3.756 1.212,5.707 0,2.728 -1.582,5.114 -3.849,5.806 -1.839,0.574 -3.742,0.263 -5.21,-0.825 -1.468,-1.085 -2.31,-2.753 -2.31,-4.575 0,-2.28 1.462,-3.034 2.091,-3.253 0.975,-0.341 1.905,-0.145 2.204,0.237 0.254,0.322 0.227,1.203 -0.681,2.632 -0.563,0.881 -0.306,2.054 0.577,2.616 0.89,0.559 2.058,0.303 2.616,-0.581 2.421,-3.794 1.129,-6.169 0.461,-7.017 -1.373,-1.732 -3.953,-2.324 -6.421,-1.465 -0.281,0.097 -0.566,0.218 -0.847,0.361 v -4.792 c 0,0.001 0.003,0.003 0.003,0.003 0.057,0.998 0.883,1.785 1.891,1.785 1.047,0 1.895,-0.847 1.895,-1.895 0,-1.236 -0.864,-3.38 -3.79,-4.044 v -3.535 c 0,-1.047 -0.847,-1.895 -1.895,-1.895 -1.047,0 -1.895,0.847 -1.895,1.895 v 3.535 c -2.925,0.664 -3.79,2.808 -3.79,4.044 0,1.047 0.845,1.958 1.891,1.958 1.047,0 1.891,-0.785 1.891,-1.832 0.001,-0.003 0.007,-0.008 0.008,-0.011 v 4.783 c -0.281,-0.143 -0.566,-0.264 -0.847,-0.361 -2.468,-0.858 -5.049,-0.267 -6.421,1.465 -0.668,0.847 -1.96,3.223 0.461,7.017 0.563,0.881 1.732,1.137 2.616,0.581 0.883,-0.563 1.14,-1.736 0.577,-2.616 -0.908,-1.429 -0.935,-2.31 -0.681,-2.632 0.298,-0.381 1.227,-0.577 2.204,-0.237 0.629,0.218 2.091,0.973 2.091,3.253 0,1.821 -0.842,3.49 -2.31,4.575 -1.471,1.088 -3.371,1.399 -5.21,0.825 -2.266,-0.692 -3.849,-3.079 -3.849,-5.806 0,-1.951 0.418,-3.923 1.212,-5.707 L 43.535,159.733 Z M 41.647,143.699 c 0.717,-0.558 1.353,-1.226 1.889,-1.981 0.535,0.755 1.171,1.422 1.889,1.981 -0.717,0.558 -1.353,1.226 -1.889,1.981 -0.535,-0.757 -1.17,-1.425 -1.889,-1.981 z"
   id="path12" />
	<circle
   style="fill:#ffe15a"
   cx="270.73999"
   cy="235.02901"
   r="45.605999"
   id="circle14" />
	<path
   style="fill:#ffe15a"
   d="m 274.167,176.882 c 0,1.889 -1.532,3.421 -3.421,3.421 -1.889,0 -3.421,-1.532 -3.421,-3.421 0,-1.889 3.421,-10.262 3.421,-10.262 0,0 3.421,8.373 3.421,10.262 z"
   id="path16" />
	<path
   style="fill:#ffe15a"
   d="m 267.326,293.185 c 0,-1.889 1.532,-3.421 3.421,-3.421 1.889,0 3.421,1.532 3.421,3.421 0,1.889 -3.421,10.262 -3.421,10.262 0,0 -3.421,-8.372 -3.421,-10.262 z"
   id="path18" />
	<path
   style="fill:#ffe15a"
   d="m 328.898,238.454 c -1.889,0 -3.421,-1.532 -3.421,-3.421 0,-1.889 1.532,-3.421 3.421,-3.421 1.889,0 10.262,3.421 10.262,3.421 0,0 -8.373,3.421 -10.262,3.421 z"
   id="path20" />
	<path
   style="fill:#ffe15a"
   d="m 212.595,231.613 c 1.889,0 3.421,1.532 3.421,3.421 0,1.889 -1.532,3.421 -3.421,3.421 -1.889,0 -10.262,-3.421 -10.262,-3.421 0,0 8.373,-3.421 10.262,-3.421 z"
   id="path22" />
	<path
   style="fill:#ffe15a"
   d="m 314.285,196.333 c -1.336,1.336 -3.502,1.336 -4.838,0 -1.336,-1.336 -1.336,-3.502 0,-4.838 1.336,-1.335 9.675,-4.838 9.675,-4.838 0,0 -3.5,8.34 -4.837,9.676 z"
   id="path24" />
	<path
   style="fill:#ffe15a"
   d="m 227.209,273.734 c 1.336,-1.336 3.501,-1.336 4.838,0 1.337,1.336 1.336,3.501 0,4.838 -1.336,1.337 -9.675,4.837 -9.675,4.837 0,0 3.501,-8.339 4.837,-9.675 z"
   id="path26" />
	<path
   style="fill:#ffe15a"
   d="m 309.448,278.571 c -1.336,-1.336 -1.336,-3.501 0,-4.838 1.336,-1.337 3.501,-1.336 4.838,0 1.337,1.336 4.838,9.675 4.838,9.675 0,0 -8.341,-3.501 -9.676,-4.837 z"
   id="path28" />
	<path
   style="fill:#ffe15a"
   d="m 232.046,191.495 c 1.336,1.336 1.336,3.501 0,4.838 -1.336,1.337 -3.501,1.336 -4.838,0 -1.337,-1.336 -4.838,-9.675 -4.838,-9.675 0,0 8.34,3.502 9.676,4.837 z"
   id="path30" />
	<path
   style="fill:#ffe15a"
   d="m 251.654,179.999 c 0.723,1.746 -0.106,3.746 -1.852,4.469 -1.746,0.723 -3.746,-0.106 -4.469,-1.852 -0.723,-1.746 -0.767,-10.79 -0.767,-10.79 0,0 6.365,6.427 7.088,8.173 z"
   id="path32" />
	<path
   style="fill:#ffe15a"
   d="m 289.841,290.068 c -0.723,-1.746 0.106,-3.746 1.852,-4.469 1.746,-0.723 3.746,0.106 4.469,1.852 0.723,1.746 0.767,10.79 0.767,10.79 0,0 -6.366,-6.426 -7.088,-8.173 z"
   id="path34" />
	<path
   style="fill:#ffe15a"
   d="m 325.781,215.941 c -1.746,0.723 -3.746,-0.106 -4.469,-1.852 -0.723,-1.746 0.106,-3.746 1.852,-4.469 1.746,-0.723 10.789,-0.767 10.789,-0.767 0,0 -6.426,6.364 -8.172,7.088 z"
   id="path36" />
	<path
   style="fill:#ffe15a"
   d="m 215.713,254.126 c 1.746,-0.723 3.746,0.106 4.469,1.852 0.723,1.746 -0.106,3.746 -1.852,4.469 -1.746,0.723 -10.79,0.767 -10.79,0.767 0,0 6.427,-6.364 8.173,-7.088 z"
   id="path38" />
	<path
   style="fill:#ffe15a"
   d="m 296.161,182.617 c -0.723,1.746 -2.724,2.574 -4.469,1.852 -1.746,-0.723 -2.574,-2.724 -1.852,-4.469 0.723,-1.746 7.087,-8.172 7.087,-8.172 0,0 -0.043,9.044 -0.766,10.789 z"
   id="path40" />
	<path
   style="fill:#ffe15a"
   d="m 245.333,287.451 c 0.723,-1.746 2.724,-2.574 4.469,-1.852 1.745,0.723 2.574,2.724 1.852,4.469 -0.723,1.746 -7.087,8.172 -7.087,8.172 0,0 0.043,-9.045 0.766,-10.789 z"
   id="path42" />
	<path
   style="fill:#ffe15a"
   d="m 323.162,260.448 c -1.746,-0.723 -2.574,-2.724 -1.852,-4.469 0.723,-1.746 2.724,-2.574 4.469,-1.852 1.746,0.723 8.172,7.087 8.172,7.087 0,0 -9.043,-0.042 -10.789,-0.766 z"
   id="path44" />
	<path
   style="fill:#ffe15a"
   d="m 218.33,209.62 c 1.746,0.723 2.574,2.724 1.852,4.469 -0.723,1.746 -2.724,2.574 -4.469,1.852 -1.746,-0.723 -8.172,-7.087 -8.172,-7.087 0,0 9.045,0.042 10.789,0.766 z"
   id="path46" />
	<path
   style="fill:#ffe15a"
   d="m 262.758,177.332 c 0.369,1.853 -0.835,3.654 -2.688,4.022 -1.853,0.369 -3.654,-0.835 -4.022,-2.688 -0.369,-1.853 1.353,-10.732 1.353,-10.732 0,0 4.988,7.545 5.357,9.398 z"
   id="path48" />
	<path
   style="fill:#ffe15a"
   d="m 278.737,292.735 c -0.369,-1.853 0.835,-3.654 2.688,-4.022 1.853,-0.369 3.654,0.835 4.022,2.688 0.369,1.853 -1.353,10.732 -1.353,10.732 0,0 -4.989,-7.544 -5.357,-9.398 z"
   id="path50" />
	<path
   style="fill:#ffe15a"
   d="m 328.449,227.044 c -1.853,0.369 -3.654,-0.834 -4.022,-2.688 -0.369,-1.853 0.834,-3.654 2.688,-4.022 1.853,-0.369 10.732,1.353 10.732,1.353 0,0 -7.545,4.988 -9.398,5.357 z"
   id="path52" />
	<path
   style="fill:#ffe15a"
   d="m 213.045,243.024 c 1.853,-0.369 3.654,0.834 4.022,2.688 0.369,1.853 -0.835,3.654 -2.688,4.022 -1.853,0.369 -10.732,-1.353 -10.732,-1.353 0,0 7.545,-4.988 9.398,-5.357 z"
   id="path54" />
	<path
   style="fill:#ffe15a"
   d="m 305.898,188.583 c -1.049,1.571 -3.174,1.993 -4.745,0.943 -1.571,-1.049 -1.993,-3.174 -0.943,-4.745 1.049,-1.57 8.545,-6.632 8.545,-6.632 0,0 -1.807,8.862 -2.857,10.434 z"
   id="path56" />
	<path
   style="fill:#ffe15a"
   d="m 235.595,281.484 c 1.049,-1.57 3.174,-1.993 4.745,-0.943 1.571,1.049 1.993,3.174 0.943,4.745 -1.049,1.57 -8.545,6.632 -8.545,6.632 0,0 1.808,-8.861 2.857,-10.434 z"
   id="path58" />
	<path
   style="fill:#ffe15a"
   d="m 317.198,270.185 c -1.571,-1.049 -1.993,-3.174 -0.943,-4.745 1.049,-1.57 3.174,-1.993 4.745,-0.943 1.571,1.049 6.632,8.545 6.632,8.545 0,0 -8.863,-1.808 -10.434,-2.857 z"
   id="path60" />
	<path
   style="fill:#ffe15a"
   d="m 224.296,199.882 c 1.571,1.049 1.994,3.174 0.943,4.745 -1.049,1.571 -3.174,1.993 -4.745,0.943 -1.571,-1.05 -6.632,-8.545 -6.632,-8.545 0,0 8.864,1.808 10.434,2.857 z"
   id="path62" />
	<path
   style="fill:#ffe15a"
   d="m 241.283,184.781 c 1.049,1.571 0.627,3.695 -0.943,4.745 -1.571,1.049 -3.695,0.627 -4.745,-0.943 -1.049,-1.571 -2.857,-10.433 -2.857,-10.433 0,0 7.496,5.062 8.545,6.631 z"
   id="path64" />
	<path
   style="fill:#ffe15a"
   d="m 300.21,285.286 c -1.049,-1.571 -0.627,-3.695 0.943,-4.745 1.571,-1.049 3.695,-0.627 4.745,0.943 1.049,1.571 2.857,10.433 2.857,10.433 0,0 -7.495,-5.06 -8.545,-6.631 z"
   id="path66" />
	<path
   style="fill:#ffe15a"
   d="m 320.999,205.57 c -1.57,1.049 -3.695,0.627 -4.745,-0.943 -1.049,-1.571 -0.627,-3.695 0.943,-4.745 1.57,-1.049 10.433,-2.857 10.433,-2.857 0,0 -5.06,7.496 -6.631,8.545 z"
   id="path68" />
	<path
   style="fill:#ffe15a"
   d="m 220.495,264.497 c 1.57,-1.049 3.695,-0.627 4.745,0.943 1.049,1.571 0.627,3.695 -0.943,4.745 -1.571,1.049 -10.433,2.857 -10.433,2.857 0,0 5.06,-7.495 6.631,-8.545 z"
   id="path70" />
	<path
   style="fill:#ffe15a"
   d="m 285.447,178.667 c -0.369,1.853 -2.169,3.057 -4.022,2.688 -1.853,-0.369 -3.057,-2.169 -2.688,-4.022 0.369,-1.853 5.357,-9.397 5.357,-9.397 0,0 1.721,8.877 1.353,10.731 z"
   id="path72" />
	<path
   style="fill:#ffe15a"
   d="m 256.047,291.401 c 0.369,-1.853 2.169,-3.057 4.022,-2.688 1.853,0.369 3.057,2.169 2.688,4.022 -0.369,1.853 -5.357,9.397 -5.357,9.397 0,0 -1.721,-8.877 -1.353,-10.731 z"
   id="path74" />
	<path
   style="fill:#ffe15a"
   d="m 327.114,249.734 c -1.853,-0.369 -3.057,-2.169 -2.688,-4.022 0.369,-1.853 2.169,-3.057 4.022,-2.688 1.853,0.369 9.398,5.357 9.398,5.357 0,0 -8.879,1.721 -10.732,1.353 z"
   id="path76" />
	<path
   style="fill:#ffe15a"
   d="m 214.38,220.333 c 1.853,0.369 3.057,2.169 2.688,4.022 -0.369,1.853 -2.169,3.057 -4.022,2.688 -1.853,-0.369 -9.398,-5.357 -9.398,-5.357 0,0 8.879,-1.721 10.732,-1.353 z"
   id="path78" />
	<path
   style="fill:#ffe15a"
   d="m 378.027,247.033 c -1.336,-0.562 -2.863,0.082 -3.42,1.41 0,0.006 0,0.006 0,0.006 -0.01,0.025 -0.062,0.148 -0.151,0.358 -1.977,4.618 -6.067,11.367 -10.197,17.716 3.847,-12.383 7.363,-25.609 7.609,-26.539 0.367,-1.389 -0.455,-2.815 -1.842,-3.192 -1.389,-0.373 -2.817,0.435 -3.206,1.818 -1.795,6.432 -5.466,14.897 -8.853,22.063 0.621,-7.99 0.738,-15.392 0.746,-15.928 0.02,-1.415 -1.088,-2.585 -2.504,-2.652 -1.331,0.041 -2.615,1.012 -2.72,2.426 -3.349,46.068 -47.678,66.676 -51.995,68.572 -2.258,0.225 -12.777,1.41 -22.324,4.725 -1.084,0.376 -2.004,0.753 -2.922,1.127 -0.341,-0.128 -0.707,-0.2 -1.092,-0.177 -29.302,2.12 -52.666,-9.9 -69.458,-35.652 -12.687,-19.458 -16.666,-39.882 -16.705,-40.086 -0.268,-1.42 -1.628,-2.335 -3.054,-2.084 -1.42,0.27 -2.353,1.634 -2.084,3.054 0.106,0.564 1.852,9.479 6.66,21.212 -6.433,-10.155 -10.916,-22.457 -12.494,-28.864 -0.032,-0.128 -0.114,-0.225 -0.162,-0.343 -0.073,-0.181 -0.136,-0.363 -0.245,-0.52 -0.077,-0.111 -0.178,-0.192 -0.269,-0.289 -0.143,-0.151 -0.28,-0.299 -0.455,-0.412 -0.1,-0.065 -0.212,-0.097 -0.321,-0.148 -0.193,-0.09 -0.382,-0.179 -0.597,-0.218 -0.149,-0.029 -0.301,-0.01 -0.456,-0.013 -0.157,-0.002 -0.305,-0.042 -0.465,-0.014 -0.035,0.006 -0.062,0.03 -0.097,0.038 -0.034,0.007 -0.066,-0.004 -0.1,0.003 -0.14,0.034 -0.247,0.122 -0.375,0.177 -0.163,0.071 -0.33,0.124 -0.473,0.223 -0.141,0.097 -0.246,0.223 -0.363,0.344 -0.117,0.12 -0.239,0.226 -0.331,0.365 -0.093,0.141 -0.143,0.3 -0.209,0.457 -0.063,0.153 -0.136,0.297 -0.169,0.462 -0.034,0.169 -0.019,0.343 -0.018,0.52 0,0.141 -0.039,0.276 -0.014,0.42 0.01,0.061 0.03,0.124 0.041,0.184 v 0.01 c 0.003,0.011 0.007,0.026 0.01,0.038 1.618,9.533 5.474,19.415 8.961,26.951 -5.537,-6.283 -10.164,-13.523 -11.804,-17.809 -0.047,-0.125 -0.142,-0.212 -0.206,-0.324 -0.097,-0.173 -0.182,-0.35 -0.313,-0.493 -0.093,-0.102 -0.206,-0.168 -0.312,-0.253 -0.159,-0.128 -0.31,-0.257 -0.494,-0.345 -0.118,-0.056 -0.246,-0.074 -0.371,-0.113 -0.193,-0.058 -0.38,-0.122 -0.585,-0.135 -0.161,-0.011 -0.321,0.03 -0.484,0.051 -0.151,0.019 -0.3,0 -0.45,0.047 -0.029,0.009 -0.049,0.032 -0.076,0.042 -0.028,0.009 -0.056,0.003 -0.084,0.014 -0.142,0.054 -0.243,0.159 -0.37,0.234 -0.149,0.088 -0.308,0.161 -0.435,0.275 -0.13,0.117 -0.22,0.262 -0.322,0.401 -0.097,0.131 -0.205,0.248 -0.277,0.394 -0.075,0.153 -0.103,0.319 -0.146,0.484 -0.043,0.161 -0.1,0.311 -0.111,0.48 -0.012,0.169 0.03,0.338 0.052,0.509 0.019,0.148 -0.001,0.295 0.045,0.441 2.846,9.18 9.69,20.102 15.052,27.796 -4.468,-3.443 -7.752,-7.167 -8.705,-8.291 -0.103,-0.122 -0.204,-0.245 -0.307,-0.367 -0.922,-1.109 -2.552,-1.267 -3.668,-0.363 -1.113,0.909 -1.288,2.545 -0.388,3.662 0.049,0.062 0.245,0.307 0.572,0.69 3.924,4.67 8.199,9.027 12.072,12.705 l -5.298,-2.258 c -1.208,-0.521 -2.628,-0.051 -3.29,1.098 -0.661,1.15 -0.363,2.605 0.697,3.402 0.515,0.383 9.898,7.392 18.02,11.534 -0.766,0.046 -1.665,-0.01 -2.671,-0.087 -1.228,-0.118 -2.436,0.761 -2.735,2.007 -0.294,1.251 0.36,2.529 1.548,3.019 0.2,0.082 2.675,1.103 5.731,2.191 -0.713,0.291 -1.28,0.889 -1.515,1.665 -0.352,1.16 0.143,2.417 1.195,3.019 0.274,0.159 3.972,2.279 8.546,4.158 -0.122,0.189 -0.222,0.394 -0.296,0.618 -0.358,1.098 0.051,2.304 1.004,2.963 0.794,0.546 18.559,12.602 39.307,12.602 1.362,0 2.738,-0.051 4.122,-0.163 1.438,-0.113 2.514,-1.374 2.399,-2.815 -0.115,-1.441 -1.364,-2.529 -2.817,-2.396 -13.034,1.063 -25.591,-3.831 -33.059,-7.571 0.986,-0.241 1.553,-0.46 1.694,-0.516 1.152,-0.47 1.816,-1.681 1.591,-2.902 -0.225,-1.222 -1.277,-2.115 -2.521,-2.141 -3.032,-0.062 -7.231,-1.538 -10.848,-3.122 1.366,-0.684 2.164,-1.339 2.234,-1.395 0.787,-0.659 1.119,-1.711 0.851,-2.702 -0.27,-0.985 -1.094,-1.727 -2.104,-1.89 -1.111,-0.184 -2.495,-0.542 -3.946,-0.981 1.41,-0.812 2.01,-1.706 2.24,-2.161 0.363,-0.725 0.371,-1.574 0.023,-2.304 -0.35,-0.73 -1.016,-1.257 -1.809,-1.426 -0.684,-0.148 -1.459,-0.398 -2.296,-0.725 0.153,-0.153 0.294,-0.327 0.408,-0.526 0.666,-1.129 0.391,-2.58 -0.643,-3.392 -0.054,-0.041 -2.084,-1.635 -5.158,-4.286 0.488,-0.179 0.919,-0.511 1.231,-0.96 0.659,-0.95 0.612,-2.222 -0.11,-3.122 -0.058,-0.072 -2.091,-2.628 -4.893,-6.51 0.925,0.718 1.849,1.452 2.773,2.046 0.435,0.276 0.927,0.414 1.415,0.414 0.662,0 1.315,-0.25 1.818,-0.736 0.207,-0.2 0.369,-0.43 0.497,-0.675 1.587,1.695 3.254,3.234 5.005,4.547 0.228,0.171 0.505,0.168 0.761,0.254 0.742,1.244 1.514,2.49 2.324,3.736 15.883,24.438 38.278,37.528 65.138,38.314 -2.473,1.502 -5.158,3.054 -9.409,4.71 -0.928,0.362 -1.748,0.724 -2.572,1.087 -0.398,0.078 -0.771,0.222 -1.084,0.469 -7.42,3.435 -10.492,6.829 -11.738,9.203 -1.244,2.36 -0.171,4.781 1.348,6.038 0.472,0.388 1.073,0.587 1.676,0.587 0.414,0 0.828,-0.092 1.203,-0.281 0.925,-0.46 1.543,-1.436 1.502,-2.462 0.107,-0.118 0.562,-0.495 1.987,-0.542 1.039,-0.087 3.226,0.148 5.778,0.353 2.428,0.2 5.34,0.427 8.436,0.586 -1.937,2.258 -4.188,4.875 -4.188,4.875 -0.676,0.787 -0.825,1.9 -0.375,2.835 0.452,0.94 1.426,1.523 2.447,1.486 2.067,-0.072 3.471,-0.113 4.393,-0.132 0.804,1.053 1.791,1.471 2.426,1.634 1.799,0.46 3.591,-0.26 4.942,-1.113 1.022,0.736 2.044,1.047 2.854,1.164 1.826,0.25 3.518,-0.281 4.74,-0.884 1.267,0.818 2.508,1.027 3.454,1.027 0.013,0 0.029,0 0.043,0 2.04,-0.01 3.826,-0.996 5.09,-1.962 1.117,0.664 2.184,0.878 3.009,0.915 1.873,0.066 3.425,-0.654 4.457,-1.329 3.686,0.74 6.863,-0.996 8.963,-2.912 0.958,0.557 1.869,0.695 2.595,0.659 1.867,-0.066 3.289,-1.201 4.202,-2.217 4.179,0.505 7.178,-0.266 8.911,-2.324 0.946,-1.119 1.329,-2.38 1.433,-3.53 11.594,-0.066 12.643,-6.396 12.728,-7.178 0.076,-0.71 -0.14,-1.42 -0.602,-1.966 -0.46,-0.546 -1.127,-0.884 -1.839,-0.925 l -30.396,-1.828 c -1.272,-0.092 -2.407,0.761 -2.702,2.003 -0.006,0.021 -0.523,1.951 -2.145,3.495 -2.181,2.083 -5.695,3.183 -9.516,3.766 0.014,-0.35 -0.035,-0.706 -0.169,-1.054 -0.521,-1.348 -2.038,-2.003 -3.382,-1.497 -6.275,2.435 -16.435,2.129 -24.383,1.576 1.219,-0.996 2.687,-1.983 3.86,-2.627 0.991,-0.546 1.523,-1.665 1.313,-2.779 -0.152,-0.809 -0.737,-1.372 -1.442,-1.734 2.21,-1.116 4.022,-2.194 5.741,-3.242 2.984,-1.828 5.803,-3.55 10.937,-5.333 9.91,-3.443 21.379,-4.49 21.494,-4.501 0.26,-0.02 0.516,-0.087 0.759,-0.184 0.408,-0.169 32.758,-13.721 47.999,-44.991 -0.2,0.945 -0.414,1.809 -0.647,2.564 -0.398,1.288 0.245,2.662 1.486,3.182 0.96,0.404 2.051,0.194 2.79,-0.49 -0.963,2.539 -1.834,4.536 -2.545,5.716 -0.725,1.201 -0.375,2.759 0.792,3.535 0.274,0.179 0.567,0.301 0.868,0.373 -1.18,1.727 -2.376,3.361 -3.569,4.859 -0.794,0.996 -0.748,2.417 0.082,3.357 -2.049,2.145 -3.864,3.913 -5.244,5.037 -0.902,0.73 -1.195,1.952 -0.781,2.994 -1.331,0.761 -2.424,1.298 -3.182,1.527 -1.272,0.383 -2.053,1.665 -1.813,2.973 0.125,0.69 0.513,1.272 1.049,1.655 -1.599,0.429 -3.349,0.843 -5.249,1.22 -1.07,0.214 -1.895,1.067 -2.071,2.145 -0.174,1.078 0.338,2.151 1.284,2.692 0.082,0.046 0.975,0.552 2.343,1.134 -5.059,2.038 -14.094,4.7 -28.919,6.161 -1.436,0.143 -2.488,1.426 -2.345,2.861 0.14,1.436 1.382,2.432 2.86,2.35 28.142,-2.784 36.832,-9.828 37.187,-10.131 0.812,-0.68 1.134,-1.788 0.812,-2.799 -0.214,-0.67 -0.684,-1.21 -1.288,-1.523 8.991,-2.83 12.851,-5.962 13.052,-6.13 0.985,-0.818 1.234,-2.232 0.585,-3.341 -0.654,-1.109 -2.015,-1.589 -3.203,-1.109 -0.334,0.128 -0.868,0.26 -1.543,0.393 6.034,-4.132 12.439,-9.053 15.256,-11.249 0.495,-0.367 0.946,-0.721 1.341,-1.053 1.094,-0.919 1.247,-2.543 0.345,-3.652 -0.897,-1.103 -2.529,-1.288 -3.647,-0.404 -0.408,0.322 -0.833,0.654 -1.272,0.996 -1.3,0.966 -2.963,2.059 -4.777,3.182 6.848,-7.775 13.741,-16.204 15.711,-18.625 0.179,-0.22 0.355,-0.439 0.534,-0.659 0.904,-1.124 0.728,-2.769 -0.396,-3.673 -1.127,-0.919 -2.774,-0.73 -3.676,0.388 l -0.006,0.005 -0.002,0.006 c -0.049,0.056 -0.27,0.332 -0.643,0.792 -2.063,2.518 -4.235,4.956 -6.378,7.233 6.976,-12.643 12.258,-25.088 13.032,-26.932 0.028,-0.066 0.054,-0.132 0.082,-0.2 0.556,-1.321 -0.074,-2.854 -1.408,-3.406 z m -122.59,88.168 0.714,0.093 c -0.876,0.819 -1.588,1.737 -2.155,2.685 -1.242,-0.1 -2.369,-0.186 -3.252,-0.227 1.217,-0.796 2.783,-1.658 4.693,-2.551 z"
   id="path80" />
</g>
<g
   id="g84">
</g>
<g
   id="g86">
</g>
<g
   id="g88">
</g>
<g
   id="g90">
</g>
<g
   id="g92">
</g>
<g
   id="g94">
</g>
<g
   id="g96">
</g>
<g
   id="g98">
</g>
<g
   id="g100">
</g>
<g
   id="g102">
</g>
<g
   id="g104">
</g>
<g
   id="g106">
</g>
<g
   id="g108">
</g>
<g
   id="g110">
</g>
<g
   id="g112">
</g>
</svg>
