<?xml version="1.0" encoding="UTF-8" standalone="no"?>
<svg
   xmlns:dc="http://purl.org/dc/elements/1.1/"
   xmlns:cc="http://creativecommons.org/ns#"
   xmlns:rdf="http://www.w3.org/1999/02/22-rdf-syntax-ns#"
   xmlns:svg="http://www.w3.org/2000/svg"
   xmlns="http://www.w3.org/2000/svg"
   xmlns:sodipodi="http://sodipodi.sourceforge.net/DTD/sodipodi-0.dtd"
   xmlns:inkscape="http://www.inkscape.org/namespaces/inkscape"
   version="1.1"
   id="Layer_1"
   x="0px"
   y="0px"
   viewBox="0 0 512 335.45001"
   xml:space="preserve"
   sodipodi:docname="lb.svg"
   width="512"
   height="335.45001"
   inkscape:version="1.0.1 (c497b03c, 2020-09-10)"><metadata
   id="metadata55"><rdf:RDF><cc:Work
       rdf:about=""><dc:format>image/svg+xml</dc:format><dc:type
         rdf:resource="http://purl.org/dc/dcmitype/StillImage" /><dc:title></dc:title></cc:Work></rdf:RDF></metadata><defs
   id="defs53" /><sodipodi:namedview
   pagecolor="#ffffff"
   bordercolor="#666666"
   borderopacity="1"
   objecttolerance="10"
   gridtolerance="10"
   guidetolerance="10"
   inkscape:pageopacity="0"
   inkscape:pageshadow="2"
   inkscape:window-width="1196"
   inkscape:window-height="844"
   id="namedview51"
   showgrid="false"
   inkscape:zoom="1.640625"
   inkscape:cx="256"
   inkscape:cy="256"
   inkscape:window-x="0"
   inkscape:window-y="23"
   inkscape:window-maximized="0"
   inkscape:current-layer="Layer_1" />
<g
   id="g14"
   transform="translate(0,-88.276)">
	<path
   style="fill:#ff4b55"
   d="M 473.655,88.276 H 38.345 C 17.167,88.276 0,105.443 0,126.621 v 32.276 h 512 v -32.276 c 0,-21.178 -17.167,-38.345 -38.345,-38.345 z"
   id="path10" />
	<path
   style="fill:#ff4b55"
   d="m 0,385.379 c 0,21.177 17.167,38.345 38.345,38.345 h 435.31 c 21.177,0 38.345,-17.167 38.345,-38.345 V 353.103 H 0 Z"
   id="path12" />
</g>
<rect
   y="70.623993"
   style="fill:#f5f5f5"
   width="512"
   height="194.21001"
   id="rect16"
   x="0" />
<path
   style="fill:#73af00"
   d="m 274.862,227.103 81.581,-16.317 c 5.888,-1.177 8.516,-8.107 4.89,-12.894 v 0 c -1.273,-1.681 -3.149,-2.802 -5.233,-3.126 l -86.911,-13.551 c -2.402,-0.375 -4.104,-2.631 -3.7,-5.126 0.391,-2.414 2.838,-3.951 5.262,-3.633 l 60.259,7.929 c 4.897,0.644 7.902,-5.207 4.523,-8.812 l -4.838,-5.16 c -1.811,-1.932 -4.185,-3.243 -6.785,-3.746 l -50.338,-9.749 42.921,3.092 c 3.29,0.237 5.196,-3.652 2.993,-6.108 l -2.201,-2.453 c -1.331,-1.482 -3.098,-2.502 -5.048,-2.909 l -42.613,-8.905 30.284,-0.876 c 2.678,-0.077 4.04,-3.252 2.25,-5.246 L 300.8,128 c -1.064,-1.185 -2.44,-2.047 -3.97,-2.486 l -27.01,-7.755 h 21.226 c 2.1,0 3.512,-2.152 2.677,-4.078 l -0.715,-1.651 c -0.858,-1.982 -2.515,-3.509 -4.559,-4.205 l -19.629,-6.678 9.654,-0.031 c 2.869,-0.009 4.793,-2.951 3.652,-5.583 v 0 c -0.919,-2.121 -2.541,-3.86 -4.593,-4.924 L 256,79.448 234.466,90.613 c -2.052,1.064 -3.674,2.803 -4.593,4.924 v 0 c -1.141,2.633 0.783,5.574 3.652,5.582 l 9.654,0.032 -19.629,6.678 c -2.045,0.695 -3.701,2.222 -4.559,4.205 l -0.716,1.651 c -0.835,1.927 0.577,4.078 2.677,4.078 h 21.226 l -27.009,7.755 c -1.53,0.439 -2.906,1.301 -3.97,2.486 l -1.358,1.513 c -1.789,1.994 -0.427,5.169 2.25,5.246 l 30.284,0.876 -42.613,8.905 c -1.95,0.407 -3.718,1.427 -5.048,2.909 l -2.201,2.453 c -2.204,2.455 -0.298,6.345 2.993,6.108 l 42.921,-3.092 -50.338,9.749 c -2.6,0.503 -4.974,1.814 -6.785,3.746 l -4.838,5.16 c -3.379,3.604 -0.374,9.457 4.523,8.812 l 60.259,-7.929 c 2.424,-0.319 4.872,1.219 5.262,3.633 0.404,2.495 -1.298,4.75 -3.7,5.126 l -86.911,13.551 c -2.083,0.324 -3.959,1.445 -5.233,3.126 v 0 c -3.626,4.786 -0.998,11.715 4.89,12.894 l 81.581,16.317 v 10.182 c 0,5.558 -2.208,10.889 -6.138,14.819 L 218.276,264.83 H 256 293.725 l -12.724,-12.724 c -3.93,-3.93 -6.138,-9.261 -6.138,-14.819 v -10.184 z"
   id="path18" />
<g
   id="g20">
</g>
<g
   id="g22">
</g>
<g
   id="g24">
</g>
<g
   id="g26">
</g>
<g
   id="g28">
</g>
<g
   id="g30">
</g>
<g
   id="g32">
</g>
<g
   id="g34">
</g>
<g
   id="g36">
</g>
<g
   id="g38">
</g>
<g
   id="g40">
</g>
<g
   id="g42">
</g>
<g
   id="g44">
</g>
<g
   id="g46">
</g>
<g
   id="g48">
</g>
</svg>
