<?xml version="1.0" encoding="UTF-8" standalone="no"?>
<svg
   xmlns:dc="http://purl.org/dc/elements/1.1/"
   xmlns:cc="http://creativecommons.org/ns#"
   xmlns:rdf="http://www.w3.org/1999/02/22-rdf-syntax-ns#"
   xmlns:svg="http://www.w3.org/2000/svg"
   xmlns="http://www.w3.org/2000/svg"
   xmlns:sodipodi="http://sodipodi.sourceforge.net/DTD/sodipodi-0.dtd"
   xmlns:inkscape="http://www.inkscape.org/namespaces/inkscape"
   version="1.1"
   id="Layer_1"
   x="0px"
   y="0px"
   viewBox="0 0 512 335.45001"
   xml:space="preserve"
   sodipodi:docname="ly.svg"
   width="512"
   height="335.45001"
   inkscape:version="1.0.1 (c497b03c, 2020-09-10)"><metadata
   id="metadata57"><rdf:RDF><cc:Work
       rdf:about=""><dc:format>image/svg+xml</dc:format><dc:type
         rdf:resource="http://purl.org/dc/dcmitype/StillImage" /><dc:title></dc:title></cc:Work></rdf:RDF></metadata><defs
   id="defs55" /><sodipodi:namedview
   pagecolor="#ffffff"
   bordercolor="#666666"
   borderopacity="1"
   objecttolerance="10"
   gridtolerance="10"
   guidetolerance="10"
   inkscape:pageopacity="0"
   inkscape:pageshadow="2"
   inkscape:window-width="1134"
   inkscape:window-height="810"
   id="namedview53"
   showgrid="false"
   inkscape:zoom="1.640625"
   inkscape:cx="256"
   inkscape:cy="256"
   inkscape:window-x="0"
   inkscape:window-y="23"
   inkscape:window-maximized="0"
   inkscape:current-layer="Layer_1" />
<path
   style="fill:#73af00"
   d="m 0,297.103 c 0,21.177 17.167,38.345 38.345,38.345 h 435.31 c 21.177,0 38.345,-17.167 38.345,-38.345 V 247.172 H 0 Z"
   id="path10" />
<path
   style="fill:#ff4b55"
   d="M 473.655,0 H 38.345 C 17.167,0 0,17.167 0,38.345 V 88.276 H 512 V 38.345 C 512,17.167 494.833,0 473.655,0 Z"
   id="path12" />
<rect
   y="88.274002"
   style="fill:#464655"
   width="512"
   height="158.89999"
   id="rect14"
   x="0" />
<g
   id="g20"
   transform="translate(0,-88.276)">
	<path
   style="fill:#f5f5f5"
   d="m 306.058,227.432 13.286,17.379 20.745,-6.944 c 1.16,-0.388 2.146,0.924 1.452,1.93 l -12.424,18.006 13.014,17.583 c 0.727,0.983 -0.215,2.327 -1.387,1.977 l -20.963,-6.251 -12.701,17.811 c -0.711,0.996 -2.28,0.514 -2.31,-0.708 l -0.533,-21.869 -20.864,-6.575 c -1.166,-0.367 -1.194,-2.008 -0.04,-2.415 l 20.634,-7.264 -0.193,-21.875 c -0.011,-1.224 1.541,-1.757 2.284,-0.785 z"
   id="path16" />
	<path
   style="fill:#f5f5f5"
   d="m 270.001,298.898 c -23.672,0 -42.876,-19.203 -42.876,-42.898 0,-23.65 19.203,-42.897 42.876,-42.897 8.808,0 16.93,2.709 23.699,7.294 1.036,0.702 2.22,-0.66 1.352,-1.562 -10.116,-10.517 -24.434,-16.934 -40.309,-16.392 -27.274,0.93 -49.852,22.797 -51.594,50.031 -1.996,31.194 22.703,57.118 53.455,57.118 15.148,0 28.762,-6.333 38.485,-16.459 0.858,-0.895 -0.327,-2.236 -1.354,-1.54 -6.776,4.592 -14.911,7.305 -23.734,7.305 z"
   id="path18" />
</g>
<g
   id="g22"
   transform="translate(0,-88.276)">
</g>
<g
   id="g24"
   transform="translate(0,-88.276)">
</g>
<g
   id="g26"
   transform="translate(0,-88.276)">
</g>
<g
   id="g28"
   transform="translate(0,-88.276)">
</g>
<g
   id="g30"
   transform="translate(0,-88.276)">
</g>
<g
   id="g32"
   transform="translate(0,-88.276)">
</g>
<g
   id="g34"
   transform="translate(0,-88.276)">
</g>
<g
   id="g36"
   transform="translate(0,-88.276)">
</g>
<g
   id="g38"
   transform="translate(0,-88.276)">
</g>
<g
   id="g40"
   transform="translate(0,-88.276)">
</g>
<g
   id="g42"
   transform="translate(0,-88.276)">
</g>
<g
   id="g44"
   transform="translate(0,-88.276)">
</g>
<g
   id="g46"
   transform="translate(0,-88.276)">
</g>
<g
   id="g48"
   transform="translate(0,-88.276)">
</g>
<g
   id="g50"
   transform="translate(0,-88.276)">
</g>
</svg>
