<?xml version="1.0" encoding="UTF-8" standalone="no"?>
<svg
   xmlns:dc="http://purl.org/dc/elements/1.1/"
   xmlns:cc="http://creativecommons.org/ns#"
   xmlns:rdf="http://www.w3.org/1999/02/22-rdf-syntax-ns#"
   xmlns:svg="http://www.w3.org/2000/svg"
   xmlns="http://www.w3.org/2000/svg"
   xmlns:sodipodi="http://sodipodi.sourceforge.net/DTD/sodipodi-0.dtd"
   xmlns:inkscape="http://www.inkscape.org/namespaces/inkscape"
   version="1.1"
   id="Layer_1"
   x="0px"
   y="0px"
   viewBox="0 0 512 335.45001"
   xml:space="preserve"
   sodipodi:docname="md-tn.svg"
   width="512"
   height="335.45001"
   inkscape:version="1.0.1 (c497b03c, 2020-09-10)"><metadata
   id="metadata1944"><rdf:RDF><cc:Work
       rdf:about=""><dc:format>image/svg+xml</dc:format><dc:type
         rdf:resource="http://purl.org/dc/dcmitype/StillImage" /><dc:title></dc:title></cc:Work></rdf:RDF></metadata><defs
   id="defs1942" /><sodipodi:namedview
   pagecolor="#ffffff"
   bordercolor="#666666"
   borderopacity="1"
   objecttolerance="10"
   gridtolerance="10"
   guidetolerance="10"
   inkscape:pageopacity="0"
   inkscape:pageshadow="2"
   inkscape:window-width="1072"
   inkscape:window-height="774"
   id="namedview1940"
   showgrid="false"
   inkscape:zoom="1.1738281"
   inkscape:cx="256"
   inkscape:cy="256"
   inkscape:window-x="0"
   inkscape:window-y="23"
   inkscape:window-maximized="0"
   inkscape:current-layer="Layer_1" />
<g
   id="g1905"
   transform="translate(0,-88.276)">
	<path
   style="fill:#ff4b55"
   d="m 38.345,423.724 h 435.31 c 21.177,0 38.345,-17.167 38.345,-38.345 V 295.724 H 0 v 89.655 c 0,21.178 17.167,38.345 38.345,38.345 z"
   id="path1901" />
	<path
   style="fill:#ff4b55"
   d="M 512,126.621 C 512,105.444 494.833,88.276 473.655,88.276 H 38.345 C 17.167,88.276 0,105.443 0,126.621 v 89.655 h 512 z"
   id="path1903" />
</g>
<rect
   y="128.004"
   style="fill:#73af00"
   width="512"
   height="79.449997"
   id="rect1907"
   x="0" />
<g
   id="g1909"
   transform="translate(0,-88.276)">
</g>
<g
   id="g1911"
   transform="translate(0,-88.276)">
</g>
<g
   id="g1913"
   transform="translate(0,-88.276)">
</g>
<g
   id="g1915"
   transform="translate(0,-88.276)">
</g>
<g
   id="g1917"
   transform="translate(0,-88.276)">
</g>
<g
   id="g1919"
   transform="translate(0,-88.276)">
</g>
<g
   id="g1921"
   transform="translate(0,-88.276)">
</g>
<g
   id="g1923"
   transform="translate(0,-88.276)">
</g>
<g
   id="g1925"
   transform="translate(0,-88.276)">
</g>
<g
   id="g1927"
   transform="translate(0,-88.276)">
</g>
<g
   id="g1929"
   transform="translate(0,-88.276)">
</g>
<g
   id="g1931"
   transform="translate(0,-88.276)">
</g>
<g
   id="g1933"
   transform="translate(0,-88.276)">
</g>
<g
   id="g1935"
   transform="translate(0,-88.276)">
</g>
<g
   id="g1937"
   transform="translate(0,-88.276)">
</g>
</svg>
