<?xml version="1.0" encoding="UTF-8" standalone="no"?>
<svg
   xmlns:dc="http://purl.org/dc/elements/1.1/"
   xmlns:cc="http://creativecommons.org/ns#"
   xmlns:rdf="http://www.w3.org/1999/02/22-rdf-syntax-ns#"
   xmlns:svg="http://www.w3.org/2000/svg"
   xmlns="http://www.w3.org/2000/svg"
   xmlns:sodipodi="http://sodipodi.sourceforge.net/DTD/sodipodi-0.dtd"
   xmlns:inkscape="http://www.inkscape.org/namespaces/inkscape"
   version="1.1"
   id="Layer_1"
   x="0px"
   y="0px"
   viewBox="0 0 512 335.45001"
   xml:space="preserve"
   sodipodi:docname="md.svg"
   width="512"
   height="335.45001"
   inkscape:version="1.0.1 (c497b03c, 2020-09-10)"><metadata
   id="metadata143"><rdf:RDF><cc:Work
       rdf:about=""><dc:format>image/svg+xml</dc:format><dc:type
         rdf:resource="http://purl.org/dc/dcmitype/StillImage" /><dc:title></dc:title></cc:Work></rdf:RDF></metadata><defs
   id="defs141" /><sodipodi:namedview
   pagecolor="#ffffff"
   bordercolor="#666666"
   borderopacity="1"
   objecttolerance="10"
   gridtolerance="10"
   guidetolerance="10"
   inkscape:pageopacity="0"
   inkscape:pageshadow="2"
   inkscape:window-width="959"
   inkscape:window-height="480"
   id="namedview139"
   showgrid="false"
   inkscape:zoom="1.640625"
   inkscape:cx="256"
   inkscape:cy="256"
   inkscape:window-x="0"
   inkscape:window-y="23"
   inkscape:window-maximized="0"
   inkscape:current-layer="Layer_1" />
<path
   style="fill:#ff4b55;stroke-width:1"
   d="M 473.655,0 H 341.333 V 335.44799 H 473.655 C 494.832,335.44799 512,318.281 512,297.103 V 38.345 C 512,17.167 494.833,0 473.655,0 Z"
   id="path10" />
<rect
   x="170.67"
   y="0.0040004272"
   style="fill:#ffe15a;stroke-width:1"
   width="170.67"
   height="335.45001"
   id="rect12" />
<path
   style="fill:#41479b;stroke-width:1"
   d="M 38.345,0 C 17.167,0 0,17.167 0,38.345 v 258.759 c 0,21.177 17.167,38.34499 38.345,38.34499 H 170.667 V 0 Z"
   id="path14" />
<rect
   x="-84.098381"
   y="-358.41977"
   transform="rotate(140.80775)"
   style="fill:#ffcd5a;stroke-width:0.99996"
   width="5.665781"
   height="31.666773"
   id="rect16" />
<rect
   x="-87.054054"
   y="-340.65305"
   transform="rotate(140.83194)"
   style="fill:#ffbe5a;stroke-width:0.999999"
   width="11.329051"
   height="13.93706"
   id="rect18" />
<rect
   x="314.62241"
   y="1.6565019"
   transform="rotate(39.192248)"
   style="fill:#ffcd5a;stroke-width:0.99996"
   width="5.665781"
   height="31.666771"
   id="rect20" />
<rect
   x="311.78876"
   y="1.799423"
   transform="rotate(39.168066)"
   style="fill:#ffbe5a;stroke-width:0.999999"
   width="11.32905"
   height="13.93706"
   id="rect22" />
<polygon
   style="fill:#ffe15a"
   points="255.805,340.073 255.805,300.416 250.14,297.584 235.977,325.91 "
   id="polygon24"
   transform="translate(0,-88.273)" />
<polygon
   style="fill:#ffcd5a"
   points="255.805,340.073 255.805,300.416 261.471,297.584 275.634,325.91 "
   id="polygon26"
   transform="translate(0,-88.273)" />
<path
   style="fill:#ffbe5a;stroke-width:1"
   d="m 216.148,209.311 v -73.65 h 8.498 c 0,0 0,48.156 0,56.653 0,8.497 -8.498,16.997 -8.498,16.997 z"
   id="path28" />
<path
   style="fill:#ffcd5a;stroke-width:1"
   d="M 210.482,223.474 V 135.66 h 8.498 c 0,0 0,62.319 0,70.817 -10e-4,8.498 -8.498,16.997 -8.498,16.997 z"
   id="path30" />
<path
   style="fill:#ffe15a;stroke-width:1"
   d="m 204.817,234.805 v -99.144 h 8.498 c 0,0 0,73.65 0,82.148 0,8.497 -8.498,16.996 -8.498,16.996 z"
   id="path32" />
<path
   style="fill:#ff4b55;stroke-width:1"
   d="m 224.646,138.493 c 0,0 0,40.365 0,53.821 0,14.164 20.537,12.275 31.159,22.661 10.623,-10.387 31.159,-8.498 31.159,-22.661 0,-13.455 0,-53.821 0,-53.821 z"
   id="path34" />
<path
   style="fill:#41479b;stroke-width:1"
   d="m 224.646,169.653 c 0,8.968 0,17.668 0,22.662 0,14.164 20.537,12.275 31.159,22.661 10.623,-10.387 31.159,-8.498 31.159,-22.662 0,-4.993 0,-13.694 0,-22.662 z"
   id="path36" />
<g
   id="g56"
   transform="translate(0,-88.273)">
	<polygon
   style="fill:#ffe15a"
   points="250.14,249.427 252.972,249.427 255.805,252.261 258.638,249.427 261.471,249.427 269.969,260.758 261.471,266.423 261.471,283.42 264.303,286.252 264.303,289.085 255.805,294.75 247.307,289.085 247.307,286.252 250.14,283.42 250.14,266.423 241.642,260.758 "
   id="polygon38" />
	<path
   style="fill:#ffe15a"
   d="m 244.474,229.599 c 0,0 -11.33,2.833 -11.33,14.164 0,11.33 11.33,16.996 11.33,16.996 l 5.665,-8.498 c -16.996,-5.666 -5.665,-22.662 -5.665,-22.662 z"
   id="path40" />
	<path
   style="fill:#ffe15a"
   d="m 267.136,229.599 c 0,0 11.33,2.833 11.33,14.164 0,11.33 -11.33,16.996 -11.33,16.996 l -5.665,-8.498 c 16.995,-5.666 5.665,-22.662 5.665,-22.662 z"
   id="path42" />
	<polygon
   style="fill:#ffe15a"
   points="238.809,257.926 233.143,255.093 227.478,257.926 233.143,260.758 "
   id="polygon44" />
	<polygon
   style="fill:#ffe15a"
   points="284.132,257.926 278.466,255.093 272.801,257.926 278.466,260.758 "
   id="polygon46" />
	<polygon
   style="fill:#ffe15a"
   points="260.812,243.104 257.865,243.069 255.805,245.179 253.746,243.069 250.797,243.104 250.833,240.157 248.724,238.097 250.833,236.037 250.797,233.089 253.746,233.125 255.805,231.015 257.865,233.125 260.812,233.089 260.778,236.037 262.887,238.097 260.778,240.157 "
   id="polygon48" />
	<path
   style="fill:#ffe15a"
   d="m 236.568,270.297 2.042,2.272 2.84,-1.126 c 1.471,-0.583 2.851,1.016 2.059,2.386 l -1.529,2.645 1.949,2.354 c 1.009,1.218 -0.086,3.026 -1.633,2.696 l -2.988,-0.638 -1.636,2.581 c -0.847,1.336 -2.904,0.853 -3.069,-0.721 l -0.318,-3.039 -2.959,-0.758 c -1.533,-0.393 -1.709,-2.498 -0.264,-3.14 l 2.792,-1.24 -0.193,-3.049 c -0.097,-1.582 1.85,-2.4 2.907,-1.223 z"
   id="path50" />
	<path
   style="fill:#ffe15a"
   d="m 274.297,276.755 c 0.625,-3.222 3.283,-5.503 6.382,-5.847 -0.636,-0.342 -1.312,-0.625 -2.057,-0.769 -3.968,-0.769 -7.808,1.824 -8.577,5.791 -0.769,3.968 1.823,7.808 5.791,8.577 0.746,0.145 1.479,0.136 2.195,0.056 -2.745,-1.477 -4.358,-4.586 -3.734,-7.808 z"
   id="path52" />
	<path
   style="fill:#ffe15a"
   d="m 244.474,226.766 5.665,-28.327 -11.33,-8.498 2.833,-2.833 h 5.665 c 0,0 2.833,-2.833 8.498,-2.833 5.665,0 11.33,2.833 11.33,11.33 0,8.497 2.833,31.159 2.833,31.159 h -25.494 z"
   id="path54" />
</g>
<path
   style="fill:#ffaa5a;stroke-width:1"
   d="m 224.646,127.162 c -6.258,0 -11.33,5.073 -11.33,11.33 h 22.662 c -0.001,-6.257 -5.075,-11.33 -11.332,-11.33 z"
   id="path58" />
<g
   id="g64"
   transform="translate(0,-88.273)">
	<path
   style="fill:#ffbe5a"
   d="m 221.813,226.766 h -16.996 v -18.855 c 0,-3.667 2.973,-6.639 6.639,-6.639 h 3.718 c 3.667,0 6.639,2.973 6.639,6.639 z"
   id="path60" />
	<path
   style="fill:#ffbe5a"
   d="m 295.463,297.584 v -73.65 h -8.498 c 0,0 0,48.156 0,56.653 0,8.497 8.498,16.997 8.498,16.997 z"
   id="path62" />
</g>
<path
   style="fill:#ffcd5a;stroke-width:1"
   d="M 301.128,223.474 V 135.66 h -8.498 c 0,0 0,62.319 0,70.817 0,8.498 8.498,16.997 8.498,16.997 z"
   id="path66" />
<path
   style="fill:#ffe15a;stroke-width:1"
   d="m 306.794,234.805 v -99.144 h -8.498 c 0,0 0,73.65 0,82.148 -10e-4,8.497 8.498,16.996 8.498,16.996 z"
   id="path68" />
<path
   style="fill:#ffaa5a;stroke-width:1"
   d="m 286.965,127.162 c 6.258,0 11.33,5.073 11.33,11.33 h -22.662 c 0.001,-6.257 5.074,-11.33 11.332,-11.33 z"
   id="path70" />
<path
   style="fill:#ffbe5a;stroke-width:1"
   d="m 289.798,138.493 h 16.996 v -18.855 c 0,-3.667 -2.973,-6.639 -6.639,-6.639 h -3.717 c -3.667,0 -6.639,2.973 -6.639,6.639 z"
   id="path72" />
<rect
   x="360.09607"
   y="-21.939535"
   transform="rotate(31.33912)"
   style="fill:#ffaa5a;stroke-width:0.999996"
   width="4.2489805"
   height="76.269646"
   id="rect74" />
<rect
   x="-9.8273211"
   y="-369.91577"
   transform="rotate(128.63833)"
   style="fill:#ffe15a;stroke-width:0.999996"
   width="11.330958"
   height="8.8609667"
   id="rect76" />
<rect
   x="358.6467"
   y="-21.837719"
   transform="rotate(31.326352)"
   style="fill:#ffcd5a;stroke-width:0.99998"
   width="7.0818362"
   height="16.343622"
   id="rect78" />
<g
   id="g84"
   transform="translate(0,-88.273)">
	
		<rect
   x="176.231"
   y="290.32901"
   transform="matrix(0.5429,0.8398,-0.8398,0.5429,342.3956,-45.5664)"
   style="fill:#73af00"
   width="73.650002"
   height="2.8329999"
   id="rect80" />
	<path
   style="fill:#73af00"
   d="m 219.413,289.383 c -1.016,1.152 -1.69,2.899 -1.86,4.913 -1.397,-1.41 -3.001,-2.308 -4.495,-2.549 -0.394,1.461 -0.234,3.293 0.479,5.145 -1.907,-0.672 -3.775,-0.775 -5.242,-0.321 0.413,2.088 2.114,4.354 4.721,5.909 2.606,1.556 5.409,1.976 7.442,1.348 l 0.582,-0.376 c 1.407,-1.597 2.174,-4.324 1.826,-7.339 -0.351,-3.015 -1.72,-5.496 -3.453,-6.73 z"
   id="path82" />
</g>
<circle
   style="fill:#ff4b55;stroke-width:1"
   cx="220.75"
   cy="215.37401"
   id="circle86"
   r="2.8329999" />
<path
   style="fill:#73af00;stroke-width:1"
   d="m 208.648,184.458 c -1.016,1.152 -1.69,2.899 -1.86,4.913 -1.397,-1.41 -3.001,-2.308 -4.495,-2.549 -0.394,1.461 -0.234,3.293 0.479,5.145 -1.907,-0.672 -3.775,-0.775 -5.242,-0.321 0.413,2.088 2.114,4.354 4.721,5.909 2.606,1.556 5.409,1.976 7.442,1.348 l 0.582,-0.376 c 1.407,-1.597 2.174,-4.324 1.826,-7.339 -0.35,-3.016 -1.719,-5.497 -3.453,-6.73 z"
   id="path88" />
<circle
   style="fill:#ff4b55;stroke-width:1"
   cx="209.99001"
   cy="198.72401"
   id="circle90"
   r="2.8329999" />
<path
   style="fill:#73af00;stroke-width:1"
   d="m 197.884,167.806 c -1.016,1.152 -1.69,2.899 -1.86,4.913 -1.397,-1.41 -3.001,-2.308 -4.495,-2.549 -0.394,1.461 -0.234,3.293 0.479,5.145 -1.907,-0.672 -3.775,-0.775 -5.242,-0.321 0.413,2.088 2.114,4.354 4.721,5.909 2.606,1.556 5.409,1.976 7.442,1.348 l 0.582,-0.376 c 1.407,-1.597 2.174,-4.324 1.826,-7.339 -0.352,-3.016 -1.72,-5.497 -3.453,-6.73 z"
   id="path92" />
<circle
   style="fill:#ff4b55;stroke-width:1"
   cx="199.22"
   cy="182.07399"
   id="circle94"
   r="2.8329999" />
<g
   id="g102"
   transform="translate(0,-88.273)">
	
		<rect
   x="220.70399"
   y="308.815"
   transform="matrix(0.6244,0.7811,-0.7811,0.6244,329.7009,-59.1636)"
   style="fill:#ffe15a"
   width="11.331"
   height="8.8610001"
   id="rect96" />
	<rect
   x="238.81"
   y="178.617"
   style="fill:#ffe15a"
   width="2.8329999"
   height="19.829"
   id="rect98" />
	<rect
   x="235.97"
   y="181.44701"
   style="fill:#ffe15a"
   width="8.4980001"
   height="2.8329999"
   id="rect100" />
</g>
<polygon
   style="fill:#ff875a"
   points="247.307,187.109 241.642,187.109 238.809,189.941 247.307,196.315 "
   id="polygon104"
   transform="translate(0,-88.273)" />
<path
   style="fill:#ffaa5a;stroke-width:1"
   d="m 241.642,90.337 v 2.833 h 2.833 v 2.833 h -2.833 v 2.833 h 5.665 c 0,0 2.833,-2.833 8.498,-2.833 5.665,0 11.33,2.833 11.33,11.33 0,8.498 2.833,31.159 2.833,31.159 h 5.665 c 0,-6.258 5.073,-11.33 11.33,-11.33 0.984,0 1.922,0.164 2.833,0.401 v -6.066 c 0,-4.693 3.805,-8.498 8.498,-8.498 4.693,0 8.498,3.805 8.498,8.498 v 14.164 2.833 50.026 l 3.658,-6.009 -1.209,-0.736 8.498,-13.962 1.209,0.736 v 0 l 1.815,1.106 3.025,1.841 -8.498,13.962 -1.21,-0.736 -7.288,11.974 v 38.113 c 0,0 -6.764,-6.783 -8.212,-14.287 -1.035,-1.33 -2.227,-3.026 -3.276,-4.952 l -3.242,5.326 3.014,2.409 -7.075,8.851 -1.879,-1.502 -3.202,5.261 -3.629,-2.21 3.485,-5.726 -1.692,-1.353 2.409,-3.013 -7.433,-9.116 -2.197,1.79 -6.609,-8.11 c -1.759,0.707 -3.498,1.484 -5.171,2.372 l 13.547,27.095 -19.829,14.164 -19.829,-14.164 13.547,-27.095 c -1,-0.531 -2.016,-1.034 -3.055,-1.492 l -5.891,7.23 -2.197,-1.79 -7.433,9.116 2.409,3.013 -2.406,1.923 3.288,5.086 -2.379,1.538 -3.133,-4.846 -2.287,1.828 -7.075,-8.851 3.179,-2.541 -1.685,-2.607 c -0.04,0.001 -0.079,0.002 -0.119,0.002 -0.926,0 -1.833,-0.413 -2.372,-1.248 -0.23,-0.355 -0.354,-0.743 -0.409,-1.135 -0.533,-0.032 -1.073,-0.108 -1.635,-0.242 -1.053,1.941 -2.253,3.65 -3.294,4.989 -1.447,7.505 -8.212,14.287 -8.212,14.287 v -36.135 c -0.856,-0.269 -1.719,-0.611 -2.568,-1.118 -2.606,-1.556 -4.308,-3.822 -4.721,-5.909 0.596,-0.184 1.257,-0.276 1.961,-0.276 1.03,0 2.15,0.199 3.282,0.597 -0.369,-0.96 -0.584,-1.91 -0.655,-2.81 l -2.786,-4.31 c -0.04,10e-4 -0.079,0.002 -0.119,0.002 -0.926,0 -1.833,-0.413 -2.372,-1.248 -0.23,-0.355 -0.354,-0.743 -0.41,-1.135 -1.568,-0.094 -3.286,-0.574 -4.943,-1.562 -2.606,-1.556 -4.308,-3.822 -4.721,-5.909 0.596,-0.184 1.258,-0.276 1.961,-0.276 1.03,0 2.15,0.198 3.282,0.597 -0.713,-1.853 -0.873,-3.684 -0.479,-5.145 1.494,0.241 3.098,1.139 4.495,2.549 0.17,-2.014 0.844,-3.761 1.859,-4.913 1.734,1.234 3.102,3.715 3.45,6.731 0.222,1.918 -0.046,3.681 -0.605,5.15 0.335,0.213 0.638,0.484 0.867,0.84 0.563,0.871 0.543,1.918 0.113,2.783 l 2.786,4.31 c 0.108,0.06 0.214,0.132 0.322,0.199 V 138.497 135.664 121.5 c 0,-4.693 3.805,-8.498 8.498,-8.498 4.693,0 8.498,3.805 8.498,8.498 v 6.066 c 0.91,-0.236 1.848,-0.401 2.833,-0.401 6.258,0 11.33,5.073 11.33,11.33 h 8.498 l 5.665,-28.327 -2.833,-2.124 -5.665,-4.249 v 6.374 h -2.833 V 96.005 h -2.833 v -2.833 h 2.833 v -2.833 h 2.844 m 45.467,128.741 1.046,-1.309 0.557,0.445 4.566,-7.501 c -0.398,-1.387 -0.653,-2.81 -0.653,-4.237 0,-0.139 0,-0.33 0,-0.498 -2.472,-3.252 -5.665,-8.455 -5.665,-13.666 0,5.966 -3.662,9.074 -8.674,11.462 l 4.36,5.351 -2.195,1.788 6.658,8.165 m -62.345,-0.1 1.514,-1.21 1.046,1.309 6.658,-8.167 -2.195,-1.788 3.605,-4.424 c -6.051,-2.527 -10.752,-5.623 -10.752,-12.387 0,3.793 -1.693,7.578 -3.567,10.616 0.89,1.306 1.561,2.976 1.785,4.91 0.222,1.918 -0.046,3.681 -0.605,5.15 0.335,0.213 0.638,0.484 0.867,0.84 0.563,0.871 0.543,1.917 0.113,2.783 l 1.531,2.368 M 241.642,88.213 h -2.833 c -1.173,0 -2.124,0.951 -2.124,2.124 v 0.708 h -0.708 c -1.173,0 -2.124,0.951 -2.124,2.124 v 2.833 c 0,1.173 0.951,2.124 2.124,2.124 h 0.708 v 12.039 c 0,1.173 0.951,2.124 2.124,2.124 h 2.833 c 1.173,0 2.124,-0.951 2.124,-2.124 v -2.124 l 2.266,1.699 1.761,1.321 -5.062,25.306 h -4.799 c -1.022,-6.413 -6.591,-11.33 -13.288,-11.33 -0.235,0 -0.47,0.008 -0.708,0.022 v -3.563 c 0,-5.857 -4.766,-10.623 -10.623,-10.623 -5.857,0 -10.623,4.766 -10.623,10.623 v 14.164 2.833 32.578 c -0.767,-2.115 -2.014,-3.885 -3.577,-4.998 -0.372,-0.265 -0.803,-0.394 -1.23,-0.394 -0.591,0 -1.177,0.246 -1.594,0.719 -0.654,0.743 -1.192,1.647 -1.593,2.667 -0.93,-0.504 -1.887,-0.844 -2.831,-0.996 -0.114,-0.019 -0.227,-0.028 -0.339,-0.028 -0.945,0 -1.795,0.632 -2.049,1.571 -0.249,0.922 -0.332,1.934 -0.254,2.989 -0.167,-0.008 -0.333,-0.012 -0.498,-0.012 -0.92,0 -1.791,0.125 -2.588,0.371 -1.039,0.321 -1.668,1.375 -1.458,2.442 0.55,2.776 2.686,5.514 5.716,7.321 1.398,0.834 2.916,1.406 4.457,1.685 0.062,0.117 0.129,0.231 0.201,0.342 0.697,1.079 1.791,1.821 3.042,2.098 l 1.548,2.395 c -0.052,-0.001 -0.103,-0.001 -0.154,-0.001 -0.92,0 -1.791,0.125 -2.588,0.371 -1.039,0.321 -1.668,1.375 -1.458,2.442 0.55,2.776 2.686,5.514 5.716,7.321 0.484,0.289 0.988,0.545 1.532,0.776 V 234.8 c 0,0.86 0.519,1.635 1.313,1.963 0.263,0.108 0.538,0.161 0.811,0.161 0.554,0 1.098,-0.216 1.505,-0.625 0.289,-0.289 6.952,-7.042 8.689,-14.879 0.714,-0.939 1.374,-1.886 1.974,-2.834 0.684,0.79 1.609,1.335 2.643,1.565 l 0.092,0.141 -1.678,1.342 c -0.44,0.352 -0.723,0.864 -0.785,1.425 -0.063,0.559 0.1,1.122 0.452,1.562 l 7.075,8.851 c 0.352,0.44 0.864,0.723 1.425,0.785 0.078,0.009 0.157,0.013 0.235,0.013 0.48,0 0.948,-0.162 1.326,-0.465 l 0.452,-0.361 1.857,2.873 c 0.306,0.473 0.787,0.806 1.338,0.924 0.148,0.032 0.297,0.047 0.446,0.047 0.406,0 0.808,-0.117 1.153,-0.341 l 1.374,-0.888 -0.311,0.623 c -0.468,0.935 -0.185,2.071 0.665,2.679 l 19.829,14.164 c 0.37,0.264 0.802,0.396 1.235,0.396 0.433,0 0.865,-0.132 1.235,-0.396 l 19.829,-14.164 c 0.851,-0.608 1.133,-1.743 0.665,-2.679 l -12.597,-25.195 c 0.534,-0.252 1.091,-0.502 1.674,-0.753 l 5.609,6.883 c 0.42,0.515 1.032,0.782 1.649,0.782 0.472,0 0.947,-0.157 1.341,-0.478 l 0.551,-0.448 5.006,6.141 -1.338,1.674 c -0.352,0.44 -0.514,1.002 -0.452,1.562 0.063,0.561 0.345,1.073 0.785,1.425 l 0.232,0.185 -2.514,4.129 c -0.61,1.002 -0.292,2.308 0.71,2.919 l 3.629,2.21 c 0.335,0.204 0.718,0.31 1.106,0.31 0.168,0 0.337,-0.02 0.502,-0.061 0.547,-0.134 1.02,-0.478 1.313,-0.96 l 1.947,-3.199 c 0.391,0.309 0.855,0.459 1.318,0.459 0.623,0 1.241,-0.274 1.661,-0.798 l 7.075,-8.851 c 0.26,-0.326 0.409,-0.705 0.452,-1.09 2.308,6.903 7.838,12.507 8.1,12.769 0.406,0.407 0.951,0.625 1.505,0.625 0.274,0 0.548,-0.053 0.811,-0.161 0.794,-0.329 1.313,-1.103 1.313,-1.963 v -37.514 l 5.937,-9.752 c 0.145,0.03 0.29,0.045 0.435,0.045 0.717,0 1.417,-0.363 1.817,-1.021 l 8.498,-13.962 c 0.294,-0.481 0.383,-1.059 0.249,-1.607 -0.134,-0.547 -0.479,-1.02 -0.96,-1.313 l -3.025,-1.841 -1.814,-1.105 -1.212,-0.737 c -0.344,-0.21 -0.726,-0.309 -1.101,-0.309 -0.717,0 -1.417,0.363 -1.816,1.021 l -7.007,11.512 v -39.725 -2.833 -14.164 c 0,-5.857 -4.766,-10.623 -10.623,-10.623 -5.857,0 -10.623,4.766 -10.623,10.623 v 3.563 c -0.237,-0.014 -0.473,-0.022 -0.708,-0.022 -6.697,0 -12.266,4.917 -13.288,11.33 h -1.827 c -0.67,-5.577 -2.59,-22.173 -2.59,-29.035 0,-9.92 -6.951,-13.455 -13.455,-13.455 -4.817,0 -7.925,1.836 -9.258,2.833 h -0.07 c 0.078,-0.222 0.121,-0.46 0.121,-0.708 v -2.833 c 0,-1.173 -0.951,-2.124 -2.124,-2.124 h -0.708 v -0.708 c -0.005,-1.17 -0.956,-2.121 -2.129,-2.121 z M 223.55,202.926 c 0.544,-0.957 1.018,-1.901 1.426,-2.831 1.771,2.377 4.319,4.067 7.031,5.405 l -1.86,2.283 c -0.356,0.437 -0.524,0.997 -0.467,1.558 0.057,0.561 0.334,1.076 0.771,1.431 l 0.546,0.446 -3.785,4.642 c -0.216,-0.106 -0.451,-0.174 -0.695,-0.202 -0.078,-0.009 -0.158,-0.013 -0.235,-0.013 -0.212,0 -0.42,0.032 -0.621,0.093 0.097,-1.068 -0.156,-2.14 -0.751,-3.062 -0.072,-0.111 -0.149,-0.22 -0.23,-0.324 0.378,-1.519 0.48,-3.138 0.294,-4.756 -0.192,-1.661 -0.679,-3.251 -1.424,-4.67 z m 58.029,1.523 c 1.871,-1.091 3.688,-2.473 5.066,-4.33 1.085,2.477 2.511,4.73 3.861,6.569 0.017,1.183 0.179,2.401 0.491,3.694 l -3.225,5.299 c -0.186,0.034 -0.37,0.094 -0.543,0.179 l -3.785,-4.642 0.546,-0.446 c 0.437,-0.356 0.714,-0.871 0.771,-1.431 0.057,-0.56 -0.11,-1.121 -0.467,-1.558 z m -41.003,13.956 c 0.617,0 1.228,-0.267 1.649,-0.782 l 3.583,-4.396 -9.697,19.394 c -0.026,-0.049 -0.055,-0.097 -0.086,-0.145 l -2.244,-3.473 0.905,-0.724 c 0.44,-0.352 0.723,-0.864 0.785,-1.425 0.063,-0.559 -0.1,-1.122 -0.452,-1.561 l -1.338,-1.674 5.006,-6.141 0.551,0.448 c 0.391,0.324 0.866,0.479 1.338,0.479 z m 54.274,1.993 0.462,-0.76 c 0.406,0.598 0.836,1.194 1.288,1.788 0.04,0.179 0.082,0.356 0.127,0.534 -0.094,-0.116 -0.202,-0.223 -0.323,-0.32 z"
   id="path106" />
<g
   id="g108"
   transform="translate(0,-88.273)">
</g>
<g
   id="g110"
   transform="translate(0,-88.273)">
</g>
<g
   id="g112"
   transform="translate(0,-88.273)">
</g>
<g
   id="g114"
   transform="translate(0,-88.273)">
</g>
<g
   id="g116"
   transform="translate(0,-88.273)">
</g>
<g
   id="g118"
   transform="translate(0,-88.273)">
</g>
<g
   id="g120"
   transform="translate(0,-88.273)">
</g>
<g
   id="g122"
   transform="translate(0,-88.273)">
</g>
<g
   id="g124"
   transform="translate(0,-88.273)">
</g>
<g
   id="g126"
   transform="translate(0,-88.273)">
</g>
<g
   id="g128"
   transform="translate(0,-88.273)">
</g>
<g
   id="g130"
   transform="translate(0,-88.273)">
</g>
<g
   id="g132"
   transform="translate(0,-88.273)">
</g>
<g
   id="g134"
   transform="translate(0,-88.273)">
</g>
<g
   id="g136"
   transform="translate(0,-88.273)">
</g>
</svg>
