<?xml version="1.0" encoding="UTF-8" standalone="no"?>
<svg
   xmlns:dc="http://purl.org/dc/elements/1.1/"
   xmlns:cc="http://creativecommons.org/ns#"
   xmlns:rdf="http://www.w3.org/1999/02/22-rdf-syntax-ns#"
   xmlns:svg="http://www.w3.org/2000/svg"
   xmlns="http://www.w3.org/2000/svg"
   xmlns:sodipodi="http://sodipodi.sourceforge.net/DTD/sodipodi-0.dtd"
   xmlns:inkscape="http://www.inkscape.org/namespaces/inkscape"
   version="1.1"
   id="Layer_1"
   x="0px"
   y="0px"
   viewBox="0 0 512 335.45001"
   xml:space="preserve"
   sodipodi:docname="me.svg"
   width="512"
   height="335.45001"
   inkscape:version="1.0.1 (c497b03c, 2020-09-10)"><metadata
   id="metadata95"><rdf:RDF><cc:Work
       rdf:about=""><dc:format>image/svg+xml</dc:format><dc:type
         rdf:resource="http://purl.org/dc/dcmitype/StillImage" /><dc:title></dc:title></cc:Work></rdf:RDF></metadata><defs
   id="defs93" /><sodipodi:namedview
   pagecolor="#ffffff"
   bordercolor="#666666"
   borderopacity="1"
   objecttolerance="10"
   gridtolerance="10"
   guidetolerance="10"
   inkscape:pageopacity="0"
   inkscape:pageshadow="2"
   inkscape:window-width="868"
   inkscape:window-height="480"
   id="namedview91"
   showgrid="false"
   inkscape:zoom="1.640625"
   inkscape:cx="256"
   inkscape:cy="256"
   inkscape:window-x="0"
   inkscape:window-y="23"
   inkscape:window-maximized="0"
   inkscape:current-layer="Layer_1" />
<g
   id="g32"
   transform="translate(0,-88.275)">
	<rect
   x="17.655001"
   y="105.929"
   style="fill:#f5f5f5"
   width="476.69"
   height="300.14001"
   id="rect10" />
	<path
   style="fill:#f5f5f5"
   d="M 473.655,88.275 H 38.345 C 17.167,88.275 0,105.442 0,126.62 v 258.76 c 0,21.177 17.167,38.345 38.345,38.345 h 435.31 C 494.832,423.725 512,406.558 512,385.38 V 126.62 c 0,-21.178 -17.167,-38.345 -38.345,-38.345 z m 20.69,317.793 H 17.655 V 105.93 h 476.69 z"
   id="path12" />
	<circle
   style="fill:#f5f5f5"
   cx="328.42999"
   cy="311.37"
   r="13.433"
   id="circle14" />
	<path
   style="fill:#f5f5f5"
   d="m 352.003,234.242 c -9.886,8.311 -16.535,8.661 -16.535,8.661 17.586,-7.174 15.748,-20.822 15.748,-20.822 -8.311,10.936 -16.798,13.998 -16.798,13.998 17.673,-11.986 14.873,-28.084 14.873,-28.084 -5.774,12.774 -13.079,17.76 -13.079,17.76 14.698,-19.554 7.48,-32.152 7.48,-32.152 -5.774,18.11 -10.63,23.36 -10.63,23.36 11.286,-30.184 1.619,-38.889 1.619,-38.889 0,16.185 -6.037,25.459 -6.037,25.459 6.3,-21.347 -3.587,-33.596 -3.587,-33.596 0,0 -0.093,17.404 -3.445,26.52 -0.804,-1.222 -1.28,-1.06 -1.28,-1.06 -1.704,11.179 -7.712,19.049 -10.306,22.01 -0.576,-2.786 -2.308,-3.639 -2.308,-3.639 0,0 -0.312,2.735 -2.766,6.769 -1.608,2.643 -9.204,8.806 -10.429,14.23 -0.982,4.349 3.325,7.961 4.724,8.836 1.4,0.875 2.887,2.45 2.274,4.986 -0.612,2.537 -5.162,2.274 -8.399,2.187 -3.237,-0.087 -3.674,5.249 -7.262,5.075 l -0.608,3.98 -1.405,0.307 c 0,0 -14.698,29.289 -15.949,39.255 l -10.823,1.427 -10.823,-1.427 c -1.251,-9.966 -15.949,-39.255 -15.949,-39.255 l -1.405,-0.307 -0.608,-3.98 c -3.587,0.175 -4.024,-5.162 -7.262,-5.075 -3.238,0.087 -7.787,0.35 -8.399,-2.187 -0.612,-2.537 0.875,-4.113 2.274,-4.986 1.4,-0.875 5.707,-4.488 4.724,-8.836 -1.225,-5.425 -8.821,-11.587 -10.429,-14.23 -2.454,-4.033 -2.766,-6.769 -2.766,-6.769 0,0 -1.732,0.853 -2.308,3.639 -2.593,-2.963 -8.601,-10.831 -10.305,-22.01 0,0 -0.476,-0.161 -1.28,1.06 -3.352,-9.117 -3.445,-26.52 -3.445,-26.52 0,0 -9.886,12.248 -3.587,33.596 0,0 -6.037,-9.273 -6.037,-25.459 0,0 -9.667,8.705 1.619,38.889 0,0 -4.855,-5.249 -10.63,-23.36 0,0 -7.218,12.598 7.48,32.152 0,0 -7.305,-4.986 -13.079,-17.76 0,0 -2.799,16.098 14.873,28.084 0,0 -8.487,-3.062 -16.798,-13.998 0,0 -1.837,13.649 15.748,20.822 0,0 -6.649,-0.35 -16.535,-8.661 0,0 -1.75,12.074 21.172,18.285 0,0 -9.362,-0.175 -18.898,-6.562 0,0 -0.263,11.898 19.335,14.261 0,0 -6.474,0.962 -13.736,-1.662 0,0 0.263,9.623 17.323,10.848 0,0 -6.737,0.525 -11.111,-0.525 0,0 0.437,9.886 13.911,8.224 0,0 -4.55,1.487 -6.037,1.924 0,0 0.263,8.071 14.304,5.184 0,0 -2.494,1.553 -5.906,2.078 0,0 2.887,6.737 14.611,3.762 l -2.406,2.625 c 0,0 9.055,5.249 16.01,-1.969 l -2.494,4.462 c 0,0 5.906,2.231 9.58,-3.543 0,0 -1.006,8.661 -13.255,10.237 0,0 0.437,1.837 0.962,2.537 0,0 -0.788,1.487 -7.874,2.712 0,0 1.487,2.274 3.062,2.975 0,0 -3.062,2.625 -4.724,3.149 0,0 2.625,1.312 4.287,1.575 0,0 -3.674,3.587 -8.224,3.674 -4.55,0.087 -12.685,-0.438 -12.685,-0.438 0,0 -0.087,-4.374 -2.187,-8.137 -2.1,-3.762 -2.799,-4.046 -2.799,-4.046 0,0 0.459,-3.018 -0.853,-4.265 -1.312,-1.247 -2.034,-1.837 -2.034,-1.837 0,0 0.7,-6.037 -1.225,-9.799 -1.924,-3.762 -8.749,-11.986 -9.099,-18.11 -0.35,-6.124 -0.087,-8.399 -0.087,-8.399 l -2.1,0.525 -1.4,-2.887 2.362,-0.263 -0.962,-4.374 -3.238,1.225 -0.438,-3.762 -3.849,1.575 1.924,3.412 -3.412,0.962 2.013,4.024 2.625,-1.662 0.7,3.499 c 0,0 -1.575,0.35 -2.45,1.75 0,0 4.329,2.873 5.599,6.3 2.013,5.425 1.4,17.673 4.287,21.347 2.887,3.674 5.162,6.211 5.162,6.211 0,0 -0.809,2.494 0.109,3.871 0.919,1.378 2.231,1.772 2.231,1.772 0,0 -0.788,5.578 1.247,9.252 2.034,3.674 3.215,4.594 3.215,4.594 0,0 -7.415,4.527 -2.165,9.777 0,0 -0.7,4.768 4.287,5.906 0,0 0.263,3.762 4.55,3.325 0,0 2.1,-0.612 2.625,0.438 0.525,1.049 0,7.086 0,7.086 0,0 1.924,-0.175 3.149,-1.049 l 3.849,1.924 0.087,-4.287 4.812,-1.924 c 0,0 -2.1,0.35 -6.387,-3.674 0,0 0.7,-0.438 1.225,-3.85 0,0 3.412,-2.712 4.113,-4.899 0.7,-2.187 5.512,-6.999 11.111,-8.574 l 0.766,3.412 c 0,0 8.006,-7.086 11.351,-7.48 l 2.756,3.63 c 0,0 10.324,-15.31 14.873,-18.023 -0.35,1.225 2.187,1.4 -3.456,7.699 -5.643,6.3 -2.144,11.286 -2.144,11.286 -3.499,2.887 -2.799,5.512 -3.238,8.487 -0.437,2.975 -12.074,10.674 -12.074,10.674 3.674,4.637 7.787,3.587 7.787,3.587 -2.275,1.487 -1.575,6.474 -1.575,6.474 3.325,0.875 6.649,-0.612 6.649,-0.612 -1.138,3.149 0.612,5.336 0.612,5.336 2.1,-1.312 6.912,-2.1 6.912,-2.1 -0.612,5.425 2.887,8.311 2.887,8.311 l 3.062,-3.325 c 0.525,6.124 5.95,9.624 5.95,9.624 0,0 5.425,-3.5 5.95,-9.624 l 3.062,3.325 c 0,0 3.5,-2.887 2.887,-8.311 0,0 4.812,0.788 6.912,2.1 0,0 1.75,-2.187 0.612,-5.336 0,0 3.325,1.487 6.649,0.612 0,0 0.7,-4.987 -1.575,-6.474 0,0 4.113,1.049 7.787,-3.587 0,0 -11.636,-7.699 -12.074,-10.674 -0.437,-2.975 0.263,-5.599 -3.238,-8.487 0,0 3.499,-4.987 -2.144,-11.286 -5.643,-6.3 -3.106,-6.475 -3.456,-7.699 4.55,2.712 14.873,18.023 14.873,18.023 l 2.756,-3.63 c 3.347,0.394 11.351,7.48 11.351,7.48 l 0.766,-3.412 0.145,-0.158 c 4.174,2.248 11.068,5.288 13.854,7.418 2.975,2.275 5.425,2.45 12.598,0 7.175,-2.45 20.522,-6.217 18.548,-10.674 -0.108,-0.243 -0.23,-0.406 -0.348,-0.596 0.313,-1.151 0.442,-3.16 -1.665,-4.916 0,0 0.025,0.489 0.008,1.117 l -6.839,-2.549 c -0.226,-0.605 -0.564,-1.198 -1.217,-1.717 0,0 0.01,0.525 -0.084,1.233 l -1.754,-0.654 3.501,-9.849 c -0.265,-0.148 -0.563,-0.231 -0.838,-0.361 0.071,-0.892 0.239,-2.125 0.5,-3.414 0.855,0.299 1.636,0.668 2.202,1.131 l 0.988,-3.606 c 0,0 -1.063,-0.07 -2.464,-0.332 0.354,-1.088 0.774,-2.065 1.273,-2.696 l -4.637,-1.4 c 0,0 0.12,1.405 0.038,3.158 -0.885,-0.359 -1.729,-0.815 -2.411,-1.399 l -1.087,4.002 c 0.373,0.022 1.639,0.131 3.106,0.393 -0.265,1.175 -0.732,2.217 -1.401,2.999 -0.165,-0.022 -0.318,-0.082 -0.486,-0.098 l -3.4,9.565 -9.22,-3.436 c -0.395,0.622 -0.7,1.3 -0.985,1.986 0.049,-0.1 0.093,-0.256 0.145,-0.319 0,0 -3.567,1.866 -3.518,4.607 -0.657,0.249 -1.233,0.742 -1.558,1.597 -1.049,2.756 5.38,8.924 3.806,9.711 -1.546,0.772 -9.623,-5.88 -10.918,-6.997 1.665,-0.323 4.094,-1.533 4.094,-1.533 -1.663,-0.525 -4.724,-3.149 -4.724,-3.149 1.575,-0.7 3.062,-2.975 3.062,-2.975 -7.086,-1.225 -7.874,-2.712 -7.874,-2.712 0.525,-0.7 0.962,-2.537 0.962,-2.537 -12.248,-1.575 -13.255,-10.237 -13.255,-10.237 3.674,5.774 9.58,3.543 9.58,3.543 l -2.494,-4.462 c 6.955,7.218 16.01,1.969 16.01,1.969 l -2.406,-2.625 c 11.723,2.975 14.611,-3.762 14.611,-3.762 -3.412,-0.525 -5.906,-2.078 -5.906,-2.078 14.042,2.887 14.304,-5.184 14.304,-5.184 -1.487,-0.438 -6.037,-1.924 -6.037,-1.924 13.473,1.663 13.911,-8.224 13.911,-8.224 -4.374,1.049 -11.111,0.525 -11.111,0.525 17.06,-1.225 17.323,-10.848 17.323,-10.848 -7.262,2.625 -13.736,1.662 -13.736,1.662 19.597,-2.362 19.335,-14.261 19.335,-14.261 -9.536,6.387 -18.898,6.562 -18.898,6.562 22.932,-6.214 21.182,-18.286 21.182,-18.286 z m -19.882,86.547 c -0.935,-1.518 1.293,-2.876 2.296,-4.321 l 3.878,1.444 c -1.317,1.572 -5.21,4.442 -6.174,2.877 z m -2.591,-6.141 c -1.258,1.949 -2.133,4.135 -6.005,4.239 -4.855,0.131 -5.643,-4.2 -6.692,-6.562 -0.306,-0.689 -0.834,-1.209 -1.44,-1.566 -0.002,-0.424 0.02,-0.889 0.057,-1.359 z"
   id="path16" />
	<path
   style="fill:#f5f5f5"
   d="m 255.635,222.212 c 0,0 -6.233,-5.315 -8.071,-8.202 0,0 2.1,-0.853 3.149,-2.165 0,0 -5.643,-3.018 -8.661,-6.102 0,0 1.969,-0.328 3.478,-1.575 0,0 -5.068,-0.916 -7.638,-5.066 5.859,-2.001 3.898,-7.467 3.898,-7.467 -1.181,1.575 -6.037,3.543 -11.286,1.312 -5.249,-2.231 -11.023,-0.657 -11.023,2.231 0,0 -11.811,-3.412 -8.858,8.006 0,0 1.902,-4.265 6.102,-2.69 4.2,1.575 8.465,6.955 8.465,6.955 0,0 -2.625,1.443 -7.48,-0.131 0,0 1.969,7.545 10.827,3.74 0,0 3.499,1.881 3.674,7.393 0,0 1.487,-0.788 2.45,-2.537 0,0 1.4,5.336 -0.437,9.711 0,0 2.45,-0.437 3.238,-1.225 0,0 0.7,4.637 -2.362,8.399 0,0 13.451,6.409 21.982,-0.612 0,0 -3.215,-3.674 -4.265,-7.086 -0.004,-0.003 1.767,-0.725 2.818,-2.889 z"
   id="path18" />
	<path
   style="fill:#f5f5f5"
   d="m 294.677,195.177 c 0,-2.887 -5.774,-4.462 -11.023,-2.231 -5.249,2.231 -10.105,0.263 -11.286,-1.312 0,0 -1.962,5.466 3.898,7.467 -2.57,4.15 -7.638,5.066 -7.638,5.066 1.51,1.247 3.478,1.575 3.478,1.575 -3.018,3.084 -8.661,6.102 -8.661,6.102 1.049,1.312 3.149,2.165 3.149,2.165 -1.837,2.887 -8.071,8.202 -8.071,8.202 1.049,2.165 2.822,2.887 2.822,2.887 -1.049,3.412 -4.265,7.086 -4.265,7.086 8.53,7.021 21.982,0.612 21.982,0.612 -3.062,-3.762 -2.362,-8.399 -2.362,-8.399 0.788,0.788 3.238,1.225 3.238,1.225 -1.837,-4.374 -0.437,-9.711 -0.437,-9.711 0.962,1.75 2.45,2.537 2.45,2.537 0.175,-5.512 3.674,-7.393 3.674,-7.393 8.858,3.806 10.827,-3.74 10.827,-3.74 -4.855,1.575 -7.48,0.131 -7.48,0.131 0,0 4.265,-5.38 8.465,-6.955 4.2,-1.575 6.102,2.69 6.102,2.69 2.948,-11.415 -8.862,-8.004 -8.862,-8.004 z"
   id="path20" />
	<path
   style="fill:#f5f5f5"
   d="m 289.329,264.883 c -1.152,-6.706 -2.145,-12.498 0.748,-19.134 l 0.54,-1.239 -11.457,-13.156 -1.354,0.451 c -0.117,0.04 -12.092,3.955 -19.769,0.115 l -0.958,-0.479 -0.958,0.479 c -7.641,3.829 -19.648,-0.075 -19.772,-0.117 l -1.354,-0.447 -11.455,13.154 0.54,1.239 c 2.893,6.636 1.9,12.428 0.748,19.134 -1.085,6.332 -2.316,13.51 -0.15,22.263 2.351,9.502 10.268,12.879 17.25,15.863 5.383,2.297 10.466,4.467 13.34,9.022 l 1.81,2.87 1.81,-2.87 c 2.874,-4.555 7.957,-6.724 13.34,-9.022 6.984,-2.983 14.899,-6.36 17.25,-15.863 2.167,-8.753 0.935,-15.932 -0.149,-22.263 z m -60.807,-19.576 7.863,-9.027 c 3.562,0.979 13.19,3.097 20.693,-0.088 7.502,3.186 17.13,1.066 20.693,0.088 l 7.863,9.027 c -2.761,7.272 -1.674,13.611 -0.526,20.3 0.859,5.012 1.714,10.175 0.996,16.121 h -58.052 c -0.717,-5.946 0.138,-11.109 0.996,-16.121 1.148,-6.688 2.235,-13.029 -0.526,-20.3 z m 42.026,53.764 c -4.866,2.078 -9.873,4.214 -13.47,8.269 -3.597,-4.055 -8.604,-6.191 -13.47,-8.269 -6.828,-2.915 -12.719,-5.463 -14.662,-12.618 h 56.262 c -1.941,7.156 -7.832,9.703 -14.66,12.618 z"
   id="path22" />
	<path
   style="fill:#f5f5f5"
   d="m 228.522,245.307 7.863,-9.027 c 3.562,0.979 13.19,3.097 20.693,-0.088 7.502,3.186 17.13,1.066 20.693,0.088 l 7.863,9.027 c -2.761,7.272 -1.674,13.611 -0.526,20.3 0.859,5.012 1.714,10.175 0.996,16.121 h -58.052 c -0.717,-5.946 0.138,-11.109 0.996,-16.121 1.148,-6.688 2.235,-13.029 -0.526,-20.3 z"
   id="path24" />
	<path
   style="fill:#f5f5f5"
   d="m 228.646,285.204 c 0.067,0.307 0.11,0.602 0.188,0.914 1.839,7.431 7.834,9.99 14.776,12.953 4.866,2.078 9.873,4.214 13.47,8.269 3.597,-4.055 8.604,-6.191 13.47,-8.269 6.942,-2.964 12.937,-5.523 14.776,-12.953 0.077,-0.311 0.12,-0.607 0.188,-0.914 z"
   id="path26" />
	<path
   style="fill:#f5f5f5"
   d="m 282.763,260.391 c 0,-3.871 -3.679,-4.481 -7.023,-4.415 -3.345,0.067 -8.237,-0.544 -8.361,-3.144 -0.077,-1.621 2.643,-1.772 4.415,-1.204 1.028,0.33 7.424,1.472 9.431,-2.809 0,0 -2.339,0.075 -4.808,-0.479 -1.902,-0.427 -9.707,0.545 -11.112,3.555 -1.405,3.01 3.125,6.014 8.342,6.014 5.217,0 5.933,1.044 5.892,2.316 -0.054,1.672 -4.191,2.145 -6.569,2.123 -3.743,-1.359 -12.477,-0.295 -12.519,-0.46 -0.05,-0.202 -2.015,-3.575 -2.015,-3.575 0,0 3.576,-0.252 4.029,-0.907 0.453,-0.654 -2.713,-3.169 -2.713,-3.169 0,0 2.663,-1.062 2.764,-1.817 0.11,-0.831 -2.162,-2.798 -2.162,-2.798 0,0 0.878,-0.865 1.538,-2.342 0.472,-1.055 -3.277,-1.337 -3.277,-1.337 0.201,-0.802 0.124,-1.581 -0.87,-1.94 -0.768,-0.277 -3.612,0.802 -5.551,0.802 -1.939,0 -2.676,1.405 -2.676,1.405 0,0 -3.411,0.402 -3.88,0.802 -0.468,0.402 0.134,3.01 0.134,3.01 -1.739,-0.267 -2.541,-1.806 -2.541,-1.806 -0.87,3.946 3.211,4.348 3.211,4.348 l 0.669,2.141 c 0,0 0,0 1.672,0.201 1.672,0.201 0.87,1.806 -1.739,1.806 -2.609,0 -3.716,3.112 -3.716,3.112 -1.813,0.051 -2.82,-1.41 -3.223,-3.274 -0.444,-2.051 -0.182,-5.203 0.151,-7.201 0.403,-2.418 -0.806,-3.123 -0.806,-3.123 l -0.806,2.015 c -0.05,-2.065 -1.864,-2.266 -1.864,-2.266 l -0.302,2.518 c -0.907,-1.662 -2.467,-0.907 -2.467,-0.907 0,0 1.511,5.439 1.461,5.741 -0.051,0.302 -0.554,0.554 -1.259,-0.202 -0.705,-0.756 -1.208,-0.252 -1.208,-0.252 0.756,5.439 3.672,4.641 3.672,4.641 0,0 0.13,1.704 1.011,5.163 0.94,3.693 4.808,2.998 4.808,2.998 0,1.204 0.937,2.943 1.204,6.956 0.267,4.013 -3.411,6.823 -3.411,6.823 -3.345,-0.067 -3.01,3.211 -3.01,3.211 h 9.23 c 0,-8.535 3.669,-9.998 3.669,-9.998 5.439,0.252 10.677,-2.015 10.677,-2.015 -0.806,3.274 0.605,4.633 0.605,4.633 2.216,-0.302 1.108,4.079 0.453,4.079 -0.654,0 -2.015,0 -2.82,0 -0.805,0 -3.123,2.518 -3.123,2.518 h 9.569 c 0,0 1.461,-2.115 1.964,-3.172 0.503,-1.058 -1.108,-2.518 -1.208,-3.626 -0.1,-1.108 1.662,-1.813 1.662,-1.813 1.864,2.618 6.144,2.77 6.144,2.77 l -0.1,-1.964 c 0,0 2.216,0.756 2.72,1.41 0.503,0.654 0.403,3.677 -2.266,4.029 -2.669,0.352 -2.871,2.266 -2.871,2.266 0,0 6.094,0 7.303,0 1.209,0 2.165,-2.266 2.165,-3.123 0,-0.856 0,-6.446 0,-7.656 0,-1.208 -1.007,-1.057 -3.374,-1.31 -2.15,-0.228 -1.944,-2.581 -2.83,-5.312 3.108,-0.105 7.915,-0.785 7.915,-3.99 z"
   id="path28" />
	<path
   style="fill:#f5f5f5"
   d="m 282.197,168.871 c -0.599,-5.281 -4.809,-12.006 -20.844,-15.158 -0.053,-1.704 -1.101,-3.148 -2.6,-3.756 v -2.943 h 2.625 v -3.149 h -2.625 v -2.624 h -3.149 v 2.625 h -2.625 v 3.149 h 2.625 v 2.943 c -1.497,0.608 -2.547,2.052 -2.6,3.756 -16.035,3.153 -20.245,9.877 -20.844,15.158 -0.747,6.585 3.969,12.829 8.221,15.222 v 3.341 h 33.596 v -3.341 c 4.251,-2.393 8.966,-8.638 8.22,-15.223 z m -17.588,10.165 h -4.702 v -19.369 c 3.876,1.751 6.274,4.436 6.972,8.124 0.869,4.592 -0.967,9.274 -2.27,11.245 z m -17.132,-11.248 c 0.698,-3.688 3.095,-6.372 6.972,-8.122 v 19.369 h -4.703 c -1.305,-1.97 -3.14,-6.653 -2.269,-11.247 z m -3.887,-5.318 c -0.772,1.547 -1.265,3.094 -1.516,4.515 -0.76,4.302 0.111,8.674 1.551,12.051 h -1.103 c -2.356,-1.622 -5.383,-5.612 -4.936,-9.549 0.311,-2.755 2.4,-5.118 6.004,-7.017 z m 28.245,16.566 h -1.106 c 1.44,-3.375 2.312,-7.747 1.553,-12.049 -0.252,-1.421 -0.744,-2.97 -1.517,-4.518 3.605,1.899 5.694,4.264 6.005,7.017 0.447,3.938 -2.58,7.928 -4.935,9.55 z"
   id="path30" />
</g>
<rect
   x="17.655001"
   y="17.654001"
   style="fill:#c8414b;stroke-width:1"
   width="476.69"
   height="300.14001"
   id="rect34" />
<path
   style="fill:#e6b432;stroke-width:1"
   d="M 473.655,0 H 38.345 C 17.167,0 0,17.167 0,38.345 v 258.76 c 0,21.177 17.167,38.345 38.345,38.345 h 435.31 C 494.832,335.45 512,318.283 512,297.105 V 38.345 C 512,17.167 494.833,0 473.655,0 Z m 20.69,317.793 H 17.655 V 17.655 h 476.69 z"
   id="path36" />
<circle
   style="fill:#41479b;stroke-width:1"
   cx="328.42999"
   cy="223.095"
   id="circle38"
   r="13.433" />
<g
   id="g48"
   transform="translate(0,-88.275)">
	<path
   style="fill:#e6b432"
   d="m 352.003,234.242 c -9.886,8.311 -16.535,8.661 -16.535,8.661 17.586,-7.174 15.748,-20.822 15.748,-20.822 -8.311,10.936 -16.798,13.998 -16.798,13.998 17.673,-11.986 14.873,-28.084 14.873,-28.084 -5.774,12.774 -13.079,17.76 -13.079,17.76 14.698,-19.554 7.48,-32.152 7.48,-32.152 -5.774,18.11 -10.63,23.36 -10.63,23.36 11.286,-30.184 1.619,-38.889 1.619,-38.889 0,16.185 -6.037,25.459 -6.037,25.459 6.3,-21.347 -3.587,-33.596 -3.587,-33.596 0,0 -0.093,17.404 -3.445,26.52 -0.804,-1.222 -1.28,-1.06 -1.28,-1.06 -1.704,11.179 -7.712,19.049 -10.306,22.01 -0.576,-2.786 -2.308,-3.639 -2.308,-3.639 0,0 -0.312,2.735 -2.766,6.769 -1.608,2.643 -9.204,8.806 -10.429,14.23 -0.982,4.349 3.325,7.961 4.724,8.836 1.4,0.875 2.887,2.45 2.274,4.986 -0.612,2.537 -5.162,2.274 -8.399,2.187 -3.237,-0.087 -3.674,5.249 -7.262,5.075 l -0.608,3.98 -1.405,0.307 c 0,0 -14.698,29.289 -15.949,39.255 l -10.823,1.427 -10.823,-1.427 c -1.251,-9.966 -15.949,-39.255 -15.949,-39.255 l -1.405,-0.307 -0.608,-3.98 c -3.587,0.175 -4.024,-5.162 -7.262,-5.075 -3.238,0.087 -7.787,0.35 -8.399,-2.187 -0.612,-2.537 0.875,-4.113 2.274,-4.986 1.4,-0.875 5.707,-4.488 4.724,-8.836 -1.225,-5.425 -8.821,-11.587 -10.429,-14.23 -2.454,-4.033 -2.766,-6.769 -2.766,-6.769 0,0 -1.732,0.853 -2.308,3.639 -2.593,-2.963 -8.601,-10.831 -10.305,-22.01 0,0 -0.476,-0.161 -1.28,1.06 -3.352,-9.117 -3.445,-26.52 -3.445,-26.52 0,0 -9.886,12.248 -3.587,33.596 0,0 -6.037,-9.273 -6.037,-25.459 0,0 -9.667,8.705 1.619,38.889 0,0 -4.855,-5.249 -10.63,-23.36 0,0 -7.218,12.598 7.48,32.152 0,0 -7.305,-4.986 -13.079,-17.76 0,0 -2.799,16.098 14.873,28.084 0,0 -8.487,-3.062 -16.798,-13.998 0,0 -1.837,13.649 15.748,20.822 0,0 -6.649,-0.35 -16.535,-8.661 0,0 -1.75,12.074 21.172,18.285 0,0 -9.362,-0.175 -18.898,-6.562 0,0 -0.263,11.898 19.335,14.261 0,0 -6.474,0.962 -13.736,-1.662 0,0 0.263,9.623 17.323,10.848 0,0 -6.737,0.525 -11.111,-0.525 0,0 0.437,9.886 13.911,8.224 0,0 -4.55,1.487 -6.037,1.924 0,0 0.263,8.071 14.304,5.184 0,0 -2.494,1.553 -5.906,2.078 0,0 2.887,6.737 14.611,3.762 l -2.406,2.625 c 0,0 9.055,5.249 16.01,-1.969 l -2.494,4.462 c 0,0 5.906,2.231 9.58,-3.543 0,0 -1.006,8.661 -13.255,10.237 0,0 0.437,1.837 0.962,2.537 0,0 -0.788,1.487 -7.874,2.712 0,0 1.487,2.274 3.062,2.975 0,0 -3.062,2.625 -4.724,3.149 0,0 2.625,1.312 4.287,1.575 0,0 -3.674,3.587 -8.224,3.674 -4.55,0.087 -12.685,-0.438 -12.685,-0.438 0,0 -0.087,-4.374 -2.187,-8.137 -2.1,-3.762 -2.799,-4.046 -2.799,-4.046 0,0 0.459,-3.018 -0.853,-4.265 -1.312,-1.247 -2.034,-1.837 -2.034,-1.837 0,0 0.7,-6.037 -1.225,-9.799 -1.924,-3.762 -8.749,-11.986 -9.099,-18.11 -0.35,-6.124 -0.087,-8.399 -0.087,-8.399 l -2.1,0.525 -1.4,-2.887 2.362,-0.263 -0.962,-4.374 -3.238,1.225 -0.438,-3.762 -3.849,1.575 1.924,3.412 -3.412,0.962 2.013,4.024 2.625,-1.662 0.7,3.499 c 0,0 -1.575,0.35 -2.45,1.75 0,0 4.329,2.873 5.599,6.3 2.013,5.425 1.4,17.673 4.287,21.347 2.887,3.674 5.162,6.211 5.162,6.211 0,0 -0.809,2.494 0.109,3.871 0.919,1.378 2.231,1.772 2.231,1.772 0,0 -0.788,5.578 1.247,9.252 2.034,3.674 3.215,4.594 3.215,4.594 0,0 -7.415,4.527 -2.165,9.777 0,0 -0.7,4.768 4.287,5.906 0,0 0.263,3.762 4.55,3.325 0,0 2.1,-0.612 2.625,0.438 0.525,1.049 0,7.086 0,7.086 0,0 1.924,-0.175 3.149,-1.049 l 3.849,1.924 0.087,-4.287 4.812,-1.924 c 0,0 -2.1,0.35 -6.387,-3.674 0,0 0.7,-0.438 1.225,-3.85 0,0 3.412,-2.712 4.113,-4.899 0.7,-2.187 5.512,-6.999 11.111,-8.574 l 0.766,3.412 c 0,0 8.006,-7.086 11.351,-7.48 l 2.756,3.63 c 0,0 10.324,-15.31 14.873,-18.023 -0.35,1.225 2.187,1.4 -3.456,7.699 -5.643,6.3 -2.144,11.286 -2.144,11.286 -3.499,2.887 -2.799,5.512 -3.238,8.487 -0.437,2.975 -12.074,10.674 -12.074,10.674 3.674,4.637 7.787,3.587 7.787,3.587 -2.275,1.487 -1.575,6.474 -1.575,6.474 3.325,0.875 6.649,-0.612 6.649,-0.612 -1.138,3.149 0.612,5.336 0.612,5.336 2.1,-1.312 6.912,-2.1 6.912,-2.1 -0.612,5.425 2.887,8.311 2.887,8.311 l 3.062,-3.325 c 0.525,6.124 5.95,9.624 5.95,9.624 0,0 5.425,-3.5 5.95,-9.624 l 3.062,3.325 c 0,0 3.5,-2.887 2.887,-8.311 0,0 4.812,0.788 6.912,2.1 0,0 1.75,-2.187 0.612,-5.336 0,0 3.325,1.487 6.649,0.612 0,0 0.7,-4.987 -1.575,-6.474 0,0 4.113,1.049 7.787,-3.587 0,0 -11.636,-7.699 -12.074,-10.674 -0.437,-2.975 0.263,-5.599 -3.238,-8.487 0,0 3.499,-4.987 -2.144,-11.286 -5.643,-6.3 -3.106,-6.475 -3.456,-7.699 4.55,2.712 14.873,18.023 14.873,18.023 l 2.756,-3.63 c 3.347,0.394 11.351,7.48 11.351,7.48 l 0.766,-3.412 0.145,-0.158 c 4.174,2.248 11.068,5.288 13.854,7.418 2.975,2.275 5.425,2.45 12.598,0 7.175,-2.45 20.522,-6.217 18.548,-10.674 -0.108,-0.243 -0.23,-0.406 -0.348,-0.596 0.313,-1.151 0.442,-3.16 -1.665,-4.916 0,0 0.025,0.489 0.008,1.117 l -6.839,-2.549 c -0.226,-0.605 -0.564,-1.198 -1.217,-1.717 0,0 0.01,0.525 -0.084,1.233 l -1.754,-0.654 3.501,-9.849 c -0.265,-0.148 -0.563,-0.231 -0.838,-0.361 0.071,-0.892 0.239,-2.125 0.5,-3.414 0.855,0.299 1.636,0.668 2.202,1.131 l 0.988,-3.606 c 0,0 -1.063,-0.07 -2.464,-0.332 0.354,-1.088 0.774,-2.065 1.273,-2.696 l -4.637,-1.4 c 0,0 0.12,1.405 0.038,3.158 -0.885,-0.359 -1.729,-0.815 -2.411,-1.399 l -1.087,4.002 c 0.373,0.022 1.639,0.131 3.106,0.393 -0.265,1.175 -0.732,2.217 -1.401,2.999 -0.165,-0.022 -0.318,-0.082 -0.486,-0.098 l -3.4,9.565 -9.22,-3.436 c -0.395,0.622 -0.7,1.3 -0.985,1.986 0.049,-0.1 0.093,-0.256 0.145,-0.319 0,0 -3.567,1.866 -3.518,4.607 -0.657,0.249 -1.233,0.742 -1.558,1.597 -1.049,2.756 5.38,8.924 3.806,9.711 -1.546,0.772 -9.623,-5.88 -10.918,-6.997 1.665,-0.323 4.094,-1.533 4.094,-1.533 -1.663,-0.525 -4.724,-3.149 -4.724,-3.149 1.575,-0.7 3.062,-2.975 3.062,-2.975 -7.086,-1.225 -7.874,-2.712 -7.874,-2.712 0.525,-0.7 0.962,-2.537 0.962,-2.537 -12.248,-1.575 -13.255,-10.237 -13.255,-10.237 3.674,5.774 9.58,3.543 9.58,3.543 l -2.494,-4.462 c 6.955,7.218 16.01,1.969 16.01,1.969 l -2.406,-2.625 c 11.723,2.975 14.611,-3.762 14.611,-3.762 -3.412,-0.525 -5.906,-2.078 -5.906,-2.078 14.042,2.887 14.304,-5.184 14.304,-5.184 -1.487,-0.438 -6.037,-1.924 -6.037,-1.924 13.473,1.663 13.911,-8.224 13.911,-8.224 -4.374,1.049 -11.111,0.525 -11.111,0.525 17.06,-1.225 17.323,-10.848 17.323,-10.848 -7.262,2.625 -13.736,1.662 -13.736,1.662 19.597,-2.362 19.335,-14.261 19.335,-14.261 -9.536,6.387 -18.898,6.562 -18.898,6.562 22.932,-6.214 21.182,-18.286 21.182,-18.286 z m -19.882,86.547 c -0.935,-1.518 1.293,-2.876 2.296,-4.321 l 3.878,1.444 c -1.317,1.572 -5.21,4.442 -6.174,2.877 z m -2.591,-6.141 c -1.258,1.949 -2.133,4.135 -6.005,4.239 -4.855,0.131 -5.643,-4.2 -6.692,-6.562 -0.306,-0.689 -0.834,-1.209 -1.44,-1.566 -0.002,-0.424 0.02,-0.889 0.057,-1.359 z"
   id="path40" />
	<path
   style="fill:#e6b432"
   d="m 255.635,222.212 c 0,0 -6.233,-5.315 -8.071,-8.202 0,0 2.1,-0.853 3.149,-2.165 0,0 -5.643,-3.018 -8.661,-6.102 0,0 1.969,-0.328 3.478,-1.575 0,0 -5.068,-0.916 -7.638,-5.066 5.859,-2.001 3.898,-7.467 3.898,-7.467 -1.181,1.575 -6.037,3.543 -11.286,1.312 -5.249,-2.231 -11.023,-0.657 -11.023,2.231 0,0 -11.811,-3.412 -8.858,8.006 0,0 1.902,-4.265 6.102,-2.69 4.2,1.575 8.465,6.955 8.465,6.955 0,0 -2.625,1.443 -7.48,-0.131 0,0 1.969,7.545 10.827,3.74 0,0 3.499,1.881 3.674,7.393 0,0 1.487,-0.788 2.45,-2.537 0,0 1.4,5.336 -0.437,9.711 0,0 2.45,-0.437 3.238,-1.225 0,0 0.7,4.637 -2.362,8.399 0,0 13.451,6.409 21.982,-0.612 0,0 -3.215,-3.674 -4.265,-7.086 -0.004,-0.003 1.767,-0.725 2.818,-2.889 z"
   id="path42" />
	<path
   style="fill:#e6b432"
   d="m 294.677,195.177 c 0,-2.887 -5.774,-4.462 -11.023,-2.231 -5.249,2.231 -10.105,0.263 -11.286,-1.312 0,0 -1.962,5.466 3.898,7.467 -2.57,4.15 -7.638,5.066 -7.638,5.066 1.51,1.247 3.478,1.575 3.478,1.575 -3.018,3.084 -8.661,6.102 -8.661,6.102 1.049,1.312 3.149,2.165 3.149,2.165 -1.837,2.887 -8.071,8.202 -8.071,8.202 1.049,2.165 2.822,2.887 2.822,2.887 -1.049,3.412 -4.265,7.086 -4.265,7.086 8.53,7.021 21.982,0.612 21.982,0.612 -3.062,-3.762 -2.362,-8.399 -2.362,-8.399 0.788,0.788 3.238,1.225 3.238,1.225 -1.837,-4.374 -0.437,-9.711 -0.437,-9.711 0.962,1.75 2.45,2.537 2.45,2.537 0.175,-5.512 3.674,-7.393 3.674,-7.393 8.858,3.806 10.827,-3.74 10.827,-3.74 -4.855,1.575 -7.48,0.131 -7.48,0.131 0,0 4.265,-5.38 8.465,-6.955 4.2,-1.575 6.102,2.69 6.102,2.69 2.948,-11.415 -8.862,-8.004 -8.862,-8.004 z"
   id="path44" />
	<path
   style="fill:#e6b432"
   d="m 289.329,264.883 c -1.152,-6.706 -2.145,-12.498 0.748,-19.134 l 0.54,-1.239 -11.457,-13.156 -1.354,0.451 c -0.117,0.04 -12.092,3.955 -19.769,0.115 l -0.958,-0.479 -0.958,0.479 c -7.641,3.829 -19.648,-0.075 -19.772,-0.117 l -1.354,-0.447 -11.455,13.154 0.54,1.239 c 2.893,6.636 1.9,12.428 0.748,19.134 -1.085,6.332 -2.316,13.51 -0.15,22.263 2.351,9.502 10.268,12.879 17.25,15.863 5.383,2.297 10.466,4.467 13.34,9.022 l 1.81,2.87 1.81,-2.87 c 2.874,-4.555 7.957,-6.724 13.34,-9.022 6.984,-2.983 14.899,-6.36 17.25,-15.863 2.167,-8.753 0.935,-15.932 -0.149,-22.263 z m -60.807,-19.576 7.863,-9.027 c 3.562,0.979 13.19,3.097 20.693,-0.088 7.502,3.186 17.13,1.066 20.693,0.088 l 7.863,9.027 c -2.761,7.272 -1.674,13.611 -0.526,20.3 0.859,5.012 1.714,10.175 0.996,16.121 h -58.052 c -0.717,-5.946 0.138,-11.109 0.996,-16.121 1.148,-6.688 2.235,-13.029 -0.526,-20.3 z m 42.026,53.764 c -4.866,2.078 -9.873,4.214 -13.47,8.269 -3.597,-4.055 -8.604,-6.191 -13.47,-8.269 -6.828,-2.915 -12.719,-5.463 -14.662,-12.618 h 56.262 c -1.941,7.156 -7.832,9.703 -14.66,12.618 z"
   id="path46" />
</g>
<path
   style="fill:#41479b;stroke-width:1"
   d="m 228.522,157.032 7.863,-9.027 c 3.562,0.979 13.19,3.097 20.693,-0.088 7.502,3.186 17.13,1.066 20.693,0.088 l 7.863,9.027 c -2.761,7.272 -1.674,13.611 -0.526,20.3 0.859,5.012 1.714,10.175 0.996,16.121 h -58.052 c -0.717,-5.946 0.138,-11.109 0.996,-16.121 1.148,-6.688 2.235,-13.029 -0.526,-20.3 z"
   id="path50" />
<path
   style="fill:#73af00;stroke-width:1"
   d="m 228.646,196.929 c 0.067,0.307 0.11,0.602 0.188,0.914 1.839,7.431 7.834,9.99 14.776,12.953 4.866,2.078 9.873,4.214 13.47,8.269 3.597,-4.055 8.604,-6.191 13.47,-8.269 6.942,-2.964 12.937,-5.523 14.776,-12.953 0.077,-0.311 0.12,-0.607 0.188,-0.914 z"
   id="path52" />
<g
   id="g58"
   transform="translate(0,-88.275)">
	<path
   style="fill:#e6b432"
   d="m 282.763,260.391 c 0,-3.871 -3.679,-4.481 -7.023,-4.415 -3.345,0.067 -8.237,-0.544 -8.361,-3.144 -0.077,-1.621 2.643,-1.772 4.415,-1.204 1.028,0.33 7.424,1.472 9.431,-2.809 0,0 -2.339,0.075 -4.808,-0.479 -1.902,-0.427 -9.707,0.545 -11.112,3.555 -1.405,3.01 3.125,6.014 8.342,6.014 5.217,0 5.933,1.044 5.892,2.316 -0.054,1.672 -4.191,2.145 -6.569,2.123 -3.743,-1.359 -12.477,-0.295 -12.519,-0.46 -0.05,-0.202 -2.015,-3.575 -2.015,-3.575 0,0 3.576,-0.252 4.029,-0.907 0.453,-0.654 -2.713,-3.169 -2.713,-3.169 0,0 2.663,-1.062 2.764,-1.817 0.11,-0.831 -2.162,-2.798 -2.162,-2.798 0,0 0.878,-0.865 1.538,-2.342 0.472,-1.055 -3.277,-1.337 -3.277,-1.337 0.201,-0.802 0.124,-1.581 -0.87,-1.94 -0.768,-0.277 -3.612,0.802 -5.551,0.802 -1.939,0 -2.676,1.405 -2.676,1.405 0,0 -3.411,0.402 -3.88,0.802 -0.468,0.402 0.134,3.01 0.134,3.01 -1.739,-0.267 -2.541,-1.806 -2.541,-1.806 -0.87,3.946 3.211,4.348 3.211,4.348 l 0.669,2.141 c 0,0 0,0 1.672,0.201 1.672,0.201 0.87,1.806 -1.739,1.806 -2.609,0 -3.716,3.112 -3.716,3.112 -1.813,0.051 -2.82,-1.41 -3.223,-3.274 -0.444,-2.051 -0.182,-5.203 0.151,-7.201 0.403,-2.418 -0.806,-3.123 -0.806,-3.123 l -0.806,2.015 c -0.05,-2.065 -1.864,-2.266 -1.864,-2.266 l -0.302,2.518 c -0.907,-1.662 -2.467,-0.907 -2.467,-0.907 0,0 1.511,5.439 1.461,5.741 -0.051,0.302 -0.554,0.554 -1.259,-0.202 -0.705,-0.756 -1.208,-0.252 -1.208,-0.252 0.756,5.439 3.672,4.641 3.672,4.641 0,0 0.13,1.704 1.011,5.163 0.94,3.693 4.808,2.998 4.808,2.998 0,1.204 0.937,2.943 1.204,6.956 0.267,4.013 -3.411,6.823 -3.411,6.823 -3.345,-0.067 -3.01,3.211 -3.01,3.211 h 9.23 c 0,-8.535 3.669,-9.998 3.669,-9.998 5.439,0.252 10.677,-2.015 10.677,-2.015 -0.806,3.274 0.605,4.633 0.605,4.633 2.216,-0.302 1.108,4.079 0.453,4.079 -0.654,0 -2.015,0 -2.82,0 -0.805,0 -3.123,2.518 -3.123,2.518 h 9.569 c 0,0 1.461,-2.115 1.964,-3.172 0.503,-1.058 -1.108,-2.518 -1.208,-3.626 -0.1,-1.108 1.662,-1.813 1.662,-1.813 1.864,2.618 6.144,2.77 6.144,2.77 l -0.1,-1.964 c 0,0 2.216,0.756 2.72,1.41 0.503,0.654 0.403,3.677 -2.266,4.029 -2.669,0.352 -2.871,2.266 -2.871,2.266 0,0 6.094,0 7.303,0 1.209,0 2.165,-2.266 2.165,-3.123 0,-0.856 0,-6.446 0,-7.656 0,-1.208 -1.007,-1.057 -3.374,-1.31 -2.15,-0.228 -1.944,-2.581 -2.83,-5.312 3.108,-0.105 7.915,-0.785 7.915,-3.99 z"
   id="path54" />
	<path
   style="fill:#e6b432"
   d="m 282.197,168.871 c -0.599,-5.281 -4.809,-12.006 -20.844,-15.158 -0.053,-1.704 -1.101,-3.148 -2.6,-3.756 v -2.943 h 2.625 v -3.149 h -2.625 v -2.624 h -3.149 v 2.625 h -2.625 v 3.149 h 2.625 v 2.943 c -1.497,0.608 -2.547,2.052 -2.6,3.756 -16.035,3.153 -20.245,9.877 -20.844,15.158 -0.747,6.585 3.969,12.829 8.221,15.222 v 3.341 h 33.596 v -3.341 c 4.251,-2.393 8.966,-8.638 8.22,-15.223 z m -17.588,10.165 h -4.702 v -19.369 c 3.876,1.751 6.274,4.436 6.972,8.124 0.869,4.592 -0.967,9.274 -2.27,11.245 z m -17.132,-11.248 c 0.698,-3.688 3.095,-6.372 6.972,-8.122 v 19.369 h -4.703 c -1.305,-1.97 -3.14,-6.653 -2.269,-11.247 z m -3.887,-5.318 c -0.772,1.547 -1.265,3.094 -1.516,4.515 -0.76,4.302 0.111,8.674 1.551,12.051 h -1.103 c -2.356,-1.622 -5.383,-5.612 -4.936,-9.549 0.311,-2.755 2.4,-5.118 6.004,-7.017 z m 28.245,16.566 h -1.106 c 1.44,-3.375 2.312,-7.747 1.553,-12.049 -0.252,-1.421 -0.744,-2.97 -1.517,-4.518 3.605,1.899 5.694,4.264 6.005,7.017 0.447,3.938 -2.58,7.928 -4.935,9.55 z"
   id="path56" />
</g>
<g
   id="g60"
   transform="translate(0,-88.275)">
</g>
<g
   id="g62"
   transform="translate(0,-88.275)">
</g>
<g
   id="g64"
   transform="translate(0,-88.275)">
</g>
<g
   id="g66"
   transform="translate(0,-88.275)">
</g>
<g
   id="g68"
   transform="translate(0,-88.275)">
</g>
<g
   id="g70"
   transform="translate(0,-88.275)">
</g>
<g
   id="g72"
   transform="translate(0,-88.275)">
</g>
<g
   id="g74"
   transform="translate(0,-88.275)">
</g>
<g
   id="g76"
   transform="translate(0,-88.275)">
</g>
<g
   id="g78"
   transform="translate(0,-88.275)">
</g>
<g
   id="g80"
   transform="translate(0,-88.275)">
</g>
<g
   id="g82"
   transform="translate(0,-88.275)">
</g>
<g
   id="g84"
   transform="translate(0,-88.275)">
</g>
<g
   id="g86"
   transform="translate(0,-88.275)">
</g>
<g
   id="g88"
   transform="translate(0,-88.275)">
</g>
</svg>
