<?xml version="1.0" encoding="UTF-8" standalone="no"?>
<svg
   xmlns:dc="http://purl.org/dc/elements/1.1/"
   xmlns:cc="http://creativecommons.org/ns#"
   xmlns:rdf="http://www.w3.org/1999/02/22-rdf-syntax-ns#"
   xmlns:svg="http://www.w3.org/2000/svg"
   xmlns="http://www.w3.org/2000/svg"
   xmlns:sodipodi="http://sodipodi.sourceforge.net/DTD/sodipodi-0.dtd"
   xmlns:inkscape="http://www.inkscape.org/namespaces/inkscape"
   version="1.1"
   id="Layer_1"
   x="0px"
   y="0px"
   viewBox="0 0 512 335.45001"
   xml:space="preserve"
   sodipodi:docname="mp.svg"
   width="512"
   height="335.45001"
   inkscape:version="1.0.1 (c497b03c, 2020-09-10)"><metadata
   id="metadata985"><rdf:RDF><cc:Work
       rdf:about=""><dc:format>image/svg+xml</dc:format><dc:type
         rdf:resource="http://purl.org/dc/dcmitype/StillImage" /><dc:title></dc:title></cc:Work></rdf:RDF></metadata><defs
   id="defs983" /><sodipodi:namedview
   pagecolor="#ffffff"
   bordercolor="#666666"
   borderopacity="1"
   objecttolerance="10"
   gridtolerance="10"
   guidetolerance="10"
   inkscape:pageopacity="0"
   inkscape:pageshadow="2"
   inkscape:window-width="842"
   inkscape:window-height="480"
   id="namedview981"
   showgrid="false"
   inkscape:zoom="0.61328125"
   inkscape:cx="256"
   inkscape:cy="256"
   inkscape:window-x="0"
   inkscape:window-y="23"
   inkscape:window-maximized="0"
   inkscape:current-layer="Layer_1" />
<path
   style="fill:#4173cd"
   d="M 473.655,335.448 H 38.345 C 17.167,335.448 0,318.281 0,297.103 V 38.345 C 0,17.168 17.167,0 38.345,0 h 435.31 C 494.832,0 512,17.167 512,38.345 v 258.759 c 0,21.177 -17.167,38.344 -38.345,38.344 z"
   id="path900" />
<path
   style="fill:#f5f5f5"
   d="m 256,295.724 c -70.578,0 -128,-57.422 -128,-128 0,-70.578 57.422,-128 128,-128 70.578,0 128,57.422 128,128 0,70.578 -57.422,128 -128,128 z m 0,-229.517 c -55.979,0 -101.517,45.539 -101.517,101.517 0,55.978 45.539,101.517 101.517,101.517 55.978,0 101.517,-45.539 101.517,-101.517 C 357.517,111.746 311.979,66.207 256,66.207 Z"
   id="path902" />
<g
   id="g940"
   transform="translate(0,-88.276)">
	<path
   style="fill:#ffdc00"
   d="m 256,375.172 c -65.711,0 -119.172,-53.461 -119.172,-119.172 0,-65.711 53.461,-119.172 119.172,-119.172 65.711,0 119.172,53.461 119.172,119.172 0,65.711 -53.461,119.172 -119.172,119.172 z m 0,-229.517 c -60.845,0 -110.345,49.5 -110.345,110.345 0,60.845 49.5,110.345 110.345,110.345 60.845,0 110.345,-49.5 110.345,-110.345 0,-60.845 -49.5,-110.345 -110.345,-110.345 z"
   id="path904" />
	<circle
   style="fill:#ffdc00"
   cx="141.24001"
   cy="256"
   r="8.8280001"
   id="circle906" />
	<circle
   style="fill:#ffdc00"
   cx="370.76001"
   cy="256"
   r="8.8280001"
   id="circle908" />
	<circle
   style="fill:#ffdc00"
   cx="256"
   cy="141.24001"
   r="8.8280001"
   id="circle910" />
	<circle
   style="fill:#ffdc00"
   cx="174.85001"
   cy="174.85001"
   r="8.8280001"
   id="circle912" />
	<circle
   style="fill:#ffdc00"
   cx="337.14999"
   cy="174.85001"
   r="8.8280001"
   id="circle914" />
	<circle
   style="fill:#ffdc00"
   cx="362.01999"
   cy="212.08"
   r="8.8280001"
   id="circle916" />
	<circle
   style="fill:#ffdc00"
   cx="212.08"
   cy="149.98"
   r="8.8280001"
   id="circle918" />
	<circle
   style="fill:#ffdc00"
   cx="149.98"
   cy="212.08"
   r="8.8280001"
   id="circle920" />
	<circle
   style="fill:#ffdc00"
   cx="299.92001"
   cy="149.98"
   r="8.8280001"
   id="circle922" />
	<circle
   style="fill:#ffdc00"
   cx="368.54999"
   cy="233.61"
   r="8.8280001"
   id="circle924" />
	<circle
   style="fill:#ffdc00"
   cx="233.61"
   cy="143.45"
   r="8.8280001"
   id="circle926" />
	<circle
   style="fill:#ffdc00"
   cx="160.59"
   cy="192.24001"
   r="8.8280001"
   id="circle928" />
	<circle
   style="fill:#ffdc00"
   cx="319.76001"
   cy="160.59"
   r="8.8280001"
   id="circle930" />
	<circle
   style="fill:#ffdc00"
   cx="351.42001"
   cy="192.24001"
   r="8.8280001"
   id="circle932" />
	<circle
   style="fill:#ffdc00"
   cx="192.24001"
   cy="160.59"
   r="8.8280001"
   id="circle934" />
	<circle
   style="fill:#ffdc00"
   cx="143.45"
   cy="233.61"
   r="8.8280001"
   id="circle936" />
	<circle
   style="fill:#ffdc00"
   cx="278.39001"
   cy="143.45"
   r="8.8280001"
   id="circle938" />
</g>
<path
   style="fill:#ffa000"
   d="m 370.759,172.138 c -2.44,0 -4.414,-1.974 -4.414,-4.414 0,-60.845 -49.5,-110.345 -110.345,-110.345 -60.845,0 -110.345,49.5 -110.345,110.345 0,2.44 -1.974,4.414 -4.414,4.414 -2.44,0 -4.414,-1.974 -4.414,-4.414 0,-65.711 53.461,-119.172 119.172,-119.172 65.711,0 119.173,53.461 119.173,119.172 0,2.44 -1.974,4.414 -4.413,4.414 z"
   id="path942" />
<path
   style="fill:#b4b4b4"
   d="m 280.526,300.138 h -49.054 c -10.482,0 -18.656,-9.079 -17.558,-19.503 l 15.603,-148.221 h 52.966 l 15.602,148.221 c 1.097,10.424 -7.076,19.503 -17.559,19.503 z"
   id="path944" />
<path
   style="fill:#aaaaaa"
   d="m 282.232,132.414 h -52.671 c -2.321,0 -4.269,-1.748 -4.52,-4.055 l -3.29,-30.302 c -0.567,-5.222 3.523,-9.781 8.776,-9.781 h 50.945 c 5.252,0 9.343,4.558 8.776,9.781 l -3.268,30.098 c -0.263,2.423 -2.309,4.259 -4.748,4.259 z"
   id="path946" />
<path
   style="fill:#f5f5f5"
   d="m 258.045,98.557 16.364,47.079 49.831,1.015 c 2.051,0.042 2.899,2.648 1.263,3.889 l -39.717,30.111 14.433,47.705 c 0.595,1.964 -1.623,3.575 -3.308,2.403 L 256,202.291 215.089,230.759 c -1.684,1.172 -3.902,-0.439 -3.308,-2.403 l 14.433,-47.705 -39.718,-30.111 c -1.635,-1.239 -0.788,-3.847 1.263,-3.889 l 49.831,-1.015 16.364,-47.079 c 0.676,-1.938 3.416,-1.938 4.091,0 z"
   id="path948" />
<g
   id="g950"
   transform="translate(0,-88.276)">
</g>
<g
   id="g952"
   transform="translate(0,-88.276)">
</g>
<g
   id="g954"
   transform="translate(0,-88.276)">
</g>
<g
   id="g956"
   transform="translate(0,-88.276)">
</g>
<g
   id="g958"
   transform="translate(0,-88.276)">
</g>
<g
   id="g960"
   transform="translate(0,-88.276)">
</g>
<g
   id="g962"
   transform="translate(0,-88.276)">
</g>
<g
   id="g964"
   transform="translate(0,-88.276)">
</g>
<g
   id="g966"
   transform="translate(0,-88.276)">
</g>
<g
   id="g968"
   transform="translate(0,-88.276)">
</g>
<g
   id="g970"
   transform="translate(0,-88.276)">
</g>
<g
   id="g972"
   transform="translate(0,-88.276)">
</g>
<g
   id="g974"
   transform="translate(0,-88.276)">
</g>
<g
   id="g976"
   transform="translate(0,-88.276)">
</g>
<g
   id="g978"
   transform="translate(0,-88.276)">
</g>
</svg>
