<?xml version="1.0" encoding="UTF-8" standalone="no"?>
<svg
   xmlns:dc="http://purl.org/dc/elements/1.1/"
   xmlns:cc="http://creativecommons.org/ns#"
   xmlns:rdf="http://www.w3.org/1999/02/22-rdf-syntax-ns#"
   xmlns:svg="http://www.w3.org/2000/svg"
   xmlns="http://www.w3.org/2000/svg"
   xmlns:sodipodi="http://sodipodi.sourceforge.net/DTD/sodipodi-0.dtd"
   xmlns:inkscape="http://www.inkscape.org/namespaces/inkscape"
   version="1.1"
   id="Layer_1"
   x="0px"
   y="0px"
   viewBox="0 0 512 335.45001"
   xml:space="preserve"
   sodipodi:docname="mq.svg"
   width="512"
   height="335.45001"
   inkscape:version="1.0.1 (c497b03c, 2020-09-10)"><metadata
   id="metadata59"><rdf:RDF><cc:Work
       rdf:about=""><dc:format>image/svg+xml</dc:format><dc:type
         rdf:resource="http://purl.org/dc/dcmitype/StillImage" /><dc:title></dc:title></cc:Work></rdf:RDF></metadata><defs
   id="defs57" /><sodipodi:namedview
   pagecolor="#ffffff"
   bordercolor="#666666"
   borderopacity="1"
   objecttolerance="10"
   gridtolerance="10"
   guidetolerance="10"
   inkscape:pageopacity="0"
   inkscape:pageshadow="2"
   inkscape:window-width="1245"
   inkscape:window-height="790"
   id="namedview55"
   showgrid="false"
   inkscape:zoom="1.640625"
   inkscape:cx="256"
   inkscape:cy="256"
   inkscape:window-x="0"
   inkscape:window-y="23"
   inkscape:window-maximized="0"
   inkscape:current-layer="Layer_1" />
<path
   style="fill:#41479b;stroke-width:1"
   d="M 473.654,335.448 H 38.345 C 17.167,335.448 0,318.28 0,297.103 V 38.345 C 0,17.168 17.167,0 38.345,0 h 435.309 c 21.177,0 38.345,17.167 38.345,38.345 v 258.758 c 0,21.177 -17.168,38.345 -38.345,38.345 z"
   id="path10" />
<g
   id="g22"
   transform="translate(0,-88.276)">
	<polygon
   style="fill:#f5f5f5"
   points="238.344,238.345 0,238.345 0,273.655 238.344,273.655 238.344,423.724 273.655,423.724 273.655,273.655 512,273.655 512,238.345 273.655,238.345 273.655,88.276 238.344,88.276 "
   id="polygon12" />
	<path
   style="fill:#f5f5f5"
   d="m 172.41,203.12 c -0.253,-1.502 -0.823,-3.281 -1.543,-4.426 -1.431,-1.978 -3.087,-3.363 -4.691,-4.225 -12.639,-5.806 -23.22,-4.668 -33.317,-4.708 -9.973,0.257 -19.303,1.977 -26.877,3.635 -2.056,0.414 -3.837,0.723 -5.742,1.081 0.942,-1.946 4.395,-4.381 9.045,-5.857 11.336,-3.872 24.276,-5.427 36.994,-7.905 3.212,-0.629 6.468,-1.366 9.802,-2.314 1.795,-0.615 3.306,-1.095 5.42,-2.077 1.356,-0.767 2.691,-1.732 3.833,-2.763 1.216,-1.094 1.123,-1.4 1.749,-2.138 2.888,-5.497 0.154,-9.411 -2.138,-11.455 -2.209,-1.813 -4.07,-2.521 -5.841,-3.25 -3.438,-1.206 -6.623,-1.962 -9.697,-2.603 -5.923,-1.185 -11.746,-2.35 -17.447,-3.491 -2.708,-0.627 -5.327,-1.323 -7.625,-2.167 -2.029,-0.541 -4.896,-2.546 -4.47,-1.999 -5.239,-0.452 7.175,-6.295 16.126,-9.559 2.379,-1.05 4.744,-2.11 7.167,-3.606 2.377,-1.571 4.826,-2.904 7.467,-7.304 0.519,-0.913 0.497,-1.135 0.769,-1.732 l 0.302,-0.759 c 0.655,-2.339 0.295,-1.708 0.447,-2.722 0.309,-2.454 -0.654,-5.077 -2.178,-7.262 -3.111,-3.362 -6.205,-4.324 -8.503,-4.968 -9.504,-2.252 -16.342,-1.636 -22.283,-1.613 -11.266,0.53 -17.705,0.832 -17.705,0.832 l -0.435,0.02 c -0.013,0.001 -0.025,0.001 -0.039,0.002 -3.601,0.211 -6.348,3.3 -6.137,6.9 0.02,0.352 0.185,0.647 0.258,0.98 -5.102,1.406 -13.175,2.844 -21.162,0.961 -1.216,-0.28 -2.339,0.451 -2.62,1.615 -0.28,1.174 0.451,2.347 1.615,2.62 3.138,0.74 6.251,1.03 9.219,1.03 6.305,0 11.691,-1.283 15.369,-2.41 1.186,0.881 2.628,1.436 4.218,1.343 0,0 6.506,-0.381 17.892,-1.047 5.331,-0.192 12.495,-0.473 18.407,0.916 0.489,0.076 0.751,0.228 1.075,0.365 0.046,-0.524 -0.954,0.952 -2.517,1.711 -1.517,0.979 -3.491,1.917 -5.545,2.849 -4.2,1.903 -9.006,3.539 -14.334,6.406 -2.572,1.518 -5.752,3.06 -8.394,7.571 -1.235,2.09 -1.821,5.469 -1.172,7.851 l 0.192,0.971 0.109,0.48 0.058,0.238 c -0.409,-0.849 0.622,1.434 0.541,1.228 l 0.533,0.888 c 0.473,0.676 0.399,0.956 1.535,2.136 0.911,0.986 1.94,1.93 3.001,2.754 0.93,0.64 1.624,0.942 2.461,1.416 1.649,0.972 3.146,1.422 4.708,2.035 3.08,1.085 6.079,1.822 9.074,2.484 5.781,1.088 11.688,2.199 17.695,3.33 2.519,0.487 4.876,1.101 7.055,1.772 -2.791,1.006 -6.697,2.02 -10.066,2.669 -12.255,2.586 -25.25,4.15 -38.467,8.792 -3.308,1.259 -6.697,2.764 -10.02,5.309 -3.129,2.371 -6.418,7.1 -5.997,12.295 -1.121,0.157 -2.409,0.386 -3.445,0.501 -11.212,1.484 -15.924,-0.49 -15.62,-0.547 -1.464,-0.864 -3.351,-0.38 -4.215,1.085 -0.865,1.463 -0.38,3.351 1.084,4.215 0,0 1.922,1.305 5.353,2.057 3.414,0.772 8.217,1.126 14.067,0.665 1.611,-0.11 3.498,-0.351 5.27,-0.538 1.225,1.766 2.652,3.714 3.981,4.658 3.089,2.591 6.36,4.248 9.62,5.699 13.123,5.076 26.239,6.142 39.027,5.639 6.42,-0.482 12.738,-1.231 19.226,-4.126 3.025,-1.411 7.177,-3.633 8.459,-10.06 0.004,-0.823 0.145,-1.198 0.019,-2.373 z m -9.438,2.024 c -0.167,-0.95 -0.69,1.205 -3.14,1.799 -4.217,1.853 -9.973,2.701 -15.631,2.999 -11.41,0.375 -23.87,-0.957 -34.554,-5.29 -1.679,-0.776 -3.049,-1.753 -4.49,-2.687 0.792,-0.121 1.479,-0.205 2.291,-0.333 7.939,-1.265 16.214,-2.754 25.719,-2.911 9.053,-0.166 20.581,-0.041 28.236,3.767 0.889,0.479 1.278,0.978 1.572,1.279 0,0 -0.254,-0.305 0.029,-0.499 0.126,0.194 -0.032,1.278 -0.032,1.876 z"
   id="path14" />
	<path
   style="fill:#f5f5f5"
   d="m 446.066,203.12 c -0.253,-1.502 -0.823,-3.281 -1.543,-4.426 -1.431,-1.978 -3.087,-3.363 -4.691,-4.225 -12.639,-5.806 -23.22,-4.668 -33.317,-4.708 -9.973,0.257 -19.303,1.977 -26.877,3.635 -2.056,0.414 -3.837,0.723 -5.742,1.081 0.942,-1.946 4.395,-4.381 9.045,-5.857 11.336,-3.872 24.276,-5.427 36.994,-7.905 3.212,-0.629 6.468,-1.366 9.802,-2.314 1.795,-0.615 3.306,-1.095 5.42,-2.077 1.356,-0.767 2.691,-1.732 3.833,-2.763 1.216,-1.094 1.123,-1.4 1.749,-2.138 2.888,-5.497 0.155,-9.411 -2.138,-11.455 -2.209,-1.813 -4.069,-2.521 -5.841,-3.25 -3.438,-1.206 -6.623,-1.962 -9.697,-2.603 -5.923,-1.185 -11.746,-2.35 -17.447,-3.491 -2.708,-0.627 -5.327,-1.323 -7.625,-2.167 -2.029,-0.541 -4.896,-2.546 -4.47,-1.999 -5.239,-0.452 7.175,-6.295 16.126,-9.559 2.379,-1.05 4.744,-2.11 7.167,-3.606 2.377,-1.571 4.826,-2.904 7.467,-7.304 0.519,-0.913 0.497,-1.135 0.769,-1.732 l 0.302,-0.759 c 0.655,-2.339 0.295,-1.708 0.447,-2.722 0.309,-2.454 -0.654,-5.077 -2.178,-7.262 -3.111,-3.362 -6.205,-4.324 -8.503,-4.968 -9.504,-2.252 -16.342,-1.636 -22.283,-1.613 -11.266,0.53 -17.705,0.832 -17.705,0.832 l -0.435,0.02 c -0.013,0.001 -0.025,0.001 -0.039,0.002 -3.601,0.211 -6.348,3.3 -6.137,6.9 0.02,0.352 0.185,0.647 0.258,0.98 -5.102,1.406 -13.175,2.844 -21.162,0.961 -1.216,-0.28 -2.339,0.451 -2.62,1.615 -0.28,1.174 0.451,2.347 1.615,2.62 3.138,0.74 6.251,1.03 9.219,1.03 6.305,0 11.691,-1.283 15.369,-2.41 1.186,0.881 2.628,1.436 4.218,1.343 0,0 6.506,-0.381 17.892,-1.047 5.331,-0.192 12.495,-0.473 18.407,0.916 0.489,0.076 0.751,0.228 1.075,0.365 0.046,-0.524 -0.954,0.952 -2.517,1.711 -1.517,0.979 -3.491,1.917 -5.545,2.849 -4.2,1.903 -9.006,3.539 -14.334,6.406 -2.572,1.518 -5.752,3.06 -8.394,7.571 -1.235,2.09 -1.821,5.469 -1.172,7.851 l 0.192,0.971 0.109,0.48 0.059,0.238 c -0.409,-0.849 0.622,1.434 0.541,1.228 l 0.533,0.888 c 0.473,0.676 0.399,0.956 1.535,2.136 0.911,0.986 1.94,1.93 3.001,2.754 0.93,0.64 1.624,0.942 2.461,1.416 1.649,0.972 3.146,1.422 4.708,2.035 3.08,1.085 6.079,1.822 9.074,2.484 5.781,1.088 11.688,2.199 17.695,3.33 2.519,0.487 4.876,1.101 7.055,1.772 -2.791,1.006 -6.697,2.02 -10.066,2.669 -12.255,2.586 -25.25,4.15 -38.467,8.792 -3.308,1.259 -6.697,2.764 -10.02,5.309 -3.129,2.371 -6.418,7.1 -5.997,12.295 -1.121,0.157 -2.409,0.386 -3.445,0.501 -11.212,1.484 -15.924,-0.49 -15.62,-0.547 -1.464,-0.864 -3.351,-0.38 -4.215,1.085 -0.865,1.463 -0.38,3.351 1.084,4.215 0,0 1.922,1.305 5.353,2.057 3.414,0.772 8.217,1.126 14.067,0.665 1.611,-0.11 3.498,-0.351 5.27,-0.538 1.225,1.766 2.652,3.714 3.981,4.658 3.089,2.591 6.36,4.248 9.62,5.699 13.123,5.076 26.24,6.142 39.027,5.639 6.42,-0.482 12.738,-1.231 19.226,-4.126 3.025,-1.411 7.177,-3.633 8.459,-10.06 10e-4,-0.823 0.142,-1.198 0.018,-2.373 z m -9.439,2.024 c -0.167,-0.95 -0.69,1.205 -3.14,1.799 -4.217,1.853 -9.973,2.701 -15.631,2.999 -11.41,0.375 -23.87,-0.957 -34.554,-5.29 -1.679,-0.776 -3.049,-1.753 -4.49,-2.687 0.792,-0.121 1.479,-0.205 2.291,-0.333 7.939,-1.265 16.214,-2.754 25.719,-2.911 9.053,-0.166 20.581,-0.041 28.236,3.767 0.889,0.479 1.278,0.978 1.572,1.279 0,0 -0.254,-0.305 0.029,-0.499 0.126,0.194 -0.031,1.278 -0.032,1.876 z"
   id="path16" />
	<path
   style="fill:#f5f5f5"
   d="m 172.41,388.498 c -0.253,-1.502 -0.823,-3.281 -1.543,-4.426 -1.431,-1.978 -3.087,-3.363 -4.691,-4.225 -12.639,-5.806 -23.22,-4.668 -33.317,-4.708 -9.973,0.257 -19.303,1.977 -26.877,3.635 -2.056,0.414 -3.837,0.723 -5.742,1.081 0.942,-1.946 4.395,-4.381 9.045,-5.857 11.336,-3.872 24.276,-5.427 36.994,-7.905 3.212,-0.629 6.468,-1.366 9.802,-2.314 1.795,-0.615 3.306,-1.095 5.42,-2.077 1.356,-0.767 2.691,-1.732 3.833,-2.763 1.216,-1.094 1.123,-1.4 1.749,-2.138 2.888,-5.497 0.154,-9.411 -2.138,-11.455 -2.209,-1.813 -4.07,-2.521 -5.841,-3.25 -3.438,-1.206 -6.623,-1.962 -9.697,-2.603 -5.923,-1.185 -11.746,-2.35 -17.447,-3.491 -2.708,-0.627 -5.327,-1.323 -7.625,-2.167 -2.029,-0.541 -4.896,-2.546 -4.47,-1.999 -5.239,-0.452 7.175,-6.295 16.126,-9.559 2.379,-1.05 4.744,-2.111 7.167,-3.606 2.377,-1.571 4.826,-2.904 7.467,-7.304 0.519,-0.913 0.497,-1.135 0.769,-1.732 l 0.302,-0.759 c 0.655,-2.339 0.295,-1.708 0.447,-2.722 0.309,-2.454 -0.654,-5.077 -2.178,-7.262 -3.111,-3.362 -6.205,-4.324 -8.503,-4.968 -9.504,-2.252 -16.342,-1.636 -22.283,-1.613 -11.266,0.53 -17.705,0.832 -17.705,0.832 l -0.435,0.02 c -0.013,10e-4 -0.025,10e-4 -0.039,0.002 -3.601,0.211 -6.348,3.3 -6.137,6.9 0.02,0.352 0.185,0.647 0.258,0.98 -5.102,1.406 -13.175,2.844 -21.162,0.961 -1.216,-0.28 -2.339,0.451 -2.62,1.615 -0.28,1.174 0.451,2.347 1.615,2.62 3.138,0.74 6.251,1.03 9.219,1.03 6.305,0 11.691,-1.283 15.369,-2.41 1.186,0.881 2.628,1.436 4.218,1.343 0,0 6.506,-0.381 17.892,-1.047 5.331,-0.192 12.495,-0.473 18.407,0.916 0.489,0.076 0.751,0.228 1.075,0.365 0.046,-0.524 -0.954,0.952 -2.517,1.711 -1.517,0.979 -3.491,1.917 -5.545,2.849 -4.2,1.903 -9.006,3.539 -14.334,6.405 -2.572,1.518 -5.752,3.06 -8.394,7.571 -1.235,2.09 -1.821,5.469 -1.172,7.851 l 0.192,0.971 0.109,0.48 0.058,0.238 c -0.409,-0.849 0.622,1.434 0.541,1.228 l 0.533,0.888 c 0.473,0.676 0.399,0.956 1.535,2.136 0.911,0.987 1.94,1.93 3.001,2.754 0.93,0.64 1.624,0.942 2.461,1.416 1.649,0.972 3.146,1.422 4.708,2.035 3.08,1.085 6.079,1.822 9.074,2.484 5.781,1.088 11.688,2.199 17.695,3.33 2.519,0.487 4.876,1.101 7.055,1.772 -2.791,1.006 -6.697,2.02 -10.066,2.669 -12.255,2.586 -25.25,4.15 -38.467,8.792 -3.308,1.259 -6.697,2.764 -10.02,5.309 -3.129,2.371 -6.418,7.1 -5.997,12.295 -1.121,0.157 -2.409,0.386 -3.445,0.501 -11.212,1.484 -15.924,-0.49 -15.62,-0.547 -1.464,-0.864 -3.351,-0.38 -4.215,1.085 -0.865,1.463 -0.38,3.351 1.084,4.215 0,0 1.922,1.305 5.353,2.057 3.414,0.772 8.217,1.125 14.067,0.665 1.611,-0.11 3.498,-0.351 5.27,-0.538 1.225,1.766 2.652,3.714 3.981,4.658 3.089,2.591 6.36,4.248 9.62,5.699 13.123,5.076 26.239,6.142 39.027,5.639 6.42,-0.482 12.738,-1.231 19.226,-4.126 3.025,-1.411 7.177,-3.633 8.459,-10.06 0.004,-0.821 0.145,-1.196 0.019,-2.372 z m -9.438,2.025 c -0.167,-0.95 -0.69,1.205 -3.14,1.799 -4.217,1.853 -9.973,2.701 -15.631,2.999 -11.41,0.375 -23.87,-0.957 -34.554,-5.29 -1.679,-0.776 -3.049,-1.753 -4.49,-2.687 0.792,-0.121 1.479,-0.205 2.291,-0.333 7.939,-1.265 16.214,-2.754 25.719,-2.911 9.053,-0.165 20.581,-0.041 28.236,3.767 0.889,0.479 1.278,0.978 1.572,1.279 0,0 -0.254,-0.305 0.029,-0.499 0.126,0.194 -0.032,1.278 -0.032,1.876 z"
   id="path18" />
	<path
   style="fill:#f5f5f5"
   d="m 446.066,388.498 c -0.253,-1.502 -0.823,-3.281 -1.543,-4.426 -1.431,-1.978 -3.087,-3.363 -4.691,-4.225 -12.639,-5.806 -23.22,-4.668 -33.317,-4.708 -9.973,0.257 -19.303,1.977 -26.877,3.635 -2.056,0.414 -3.837,0.723 -5.742,1.081 0.942,-1.946 4.395,-4.381 9.045,-5.857 11.336,-3.872 24.276,-5.427 36.994,-7.905 3.212,-0.629 6.468,-1.366 9.802,-2.314 1.795,-0.615 3.306,-1.095 5.42,-2.077 1.356,-0.767 2.691,-1.732 3.833,-2.763 1.216,-1.094 1.123,-1.4 1.749,-2.138 2.888,-5.497 0.155,-9.411 -2.138,-11.455 -2.209,-1.813 -4.069,-2.521 -5.841,-3.25 -3.438,-1.206 -6.623,-1.962 -9.697,-2.603 -5.923,-1.185 -11.746,-2.35 -17.447,-3.491 -2.708,-0.627 -5.327,-1.323 -7.625,-2.167 -2.029,-0.541 -4.896,-2.546 -4.47,-1.999 -5.239,-0.452 7.175,-6.295 16.126,-9.559 2.379,-1.05 4.744,-2.111 7.167,-3.606 2.377,-1.571 4.826,-2.904 7.467,-7.304 0.519,-0.913 0.497,-1.135 0.769,-1.732 l 0.302,-0.759 c 0.655,-2.339 0.295,-1.708 0.447,-2.722 0.309,-2.454 -0.654,-5.077 -2.178,-7.262 -3.111,-3.362 -6.205,-4.324 -8.503,-4.968 -9.504,-2.252 -16.342,-1.636 -22.283,-1.613 -11.266,0.53 -17.705,0.832 -17.705,0.832 l -0.435,0.02 c -0.013,10e-4 -0.025,10e-4 -0.039,0.002 -3.601,0.211 -6.348,3.3 -6.137,6.9 0.02,0.352 0.185,0.647 0.258,0.98 -5.102,1.406 -13.175,2.844 -21.162,0.961 -1.216,-0.28 -2.339,0.451 -2.62,1.615 -0.28,1.174 0.451,2.347 1.615,2.62 3.138,0.74 6.251,1.03 9.219,1.03 6.305,0 11.691,-1.283 15.369,-2.41 1.186,0.881 2.628,1.436 4.218,1.343 0,0 6.506,-0.381 17.892,-1.047 5.331,-0.192 12.495,-0.473 18.407,0.916 0.489,0.076 0.751,0.228 1.075,0.365 0.046,-0.524 -0.954,0.952 -2.517,1.711 -1.517,0.979 -3.491,1.917 -5.545,2.849 -4.2,1.903 -9.006,3.539 -14.334,6.405 -2.572,1.518 -5.752,3.06 -8.394,7.571 -1.235,2.09 -1.821,5.469 -1.172,7.851 l 0.192,0.971 0.109,0.48 0.059,0.238 c -0.409,-0.849 0.622,1.434 0.541,1.228 l 0.533,0.888 c 0.473,0.676 0.399,0.956 1.535,2.136 0.911,0.987 1.94,1.93 3.001,2.754 0.93,0.64 1.624,0.942 2.461,1.416 1.649,0.972 3.146,1.422 4.708,2.035 3.08,1.085 6.079,1.822 9.074,2.484 5.781,1.088 11.688,2.199 17.695,3.33 2.519,0.487 4.876,1.101 7.055,1.772 -2.791,1.006 -6.697,2.02 -10.066,2.669 -12.255,2.586 -25.25,4.15 -38.467,8.792 -3.308,1.259 -6.697,2.764 -10.02,5.309 -3.129,2.371 -6.418,7.1 -5.997,12.295 -1.121,0.157 -2.409,0.386 -3.445,0.501 -11.212,1.484 -15.924,-0.49 -15.62,-0.547 -1.464,-0.864 -3.351,-0.38 -4.215,1.085 -0.865,1.463 -0.38,3.351 1.084,4.215 0,0 1.922,1.305 5.353,2.057 3.414,0.772 8.217,1.125 14.067,0.665 1.611,-0.11 3.498,-0.351 5.27,-0.538 1.225,1.766 2.652,3.714 3.981,4.658 3.089,2.591 6.36,4.248 9.62,5.699 13.123,5.076 26.24,6.142 39.027,5.639 6.42,-0.482 12.738,-1.231 19.226,-4.126 3.025,-1.411 7.177,-3.633 8.459,-10.06 10e-4,-0.821 0.142,-1.196 0.018,-2.372 z m -9.439,2.025 c -0.167,-0.95 -0.69,1.205 -3.14,1.799 -4.217,1.853 -9.973,2.701 -15.631,2.999 -11.41,0.375 -23.87,-0.957 -34.554,-5.29 -1.679,-0.776 -3.049,-1.753 -4.49,-2.687 0.792,-0.121 1.479,-0.205 2.291,-0.333 7.939,-1.265 16.214,-2.754 25.719,-2.911 9.053,-0.165 20.581,-0.041 28.236,3.767 0.889,0.479 1.278,0.978 1.572,1.279 0,0 -0.254,-0.305 0.029,-0.499 0.126,0.194 -0.031,1.278 -0.032,1.876 z"
   id="path20" />
</g>
<g
   id="g24"
   transform="translate(0,-88.276)">
</g>
<g
   id="g26"
   transform="translate(0,-88.276)">
</g>
<g
   id="g28"
   transform="translate(0,-88.276)">
</g>
<g
   id="g30"
   transform="translate(0,-88.276)">
</g>
<g
   id="g32"
   transform="translate(0,-88.276)">
</g>
<g
   id="g34"
   transform="translate(0,-88.276)">
</g>
<g
   id="g36"
   transform="translate(0,-88.276)">
</g>
<g
   id="g38"
   transform="translate(0,-88.276)">
</g>
<g
   id="g40"
   transform="translate(0,-88.276)">
</g>
<g
   id="g42"
   transform="translate(0,-88.276)">
</g>
<g
   id="g44"
   transform="translate(0,-88.276)">
</g>
<g
   id="g46"
   transform="translate(0,-88.276)">
</g>
<g
   id="g48"
   transform="translate(0,-88.276)">
</g>
<g
   id="g50"
   transform="translate(0,-88.276)">
</g>
<g
   id="g52"
   transform="translate(0,-88.276)">
</g>
</svg>
