<?xml version="1.0" encoding="UTF-8" standalone="no"?>
<svg
   xmlns:dc="http://purl.org/dc/elements/1.1/"
   xmlns:cc="http://creativecommons.org/ns#"
   xmlns:rdf="http://www.w3.org/1999/02/22-rdf-syntax-ns#"
   xmlns:svg="http://www.w3.org/2000/svg"
   xmlns="http://www.w3.org/2000/svg"
   xmlns:sodipodi="http://sodipodi.sourceforge.net/DTD/sodipodi-0.dtd"
   xmlns:inkscape="http://www.inkscape.org/namespaces/inkscape"
   version="1.1"
   id="Layer_1"
   x="0px"
   y="0px"
   viewBox="0 0 512 335.45001"
   xml:space="preserve"
   sodipodi:docname="mx.svg"
   width="512"
   height="335.45001"
   inkscape:version="1.0.1 (c497b03c, 2020-09-10)"><metadata
   id="metadata93"><rdf:RDF><cc:Work
       rdf:about=""><dc:format>image/svg+xml</dc:format><dc:type
         rdf:resource="http://purl.org/dc/dcmitype/StillImage" /><dc:title></dc:title></cc:Work></rdf:RDF></metadata><defs
   id="defs91" /><sodipodi:namedview
   pagecolor="#ffffff"
   bordercolor="#666666"
   borderopacity="1"
   objecttolerance="10"
   gridtolerance="10"
   guidetolerance="10"
   inkscape:pageopacity="0"
   inkscape:pageshadow="2"
   inkscape:window-width="862"
   inkscape:window-height="480"
   id="namedview89"
   showgrid="false"
   inkscape:zoom="1.640625"
   inkscape:cx="256"
   inkscape:cy="256"
   inkscape:window-x="0"
   inkscape:window-y="23"
   inkscape:window-maximized="0"
   inkscape:current-layer="Layer_1" />
<path
   style="fill:#73af00;stroke-width:1"
   d="M 38.345,0 C 17.167,0 0,17.167 0,38.345 v 258.759 c 0,21.177 17.167,38.345 38.345,38.345 H 170.667 V 0 Z"
   id="path10" />
<rect
   x="170.67"
   y="0.0040004272"
   style="fill:#f5f5f5;stroke-width:1"
   width="170.67"
   height="335.45001"
   id="rect12" />
<path
   style="fill:#ff4b55;stroke-width:1"
   d="M 473.655,0 H 341.333 v 335.448 h 132.322 c 21.177,0 38.345,-17.167 38.345,-38.345 V 38.345 C 512,17.167 494.833,0 473.655,0 Z"
   id="path14" />
<polygon
   style="fill:#ffd250"
   points="271.225,263.893 256,271.506 256,279.119 263.613,279.119 "
   id="polygon16"
   transform="translate(0,-88.273)" />
<g
   id="g22"
   transform="translate(0,-88.273)">
	<path
   style="fill:#00c3a0"
   d="m 256,298.151 c -2.104,0 -3.807,-1.703 -3.807,-3.806 V 279.12 c 0,-2.104 1.703,-3.807 3.807,-3.807 2.104,0 3.806,1.703 3.806,3.807 v 15.225 c 0,2.103 -1.702,3.806 -3.806,3.806 z"
   id="path18" />
	<path
   style="fill:#00c3a0"
   d="m 256,282.926 c -14.951,0 -29.388,-5.769 -40.654,-16.244 -1.539,-1.431 -1.628,-3.84 -0.196,-5.378 1.442,-1.535 3.848,-1.617 5.379,-0.198 9.854,9.163 22.452,14.207 35.473,14.207 13.021,0 25.619,-5.044 35.473,-14.207 1.535,-1.423 3.94,-1.345 5.378,0.198 1.431,1.539 1.342,3.947 -0.196,5.378 -11.269,10.475 -25.706,16.244 -40.657,16.244 z"
   id="path20" />
</g>
<path
   style="fill:#00aadc;stroke-width:1"
   d="m 256,209.878 c -9.758,0 -19.21,-2.851 -27.336,-8.248 l 4.215,-6.342 c 13.739,9.129 32.503,9.129 46.241,0 l 4.215,6.342 c -8.125,5.397 -17.577,8.248 -27.335,8.248 z"
   id="path24" />
<polygon
   style="fill:#732d37"
   points="249.973,246.764 241.568,259.77 240.14,264.052 262.027,258.977 "
   id="polygon26"
   transform="translate(0,-88.273)" />
<path
   style="fill:#aad264;stroke-width:1"
   d="m 232.705,179.962 c -10.062,0 -22.14,-8.468 -25.344,-27.336 l 7.509,-1.271 c 2.662,15.69 12.316,21.005 18.11,20.991 1.777,-0.049 3.631,-0.662 3.777,-1.918 0.171,-1.502 0.212,-1.858 -3.769,-3.204 -2.164,-0.733 -4.617,-1.561 -6.338,-3.531 -6.963,-7.951 2.464,-16.366 6.993,-20.41 0.799,-0.714 1.13,-1.32 1.045,-1.55 -0.249,-0.651 -1.743,-1.635 -3.427,-1.635 -4.836,0 -8.505,-2.732 -9.571,-7.126 -1.108,-4.55 0.985,-9.345 4.97,-11.404 l 3.495,6.765 c -0.934,0.483 -1.304,1.858 -1.067,2.84 0.093,0.394 0.32,1.312 2.175,1.312 4.661,0 9.096,2.751 10.538,6.535 0.617,1.613 1.546,5.806 -3.085,9.943 -5,4.465 -7.992,7.825 -6.334,9.717 0.375,0.427 1.985,0.974 3.048,1.331 3.427,1.16 9.806,3.316 8.892,11.289 -0.573,5.014 -5.048,8.493 -11.129,8.658 -0.165,0 -0.329,0.004 -0.488,0.004 z"
   id="path28" />
<path
   style="fill:#874150;stroke-width:1"
   d="m 263.613,137.557 c 0,0 7.613,-15.225 -7.613,-22.838 0,0 53.289,-7.613 45.676,60.903 l -0.003,-0.003 c -4.996,-3.997 -12.414,-11.302 -15.063,-17.126 L 263.613,145.17 Z"
   id="path30" />
<path
   style="fill:#732d37;stroke-width:1"
   d="m 256,152.782 38.063,22.838 c 0,0 0,0 -15.225,7.613 L 256,160.395 Z"
   id="path32" />
<path
   style="fill:#783c46;stroke-width:1"
   d="m 240.775,129.944 v 0 c 4.204,0 7.613,3.409 7.613,7.613 l -0.008,0.009 c -4.542,4.542 -5.667,11.479 -2.795,17.224 l 1.72,3.441 c 0.717,1.434 1.661,2.744 2.795,3.878 l 21.126,21.127 v -10.521 c 0,-13.107 -3.052,-26.034 -8.913,-37.757 v 0 c -3.869,-7.737 -11.777,-12.625 -20.427,-12.625 h -1.111 z"
   id="path34" />
<path
   style="fill:#ffd250;stroke-width:1"
   d="m 240.775,122.331 -7.613,7.613 v 7.613 c 0,0 9.056,-4.591 12.108,-6.054 2.133,-1.022 1.745,-3.439 0.521,-4.604 -0.953,-0.906 -5.016,-4.568 -5.016,-4.568 z"
   id="path36" />
<path
   style="fill:#aad264;stroke-width:1"
   d="m 256,225.103 c -35.681,0 -64.708,-29.027 -64.708,-64.708 h 7.613 c 0,31.485 25.611,57.096 57.096,57.096 31.485,0 57.096,-25.611 57.096,-57.096 h 7.613 c -0.002,35.681 -29.029,64.708 -64.71,64.708 z"
   id="path38" />
<g
   id="g52"
   transform="translate(0,-88.273)">
	<circle
   style="fill:#ffe15a"
   cx="199.32001"
   cy="271.25699"
   r="5.1659999"
   id="circle40" />
	<circle
   style="fill:#ffe15a"
   cx="210.74001"
   cy="289.49701"
   r="5.1659999"
   id="circle42" />
	<circle
   style="fill:#ffe15a"
   cx="229.28999"
   cy="303.28699"
   r="5.1659999"
   id="circle44" />
	<circle
   style="fill:#ffe15a"
   cx="313.23001"
   cy="271.25699"
   r="5.1659999"
   id="circle46" />
	<circle
   style="fill:#ffe15a"
   cx="301.79999"
   cy="289.49701"
   r="5.1659999"
   id="circle48" />
	<circle
   style="fill:#ffe15a"
   cx="283.25"
   cy="303.28699"
   r="5.1659999"
   id="circle50" />
</g>
<path
   style="fill:#ffb478;stroke-width:1"
   d="m 259.806,213.684 h -7.613 c -4.204,0 -7.613,-3.409 -7.613,-7.613 v 0 c 0,-4.204 3.409,-7.613 7.613,-7.613 h 7.613 c 4.204,0 7.613,3.409 7.613,7.613 v 0 c 0.001,4.205 -3.408,7.613 -7.613,7.613 z"
   id="path54" />
<path
   style="fill:#9b4b5a;stroke-width:1"
   d="m 286.61,158.491 c 2.538,7.454 7.929,14.274 15.063,17.126 l 0.003,0.003 C 309.289,107.106 256,114.719 256,114.719 c 38.063,0 30.61,43.772 30.61,43.772 z"
   id="path56" />
<g
   id="g58"
   transform="translate(0,-88.273)">
</g>
<g
   id="g60"
   transform="translate(0,-88.273)">
</g>
<g
   id="g62"
   transform="translate(0,-88.273)">
</g>
<g
   id="g64"
   transform="translate(0,-88.273)">
</g>
<g
   id="g66"
   transform="translate(0,-88.273)">
</g>
<g
   id="g68"
   transform="translate(0,-88.273)">
</g>
<g
   id="g70"
   transform="translate(0,-88.273)">
</g>
<g
   id="g72"
   transform="translate(0,-88.273)">
</g>
<g
   id="g74"
   transform="translate(0,-88.273)">
</g>
<g
   id="g76"
   transform="translate(0,-88.273)">
</g>
<g
   id="g78"
   transform="translate(0,-88.273)">
</g>
<g
   id="g80"
   transform="translate(0,-88.273)">
</g>
<g
   id="g82"
   transform="translate(0,-88.273)">
</g>
<g
   id="g84"
   transform="translate(0,-88.273)">
</g>
<g
   id="g86"
   transform="translate(0,-88.273)">
</g>
</svg>
