<?xml version="1.0" encoding="UTF-8" standalone="no"?>
<svg
   xmlns:dc="http://purl.org/dc/elements/1.1/"
   xmlns:cc="http://creativecommons.org/ns#"
   xmlns:rdf="http://www.w3.org/1999/02/22-rdf-syntax-ns#"
   xmlns:svg="http://www.w3.org/2000/svg"
   xmlns="http://www.w3.org/2000/svg"
   xmlns:sodipodi="http://sodipodi.sourceforge.net/DTD/sodipodi-0.dtd"
   xmlns:inkscape="http://www.inkscape.org/namespaces/inkscape"
   version="1.1"
   id="Layer_1"
   x="0px"
   y="0px"
   viewBox="0 0 512 335.45001"
   xml:space="preserve"
   sodipodi:docname="my.svg"
   width="512"
   height="335.45001"
   inkscape:version="1.0.1 (c497b03c, 2020-09-10)"><metadata
   id="metadata81"><rdf:RDF><cc:Work
       rdf:about=""><dc:format>image/svg+xml</dc:format><dc:type
         rdf:resource="http://purl.org/dc/dcmitype/StillImage" /><dc:title></dc:title></cc:Work></rdf:RDF></metadata><defs
   id="defs79" /><sodipodi:namedview
   pagecolor="#ffffff"
   bordercolor="#666666"
   borderopacity="1"
   objecttolerance="10"
   gridtolerance="10"
   guidetolerance="10"
   inkscape:pageopacity="0"
   inkscape:pageshadow="2"
   inkscape:window-width="921"
   inkscape:window-height="480"
   id="namedview77"
   showgrid="false"
   inkscape:zoom="1.640625"
   inkscape:cx="256"
   inkscape:cy="256"
   inkscape:window-x="0"
   inkscape:window-y="23"
   inkscape:window-maximized="0"
   inkscape:current-layer="Layer_1" />
<path
   style="fill:#ff4b55;stroke-width:0.999999"
   d="M 317.793,8.828 V 23.961 H 509.2 C 503.508,9.914 489.743,0.001 473.655,0.001 h -164.69 c 4.876,0 8.828,3.952 8.828,8.827 z"
   id="path10" />
<path
   style="fill:#f5f5f5;stroke-width:0.999999"
   d="m 317.793,23.961 v 23.96 H 512 v -9.577 c 0,-5.089 -1,-9.941 -2.799,-14.385 H 317.793 Z"
   id="path12" />
<rect
   x="317.79001"
   y="47.925003"
   style="fill:#ff4b55;stroke-width:0.999999"
   width="194.21001"
   height="23.959999"
   id="rect14" />
<rect
   x="317.79001"
   y="71.873993"
   style="fill:#f5f5f5;stroke-width:0.999999"
   width="194.21001"
   height="23.959999"
   id="rect16" />
<rect
   x="317.79001"
   y="95.843994"
   style="fill:#ff4b55;stroke-width:0.999999"
   width="194.21001"
   height="23.959999"
   id="rect18" />
<rect
   x="317.79001"
   y="119.80499"
   style="fill:#f5f5f5;stroke-width:0.999999"
   width="194.21001"
   height="23.959999"
   id="rect20" />
<rect
   x="317.79001"
   y="143.76398"
   style="fill:#ff4b55;stroke-width:0.999999"
   width="194.21001"
   height="23.959999"
   id="rect22" />
<path
   style="fill:#f5f5f5;stroke-width:0.999999"
   d="m 317.793,182.857 c 0,4.87499 -3.953,8.828 -8.828,8.828 H 512 V 167.724 H 317.793 Z"
   id="path24" />
<path
   style="fill:#ff4b55;stroke-width:0.999999"
   d="M 8.8299999,191.685 H 8.828 C 3.953,191.685 0,187.73199 0,182.857 v 8.828 23.95999 H 512 V 191.685 H 308.966 Z"
   id="path26" />
<rect
   y="215.64499"
   style="fill:#f5f5f5;stroke-width:0.999999"
   width="512"
   height="23.959999"
   id="rect28"
   x="0" />
<rect
   y="239.604"
   style="fill:#ff4b55;stroke-width:0.999999"
   width="512"
   height="23.959999"
   id="rect30"
   x="0" />
<rect
   y="263.57501"
   style="fill:#f5f5f5;stroke-width:0.999999"
   width="512"
   height="23.959999"
   id="rect32"
   x="0" />
<path
   style="fill:#ff4b55;stroke-width:0.999999"
   d="m 0,297.10399 c 0,5.089 0.99999998,9.941 2.799,14.385 h 506.4 c 1.8,-4.443 2.799,-9.295 2.799,-14.385 v -9.576 H 0 Z"
   id="path34" />
<path
   style="fill:#f5f5f5;stroke-width:0.999999"
   d="m 38.345,335.448 h 435.31 c 16.088,0 29.854,-9.91301 35.545,-23.96001 H 2.799 c 5.6920001,14.048 19.458,23.96001 35.546,23.96001 z"
   id="path36" />
<path
   style="fill:#41479b;stroke-width:0.999999"
   d="M 8.828,191.685 H 8.83 308.966 c 4.875,0 8.828,-3.95301 8.828,-8.828 V 167.724 143.764 119.804 95.844 71.884 47.924 23.964 8.828 C 317.794,3.953 313.841,0 308.966,0 H 38.345 C 17.167,0.001 0,17.168 0,38.346 v 9.577 23.96 23.96 23.96 23.96 23.961 8.828 6.305 c 0,4.877 3.953,8.828 8.828,8.828 z"
   id="path38" />
<g
   id="g44"
   transform="translate(0,-88.276)">
	<path
   style="fill:#ffe15a"
   d="m 83.862,184.023 c 0,-33.387 27.1,-60.47 60.456,-60.47 8.393,0 16.373,1.718 23.641,4.814 0.943,0.402 1.654,-0.911 0.807,-1.489 -12.025,-8.186 -26.731,-12.671 -42.505,-11.851 -34.679,1.802 -63.036,29.736 -65.278,64.39 -2.607,40.308 29.289,73.699 68.959,73.699 14.336,0 27.662,-4.417 38.729,-11.906 0.852,-0.577 0.146,-1.892 -0.802,-1.491 -7.243,3.072 -15.192,4.776 -23.55,4.776 -33.357,-0.002 -60.457,-27.084 -60.457,-60.472"
   id="path40" />
	<path
   style="fill:#ffe15a"
   d="m 222.061,184.023 25.558,-9.889 c 1.263,-0.489 0.833,-2.376 -0.518,-2.268 l -27.308,2.187 18.766,-20.06 c 0.926,-0.989 -0.28,-2.5 -1.45,-1.818 l -23.718,13.836 8.186,-26.176 c 0.404,-1.292 -1.338,-2.131 -2.095,-1.009 l -15.354,22.745 -3.939,-27.148 c -0.194,-1.341 -2.13,-1.342 -2.326,-0.001 l -2.516,17.178 -1.044,7.27 -0.402,2.702 -15.354,-22.727 c -0.758,-1.122 -2.502,-0.282 -2.095,1.011 l 8.216,26.154 -23.716,-13.836 c -1.17,-0.682 -2.376,0.829 -1.45,1.818 l 18.765,20.06 -27.315,-2.186 c -1.351,-0.108 -1.782,1.779 -0.518,2.268 l 25.581,9.889 -25.582,9.891 c -1.265,0.489 -0.833,2.376 0.518,2.268 l 27.316,-2.187 -18.766,20.111 c -0.925,0.99 0.284,2.5 1.453,1.816 l 23.715,-13.885 -8.216,26.154 c -0.406,1.292 1.336,2.133 2.095,1.01 l 15.354,-22.726 0.402,2.766 1.044,7.206 2.517,17.224 c 0.196,1.342 2.132,1.34 2.326,-0.001 l 3.939,-27.193 15.354,22.745 c 0.758,1.122 2.5,0.285 2.095,-1.009 l -8.186,-26.175 23.715,13.885 c 1.169,0.684 2.377,-0.825 1.453,-1.816 l -18.767,-20.11 27.309,2.187 c 1.351,0.108 1.782,-1.779 0.518,-2.268 z"
   id="path42" />
</g>
<g
   id="g46"
   transform="translate(0,-88.276)">
</g>
<g
   id="g48"
   transform="translate(0,-88.276)">
</g>
<g
   id="g50"
   transform="translate(0,-88.276)">
</g>
<g
   id="g52"
   transform="translate(0,-88.276)">
</g>
<g
   id="g54"
   transform="translate(0,-88.276)">
</g>
<g
   id="g56"
   transform="translate(0,-88.276)">
</g>
<g
   id="g58"
   transform="translate(0,-88.276)">
</g>
<g
   id="g60"
   transform="translate(0,-88.276)">
</g>
<g
   id="g62"
   transform="translate(0,-88.276)">
</g>
<g
   id="g64"
   transform="translate(0,-88.276)">
</g>
<g
   id="g66"
   transform="translate(0,-88.276)">
</g>
<g
   id="g68"
   transform="translate(0,-88.276)">
</g>
<g
   id="g70"
   transform="translate(0,-88.276)">
</g>
<g
   id="g72"
   transform="translate(0,-88.276)">
</g>
<g
   id="g74"
   transform="translate(0,-88.276)">
</g>
</svg>
