<?xml version="1.0" encoding="UTF-8" standalone="no"?>
<svg
   xmlns:dc="http://purl.org/dc/elements/1.1/"
   xmlns:cc="http://creativecommons.org/ns#"
   xmlns:rdf="http://www.w3.org/1999/02/22-rdf-syntax-ns#"
   xmlns:svg="http://www.w3.org/2000/svg"
   xmlns="http://www.w3.org/2000/svg"
   xmlns:sodipodi="http://sodipodi.sourceforge.net/DTD/sodipodi-0.dtd"
   xmlns:inkscape="http://www.inkscape.org/namespaces/inkscape"
   version="1.1"
   id="Layer_1"
   x="0px"
   y="0px"
   viewBox="0 0 512 335.45001"
   xml:space="preserve"
   sodipodi:docname="nl.svg"
   width="512"
   height="335.45001"
   inkscape:version="1.0.1 (c497b03c, 2020-09-10)"><metadata
   id="metadata167"><rdf:RDF><cc:Work
       rdf:about=""><dc:format>image/svg+xml</dc:format><dc:type
         rdf:resource="http://purl.org/dc/dcmitype/StillImage" /><dc:title></dc:title></cc:Work></rdf:RDF></metadata><defs
   id="defs165" /><sodipodi:namedview
   pagecolor="#ffffff"
   bordercolor="#666666"
   borderopacity="1"
   objecttolerance="10"
   gridtolerance="10"
   guidetolerance="10"
   inkscape:pageopacity="0"
   inkscape:pageshadow="2"
   inkscape:window-width="826"
   inkscape:window-height="488"
   id="namedview163"
   showgrid="false"
   inkscape:zoom="0.61328125"
   inkscape:cx="256"
   inkscape:cy="256"
   inkscape:window-x="0"
   inkscape:window-y="23"
   inkscape:window-maximized="0"
   inkscape:current-layer="Layer_1" />
<path
   style="fill:#ff4b55"
   d="M 473.655,0 H 38.345 C 17.167,0 0,17.167 0,38.345 v 73.471 H 512 V 38.345 C 512,17.167 494.833,0 473.655,0 Z"
   id="path126" />
<path
   style="fill:#41479b"
   d="m 0,297.103 c 0,21.177 17.167,38.345 38.345,38.345 h 435.31 c 21.177,0 38.345,-17.167 38.345,-38.345 V 223.632 H 0 Z"
   id="path128" />
<rect
   y="111.814"
   style="fill:#f5f5f5"
   width="512"
   height="111.81"
   id="rect130"
   x="0" />
<g
   id="g132"
   transform="translate(0,-88.276)">
</g>
<g
   id="g134"
   transform="translate(0,-88.276)">
</g>
<g
   id="g136"
   transform="translate(0,-88.276)">
</g>
<g
   id="g138"
   transform="translate(0,-88.276)">
</g>
<g
   id="g140"
   transform="translate(0,-88.276)">
</g>
<g
   id="g142"
   transform="translate(0,-88.276)">
</g>
<g
   id="g144"
   transform="translate(0,-88.276)">
</g>
<g
   id="g146"
   transform="translate(0,-88.276)">
</g>
<g
   id="g148"
   transform="translate(0,-88.276)">
</g>
<g
   id="g150"
   transform="translate(0,-88.276)">
</g>
<g
   id="g152"
   transform="translate(0,-88.276)">
</g>
<g
   id="g154"
   transform="translate(0,-88.276)">
</g>
<g
   id="g156"
   transform="translate(0,-88.276)">
</g>
<g
   id="g158"
   transform="translate(0,-88.276)">
</g>
<g
   id="g160"
   transform="translate(0,-88.276)">
</g>
</svg>
