<?xml version="1.0" encoding="UTF-8" standalone="no"?>
<svg
   xmlns:dc="http://purl.org/dc/elements/1.1/"
   xmlns:cc="http://creativecommons.org/ns#"
   xmlns:rdf="http://www.w3.org/1999/02/22-rdf-syntax-ns#"
   xmlns:svg="http://www.w3.org/2000/svg"
   xmlns="http://www.w3.org/2000/svg"
   xmlns:sodipodi="http://sodipodi.sourceforge.net/DTD/sodipodi-0.dtd"
   xmlns:inkscape="http://www.inkscape.org/namespaces/inkscape"
   version="1.1"
   id="Layer_1"
   x="0px"
   y="0px"
   viewBox="0 0 512 335.45001"
   xml:space="preserve"
   sodipodi:docname="nu.svg"
   width="512"
   height="335.45001"
   inkscape:version="1.0.1 (c497b03c, 2020-09-10)"><metadata
   id="metadata715"><rdf:RDF><cc:Work
       rdf:about=""><dc:format>image/svg+xml</dc:format><dc:type
         rdf:resource="http://purl.org/dc/dcmitype/StillImage" /><dc:title></dc:title></cc:Work></rdf:RDF></metadata><defs
   id="defs713" /><sodipodi:namedview
   pagecolor="#ffffff"
   bordercolor="#666666"
   borderopacity="1"
   objecttolerance="10"
   gridtolerance="10"
   guidetolerance="10"
   inkscape:pageopacity="0"
   inkscape:pageshadow="2"
   inkscape:window-width="864"
   inkscape:window-height="480"
   id="namedview711"
   showgrid="false"
   inkscape:zoom="0.61328125"
   inkscape:cx="256"
   inkscape:cy="256"
   inkscape:window-x="0"
   inkscape:window-y="23"
   inkscape:window-maximized="0"
   inkscape:current-layer="Layer_1" />
<path
   style="fill:#ffe15a"
   d="M 473.655,335.448 H 38.345 C 17.167,335.448 0,318.281 0,297.104 V 38.346 C 0,17.169 17.167,0.001 38.345,0.001 h 435.31 C 494.832,0.001 512,17.168 512,38.346 v 258.758 c 0,21.177 -17.167,38.344 -38.345,38.344 z"
   id="path648" />
<path
   style="fill:#41479b"
   d="m 8.828,167.724 h 238.345 c 4.875,0 8.828,-3.953 8.828,-8.828 V 8.828 c 0,-4.874 -3.95,-8.826 -8.825,-8.828 H 38.345 C 17.167,0.001 0,17.168 0,38.346 v 120.552 c 0,4.874 3.953,8.826 8.828,8.826 z"
   id="path650" />
<path
   style="fill:#f5f5f5"
   d="m 8.828,167.724 h 15.334 l 81.77,-53.574 v 53.574 H 150.07 V 114.15 l 81.769,53.574 h 15.334 c 4.875,0 8.828,-3.953 8.828,-8.828 v -7.002 L 185.847,105.931 H 256 V 61.794 H 185.845 L 256,15.831 V 8.829 c 0,-4.875 -3.95,-8.826 -8.825,-8.828 H 231.838 L 150.069,53.575 V 0.001 H 105.931 V 53.575 L 26.844,1.759 C 17.61,4.659 9.89,10.962 5.133,19.193 L 70.156,61.794 H 0 v 44.138 H 70.155 L 0,151.895 v 7.002 c 0,4.875 3.953,8.827 8.828,8.827 z"
   id="path652" />
<g
   id="g664"
   transform="translate(0,-88.276)">
	<polygon
   style="fill:#ff4b55"
   points="141.241,88.277 114.759,88.277 114.759,158.898 0,158.898 0,185.38 114.759,185.38 114.759,256 141.241,256 141.241,185.38 256,185.38 256,158.898 141.241,158.898 "
   id="polygon654" />
	<path
   style="fill:#ff4b55"
   d="M 8.227,102.903 80.889,150.07 H 97.103 L 14.607,96.52 c -2.369,1.87 -4.51,4.013 -6.38,6.383 z"
   id="path656" />
	<path
   style="fill:#ff4b55"
   d="m 166.283,150.07 88.374,-57.366 c -1.536,-2.599 -4.246,-4.427 -7.485,-4.427 h -1.909 l -95.194,61.793 z"
   id="path658" />
	<path
   style="fill:#ff4b55"
   d="M 89.474,194.208 1.269,251.464 C 2.79,254.126 5.542,256 8.828,256 h 1.665 l 95.196,-61.793 H 89.474 Z"
   id="path660" />
	<path
   style="fill:#ff4b55"
   d="M 255.86,247.866 173.194,194.208 H 156.98 l 93.874,60.935 c 2.812,-1.305 4.741,-4.04 5.006,-7.277 z"
   id="path662" />
</g>
<circle
   style="fill:#41479b"
   cx="128"
   cy="83.865005"
   r="26.483"
   id="circle666" />
<g
   id="g678"
   transform="translate(0,-88.276)">
	<path
   style="fill:#ffe15a"
   d="m 129.788,150.668 4.425,13.266 13.984,0.108 c 1.811,0.014 2.561,2.325 1.105,3.4 l -11.25,8.307 4.218,13.333 c 0.546,1.726 -1.419,3.154 -2.892,2.101 l -11.378,-8.13 -11.377,8.131 c -1.473,1.053 -3.438,-0.375 -2.892,-2.101 l 4.218,-13.333 -11.25,-8.307 c -1.457,-1.076 -0.706,-3.386 1.105,-3.4 l 13.984,-0.108 4.425,-13.266 c 0.572,-1.718 3.002,-1.718 3.575,-0.001 z"
   id="path668" />
	<path
   style="fill:#ffe15a"
   d="m 56.501,161.475 2.379,7.133 7.519,0.058 c 0.973,0.008 1.377,1.25 0.594,1.828 l -6.048,4.467 2.268,7.168 c 0.294,0.928 -0.764,1.696 -1.555,1.13 l -6.116,-4.372 -6.116,4.372 c -0.792,0.566 -1.848,-0.202 -1.555,-1.13 l 2.268,-7.168 -6.048,-4.467 c -0.783,-0.578 -0.38,-1.821 0.594,-1.828 l 7.519,-0.058 2.379,-7.133 c 0.305,-0.924 1.61,-0.924 1.918,0 z"
   id="path670" />
	<path
   style="fill:#ffe15a"
   d="m 202.086,161.475 2.379,7.133 7.519,0.058 c 0.973,0.008 1.377,1.25 0.594,1.828 l -6.048,4.467 2.268,7.168 c 0.294,0.928 -0.764,1.696 -1.555,1.13 l -6.116,-4.372 -6.116,4.372 c -0.792,0.566 -1.848,-0.202 -1.555,-1.13 l 2.268,-7.168 -6.048,-4.467 c -0.783,-0.578 -0.38,-1.821 0.594,-1.828 l 7.519,-0.058 2.379,-7.133 c 0.304,-0.924 1.61,-0.924 1.918,0 z"
   id="path672" />
	<path
   style="fill:#ffe15a"
   d="m 129.075,107.895 2.379,7.133 7.519,0.058 c 0.973,0.008 1.377,1.25 0.594,1.828 l -6.049,4.466 2.268,7.168 c 0.294,0.928 -0.764,1.696 -1.555,1.13 l -6.116,-4.372 -6.116,4.372 c -0.792,0.566 -1.848,-0.202 -1.555,-1.13 l 2.268,-7.168 -6.048,-4.467 c -0.783,-0.578 -0.38,-1.821 0.594,-1.828 l 7.519,-0.058 2.379,-7.133 c 0.304,-0.923 1.611,-0.923 1.919,10e-4 z"
   id="path674" />
	<path
   style="fill:#ffe15a"
   d="m 129.075,216.316 2.379,7.133 7.519,0.058 c 0.973,0.008 1.377,1.25 0.594,1.828 l -6.049,4.466 2.268,7.168 c 0.294,0.928 -0.764,1.696 -1.555,1.13 l -6.116,-4.372 -6.116,4.372 c -0.792,0.566 -1.848,-0.202 -1.555,-1.13 l 2.268,-7.168 -6.048,-4.467 c -0.783,-0.578 -0.38,-1.821 0.594,-1.828 l 7.519,-0.058 2.379,-7.133 c 0.304,-0.922 1.611,-0.922 1.919,0.001 z"
   id="path676" />
</g>
<g
   id="g680"
   transform="translate(0,-88.276)">
</g>
<g
   id="g682"
   transform="translate(0,-88.276)">
</g>
<g
   id="g684"
   transform="translate(0,-88.276)">
</g>
<g
   id="g686"
   transform="translate(0,-88.276)">
</g>
<g
   id="g688"
   transform="translate(0,-88.276)">
</g>
<g
   id="g690"
   transform="translate(0,-88.276)">
</g>
<g
   id="g692"
   transform="translate(0,-88.276)">
</g>
<g
   id="g694"
   transform="translate(0,-88.276)">
</g>
<g
   id="g696"
   transform="translate(0,-88.276)">
</g>
<g
   id="g698"
   transform="translate(0,-88.276)">
</g>
<g
   id="g700"
   transform="translate(0,-88.276)">
</g>
<g
   id="g702"
   transform="translate(0,-88.276)">
</g>
<g
   id="g704"
   transform="translate(0,-88.276)">
</g>
<g
   id="g706"
   transform="translate(0,-88.276)">
</g>
<g
   id="g708"
   transform="translate(0,-88.276)">
</g>
</svg>
