<?xml version="1.0" encoding="UTF-8" standalone="no"?>
<svg
   xmlns:dc="http://purl.org/dc/elements/1.1/"
   xmlns:cc="http://creativecommons.org/ns#"
   xmlns:rdf="http://www.w3.org/1999/02/22-rdf-syntax-ns#"
   xmlns:svg="http://www.w3.org/2000/svg"
   xmlns="http://www.w3.org/2000/svg"
   xmlns:sodipodi="http://sodipodi.sourceforge.net/DTD/sodipodi-0.dtd"
   xmlns:inkscape="http://www.inkscape.org/namespaces/inkscape"
   version="1.1"
   id="Layer_1"
   x="0px"
   y="0px"
   viewBox="0 0 512 335.45001"
   xml:space="preserve"
   sodipodi:docname="pf.svg"
   width="512"
   height="335.45001"
   inkscape:version="1.0.1 (c497b03c, 2020-09-10)"><metadata
   id="metadata95"><rdf:RDF><cc:Work
       rdf:about=""><dc:format>image/svg+xml</dc:format><dc:type
         rdf:resource="http://purl.org/dc/dcmitype/StillImage" /><dc:title></dc:title></cc:Work></rdf:RDF></metadata><defs
   id="defs93" /><sodipodi:namedview
   pagecolor="#ffffff"
   bordercolor="#666666"
   borderopacity="1"
   objecttolerance="10"
   gridtolerance="10"
   guidetolerance="10"
   inkscape:pageopacity="0"
   inkscape:pageshadow="2"
   inkscape:window-width="2560"
   inkscape:window-height="984"
   id="namedview91"
   showgrid="false"
   inkscape:zoom="1.640625"
   inkscape:cx="256"
   inkscape:cy="256"
   inkscape:window-x="0"
   inkscape:window-y="23"
   inkscape:window-maximized="1"
   inkscape:current-layer="Layer_1" />
<g
   id="g14"
   transform="translate(0,-88.276)">
	<path
   style="fill:#ff4b55"
   d="m 0,385.379 c 0,21.177 17.167,38.345 38.345,38.345 h 435.31 c 21.177,0 38.345,-17.167 38.345,-38.345 V 335.448 H 0 Z"
   id="path10" />
	<path
   style="fill:#ff4b55"
   d="M 473.655,88.276 H 38.345 C 17.167,88.276 0,105.443 0,126.621 v 49.931 h 512 v -49.931 c 0,-21.178 -17.167,-38.345 -38.345,-38.345 z"
   id="path12" />
</g>
<rect
   y="88.274002"
   style="fill:#f5f5f5"
   width="512"
   height="158.89999"
   id="rect16"
   x="0" />
<path
   style="fill:#ffb955"
   d="m 314.196,145.182 -56.036,22.873 c -0.022,-0.057 -0.049,-0.108 -0.075,-0.162 l 54.118,-27.103 c -2.14,-4.271 -4.739,-8.271 -7.755,-11.919 l -46.657,38.585 c -0.046,-0.058 -0.073,-0.132 -0.126,-0.186 l 42.77,-42.813 c -3.051,-3.052 -6.424,-5.779 -10.048,-8.153 l -33.113,50.686 c -0.075,-0.051 -0.142,-0.109 -0.224,-0.151 l 27.055,-54.151 c -4.345,-2.177 -8.977,-3.861 -13.825,-4.988 l -13.749,58.966 c -0.174,-0.042 -0.341,-0.107 -0.53,-0.107 -0.189,0 -0.354,0.065 -0.53,0.107 L 241.722,107.7 c -4.849,1.127 -9.48,2.81 -13.825,4.988 l 27.055,54.151 c -0.081,0.042 -0.149,0.1 -0.224,0.151 l -33.113,-50.686 c -3.625,2.375 -6.997,5.102 -10.048,8.153 l 42.77,42.813 c -0.052,0.054 -0.078,0.127 -0.126,0.186 l -46.657,-38.585 c -3.016,3.647 -5.615,7.648 -7.755,11.919 l 54.118,27.103 c -0.026,0.055 -0.053,0.106 -0.075,0.162 l -56.036,-22.873 c -1.689,4.142 -2.945,8.505 -3.721,13.035 l 59.658,10.329 c -0.008,0.052 -0.026,0.099 -0.031,0.152 l -60.218,-6.273 c -0.217,2.125 -0.329,4.28 -0.329,6.463 0,3.774 0.351,7.463 0.989,11.052 l 61.846,-6.398 61.847,6.398 c 0.638,-3.591 0.989,-7.279 0.989,-11.052 0,-2.183 -0.113,-4.338 -0.329,-6.463 l -60.219,6.273 c -0.004,-0.053 -0.023,-0.1 -0.031,-0.152 l 59.657,-10.329 c -0.773,-4.529 -2.03,-8.892 -3.718,-13.035 z"
   id="path18" />
<g
   id="g32"
   transform="translate(0,-88.276)">
	<path
   style="fill:#4173cd"
   d="m 195.27,273.315 c 0.431,1.625 0.929,3.223 1.484,4.793 h 118.494 c 0.555,-1.57 1.053,-3.168 1.484,-4.793 -5.805,-0.75 -6.526,-4.515 -13.598,-4.515 -7.851,0 -7.851,4.654 -15.703,4.654 -7.851,0 -7.851,-4.654 -15.703,-4.654 -7.853,0 -7.853,4.654 -15.708,4.654 -7.849,0 -7.849,-4.654 -15.699,-4.654 -7.857,0 -7.857,4.654 -15.712,4.654 -7.861,0 -7.861,-4.654 -15.723,-4.654 -7.081,0 -7.801,3.766 -13.616,4.515 z"
   id="path20" />
	<path
   style="fill:#4173cd"
   d="m 301.282,285.091 c -7.558,-0.001 -7.559,-4.654 -15.118,-4.654 -7.561,0 -7.561,4.654 -15.122,4.654 -7.561,0 -7.561,-4.654 -15.122,-4.654 -7.563,0 -7.563,4.654 -15.125,4.654 -7.559,0 -7.559,-4.654 -15.117,-4.654 -7.565,0 -7.565,4.654 -15.13,4.654 -6.712,0 -7.484,-3.652 -12.846,-4.482 1.28,3.18 2.797,6.239 4.558,9.137 h 99.019 0.006 8.456 c 1.764,-2.904 3.285,-5.971 4.567,-9.16 -5.523,0.776 -6.244,4.504 -13.026,4.505 z"
   id="path22" />
	<path
   style="fill:#4173cd"
   d="m 307.292,293.44 c -1.463,-0.767 -3.196,-1.367 -5.903,-1.367 -7.561,0 -7.561,4.654 -15.122,4.654 -7.561,0 -7.561,-4.654 -15.122,-4.654 -7.563,0 -7.563,4.654 -15.125,4.654 -7.559,0 -7.559,-4.654 -15.117,-4.654 -7.565,0 -7.565,4.654 -15.13,4.654 -7.571,0 -7.571,-4.654 -15.14,-4.654 -2.717,0 -4.454,0.602 -5.92,1.372 2.003,2.825 4.222,5.484 6.653,7.938 h 89.271 c 2.431,-2.456 4.652,-5.116 6.655,-7.943 z"
   id="path24" />
	<path
   style="fill:#4173cd"
   d="m 294.721,306.633 c -2.284,-1.324 -4.121,-2.924 -8.557,-2.924 -7.561,0 -7.561,4.654 -15.122,4.654 -7.561,0 -7.561,-4.654 -15.122,-4.654 -7.563,0 -7.563,4.654 -15.125,4.654 -7.559,0 -7.559,-4.654 -15.117,-4.654 -4.377,0 -6.225,1.556 -8.468,2.87 3.115,2.449 6.465,4.607 10.014,6.44 h 57.551 c 3.524,-1.819 6.85,-3.96 9.946,-6.386 z"
   id="path26" />
	<path
   style="fill:#4173cd"
   d="m 240.903,315.346 c -2.478,0 -4.139,0.502 -5.525,1.174 6.462,2.244 13.396,3.48 20.622,3.48 h 0.012 c -7.551,-0.003 -7.553,-4.654 -15.109,-4.654 z"
   id="path28" />
	<path
   style="fill:#4173cd"
   d="m 256.056,319.999 c 7.217,-0.007 14.141,-1.242 20.594,-3.488 -1.382,-0.666 -3.039,-1.165 -5.504,-1.165 -7.551,0 -7.565,4.636 -15.09,4.653 z"
   id="path30" />
</g>
<g
   id="g40"
   transform="translate(0,-88.276)">
	<path
   style="fill:#ff4b55"
   d="m 264.266,249.207 -19.912,-5.754 c -1.117,-0.323 -1.891,-1.331 -1.906,-2.494 -0.092,-7.373 -0.412,-33.336 -0.412,-37.323 C 242.036,198.982 246.69,192 256,192 h 7.34 c 0.695,0 0.905,0.946 0.266,1.219 -3.362,1.441 -7.605,4.444 -7.605,10.417 0,7.092 6.753,10.132 9.971,11.178 0.994,0.323 1.666,1.236 1.666,2.282 v 29.578 c -0.002,1.755 -1.685,3.021 -3.372,2.533 z"
   id="path34" />
	<path
   style="fill:#ff4b55"
   d="m 246.702,275.255 c 0.73,-0.442 1.596,0.296 1.267,1.084 -1.949,4.679 -6.726,13.407 -15.243,13.407 -11.636,0 -13.964,-9.309 -13.964,-16.291 V 224.09 c 0,-1.014 0.822,-1.835 1.835,-1.835 h 3.311 c 1.014,0 1.835,0.822 1.835,1.835 v 47.038 c 0.003,6.292 13.235,8.804 20.959,4.127 z"
   id="path36" />
	<path
   style="fill:#ff4b55"
   d="m 264.321,275.255 c -0.73,-0.442 -1.596,0.296 -1.267,1.084 1.949,4.679 6.726,13.407 15.243,13.407 11.636,0 13.964,-9.309 13.964,-16.291 V 224.09 c 0,-1.014 -0.822,-1.835 -1.835,-1.835 h -3.311 c -1.014,0 -1.835,0.822 -1.835,1.835 v 47.038 c -0.002,6.292 -13.235,8.804 -20.959,4.127 z"
   id="path38" />
</g>
<g
   id="g58"
   transform="translate(0,-88.276)">
	<path
   style="fill:#aa4650"
   d="m 280.477,267.636 h -48.953 c -0.62,0 -1.123,-0.503 -1.123,-1.123 v -0.081 c 0,-0.62 0.503,-1.123 1.123,-1.123 h 48.953 c 0.62,0 1.123,0.503 1.123,1.123 v 0.081 c 0,0.621 -0.503,1.123 -1.123,1.123 z"
   id="path42" />
	<path
   style="fill:#aa4650"
   d="m 235.345,258.851 2.52,-3.36 c 0.386,-0.513 0.281,-1.244 -0.233,-1.63 -0.513,-0.384 -1.244,-0.277 -1.629,0.234 l -0.981,1.308 V 254.5 c 0,-0.643 -0.521,-1.164 -1.164,-1.164 -0.643,0 -1.164,0.521 -1.164,1.164 v 0.819 l -0.917,-1.223 c -0.385,-0.513 -1.114,-0.62 -1.629,-0.234 -0.515,0.386 -0.619,1.116 -0.233,1.63 l 2.52,3.36 -2.52,3.36 c -0.386,0.513 -0.281,1.244 0.233,1.63 0.209,0.157 0.454,0.232 0.696,0.232 0.354,0 0.703,-0.161 0.931,-0.466 l 2.112,-2.817 2.112,2.817 c 0.228,0.305 0.577,0.466 0.931,0.466 0.243,0 0.488,-0.075 0.696,-0.232 0.515,-0.386 0.619,-1.116 0.233,-1.63 z"
   id="path44" />
	<path
   style="fill:#aa4650"
   d="m 257.066,258.851 2.52,-3.36 c 0.386,-0.513 0.281,-1.244 -0.233,-1.63 -0.513,-0.384 -1.244,-0.277 -1.629,0.234 l -0.981,1.308 V 254.5 c 0,-0.643 -0.521,-1.164 -1.164,-1.164 -0.643,0 -1.164,0.521 -1.164,1.164 v 0.819 l -0.917,-1.223 c -0.385,-0.513 -1.114,-0.62 -1.629,-0.234 -0.515,0.386 -0.619,1.116 -0.233,1.63 l 2.52,3.36 -2.52,3.36 c -0.386,0.513 -0.281,1.244 0.233,1.63 0.209,0.157 0.454,0.232 0.696,0.232 0.354,0 0.703,-0.161 0.931,-0.466 l 2.112,-2.817 2.112,2.817 c 0.228,0.305 0.577,0.466 0.931,0.466 0.243,0 0.488,-0.075 0.696,-0.232 0.515,-0.386 0.619,-1.116 0.233,-1.63 z"
   id="path46" />
	<path
   style="fill:#aa4650"
   d="m 246.206,258.851 2.52,-3.36 c 0.386,-0.513 0.281,-1.244 -0.233,-1.63 -0.513,-0.384 -1.244,-0.277 -1.629,0.234 l -0.981,1.308 V 254.5 c 0,-0.643 -0.521,-1.164 -1.164,-1.164 -0.643,0 -1.164,0.521 -1.164,1.164 v 0.819 l -0.917,-1.223 c -0.385,-0.513 -1.114,-0.62 -1.629,-0.234 -0.515,0.386 -0.619,1.116 -0.233,1.63 l 2.52,3.36 -2.52,3.36 c -0.386,0.513 -0.281,1.244 0.233,1.63 0.209,0.157 0.454,0.232 0.696,0.232 0.354,0 0.703,-0.161 0.931,-0.466 l 2.112,-2.817 2.112,2.817 c 0.228,0.305 0.577,0.466 0.931,0.466 0.243,0 0.488,-0.075 0.696,-0.232 0.515,-0.386 0.619,-1.116 0.233,-1.63 z"
   id="path48" />
	<path
   style="fill:#aa4650"
   d="m 267.927,258.851 2.52,-3.36 c 0.386,-0.513 0.281,-1.244 -0.233,-1.63 -0.513,-0.384 -1.244,-0.277 -1.629,0.234 l -0.981,1.308 V 254.5 c 0,-0.643 -0.521,-1.164 -1.164,-1.164 -0.643,0 -1.164,0.521 -1.164,1.164 v 0.819 l -0.917,-1.223 c -0.385,-0.513 -1.114,-0.62 -1.629,-0.234 -0.515,0.386 -0.619,1.116 -0.233,1.63 l 2.52,3.36 -2.52,3.36 c -0.386,0.513 -0.281,1.244 0.233,1.63 0.209,0.157 0.454,0.232 0.696,0.232 0.354,0 0.703,-0.161 0.931,-0.466 l 2.112,-2.817 2.112,2.817 c 0.228,0.305 0.577,0.466 0.931,0.466 0.243,0 0.488,-0.075 0.696,-0.232 0.515,-0.386 0.619,-1.116 0.233,-1.63 z"
   id="path50" />
	<path
   style="fill:#aa4650"
   d="m 278.787,258.851 2.52,-3.36 c 0.386,-0.513 0.281,-1.244 -0.233,-1.63 -0.513,-0.384 -1.244,-0.277 -1.629,0.234 l -0.981,1.308 V 254.5 c 0,-0.643 -0.521,-1.164 -1.164,-1.164 -0.643,0 -1.164,0.521 -1.164,1.164 v 0.819 l -0.917,-1.223 c -0.385,-0.513 -1.114,-0.62 -1.629,-0.234 -0.515,0.386 -0.619,1.116 -0.233,1.63 l 2.52,3.36 -2.52,3.36 c -0.386,0.513 -0.281,1.244 0.233,1.63 0.209,0.157 0.454,0.232 0.696,0.232 0.354,0 0.703,-0.161 0.931,-0.466 l 2.112,-2.817 2.112,2.817 c 0.228,0.305 0.577,0.466 0.931,0.466 0.243,0 0.488,-0.075 0.696,-0.232 0.515,-0.386 0.619,-1.116 0.233,-1.63 z"
   id="path52" />
	<path
   style="fill:#aa4650"
   d="m 233.196,274.824 c 1.721,0.753 11.832,0.861 14.413,-1.828 2.581,-2.689 2.044,-3.872 2.044,-3.872 l -12.263,0.107 z"
   id="path54" />
	<path
   style="fill:#aa4650"
   d="m 278.312,274.824 c -1.721,0.753 -11.832,0.861 -14.413,-1.828 -2.581,-2.689 -2.044,-3.872 -2.044,-3.872 l 12.263,0.107 z"
   id="path56" />
</g>
<g
   id="g60">
</g>
<g
   id="g62">
</g>
<g
   id="g64">
</g>
<g
   id="g66">
</g>
<g
   id="g68">
</g>
<g
   id="g70">
</g>
<g
   id="g72">
</g>
<g
   id="g74">
</g>
<g
   id="g76">
</g>
<g
   id="g78">
</g>
<g
   id="g80">
</g>
<g
   id="g82">
</g>
<g
   id="g84">
</g>
<g
   id="g86">
</g>
<g
   id="g88">
</g>
</svg>
