<?xml version="1.0" encoding="UTF-8" standalone="no"?>
<svg
   xmlns:dc="http://purl.org/dc/elements/1.1/"
   xmlns:cc="http://creativecommons.org/ns#"
   xmlns:rdf="http://www.w3.org/1999/02/22-rdf-syntax-ns#"
   xmlns:svg="http://www.w3.org/2000/svg"
   xmlns="http://www.w3.org/2000/svg"
   xmlns:sodipodi="http://sodipodi.sourceforge.net/DTD/sodipodi-0.dtd"
   xmlns:inkscape="http://www.inkscape.org/namespaces/inkscape"
   version="1.1"
   id="Layer_1"
   x="0px"
   y="0px"
   viewBox="0 0 512 335.45001"
   xml:space="preserve"
   sodipodi:docname="pk.svg"
   width="512"
   height="335.45001"
   inkscape:version="1.0.1 (c497b03c, 2020-09-10)"><metadata
   id="metadata270"><rdf:RDF><cc:Work
       rdf:about=""><dc:format>image/svg+xml</dc:format><dc:type
         rdf:resource="http://purl.org/dc/dcmitype/StillImage" /><dc:title></dc:title></cc:Work></rdf:RDF></metadata><defs
   id="defs268" /><sodipodi:namedview
   pagecolor="#ffffff"
   bordercolor="#666666"
   borderopacity="1"
   objecttolerance="10"
   gridtolerance="10"
   guidetolerance="10"
   inkscape:pageopacity="0"
   inkscape:pageshadow="2"
   inkscape:window-width="839"
   inkscape:window-height="480"
   id="namedview266"
   showgrid="false"
   inkscape:zoom="0.61328125"
   inkscape:cx="256"
   inkscape:cy="256"
   inkscape:window-x="0"
   inkscape:window-y="23"
   inkscape:window-maximized="0"
   inkscape:current-layer="Layer_1" />
<path
   style="fill:#73af00"
   d="M 473.655,0 H 132.414 v 335.448 h 341.241 c 21.177,0 38.345,-17.167 38.345,-38.345 V 38.345 C 512,17.167 494.833,0 473.655,0 Z"
   id="path225" />
<g
   id="g233"
   transform="translate(0,-88.275)">
	<path
   style="fill:#f5f5f5"
   d="M 38.345,88.275 C 17.167,88.275 0,105.442 0,126.62 v 258.76 c 0,21.177 17.167,38.345 38.345,38.345 h 94.069 V 88.275 Z"
   id="path227" />
	<path
   style="fill:#f5f5f5"
   d="m 412.053,302.188 c -40.632,36.196 -102.833,32.477 -138.956,-8.227 -36.054,-40.629 -32.405,-103.01 8.226,-139.204 0.06,-0.053 0.118,-0.105 0.178,-0.157 0.96,-0.844 0.032,-2.377 -1.16,-1.913 -40.07,15.604 -68.479,54.579 -68.479,100.214 0,59.444 48.071,107.587 107.373,107.587 41.023,0 76.574,-23.083 94.633,-56.969 0.602,-1.131 -0.81,-2.231 -1.766,-1.377 -0.015,0.014 -0.033,0.03 -0.049,0.046 z"
   id="path229" />
	<path
   style="fill:#f5f5f5"
   d="m 359.787,172.589 14.12,15.841 19.56,-8.232 c 2.532,-1.066 4.964,1.705 3.578,4.077 l -10.703,18.325 13.873,16.058 c 1.796,2.079 -0.088,5.248 -2.772,4.663 l -20.735,-4.516 -10.986,18.156 c -1.422,2.35 -5.018,1.538 -5.292,-1.196 l -2.112,-21.116 -20.662,-4.838 c -2.675,-0.627 -3.014,-4.297 -0.498,-5.402 l 19.43,-8.533 -1.784,-21.145 c -0.232,-2.738 3.156,-4.193 4.983,-2.142 z"
   id="path231" />
</g>
<g
   id="g235"
   transform="translate(0,-88.275)">
</g>
<g
   id="g237"
   transform="translate(0,-88.275)">
</g>
<g
   id="g239"
   transform="translate(0,-88.275)">
</g>
<g
   id="g241"
   transform="translate(0,-88.275)">
</g>
<g
   id="g243"
   transform="translate(0,-88.275)">
</g>
<g
   id="g245"
   transform="translate(0,-88.275)">
</g>
<g
   id="g247"
   transform="translate(0,-88.275)">
</g>
<g
   id="g249"
   transform="translate(0,-88.275)">
</g>
<g
   id="g251"
   transform="translate(0,-88.275)">
</g>
<g
   id="g253"
   transform="translate(0,-88.275)">
</g>
<g
   id="g255"
   transform="translate(0,-88.275)">
</g>
<g
   id="g257"
   transform="translate(0,-88.275)">
</g>
<g
   id="g259"
   transform="translate(0,-88.275)">
</g>
<g
   id="g261"
   transform="translate(0,-88.275)">
</g>
<g
   id="g263"
   transform="translate(0,-88.275)">
</g>
</svg>
