<?xml version="1.0" encoding="UTF-8" standalone="no"?>
<svg
   xmlns:dc="http://purl.org/dc/elements/1.1/"
   xmlns:cc="http://creativecommons.org/ns#"
   xmlns:rdf="http://www.w3.org/1999/02/22-rdf-syntax-ns#"
   xmlns:svg="http://www.w3.org/2000/svg"
   xmlns="http://www.w3.org/2000/svg"
   xmlns:sodipodi="http://sodipodi.sourceforge.net/DTD/sodipodi-0.dtd"
   xmlns:inkscape="http://www.inkscape.org/namespaces/inkscape"
   version="1.1"
   id="Layer_1"
   x="0px"
   y="0px"
   viewBox="0 0 512 335.45001"
   xml:space="preserve"
   sodipodi:docname="pw.svg"
   width="512"
   height="335.45001"
   inkscape:version="1.0.1 (c497b03c, 2020-09-10)"><metadata
   id="metadata319"><rdf:RDF><cc:Work
       rdf:about=""><dc:format>image/svg+xml</dc:format><dc:type
         rdf:resource="http://purl.org/dc/dcmitype/StillImage" /><dc:title></dc:title></cc:Work></rdf:RDF></metadata><defs
   id="defs317" /><sodipodi:namedview
   pagecolor="#ffffff"
   bordercolor="#666666"
   borderopacity="1"
   objecttolerance="10"
   gridtolerance="10"
   guidetolerance="10"
   inkscape:pageopacity="0"
   inkscape:pageshadow="2"
   inkscape:window-width="900"
   inkscape:window-height="480"
   id="namedview315"
   showgrid="false"
   inkscape:zoom="0.61328125"
   inkscape:cx="256"
   inkscape:cy="256"
   inkscape:window-x="0"
   inkscape:window-y="23"
   inkscape:window-maximized="0"
   inkscape:current-layer="Layer_1" />
<path
   style="fill:#3cc8ff"
   d="M 473.655,335.448 H 38.345 C 17.167,335.448 0,318.281 0,297.103 V 38.345 C 0,17.168 17.167,0 38.345,0 h 435.31 C 494.832,0 512,17.167 512,38.345 v 258.759 c 0,21.177 -17.167,38.344 -38.345,38.344 z"
   id="path280" />
<circle
   style="fill:#ffe15a"
   cx="256"
   cy="167.724"
   r="105.93"
   id="circle282" />
<g
   id="g284"
   transform="translate(0,-88.276)">
</g>
<g
   id="g286"
   transform="translate(0,-88.276)">
</g>
<g
   id="g288"
   transform="translate(0,-88.276)">
</g>
<g
   id="g290"
   transform="translate(0,-88.276)">
</g>
<g
   id="g292"
   transform="translate(0,-88.276)">
</g>
<g
   id="g294"
   transform="translate(0,-88.276)">
</g>
<g
   id="g296"
   transform="translate(0,-88.276)">
</g>
<g
   id="g298"
   transform="translate(0,-88.276)">
</g>
<g
   id="g300"
   transform="translate(0,-88.276)">
</g>
<g
   id="g302"
   transform="translate(0,-88.276)">
</g>
<g
   id="g304"
   transform="translate(0,-88.276)">
</g>
<g
   id="g306"
   transform="translate(0,-88.276)">
</g>
<g
   id="g308"
   transform="translate(0,-88.276)">
</g>
<g
   id="g310"
   transform="translate(0,-88.276)">
</g>
<g
   id="g312"
   transform="translate(0,-88.276)">
</g>
</svg>
