<?xml version="1.0" encoding="UTF-8" standalone="no"?>
<svg
   xmlns:dc="http://purl.org/dc/elements/1.1/"
   xmlns:cc="http://creativecommons.org/ns#"
   xmlns:rdf="http://www.w3.org/1999/02/22-rdf-syntax-ns#"
   xmlns:svg="http://www.w3.org/2000/svg"
   xmlns="http://www.w3.org/2000/svg"
   xmlns:sodipodi="http://sodipodi.sourceforge.net/DTD/sodipodi-0.dtd"
   xmlns:inkscape="http://www.inkscape.org/namespaces/inkscape"
   version="1.1"
   id="Layer_1"
   x="0px"
   y="0px"
   viewBox="0 0 512 335.45001"
   xml:space="preserve"
   sodipodi:docname="py.svg"
   width="512"
   height="335.45001"
   inkscape:version="1.0.1 (c497b03c, 2020-09-10)"><metadata
   id="metadata555"><rdf:RDF><cc:Work
       rdf:about=""><dc:format>image/svg+xml</dc:format><dc:type
         rdf:resource="http://purl.org/dc/dcmitype/StillImage" /><dc:title></dc:title></cc:Work></rdf:RDF></metadata><defs
   id="defs553" /><sodipodi:namedview
   pagecolor="#ffffff"
   bordercolor="#666666"
   borderopacity="1"
   objecttolerance="10"
   gridtolerance="10"
   guidetolerance="10"
   inkscape:pageopacity="0"
   inkscape:pageshadow="2"
   inkscape:window-width="992"
   inkscape:window-height="596"
   id="namedview551"
   showgrid="false"
   inkscape:zoom="0.61328125"
   inkscape:cx="256"
   inkscape:cy="256"
   inkscape:window-x="0"
   inkscape:window-y="23"
   inkscape:window-maximized="0"
   inkscape:current-layer="Layer_1" />
<path
   style="fill:#ff4b55"
   d="M 473.655,0 H 38.345 C 17.167,0 0,17.167 0,38.345 v 73.471 H 512 V 38.345 C 512,17.167 494.833,0 473.655,0 Z"
   id="path506" />
<path
   style="fill:#41479b"
   d="m 0,297.103 c 0,21.177 17.167,38.345 38.345,38.345 h 435.31 c 21.177,0 38.345,-17.167 38.345,-38.345 V 223.632 H 0 Z"
   id="path508" />
<rect
   y="111.814"
   style="fill:#f5f5f5"
   width="512"
   height="111.81"
   id="rect510"
   x="0" />
<path
   style="fill:#ff4b55"
   d="m 256,123.586 c -24.376,0 -44.138,19.761 -44.138,44.138 0,24.377 19.762,44.138 44.138,44.138 24.376,0 44.138,-19.761 44.138,-44.138 0,-24.377 -19.762,-44.138 -44.138,-44.138 z m 0,77.426 c -18.385,0 -33.288,-14.903 -33.288,-33.288 0,-18.383 14.903,-33.288 33.288,-33.288 18.385,0 33.288,14.903 33.288,33.288 0,18.383 -14.903,33.288 -33.288,33.288 z"
   id="path512" />
<circle
   style="fill:#41479b"
   cx="256"
   cy="167.724"
   r="15.31"
   id="circle514" />
<path
   style="fill:#ffe15a"
   d="m 256.998,156.127 2.467,7.4 7.799,0.061 c 1.01,0.008 1.429,1.297 0.616,1.897 l -6.274,4.633 2.353,7.436 c 0.305,0.962 -0.791,1.759 -1.613,1.172 l -6.346,-4.535 -6.346,4.535 c -0.821,0.587 -1.918,-0.21 -1.613,-1.172 l 2.353,-7.436 -6.274,-4.633 c -0.812,-0.6 -0.394,-1.889 0.616,-1.897 l 7.799,-0.061 2.467,-7.4 c 0.32,-0.958 1.676,-0.958 1.996,0 z"
   id="path516" />
<path
   style="fill:#64c86e"
   d="m 284.96,168.08 c 0,0 0.875,-4.046 -3.43,0.809 0,0 0.063,-1.382 -0.059,-2.521 0.946,-1.025 2.121,-3.266 1.845,-8.052 0,0 -0.675,-4.084 -2.891,2.014 0,0 -0.605,-1.799 -1.248,-2.795 0.534,-1.107 0.946,-3.125 -0.334,-6.947 0,0 -1.497,-3.268 -1.963,2.348 0,0 -1.229,-1.838 -2.027,-2.29 0.154,-0.906 0.033,-2.462 -1.775,-4.981 0,0 -1.804,-2.02 -0.893,2.126 0,0 -1.651,-1.337 -2.179,-1.18 -0.274,-0.792 -1.067,-2.131 -3.73,-3.893 0,0 -2.307,-1.263 0.34,2.034 0,0 -2.339,-0.928 -2.312,-0.396 0.028,0.532 1.159,1.513 2.088,1.951 0,0 -3.431,0.356 -2.023,1.121 0,0 3.481,1.201 5.574,0.045 0.168,0.609 0.509,1.292 1.015,1.783 0,0 -4.084,-0.792 -2.978,0.433 0,0 3.063,2.251 6.09,1.906 -0.014,0.834 0.238,1.911 0.681,2.718 0,0 -4.87,-2.603 -3.947,-0.616 0,0 2.912,3.895 6.786,4.74 -0.159,0.866 -0.156,1.913 0.054,2.78 0,0 -4.622,-4.365 -4.199,-1.878 0,0 1.932,5.122 5.848,7.298 -0.319,0.65 -0.58,1.377 -0.676,2.056 0,0 -2.692,-5.761 -3.213,-3.292 0,0 -0.089,5.754 2.983,9.195 -0.654,0.544 -1.295,1.305 -1.688,2.052 0,0 -0.589,-6.329 -1.913,-4.182 0,0 -1.829,4.796 -0.591,8.929 -0.819,0.242 -1.711,0.689 -2.371,1.224 0,0 1.953,-6.051 -0.11,-4.599 0,0 -3.674,3.975 -3.955,8.447 -0.974,-0.02 -2.293,0.331 -3.249,0.902 0,0 2.795,-5.709 0.545,-4.567 0,0 -4.008,3.274 -5.043,7.523 -0.948,0.541 -2.558,1.46 -4.167,2.372 -0.936,-0.543 -1.845,-1.071 -2.622,-1.525 l 0.026,-0.042 -9.111,-7.638 0.181,2.498 -4.575,-8.182 -0.565,2.784 -1.498,-9.045 -1.329,1.335 0.514,-8.438 -1.732,0.934 3.146,-6.276 -1.478,0.417 3.886,-3.726 -2.055,0.175 4.914,-2.231 -1.796,-0.276 4.798,-2.429 -2.067,-0.1 6.219,-2.152 -1.139,-0.996 5.383,-1.588 -6.45,-0.492 1.837,-2.261 -4.921,2.518 0.706,-3.404 -4.305,4.433 0.748,-3.104 -4.029,4.009 0.26,-3.026 -3.983,6.746 -0.514,-3.019 -3.31,7.574 -0.911,-3.3 -1.478,9.393 -1.233,-1.397 1.621,9.06 -2.056,-1.542 3.769,8.138 c 0,0 -2.741,-1.199 -3.084,-1.199 -0.343,0 6.553,7.004 6.553,7.004 l -3.598,-0.385 6.952,4.888 -2.583,0.638 5.783,2.248 -1.414,1.092 11.972,0.856 c 0,0 1.154,0.961 2.724,2.074 -0.829,0.467 -1.558,0.875 -2.009,1.122 -0.456,0.248 -0.989,0.273 -1.468,0.073 -1.137,-0.476 -2.781,-1.149 -3.574,-1.466 0,0 0.077,3.403 3.62,3.488 1.455,0.033 3.439,-0.893 5.284,-1.988 1.889,1.178 3.974,2.217 5.48,2.182 3.466,-0.085 3.542,-3.488 3.542,-3.488 -0.776,0.318 -2.386,0.99 -3.497,1.466 -0.469,0.2 -0.991,0.174 -1.436,-0.073 -0.491,-0.275 -1.299,-0.736 -2.225,-1.271 0.946,-0.641 1.739,-1.223 2.296,-1.652 0.872,0.685 3.368,1.889 8.946,-0.205 0,0 3.7,-1.858 -2.781,-2.163 0,0 1.203,-0.883 2.015,-1.721 1.063,0.547 3.69,1.195 8.684,-1.547 0,0 3.397,-2.367 -3.06,-1.745 0,0 0.862,-0.84 1.54,-1.695 1.114,0.125 3.865,-0.172 7.513,-4.839 0,0 2.19,-3.513 -3.5,-0.397 0,0 0.736,-1.754 0.909,-2.927 1.259,-0.608 3.176,-2.261 4.68,-6.812 z"
   id="path518" />
<g
   id="g520"
   transform="translate(0,-88.276)">
</g>
<g
   id="g522"
   transform="translate(0,-88.276)">
</g>
<g
   id="g524"
   transform="translate(0,-88.276)">
</g>
<g
   id="g526"
   transform="translate(0,-88.276)">
</g>
<g
   id="g528"
   transform="translate(0,-88.276)">
</g>
<g
   id="g530"
   transform="translate(0,-88.276)">
</g>
<g
   id="g532"
   transform="translate(0,-88.276)">
</g>
<g
   id="g534"
   transform="translate(0,-88.276)">
</g>
<g
   id="g536"
   transform="translate(0,-88.276)">
</g>
<g
   id="g538"
   transform="translate(0,-88.276)">
</g>
<g
   id="g540"
   transform="translate(0,-88.276)">
</g>
<g
   id="g542"
   transform="translate(0,-88.276)">
</g>
<g
   id="g544"
   transform="translate(0,-88.276)">
</g>
<g
   id="g546"
   transform="translate(0,-88.276)">
</g>
<g
   id="g548"
   transform="translate(0,-88.276)">
</g>
</svg>
