<?xml version="1.0" encoding="UTF-8" standalone="no"?>
<svg
   xmlns:dc="http://purl.org/dc/elements/1.1/"
   xmlns:cc="http://creativecommons.org/ns#"
   xmlns:rdf="http://www.w3.org/1999/02/22-rdf-syntax-ns#"
   xmlns:svg="http://www.w3.org/2000/svg"
   xmlns="http://www.w3.org/2000/svg"
   xmlns:sodipodi="http://sodipodi.sourceforge.net/DTD/sodipodi-0.dtd"
   xmlns:inkscape="http://www.inkscape.org/namespaces/inkscape"
   version="1.1"
   id="Layer_1"
   x="0px"
   y="0px"
   viewBox="0 0 512.001 335.45003"
   xml:space="preserve"
   sodipodi:docname="qa.svg"
   width="512.00098"
   height="335.45001"
   inkscape:version="1.0.1 (c497b03c, 2020-09-10)"><metadata
   id="metadata1023"><rdf:RDF><cc:Work
       rdf:about=""><dc:format>image/svg+xml</dc:format><dc:type
         rdf:resource="http://purl.org/dc/dcmitype/StillImage" /><dc:title></dc:title></cc:Work></rdf:RDF></metadata><defs
   id="defs1021" /><sodipodi:namedview
   pagecolor="#ffffff"
   bordercolor="#666666"
   borderopacity="1"
   objecttolerance="10"
   gridtolerance="10"
   guidetolerance="10"
   inkscape:pageopacity="0"
   inkscape:pageshadow="2"
   inkscape:window-width="957"
   inkscape:window-height="480"
   id="namedview1019"
   showgrid="false"
   inkscape:zoom="0.84570147"
   inkscape:cx="256.0005"
   inkscape:cy="256.0005"
   inkscape:window-x="0"
   inkscape:window-y="23"
   inkscape:window-maximized="0"
   inkscape:current-layer="Layer_1" />
<path
   style="fill:#f5f5f5"
   d="m 221.446,319.091 c 2.225,-0.676 2.226,-3.826 0.002,-4.504 l -46.34,-14.162 c -2.223,-0.679 -2.222,-3.828 0.002,-4.504 l 46.322,-14.105 c 2.226,-0.676 2.226,-3.828 0,-4.504 L 175.11,263.207 c -2.225,-0.678 -2.226,-3.826 -0.002,-4.505 l 46.339,-14.161 c 2.223,-0.679 2.222,-3.828 -0.002,-4.504 L 175.11,225.928 c -2.225,-0.676 -2.226,-3.826 -0.002,-4.505 l 46.34,-14.162 c 2.223,-0.68 2.222,-3.828 -0.002,-4.504 L 175.11,188.649 c -2.225,-0.679 -2.226,-3.826 -0.002,-4.505 l 46.34,-14.162 c 2.223,-0.68 2.222,-3.829 -0.002,-4.505 L 175.11,151.369 c -2.225,-0.676 -2.226,-3.826 -0.002,-4.505 l 46.34,-14.162 c 2.223,-0.68 2.222,-3.828 -0.002,-4.505 l -46.322,-14.103 c -2.226,-0.679 -2.226,-3.828 0,-4.506 l 46.322,-14.104 c 2.225,-0.676 2.226,-3.826 0.002,-4.504 l -46.34,-14.162 c -2.223,-0.68 -2.222,-3.827 0.002,-4.505 l 46.336,-14.109 c 2.225,-0.676 2.226,-3.826 0.002,-4.504 l -46.34,-14.162 c -2.223,-0.68 -2.222,-3.828 0.002,-4.505 l 46.335,-14.108 c 2.225,-0.678 2.226,-3.827 0.002,-4.505 L 168.061,0.108 c -0.223,-0.07 -0.455,-0.104 -0.689,-0.104 H 38.345 C 17.167,0 0,17.167 0,38.345 v 258.759 c 0,21.177 17.167,38.345 38.345,38.345 h 129.028 c 0.233,0 0.463,-0.034 0.686,-0.102 z"
   id="path984" />
<path
   style="fill:#873250"
   d="m 473.655,0 h -235.31 -70.973 c 0.233,0 0.465,0.035 0.689,0.104 l 53.386,16.312 c 2.223,0.679 2.222,3.828 -0.002,4.505 L 175.11,35.029 c -2.225,0.678 -2.226,3.826 -0.002,4.505 l 46.34,14.162 c 2.223,0.679 2.222,3.828 -0.002,4.504 L 175.11,72.309 c -2.225,0.679 -2.226,3.826 -0.002,4.505 l 46.34,14.162 c 2.223,0.679 2.222,3.828 -0.002,4.504 l -46.322,14.104 c -2.226,0.679 -2.226,3.828 0,4.506 l 46.322,14.103 c 2.225,0.679 2.226,3.826 0.002,4.505 l -46.34,14.162 c -2.223,0.68 -2.222,3.829 0.002,4.505 l 46.336,14.108 c 2.225,0.676 2.226,3.826 0.002,4.505 l -46.34,14.162 c -2.223,0.68 -2.222,3.827 0.002,4.505 l 46.336,14.108 c 2.225,0.676 2.226,3.826 0.002,4.504 l -46.34,14.162 c -2.223,0.68 -2.222,3.829 0.002,4.505 l 46.335,14.109 c 2.225,0.676 2.226,3.826 0.002,4.504 l -46.339,14.161 c -2.223,0.68 -2.222,3.828 0.002,4.505 l 46.322,14.105 c 2.226,0.676 2.226,3.828 0,4.504 l -46.322,14.105 c -2.225,0.676 -2.226,3.826 -0.002,4.504 l 46.34,14.162 c 2.223,0.679 2.222,3.828 -0.002,4.504 l -53.386,16.256 c -0.222,0.067 -0.454,0.102 -0.686,0.102 h 70.972 235.31 c 21.177,0 38.345,-17.167 38.345,-38.345 V 38.344 C 512,17.167 494.833,0 473.655,0 Z"
   id="path986" />
<g
   id="g988"
   transform="translate(0,-88.276)">
</g>
<g
   id="g990"
   transform="translate(0,-88.276)">
</g>
<g
   id="g992"
   transform="translate(0,-88.276)">
</g>
<g
   id="g994"
   transform="translate(0,-88.276)">
</g>
<g
   id="g996"
   transform="translate(0,-88.276)">
</g>
<g
   id="g998"
   transform="translate(0,-88.276)">
</g>
<g
   id="g1000"
   transform="translate(0,-88.276)">
</g>
<g
   id="g1002"
   transform="translate(0,-88.276)">
</g>
<g
   id="g1004"
   transform="translate(0,-88.276)">
</g>
<g
   id="g1006"
   transform="translate(0,-88.276)">
</g>
<g
   id="g1008"
   transform="translate(0,-88.276)">
</g>
<g
   id="g1010"
   transform="translate(0,-88.276)">
</g>
<g
   id="g1012"
   transform="translate(0,-88.276)">
</g>
<g
   id="g1014"
   transform="translate(0,-88.276)">
</g>
<g
   id="g1016"
   transform="translate(0,-88.276)">
</g>
</svg>
