<?xml version="1.0" encoding="UTF-8" standalone="no"?>
<svg
   xmlns:dc="http://purl.org/dc/elements/1.1/"
   xmlns:cc="http://creativecommons.org/ns#"
   xmlns:rdf="http://www.w3.org/1999/02/22-rdf-syntax-ns#"
   xmlns:svg="http://www.w3.org/2000/svg"
   xmlns="http://www.w3.org/2000/svg"
   xmlns:sodipodi="http://sodipodi.sourceforge.net/DTD/sodipodi-0.dtd"
   xmlns:inkscape="http://www.inkscape.org/namespaces/inkscape"
   version="1.1"
   id="Layer_1"
   x="0px"
   y="0px"
   viewBox="0 0 512 335.45001"
   xml:space="preserve"
   sodipodi:docname="se.svg"
   width="512"
   height="335.45001"
   inkscape:version="1.0.1 (c497b03c, 2020-09-10)"><metadata
   id="metadata1011"><rdf:RDF><cc:Work
       rdf:about=""><dc:format>image/svg+xml</dc:format><dc:type
         rdf:resource="http://purl.org/dc/dcmitype/StillImage" /><dc:title></dc:title></cc:Work></rdf:RDF></metadata><defs
   id="defs1009" /><sodipodi:namedview
   pagecolor="#ffffff"
   bordercolor="#666666"
   borderopacity="1"
   objecttolerance="10"
   gridtolerance="10"
   guidetolerance="10"
   inkscape:pageopacity="0"
   inkscape:pageshadow="2"
   inkscape:window-width="1276"
   inkscape:window-height="873"
   id="namedview1007"
   showgrid="false"
   inkscape:zoom="1.3046875"
   inkscape:cx="256"
   inkscape:cy="256"
   inkscape:window-x="0"
   inkscape:window-y="23"
   inkscape:window-maximized="0"
   inkscape:current-layer="Layer_1" />
<path
   style="fill:#4173cd"
   d="M 473.655,0 H 38.345 C 17.167,0 0,17.167 0,38.345 v 258.76 c 0,21.177 17.167,38.345 38.345,38.345 h 435.31 C 494.832,335.45 512,318.283 512,297.105 V 38.345 C 512,17.167 494.833,0 473.655,0 Z"
   id="path972" />
<polygon
   style="fill:#ffe15a"
   points="211.862,88.275 158.897,88.275 158.897,229.516 0,229.516 0,282.482 158.897,282.482 158.897,423.724 211.862,423.724 211.862,282.482 512,282.482 512,229.516 211.862,229.516 "
   id="polygon974"
   transform="translate(0,-88.275)" />
<g
   id="g976"
   transform="translate(0,-88.275)">
</g>
<g
   id="g978"
   transform="translate(0,-88.275)">
</g>
<g
   id="g980"
   transform="translate(0,-88.275)">
</g>
<g
   id="g982"
   transform="translate(0,-88.275)">
</g>
<g
   id="g984"
   transform="translate(0,-88.275)">
</g>
<g
   id="g986"
   transform="translate(0,-88.275)">
</g>
<g
   id="g988"
   transform="translate(0,-88.275)">
</g>
<g
   id="g990"
   transform="translate(0,-88.275)">
</g>
<g
   id="g992"
   transform="translate(0,-88.275)">
</g>
<g
   id="g994"
   transform="translate(0,-88.275)">
</g>
<g
   id="g996"
   transform="translate(0,-88.275)">
</g>
<g
   id="g998"
   transform="translate(0,-88.275)">
</g>
<g
   id="g1000"
   transform="translate(0,-88.275)">
</g>
<g
   id="g1002"
   transform="translate(0,-88.275)">
</g>
<g
   id="g1004"
   transform="translate(0,-88.275)">
</g>
</svg>
