<?xml version="1.0" encoding="UTF-8" standalone="no"?>
<svg
   xmlns:dc="http://purl.org/dc/elements/1.1/"
   xmlns:cc="http://creativecommons.org/ns#"
   xmlns:rdf="http://www.w3.org/1999/02/22-rdf-syntax-ns#"
   xmlns:svg="http://www.w3.org/2000/svg"
   xmlns="http://www.w3.org/2000/svg"
   xmlns:sodipodi="http://sodipodi.sourceforge.net/DTD/sodipodi-0.dtd"
   xmlns:inkscape="http://www.inkscape.org/namespaces/inkscape"
   version="1.1"
   id="Layer_1"
   x="0px"
   y="0px"
   viewBox="0 0 512 335.45001"
   xml:space="preserve"
   sodipodi:docname="si.svg"
   width="512"
   height="335.45001"
   inkscape:version="1.0.1 (c497b03c, 2020-09-10)"><metadata
   id="metadata247"><rdf:RDF><cc:Work
       rdf:about=""><dc:format>image/svg+xml</dc:format><dc:type
         rdf:resource="http://purl.org/dc/dcmitype/StillImage" /><dc:title></dc:title></cc:Work></rdf:RDF></metadata><defs
   id="defs245" /><sodipodi:namedview
   pagecolor="#ffffff"
   bordercolor="#666666"
   borderopacity="1"
   objecttolerance="10"
   gridtolerance="10"
   guidetolerance="10"
   inkscape:pageopacity="0"
   inkscape:pageshadow="2"
   inkscape:window-width="1025"
   inkscape:window-height="711"
   id="namedview243"
   showgrid="false"
   inkscape:zoom="0.9765625"
   inkscape:cx="256"
   inkscape:cy="256"
   inkscape:window-x="0"
   inkscape:window-y="23"
   inkscape:window-maximized="0"
   inkscape:current-layer="Layer_1" />
<path
   style="fill:#f5f5f5"
   d="M 473.655,0 H 38.345 C 17.167,0 0,17.167 0,38.345 v 73.471 H 512 V 38.345 C 512,17.167 494.833,0 473.655,0 Z"
   id="path184" />
<path
   style="fill:#ff4b55"
   d="m 0,297.103 c 0,21.177 17.167,38.345 38.345,38.345 h 435.31 c 21.177,0 38.345,-17.167 38.345,-38.345 V 223.632 H 0 Z"
   id="path186" />
<g
   id="g192"
   transform="translate(0,-88.276)">
	<rect
   y="200.09"
   style="fill:#41479b"
   width="512"
   height="111.81"
   id="rect188"
   x="0" />
	<path
   style="fill:#41479b"
   d="m 172.014,157.37 c 0,0 -1.778,56.628 -9.724,72.53 -9.836,19.545 -19.725,25.247 -34.438,30.515 -14.711,-5.267 -24.6,-10.965 -34.438,-30.515 -7.945,-15.903 -9.725,-72.524 -9.724,-72.53 28.077,-12.677 60.247,-12.677 88.324,0 z"
   id="path190" />
</g>
<g
   id="g200"
   transform="translate(0,-88.276)">
	<path
   style="fill:#f5f5f5"
   d="m 140.64,235.897 c -1.076,-0.69 -1.852,-1.184 -3.618,-1.184 -1.761,0 -2.537,0.493 -3.608,1.184 -1.227,0.781 -2.753,1.759 -5.59,1.759 -2.839,0 -4.365,-0.978 -5.592,-1.763 -1.071,-0.685 -1.845,-1.178 -3.606,-1.178 -1.761,0 -2.535,0.493 -3.606,1.178 -1.159,0.743 -2.624,1.628 -5.171,1.727 5.361,6.538 10.983,9.64 17.998,12.333 7.012,-2.694 12.632,-5.793 17.994,-12.331 -2.565,-0.093 -4.038,-0.984 -5.201,-1.725 z"
   id="path194" />
	<path
   style="fill:#f5f5f5"
   d="m 105.832,225.437 c 1.071,0.685 1.843,1.178 3.598,1.178 1.761,0 2.535,-0.493 3.606,-1.178 1.227,-0.786 2.753,-1.763 5.59,-1.763 2.837,0 4.363,0.978 5.59,1.759 1.071,0.69 1.847,1.184 3.608,1.184 1.761,0 2.535,-0.493 3.606,-1.178 1.227,-0.786 2.753,-1.763 5.592,-1.763 2.841,0 4.371,0.978 5.597,1.759 1.076,0.69 1.849,1.184 3.616,1.184 1.766,0 2.542,-0.493 3.618,-1.184 1.025,-0.653 2.312,-1.409 4.35,-1.651 0.534,-1.39 1.053,-2.975 1.536,-4.9 l -13.17,-21.95 -4.907,9.814 -9.814,-19.627 -9.814,19.627 -4.907,-9.814 -13.161,21.936 c 0.481,1.924 0.999,3.516 1.534,4.915 2.029,0.24 3.31,0.996 4.332,1.652 z"
   id="path196" />
	<path
   style="fill:#f5f5f5"
   d="m 151.831,228.537 c -1.227,0.781 -2.755,1.759 -5.597,1.759 -2.839,0 -4.367,-0.978 -5.594,-1.759 -1.076,-0.69 -1.852,-1.184 -3.618,-1.184 -1.761,0 -2.537,0.493 -3.608,1.184 -1.227,0.781 -2.753,1.759 -5.59,1.759 -2.839,0 -4.365,-0.978 -5.592,-1.763 -1.071,-0.685 -1.845,-1.178 -3.606,-1.178 -1.761,0 -2.535,0.493 -3.606,1.178 -1.227,0.786 -2.753,1.763 -5.59,1.763 -2.835,0 -4.359,-0.978 -5.582,-1.763 -0.007,-0.003 -0.011,-0.007 -0.017,-0.011 0.962,1.746 1.923,3.349 2.881,4.803 0.716,0.393 1.465,0.651 2.718,0.651 1.761,0 2.535,-0.493 3.606,-1.178 1.227,-0.786 2.753,-1.763 5.59,-1.763 2.837,0 4.363,0.978 5.59,1.759 1.071,0.69 1.847,1.184 3.608,1.184 1.761,0 2.535,-0.493 3.606,-1.178 1.227,-0.786 2.753,-1.763 5.592,-1.763 2.841,0 4.371,0.978 5.597,1.759 1.076,0.69 1.849,1.184 3.616,1.184 1.272,0 2.027,-0.262 2.754,-0.663 0.957,-1.452 1.918,-3.055 2.879,-4.798 -0.013,0.004 -0.024,0.011 -0.037,0.018 z"
   id="path198" />
</g>
<g
   id="g208"
   transform="translate(0,-88.276)">
	<path
   style="fill:#ffe15a"
   d="m 128.046,170.222 0.861,2.814 2.867,-0.661 c 0.194,-0.045 0.33,0.19 0.194,0.335 l -2.006,2.153 2.006,2.153 c 0.136,0.146 0.001,0.381 -0.194,0.335 l -2.867,-0.661 -0.861,2.814 c -0.058,0.191 -0.329,0.191 -0.387,0 l -0.861,-2.814 -2.867,0.661 c -0.194,0.045 -0.33,-0.19 -0.194,-0.335 l 2.006,-2.153 -2.006,-2.153 c -0.136,-0.147 -10e-4,-0.381 0.194,-0.335 l 2.867,0.661 0.861,-2.814 c 0.059,-0.191 0.329,-0.191 0.387,0 z"
   id="path202" />
	<path
   style="fill:#ffe15a"
   d="m 113.939,156.702 0.861,2.814 2.867,-0.661 c 0.195,-0.045 0.33,0.19 0.194,0.335 l -2.006,2.153 2.006,2.153 c 0.136,0.147 10e-4,0.381 -0.194,0.335 l -2.867,-0.661 -0.861,2.814 c -0.058,0.191 -0.329,0.191 -0.387,0 l -0.861,-2.814 -2.867,0.661 c -0.194,0.045 -0.33,-0.19 -0.194,-0.335 l 2.006,-2.153 -2.006,-2.153 c -0.136,-0.146 -10e-4,-0.381 0.194,-0.335 l 2.867,0.661 0.861,-2.814 c 0.058,-0.191 0.328,-0.191 0.387,0 z"
   id="path204" />
	<path
   style="fill:#ffe15a"
   d="m 142.255,156.702 0.861,2.814 2.867,-0.661 c 0.194,-0.045 0.33,0.19 0.194,0.335 l -2.006,2.153 2.006,2.153 c 0.136,0.147 0.001,0.381 -0.194,0.335 l -2.867,-0.661 -0.861,2.814 c -0.058,0.191 -0.329,0.191 -0.387,0 l -0.861,-2.814 -2.867,0.661 c -0.194,0.045 -0.33,-0.19 -0.194,-0.335 l 2.006,-2.153 -2.006,-2.153 c -0.137,-0.146 -0.001,-0.381 0.194,-0.335 l 2.867,0.661 0.861,-2.814 c 0.059,-0.191 0.329,-0.191 0.387,0 z"
   id="path206" />
</g>
<path
   style="fill:#ff1722"
   d="m 166.934,66.962 c 0.03,1.565 0.055,3.144 0.055,4.849 -0.708,17.704 -3.342,56.258 -9.082,67.87 -8.463,16.996 -16.277,22.614 -30.055,27.791 -13.778,-5.176 -21.591,-10.793 -30.048,-27.778 -5.761,-11.656 -8.414,-50.866 -9.091,-67.882 0,-1.707 0.028,-3.268 0.052,-4.846 -1.698,0.664 -3.386,1.368 -5.058,2.123 0.118,3.438 0.974,25.992 3.545,45.823 1.45,11.071 3.446,21.274 6.163,26.713 9.837,19.55 19.726,25.248 34.438,30.515 14.713,-5.269 24.602,-10.969 34.439,-30.515 2.718,-5.439 4.713,-15.642 6.164,-26.713 2.57,-19.831 3.425,-42.385 3.544,-45.823 -1.675,-0.757 -3.364,-1.462 -5.066,-2.127 z"
   id="path210" />
<g
   id="g212"
   transform="translate(0,-88.276)">
</g>
<g
   id="g214"
   transform="translate(0,-88.276)">
</g>
<g
   id="g216"
   transform="translate(0,-88.276)">
</g>
<g
   id="g218"
   transform="translate(0,-88.276)">
</g>
<g
   id="g220"
   transform="translate(0,-88.276)">
</g>
<g
   id="g222"
   transform="translate(0,-88.276)">
</g>
<g
   id="g224"
   transform="translate(0,-88.276)">
</g>
<g
   id="g226"
   transform="translate(0,-88.276)">
</g>
<g
   id="g228"
   transform="translate(0,-88.276)">
</g>
<g
   id="g230"
   transform="translate(0,-88.276)">
</g>
<g
   id="g232"
   transform="translate(0,-88.276)">
</g>
<g
   id="g234"
   transform="translate(0,-88.276)">
</g>
<g
   id="g236"
   transform="translate(0,-88.276)">
</g>
<g
   id="g238"
   transform="translate(0,-88.276)">
</g>
<g
   id="g240"
   transform="translate(0,-88.276)">
</g>
</svg>
