<?xml version="1.0" encoding="UTF-8" standalone="no"?>
<svg
   xmlns:dc="http://purl.org/dc/elements/1.1/"
   xmlns:cc="http://creativecommons.org/ns#"
   xmlns:rdf="http://www.w3.org/1999/02/22-rdf-syntax-ns#"
   xmlns:svg="http://www.w3.org/2000/svg"
   xmlns="http://www.w3.org/2000/svg"
   xmlns:sodipodi="http://sodipodi.sourceforge.net/DTD/sodipodi-0.dtd"
   xmlns:inkscape="http://www.inkscape.org/namespaces/inkscape"
   version="1.1"
   id="Layer_1"
   x="0px"
   y="0px"
   viewBox="0 0 512 335.45001"
   xml:space="preserve"
   sodipodi:docname="so.svg"
   inkscape:version="1.0.1 (c497b03c, 2020-09-10)"
   width="512"
   height="335.45001"><metadata
   id="metadata462"><rdf:RDF><cc:Work
       rdf:about=""><dc:format>image/svg+xml</dc:format><dc:type
         rdf:resource="http://purl.org/dc/dcmitype/StillImage" /><dc:title></dc:title></cc:Work></rdf:RDF></metadata><defs
   id="defs460" /><sodipodi:namedview
   pagecolor="#ffffff"
   bordercolor="#666666"
   borderopacity="1"
   objecttolerance="10"
   gridtolerance="10"
   guidetolerance="10"
   inkscape:pageopacity="0"
   inkscape:pageshadow="2"
   inkscape:window-width="1462"
   inkscape:window-height="750"
   id="namedview458"
   showgrid="false"
   inkscape:zoom="1.1386719"
   inkscape:cx="256"
   inkscape:cy="256"
   inkscape:window-x="0"
   inkscape:window-y="23"
   inkscape:window-maximized="0"
   inkscape:current-layer="Layer_1"
   inkscape:document-rotation="0" />
<path
   style="fill:#82afff"
   d="M 473.655,335.448 H 38.345 C 17.167,335.448 0,318.281 0,297.103 V 38.345 C 0,17.168 17.167,0 38.345,0 h 435.31 C 494.832,0 512,17.167 512,38.345 v 258.759 c 0,21.177 -17.167,38.344 -38.345,38.344 z"
   id="path423" />
<path
   style="fill:#f5f5f5"
   d="m 253.466,105.172 -14.81,44.409 -46.813,0.363 c -2.567,0.02 -3.63,3.295 -1.566,4.82 l 37.658,27.809 -14.121,44.633 c -0.775,2.447 2.012,4.471 4.099,2.978 L 256,202.963 l 38.086,27.222 c 2.088,1.492 4.874,-0.532 4.099,-2.978 l -14.121,-44.633 37.658,-27.809 c 2.065,-1.525 1.001,-4.8 -1.566,-4.82 l -46.813,-0.363 -14.81,-44.409 c -0.812,-2.435 -4.254,-2.435 -5.067,-0.001 z"
   id="path425" />
<g
   id="g427"
   transform="translate(0,-88.276)">
</g>
<g
   id="g429"
   transform="translate(0,-88.276)">
</g>
<g
   id="g431"
   transform="translate(0,-88.276)">
</g>
<g
   id="g433"
   transform="translate(0,-88.276)">
</g>
<g
   id="g435"
   transform="translate(0,-88.276)">
</g>
<g
   id="g437"
   transform="translate(0,-88.276)">
</g>
<g
   id="g439"
   transform="translate(0,-88.276)">
</g>
<g
   id="g441"
   transform="translate(0,-88.276)">
</g>
<g
   id="g443"
   transform="translate(0,-88.276)">
</g>
<g
   id="g445"
   transform="translate(0,-88.276)">
</g>
<g
   id="g447"
   transform="translate(0,-88.276)">
</g>
<g
   id="g449"
   transform="translate(0,-88.276)">
</g>
<g
   id="g451"
   transform="translate(0,-88.276)">
</g>
<g
   id="g453"
   transform="translate(0,-88.276)">
</g>
<g
   id="g455"
   transform="translate(0,-88.276)">
</g>
</svg>
