<?xml version="1.0" encoding="UTF-8" standalone="no"?>
<svg
   xmlns:dc="http://purl.org/dc/elements/1.1/"
   xmlns:cc="http://creativecommons.org/ns#"
   xmlns:rdf="http://www.w3.org/1999/02/22-rdf-syntax-ns#"
   xmlns:svg="http://www.w3.org/2000/svg"
   xmlns="http://www.w3.org/2000/svg"
   xmlns:sodipodi="http://sodipodi.sourceforge.net/DTD/sodipodi-0.dtd"
   xmlns:inkscape="http://www.inkscape.org/namespaces/inkscape"
   version="1.1"
   id="Layer_1"
   x="0px"
   y="0px"
   viewBox="0 0 512 335.45001"
   xml:space="preserve"
   sodipodi:docname="ss.svg"
   width="512"
   height="335.45001"
   inkscape:version="1.0.1 (c497b03c, 2020-09-10)"><metadata
   id="metadata240"><rdf:RDF><cc:Work
       rdf:about=""><dc:format>image/svg+xml</dc:format><dc:type
         rdf:resource="http://purl.org/dc/dcmitype/StillImage" /><dc:title></dc:title></cc:Work></rdf:RDF></metadata><defs
   id="defs238" /><sodipodi:namedview
   pagecolor="#ffffff"
   bordercolor="#666666"
   borderopacity="1"
   objecttolerance="10"
   gridtolerance="10"
   guidetolerance="10"
   inkscape:pageopacity="0"
   inkscape:pageshadow="2"
   inkscape:window-width="1310"
   inkscape:window-height="888"
   id="namedview236"
   showgrid="false"
   inkscape:zoom="1.0644531"
   inkscape:cx="256"
   inkscape:cy="256"
   inkscape:window-x="0"
   inkscape:window-y="23"
   inkscape:window-maximized="0"
   inkscape:current-layer="Layer_1" />
<path
   style="fill:#464655"
   d="M 473.655,0 H 38.346 C 17.169,0 0.001,17.167 0.001,38.345 v 73.471 H 511.999 V 38.308 C 511.979,17.148 494.82,0 473.655,0 Z"
   id="path187" />
<path
   style="fill:#73af00"
   d="M 512,223.632 H 0.001 v 73.471 c 0,21.177 17.167,38.345 38.345,38.345 h 435.309 c 21.165,0 38.324,-17.148 38.344,-38.307 V 223.633 H 512 Z"
   id="path189" />
<rect
   y="111.814"
   style="fill:#ff4b55"
   width="512"
   height="111.81"
   id="rect191"
   x="0" />
<g
   id="g199"
   transform="translate(0,-88.276)">
	<path
   style="fill:#f5f5f5"
   d="m 95.398,233.164 5.247,11.381 12.169,-2.994 c 0.76,-0.186 1.389,0.602 1.038,1.302 l -5.626,11.198 9.928,7.648 c 0.62,0.478 0.395,1.462 -0.371,1.623 l -12.263,2.583 0.211,12.531 c 0.013,0.782 -0.897,1.22 -1.5,0.723 l -9.665,-7.977 -9.665,7.977 c -0.604,0.498 -1.513,0.06 -1.5,-0.723 l 0.211,-12.531 -12.263,-2.583 c -0.766,-0.161 -0.99,-1.145 -0.371,-1.623 l 9.928,-7.648 -5.626,-11.198 c -0.351,-0.7 0.278,-1.489 1.038,-1.302 l 12.169,2.994 5.247,-11.381 c 0.327,-0.71 1.338,-0.71 1.664,0 z"
   id="path193" />
	<rect
   y="194.21001"
   style="fill:#f5f5f5"
   width="512"
   height="15.01"
   id="rect195"
   x="0" />
	<rect
   y="302.79001"
   style="fill:#f5f5f5"
   width="512"
   height="15.01"
   id="rect197"
   x="0" />
</g>
<path
   style="fill:#41479b"
   d="M 233.2,164.112 13.055,9.536 C 5.056,16.564 0.001,26.861 0.001,38.345 v 258.758 c 0,11.484 5.055,21.781 13.054,28.809 L 233.2,171.337 c 2.504,-1.758 2.504,-5.467 0,-7.225 z"
   id="path201" />
<path
   style="fill:#ffe15a"
   d="m 73.561,126.571 19.831,20.297 25.624,-12.192 c 3.317,-1.579 6.735,1.974 5.03,5.228 l -13.175,25.132 19.513,20.602 c 2.527,2.667 0.204,7.016 -3.418,6.399 l -27.973,-4.765 -13.564,24.925 c -1.756,3.227 -6.61,2.361 -7.142,-1.273 L 74.173,182.847 46.277,177.65 c -3.612,-0.673 -4.288,-5.556 -0.995,-7.186 l 25.432,-12.588 -3.678,-28.138 c -0.477,-3.643 3.957,-5.794 6.525,-3.167 z"
   id="path203" />
<g
   id="g205"
   transform="translate(0,-88.276)">
</g>
<g
   id="g207"
   transform="translate(0,-88.276)">
</g>
<g
   id="g209"
   transform="translate(0,-88.276)">
</g>
<g
   id="g211"
   transform="translate(0,-88.276)">
</g>
<g
   id="g213"
   transform="translate(0,-88.276)">
</g>
<g
   id="g215"
   transform="translate(0,-88.276)">
</g>
<g
   id="g217"
   transform="translate(0,-88.276)">
</g>
<g
   id="g219"
   transform="translate(0,-88.276)">
</g>
<g
   id="g221"
   transform="translate(0,-88.276)">
</g>
<g
   id="g223"
   transform="translate(0,-88.276)">
</g>
<g
   id="g225"
   transform="translate(0,-88.276)">
</g>
<g
   id="g227"
   transform="translate(0,-88.276)">
</g>
<g
   id="g229"
   transform="translate(0,-88.276)">
</g>
<g
   id="g231"
   transform="translate(0,-88.276)">
</g>
<g
   id="g233"
   transform="translate(0,-88.276)">
</g>
</svg>
