<?xml version="1.0" encoding="UTF-8" standalone="no"?>
<svg
   xmlns:dc="http://purl.org/dc/elements/1.1/"
   xmlns:cc="http://creativecommons.org/ns#"
   xmlns:rdf="http://www.w3.org/1999/02/22-rdf-syntax-ns#"
   xmlns:svg="http://www.w3.org/2000/svg"
   xmlns="http://www.w3.org/2000/svg"
   xmlns:sodipodi="http://sodipodi.sourceforge.net/DTD/sodipodi-0.dtd"
   xmlns:inkscape="http://www.inkscape.org/namespaces/inkscape"
   version="1.1"
   id="Layer_1"
   x="0px"
   y="0px"
   viewBox="0 0 512 335.45001"
   xml:space="preserve"
   sodipodi:docname="sv.svg"
   width="512"
   height="335.45001"
   inkscape:version="1.0.1 (c497b03c, 2020-09-10)"><metadata
   id="metadata195"><rdf:RDF><cc:Work
       rdf:about=""><dc:format>image/svg+xml</dc:format><dc:type
         rdf:resource="http://purl.org/dc/dcmitype/StillImage" /><dc:title></dc:title></cc:Work></rdf:RDF></metadata><defs
   id="defs193" /><sodipodi:namedview
   pagecolor="#ffffff"
   bordercolor="#666666"
   borderopacity="1"
   objecttolerance="10"
   gridtolerance="10"
   guidetolerance="10"
   inkscape:pageopacity="0"
   inkscape:pageshadow="2"
   inkscape:window-width="2560"
   inkscape:window-height="984"
   id="namedview191"
   showgrid="false"
   inkscape:zoom="1.640625"
   inkscape:cx="256"
   inkscape:cy="256"
   inkscape:window-x="0"
   inkscape:window-y="23"
   inkscape:window-maximized="1"
   inkscape:current-layer="Layer_1" />
<g
   id="g14"
   transform="translate(0,-88.276)">
	<path
   style="fill:#41479b"
   d="M 473.655,88.276 H 38.345 C 17.167,88.276 0,105.443 0,126.621 v 73.471 h 512 v -73.471 c 0,-21.178 -17.167,-38.345 -38.345,-38.345 z"
   id="path10" />
	<path
   style="fill:#41479b"
   d="m 0,385.379 c 0,21.177 17.167,38.345 38.345,38.345 h 435.31 c 21.177,0 38.345,-17.167 38.345,-38.345 V 311.908 H 0 Z"
   id="path12" />
</g>
<rect
   y="111.814"
   style="fill:#f5f5f5"
   width="512"
   height="111.81"
   id="rect16"
   x="0" />
<g
   id="g70"
   transform="translate(0,-88.276)">
	<path
   style="fill:#50af69"
   d="m 255.789,293.562 c -21.295,0 -38.621,-17.325 -38.621,-38.621 0,-9.097 3.224,-17.931 9.08,-24.877 l 1.687,1.422 c -5.521,6.548 -8.561,14.877 -8.561,23.455 0,20.077 16.335,36.414 36.414,36.414 z"
   id="path18" />
	<path
   style="fill:#50af69"
   d="m 241.662,282.159 c -0.482,0.823 -0.721,1.953 -0.825,3.1 -0.436,-0.314 -0.898,-0.606 -1.4,-0.851 0,0 -0.759,2.674 -0.166,4.599 0,0 -2.013,0.249 -3.861,2.103 0,0 0.637,0.451 1.73,0.919 -1.835,1.432 -2.401,2.848 -2.401,2.848 10.83,5.415 16.02,-2.138 16.246,-2.478 -2.653,-7.568 -9.323,-10.24 -9.323,-10.24 z"
   id="path20" />
	<path
   style="fill:#50af69"
   d="m 250.985,292.402 c 0.007,0.019 0.015,0.035 0.022,0.055 v -0.087 c 0,0 -0.017,0.024 -0.022,0.032 z"
   id="path22" />
	<path
   style="fill:#50af69"
   d="m 231.66,274.941 c -0.707,0.518 -1.321,1.383 -1.83,2.312 -0.253,-0.424 -0.535,-0.839 -0.87,-1.229 0,0 -1.618,1.976 -1.821,3.817 0,0 -1.788,-0.525 -4.023,0.361 0,0 0.372,0.612 1.122,1.408 -2.07,0.536 -3.065,1.523 -3.065,1.523 7.149,8.525 14.287,4.055 14.601,3.852 0.533,-7.354 -4.114,-12.044 -4.114,-12.044 z"
   id="path24" />
	<path
   style="fill:#50af69"
   d="m 235.775,286.984 c -0.001,0.019 0,0.035 -0.002,0.054 l 0.032,-0.073 c 0,0 -0.022,0.014 -0.03,0.019 z"
   id="path26" />
	<path
   style="fill:#50af69"
   d="m 225.455,265.504 c -0.772,0.162 -1.598,0.647 -2.359,1.22 -0.051,-0.442 -0.129,-0.887 -0.259,-1.332 0,0 -2.061,1.024 -2.91,2.461 0,0 -1.273,-1.095 -3.438,-1.194 0,0 0.078,0.641 0.401,1.572 -1.899,-0.327 -3.082,0.115 -3.082,0.115 2.713,9.652 10.232,8.625 10.567,8.575 3.158,-5.841 1.08,-11.417 1.08,-11.417 z"
   id="path28" />
	<path
   style="fill:#50af69"
   d="m 224.372,276.921 c -0.008,0.014 -0.013,0.029 -0.022,0.044 l 0.053,-0.049 c 0.001,10e-4 -0.023,0.004 -0.031,0.005 z"
   id="path30" />
	<path
   style="fill:#50af69"
   d="m 222.999,254.749 c -0.733,0.047 -1.587,0.367 -2.403,0.774 0.056,-0.39 0.087,-0.786 0.073,-1.187 0,0 -2.09,0.639 -3.183,1.782 0,0 -0.896,-1.103 -2.822,-1.452 0,0 -0.076,0.566 0,1.412 -1.634,-0.513 -2.801,-0.274 -2.801,-0.274 0.228,8.702 7.231,8.721 7.543,8.717 4.185,-4.684 3.593,-9.772 3.593,-9.772 z"
   id="path32" />
	<path
   style="fill:#50af69"
   d="m 219.405,264.523 c -0.011,0.012 -0.019,0.023 -0.03,0.035 l 0.058,-0.035 c 0.001,0 -0.021,-0.001 -0.028,0 z"
   id="path34" />
	<path
   style="fill:#50af69"
   d="m 223.812,245.842 c -0.627,-0.15 -1.426,-0.103 -2.216,0.028 0.148,-0.312 0.276,-0.637 0.367,-0.977 0,0 -1.919,-0.004 -3.132,0.672 0,0 -0.466,-1.158 -1.991,-1.948 0,0 -0.211,0.455 -0.366,1.185 -1.238,-0.853 -2.279,-0.953 -2.279,-0.953 -2.06,7.358 3.809,9.186 4.072,9.263 4.726,-2.849 5.545,-7.27 5.545,-7.27 z"
   id="path36" />
	<path
   style="fill:#50af69"
   d="m 218.27,253.111 c -0.012,0.008 -0.022,0.015 -0.034,0.022 l 0.058,-0.014 c 0,0 -0.019,-0.007 -0.024,-0.008 z"
   id="path38" />
	<path
   style="fill:#50af69"
   d="m 219.168,235.01 c 0,0 -2.001,5.241 1.103,8.276 0,0 4.046,-1.195 6.046,-5.402 l -1.702,-0.322 -0.874,-2.621 -2.897,1.288 z"
   id="path40" />
	<path
   style="fill:#50af69"
   d="m 224.802,226.585 c 0,0 -3.135,4.652 -0.8,8.311 0,0 4.212,-0.248 7.113,-3.893 l -1.585,-0.698 -0.257,-2.751 -3.113,0.598 z"
   id="path42" />
	<path
   style="fill:#50af69"
   d="m 256.211,293.562 v -2.207 c 20.078,0 36.414,-16.337 36.414,-36.414 0,-8.577 -3.04,-16.907 -8.561,-23.455 l 1.687,-1.422 c 5.856,6.946 9.079,15.78 9.079,24.877 0.001,21.296 -17.324,38.621 -38.619,38.621 z"
   id="path44" />
	<path
   style="fill:#50af69"
   d="m 270.338,282.159 c 0.482,0.823 0.721,1.953 0.825,3.1 0.436,-0.314 0.898,-0.606 1.4,-0.851 0,0 0.759,2.674 0.165,4.599 0,0 2.013,0.249 3.861,2.103 0,0 -0.637,0.451 -1.73,0.919 1.835,1.432 2.401,2.848 2.401,2.848 -10.83,5.415 -16.02,-2.138 -16.246,-2.478 2.654,-7.568 9.324,-10.24 9.324,-10.24 z"
   id="path46" />
	<path
   style="fill:#50af69"
   d="m 261.015,292.402 c -0.007,0.019 -0.015,0.035 -0.022,0.055 v -0.087 c 0,0 0.017,0.024 0.022,0.032 z"
   id="path48" />
	<path
   style="fill:#50af69"
   d="m 280.339,274.941 c 0.707,0.518 1.321,1.383 1.829,2.312 0.253,-0.424 0.535,-0.839 0.87,-1.229 0,0 1.618,1.976 1.821,3.817 0,0 1.788,-0.525 4.023,0.361 0,0 -0.372,0.612 -1.122,1.408 2.07,0.536 3.065,1.523 3.065,1.523 -7.149,8.525 -14.287,4.055 -14.601,3.852 -0.532,-7.354 4.115,-12.044 4.115,-12.044 z"
   id="path50" />
	<path
   style="fill:#50af69"
   d="m 276.225,286.984 c 10e-4,0.019 0,0.035 0.002,0.054 l -0.032,-0.073 c 0,0 0.022,0.014 0.03,0.019 z"
   id="path52" />
	<path
   style="fill:#50af69"
   d="m 286.545,265.504 c 0.772,0.162 1.598,0.647 2.359,1.22 0.051,-0.442 0.129,-0.887 0.259,-1.332 0,0 2.061,1.024 2.91,2.461 0,0 1.274,-1.095 3.438,-1.194 0,0 -0.078,0.641 -0.401,1.572 1.899,-0.327 3.082,0.115 3.082,0.115 -2.713,9.652 -10.232,8.625 -10.567,8.575 -3.159,-5.841 -1.08,-11.417 -1.08,-11.417 z"
   id="path54" />
	<path
   style="fill:#50af69"
   d="m 287.628,276.921 c 0.008,0.014 0.013,0.029 0.022,0.044 l -0.053,-0.049 c -10e-4,10e-4 0.023,0.004 0.031,0.005 z"
   id="path56" />
	<path
   style="fill:#50af69"
   d="m 289.001,254.749 c 0.733,0.047 1.586,0.367 2.403,0.774 -0.056,-0.39 -0.087,-0.786 -0.072,-1.187 0,0 2.09,0.639 3.183,1.782 0,0 0.896,-1.103 2.822,-1.452 0,0 0.076,0.566 0,1.412 1.634,-0.513 2.801,-0.274 2.801,-0.274 -0.228,8.702 -7.231,8.721 -7.543,8.717 -4.186,-4.684 -3.594,-9.772 -3.594,-9.772 z"
   id="path58" />
	<path
   style="fill:#50af69"
   d="m 292.595,264.523 c 0.01,0.012 0.019,0.023 0.03,0.035 l -0.059,-0.035 c 0,0 0.022,-0.001 0.029,0 z"
   id="path60" />
	<path
   style="fill:#50af69"
   d="m 288.186,245.842 c 0.627,-0.15 1.426,-0.103 2.217,0.028 -0.148,-0.312 -0.277,-0.637 -0.367,-0.977 0,0 1.919,-0.004 3.132,0.672 0,0 0.466,-1.158 1.991,-1.948 0,0 0.211,0.455 0.366,1.185 1.238,-0.853 2.279,-0.953 2.279,-0.953 2.06,7.358 -3.809,9.186 -4.072,9.263 -4.725,-2.849 -5.546,-7.27 -5.546,-7.27 z"
   id="path62" />
	<path
   style="fill:#50af69"
   d="m 293.73,253.111 c 0.012,0.008 0.022,0.015 0.034,0.022 l -0.058,-0.014 c 0,0 0.019,-0.007 0.024,-0.008 z"
   id="path64" />
	<path
   style="fill:#50af69"
   d="m 292.832,235.01 c 0,0 2.001,5.241 -1.103,8.276 0,0 -4.046,-1.195 -6.046,-5.402 l 1.702,-0.322 0.874,-2.621 2.897,1.288 z"
   id="path66" />
	<path
   style="fill:#50af69"
   d="m 287.198,226.585 c 0,0 3.135,4.652 0.8,8.311 0,0 -4.212,-0.248 -7.113,-3.893 l 1.585,-0.698 0.257,-2.751 3.113,0.598 z"
   id="path68" />
</g>
<path
   style="fill:#41479b"
   d="m 256,182.069 -3.412,5.118 c -0.583,0.874 -0.468,2.038 0.276,2.781 l 3.136,3.136 3.136,-3.136 c 0.743,-0.743 0.858,-1.907 0.276,-2.781 z"
   id="path72" />
<path
   style="fill:#f5f5f5"
   d="m 257.453,187.187 -1.453,-5.118 -1.454,5.118 c -0.248,0.874 -0.199,2.038 0.117,2.781 l 1.337,3.136 1.336,-3.136 c 0.317,-0.744 0.366,-1.907 0.117,-2.781 z"
   id="path74" />
<g
   id="g80"
   transform="translate(0,-88.276)">
	<path
   style="fill:#41479b"
   d="m 256,224.552 v -13.793 c 0,0 -5.241,7.54 -4.414,18.574"
   id="path76" />
	<path
   style="fill:#41479b"
   d="m 232.494,224.599 c -7.582,16.456 0.195,29.996 1.827,32.545 0.044,0.068 10.827,-17.376 10.827,-17.376 l -12.654,-15.169"
   id="path78" />
</g>
<path
   style="fill:#f5f5f5"
   d="m 240.477,159.038 c -1.196,-3.725 -1.369,-8.075 0.067,-13.066 l -4.692,-5.624 c -3.855,10.388 -2.26,18.058 1.599,23.561 0.947,-1.522 1.999,-3.216 3.026,-4.871 z"
   id="path82" />
<path
   style="fill:#ffe15a"
   d="m 244.967,152.411 c -0.329,0 -0.654,-0.147 -0.872,-0.427 l -13.837,-17.791 c -0.375,-0.481 -0.288,-1.174 0.193,-1.547 0.483,-0.375 1.174,-0.287 1.548,0.194 l 13.837,17.791 c 0.375,0.481 0.288,1.174 -0.193,1.547 -0.201,0.158 -0.44,0.233 -0.676,0.233 z"
   id="path84" />
<path
   style="fill:#41479b"
   d="m 222.897,153.422 c -4.414,44.138 30.897,33.103 33.103,28.69 l -22.069,-11.034 4.414,-8.828 -15.448,-8.828"
   id="path86" />
<path
   style="fill:#f5f5f5"
   d="m 233.567,158.501 -6.151,-3.69 c -1.384,26.228 12.622,30.596 22.953,29.294 -8.375,-1.124 -16.743,-7.308 -16.802,-25.604 z"
   id="path88" />
<path
   style="fill:#ffe15a"
   d="m 238.343,163.351 c -0.2,0 -0.402,-0.054 -0.584,-0.168 l -17.654,-11.032 c -0.516,-0.323 -0.673,-1.004 -0.35,-1.519 0.322,-0.52 1.002,-0.676 1.521,-0.351 l 17.654,11.032 c 0.516,0.323 0.673,1.004 0.35,1.519 -0.21,0.336 -0.57,0.519 -0.937,0.519 z"
   id="path90" />
<path
   style="fill:#41479b"
   d="m 279.506,136.279 c 7.582,16.456 -0.195,29.996 -1.827,32.545 -0.043,0.068 -10.827,-17.376 -10.827,-17.376 l 12.654,-15.169"
   id="path92" />
<path
   style="fill:#f5f5f5"
   d="m 271.523,158.994 c 1.196,-3.725 1.369,-8.075 -0.067,-13.066 l 4.692,-5.624 c 3.855,10.388 2.26,18.059 -1.599,23.562 -0.947,-1.522 -1.999,-3.217 -3.026,-4.872 z"
   id="path94" />
<path
   style="fill:#ffe15a"
   d="m 267.033,152.368 c -0.236,0 -0.476,-0.075 -0.676,-0.233 -0.481,-0.373 -0.568,-1.067 -0.193,-1.547 l 13.837,-17.791 c 0.375,-0.481 1.067,-0.567 1.548,-0.194 0.481,0.373 0.568,1.067 0.193,1.547 l -13.837,17.791 c -0.217,0.281 -0.543,0.427 -0.872,0.427 z"
   id="path96" />
<path
   style="fill:#41479b"
   d="m 289.103,153.379 c 4.414,44.138 -30.897,33.103 -33.103,28.69 l 22.069,-11.034 -4.414,-8.828 15.448,-8.828"
   id="path98" />
<path
   style="fill:#f5f5f5"
   d="m 278.433,158.457 6.151,-3.69 c 1.384,26.228 -12.622,30.596 -22.953,29.294 8.375,-1.124 16.743,-7.307 16.802,-25.604 z"
   id="path100" />
<path
   style="fill:#ffe15a"
   d="m 273.657,163.308 c -0.367,0 -0.727,-0.183 -0.937,-0.52 -0.323,-0.515 -0.165,-1.196 0.35,-1.519 l 17.654,-11.032 c 0.519,-0.326 1.198,-0.168 1.521,0.351 0.323,0.515 0.166,1.196 -0.35,1.519 l -17.654,11.032 c -0.182,0.115 -0.384,0.169 -0.584,0.169 z"
   id="path102" />
<circle
   style="fill:#ffe6e6"
   cx="256"
   cy="155.584"
   r="8.8280001"
   id="circle104" />
<circle
   style="fill:#f5f5f5"
   cx="256"
   cy="155.584"
   r="4.414"
   id="circle106" />
<path
   style="fill:#ffe15a"
   d="m 256,169.931 c -0.61,0 -1.103,-0.493 -1.103,-1.103 v -13.241 c 0,-0.61 0.493,-1.103 1.103,-1.103 0.61,0 1.103,0.493 1.103,1.103 v 13.241 c 0,0.61 -0.493,1.103 -1.103,1.103 z"
   id="path108" />
<polygon
   style="fill:#5aa0e6"
   points="233.931,257.037 278.253,257.037 286.161,270.161 227.034,270.161 "
   id="polygon110"
   transform="translate(0,-88.276)" />
<path
   style="fill:#ffb750"
   d="m 257.795,171.219 h 15.377 l -4.783,-4.783 c -0.225,-0.225 -0.5,-0.395 -0.801,-0.495 l -1.665,-0.555 c -0.6,-0.2 -1.259,-0.111 -1.785,0.239 l -5.316,3.544 z"
   id="path112" />
<path
   style="fill:#ffc455"
   d="m 252.566,172.046 h 18.353 l -5.709,-5.709 c -0.268,-0.268 -0.596,-0.471 -0.957,-0.591 l -1.987,-0.662 c -0.716,-0.238 -1.503,-0.134 -2.131,0.286 l -6.346,4.231 z"
   id="path114" />
<path
   style="fill:#ffcd55"
   d="m 246.183,172.965 h 22.163 l -6.894,-6.894 c -0.324,-0.324 -0.719,-0.569 -1.155,-0.714 l -2.4,-0.8 c -0.865,-0.288 -1.815,-0.161 -2.573,0.344 l -7.662,5.108 z"
   id="path116" />
<path
   style="fill:#ffd25a"
   d="m 239.865,173.793 h 25.376 l -7.894,-7.894 c -0.372,-0.372 -0.824,-0.651 -1.323,-0.818 l -2.748,-0.916 c -0.991,-0.33 -2.078,-0.184 -2.947,0.395 l -8.774,5.849 z"
   id="path118" />
<path
   style="fill:#ffe15a"
   d="m 229.517,175.448 h 33.103 l -10.297,-10.297 c -0.484,-0.484 -1.075,-0.85 -1.725,-1.066 l -3.584,-1.195 c -1.292,-0.43 -2.711,-0.241 -3.844,0.514 l -11.446,7.63 z"
   id="path120" />
<g
   id="g128"
   transform="translate(0,-88.276)">
	<path
   style="fill:#ff4b55"
   d="m 258.382,245.842 h -4.771 l 1.098,-4.607 h 1.658 c 0.537,0 1.004,0.369 1.129,0.892 z"
   id="path122" />
	<path
   style="fill:#ff4b55"
   d="m 258.108,246.582 h -4.284 c -0.351,0 -0.634,-0.285 -0.634,-0.634 v -0.212 c 0,-0.351 0.285,-0.634 0.634,-0.634 h 4.284 c 0.351,0 0.634,0.284 0.634,0.634 v 0.212 c 0,0.349 -0.285,0.634 -0.634,0.634 z"
   id="path124" />
	<path
   style="fill:#ff4b55"
   d="m 255.276,243.332 -1.071,-0.271 c -0.323,-0.082 -0.463,-0.462 -0.27,-0.734 l 0.775,-1.092 z"
   id="path126" />
</g>
<path
   style="fill:#41479b"
   d="m 250.495,144.25 c -0.052,0.405 -0.105,0.811 -0.157,1.216 1.715,-1.041 3.607,-1.665 5.662,-1.665 2.053,0.002 3.946,0.622 5.662,1.665 -0.052,-0.406 -0.105,-0.811 -0.157,-1.216 -1.706,-0.89 -3.542,-1.402 -5.505,-1.4 -1.962,-0.002 -3.798,0.509 -5.505,1.4 z"
   id="path130" />
<path
   style="fill:#5aa0e6"
   d="m 250.563,143.722 c -0.052,0.405 -0.105,0.811 -0.157,1.216 1.696,-1.043 3.565,-1.668 5.593,-1.671 2.028,0.002 3.897,0.627 5.593,1.671 -0.052,-0.406 -0.105,-0.811 -0.157,-1.216 -1.687,-0.897 -3.499,-1.405 -5.437,-1.406 -1.936,0 -3.748,0.511 -5.435,1.406 z"
   id="path132" />
<path
   style="fill:#9bc800"
   d="m 250.626,143.233 c -0.052,0.405 -0.105,0.811 -0.157,1.216 1.679,-1.046 3.527,-1.676 5.53,-1.675 2.004,0 3.851,0.629 5.53,1.675 -0.052,-0.405 -0.105,-0.811 -0.157,-1.216 -1.668,-0.896 -3.459,-1.411 -5.374,-1.411 -1.911,-0.001 -3.702,0.514 -5.372,1.411 z"
   id="path134" />
<path
   style="fill:#ffe14e"
   d="m 250.698,142.674 c -0.052,0.406 -0.105,0.811 -0.157,1.216 1.66,-1.049 3.482,-1.681 5.459,-1.681 1.976,0.002 3.799,0.63 5.458,1.681 -0.052,-0.405 -0.105,-0.811 -0.157,-1.216 -1.649,-0.9 -3.414,-1.416 -5.301,-1.417 -1.887,0.001 -3.652,0.517 -5.302,1.417 z"
   id="path136" />
<path
   style="fill:#ffb14e"
   d="m 250.769,142.125 c -0.052,0.405 -0.105,0.811 -0.157,1.216 1.641,-1.053 3.437,-1.685 5.387,-1.686 1.95,0.002 3.747,0.632 5.387,1.686 -0.052,-0.405 -0.105,-0.811 -0.157,-1.216 -1.629,-0.902 -3.37,-1.421 -5.23,-1.422 -1.859,0.002 -3.601,0.518 -5.23,1.422 z"
   id="path138" />
<path
   style="fill:#ff4b55"
   d="m 250.799,141.891 c -0.036,0.284 -0.073,0.568 -0.109,0.852 1.619,-1.054 3.391,-1.693 5.311,-1.693 1.92,-0.001 3.691,0.637 5.311,1.693 -0.036,-0.284 -0.073,-0.568 -0.109,-0.852 -1.62,-0.904 -3.351,-1.423 -5.201,-1.425 -1.851,-0.002 -3.583,0.52 -5.203,1.425 z"
   id="path140" />
<g
   id="g148"
   transform="translate(0,-88.276)">
	<path
   style="fill:#ffe15a"
   d="m 286.897,271.448 h -61.793 c -0.407,0 -0.781,-0.224 -0.973,-0.582 -0.192,-0.36 -0.17,-0.796 0.055,-1.133 l 30.897,-46.345 c 0.409,-0.612 1.427,-0.612 1.836,0 l 30.897,46.345 c 0.225,0.339 0.247,0.774 0.055,1.133 -0.193,0.358 -0.567,0.582 -0.974,0.582 z m -59.732,-2.207 h 57.671 L 256,225.99 Z"
   id="path142" />
	<path
   style="fill:#ffe15a"
   d="m 256,214.069 c -0.61,0 -1.103,-0.493 -1.103,-1.103 v -4.414 c 0,-0.61 0.493,-1.103 1.103,-1.103 0.61,0 1.103,0.493 1.103,1.103 v 4.414 c 0,0.61 -0.493,1.103 -1.103,1.103 z"
   id="path144" />
	<path
   style="fill:#ffe15a"
   d="m 258.207,214.069 h -4.414 c -0.61,0 -1.103,-0.493 -1.103,-1.103 0,-0.61 0.493,-1.103 1.103,-1.103 h 4.414 c 0.61,0 1.103,0.493 1.103,1.103 0,0.61 -0.493,1.103 -1.103,1.103 z"
   id="path146" />
</g>
<g
   id="g158"
   transform="translate(0,-88.276)">
	<path
   style="fill:#41479b"
   d="m 256,293.517 c -0.079,0 -0.161,-0.009 -0.239,-0.025 -1.08,-0.242 -4.684,-1.106 -5.747,-2.159 -1.35,-1.341 -1.357,-3.528 -0.019,-4.879 0.65,-0.653 1.514,-1.015 2.435,-1.017 h 0.012 c 0.917,0 1.779,0.355 2.43,1.002 1.063,1.056 1.955,4.651 2.202,5.728 0.085,0.369 -0.025,0.757 -0.292,1.026 -0.209,0.209 -0.491,0.324 -0.782,0.324 z m -3.558,-5.875 c -0.294,0.097 -0.647,0.131 -0.882,0.366 -0.481,0.484 -0.479,1.273 0.008,1.757 0.267,0.26 1.46,0.712 2.89,1.119 -0.418,-1.425 -0.877,-2.614 -1.141,-2.881 l 0.777,-0.782 -0.778,0.782 c -0.234,-0.234 -0.544,-0.361 -0.874,-0.361 z"
   id="path150" />
	<path
   style="fill:#41479b"
   d="m 256,293.517 c -0.291,0 -0.574,-0.114 -0.783,-0.326 -0.266,-0.269 -0.377,-0.658 -0.292,-1.026 0.248,-1.078 1.14,-4.672 2.202,-5.728 v 0 c 0.654,-0.649 1.433,-0.943 2.442,-1.002 0.921,0.002 1.785,0.364 2.434,1.017 1.341,1.352 1.332,3.539 -0.017,4.877 -1.064,1.056 -4.668,1.92 -5.748,2.162 -0.078,0.017 -0.159,0.026 -0.238,0.026 z m 1.906,-6.297 0.777,0.782 c -0.264,0.267 -0.723,1.457 -1.141,2.881 1.43,-0.407 2.623,-0.857 2.891,-1.121 0.484,-0.481 0.488,-1.269 0.006,-1.754 -0.233,-0.235 -0.544,-0.366 -0.876,-0.366 h -0.004 c -0.33,0 -0.64,0.127 -0.874,0.36 z m 0,0 h 0.022 z"
   id="path152" />
	<path
   style="fill:#41479b"
   d="m 251.586,300.138 c -0.61,0 -1.103,-0.493 -1.103,-1.103 0,-5.038 4.819,-7.505 5.024,-7.608 0.548,-0.274 1.205,-0.05 1.478,0.491 0.274,0.543 0.055,1.205 -0.487,1.481 -0.039,0.02 -3.807,1.976 -3.807,5.635 -0.001,0.611 -0.495,1.104 -1.105,1.104 z"
   id="path154" />
	<path
   style="fill:#41479b"
   d="m 260.414,300.138 c -0.61,0 -1.103,-0.493 -1.103,-1.103 0,-3.659 -3.768,-5.617 -3.807,-5.635 -0.542,-0.276 -0.76,-0.938 -0.487,-1.481 0.275,-0.541 0.931,-0.765 1.478,-0.491 0.205,0.104 5.024,2.569 5.024,7.608 -0.002,0.609 -0.495,1.102 -1.105,1.102 z"
   id="path156" />
</g>
<g
   id="g160">
</g>
<g
   id="g162">
</g>
<g
   id="g164">
</g>
<g
   id="g166">
</g>
<g
   id="g168">
</g>
<g
   id="g170">
</g>
<g
   id="g172">
</g>
<g
   id="g174">
</g>
<g
   id="g176">
</g>
<g
   id="g178">
</g>
<g
   id="g180">
</g>
<g
   id="g182">
</g>
<g
   id="g184">
</g>
<g
   id="g186">
</g>
<g
   id="g188">
</g>
</svg>
