<?xml version="1.0" encoding="UTF-8" standalone="no"?>
<svg
   xmlns:dc="http://purl.org/dc/elements/1.1/"
   xmlns:cc="http://creativecommons.org/ns#"
   xmlns:rdf="http://www.w3.org/1999/02/22-rdf-syntax-ns#"
   xmlns:svg="http://www.w3.org/2000/svg"
   xmlns="http://www.w3.org/2000/svg"
   xmlns:sodipodi="http://sodipodi.sourceforge.net/DTD/sodipodi-0.dtd"
   xmlns:inkscape="http://www.inkscape.org/namespaces/inkscape"
   version="1.1"
   id="Layer_1"
   x="0px"
   y="0px"
   viewBox="0 0 512 335.45001"
   xml:space="preserve"
   sodipodi:docname="sx.svg"
   width="512"
   height="335.45001"
   inkscape:version="1.0.1 (c497b03c, 2020-09-10)"><metadata
   id="metadata97"><rdf:RDF><cc:Work
       rdf:about=""><dc:format>image/svg+xml</dc:format><dc:type
         rdf:resource="http://purl.org/dc/dcmitype/StillImage" /><dc:title></dc:title></cc:Work></rdf:RDF></metadata><defs
   id="defs95" /><sodipodi:namedview
   pagecolor="#ffffff"
   bordercolor="#666666"
   borderopacity="1"
   objecttolerance="10"
   gridtolerance="10"
   guidetolerance="10"
   inkscape:pageopacity="0"
   inkscape:pageshadow="2"
   inkscape:window-width="1202"
   inkscape:window-height="782"
   id="namedview93"
   showgrid="false"
   inkscape:zoom="1.640625"
   inkscape:cx="256"
   inkscape:cy="256"
   inkscape:window-x="0"
   inkscape:window-y="23"
   inkscape:window-maximized="0"
   inkscape:current-layer="Layer_1" />
<path
   style="fill:#ff4b55"
   d="M 473.885,0 H 38.115 C 17.045,0.124 0,17.238 0,38.338 V 167.723 H 512 V 38.338 C 512,17.238 494.955,0.124 473.885,0 Z"
   id="path10" />
<path
   style="fill:#41479b"
   d="m 0,297.097 c 0,21.177 17.167,38.345 38.345,38.345 h 435.31 c 21.177,0 38.345,-17.167 38.345,-38.345 V 167.724 H 0 Z"
   id="path12" />
<path
   style="fill:#f5f5f5"
   d="M 13.704,326.47 247.599,173.229 c 3.966,-2.599 3.966,-8.412 0,-11.009 L 13.696,8.973 C 5.325,16.007 0,26.549 0,38.338 v 258.759 c 0,11.794 5.329,22.338 13.704,29.373 z"
   id="path14" />
<circle
   style="fill:#ffe15a"
   cx="90.5"
   cy="133.65099"
   r="27.719"
   id="circle16" />
<path
   style="fill:#8cd7ff"
   d="m 124.39,159.329 c 0.11,3.363 0.476,6.833 0.829,10.187 1.385,13.163 2.582,24.533 -10.06,28.943 -2.988,1.042 -7.06,1.626 -10.996,2.19 -5.651,0.81 -10.711,1.534 -13.654,3.585 -2.943,-2.05 -8.002,-2.775 -13.654,-3.585 -3.936,-0.564 -8.009,-1.149 -10.996,-2.19 -12.642,-4.41 -11.445,-15.78 -10.06,-28.943 0.353,-3.354 0.718,-6.824 0.829,-10.187 0.393,-11.918 -2.12,-23.596 -3.885,-30.197 2.941,1.207 7.018,2.296 12.017,2.208 2.154,-0.043 4.573,-0.35 7.133,-0.674 5.844,-0.745 12.467,-1.583 17.768,0.512 l 0.85,0.378 0.85,-0.378 c 5.3,-2.095 11.924,-1.257 17.768,-0.512 2.56,0.324 4.979,0.631 7.133,0.674 4.999,0.088 9.077,-1.002 12.017,-2.208 -1.77,6.601 -4.282,18.28 -3.889,30.197 z"
   id="path18" />
<path
   style="fill:#ff4b55"
   d="m 129.007,159.176 c -0.557,-16.894 5.207,-33.843 5.266,-34.012 l -3.633,-2.551 c -0.047,0.039 -5.511,4.277 -14.291,4.108 -1.908,-0.036 -4.207,-0.329 -6.642,-0.639 -6.113,-0.774 -13.009,-1.651 -19.199,0.486 -6.19,-2.136 -13.085,-1.259 -19.199,-0.486 -2.434,0.309 -4.734,0.602 -6.642,0.639 -8.78,0.169 -14.243,-4.07 -14.291,-4.108 l -3.633,2.551 c 0.057,0.169 5.823,17.118 5.266,34.012 -0.105,3.199 -0.461,6.583 -0.807,9.856 -1.389,13.206 -2.964,28.175 13.133,33.791 3.411,1.188 7.721,1.714 11.862,2.4 12.433,2.06 14.31,5.236 14.31,5.236 0,0 1.877,-3.177 14.31,-5.236 4.141,-0.686 8.451,-1.212 11.862,-2.4 16.098,-5.615 14.524,-20.585 13.133,-33.791 -0.343,-3.273 -0.7,-6.657 -0.805,-9.856 z m -4.617,0.153 c 0.11,3.363 0.476,6.833 0.829,10.187 1.385,13.163 2.582,24.533 -10.06,28.943 -2.988,1.042 -7.06,1.626 -10.996,2.19 -5.651,0.81 -10.711,1.534 -13.654,3.585 -2.943,-2.05 -8.002,-2.775 -13.654,-3.585 -3.936,-0.564 -8.009,-1.149 -10.996,-2.19 -12.642,-4.41 -11.445,-15.78 -10.06,-28.943 0.353,-3.354 0.718,-6.824 0.829,-10.187 0.393,-11.918 -2.12,-23.596 -3.885,-30.197 2.941,1.207 7.018,2.296 12.017,2.208 2.154,-0.043 4.573,-0.35 7.133,-0.674 5.844,-0.745 12.467,-1.583 17.768,0.512 l 0.85,0.378 0.85,-0.378 c 5.3,-2.095 11.924,-1.257 17.768,-0.512 2.56,0.324 4.979,0.631 7.133,0.674 4.999,0.088 9.077,-1.002 12.017,-2.208 -1.77,6.601 -4.282,18.28 -3.889,30.197 z"
   id="path20" />
<polygon
   style="fill:#f5f5f5"
   points="116.075,265.824 116.075,262.822 111.807,262.822 111.807,252.363 116.075,252.363 96.557,238.537 96.557,233.335 99.272,233.335 90.508,227.127 81.746,233.335 84.459,233.335 84.459,238.537 64.941,252.363 69.21,252.363 69.21,262.822 64.941,262.822 64.941,265.824 66.687,265.824 66.687,276.007 64.137,276.007 64.137,280.403 116.881,280.403 116.881,276.007 114.33,276.007 114.33,265.824 "
   id="polygon22"
   transform="translate(0,-88.279)" />
<g
   id="g36"
   transform="translate(0,-88.279)">
	<path
   style="fill:#41aa5a"
   d="m 65.193,234.334 c -0.622,1.474 -0.516,3.036 0.145,4.185 1.286,-0.328 2.478,-1.341 3.101,-2.814 0.622,-1.474 0.516,-3.036 -0.145,-4.185 -1.285,0.327 -2.478,1.34 -3.101,2.814 z"
   id="path24" />
	<path
   style="fill:#41aa5a"
   d="m 68.216,234.797 c 0.407,1.547 1.446,2.719 2.671,3.225 0.818,-1.044 1.143,-2.575 0.736,-4.122 -0.407,-1.547 -1.446,-2.719 -2.671,-3.225 -0.817,1.044 -1.143,2.574 -0.736,4.122 z"
   id="path26" />
	<path
   style="fill:#41aa5a"
   d="m 72.914,232.224 c 1.5,0.557 3.055,0.384 4.175,-0.328 -0.383,-1.27 -1.448,-2.418 -2.947,-2.975 -1.5,-0.557 -3.055,-0.384 -4.175,0.328 0.383,1.27 1.447,2.418 2.947,2.975 z"
   id="path28" />
	<path
   style="fill:#41aa5a"
   d="m 74.321,229.585 c 1.464,-0.644 2.461,-1.852 2.769,-3.142 -1.16,-0.644 -2.722,-0.727 -4.186,-0.084 -1.464,0.644 -2.46,1.852 -2.769,3.142 1.158,0.645 2.721,0.728 4.186,0.084 z"
   id="path30" />
	<path
   style="fill:#41aa5a"
   d="m 64.479,230.92 c 1.305,-0.926 2.038,-2.308 2.081,-3.635 -1.265,-0.398 -2.813,-0.165 -4.118,0.76 -1.305,0.925 -2.038,2.308 -2.081,3.635 1.265,0.397 2.814,0.164 4.118,-0.76 z"
   id="path32" />
	<path
   style="fill:#41aa5a"
   d="m 63.389,228.986 c 2.008,1.15 4.159,1.462 5.759,1 -0.412,-1.614 -1.769,-3.311 -3.777,-4.461 -2.008,-1.15 -4.159,-1.462 -5.759,-1 0.412,1.615 1.77,3.312 3.777,4.461 z"
   id="path34" />
</g>
<path
   style="fill:#ffe15a"
   d="m 71.86,143.064 c 0,-0.78 -0.621,-1.408 -1.395,-1.437 -0.029,-0.774 -0.655,-1.395 -1.437,-1.395 -0.782,0 -1.408,0.621 -1.437,1.395 -0.774,0.029 -1.395,0.655 -1.395,1.437 0,0.78 0.621,1.407 1.395,1.437 0.029,0.774 0.655,1.395 1.437,1.395 0.782,0 1.408,-0.621 1.437,-1.395 0.774,-0.029 1.395,-0.655 1.395,-1.437 z"
   id="path38" />
<circle
   style="fill:#f5f5f5"
   cx="69.029999"
   cy="143.071"
   r="0.85000002"
   id="circle40" />
<path
   style="fill:#ffe15a"
   d="m 67.34,141.633 c 0,-0.642 -0.511,-1.158 -1.146,-1.181 -0.024,-0.636 -0.54,-1.146 -1.181,-1.146 -0.642,0 -1.158,0.511 -1.181,1.146 -0.636,0.024 -1.146,0.54 -1.146,1.181 0,0.642 0.511,1.158 1.146,1.181 0.024,0.636 0.54,1.146 1.181,1.146 0.642,0 1.158,-0.511 1.181,-1.146 0.635,-0.023 1.146,-0.539 1.146,-1.181 z"
   id="path42" />
<circle
   style="fill:#f5f5f5"
   cx="65.010002"
   cy="141.631"
   r="0.69800001"
   id="circle44" />
<path
   style="fill:#ffe15a"
   d="m 71.676,139.631 c 0,-0.462 -0.369,-0.834 -0.826,-0.851 -0.018,-0.458 -0.388,-0.826 -0.851,-0.826 -0.463,0 -0.834,0.369 -0.851,0.826 -0.458,0.018 -0.826,0.388 -0.826,0.851 0,0.463 0.369,0.834 0.826,0.851 0.018,0.458 0.388,0.826 0.851,0.826 0.463,0 0.834,-0.369 0.851,-0.826 0.458,-0.017 0.826,-0.389 0.826,-0.851 z"
   id="path46" />
<circle
   style="fill:#f5f5f5"
   cx="70"
   cy="139.631"
   r="0.50300002"
   id="circle48" />
<path
   style="fill:#ffe15a"
   d="m 68.494,138.183 c 0,-0.462 -0.369,-0.834 -0.826,-0.851 -0.018,-0.458 -0.388,-0.826 -0.851,-0.826 -0.462,0 -0.834,0.369 -0.851,0.826 -0.458,0.018 -0.826,0.388 -0.826,0.851 0,0.462 0.369,0.834 0.826,0.851 0.018,0.458 0.388,0.826 0.851,0.826 0.462,0 0.834,-0.369 0.851,-0.826 0.458,-0.017 0.826,-0.388 0.826,-0.851 z"
   id="path50" />
<g
   id="g56"
   transform="translate(0,-88.279)">
	<circle
   style="fill:#f5f5f5"
   cx="66.814003"
   cy="226.46001"
   r="0.50300002"
   id="circle52" />
	<path
   style="fill:#f5f5f5"
   d="m 105.406,239.159 h 16.021 c -1.026,-2.349 -3.039,-4.167 -5.535,-4.907 0.182,-1.166 0.294,-2.461 0.294,-3.85 0,-4.839 -1.239,-8.761 -2.769,-8.761 -1.53,0 -2.769,3.923 -2.769,8.761 0,1.388 0.111,2.684 0.294,3.85 -2.497,0.741 -4.511,2.557 -5.536,4.907 z"
   id="path54" />
</g>
<path
   style="fill:#ffe15a"
   d="m 90.508,229.517 c -33.754,0 -61.216,-27.46 -61.216,-61.216 h 11.55 c 0,27.386 22.28,49.665 49.665,49.665 27.385,0 49.665,-22.279 49.665,-49.665 h 11.552 c 0,33.755 -27.46,61.216 -61.216,61.216 z"
   id="path58" />
<path
   style="fill:#c87878"
   d="m 113.196,113.603 h -9.983 c 1.002,0 1.815,-0.812 1.815,-1.815 0,-1.003 -0.812,-1.815 -1.815,-1.815 H 90.508 c -1.002,0 -1.815,0.812 -1.815,1.815 0,1.003 0.812,1.815 1.815,1.815 H 67.821 c -1.504,0 -2.722,1.219 -2.722,2.722 0,1.503 1.219,2.722 2.722,2.722 h 8.167 c -1.002,0 -1.814,0.812 -1.814,1.815 0,1.002 0.812,1.815 1.815,1.815 h 16.335 c 1.002,0 1.815,-0.812 1.815,-1.815 0,-1.002 -0.812,-1.815 -1.814,-1.815 h 20.872 c 1.504,0 2.722,-1.219 2.722,-2.722 0,-1.503 -1.219,-2.722 -2.723,-2.722 z"
   id="path60" />
<g
   id="g62"
   transform="translate(0,-88.279)">
</g>
<g
   id="g64"
   transform="translate(0,-88.279)">
</g>
<g
   id="g66"
   transform="translate(0,-88.279)">
</g>
<g
   id="g68"
   transform="translate(0,-88.279)">
</g>
<g
   id="g70"
   transform="translate(0,-88.279)">
</g>
<g
   id="g72"
   transform="translate(0,-88.279)">
</g>
<g
   id="g74"
   transform="translate(0,-88.279)">
</g>
<g
   id="g76"
   transform="translate(0,-88.279)">
</g>
<g
   id="g78"
   transform="translate(0,-88.279)">
</g>
<g
   id="g80"
   transform="translate(0,-88.279)">
</g>
<g
   id="g82"
   transform="translate(0,-88.279)">
</g>
<g
   id="g84"
   transform="translate(0,-88.279)">
</g>
<g
   id="g86"
   transform="translate(0,-88.279)">
</g>
<g
   id="g88"
   transform="translate(0,-88.279)">
</g>
<g
   id="g90"
   transform="translate(0,-88.279)">
</g>
</svg>
