<?xml version="1.0" encoding="UTF-8" standalone="no"?>
<svg
   xmlns:dc="http://purl.org/dc/elements/1.1/"
   xmlns:cc="http://creativecommons.org/ns#"
   xmlns:rdf="http://www.w3.org/1999/02/22-rdf-syntax-ns#"
   xmlns:svg="http://www.w3.org/2000/svg"
   xmlns="http://www.w3.org/2000/svg"
   xmlns:sodipodi="http://sodipodi.sourceforge.net/DTD/sodipodi-0.dtd"
   xmlns:inkscape="http://www.inkscape.org/namespaces/inkscape"
   version="1.1"
   id="Layer_1"
   x="0px"
   y="0px"
   viewBox="0 0 512 335.45001"
   xml:space="preserve"
   sodipodi:docname="sy.svg"
   width="512"
   height="335.45001"
   inkscape:version="1.0.1 (c497b03c, 2020-09-10)"><metadata
   id="metadata1255"><rdf:RDF><cc:Work
       rdf:about=""><dc:format>image/svg+xml</dc:format><dc:type
         rdf:resource="http://purl.org/dc/dcmitype/StillImage" /><dc:title></dc:title></cc:Work></rdf:RDF></metadata><defs
   id="defs1253" /><sodipodi:namedview
   pagecolor="#ffffff"
   bordercolor="#666666"
   borderopacity="1"
   objecttolerance="10"
   gridtolerance="10"
   guidetolerance="10"
   inkscape:pageopacity="0"
   inkscape:pageshadow="2"
   inkscape:window-width="1172"
   inkscape:window-height="908"
   id="namedview1251"
   showgrid="false"
   inkscape:zoom="1.09375"
   inkscape:cx="256"
   inkscape:cy="256"
   inkscape:window-x="0"
   inkscape:window-y="23"
   inkscape:window-maximized="0"
   inkscape:current-layer="Layer_1" />
<path
   style="fill:#ff4b55"
   d="M 473.655,0 H 38.345 C 17.167,0 0,17.167 0,38.345 v 73.471 H 512 V 38.345 C 512,17.167 494.833,0 473.655,0 Z"
   id="path1208" />
<path
   style="fill:#464655"
   d="m 0,297.103 c 0,21.177 17.167,38.345 38.345,38.345 h 435.31 c 21.177,0 38.345,-17.167 38.345,-38.345 V 223.632 H 0 Z"
   id="path1210" />
<rect
   y="111.814"
   style="fill:#f5f5f5"
   width="512"
   height="111.81"
   id="rect1212"
   x="0" />
<g
   id="g1218"
   transform="translate(0,-88.276)">
	<path
   style="fill:#73af00"
   d="m 150.03,223.314 7.36,22.068 23.262,0.18 c 3.011,0.023 4.26,3.866 1.837,5.656 l -18.713,13.82 7.017,22.179 c 0.908,2.871 -2.361,5.247 -4.811,3.496 l -18.925,-13.527 -18.925,13.527 c -2.451,1.751 -5.719,-0.625 -4.811,-3.496 l 7.017,-22.179 -18.713,-13.82 c -2.423,-1.789 -1.174,-5.633 1.837,-5.656 l 23.263,-0.18 7.36,-22.068 c 0.951,-2.857 4.992,-2.857 5.945,0 z"
   id="path1214" />
	<path
   style="fill:#73af00"
   d="m 367.917,223.314 7.36,22.068 23.262,0.18 c 3.011,0.023 4.26,3.866 1.837,5.656 l -18.713,13.82 7.017,22.179 c 0.908,2.871 -2.361,5.247 -4.811,3.496 l -18.925,-13.527 -18.925,13.527 c -2.451,1.751 -5.719,-0.625 -4.811,-3.496 l 7.017,-22.179 -18.713,-13.82 c -2.423,-1.789 -1.174,-5.633 1.837,-5.656 l 23.262,-0.18 7.36,-22.068 c 0.952,-2.857 4.993,-2.857 5.946,0 z"
   id="path1216" />
</g>
<g
   id="g1220"
   transform="translate(0,-88.276)">
</g>
<g
   id="g1222"
   transform="translate(0,-88.276)">
</g>
<g
   id="g1224"
   transform="translate(0,-88.276)">
</g>
<g
   id="g1226"
   transform="translate(0,-88.276)">
</g>
<g
   id="g1228"
   transform="translate(0,-88.276)">
</g>
<g
   id="g1230"
   transform="translate(0,-88.276)">
</g>
<g
   id="g1232"
   transform="translate(0,-88.276)">
</g>
<g
   id="g1234"
   transform="translate(0,-88.276)">
</g>
<g
   id="g1236"
   transform="translate(0,-88.276)">
</g>
<g
   id="g1238"
   transform="translate(0,-88.276)">
</g>
<g
   id="g1240"
   transform="translate(0,-88.276)">
</g>
<g
   id="g1242"
   transform="translate(0,-88.276)">
</g>
<g
   id="g1244"
   transform="translate(0,-88.276)">
</g>
<g
   id="g1246"
   transform="translate(0,-88.276)">
</g>
<g
   id="g1248"
   transform="translate(0,-88.276)">
</g>
</svg>
