<?xml version="1.0" encoding="UTF-8" standalone="no"?>
<svg
   xmlns:dc="http://purl.org/dc/elements/1.1/"
   xmlns:cc="http://creativecommons.org/ns#"
   xmlns:rdf="http://www.w3.org/1999/02/22-rdf-syntax-ns#"
   xmlns:svg="http://www.w3.org/2000/svg"
   xmlns="http://www.w3.org/2000/svg"
   xmlns:sodipodi="http://sodipodi.sourceforge.net/DTD/sodipodi-0.dtd"
   xmlns:inkscape="http://www.inkscape.org/namespaces/inkscape"
   version="1.1"
   id="Layer_1"
   x="0px"
   y="0px"
   viewBox="0 0 512 335.45001"
   xml:space="preserve"
   sodipodi:docname="tg.svg"
   width="512"
   height="335.45001"
   inkscape:version="1.0.1 (c497b03c, 2020-09-10)"><metadata
   id="metadata1777"><rdf:RDF><cc:Work
       rdf:about=""><dc:format>image/svg+xml</dc:format><dc:type
         rdf:resource="http://purl.org/dc/dcmitype/StillImage" /><dc:title></dc:title></cc:Work></rdf:RDF></metadata><defs
   id="defs1775" /><sodipodi:namedview
   pagecolor="#ffffff"
   bordercolor="#666666"
   borderopacity="1"
   objecttolerance="10"
   gridtolerance="10"
   guidetolerance="10"
   inkscape:pageopacity="0"
   inkscape:pageshadow="2"
   inkscape:window-width="1036"
   inkscape:window-height="793"
   id="namedview1773"
   showgrid="false"
   inkscape:zoom="1.0195312"
   inkscape:cx="256"
   inkscape:cy="256"
   inkscape:window-x="0"
   inkscape:window-y="23"
   inkscape:window-maximized="0"
   inkscape:current-layer="Layer_1" />
<g
   id="g1730"
   transform="translate(0,-88.279)">
	<path
   style="fill:#73af00"
   d="M 473.885,88.279 H 38.115 C 17.045,88.403 0,105.517 0,126.617 v 28.75 h 512 v -28.75 c 0,-21.1 -17.045,-38.214 -38.115,-38.338 z"
   id="path1726" />
	<rect
   y="222.46001"
   style="fill:#73af00"
   width="512"
   height="67.089996"
   id="rect1728"
   x="0" />
</g>
<rect
   y="67.090996"
   style="fill:#ffe15a"
   width="512"
   height="67.089996"
   id="rect1732"
   x="0" />
<path
   style="fill:#73af00"
   d="m 0,297.097 c 0,21.177 17.167,38.345 38.345,38.345 h 435.31 c 21.177,0 38.345,-17.167 38.345,-38.345 V 268.358 H 0 Z"
   id="path1734" />
<rect
   y="201.27098"
   style="fill:#ffe15a"
   width="512"
   height="67.089996"
   id="rect1736"
   x="0" />
<path
   style="fill:#ff4b55"
   d="m 8.828,201.269 h 185.379 c 4.875,0 8.828,-3.953 8.828,-8.828 V 8.828 C 203.035,3.953 199.082,0 194.207,0 H 38.115 C 17.045,0.124 0,17.238 0,38.338 V 192.44 c 0,4.877 3.953,8.829 8.828,8.829 z"
   id="path1738" />
<path
   style="fill:#f5f5f5"
   d="M 99.335,47.36 86.577,85.612 46.255,85.924 c -2.21,0.018 -3.127,2.838 -1.348,4.151 l 32.438,23.954 -12.163,38.446 c -0.666,2.108 1.734,3.851 3.531,2.566 l 32.806,-23.447 32.806,23.448 c 1.799,1.286 4.199,-0.458 3.531,-2.566 l -12.163,-38.445 32.438,-23.954 c 1.779,-1.313 0.862,-4.135 -1.348,-4.151 L 116.461,85.614 103.7,47.362 C 103,45.264 100.034,45.264 99.335,47.36 Z"
   id="path1740" />
<g
   id="g1742"
   transform="translate(0,-88.279)">
</g>
<g
   id="g1744"
   transform="translate(0,-88.279)">
</g>
<g
   id="g1746"
   transform="translate(0,-88.279)">
</g>
<g
   id="g1748"
   transform="translate(0,-88.279)">
</g>
<g
   id="g1750"
   transform="translate(0,-88.279)">
</g>
<g
   id="g1752"
   transform="translate(0,-88.279)">
</g>
<g
   id="g1754"
   transform="translate(0,-88.279)">
</g>
<g
   id="g1756"
   transform="translate(0,-88.279)">
</g>
<g
   id="g1758"
   transform="translate(0,-88.279)">
</g>
<g
   id="g1760"
   transform="translate(0,-88.279)">
</g>
<g
   id="g1762"
   transform="translate(0,-88.279)">
</g>
<g
   id="g1764"
   transform="translate(0,-88.279)">
</g>
<g
   id="g1766"
   transform="translate(0,-88.279)">
</g>
<g
   id="g1768"
   transform="translate(0,-88.279)">
</g>
<g
   id="g1770"
   transform="translate(0,-88.279)">
</g>
</svg>
