<?xml version="1.0" encoding="UTF-8" standalone="no"?>
<svg
   xmlns:dc="http://purl.org/dc/elements/1.1/"
   xmlns:cc="http://creativecommons.org/ns#"
   xmlns:rdf="http://www.w3.org/1999/02/22-rdf-syntax-ns#"
   xmlns:svg="http://www.w3.org/2000/svg"
   xmlns="http://www.w3.org/2000/svg"
   xmlns:sodipodi="http://sodipodi.sourceforge.net/DTD/sodipodi-0.dtd"
   xmlns:inkscape="http://www.inkscape.org/namespaces/inkscape"
   version="1.1"
   id="Layer_1"
   x="0px"
   y="0px"
   viewBox="0 0 512 335.45001"
   xml:space="preserve"
   sodipodi:docname="tn.svg"
   width="512"
   height="335.45001"
   inkscape:version="1.0.1 (c497b03c, 2020-09-10)"><metadata
   id="metadata2054"><rdf:RDF><cc:Work
       rdf:about=""><dc:format>image/svg+xml</dc:format><dc:type
         rdf:resource="http://purl.org/dc/dcmitype/StillImage" /><dc:title></dc:title></cc:Work></rdf:RDF></metadata><defs
   id="defs2052" /><sodipodi:namedview
   pagecolor="#ffffff"
   bordercolor="#666666"
   borderopacity="1"
   objecttolerance="10"
   gridtolerance="10"
   guidetolerance="10"
   inkscape:pageopacity="0"
   inkscape:pageshadow="2"
   inkscape:window-width="1189"
   inkscape:window-height="791"
   id="namedview2050"
   showgrid="false"
   inkscape:zoom="1.1660156"
   inkscape:cx="256"
   inkscape:cy="256"
   inkscape:window-x="0"
   inkscape:window-y="23"
   inkscape:window-maximized="0"
   inkscape:current-layer="Layer_1" />
<path
   style="fill:#ff4b55"
   d="M 473.655,335.448 H 38.345 C 17.167,335.448 0,318.281 0,297.103 V 38.345 C 0,17.168 17.167,0 38.345,0 h 435.31 C 494.832,0 512,17.167 512,38.345 v 258.759 c 0,21.177 -17.167,38.344 -38.345,38.344 z"
   id="path2009" />
<path
   style="fill:#f5f5f5"
   d="m 257.002,79.448 c 48.718,0 88.205,39.594 88.205,88.276 0,48.823 -39.488,88.276 -88.205,88.276 -48.822,0 -88.346,-39.453 -88.346,-88.276 -0.001,-48.682 39.523,-88.276 88.346,-88.276"
   id="path2011" />
<g
   id="g2017"
   transform="translate(0,-88.276)">
	<path
   style="fill:#ff4b55"
   d="m 273.042,305.466 c -27.327,0 -49.493,-22.165 -49.493,-49.461 0,-27.23 22.165,-49.395 49.493,-49.395 9.295,0 17.981,2.604 25.405,7.102 1.112,0.674 2.282,-0.782 1.355,-1.695 -11.138,-10.974 -26.389,-17.771 -43.236,-17.771 -34.2,0 -61.891,27.692 -61.891,61.761 0,34.135 27.691,61.825 61.891,61.825 16.838,0 32.083,-6.792 43.219,-17.763 0.927,-0.913 -0.243,-2.369 -1.355,-1.696 -7.42,4.494 -16.1,7.093 -25.388,7.093 z"
   id="path2013" />
	<path
   style="fill:#ff4b55"
   d="m 268.52,221.387 13.644,18.526 21.945,-6.912 c 2.841,-0.895 5.186,2.342 3.452,4.762 l -13.402,18.701 13.355,18.735 c 1.729,2.425 -0.625,5.656 -3.464,4.754 l -21.927,-6.968 -13.692,18.49 c -1.772,2.393 -5.572,1.154 -5.591,-1.825 l -0.149,-23.007 -21.816,-7.307 c -2.825,-0.946 -2.819,-4.943 0.008,-5.881 l 21.835,-7.252 0.207,-23.007 c 0.026,-2.978 3.828,-4.208 5.595,-1.809 z"
   id="path2015" />
</g>
<g
   id="g2019"
   transform="translate(0,-88.276)">
</g>
<g
   id="g2021"
   transform="translate(0,-88.276)">
</g>
<g
   id="g2023"
   transform="translate(0,-88.276)">
</g>
<g
   id="g2025"
   transform="translate(0,-88.276)">
</g>
<g
   id="g2027"
   transform="translate(0,-88.276)">
</g>
<g
   id="g2029"
   transform="translate(0,-88.276)">
</g>
<g
   id="g2031"
   transform="translate(0,-88.276)">
</g>
<g
   id="g2033"
   transform="translate(0,-88.276)">
</g>
<g
   id="g2035"
   transform="translate(0,-88.276)">
</g>
<g
   id="g2037"
   transform="translate(0,-88.276)">
</g>
<g
   id="g2039"
   transform="translate(0,-88.276)">
</g>
<g
   id="g2041"
   transform="translate(0,-88.276)">
</g>
<g
   id="g2043"
   transform="translate(0,-88.276)">
</g>
<g
   id="g2045"
   transform="translate(0,-88.276)">
</g>
<g
   id="g2047"
   transform="translate(0,-88.276)">
</g>
</svg>
