<?xml version="1.0" encoding="UTF-8" standalone="no"?>
<svg
   xmlns:dc="http://purl.org/dc/elements/1.1/"
   xmlns:cc="http://creativecommons.org/ns#"
   xmlns:rdf="http://www.w3.org/1999/02/22-rdf-syntax-ns#"
   xmlns:svg="http://www.w3.org/2000/svg"
   xmlns="http://www.w3.org/2000/svg"
   xmlns:sodipodi="http://sodipodi.sourceforge.net/DTD/sodipodi-0.dtd"
   xmlns:inkscape="http://www.inkscape.org/namespaces/inkscape"
   version="1.1"
   id="Layer_1"
   x="0px"
   y="0px"
   viewBox="0 0 512 335.45001"
   xml:space="preserve"
   sodipodi:docname="to.svg"
   width="512"
   height="335.45001"
   inkscape:version="1.0.1 (c497b03c, 2020-09-10)"><metadata
   id="metadata1891"><rdf:RDF><cc:Work
       rdf:about=""><dc:format>image/svg+xml</dc:format><dc:type
         rdf:resource="http://purl.org/dc/dcmitype/StillImage" /><dc:title></dc:title></cc:Work></rdf:RDF></metadata><defs
   id="defs1889" /><sodipodi:namedview
   pagecolor="#ffffff"
   bordercolor="#666666"
   borderopacity="1"
   objecttolerance="10"
   gridtolerance="10"
   guidetolerance="10"
   inkscape:pageopacity="0"
   inkscape:pageshadow="2"
   inkscape:window-width="1063"
   inkscape:window-height="767"
   id="namedview1887"
   showgrid="false"
   inkscape:zoom="1.2617188"
   inkscape:cx="256"
   inkscape:cy="256"
   inkscape:window-x="0"
   inkscape:window-y="23"
   inkscape:window-maximized="0"
   inkscape:current-layer="Layer_1" />
<path
   style="fill:#ff4b55"
   d="m 38.345,335.448 h 435.31 c 21.177,0 38.345,-17.167 38.345,-38.345 V 38.346 C 512,17.169 494.833,0.001 473.655,0.001 H 38.345 C 17.167,0.001 0,17.168 0,38.346 v 258.758 c 0,21.177 17.167,38.344 38.345,38.344 z"
   id="path1850" />
<path
   style="fill:#f5f5f5"
   d="m 8.828,167.724 h 185.379 c 4.875,0 8.828,-3.953 8.828,-8.828 V 8.828 c 0,-4.874 -3.95,-8.826 -8.825,-8.828 H 38.345 C 17.167,0.001 0,17.168 0,38.346 v 120.552 c 0,4.874 3.953,8.826 8.828,8.826 z"
   id="path1852" />
<polygon
   style="fill:#ff4b55"
   points="123.586,105.932 79.448,105.932 79.448,150.07 35.31,150.07 35.31,194.208 79.448,194.208 79.448,238.346 123.586,238.346 123.586,194.208 167.724,194.208 167.724,150.07 123.586,150.07 "
   id="polygon1854"
   transform="translate(0,-88.276)" />
<g
   id="g1856"
   transform="translate(0,-88.276)">
</g>
<g
   id="g1858"
   transform="translate(0,-88.276)">
</g>
<g
   id="g1860"
   transform="translate(0,-88.276)">
</g>
<g
   id="g1862"
   transform="translate(0,-88.276)">
</g>
<g
   id="g1864"
   transform="translate(0,-88.276)">
</g>
<g
   id="g1866"
   transform="translate(0,-88.276)">
</g>
<g
   id="g1868"
   transform="translate(0,-88.276)">
</g>
<g
   id="g1870"
   transform="translate(0,-88.276)">
</g>
<g
   id="g1872"
   transform="translate(0,-88.276)">
</g>
<g
   id="g1874"
   transform="translate(0,-88.276)">
</g>
<g
   id="g1876"
   transform="translate(0,-88.276)">
</g>
<g
   id="g1878"
   transform="translate(0,-88.276)">
</g>
<g
   id="g1880"
   transform="translate(0,-88.276)">
</g>
<g
   id="g1882"
   transform="translate(0,-88.276)">
</g>
<g
   id="g1884"
   transform="translate(0,-88.276)">
</g>
</svg>
