<?xml version="1.0" encoding="UTF-8" standalone="no"?>
<svg
   xmlns:dc="http://purl.org/dc/elements/1.1/"
   xmlns:cc="http://creativecommons.org/ns#"
   xmlns:rdf="http://www.w3.org/1999/02/22-rdf-syntax-ns#"
   xmlns:svg="http://www.w3.org/2000/svg"
   xmlns="http://www.w3.org/2000/svg"
   xmlns:sodipodi="http://sodipodi.sourceforge.net/DTD/sodipodi-0.dtd"
   xmlns:inkscape="http://www.inkscape.org/namespaces/inkscape"
   version="1.1"
   id="Layer_1"
   x="0px"
   y="0px"
   viewBox="0 0 512 335.45001"
   xml:space="preserve"
   sodipodi:docname="tr-cy.svg"
   width="512"
   height="335.45001"
   inkscape:version="1.0.1 (c497b03c, 2020-09-10)"><metadata
   id="metadata890"><rdf:RDF><cc:Work
       rdf:about=""><dc:format>image/svg+xml</dc:format><dc:type
         rdf:resource="http://purl.org/dc/dcmitype/StillImage" /><dc:title></dc:title></cc:Work></rdf:RDF></metadata><defs
   id="defs888" /><sodipodi:namedview
   pagecolor="#ffffff"
   bordercolor="#666666"
   borderopacity="1"
   objecttolerance="10"
   gridtolerance="10"
   guidetolerance="10"
   inkscape:pageopacity="0"
   inkscape:pageshadow="2"
   inkscape:window-width="880"
   inkscape:window-height="480"
   id="namedview886"
   showgrid="false"
   inkscape:zoom="0.61328125"
   inkscape:cx="256"
   inkscape:cy="256"
   inkscape:window-x="0"
   inkscape:window-y="23"
   inkscape:window-maximized="0"
   inkscape:current-layer="Layer_1" />
<path
   style="fill:#f5f5f5"
   d="M 473.655,335.448 H 38.345 C 17.167,335.448 0,318.281 0,297.103 V 38.345 C 0,17.168 17.167,0 38.345,0 h 435.31 C 494.832,0 512,17.167 512,38.345 v 258.759 c 0,21.177 -17.167,38.344 -38.345,38.344 z"
   id="path843" />
<g
   id="g853"
   transform="translate(0,-88.276)">
	<rect
   y="123.59"
   style="fill:#ff4b55"
   width="512"
   height="35.310001"
   id="rect845"
   x="0" />
	<rect
   y="353.10001"
   style="fill:#ff4b55"
   width="512"
   height="35.310001"
   id="rect847"
   x="0" />
	<path
   style="fill:#ff4b55"
   d="m 248.503,228.839 12.427,16.256 19.403,-6.495 c 1.085,-0.363 2.008,0.864 1.358,1.805 l -11.62,16.842 12.173,16.447 c 0.681,0.919 -0.201,2.176 -1.298,1.849 l -19.608,-5.847 -11.88,16.66 c -0.664,0.931 -2.132,0.481 -2.159,-0.662 l -0.498,-20.456 -19.516,-6.151 c -1.091,-0.344 -1.117,-1.879 -0.038,-2.259 l 19.3,-6.795 -0.181,-20.461 c -0.01,-1.144 1.442,-1.642 2.137,-0.733 z"
   id="path849" />
	<path
   style="fill:#ff4b55"
   d="m 184.489,319.602 c -35.095,0 -63.564,-28.469 -63.564,-63.596 0,-35.062 28.469,-63.595 63.564,-63.595 13.057,0 25.099,4.015 35.134,10.813 1.537,1.041 3.29,-0.979 2.004,-2.316 -14.997,-15.593 -36.224,-25.105 -59.758,-24.301 -40.434,1.379 -73.906,33.798 -76.49,74.172 -2.959,46.245 33.658,84.678 79.25,84.678 22.457,0 42.641,-9.389 57.054,-24.401 1.273,-1.326 -0.484,-3.315 -2.006,-2.283 -10.047,6.808 -22.108,10.829 -35.188,10.829 z"
   id="path851" />
</g>
<g
   id="g855"
   transform="translate(0,-88.276)">
</g>
<g
   id="g857"
   transform="translate(0,-88.276)">
</g>
<g
   id="g859"
   transform="translate(0,-88.276)">
</g>
<g
   id="g861"
   transform="translate(0,-88.276)">
</g>
<g
   id="g863"
   transform="translate(0,-88.276)">
</g>
<g
   id="g865"
   transform="translate(0,-88.276)">
</g>
<g
   id="g867"
   transform="translate(0,-88.276)">
</g>
<g
   id="g869"
   transform="translate(0,-88.276)">
</g>
<g
   id="g871"
   transform="translate(0,-88.276)">
</g>
<g
   id="g873"
   transform="translate(0,-88.276)">
</g>
<g
   id="g875"
   transform="translate(0,-88.276)">
</g>
<g
   id="g877"
   transform="translate(0,-88.276)">
</g>
<g
   id="g879"
   transform="translate(0,-88.276)">
</g>
<g
   id="g881"
   transform="translate(0,-88.276)">
</g>
<g
   id="g883"
   transform="translate(0,-88.276)">
</g>
</svg>
