<?xml version="1.0" encoding="UTF-8" standalone="no"?>
<svg
   xmlns:dc="http://purl.org/dc/elements/1.1/"
   xmlns:cc="http://creativecommons.org/ns#"
   xmlns:rdf="http://www.w3.org/1999/02/22-rdf-syntax-ns#"
   xmlns:svg="http://www.w3.org/2000/svg"
   xmlns="http://www.w3.org/2000/svg"
   xmlns:sodipodi="http://sodipodi.sourceforge.net/DTD/sodipodi-0.dtd"
   xmlns:inkscape="http://www.inkscape.org/namespaces/inkscape"
   version="1.1"
   id="Layer_1"
   x="0px"
   y="0px"
   viewBox="0 0 512 335.45001"
   xml:space="preserve"
   sodipodi:docname="tt.svg"
   width="512"
   height="335.45001"
   inkscape:version="1.0.1 (c497b03c, 2020-09-10)"><metadata
   id="metadata1999"><rdf:RDF><cc:Work
       rdf:about=""><dc:format>image/svg+xml</dc:format><dc:type
         rdf:resource="http://purl.org/dc/dcmitype/StillImage" /><dc:title></dc:title></cc:Work></rdf:RDF></metadata><defs
   id="defs1997" /><sodipodi:namedview
   pagecolor="#ffffff"
   bordercolor="#666666"
   borderopacity="1"
   objecttolerance="10"
   gridtolerance="10"
   guidetolerance="10"
   inkscape:pageopacity="0"
   inkscape:pageshadow="2"
   inkscape:window-width="1108"
   inkscape:window-height="763"
   id="namedview1995"
   showgrid="false"
   inkscape:zoom="1.1875"
   inkscape:cx="256"
   inkscape:cy="256"
   inkscape:window-x="0"
   inkscape:window-y="23"
   inkscape:window-maximized="0"
   inkscape:current-layer="Layer_1" />
<path
   style="fill:#ff4b55"
   d="M 473.655,335.448 H 38.345 C 17.167,335.448 0,318.281 0,297.103 V 38.345 C 0,17.168 17.167,0 38.345,0 h 435.31 C 494.832,0 512,17.167 512,38.345 v 258.759 c 0,21.177 -17.167,38.344 -38.345,38.344 z"
   id="path1954" />
<g
   id="g1960"
   transform="translate(0,-88.276)">
	<path
   style="fill:#f5f5f5"
   d="m 11.668,99.091 350.263,324.633 h 26.483 L 28.014,89.695 c -6.235,1.741 -11.826,5.015 -16.346,9.396 z"
   id="path1956" />
	<path
   style="fill:#f5f5f5"
   d="M 500.332,412.909 150.069,88.276 h -26.483 l 360.399,334.029 c 6.236,-1.741 11.827,-5.015 16.347,-9.396 z"
   id="path1958" />
</g>
<polygon
   style="fill:#464655"
   points="485.517,423.724 123.586,88.276 26.483,88.276 388.414,423.724 "
   id="polygon1962"
   transform="translate(0,-88.276)" />
<g
   id="g1964"
   transform="translate(0,-88.276)">
</g>
<g
   id="g1966"
   transform="translate(0,-88.276)">
</g>
<g
   id="g1968"
   transform="translate(0,-88.276)">
</g>
<g
   id="g1970"
   transform="translate(0,-88.276)">
</g>
<g
   id="g1972"
   transform="translate(0,-88.276)">
</g>
<g
   id="g1974"
   transform="translate(0,-88.276)">
</g>
<g
   id="g1976"
   transform="translate(0,-88.276)">
</g>
<g
   id="g1978"
   transform="translate(0,-88.276)">
</g>
<g
   id="g1980"
   transform="translate(0,-88.276)">
</g>
<g
   id="g1982"
   transform="translate(0,-88.276)">
</g>
<g
   id="g1984"
   transform="translate(0,-88.276)">
</g>
<g
   id="g1986"
   transform="translate(0,-88.276)">
</g>
<g
   id="g1988"
   transform="translate(0,-88.276)">
</g>
<g
   id="g1990"
   transform="translate(0,-88.276)">
</g>
<g
   id="g1992"
   transform="translate(0,-88.276)">
</g>
</svg>
