<?xml version="1.0" encoding="UTF-8" standalone="no"?>
<svg
   xmlns:dc="http://purl.org/dc/elements/1.1/"
   xmlns:cc="http://creativecommons.org/ns#"
   xmlns:rdf="http://www.w3.org/1999/02/22-rdf-syntax-ns#"
   xmlns:svg="http://www.w3.org/2000/svg"
   xmlns="http://www.w3.org/2000/svg"
   xmlns:sodipodi="http://sodipodi.sourceforge.net/DTD/sodipodi-0.dtd"
   xmlns:inkscape="http://www.inkscape.org/namespaces/inkscape"
   version="1.1"
   id="Layer_1"
   x="0px"
   y="0px"
   viewBox="0 0 512 335.45001"
   xml:space="preserve"
   sodipodi:docname="tz.svg"
   width="512"
   height="335.45001"
   inkscape:version="1.0.1 (c497b03c, 2020-09-10)"><metadata
   id="metadata1308"><rdf:RDF><cc:Work
       rdf:about=""><dc:format>image/svg+xml</dc:format><dc:type
         rdf:resource="http://purl.org/dc/dcmitype/StillImage" /><dc:title></dc:title></cc:Work></rdf:RDF></metadata><defs
   id="defs1306" /><sodipodi:namedview
   pagecolor="#ffffff"
   bordercolor="#666666"
   borderopacity="1"
   objecttolerance="10"
   gridtolerance="10"
   guidetolerance="10"
   inkscape:pageopacity="0"
   inkscape:pageshadow="2"
   inkscape:window-width="1117"
   inkscape:window-height="809"
   id="namedview1304"
   showgrid="false"
   inkscape:zoom="1.4492188"
   inkscape:cx="256"
   inkscape:cy="256"
   inkscape:window-x="0"
   inkscape:window-y="23"
   inkscape:window-maximized="0"
   inkscape:current-layer="Layer_1" />
<path
   style="fill:#73af00"
   d="M 38.345,0 C 17.167,0 0,17.167 0,38.345 V 256 L 388.414,0 Z"
   id="path1265" />
<path
   style="fill:#4173cd"
   d="m 473.655,335.448 c 21.177,0 38.345,-17.167 38.345,-38.345 V 79.448 l -388.414,256 z"
   id="path1267" />
<path
   style="fill:#ffe15a"
   d="M 473.655,0 H 383.139 L 0,251.022 v 46.081 c 0,21.177 17.167,38.345 38.345,38.345 h 90.516 L 512,84.426 V 38.345 C 512,17.167 494.833,0 473.655,0 Z"
   id="path1269" />
<path
   style="fill:#464655"
   d="m 473.655,0 h -42.2 L 0,282.677 v 14.426 c 0,21.177 17.167,38.345 38.345,38.345 h 42.2 L 512,52.771 V 38.345 C 512,17.167 494.833,0 473.655,0 Z"
   id="path1271" />
<g
   id="g1273"
   transform="translate(0,-88.276)">
</g>
<g
   id="g1275"
   transform="translate(0,-88.276)">
</g>
<g
   id="g1277"
   transform="translate(0,-88.276)">
</g>
<g
   id="g1279"
   transform="translate(0,-88.276)">
</g>
<g
   id="g1281"
   transform="translate(0,-88.276)">
</g>
<g
   id="g1283"
   transform="translate(0,-88.276)">
</g>
<g
   id="g1285"
   transform="translate(0,-88.276)">
</g>
<g
   id="g1287"
   transform="translate(0,-88.276)">
</g>
<g
   id="g1289"
   transform="translate(0,-88.276)">
</g>
<g
   id="g1291"
   transform="translate(0,-88.276)">
</g>
<g
   id="g1293"
   transform="translate(0,-88.276)">
</g>
<g
   id="g1295"
   transform="translate(0,-88.276)">
</g>
<g
   id="g1297"
   transform="translate(0,-88.276)">
</g>
<g
   id="g1299"
   transform="translate(0,-88.276)">
</g>
<g
   id="g1301"
   transform="translate(0,-88.276)">
</g>
</svg>
