<?xml version="1.0" encoding="UTF-8" standalone="no"?>
<svg
   xmlns:dc="http://purl.org/dc/elements/1.1/"
   xmlns:cc="http://creativecommons.org/ns#"
   xmlns:rdf="http://www.w3.org/1999/02/22-rdf-syntax-ns#"
   xmlns:svg="http://www.w3.org/2000/svg"
   xmlns="http://www.w3.org/2000/svg"
   xmlns:sodipodi="http://sodipodi.sourceforge.net/DTD/sodipodi-0.dtd"
   xmlns:inkscape="http://www.inkscape.org/namespaces/inkscape"
   version="1.1"
   id="Layer_1"
   x="0px"
   y="0px"
   viewBox="0 0 512.002 335.45"
   xml:space="preserve"
   sodipodi:docname="uy.svg"
   width="512.00201"
   height="335.45001"
   inkscape:version="1.0.1 (c497b03c, 2020-09-10)"><metadata
   id="metadata133"><rdf:RDF><cc:Work
       rdf:about=""><dc:format>image/svg+xml</dc:format><dc:type
         rdf:resource="http://purl.org/dc/dcmitype/StillImage" /><dc:title></dc:title></cc:Work></rdf:RDF></metadata><defs
   id="defs131" /><sodipodi:namedview
   pagecolor="#ffffff"
   bordercolor="#666666"
   borderopacity="1"
   objecttolerance="10"
   gridtolerance="10"
   guidetolerance="10"
   inkscape:pageopacity="0"
   inkscape:pageshadow="2"
   inkscape:window-width="994"
   inkscape:window-height="714"
   id="namedview129"
   showgrid="false"
   inkscape:zoom="1.6406186"
   inkscape:cx="256.001"
   inkscape:cy="256.001"
   inkscape:window-x="0"
   inkscape:window-y="23"
   inkscape:window-maximized="0"
   inkscape:current-layer="Layer_1" />
<g
   id="g16"
   transform="translate(0,-88.277)">
	<rect
   y="200.09"
   style="fill:#f5f5f5"
   width="185.38"
   height="37.27"
   id="rect10"
   x="0" />
	<path
   style="fill:#f5f5f5"
   d="m 185.379,125.549 h 326.593 c -0.569,-20.68 -17.5,-37.272 -38.317,-37.272 H 38.345 C 17.167,88.276 0,105.444 0,126.621 v 36.2 h 185.379 z"
   id="path12" />
	<path
   style="fill:#f5f5f5"
   d="m 38.345,423.725 h 435.31 c 20.818,0 37.748,-16.593 38.317,-37.272 H 0.028 c 0.569,20.679 17.499,37.272 38.317,37.272 z"
   id="path14" />
</g>
<path
   style="fill:#4173cd"
   d="M 185.379,37.272 V 74.544 H 512 v -36.2 c 0,-0.36 -0.018,-0.715 -0.028,-1.073 z"
   id="path18" />
<polygon
   style="fill:#f5f5f5"
   points="185.379,200.092 512,200.092 512,162.821 185.379,162.821 0,162.821 0,200.092 "
   id="polygon20"
   transform="translate(0,-88.277)" />
<rect
   x="185.38"
   y="111.813"
   style="fill:#4173cd"
   width="326.62"
   height="37.27"
   id="rect22" />
<polygon
   style="fill:#f5f5f5"
   points="512,274.637 512,237.364 185.379,237.364 0,237.364 0,274.637 "
   id="polygon24"
   transform="translate(0,-88.277)" />
<rect
   y="186.36302"
   style="fill:#4173cd"
   width="512"
   height="37.27"
   id="rect26"
   x="0" />
<rect
   y="223.63301"
   style="fill:#f5f5f5"
   width="512"
   height="37.27"
   id="rect28"
   x="0" />
<path
   style="fill:#4173cd"
   d="m 0,297.103 c 0,0.36 0.018,0.715 0.028,1.073 h 511.946 c 0.01,-0.358 0.028,-0.713 0.028,-1.073 v -36.2 H 0 Z"
   id="path30" />
<polygon
   style="fill:#ffe15a"
   points="101.85,170.404 63.976,111.643 78.743,179.975 "
   id="polygon32"
   transform="translate(0,-88.277)" />
<polygon
   style="fill:#ffcd5a"
   points="78.743,179.975 63.976,111.643 90.296,175.189 "
   id="polygon34"
   transform="translate(0,-88.277)" />
<polygon
   style="fill:#ffe15a"
   points="83.529,191.528 121.404,250.289 106.636,181.957 "
   id="polygon36"
   transform="translate(0,-88.277)" />
<polygon
   style="fill:#ffcd5a"
   points="106.636,181.957 121.404,250.289 95.083,186.743 "
   id="polygon38"
   transform="translate(0,-88.277)" />
<polygon
   style="fill:#ffe15a"
   points="103.252,190.127 162.013,152.252 93.681,167.02 "
   id="polygon40"
   transform="translate(0,-88.277)" />
<polygon
   style="fill:#ffcd5a"
   points="93.681,167.02 162.013,152.252 98.466,178.573 "
   id="polygon42"
   transform="translate(0,-88.277)" />
<polygon
   style="fill:#ffe15a"
   points="82.127,171.805 23.367,209.681 91.699,194.913 "
   id="polygon44"
   transform="translate(0,-88.277)" />
<polygon
   style="fill:#ffcd5a"
   points="91.699,194.913 23.367,209.681 86.913,183.359 "
   id="polygon46"
   transform="translate(0,-88.277)" />
<polygon
   style="fill:#ffe15a"
   points="106.636,179.975 121.404,111.643 83.529,170.404 "
   id="polygon48"
   transform="translate(0,-88.277)" />
<polygon
   style="fill:#ffcd5a"
   points="83.529,170.404 121.404,111.643 95.083,175.189 "
   id="polygon50"
   transform="translate(0,-88.277)" />
<polygon
   style="fill:#ffe15a"
   points="78.743,181.957 63.976,250.289 101.85,191.528 "
   id="polygon52"
   transform="translate(0,-88.277)" />
<polygon
   style="fill:#ffcd5a"
   points="101.85,191.528 63.976,250.289 90.296,186.743 "
   id="polygon54"
   transform="translate(0,-88.277)" />
<polygon
   style="fill:#ffe15a"
   points="93.681,194.913 162.013,209.681 103.252,171.805 "
   id="polygon56"
   transform="translate(0,-88.277)" />
<polygon
   style="fill:#ffcd5a"
   points="103.252,171.805 162.013,209.681 98.466,183.359 "
   id="polygon58"
   transform="translate(0,-88.277)" />
<polygon
   style="fill:#ffe15a"
   points="91.699,167.02 23.367,152.252 82.127,190.127 "
   id="polygon60"
   transform="translate(0,-88.277)" />
<polygon
   style="fill:#ffcd5a"
   points="82.127,190.127 23.367,152.252 86.913,178.573 "
   id="polygon62"
   transform="translate(0,-88.277)" />
<polygon
   style="fill:#ffe15a"
   points="105.195,174.713 92.69,105.932 80.184,174.713 "
   id="polygon64"
   transform="translate(0,-88.277)" />
<polygon
   style="fill:#ffcd5a"
   points="80.184,174.713 92.69,105.932 92.69,174.713 "
   id="polygon66"
   transform="translate(0,-88.277)" />
<polygon
   style="fill:#ffe15a"
   points="80.184,187.219 92.69,256.001 105.195,187.219 "
   id="polygon68"
   transform="translate(0,-88.277)" />
<polygon
   style="fill:#ffcd5a"
   points="105.195,187.219 92.69,256.001 92.69,187.219 "
   id="polygon70"
   transform="translate(0,-88.277)" />
<polygon
   style="fill:#ffe15a"
   points="98.943,193.471 167.724,180.966 98.943,168.461 "
   id="polygon72"
   transform="translate(0,-88.277)" />
<polygon
   style="fill:#ffcd5a"
   points="98.943,168.461 167.724,180.966 98.943,180.966 "
   id="polygon74"
   transform="translate(0,-88.277)" />
<polygon
   style="fill:#ffe15a"
   points="86.436,168.461 17.655,180.966 86.436,193.471 "
   id="polygon76"
   transform="translate(0,-88.277)" />
<polygon
   style="fill:#ffcd5a"
   points="86.436,193.471 17.655,180.966 86.436,180.966 "
   id="polygon78"
   transform="translate(0,-88.277)" />
<polygon
   style="fill:#ffe15a"
   points="105.954,185.388 145.747,127.909 88.268,167.702 "
   id="polygon80"
   transform="translate(0,-88.277)" />
<polygon
   style="fill:#ffcd5a"
   points="88.268,167.702 145.747,127.909 97.111,176.545 "
   id="polygon82"
   transform="translate(0,-88.277)" />
<polygon
   style="fill:#ffe15a"
   points="79.425,176.545 39.633,234.023 97.111,194.231 "
   id="polygon84"
   transform="translate(0,-88.277)" />
<polygon
   style="fill:#ffcd5a"
   points="97.111,194.231 39.633,234.023 88.268,185.388 "
   id="polygon86"
   transform="translate(0,-88.277)" />
<polygon
   style="fill:#ffe15a"
   points="88.268,194.231 145.747,234.023 105.954,176.545 "
   id="polygon88"
   transform="translate(0,-88.277)" />
<polygon
   style="fill:#ffcd5a"
   points="105.954,176.545 145.747,234.023 97.111,185.388 "
   id="polygon90"
   transform="translate(0,-88.277)" />
<polygon
   style="fill:#ffe15a"
   points="97.111,167.702 39.633,127.909 79.425,185.388 "
   id="polygon92"
   transform="translate(0,-88.277)" />
<polygon
   style="fill:#ffcd5a"
   points="79.425,185.388 39.633,127.909 88.268,176.545 "
   id="polygon94"
   transform="translate(0,-88.277)" />
<circle
   style="fill:#ffe15a"
   cx="92.690002"
   cy="92.693001"
   r="25.01"
   id="circle96" />
<g
   id="g98"
   transform="translate(0,-88.277)">
</g>
<g
   id="g100"
   transform="translate(0,-88.277)">
</g>
<g
   id="g102"
   transform="translate(0,-88.277)">
</g>
<g
   id="g104"
   transform="translate(0,-88.277)">
</g>
<g
   id="g106"
   transform="translate(0,-88.277)">
</g>
<g
   id="g108"
   transform="translate(0,-88.277)">
</g>
<g
   id="g110"
   transform="translate(0,-88.277)">
</g>
<g
   id="g112"
   transform="translate(0,-88.277)">
</g>
<g
   id="g114"
   transform="translate(0,-88.277)">
</g>
<g
   id="g116"
   transform="translate(0,-88.277)">
</g>
<g
   id="g118"
   transform="translate(0,-88.277)">
</g>
<g
   id="g120"
   transform="translate(0,-88.277)">
</g>
<g
   id="g122"
   transform="translate(0,-88.277)">
</g>
<g
   id="g124"
   transform="translate(0,-88.277)">
</g>
<g
   id="g126"
   transform="translate(0,-88.277)">
</g>
</svg>
