<?xml version="1.0" encoding="UTF-8" standalone="no"?>
<svg
   xmlns:dc="http://purl.org/dc/elements/1.1/"
   xmlns:cc="http://creativecommons.org/ns#"
   xmlns:rdf="http://www.w3.org/1999/02/22-rdf-syntax-ns#"
   xmlns:svg="http://www.w3.org/2000/svg"
   xmlns="http://www.w3.org/2000/svg"
   xmlns:sodipodi="http://sodipodi.sourceforge.net/DTD/sodipodi-0.dtd"
   xmlns:inkscape="http://www.inkscape.org/namespaces/inkscape"
   version="1.1"
   id="Layer_1"
   x="0px"
   y="0px"
   viewBox="0 0 512 335.45001"
   xml:space="preserve"
   sodipodi:docname="vc.svg"
   width="512"
   height="335.45001"
   inkscape:version="1.0.1 (c497b03c, 2020-09-10)"><metadata
   id="metadata699"><rdf:RDF><cc:Work
       rdf:about=""><dc:format>image/svg+xml</dc:format><dc:type
         rdf:resource="http://purl.org/dc/dcmitype/StillImage" /><dc:title></dc:title></cc:Work></rdf:RDF></metadata><defs
   id="defs697" /><sodipodi:namedview
   pagecolor="#ffffff"
   bordercolor="#666666"
   borderopacity="1"
   objecttolerance="10"
   gridtolerance="10"
   guidetolerance="10"
   inkscape:pageopacity="0"
   inkscape:pageshadow="2"
   inkscape:window-width="997"
   inkscape:window-height="761"
   id="namedview695"
   showgrid="false"
   inkscape:zoom="1.25"
   inkscape:cx="256"
   inkscape:cy="256"
   inkscape:window-x="0"
   inkscape:window-y="23"
   inkscape:window-maximized="0"
   inkscape:current-layer="Layer_1" />
<rect
   x="114.76"
   y="0.0040004272"
   style="fill:#ffe15a"
   width="282.48001"
   height="335.45001"
   id="rect650" />
<path
   style="fill:#73af00"
   d="m 473.655,335.448 c 21.177,0 38.345,-17.167 38.345,-38.345 V 38.345 C 512,17.168 494.833,0 473.655,0 h -76.414 v 335.448 z"
   id="path652" />
<path
   style="fill:#4173cd"
   d="m 38.345,335.448 h 76.414 V 0 H 38.345 C 17.167,0 0,17.167 0,38.345 v 258.759 c 0,21.177 17.167,38.344 38.345,38.344 z"
   id="path654" />
<g
   id="g662"
   transform="translate(0,-88.273)">
	<polygon
   style="fill:#73af00"
   points="249.158,251.475 220.522,194.204 191.886,251.475 220.522,308.746 "
   id="polygon656" />
	<polygon
   style="fill:#73af00"
   points="320.115,251.475 291.479,194.204 262.844,251.475 291.479,308.746 "
   id="polygon658" />
	<polygon
   style="fill:#73af00"
   points="284.636,320.326 256,263.056 227.364,320.326 256,377.597 "
   id="polygon660" />
</g>
<g
   id="g664"
   transform="translate(0,-88.273)">
</g>
<g
   id="g666"
   transform="translate(0,-88.273)">
</g>
<g
   id="g668"
   transform="translate(0,-88.273)">
</g>
<g
   id="g670"
   transform="translate(0,-88.273)">
</g>
<g
   id="g672"
   transform="translate(0,-88.273)">
</g>
<g
   id="g674"
   transform="translate(0,-88.273)">
</g>
<g
   id="g676"
   transform="translate(0,-88.273)">
</g>
<g
   id="g678"
   transform="translate(0,-88.273)">
</g>
<g
   id="g680"
   transform="translate(0,-88.273)">
</g>
<g
   id="g682"
   transform="translate(0,-88.273)">
</g>
<g
   id="g684"
   transform="translate(0,-88.273)">
</g>
<g
   id="g686"
   transform="translate(0,-88.273)">
</g>
<g
   id="g688"
   transform="translate(0,-88.273)">
</g>
<g
   id="g690"
   transform="translate(0,-88.273)">
</g>
<g
   id="g692"
   transform="translate(0,-88.273)">
</g>
</svg>
