<?xml version="1.0" encoding="UTF-8" standalone="no"?>
<svg
   xmlns:dc="http://purl.org/dc/elements/1.1/"
   xmlns:cc="http://creativecommons.org/ns#"
   xmlns:rdf="http://www.w3.org/1999/02/22-rdf-syntax-ns#"
   xmlns:svg="http://www.w3.org/2000/svg"
   xmlns="http://www.w3.org/2000/svg"
   xmlns:sodipodi="http://sodipodi.sourceforge.net/DTD/sodipodi-0.dtd"
   xmlns:inkscape="http://www.inkscape.org/namespaces/inkscape"
   version="1.1"
   id="Layer_1"
   x="0px"
   y="0px"
   viewBox="0 0 512 335.45001"
   xml:space="preserve"
   sodipodi:docname="vu.svg"
   width="512"
   height="335.45001"
   inkscape:version="1.0.1 (c497b03c, 2020-09-10)"><metadata
   id="metadata2977"><rdf:RDF><cc:Work
       rdf:about=""><dc:format>image/svg+xml</dc:format><dc:type
         rdf:resource="http://purl.org/dc/dcmitype/StillImage" /><dc:title></dc:title></cc:Work></rdf:RDF></metadata><defs
   id="defs2975" /><sodipodi:namedview
   pagecolor="#ffffff"
   bordercolor="#666666"
   borderopacity="1"
   objecttolerance="10"
   gridtolerance="10"
   guidetolerance="10"
   inkscape:pageopacity="0"
   inkscape:pageshadow="2"
   inkscape:window-width="986"
   inkscape:window-height="716"
   id="namedview2973"
   showgrid="false"
   inkscape:zoom="1.0664062"
   inkscape:cx="256"
   inkscape:cy="256"
   inkscape:window-x="0"
   inkscape:window-y="23"
   inkscape:window-maximized="0"
   inkscape:current-layer="Layer_1" />
<path
   style="fill:#464655"
   d="M 473.651,0 H 38.292 C 17.807,0 1.077,16.061 0,36.277 V 299.21 c 1.077,20.215 17.807,36.277 38.292,36.277 h 435.359 c 21.18,0 38.349,-17.169 38.349,-38.349 V 38.349 C 512,17.169 494.831,0 473.651,0 Z"
   id="path2928" />
<path
   style="fill:#ffe15a"
   d="m 0,299.209 c 0.251,4.699 1.352,9.171 3.144,13.272 L 249.472,176.572 H 512 V 158.915 H 249.472 L 3.144,23.005 C 1.351,27.106 0.25,31.576 0,36.275 v 5.166 L 228.923,167.741 0,294.044 Z"
   id="path2930" />
<path
   style="fill:#73af00"
   d="M 512,194.229 H 256.029 L 14.713,327.369 c 6.506,5.081 14.685,8.117 23.579,8.117 h 435.359 c 21.18,0 38.349,-17.169 38.349,-38.349 V 194.229 Z"
   id="path2932" />
<path
   style="fill:#ff4b55"
   d="M 473.651,0 H 38.292 C 29.398,0 21.218,3.036 14.713,8.117 l 241.316,133.14 H 512 V 38.349 C 512,17.169 494.831,0 473.651,0 Z"
   id="path2934" />
<g
   id="g2940"
   transform="translate(0,-88.256)">
	<path
   style="fill:#ffe15a"
   d="m 76.461,206.481 c -25.208,-7.93 -44.239,10.387 -48.588,19.815 -3.684,7.988 -10.526,44.172 23.583,49.942 34.108,5.771 33.724,-26.415 33.724,-26.415 -1.538,5.129 -4.296,19.747 -28.917,19.747 -9.235,0 -22.504,-13.721 -20.003,-28.852 2.353,-14.237 15.071,-21.521 24.685,-21.927 9.103,-0.384 30.325,5.899 30.325,31.738 0,29.043 -29.933,32.314 -29.933,32.314 v 17.537 c 26.056,-2.555 40.801,-16.987 44.705,-40.107 3.887,-23.016 -3.951,-45.729 -29.581,-53.792 z"
   id="path2936" />
	<path
   style="fill:#ffe15a"
   d="m 48.549,249.548 c -0.595,0.755 -0.912,1.694 -0.927,2.655 l -0.074,4.717 -0.918,1.601 c -0.331,0.578 -0.135,1.317 0.441,1.652 0.583,0.341 1.331,0.141 1.666,-0.446 l 0.941,-1.647 3.766,-1.364 c 1.141,-0.413 2.058,-1.271 2.555,-2.378 0.984,-2.197 3.098,-6.232 6.522,-10.441 3.424,4.209 5.538,8.244 6.522,10.441 0.496,1.107 1.413,1.964 2.554,2.378 l 3.768,1.364 0.941,1.647 c 0.334,0.587 1.084,0.787 1.666,0.446 0.576,-0.337 0.772,-1.074 0.441,-1.652 l -0.918,-1.601 -0.074,-4.717 c -0.015,-0.961 -0.332,-1.9 -0.927,-2.655 -3.155,-4.007 -6.512,-7.159 -9.82,-9.946 2.643,-2.484 5.632,-4.856 9.395,-6.687 0.871,-0.424 1.326,-1.402 1.101,-2.343 -0.307,-1.286 -1.713,-1.961 -2.911,-1.402 -2.523,1.175 -6.86,3.491 -11.739,7.047 -4.88,-3.557 -9.216,-5.871 -11.739,-7.047 -1.198,-0.558 -2.604,0.117 -2.911,1.402 -0.224,0.942 0.231,1.919 1.1,2.343 3.764,1.831 6.753,4.204 9.396,6.687 -3.304,2.787 -6.661,5.938 -9.817,9.946 z"
   id="path2938" />
</g>
<g
   id="g2942"
   transform="translate(0,-88.256)">
</g>
<g
   id="g2944"
   transform="translate(0,-88.256)">
</g>
<g
   id="g2946"
   transform="translate(0,-88.256)">
</g>
<g
   id="g2948"
   transform="translate(0,-88.256)">
</g>
<g
   id="g2950"
   transform="translate(0,-88.256)">
</g>
<g
   id="g2952"
   transform="translate(0,-88.256)">
</g>
<g
   id="g2954"
   transform="translate(0,-88.256)">
</g>
<g
   id="g2956"
   transform="translate(0,-88.256)">
</g>
<g
   id="g2958"
   transform="translate(0,-88.256)">
</g>
<g
   id="g2960"
   transform="translate(0,-88.256)">
</g>
<g
   id="g2962"
   transform="translate(0,-88.256)">
</g>
<g
   id="g2964"
   transform="translate(0,-88.256)">
</g>
<g
   id="g2966"
   transform="translate(0,-88.256)">
</g>
<g
   id="g2968"
   transform="translate(0,-88.256)">
</g>
<g
   id="g2970"
   transform="translate(0,-88.256)">
</g>
</svg>
