<?xml version="1.0" encoding="UTF-8" standalone="no"?>
<svg
   xmlns:dc="http://purl.org/dc/elements/1.1/"
   xmlns:cc="http://creativecommons.org/ns#"
   xmlns:rdf="http://www.w3.org/1999/02/22-rdf-syntax-ns#"
   xmlns:svg="http://www.w3.org/2000/svg"
   xmlns="http://www.w3.org/2000/svg"
   xmlns:sodipodi="http://sodipodi.sourceforge.net/DTD/sodipodi-0.dtd"
   xmlns:inkscape="http://www.inkscape.org/namespaces/inkscape"
   version="1.1"
   id="Layer_1"
   x="0px"
   y="0px"
   viewBox="0 0 512 335.45001"
   xml:space="preserve"
   sodipodi:docname="ws.svg"
   width="512"
   height="335.45001"
   inkscape:version="1.0.1 (c497b03c, 2020-09-10)"><metadata
   id="metadata116"><rdf:RDF><cc:Work
       rdf:about=""><dc:format>image/svg+xml</dc:format><dc:type
         rdf:resource="http://purl.org/dc/dcmitype/StillImage" /><dc:title></dc:title></cc:Work></rdf:RDF></metadata><defs
   id="defs114" /><sodipodi:namedview
   pagecolor="#ffffff"
   bordercolor="#666666"
   borderopacity="1"
   objecttolerance="10"
   gridtolerance="10"
   guidetolerance="10"
   inkscape:pageopacity="0"
   inkscape:pageshadow="2"
   inkscape:window-width="1254"
   inkscape:window-height="768"
   id="namedview112"
   showgrid="false"
   inkscape:zoom="1.640625"
   inkscape:cx="256"
   inkscape:cy="256"
   inkscape:window-x="0"
   inkscape:window-y="23"
   inkscape:window-maximized="0"
   inkscape:current-layer="Layer_1" />
<path
   style="fill:#ff4b55;stroke-width:1"
   d="M 473.655,0.001 H 38.345 C 17.167,0.001 0,17.168 0,38.346 V 297.10499 C 0,318.28199 17.167,335.45 38.345,335.45 h 435.31 C 494.832,335.45 512,318.28299 512,297.10499 V 38.346 C 512,17.168 494.833,0.001 473.655,0.001 Z"
   id="path65" />
<path
   style="fill:#41479b;stroke-width:1"
   d="M 8.8279997,167.72499 H 247.173 c 4.875,0 8.828,-3.953 8.828,-8.82799 V 8.828 C 256.001,3.953 252.048,0 247.173,0 H 38.345 C 17.167,0.001 0,17.168 0,38.346 v 120.552 c 0,4.87399 3.953,8.82699 8.8279997,8.82699 z"
   id="path67" />
<g
   id="g79"
   transform="translate(0,-88.275)">
	<path
   style="fill:#f5f5f5"
   d="m 125.766,197.596 -4.053,12.151 -12.809,0.099 c -1.658,0.013 -2.346,2.13 -1.012,3.114 l 10.304,7.609 -3.863,12.212 c -0.5,1.581 1.3,2.889 2.649,1.924 l 10.421,-7.448 10.421,7.448 c 1.35,0.964 3.149,-0.343 2.649,-1.924 l -3.863,-12.212 10.304,-7.609 c 1.334,-0.985 0.647,-3.102 -1.012,-3.114 l -12.809,-0.099 -4.053,-12.151 c -0.525,-1.574 -2.749,-1.574 -3.274,0 z"
   id="path69" />
	<path
   style="fill:#f5f5f5"
   d="m 126.079,102.852 -3.278,9.83 -10.361,0.081 c -1.342,0.01 -1.898,1.722 -0.819,2.519 l 8.335,6.155 -3.125,9.879 c -0.405,1.279 1.052,2.337 2.143,1.557 l 8.429,-6.025 8.429,6.025 c 1.091,0.78 2.548,-0.278 2.143,-1.557 l -3.125,-9.879 8.335,-6.155 c 1.079,-0.797 0.523,-2.509 -0.819,-2.519 l -10.361,-0.081 -3.278,-9.83 c -0.424,-1.273 -2.223,-1.273 -2.648,0 z"
   id="path71" />
	<path
   style="fill:#f5f5f5"
   d="m 178.493,132.094 -3.278,9.83 -10.361,0.081 c -1.342,0.01 -1.898,1.722 -0.819,2.519 l 8.335,6.155 -3.125,9.879 c -0.405,1.279 1.052,2.337 2.143,1.557 l 8.429,-6.025 8.429,6.025 c 1.091,0.78 2.548,-0.278 2.143,-1.557 l -3.125,-9.879 8.335,-6.155 c 1.079,-0.797 0.523,-2.509 -0.819,-2.519 l -10.361,-0.081 -3.278,-9.83 c -0.424,-1.274 -2.223,-1.274 -2.648,0 z"
   id="path73" />
	<path
   style="fill:#f5f5f5"
   d="m 74.769,143.68 -3.278,9.83 -10.361,0.081 c -1.342,0.01 -1.898,1.722 -0.819,2.519 l 8.335,6.155 -3.125,9.879 c -0.405,1.279 1.052,2.337 2.143,1.557 l 8.429,-6.025 8.429,6.025 c 1.091,0.78 2.548,-0.278 2.143,-1.557 l -3.125,-9.879 8.335,-6.155 c 1.079,-0.797 0.523,-2.509 -0.819,-2.519 l -10.361,-0.081 -3.278,-9.83 c -0.424,-1.273 -2.224,-1.273 -2.648,0 z"
   id="path75" />
	<path
   style="fill:#f5f5f5"
   d="m 155.901,175.768 -1.841,5.518 -5.816,0.045 c -0.753,0.006 -1.065,0.967 -0.459,1.415 l 4.679,3.455 -1.754,5.546 c -0.227,0.718 0.59,1.312 1.203,0.874 l 4.732,-3.382 4.732,3.382 c 0.612,0.438 1.43,-0.156 1.203,-0.874 l -1.754,-5.546 4.679,-3.455 c 0.606,-0.447 0.294,-1.408 -0.459,-1.415 l -5.816,-0.045 -1.841,-5.518 c -0.239,-0.715 -1.25,-0.715 -1.488,0 z"
   id="path77" />
</g>
<g
   id="g81"
   transform="translate(0,-88.275)">
</g>
<g
   id="g83"
   transform="translate(0,-88.275)">
</g>
<g
   id="g85"
   transform="translate(0,-88.275)">
</g>
<g
   id="g87"
   transform="translate(0,-88.275)">
</g>
<g
   id="g89"
   transform="translate(0,-88.275)">
</g>
<g
   id="g91"
   transform="translate(0,-88.275)">
</g>
<g
   id="g93"
   transform="translate(0,-88.275)">
</g>
<g
   id="g95"
   transform="translate(0,-88.275)">
</g>
<g
   id="g97"
   transform="translate(0,-88.275)">
</g>
<g
   id="g99"
   transform="translate(0,-88.275)">
</g>
<g
   id="g101"
   transform="translate(0,-88.275)">
</g>
<g
   id="g103"
   transform="translate(0,-88.275)">
</g>
<g
   id="g105"
   transform="translate(0,-88.275)">
</g>
<g
   id="g107"
   transform="translate(0,-88.275)">
</g>
<g
   id="g109"
   transform="translate(0,-88.275)">
</g>
</svg>
