<?xml version="1.0" encoding="UTF-8" standalone="no"?>
<svg
   xmlns:dc="http://purl.org/dc/elements/1.1/"
   xmlns:cc="http://creativecommons.org/ns#"
   xmlns:rdf="http://www.w3.org/1999/02/22-rdf-syntax-ns#"
   xmlns:svg="http://www.w3.org/2000/svg"
   xmlns="http://www.w3.org/2000/svg"
   xmlns:sodipodi="http://sodipodi.sourceforge.net/DTD/sodipodi-0.dtd"
   xmlns:inkscape="http://www.inkscape.org/namespaces/inkscape"
   version="1.1"
   id="Layer_1"
   x="0px"
   y="0px"
   viewBox="0 0 512 335.45001"
   xml:space="preserve"
   sodipodi:docname="xk.svg"
   width="512"
   height="335.45001"
   inkscape:version="1.0.1 (c497b03c, 2020-09-10)"><metadata
   id="metadata63"><rdf:RDF><cc:Work
       rdf:about=""><dc:format>image/svg+xml</dc:format><dc:type
         rdf:resource="http://purl.org/dc/dcmitype/StillImage" /><dc:title></dc:title></cc:Work></rdf:RDF></metadata><defs
   id="defs61" /><sodipodi:namedview
   pagecolor="#ffffff"
   bordercolor="#666666"
   borderopacity="1"
   objecttolerance="10"
   gridtolerance="10"
   guidetolerance="10"
   inkscape:pageopacity="0"
   inkscape:pageshadow="2"
   inkscape:window-width="1202"
   inkscape:window-height="803"
   id="namedview59"
   showgrid="false"
   inkscape:zoom="1.640625"
   inkscape:cx="256"
   inkscape:cy="256"
   inkscape:window-x="0"
   inkscape:window-y="23"
   inkscape:window-maximized="0"
   inkscape:current-layer="Layer_1" />
<path
   style="fill:#41479b"
   d="M 473.655,335.448 H 38.345 C 17.167,335.448 0,318.281 0,297.103 V 38.345 C 0,17.168 17.167,0 38.345,0 h 435.31 C 494.832,0 512,17.167 512,38.345 v 258.759 c 0,21.177 -17.167,38.344 -38.345,38.344 z"
   id="path10" />
<path
   style="fill:#ff9b55"
   d="m 267.31,114.212 c -5.103,-0.966 -11.31,-7.448 -9.103,-11.034 2.207,-3.586 -1.931,-11.586 -6.897,-8.828 -4.966,2.759 -8.276,6.069 -12.966,7.172 -4.69,1.103 -8.552,4.69 -4.966,8 3.586,3.31 9.103,9.931 3.862,16.828 -5.241,6.897 -3.586,2.207 -9.931,5.241 -6.345,3.034 -10.759,9.103 -8.828,12.69 1.931,3.586 3.586,4.966 -1.931,7.448 -5.517,2.482 -8,0.828 -12.414,1.931 -4.414,1.103 -15.172,6.621 -18.483,11.31 -3.31,4.69 -10.483,0.276 -13.517,-0.276 -3.034,-0.552 -9.103,1.655 -10.483,5.241 -1.379,3.586 1.103,6.897 6.345,8.552 5.241,1.655 7.448,1.931 4.966,6.345 -2.482,4.414 -0.828,12.966 3.31,15.448 4.138,2.483 12.138,10.207 12.138,15.448 0,5.241 -1.103,12.966 6.621,14.069 7.724,1.103 19.586,4.414 23.724,11.586 4.138,7.172 5.241,11.31 6.069,15.724 0.828,4.414 1.655,8 4.138,12.966 2.483,4.966 4.138,13.517 1.655,15.448 -2.483,1.931 -4.414,3.31 -2.483,7.034 1.931,3.724 2.345,5.103 5.931,3.034 3.586,-2.069 3.586,0.138 5.517,-0.276 1.931,-0.414 10.759,-3.586 9.103,-7.862 -1.655,-4.276 -5.241,-14.069 -0.138,-19.172 5.103,-5.103 12,-5.931 16.414,-9.379 4.414,-3.448 11.724,-4 17.379,-9.517 5.655,-5.517 11.724,-2.207 12.69,1.655 0.966,3.862 2.483,11.31 6.897,11.172 4.414,-0.138 5.379,-0.138 6.207,-5.517 0.828,-5.379 7.724,-17.379 10.483,-15.862 2.759,1.517 5.241,0.276 5.379,-2.069 0.138,-2.345 5.379,-4.414 7.586,-1.103 2.207,3.31 7.034,5.931 6.897,1.793 -0.138,-4.138 -5.793,-3.586 -5.931,-8.138 -0.138,-4.552 4.552,-7.448 8.69,-9.379 4.138,-1.931 1.655,-6.897 2.897,-9.655 1.241,-2.759 8,-6.207 8.276,-8.966 0.276,-2.759 -1.655,-3.862 1.241,-4.552 2.897,-0.69 6.483,-1.931 4.414,-5.103 -2.069,-3.172 -1.379,-5.517 0.828,-7.034 2.207,-1.517 3.242,-8.718 0.023,-9.654 -3.22,-0.935 -9.035,1.766 -10.489,3.531 -1.454,1.766 -7.373,-5.816 -10.178,-7.686 -2.804,-1.869 -20.875,-0.727 -20.459,-3.842 0.416,-3.115 8,-14.487 4.69,-16.28 -3.31,-1.793 -8.552,-4.414 -12.828,-5.793 -4.276,-1.379 -3.31,3.31 -5.655,-0.414 -2.345,-3.724 -3.172,-16.966 -5.793,-16.966 -2.621,0 -4.552,5.517 -5.655,3.448 -1.103,-2.069 0.414,-16.414 -5.655,-16.69 -6.069,-0.276 -6.207,3.31 -9.655,0.69 -3.449,-2.619 -2.955,-1.437 -9.932,-2.757 z"
   id="path12" />
<g
   id="g26"
   transform="translate(0,-88.276)">
	<path
   style="fill:#f5f5f5"
   d="m 229.837,124.019 -4.583,13.74 -14.484,0.113 c -0.794,0.007 -1.123,1.02 -0.484,1.491 l 11.651,8.604 -4.369,13.81 c -0.239,0.757 0.622,1.384 1.269,0.921 l 11.783,-8.422 11.784,8.423 c 0.646,0.461 1.508,-0.164 1.269,-0.921 l -4.369,-13.81 11.651,-8.604 c 0.639,-0.471 0.31,-1.485 -0.484,-1.491 l -14.484,-0.113 -4.583,-13.74 c -0.25,-0.754 -1.316,-0.754 -1.567,-10e-4 z"
   id="path14" />
	<path
   style="fill:#f5f5f5"
   d="m 280.872,124.019 -4.583,13.74 -14.484,0.113 c -0.794,0.007 -1.123,1.02 -0.484,1.491 l 11.651,8.604 -4.369,13.81 c -0.239,0.757 0.622,1.384 1.269,0.921 l 11.784,-8.423 11.784,8.423 c 0.646,0.461 1.508,-0.164 1.269,-0.921 l -4.369,-13.81 11.651,-8.604 c 0.639,-0.471 0.309,-1.485 -0.484,-1.491 l -14.484,-0.113 -4.583,-13.74 c -0.252,-0.753 -1.318,-0.753 -1.568,0 z"
   id="path16" />
	<path
   style="fill:#f5f5f5"
   d="m 179.492,132.433 -4.583,13.74 -14.484,0.113 c -0.794,0.007 -1.123,1.02 -0.484,1.491 l 11.651,8.604 -4.369,13.81 c -0.239,0.757 0.622,1.384 1.269,0.921 l 11.784,-8.423 11.784,8.423 c 0.646,0.461 1.508,-0.164 1.269,-0.921 l -4.369,-13.81 11.651,-8.604 c 0.639,-0.471 0.31,-1.485 -0.484,-1.491 l -14.484,-0.113 -4.583,-13.74 c -0.251,-0.753 -1.317,-0.753 -1.568,0 z"
   id="path18" />
	<path
   style="fill:#f5f5f5"
   d="m 131.859,149.747 -4.583,13.74 -14.484,0.113 c -0.794,0.007 -1.123,1.02 -0.484,1.491 l 11.651,8.604 -4.369,13.81 c -0.239,0.757 0.622,1.384 1.269,0.921 l 11.784,-8.423 11.784,8.423 c 0.646,0.461 1.508,-0.164 1.269,-0.921 l -4.369,-13.81 11.651,-8.604 c 0.639,-0.471 0.31,-1.485 -0.484,-1.491 l -14.484,-0.113 -4.583,-13.74 c -0.251,-0.754 -1.317,-0.754 -1.568,0 z"
   id="path20" />
	<path
   style="fill:#f5f5f5"
   d="m 332.647,132.433 4.583,13.74 14.484,0.113 c 0.794,0.007 1.123,1.02 0.484,1.491 l -11.651,8.604 4.369,13.81 c 0.239,0.757 -0.622,1.384 -1.269,0.921 l -11.784,-8.423 -11.784,8.423 c -0.646,0.461 -1.508,-0.164 -1.269,-0.921 l 4.369,-13.81 -11.651,-8.604 c -0.639,-0.471 -0.31,-1.485 0.484,-1.491 l 14.483,-0.113 4.583,-13.74 c 0.252,-0.753 1.318,-0.753 1.569,0 z"
   id="path22" />
	<path
   style="fill:#f5f5f5"
   d="m 380.28,149.747 4.583,13.74 14.484,0.113 c 0.794,0.007 1.123,1.02 0.484,1.491 l -11.651,8.604 4.369,13.81 c 0.239,0.757 -0.622,1.384 -1.269,0.921 l -11.784,-8.423 -11.784,8.423 c -0.646,0.461 -1.508,-0.164 -1.269,-0.921 l 4.369,-13.81 -11.651,-8.604 c -0.639,-0.471 -0.309,-1.485 0.484,-1.491 l 14.484,-0.113 4.583,-13.74 c 0.251,-0.754 1.317,-0.754 1.568,0 z"
   id="path24" />
</g>
<g
   id="g28">
</g>
<g
   id="g30">
</g>
<g
   id="g32">
</g>
<g
   id="g34">
</g>
<g
   id="g36">
</g>
<g
   id="g38">
</g>
<g
   id="g40">
</g>
<g
   id="g42">
</g>
<g
   id="g44">
</g>
<g
   id="g46">
</g>
<g
   id="g48">
</g>
<g
   id="g50">
</g>
<g
   id="g52">
</g>
<g
   id="g54">
</g>
<g
   id="g56">
</g>
</svg>
