<?xml version="1.0" encoding="UTF-8" standalone="no"?>
<svg
   xmlns:dc="http://purl.org/dc/elements/1.1/"
   xmlns:cc="http://creativecommons.org/ns#"
   xmlns:rdf="http://www.w3.org/1999/02/22-rdf-syntax-ns#"
   xmlns:svg="http://www.w3.org/2000/svg"
   xmlns="http://www.w3.org/2000/svg"
   xmlns:sodipodi="http://sodipodi.sourceforge.net/DTD/sodipodi-0.dtd"
   xmlns:inkscape="http://www.inkscape.org/namespaces/inkscape"
   version="1.1"
   id="Layer_1"
   x="0px"
   y="0px"
   viewBox="0 0 512 335.45001"
   xml:space="preserve"
   sodipodi:docname="za.svg"
   width="512"
   height="335.45001"
   inkscape:version="1.0.1 (c497b03c, 2020-09-10)"><metadata
   id="metadata88"><rdf:RDF><cc:Work
       rdf:about=""><dc:format>image/svg+xml</dc:format><dc:type
         rdf:resource="http://purl.org/dc/dcmitype/StillImage" /><dc:title></dc:title></cc:Work></rdf:RDF></metadata><defs
   id="defs86" /><sodipodi:namedview
   pagecolor="#ffffff"
   bordercolor="#666666"
   borderopacity="1"
   objecttolerance="10"
   gridtolerance="10"
   guidetolerance="10"
   inkscape:pageopacity="0"
   inkscape:pageshadow="2"
   inkscape:window-width="1146"
   inkscape:window-height="784"
   id="namedview84"
   showgrid="false"
   inkscape:zoom="1.140625"
   inkscape:cx="256"
   inkscape:cy="256"
   inkscape:window-x="0"
   inkscape:window-y="23"
   inkscape:window-maximized="0"
   inkscape:current-layer="Layer_1" />
<polygon
   style="fill:#464655"
   points="141.241,256 0,150.069 0,361.931 "
   id="polygon39"
   transform="translate(0,-88.276)" />
<path
   style="fill:#ff4b55"
   d="M 473.655,0 H 70.621 L 229.518,123.586 H 512 V 38.345 C 512,17.167 494.833,0 473.655,0 Z"
   id="path41" />
<path
   style="fill:#41479b"
   d="m 70.621,335.448 h 403.034 c 21.177,0 38.345,-17.167 38.345,-38.345 V 211.862 H 229.517 Z"
   id="path43" />
<path
   style="fill:#73af00"
   d="M 56.889,0 H 38.345 C 17.167,0 0,17.167 0,38.345 v 6.692 L 154.974,167.724 0,290.415 v 6.688 c 0,21.177 17.167,38.345 38.345,38.345 H 56.884 L 224.146,203.034 H 512 v -70.62 H 224.148 Z"
   id="path45" />
<polygon
   style="fill:#f5f5f5"
   points="224.148,220.69 512,220.69 512,203.034 230.291,203.034 85.333,88.276 56.889,88.276 "
   id="polygon47"
   transform="translate(0,-88.276)" />
<polygon
   style="fill:#ffe15a"
   points="126.53,256 0,356.173 0,378.691 154.974,256 0,133.313 0,155.831 "
   id="polygon49"
   transform="translate(0,-88.276)" />
<polygon
   style="fill:#f5f5f5"
   points="85.329,423.724 230.289,308.966 512,308.966 512,291.31 224.147,291.31 56.884,423.724 "
   id="polygon51"
   transform="translate(0,-88.276)" />
<g
   id="g53"
   transform="translate(0,-88.276)">
</g>
<g
   id="g55"
   transform="translate(0,-88.276)">
</g>
<g
   id="g57"
   transform="translate(0,-88.276)">
</g>
<g
   id="g59"
   transform="translate(0,-88.276)">
</g>
<g
   id="g61"
   transform="translate(0,-88.276)">
</g>
<g
   id="g63"
   transform="translate(0,-88.276)">
</g>
<g
   id="g65"
   transform="translate(0,-88.276)">
</g>
<g
   id="g67"
   transform="translate(0,-88.276)">
</g>
<g
   id="g69"
   transform="translate(0,-88.276)">
</g>
<g
   id="g71"
   transform="translate(0,-88.276)">
</g>
<g
   id="g73"
   transform="translate(0,-88.276)">
</g>
<g
   id="g75"
   transform="translate(0,-88.276)">
</g>
<g
   id="g77"
   transform="translate(0,-88.276)">
</g>
<g
   id="g79"
   transform="translate(0,-88.276)">
</g>
<g
   id="g81"
   transform="translate(0,-88.276)">
</g>
</svg>
