<?xml version="1.0" encoding="UTF-8" standalone="no"?>
<svg
   xmlns:dc="http://purl.org/dc/elements/1.1/"
   xmlns:cc="http://creativecommons.org/ns#"
   xmlns:rdf="http://www.w3.org/1999/02/22-rdf-syntax-ns#"
   xmlns:svg="http://www.w3.org/2000/svg"
   xmlns="http://www.w3.org/2000/svg"
   xmlns:sodipodi="http://sodipodi.sourceforge.net/DTD/sodipodi-0.dtd"
   xmlns:inkscape="http://www.inkscape.org/namespaces/inkscape"
   version="1.1"
   id="Layer_1"
   x="0px"
   y="0px"
   viewBox="0 0 512 335.45001"
   xml:space="preserve"
   sodipodi:docname="zm.svg"
   width="512"
   height="335.45001"
   inkscape:version="1.0.1 (c497b03c, 2020-09-10)"><metadata
   id="metadata3374"><rdf:RDF><cc:Work
       rdf:about=""><dc:format>image/svg+xml</dc:format><dc:type
         rdf:resource="http://purl.org/dc/dcmitype/StillImage" /><dc:title></dc:title></cc:Work></rdf:RDF></metadata><defs
   id="defs3372" /><sodipodi:namedview
   pagecolor="#ffffff"
   bordercolor="#666666"
   borderopacity="1"
   objecttolerance="10"
   gridtolerance="10"
   guidetolerance="10"
   inkscape:pageopacity="0"
   inkscape:pageshadow="2"
   inkscape:window-width="932"
   inkscape:window-height="631"
   id="namedview3370"
   showgrid="false"
   inkscape:zoom="1.0605469"
   inkscape:cx="256"
   inkscape:cy="256"
   inkscape:window-x="0"
   inkscape:window-y="23"
   inkscape:window-maximized="0"
   inkscape:current-layer="Layer_1" />
<path
   style="fill:#73af00"
   d="M 473.655,335.448 H 38.345 C 17.167,335.448 0,318.281 0,297.103 V 38.345 C 0,17.168 17.167,0 38.345,0 h 435.31 C 494.832,0 512,17.167 512,38.345 v 258.759 c 0,21.177 -17.167,38.344 -38.345,38.344 z"
   id="path3325" />
<rect
   x="326.62"
   y="114.754"
   style="fill:#ff4b55"
   width="61.792999"
   height="220.69"
   id="rect3327" />
<rect
   x="388.41"
   y="114.754"
   style="fill:#464655"
   width="61.792999"
   height="220.69"
   id="rect3329" />
<g
   id="g3335"
   transform="translate(0,-88.276)">
	<path
   style="fill:#ff9b55"
   d="m 450.207,423.724 h 23.448 c 21.177,0 38.345,-17.167 38.345,-38.345 V 203.034 h -61.793 z"
   id="path3331" />
	<path
   style="fill:#ff9b55"
   d="m 496.952,128.858 c 0.192,-0.387 0.1,-0.855 -0.224,-1.141 -0.326,-0.287 -0.802,-0.317 -1.161,-0.079 -1.785,1.185 -3.585,2.262 -5.37,3.239 5.746,-4.749 6.551,-8.873 6.603,-9.173 0.065,-0.377 -0.103,-0.757 -0.424,-0.964 -0.323,-0.209 -0.737,-0.203 -1.054,0.012 -6.207,4.21 -12.419,7.215 -17.775,9.33 7.193,-4.545 10.044,-9.182 10.218,-9.475 0.225,-0.376 0.164,-0.857 -0.146,-1.166 -0.31,-0.31 -0.791,-0.367 -1.167,-0.142 -5.743,3.462 -12.545,6.191 -19.046,8.294 0.863,-1.332 1.478,-2.828 0.926,-3.669 -0.513,-0.779 -1.449,-0.779 -2.786,0.003 -2.706,1.586 -23.211,6.813 -31.157,8.76 -8.098,-1.463 -14.808,0.612 -16.899,1.379 -0.557,-0.663 -0.811,-1.305 -0.918,-1.807 -0.174,-0.817 -0.047,-1.647 0.339,-2.222 0.63,-0.937 1.932,-1.027 3.081,-1.106 0.5,-0.034 0.946,-0.065 1.336,-0.163 0.25,0.074 0.556,0.218 0.551,0.33 -0.023,0.436 0.252,0.83 0.668,0.961 0.417,0.13 0.866,-0.036 1.097,-0.407 0.058,-0.094 1.409,-2.305 0.363,-4.188 -0.761,-1.369 -2.508,-2.089 -5.194,-2.141 -1.102,-0.769 -5.267,-3.273 -10.399,-1.338 -5.198,1.961 -7.505,7.299 -8.268,9.555 -4.045,-0.562 -22.617,-3.396 -32.714,-9.323 -0.491,-0.223 -2.166,-0.881 -3.102,0.011 -0.575,0.545 -0.642,1.391 -0.202,2.516 0.234,0.596 0.593,1.178 1.069,1.75 -5.405,-2.481 -12.691,-5.946 -18.198,-9.027 -0.862,-0.399 -2.425,-0.941 -3.232,-0.096 -0.505,0.532 -0.498,1.304 0.023,2.298 0.11,0.21 0.219,0.444 0.337,0.701 0.536,1.155 1.267,2.73 3.053,4.548 -1.335,-0.729 -2.538,-1.479 -3.502,-2.229 -4.834,-3.761 -5.489,-4.129 -6.355,-3.545 -0.746,0.502 -0.505,1.351 -0.25,2.25 l 0.067,0.237 c 0.21,0.747 0.553,1.951 1.492,3.403 -0.749,-0.51 -1.393,-0.614 -1.9,-0.26 -0.302,0.209 -0.757,0.729 -0.407,1.875 0.841,2.741 6.65,9.958 17.702,12.083 -1.111,0.162 -2.28,0.282 -3.407,0.305 -0.428,0.009 -0.799,0.302 -0.906,0.717 -0.106,0.415 0.077,0.852 0.449,1.065 0.202,0.116 4.108,2.302 11.27,2.118 -1.071,0.27 -2.286,0.478 -3.63,0.558 -0.418,0.025 -0.771,0.319 -0.871,0.725 -0.1,0.406 0.076,0.83 0.434,1.046 0.213,0.129 4.369,2.573 10.804,2.212 l -0.561,0.345 c -0.323,0.199 -0.498,0.568 -0.446,0.943 0.052,0.375 0.32,0.685 0.684,0.789 0.201,0.057 3.828,1.067 8.346,0.589 l -0.794,0.565 c -0.319,0.227 -0.468,0.626 -0.374,1.005 0.094,0.38 0.408,0.665 0.796,0.719 0.082,0.012 0.666,0.087 1.602,0.087 0.617,0 1.387,-0.034 2.265,-0.141 -0.02,0.228 0.007,0.455 0.082,0.681 0.452,1.361 2.456,1.69 3.123,1.699 0.041,0.001 0.081,0.001 0.121,0.001 0.807,0 1.66,-0.114 2.529,-0.287 1.393,1.301 3.936,1.182 6.403,0.608 -0.146,0.222 -0.257,0.444 -0.327,0.663 -0.142,0.451 -0.034,0.911 0.289,1.233 0.314,0.311 1.071,1.064 7.967,-0.876 -0.029,0.022 -0.057,0.044 -0.086,0.066 -0.917,0.71 -0.859,1.443 -0.742,1.817 0.423,1.356 3.465,2.225 8.985,2.595 0.122,3.07 -0.73,6.404 -0.74,6.441 -0.096,0.367 0.035,0.757 0.334,0.992 0.298,0.233 0.707,0.269 1.043,0.09 0.319,-0.172 0.637,-0.394 0.937,-0.633 l -0.026,1.015 c -0.01,0.369 0.193,0.71 0.521,0.876 0.138,0.07 0.286,0.104 0.434,0.104 0.038,0 0.073,-0.013 0.11,-0.018 -0.103,0.865 -0.454,1.898 -1.562,2.141 -0.503,0.11 -1.037,0.164 -1.553,0.217 -2.35,0.241 -5.013,0.514 -5.434,5.899 -0.032,0.404 0.195,0.785 0.566,0.949 0.37,0.162 0.803,0.076 1.082,-0.218 l 1.023,-1.088 c 0.602,0.148 1.561,0.3 2.588,0.134 -0.258,1.246 -0.182,2.78 1.065,4.081 0.27,0.281 0.684,0.37 1.046,0.225 0.362,-0.146 0.599,-0.497 0.599,-0.886 v -0.69 c 0.593,-0.138 1.38,-0.426 2.124,-1.018 0.436,0.941 1.268,2.045 2.852,2.977 0.15,0.088 0.318,0.131 0.484,0.131 0.219,0 0.436,-0.075 0.61,-0.221 0.31,-0.257 0.425,-0.682 0.287,-1.062 l -0.499,-1.372 c 0.348,-0.343 0.8,-0.834 1.195,-1.358 0.195,0.284 0.523,0.447 0.873,0.413 0.363,-0.035 0.675,-0.274 0.803,-0.616 l 0.351,-0.935 c 0.207,-0.057 0.405,-0.126 0.594,-0.203 0.235,2.069 1.826,3.791 1.922,3.893 0.183,0.194 0.436,0.301 0.696,0.301 0.077,0 0.156,-0.009 0.233,-0.029 0.337,-0.085 0.6,-0.344 0.691,-0.679 l 0.532,-1.986 c 1.41,-0.715 1.548,-2.008 1.634,-2.814 0.017,-0.158 0.041,-0.377 0.045,-0.488 0.551,0.271 1.719,1.583 2.6,2.944 0.175,0.27 0.476,0.436 0.798,0.437 0.328,-0.023 0.623,-0.159 0.802,-0.428 0,0 0.746,-1.13 1.109,-1.789 1.54,-2.795 -0.793,-4.469 -1.914,-5.273 -0.275,-0.198 -0.652,-0.468 -0.713,-0.543 -0.211,-0.512 -0.137,-0.989 0.002,-1.359 0.935,0.644 1.997,1.187 3.175,1.464 0.073,0.018 0.146,0.025 0.218,0.025 0.307,0 0.601,-0.149 0.782,-0.408 0.224,-0.32 0.231,-0.745 0.017,-1.071 -0.021,-0.033 -1.778,-2.735 -2.91,-6.058 1.828,1.073 4.303,2.368 5.587,2.368 0.881,0 1.217,-0.548 1.322,-0.783 0.061,-0.138 0.171,-0.388 0.084,-0.856 1.699,0.918 3.616,1.63 5.073,1.254 0.43,-0.11 1.439,-0.371 1.592,-1.276 0.077,-0.458 -0.077,-0.829 -0.415,-1.194 1.578,0.383 3.279,0.574 4.948,0.353 1.391,-0.183 1.802,-0.858 1.9,-1.393 0.063,-0.342 0.175,-0.999 -1.066,-2.241 2.397,-0.131 4.537,-0.655 4.713,-2.101 0.015,-0.13 -0.009,-0.248 -0.02,-0.37 7.704,-0.84 13.566,-5.658 13.825,-5.875 0.075,-0.063 0.126,-0.141 0.177,-0.22 4.664,-0.583 9.962,-1.636 14.251,-3.564 8.094,-3.639 12.193,-8.552 11.459,-10.335 -0.213,-0.519 -0.825,-0.894 -1.58,-0.612 -0.212,0.079 -0.641,0.253 -1.203,0.481 4.793,-3.893 6.668,-7.503 6.847,-7.863 z"
   id="path3333" />
</g>
<path
   style="fill:#464655"
   d="m 496.952,40.582 c 0.192,-0.387 0.1,-0.855 -0.224,-1.141 -0.326,-0.287 -0.802,-0.317 -1.161,-0.079 -1.785,1.186 -3.586,2.262 -5.37,3.239 5.746,-4.749 6.552,-8.873 6.603,-9.173 0.065,-0.377 -0.103,-0.758 -0.424,-0.964 -0.323,-0.209 -0.737,-0.204 -1.054,0.012 -6.207,4.21 -12.419,7.215 -17.775,9.33 7.194,-4.545 10.044,-9.181 10.218,-9.474 0.225,-0.376 0.164,-0.857 -0.146,-1.167 -0.31,-0.31 -0.791,-0.367 -1.167,-0.141 -5.743,3.462 -12.545,6.191 -19.046,8.295 0.863,-1.332 1.478,-2.828 0.926,-3.669 -0.513,-0.78 -1.449,-0.78 -2.786,0.003 -2.706,1.586 -23.211,6.813 -31.156,8.76 -8.098,-1.463 -14.808,0.612 -16.899,1.379 -0.556,-0.663 -0.811,-1.305 -0.919,-1.806 -0.174,-0.817 -0.047,-1.647 0.339,-2.222 0.63,-0.937 1.932,-1.026 3.081,-1.106 0.499,-0.034 0.945,-0.065 1.336,-0.162 0.25,0.073 0.556,0.218 0.552,0.329 -0.023,0.436 0.252,0.83 0.668,0.961 0.417,0.13 0.866,-0.036 1.098,-0.407 0.059,-0.093 1.408,-2.305 0.363,-4.188 -0.761,-1.369 -2.507,-2.089 -5.195,-2.141 -1.103,-0.769 -5.267,-3.273 -10.399,-1.338 -5.197,1.96 -7.505,7.299 -8.268,9.555 -4.045,-0.562 -22.617,-3.396 -32.714,-9.323 -0.49,-0.223 -2.165,-0.879 -3.102,0.011 -0.575,0.545 -0.642,1.391 -0.202,2.516 0.234,0.596 0.593,1.178 1.069,1.75 -5.405,-2.481 -12.69,-5.946 -18.199,-9.027 -0.861,-0.399 -2.425,-0.942 -3.231,-0.096 -0.505,0.532 -0.499,1.305 0.023,2.298 0.11,0.21 0.218,0.444 0.337,0.701 0.536,1.155 1.266,2.73 3.053,4.55 -1.334,-0.729 -2.538,-1.479 -3.502,-2.229 -4.834,-3.761 -5.49,-4.129 -6.355,-3.545 -0.746,0.503 -0.505,1.351 -0.25,2.25 l 0.067,0.237 c 0.21,0.747 0.552,1.951 1.492,3.403 -0.749,-0.51 -1.393,-0.614 -1.9,-0.26 -0.302,0.207 -0.757,0.729 -0.406,1.875 0.84,2.741 6.65,9.956 17.702,12.083 -1.111,0.162 -2.279,0.282 -3.407,0.305 -0.429,0.009 -0.8,0.302 -0.906,0.717 -0.106,0.415 0.077,0.851 0.449,1.065 0.202,0.116 4.108,2.302 11.27,2.116 -1.071,0.27 -2.286,0.479 -3.631,0.558 -0.417,0.024 -0.771,0.319 -0.871,0.725 -0.1,0.406 0.076,0.83 0.435,1.046 0.213,0.129 4.369,2.574 10.804,2.212 l -0.561,0.345 c -0.322,0.199 -0.498,0.568 -0.446,0.943 0.052,0.375 0.321,0.685 0.684,0.789 0.201,0.057 3.828,1.066 8.346,0.589 l -0.794,0.565 c -0.319,0.227 -0.468,0.626 -0.374,1.006 0.093,0.38 0.408,0.665 0.796,0.718 0.082,0.012 0.667,0.088 1.603,0.088 0.617,0 1.387,-0.034 2.265,-0.141 -0.02,0.228 0.007,0.456 0.082,0.681 0.452,1.361 2.456,1.69 3.123,1.699 0.041,0 0.081,0 0.121,0 0.807,0 1.658,-0.114 2.529,-0.287 1.393,1.301 3.936,1.182 6.403,0.608 -0.146,0.222 -0.257,0.444 -0.328,0.664 -0.142,0.451 -0.034,0.911 0.289,1.233 0.315,0.311 1.071,1.063 7.968,-0.876 -0.029,0.023 -0.057,0.044 -0.086,0.067 -0.917,0.71 -0.859,1.443 -0.742,1.817 0.423,1.356 3.465,2.225 8.985,2.595 0.122,3.07 -0.732,6.404 -0.74,6.441 -0.096,0.367 0.035,0.757 0.334,0.992 0.298,0.233 0.707,0.269 1.043,0.09 0.32,-0.172 0.637,-0.394 0.937,-0.633 l -0.026,1.014 c -0.01,0.369 0.193,0.71 0.522,0.876 0.138,0.07 0.285,0.104 0.434,0.104 0.038,0 0.073,-0.014 0.11,-0.019 -0.103,0.865 -0.454,1.898 -1.564,2.141 -0.503,0.11 -1.036,0.164 -1.553,0.217 -2.35,0.241 -5.013,0.514 -5.434,5.9 -0.031,0.404 0.195,0.783 0.566,0.948 0.369,0.161 0.803,0.076 1.081,-0.218 l 1.023,-1.088 c 0.601,0.148 1.562,0.299 2.588,0.134 -0.258,1.246 -0.182,2.78 1.065,4.081 0.27,0.281 0.684,0.37 1.046,0.225 0.362,-0.146 0.598,-0.497 0.598,-0.886 v -0.69 c 0.593,-0.138 1.38,-0.426 2.124,-1.018 0.436,0.941 1.268,2.046 2.852,2.977 0.15,0.088 0.318,0.132 0.484,0.132 0.218,0 0.436,-0.075 0.611,-0.221 0.31,-0.257 0.425,-0.682 0.287,-1.06 l -0.499,-1.373 c 0.348,-0.343 0.801,-0.833 1.195,-1.357 0.195,0.284 0.523,0.447 0.873,0.413 0.364,-0.035 0.675,-0.274 0.804,-0.616 l 0.351,-0.935 c 0.207,-0.057 0.405,-0.126 0.594,-0.203 0.235,2.069 1.826,3.791 1.922,3.893 0.183,0.195 0.436,0.301 0.695,0.301 0.078,0 0.156,-0.009 0.233,-0.029 0.337,-0.085 0.6,-0.344 0.69,-0.679 l 0.532,-1.986 c 1.41,-0.714 1.548,-2.008 1.634,-2.814 0.017,-0.158 0.041,-0.377 0.045,-0.488 0.551,0.271 1.719,1.583 2.6,2.944 0.175,0.27 0.476,0.436 0.798,0.437 0.328,-0.023 0.623,-0.16 0.802,-0.429 0,0 0.746,-1.129 1.109,-1.789 1.54,-2.795 -0.793,-4.469 -1.914,-5.273 -0.275,-0.198 -0.652,-0.468 -0.713,-0.543 -0.21,-0.512 -0.137,-0.989 0.001,-1.359 0.935,0.644 1.998,1.187 3.175,1.464 0.073,0.018 0.146,0.025 0.218,0.025 0.307,0 0.601,-0.149 0.782,-0.408 0.225,-0.32 0.231,-0.745 0.017,-1.071 -0.021,-0.033 -1.778,-2.735 -2.91,-6.058 1.83,1.071 4.303,2.368 5.587,2.368 0.881,0 1.217,-0.548 1.321,-0.783 0.062,-0.138 0.171,-0.388 0.084,-0.856 1.7,0.919 3.616,1.63 5.073,1.254 0.43,-0.111 1.439,-0.372 1.592,-1.276 0.077,-0.459 -0.077,-0.828 -0.415,-1.194 1.578,0.383 3.279,0.574 4.947,0.353 1.391,-0.184 1.802,-0.858 1.901,-1.393 0.063,-0.342 0.175,-0.999 -1.066,-2.241 2.397,-0.131 4.537,-0.655 4.713,-2.101 0.017,-0.13 -0.008,-0.248 -0.02,-0.37 7.704,-0.84 13.566,-5.658 13.825,-5.875 0.075,-0.063 0.126,-0.141 0.177,-0.22 4.664,-0.582 9.962,-1.635 14.251,-3.563 8.094,-3.639 12.193,-8.552 11.459,-10.335 -0.213,-0.519 -0.825,-0.895 -1.58,-0.612 -0.211,0.079 -0.641,0.253 -1.202,0.482 4.794,-3.9 6.669,-7.51 6.848,-7.87 z m -14.069,-5.423 c -3.518,3.442 -10.146,8.392 -21.077,11.264 -0.095,0.025 -0.177,0.074 -0.256,0.124 -2.298,-0.179 -5.204,-0.598 -7.752,-1.55 8.078,-1.832 19.427,-4.988 29.085,-9.838 z m -48.64,11.167 c 0.135,0.024 0.271,0.021 0.403,-0.011 1.137,-0.278 27.449,-6.731 31.673,-8.91 -0.491,0.968 -1.434,2.324 -2.206,2.89 -0.022,0.015 -0.032,0.04 -0.052,0.057 -11.33,3.363 -20.945,4.781 -21.103,4.803 -0.522,0.075 -0.885,0.559 -0.81,1.081 0.075,0.522 0.557,0.884 1.081,0.81 0.087,-0.013 3.007,-0.442 7.49,-1.378 2.321,1.331 5.174,2.065 7.772,2.462 -3.881,0.328 -7.473,0.14 -7.532,0.137 -0.452,-0.017 -0.893,0.298 -0.988,0.761 -0.095,0.463 0.162,0.927 0.607,1.089 l 3.613,1.324 c -5.08,1.081 -9.978,0.066 -10.036,0.054 -0.392,-0.087 -0.791,0.084 -1.005,0.419 -0.214,0.335 -0.199,0.769 0.04,1.087 0.69,0.92 2.636,1.887 4.334,2.6 -6.984,1.322 -11.79,-2.959 -12.017,-3.165 -0.388,-0.354 -0.99,-0.329 -1.345,0.057 -0.356,0.386 -0.335,0.986 0.047,1.345 5.517,5.163 15.799,7.362 20.414,8.119 -0.683,0.404 -1.507,0.785 -2.37,0.939 -3.542,0.629 -11.72,-3.261 -17.474,-6.408 l -4.608,-2.659 c -0.451,-0.262 -1.031,-0.11 -1.298,0.338 -0.268,0.449 -0.125,1.03 0.32,1.303 0.221,0.136 2.028,1.242 4.596,2.653 l 11.215,6.473 c -3.441,0.425 -7.071,-0.345 -7.116,-0.355 -0.028,-0.006 -0.054,0.002 -0.082,-0.001 -2.625,-1.846 -6.861,-4.954 -13.221,-10.228 -1.024,-3.654 -2.942,-5.259 -5.343,-6.784 2.715,-0.833 8.439,-2.132 15.001,-0.902 z m 6.932,20.255 c -0.006,0.002 -0.01,0.007 -0.017,0.009 0,0 -0.009,-0.007 -0.013,-0.01 0.011,0 0.021,0.001 0.03,0.001 z m -62.221,-4.332 2.185,-1.555 c 0.388,-0.276 0.514,-0.797 0.294,-1.219 -0.221,-0.424 -0.721,-0.617 -1.169,-0.459 -3.609,1.289 -7.264,1.158 -9.551,0.864 l 2.53,-1.557 c 0.403,-0.248 0.564,-0.754 0.377,-1.19 -0.185,-0.435 -0.661,-0.668 -1.121,-0.548 -4.605,1.209 -8.44,0.707 -10.951,0.014 3.991,-0.932 6.308,-2.698 6.431,-2.792 0.349,-0.27 0.467,-0.745 0.286,-1.148 -0.182,-0.402 -0.614,-0.623 -1.048,-0.546 -5.261,0.991 -9.323,0.664 -12.051,0.1 2.818,-0.473 5.058,-1.146 5.197,-1.188 0.017,-0.004 0.028,-0.018 0.043,-0.023 0.065,-0.023 0.119,-0.06 0.177,-0.095 0.049,-0.031 0.098,-0.056 0.14,-0.094 0.046,-0.042 0.078,-0.092 0.116,-0.142 0.036,-0.049 0.074,-0.093 0.1,-0.147 0.024,-0.052 0.035,-0.109 0.051,-0.164 0.018,-0.065 0.036,-0.126 0.041,-0.194 0,-0.015 0.009,-0.029 0.009,-0.045 0,-0.05 -0.02,-0.094 -0.028,-0.142 -0.007,-0.047 10e-4,-0.095 -0.013,-0.143 -0.004,-0.015 -0.017,-0.025 -0.022,-0.04 -0.023,-0.064 -0.059,-0.118 -0.094,-0.175 -0.031,-0.05 -0.056,-0.102 -0.095,-0.145 -0.041,-0.045 -0.09,-0.077 -0.139,-0.114 -0.05,-0.038 -0.095,-0.077 -0.151,-0.104 -0.051,-0.024 -0.108,-0.035 -0.163,-0.05 -0.065,-0.019 -0.127,-0.038 -0.195,-0.042 -0.017,-10e-4 -0.029,-0.01 -0.045,-0.01 -12.271,-0.115 -19.043,-6.57 -21.212,-9.864 3.823,2.664 8.846,4.925 12.504,6.223 h 0.003 c 4.865,1.879 10.929,3.076 11.186,3.126 0.516,0.1 1.02,-0.235 1.121,-0.754 0.102,-0.518 -0.236,-1.02 -0.754,-1.121 -0.062,-0.012 -6.177,-1.218 -10.891,-3.043 -10.166,-3.934 -12.226,-8.195 -12.913,-10.347 1.099,0.781 2.575,1.93 3.366,2.545 5.951,4.628 19.797,9.005 20.384,9.19 0.502,0.159 1.031,-0.117 1.194,-0.615 0.162,-0.498 -0.105,-1.033 -0.6,-1.202 -14.317,-4.877 -16.467,-9.514 -17.622,-12.004 -0.1,-0.216 -0.194,-0.418 -0.287,-0.606 0.193,0.06 0.394,0.134 0.557,0.207 7.937,4.441 19.602,9.7 24.011,11.652 -0.793,0.382 -1.625,0.701 -2.176,0.732 -0.367,0.021 -0.692,0.25 -0.831,0.593 -0.14,0.341 -0.071,0.732 0.177,1.004 0.059,0.064 0.994,1.067 2.812,1.46 l -1.29,0.841 c -0.302,0.198 -0.468,0.55 -0.427,0.909 0.042,0.36 0.282,0.665 0.622,0.789 0.088,0.032 1.562,0.551 3.51,0.756 l -1.074,0.783 c -0.273,0.199 -0.419,0.527 -0.387,0.863 0.032,0.336 0.239,0.63 0.545,0.774 0.125,0.058 1.593,0.725 3.949,0.614 l -0.081,0.056 c -0.31,0.218 -0.462,0.599 -0.388,0.971 0.074,0.372 0.364,0.664 0.735,0.745 0.146,0.031 1.95,0.402 4.538,0.108 l -0.588,0.392 c -0.313,0.207 -0.474,0.582 -0.413,0.952 0.062,0.371 0.335,0.671 0.7,0.767 0.278,0.072 4.458,1.112 9.944,-0.628 -1.15,0.757 -2.222,1.306 -3.108,1.505 -0.404,0.092 -0.704,0.433 -0.741,0.846 -0.038,0.413 0.196,0.803 0.577,0.966 0.025,0.011 0.119,0.047 0.244,0.092 -2.931,1.94 -5.928,2.614 -8.037,2.816 z m -4.622,-17.33 c -0.185,-0.427 -0.649,-0.661 -1.103,-0.548 -1.106,0.27 -2.001,0.243 -2.691,0.097 1.132,-0.504 2.099,-1.105 2.271,-1.214 0.07,-0.044 0.129,-0.097 0.183,-0.154 1.7,0.684 3.629,1.341 5.793,1.969 l -3.667,2.676 c -1.228,0.13 -2.446,0.013 -3.417,-0.161 l 2.276,-1.484 c 0.39,-0.256 0.54,-0.754 0.355,-1.181 z m 8.583,19.656 c -0.363,-0.004 -1.033,-0.19 -1.282,-0.367 0.063,-0.1 0.222,-0.297 0.575,-0.577 2.255,-0.578 4.845,-1.674 7.327,-3.699 2.604,0.189 6.699,-0.43 10.872,-4.623 0.154,0.279 0.316,0.562 0.503,0.85 -0.452,0.341 -11.236,8.476 -17.995,8.416 z m 7.452,-6.523 c 3.089,-1.859 6.545,-5.092 8.701,-7.253 0.033,0.79 0.186,1.697 0.529,2.692 -0.074,0.044 -0.151,0.084 -0.214,0.15 -3.424,3.611 -6.755,4.407 -9.016,4.411 z m 17.944,12.366 c -3.145,-0.215 -6.073,-0.704 -7.143,-1.176 2.602,-2.031 3.348,-2.927 3.426,-3.026 0.263,-0.329 0.279,-0.792 0.04,-1.139 -0.241,-0.348 -0.681,-0.498 -1.08,-0.366 -3.428,1.108 -7.433,2.189 -9.411,2.467 0.908,-0.815 2.524,-1.845 3.982,-2.575 0.468,-0.234 0.661,-0.801 0.433,-1.271 -0.228,-0.471 -0.792,-0.669 -1.266,-0.448 -2.6,1.223 -6.322,2.455 -8.651,2.436 6.34,-2.283 12.804,-7.166 13.419,-7.637 0.488,0.581 1.026,1.172 1.674,1.773 5.705,5.304 5.08,9.465 4.577,10.962 z m 1.574,5.824 c -0.052,0.063 -0.122,0.146 -0.209,0.242 0.207,-1.414 0.355,-3.188 0.22,-4.875 0.525,-1.155 1.589,-4.579 -1.165,-9.121 1.816,0.264 5.985,1.138 7.789,3.762 0.239,0.348 0.477,0.734 0.712,1.134 l -0.002,0.003 c -0.089,0.211 -1.896,4.586 -1.319,10.055 -0.423,-0.498 -0.826,-1.108 -1.097,-1.823 -0.128,-0.335 -0.431,-0.572 -0.789,-0.61 -0.353,-0.038 -0.705,0.125 -0.903,0.425 -0.403,0.611 -0.985,1.449 -1.565,2.212 l 0.02,-0.772 c 0.011,-0.407 -0.238,-0.776 -0.62,-0.919 -0.38,-0.142 -0.812,-0.028 -1.072,0.287 z m 6.159,11.892 c -0.19,0.569 -1.209,1.668 -1.871,2.265 -0.023,0.021 -0.046,0.044 -0.067,0.067 -0.499,-0.825 -0.481,-1.478 -0.48,-1.514 0.033,-0.447 -0.249,-0.856 -0.678,-0.986 -0.43,-0.129 -0.891,0.058 -1.109,0.448 -0.874,1.56 -2.408,1.72 -2.689,1.738 0.049,-1.151 0.713,-2.197 0.756,-2.261 0.264,-0.402 0.188,-0.938 -0.178,-1.25 -0.364,-0.312 -0.905,-0.306 -1.262,0.017 -1.402,1.269 -3.629,0.448 -3.649,0.441 -0.092,-0.035 -0.186,-0.056 -0.281,-0.063 0.617,-1.342 1.696,-1.452 3.187,-1.604 0.569,-0.058 1.158,-0.119 1.767,-0.253 2.94,-0.643 3.287,-3.893 3.059,-5.522 -0.007,-0.045 -0.031,-0.082 -0.044,-0.124 0.46,-0.566 0.919,-1.186 1.3,-1.721 0.186,0.285 0.386,0.542 0.587,0.785 0.006,0.697 0.045,2.846 0.287,3.977 0.192,0.898 0.849,1.503 1.479,1.891 -0.104,0.203 -0.192,0.417 -0.248,0.649 -0.225,0.925 -0.034,1.942 0.252,2.814 -0.044,0.069 -0.093,0.129 -0.118,0.206 z m 0.503,-5.958 c -0.092,-0.426 -0.149,-1.096 -0.186,-1.77 0.267,0.184 0.455,0.295 0.482,0.309 0.332,0.184 0.744,0.156 1.046,-0.077 0.301,-0.232 0.437,-0.621 0.345,-0.989 -1.009,-4.035 -0.333,-7.81 0.227,-9.878 1.645,3.615 2.825,8.076 2.417,11.018 -0.063,0.45 0.201,0.882 0.629,1.033 0.089,0.031 0.181,0.041 0.271,0.045 -0.01,0.1 -0.02,0.206 -0.032,0.299 -0.967,-0.03 -2.559,0.118 -4.102,0.921 -0.442,-0.186 -1.014,-0.524 -1.097,-0.911 z m 12.58,4.938 c -0.076,0.138 -0.17,0.297 -0.27,0.461 -1.14,-1.51 -2.706,-3.063 -4.046,-2.557 -1.08,0.412 -1.191,1.451 -1.265,2.14 -0.088,0.831 -0.151,1.177 -0.844,1.415 -0.301,0.103 -0.531,0.349 -0.614,0.655 l -0.107,0.397 c -0.364,-0.802 -0.557,-1.77 -0.014,-2.595 0.278,-0.423 0.177,-0.988 -0.23,-1.29 -0.407,-0.301 -0.98,-0.233 -1.304,0.156 -0.009,0.01 -0.874,1.028 -2.132,1.207 -0.13,0.019 -0.253,0.064 -0.362,0.13 -0.183,-0.584 -0.288,-1.195 -0.173,-1.668 0.069,-0.282 0.209,-0.474 0.451,-0.621 1.913,-1.158 4.146,-0.829 4.165,-0.825 0.504,0.084 0.968,-0.235 1.082,-0.724 0.052,-0.218 0.461,-2.081 0.162,-3.641 l 1.236,-2.076 c 0.444,0.568 1.045,1.265 1.781,1.951 -0.406,0.744 -0.802,1.946 -0.237,3.317 0.227,0.552 0.755,0.93 1.366,1.367 1.558,1.119 1.971,1.681 1.355,2.801 z M 425.61,75.433 c -0.175,-0.287 -0.523,-0.442 -0.821,-0.459 -0.335,10e-4 -0.644,0.178 -0.817,0.466 l -1.241,2.086 c -0.524,-4.224 -2.514,-9.27 -4.637,-12.359 -2.76,-4.015 -9.585,-4.776 -10.872,-4.771 -0.626,-0.76 -1.325,-1.537 -2.188,-2.339 -5.665,-5.266 -3.802,-9.475 -3.712,-9.671 0.008,-0.017 0.006,-0.034 0.013,-0.051 0.025,-0.062 0.036,-0.124 0.047,-0.188 0.011,-0.058 0.025,-0.115 0.025,-0.174 0,-0.061 -0.014,-0.117 -0.024,-0.177 -0.012,-0.061 -0.021,-0.12 -0.043,-0.179 -0.022,-0.053 -0.054,-0.098 -0.086,-0.148 -0.035,-0.057 -0.069,-0.113 -0.118,-0.161 -0.013,-0.013 -0.018,-0.031 -0.032,-0.044 -0.034,-0.031 -0.076,-0.043 -0.114,-0.068 -0.039,-0.026 -0.066,-0.063 -0.109,-0.084 -0.018,-0.009 -0.036,-0.007 -0.054,-0.014 -0.062,-0.025 -0.124,-0.038 -0.189,-0.05 -0.06,-0.011 -0.116,-0.025 -0.174,-0.025 -0.061,0 -0.117,0.013 -0.177,0.024 -0.062,0.011 -0.121,0.02 -0.179,0.043 -0.053,0.021 -0.099,0.054 -0.149,0.085 -0.057,0.036 -0.113,0.07 -0.161,0.118 -0.013,0.013 -0.031,0.019 -0.043,0.032 l -10e-4,10e-4 v 0 c -6.482,7.081 -13.266,7.923 -16.781,7.775 l 4.077,-2.719 c 0.801,-0.448 1.61,-0.981 2.414,-1.612 0.404,-0.318 0.484,-0.896 0.184,-1.311 -0.301,-0.417 -0.877,-0.519 -1.303,-0.234 l -2.239,1.492 c -2.761,1.532 -5.429,1.944 -7.293,2.002 l 2.124,-1.489 c 1.632,-0.789 3.413,-1.974 5.289,-3.72 0.367,-0.342 0.408,-0.91 0.092,-1.3 -0.314,-0.39 -0.877,-0.468 -1.291,-0.182 l -5.064,3.55 c -2.406,1.133 -4.376,1.272 -5.699,1.151 l 7.241,-5.286 c 0.298,-0.217 0.444,-0.586 0.375,-0.948 -0.068,-0.362 -0.338,-0.652 -0.693,-0.747 -11.804,-3.142 -14.641,-6.349 -15.281,-7.982 -0.056,-0.143 -0.093,-0.258 -0.115,-0.348 0.238,0.036 0.557,0.126 0.763,0.213 11.565,6.796 33.231,9.518 34.147,9.632 0.472,0.047 0.91,-0.237 1.036,-0.693 0.327,-1.176 2.216,-7.14 7.349,-9.077 4.841,-1.823 8.653,1.126 8.811,1.249 0.17,0.136 0.38,0.21 0.597,0.21 2.057,0 3.421,0.41 3.839,1.156 0.134,0.239 0.173,0.513 0.159,0.787 -0.334,-0.17 -0.702,-0.284 -1.065,-0.338 -0.164,-0.025 -0.331,-0.006 -0.486,0.054 -0.188,0.073 -0.663,0.106 -1.081,0.135 -1.347,0.093 -3.383,0.233 -4.535,1.946 -0.68,1.011 -0.906,2.355 -0.621,3.687 0.178,0.831 0.623,1.917 1.638,2.977 0.1,0.198 0.259,0.342 0.448,0.43 0.348,0.309 0.736,0.614 1.199,0.904 2.254,1.409 3.908,2.71 4.787,5.899 0.007,0.113 0.036,0.22 0.082,0.323 0.36,1.44 0.575,3.241 0.623,5.585 0.011,0.521 0.437,0.936 0.954,0.936 0,0 0.014,0 0.021,0 0.527,-0.011 0.946,-0.448 0.936,-0.975 -0.028,-1.313 -0.114,-2.466 -0.243,-3.511 7.115,5.812 11.316,8.7 13.423,10.145 0.297,0.204 0.579,0.397 0.825,0.57 -2.144,0.195 -5.539,-1.762 -8.194,-3.786 -0.873,-0.788 -1.698,-1.439 -2.145,-1.781 -0.406,-0.311 -0.985,-0.247 -1.313,0.146 -0.328,0.392 -0.289,0.973 0.088,1.318 0.242,0.221 1.012,0.91 2.094,1.747 1.251,1.137 2.217,2.21 2.52,2.828 -1.487,-0.313 -5.566,-2.739 -8.883,-5.107 -0.409,-0.292 -0.972,-0.217 -1.292,0.169 -0.319,0.387 -0.285,0.956 0.078,1.301 2.29,2.174 3.7,4.16 4.597,8.416 v 0 c 0.511,2.428 1.501,4.732 2.346,6.402 -2.227,-1.521 -3.663,-3.85 -3.683,-3.882 z m 21.786,-2.65 c -5.056,0.664 -10.777,-3.19 -10.834,-3.229 -0.408,-0.278 -0.961,-0.201 -1.273,0.18 -0.316,0.38 -0.289,0.936 0.06,1.284 1.656,1.656 3.345,2.781 4.577,3.601 0.179,0.119 0.371,0.247 0.555,0.373 -1.838,-0.092 -5.032,-2.164 -6.793,-3.606 -0.386,-0.317 -0.953,-0.281 -1.299,0.083 -0.344,0.363 -0.349,0.931 -0.012,1.3 0.713,0.781 1.389,1.654 1.799,2.292 -1.396,-0.51 -3.751,-1.85 -5.452,-2.938 -0.393,-1.743 -0.877,-3.161 -1.473,-4.363 5.549,3.305 6.483,2.19 6.834,1.77 0.204,-0.245 0.433,-0.666 0.363,-1.286 0,-0.003 0,-0.007 0,-0.007 2.265,1.146 4.693,1.822 6.556,0.951 0.195,-0.092 0.476,-0.237 0.701,-0.468 3.438,1.921 5.237,3.359 5.784,4.049 -0.03,0.005 -0.061,0.01 -0.093,0.014 z m -1.298,-3.629 c -1.055,-0.716 -2.406,-1.54 -4.182,-2.504 -0.036,-0.02 -0.077,-0.021 -0.115,-0.035 0.313,0.012 0.633,0.021 0.962,0.021 0.918,0 1.885,-0.063 2.845,-0.203 0.073,0.047 0.143,0.099 0.231,0.127 2.959,0.93 4.74,1.637 5.31,2.11 -0.761,0.33 -2.945,0.545 -5.051,0.484 z m 5.629,-2.38 c 0,0 -0.011,0.003 -0.017,0.003 -0.768,-0.447 -1.86,-0.886 -3.25,-1.365 0.05,-0.1 0.088,-0.207 0.099,-0.323 0.023,-0.236 -0.043,-0.467 -0.175,-0.652 1.623,0.388 3.074,0.541 4.206,0.34 1.425,-0.254 2.716,-0.956 3.651,-1.587 h 0.001 c 0.959,0 3.682,-0.034 7.171,-0.321 -2.519,1.557 -6.815,3.692 -11.686,3.905 z m 38.528,-16.323 c -1.3,1.635 -4.252,4.311 -9.613,6.721 -7.321,3.292 -18.133,3.948 -22.639,4.075 -0.007,-0.072 -0.015,-0.143 -0.04,-0.213 -0.119,-0.351 -0.431,-0.601 -0.8,-0.643 -0.085,-0.009 -4.922,-0.572 -10.302,-2.194 3.225,0.305 6.269,0.456 9.117,0.456 8.043,0 14.613,-1.121 19.956,-2.801 0.028,-0.004 0.055,0.002 0.083,-0.004 2.944,-0.771 9.96,-3.645 13.728,-5.188 0.179,-0.074 0.348,-0.143 0.51,-0.209 z m -5.095,-0.912 c -6.215,3.847 -17.053,7.957 -34.197,7.039 0.333,-0.161 0.552,-0.495 0.544,-0.872 -0.008,-0.403 -0.267,-0.757 -0.649,-0.886 -0.767,-0.259 -1.678,-0.602 -2.564,-0.973 2.624,0.077 6.04,-0.168 9.287,-1.419 0.371,-0.143 0.615,-0.501 0.611,-0.899 -0.003,-0.398 -0.253,-0.753 -0.627,-0.889 l -1.248,-0.457 c 3.167,-0.132 7.05,-0.547 9.758,-1.687 0.427,-0.18 0.662,-0.639 0.561,-1.09 -0.006,-0.023 -0.02,-0.042 -0.026,-0.065 5.721,-1.433 16.255,-4.74 27.129,-11.553 -2.342,3.892 -9.145,11.129 -28.403,15.68 -0.499,0.118 -0.817,0.608 -0.718,1.111 0.098,0.504 0.576,0.834 1.081,0.762 0.143,-0.022 13.235,-2.078 26.752,-9.815 -1.602,1.781 -3.968,3.956 -7.291,6.013 z"
   id="path3337" />
<g
   id="g3339"
   transform="translate(0,-88.276)">
</g>
<g
   id="g3341"
   transform="translate(0,-88.276)">
</g>
<g
   id="g3343"
   transform="translate(0,-88.276)">
</g>
<g
   id="g3345"
   transform="translate(0,-88.276)">
</g>
<g
   id="g3347"
   transform="translate(0,-88.276)">
</g>
<g
   id="g3349"
   transform="translate(0,-88.276)">
</g>
<g
   id="g3351"
   transform="translate(0,-88.276)">
</g>
<g
   id="g3353"
   transform="translate(0,-88.276)">
</g>
<g
   id="g3355"
   transform="translate(0,-88.276)">
</g>
<g
   id="g3357"
   transform="translate(0,-88.276)">
</g>
<g
   id="g3359"
   transform="translate(0,-88.276)">
</g>
<g
   id="g3361"
   transform="translate(0,-88.276)">
</g>
<g
   id="g3363"
   transform="translate(0,-88.276)">
</g>
<g
   id="g3365"
   transform="translate(0,-88.276)">
</g>
<g
   id="g3367"
   transform="translate(0,-88.276)">
</g>
</svg>
