<svg xmlns="http://www.w3.org/2000/svg" xml:space="preserve" width="512" height="335.45001"><path style="fill:#41479b" d="M473.655 0H38.345C17.167 0 0 17.167 0 38.345v258.76c0 21.177 17.167 38.345 38.345 38.345h435.31c21.177 0 38.345-17.167 38.345-38.345V38.345C512 17.167 494.833 0 473.655 0z"/><path style="fill:#f5f5f5" d="M8.828 167.724h15.334l81.77-53.574v53.574h44.138V114.15l81.769 53.574h15.334c4.875 0 8.828-3.953 8.828-8.828v-7.002l-70.155-45.963H256V61.793h-70.155L256 15.83V8.828C256 3.952 252.047 0 247.172 0h-15.334l-81.77 53.574V0H105.93v53.574L26.844 1.758C17.61 4.658 9.89 10.961 5.133 19.192l65.023 42.601H0v44.138h70.155L0 151.894v7.002c0 4.875 3.951 8.828 8.828 8.828z"/><path style="fill:#ff4b55" d="M141.241 88.275h-26.482v70.621H0v26.482h114.759v70.621h26.482v-70.621H256v-26.482H141.241z" transform="translate(0 -88.275)"/><path style="fill:#ff4b55" d="m8.227 102.901 72.662 47.167h16.214l-82.496-53.55c-2.369 1.87-4.51 4.013-6.38 6.383zm158.056 47.167 88.374-57.366c-1.536-2.599-4.246-4.427-7.485-4.427h-1.91l-95.193 61.793zm-76.809 44.138L1.269 251.462c1.521 2.662 4.273 4.537 7.559 4.537h1.665l95.196-61.793zm166.386 53.659-82.666-53.658H156.98l93.874 60.935c2.812-1.305 4.741-4.04 5.006-7.277z" transform="translate(0 -88.275)"/><path style="fill:#f5f5f5" d="m130.671 304.13 6.663 21.997 21.353-8.505c1.822-.726 3.478 1.352 2.366 2.966l-13.044 18.924 19.962 11.391c1.703.972 1.112 3.562-.844 3.699l-22.929 1.601 3.541 22.709c.302 1.938-2.092 3.091-3.418 1.646l-15.548-16.928-15.548 16.928c-1.326 1.444-3.72.291-3.418-1.646l3.541-22.709-22.929-1.601c-1.956-.137-2.548-2.727-.844-3.699l19.962-11.391-13.044-18.924c-1.112-1.614.544-3.692 2.366-2.966l21.353 8.505 6.663-21.997c.571-1.877 3.228-1.877 3.796 0zm262.608-156.401 3.255 10.745 10.43-4.154c.889-.354 1.699.66 1.155 1.449l-6.371 9.245 9.751 5.565c.832.474.543 1.74-.413 1.806l-11.2.782 1.729 11.093c.148.947-1.022 1.51-1.67.804l-7.595-8.269-7.595 8.269c-.648.705-1.817.142-1.67-.804l1.729-11.093-11.2-.782c-.956-.067-1.245-1.332-.413-1.806l9.751-5.565-6.371-9.245c-.544-.789.266-1.803 1.155-1.449l10.431 4.154 3.255-10.745c.281-.918 1.58-.918 1.857 0zm-72.577 82.475 3.255 10.745 10.431-4.154c.889-.354 1.699.66 1.155 1.449l-6.371 9.245 9.751 5.565c.832.474.543 1.74-.413 1.806l-11.2.782 1.73 11.093c.148.947-1.022 1.51-1.67.804l-7.595-8.269-7.595 8.269c-.648.705-1.817.142-1.67-.804l1.73-11.093-11.2-.782c-.956-.067-1.245-1.332-.413-1.806l9.751-5.565-6.371-9.245c-.544-.789.266-1.803 1.155-1.449l10.431 4.154 3.255-10.745c.278-.917 1.576-.917 1.854 0zm141.241-35.311 3.255 10.745 10.431-4.154c.889-.354 1.699.66 1.155 1.449l-6.371 9.245 9.751 5.565c.832.474.543 1.74-.413 1.806l-11.2.782 1.73 11.093c.148.947-1.022 1.51-1.67.804l-7.595-8.269-7.595 8.269c-.648.705-1.817.142-1.669-.804l1.73-11.093-11.2-.782c-.956-.067-1.245-1.332-.413-1.806l9.751-5.565-6.371-9.245c-.544-.789.266-1.803 1.155-1.449l10.431 4.154 3.255-10.745c.277-.916 1.575-.916 1.853 0zm-68.664 141.242 3.255 10.745 10.43-4.155c.889-.354 1.699.66 1.155 1.449l-6.371 9.245 9.751 5.565c.832.474.543 1.74-.413 1.806l-11.2.782 1.729 11.093c.148.947-1.022 1.51-1.67.804l-7.595-8.269-7.595 8.269c-.648.705-1.817.142-1.67-.804l1.729-11.093-11.2-.782c-.956-.066-1.245-1.332-.413-1.806l9.751-5.565-6.371-9.245c-.544-.789.266-1.803 1.155-1.449l10.431 4.155 3.255-10.745c.281-.916 1.58-.916 1.857 0zm25.182-86.623-2.613 7.836-8.259.064c-1.069.009-1.513 1.373-.652 2.008l6.644 4.907-2.492 7.875c-.322 1.02.839 1.863 1.708 1.241l6.72-4.803 6.72 4.803c.87.621 2.03-.222 1.708-1.241l-2.492-7.875 6.645-4.907c.861-.636.417-1.999-.652-2.008l-8.259-.064-2.613-7.836c-.34-1.014-1.775-1.014-2.113 0z" transform="translate(0 -88.275)"/></svg>