<svg xmlns="http://www.w3.org/2000/svg" xml:space="preserve" width="512" height="335.45001"><path style="fill:#41479b" d="M38.345 335.448h132.322V0H38.345C17.167 0 0 17.167 0 38.345v258.759c0 21.177 17.167 38.344 38.345 38.344z"/><path style="fill:#ffe15a" d="M170.67.004h170.67v335.45001H170.67z"/><path style="fill:#41479b" d="M473.655 335.448c21.177 0 38.345-17.167 38.345-38.345V38.345C512 17.168 494.833 0 473.655 0H341.334v335.448z"/><path style="fill:#464655" d="M326.621 118.98s-24.564 0-42.987 18.423h12.281s-11.898 21.493-18.039 58.339l-12.665-2.068v-56.455l12.281 4.021L256 88.276l-21.493 52.966 12.281-4.095v56.527l-12.665 2.068c-6.141-36.845-18.039-58.339-18.039-58.339h12.281c-18.422-18.422-42.986-18.422-42.986-18.422 30.705 36.845 30.705 98.255 30.705 98.255l30.705-5.117v41.963h18.423v-41.963l30.705 5.117c-.001 0-.001-61.41 30.704-98.256z"/></svg>