<svg xmlns="http://www.w3.org/2000/svg" xml:space="preserve" width="512" height="335.45001"><path style="fill:#73af00" d="M473.655 0H38.345C17.167 0 0 17.167 0 38.345v258.76c0 21.177 17.167 38.345 38.345 38.345h435.31c21.177 0 38.345-17.167 38.345-38.345V38.345C512 17.167 494.833 0 473.655 0z"/><path style="fill:#ffe15a" d="M251.41 46.932 65.354 160.183c-5.651 3.439-5.651 11.641 0 15.081L251.41 288.517c2.819 1.716 6.36 1.716 9.18 0l186.056-113.252c5.651-3.439 5.651-11.641 0-15.081L260.59 46.932c-2.819-1.715-6.361-1.715-9.18 0z"/><circle style="fill:#41479b" cx="256" cy="167.72395" r="70.62"/><path style="fill:#f5f5f5" d="M195.4 219.872c-3.332 5.578-5.905 11.64-7.605 18.077 39.149-2.946 97.062 8.006 133.922 43.773 2.406-6.141 3.995-12.683 4.59-19.522-38.06-32.033-90.679-43.424-130.907-42.328zm63.525 60.227 1.88 5.638 5.943.046c.769.006 1.088.988.469 1.445l-4.781 3.531 1.793 5.666c.232.734-.604 1.341-1.229.893l-4.835-3.456-4.835 3.456c-.626.447-1.461-.159-1.229-.893l1.793-5.666-4.781-3.531c-.619-.457-.3-1.439.469-1.445l5.943-.046 1.88-5.638c.244-.731 1.276-.731 1.52 0zm23.099 14.584.809 2.426 2.558.02c.331.002.468.425.202.622l-2.058 1.519.771 2.439c.099.316-.259.577-.53.384l-2.081-1.487-2.081 1.487c-.269.193-.629-.068-.529-.384l.771-2.439-2.058-1.519c-.267-.196-.129-.619.202-.622l2.558-.02.809-2.426c.107-.315.552-.315.657 0zm-33.086-25.295.809 2.426 2.558.02c.331.002.469.425.202.622l-2.058 1.519.771 2.439c.099.316-.259.577-.529.384l-2.081-1.487-2.081 1.487c-.269.193-.629-.068-.53-.384l.771-2.439-2.058-1.519c-.266-.196-.129-.619.202-.622l2.558-.02.809-2.426c.107-.312.552-.312.657 0zm-44.808-2.942.809 2.426 2.558.02c.331.002.469.425.202.622l-2.058 1.519.771 2.439c.099.316-.259.577-.53.384l-2.081-1.487-2.081 1.487c-.269.192-.629-.068-.529-.384l.771-2.439-2.058-1.519c-.267-.196-.129-.619.202-.622l2.558-.02.809-2.426c.108-.313.552-.313.657 0zm37.484 27.4.809 2.426 2.558.02c.331.002.469.425.202.622l-2.058 1.519.771 2.439c.099.316-.259.577-.529.384l-2.081-1.487-2.081 1.487c-.269.193-.629-.068-.53-.384l.771-2.439-2.058-1.519c-.266-.196-.129-.619.202-.622l2.558-.02.809-2.426c.108-.314.553-.314.657 0zm-20.624-29.093.662 1.984 2.092.017c.27.002.383.348.166.509l-1.683 1.242.631 1.994c.082.258-.212.472-.433.314l-1.702-1.216-1.702 1.216c-.221.158-.514-.056-.433-.314l.631-1.994-1.683-1.242c-.217-.161-.106-.507.166-.509l2.092-.017.662-1.984c.085-.256.448-.256.534 0zm62.829-40.959.828 2.482 2.616.02c.339.002.479.435.206.637l-2.104 1.554.789 2.495c.103.323-.266.59-.541.393l-2.129-1.522-2.129 1.522c-.276.198-.643-.071-.541-.393l.789-2.495-2.104-1.554c-.273-.201-.132-.633.206-.637l2.616-.02.828-2.482c.108-.324.563-.324.67 0zm-76.807 28.821.662 1.984 2.092.017c.27.002.383.348.166.509l-1.683 1.242.631 1.994c.082.258-.212.472-.433.314l-1.702-1.216-1.702 1.216c-.221.158-.514-.056-.433-.314l.631-1.994-1.683-1.242c-.218-.161-.106-.506.166-.509l2.092-.017.662-1.984c.085-.257.448-.257.534 0zm10.1 27.966 1.002 3.005 3.168.024c.41.003.58.526.25.77l-2.549 1.882.956 3.02c.124.391-.321.715-.655.476l-2.578-1.843-2.578 1.843c-.333.238-.779-.085-.655-.476l.956-3.02-2.549-1.882c-.33-.244-.16-.767.25-.77l3.168-.024 1.002-3.005c.133-.39.683-.39.812 0zm77.791 14.732.631 1.891 1.993.015c.258.002.365.331.158.484l-1.603 1.184.601 1.9c.077.246-.202.449-.413.299l-1.621-1.159-1.622 1.159c-.21.15-.49-.053-.413-.299l.601-1.9-1.603-1.184c-.207-.153-.1-.482.158-.484l1.993-.015.63-1.891c.082-.245.429-.245.51 0zm6.974-14.43.809 2.426 2.558.02c.331.002.469.425.202.622l-2.058 1.519.771 2.439c.099.316-.259.577-.529.384l-2.081-1.487-2.081 1.487c-.269.193-.629-.068-.529-.384l.771-2.439-2.058-1.519c-.266-.196-.129-.619.202-.622l2.558-.02.809-2.426c.106-.315.551-.315.656 0z" transform="translate(0 -88.275)"/></svg>