<svg xmlns="http://www.w3.org/2000/svg" xml:space="preserve" width="512" height="335.45001"><path style="fill:#f5f5f5" d="M473.654 335.448H38.345C17.167 335.448 0 318.28 0 297.103V38.345C0 17.168 17.167 0 38.345 0h435.309c21.177 0 38.345 17.167 38.345 38.345v258.758c0 21.177-17.168 38.345-38.345 38.345z"/><path style="fill:#ff4b55" transform="translate(0 -88.276)" d="M291.31 88.276h-70.621V220.69H0v70.62h220.689v132.414h70.621V291.31H512v-70.62H291.31z"/><path style="fill:#ffe15a" d="M348.689 242.759H163.31l-13.241-13.242v52.966l13.241-13.242h185.379l13.241 13.242v-52.966z" transform="translate(0 -88.276)"/><path style="fill:#ffe15a" d="M269.241 348.689V163.311l13.241-13.242h-52.965l13.241 13.242v185.378l-13.241 13.242h52.965z" transform="translate(0 -88.276)"/></svg>