<svg xmlns="http://www.w3.org/2000/svg" xml:space="preserve" width="512" height="335.45001"><path style="fill:#73af00" d="M473.655 0H38.345C17.167 0 0 17.167 0 38.345v73.471h512V38.345C512 17.167 494.833 0 473.655 0z"/><path style="fill:#ff4b55" d="M0 297.103c0 21.177 17.167 38.345 38.345 38.345h435.31c21.177 0 38.345-17.167 38.345-38.345v-73.471H0z"/><path style="fill:#f5f5f5" d="M0 111.814h512v111.81H0z"/><path style="fill:#4173cd" d="M128.095 173.194c2.532-3.207 2.532-7.733 0-10.94L9.939 12.588C3.764 19.395 0 28.43 0 38.345v258.759c0 9.914 3.764 18.95 9.939 25.757z"/><path style="fill:#b46446" d="M253.881 175.62c0 .216-.071 20.968-5.378 31.177h14.913c-5.308-10.208-5.378-30.961-5.378-31.177 0-7.15 7.411-12.832 7.486-12.888l-2.497-3.322c-.194.146-2.664 2.039-4.988 5.114v-5.53h-4.157v5.53c-2.324-3.075-4.793-4.969-4.988-5.114l-2.497 3.322c.075.056 7.484 5.737 7.484 12.888z"/><path style="fill:#73af00" d="M276.745 150.679c-.127 0-.244.033-.37.041-.847-2.438-3.14-4.198-5.866-4.198-.983 0-1.9.248-2.727.653-.881-1.619-2.575-2.731-4.547-2.731-.567 0-1.102.114-1.613.281-1.106-2.609-3.689-4.438-6.7-4.438-3.701 0-6.722 2.774-7.181 6.349-.372-.058-.745-.114-1.132-.114-4.018 0-7.275 3.257-7.275 7.275 0 .472.053.931.139 1.378-1.841.606-3.289 2.029-3.925 3.855-.124-.011-.244-.038-.371-.038-2.296 0-4.157 1.862-4.157 4.157 0 2.296 1.862 4.157 4.157 4.157 1.06 0 2.018-.409 2.752-1.064.994.671 2.193 1.064 3.484 1.064 1.142 0 2.197-.329 3.117-.865.92.535 1.976.865 3.117.865 3.444 0 6.236-2.792 6.236-6.236 0-.264-.046-.514-.077-.769.968.477 2.042.769 3.196.769 1.446 0 2.784-.434 3.916-1.161 1.063 1.922 3.085 3.239 5.437 3.239.505 0 .991-.076 1.461-.19 1.144 1.375 2.846 2.269 4.774 2.269 1.863 0 3.517-.833 4.659-2.129 3.204-.259 5.734-2.913 5.734-6.185-.003-3.442-2.794-6.234-6.238-6.234z"/><path style="fill:#5fa000" d="M270.509 155.875c0-.216.045-.42.064-.631-1.112 1.028-2.586 1.671-4.221 1.671-2.172 0-4.079-1.112-5.196-2.796-1.117 1.684-3.025 2.796-5.196 2.796-1.67 0-3.177-.665-4.297-1.734-.648 3.354-3.592 5.89-7.135 5.89-.36 0-.704-.055-1.049-.106.001.036.011.07.011.106 0 2.718-1.749 5.005-4.175 5.859.657.235 1.358.376 2.097.376 1.142 0 2.197-.329 3.117-.865.92.535 1.976.865 3.117.865 3.444 0 6.236-2.792 6.236-6.236 0-.264-.046-.514-.077-.769.968.477 2.042.769 3.196.769 1.446 0 2.784-.434 3.916-1.161 1.063 1.922 3.085 3.239 5.437 3.239.505 0 .991-.076 1.461-.19 1.144 1.375 2.846 2.269 4.773 2.269 1.863 0 3.517-.833 4.659-2.129l.013-.002c-3.769-.272-6.751-3.383-6.751-7.221z"/><path style="fill:#464655" d="M255.96 220.045c-.334 0-.63-.213-.739-.527-.079-.234-2.036-5.706-9.653-5.706h-10.392c-6.161 0-11.171-5.012-11.171-11.171v-68.588c0-.43.349-.779.779-.779h64.431c.43 0 .779.349.779.779v68.588c0 6.161-5.012 11.171-11.171 11.171h-12.471c-7.663 0-9.634 5.644-9.652 5.702-.107.319-.403.532-.738.532h-.002zm-30.398-85.215v67.809c0 5.3 4.312 9.613 9.613 9.613h10.392c6.169 0 9.155 3.313 10.392 5.303 1.237-1.992 4.223-5.303 10.392-5.303h12.471c5.301 0 9.613-4.313 9.613-9.613V134.83z"/><path style="fill:#ffe15a" d="m253.684 207.085-1.751 3.291 1.751 3.291-3.725.129-1.976 3.162-1.974-3.162-3.725-.129 1.75-3.291-1.75-3.291 3.725-.129 1.974-3.161 1.976 3.161zm-16.948 1.445-.934 3.608 2.471 2.792-3.592.995-1.181 3.535-2.659-2.613-3.652.745.933-3.609-2.47-2.791 3.592-.995 1.181-3.535 2.659 2.612zm-16.593 3.579-.132 3.725 3.015 2.192-3.292 1.748-.391 3.707-3.16-1.977-3.405 1.515.132-3.725-3.015-2.192 3.292-1.748.391-3.707 3.16 1.978zm38.173-5.024 1.751 3.291-1.751 3.291 3.725.129 1.976 3.162 1.974-3.162 3.725-.129-1.75-3.291 1.75-3.291-3.725-.129-1.974-3.161-1.976 3.161zm16.948 1.445.934 3.608-2.471 2.792 3.592.995 1.181 3.535 2.659-2.613 3.652.745-.933-3.609 2.47-2.791-3.592-.995-1.181-3.535-2.659 2.612zm16.593 3.579.132 3.725-3.015 2.192 3.292 1.748.391 3.707 3.16-1.977 3.405 1.515-.132-3.725 3.015-2.192-3.292-1.748-.391-3.707-3.16 1.978z" transform="translate(0 -88.276)"/></svg>