<svg xmlns="http://www.w3.org/2000/svg" xml:space="preserve" width="512" height="335.45001"><path style="fill:#f5f5f5" d="M512 37.3C511.4 16.6 494.5 0 473.7 0H38.3C17.2.1 0 17.2 0 38.4v259.9c.1 5.2 1.3 10.1 3.3 14.5.2.6.5 1.1.8 1.6.3.5.5 1 .8 1.6v.1l.9 1.5s0 .1.1.1c.3.5.6.9.9 1.4l.1.1c.3.5.6.9 1 1.3 0 .1.1.1.1.2.3.4.7.8 1 1.2l.2.2c.3.4.7.8 1 1.2l.2.2c.3.4.7.7 1.1 1.1l.2.2c.4.3.7.7 1.1 1l.3.3c.4.3.7.6 1.1.9.1.1.2.2.4.3.4.3.7.6 1.1.8.1.1.3.2.4.3.4.3.7.5 1.1.7.2.1.3.2.5.3.4.2.7.5 1.1.7.2.1.4.2.5.3.3.2.7.4 1 .6l.6.3c.3.2.7.4 1 .5.2.1.4.2.7.3.3.2.7.3 1 .5.2.1.5.2.7.3.3.1.7.3 1 .4.3.1.5.2.8.3.3.1.6.2 1 .3.3.1.6.2.9.2l.9.3c.3.1.6.1.9.2.3.1.6.1.9.2.3.1.7.1 1 .2.3.1.6.1.9.2.4.1.7.1 1.1.1.3 0 .5.1.8.1.4 0 .8.1 1.3.1.2 0 .4 0 .7.1h439.3c.2 0 .4 0 .7-.1.4 0 .8-.1 1.3-.1.3 0 .5-.1.8-.1.4 0 .7-.1 1.1-.1.3 0 .6-.1.9-.2.3-.1.7-.1 1-.2.3-.1.6-.1.9-.2.3-.1.6-.1.9-.2l.9-.3c.3-.1.6-.2.9-.2.3-.1.6-.2 1-.3.3-.1.5-.2.8-.3.3-.1.7-.3 1-.4.2-.1.5-.2.7-.3.3-.1.7-.3 1-.5.2-.1.4-.2.7-.3.3-.2.7-.3 1-.5l.6-.3c.4-.2.7-.4 1-.6.2-.1.4-.2.5-.3.4-.2.7-.4 1.1-.7.2-.1.3-.2.5-.3.4-.2.7-.5 1.1-.7.1-.1.3-.2.4-.3.4-.3.7-.5 1.1-.8.1-.1.2-.2.4-.3.4-.3.7-.6 1.1-.9l.3-.3c.4-.3.7-.7 1.1-1 .1-.1.2-.2.3-.2l1.1-1.1.2-.2c.4-.4.7-.8 1-1.2l.2-.2c.3-.4.7-.8 1-1.2 0-.1.1-.1.1-.2.3-.4.7-.9 1-1.3l.1-.1c.3-.5.6-.9.9-1.4 0 0 0-.1.1-.1l.9-1.5v-.1c.3-.5.6-1 .8-1.6.3-.5.5-1.1.8-1.6 2-4.5 3.2-9.4 3.3-14.5V38.4c-.4-.3-.4-.7-.4-1.1z"/><path style="fill:#41479b" d="M0 223.7h512V261H0zm3.3 89.1c.2.6.5 1.1.8 1.6.3.5.5 1 .8 1.6v.1l.9 1.5s0 .1.1.1c.3.5.6.9.9 1.4l.1.1c.3.5.6.9 1 1.3 0 .1.1.1.1.2.3.4.7.8 1 1.2l.2.2c.3.4.7.8 1 1.2l.2.2c.3.4.7.7 1.1 1.1l.2.2c.4.3.7.7 1.1 1l.3.3c.4.3.7.6 1.1.9.1.1.2.2.4.3.4.3.7.6 1.1.8.1.1.3.2.4.3.4.3.7.5 1.1.7.2.1.3.2.5.3.4.2.7.5 1.1.7.2.1.4.2.5.3.3.2.7.4 1 .6l.6.3c.3.2.7.4 1 .5.2.1.4.2.7.3.3.2.7.3 1 .5.2.1.5.2.7.3.3.1.7.3 1 .4.3.1.5.2.8.3.3.1.6.2 1 .3.3.1.6.2.9.2l.9.3c.3.1.6.1.9.2.3.1.6.1.9.2.3.1.7.1 1 .2.3.1.6.1.9.2.4.1.7.1 1.1.1.3 0 .5.1.8.1.4 0 .8.1 1.3.1.2 0 .4 0 .7.1h439.3c.2 0 .4 0 .7-.1.4 0 .8-.1 1.3-.1.3 0 .5-.1.8-.1.4 0 .7-.1 1.1-.1.3 0 .6-.1.9-.2.3-.1.7-.1 1-.2.3-.1.6-.1.9-.2.3-.1.6-.1.9-.2l.9-.3c.3-.1.6-.2.9-.2.3-.1.6-.2 1-.3.3-.1.5-.2.8-.3.3-.1.7-.3 1-.4.2-.1.5-.2.7-.3.3-.1.7-.3 1-.5.2-.1.4-.2.7-.3.3-.2.7-.3 1-.5l.6-.3c.4-.2.7-.4 1-.6.2-.1.4-.2.5-.3.4-.2.7-.4 1.1-.7.2-.1.3-.2.5-.3.4-.2.7-.5 1.1-.7.1-.1.3-.2.4-.3.4-.3.7-.5 1.1-.8.1-.1.2-.2.4-.3.4-.3.7-.6 1.1-.9l.3-.3c.4-.3.7-.7 1.1-1 .1-.1.2-.2.3-.2l1.1-1.1.2-.2c.4-.4.7-.8 1-1.2l.2-.2c.3-.4.7-.8 1-1.2 0-.1.1-.1.1-.2.3-.4.7-.9 1-1.3l.1-.1c.3-.5.6-.9.9-1.4 0 0 0-.1.1-.1l.9-1.5v-.1c.3-.5.6-1 .8-1.6.3-.5.5-1.1.8-1.6 2-4.5 3.2-9.4 3.3-14.5H0c.2 5.1 1.3 10 3.3 14.5zM176.6 74.6v37.3H107v74.5h405v-37.3H176.6v-37.3H512V74.5H176.6zm-107 37.3H0v74.6h69.6zM512 37.3C511.4 16.6 494.5 0 473.7 0H106.9v74.5h69.6V37.2H512zM69.6.1H38.3C17.2.1 0 17.2 0 38.4v36.2h69.6z"/></svg>