<svg xmlns="http://www.w3.org/2000/svg" xml:space="preserve" width="512" height="335.45001"><path style="fill:#fab446" d="M473.655 0H38.345C17.167 0 0 17.167 0 38.345v73.471h512V38.345C512 17.167 494.833 0 473.655 0z"/><path style="fill:#73af00" d="M0 297.103c0 21.177 17.167 38.345 38.345 38.345h435.31c21.177 0 38.345-17.167 38.345-38.345v-73.471H0z"/><path style="fill:#f5f5f5" d="M0 111.814h512v111.81H0z"/><g transform="translate(0 -88.276)"><path style="fill:#41479b" d="M256 303.448c-26.164 0-47.448-21.284-47.448-47.448s21.284-47.448 47.448-47.448 47.448 21.284 47.448 47.448-21.284 47.448-47.448 47.448zm0-86.069c-21.298 0-38.621 17.323-38.621 38.621 0 21.298 17.323 38.621 38.621 38.621 21.298 0 38.621-17.323 38.621-38.621 0-21.298-17.323-38.621-38.621-38.621z"/><circle style="fill:#41479b" cx="256" cy="256" r="5.379"/><path style="fill:#41479b" d="M212.966 256.807v-1.614l29.364-1.38 13.67 1.38v1.614l-13.67 1.38zm86.068 0v-1.614l-29.364-1.38-13.67 1.38v1.614l13.67 1.38z"/><path style="fill:#41479b" d="M255.193 212.966h1.614l1.38 29.364-1.38 13.67h-1.614l-1.38-13.67zm0 86.068h1.614l1.38-29.364-1.38-13.67h-1.614l-1.38 13.67z"/><path style="fill:#41479b" d="m225 226.141 1.141-1.141 21.74 19.788 8.689 10.642-1.14 1.14-10.642-8.689z"/><path style="fill:#41479b" d="m285.859 287 1.141-1.141-19.788-21.74-10.642-8.689-1.14 1.14 8.689 10.642z"/><path style="fill:#41479b" d="m285.859 225 1.141 1.141-19.788 21.74-10.642 8.689-1.14-1.14 8.689-10.642z"/><path style="fill:#41479b" d="m225 285.859 1.141 1.141 21.74-19.788 8.689-10.642-1.14-1.14-10.642 8.689z"/><path style="fill:#41479b" d="m216.551 273.214-.618-1.491 26.601-12.512 13.157-3.957.618 1.492-12.102 6.506zm79.516-32.937-.618-1.491-27.656 9.962-12.102 6.506.618 1.492 13.157-3.957z"/><path style="fill:#41479b" d="m238.786 216.551 1.491-.618 12.512 26.601 3.957 13.157-1.492.618-6.506-12.102z"/><path style="fill:#41479b" d="m271.723 296.067 1.491-.618-9.962-27.656-6.506-12.102-1.492.618 3.957 13.157z"/><path style="fill:#41479b" d="m215.933 240.277.618-1.491 27.656 9.962 12.102 6.506-.618 1.492-13.157-3.957zm79.516 32.937.618-1.491-26.601-12.512-13.157-3.957-.618 1.492 12.102 6.506z"/><path style="fill:#41479b" d="m271.723 215.933 1.491.618-9.962 27.656-6.506 12.102-1.492-.618 3.957-13.157zm-32.937 79.516 1.491.618 12.512-26.601 3.957-13.157-1.492-.618-6.506 12.102z"/></g><circle style="fill:#f5f5f5" cx="256" cy="167.724" r="7.256"/><circle style="fill:#41479b" cx="256" cy="167.724" r="4.351"/></svg>