<svg xmlns="http://www.w3.org/2000/svg" xml:space="preserve" width="512" height="335.45001"><path style="fill:#f5f5f5" d="M38.345 335.448h435.309c21.177 0 38.345-17.167 38.345-38.345V38.345C511.999 17.169 494.832 0 473.654 0H38.345C17.167 0 0 17.169 0 38.345v258.758c0 21.177 17.167 38.345 38.345 38.345z"/><path style="fill:#41479b" d="M512 353.103c-25.629 0-25.629-8.828-51.256-8.828-25.629 0-25.629 8.828-51.256 8.828-25.611 0-25.611-8.828-51.221-8.828-25.589 0-25.589 8.828-51.177 8.828-25.602 0-25.602-8.828-51.204-8.828-25.596 0-25.596 8.828-51.191 8.828-25.595 0-25.596-8.828-51.19-8.828-25.594 0-25.596 8.828-51.191 8.828-25.585 0-25.585-8.828-51.168-8.828-25.571 0-25.571 8.828-51.143 8.828V326.62c25.571 0 25.571-8.828 51.143-8.828 25.584 0 25.584 8.828 51.168 8.828 25.596 0 25.596-8.828 51.191-8.828 25.595 0 25.596 8.828 51.19 8.828 25.596 0 25.596-8.828 51.191-8.828 25.602 0 25.602 8.828 51.204 8.828 25.589 0 25.589-8.828 51.177-8.828 25.611 0 25.611 8.828 51.221 8.828 25.629 0 25.629-8.828 51.256-8.828 25.629 0 25.629 8.828 51.256 8.828zm0-105.931c-25.629 0-25.629-8.828-51.256-8.828-25.629 0-25.629 8.828-51.256 8.828-25.611 0-25.611-8.828-51.221-8.828-25.589 0-25.589 8.828-51.177 8.828-25.602 0-25.602-8.828-51.204-8.828-25.596 0-25.596 8.828-51.191 8.828-25.595 0-25.596-8.828-51.19-8.828-25.594 0-25.596 8.828-51.191 8.828-25.585 0-25.585-8.828-51.168-8.828-25.571 0-25.571 8.828-51.143 8.828V220.69c25.571 0 25.571-8.828 51.143-8.828 25.584 0 25.584 8.828 51.168 8.828 25.596 0 25.596-8.828 51.191-8.828 25.595 0 25.596 8.828 51.19 8.828 25.596 0 25.596-8.828 51.191-8.828 25.602 0 25.602 8.828 51.204 8.828 25.589 0 25.589-8.828 51.177-8.828 25.611 0 25.611 8.828 51.221 8.828 25.629 0 25.629-8.828 51.256-8.828 25.629 0 25.629 8.828 51.256 8.828zm0-52.965c-25.629 0-25.629-8.828-51.256-8.828-25.629 0-25.629 8.828-51.256 8.828-25.611 0-25.611-8.828-51.221-8.828-25.589 0-25.589 8.828-51.177 8.828-25.602 0-25.602-8.828-51.204-8.828-25.596 0-25.596 8.828-51.191 8.828-25.595 0-25.596-8.828-51.19-8.828-25.594 0-25.596 8.828-51.191 8.828-25.585 0-25.585-8.828-51.168-8.828-25.571 0-25.571 8.828-51.143 8.828v-26.483c25.571 0 25.571-8.828 51.143-8.828 25.584 0 25.584 8.828 51.168 8.828 25.596 0 25.596-8.828 51.191-8.828 25.595 0 25.596 8.828 51.19 8.828 25.596 0 25.596-8.828 51.191-8.828 25.602 0 25.602 8.828 51.204 8.828 25.589 0 25.589-8.828 51.177-8.828 25.611 0 25.611 8.828 51.221 8.828 25.629 0 25.629-8.828 51.256-8.828 25.629 0 25.629 8.828 51.256 8.828zm0-52.965c-25.629 0-25.629-8.828-51.256-8.828-25.629 0-25.629 8.828-51.256 8.828-25.611 0-25.611-8.828-51.221-8.828-25.589 0-25.589 8.828-51.177 8.828-25.602 0-25.602-8.828-51.204-8.828-25.596 0-25.596 8.828-51.191 8.828-25.595 0-25.596-8.828-51.19-8.828-25.594 0-25.596 8.828-51.191 8.828-25.585 0-25.585-8.828-51.168-8.828-25.571 0-25.571 8.828-51.143 8.828v-26.483c25.571 0 25.571-8.828 51.143-8.828 25.584 0 25.584 8.828 51.168 8.828 25.596 0 25.596-8.828 51.191-8.828 25.595 0 25.596 8.828 51.19 8.828 25.596 0 25.596-8.828 51.191-8.828 25.602 0 25.602 8.828 51.204 8.828 25.589 0 25.589-8.828 51.177-8.828 25.611 0 25.611 8.828 51.221 8.828 25.629 0 25.629-8.828 51.256-8.828 25.629 0 25.629 8.828 51.256 8.828zm0 158.896c-25.629 0-25.629-8.828-51.256-8.828-25.629 0-25.629 8.828-51.256 8.828-25.611 0-25.611-8.828-51.221-8.828-25.589 0-25.589 8.828-51.177 8.828-25.602 0-25.602-8.828-51.204-8.828-25.596 0-25.596 8.828-51.191 8.828-25.595 0-25.596-8.828-51.19-8.828-25.594 0-25.596 8.828-51.191 8.828-25.585 0-25.585-8.828-51.168-8.828-25.571 0-25.571 8.828-51.143 8.828v-26.483c25.571 0 25.571-8.828 51.143-8.828 25.584 0 25.584 8.828 51.168 8.828 25.596 0 25.596-8.828 51.191-8.828 25.595 0 25.596 8.828 51.19 8.828 25.596 0 25.596-8.828 51.191-8.828 25.602 0 25.602 8.828 51.204 8.828 25.589 0 25.589-8.828 51.177-8.828 25.611 0 25.611 8.828 51.221 8.828 25.629 0 25.629-8.828 51.256-8.828 25.629 0 25.629 8.828 51.256 8.828zm0 105.931c-25.629 0-25.629-8.828-51.256-8.828-25.629 0-25.629 8.828-51.256 8.828-25.611 0-25.611-8.828-51.221-8.828-25.589 0-25.589 8.828-51.177 8.828-25.602 0-25.602-8.828-51.204-8.828-25.596 0-25.596 8.828-51.191 8.828-25.595 0-25.596-8.828-51.19-8.828-25.594 0-25.596 8.828-51.191 8.828-25.585 0-25.585-8.828-51.168-8.828-25.571 0-25.571 8.828-51.143 8.828v-26.483c25.571 0 25.571-8.828 51.143-8.828 25.584 0 25.584 8.828 51.168 8.828 25.596 0 25.596-8.828 51.191-8.828 25.595 0 25.596 8.828 51.19 8.828 25.596 0 25.596-8.828 51.191-8.828 25.602 0 25.602 8.828 51.204 8.828 25.589 0 25.589-8.828 51.177-8.828 25.611 0 25.611 8.828 51.221 8.828 25.629 0 25.629-8.828 51.256-8.828 25.629 0 25.629 8.828 51.256 8.828z" transform="translate(0 -88.276)"/><path style="fill:#41479b" d="M8.828 256h238.344c4.875 0 8.828-3.953 8.828-8.828V97.104c0-4.874-3.95-8.825-8.823-8.828H38.345C17.167 88.276 0 105.445 0 126.621v120.551C0 252.049 3.953 256 8.828 256z" transform="translate(0 -88.276)"/><path style="fill:#f5f5f5" d="M8.828 167.724h15.333l81.77-53.573v53.573h44.138v-53.573l81.769 53.573h15.333c4.875 0 8.828-3.953 8.828-8.828v-7.002l-70.154-45.963h70.154V61.793h-70.155l70.155-45.963V8.828c0-4.874-3.95-8.825-8.823-8.828h-15.338l-81.77 53.573V0H105.93v53.573L26.844 1.758C17.61 4.658 9.89 10.961 5.131 19.192l65.024 42.601H0v44.138h70.155L0 151.894v7.002c0 4.875 3.953 8.828 8.828 8.828z"/><path style="fill:#ff4b55" d="M141.241 88.276h-26.483v70.621H0v26.482h114.758V256h26.483v-70.621h114.758v-26.482H141.241z" transform="translate(0 -88.276)"/><path style="fill:#ff4b55" d="m8.227 102.902 72.662 47.167h16.214l-82.496-53.55c-2.369 1.87-4.51 4.013-6.38 6.383zm158.056 47.167 88.374-57.366c-1.536-2.599-4.246-4.427-7.485-4.427h-1.909l-95.194 61.793zm-76.809 44.138L1.269 251.463C2.79 254.125 5.542 256 8.828 256h1.665l95.195-61.793zm166.385 53.66-82.666-53.659H156.98l93.873 60.934c2.813-1.305 4.741-4.04 5.006-7.275z" transform="translate(0 -88.276)"/><path style="fill:#965032" d="M388.413 299.111c-3.375 0-6.111-2.737-6.111-6.111V97.448h12.222v195.553c.001 3.375-2.736 6.11-6.111 6.11z"/><path style="fill:#73af00" transform="translate(0 -88.276)" d="m416.746 198.432 27.842-35.797 4.321-12.964-12.963 4.322-35.797 27.841-5.624-44.998-6.112-12.223-6.111 12.223-5.624 44.998-35.797-27.841-12.963-4.322 4.321 12.964 27.842 35.797-45 5.624-12.222 6.111 12.222 6.111 45 5.626-27.842 35.795-4.321 12.965 12.963-4.321 38.89-30.248 8.642-13.705 8.642 13.705 38.891 30.248 12.963 4.321-4.321-12.965-27.842-35.795 45-5.626 12.222-6.111-12.222-6.111z"/><path style="fill:#ffe15a" d="M415.018 193.064c-5.492-5.482-17.252-3.467-23.549-1.877v-5.129c0-1.687-1.368-3.055-3.055-3.055s-3.055 1.368-3.055 3.055v5.128c-6.296-1.594-18.055-3.609-23.549 1.878-5.238 5.235-1.443 17.858 2.161 26.634v8.126c0 2.247 1.821 4.066 4.066 4.066h40.756c2.246 0 4.066-1.821 4.066-4.066v-8.126c3.602-8.776 7.397-21.399 2.159-26.634zm-4.321 4.321c2.333 2.335-.28 12.567-4.49 22.284h-14.739v-22.17c6.861-1.943 16.259-3.091 19.229-.114zm-44.567 0c2.968-2.976 12.366-1.828 19.229.114v22.169H370.62c-4.21-9.716-6.823-19.948-4.49-22.283z"/></svg>