<svg xmlns="http://www.w3.org/2000/svg" xml:space="preserve" width="512" height="335.45001"><path style="fill:#ff4b55" d="M473.655 0H38.345C17.167 0 0 17.167 0 38.345v73.471h512V38.345C512 17.167 494.833 0 473.655 0z"/><path style="fill:#464655" d="M0 297.103c0 21.177 17.167 38.345 38.345 38.345h435.31c21.177 0 38.345-17.167 38.345-38.345v-73.471H0z"/><path style="fill:#f5f5f5" d="M0 111.814h512v111.81H0z"/><path style="fill:#73af00" d="M308.065 233.525c-.928-.483-2.027-2.211-1.684-2.967.361-.793-.201-.725 1.696-.161 3.43.888 5.65.483 7.829-1.372l1.937-1.533 2.261 1.13c1.25.564 2.541.967 2.905.886 1.049-.242 3.069-2.825 3.027-3.713-.041-1.208.847-.886 1.291.405.928 2.422-.779 6.599-3.121 7.164-1.128.322-2.178.242-3.955-.322-2.098-.808-2.422-.808-3.55 0-2.34 1.856-5.69 2.019-8.636.483m8.835-9.343c-1.132-1.587-2.493-7.14-2.095-8.499.395-1.248.792-1.474 1.869-1.134 1.927.679 2.382 1.927 2.153 6.462-.34 3.397-.792 4.532-1.927 3.171m-75.895 24.548c-4.651 2.646-11.569 3.101-11.569 10.434-10.13.377-22.076.831-32.85.604 2.92-3.772 21.401-20.853 29.086-27.623 1.272-1.12 1.704-3.288.964-4.813l-.199-.41c-1.108-2.285-4.122-2.829-5.958-1.074-7.658 7.326-15.247 14.152-16.483 15.322-9.916 10.02-12.822 12.94-14.38 14.508-1.109 1.117-1.726 2.627-1.718 4.2l.001.103c.017 3.27 2.673 5.911 5.942 5.911h43.381c2.457 0-.565-8.543 2.609-8.543 2.207 0 2.41 3.065 2.313 6.312-.074 2.47-2.109 4.424-4.579 4.427-18.755.026-38.279.205-56.651.222-1.517.001-2.735-1.23-2.735-2.748v-3.305c0-2.802-3.112-4.431-5.454-2.893-.086.056-.17.11-.254.162-1.224.765-1.85 2.263-1.372 3.624.31.884.445 1.96.474 3.085.04 1.487-1.171 2.713-2.658 2.759-6.076.186-12.679.241-14.554-3.342-1.058-2.02-3.309-2.975-5.35-1.954l-.271.136c-2.148 1.074-3.009 3.731-1.832 5.824 2.238 3.979 4.28 8.595 3.22 15.06-.864 2.038-2.492 3.313-4.256 4.461-1.96 1.276-.73 4.262 1.569 3.837 5.574-1.03 9.415-5.442 10.589-10.642h86.42c3.169 0 5.739-2.57 5.739-5.739V257.88c-.792-5.595-6.804-5.369-9.184-9.15zm109.615-24.783c1.275.82 2.552 1.641 3.975 2.319 1.556.743 2.151 2.643 1.241 4.107-.241.387-.441.82-.556 1.346v37.197c2.542.527 4.001.028 5.16-.771 1.308-.902 3.076-.246 3.489 1.288.877 3.263 2.313 6.45 3.079 9.352.479 1.814-.883 3.588-2.759 3.588h-14.572c-1.29 0-2.336-1.046-2.336-2.336v-54.3c-.002-1.682 1.863-2.701 3.279-1.79zm-17.645 9.058c.011 10.272.131 21.335.148 32.345.002 1.427-1.155 2.583-2.582 2.583h-.167c-1.425 0-2.58-1.155-2.58-2.58v-26.09c0-1.42-1.669-2.179-2.737-1.245l-3.42 2.955c-.698.604-1.102 1.473-1.105 2.397-.011 4.244-.049 16.6-.064 21.994-.004 1.421-1.158 2.569-2.58 2.569h-.234c-1.418 0-2.57-1.139-2.58-2.557-.025-3.591-.069-10.246-.087-15.238-.006-1.436-1.704-2.186-2.784-1.24-3.543 3.105-4.361 3.808-6.22 5.728.151.983.908 0 1.361.755v4.991c-12.908-2.43-13.871 7.882-13.388 18.946.073 1.663 1.438 2.978 3.102 2.978h40.526c1.503 0 2.721-1.218 2.721-2.721v-50.381c0-1.683-1.997-2.547-3.239-1.41-.99.906-2.047 1.813-2.955 2.634-.728.665-1.137 1.599-1.136 2.587zm-29.825 34.551c-.793-2.268 3.668-3.101 4.196-1.058.189 2.495-3.212 2.57-4.196 1.058z" transform="translate(0 -88.276)"/><path style="fill:#73af00" d="M169.295 286.38c1.55 0 2.797 1.286 2.797 2.796 0 1.589-1.247 2.798-2.797 2.798-1.587 0-2.874-1.209-2.874-2.798.001-1.51 1.288-2.796 2.874-2.796m92.145-61.293c.757.455 1.535.89 2.364 1.281 1.496.707 2.086 2.566 1.171 3.945-.275.415-.51.886-.648 1.482v37.121c2.694.599 4.167.012 5.342-.857 1.17-.865 2.854-.267 3.229 1.138.672 2.52 1.685 5.012 2.466 7.378.956 2.893-1.19 5.874-4.237 5.874H259.76c-1.841 0-3.333-1.492-3.333-3.334v-51.153c0-2.572 2.807-4.2 5.013-2.875z" transform="translate(0 -88.276)"/></svg>