<svg xmlns="http://www.w3.org/2000/svg" xml:space="preserve" width="512" height="335.45001"><path style="fill:#73af00" d="M473.885 0H38.115C17.045.124 0 17.238 0 38.338v73.478h512V38.338C512 17.238 494.955.124 473.885 0z"/><path style="fill:#ff4b55" d="M0 297.097c0 21.177 17.167 38.345 38.345 38.345h435.31c21.177 0 38.345-17.167 38.345-38.345v-73.465H0z"/><path style="fill:#f5f5f5" d="M0 111.82101h512v111.81H0z"/><path style="fill:#464655" d="m12.831 325.714 128.41-101.931-.003-112.12L12.824 9.728C4.958 16.751 0 26.964 0 38.338v258.759c0 11.379 4.96 21.594 12.831 28.617z"/></svg>