<svg xmlns="http://www.w3.org/2000/svg" xml:space="preserve" width="512" height="335.45001"><path style="fill:#ff4b55;stroke-width:1" d="M473.655 335.448H38.345C17.167 335.448 0 318.281 0 297.103V38.345C0 17.168 17.167 0 38.345 0h435.31C494.832 0 512 17.167 512 38.345v258.759c0 21.177-17.167 38.344-38.345 38.344z"/><path style="fill:#5a8250;stroke-width:1" d="m297.951 189.685 67.433-49.478h-83.509L256 60.569l-25.875 79.638h-83.509l67.433 49.478-25.675 79.022 67.56-48.289.066.049.066-.049 67.56 48.289zm13.527-31.823-19.273 14.142-4.595-14.142zm-76.694 25.139 8.169-25.14h26.094l8.169 25.14L256 198.569zM256 117.707l7.31 22.5h-14.622zm-55.478 40.155h23.868l-4.595 14.142zm21.215 65.293 7.302-22.472 11.911 8.739zm61.225-22.472 7.302 22.472-19.212-13.732z"/></svg>