<svg xmlns="http://www.w3.org/2000/svg" xml:space="preserve" width="512" height="335.45001"><path style="fill:#41479b;stroke-width:.999999" d="M473.655 335.448H38.345C17.167 335.448 0 318.28099 0 297.10299V38.345C0 17.168 17.167 0 38.345 0h435.31C494.832 0 512 17.167 512 38.345v258.75899c0 21.177-17.167 38.34401-38.345 38.34401z"/><path style="fill:#f5f5f5;stroke-width:.999999" d="M16.513 328.61999 512 123.592V61.799L9.117 321.91099c2.161 2.543 4.647 4.801 7.396 6.709z"/><path style="fill:#ff9b55;stroke-width:.999999" d="M497.983 8.706 4.451 315.03499c1.306 2.464 2.874 4.767 4.665 6.874L512 61.798V38.344c0-11.941-5.46-22.605-14.017-29.638z"/><path style="fill:#f5f5f5" transform="translate(0 -88.276)" d="m130.844 178.967 8.808-36.026-17.758 28.955-7.135-57.132-7.135 57.132-17.759-28.955 8.809 36.026-29.914-21.925 21.926 29.913-36.027-8.809 28.955 17.76-57.131 7.134 57.131 7.135-28.955 17.759 36.027-8.809-21.926 29.913 29.914-21.925-8.809 36.026 17.759-28.954 7.135 57.131 7.135-57.131 17.758 28.954-8.808-36.026 29.913 21.925-21.926-29.913 36.027 8.809-28.955-17.759 57.131-7.135-57.131-7.134 28.955-17.76-36.027 8.809 21.926-29.913z"/></svg>