<svg xmlns="http://www.w3.org/2000/svg" xml:space="preserve" width="512" height="335.45001"><path style="fill:#5aa587;stroke-width:1" d="M473.655 0H38.345C17.167 0 0 17.167 0 38.345v63.539h512V38.345C512 17.167 494.833 0 473.655 0z"/><path style="fill:#ffe15a;stroke-width:1" d="M0 297.103c0 21.177 17.167 38.345 38.345 38.345h435.31c21.177 0 38.345-17.167 38.345-38.345v-63.539H0z"/><path style="fill:#464655;stroke-width:1" d="M0 115.82401h512v103.79H0z"/><path style="fill:#f5f5f5" d="M512 190.159H0v13.943h512v-4.01zm0 117.739H0v13.943h512v-9.933z" transform="translate(0 -88.276)"/><path style="fill:#ff4b55;stroke-width:1" d="M12.828 325.717 206.098 172.3c2.946-2.339 2.946-6.812 0-9.151L12.828 9.731C4.959 16.754 0 26.968 0 38.345v258.759c0 11.376 4.959 21.59 12.828 28.613z"/><path style="fill:#ffe15a;stroke-width:1" d="m81.814 110.301 12.905 38.695 40.789.317c2.281.018 3.226 2.929 1.391 4.284l-32.813 24.231 12.303 38.891c.687 2.175-1.788 3.974-3.644 2.647l-33.185-23.72-33.185 23.72c-1.856 1.326-4.332-.472-3.644-2.647l12.303-38.891-32.812-24.231c-1.835-1.355-.889-4.266 1.391-4.284l40.789-.317 12.905-38.695c.724-2.163 3.785-2.163 4.507 0z"/><path style="fill:#f5f5f5" d="m77.196 270.447-3.19 3.21H47.328l7.281-26.717 2.975-1.487-4.776 23.82c-.04.294.02.587.215.822.177.235.45.352.744.352zm6.4 4.443c-1.155.861-2.564 1.351-4.032 1.351s-2.877-.489-4.032-1.351l4.032-4.032zm28.205-1.233H85.123l-3.19-3.21h23.428c.294 0 .567-.117.744-.352.195-.235.255-.529.215-.822l-4.776-23.82 2.975 1.487z" transform="translate(0 -88.276)"/><path style="fill:#f5f5f5" d="M104.168 268.49H80.543v-24.369c3.954-3.347 14.386-1.057 18.809.313zm-25.583-24.369v24.369H54.961l4.815-24.055c4.424-1.371 14.856-3.66 18.809-.314z" transform="translate(0 -88.276)"/><path style="fill:#464655" d="M114.033 274.381 106.301 246c-.078-.255-.254-.489-.509-.607l-5.167-2.583c-.02-.02-.04-.02-.078-.02-.02 0-.02-.02-.039-.04-.627-.215-14.934-4.874-20.943-.313-6.009-4.561-20.317.098-20.943.313-.02.02-.02.02-.039.04-.04 0-.058 0-.078.02l-5.167 2.583c-.255.117-.43.352-.509.607l-7.732 28.381c-.078.294-.02.607.157.842.195.235.489.392.783.392h27.402c1.624 1.624 3.817 2.583 6.126 2.583 2.31 0 4.502-.959 6.126-2.583h27.402c.294 0 .587-.157.783-.392.176-.235.235-.548.157-.842zm-33.49-30.26c3.954-3.347 14.386-1.057 18.809.313l4.815 24.055H80.543v-24.368zm-20.767.314c4.424-1.37 14.856-3.66 18.809-.313v24.369H54.961zm-12.448 29.222 7.281-26.717 2.975-1.487-4.776 23.82c-.04.294.02.587.215.822.177.235.45.352.744.352h23.428l-3.19 3.21zm32.236 2.584c-1.468 0-2.877-.489-4.032-1.351l4.032-4.032 4.032 4.032c-1.154.861-2.563 1.351-4.032 1.351zm5.559-2.584-3.19-3.21h23.428c.294 0 .567-.117.744-.352.195-.235.255-.529.215-.822l-4.776-23.82 2.975 1.487 7.281 26.717z" transform="translate(0 -88.276)"/><path style="fill:#464655" d="M104.034 218.558c-.998.695-2.35.576-3.211-.285l-1.302-1.302v3.187l-7.967 7.967h-3.187l-12.746 12.747h-3.187L47.926 265.38c-.604.604-.814 1.496-.544 2.306l1.153 3.459-4.78 4.78h-3.187l-9.743 9.743c-.778.778-.778 2.04 0 2.819l6.43 6.43c.928.928 2.45.87 3.304-.127l14.35-17.272 1.593-4.78 3.187-3.187 6.374 9.56 4.78-4.78-5.099-7.648 1.27-1.27c1.235-1.235 1.235-3.236 0-4.471l-.951-.951.895-.895c6.801 5.828 14.967 7.335 22.742 4.002l-2.663-6.214c-6.424 2.753-11.67.45-15.319-2.549l13.464-13.464-.531-2.656 3.718-3.718h3.187l23.901-23.901z" transform="translate(0 -88.276)"/><path style="fill:#464655" d="m56.501 215.378-3.187 3.187c-.879.879-.879 2.306 0 3.187l.531.531-5.311 1.063-14.34 14.34 7.967 7.967 14.34-14.34 1.062-5.312 2.125 2.125 1.593-1.593 53 53 3.187-3.187-53-53 1.593-1.593-6.374-6.374c-.879-.881-2.305-.881-3.186-.001z" transform="translate(0 -88.276)"/></svg>