<svg xmlns="http://www.w3.org/2000/svg" xml:space="preserve" width="512" height="335.45001"><path style="fill:#f5f5f5" d="M473.655 0H38.345C17.167 0 0 17.167 0 38.345v258.76c0 21.177 17.167 38.345 38.345 38.345h435.31c21.177 0 38.345-17.167 38.345-38.345V38.345C512 17.167 494.833 0 473.655 0z"/><path style="fill:#41479b" d="M229.517 167.724 13.052 9.538C5.054 16.566 0 26.862 0 38.345v258.76c0 21.177 17.167 38.345 38.345 38.345h191.172L79.144 167.724zm-25.701 156.248H11.476V22.601l182.888 133.647H53.442l17.156 19.137z"/><path style="fill:#ff4b55" transform="translate(0 -88.275)" d="M79.144 244.523h115.22L11.476 110.876v301.371h192.34L70.6 263.661l-17.158-19.138z"/><path style="fill:#f5f5f5" d="m67.345 296.398 7.066 14.583 13.411-9.096c.591-.402 1.386.057 1.334.77l-1.171 16.162 16.162-1.171c.713-.052 1.172.743.77 1.334l-9.096 13.411 14.583 7.068c.643.312.643 1.228 0 1.54l-14.583 7.066 9.096 13.411c.402.591-.057 1.386-.77 1.334l-16.162-1.171 1.171 16.162c.052.713-.743 1.172-1.334.77l-13.411-9.096-7.066 14.583c-.312.643-1.228.643-1.54 0l-7.066-14.583-13.411 9.096c-.591.402-1.386-.057-1.334-.77l1.171-16.162-16.162 1.171c-.713.052-1.172-.743-.77-1.334l9.096-13.411-14.583-7.066c-.643-.312-.643-1.228 0-1.54l14.583-7.068-9.096-13.411c-.402-.591.057-1.386.77-1.334l16.162 1.171-1.171-16.162c-.052-.713.743-1.172 1.334-.77l13.411 9.096 7.066-14.583c.311-.643 1.228-.643 1.54 0zm18.349-84.337-6.135-4.191 5.401-5.661-7.697-1.405 2.632-7.367-7.603 1.847-.591-7.8-6.194 4.78-3.714-6.886-3.714 6.886-6.194-4.78-.591 7.8-7.603-1.847 2.632 7.367-7.697 1.405 5.401 5.661-6.135 4.191c-7.741-3.614-14.547-8.895-19.904-15.427 3.598 20.961 21.815 36.929 43.804 36.929s40.206-15.968 43.804-36.929c-5.355 6.533-12.162 11.813-19.902 15.427z" transform="translate(0 -88.275)"/></svg>