<svg xmlns="http://www.w3.org/2000/svg" xml:space="preserve" width="512" height="335.45001"><path style="fill:#ff4b55" d="M0 385.379c0 21.177 17.167 38.345 38.345 38.345h435.31c21.177 0 38.345-17.167 38.345-38.345v-49.931H0zM473.655 88.276H38.345C17.167 88.276 0 105.443 0 126.621v49.931h512v-49.931c0-21.178-17.167-38.345-38.345-38.345z" transform="translate(0 -88.276)"/><path style="fill:#f5f5f5" d="M0 88.274h512v158.89999H0z"/><path style="fill:#ffb955" d="m314.196 145.182-56.036 22.873c-.022-.057-.049-.108-.075-.162l54.118-27.103c-2.14-4.271-4.739-8.271-7.755-11.919l-46.657 38.585c-.046-.058-.073-.132-.126-.186l42.77-42.813c-3.051-3.052-6.424-5.779-10.048-8.153l-33.113 50.686c-.075-.051-.142-.109-.224-.151l27.055-54.151c-4.345-2.177-8.977-3.861-13.825-4.988l-13.749 58.966c-.174-.042-.341-.107-.53-.107s-.354.065-.53.107L241.722 107.7c-4.849 1.127-9.48 2.81-13.825 4.988l27.055 54.151c-.081.042-.149.1-.224.151l-33.113-50.686c-3.625 2.375-6.997 5.102-10.048 8.153l42.77 42.813c-.052.054-.078.127-.126.186l-46.657-38.585c-3.016 3.647-5.615 7.648-7.755 11.919l54.118 27.103c-.026.055-.053.106-.075.162l-56.036-22.873c-1.689 4.142-2.945 8.505-3.721 13.035l59.658 10.329c-.008.052-.026.099-.031.152l-60.218-6.273c-.217 2.125-.329 4.28-.329 6.463 0 3.774.351 7.463.989 11.052L256 173.542l61.847 6.398c.638-3.591.989-7.279.989-11.052 0-2.183-.113-4.338-.329-6.463l-60.219 6.273c-.004-.053-.023-.1-.031-.152l59.657-10.329c-.773-4.529-2.03-8.892-3.718-13.035z"/><path style="fill:#4173cd" d="M195.27 273.315c.431 1.625.929 3.223 1.484 4.793h118.494c.555-1.57 1.053-3.168 1.484-4.793-5.805-.75-6.526-4.515-13.598-4.515-7.851 0-7.851 4.654-15.703 4.654-7.851 0-7.851-4.654-15.703-4.654-7.853 0-7.853 4.654-15.708 4.654-7.849 0-7.849-4.654-15.699-4.654-7.857 0-7.857 4.654-15.712 4.654-7.861 0-7.861-4.654-15.723-4.654-7.081 0-7.801 3.766-13.616 4.515zm106.012 11.776c-7.558-.001-7.559-4.654-15.118-4.654-7.561 0-7.561 4.654-15.122 4.654s-7.561-4.654-15.122-4.654c-7.563 0-7.563 4.654-15.125 4.654-7.559 0-7.559-4.654-15.117-4.654-7.565 0-7.565 4.654-15.13 4.654-6.712 0-7.484-3.652-12.846-4.482 1.28 3.18 2.797 6.239 4.558 9.137h107.481c1.764-2.904 3.285-5.971 4.567-9.16-5.523.776-6.244 4.504-13.026 4.505zm6.01 8.349c-1.463-.767-3.196-1.367-5.903-1.367-7.561 0-7.561 4.654-15.122 4.654s-7.561-4.654-15.122-4.654c-7.563 0-7.563 4.654-15.125 4.654-7.559 0-7.559-4.654-15.117-4.654-7.565 0-7.565 4.654-15.13 4.654-7.571 0-7.571-4.654-15.14-4.654-2.717 0-4.454.602-5.92 1.372 2.003 2.825 4.222 5.484 6.653 7.938h89.271c2.431-2.456 4.652-5.116 6.655-7.943zm-12.571 13.193c-2.284-1.324-4.121-2.924-8.557-2.924-7.561 0-7.561 4.654-15.122 4.654s-7.561-4.654-15.122-4.654c-7.563 0-7.563 4.654-15.125 4.654-7.559 0-7.559-4.654-15.117-4.654-4.377 0-6.225 1.556-8.468 2.87 3.115 2.449 6.465 4.607 10.014 6.44h57.551c3.524-1.819 6.85-3.96 9.946-6.386zm-53.818 8.713c-2.478 0-4.139.502-5.525 1.174C241.84 318.764 248.774 320 256 320h.012c-7.551-.003-7.553-4.654-15.109-4.654zm15.153 4.653c7.217-.007 14.141-1.242 20.594-3.488-1.382-.666-3.039-1.165-5.504-1.165-7.551 0-7.565 4.636-15.09 4.653z" transform="translate(0 -88.276)"/><path style="fill:#ff4b55" d="m264.266 249.207-19.912-5.754c-1.117-.323-1.891-1.331-1.906-2.494-.092-7.373-.412-33.336-.412-37.323 0-4.654 4.654-11.636 13.964-11.636h7.34c.695 0 .905.946.266 1.219-3.362 1.441-7.605 4.444-7.605 10.417 0 7.092 6.753 10.132 9.971 11.178.994.323 1.666 1.236 1.666 2.282v29.578c-.002 1.755-1.685 3.021-3.372 2.533zm-17.564 26.048c.73-.442 1.596.296 1.267 1.084-1.949 4.679-6.726 13.407-15.243 13.407-11.636 0-13.964-9.309-13.964-16.291V224.09c0-1.014.822-1.835 1.835-1.835h3.311c1.014 0 1.835.822 1.835 1.835v47.038c.003 6.292 13.235 8.804 20.959 4.127zm17.619 0c-.73-.442-1.596.296-1.267 1.084 1.949 4.679 6.726 13.407 15.243 13.407 11.636 0 13.964-9.309 13.964-16.291V224.09c0-1.014-.822-1.835-1.835-1.835h-3.311c-1.014 0-1.835.822-1.835 1.835v47.038c-.002 6.292-13.235 8.804-20.959 4.127z" transform="translate(0 -88.276)"/><path style="fill:#aa4650" d="M280.477 267.636h-48.953c-.62 0-1.123-.503-1.123-1.123v-.081c0-.62.503-1.123 1.123-1.123h48.953c.62 0 1.123.503 1.123 1.123v.081c0 .621-.503 1.123-1.123 1.123zm-45.132-8.785 2.52-3.36c.386-.513.281-1.244-.233-1.63-.513-.384-1.244-.277-1.629.234l-.981 1.308v-.903c0-.643-.521-1.164-1.164-1.164-.643 0-1.164.521-1.164 1.164v.819l-.917-1.223c-.385-.513-1.114-.62-1.629-.234-.515.386-.619 1.116-.233 1.63l2.52 3.36-2.52 3.36c-.386.513-.281 1.244.233 1.63.209.157.454.232.696.232.354 0 .703-.161.931-.466l2.112-2.817 2.112 2.817c.228.305.577.466.931.466.243 0 .488-.075.696-.232.515-.386.619-1.116.233-1.63zm21.721 0 2.52-3.36c.386-.513.281-1.244-.233-1.63-.513-.384-1.244-.277-1.629.234l-.981 1.308v-.903c0-.643-.521-1.164-1.164-1.164-.643 0-1.164.521-1.164 1.164v.819l-.917-1.223c-.385-.513-1.114-.62-1.629-.234-.515.386-.619 1.116-.233 1.63l2.52 3.36-2.52 3.36c-.386.513-.281 1.244.233 1.63.209.157.454.232.696.232.354 0 .703-.161.931-.466l2.112-2.817 2.112 2.817c.228.305.577.466.931.466.243 0 .488-.075.696-.232.515-.386.619-1.116.233-1.63zm-10.86 0 2.52-3.36c.386-.513.281-1.244-.233-1.63-.513-.384-1.244-.277-1.629.234l-.981 1.308v-.903c0-.643-.521-1.164-1.164-1.164-.643 0-1.164.521-1.164 1.164v.819l-.917-1.223c-.385-.513-1.114-.62-1.629-.234-.515.386-.619 1.116-.233 1.63l2.52 3.36-2.52 3.36c-.386.513-.281 1.244.233 1.63.209.157.454.232.696.232.354 0 .703-.161.931-.466l2.112-2.817 2.112 2.817c.228.305.577.466.931.466.243 0 .488-.075.696-.232.515-.386.619-1.116.233-1.63zm21.721 0 2.52-3.36c.386-.513.281-1.244-.233-1.63-.513-.384-1.244-.277-1.629.234l-.981 1.308v-.903c0-.643-.521-1.164-1.164-1.164-.643 0-1.164.521-1.164 1.164v.819l-.917-1.223c-.385-.513-1.114-.62-1.629-.234-.515.386-.619 1.116-.233 1.63l2.52 3.36-2.52 3.36c-.386.513-.281 1.244.233 1.63.209.157.454.232.696.232.354 0 .703-.161.931-.466l2.112-2.817 2.112 2.817c.228.305.577.466.931.466.243 0 .488-.075.696-.232.515-.386.619-1.116.233-1.63zm10.86 0 2.52-3.36c.386-.513.281-1.244-.233-1.63-.513-.384-1.244-.277-1.629.234l-.981 1.308v-.903c0-.643-.521-1.164-1.164-1.164-.643 0-1.164.521-1.164 1.164v.819l-.917-1.223c-.385-.513-1.114-.62-1.629-.234-.515.386-.619 1.116-.233 1.63l2.52 3.36-2.52 3.36c-.386.513-.281 1.244.233 1.63.209.157.454.232.696.232.354 0 .703-.161.931-.466l2.112-2.817 2.112 2.817c.228.305.577.466.931.466.243 0 .488-.075.696-.232.515-.386.619-1.116.233-1.63zm-45.591 15.973c1.721.753 11.832.861 14.413-1.828 2.581-2.689 2.044-3.872 2.044-3.872l-12.263.107zm45.116 0c-1.721.753-11.832.861-14.413-1.828-2.581-2.689-2.044-3.872-2.044-3.872l12.263.107z" transform="translate(0 -88.276)"/></svg>