<svg xmlns="http://www.w3.org/2000/svg" xml:space="preserve" width="512" height="335.45001"><style>.st1{fill:#f5f5f5}.st2{fill:#ed1f34}</style><path d="M.19 27.34003C.06 28.46003 0 29.59998 0 30.75v30.4798h51.90967L.19 27.34003zM480.79999 0h-224.75v27.21997L204.14032 61.2298h51.90918v45.29193h-51.91687l51.91736 34.0083V167.75H214.51l-63.44-41.56-.00061-.00042v41.56097h-46.08936v-41.5606l-.00006.00005-63.44 41.56H0v137c0 16.97998 14.01001 30.75 31.29999 30.75h449.5c17.29004 0 31.29999-13.77002 31.29999-30.75v-274c0-16.97998-14.00995-30.75-31.3-30.75zM440.9743 161.55695c0 60.4599-56.90008 74.28118-56.90008 74.28118s-56.90015-13.82226-56.90015-74.28118V99.66284H440.9743v61.8941zM0 106.52173v34.0083l51.91736-34.0083zm104.98004-64.96167V.00104h46.08936v41.55938l.00061-.00042 63.44-41.56H41.53998l63.44 41.56z" style="fill:#103b9b"/><path class="st1" d="M151.0694 41.56042V.00104h-10.66913v71.71258H256.0495V61.2298h-51.90918l51.90967-34.00983V0l-93.45966 61.2298H151.0694V50.64044l.00061-.00043L228.34998 0h-13.83997l-63.44 41.56z"/><path class="st2" d="M162.58264 106.52173 256.04999 167.75v-17.76001l-66.19739-43.46826zM93.4497 61.2298 15.37 10.07c-1.77002-1.16003-3.71003-1.66998-5.58997-1.65002-3.32 3.09003-5.95001 6.88-7.64002 11.14002l63.44971 41.6698h27.85999zm57.6197-10.58936V61.2298h11.52093L256.04999 0h-27.70001l-77.27997 50.64001zM104.97998 117.12l.00006-.00007v-10.5982H93.4574L0 167.75h27.70001z"/><path class="st1" d="M140.40027 96.03796v71.71259h10.66913v-41.56097l.00061.00042 63.44 41.56h41.53998l-93.46735-61.22827h27.26996l66.19739 43.46826v-9.45996l-51.91736-34.0083h51.91687V96.03796zm-24.75104-24.32434V.00104h-10.66919v41.55902l-.00006-.00006L41.53998 0h-10.24C22.96003 0 15.38 3.20001 9.78004 8.41998c1.87994-.01996 3.81995.49 5.58997 1.65003L93.4497 61.2298H65.58973L2.14002 19.56C1.15996 22.01.5 24.62.19 27.34003L51.90967 61.2298H0v10.48382h115.64923zm-10.66919 34.80811v10.5982l-.00006.00007-77.27997 50.63h13.83997l63.44-41.56.00006-.00006v41.56061h10.66919V96.03796H0v10.48377h51.91736L0 140.53003V167.75l93.4574-61.22827z"/><path class="st2" d="M115.64923 96.03796v71.71259h24.75104V96.03796H256.0495V71.71362H140.40027V.00104h-24.75104v71.71258H0v24.32434z"/><path d="M327.17407 99.6629v61.89405c0 60.45892 56.90015 74.28118 56.90015 74.28118s56.90008-13.82128 56.90008-74.28118v-61.8941H327.17407v.00005zm77.95319 27.40283c9.27045 0 16.78564 7.38532 16.78564 16.49555s-7.5152 16.49554-16.78564 16.49554-16.78559-7.38531-16.78559-16.49554 7.51514-16.49555 16.78559-16.49555zm-4.26746 51.44281c0 9.11023-7.51513 16.49555-16.78558 16.49555s-16.78558-7.38532-16.78558-16.49555 7.51513-16.49554 16.78558-16.49554 16.78558 7.38532 16.78558 16.49554zm-37.83862-51.4428c9.27045 0 16.78558 7.38531 16.78558 16.49554s-7.51513 16.49554-16.78558 16.49554-16.78565-7.38531-16.78565-16.49554 7.5152-16.49555 16.78565-16.49555z" style="fill:#ffe000"/><ellipse cx="363.02118" cy="143.56128" rx="16.7856" ry="16.49554" style="fill:#f2a643"/><ellipse cx="405.12726" cy="143.56128" rx="16.78563" ry="16.49554" style="fill:#ff7900"/><ellipse cx="384.07422" cy="178.50854" rx="16.78558" ry="16.49554" style="fill:#259245"/></svg>