<svg xmlns="http://www.w3.org/2000/svg" xml:space="preserve" width="512" height="335.45001"><path style="fill:#73af00" d="M473.885 88.279H38.115C17.045 88.403 0 105.517 0 126.617v28.75h512v-28.75c0-21.1-17.045-38.214-38.115-38.338zM0 222.46001h512v67.09H0z" transform="translate(0 -88.279)"/><path style="fill:#ffe15a" d="M0 67.091h512v67.09H0z"/><path style="fill:#73af00" d="M0 297.097c0 21.177 17.167 38.345 38.345 38.345h435.31c21.177 0 38.345-17.167 38.345-38.345v-28.739H0z"/><path style="fill:#ffe15a" d="M0 201.27098h512v67.09H0z"/><path style="fill:#ff4b55" d="M8.828 201.269h185.379c4.875 0 8.828-3.953 8.828-8.828V8.828c0-4.875-3.953-8.828-8.828-8.828H38.115C17.045.124 0 17.238 0 38.338V192.44c0 4.877 3.953 8.829 8.828 8.829z"/><path style="fill:#f5f5f5" d="M99.335 47.36 86.577 85.612l-40.322.312c-2.21.018-3.127 2.838-1.348 4.151l32.438 23.954-12.163 38.446c-.666 2.108 1.734 3.851 3.531 2.566l32.806-23.447 32.806 23.448c1.799 1.286 4.199-.458 3.531-2.566l-12.163-38.445 32.438-23.954c1.779-1.313.862-4.135-1.348-4.151l-40.322-.312L103.7 47.362c-.7-2.098-3.666-2.098-4.365-.002z"/></svg>