<svg xmlns="http://www.w3.org/2000/svg" xml:space="preserve" width="512" height="335.45001"><path style="fill:#ff4b55" d="M473.792 335.488H38.336C17.216 335.488 0 318.4 0 297.152V38.336C0 17.152 17.216 0 38.336 0h435.392c21.184 0 38.336 17.216 38.336 38.336v258.88c.064 21.184-17.152 38.272-38.272 38.272z"/><path style="fill:#ffe15a" d="m14.592 327.296 272.832-154.048c4.288-2.432 4.288-8.576 0-11.008L14.592 8.192C5.696 15.168 0 26.112 0 38.272v258.88c0 12.224 5.696 23.104 14.592 30.144z"/><path style="fill:#464655" d="M12.224 325.184 195.776 173.76c3.776-3.072 3.776-9.024 0-12.096L12.224 10.304C4.736 17.344 0 27.328 0 38.336v258.88c0 11.072 4.736 20.928 12.224 27.968z"/><path style="fill:#f5f5f5" d="m55.104 126.208.832 31.808-29.824 11.072c-2.88 1.088-2.688 5.12.192 6.016l30.528 9.024 1.28 31.808c.128 3.008 4.096 4.224 5.824 1.728l17.984-26.176L112.512 200c2.88.832 5.184-2.624 3.392-4.992l-19.328-25.216 17.6-26.496c1.728-2.496-.832-5.824-3.712-4.672l-30.016 10.624L60.8 124.224c-1.856-2.368-5.696-.96-5.696 1.984z"/></svg>