<svg xmlns="http://www.w3.org/2000/svg" xml:space="preserve" width="512" height="335.45001"><path style="fill:#41479b" d="M473.655 335.448H38.346c-21.177 0-38.345-17.167-38.345-38.345V38.346C.001 17.169 17.168.001 38.346.001h435.309C494.832.001 512 17.168 512 38.346v258.758c0 21.177-17.167 38.344-38.345 38.344z"/><path style="fill:#f5f5f5" d="M150.069 53.573V.001h-44.138v53.573L26.845 1.759c-9.234 2.9-16.954 9.203-21.711 17.434l65.022 42.601H.001v44.138h70.153L.001 151.893v7.033c.017 4.861 3.961 8.797 8.826 8.797H24.16l81.77-53.572v53.573h44.138v-53.573l81.77 53.573h15.333c4.875 0 8.828-3.953 8.828-8.828v-7.002l-70.155-45.963h70.155V61.794h-70.155l70.155-45.964V8.828c0-4.874-3.95-8.825-8.823-8.828h-15.338z"/><path style="fill:#ff4b55" d="M141.241 88.277h-26.483v70.62H0v26.483h114.758v70.621h26.483V185.38h114.758v-26.483H141.241z" transform="translate(0 -88.276)"/><path style="fill:#ff4b55" d="m8.228 102.903 72.661 47.166h16.214l-82.495-53.55c-2.369 1.871-4.51 4.014-6.38 6.384zm158.055 47.167 88.374-57.366c-1.536-2.599-4.246-4.427-7.485-4.427h-1.909l-95.194 61.793zm-76.809 44.138L1.269 251.462c1.519 2.663 4.273 4.537 7.559 4.537h1.665l95.195-61.793H89.474zm166.385 53.658-82.666-53.658H156.98l93.873 60.934c2.813-1.305 4.741-4.04 5.006-7.276z" transform="translate(0 -88.276)"/><path style="fill:#73af00" d="M387.75 82.849h-57.796v105.393c0 23.798 57.796 47.597 57.796 47.597s57.796-23.798 57.796-47.597V82.849z"/><path style="fill:#ff4b55" d="M353.913 163.267s-.324-1.119-.036-2.13c.289-1.011-.454-1.938-.614-2.815-.433-2.382 1.588-2.996 1.696-5.124 0 0 1.443 1.48.903 2.888-.541 1.408.794 1.624.614 2.959-.181 1.335-1.661 2.743-1.516 3.934z"/><path style="fill:#ffe15a" d="M376.637 161.005c-1.181-1.476-3.252.114-4.768 1.27-.211.162-.39.286-.577.422l-5.592-8.259c.157-.236.27-.503.27-.807 0-.823-.666-1.49-1.49-1.49s-1.49.666-1.49 1.49c0 .305.114.572.27.807l-5.769 8.519h-4.085s-.169 2.539 4.291 2.847c.575.871 1.395 1.564 2.377 1.956-.461.075-.833.431-.833.914v.597c0 .038.036.06.04.097h10.391c.004-.036.04-.059.04-.097v-.597c0-.488-.378-.852-.847-.919 1.739-.7 2.961-2.327 3.167-4.26.162-.12.313-.23.489-.363 1.097-.842 2.749-2.124 3.276-1.453.131.164.118.255.113.288-.06.39-.893.95-1.562 1.399-1.053.707-2.142 1.441-2.228 2.481-.025.297.194.554.49.581h.045c.277 0 .512-.213.535-.491.043-.527.993-1.165 1.757-1.677.973-.657 1.892-1.273 2.024-2.127.061-.395-.052-.772-.334-1.128zm-9.559 1.95c-.308-1.174-1.034-2.302-1.941-2.71.48-.247.819-.734.819-1.311 0-.822-.666-1.49-1.49-1.49-.822 0-1.49.666-1.49 1.49 0 .577.338 1.064.819 1.311-.907.407-1.634 1.535-1.941 2.71h-3.065l5.353-7.905c.111.026.219.068.339.068.12 0 .227-.042.339-.068l5.353 7.905z"/><path style="fill:#ffc8b9" d="M384.066 112.88s-5.383-1.593-7.791 17.247c0 0-13.174 16.751-13.599 17.742-.425.992-.035 8.11 1.382 7.543 1.417-.567 3.967-3.86 3.825-6.269-.142-2.409.945-3.752 2.018-4.958 2.018-2.266 13.387-12.536 13.812-14.803.424-2.265.353-16.502.353-16.502z"/><path style="fill:#f5f5f5" d="M392.425 197.579s8.322-1.098 10.766 7.402c0 0-6.835 3.754-5.985 8.641.85 4.887-.106 27.198-.106 27.198-13.068 4.249-19.974-1.063-19.974-1.063s3.4-12.643 2.869-22.948c0 0-3.081-2.337-2.337-4.993.744-2.656 2.656-5.631 3.294-7.862.638-2.231 2.337-5.95 6.481-6.269 4.141-.318 4.992-.106 4.992-.106z" transform="translate(0 -88.276)"/><path style="fill:#f5f5f5" d="M379.534 237.278s-6.516 24.649-4.249 58.221c0 0 20.328 2.691 31.378-1.346 0 0-5.737-40.16-11.262-55.884z" transform="translate(0 -88.276)"/><path style="fill:#ffc8b9" d="M383.358 94.785v10.211c0 1.121.909 2.03 2.03 2.03h.182c.793 0 1.437.643 1.437 1.437v2.441s1.368 3.574 6.691-.608V94.861z"/><path style="fill:#8c5a28" d="M382.154 92.694c-.33.825.018 3.063 2.053 2.904 2.543-.199 5.613-.213 6.304 2.603.642 2.617.213 9.154 3.046 9.58 2.834.425 6.046-1.458 5.985-7.083-.053-4.958-3.294-10.89-7.827-9.987 0 0-4.02-2.816-6.375.354.002 0-2.477-.142-3.186 1.629z"/><path style="fill:#ffc8b9" d="M403.19 116.705s2.9 19.104 2.762 20.682c-.141 1.629-10.27 17.282-9.704 18.983.567 1.7 1.133 3.967-1.983 4.817-3.116.85-2.797-4.126-1.948-6.676.849-2.55 7.968-16.131 7.968-17.689 0-1.558-4.038-11.616-3.046-15.583.993-3.968 5.951-4.534 5.951-4.534z"/><path style="fill:#ff4b55" d="M341.163 102.986s-.324-1.119-.036-2.13c.289-1.011-.454-1.938-.613-2.815-.433-2.382 1.588-2.996 1.696-5.124 0 0 1.443 1.48.903 2.888-.542 1.408.794 1.624.614 2.959-.18 1.335-1.661 2.743-1.516 3.934z"/><path style="fill:#ffe15a" d="M363.888 100.724c-1.181-1.476-3.252.114-4.768 1.27-.211.162-.39.286-.577.422l-5.592-8.259c.157-.236.27-.503.27-.807 0-.823-.666-1.49-1.49-1.49s-1.49.666-1.49 1.49c0 .305.114.572.27.807l-5.769 8.519h-4.085s-.169 2.539 4.291 2.847c.575.871 1.395 1.564 2.377 1.956-.461.075-.833.431-.833.914v.597c0 .038.036.06.04.097h10.391c.004-.036.04-.058.04-.097v-.597c0-.488-.378-.852-.847-.919 1.739-.7 2.961-2.327 3.167-4.26.162-.12.313-.23.489-.363 1.097-.842 2.749-2.124 3.276-1.453.131.164.118.255.113.288-.06.39-.893.95-1.562 1.399-1.053.707-2.142 1.441-2.228 2.481-.025.297.194.554.49.582h.045c.277 0 .512-.213.535-.491.043-.527.993-1.165 1.757-1.677.973-.657 1.892-1.273 2.024-2.127.061-.395-.052-.772-.334-1.129zm-9.559 1.951c-.308-1.174-1.034-2.302-1.941-2.71.48-.247.819-.734.819-1.311 0-.822-.666-1.49-1.49-1.49-.822 0-1.49.666-1.49 1.49 0 .577.338 1.064.819 1.311-.907.407-1.634 1.535-1.941 2.71h-3.065l5.353-7.905c.111.026.218.068.339.068.12 0 .227-.042.339-.068l5.353 7.905z"/><path style="fill:#ff4b55" d="M341.163 123.079s-.324-1.119-.036-2.13c.289-1.011-.454-1.938-.613-2.815-.433-2.382 1.588-2.996 1.696-5.124 0 0 1.443 1.48.903 2.888-.541 1.408.794 1.624.614 2.959-.18 1.335-1.661 2.743-1.516 3.934z"/><path style="fill:#ffe15a" d="M363.888 120.818c-1.181-1.476-3.252.114-4.768 1.27-.211.162-.39.286-.577.422l-5.592-8.259c.157-.236.27-.503.27-.807 0-.823-.666-1.49-1.49-1.49s-1.49.666-1.49 1.49c0 .305.114.572.27.807l-5.769 8.519h-4.085s-.169 2.539 4.291 2.847c.575.871 1.395 1.564 2.377 1.956-.461.075-.833.431-.833.914v.597c0 .038.036.06.04.097h10.391c.004-.036.04-.058.04-.097v-.597c0-.488-.378-.852-.847-.92 1.739-.7 2.961-2.327 3.167-4.26.162-.12.313-.23.489-.363 1.097-.842 2.749-2.124 3.276-1.453.131.164.118.255.113.288-.06.39-.893.95-1.562 1.399-1.053.707-2.142 1.441-2.228 2.481-.025.297.194.554.49.581h.045c.277 0 .512-.213.535-.491.043-.527.993-1.165 1.757-1.677.973-.657 1.892-1.273 2.024-2.127.061-.393-.052-.77-.334-1.127zm-9.559 1.951c-.308-1.174-1.034-2.302-1.941-2.71.48-.247.819-.734.819-1.311 0-.822-.666-1.49-1.49-1.49-.822 0-1.49.666-1.49 1.49 0 .577.338 1.064.819 1.311-.907.407-1.634 1.535-1.941 2.71h-3.065l5.353-7.905c.111.026.218.068.339.068.12 0 .227-.042.339-.068l5.353 7.905z"/><path style="fill:#ff4b55" d="M341.163 143.173s-.324-1.119-.036-2.13c.289-1.011-.454-1.938-.613-2.815-.433-2.382 1.588-2.996 1.696-5.124 0 0 1.443 1.48.903 2.888-.542 1.408.794 1.624.614 2.959-.18 1.335-1.661 2.743-1.516 3.934z"/><path style="fill:#ffe15a" d="M363.888 140.911c-1.181-1.476-3.252.114-4.768 1.27-.211.162-.39.286-.577.422l-5.592-8.259c.157-.236.27-.503.27-.807 0-.823-.666-1.49-1.49-1.49s-1.49.666-1.49 1.49c0 .305.114.572.27.807l-5.769 8.519h-4.085s-.169 2.539 4.291 2.847c.575.871 1.395 1.564 2.377 1.956-.461.075-.833.431-.833.914v.597c0 .038.036.06.04.097h10.391c.004-.036.04-.058.04-.097v-.597c0-.488-.378-.852-.847-.919 1.739-.7 2.961-2.327 3.167-4.26.162-.12.313-.23.489-.363 1.097-.842 2.749-2.124 3.276-1.453.131.164.118.255.113.288-.06.39-.893.95-1.562 1.399-1.053.707-2.142 1.441-2.228 2.481-.025.297.194.554.49.582h.045c.277 0 .512-.213.535-.491.043-.527.993-1.165 1.757-1.677.973-.657 1.892-1.273 2.024-2.127.061-.395-.052-.773-.334-1.129zm-9.559 1.952c-.308-1.174-1.034-2.302-1.941-2.71.48-.247.819-.734.819-1.311 0-.822-.666-1.49-1.49-1.49-.822 0-1.49.666-1.49 1.49 0 .577.338 1.064.819 1.311-.907.407-1.634 1.535-1.941 2.71h-3.065l5.353-7.905c.111.026.218.068.339.068.12 0 .227-.042.339-.068l5.353 7.905z"/><path style="fill:#ff4b55" d="M341.163 183.359s-.324-1.119-.036-2.13c.289-1.011-.454-1.938-.613-2.815-.433-2.382 1.588-2.996 1.696-5.124 0 0 1.443 1.48.903 2.888s.794 1.624.614 2.959c-.18 1.335-1.661 2.743-1.516 3.934z"/><path style="fill:#ffe15a" d="M363.888 181.098c-1.181-1.476-3.252.114-4.768 1.27-.211.162-.39.286-.577.422l-5.592-8.258c.157-.236.27-.503.27-.807 0-.823-.666-1.49-1.49-1.49s-1.49.666-1.49 1.49c0 .305.114.572.27.807l-5.769 8.519h-4.085s-.169 2.539 4.291 2.847c.575.871 1.395 1.564 2.377 1.956-.461.075-.833.431-.833.914v.597c0 .038.036.06.04.097h10.391c.004-.036.04-.058.04-.097v-.597c0-.488-.378-.852-.847-.919 1.739-.7 2.961-2.327 3.167-4.26.162-.12.313-.23.489-.363 1.097-.842 2.749-2.124 3.276-1.453.131.164.118.255.113.288-.06.389-.893.95-1.562 1.399-1.053.707-2.142 1.441-2.228 2.481-.025.297.194.554.49.582h.045c.277 0 .512-.213.535-.491.043-.527.993-1.165 1.757-1.677.973-.657 1.892-1.273 2.024-2.127.061-.396-.052-.773-.334-1.13zm-9.559 1.951c-.308-1.174-1.034-2.302-1.941-2.71.48-.247.819-.734.819-1.311 0-.822-.666-1.49-1.49-1.49-.822 0-1.49.666-1.49 1.49 0 .577.338 1.064.819 1.311-.907.407-1.634 1.535-1.941 2.71h-3.065l5.353-7.905c.111.026.218.068.339.068.12 0 .227-.042.339-.068l5.353 7.905z"/><path style="fill:#ff4b55" d="M341.163 203.453s-.324-1.119-.036-2.13c.289-1.011-.454-1.938-.613-2.815-.433-2.382 1.588-2.996 1.696-5.124 0 0 1.443 1.48.903 2.888-.542 1.408.794 1.624.614 2.959-.181 1.335-1.661 2.743-1.516 3.934z"/><path style="fill:#ffe15a" d="M363.888 201.191c-1.181-1.476-3.252.114-4.768 1.27-.211.162-.39.286-.577.422l-5.592-8.258c.157-.236.27-.503.27-.807 0-.823-.666-1.49-1.49-1.49s-1.49.666-1.49 1.49c0 .305.114.572.27.807l-5.769 8.519h-4.085s-.169 2.539 4.291 2.847c.575.871 1.395 1.564 2.377 1.956-.461.075-.833.431-.833.914v.597c0 .038.036.06.04.097h10.391c.004-.036.04-.058.04-.097v-.597c0-.488-.378-.852-.847-.919 1.739-.7 2.961-2.327 3.167-4.26.162-.12.313-.23.489-.363 1.097-.842 2.749-2.124 3.276-1.453.131.164.118.255.113.288-.06.39-.893.95-1.562 1.399-1.053.707-2.142 1.441-2.228 2.481-.025.297.194.554.49.582h.045c.277 0 .512-.213.535-.491.043-.527.993-1.165 1.757-1.677.973-.657 1.892-1.273 2.024-2.127.061-.395-.052-.774-.334-1.13zm-9.559 1.952c-.308-1.174-1.034-2.302-1.941-2.71.48-.247.819-.734.819-1.311 0-.822-.666-1.49-1.49-1.49-.822 0-1.49.667-1.49 1.49 0 .577.338 1.064.819 1.311-.907.407-1.634 1.535-1.941 2.71h-3.065l5.353-7.905c.111.026.218.068.339.068.12 0 .227-.042.339-.068l5.353 7.905z"/><path style="fill:#ff4b55" d="M411.071 102.986s-.324-1.119-.036-2.13c.289-1.011-.455-1.938-.613-2.815-.433-2.382 1.588-2.996 1.696-5.124 0 0 1.443 1.48.903 2.888-.542 1.408.794 1.624.614 2.959-.18 1.335-1.661 2.743-1.516 3.934z"/><path style="fill:#ffe15a" d="M433.795 100.724c-1.181-1.476-3.252.114-4.768 1.27-.211.162-.39.286-.577.422l-5.592-8.259c.157-.236.27-.503.27-.807 0-.823-.666-1.49-1.49-1.49s-1.49.666-1.49 1.49c0 .305.114.572.27.807l-5.769 8.519h-4.085s-.169 2.539 4.291 2.847c.575.871 1.395 1.564 2.377 1.956-.461.075-.833.431-.833.914v.597c0 .038.036.06.04.097h10.391c.004-.036.04-.058.04-.097v-.597c0-.488-.378-.852-.847-.919 1.739-.7 2.961-2.327 3.167-4.26.162-.12.313-.23.489-.363 1.097-.842 2.749-2.124 3.276-1.453.131.164.118.255.113.288-.06.39-.893.95-1.562 1.399-1.053.707-2.142 1.441-2.228 2.481-.025.297.194.554.49.582h.045c.277 0 .512-.213.535-.491.043-.527.993-1.165 1.757-1.677.973-.657 1.892-1.273 2.024-2.127.061-.395-.05-.772-.334-1.129zm-9.558 1.951c-.308-1.174-1.034-2.302-1.941-2.71.48-.247.819-.734.819-1.311 0-.822-.667-1.49-1.49-1.49-.822 0-1.49.666-1.49 1.49 0 .577.338 1.064.819 1.311-.907.407-1.634 1.535-1.941 2.71h-3.065l5.353-7.905c.111.026.218.068.339.068.12 0 .227-.042.339-.068l5.353 7.905z"/><path style="fill:#ff4b55" d="M411.071 123.079s-.324-1.119-.036-2.13c.289-1.011-.455-1.938-.613-2.815-.433-2.382 1.588-2.996 1.696-5.124 0 0 1.443 1.48.903 2.888-.542 1.408.794 1.624.614 2.959-.18 1.335-1.661 2.743-1.516 3.934z"/><path style="fill:#ffe15a" d="M433.795 120.818c-1.181-1.476-3.252.114-4.768 1.27-.211.162-.39.286-.577.422l-5.592-8.259c.157-.236.27-.503.27-.807 0-.823-.666-1.49-1.49-1.49s-1.49.666-1.49 1.49c0 .305.114.572.27.807l-5.769 8.519h-4.085s-.169 2.539 4.291 2.847c.575.871 1.395 1.564 2.377 1.956-.461.075-.833.431-.833.914v.597c0 .038.036.06.04.097h10.391c.004-.036.04-.058.04-.097v-.597c0-.488-.378-.852-.847-.92 1.739-.7 2.961-2.327 3.167-4.26.162-.12.313-.23.489-.363 1.097-.842 2.749-2.124 3.276-1.453.131.164.118.255.113.288-.06.39-.893.95-1.562 1.399-1.053.707-2.142 1.441-2.228 2.481-.025.297.194.554.49.581h.045c.277 0 .512-.213.535-.491.043-.527.993-1.165 1.757-1.677.973-.657 1.892-1.273 2.024-2.127.061-.393-.05-.77-.334-1.127zm-9.558 1.951c-.308-1.174-1.034-2.302-1.941-2.71.48-.247.819-.734.819-1.311 0-.822-.667-1.49-1.49-1.49-.822 0-1.49.666-1.49 1.49 0 .577.338 1.064.819 1.311-.907.407-1.634 1.535-1.941 2.71h-3.065l5.353-7.905c.111.026.218.068.339.068.12 0 .227-.042.339-.068l5.353 7.905z"/><path style="fill:#ff4b55" d="M411.071 143.173s-.324-1.119-.036-2.13c.289-1.011-.455-1.938-.613-2.815-.433-2.382 1.588-2.996 1.696-5.124 0 0 1.443 1.48.903 2.888-.542 1.408.794 1.624.614 2.959-.18 1.335-1.661 2.743-1.516 3.934z"/><path style="fill:#ffe15a" d="M433.795 140.911c-1.181-1.476-3.252.114-4.768 1.27-.211.162-.39.286-.577.422l-5.592-8.259c.157-.236.27-.503.27-.807 0-.823-.666-1.49-1.49-1.49s-1.49.666-1.49 1.49c0 .305.114.572.27.807l-5.769 8.519h-4.085s-.169 2.539 4.291 2.847c.575.871 1.395 1.564 2.377 1.956-.461.075-.833.431-.833.914v.597c0 .038.036.06.04.097h10.391c.004-.036.04-.058.04-.097v-.597c0-.488-.378-.852-.847-.919 1.739-.7 2.961-2.327 3.167-4.26.162-.12.313-.23.489-.363 1.097-.842 2.749-2.124 3.276-1.453.131.164.118.255.113.288-.06.39-.893.95-1.562 1.399-1.053.707-2.142 1.441-2.228 2.481-.025.297.194.554.49.582h.045c.277 0 .512-.213.535-.491.043-.527.993-1.165 1.757-1.677.973-.657 1.892-1.273 2.024-2.127.061-.395-.05-.773-.334-1.129zm-9.558 1.952c-.308-1.174-1.034-2.302-1.941-2.71.48-.247.819-.734.819-1.311 0-.822-.667-1.49-1.49-1.49-.822 0-1.49.666-1.49 1.49 0 .577.338 1.064.819 1.311-.907.407-1.634 1.535-1.941 2.71h-3.065l5.353-7.905c.111.026.218.068.339.068.12 0 .227-.042.339-.068l5.353 7.905z"/><path style="fill:#ff4b55" d="M411.071 163.267s-.324-1.119-.036-2.13c.289-1.011-.455-1.938-.613-2.815-.433-2.382 1.588-2.996 1.696-5.124 0 0 1.443 1.48.903 2.888-.542 1.408.794 1.624.614 2.959-.181 1.335-1.661 2.743-1.516 3.934z"/><path style="fill:#ffe15a" d="M433.795 161.005c-1.181-1.476-3.252.114-4.768 1.27-.211.162-.39.286-.577.422l-5.592-8.259c.157-.236.27-.503.27-.807 0-.823-.666-1.49-1.49-1.49s-1.49.666-1.49 1.49c0 .305.114.572.27.807l-5.769 8.519h-4.085s-.169 2.539 4.291 2.847c.575.871 1.395 1.564 2.377 1.956-.461.075-.833.431-.833.914v.597c0 .038.036.06.04.097h10.391c.004-.036.04-.059.04-.097v-.597c0-.488-.378-.852-.847-.919 1.739-.7 2.961-2.327 3.167-4.26.162-.12.313-.23.489-.363 1.097-.842 2.749-2.124 3.276-1.453.131.164.118.255.113.288-.06.39-.893.95-1.562 1.399-1.053.707-2.142 1.441-2.228 2.481-.025.297.194.554.49.581h.045c.277 0 .512-.213.535-.491.043-.527.993-1.165 1.757-1.677.973-.657 1.892-1.273 2.024-2.127.061-.395-.05-.772-.334-1.128zm-9.558 1.95c-.308-1.174-1.034-2.302-1.941-2.71.48-.247.819-.734.819-1.311 0-.822-.667-1.49-1.49-1.49-.822 0-1.49.666-1.49 1.49 0 .577.338 1.064.819 1.311-.907.407-1.634 1.535-1.941 2.71h-3.065l5.353-7.905c.111.026.218.068.339.068.12 0 .227-.042.339-.068l5.353 7.905z"/><path style="fill:#ff4b55" d="M411.071 183.359s-.324-1.119-.036-2.13c.289-1.011-.455-1.938-.613-2.815-.433-2.382 1.588-2.996 1.696-5.124 0 0 1.443 1.48.903 2.888-.542 1.408.794 1.624.614 2.959-.18 1.335-1.661 2.743-1.516 3.934z"/><path style="fill:#ffe15a" d="M433.795 181.098c-1.181-1.476-3.252.114-4.768 1.27-.211.162-.39.286-.577.422l-5.592-8.258c.157-.236.27-.503.27-.807 0-.823-.666-1.49-1.49-1.49s-1.49.666-1.49 1.49c0 .305.114.572.27.807l-5.769 8.519h-4.085s-.169 2.539 4.291 2.847c.575.871 1.395 1.564 2.377 1.956-.461.075-.833.431-.833.914v.597c0 .038.036.06.04.097h10.391c.004-.036.04-.058.04-.097v-.597c0-.488-.378-.852-.847-.919 1.739-.7 2.961-2.327 3.167-4.26.162-.12.313-.23.489-.363 1.097-.842 2.749-2.124 3.276-1.453.131.164.118.255.113.288-.06.389-.893.95-1.562 1.399-1.053.707-2.142 1.441-2.228 2.481-.025.297.194.554.49.582h.045c.277 0 .512-.213.535-.491.043-.527.993-1.165 1.757-1.677.973-.657 1.892-1.273 2.024-2.127.061-.396-.05-.773-.334-1.13zm-9.558 1.951c-.308-1.174-1.034-2.302-1.941-2.71.48-.247.819-.734.819-1.311 0-.822-.667-1.49-1.49-1.49-.822 0-1.49.666-1.49 1.49 0 .577.338 1.064.819 1.311-.907.407-1.634 1.535-1.941 2.71h-3.065l5.353-7.905c.111.026.218.068.339.068.12 0 .227-.042.339-.068l5.353 7.905z"/><path style="fill:#ff4b55" d="M411.071 203.453s-.324-1.119-.036-2.13c.289-1.011-.455-1.938-.613-2.815-.433-2.382 1.588-2.996 1.696-5.124 0 0 1.443 1.48.903 2.888-.542 1.408.794 1.624.614 2.959-.181 1.335-1.661 2.743-1.516 3.934z"/><path style="fill:#ffe15a" d="M433.795 201.191c-1.181-1.476-3.252.114-4.768 1.27-.211.162-.39.286-.577.422l-5.592-8.258c.157-.236.27-.503.27-.807 0-.823-.666-1.49-1.49-1.49s-1.49.666-1.49 1.49c0 .305.114.572.27.807l-5.769 8.519h-4.085s-.169 2.539 4.291 2.847c.575.871 1.395 1.564 2.377 1.956-.461.075-.833.431-.833.914v.597c0 .038.036.06.04.097h10.391c.004-.036.04-.058.04-.097v-.597c0-.488-.378-.852-.847-.919 1.739-.7 2.961-2.327 3.167-4.26.162-.12.313-.23.489-.363 1.097-.842 2.749-2.124 3.276-1.453.131.164.118.255.113.288-.06.39-.893.95-1.562 1.399-1.053.707-2.142 1.441-2.228 2.481-.025.297.194.554.49.582h.045c.277 0 .512-.213.535-.491.043-.527.993-1.165 1.757-1.677.973-.657 1.892-1.273 2.024-2.127.061-.395-.05-.774-.334-1.13zm-9.558 1.952c-.308-1.174-1.034-2.302-1.941-2.71.48-.247.819-.734.819-1.311 0-.822-.667-1.49-1.49-1.49-.822 0-1.49.667-1.49 1.49 0 .577.338 1.064.819 1.311-.907.407-1.634 1.535-1.941 2.71h-3.065l5.353-7.905c.111.026.218.068.339.068.12 0 .227-.042.339-.068l5.353 7.905z"/><path style="fill:#f5f5f5" d="M445.546 171.125v105.393c0 23.798-57.796 47.597-57.796 47.597s-57.796-23.798-57.796-47.597V171.125h115.592m3.4-3.4H326.554v108.793c0 11.128 10.265 23.111 30.511 35.616 14.518 8.967 28.79 14.878 29.39 15.125l1.294.533 1.294-.533c.6-.247 14.872-6.158 29.39-15.125 20.246-12.505 30.511-24.488 30.511-35.616V171.125z" transform="translate(0 -88.276)"/><path style="fill:#f5f5f5" d="m449.437 295.262 15.412 10.629c-17.901 22.963-45.794 37.772-77.1 37.772-31.305 0-59.198-14.81-77.1-37.772l15.412-10.629c14.498 18.089 36.756 29.703 61.687 29.703 24.933 0 47.191-11.614 61.689-29.703m-.674-4.594-1.978 2.468c-14.48 18.067-35.998 28.429-59.034 28.429s-44.554-10.362-59.034-28.429l-1.978-2.468-2.604 1.796-15.412 10.629-2.967 2.046 2.216 2.842c19.363 24.836 48.442 39.082 79.78 39.082s60.418-14.244 79.78-39.082l2.216-2.842-2.967-2.046-15.412-10.629z" transform="translate(0 -88.276)"/><path style="fill:#ffe15a" d="M387.75 255.388c31.305 0 59.198-14.81 77.1-37.772l-15.412-10.629c-14.498 18.089-36.756 29.703-61.687 29.703-24.931 0-47.189-11.614-61.687-29.703l-15.412 10.629c17.9 22.961 45.793 37.772 77.098 37.772z"/></svg>