<svg xmlns="http://www.w3.org/2000/svg" xml:space="preserve" width="512" height="335.45001"><path d="M473.655 335.45001H38.345C17.167 335.45001 0 318.28293 0 297.10477V38.34523C0 17.1681 17.167 0 38.345 0h435.31C494.832 0 512 17.1671 512 38.34523v258.76056c0 21.17714-17.167 38.34422-38.345 38.34422z" style="fill:#41479b"/><path d="M267.31 114.2127c-5.103-.96602-11.31-7.44805-9.103-11.03407s-1.931-11.58607-6.897-8.82806c-4.966 2.75902-8.276 6.06904-12.966 7.17204s-8.552 4.69004-4.966 8.00005c3.58599 3.31002 9.10299 9.93106 3.86199 16.8281s-3.586 2.20703-9.931 5.24104-10.759 9.10304-8.828 12.69008c1.931 3.586 3.586 4.96603-1.931 7.44804s-8 .828-12.414 1.931c-4.414 1.10301-15.172 6.62105-18.483 11.31007-3.31 4.69004-10.483.276-13.517-.276s-9.103 1.655-10.483 5.24103c-1.379 3.58601 1.103 6.89705 6.345 8.55205 5.241 1.65501 7.448 1.93101 4.966 6.34504-2.482 4.41402-.828 12.96608 3.31 15.4481 4.138 2.48301 12.138 10.20706 12.138 15.44808s-1.103 12.96608 6.621 14.06908c7.724 1.10301 19.586 4.41403 23.724 11.58608s5.241 11.31005 6.069 15.7241c.828 4.414 1.655 8.00003 4.138 12.96607s4.138 13.51709 1.655 15.44809c-2.483 1.93103-4.414 3.31002-2.483 7.03405 1.931 3.724 2.345 5.10303 5.931 3.034 3.586-2.069 3.586.138 5.517-.276s10.759-3.58603 9.103-7.86203c-1.655-4.27603-5.241-14.0691-.138-19.17212s12-5.93103 16.414-9.37906c4.414-3.44801 11.724-4.00003 17.37899-9.51706s11.724-2.20701 12.69 1.65502c.966 3.86201 2.483 11.31007 6.897 11.17207s5.379-.138 6.207-5.51703c.828-5.37904 7.724-17.37912 10.483-15.8621 2.75901 1.517 5.241.276 5.379-2.06902s5.379-4.41403 7.586-1.103c2.207 3.31001 7.034 5.93103 6.897 1.793-.138-4.13802-5.793-3.58601-5.931-8.13805s4.55201-7.44804 8.69001-9.37905c4.138-1.931 1.655-6.89704 2.897-9.65505 1.241-2.75903 8-6.20705 8.276-8.96606s-1.655-3.86203 1.241-4.55204c2.897-.69 6.483-1.93101 4.414-5.10302s-1.379-5.51703.828-7.03405c2.207-1.517 3.24201-8.71803.02302-9.65403-3.22-.93502-9.035 1.76599-10.48902 3.53102-1.454 1.766-7.37298-5.81604-10.178-7.68605-2.804-1.869-20.875-.727-20.45902-3.84204.41598-3.11502 8-14.48708 4.69-16.2801s-8.552-4.41403-12.828-5.79302c-4.276-1.37902-3.31 3.31-5.655-.414-2.345-3.72403-3.172-16.96612-5.793-16.96612s-4.552 5.51703-5.655 3.44802c-1.103-2.069.414-16.4141-5.655-16.6901-6.069-.276-6.207 3.31002-9.655.69-3.449-2.61901-2.95498-1.437-9.932-2.75701l.00003.00001z" style="fill:#ff9b55"/><path d="m229.837 35.74321-4.583 13.74009-14.484.113c-.794.00701-1.123 1.02002-.48399 1.49101l11.651 8.60406-4.369 13.81008c-.239.757.622 1.38401 1.269.92101l11.783-8.42205 11.784 8.42306c.646.461 1.508-.16401 1.269-.92101l-4.369-13.81008 11.651-8.60406c.639-.471.30999-1.48501-.484-1.491l-14.484-.11301-4.58299-13.74009c-.25-.754-1.316-.754-1.567-.001l-.00001-.00001zm51.035 0-4.583 13.74009-14.484.113c-.79401.00701-1.123 1.02002-.48402 1.49101l11.651 8.60406-4.36898 13.81008c-.23902.757.622 1.38401 1.269.92101l11.784-8.42306 11.784 8.42306c.646.461 1.508-.164 1.26902-.92101l-4.369-13.81008 11.651-8.60406c.63902-.471.309-1.485-.484-1.491L287.023 49.4833l-4.583-13.74008c-.25202-.753-1.318-.753-1.568-.00001zm-101.38 8.41405-4.583 13.74009-14.484.113c-.794.00701-1.123 1.02002-.48399 1.49102l11.651 8.60405-4.369 13.81008c-.239.757.622 1.38401 1.269.92101l11.784-8.42305L192.06 82.83651c.646.461 1.508-.164 1.269-.92101l-4.369-13.81008 11.651-8.60405c.639-.471.30999-1.48502-.484-1.49101l-14.484-.11301-4.583-13.74009c-.25101-.753-1.317-.753-1.568 0zm-47.633 17.3141-4.583 13.74009-14.484.113c-.794.007-1.123 1.02002-.484 1.49101l11.651 8.60406-4.369 13.81008c-.239.75701.622 1.384 1.269.92101l11.784-8.42306 11.784 8.42306c.646.461 1.508-.164 1.269-.92101l-4.369-13.81008 11.651-8.60406c.639-.471.31-1.485-.484-1.491l-14.48399-.11301-4.583-13.74009c-.25102-.754-1.317-.754-1.568 0zm200.788-17.3141 4.58301 13.74009 14.48401.113c.794.00701 1.12299 1.02002.484 1.49102l-11.651 8.60405 4.369 13.81008c.239.757-.62201 1.38401-1.26902.92101l-11.784-8.42305-11.78399 8.42305c-.646.461-1.508-.164-1.26901-.92101l4.36899-13.81008-11.651-8.60405c-.63901-.471-.31-1.48502.484-1.49101l14.483-.11301 4.58301-13.74009c.25202-.753 1.318-.753 1.569 0zm47.633 17.3141 4.583 13.74009 14.48402.113c.794.007 1.12298 1.02002.484 1.49101l-11.651 8.60406 4.369 13.81008c.239.75701-.62202 1.384-1.26902.92101l-11.784-8.42306-11.784 8.42306c-.646.461-1.50799-.164-1.269-.92101l4.36898-13.81008-11.651-8.60406c-.639-.471-.30899-1.485.484-1.491l14.48402-.11301 4.583-13.74009c.25101-.754 1.317-.754 1.568 0z" style="fill:#f5f5f5"/></svg>