<svg xmlns="http://www.w3.org/2000/svg" xml:space="preserve" width="512" height="335.45001"><path style="fill:#41479b" d="M473.655 335.448H38.345C17.167 335.448 0 318.281 0 297.103V38.345C0 17.168 17.167 0 38.345 0h435.31C494.832 0 512 17.167 512 38.345v258.759c0 21.177-17.167 38.344-38.345 38.344z"/><path style="fill:#ff4b55" d="M507.384 315.358 56.713 167.724 507.384 20.09c-3.149-5.807-7.761-10.702-13.333-14.21L0 167.724l494.051 161.844c5.573-3.508 10.183-8.403 13.333-14.21z"/><path style="fill:#f5f5f5" d="M507.384 315.358c2.944-5.428 4.616-11.646 4.616-18.253V38.346c0-6.609-1.673-12.826-4.616-18.254L56.713 167.724z"/><path style="fill:#fff5dc" d="M458.103 124.28s30.229 1.281 33.047-1.025c2.818-2.305 3.33-17.676-6.66-19.981-9.991-2.305-37.145 12.553-37.145 12.553z"/><path style="fill:#d27d69" d="M398.926 236.381s-.342.854-.512 4.611c-.171 3.757.512 13.492 12.297 17.761l-2.732 11.443 12.467 7.514s9.223-13.663 9.735-25.106c.511-11.441-31.255-16.223-31.255-16.223zm-37.401-7.686 4.867-4.867s-9.964 6.079-13.748.598c-4.952-7.172 1.708-14.687 8.625-18.018 6.916-3.33 20.75-.768 20.75-.768l8.71 22.287-26.386 16.651zm81.72-42.525 23.569-2.818s-6.916 9.991-20.494 17.42c0 0 14.09 0 18.188 4.867 4.099 4.867-4.099 9.479-7.172 11.016-3.074 1.537-29.716 17.932-29.716 17.932l-23.825-2.818z" transform="translate(0 -88.276)"/><path style="fill:#d27d69" d="M460.75 168.067s5.123-11.955 4.952-20.323l-17.249 11.955s3.928-1.878 2.562-8.71l-56.359 30.57-11.443 20.323 34.84 10.76z" transform="translate(0 -88.276)"/><path style="fill:#ffe15a" d="m418.268 172.953-5.892 9.351s-10.504-2.305-14.09.256c-3.586 2.562-3.97 12.169 2.305 12.937 0 0 4.355 2.69 6.916.512 0 0 5.251 2.049 6.148-1.281.897-3.33-.256-6.148-.256-6.148h3.714l6.532-11.656z"/><path style="fill:#b95546" d="M365.624 152.716s16.395-8.198 16.395-20.494c0-12.297-15.2-12.98-27.496-8.881 0 0-7.343-5.806-1.195-11.614 8.428-7.96 45.087-24.593 45.087-24.593l-4.099 20.494s14.602 7.686 20.494 4.099c4.951-3.014 53.284-40.988 53.284-40.988s-4.099 20.494-32.79 40.988l-3.04 15.201c-.668 3.34-2.84 6.184-5.887 7.706l-11.567 5.783s32.79 4.099 32.79 8.198c0 4.098-8.198 24.593-24.593 32.79l-8.197-8.198 4.099-12.297s-12.297-4.099-20.494-8.198c0 0-12.297 4.099-20.494 4.099-8.197.003-12.297-4.095-12.297-4.095z"/><path style="fill:#fff5dc" d="M341.032 173.21v-8.516c0-2.42.961-4.742 2.673-6.453l17.822-17.822 4.099 8.198h16.395l-4.099 4.099v4.099l-20.494 12.297z"/><path style="fill:#ffe15a" d="M349.229 257.387h-8.197s-8.198 12.297 0 12.297c0 0 12.297-8.198 16.395-12.297 0 0 0-4.099-8.198 0zm99.981 18.182h-56.663c-.467-.503-1.12-.828-1.86-.828 0 0-9.926-4.114-11.337-4.114h-1.163c-1.411 0-2.556 1.144-2.556 2.556v2.386h-12.953v-2.386c0-1.411-1.144-2.556-2.556-2.556h-1.163c-1.411 0-2.556 1.144-2.556 2.556v.043c-5.551-.226-17.42-.934-23.569-2.983l-32.79 8.198 32.79 8.198c6.147-2.049 18.016-2.758 23.569-2.984v.043c0 1.411 1.144 2.556 2.556 2.556h1.163c1.411 0 2.556-1.144 2.556-2.556v-2.386h12.953v2.386c0 1.411 1.144 2.556 2.556 2.556h1.163c1.411 0 11.337-4.114 11.337-4.114.74 0 1.394-.324 1.86-.828h56.663c1.587 0 2.872-1.287 2.872-2.872.001-1.585-1.285-2.871-2.872-2.871z" transform="translate(0 -88.276)"/><path style="fill:#ffe15a" d="M446.746 286.591c-3.416-.683-42.525 6.148-42.525 6.148s-2.391-2.391 4.781-9.052l-3.415-.854s-7.514 5.294-10.589 5.977c-2.647.588-8.562 3.464-9.833 7.303l-23.812 3.969.512 2.049 23.357-2.738c1.115 3.588 4.786 4.32 7.384 3.25 0 0 3.416 1.366 6.49-1.025 0 0 6.148 1.025 6.489-4.611l42.867-6.49c.002.002 1.71-3.243-1.706-3.926z" transform="translate(0 -88.276)"/><path style="fill:#ffe15a" d="M422.495 315.454s-3.245 4.269-11.272.512c-8.026-3.757-17.42.342-22.543-.854-5.123-1.196-12.809-4.269-19.981-1.537-7.172 2.732-11.101 2.562-9.564-.854 1.537-3.415 2.391-5.977 0-7.172l2.732-3.416-.512-2.049s-13.663-5.294-22.884 2.049c-9.223 7.343-6.489 24.081 8.881 25.276 0 0 4.782 5.977 16.566 4.269 0 0 7.686 5.294 20.835 2.903 0 0 .512 1.537 9.052.854 8.54-.683 18.103.342 16.395 6.148 0 0 6.319-1.195 2.562-7.003 0 0 7.514-.342 12.638 4.099 0 0 .342-5.123-4.611-7.857 0 0 8.369-2.903 12.98 0 0 0-3.074-6.489-11.272-5.635 0 0 5.977-4.782 8.71-3.586 0 0-2.562-3.074-10.077 0-.001 0 4.781-2.903 1.365-6.147z" transform="translate(0 -88.276)"/></svg>