<svg xmlns="http://www.w3.org/2000/svg" xml:space="preserve" width="512" height="335.45001"><path style="fill:#73af00" d="M38.345 335.448h435.31c21.177 0 38.345-17.167 38.345-38.345v-73.471H0v73.471c0 21.178 17.167 38.345 38.345 38.345z"/><path style="fill:#ff4b55" d="M512 38.345C512 17.168 494.833 0 473.655 0H38.345C17.167 0 0 17.167 0 38.345v73.471h512z"/><path style="fill:#ffe15a" d="M0 111.814h512v111.81H0z"/><path style="fill:#73af00" d="m244.598 117.68-.653.817c-.355.492-.888 1.248-1.47 2.254-1.145 1.999-2.347 5.098-2.38 8.792-.012 1.801.36 3.988.974 5.727.666 1.92 1.771 3.756 3.168 5.396 1.399 1.655 3.268 2.931 5.267 3.873.991.503 2.079.792 3.158 1.058.535.163 1.105.171 1.654.279.276.052.562.029.841.051l.422.019.211.011.105.006.053.003.026.001c-.085.003.227-.004-.184.007.684-.04 1.514-.045 2.078-.114.492-.115.906-.095 1.47-.262 1.08-.266 2.167-.555 3.158-1.058 1.998-.942 3.868-2.218 5.267-3.873 1.397-1.64 2.502-3.476 3.168-5.396.638-1.953.979-3.822.974-5.736-.031-3.678-1.234-6.788-2.379-8.785-.578-1.002-1.113-1.763-1.494-2.276-.396-.505-.607-.776-.607-.776l-.053-.067c-.381-.486-.295-1.187.191-1.568.384-.3.904-.309 1.291-.061 0 0 .326.209.937.6.578.434 1.474 1.047 2.439 2.039 1.937 1.918 4.451 5.334 5.358 10.298.449 2.376.498 5.25-.121 8.075-.6 2.854-1.817 5.805-3.782 8.387-1.93 2.594-4.523 4.888-7.606 6.435-1.521.811-3.176 1.4-4.874 1.81-.814.239-1.847.338-2.767.483-.862.095-1.475.097-2.226.15l-.292.001-.082-.004-.164-.008-.328-.017-.657-.035c-.437-.035-.876-.029-1.309-.104-.863-.152-1.741-.223-2.583-.466-1.698-.409-3.354-.999-4.874-1.81-3.083-1.547-5.676-3.842-7.606-6.435-1.964-2.583-3.181-5.534-3.782-8.387-.642-3.04-.562-5.596-.12-8.084.905-4.949 3.421-8.377 5.357-10.291.961-.988 1.86-1.607 2.463-2.061.58-.364.891-.559.891-.559.526-.33 1.22-.172 1.55.354.26.418.212.943-.078 1.307z"/><path style="fill:#ff4b55" d="M253.782 205.59v13.971c0 1.394-1.685 2.092-2.67 1.107l-.769-.769c-.639-.639-.998-1.505-.998-2.408V205.59z"/><path style="fill:#ffe15a" d="M247.126 203.371v10.141c0 .609.242 1.194.673 1.625l1.545 1.545v-13.311z"/><path style="fill:#73af00" d="M244.908 203.371v5.442c0 .777.309 1.522.857 2.071l1.361 1.361v-8.874z"/><path style="fill:#ff4b55" d="M258.219 205.59v13.971c0 1.394 1.685 2.092 2.67 1.107l.769-.769c.639-.639.998-1.505.998-2.408V205.59z"/><path style="fill:#ffe15a" d="M264.874 203.371v10.141c0 .609-.242 1.194-.673 1.625l-1.545 1.545v-13.311z"/><path style="fill:#73af00" d="M267.093 203.371v5.442c0 .777-.309 1.522-.857 2.071l-1.361 1.361v-8.874z"/><path style="fill:#ff4b55" d="m267.093 163.439 24.403-17.748v36.498c0 10.474-8.491 18.964-18.964 18.964-3.554 0-7.037-.999-10.051-2.882l-13.135-8.21v-26.93z"/><path style="fill:#ffe15a" d="M282.622 152.144v25.607c0 10.474-8.491 18.964-18.964 18.964-1.575 0-3.127-.227-4.64-.61l-9.673-6.046v-26.93l17.748.308z"/><path style="fill:#73af00" d="M275.967 156.985v16.531c0 10.474-8.491 18.964-18.964 18.964-1.575 0-3.128-.227-4.64-.61l-3.018-1.886V163.13l17.748.308z"/><path style="fill:#f5f5f5" transform="translate(0 -88.276)" d="M295.489 233.967h-3.993l1.33-3.993 9.763-4.88z"/><path style="fill:#ff4b55" d="m280.404 174.531 24.403-17.748v36.498c0 10.474-8.491 18.964-18.964 18.964-3.554 0-7.037-.999-10.051-2.882l-13.135-8.21v-26.93z"/><path style="fill:#73af00" d="M289.278 168.077v16.531c0 10.474-8.491 18.964-18.964 18.964-1.575 0-3.127-.227-4.64-.61l-3.018-1.886v-26.852l17.748.308z"/><path style="fill:#f5f5f5" transform="translate(0 -88.276)" d="M308.8 245.059h-3.993l1.33-3.993 9.763-4.881z"/><path style="fill:#ff4b55" d="m273.748 170.094 24.403-17.748v36.498c0 10.474-8.491 18.964-18.964 18.964-3.554 0-7.037-.999-10.051-2.882L256 196.716v-26.93z"/><path style="fill:#ffe15a" d="M289.278 158.8v25.607c0 10.474-8.491 18.964-18.964 18.964-1.575 0-3.127-.227-4.64-.61L256 196.716v-26.93l17.748.308z"/><path style="fill:#73af00" d="M282.622 163.64v16.531c0 10.474-8.491 18.964-18.964 18.964-1.575 0-3.127-.227-4.64-.61L256 196.64v-26.854l17.748.308z"/><path style="fill:#f5f5f5" transform="translate(0 -88.276)" d="M302.144 240.622h-3.992l1.33-3.993 9.762-4.881z"/><path style="fill:#ff4b55" d="m244.908 163.439-24.403-17.748v36.498c0 10.474 8.491 18.964 18.964 18.964 3.554 0 7.037-.999 10.051-2.882l13.135-8.21v-26.93z"/><path style="fill:#ffe15a" d="M229.378 152.144v25.607c0 10.474 8.491 18.964 18.964 18.964 1.575 0 3.127-.227 4.64-.61l9.673-6.046v-26.93l-17.748.308z"/><path style="fill:#73af00" d="M236.034 156.985v16.531c0 10.474 8.491 18.964 18.964 18.964 1.575 0 3.128-.227 4.64-.61l3.018-1.886V163.13l-17.748.308z"/><path style="fill:#f5f5f5" transform="translate(0 -88.276)" d="M216.512 233.967h3.992l-1.33-3.993-9.762-4.88z"/><path style="fill:#ff4b55" d="m231.597 174.531-24.403-17.748v36.498c0 10.474 8.491 18.964 18.964 18.964 3.554 0 7.037-.999 10.051-2.882l13.135-8.21v-26.93z"/><path style="fill:#73af00" d="M222.723 168.077v16.531c0 10.474 8.491 18.964 18.964 18.964 1.575 0 3.127-.227 4.64-.61l3.018-1.886v-26.852l-17.748.308z"/><path style="fill:#f5f5f5" transform="translate(0 -88.276)" d="M203.201 245.059h3.992l-1.33-3.993-9.761-4.881z"/><path style="fill:#ff4b55" d="m238.252 170.094-24.403-17.748v36.498c0 10.474 8.491 18.964 18.964 18.964 3.554 0 7.037-.999 10.051-2.882l13.135-8.21v-26.93z"/><path style="fill:#ffe15a" d="M222.723 158.8v25.607c0 10.474 8.491 18.964 18.964 18.964 1.575 0 3.127-.227 4.64-.61l9.673-6.046v-26.93l-17.748.308z"/><path style="fill:#73af00" d="M229.378 163.64v16.531c0 10.474 8.491 18.964 18.964 18.964 1.575 0 3.127-.227 4.64-.61l3.018-1.886v-26.854l-17.748.308z"/><g transform="translate(0 -88.276)"><path style="fill:#ffbe5a" d="m226.947 291.354-2.925-2.925c-1.773-1.773-1.726-4.664.106-6.378l48.417-45.496 6.275 6.275-45.496 48.417c-1.712 1.833-4.602 1.882-6.377.107z"/><circle style="fill:#ffbe5a" cx="225.49001" cy="289.89001" r="2.218"/></g><ellipse transform="rotate(-135)" style="fill:#f5f5f5;stroke-width:.99999" cx="-302.01065" cy="87.86718" rx="4.43596" ry="2.21798"/><g transform="translate(0 -88.276)"><path style="fill:#ffbe5a" d="m285.053 291.354 2.925-2.925c1.773-1.773 1.726-4.664-.106-6.378l-48.417-45.496-6.275 6.275 45.496 48.417c1.714 1.833 4.603 1.882 6.377.107z"/><circle style="fill:#ffbe5a" cx="286.51001" cy="289.89001" r="2.218"/></g><ellipse transform="rotate(-45)" style="fill:#f5f5f5;stroke-width:.99999" cx="60.03262" cy="274.17984" rx="4.43596" ry="2.21798"/><ellipse style="fill:#ffbe5a" cx="256" cy="177.86401" rx="19.616" ry="23.294"/><path style="fill:#ff4b55" transform="translate(0 -88.276)" d="m259.428 245.602-.407 4.619 3.499-3.043-1.814 4.268 4.268-1.814-3.044 3.498 4.62-.406-3.977 2.387 4.52 1.041-4.52 1.041 3.977 2.387-4.62-.406 3.044 3.497-4.268-1.814 1.814 4.269-3.499-3.044.407 4.619-2.386-3.975-1.042 4.518-1.041-4.518-2.386 3.975.406-4.619-3.498 3.044 1.813-4.269-4.267 1.814 3.043-3.497-4.619.406 3.976-2.387-4.519-1.041 4.519-1.041-3.976-2.387 4.619.406-3.043-3.498 4.267 1.814-1.813-4.268 3.498 3.043-.406-4.619 2.386 3.976 1.041-4.519 1.042 4.519z"/><path style="fill:#73af00" d="M280.542 177.443s-7.349 1.941-12.132-2.08c-5.316-4.469-9.302-6.579-11.01-7.371-.585-.271-1.239-.271-1.825-.001-1.224.565-3.476 1.736-5.468 3.49-2.912 2.566-11.855 7.626-13.657 7.626v11.029l14.073 12.196 16.639-.486z"/><path style="fill:#3cc8ff" d="M256 206.699c-14.068 0-25.513-12.938-25.513-28.84s11.444-28.84 25.513-28.84 25.513 12.938 25.513 28.84-11.445 28.84-25.513 28.84zm0-51.025c-10.398 0-18.857 9.953-18.857 22.185s8.459 22.185 18.857 22.185 18.857-9.953 18.857-22.185-8.459-22.185-18.857-22.185z"/><path style="fill:#ffbe5a" d="m252.178 288.946.489 1.465 1.545.012c.2.001.282.257.122.375l-1.242.918.466 1.473c.061.191-.157.349-.32.232l-1.257-.898-1.257.898c-.162.116-.38-.042-.32-.232l.466-1.473-1.242-.918c-.161-.119-.078-.374.122-.375l1.545-.012.489-1.465c.063-.19.331-.19.394 0zm-6.936-2.982.489 1.465 1.545.012c.2.001.282.257.122.375l-1.242.918.466 1.473c.061.191-.157.349-.32.232l-1.257-.898-1.257.898c-.162.116-.38-.042-.32-.232l.466-1.473-1.242-.918c-.161-.119-.078-.374.122-.375l1.545-.012.489-1.465c.063-.19.332-.19.394 0zm-5.569-5.06.489 1.465 1.545.012c.2.001.282.257.122.375l-1.242.918.466 1.473c.061.191-.157.349-.32.232l-1.257-.898-1.257.898c-.162.116-.38-.042-.32-.232l.466-1.473-1.242-.918c-.161-.119-.078-.374.122-.375l1.545-.012.489-1.465c.063-.19.331-.19.394 0zm-3.798-6.737.489 1.465 1.545.012c.2.001.282.257.122.375l-1.242.918.466 1.473c.061.191-.157.349-.32.232l-1.257-.898-1.257.898c-.162.116-.38-.042-.32-.232l.466-1.473-1.242-.918c-.161-.119-.078-.374.122-.375l1.545-.012.489-1.465c.063-.19.331-.19.394 0zm-1.676-7.834.489 1.465 1.545.012c.2.001.282.257.122.375l-1.242.918.466 1.473c.061.191-.157.349-.32.232l-1.257-.898-1.257.898c-.162.116-.38-.042-.32-.232l.466-1.473-1.242-.918c-.161-.119-.078-.374.122-.375l1.545-.012.489-1.465c.062-.19.331-.19.394 0zm25.613 22.613-.489 1.465-1.545.012c-.2.001-.282.257-.122.375l1.242.918-.466 1.473c-.061.191.157.349.32.232l1.257-.898 1.257.898c.162.116.38-.042.32-.232l-.466-1.473 1.242-.918c.161-.119.078-.374-.122-.375l-1.545-.012-.489-1.465c-.063-.19-.331-.19-.394 0zm6.936-2.982-.489 1.465-1.545.012c-.2.001-.283.257-.122.375l1.242.918-.466 1.473c-.061.191.157.349.32.232l1.257-.898 1.257.898c.162.116.38-.042.32-.232l-.466-1.473 1.242-.918c.161-.119.078-.374-.122-.375l-1.545-.012-.489-1.465c-.063-.19-.332-.19-.394 0zm5.569-5.06-.489 1.465-1.545.012c-.2.001-.282.257-.122.375l1.242.918-.466 1.473c-.061.191.157.349.32.232l1.257-.898 1.257.898c.162.116.38-.042.32-.232l-.466-1.473 1.242-.918c.161-.119.078-.374-.122-.375l-1.545-.012-.489-1.465c-.062-.19-.331-.19-.394 0zm3.798-6.737-.489 1.465-1.545.012c-.2.001-.282.257-.122.375l1.242.918-.466 1.473c-.061.191.157.349.32.232l1.257-.898 1.257.898c.162.116.38-.042.32-.232l-.466-1.473 1.242-.918c.161-.119.078-.374-.122-.375l-1.545-.012-.489-1.465c-.063-.19-.331-.19-.394 0zm1.676-7.834-.489 1.465-1.545.012c-.2.001-.283.257-.122.375l1.242.918-.466 1.473c-.061.191.157.349.32.232l1.257-.898 1.257.898c.162.116.38-.042.32-.232l-.466-1.473 1.242-.918c.161-.119.078-.374-.122-.375l-1.545-.012-.489-1.465c-.062-.19-.33-.19-.394 0z" transform="translate(0 -88.276)"/><path style="fill:#f5f5f5" d="m246.361 192.082.737 3.526h.318v-2.406s.524 1.678 1.266 2.406h.6c-.287-.369-.803-1.135-.803-1.927 0-1.091.868-1.24.868-2.407h.744v4.333h.435l.806-3.861s.664 2.415 1.914 3.861h.556c-.401-.589-1.234-2.109-1.081-4.407 0 0 1.191-.596 1.191-2.208v-2.294c0-.429.349-.778.778-.778h.535s-.796-1.544-1.647-1.768v-.968l-.641.969c-.612.132-.973.698-.973 1.304v1.397c0 .429-.348.778-.778.778h-2.781c-.823 0-2.142.823-2.142 1.878s.791 1.747.791 1.747z"/><path style="fill:#ffbe5a" d="M258.819 188.567h-.255c-2.016.11-3.142 1.436-3.142 1.436l2.045 2.045v3.848h2.447v-3.848l2.045-2.045c.002 0-1.124-1.325-3.14-1.436z"/><path style="fill:#f5f5f5" d="M263.12 270.54999h.739v13.634h-.739z" transform="translate(0 -88.276)"/><path style="fill:#f5f5f5" d="m263.511 270.445-3.987 4.819s-.52-2.323 1.803-4.61l-5.13.936s1.56-2.912 5.65-2.6l-4.194-3.501s3.605-.207 5.442 2.496c0 0 1.039-3.119 3.951-3.258l-2.403 3.651s2.403-1.225 5.731-.15l-4.957 1.318s2.773.277 3.917 4.333l-4.298-2.946s1.318 1.56.832 4.61zm-53.655-29.823h3.993l-1.33-3.993-9.763-4.881z" transform="translate(0 -88.276)"/><path style="fill:#825546" d="m262.941 142.702 26.337-8.104-13.981-5.242c-2.49-.935-5.129-1.412-7.789-1.412h-2.633c-1.225 0-2.218.993-2.218 2.218v2.218h-13.312v-2.218c0-1.225-.993-2.218-2.218-2.218h-2.633c-2.66 0-5.299.479-7.789 1.412l-13.981 5.242 26.337 8.104c1.31.403 1.944 1.886 1.332 3.113l-3.266 6.531h17.748l-3.266-6.531c-.614-1.226.021-2.71 1.332-3.113z"/><circle style="fill:#f5f5f5" cx="256" cy="134.59399" r="4.436"/><path style="fill:#ffbe5a" d="M258.219 134.598c0 1.225-.993 2.218-2.218 2.218h-8.874l3.787-3.787c.416-.416.98-.65 1.569-.65H256c1.226.002 2.219.995 2.219 2.219z"/></svg>