<svg xmlns="http://www.w3.org/2000/svg" xml:space="preserve" width="512" height="335.45001"><path style="fill:#f5f5f5" d="M473.655 335.448H38.345C17.167 335.448 0 318.281 0 297.103V38.345C0 17.168 17.167 0 38.345 0h435.31C494.832 0 512 17.167 512 38.345v258.759c0 21.177-17.167 38.344-38.345 38.344z"/><path style="fill:#ff4b55" d="M282.483 88.276h-52.966v141.241H0v52.966h229.517v141.241h52.966V282.483H512v-52.966H282.483z" transform="translate(0 -88.276)"/><path style="fill:#ff4b55" d="M150.07 146.833c-8.744.879-17.31 1.76-25.888 2.642.882-8.579 1.762-17.145 2.643-25.888-8.019 1.037-16.11 1.037-24.129 0 .879 8.744 1.76 17.31 2.643 25.888-8.579-.881-17.146-1.762-25.888-2.642 1.037 8.018 1.037 16.11 0 24.128 8.744-.879 17.31-1.76 25.888-2.642-.882 8.579-1.763 17.145-2.643 25.888 8.019-1.037 16.11-1.037 24.129 0-.879-8.743-1.761-17.31-2.643-25.888 8.579.881 17.145 1.762 25.888 2.642-1.037-8.018-1.037-16.111 0-24.128zm282.482 0c-8.744.879-17.31 1.76-25.888 2.642.882-8.579 1.762-17.145 2.643-25.888-8.019 1.037-16.11 1.037-24.129 0 .879 8.744 1.76 17.31 2.643 25.888-8.579-.881-17.146-1.762-25.888-2.642 1.037 8.018 1.037 16.11 0 24.128 8.744-.879 17.31-1.76 25.888-2.642-.882 8.579-1.763 17.145-2.643 25.888 8.019-1.037 16.11-1.037 24.129 0-.879-8.743-1.761-17.31-2.643-25.888 8.579.881 17.145 1.762 25.888 2.642-1.036-8.018-1.036-16.111 0-24.128zM150.07 341.039c-8.744.879-17.31 1.76-25.888 2.642.882-8.579 1.762-17.145 2.643-25.888-8.019 1.037-16.11 1.037-24.129 0 .879 8.743 1.76 17.31 2.643 25.888-8.579-.881-17.146-1.762-25.888-2.642 1.037 8.018 1.037 16.11 0 24.128 8.744-.879 17.31-1.76 25.888-2.642-.882 8.579-1.763 17.145-2.643 25.888 8.019-1.037 16.11-1.037 24.129 0-.879-8.743-1.761-17.31-2.643-25.888 8.579.881 17.145 1.762 25.888 2.642-1.037-8.017-1.037-16.11 0-24.128zm282.482 0c-8.744.879-17.31 1.76-25.888 2.642.882-8.579 1.762-17.145 2.643-25.888-8.019 1.037-16.11 1.037-24.129 0 .879 8.743 1.76 17.31 2.643 25.888-8.579-.881-17.146-1.762-25.888-2.642 1.037 8.018 1.037 16.11 0 24.128 8.744-.879 17.31-1.76 25.888-2.642-.882 8.579-1.763 17.145-2.643 25.888 8.019-1.037 16.11-1.037 24.129 0-.879-8.743-1.761-17.31-2.643-25.888 8.579.881 17.145 1.762 25.888 2.642-1.036-8.017-1.036-16.11 0-24.128z" transform="translate(0 -88.276)"/></svg>