<svg xmlns="http://www.w3.org/2000/svg" xml:space="preserve" width="512" height="335.45001"><path style="fill:#f5f5f5" d="M473.655 335.448H38.345C17.167 335.448 0 318.281 0 297.103V38.345C0 17.168 17.167 0 38.345 0h435.31C494.832 0 512 17.167 512 38.345v258.759c0 21.177-17.167 38.344-38.345 38.344z"/><path style="fill:#ff4b55" d="M0 385.379c0 21.177 17.167 38.345 38.345 38.345h435.31c21.165 0 38.324-17.148 38.344-38.307v-76.451H0zm335.447-191.172v-44.138h8.828v-17.655h-52.966v17.655h8.828v44.138h-26.483v-61.793h8.828v-17.655h-52.966v17.655h8.828v61.793h-26.483v-44.138h8.828v-17.655h-52.966v17.655h8.828v44.138h-17.656v17.655h8.828v70.621h-8.828v17.655h194.207v-17.655h-8.827v-70.621h8.827v-17.655z" transform="translate(0 -88.276)"/><path style="fill:#464655" d="M273.654 291.31h-35.31V256c0-9.751 7.904-17.655 17.655-17.655 9.751 0 17.655 7.904 17.655 17.655zm-17.655-123.586c-4.875 0-8.828 3.953-8.828 8.828v26.483h17.655v-26.483c0-4.876-3.952-8.828-8.827-8.828zm61.793 8.828c-4.875 0-8.828 3.953-8.828 8.828v17.655h17.655V185.38c.001-4.877-3.952-8.828-8.827-8.828zm-123.586 0c-4.875 0-8.828 3.953-8.828 8.828v17.655h17.655V185.38c0-4.877-3.952-8.828-8.827-8.828zM326.62 291.31h-35.31v-26.483c0-9.751 7.904-17.655 17.655-17.655 9.751 0 17.655 7.904 17.655 17.655zm-105.931 0h-35.31v-26.483c0-9.751 7.904-17.655 17.655-17.655 9.751 0 17.655 7.904 17.655 17.655z" transform="translate(0 -88.276)"/><path style="fill:#ffe15a" d="M280.275 233.931c0-1.474-.737-2.854-1.965-3.672l-17.897-11.932v-3.737l15.215-7.608c2.182-1.09 3.064-3.742 1.974-5.922-1.095-2.185-3.737-3.064-5.922-1.974l-15.681 7.84-15.681-7.84c-2.173-1.09-4.832-.211-5.922 1.974-1.09 2.181-.207 4.832 1.974 5.922l15.215 7.608v3.737l-17.897 11.932c-1.228.819-1.965 2.198-1.965 3.672 0 1.474.737 2.854 1.965 3.672l17.897 11.932v37.362H233.93v6.759c0 2.44 1.974 4.414 4.414 4.414 1.689 0 3.159-.948 3.901-2.345h9.341v8.828h-9.418c-.762-1.319-2.189-2.207-3.823-2.207-2.44 0-4.414 1.974-4.414 4.414v6.621h17.655v4.414c0 2.44 1.974 4.414 4.414 4.414 2.44 0 4.414-1.974 4.414-4.414v-68.259l17.897-11.932c1.227-.82 1.964-2.199 1.964-3.673zm-24.276 7.935-11.905-7.935 11.905-7.935 11.905 7.935z"/></svg>