<svg xmlns="http://www.w3.org/2000/svg" xml:space="preserve" width="512" height="335.45001"><path style="fill:#41479b" d="M473.655 0H38.345C17.167 0 0 17.167 0 38.345v258.76c0 21.177 17.167 38.345 38.345 38.345h435.31c21.177 0 38.345-17.167 38.345-38.345V38.345C512 17.167 494.833 0 473.655 0z"/><path style="fill:#f5f5f5" d="M0 61.79501h512v211.86H0z"/><path style="fill:#41479b" d="m301.869 167.724 22.933-39.721h-45.865L256 88.276l-22.936 39.727h-45.865l22.933 39.721-22.933 39.721h45.865L256 247.173l22.936-39.727h45.865zm.433-26.729-7.933 13.74-7.933-13.74zm-15.433 26.729-15.433 26.73h-30.873l-15.432-26.73 15.433-26.73h30.873zM256 114.258l7.936 13.746h-15.872zm-46.302 26.737h15.865l-7.933 13.74zm0 53.459 7.933-13.74 7.933 13.74zM256 221.191l-7.936-13.746h15.872zm38.369-40.476 7.933 13.74h-15.865z"/></svg>