<svg xmlns="http://www.w3.org/2000/svg" xml:space="preserve" width="512" height="335.45001"><path style="fill:#73af00" d="M473.655 335.448H38.345C17.167 335.448 0 318.281 0 297.103V38.345C0 17.168 17.167 0 38.345 0h435.31C494.832 0 512 17.167 512 38.345v258.759c0 21.177-17.167 38.344-38.345 38.344z"/><path style="fill:#ffe15a" d="M415.356 88.276h-40.271L0 334.022v26.384zM512 151.594 96.644 423.724h40.27L512 177.977z" transform="translate(0 -88.276)"/><path style="fill:#464655" d="M473.655 0h-58.3L0 272.13v24.973c0 21.177 17.167 38.345 38.345 38.345h58.3L512 63.318V38.345C512 17.167 494.833 0 473.655 0z"/><path style="fill:#f5f5f5" d="m156.019 275.898 18.119 14.59 19.67-12.419c2.547-1.608 5.675.951 4.602 3.766l-8.277 21.74 17.89 14.869c2.316 1.926.849 5.691-2.159 5.542l-23.234-1.154-8.614 21.61c-1.116 2.797-5.15 2.567-5.938-.341l-6.082-22.454-23.213-1.514c-3.006-.196-4.032-4.105-1.511-5.752l19.475-12.724-5.734-22.546c-.741-2.917 2.66-5.101 5.006-3.213zM323.007 166.29l18.119 14.59 19.67-12.42c2.547-1.608 5.675.951 4.602 3.766l-8.277 21.74 17.89 14.869c2.316 1.926.85 5.69-2.159 5.542l-23.234-1.154-8.613 21.61c-1.116 2.797-5.15 2.566-5.938-.341l-6.082-22.454-23.213-1.514c-3.006-.196-4.032-4.105-1.511-5.752l19.475-12.724-5.734-22.546c-.741-2.918 2.659-5.101 5.005-3.212z" transform="translate(0 -88.276)"/><path style="fill:#ff4b55" d="M512 89.701 136.914 335.448h336.742c21.177 0 38.345-17.167 38.345-38.345z"/></svg>