<svg xmlns="http://www.w3.org/2000/svg" xml:space="preserve" width="512" height="335.45001"><path style="fill:#ffe15a" d="M473.655 335.448H38.345C17.167 335.448 0 318.281 0 297.104V38.346C0 17.169 17.167.001 38.345.001h435.31C494.832.001 512 17.168 512 38.346v258.758c0 21.177-17.167 38.344-38.345 38.344z"/><path style="fill:#41479b" d="M8.828 167.724h238.345c4.875 0 8.828-3.953 8.828-8.828V8.828c0-4.874-3.95-8.826-8.825-8.828H38.345C17.167.001 0 17.168 0 38.346v120.552c0 4.874 3.953 8.826 8.828 8.826z"/><path style="fill:#f5f5f5" d="M8.828 167.724h15.334l81.77-53.574v53.574h44.138V114.15l81.769 53.574h15.334c4.875 0 8.828-3.953 8.828-8.828v-7.002l-70.154-45.963H256V61.794h-70.155L256 15.831V8.829c0-4.875-3.95-8.826-8.825-8.828h-15.337l-81.769 53.574V.001h-44.138v53.574L26.844 1.759C17.61 4.659 9.89 10.962 5.133 19.193l65.023 42.601H0v44.138h70.155L0 151.895v7.002c0 4.875 3.953 8.827 8.828 8.827z"/><path style="fill:#ff4b55" d="M141.241 88.277h-26.482v70.621H0v26.482h114.759V256h26.482v-70.62H256v-26.482H141.241z" transform="translate(0 -88.276)"/><path style="fill:#ff4b55" d="m8.227 102.903 72.662 47.167h16.214L14.607 96.52c-2.369 1.87-4.51 4.013-6.38 6.383zm158.056 47.167 88.374-57.366c-1.536-2.599-4.246-4.427-7.485-4.427h-1.909l-95.194 61.793zm-76.809 44.138L1.269 251.464C2.79 254.126 5.542 256 8.828 256h1.665l95.196-61.793H89.474zm166.386 53.658-82.666-53.658H156.98l93.874 60.935c2.812-1.305 4.741-4.04 5.006-7.277z" transform="translate(0 -88.276)"/><circle style="fill:#41479b" cx="128" cy="83.865" r="26.483"/><path style="fill:#ffe15a" d="m129.788 150.668 4.425 13.266 13.984.108c1.811.014 2.561 2.325 1.105 3.4l-11.25 8.307 4.218 13.333c.546 1.726-1.419 3.154-2.892 2.101L128 183.053l-11.377 8.131c-1.473 1.053-3.438-.375-2.892-2.101l4.218-13.333-11.25-8.307c-1.457-1.076-.706-3.386 1.105-3.4l13.984-.108 4.425-13.266c.572-1.718 3.002-1.718 3.575-.001zm-73.287 10.807 2.379 7.133 7.519.058c.973.008 1.377 1.25.594 1.828l-6.048 4.467 2.268 7.168c.294.928-.764 1.696-1.555 1.13l-6.116-4.372-6.116 4.372c-.792.566-1.848-.202-1.555-1.13l2.268-7.168-6.048-4.467c-.783-.578-.38-1.821.594-1.828l7.519-.058 2.379-7.133c.305-.924 1.61-.924 1.918 0zm145.585 0 2.379 7.133 7.519.058c.973.008 1.377 1.25.594 1.828l-6.048 4.467 2.268 7.168c.294.928-.764 1.696-1.555 1.13l-6.116-4.372-6.116 4.372c-.792.566-1.848-.202-1.555-1.13l2.268-7.168-6.048-4.467c-.783-.578-.38-1.821.594-1.828l7.519-.058 2.379-7.133c.304-.924 1.61-.924 1.918 0zm-73.011-53.58 2.379 7.133 7.519.058c.973.008 1.377 1.25.594 1.828l-6.049 4.466 2.268 7.168c.294.928-.764 1.696-1.555 1.13l-6.116-4.372-6.116 4.372c-.792.566-1.848-.202-1.555-1.13l2.268-7.168-6.048-4.467c-.783-.578-.38-1.821.594-1.828l7.519-.058 2.379-7.133c.304-.923 1.611-.923 1.919.001zm0 108.421 2.379 7.133 7.519.058c.973.008 1.377 1.25.594 1.828l-6.049 4.466 2.268 7.168c.294.928-.764 1.696-1.555 1.13l-6.116-4.372-6.116 4.372c-.792.566-1.848-.202-1.555-1.13l2.268-7.168-6.048-4.467c-.783-.578-.38-1.821.594-1.828l7.519-.058 2.379-7.133c.304-.922 1.611-.922 1.919.001z" transform="translate(0 -88.276)"/></svg>