<svg xmlns="http://www.w3.org/2000/svg" xml:space="preserve" width="512" height="335.45001"><path d="M194.55548 234.90845c-37.74109 0-68.3363-30.05286-68.3363-67.12494s30.59521-67.125 68.3363-67.125c.00104 0 .00208.00006.00311.00006V.12994H38.6341C17.2663.12994 0 16.37537 0 36.45465V299.1103c0 20.07929 17.33246 36.3247 38.6341 36.3247h155.9245V234.9084c-.00104 0-.00208.00006-.00312.00006z" style="fill:#259245"/><path d="M475.18488 0H194.55859v100.65857c37.73969.0017 68.3332 30.0539 68.3332 67.12494s-30.59351 67.12317-68.3332 67.12488V335.5h280.56116c20.44165 0 36.98023-16.24542 36.98023-36.3247V36.3897c0-20.01433-16.53858-36.3247-36.9151-36.3897z" style="fill:#ed1f34"/><path d="M126.21918 167.7835c0 37.0721 30.59521 67.12495 68.3363 67.12495.00104 0 .00208-.00006.00311-.00006 37.73969-.00171 68.3332-30.05384 68.3332-67.12488s-30.59351-67.12323-68.3332-67.12494c-.00103 0-.00207-.00006-.0031-.00006-37.7411 0-68.33631 30.05292-68.33631 67.125z" style="fill:#ffe000"/></svg>