<svg xmlns="http://www.w3.org/2000/svg" xml:space="preserve" width="512" height="335.45001"><path style="fill:#f5f5f5" d="M221.446 319.091c2.225-.676 2.226-3.826.002-4.504l-46.34-14.162c-2.223-.679-2.222-3.828.002-4.504l46.322-14.105c2.226-.676 2.226-3.828 0-4.504l-46.322-14.105c-2.225-.678-2.226-3.826-.002-4.505l46.339-14.161c2.223-.679 2.222-3.828-.002-4.504l-46.335-14.109c-2.225-.676-2.226-3.826-.002-4.505l46.34-14.162c2.223-.68 2.222-3.828-.002-4.504l-46.336-14.108c-2.225-.679-2.226-3.826-.002-4.505l46.34-14.162c2.223-.68 2.222-3.829-.002-4.505l-46.336-14.108c-2.225-.676-2.226-3.826-.002-4.505l46.34-14.162c2.223-.68 2.222-3.828-.002-4.505l-46.322-14.103c-2.226-.679-2.226-3.828 0-4.506l46.322-14.104c2.225-.676 2.226-3.826.002-4.504l-46.34-14.162c-2.223-.68-2.222-3.827.002-4.505l46.336-14.109c2.225-.676 2.226-3.826.002-4.504l-46.34-14.162c-2.223-.68-2.222-3.828.002-4.505l46.335-14.108c2.225-.678 2.226-3.827.002-4.505L168.061.108c-.223-.07-.455-.104-.689-.104H38.345C17.167 0 0 17.167 0 38.345v258.759c0 21.177 17.167 38.345 38.345 38.345h129.028c.233 0 .463-.034.686-.102z"/><path style="fill:#873250" d="M473.655 0H167.372c.233 0 .465.035.689.104l53.386 16.312c2.223.679 2.222 3.828-.002 4.505L175.11 35.029c-2.225.678-2.226 3.826-.002 4.505l46.34 14.162c2.223.679 2.222 3.828-.002 4.504L175.11 72.309c-2.225.679-2.226 3.826-.002 4.505l46.34 14.162c2.223.679 2.222 3.828-.002 4.504l-46.322 14.104c-2.226.679-2.226 3.828 0 4.506l46.322 14.103c2.225.679 2.226 3.826.002 4.505l-46.34 14.162c-2.223.68-2.222 3.829.002 4.505l46.336 14.108c2.225.676 2.226 3.826.002 4.505l-46.34 14.162c-2.223.68-2.222 3.827.002 4.505l46.336 14.108c2.225.676 2.226 3.826.002 4.504l-46.34 14.162c-2.223.68-2.222 3.829.002 4.505l46.335 14.109c2.225.676 2.226 3.826.002 4.504l-46.339 14.161c-2.223.68-2.222 3.828.002 4.505l46.322 14.105c2.226.676 2.226 3.828 0 4.504l-46.322 14.105c-2.225.676-2.226 3.826-.002 4.504l46.34 14.162c2.223.679 2.222 3.828-.002 4.504l-53.386 16.256c-.222.067-.454.102-.686.102h306.282c21.177 0 38.345-17.167 38.345-38.345V38.344C512 17.167 494.833 0 473.655 0z"/></svg>