<svg xmlns="http://www.w3.org/2000/svg" xml:space="preserve" width="512" height="335.45001"><path style="fill:#f5f5f5" d="M473.655 0H38.345C17.167 0 0 17.167 0 38.345v73.471h512V38.345C512 17.167 494.833 0 473.655 0z"/><path style="fill:#ff4b55" d="M0 297.103c0 21.177 17.167 38.345 38.345 38.345h435.31c21.177 0 38.345-17.167 38.345-38.345v-73.471H0z"/><path style="fill:#41479b" d="M0 111.814h512v111.81H0z"/><path style="fill:#ff4b55" d="M130.225 251.009c-2.613-1.501-64.018-37.216-64.018-92.113V83.862h132.414v75.034c0 54.897-61.405 90.612-64.018 92.113l-2.189 1.249z"/><path style="fill:#f5f5f5" transform="translate(0 -88.276)" d="M139.35 236.672v-12.418h4.161l16.647 2.741-2.255-9.677 2.255-9.677-16.647 2.74h-4.161v-4.194l2.741-20.808-9.677 2.819-9.677-2.819 2.741 20.808v4.194h-4.163l-16.645-2.74 2.254 9.677-2.254 9.677 16.645-2.741h4.163v12.418h-6.936l-20.808-2.741 2.818 9.677-2.818 9.676 20.808-2.741h6.936v31.94h13.872v-31.94h6.935l20.809 2.741-2.818-9.676 2.818-9.677-20.809 2.741z"/><path style="fill:#41479b" d="M132.414 180.965c-9.118 0-16.938 5.532-20.302 13.419-.594-.049-1.162-.178-1.767-.178-11.751 0-21.266 9.21-21.94 20.791 17.875 22.004 40.264 35.116 41.82 36.011l2.189 1.25 2.189-1.25c1.556-.894 23.945-14.006 41.82-36.011-.673-11.581-10.189-20.791-21.94-20.791-.605 0-1.174.129-1.767.178-3.364-7.887-11.184-13.419-20.302-13.419z"/><path style="fill:#f5f5f5" d="M194.207 88.276v70.621c0 52.966-61.793 88.276-61.793 88.276s-61.793-35.31-61.793-88.276V88.276h123.586m8.827-8.828H61.793v79.449c0 57.428 63.537 94.394 66.241 95.94l4.38 2.503 4.38-2.503c2.705-1.546 66.241-38.513 66.241-95.94V79.448z"/></svg>