<svg xmlns="http://www.w3.org/2000/svg" xml:space="preserve" width="512" height="335.45001"><path style="fill:#73af00" d="M38.345 0C17.167 0 0 17.167 0 38.345v258.759c0 21.177 17.167 38.345 38.345 38.345h132.322V0z"/><path style="fill:#ffe15a" d="M170.67.004h170.67v335.45001H170.67z"/><path style="fill:#ff4b55" d="M473.655 0H341.333v335.448h132.322c21.177 0 38.345-17.167 38.345-38.345V38.345C512 17.167 494.833 0 473.655 0z"/><path style="fill:#73af00" d="m258.04 117.504 11.693 35.062 36.959.287c2.067.017 2.924 2.654 1.261 3.881l-29.732 21.955 11.148 35.239c.623 1.971-1.62 3.601-3.302 2.399L256 194.833l-30.069 21.492c-1.682 1.202-3.925-.428-3.302-2.399l11.148-35.239-29.732-21.955c-1.663-1.228-.806-3.865 1.261-3.881l36.959-.287 11.693-35.062c.655-1.959 3.429-1.959 4.082.002z"/></svg>