<svg xmlns="http://www.w3.org/2000/svg" xml:space="preserve" width="512" height="335.45001"><path style="fill:#464655" d="M473.655 0H38.346C17.169 0 .001 17.167.001 38.345v73.471h511.998V38.308C511.979 17.148 494.82 0 473.655 0z"/><path style="fill:#73af00" d="M512 223.632H.001v73.471c0 21.177 17.167 38.345 38.345 38.345h435.309c21.165 0 38.324-17.148 38.344-38.307v-73.508H512z"/><path style="fill:#ff4b55" d="M0 111.814h512v111.81H0z"/><path style="fill:#f5f5f5" d="m95.398 233.164 5.247 11.381 12.169-2.994c.76-.186 1.389.602 1.038 1.302l-5.626 11.198 9.928 7.648c.62.478.395 1.462-.371 1.623l-12.263 2.583.211 12.531c.013.782-.897 1.22-1.5.723l-9.665-7.977-9.665 7.977c-.604.498-1.513.06-1.5-.723l.211-12.531-12.263-2.583c-.766-.161-.99-1.145-.371-1.623l9.928-7.648-5.626-11.198c-.351-.7.278-1.489 1.038-1.302l12.169 2.994 5.247-11.381c.327-.71 1.338-.71 1.664 0zM0 194.21001h512v15.01H0zm0 108.58h512v15.01H0z" transform="translate(0 -88.276)"/><path style="fill:#41479b" d="M233.2 164.112 13.055 9.536C5.056 16.564.001 26.861.001 38.345v258.758c0 11.484 5.055 21.781 13.054 28.809L233.2 171.337c2.504-1.758 2.504-5.467 0-7.225z"/><path style="fill:#ffe15a" d="m73.561 126.571 19.831 20.297 25.624-12.192c3.317-1.579 6.735 1.974 5.03 5.228l-13.175 25.132 19.513 20.602c2.527 2.667.204 7.016-3.418 6.399l-27.973-4.765-13.564 24.925c-1.756 3.227-6.61 2.361-7.142-1.273l-4.114-28.077-27.896-5.197c-3.612-.673-4.288-5.556-.995-7.186l25.432-12.588-3.678-28.138c-.477-3.643 3.957-5.794 6.525-3.167z"/></svg>