<svg xmlns="http://www.w3.org/2000/svg" xml:space="preserve" width="512" height="335.45001"><path style="fill:#73af00" d="M473.654 335.448H38.345C17.167 335.448 0 318.281 0 297.103V38.345C0 17.168 17.167 0 38.345 0h435.309c21.177 0 38.345 17.167 38.345 38.345v258.758c0 21.178-17.168 38.345-38.345 38.345z"/><path style="fill:#ffe15a" d="M0 79.44499h512v176.55H0z"/><path style="fill:#ff4b55" d="M11.527 10.95C4.417 17.911 0 27.61 0 38.345v258.758c0 10.735 4.417 20.435 11.527 27.395l165.025-156.774z"/><path style="fill:#464655" d="m278.298 215.768 9.047 27.126 28.594.222c3.702.029 5.237 4.753 2.259 6.953l-23.002 16.986 8.626 27.263c1.117 3.53-2.902 6.45-5.914 4.297l-23.263-16.628-23.263 16.628c-3.011 2.153-7.031-.767-5.914-4.297l8.626-27.263-23.002-16.986c-2.978-2.199-1.443-6.924 2.259-6.953l28.594-.222 9.047-27.126c1.167-3.513 6.135-3.513 7.306 0zm132.001 0 9.047 27.126 28.594.222c3.702.029 5.237 4.753 2.259 6.953l-23.002 16.986 8.626 27.263c1.117 3.53-2.902 6.45-5.914 4.297l-23.263-16.628-23.263 16.628c-3.011 2.153-7.031-.767-5.914-4.297l8.626-27.263-23.002-16.986c-2.978-2.199-1.443-6.924 2.259-6.953l28.594-.222 9.047-27.126c1.166-3.513 6.134-3.513 7.306 0z" transform="translate(0 -88.276)"/></svg>