<svg xmlns="http://www.w3.org/2000/svg" xml:space="preserve" width="512" height="335.45001"><style>.st0{fill:#002395}.st1{fill:#f5f5f5}</style><path class="st0" d="M314.24707 226.84668h12.63428l-6.30762-11.32135zm65.4314 0h12.63427l-6.32666-11.32135z"/><path class="st0" d="M473.65503 0H208.21332v137.5337H0v159.56927C0 318.281 17.167 335.448 38.34503 335.448h435.31C494.833 335.448 512 318.281 512 297.104V38.34503C512 17.167 494.83203 0 473.65503 0zM266.92529 184.92456h12.79523l3.95392-12.16882 3.95392 12.16882h12.79522l-10.3515 7.52081 3.95398 12.16901-10.35162-7.52087-10.35156 7.52087 3.95398-12.169-10.35157-7.52082zM325.89362 289.315l-10.35157-7.52087-10.35162 7.52087 3.95398-12.169-10.3515-7.52082h12.79516l3.95392-12.16882 3.95392 12.16882h12.79523l-10.3515 7.52082 3.95398 12.169zm37.73791 28.51313-10.35162-7.52088-10.35157 7.52087 3.95398-12.169-10.35156-7.52081H349.326l3.95392-12.16889 3.95398 12.16889h12.79516l-10.3515 7.5208 3.95398 12.16902zm37.73785-28.51313-10.35156-7.52087-10.35156 7.52087 3.95398-12.169-10.35156-7.52082h12.79522l3.95392-12.16882 3.95392 12.16882h12.79523L397.4154 277.146l3.95397 12.169zm.55048-45.2766-3.04614-5.451H373.1372l-19.8573 35.64136-19.8573-35.64136h-25.7365l-3.04615 5.451H289.5448l31.02893-49.47859 23.06207 36.06067v-59.9613h-30.71447l-10.79725-17.19171h102.31165l-10.79724 17.19171h-30.71442v10.48273h24.1103L376.76128 197.495h-13.83722v33.12548l23.06201-36.06067 31.02893 49.47858h-15.09515zm31.31708-39.42402-10.35156-7.52087-10.35157 7.52087 3.95398-12.169-10.35156-7.52082h12.79523l3.95392-12.16882 3.95391 12.16882h12.79523l-10.35156 7.52081 3.95398 12.16901z"/><path class="st1" d="M208.21332 0h-3.41333v134.1792h-68.26666V0H68.26666v134.1792H0v3.35449h208.21332z"/><path class="st0" d="M68.26666 0H38.34503C17.167 0 0 17.16803 0 38.34503v95.83417h68.26666V0z"/><path style="fill:#ed2939" d="M136.53333 0h68.26666v134.1792h-68.26666z"/><path class="st1" d="M362.92407 230.62048V197.495h13.83722l10.27307-16.3531h-24.11029v-10.48272h30.71442l10.79724-17.19171H302.12408l10.79725 17.19171h30.71447v59.9613l-23.06207-36.06067-31.02893 49.47858h15.09515l3.04615-5.45099h25.7365l19.8573 35.64136 19.8573-35.64136h25.73652l3.04614 5.451h15.09515l-31.02893-49.47859-23.062 36.06067zm-48.677-3.7738 6.32666-11.32135 6.30762 11.32135h-12.63428zm65.4314 0 6.30761-11.32135 6.32666 11.32135h-12.63427zm-22.44458 71.29163-3.95398-12.16889-3.95392 12.16889h-12.79523l10.35156 7.52081-3.95398 12.16901 10.35157-7.52088 10.35162 7.52088-3.95398-12.16901 10.3515-7.52081zm-37.73798-28.51313-3.95392-12.16882-3.95392 12.16882h-12.79516l10.3515 7.52082-3.95398 12.169 10.35162-7.52087 10.35157 7.52087-3.95398-12.169 10.3515-7.52082zm75.47583 0-3.95392-12.16882-3.95392 12.16882h-12.79522l10.35156 7.52082-3.95398 12.169 10.35156-7.52087 10.35156 7.52087-3.95397-12.169 10.35156-7.52082z"/><path class="st1" d="m283.67444 197.09351 10.35162 7.52087-3.95398-12.16901 10.3515-7.52081h-12.79522l-3.95392-12.16882-3.95392 12.16882h-12.79523l10.35157 7.52081-3.95398 12.16901zm143.16485-12.16895-3.95391-12.16882-3.95392 12.16882h-12.79523l10.35156 7.52081-3.95398 12.16901 10.35157-7.52087 10.35156 7.52087-3.95398-12.16901 10.35156-7.52081z"/></svg>