<svg xmlns="http://www.w3.org/2000/svg" xml:space="preserve" width="512" height="335.45001"><path style="fill:#f5f5f5" d="M473.7 0H38.3C17.1 0 0 17.2 0 38.3v258.8c0 21.2 17.2 38.3 38.3 38.3h435.3c21.2 0 38.3-17.2 38.3-38.3V38.3C512 17.1 494.8 0 473.7 0z"/><path style="fill:#ff4b55" d="M0 385.4c0 21.2 17.2 38.3 38.3 38.3h435.3c21.2 0 38.3-17.2 38.3-38.3v-14.6H0zM473.7 88.3H38.3C17.1 88.3 0 105.5 0 126.6v14.6h512v-14.6c0-21.2-17.2-38.3-38.3-38.3z" transform="translate(0 -88.3)"/><path style="fill:#41479b" d="M0 105.89999h512v123.6H0z"/></svg>