<svg xmlns="http://www.w3.org/2000/svg" xml:space="preserve" width="512" height="335.45001"><path style="fill:#ff4b55" d="M473.655 335.448H38.345C17.167 335.448 0 318.281 0 297.103V38.345C0 17.168 17.167 0 38.345 0h435.31C494.832 0 512 17.167 512 38.345v258.759c0 21.177-17.167 38.344-38.345 38.344z"/><path style="fill:#f5f5f5" d="M257.002 79.448c48.718 0 88.205 39.594 88.205 88.276 0 48.823-39.488 88.276-88.205 88.276-48.822 0-88.346-39.453-88.346-88.276-.001-48.682 39.523-88.276 88.346-88.276"/><path style="fill:#ff4b55" d="M273.042 305.466c-27.327 0-49.493-22.165-49.493-49.461 0-27.23 22.165-49.395 49.493-49.395 9.295 0 17.981 2.604 25.405 7.102 1.112.674 2.282-.782 1.355-1.695-11.138-10.974-26.389-17.771-43.236-17.771-34.2 0-61.891 27.692-61.891 61.761 0 34.135 27.691 61.825 61.891 61.825 16.838 0 32.083-6.792 43.219-17.763.927-.913-.243-2.369-1.355-1.696-7.42 4.494-16.1 7.093-25.388 7.093z" transform="translate(0 -88.276)"/><path style="fill:#ff4b55" d="m268.52 221.387 13.644 18.526 21.945-6.912c2.841-.895 5.186 2.342 3.452 4.762l-13.402 18.701 13.355 18.735c1.729 2.425-.625 5.656-3.464 4.754l-21.927-6.968-13.692 18.49c-1.772 2.393-5.572 1.154-5.591-1.825l-.149-23.007-21.816-7.307c-2.825-.946-2.819-4.943.008-5.881l21.835-7.252.207-23.007c.026-2.978 3.828-4.208 5.595-1.809z" transform="translate(0 -88.276)"/></svg>