<svg xmlns="http://www.w3.org/2000/svg" xml:space="preserve" width="512" height="335.45001"><path style="fill:#ff4b55" d="M38.345 335.448h435.31c21.177 0 38.345-17.167 38.345-38.345V38.346C512 17.169 494.833.001 473.655.001H38.345C17.167.001 0 17.168 0 38.346v258.758c0 21.177 17.167 38.344 38.345 38.344z"/><path style="fill:#f5f5f5" d="M8.828 167.724h185.379c4.875 0 8.828-3.953 8.828-8.828V8.828c0-4.874-3.95-8.826-8.825-8.828H38.345C17.167.001 0 17.168 0 38.346v120.552c0 4.874 3.953 8.826 8.828 8.826z"/><path style="fill:#ff4b55" transform="translate(0 -88.276)" d="M123.586 105.932H79.448v44.138H35.31v44.138h44.138v44.138h44.138v-44.138h44.138V150.07h-44.138z"/></svg>