<svg xmlns="http://www.w3.org/2000/svg" xml:space="preserve" width="512" height="335.45001"><path style="fill:#73af00" d="M38.345 0C17.167 0 0 17.167 0 38.345V256L388.414 0z"/><path style="fill:#4173cd" d="M473.655 335.448c21.177 0 38.345-17.167 38.345-38.345V79.448l-388.414 256z"/><path style="fill:#ffe15a" d="M473.655 0h-90.516L0 251.022v46.081c0 21.177 17.167 38.345 38.345 38.345h90.516L512 84.426V38.345C512 17.167 494.833 0 473.655 0z"/><path style="fill:#464655" d="M473.655 0h-42.2L0 282.677v14.426c0 21.177 17.167 38.345 38.345 38.345h42.2L512 52.771V38.345C512 17.167 494.833 0 473.655 0z"/></svg>