<svg xmlns="http://www.w3.org/2000/svg" xml:space="preserve" width="512" height="335.45001"><path style="fill:#464655" transform="translate(0 -88.276)" d="M141.241 256 0 150.069v211.862z"/><path style="fill:#ff4b55" d="M473.655 0H70.621l158.897 123.586H512V38.345C512 17.167 494.833 0 473.655 0z"/><path style="fill:#41479b" d="M70.621 335.448h403.034c21.177 0 38.345-17.167 38.345-38.345v-85.241H229.517z"/><path style="fill:#73af00" d="M56.889 0H38.345C17.167 0 0 17.167 0 38.345v6.692l154.974 122.687L0 290.415v6.688c0 21.177 17.167 38.345 38.345 38.345h18.539l167.262-132.414H512v-70.62H224.148z"/><path style="fill:#f5f5f5" transform="translate(0 -88.276)" d="M224.148 220.69H512v-17.656H230.291L85.333 88.276H56.889z"/><path style="fill:#ffe15a" transform="translate(0 -88.276)" d="M126.53 256 0 356.173v22.518L154.974 256 0 133.313v22.518z"/><path style="fill:#f5f5f5" transform="translate(0 -88.276)" d="m85.329 423.724 144.96-114.758H512V291.31H224.147L56.884 423.724z"/></svg>