<svg xmlns="http://www.w3.org/2000/svg" xml:space="preserve" width="512" height="335.45001"><path style="fill:#73af00" d="M473.655 335.448H38.345C17.167 335.448 0 318.281 0 297.103V38.345C0 17.168 17.167 0 38.345 0h435.31C494.832 0 512 17.167 512 38.345v258.759c0 21.177-17.167 38.344-38.345 38.344z"/><path style="fill:#ff4b55" d="M326.62 114.754h61.793v220.69H326.62z"/><path style="fill:#464655" d="M388.41 114.754h61.793v220.69H388.41z"/><path style="fill:#ff9b55" d="M450.207 423.724h23.448c21.177 0 38.345-17.167 38.345-38.345V203.034h-61.793zm46.745-294.866c.192-.387.1-.855-.224-1.141-.326-.287-.802-.317-1.161-.079-1.785 1.185-3.585 2.262-5.37 3.239 5.746-4.749 6.551-8.873 6.603-9.173.065-.377-.103-.757-.424-.964-.323-.209-.737-.203-1.054.012-6.207 4.21-12.419 7.215-17.775 9.33 7.193-4.545 10.044-9.182 10.218-9.475.225-.376.164-.857-.146-1.166-.31-.31-.791-.367-1.167-.142-5.743 3.462-12.545 6.191-19.046 8.294.863-1.332 1.478-2.828.926-3.669-.513-.779-1.449-.779-2.786.003-2.706 1.586-23.211 6.813-31.157 8.76-8.098-1.463-14.808.612-16.899 1.379-.557-.663-.811-1.305-.918-1.807-.174-.817-.047-1.647.339-2.222.63-.937 1.932-1.027 3.081-1.106.5-.034.946-.065 1.336-.163.25.074.556.218.551.33-.023.436.252.83.668.961.417.13.866-.036 1.097-.407.058-.094 1.409-2.305.363-4.188-.761-1.369-2.508-2.089-5.194-2.141-1.102-.769-5.267-3.273-10.399-1.338-5.198 1.961-7.505 7.299-8.268 9.555-4.045-.562-22.617-3.396-32.714-9.323-.491-.223-2.166-.881-3.102.011-.575.545-.642 1.391-.202 2.516.234.596.593 1.178 1.069 1.75-5.405-2.481-12.691-5.946-18.198-9.027-.862-.399-2.425-.941-3.232-.096-.505.532-.498 1.304.023 2.298.11.21.219.444.337.701.536 1.155 1.267 2.73 3.053 4.548-1.335-.729-2.538-1.479-3.502-2.229-4.834-3.761-5.489-4.129-6.355-3.545-.746.502-.505 1.351-.25 2.25l.067.237c.21.747.553 1.951 1.492 3.403-.749-.51-1.393-.614-1.9-.26-.302.209-.757.729-.407 1.875.841 2.741 6.65 9.958 17.702 12.083-1.111.162-2.28.282-3.407.305-.428.009-.799.302-.906.717-.106.415.077.852.449 1.065.202.116 4.108 2.302 11.27 2.118-1.071.27-2.286.478-3.63.558-.418.025-.771.319-.871.725-.1.406.076.83.434 1.046.213.129 4.369 2.573 10.804 2.212l-.561.345c-.323.199-.498.568-.446.943.052.375.32.685.684.789.201.057 3.828 1.067 8.346.589l-.794.565c-.319.227-.468.626-.374 1.005.094.38.408.665.796.719.082.012.666.087 1.602.087.617 0 1.387-.034 2.265-.141-.02.228.007.455.082.681.452 1.361 2.456 1.69 3.123 1.699.041.001.081.001.121.001.807 0 1.66-.114 2.529-.287 1.393 1.301 3.936 1.182 6.403.608-.146.222-.257.444-.327.663-.142.451-.034.911.289 1.233.314.311 1.071 1.064 7.967-.876-.029.022-.057.044-.086.066-.917.71-.859 1.443-.742 1.817.423 1.356 3.465 2.225 8.985 2.595.122 3.07-.73 6.404-.74 6.441-.096.367.035.757.334.992.298.233.707.269 1.043.09.319-.172.637-.394.937-.633l-.026 1.015c-.01.369.193.71.521.876.138.07.286.104.434.104.038 0 .073-.013.11-.018-.103.865-.454 1.898-1.562 2.141-.503.11-1.037.164-1.553.217-2.35.241-5.013.514-5.434 5.899-.032.404.195.785.566.949.37.162.803.076 1.082-.218l1.023-1.088c.602.148 1.561.3 2.588.134-.258 1.246-.182 2.78 1.065 4.081.27.281.684.37 1.046.225.362-.146.599-.497.599-.886v-.69c.593-.138 1.38-.426 2.124-1.018.436.941 1.268 2.045 2.852 2.977.15.088.318.131.484.131.219 0 .436-.075.61-.221.31-.257.425-.682.287-1.062l-.499-1.372c.348-.343.8-.834 1.195-1.358.195.284.523.447.873.413.363-.035.675-.274.803-.616l.351-.935c.207-.057.405-.126.594-.203.235 2.069 1.826 3.791 1.922 3.893.183.194.436.301.696.301.077 0 .156-.009.233-.029.337-.085.6-.344.691-.679l.532-1.986c1.41-.715 1.548-2.008 1.634-2.814.017-.158.041-.377.045-.488.551.271 1.719 1.583 2.6 2.944.175.27.476.436.798.437.328-.023.623-.159.802-.428 0 0 .746-1.13 1.109-1.789 1.54-2.795-.793-4.469-1.914-5.273-.275-.198-.652-.468-.713-.543-.211-.512-.137-.989.002-1.359.935.644 1.997 1.187 3.175 1.464.073.018.146.025.218.025.307 0 .601-.149.782-.408.224-.32.231-.745.017-1.071-.021-.033-1.778-2.735-2.91-6.058 1.828 1.073 4.303 2.368 5.587 2.368.881 0 1.217-.548 1.322-.783.061-.138.171-.388.084-.856 1.699.918 3.616 1.63 5.073 1.254.43-.11 1.439-.371 1.592-1.276.077-.458-.077-.829-.415-1.194 1.578.383 3.279.574 4.948.353 1.391-.183 1.802-.858 1.9-1.393.063-.342.175-.999-1.066-2.241 2.397-.131 4.537-.655 4.713-2.101.015-.13-.009-.248-.02-.37 7.704-.84 13.566-5.658 13.825-5.875.075-.063.126-.141.177-.22 4.664-.583 9.962-1.636 14.251-3.564 8.094-3.639 12.193-8.552 11.459-10.335-.213-.519-.825-.894-1.58-.612-.212.079-.641.253-1.203.481 4.793-3.893 6.668-7.503 6.847-7.863z" transform="translate(0 -88.276)"/><path style="fill:#464655" d="M496.952 40.582c.192-.387.1-.855-.224-1.141-.326-.287-.802-.317-1.161-.079-1.785 1.186-3.586 2.262-5.37 3.239 5.746-4.749 6.552-8.873 6.603-9.173.065-.377-.103-.758-.424-.964-.323-.209-.737-.204-1.054.012-6.207 4.21-12.419 7.215-17.775 9.33 7.194-4.545 10.044-9.181 10.218-9.474.225-.376.164-.857-.146-1.167-.31-.31-.791-.367-1.167-.141-5.743 3.462-12.545 6.191-19.046 8.295.863-1.332 1.478-2.828.926-3.669-.513-.78-1.449-.78-2.786.003-2.706 1.586-23.211 6.813-31.156 8.76-8.098-1.463-14.808.612-16.899 1.379-.556-.663-.811-1.305-.919-1.806-.174-.817-.047-1.647.339-2.222.63-.937 1.932-1.026 3.081-1.106.499-.034.945-.065 1.336-.162.25.073.556.218.552.329-.023.436.252.83.668.961.417.13.866-.036 1.098-.407.059-.093 1.408-2.305.363-4.188-.761-1.369-2.507-2.089-5.195-2.141-1.103-.769-5.267-3.273-10.399-1.338-5.197 1.96-7.505 7.299-8.268 9.555-4.045-.562-22.617-3.396-32.714-9.323-.49-.223-2.165-.879-3.102.011-.575.545-.642 1.391-.202 2.516.234.596.593 1.178 1.069 1.75-5.405-2.481-12.69-5.946-18.199-9.027-.861-.399-2.425-.942-3.231-.096-.505.532-.499 1.305.023 2.298.11.21.218.444.337.701.536 1.155 1.266 2.73 3.053 4.55-1.334-.729-2.538-1.479-3.502-2.229-4.834-3.761-5.49-4.129-6.355-3.545-.746.503-.505 1.351-.25 2.25l.067.237c.21.747.552 1.951 1.492 3.403-.749-.51-1.393-.614-1.9-.26-.302.207-.757.729-.406 1.875.84 2.741 6.65 9.956 17.702 12.083-1.111.162-2.279.282-3.407.305-.429.009-.8.302-.906.717-.106.415.077.851.449 1.065.202.116 4.108 2.302 11.27 2.116-1.071.27-2.286.479-3.631.558-.417.024-.771.319-.871.725-.1.406.076.83.435 1.046.213.129 4.369 2.574 10.804 2.212l-.561.345c-.322.199-.498.568-.446.943.052.375.321.685.684.789.201.057 3.828 1.066 8.346.589l-.794.565c-.319.227-.468.626-.374 1.006.093.38.408.665.796.718.082.012.667.088 1.603.088.617 0 1.387-.034 2.265-.141-.02.228.007.456.082.681.452 1.361 2.456 1.69 3.123 1.699h.121c.807 0 1.658-.114 2.529-.287 1.393 1.301 3.936 1.182 6.403.608-.146.222-.257.444-.328.664-.142.451-.034.911.289 1.233.315.311 1.071 1.063 7.968-.876-.029.023-.057.044-.086.067-.917.71-.859 1.443-.742 1.817.423 1.356 3.465 2.225 8.985 2.595.122 3.07-.732 6.404-.74 6.441-.096.367.035.757.334.992.298.233.707.269 1.043.09.32-.172.637-.394.937-.633l-.026 1.014c-.01.369.193.71.522.876.138.07.285.104.434.104.038 0 .073-.014.11-.019-.103.865-.454 1.898-1.564 2.141-.503.11-1.036.164-1.553.217-2.35.241-5.013.514-5.434 5.9-.031.404.195.783.566.948.369.161.803.076 1.081-.218l1.023-1.088c.601.148 1.562.299 2.588.134-.258 1.246-.182 2.78 1.065 4.081.27.281.684.37 1.046.225.362-.146.598-.497.598-.886v-.69c.593-.138 1.38-.426 2.124-1.018.436.941 1.268 2.046 2.852 2.977.15.088.318.132.484.132.218 0 .436-.075.611-.221.31-.257.425-.682.287-1.06l-.499-1.373c.348-.343.801-.833 1.195-1.357.195.284.523.447.873.413.364-.035.675-.274.804-.616l.351-.935c.207-.057.405-.126.594-.203.235 2.069 1.826 3.791 1.922 3.893.183.195.436.301.695.301.078 0 .156-.009.233-.029.337-.085.6-.344.69-.679l.532-1.986c1.41-.714 1.548-2.008 1.634-2.814.017-.158.041-.377.045-.488.551.271 1.719 1.583 2.6 2.944.175.27.476.436.798.437.328-.023.623-.16.802-.429 0 0 .746-1.129 1.109-1.789 1.54-2.795-.793-4.469-1.914-5.273-.275-.198-.652-.468-.713-.543-.21-.512-.137-.989.001-1.359.935.644 1.998 1.187 3.175 1.464.073.018.146.025.218.025.307 0 .601-.149.782-.408.225-.32.231-.745.017-1.071-.021-.033-1.778-2.735-2.91-6.058 1.83 1.071 4.303 2.368 5.587 2.368.881 0 1.217-.548 1.321-.783.062-.138.171-.388.084-.856 1.7.919 3.616 1.63 5.073 1.254.43-.111 1.439-.372 1.592-1.276.077-.459-.077-.828-.415-1.194 1.578.383 3.279.574 4.947.353 1.391-.184 1.802-.858 1.901-1.393.063-.342.175-.999-1.066-2.241 2.397-.131 4.537-.655 4.713-2.101.017-.13-.008-.248-.02-.37 7.704-.84 13.566-5.658 13.825-5.875.075-.063.126-.141.177-.22 4.664-.582 9.962-1.635 14.251-3.563 8.094-3.639 12.193-8.552 11.459-10.335-.213-.519-.825-.895-1.58-.612-.211.079-.641.253-1.202.482 4.794-3.9 6.669-7.51 6.848-7.87zm-14.069-5.423c-3.518 3.442-10.146 8.392-21.077 11.264-.095.025-.177.074-.256.124-2.298-.179-5.204-.598-7.752-1.55 8.078-1.832 19.427-4.988 29.085-9.838zm-48.64 11.167c.135.024.271.021.403-.011 1.137-.278 27.449-6.731 31.673-8.91-.491.968-1.434 2.324-2.206 2.89-.022.015-.032.04-.052.057-11.33 3.363-20.945 4.781-21.103 4.803-.522.075-.885.559-.81 1.081.075.522.557.884 1.081.81.087-.013 3.007-.442 7.49-1.378 2.321 1.331 5.174 2.065 7.772 2.462-3.881.328-7.473.14-7.532.137-.452-.017-.893.298-.988.761-.095.463.162.927.607 1.089l3.613 1.324c-5.08 1.081-9.978.066-10.036.054-.392-.087-.791.084-1.005.419-.214.335-.199.769.04 1.087.69.92 2.636 1.887 4.334 2.6-6.984 1.322-11.79-2.959-12.017-3.165-.388-.354-.99-.329-1.345.057-.356.386-.335.986.047 1.345 5.517 5.163 15.799 7.362 20.414 8.119-.683.404-1.507.785-2.37.939-3.542.629-11.72-3.261-17.474-6.408l-4.608-2.659c-.451-.262-1.031-.11-1.298.338-.268.449-.125 1.03.32 1.303.221.136 2.028 1.242 4.596 2.653l11.215 6.473c-3.441.425-7.071-.345-7.116-.355-.028-.006-.054.002-.082-.001-2.625-1.846-6.861-4.954-13.221-10.228-1.024-3.654-2.942-5.259-5.343-6.784 2.715-.833 8.439-2.132 15.001-.902zm6.932 20.255c-.006.002-.01.007-.017.009 0 0-.009-.007-.013-.01.011 0 .021.001.03.001zm-62.221-4.332 2.185-1.555c.388-.276.514-.797.294-1.219-.221-.424-.721-.617-1.169-.459-3.609 1.289-7.264 1.158-9.551.864l2.53-1.557c.403-.248.564-.754.377-1.19-.185-.435-.661-.668-1.121-.548-4.605 1.209-8.44.707-10.951.014 3.991-.932 6.308-2.698 6.431-2.792.349-.27.467-.745.286-1.148-.182-.402-.614-.623-1.048-.546-5.261.991-9.323.664-12.051.1 2.818-.473 5.058-1.146 5.197-1.188.017-.004.028-.018.043-.023.065-.023.119-.06.177-.095.049-.031.098-.056.14-.094.046-.042.078-.092.116-.142.036-.049.074-.093.1-.147.024-.052.035-.109.051-.164.018-.065.036-.126.041-.194 0-.015.009-.029.009-.045 0-.05-.02-.094-.028-.142-.007-.047.001-.095-.013-.143-.004-.015-.017-.025-.022-.04-.023-.064-.059-.118-.094-.175-.031-.05-.056-.102-.095-.145-.041-.045-.09-.077-.139-.114-.05-.038-.095-.077-.151-.104-.051-.024-.108-.035-.163-.05-.065-.019-.127-.038-.195-.042-.017-.001-.029-.01-.045-.01-12.271-.115-19.043-6.57-21.212-9.864 3.823 2.664 8.846 4.925 12.504 6.223h.003c4.865 1.879 10.929 3.076 11.186 3.126.516.1 1.02-.235 1.121-.754.102-.518-.236-1.02-.754-1.121-.062-.012-6.177-1.218-10.891-3.043-10.166-3.934-12.226-8.195-12.913-10.347 1.099.781 2.575 1.93 3.366 2.545 5.951 4.628 19.797 9.005 20.384 9.19.502.159 1.031-.117 1.194-.615.162-.498-.105-1.033-.6-1.202-14.317-4.877-16.467-9.514-17.622-12.004-.1-.216-.194-.418-.287-.606.193.06.394.134.557.207 7.937 4.441 19.602 9.7 24.011 11.652-.793.382-1.625.701-2.176.732-.367.021-.692.25-.831.593-.14.341-.071.732.177 1.004.059.064.994 1.067 2.812 1.46l-1.29.841c-.302.198-.468.55-.427.909.042.36.282.665.622.789.088.032 1.562.551 3.51.756l-1.074.783c-.273.199-.419.527-.387.863.032.336.239.63.545.774.125.058 1.593.725 3.949.614l-.081.056c-.31.218-.462.599-.388.971.074.372.364.664.735.745.146.031 1.95.402 4.538.108l-.588.392c-.313.207-.474.582-.413.952.062.371.335.671.7.767.278.072 4.458 1.112 9.944-.628-1.15.757-2.222 1.306-3.108 1.505-.404.092-.704.433-.741.846-.038.413.196.803.577.966.025.011.119.047.244.092-2.931 1.94-5.928 2.614-8.037 2.816zm-4.622-17.33c-.185-.427-.649-.661-1.103-.548-1.106.27-2.001.243-2.691.097 1.132-.504 2.099-1.105 2.271-1.214.07-.044.129-.097.183-.154 1.7.684 3.629 1.341 5.793 1.969l-3.667 2.676c-1.228.13-2.446.013-3.417-.161l2.276-1.484c.39-.256.54-.754.355-1.181zm8.583 19.656c-.363-.004-1.033-.19-1.282-.367.063-.1.222-.297.575-.577 2.255-.578 4.845-1.674 7.327-3.699 2.604.189 6.699-.43 10.872-4.623.154.279.316.562.503.85-.452.341-11.236 8.476-17.995 8.416zm7.452-6.523c3.089-1.859 6.545-5.092 8.701-7.253.033.79.186 1.697.529 2.692-.074.044-.151.084-.214.15-3.424 3.611-6.755 4.407-9.016 4.411zm17.944 12.366c-3.145-.215-6.073-.704-7.143-1.176 2.602-2.031 3.348-2.927 3.426-3.026.263-.329.279-.792.04-1.139-.241-.348-.681-.498-1.08-.366-3.428 1.108-7.433 2.189-9.411 2.467.908-.815 2.524-1.845 3.982-2.575.468-.234.661-.801.433-1.271-.228-.471-.792-.669-1.266-.448-2.6 1.223-6.322 2.455-8.651 2.436 6.34-2.283 12.804-7.166 13.419-7.637.488.581 1.026 1.172 1.674 1.773 5.705 5.304 5.08 9.465 4.577 10.962zm1.574 5.824c-.052.063-.122.146-.209.242.207-1.414.355-3.188.22-4.875.525-1.155 1.589-4.579-1.165-9.121 1.816.264 5.985 1.138 7.789 3.762.239.348.477.734.712 1.134l-.002.003c-.089.211-1.896 4.586-1.319 10.055-.423-.498-.826-1.108-1.097-1.823-.128-.335-.431-.572-.789-.61-.353-.038-.705.125-.903.425-.403.611-.985 1.449-1.565 2.212l.02-.772c.011-.407-.238-.776-.62-.919-.38-.142-.812-.028-1.072.287zm6.159 11.892c-.19.569-1.209 1.668-1.871 2.265-.023.021-.046.044-.067.067-.499-.825-.481-1.478-.48-1.514.033-.447-.249-.856-.678-.986-.43-.129-.891.058-1.109.448-.874 1.56-2.408 1.72-2.689 1.738.049-1.151.713-2.197.756-2.261.264-.402.188-.938-.178-1.25-.364-.312-.905-.306-1.262.017-1.402 1.269-3.629.448-3.649.441-.092-.035-.186-.056-.281-.063.617-1.342 1.696-1.452 3.187-1.604.569-.058 1.158-.119 1.767-.253 2.94-.643 3.287-3.893 3.059-5.522-.007-.045-.031-.082-.044-.124.46-.566.919-1.186 1.3-1.721.186.285.386.542.587.785.006.697.045 2.846.287 3.977.192.898.849 1.503 1.479 1.891-.104.203-.192.417-.248.649-.225.925-.034 1.942.252 2.814-.044.069-.093.129-.118.206zm.503-5.958c-.092-.426-.149-1.096-.186-1.77.267.184.455.295.482.309.332.184.744.156 1.046-.077.301-.232.437-.621.345-.989-1.009-4.035-.333-7.81.227-9.878 1.645 3.615 2.825 8.076 2.417 11.018-.063.45.201.882.629 1.033.089.031.181.041.271.045-.01.1-.02.206-.032.299-.967-.03-2.559.118-4.102.921-.442-.186-1.014-.524-1.097-.911zm12.58 4.938c-.076.138-.17.297-.27.461-1.14-1.51-2.706-3.063-4.046-2.557-1.08.412-1.191 1.451-1.265 2.14-.088.831-.151 1.177-.844 1.415-.301.103-.531.349-.614.655l-.107.397c-.364-.802-.557-1.77-.014-2.595.278-.423.177-.988-.23-1.29-.407-.301-.98-.233-1.304.156-.009.01-.874 1.028-2.132 1.207-.13.019-.253.064-.362.13-.183-.584-.288-1.195-.173-1.668.069-.282.209-.474.451-.621 1.913-1.158 4.146-.829 4.165-.825.504.084.968-.235 1.082-.724.052-.218.461-2.081.162-3.641l1.236-2.076c.444.568 1.045 1.265 1.781 1.951-.406.744-.802 1.946-.237 3.317.227.552.755.93 1.366 1.367 1.558 1.119 1.971 1.681 1.355 2.801zm-3.517-11.681c-.175-.287-.523-.442-.821-.459-.335.001-.644.178-.817.466l-1.241 2.086c-.524-4.224-2.514-9.27-4.637-12.359-2.76-4.015-9.585-4.776-10.872-4.771-.626-.76-1.325-1.537-2.188-2.339-5.665-5.266-3.802-9.475-3.712-9.671.008-.017.006-.034.013-.051.025-.062.036-.124.047-.188.011-.058.025-.115.025-.174 0-.061-.014-.117-.024-.177-.012-.061-.021-.12-.043-.179-.022-.053-.054-.098-.086-.148-.035-.057-.069-.113-.118-.161-.013-.013-.018-.031-.032-.044-.034-.031-.076-.043-.114-.068-.039-.026-.066-.063-.109-.084-.018-.009-.036-.007-.054-.014-.062-.025-.124-.038-.189-.05-.06-.011-.116-.025-.174-.025-.061 0-.117.013-.177.024-.062.011-.121.02-.179.043-.053.021-.099.054-.149.085-.057.036-.113.07-.161.118-.013.013-.031.019-.043.032l-.001.001c-6.482 7.081-13.266 7.923-16.781 7.775l4.077-2.719c.801-.448 1.61-.981 2.414-1.612.404-.318.484-.896.184-1.311-.301-.417-.877-.519-1.303-.234l-2.239 1.492c-2.761 1.532-5.429 1.944-7.293 2.002l2.124-1.489c1.632-.789 3.413-1.974 5.289-3.72.367-.342.408-.91.092-1.3-.314-.39-.877-.468-1.291-.182l-5.064 3.55c-2.406 1.133-4.376 1.272-5.699 1.151l7.241-5.286c.298-.217.444-.586.375-.948-.068-.362-.338-.652-.693-.747-11.804-3.142-14.641-6.349-15.281-7.982-.056-.143-.093-.258-.115-.348.238.036.557.126.763.213 11.565 6.796 33.231 9.518 34.147 9.632.472.047.91-.237 1.036-.693.327-1.176 2.216-7.14 7.349-9.077 4.841-1.823 8.653 1.126 8.811 1.249.17.136.38.21.597.21 2.057 0 3.421.41 3.839 1.156.134.239.173.513.159.787-.334-.17-.702-.284-1.065-.338-.164-.025-.331-.006-.486.054-.188.073-.663.106-1.081.135-1.347.093-3.383.233-4.535 1.946-.68 1.011-.906 2.355-.621 3.687.178.831.623 1.917 1.638 2.977.1.198.259.342.448.43.348.309.736.614 1.199.904 2.254 1.409 3.908 2.71 4.787 5.899.007.113.036.22.082.323.36 1.44.575 3.241.623 5.585.011.521.437.936.954.936h.021c.527-.011.946-.448.936-.975-.028-1.313-.114-2.466-.243-3.511 7.115 5.812 11.316 8.7 13.423 10.145.297.204.579.397.825.57-2.144.195-5.539-1.762-8.194-3.786-.873-.788-1.698-1.439-2.145-1.781-.406-.311-.985-.247-1.313.146-.328.392-.289.973.088 1.318.242.221 1.012.91 2.094 1.747 1.251 1.137 2.217 2.21 2.52 2.828-1.487-.313-5.566-2.739-8.883-5.107-.409-.292-.972-.217-1.292.169-.319.387-.285.956.078 1.301 2.29 2.174 3.7 4.16 4.597 8.416.511 2.428 1.501 4.732 2.346 6.402-2.227-1.521-3.663-3.85-3.683-3.882zm21.786-2.65c-5.056.664-10.777-3.19-10.834-3.229-.408-.278-.961-.201-1.273.18-.316.38-.289.936.06 1.284 1.656 1.656 3.345 2.781 4.577 3.601.179.119.371.247.555.373-1.838-.092-5.032-2.164-6.793-3.606-.386-.317-.953-.281-1.299.083-.344.363-.349.931-.012 1.3.713.781 1.389 1.654 1.799 2.292-1.396-.51-3.751-1.85-5.452-2.938-.393-1.743-.877-3.161-1.473-4.363 5.549 3.305 6.483 2.19 6.834 1.77.204-.245.433-.666.363-1.286v-.007c2.265 1.146 4.693 1.822 6.556.951.195-.092.476-.237.701-.468 3.438 1.921 5.237 3.359 5.784 4.049-.03.005-.061.01-.093.014zm-1.298-3.629c-1.055-.716-2.406-1.54-4.182-2.504-.036-.02-.077-.021-.115-.035.313.012.633.021.962.021.918 0 1.885-.063 2.845-.203.073.047.143.099.231.127 2.959.93 4.74 1.637 5.31 2.11-.761.33-2.945.545-5.051.484zm5.629-2.38s-.011.003-.017.003c-.768-.447-1.86-.886-3.25-1.365.05-.1.088-.207.099-.323.023-.236-.043-.467-.175-.652 1.623.388 3.074.541 4.206.34 1.425-.254 2.716-.956 3.651-1.587h.001c.959 0 3.682-.034 7.171-.321-2.519 1.557-6.815 3.692-11.686 3.905zm38.528-16.323c-1.3 1.635-4.252 4.311-9.613 6.721-7.321 3.292-18.133 3.948-22.639 4.075-.007-.072-.015-.143-.04-.213-.119-.351-.431-.601-.8-.643-.085-.009-4.922-.572-10.302-2.194 3.225.305 6.269.456 9.117.456 8.043 0 14.613-1.121 19.956-2.801.028-.004.055.002.083-.004 2.944-.771 9.96-3.645 13.728-5.188.179-.074.348-.143.51-.209zm-5.095-.912c-6.215 3.847-17.053 7.957-34.197 7.039.333-.161.552-.495.544-.872-.008-.403-.267-.757-.649-.886-.767-.259-1.678-.602-2.564-.973 2.624.077 6.04-.168 9.287-1.419.371-.143.615-.501.611-.899-.003-.398-.253-.753-.627-.889l-1.248-.457c3.167-.132 7.05-.547 9.758-1.687.427-.18.662-.639.561-1.09-.006-.023-.02-.042-.026-.065 5.721-1.433 16.255-4.74 27.129-11.553-2.342 3.892-9.145 11.129-28.403 15.68-.499.118-.817.608-.718 1.111.098.504.576.834 1.081.762.143-.022 13.235-2.078 26.752-9.815-1.602 1.781-3.968 3.956-7.291 6.013z"/></svg>